<svg xmlns="http://www.w3.org/2000/svg" width="1500" height="1500" viewBox="0 0 1500 1500" shape-rendering="crispEdges" role="img" aria-labelledby="title desc">
  <title id="title">Tension Between Light and Shadow in White frame</title>
  <desc id="desc">Square Project artwork previewed in a white frame.</desc>
  <defs>
    <linearGradient id="frameFace" x1="0" y1="0" x2="1" y2="1">
      <stop offset="0" stop-color="#BEBEB8" />
      <stop offset="0.32" stop-color="#FFFFFF" />
      <stop offset="0.68" stop-color="#F8F8F5" />
      <stop offset="1" stop-color="#D5D5CF" />
    </linearGradient>
    <filter id="artShadow" x="-10%" y="-10%" width="120%" height="120%">
      <feDropShadow dx="0" dy="20" stdDeviation="24" flood-color="#000000" flood-opacity="0.24" />
    </filter>
  </defs>
  <rect x="0" y="0" width="1500" height="1500" fill="#FFFFFF" />
  <rect x="0" y="0" width="1500" height="1500" fill="url(#frameFace)" />
  <rect x="120" y="120" width="1260" height="1260" fill="#F8F7F3" />
  <rect x="120" y="120" width="1260" height="1260" fill="none" stroke="#000000" stroke-opacity="0.14" stroke-width="10" />
  <rect x="250" y="250" width="1000" height="1000" fill="#FFFFFF" filter="url(#artShadow)" />
  <rect x="250" y="250" width="125" height="125" fill="#2C0A5E" />
  <rect x="375" y="250" width="125" height="125" fill="#351275" />
  <rect x="500" y="250" width="125" height="125" fill="#492D88" />
  <rect x="625" y="250" width="125" height="125" fill="#4B4F96" />
  <rect x="750" y="250" width="125" height="125" fill="#70B35B" />
  <rect x="875" y="250" width="125" height="125" fill="#A7D78A" />
  <rect x="1000" y="250" width="125" height="125" fill="#E7E6BD" />
  <rect x="1125" y="250" width="125" height="125" fill="#FFFFFF" />
  <rect x="250" y="375" width="125" height="125" fill="#2C0A5E" />
  <rect x="375" y="375" width="125" height="125" fill="#351275" />
  <rect x="500" y="375" width="125" height="125" fill="#492D88" />
  <rect x="625" y="375" width="125" height="125" fill="#4B4F96" />
  <rect x="750" y="375" width="125" height="125" fill="#70B35B" />
  <rect x="875" y="375" width="125" height="125" fill="#E2F4E5" />
  <rect x="1000" y="375" width="125" height="125" fill="#D6F2C1" />
  <rect x="1125" y="375" width="125" height="125" fill="#FFFFFF" />
  <rect x="250" y="500" width="125" height="125" fill="#111110" />
  <rect x="375" y="500" width="125" height="125" fill="#320F7B" />
  <rect x="500" y="500" width="125" height="125" fill="#40298A" />
  <rect x="625" y="500" width="125" height="125" fill="#482F9E" />
  <rect x="750" y="500" width="125" height="125" fill="#7FBF64" />
  <rect x="875" y="500" width="125" height="125" fill="#8FD8C5" />
  <rect x="1000" y="500" width="125" height="125" fill="#E4F6B0" />
  <rect x="1125" y="500" width="125" height="125" fill="#FFFFFF" />
  <rect x="250" y="625" width="125" height="125" fill="#1E1317" />
  <rect x="375" y="625" width="125" height="125" fill="#42265E" />
  <rect x="500" y="625" width="125" height="125" fill="#472F9E" />
  <rect x="625" y="625" width="125" height="125" fill="#5A6BA3" />
  <rect x="750" y="625" width="125" height="125" fill="#B6D553" />
  <rect x="875" y="625" width="125" height="125" fill="#EAF5B9" />
  <rect x="1000" y="625" width="125" height="125" fill="#F9F9E4" />
  <rect x="1125" y="625" width="125" height="125" fill="#FFFFFF" />
  <rect x="250" y="750" width="125" height="125" fill="#000000" />
  <rect x="375" y="750" width="125" height="125" fill="#422A6B" />
  <rect x="500" y="750" width="125" height="125" fill="#492688" />
  <rect x="625" y="750" width="125" height="125" fill="#601D7F" />
  <rect x="750" y="750" width="125" height="125" fill="#93B84E" />
  <rect x="875" y="750" width="125" height="125" fill="#8CDBD3" />
  <rect x="1000" y="750" width="125" height="125" fill="#E2F0C9" />
  <rect x="1125" y="750" width="125" height="125" fill="#FFFFFF" />
  <rect x="250" y="875" width="125" height="125" fill="#000000" />
  <rect x="375" y="875" width="125" height="125" fill="#422B7E" />
  <rect x="500" y="875" width="125" height="125" fill="#4E2E92" />
  <rect x="625" y="875" width="125" height="125" fill="#502E99" />
  <rect x="750" y="875" width="125" height="125" fill="#D5D58B" />
  <rect x="875" y="875" width="125" height="125" fill="#B2DE9D" />
  <rect x="1000" y="875" width="125" height="125" fill="#C5E1AF" />
  <rect x="1125" y="875" width="125" height="125" fill="#FFFFFF" />
  <rect x="250" y="1000" width="125" height="125" fill="#0D0D0D" />
  <rect x="375" y="1000" width="125" height="125" fill="#462D8D" />
  <rect x="500" y="1000" width="125" height="125" fill="#4E3496" />
  <rect x="625" y="1000" width="125" height="125" fill="#4F4D94" />
  <rect x="750" y="1000" width="125" height="125" fill="#E0E1B6" />
  <rect x="875" y="1000" width="125" height="125" fill="#A1D6A4" />
  <rect x="1000" y="1000" width="125" height="125" fill="#D4E3B4" />
  <rect x="1125" y="1000" width="125" height="125" fill="#FFFFFF" />
  <rect x="250" y="1125" width="125" height="125" fill="#000000" />
  <rect x="375" y="1125" width="125" height="125" fill="#221A4B" />
  <rect x="500" y="1125" width="125" height="125" fill="#3C2789" />
  <rect x="625" y="1125" width="125" height="125" fill="#5F3490" />
  <rect x="750" y="1125" width="125" height="125" fill="#7FB94D" />
  <rect x="875" y="1125" width="125" height="125" fill="#B9E2C5" />
  <rect x="1000" y="1125" width="125" height="125" fill="#F4FAE3" />
  <rect x="1125" y="1125" width="125" height="125" fill="#FFFFFF" />
  <rect x="250" y="250" width="1000" height="1000" fill="none" stroke="#151515" stroke-opacity="0.16" stroke-width="2" />
</svg>
