<svg xmlns="http://www.w3.org/2000/svg" width="1500" height="1500" viewBox="0 0 1500 1500" shape-rendering="crispEdges" role="img" aria-labelledby="title desc">
  <title id="title">Emotional Collision in Brown frame</title>
  <desc id="desc">Square Project artwork previewed in a brown frame.</desc>
  <defs>
    <linearGradient id="frameFace" x1="0" y1="0" x2="1" y2="1">
      <stop offset="0" stop-color="#C18A55" />
      <stop offset="0.32" stop-color="#9A6840" />
      <stop offset="0.68" stop-color="#70401F" />
      <stop offset="1" stop-color="#3F2413" />
    </linearGradient>
    <filter id="artShadow" x="-10%" y="-10%" width="120%" height="120%">
      <feDropShadow dx="0" dy="20" stdDeviation="24" flood-color="#000000" flood-opacity="0.24" />
    </filter>
  </defs>
  <rect x="0" y="0" width="1500" height="1500" fill="#FFFFFF" />
  <rect x="0" y="0" width="1500" height="1500" fill="url(#frameFace)" />
  <rect x="120" y="120" width="1260" height="1260" fill="#F8F7F3" />
  <rect x="120" y="120" width="1260" height="1260" fill="none" stroke="#000000" stroke-opacity="0.14" stroke-width="10" />
  <rect x="250" y="250" width="1000" height="1000" fill="#FFFFFF" filter="url(#artShadow)" />
  <rect x="250" y="250" width="125" height="125" fill="#00FF00" />
  <rect x="375" y="250" width="125" height="125" fill="#00BF00" />
  <rect x="500" y="250" width="125" height="125" fill="#009F00" />
  <rect x="625" y="250" width="125" height="125" fill="#007F00" />
  <rect x="750" y="250" width="125" height="125" fill="#005F00" />
  <rect x="875" y="250" width="125" height="125" fill="#003F00" />
  <rect x="1000" y="250" width="125" height="125" fill="#001F00" />
  <rect x="1125" y="250" width="125" height="125" fill="#000000" />
  <rect x="250" y="375" width="125" height="125" fill="#00FFFF" />
  <rect x="375" y="375" width="125" height="125" fill="#00BFBF" />
  <rect x="500" y="375" width="125" height="125" fill="#009F9F" />
  <rect x="625" y="375" width="125" height="125" fill="#007F7F" />
  <rect x="750" y="375" width="125" height="125" fill="#005F5F" />
  <rect x="875" y="375" width="125" height="125" fill="#003F3F" />
  <rect x="1000" y="375" width="125" height="125" fill="#001F1F" />
  <rect x="1125" y="375" width="125" height="125" fill="#000000" />
  <rect x="250" y="500" width="125" height="125" fill="#FF00FF" />
  <rect x="375" y="500" width="125" height="125" fill="#BF00BF" />
  <rect x="500" y="500" width="125" height="125" fill="#9F009F" />
  <rect x="625" y="500" width="125" height="125" fill="#7F007F" />
  <rect x="750" y="500" width="125" height="125" fill="#5F005F" />
  <rect x="875" y="500" width="125" height="125" fill="#3F003F" />
  <rect x="1000" y="500" width="125" height="125" fill="#1F001F" />
  <rect x="1125" y="500" width="125" height="125" fill="#000000" />
  <rect x="250" y="625" width="125" height="125" fill="#FF7F00" />
  <rect x="375" y="625" width="125" height="125" fill="#BF5F00" />
  <rect x="500" y="625" width="125" height="125" fill="#9F3F00" />
  <rect x="625" y="625" width="125" height="125" fill="#7F1F00" />
  <rect x="750" y="625" width="125" height="125" fill="#5F0000" />
  <rect x="875" y="625" width="125" height="125" fill="#3F0000" />
  <rect x="1000" y="625" width="125" height="125" fill="#1F0000" />
  <rect x="1125" y="625" width="125" height="125" fill="#000000" />
  <rect x="250" y="750" width="125" height="125" fill="#000000" />
  <rect x="375" y="750" width="125" height="125" fill="#111111" />
  <rect x="500" y="750" width="125" height="125" fill="#222222" />
  <rect x="625" y="750" width="125" height="125" fill="#333333" />
  <rect x="750" y="750" width="125" height="125" fill="#444444" />
  <rect x="875" y="750" width="125" height="125" fill="#555555" />
  <rect x="1000" y="750" width="125" height="125" fill="#666666" />
  <rect x="1125" y="750" width="125" height="125" fill="#777777" />
  <rect x="250" y="875" width="125" height="125" fill="#FF7F7F" />
  <rect x="375" y="875" width="125" height="125" fill="#BF3F3F" />
  <rect x="500" y="875" width="125" height="125" fill="#9F1F1F" />
  <rect x="625" y="875" width="125" height="125" fill="#7F0000" />
  <rect x="750" y="875" width="125" height="125" fill="#5F0000" />
  <rect x="875" y="875" width="125" height="125" fill="#3F0000" />
  <rect x="1000" y="875" width="125" height="125" fill="#1F0000" />
  <rect x="1125" y="875" width="125" height="125" fill="#000000" />
  <rect x="250" y="1000" width="125" height="125" fill="#007FFF" />
  <rect x="375" y="1000" width="125" height="125" fill="#005FBF" />
  <rect x="500" y="1000" width="125" height="125" fill="#003F9F" />
  <rect x="625" y="1000" width="125" height="125" fill="#001F7F" />
  <rect x="750" y="1000" width="125" height="125" fill="#00005F" />
  <rect x="875" y="1000" width="125" height="125" fill="#00003F" />
  <rect x="1000" y="1000" width="125" height="125" fill="#00001F" />
  <rect x="1125" y="1000" width="125" height="125" fill="#000000" />
  <rect x="250" y="1125" width="125" height="125" fill="#000000" />
  <rect x="375" y="1125" width="125" height="125" fill="#000000" />
  <rect x="500" y="1125" width="125" height="125" fill="#000000" />
  <rect x="625" y="1125" width="125" height="125" fill="#000000" />
  <rect x="750" y="1125" width="125" height="125" fill="#000000" />
  <rect x="875" y="1125" width="125" height="125" fill="#000000" />
  <rect x="1000" y="1125" width="125" height="125" fill="#000000" />
  <rect x="1125" y="1125" width="125" height="125" fill="#000000" />
  <rect x="250" y="250" width="1000" height="1000" fill="none" stroke="#151515" stroke-opacity="0.16" stroke-width="2" />
</svg>
