<svg xmlns="http://www.w3.org/2000/svg" width="1500" height="1500" viewBox="0 0 1500 1500" shape-rendering="crispEdges" role="img" aria-labelledby="title desc">
  <title id="title">Echoes of Connection in Natural frame</title>
  <desc id="desc">Square Project artwork previewed in a natural frame.</desc>
  <defs>
    <linearGradient id="frameFace" x1="0" y1="0" x2="1" y2="1">
      <stop offset="0" stop-color="#FFF1D7" />
      <stop offset="0.32" stop-color="#E8D4B7" />
      <stop offset="0.68" stop-color="#C2A17B" />
      <stop offset="1" stop-color="#8D6F50" />
    </linearGradient>
    <pattern id="naturalGrain" patternUnits="userSpaceOnUse" width="180" height="48">
      <path d="M0 12 C48 2 92 24 180 10" fill="none" stroke="#8D6F50" stroke-opacity="0.22" stroke-width="5" />
      <path d="M0 34 C62 44 118 22 180 36" fill="none" stroke="#FFFFFF" stroke-opacity="0.22" stroke-width="4" />
    </pattern>
    <filter id="artShadow" x="-10%" y="-10%" width="120%" height="120%">
      <feDropShadow dx="0" dy="20" stdDeviation="24" flood-color="#000000" flood-opacity="0.24" />
    </filter>
  </defs>
  <rect x="0" y="0" width="1500" height="1500" fill="#FFFFFF" />
  <rect x="0" y="0" width="1500" height="1500" fill="url(#frameFace)" />
  <rect x="0" y="0" width="1500" height="1500" fill="url(#naturalGrain)" />
  <rect x="120" y="120" width="1260" height="1260" fill="#F8F7F3" />
  <rect x="120" y="120" width="1260" height="1260" fill="none" stroke="#000000" stroke-opacity="0.14" stroke-width="10" />
  <rect x="250" y="250" width="1000" height="1000" fill="#FFFFFF" filter="url(#artShadow)" />
  <rect x="250" y="250" width="125" height="125" fill="#4B3C2F" />
  <rect x="375" y="250" width="125" height="125" fill="#5E4F43" />
  <rect x="500" y="250" width="125" height="125" fill="#9A8B7B" />
  <rect x="625" y="250" width="125" height="125" fill="#5F4C3A" />
  <rect x="750" y="250" width="125" height="125" fill="#545B4D" />
  <rect x="875" y="250" width="125" height="125" fill="#A6A391" />
  <rect x="1000" y="250" width="125" height="125" fill="#B6A76E" />
  <rect x="1125" y="250" width="125" height="125" fill="#F0E7CE" />
  <rect x="250" y="375" width="125" height="125" fill="#3E2E2C" />
  <rect x="375" y="375" width="125" height="125" fill="#6E5C4A" />
  <rect x="500" y="375" width="125" height="125" fill="#D3CDBB" />
  <rect x="625" y="375" width="125" height="125" fill="#735B47" />
  <rect x="750" y="375" width="125" height="125" fill="#594A3C" />
  <rect x="875" y="375" width="125" height="125" fill="#DAC1B2" />
  <rect x="1000" y="375" width="125" height="125" fill="#BCB1A0" />
  <rect x="1125" y="375" width="125" height="125" fill="#FFF9F0" />
  <rect x="250" y="500" width="125" height="125" fill="#C9B8B0" />
  <rect x="375" y="500" width="125" height="125" fill="#B4A78A" />
  <rect x="500" y="500" width="125" height="125" fill="#5F4F38" />
  <rect x="625" y="500" width="125" height="125" fill="#3D301E" />
  <rect x="750" y="500" width="125" height="125" fill="#E3D8D2" />
  <rect x="875" y="500" width="125" height="125" fill="#E7E1DE" />
  <rect x="1000" y="500" width="125" height="125" fill="#D6C8B9" />
  <rect x="1125" y="500" width="125" height="125" fill="#DEB7A8" />
  <rect x="250" y="625" width="125" height="125" fill="#2A1A1D" />
  <rect x="375" y="625" width="125" height="125" fill="#4F3D3B" />
  <rect x="500" y="625" width="125" height="125" fill="#6C5F53" />
  <rect x="625" y="625" width="125" height="125" fill="#A8A7A0" />
  <rect x="750" y="625" width="125" height="125" fill="#C7B9A3" />
  <rect x="875" y="625" width="125" height="125" fill="#D4C6B2" />
  <rect x="1000" y="625" width="125" height="125" fill="#C9AFA8" />
  <rect x="1125" y="625" width="125" height="125" fill="#E1E0D6" />
  <rect x="250" y="750" width="125" height="125" fill="#9F8A6E" />
  <rect x="375" y="750" width="125" height="125" fill="#E9C7A9" />
  <rect x="500" y="750" width="125" height="125" fill="#C6B8A6" />
  <rect x="625" y="750" width="125" height="125" fill="#EAD8C1" />
  <rect x="750" y="750" width="125" height="125" fill="#3C272D" />
  <rect x="875" y="750" width="125" height="125" fill="#4B3839" />
  <rect x="1000" y="750" width="125" height="125" fill="#BF8E75" />
  <rect x="1125" y="750" width="125" height="125" fill="#CCBFC1" />
  <rect x="250" y="875" width="125" height="125" fill="#BF7E70" />
  <rect x="375" y="875" width="125" height="125" fill="#3F3A33" />
  <rect x="500" y="875" width="125" height="125" fill="#BFA09A" />
  <rect x="625" y="875" width="125" height="125" fill="#6D5F5D" />
  <rect x="750" y="875" width="125" height="125" fill="#C8B8A6" />
  <rect x="875" y="875" width="125" height="125" fill="#E6B2A5" />
  <rect x="1000" y="875" width="125" height="125" fill="#F4E6D4" />
  <rect x="1125" y="875" width="125" height="125" fill="#4D3530" />
  <rect x="250" y="1000" width="125" height="125" fill="#685240" />
  <rect x="375" y="1000" width="125" height="125" fill="#A49186" />
  <rect x="500" y="1000" width="125" height="125" fill="#C7B5B6" />
  <rect x="625" y="1000" width="125" height="125" fill="#FFA06D" />
  <rect x="750" y="1000" width="125" height="125" fill="#A76D68" />
  <rect x="875" y="1000" width="125" height="125" fill="#D7D2C5" />
  <rect x="1000" y="1000" width="125" height="125" fill="#C3B3A1" />
  <rect x="1125" y="1000" width="125" height="125" fill="#E6E4E8" />
  <rect x="250" y="1125" width="125" height="125" fill="#C3A18F" />
  <rect x="375" y="1125" width="125" height="125" fill="#664D4A" />
  <rect x="500" y="1125" width="125" height="125" fill="#8D7B69" />
  <rect x="625" y="1125" width="125" height="125" fill="#FBF7F2" />
  <rect x="750" y="1125" width="125" height="125" fill="#B9B3B0" />
  <rect x="875" y="1125" width="125" height="125" fill="#E8D3C6" />
  <rect x="1000" y="1125" width="125" height="125" fill="#2F2D29" />
  <rect x="1125" y="1125" width="125" height="125" fill="#2F2D29" />
  <rect x="250" y="250" width="1000" height="1000" fill="none" stroke="#151515" stroke-opacity="0.16" stroke-width="2" />
</svg>
