<svg xmlns="http://www.w3.org/2000/svg" width="1500" height="1500" viewBox="0 0 1500 1500" shape-rendering="crispEdges" role="img" aria-labelledby="title desc">
  <title id="title">Flame of Contrast in White frame</title>
  <desc id="desc">Square Project artwork previewed in a white frame.</desc>
  <rect x="0" y="0" width="1500" height="1500" fill="#FFFFFF" />
  <image href="https://mysquareart.com/frames/white.jpg" x="0" y="0" width="1500" height="1500" preserveAspectRatio="xMidYMid meet" />
  <rect x="250" y="250" width="1000" height="1000" fill="#FFFFFF" />
  <rect x="250" y="250" width="125" height="125" fill="#FFEA00" />
  <rect x="375" y="250" width="125" height="125" fill="#FFBF00" />
  <rect x="500" y="250" width="125" height="125" fill="#FF9A00" />
  <rect x="625" y="250" width="125" height="125" fill="#F27400" />
  <rect x="750" y="250" width="125" height="125" fill="#F15A00" />
  <rect x="875" y="250" width="125" height="125" fill="#FF4100" />
  <rect x="1000" y="250" width="125" height="125" fill="#FF0E00" />
  <rect x="1125" y="250" width="125" height="125" fill="#FF0000" />
  <rect x="250" y="375" width="125" height="125" fill="#000033" />
  <rect x="375" y="375" width="125" height="125" fill="#000055" />
  <rect x="500" y="375" width="125" height="125" fill="#000066" />
  <rect x="625" y="375" width="125" height="125" fill="#000077" />
  <rect x="750" y="375" width="125" height="125" fill="#000088" />
  <rect x="875" y="375" width="125" height="125" fill="#000099" />
  <rect x="1000" y="375" width="125" height="125" fill="#0000AA" />
  <rect x="1125" y="375" width="125" height="125" fill="#0000CC" />
  <rect x="250" y="500" width="125" height="125" fill="#FFC300" />
  <rect x="375" y="500" width="125" height="125" fill="#FF955A" />
  <rect x="500" y="500" width="125" height="125" fill="#FF7A00" />
  <rect x="625" y="500" width="125" height="125" fill="#FF6000" />
  <rect x="750" y="500" width="125" height="125" fill="#FF4700" />
  <rect x="875" y="500" width="125" height="125" fill="#FF2900" />
  <rect x="1000" y="500" width="125" height="125" fill="#FF0B00" />
  <rect x="1125" y="500" width="125" height="125" fill="#FF0044" />
  <rect x="250" y="625" width="125" height="125" fill="#A9D5E3" />
  <rect x="375" y="625" width="125" height="125" fill="#7DB9CD" />
  <rect x="500" y="625" width="125" height="125" fill="#3F7C94" />
  <rect x="625" y="625" width="125" height="125" fill="#2D7588" />
  <rect x="750" y="625" width="125" height="125" fill="#1A657E" />
  <rect x="875" y="625" width="125" height="125" fill="#0E4A66" />
  <rect x="1000" y="625" width="125" height="125" fill="#002A40" />
  <rect x="1125" y="625" width="125" height="125" fill="#001F3F" />
  <rect x="250" y="750" width="125" height="125" fill="#F8E3AC" />
  <rect x="375" y="750" width="125" height="125" fill="#F0D6A8" />
  <rect x="500" y="750" width="125" height="125" fill="#E9C99D" />
  <rect x="625" y="750" width="125" height="125" fill="#E1B48D" />
  <rect x="750" y="750" width="125" height="125" fill="#D39B75" />
  <rect x="875" y="750" width="125" height="125" fill="#D24D54" />
  <rect x="1000" y="750" width="125" height="125" fill="#94171F" />
  <rect x="1125" y="750" width="125" height="125" fill="#72120C" />
  <rect x="250" y="875" width="125" height="125" fill="#002244" />
  <rect x="375" y="875" width="125" height="125" fill="#003366" />
  <rect x="500" y="875" width="125" height="125" fill="#004488" />
  <rect x="625" y="875" width="125" height="125" fill="#00559D" />
  <rect x="750" y="875" width="125" height="125" fill="#0066CC" />
  <rect x="875" y="875" width="125" height="125" fill="#0077E5" />
  <rect x="1000" y="875" width="125" height="125" fill="#0088FF" />
  <rect x="1125" y="875" width="125" height="125" fill="#0099FF" />
  <rect x="250" y="1000" width="125" height="125" fill="#F8FFA1" />
  <rect x="375" y="1000" width="125" height="125" fill="#FAE1A5" />
  <rect x="500" y="1000" width="125" height="125" fill="#F2C89A" />
  <rect x="625" y="1000" width="125" height="125" fill="#F1B290" />
  <rect x="750" y="1000" width="125" height="125" fill="#E5A88C" />
  <rect x="875" y="1000" width="125" height="125" fill="#D79A7C" />
  <rect x="1000" y="1000" width="125" height="125" fill="#B38B6D" />
  <rect x="1125" y="1000" width="125" height="125" fill="#8C7040" />
  <rect x="250" y="1125" width="125" height="125" fill="#C2F3A1" />
  <rect x="375" y="1125" width="125" height="125" fill="#A1E2B0" />
  <rect x="500" y="1125" width="125" height="125" fill="#80D1C0" />
  <rect x="625" y="1125" width="125" height="125" fill="#67C0D0" />
  <rect x="750" y="1125" width="125" height="125" fill="#50A4D0" />
  <rect x="875" y="1125" width="125" height="125" fill="#4F85B9" />
  <rect x="1000" y="1125" width="125" height="125" fill="#3E7074" />
  <rect x="1125" y="1125" width="125" height="125" fill="#2E4D4E" />
  <rect x="250" y="250" width="1000" height="1000" fill="none" stroke="#151515" stroke-opacity="0.16" stroke-width="2" />
</svg>
