<svg xmlns="http://www.w3.org/2000/svg" width="1500" height="1500" viewBox="0 0 1500 1500" shape-rendering="crispEdges" role="img" aria-labelledby="title desc">
  <title id="title">Tension at the Threshold in Natural frame</title>
  <desc id="desc">Square Project artwork previewed in a natural frame.</desc>
  <rect x="0" y="0" width="1500" height="1500" fill="#FFFFFF" />
  <image href="https://mysquareart.com/frames/natural.jpg" x="0" y="0" width="1500" height="1500" preserveAspectRatio="xMidYMid meet" />
  <rect x="250" y="250" width="1000" height="1000" fill="#FFFFFF" />
  <rect x="250" y="250" width="125" height="125" fill="#1F1F3D" />
  <rect x="375" y="250" width="125" height="125" fill="#0C0C21" />
  <rect x="500" y="250" width="125" height="125" fill="#111122" />
  <rect x="625" y="250" width="125" height="125" fill="#232335" />
  <rect x="750" y="250" width="125" height="125" fill="#1A3D5D" />
  <rect x="875" y="250" width="125" height="125" fill="#2C6B8D" />
  <rect x="1000" y="250" width="125" height="125" fill="#5FA8B5" />
  <rect x="1125" y="250" width="125" height="125" fill="#B5D9D8" />
  <rect x="250" y="375" width="125" height="125" fill="#1B1A3E" />
  <rect x="375" y="375" width="125" height="125" fill="#0B0A1B" />
  <rect x="500" y="375" width="125" height="125" fill="#121219" />
  <rect x="625" y="375" width="125" height="125" fill="#19181D" />
  <rect x="750" y="375" width="125" height="125" fill="#2A3F5F" />
  <rect x="875" y="375" width="125" height="125" fill="#1B4B75" />
  <rect x="1000" y="375" width="125" height="125" fill="#2A9EB4" />
  <rect x="1125" y="375" width="125" height="125" fill="#F2F1E2" />
  <rect x="250" y="500" width="125" height="125" fill="#191720" />
  <rect x="375" y="500" width="125" height="125" fill="#151520" />
  <rect x="500" y="500" width="125" height="125" fill="#232036" />
  <rect x="625" y="500" width="125" height="125" fill="#34390F" />
  <rect x="750" y="500" width="125" height="125" fill="#3E6B88" />
  <rect x="875" y="500" width="125" height="125" fill="#5899B8" />
  <rect x="1000" y="500" width="125" height="125" fill="#B4E2DF" />
  <rect x="1125" y="500" width="125" height="125" fill="#E1E4E1" />
  <rect x="250" y="625" width="125" height="125" fill="#383A5B" />
  <rect x="375" y="625" width="125" height="125" fill="#2D2835" />
  <rect x="500" y="625" width="125" height="125" fill="#2C2329" />
  <rect x="625" y="625" width="125" height="125" fill="#3D2D29" />
  <rect x="750" y="625" width="125" height="125" fill="#4A7D6D" />
  <rect x="875" y="625" width="125" height="125" fill="#A2F2D0" />
  <rect x="1000" y="625" width="125" height="125" fill="#E9E8E7" />
  <rect x="1125" y="625" width="125" height="125" fill="#F9F9F9" />
  <rect x="250" y="750" width="125" height="125" fill="#5B1F35" />
  <rect x="375" y="750" width="125" height="125" fill="#3C2A24" />
  <rect x="500" y="750" width="125" height="125" fill="#2E1818" />
  <rect x="625" y="750" width="125" height="125" fill="#3E1B1B" />
  <rect x="750" y="750" width="125" height="125" fill="#4F6B7B" />
  <rect x="875" y="750" width="125" height="125" fill="#4BB8E1" />
  <rect x="1000" y="750" width="125" height="125" fill="#E1E2E4" />
  <rect x="1125" y="750" width="125" height="125" fill="#BEBEBE" />
  <rect x="250" y="875" width="125" height="125" fill="#7A0A2D" />
  <rect x="375" y="875" width="125" height="125" fill="#392831" />
  <rect x="500" y="875" width="125" height="125" fill="#29292D" />
  <rect x="625" y="875" width="125" height="125" fill="#3F4A5A" />
  <rect x="750" y="875" width="125" height="125" fill="#413F45" />
  <rect x="875" y="875" width="125" height="125" fill="#78CADB" />
  <rect x="1000" y="875" width="125" height="125" fill="#C8E8EA" />
  <rect x="1125" y="875" width="125" height="125" fill="#FBFBFB" />
  <rect x="250" y="1000" width="125" height="125" fill="#A83030" />
  <rect x="375" y="1000" width="125" height="125" fill="#341B24" />
  <rect x="500" y="1000" width="125" height="125" fill="#242121" />
  <rect x="625" y="1000" width="125" height="125" fill="#483B2B" />
  <rect x="750" y="1000" width="125" height="125" fill="#689497" />
  <rect x="875" y="1000" width="125" height="125" fill="#8EEDD5" />
  <rect x="1000" y="1000" width="125" height="125" fill="#F0F0F0" />
  <rect x="1125" y="1000" width="125" height="125" fill="#E0DCD9" />
  <rect x="250" y="1125" width="125" height="125" fill="#C72C54" />
  <rect x="375" y="1125" width="125" height="125" fill="#3C2B2D" />
  <rect x="500" y="1125" width="125" height="125" fill="#0F1419" />
  <rect x="625" y="1125" width="125" height="125" fill="#1B1B23" />
  <rect x="750" y="1125" width="125" height="125" fill="#4B4856" />
  <rect x="875" y="1125" width="125" height="125" fill="#0E94A4" />
  <rect x="1000" y="1125" width="125" height="125" fill="#B0DFE4" />
  <rect x="1125" y="1125" width="125" height="125" fill="#FFFFFF" />
  <rect x="250" y="250" width="1000" height="1000" fill="none" stroke="#151515" stroke-opacity="0.16" stroke-width="2" />
</svg>
