<svg xmlns="http://www.w3.org/2000/svg" width="1500" height="1500" viewBox="0 0 1500 1500" shape-rendering="crispEdges" role="img" aria-labelledby="title desc">
  <title id="title">Interwoven Pulses in Natural frame</title>
  <desc id="desc">Square Project artwork previewed in a natural frame.</desc>
  <defs>
    <linearGradient id="frameFace" x1="0" y1="0" x2="1" y2="1">
      <stop offset="0" stop-color="#8F6F35" />
      <stop offset="0.32" stop-color="#F0DDAA" />
      <stop offset="0.68" stop-color="#D8C190" />
      <stop offset="1" stop-color="#B39155" />
    </linearGradient>
    <filter id="artShadow" x="-10%" y="-10%" width="120%" height="120%">
      <feDropShadow dx="0" dy="20" stdDeviation="24" flood-color="#000000" flood-opacity="0.24" />
    </filter>
  </defs>
  <rect x="0" y="0" width="1500" height="1500" fill="#FFFFFF" />
  <rect x="0" y="0" width="1500" height="1500" fill="url(#frameFace)" />
  <rect x="120" y="120" width="1260" height="1260" fill="#F8F7F3" />
  <rect x="120" y="120" width="1260" height="1260" fill="none" stroke="#000000" stroke-opacity="0.14" stroke-width="10" />
  <rect x="250" y="250" width="1000" height="1000" fill="#FFFFFF" filter="url(#artShadow)" />
  <rect x="250" y="250" width="125" height="125" fill="#BCE7E1" />
  <rect x="375" y="250" width="125" height="125" fill="#F4F1D9" />
  <rect x="500" y="250" width="125" height="125" fill="#D0D3D8" />
  <rect x="625" y="250" width="125" height="125" fill="#4B5B5F" />
  <rect x="750" y="250" width="125" height="125" fill="#7B8B8C" />
  <rect x="875" y="250" width="125" height="125" fill="#BFD3C1" />
  <rect x="1000" y="250" width="125" height="125" fill="#F4E4B2" />
  <rect x="1125" y="250" width="125" height="125" fill="#BDC4C9" />
  <rect x="250" y="375" width="125" height="125" fill="#B3C0C5" />
  <rect x="375" y="375" width="125" height="125" fill="#707A7B" />
  <rect x="500" y="375" width="125" height="125" fill="#C4D6CE" />
  <rect x="625" y="375" width="125" height="125" fill="#A1BFBF" />
  <rect x="750" y="375" width="125" height="125" fill="#E0E6E1" />
  <rect x="875" y="375" width="125" height="125" fill="#4C5452" />
  <rect x="1000" y="375" width="125" height="125" fill="#E7E0A0" />
  <rect x="1125" y="375" width="125" height="125" fill="#F4FFED" />
  <rect x="250" y="500" width="125" height="125" fill="#405054" />
  <rect x="375" y="500" width="125" height="125" fill="#F5D98A" />
  <rect x="500" y="500" width="125" height="125" fill="#A3AEB1" />
  <rect x="625" y="500" width="125" height="125" fill="#B1D3D0" />
  <rect x="750" y="500" width="125" height="125" fill="#A1B3B1" />
  <rect x="875" y="500" width="125" height="125" fill="#7D8786" />
  <rect x="1000" y="500" width="125" height="125" fill="#548B89" />
  <rect x="1125" y="500" width="125" height="125" fill="#E1E3D6" />
  <rect x="250" y="625" width="125" height="125" fill="#F2E0D5" />
  <rect x="375" y="625" width="125" height="125" fill="#395052" />
  <rect x="500" y="625" width="125" height="125" fill="#A8B2B2" />
  <rect x="625" y="625" width="125" height="125" fill="#C2D7D1" />
  <rect x="750" y="625" width="125" height="125" fill="#FFEFCE" />
  <rect x="875" y="625" width="125" height="125" fill="#C4D7D1" />
  <rect x="1000" y="625" width="125" height="125" fill="#708A87" />
  <rect x="1125" y="625" width="125" height="125" fill="#C9C8C0" />
  <rect x="250" y="750" width="125" height="125" fill="#FFEDC1" />
  <rect x="375" y="750" width="125" height="125" fill="#DBDAD6" />
  <rect x="500" y="750" width="125" height="125" fill="#8C9B98" />
  <rect x="625" y="750" width="125" height="125" fill="#3F4C4D" />
  <rect x="750" y="750" width="125" height="125" fill="#B7C7C9" />
  <rect x="875" y="750" width="125" height="125" fill="#EED8AB" />
  <rect x="1000" y="750" width="125" height="125" fill="#D2D0D8" />
  <rect x="1125" y="750" width="125" height="125" fill="#C3B8B6" />
  <rect x="250" y="875" width="125" height="125" fill="#788B8C" />
  <rect x="375" y="875" width="125" height="125" fill="#BAC4C5" />
  <rect x="500" y="875" width="125" height="125" fill="#A5BEBB" />
  <rect x="625" y="875" width="125" height="125" fill="#B5D5D6" />
  <rect x="750" y="875" width="125" height="125" fill="#CDE3E8" />
  <rect x="875" y="875" width="125" height="125" fill="#D7E2DF" />
  <rect x="1000" y="875" width="125" height="125" fill="#8DA9A8" />
  <rect x="1125" y="875" width="125" height="125" fill="#7C8E8E" />
  <rect x="250" y="1000" width="125" height="125" fill="#474C4C" />
  <rect x="375" y="1000" width="125" height="125" fill="#B4C6C8" />
  <rect x="500" y="1000" width="125" height="125" fill="#F8F3DE" />
  <rect x="625" y="1000" width="125" height="125" fill="#68B8B7" />
  <rect x="750" y="1000" width="125" height="125" fill="#C9C9C9" />
  <rect x="875" y="1000" width="125" height="125" fill="#D2D7D2" />
  <rect x="1000" y="1000" width="125" height="125" fill="#B4B9B9" />
  <rect x="1125" y="1000" width="125" height="125" fill="#F1D4AD" />
  <rect x="250" y="1125" width="125" height="125" fill="#1F2727" />
  <rect x="375" y="1125" width="125" height="125" fill="#A8C5C7" />
  <rect x="500" y="1125" width="125" height="125" fill="#5C6867" />
  <rect x="625" y="1125" width="125" height="125" fill="#D2C8B8" />
  <rect x="750" y="1125" width="125" height="125" fill="#F1E1A4" />
  <rect x="875" y="1125" width="125" height="125" fill="#BCE6E4" />
  <rect x="1000" y="1125" width="125" height="125" fill="#5C7B7A" />
  <rect x="1125" y="1125" width="125" height="125" fill="#C2D2CE" />
  <rect x="250" y="250" width="1000" height="1000" fill="none" stroke="#151515" stroke-opacity="0.16" stroke-width="2" />
</svg>
