<svg xmlns="http://www.w3.org/2000/svg" width="1500" height="1500" viewBox="0 0 1500 1500" shape-rendering="crispEdges" role="img" aria-labelledby="title desc">
  <title id="title">Fractured Balance in Gold frame</title>
  <desc id="desc">Square Project artwork previewed in a gold frame.</desc>
  <rect x="0" y="0" width="1500" height="1500" fill="#FFFFFF" />
  <image href="https://mysquareart.com/frames/gold.jpg" x="0" y="0" width="1500" height="1500" preserveAspectRatio="xMidYMid meet" />
  <rect x="250" y="250" width="1000" height="1000" fill="#FFFFFF" />
  <rect x="250" y="250" width="125" height="125" fill="#3E2A91" />
  <rect x="375" y="250" width="125" height="125" fill="#5C4E8A" />
  <rect x="500" y="250" width="125" height="125" fill="#777C7E" />
  <rect x="625" y="250" width="125" height="125" fill="#000000" />
  <rect x="750" y="250" width="125" height="125" fill="#5A9216" />
  <rect x="875" y="250" width="125" height="125" fill="#F6D7A6" />
  <rect x="1000" y="250" width="125" height="125" fill="#8F4D1B" />
  <rect x="1125" y="250" width="125" height="125" fill="#3B0A45" />
  <rect x="250" y="375" width="125" height="125" fill="#5B3B78" />
  <rect x="375" y="375" width="125" height="125" fill="#052B9F" />
  <rect x="500" y="375" width="125" height="125" fill="#102B33" />
  <rect x="625" y="375" width="125" height="125" fill="#262262" />
  <rect x="750" y="375" width="125" height="125" fill="#B3BF40" />
  <rect x="875" y="375" width="125" height="125" fill="#427A4D" />
  <rect x="1000" y="375" width="125" height="125" fill="#FFBC3B" />
  <rect x="1125" y="375" width="125" height="125" fill="#2D2549" />
  <rect x="250" y="500" width="125" height="125" fill="#3E2F50" />
  <rect x="375" y="500" width="125" height="125" fill="#FAAB7B" />
  <rect x="500" y="500" width="125" height="125" fill="#506C6B" />
  <rect x="625" y="500" width="125" height="125" fill="#694A95" />
  <rect x="750" y="500" width="125" height="125" fill="#7B8D2C" />
  <rect x="875" y="500" width="125" height="125" fill="#F1E8BD" />
  <rect x="1000" y="500" width="125" height="125" fill="#506416" />
  <rect x="1125" y="500" width="125" height="125" fill="#2E0D35" />
  <rect x="250" y="625" width="125" height="125" fill="#0F1A3E" />
  <rect x="375" y="625" width="125" height="125" fill="#4B4F67" />
  <rect x="500" y="625" width="125" height="125" fill="#261D77" />
  <rect x="625" y="625" width="125" height="125" fill="#81138F" />
  <rect x="750" y="625" width="125" height="125" fill="#E3F0B4" />
  <rect x="875" y="625" width="125" height="125" fill="#78969C" />
  <rect x="1000" y="625" width="125" height="125" fill="#953A39" />
  <rect x="1125" y="625" width="125" height="125" fill="#3E2C35" />
  <rect x="250" y="750" width="125" height="125" fill="#4E4B40" />
  <rect x="375" y="750" width="125" height="125" fill="#7A4053" />
  <rect x="500" y="750" width="125" height="125" fill="#B7B647" />
  <rect x="625" y="750" width="125" height="125" fill="#FFFCFA" />
  <rect x="750" y="750" width="125" height="125" fill="#49555B" />
  <rect x="875" y="750" width="125" height="125" fill="#3F1C1A" />
  <rect x="1000" y="750" width="125" height="125" fill="#6A310F" />
  <rect x="1125" y="750" width="125" height="125" fill="#800670" />
  <rect x="250" y="875" width="125" height="125" fill="#160D2C" />
  <rect x="375" y="875" width="125" height="125" fill="#A9B3F3" />
  <rect x="500" y="875" width="125" height="125" fill="#E4A67C" />
  <rect x="625" y="875" width="125" height="125" fill="#89677E" />
  <rect x="750" y="875" width="125" height="125" fill="#394564" />
  <rect x="875" y="875" width="125" height="125" fill="#BCCED3" />
  <rect x="1000" y="875" width="125" height="125" fill="#EACC88" />
  <rect x="1125" y="875" width="125" height="125" fill="#B55887" />
  <rect x="250" y="1000" width="125" height="125" fill="#304631" />
  <rect x="375" y="1000" width="125" height="125" fill="#485C6B" />
  <rect x="500" y="1000" width="125" height="125" fill="#504067" />
  <rect x="625" y="1000" width="125" height="125" fill="#7F4D7A" />
  <rect x="750" y="1000" width="125" height="125" fill="#B0B8B3" />
  <rect x="875" y="1000" width="125" height="125" fill="#A9DA58" />
  <rect x="1000" y="1000" width="125" height="125" fill="#234E2E" />
  <rect x="1125" y="1000" width="125" height="125" fill="#563A8D" />
  <rect x="250" y="1125" width="125" height="125" fill="#F9F8EB" />
  <rect x="375" y="1125" width="125" height="125" fill="#D9C9B0" />
  <rect x="500" y="1125" width="125" height="125" fill="#C4B3C0" />
  <rect x="625" y="1125" width="125" height="125" fill="#383B10" />
  <rect x="750" y="1125" width="125" height="125" fill="#222222" />
  <rect x="875" y="1125" width="125" height="125" fill="#9A5F57" />
  <rect x="1000" y="1125" width="125" height="125" fill="#52984C" />
  <rect x="1125" y="1125" width="125" height="125" fill="#1F1D64" />
  <rect x="250" y="250" width="1000" height="1000" fill="none" stroke="#151515" stroke-opacity="0.16" stroke-width="2" />
</svg>
