<svg xmlns="http://www.w3.org/2000/svg" width="1500" height="1500" viewBox="0 0 1500 1500" shape-rendering="crispEdges" role="img" aria-labelledby="title desc">
  <title id="title">Rise and Fall in Brown frame</title>
  <desc id="desc">Square Project artwork previewed in a brown frame.</desc>
  <defs>
    <linearGradient id="frameFace" x1="0" y1="0" x2="1" y2="1">
      <stop offset="0" stop-color="#C18A55" />
      <stop offset="0.32" stop-color="#9A6840" />
      <stop offset="0.68" stop-color="#70401F" />
      <stop offset="1" stop-color="#3F2413" />
    </linearGradient>
    <filter id="artShadow" x="-10%" y="-10%" width="120%" height="120%">
      <feDropShadow dx="0" dy="20" stdDeviation="24" flood-color="#000000" flood-opacity="0.24" />
    </filter>
  </defs>
  <rect x="0" y="0" width="1500" height="1500" fill="#FFFFFF" />
  <rect x="0" y="0" width="1500" height="1500" fill="url(#frameFace)" />
  <rect x="120" y="120" width="1260" height="1260" fill="#F8F7F3" />
  <rect x="120" y="120" width="1260" height="1260" fill="none" stroke="#000000" stroke-opacity="0.14" stroke-width="10" />
  <rect x="250" y="250" width="1000" height="1000" fill="#FFFFFF" filter="url(#artShadow)" />
  <rect x="250" y="250" width="125" height="125" fill="#6A2C2F" />
  <rect x="375" y="250" width="125" height="125" fill="#8C3B24" />
  <rect x="500" y="250" width="125" height="125" fill="#C0520C" />
  <rect x="625" y="250" width="125" height="125" fill="#C8B81A" />
  <rect x="750" y="250" width="125" height="125" fill="#D7D928" />
  <rect x="875" y="250" width="125" height="125" fill="#E5E5C7" />
  <rect x="1000" y="250" width="125" height="125" fill="#F3F3E2" />
  <rect x="1125" y="250" width="125" height="125" fill="#FFFFFF" />
  <rect x="250" y="375" width="125" height="125" fill="#620D0F" />
  <rect x="375" y="375" width="125" height="125" fill="#801517" />
  <rect x="500" y="375" width="125" height="125" fill="#D77632" />
  <rect x="625" y="375" width="125" height="125" fill="#DBB700" />
  <rect x="750" y="375" width="125" height="125" fill="#F4E76F" />
  <rect x="875" y="375" width="125" height="125" fill="#FBFBC1" />
  <rect x="1000" y="375" width="125" height="125" fill="#FDFFED" />
  <rect x="1125" y="375" width="125" height="125" fill="#FFFFFF" />
  <rect x="250" y="500" width="125" height="125" fill="#834B4D" />
  <rect x="375" y="500" width="125" height="125" fill="#A76F51" />
  <rect x="500" y="500" width="125" height="125" fill="#D5981E" />
  <rect x="625" y="500" width="125" height="125" fill="#DAAA3E" />
  <rect x="750" y="500" width="125" height="125" fill="#E7C466" />
  <rect x="875" y="500" width="125" height="125" fill="#F4E3A7" />
  <rect x="1000" y="500" width="125" height="125" fill="#FDFBF0" />
  <rect x="1125" y="500" width="125" height="125" fill="#FFFFF3" />
  <rect x="250" y="625" width="125" height="125" fill="#9EA9AB" />
  <rect x="375" y="625" width="125" height="125" fill="#C8B4B8" />
  <rect x="500" y="625" width="125" height="125" fill="#DCB063" />
  <rect x="625" y="625" width="125" height="125" fill="#E4CDA1" />
  <rect x="750" y="625" width="125" height="125" fill="#F6E6B7" />
  <rect x="875" y="625" width="125" height="125" fill="#F7F2D2" />
  <rect x="1000" y="625" width="125" height="125" fill="#FFFFF5" />
  <rect x="1125" y="625" width="125" height="125" fill="#FFFFFF" />
  <rect x="250" y="750" width="125" height="125" fill="#B8B8B8" />
  <rect x="375" y="750" width="125" height="125" fill="#D3D3D3" />
  <rect x="500" y="750" width="125" height="125" fill="#EAEAEA" />
  <rect x="625" y="750" width="125" height="125" fill="#FFFFFF" />
  <rect x="750" y="750" width="125" height="125" fill="#FFFFFF" />
  <rect x="875" y="750" width="125" height="125" fill="#FFFFFF" />
  <rect x="1000" y="750" width="125" height="125" fill="#FFFFFF" />
  <rect x="1125" y="750" width="125" height="125" fill="#FFFFFF" />
  <rect x="250" y="875" width="125" height="125" fill="#A09B9B" />
  <rect x="375" y="875" width="125" height="125" fill="#C8C6C6" />
  <rect x="500" y="875" width="125" height="125" fill="#E1E0E0" />
  <rect x="625" y="875" width="125" height="125" fill="#FFFFFF" />
  <rect x="750" y="875" width="125" height="125" fill="#FFFFFF" />
  <rect x="875" y="875" width="125" height="125" fill="#FFFFFF" />
  <rect x="1000" y="875" width="125" height="125" fill="#FFFFFF" />
  <rect x="1125" y="875" width="125" height="125" fill="#FFFFFF" />
  <rect x="250" y="1000" width="125" height="125" fill="#8A7C7C" />
  <rect x="375" y="1000" width="125" height="125" fill="#B2B0B0" />
  <rect x="500" y="1000" width="125" height="125" fill="#D3D2D2" />
  <rect x="625" y="1000" width="125" height="125" fill="#FFFFFF" />
  <rect x="750" y="1000" width="125" height="125" fill="#FFFFFF" />
  <rect x="875" y="1000" width="125" height="125" fill="#FFFFFF" />
  <rect x="1000" y="1000" width="125" height="125" fill="#FFFFFF" />
  <rect x="1125" y="1000" width="125" height="125" fill="#FFFFFF" />
  <rect x="250" y="1125" width="125" height="125" fill="#4B4B4B" />
  <rect x="375" y="1125" width="125" height="125" fill="#6C6C6C" />
  <rect x="500" y="1125" width="125" height="125" fill="#D6D6D6" />
  <rect x="625" y="1125" width="125" height="125" fill="#FFFFFF" />
  <rect x="750" y="1125" width="125" height="125" fill="#FFFFFF" />
  <rect x="875" y="1125" width="125" height="125" fill="#FFFFFF" />
  <rect x="1000" y="1125" width="125" height="125" fill="#FFFFFF" />
  <rect x="1125" y="1125" width="125" height="125" fill="#FFFFFF" />
  <rect x="250" y="250" width="1000" height="1000" fill="none" stroke="#151515" stroke-opacity="0.16" stroke-width="2" />
</svg>
