<svg xmlns="http://www.w3.org/2000/svg" width="1500" height="1500" viewBox="0 0 1500 1500" shape-rendering="crispEdges" role="img" aria-labelledby="title desc">
  <title id="title">Control and Panic Interwoven in Brown frame</title>
  <desc id="desc">Square Project artwork previewed in a brown frame.</desc>
  <rect x="0" y="0" width="1500" height="1500" fill="#FFFFFF" />
  <image href="https://mysquareart.com/frames/brown.jpg" x="0" y="0" width="1500" height="1500" preserveAspectRatio="xMidYMid meet" />
  <rect x="250" y="250" width="1000" height="1000" fill="#FFFFFF" />
  <rect x="250" y="250" width="125" height="125" fill="#FF0000" />
  <rect x="375" y="250" width="125" height="125" fill="#FF4D00" />
  <rect x="500" y="250" width="125" height="125" fill="#FF9900" />
  <rect x="625" y="250" width="125" height="125" fill="#FFCC00" />
  <rect x="750" y="250" width="125" height="125" fill="#00CCFF" />
  <rect x="875" y="250" width="125" height="125" fill="#00AAFF" />
  <rect x="1000" y="250" width="125" height="125" fill="#0077FF" />
  <rect x="1125" y="250" width="125" height="125" fill="#0044FF" />
  <rect x="250" y="375" width="125" height="125" fill="#FF2B00" />
  <rect x="375" y="375" width="125" height="125" fill="#FF7F00" />
  <rect x="500" y="375" width="125" height="125" fill="#FFCC33" />
  <rect x="625" y="375" width="125" height="125" fill="#FFFF00" />
  <rect x="750" y="375" width="125" height="125" fill="#00A9E0" />
  <rect x="875" y="375" width="125" height="125" fill="#0088CC" />
  <rect x="1000" y="375" width="125" height="125" fill="#0055AA" />
  <rect x="1125" y="375" width="125" height="125" fill="#003388" />
  <rect x="250" y="500" width="125" height="125" fill="#FF4D00" />
  <rect x="375" y="500" width="125" height="125" fill="#FF7F33" />
  <rect x="500" y="500" width="125" height="125" fill="#FFFF66" />
  <rect x="625" y="500" width="125" height="125" fill="#FFFF99" />
  <rect x="750" y="500" width="125" height="125" fill="#00BBFF" />
  <rect x="875" y="500" width="125" height="125" fill="#0077FF" />
  <rect x="1000" y="500" width="125" height="125" fill="#0044CC" />
  <rect x="1125" y="500" width="125" height="125" fill="#0022AA" />
  <rect x="250" y="625" width="125" height="125" fill="#FF8000" />
  <rect x="375" y="625" width="125" height="125" fill="#FFFF00" />
  <rect x="500" y="625" width="125" height="125" fill="#CCFF33" />
  <rect x="625" y="625" width="125" height="125" fill="#A3FF66" />
  <rect x="750" y="625" width="125" height="125" fill="#00CCFF" />
  <rect x="875" y="625" width="125" height="125" fill="#0055AA" />
  <rect x="1000" y="625" width="125" height="125" fill="#002266" />
  <rect x="1125" y="625" width="125" height="125" fill="#000044" />
  <rect x="250" y="750" width="125" height="125" fill="#FFC200" />
  <rect x="375" y="750" width="125" height="125" fill="#FFD700" />
  <rect x="500" y="750" width="125" height="125" fill="#CCFF00" />
  <rect x="625" y="750" width="125" height="125" fill="#AAFF33" />
  <rect x="750" y="750" width="125" height="125" fill="#00BBFF" />
  <rect x="875" y="750" width="125" height="125" fill="#0044AA" />
  <rect x="1000" y="750" width="125" height="125" fill="#001111" />
  <rect x="1125" y="750" width="125" height="125" fill="#000000" />
  <rect x="250" y="875" width="125" height="125" fill="#FF5900" />
  <rect x="375" y="875" width="125" height="125" fill="#FFA300" />
  <rect x="500" y="875" width="125" height="125" fill="#FFFF00" />
  <rect x="625" y="875" width="125" height="125" fill="#D3D300" />
  <rect x="750" y="875" width="125" height="125" fill="#00AAFF" />
  <rect x="875" y="875" width="125" height="125" fill="#002244" />
  <rect x="1000" y="875" width="125" height="125" fill="#000C00" />
  <rect x="1125" y="875" width="125" height="125" fill="#000000" />
  <rect x="250" y="1000" width="125" height="125" fill="#FF3D00" />
  <rect x="375" y="1000" width="125" height="125" fill="#FF6600" />
  <rect x="500" y="1000" width="125" height="125" fill="#FFFF66" />
  <rect x="625" y="1000" width="125" height="125" fill="#D4D400" />
  <rect x="750" y="1000" width="125" height="125" fill="#0099CC" />
  <rect x="875" y="1000" width="125" height="125" fill="#002333" />
  <rect x="1000" y="1000" width="125" height="125" fill="#000022" />
  <rect x="1125" y="1000" width="125" height="125" fill="#000000" />
  <rect x="250" y="1125" width="125" height="125" fill="#FF0000" />
  <rect x="375" y="1125" width="125" height="125" fill="#FF4500" />
  <rect x="500" y="1125" width="125" height="125" fill="#FFA500" />
  <rect x="625" y="1125" width="125" height="125" fill="#FFDA00" />
  <rect x="750" y="1125" width="125" height="125" fill="#0047AB" />
  <rect x="875" y="1125" width="125" height="125" fill="#002233" />
  <rect x="1000" y="1125" width="125" height="125" fill="#00000B" />
  <rect x="1125" y="1125" width="125" height="125" fill="#000000" />
  <rect x="250" y="250" width="1000" height="1000" fill="none" stroke="#151515" stroke-opacity="0.16" stroke-width="2" />
</svg>
