<svg xmlns="http://www.w3.org/2000/svg" width="1500" height="1500" viewBox="0 0 1500 1500" shape-rendering="crispEdges" role="img" aria-labelledby="title desc">
  <title id="title">Tension Between Pattern and Disarray in Natural frame</title>
  <desc id="desc">Square Project artwork previewed in a natural frame.</desc>
  <defs>
    <linearGradient id="frameFace" x1="0" y1="0" x2="1" y2="1">
      <stop offset="0" stop-color="#FFF1D7" />
      <stop offset="0.32" stop-color="#E8D4B7" />
      <stop offset="0.68" stop-color="#C2A17B" />
      <stop offset="1" stop-color="#8D6F50" />
    </linearGradient>
    <pattern id="naturalGrain" patternUnits="userSpaceOnUse" width="180" height="48">
      <path d="M0 12 C48 2 92 24 180 10" fill="none" stroke="#8D6F50" stroke-opacity="0.22" stroke-width="5" />
      <path d="M0 34 C62 44 118 22 180 36" fill="none" stroke="#FFFFFF" stroke-opacity="0.22" stroke-width="4" />
    </pattern>
    <filter id="artShadow" x="-10%" y="-10%" width="120%" height="120%">
      <feDropShadow dx="0" dy="20" stdDeviation="24" flood-color="#000000" flood-opacity="0.24" />
    </filter>
  </defs>
  <rect x="0" y="0" width="1500" height="1500" fill="#FFFFFF" />
  <rect x="0" y="0" width="1500" height="1500" fill="url(#frameFace)" />
  <rect x="0" y="0" width="1500" height="1500" fill="url(#naturalGrain)" />
  <rect x="120" y="120" width="1260" height="1260" fill="#F8F7F3" />
  <rect x="120" y="120" width="1260" height="1260" fill="none" stroke="#000000" stroke-opacity="0.14" stroke-width="10" />
  <rect x="250" y="250" width="1000" height="1000" fill="#FFFFFF" filter="url(#artShadow)" />
  <rect x="250" y="250" width="125" height="125" fill="#FFCC00" />
  <rect x="375" y="250" width="125" height="125" fill="#FFA500" />
  <rect x="500" y="250" width="125" height="125" fill="#FFD700" />
  <rect x="625" y="250" width="125" height="125" fill="#FF6600" />
  <rect x="750" y="250" width="125" height="125" fill="#5D4E94" />
  <rect x="875" y="250" width="125" height="125" fill="#3C264D" />
  <rect x="1000" y="250" width="125" height="125" fill="#7B73CA" />
  <rect x="1125" y="250" width="125" height="125" fill="#2C2A4E" />
  <rect x="250" y="375" width="125" height="125" fill="#FFB34D" />
  <rect x="375" y="375" width="125" height="125" fill="#FFAA00" />
  <rect x="500" y="375" width="125" height="125" fill="#FF8000" />
  <rect x="625" y="375" width="125" height="125" fill="#FF5500" />
  <rect x="750" y="375" width="125" height="125" fill="#4A3E89" />
  <rect x="875" y="375" width="125" height="125" fill="#B8A3DB" />
  <rect x="1000" y="375" width="125" height="125" fill="#6C5C89" />
  <rect x="1125" y="375" width="125" height="125" fill="#5C546B" />
  <rect x="250" y="500" width="125" height="125" fill="#FFD64D" />
  <rect x="375" y="500" width="125" height="125" fill="#FF9A00" />
  <rect x="500" y="500" width="125" height="125" fill="#FF5E00" />
  <rect x="625" y="500" width="125" height="125" fill="#FF0000" />
  <rect x="750" y="500" width="125" height="125" fill="#3D193C" />
  <rect x="875" y="500" width="125" height="125" fill="#463965" />
  <rect x="1000" y="500" width="125" height="125" fill="#7A5C93" />
  <rect x="1125" y="500" width="125" height="125" fill="#614A95" />
  <rect x="250" y="625" width="125" height="125" fill="#FFF55D" />
  <rect x="375" y="625" width="125" height="125" fill="#FFC600" />
  <rect x="500" y="625" width="125" height="125" fill="#FF5000" />
  <rect x="625" y="625" width="125" height="125" fill="#D63960" />
  <rect x="750" y="625" width="125" height="125" fill="#3E3E63" />
  <rect x="875" y="625" width="125" height="125" fill="#5B4070" />
  <rect x="1000" y="625" width="125" height="125" fill="#4A365C" />
  <rect x="1125" y="625" width="125" height="125" fill="#3D2533" />
  <rect x="250" y="750" width="125" height="125" fill="#FFFF00" />
  <rect x="375" y="750" width="125" height="125" fill="#FFA200" />
  <rect x="500" y="750" width="125" height="125" fill="#DF5B00" />
  <rect x="625" y="750" width="125" height="125" fill="#D13200" />
  <rect x="750" y="750" width="125" height="125" fill="#6A5B89" />
  <rect x="875" y="750" width="125" height="125" fill="#C49A92" />
  <rect x="1000" y="750" width="125" height="125" fill="#B4BBE3" />
  <rect x="1125" y="750" width="125" height="125" fill="#5F4F73" />
  <rect x="250" y="875" width="125" height="125" fill="#FFF250" />
  <rect x="375" y="875" width="125" height="125" fill="#FF8A00" />
  <rect x="500" y="875" width="125" height="125" fill="#FF3E2E" />
  <rect x="625" y="875" width="125" height="125" fill="#C42B10" />
  <rect x="750" y="875" width="125" height="125" fill="#4F2444" />
  <rect x="875" y="875" width="125" height="125" fill="#A895B5" />
  <rect x="1000" y="875" width="125" height="125" fill="#666C9A" />
  <rect x="1125" y="875" width="125" height="125" fill="#573C98" />
  <rect x="250" y="1000" width="125" height="125" fill="#FFDB47" />
  <rect x="375" y="1000" width="125" height="125" fill="#FFBE00" />
  <rect x="500" y="1000" width="125" height="125" fill="#FF8B00" />
  <rect x="625" y="1000" width="125" height="125" fill="#FF6700" />
  <rect x="750" y="1000" width="125" height="125" fill="#4C2F66" />
  <rect x="875" y="1000" width="125" height="125" fill="#5C2D57" />
  <rect x="1000" y="1000" width="125" height="125" fill="#7C3C6D" />
  <rect x="1125" y="1000" width="125" height="125" fill="#46375B" />
  <rect x="250" y="1125" width="125" height="125" fill="#FFFFFF" />
  <rect x="375" y="1125" width="125" height="125" fill="#FF9999" />
  <rect x="500" y="1125" width="125" height="125" fill="#FF7575" />
  <rect x="625" y="1125" width="125" height="125" fill="#FF3636" />
  <rect x="750" y="1125" width="125" height="125" fill="#8C6E95" />
  <rect x="875" y="1125" width="125" height="125" fill="#D2CCDB" />
  <rect x="1000" y="1125" width="125" height="125" fill="#756165" />
  <rect x="1125" y="1125" width="125" height="125" fill="#4A3449" />
  <rect x="250" y="250" width="1000" height="1000" fill="none" stroke="#151515" stroke-opacity="0.16" stroke-width="2" />
</svg>
