<svg xmlns="http://www.w3.org/2000/svg" width="1500" height="1500" viewBox="0 0 1500 1500" shape-rendering="crispEdges" role="img" aria-labelledby="title desc">
  <title id="title">Echoes of Tension in Black frame</title>
  <desc id="desc">Square Project artwork previewed in a black frame.</desc>
  <defs>
    <linearGradient id="frameFace" x1="0" y1="0" x2="1" y2="1">
      <stop offset="0" stop-color="#6A6A6A" />
      <stop offset="0.32" stop-color="#343434" />
      <stop offset="0.68" stop-color="#111111" />
      <stop offset="1" stop-color="#050505" />
    </linearGradient>
    <filter id="artShadow" x="-10%" y="-10%" width="120%" height="120%">
      <feDropShadow dx="0" dy="20" stdDeviation="24" flood-color="#000000" flood-opacity="0.24" />
    </filter>
  </defs>
  <rect x="0" y="0" width="1500" height="1500" fill="#FFFFFF" />
  <rect x="0" y="0" width="1500" height="1500" fill="url(#frameFace)" />
  <rect x="120" y="120" width="1260" height="1260" fill="#F8F7F3" />
  <rect x="120" y="120" width="1260" height="1260" fill="none" stroke="#000000" stroke-opacity="0.14" stroke-width="10" />
  <rect x="250" y="250" width="1000" height="1000" fill="#FFFFFF" filter="url(#artShadow)" />
  <rect x="250" y="250" width="125" height="125" fill="#FF6F61" />
  <rect x="375" y="250" width="125" height="125" fill="#FF8C4E" />
  <rect x="500" y="250" width="125" height="125" fill="#ADA58D" />
  <rect x="625" y="250" width="125" height="125" fill="#2C3E50" />
  <rect x="750" y="250" width="125" height="125" fill="#405559" />
  <rect x="875" y="250" width="125" height="125" fill="#F0C27B" />
  <rect x="1000" y="250" width="125" height="125" fill="#DDE5E5" />
  <rect x="1125" y="250" width="125" height="125" fill="#ADB5BD" />
  <rect x="250" y="375" width="125" height="125" fill="#F02465" />
  <rect x="375" y="375" width="125" height="125" fill="#5686E4" />
  <rect x="500" y="375" width="125" height="125" fill="#35495F" />
  <rect x="625" y="375" width="125" height="125" fill="#263238" />
  <rect x="750" y="375" width="125" height="125" fill="#2C3E50" />
  <rect x="875" y="375" width="125" height="125" fill="#FDEFC2" />
  <rect x="1000" y="375" width="125" height="125" fill="#EFEFEF" />
  <rect x="1125" y="375" width="125" height="125" fill="#E0E0E0" />
  <rect x="250" y="500" width="125" height="125" fill="#007A8E" />
  <rect x="375" y="500" width="125" height="125" fill="#FB793B" />
  <rect x="500" y="500" width="125" height="125" fill="#F2EA9B" />
  <rect x="625" y="500" width="125" height="125" fill="#B1A5D6" />
  <rect x="750" y="500" width="125" height="125" fill="#2E2E2E" />
  <rect x="875" y="500" width="125" height="125" fill="#D3D2E1" />
  <rect x="1000" y="500" width="125" height="125" fill="#98A0A6" />
  <rect x="1125" y="500" width="125" height="125" fill="#F0C27B" />
  <rect x="250" y="625" width="125" height="125" fill="#434343" />
  <rect x="375" y="625" width="125" height="125" fill="#B0A169" />
  <rect x="500" y="625" width="125" height="125" fill="#A9A9A9" />
  <rect x="625" y="625" width="125" height="125" fill="#5E6466" />
  <rect x="750" y="625" width="125" height="125" fill="#425057" />
  <rect x="875" y="625" width="125" height="125" fill="#DADADA" />
  <rect x="1000" y="625" width="125" height="125" fill="#808080" />
  <rect x="1125" y="625" width="125" height="125" fill="#212121" />
  <rect x="250" y="750" width="125" height="125" fill="#553A42" />
  <rect x="375" y="750" width="125" height="125" fill="#C3895C" />
  <rect x="500" y="750" width="125" height="125" fill="#EFB6B4" />
  <rect x="625" y="750" width="125" height="125" fill="#6C7E8E" />
  <rect x="750" y="750" width="125" height="125" fill="#C4F0C4" />
  <rect x="875" y="750" width="125" height="125" fill="#FED6C3" />
  <rect x="1000" y="750" width="125" height="125" fill="#737373" />
  <rect x="1125" y="750" width="125" height="125" fill="#A8A8A8" />
  <rect x="250" y="875" width="125" height="125" fill="#6F94E3" />
  <rect x="375" y="875" width="125" height="125" fill="#FEC3E2" />
  <rect x="500" y="875" width="125" height="125" fill="#9A7D87" />
  <rect x="625" y="875" width="125" height="125" fill="#F5F4FA" />
  <rect x="750" y="875" width="125" height="125" fill="#4A5C6B" />
  <rect x="875" y="875" width="125" height="125" fill="#CCDBDB" />
  <rect x="1000" y="875" width="125" height="125" fill="#706D82" />
  <rect x="1125" y="875" width="125" height="125" fill="#292929" />
  <rect x="250" y="1000" width="125" height="125" fill="#4CC7CF" />
  <rect x="375" y="1000" width="125" height="125" fill="#8C9FFF" />
  <rect x="500" y="1000" width="125" height="125" fill="#C3C1C1" />
  <rect x="625" y="1000" width="125" height="125" fill="#121212" />
  <rect x="750" y="1000" width="125" height="125" fill="#D6B93C" />
  <rect x="875" y="1000" width="125" height="125" fill="#333333" />
  <rect x="1000" y="1000" width="125" height="125" fill="#474C50" />
  <rect x="1125" y="1000" width="125" height="125" fill="#000000" />
  <rect x="250" y="1125" width="125" height="125" fill="#F4A261" />
  <rect x="375" y="1125" width="125" height="125" fill="#2D9E99" />
  <rect x="500" y="1125" width="125" height="125" fill="#404F54" />
  <rect x="625" y="1125" width="125" height="125" fill="#433D3D" />
  <rect x="750" y="1125" width="125" height="125" fill="#A7D2D9" />
  <rect x="875" y="1125" width="125" height="125" fill="#FFAF88" />
  <rect x="1000" y="1125" width="125" height="125" fill="#E8D09D" />
  <rect x="1125" y="1125" width="125" height="125" fill="#8493A5" />
  <rect x="250" y="250" width="1000" height="1000" fill="none" stroke="#151515" stroke-opacity="0.16" stroke-width="2" />
</svg>
