<svg xmlns="http://www.w3.org/2000/svg" width="1500" height="1500" viewBox="0 0 1500 1500" shape-rendering="crispEdges" role="img" aria-labelledby="title desc">
  <title id="title">Facing Duality in Natural frame</title>
  <desc id="desc">Square Project artwork previewed in a natural frame.</desc>
  <defs>
    <linearGradient id="frameFace" x1="0" y1="0" x2="1" y2="1">
      <stop offset="0" stop-color="#FFF1D7" />
      <stop offset="0.32" stop-color="#E8D4B7" />
      <stop offset="0.68" stop-color="#C2A17B" />
      <stop offset="1" stop-color="#8D6F50" />
    </linearGradient>
    <pattern id="naturalGrain" patternUnits="userSpaceOnUse" width="180" height="48">
      <path d="M0 12 C48 2 92 24 180 10" fill="none" stroke="#8D6F50" stroke-opacity="0.22" stroke-width="5" />
      <path d="M0 34 C62 44 118 22 180 36" fill="none" stroke="#FFFFFF" stroke-opacity="0.22" stroke-width="4" />
    </pattern>
    <filter id="artShadow" x="-10%" y="-10%" width="120%" height="120%">
      <feDropShadow dx="0" dy="20" stdDeviation="24" flood-color="#000000" flood-opacity="0.24" />
    </filter>
  </defs>
  <rect x="0" y="0" width="1500" height="1500" fill="#FFFFFF" />
  <rect x="0" y="0" width="1500" height="1500" fill="url(#frameFace)" />
  <rect x="0" y="0" width="1500" height="1500" fill="url(#naturalGrain)" />
  <rect x="120" y="120" width="1260" height="1260" fill="#F8F7F3" />
  <rect x="120" y="120" width="1260" height="1260" fill="none" stroke="#000000" stroke-opacity="0.14" stroke-width="10" />
  <rect x="250" y="250" width="1000" height="1000" fill="#FFFFFF" filter="url(#artShadow)" />
  <rect x="250" y="250" width="125" height="125" fill="#2A0A0E" />
  <rect x="375" y="250" width="125" height="125" fill="#4F0E0D" />
  <rect x="500" y="250" width="125" height="125" fill="#7D1311" />
  <rect x="625" y="250" width="125" height="125" fill="#A16A15" />
  <rect x="750" y="250" width="125" height="125" fill="#C24910" />
  <rect x="875" y="250" width="125" height="125" fill="#B5802A" />
  <rect x="1000" y="250" width="125" height="125" fill="#AE6A16" />
  <rect x="1125" y="250" width="125" height="125" fill="#139A2C" />
  <rect x="250" y="375" width="125" height="125" fill="#3C0F11" />
  <rect x="375" y="375" width="125" height="125" fill="#5D0909" />
  <rect x="500" y="375" width="125" height="125" fill="#7D1213" />
  <rect x="625" y="375" width="125" height="125" fill="#AA411F" />
  <rect x="750" y="375" width="125" height="125" fill="#C95C12" />
  <rect x="875" y="375" width="125" height="125" fill="#EA801B" />
  <rect x="1000" y="375" width="125" height="125" fill="#D3A314" />
  <rect x="1125" y="375" width="125" height="125" fill="#A82E2F" />
  <rect x="250" y="500" width="125" height="125" fill="#5B0D08" />
  <rect x="375" y="500" width="125" height="125" fill="#7D0808" />
  <rect x="500" y="500" width="125" height="125" fill="#A41315" />
  <rect x="625" y="500" width="125" height="125" fill="#BB3D27" />
  <rect x="750" y="500" width="125" height="125" fill="#B35D15" />
  <rect x="875" y="500" width="125" height="125" fill="#C2872A" />
  <rect x="1000" y="500" width="125" height="125" fill="#B65013" />
  <rect x="1125" y="500" width="125" height="125" fill="#188A2D" />
  <rect x="250" y="625" width="125" height="125" fill="#877767" />
  <rect x="375" y="625" width="125" height="125" fill="#A35C2E" />
  <rect x="500" y="625" width="125" height="125" fill="#A95B1D" />
  <rect x="625" y="625" width="125" height="125" fill="#941D0E" />
  <rect x="750" y="625" width="125" height="125" fill="#8D4B26" />
  <rect x="875" y="625" width="125" height="125" fill="#E9A88B" />
  <rect x="1000" y="625" width="125" height="125" fill="#DF4E19" />
  <rect x="1125" y="625" width="125" height="125" fill="#119B2B" />
  <rect x="250" y="750" width="125" height="125" fill="#2D2222" />
  <rect x="375" y="750" width="125" height="125" fill="#3B1515" />
  <rect x="500" y="750" width="125" height="125" fill="#1C1111" />
  <rect x="625" y="750" width="125" height="125" fill="#3E3B29" />
  <rect x="750" y="750" width="125" height="125" fill="#76662C" />
  <rect x="875" y="750" width="125" height="125" fill="#A66B22" />
  <rect x="1000" y="750" width="125" height="125" fill="#C7C75E" />
  <rect x="1125" y="750" width="125" height="125" fill="#8F5B2D" />
  <rect x="250" y="875" width="125" height="125" fill="#393939" />
  <rect x="375" y="875" width="125" height="125" fill="#5B5B5B" />
  <rect x="500" y="875" width="125" height="125" fill="#7E7E7E" />
  <rect x="625" y="875" width="125" height="125" fill="#A5A5A5" />
  <rect x="750" y="875" width="125" height="125" fill="#B8B8B8" />
  <rect x="875" y="875" width="125" height="125" fill="#C0E14F" />
  <rect x="1000" y="875" width="125" height="125" fill="#BF2B2B" />
  <rect x="1125" y="875" width="125" height="125" fill="#4A3935" />
  <rect x="250" y="1000" width="125" height="125" fill="#1E1E1E" />
  <rect x="375" y="1000" width="125" height="125" fill="#4C4C4C" />
  <rect x="500" y="1000" width="125" height="125" fill="#6A6A6A" />
  <rect x="625" y="1000" width="125" height="125" fill="#8C8C8C" />
  <rect x="750" y="1000" width="125" height="125" fill="#A1A1A1" />
  <rect x="875" y="1000" width="125" height="125" fill="#DDDDDD" />
  <rect x="1000" y="1000" width="125" height="125" fill="#B5B5B5" />
  <rect x="1125" y="1000" width="125" height="125" fill="#2B2B2B" />
  <rect x="250" y="1125" width="125" height="125" fill="#000000" />
  <rect x="375" y="1125" width="125" height="125" fill="#2B2B2B" />
  <rect x="500" y="1125" width="125" height="125" fill="#4D4D4D" />
  <rect x="625" y="1125" width="125" height="125" fill="#7F7F7F" />
  <rect x="750" y="1125" width="125" height="125" fill="#999999" />
  <rect x="875" y="1125" width="125" height="125" fill="#C3BEBE" />
  <rect x="1000" y="1125" width="125" height="125" fill="#7F7F7F" />
  <rect x="1125" y="1125" width="125" height="125" fill="#000000" />
  <rect x="250" y="250" width="1000" height="1000" fill="none" stroke="#151515" stroke-opacity="0.16" stroke-width="2" />
</svg>
