<svg xmlns="http://www.w3.org/2000/svg" width="1500" height="1500" viewBox="0 0 1500 1500" shape-rendering="crispEdges" role="img" aria-labelledby="title desc">
  <title id="title">Tension and Release in Black frame</title>
  <desc id="desc">Square Project artwork previewed in a black frame.</desc>
  <defs>
    <linearGradient id="frameFace" x1="0" y1="0" x2="1" y2="1">
      <stop offset="0" stop-color="#6A6A6A" />
      <stop offset="0.32" stop-color="#343434" />
      <stop offset="0.68" stop-color="#111111" />
      <stop offset="1" stop-color="#050505" />
    </linearGradient>
    <filter id="artShadow" x="-10%" y="-10%" width="120%" height="120%">
      <feDropShadow dx="0" dy="20" stdDeviation="24" flood-color="#000000" flood-opacity="0.24" />
    </filter>
  </defs>
  <rect x="0" y="0" width="1500" height="1500" fill="#FFFFFF" />
  <rect x="0" y="0" width="1500" height="1500" fill="url(#frameFace)" />
  <rect x="120" y="120" width="1260" height="1260" fill="#F8F7F3" />
  <rect x="120" y="120" width="1260" height="1260" fill="none" stroke="#000000" stroke-opacity="0.14" stroke-width="10" />
  <rect x="250" y="250" width="1000" height="1000" fill="#FFFFFF" filter="url(#artShadow)" />
  <rect x="250" y="250" width="125" height="125" fill="#FF4C4C" />
  <rect x="375" y="250" width="125" height="125" fill="#FF7A7A" />
  <rect x="500" y="250" width="125" height="125" fill="#FFBABA" />
  <rect x="625" y="250" width="125" height="125" fill="#FFDA8A" />
  <rect x="750" y="250" width="125" height="125" fill="#FFE08A" />
  <rect x="875" y="250" width="125" height="125" fill="#FFFFFF" />
  <rect x="1000" y="250" width="125" height="125" fill="#D0E1E1" />
  <rect x="1125" y="250" width="125" height="125" fill="#B0D1E1" />
  <rect x="250" y="375" width="125" height="125" fill="#FF3A3A" />
  <rect x="375" y="375" width="125" height="125" fill="#FF7171" />
  <rect x="500" y="375" width="125" height="125" fill="#FFB6B6" />
  <rect x="625" y="375" width="125" height="125" fill="#FFD1A6" />
  <rect x="750" y="375" width="125" height="125" fill="#FFF1A6" />
  <rect x="875" y="375" width="125" height="125" fill="#F5F5F5" />
  <rect x="1000" y="375" width="125" height="125" fill="#C8E6E6" />
  <rect x="1125" y="375" width="125" height="125" fill="#A8C7E6" />
  <rect x="250" y="500" width="125" height="125" fill="#FF2626" />
  <rect x="375" y="500" width="125" height="125" fill="#FF5252" />
  <rect x="500" y="500" width="125" height="125" fill="#FF9B9B" />
  <rect x="625" y="500" width="125" height="125" fill="#FFCEB2" />
  <rect x="750" y="500" width="125" height="125" fill="#F5E9B2" />
  <rect x="875" y="500" width="125" height="125" fill="#E1E1E1" />
  <rect x="1000" y="500" width="125" height="125" fill="#BEC6C6" />
  <rect x="1125" y="500" width="125" height="125" fill="#9AB3D5" />
  <rect x="250" y="625" width="125" height="125" fill="#FF6161" />
  <rect x="375" y="625" width="125" height="125" fill="#FF7878" />
  <rect x="500" y="625" width="125" height="125" fill="#FFB2B2" />
  <rect x="625" y="625" width="125" height="125" fill="#FFD287" />
  <rect x="750" y="625" width="125" height="125" fill="#FFE7B2" />
  <rect x="875" y="625" width="125" height="125" fill="#EAE8E8" />
  <rect x="1000" y="625" width="125" height="125" fill="#B2E0E0" />
  <rect x="1125" y="625" width="125" height="125" fill="#92BBDC" />
  <rect x="250" y="750" width="125" height="125" fill="#FF8989" />
  <rect x="375" y="750" width="125" height="125" fill="#FFAAAA" />
  <rect x="500" y="750" width="125" height="125" fill="#FFCECE" />
  <rect x="625" y="750" width="125" height="125" fill="#FFF3D2" />
  <rect x="750" y="750" width="125" height="125" fill="#FEF7D6" />
  <rect x="875" y="750" width="125" height="125" fill="#E8E5E5" />
  <rect x="1000" y="750" width="125" height="125" fill="#A6D5D5" />
  <rect x="1125" y="750" width="125" height="125" fill="#83C2E6" />
  <rect x="250" y="875" width="125" height="125" fill="#FF4E4E" />
  <rect x="375" y="875" width="125" height="125" fill="#FF7F7F" />
  <rect x="500" y="875" width="125" height="125" fill="#FFBDBD" />
  <rect x="625" y="875" width="125" height="125" fill="#FFE4A3" />
  <rect x="750" y="875" width="125" height="125" fill="#FFF5A3" />
  <rect x="875" y="875" width="125" height="125" fill="#D9D9D9" />
  <rect x="1000" y="875" width="125" height="125" fill="#98D5D5" />
  <rect x="1125" y="875" width="125" height="125" fill="#76B6E6" />
  <rect x="250" y="1000" width="125" height="125" fill="#FF4747" />
  <rect x="375" y="1000" width="125" height="125" fill="#FF5C5C" />
  <rect x="500" y="1000" width="125" height="125" fill="#FFB4B4" />
  <rect x="625" y="1000" width="125" height="125" fill="#FFE1A6" />
  <rect x="750" y="1000" width="125" height="125" fill="#F4E61A" />
  <rect x="875" y="1000" width="125" height="125" fill="#E4E4E4" />
  <rect x="1000" y="1000" width="125" height="125" fill="#A3D4D4" />
  <rect x="1125" y="1000" width="125" height="125" fill="#74A4D2" />
  <rect x="250" y="1125" width="125" height="125" fill="#FF3333" />
  <rect x="375" y="1125" width="125" height="125" fill="#FFAAAA" />
  <rect x="500" y="1125" width="125" height="125" fill="#FFAAAA" />
  <rect x="625" y="1125" width="125" height="125" fill="#FFD0B2" />
  <rect x="750" y="1125" width="125" height="125" fill="#FFF8A3" />
  <rect x="875" y="1125" width="125" height="125" fill="#E0E0E0" />
  <rect x="1000" y="1125" width="125" height="125" fill="#B9E4E4" />
  <rect x="1125" y="1125" width="125" height="125" fill="#67A0D5" />
  <rect x="250" y="250" width="1000" height="1000" fill="none" stroke="#151515" stroke-opacity="0.16" stroke-width="2" />
</svg>
