<svg xmlns="http://www.w3.org/2000/svg" width="1500" height="1500" viewBox="0 0 1500 1500" shape-rendering="crispEdges" role="img" aria-labelledby="title desc">
  <title id="title">Contrast of Shadows in White frame</title>
  <desc id="desc">Square Project artwork previewed in a white frame.</desc>
  <defs>
    <linearGradient id="frameFace" x1="0" y1="0" x2="1" y2="1">
      <stop offset="0" stop-color="#BEBEB8" />
      <stop offset="0.32" stop-color="#FFFFFF" />
      <stop offset="0.68" stop-color="#F8F8F5" />
      <stop offset="1" stop-color="#D5D5CF" />
    </linearGradient>
    <filter id="artShadow" x="-10%" y="-10%" width="120%" height="120%">
      <feDropShadow dx="0" dy="20" stdDeviation="24" flood-color="#000000" flood-opacity="0.24" />
    </filter>
  </defs>
  <rect x="0" y="0" width="1500" height="1500" fill="#FFFFFF" />
  <rect x="0" y="0" width="1500" height="1500" fill="url(#frameFace)" />
  <rect x="120" y="120" width="1260" height="1260" fill="#F8F7F3" />
  <rect x="120" y="120" width="1260" height="1260" fill="none" stroke="#000000" stroke-opacity="0.14" stroke-width="10" />
  <rect x="250" y="250" width="1000" height="1000" fill="#FFFFFF" filter="url(#artShadow)" />
  <rect x="250" y="250" width="125" height="125" fill="#D9C8B2" />
  <rect x="375" y="250" width="125" height="125" fill="#D9C8B2" />
  <rect x="500" y="250" width="125" height="125" fill="#B6A6A0" />
  <rect x="625" y="250" width="125" height="125" fill="#B6A6A0" />
  <rect x="750" y="250" width="125" height="125" fill="#9F8895" />
  <rect x="875" y="250" width="125" height="125" fill="#9F8895" />
  <rect x="1000" y="250" width="125" height="125" fill="#7B7F77" />
  <rect x="1125" y="250" width="125" height="125" fill="#7B7F77" />
  <rect x="250" y="375" width="125" height="125" fill="#D9C8B2" />
  <rect x="375" y="375" width="125" height="125" fill="#D2AE9B" />
  <rect x="500" y="375" width="125" height="125" fill="#B3A16C" />
  <rect x="625" y="375" width="125" height="125" fill="#A5936A" />
  <rect x="750" y="375" width="125" height="125" fill="#6D4F4C" />
  <rect x="875" y="375" width="125" height="125" fill="#8B7B70" />
  <rect x="1000" y="375" width="125" height="125" fill="#7D7B69" />
  <rect x="1125" y="375" width="125" height="125" fill="#5A5F56" />
  <rect x="250" y="500" width="125" height="125" fill="#E7F0F6" />
  <rect x="375" y="500" width="125" height="125" fill="#E7F0F6" />
  <rect x="500" y="500" width="125" height="125" fill="#8D9EA7" />
  <rect x="625" y="500" width="125" height="125" fill="#B0C3C2" />
  <rect x="750" y="500" width="125" height="125" fill="#A3B2AF" />
  <rect x="875" y="500" width="125" height="125" fill="#615653" />
  <rect x="1000" y="500" width="125" height="125" fill="#51524F" />
  <rect x="1125" y="500" width="125" height="125" fill="#313433" />
  <rect x="250" y="625" width="125" height="125" fill="#F8E8CB" />
  <rect x="375" y="625" width="125" height="125" fill="#F8E8CB" />
  <rect x="500" y="625" width="125" height="125" fill="#CCBE94" />
  <rect x="625" y="625" width="125" height="125" fill="#BBAC8B" />
  <rect x="750" y="625" width="125" height="125" fill="#A2927B" />
  <rect x="875" y="625" width="125" height="125" fill="#8D7E75" />
  <rect x="1000" y="625" width="125" height="125" fill="#6A5D5E" />
  <rect x="1125" y="625" width="125" height="125" fill="#4D4D4A" />
  <rect x="250" y="750" width="125" height="125" fill="#D9C8B2" />
  <rect x="375" y="750" width="125" height="125" fill="#D9C8B2" />
  <rect x="500" y="750" width="125" height="125" fill="#919387" />
  <rect x="625" y="750" width="125" height="125" fill="#7B8876" />
  <rect x="750" y="750" width="125" height="125" fill="#585D55" />
  <rect x="875" y="750" width="125" height="125" fill="#454840" />
  <rect x="1000" y="750" width="125" height="125" fill="#303230" />
  <rect x="1125" y="750" width="125" height="125" fill="#313430" />
  <rect x="250" y="875" width="125" height="125" fill="#D9C8B2" />
  <rect x="375" y="875" width="125" height="125" fill="#E1D1CD" />
  <rect x="500" y="875" width="125" height="125" fill="#C3B1A6" />
  <rect x="625" y="875" width="125" height="125" fill="#B4C1AF" />
  <rect x="750" y="875" width="125" height="125" fill="#7A7C72" />
  <rect x="875" y="875" width="125" height="125" fill="#5D5754" />
  <rect x="1000" y="875" width="125" height="125" fill="#4C4B46" />
  <rect x="1125" y="875" width="125" height="125" fill="#383C3A" />
  <rect x="250" y="1000" width="125" height="125" fill="#D9C8B2" />
  <rect x="375" y="1000" width="125" height="125" fill="#9F8C7B" />
  <rect x="500" y="1000" width="125" height="125" fill="#9A7F72" />
  <rect x="625" y="1000" width="125" height="125" fill="#8A7570" />
  <rect x="750" y="1000" width="125" height="125" fill="#6C706C" />
  <rect x="875" y="1000" width="125" height="125" fill="#585957" />
  <rect x="1000" y="1000" width="125" height="125" fill="#373E3E" />
  <rect x="1125" y="1000" width="125" height="125" fill="#293029" />
  <rect x="250" y="1125" width="125" height="125" fill="#D9C8B2" />
  <rect x="375" y="1125" width="125" height="125" fill="#D9C8B2" />
  <rect x="500" y="1125" width="125" height="125" fill="#D1C6C1" />
  <rect x="625" y="1125" width="125" height="125" fill="#B0A7A0" />
  <rect x="750" y="1125" width="125" height="125" fill="#8C7C76" />
  <rect x="875" y="1125" width="125" height="125" fill="#7A6F68" />
  <rect x="1000" y="1125" width="125" height="125" fill="#585B5A" />
  <rect x="1125" y="1125" width="125" height="125" fill="#484847" />
  <rect x="250" y="250" width="1000" height="1000" fill="none" stroke="#151515" stroke-opacity="0.16" stroke-width="2" />
</svg>
