<svg xmlns="http://www.w3.org/2000/svg" width="1500" height="1500" viewBox="0 0 1500 1500" shape-rendering="crispEdges" role="img" aria-labelledby="title desc">
  <title id="title">Fractured Balance in Natural frame</title>
  <desc id="desc">Square Project artwork previewed in a natural frame.</desc>
  <defs>
    <linearGradient id="frameFace" x1="0" y1="0" x2="1" y2="1">
      <stop offset="0" stop-color="#8F6F35" />
      <stop offset="0.32" stop-color="#F0DDAA" />
      <stop offset="0.68" stop-color="#D8C190" />
      <stop offset="1" stop-color="#B39155" />
    </linearGradient>
    <filter id="artShadow" x="-10%" y="-10%" width="120%" height="120%">
      <feDropShadow dx="0" dy="20" stdDeviation="24" flood-color="#000000" flood-opacity="0.24" />
    </filter>
  </defs>
  <rect x="0" y="0" width="1500" height="1500" fill="#FFFFFF" />
  <rect x="0" y="0" width="1500" height="1500" fill="url(#frameFace)" />
  <rect x="120" y="120" width="1260" height="1260" fill="#F8F7F3" />
  <rect x="120" y="120" width="1260" height="1260" fill="none" stroke="#000000" stroke-opacity="0.14" stroke-width="10" />
  <rect x="250" y="250" width="1000" height="1000" fill="#FFFFFF" filter="url(#artShadow)" />
  <rect x="250" y="250" width="125" height="125" fill="#3B2C24" />
  <rect x="375" y="250" width="125" height="125" fill="#A78B65" />
  <rect x="500" y="250" width="125" height="125" fill="#F0E0D6" />
  <rect x="625" y="250" width="125" height="125" fill="#A78B65" />
  <rect x="750" y="250" width="125" height="125" fill="#3B2C24" />
  <rect x="875" y="250" width="125" height="125" fill="#C7B7A7" />
  <rect x="1000" y="250" width="125" height="125" fill="#E7D4C9" />
  <rect x="1125" y="250" width="125" height="125" fill="#B2A89B" />
  <rect x="250" y="375" width="125" height="125" fill="#2F1D16" />
  <rect x="375" y="375" width="125" height="125" fill="#C1A99A" />
  <rect x="500" y="375" width="125" height="125" fill="#E0C9B0" />
  <rect x="625" y="375" width="125" height="125" fill="#C1A99A" />
  <rect x="750" y="375" width="125" height="125" fill="#2F1D16" />
  <rect x="875" y="375" width="125" height="125" fill="#B5A28E" />
  <rect x="1000" y="375" width="125" height="125" fill="#D9CCB1" />
  <rect x="1125" y="375" width="125" height="125" fill="#A25D45" />
  <rect x="250" y="500" width="125" height="125" fill="#3B2C24" />
  <rect x="375" y="500" width="125" height="125" fill="#D2D5C8" />
  <rect x="500" y="500" width="125" height="125" fill="#F4F9F7" />
  <rect x="625" y="500" width="125" height="125" fill="#D2D5C8" />
  <rect x="750" y="500" width="125" height="125" fill="#3B2C24" />
  <rect x="875" y="500" width="125" height="125" fill="#B5A28E" />
  <rect x="1000" y="500" width="125" height="125" fill="#E7E4D1" />
  <rect x="1125" y="500" width="125" height="125" fill="#A25D45" />
  <rect x="250" y="625" width="125" height="125" fill="#5B4A4C" />
  <rect x="375" y="625" width="125" height="125" fill="#EAE4D6" />
  <rect x="500" y="625" width="125" height="125" fill="#D1C4B9" />
  <rect x="625" y="625" width="125" height="125" fill="#EAE4D6" />
  <rect x="750" y="625" width="125" height="125" fill="#5B4A4C" />
  <rect x="875" y="625" width="125" height="125" fill="#D6C8B5" />
  <rect x="1000" y="625" width="125" height="125" fill="#BEB0A6" />
  <rect x="1125" y="625" width="125" height="125" fill="#B25D54" />
  <rect x="250" y="750" width="125" height="125" fill="#2F1D16" />
  <rect x="375" y="750" width="125" height="125" fill="#B1A29A" />
  <rect x="500" y="750" width="125" height="125" fill="#E8D3C1" />
  <rect x="625" y="750" width="125" height="125" fill="#B1A29A" />
  <rect x="750" y="750" width="125" height="125" fill="#2F1D16" />
  <rect x="875" y="750" width="125" height="125" fill="#C7B7A7" />
  <rect x="1000" y="750" width="125" height="125" fill="#D9CCB1" />
  <rect x="1125" y="750" width="125" height="125" fill="#A25D45" />
  <rect x="250" y="875" width="125" height="125" fill="#3B2C24" />
  <rect x="375" y="875" width="125" height="125" fill="#D6B6A5" />
  <rect x="500" y="875" width="125" height="125" fill="#F0E0D6" />
  <rect x="625" y="875" width="125" height="125" fill="#D6B6A5" />
  <rect x="750" y="875" width="125" height="125" fill="#3B2C24" />
  <rect x="875" y="875" width="125" height="125" fill="#C1A99A" />
  <rect x="1000" y="875" width="125" height="125" fill="#E7E2D2" />
  <rect x="1125" y="875" width="125" height="125" fill="#B2A89B" />
  <rect x="250" y="1000" width="125" height="125" fill="#5B4A4C" />
  <rect x="375" y="1000" width="125" height="125" fill="#A78B65" />
  <rect x="500" y="1000" width="125" height="125" fill="#E3D9CE" />
  <rect x="625" y="1000" width="125" height="125" fill="#A78B65" />
  <rect x="750" y="1000" width="125" height="125" fill="#5B4A4C" />
  <rect x="875" y="1000" width="125" height="125" fill="#D2C6B0" />
  <rect x="1000" y="1000" width="125" height="125" fill="#F2E2D6" />
  <rect x="1125" y="1000" width="125" height="125" fill="#B25D54" />
  <rect x="250" y="1125" width="125" height="125" fill="#5D4B3A" />
  <rect x="375" y="1125" width="125" height="125" fill="#A78B65" />
  <rect x="500" y="1125" width="125" height="125" fill="#C7B7A7" />
  <rect x="625" y="1125" width="125" height="125" fill="#A78B65" />
  <rect x="750" y="1125" width="125" height="125" fill="#5D4B3A" />
  <rect x="875" y="1125" width="125" height="125" fill="#2F1D16" />
  <rect x="1000" y="1125" width="125" height="125" fill="#E7D4C9" />
  <rect x="1125" y="1125" width="125" height="125" fill="#B2A89B" />
  <rect x="250" y="250" width="1000" height="1000" fill="none" stroke="#151515" stroke-opacity="0.16" stroke-width="2" />
</svg>
