<svg xmlns="http://www.w3.org/2000/svg" width="1500" height="1500" viewBox="0 0 1500 1500" shape-rendering="crispEdges" role="img" aria-labelledby="title desc">
  <title id="title">Exposure vs Shelter in Brown frame</title>
  <desc id="desc">Square Project artwork previewed in a brown frame.</desc>
  <rect x="0" y="0" width="1500" height="1500" fill="#FFFFFF" />
  <image href="https://mysquareart.com/frames/brown.jpg" x="0" y="0" width="1500" height="1500" preserveAspectRatio="xMidYMid meet" />
  <rect x="250" y="250" width="1000" height="1000" fill="#FFFFFF" />
  <rect x="250" y="250" width="125" height="125" fill="#D8D5D0" />
  <rect x="375" y="250" width="125" height="125" fill="#D1CFCF" />
  <rect x="500" y="250" width="125" height="125" fill="#C0BDB8" />
  <rect x="625" y="250" width="125" height="125" fill="#B09EB1" />
  <rect x="750" y="250" width="125" height="125" fill="#B5A9B2" />
  <rect x="875" y="250" width="125" height="125" fill="#AFAFB6" />
  <rect x="1000" y="250" width="125" height="125" fill="#A6A4A8" />
  <rect x="1125" y="250" width="125" height="125" fill="#A1AAB1" />
  <rect x="250" y="375" width="125" height="125" fill="#B3B0B8" />
  <rect x="375" y="375" width="125" height="125" fill="#D3C9C3" />
  <rect x="500" y="375" width="125" height="125" fill="#FFECE6" />
  <rect x="625" y="375" width="125" height="125" fill="#D5D7D5" />
  <rect x="750" y="375" width="125" height="125" fill="#AAAEF1" />
  <rect x="875" y="375" width="125" height="125" fill="#CEB7B2" />
  <rect x="1000" y="375" width="125" height="125" fill="#A7A7AA" />
  <rect x="1125" y="375" width="125" height="125" fill="#A8A2A3" />
  <rect x="250" y="500" width="125" height="125" fill="#C2C8D5" />
  <rect x="375" y="500" width="125" height="125" fill="#DDDDDD" />
  <rect x="500" y="500" width="125" height="125" fill="#C09BBE" />
  <rect x="625" y="500" width="125" height="125" fill="#C096BD" />
  <rect x="750" y="500" width="125" height="125" fill="#E1BDCC" />
  <rect x="875" y="500" width="125" height="125" fill="#E8D5ED" />
  <rect x="1000" y="500" width="125" height="125" fill="#C26A7C" />
  <rect x="1125" y="500" width="125" height="125" fill="#A69C89" />
  <rect x="250" y="625" width="125" height="125" fill="#B5B9C7" />
  <rect x="375" y="625" width="125" height="125" fill="#D1A4C7" />
  <rect x="500" y="625" width="125" height="125" fill="#A4BFC5" />
  <rect x="625" y="625" width="125" height="125" fill="#B2C5CF" />
  <rect x="750" y="625" width="125" height="125" fill="#BFD4DF" />
  <rect x="875" y="625" width="125" height="125" fill="#E5E8F3" />
  <rect x="1000" y="625" width="125" height="125" fill="#D0CFE9" />
  <rect x="1125" y="625" width="125" height="125" fill="#F4F1EC" />
  <rect x="250" y="750" width="125" height="125" fill="#E8E8E8" />
  <rect x="375" y="750" width="125" height="125" fill="#CCBCC8" />
  <rect x="500" y="750" width="125" height="125" fill="#AEB0B1" />
  <rect x="625" y="750" width="125" height="125" fill="#E4E5E8" />
  <rect x="750" y="750" width="125" height="125" fill="#8F8D9A" />
  <rect x="875" y="750" width="125" height="125" fill="#5D3A41" />
  <rect x="1000" y="750" width="125" height="125" fill="#3A2E38" />
  <rect x="1125" y="750" width="125" height="125" fill="#BB9F95" />
  <rect x="250" y="875" width="125" height="125" fill="#D9D3D2" />
  <rect x="375" y="875" width="125" height="125" fill="#E5D5D1" />
  <rect x="500" y="875" width="125" height="125" fill="#D7C7C8" />
  <rect x="625" y="875" width="125" height="125" fill="#B0A3B6" />
  <rect x="750" y="875" width="125" height="125" fill="#E5E5E5" />
  <rect x="875" y="875" width="125" height="125" fill="#BFB3C1" />
  <rect x="1000" y="875" width="125" height="125" fill="#BBA6B2" />
  <rect x="1125" y="875" width="125" height="125" fill="#AFA8B8" />
  <rect x="250" y="1000" width="125" height="125" fill="#E6E0E7" />
  <rect x="375" y="1000" width="125" height="125" fill="#D2D4E5" />
  <rect x="500" y="1000" width="125" height="125" fill="#E1C6BF" />
  <rect x="625" y="1000" width="125" height="125" fill="#C8B3BB" />
  <rect x="750" y="1000" width="125" height="125" fill="#C5E4E1" />
  <rect x="875" y="1000" width="125" height="125" fill="#B6B2B7" />
  <rect x="1000" y="1000" width="125" height="125" fill="#BDAFBB" />
  <rect x="1125" y="1000" width="125" height="125" fill="#E7E4EF" />
  <rect x="250" y="1125" width="125" height="125" fill="#CED7D8" />
  <rect x="375" y="1125" width="125" height="125" fill="#E0E4E9" />
  <rect x="500" y="1125" width="125" height="125" fill="#D4C4C2" />
  <rect x="625" y="1125" width="125" height="125" fill="#C8C6D7" />
  <rect x="750" y="1125" width="125" height="125" fill="#D8DDDC" />
  <rect x="875" y="1125" width="125" height="125" fill="#A8B4B3" />
  <rect x="1000" y="1125" width="125" height="125" fill="#B0A6AF" />
  <rect x="1125" y="1125" width="125" height="125" fill="#D5D6D9" />
  <rect x="250" y="250" width="1000" height="1000" fill="none" stroke="#151515" stroke-opacity="0.16" stroke-width="2" />
</svg>
