<svg xmlns="http://www.w3.org/2000/svg" width="1500" height="1500" viewBox="0 0 1500 1500" shape-rendering="crispEdges" role="img" aria-labelledby="title desc">
  <title id="title">Eclipsed Emotions in White frame</title>
  <desc id="desc">Square Project artwork previewed in a white frame.</desc>
  <defs>
    <linearGradient id="frameFace" x1="0" y1="0" x2="1" y2="1">
      <stop offset="0" stop-color="#BEBEB8" />
      <stop offset="0.32" stop-color="#FFFFFF" />
      <stop offset="0.68" stop-color="#F8F8F5" />
      <stop offset="1" stop-color="#D5D5CF" />
    </linearGradient>
    <filter id="artShadow" x="-10%" y="-10%" width="120%" height="120%">
      <feDropShadow dx="0" dy="20" stdDeviation="24" flood-color="#000000" flood-opacity="0.24" />
    </filter>
  </defs>
  <rect x="0" y="0" width="1500" height="1500" fill="#FFFFFF" />
  <rect x="0" y="0" width="1500" height="1500" fill="url(#frameFace)" />
  <rect x="120" y="120" width="1260" height="1260" fill="#F8F7F3" />
  <rect x="120" y="120" width="1260" height="1260" fill="none" stroke="#000000" stroke-opacity="0.14" stroke-width="10" />
  <rect x="250" y="250" width="1000" height="1000" fill="#FFFFFF" filter="url(#artShadow)" />
  <rect x="250" y="250" width="125" height="125" fill="#F9D700" />
  <rect x="375" y="250" width="125" height="125" fill="#F9AA00" />
  <rect x="500" y="250" width="125" height="125" fill="#F84E00" />
  <rect x="625" y="250" width="125" height="125" fill="#F9A600" />
  <rect x="750" y="250" width="125" height="125" fill="#E5A734" />
  <rect x="875" y="250" width="125" height="125" fill="#C57328" />
  <rect x="1000" y="250" width="125" height="125" fill="#905C3B" />
  <rect x="1125" y="250" width="125" height="125" fill="#4E4E6C" />
  <rect x="250" y="375" width="125" height="125" fill="#F9E6A5" />
  <rect x="375" y="375" width="125" height="125" fill="#F9D45D" />
  <rect x="500" y="375" width="125" height="125" fill="#F8A923" />
  <rect x="625" y="375" width="125" height="125" fill="#EAB02A" />
  <rect x="750" y="375" width="125" height="125" fill="#D29B14" />
  <rect x="875" y="375" width="125" height="125" fill="#6D6F88" />
  <rect x="1000" y="375" width="125" height="125" fill="#4A4A68" />
  <rect x="1125" y="375" width="125" height="125" fill="#20203D" />
  <rect x="250" y="500" width="125" height="125" fill="#B96E6D" />
  <rect x="375" y="500" width="125" height="125" fill="#7B2E2D" />
  <rect x="500" y="500" width="125" height="125" fill="#4A585E" />
  <rect x="625" y="500" width="125" height="125" fill="#3E596E" />
  <rect x="750" y="500" width="125" height="125" fill="#283B6C" />
  <rect x="875" y="500" width="125" height="125" fill="#0C1561" />
  <rect x="1000" y="500" width="125" height="125" fill="#000000" />
  <rect x="1125" y="500" width="125" height="125" fill="#000000" />
  <rect x="250" y="625" width="125" height="125" fill="#562A7E" />
  <rect x="375" y="625" width="125" height="125" fill="#621D77" />
  <rect x="500" y="625" width="125" height="125" fill="#74176E" />
  <rect x="625" y="625" width="125" height="125" fill="#8E0F65" />
  <rect x="750" y="625" width="125" height="125" fill="#C82492" />
  <rect x="875" y="625" width="125" height="125" fill="#F1A2D0" />
  <rect x="1000" y="625" width="125" height="125" fill="#FFFFFF" />
  <rect x="1125" y="625" width="125" height="125" fill="#FFFFFF" />
  <rect x="250" y="750" width="125" height="125" fill="#EEBFCC" />
  <rect x="375" y="750" width="125" height="125" fill="#E6ACC5" />
  <rect x="500" y="750" width="125" height="125" fill="#E5A5C0" />
  <rect x="625" y="750" width="125" height="125" fill="#E0A2B9" />
  <rect x="750" y="750" width="125" height="125" fill="#D99F9D" />
  <rect x="875" y="750" width="125" height="125" fill="#D89E8D" />
  <rect x="1000" y="750" width="125" height="125" fill="#C38B6B" />
  <rect x="1125" y="750" width="125" height="125" fill="#A57249" />
  <rect x="250" y="875" width="125" height="125" fill="#F6E1B4" />
  <rect x="375" y="875" width="125" height="125" fill="#F2C892" />
  <rect x="500" y="875" width="125" height="125" fill="#F0A48A" />
  <rect x="625" y="875" width="125" height="125" fill="#EC6F6A" />
  <rect x="750" y="875" width="125" height="125" fill="#DA4F50" />
  <rect x="875" y="875" width="125" height="125" fill="#DA7373" />
  <rect x="1000" y="875" width="125" height="125" fill="#B45357" />
  <rect x="1125" y="875" width="125" height="125" fill="#70364F" />
  <rect x="250" y="1000" width="125" height="125" fill="#FFA07A" />
  <rect x="375" y="1000" width="125" height="125" fill="#FF8C5A" />
  <rect x="500" y="1000" width="125" height="125" fill="#FF8B5E" />
  <rect x="625" y="1000" width="125" height="125" fill="#FF7F7F" />
  <rect x="750" y="1000" width="125" height="125" fill="#FF7070" />
  <rect x="875" y="1000" width="125" height="125" fill="#FF6868" />
  <rect x="1000" y="1000" width="125" height="125" fill="#FF6060" />
  <rect x="1125" y="1000" width="125" height="125" fill="#FF5656" />
  <rect x="250" y="1125" width="125" height="125" fill="#BA0F0F" />
  <rect x="375" y="1125" width="125" height="125" fill="#901010" />
  <rect x="500" y="1125" width="125" height="125" fill="#7A2E2E" />
  <rect x="625" y="1125" width="125" height="125" fill="#647474" />
  <rect x="750" y="1125" width="125" height="125" fill="#666F83" />
  <rect x="875" y="1125" width="125" height="125" fill="#646F82" />
  <rect x="1000" y="1125" width="125" height="125" fill="#497FC3" />
  <rect x="1125" y="1125" width="125" height="125" fill="#A2BF84" />
  <rect x="250" y="250" width="1000" height="1000" fill="none" stroke="#151515" stroke-opacity="0.16" stroke-width="2" />
</svg>
