<svg xmlns="http://www.w3.org/2000/svg" width="1500" height="1500" viewBox="0 0 1500 1500" shape-rendering="crispEdges" role="img" aria-labelledby="title desc">
  <title id="title">Echoes of Tension in White frame</title>
  <desc id="desc">Square Project artwork previewed in a white frame.</desc>
  <rect x="0" y="0" width="1500" height="1500" fill="#FFFFFF" />
  <image href="https://mysquareart.com/frames/white.jpg" x="0" y="0" width="1500" height="1500" preserveAspectRatio="xMidYMid meet" />
  <rect x="250" y="250" width="1000" height="1000" fill="#FFFFFF" />
  <rect x="250" y="250" width="125" height="125" fill="#000000" />
  <rect x="375" y="250" width="125" height="125" fill="#1A1A4B" />
  <rect x="500" y="250" width="125" height="125" fill="#3A3A8C" />
  <rect x="625" y="250" width="125" height="125" fill="#5A5AB0" />
  <rect x="750" y="250" width="125" height="125" fill="#3F3F80" />
  <rect x="875" y="250" width="125" height="125" fill="#000000" />
  <rect x="1000" y="250" width="125" height="125" fill="#3A3A3A" />
  <rect x="1125" y="250" width="125" height="125" fill="#3A3A1A" />
  <rect x="250" y="375" width="125" height="125" fill="#111111" />
  <rect x="375" y="375" width="125" height="125" fill="#2E2E3C" />
  <rect x="500" y="375" width="125" height="125" fill="#4D4D80" />
  <rect x="625" y="375" width="125" height="125" fill="#6C6C7D" />
  <rect x="750" y="375" width="125" height="125" fill="#2A2A2A" />
  <rect x="875" y="375" width="125" height="125" fill="#1F1F4D" />
  <rect x="1000" y="375" width="125" height="125" fill="#1A1A4B" />
  <rect x="1125" y="375" width="125" height="125" fill="#2C2C35" />
  <rect x="250" y="500" width="125" height="125" fill="#3A3F5F" />
  <rect x="375" y="500" width="125" height="125" fill="#2D2D35" />
  <rect x="500" y="500" width="125" height="125" fill="#A1A1C9" />
  <rect x="625" y="500" width="125" height="125" fill="#C9C943" />
  <rect x="750" y="500" width="125" height="125" fill="#FBF3DA" />
  <rect x="875" y="500" width="125" height="125" fill="#5A5A8C" />
  <rect x="1000" y="500" width="125" height="125" fill="#000000" />
  <rect x="1125" y="500" width="125" height="125" fill="#3A3A1A" />
  <rect x="250" y="625" width="125" height="125" fill="#555555" />
  <rect x="375" y="625" width="125" height="125" fill="#1C1C1C" />
  <rect x="500" y="625" width="125" height="125" fill="#2E3E4D" />
  <rect x="625" y="625" width="125" height="125" fill="#9A9A3F" />
  <rect x="750" y="625" width="125" height="125" fill="#BDBDB3" />
  <rect x="875" y="625" width="125" height="125" fill="#5A5A2C" />
  <rect x="1000" y="625" width="125" height="125" fill="#0F0F2D" />
  <rect x="1125" y="625" width="125" height="125" fill="#3F3F3A" />
  <rect x="250" y="750" width="125" height="125" fill="#222222" />
  <rect x="375" y="750" width="125" height="125" fill="#444444" />
  <rect x="500" y="750" width="125" height="125" fill="#777777" />
  <rect x="625" y="750" width="125" height="125" fill="#FFFFF0" />
  <rect x="750" y="750" width="125" height="125" fill="#E0D4DB" />
  <rect x="875" y="750" width="125" height="125" fill="#AAAAB2" />
  <rect x="1000" y="750" width="125" height="125" fill="#4F4F2E" />
  <rect x="1125" y="750" width="125" height="125" fill="#101010" />
  <rect x="250" y="875" width="125" height="125" fill="#3C3C3F" />
  <rect x="375" y="875" width="125" height="125" fill="#6D6D32" />
  <rect x="500" y="875" width="125" height="125" fill="#7A7A5A" />
  <rect x="625" y="875" width="125" height="125" fill="#111111" />
  <rect x="750" y="875" width="125" height="125" fill="#C0B70B" />
  <rect x="875" y="875" width="125" height="125" fill="#00FFFF" />
  <rect x="1000" y="875" width="125" height="125" fill="#B4B4B4" />
  <rect x="1125" y="875" width="125" height="125" fill="#5F5F3F" />
  <rect x="250" y="1000" width="125" height="125" fill="#333333" />
  <rect x="375" y="1000" width="125" height="125" fill="#F0F0F0" />
  <rect x="500" y="1000" width="125" height="125" fill="#7C7C87" />
  <rect x="625" y="1000" width="125" height="125" fill="#4B4B32" />
  <rect x="750" y="1000" width="125" height="125" fill="#F0F0E9" />
  <rect x="875" y="1000" width="125" height="125" fill="#E0D8D4" />
  <rect x="1000" y="1000" width="125" height="125" fill="#C4C4B4" />
  <rect x="1125" y="1000" width="125" height="125" fill="#1D1D4D" />
  <rect x="250" y="1125" width="125" height="125" fill="#1F1F4D" />
  <rect x="375" y="1125" width="125" height="125" fill="#D0D0D0" />
  <rect x="500" y="1125" width="125" height="125" fill="#AAAAAA" />
  <rect x="625" y="1125" width="125" height="125" fill="#B0B0B0" />
  <rect x="750" y="1125" width="125" height="125" fill="#9E9E0A" />
  <rect x="875" y="1125" width="125" height="125" fill="#444442" />
  <rect x="1000" y="1125" width="125" height="125" fill="#0B0B3D" />
  <rect x="1125" y="1125" width="125" height="125" fill="#3F3F5F" />
  <rect x="250" y="250" width="1000" height="1000" fill="none" stroke="#151515" stroke-opacity="0.16" stroke-width="2" />
</svg>
