<svg xmlns="http://www.w3.org/2000/svg" width="1500" height="1500" viewBox="0 0 1500 1500" shape-rendering="crispEdges" role="img" aria-labelledby="title desc">
  <title id="title">Fluid Dynamics in Black frame</title>
  <desc id="desc">Square Project artwork previewed in a black frame.</desc>
  <rect x="0" y="0" width="1500" height="1500" fill="#FFFFFF" />
  <image href="https://mysquareart.com/frames/black.jpg" x="0" y="0" width="1500" height="1500" preserveAspectRatio="xMidYMid meet" />
  <rect x="250" y="250" width="1000" height="1000" fill="#FFFFFF" />
  <rect x="250" y="250" width="125" height="125" fill="#C85A00" />
  <rect x="375" y="250" width="125" height="125" fill="#9B3B00" />
  <rect x="500" y="250" width="125" height="125" fill="#1F1F1F" />
  <rect x="625" y="250" width="125" height="125" fill="#8C4E1C" />
  <rect x="750" y="250" width="125" height="125" fill="#3C001B" />
  <rect x="875" y="250" width="125" height="125" fill="#F0C000" />
  <rect x="1000" y="250" width="125" height="125" fill="#D67E50" />
  <rect x="1125" y="250" width="125" height="125" fill="#5B1A00" />
  <rect x="250" y="375" width="125" height="125" fill="#A33C00" />
  <rect x="375" y="375" width="125" height="125" fill="#FF8E00" />
  <rect x="500" y="375" width="125" height="125" fill="#CC4D00" />
  <rect x="625" y="375" width="125" height="125" fill="#5A4D4A" />
  <rect x="750" y="375" width="125" height="125" fill="#DAA400" />
  <rect x="875" y="375" width="125" height="125" fill="#B78C45" />
  <rect x="1000" y="375" width="125" height="125" fill="#6F2B30" />
  <rect x="1125" y="375" width="125" height="125" fill="#8C721D" />
  <rect x="250" y="500" width="125" height="125" fill="#7A3A00" />
  <rect x="375" y="500" width="125" height="125" fill="#904B00" />
  <rect x="500" y="500" width="125" height="125" fill="#3D2A32" />
  <rect x="625" y="500" width="125" height="125" fill="#C85A00" />
  <rect x="750" y="500" width="125" height="125" fill="#5B3E0A" />
  <rect x="875" y="500" width="125" height="125" fill="#D2CA00" />
  <rect x="1000" y="500" width="125" height="125" fill="#F88400" />
  <rect x="1125" y="500" width="125" height="125" fill="#4D3C00" />
  <rect x="250" y="625" width="125" height="125" fill="#D1C2A6" />
  <rect x="375" y="625" width="125" height="125" fill="#E05D00" />
  <rect x="500" y="625" width="125" height="125" fill="#4A3748" />
  <rect x="625" y="625" width="125" height="125" fill="#7C5928" />
  <rect x="750" y="625" width="125" height="125" fill="#A55120" />
  <rect x="875" y="625" width="125" height="125" fill="#C2B2A1" />
  <rect x="1000" y="625" width="125" height="125" fill="#F6A600" />
  <rect x="1125" y="625" width="125" height="125" fill="#3A2027" />
  <rect x="250" y="750" width="125" height="125" fill="#D6963B" />
  <rect x="375" y="750" width="125" height="125" fill="#8A4E00" />
  <rect x="500" y="750" width="125" height="125" fill="#4C1C1F" />
  <rect x="625" y="750" width="125" height="125" fill="#A83F00" />
  <rect x="750" y="750" width="125" height="125" fill="#9A5D34" />
  <rect x="875" y="750" width="125" height="125" fill="#A57E57" />
  <rect x="1000" y="750" width="125" height="125" fill="#F2BF5C" />
  <rect x="1125" y="750" width="125" height="125" fill="#3D2948" />
  <rect x="250" y="875" width="125" height="125" fill="#B94D00" />
  <rect x="375" y="875" width="125" height="125" fill="#C2C13F" />
  <rect x="500" y="875" width="125" height="125" fill="#7D3C00" />
  <rect x="625" y="875" width="125" height="125" fill="#6D4D44" />
  <rect x="750" y="875" width="125" height="125" fill="#A6A68C" />
  <rect x="875" y="875" width="125" height="125" fill="#FFA300" />
  <rect x="1000" y="875" width="125" height="125" fill="#1F0B0C" />
  <rect x="1125" y="875" width="125" height="125" fill="#665B3C" />
  <rect x="250" y="1000" width="125" height="125" fill="#4A1B2A" />
  <rect x="375" y="1000" width="125" height="125" fill="#D6A256" />
  <rect x="500" y="1000" width="125" height="125" fill="#8B6F1D" />
  <rect x="625" y="1000" width="125" height="125" fill="#F2A400" />
  <rect x="750" y="1000" width="125" height="125" fill="#3B1F13" />
  <rect x="875" y="1000" width="125" height="125" fill="#1E5D00" />
  <rect x="1000" y="1000" width="125" height="125" fill="#C44D00" />
  <rect x="1125" y="1000" width="125" height="125" fill="#7F3D2D" />
  <rect x="250" y="1125" width="125" height="125" fill="#E6BDB2" />
  <rect x="375" y="1125" width="125" height="125" fill="#DB5D00" />
  <rect x="500" y="1125" width="125" height="125" fill="#5A3520" />
  <rect x="625" y="1125" width="125" height="125" fill="#9F8554" />
  <rect x="750" y="1125" width="125" height="125" fill="#A69783" />
  <rect x="875" y="1125" width="125" height="125" fill="#C18954" />
  <rect x="1000" y="1125" width="125" height="125" fill="#474A4B" />
  <rect x="1125" y="1125" width="125" height="125" fill="#3E3232" />
  <rect x="250" y="250" width="1000" height="1000" fill="none" stroke="#151515" stroke-opacity="0.16" stroke-width="2" />
</svg>
