<svg xmlns="http://www.w3.org/2000/svg" width="1500" height="1500" viewBox="0 0 1500 1500" shape-rendering="crispEdges" role="img" aria-labelledby="title desc">
  <title id="title">Echoes of Emotion in Brown frame</title>
  <desc id="desc">Square Project artwork previewed in a brown frame.</desc>
  <rect x="0" y="0" width="1500" height="1500" fill="#FFFFFF" />
  <image href="https://mysquareart.com/frames/brown.jpg" x="0" y="0" width="1500" height="1500" preserveAspectRatio="xMidYMid meet" />
  <rect x="250" y="250" width="1000" height="1000" fill="#FFFFFF" />
  <rect x="250" y="250" width="125" height="125" fill="#000000" />
  <rect x="375" y="250" width="125" height="125" fill="#2C2C54" />
  <rect x="500" y="250" width="125" height="125" fill="#1A1A2E" />
  <rect x="625" y="250" width="125" height="125" fill="#333C83" />
  <rect x="750" y="250" width="125" height="125" fill="#79A3B1" />
  <rect x="875" y="250" width="125" height="125" fill="#B9D3C2" />
  <rect x="1000" y="250" width="125" height="125" fill="#F0E6D2" />
  <rect x="1125" y="250" width="125" height="125" fill="#F4D03F" />
  <rect x="250" y="375" width="125" height="125" fill="#000000" />
  <rect x="375" y="375" width="125" height="125" fill="#2C2C54" />
  <rect x="500" y="375" width="125" height="125" fill="#1A1A2E" />
  <rect x="625" y="375" width="125" height="125" fill="#3B3B58" />
  <rect x="750" y="375" width="125" height="125" fill="#92C7C9" />
  <rect x="875" y="375" width="125" height="125" fill="#B9D3C2" />
  <rect x="1000" y="375" width="125" height="125" fill="#F0E6D2" />
  <rect x="1125" y="375" width="125" height="125" fill="#F4D03F" />
  <rect x="250" y="500" width="125" height="125" fill="#2C2C54" />
  <rect x="375" y="500" width="125" height="125" fill="#2E4A7C" />
  <rect x="500" y="500" width="125" height="125" fill="#3F7A9A" />
  <rect x="625" y="500" width="125" height="125" fill="#F5D97E" />
  <rect x="750" y="500" width="125" height="125" fill="#B9D3C2" />
  <rect x="875" y="500" width="125" height="125" fill="#F0E6D2" />
  <rect x="1000" y="500" width="125" height="125" fill="#F4D03F" />
  <rect x="1125" y="500" width="125" height="125" fill="#F5C9C0" />
  <rect x="250" y="625" width="125" height="125" fill="#000000" />
  <rect x="375" y="625" width="125" height="125" fill="#4C4F9A" />
  <rect x="500" y="625" width="125" height="125" fill="#2A2C30" />
  <rect x="625" y="625" width="125" height="125" fill="#4B4A5D" />
  <rect x="750" y="625" width="125" height="125" fill="#9CDBD4" />
  <rect x="875" y="625" width="125" height="125" fill="#D6E2D3" />
  <rect x="1000" y="625" width="125" height="125" fill="#F1D5B8" />
  <rect x="1125" y="625" width="125" height="125" fill="#F4D03F" />
  <rect x="250" y="750" width="125" height="125" fill="#000000" />
  <rect x="375" y="750" width="125" height="125" fill="#2C2C54" />
  <rect x="500" y="750" width="125" height="125" fill="#3B3B58" />
  <rect x="625" y="750" width="125" height="125" fill="#444A5D" />
  <rect x="750" y="750" width="125" height="125" fill="#A8D8E9" />
  <rect x="875" y="750" width="125" height="125" fill="#D6E2D3" />
  <rect x="1000" y="750" width="125" height="125" fill="#F1D5B8" />
  <rect x="1125" y="750" width="125" height="125" fill="#F4D03F" />
  <rect x="250" y="875" width="125" height="125" fill="#1A1A2E" />
  <rect x="375" y="875" width="125" height="125" fill="#4D4A9C" />
  <rect x="500" y="875" width="125" height="125" fill="#4D2B5D" />
  <rect x="625" y="875" width="125" height="125" fill="#C8F0E0" />
  <rect x="750" y="875" width="125" height="125" fill="#79B4E2" />
  <rect x="875" y="875" width="125" height="125" fill="#E0D4A9" />
  <rect x="1000" y="875" width="125" height="125" fill="#F4C446" />
  <rect x="1125" y="875" width="125" height="125" fill="#F1F3F2" />
  <rect x="250" y="1000" width="125" height="125" fill="#2A2C30" />
  <rect x="375" y="1000" width="125" height="125" fill="#4B4D68" />
  <rect x="500" y="1000" width="125" height="125" fill="#3A4E52" />
  <rect x="625" y="1000" width="125" height="125" fill="#D4C24B" />
  <rect x="750" y="1000" width="125" height="125" fill="#7BC235" />
  <rect x="875" y="1000" width="125" height="125" fill="#D5C3D7" />
  <rect x="1000" y="1000" width="125" height="125" fill="#F1F1D3" />
  <rect x="1125" y="1000" width="125" height="125" fill="#F4C84C" />
  <rect x="250" y="1125" width="125" height="125" fill="#000000" />
  <rect x="375" y="1125" width="125" height="125" fill="#4C4D9A" />
  <rect x="500" y="1125" width="125" height="125" fill="#3F3F5C" />
  <rect x="625" y="1125" width="125" height="125" fill="#F4AB4B" />
  <rect x="750" y="1125" width="125" height="125" fill="#8EDD7E" />
  <rect x="875" y="1125" width="125" height="125" fill="#E09187" />
  <rect x="1000" y="1125" width="125" height="125" fill="#F4D03F" />
  <rect x="1125" y="1125" width="125" height="125" fill="#F1F1F1" />
  <rect x="250" y="250" width="1000" height="1000" fill="none" stroke="#151515" stroke-opacity="0.16" stroke-width="2" />
</svg>
