<svg xmlns="http://www.w3.org/2000/svg" width="1500" height="1500" viewBox="0 0 1500 1500" shape-rendering="crispEdges" role="img" aria-labelledby="title desc">
  <title id="title">Inward Echo in White frame</title>
  <desc id="desc">Square Project artwork previewed in a white frame.</desc>
  <defs>
    <linearGradient id="frameFace" x1="0" y1="0" x2="1" y2="1">
      <stop offset="0" stop-color="#BEBEB8" />
      <stop offset="0.32" stop-color="#FFFFFF" />
      <stop offset="0.68" stop-color="#F8F8F5" />
      <stop offset="1" stop-color="#D5D5CF" />
    </linearGradient>
    <filter id="artShadow" x="-10%" y="-10%" width="120%" height="120%">
      <feDropShadow dx="0" dy="20" stdDeviation="24" flood-color="#000000" flood-opacity="0.24" />
    </filter>
  </defs>
  <rect x="0" y="0" width="1500" height="1500" fill="#FFFFFF" />
  <rect x="0" y="0" width="1500" height="1500" fill="url(#frameFace)" />
  <rect x="120" y="120" width="1260" height="1260" fill="#F8F7F3" />
  <rect x="120" y="120" width="1260" height="1260" fill="none" stroke="#000000" stroke-opacity="0.14" stroke-width="10" />
  <rect x="250" y="250" width="1000" height="1000" fill="#FFFFFF" filter="url(#artShadow)" />
  <rect x="250" y="250" width="125" height="125" fill="#4B3C2A" />
  <rect x="375" y="250" width="125" height="125" fill="#7B6A5E" />
  <rect x="500" y="250" width="125" height="125" fill="#EAD2A2" />
  <rect x="625" y="250" width="125" height="125" fill="#F9E2C6" />
  <rect x="750" y="250" width="125" height="125" fill="#4B3C2A" />
  <rect x="875" y="250" width="125" height="125" fill="#5E5B4D" />
  <rect x="1000" y="250" width="125" height="125" fill="#7E7C66" />
  <rect x="1125" y="250" width="125" height="125" fill="#2E2B28" />
  <rect x="250" y="375" width="125" height="125" fill="#C0B19C" />
  <rect x="375" y="375" width="125" height="125" fill="#D4C3A8" />
  <rect x="500" y="375" width="125" height="125" fill="#4F4F4D" />
  <rect x="625" y="375" width="125" height="125" fill="#A57C7A" />
  <rect x="750" y="375" width="125" height="125" fill="#B79973" />
  <rect x="875" y="375" width="125" height="125" fill="#D1D1C6" />
  <rect x="1000" y="375" width="125" height="125" fill="#7E6C56" />
  <rect x="1125" y="375" width="125" height="125" fill="#3B3F33" />
  <rect x="250" y="500" width="125" height="125" fill="#F7C6A6" />
  <rect x="375" y="500" width="125" height="125" fill="#C1A871" />
  <rect x="500" y="500" width="125" height="125" fill="#AA8C59" />
  <rect x="625" y="500" width="125" height="125" fill="#71736B" />
  <rect x="750" y="500" width="125" height="125" fill="#B88466" />
  <rect x="875" y="500" width="125" height="125" fill="#E2C3B5" />
  <rect x="1000" y="500" width="125" height="125" fill="#A88E78" />
  <rect x="1125" y="500" width="125" height="125" fill="#4C5437" />
  <rect x="250" y="625" width="125" height="125" fill="#B3AA91" />
  <rect x="375" y="625" width="125" height="125" fill="#8D846E" />
  <rect x="500" y="625" width="125" height="125" fill="#4A4C43" />
  <rect x="625" y="625" width="125" height="125" fill="#BDC0B0" />
  <rect x="750" y="625" width="125" height="125" fill="#F7D4C4" />
  <rect x="875" y="625" width="125" height="125" fill="#9A927C" />
  <rect x="1000" y="625" width="125" height="125" fill="#5F6A5D" />
  <rect x="1125" y="625" width="125" height="125" fill="#3F3F40" />
  <rect x="250" y="750" width="125" height="125" fill="#F2F2E8" />
  <rect x="375" y="750" width="125" height="125" fill="#C1B8A5" />
  <rect x="500" y="750" width="125" height="125" fill="#6B4B3C" />
  <rect x="625" y="750" width="125" height="125" fill="#8F7E63" />
  <rect x="750" y="750" width="125" height="125" fill="#C6BA9C" />
  <rect x="875" y="750" width="125" height="125" fill="#D0C4A0" />
  <rect x="1000" y="750" width="125" height="125" fill="#E6E8DA" />
  <rect x="1125" y="750" width="125" height="125" fill="#5E4D4A" />
  <rect x="250" y="875" width="125" height="125" fill="#A89F90" />
  <rect x="375" y="875" width="125" height="125" fill="#B8B1B5" />
  <rect x="500" y="875" width="125" height="125" fill="#6E7576" />
  <rect x="625" y="875" width="125" height="125" fill="#F1E5D5" />
  <rect x="750" y="875" width="125" height="125" fill="#B8B8A2" />
  <rect x="875" y="875" width="125" height="125" fill="#A8A3A1" />
  <rect x="1000" y="875" width="125" height="125" fill="#8F7C55" />
  <rect x="1125" y="875" width="125" height="125" fill="#4A4A44" />
  <rect x="250" y="1000" width="125" height="125" fill="#8A7C6C" />
  <rect x="375" y="1000" width="125" height="125" fill="#C4B6A0" />
  <rect x="500" y="1000" width="125" height="125" fill="#9C8C7F" />
  <rect x="625" y="1000" width="125" height="125" fill="#E7D9CE" />
  <rect x="750" y="1000" width="125" height="125" fill="#E59575" />
  <rect x="875" y="1000" width="125" height="125" fill="#4D4E3D" />
  <rect x="1000" y="1000" width="125" height="125" fill="#5A564E" />
  <rect x="1125" y="1000" width="125" height="125" fill="#2B2D28" />
  <rect x="250" y="1125" width="125" height="125" fill="#BDF0E4" />
  <rect x="375" y="1125" width="125" height="125" fill="#CCBEBE" />
  <rect x="500" y="1125" width="125" height="125" fill="#D0C7BE" />
  <rect x="625" y="1125" width="125" height="125" fill="#FFFFE4" />
  <rect x="750" y="1125" width="125" height="125" fill="#9B9A8A" />
  <rect x="875" y="1125" width="125" height="125" fill="#7F755A" />
  <rect x="1000" y="1125" width="125" height="125" fill="#3D3D34" />
  <rect x="1125" y="1125" width="125" height="125" fill="#0D0D0D" />
  <rect x="250" y="250" width="1000" height="1000" fill="none" stroke="#151515" stroke-opacity="0.16" stroke-width="2" />
</svg>
