<svg xmlns="http://www.w3.org/2000/svg" width="1500" height="1500" viewBox="0 0 1500 1500" shape-rendering="crispEdges" role="img" aria-labelledby="title desc">
  <title id="title">Tension of Echoes in Gold frame</title>
  <desc id="desc">Square Project artwork previewed in a gold frame.</desc>
  <rect x="0" y="0" width="1500" height="1500" fill="#FFFFFF" />
  <image href="https://mysquareart.com/frames/gold.jpg" x="0" y="0" width="1500" height="1500" preserveAspectRatio="xMidYMid meet" />
  <rect x="250" y="250" width="1000" height="1000" fill="#FFFFFF" />
  <rect x="250" y="250" width="125" height="125" fill="#A0D65D" />
  <rect x="375" y="250" width="125" height="125" fill="#A1E9AB" />
  <rect x="500" y="250" width="125" height="125" fill="#FFD54F" />
  <rect x="625" y="250" width="125" height="125" fill="#C3D774" />
  <rect x="750" y="250" width="125" height="125" fill="#B7C68A" />
  <rect x="875" y="250" width="125" height="125" fill="#A0D65D" />
  <rect x="1000" y="250" width="125" height="125" fill="#C5E6A6" />
  <rect x="1125" y="250" width="125" height="125" fill="#FFF3B0" />
  <rect x="250" y="375" width="125" height="125" fill="#F7E7B3" />
  <rect x="375" y="375" width="125" height="125" fill="#F1D3C2" />
  <rect x="500" y="375" width="125" height="125" fill="#817B5A" />
  <rect x="625" y="375" width="125" height="125" fill="#A7B12E" />
  <rect x="750" y="375" width="125" height="125" fill="#A0D65D" />
  <rect x="875" y="375" width="125" height="125" fill="#F3EAC2" />
  <rect x="1000" y="375" width="125" height="125" fill="#F7D8A3" />
  <rect x="1125" y="375" width="125" height="125" fill="#A9B182" />
  <rect x="250" y="500" width="125" height="125" fill="#C1B49A" />
  <rect x="375" y="500" width="125" height="125" fill="#B4C045" />
  <rect x="500" y="500" width="125" height="125" fill="#F1E3C0" />
  <rect x="625" y="500" width="125" height="125" fill="#B6D99E" />
  <rect x="750" y="500" width="125" height="125" fill="#859D68" />
  <rect x="875" y="500" width="125" height="125" fill="#97805D" />
  <rect x="1000" y="500" width="125" height="125" fill="#F8F1D8" />
  <rect x="1125" y="500" width="125" height="125" fill="#C8E3B6" />
  <rect x="250" y="625" width="125" height="125" fill="#D2DCA7" />
  <rect x="375" y="625" width="125" height="125" fill="#859F56" />
  <rect x="500" y="625" width="125" height="125" fill="#6D9F2E" />
  <rect x="625" y="625" width="125" height="125" fill="#618740" />
  <rect x="750" y="625" width="125" height="125" fill="#F8E0B5" />
  <rect x="875" y="625" width="125" height="125" fill="#F7C65A" />
  <rect x="1000" y="625" width="125" height="125" fill="#961B00" />
  <rect x="1125" y="625" width="125" height="125" fill="#A6B18D" />
  <rect x="250" y="750" width="125" height="125" fill="#B6C73E" />
  <rect x="375" y="750" width="125" height="125" fill="#9DAC3C" />
  <rect x="500" y="750" width="125" height="125" fill="#F1EC7F" />
  <rect x="625" y="750" width="125" height="125" fill="#E1BB25" />
  <rect x="750" y="750" width="125" height="125" fill="#816B2D" />
  <rect x="875" y="750" width="125" height="125" fill="#D7B05D" />
  <rect x="1000" y="750" width="125" height="125" fill="#A6CC6F" />
  <rect x="1125" y="750" width="125" height="125" fill="#C6E5AF" />
  <rect x="250" y="875" width="125" height="125" fill="#E4D3A5" />
  <rect x="375" y="875" width="125" height="125" fill="#7DA1B1" />
  <rect x="500" y="875" width="125" height="125" fill="#BAE7A9" />
  <rect x="625" y="875" width="125" height="125" fill="#A1CB7D" />
  <rect x="750" y="875" width="125" height="125" fill="#859D68" />
  <rect x="875" y="875" width="125" height="125" fill="#E1E7B5" />
  <rect x="1000" y="875" width="125" height="125" fill="#F4E6A8" />
  <rect x="1125" y="875" width="125" height="125" fill="#DFB857" />
  <rect x="250" y="1000" width="125" height="125" fill="#B8D296" />
  <rect x="375" y="1000" width="125" height="125" fill="#A9C736" />
  <rect x="500" y="1000" width="125" height="125" fill="#E3A567" />
  <rect x="625" y="1000" width="125" height="125" fill="#F4E0B5" />
  <rect x="750" y="1000" width="125" height="125" fill="#8E9F68" />
  <rect x="875" y="1000" width="125" height="125" fill="#ACD1AB" />
  <rect x="1000" y="1000" width="125" height="125" fill="#F4DBA9" />
  <rect x="1125" y="1000" width="125" height="125" fill="#C9D8AD" />
  <rect x="250" y="1125" width="125" height="125" fill="#E1D1BC" />
  <rect x="375" y="1125" width="125" height="125" fill="#D2E9A1" />
  <rect x="500" y="1125" width="125" height="125" fill="#C2C4B1" />
  <rect x="625" y="1125" width="125" height="125" fill="#8A9E22" />
  <rect x="750" y="1125" width="125" height="125" fill="#F8F5D3" />
  <rect x="875" y="1125" width="125" height="125" fill="#555D25" />
  <rect x="1000" y="1125" width="125" height="125" fill="#F4C455" />
  <rect x="1125" y="1125" width="125" height="125" fill="#B6BAA1" />
  <rect x="250" y="250" width="1000" height="1000" fill="none" stroke="#151515" stroke-opacity="0.16" stroke-width="2" />
</svg>
