<svg xmlns="http://www.w3.org/2000/svg" width="1500" height="1500" viewBox="0 0 1500 1500" shape-rendering="crispEdges" role="img" aria-labelledby="title desc">
  <title id="title">Tidal Imbalance in Natural frame</title>
  <desc id="desc">Square Project artwork previewed in a natural frame.</desc>
  <rect x="0" y="0" width="1500" height="1500" fill="#FFFFFF" />
  <image href="https://mysquareart.com/frames/natural.jpg" x="0" y="0" width="1500" height="1500" preserveAspectRatio="xMidYMid meet" />
  <rect x="250" y="250" width="1000" height="1000" fill="#FFFFFF" />
  <rect x="250" y="250" width="125" height="125" fill="#F3E36B" />
  <rect x="375" y="250" width="125" height="125" fill="#F9AF40" />
  <rect x="500" y="250" width="125" height="125" fill="#F4D668" />
  <rect x="625" y="250" width="125" height="125" fill="#F1E3AD" />
  <rect x="750" y="250" width="125" height="125" fill="#B8C1D9" />
  <rect x="875" y="250" width="125" height="125" fill="#73638E" />
  <rect x="1000" y="250" width="125" height="125" fill="#4F3555" />
  <rect x="1125" y="250" width="125" height="125" fill="#211C27" />
  <rect x="250" y="375" width="125" height="125" fill="#F9E07B" />
  <rect x="375" y="375" width="125" height="125" fill="#F3B732" />
  <rect x="500" y="375" width="125" height="125" fill="#F5A520" />
  <rect x="625" y="375" width="125" height="125" fill="#E5AC8E" />
  <rect x="750" y="375" width="125" height="125" fill="#B2BAC4" />
  <rect x="875" y="375" width="125" height="125" fill="#5C4A8F" />
  <rect x="1000" y="375" width="125" height="125" fill="#383963" />
  <rect x="1125" y="375" width="125" height="125" fill="#141C29" />
  <rect x="250" y="500" width="125" height="125" fill="#FFFFFF" />
  <rect x="375" y="500" width="125" height="125" fill="#F1EFAB" />
  <rect x="500" y="500" width="125" height="125" fill="#E2CB54" />
  <rect x="625" y="500" width="125" height="125" fill="#9EA2A9" />
  <rect x="750" y="500" width="125" height="125" fill="#647A99" />
  <rect x="875" y="500" width="125" height="125" fill="#4F4A6F" />
  <rect x="1000" y="500" width="125" height="125" fill="#2E2637" />
  <rect x="1125" y="500" width="125" height="125" fill="#0A0B0D" />
  <rect x="250" y="625" width="125" height="125" fill="#FAFBD6" />
  <rect x="375" y="625" width="125" height="125" fill="#F5C222" />
  <rect x="500" y="625" width="125" height="125" fill="#F0A022" />
  <rect x="625" y="625" width="125" height="125" fill="#E69358" />
  <rect x="750" y="625" width="125" height="125" fill="#6B8BB1" />
  <rect x="875" y="625" width="125" height="125" fill="#3A3D52" />
  <rect x="1000" y="625" width="125" height="125" fill="#262425" />
  <rect x="1125" y="625" width="125" height="125" fill="#101315" />
  <rect x="250" y="750" width="125" height="125" fill="#FCF9F0" />
  <rect x="375" y="750" width="125" height="125" fill="#F7E8C3" />
  <rect x="500" y="750" width="125" height="125" fill="#E6D7A5" />
  <rect x="625" y="750" width="125" height="125" fill="#99999B" />
  <rect x="750" y="750" width="125" height="125" fill="#4D5A78" />
  <rect x="875" y="750" width="125" height="125" fill="#362739" />
  <rect x="1000" y="750" width="125" height="125" fill="#2B2A30" />
  <rect x="1125" y="750" width="125" height="125" fill="#141515" />
  <rect x="250" y="875" width="125" height="125" fill="#E0D49D" />
  <rect x="375" y="875" width="125" height="125" fill="#F9CA89" />
  <rect x="500" y="875" width="125" height="125" fill="#FBC56D" />
  <rect x="625" y="875" width="125" height="125" fill="#E4B844" />
  <rect x="750" y="875" width="125" height="125" fill="#868AE2" />
  <rect x="875" y="875" width="125" height="125" fill="#60606A" />
  <rect x="1000" y="875" width="125" height="125" fill="#333831" />
  <rect x="1125" y="875" width="125" height="125" fill="#000000" />
  <rect x="250" y="1000" width="125" height="125" fill="#D6D3C0" />
  <rect x="375" y="1000" width="125" height="125" fill="#F5FFBB" />
  <rect x="500" y="1000" width="125" height="125" fill="#D1B86F" />
  <rect x="625" y="1000" width="125" height="125" fill="#998579" />
  <rect x="750" y="1000" width="125" height="125" fill="#4D4E56" />
  <rect x="875" y="1000" width="125" height="125" fill="#5A4A52" />
  <rect x="1000" y="1000" width="125" height="125" fill="#3B2C32" />
  <rect x="1125" y="1000" width="125" height="125" fill="#1C1C1C" />
  <rect x="250" y="1125" width="125" height="125" fill="#E9FFC5" />
  <rect x="375" y="1125" width="125" height="125" fill="#F4DA8D" />
  <rect x="500" y="1125" width="125" height="125" fill="#FC9C41" />
  <rect x="625" y="1125" width="125" height="125" fill="#E48F60" />
  <rect x="750" y="1125" width="125" height="125" fill="#C2617A" />
  <rect x="875" y="1125" width="125" height="125" fill="#7F7467" />
  <rect x="1000" y="1125" width="125" height="125" fill="#4B3034" />
  <rect x="1125" y="1125" width="125" height="125" fill="#272727" />
  <rect x="250" y="250" width="1000" height="1000" fill="none" stroke="#151515" stroke-opacity="0.16" stroke-width="2" />
</svg>
