<svg xmlns="http://www.w3.org/2000/svg" width="1500" height="1500" viewBox="0 0 1500 1500" shape-rendering="crispEdges" role="img" aria-labelledby="title desc">
  <title id="title">Pressure Corner in White frame</title>
  <desc id="desc">Square Project artwork previewed in a white frame.</desc>
  <rect x="0" y="0" width="1500" height="1500" fill="#FFFFFF" />
  <image href="https://mysquareart.com/frames/white.jpg" x="0" y="0" width="1500" height="1500" preserveAspectRatio="xMidYMid meet" />
  <rect x="250" y="250" width="1000" height="1000" fill="#FFFFFF" />
  <rect x="250" y="250" width="125" height="125" fill="#F5F5F5" />
  <rect x="375" y="250" width="125" height="125" fill="#D1D1D1" />
  <rect x="500" y="250" width="125" height="125" fill="#B6B6B6" />
  <rect x="625" y="250" width="125" height="125" fill="#7A7A7A" />
  <rect x="750" y="250" width="125" height="125" fill="#4E4E4E" />
  <rect x="875" y="250" width="125" height="125" fill="#C7C7C7" />
  <rect x="1000" y="250" width="125" height="125" fill="#A2A2A2" />
  <rect x="1125" y="250" width="125" height="125" fill="#404040" />
  <rect x="250" y="375" width="125" height="125" fill="#FFFFFF" />
  <rect x="375" y="375" width="125" height="125" fill="#F0E4D7" />
  <rect x="500" y="375" width="125" height="125" fill="#DEDEDE" />
  <rect x="625" y="375" width="125" height="125" fill="#C5B4B0" />
  <rect x="750" y="375" width="125" height="125" fill="#935F63" />
  <rect x="875" y="375" width="125" height="125" fill="#2E2E2E" />
  <rect x="1000" y="375" width="125" height="125" fill="#3B3B3B" />
  <rect x="1125" y="375" width="125" height="125" fill="#1C1C1C" />
  <rect x="250" y="500" width="125" height="125" fill="#EAE5E2" />
  <rect x="375" y="500" width="125" height="125" fill="#F5F0EE" />
  <rect x="500" y="500" width="125" height="125" fill="#FF2A3C" />
  <rect x="625" y="500" width="125" height="125" fill="#4A586E" />
  <rect x="750" y="500" width="125" height="125" fill="#2B4A80" />
  <rect x="875" y="500" width="125" height="125" fill="#585C72" />
  <rect x="1000" y="500" width="125" height="125" fill="#7C7C7C" />
  <rect x="1125" y="500" width="125" height="125" fill="#141414" />
  <rect x="250" y="625" width="125" height="125" fill="#FAFFFB" />
  <rect x="375" y="625" width="125" height="125" fill="#C9B7A8" />
  <rect x="500" y="625" width="125" height="125" fill="#8A7F8D" />
  <rect x="625" y="625" width="125" height="125" fill="#590C14" />
  <rect x="750" y="625" width="125" height="125" fill="#111B2A" />
  <rect x="875" y="625" width="125" height="125" fill="#596D81" />
  <rect x="1000" y="625" width="125" height="125" fill="#898989" />
  <rect x="1125" y="625" width="125" height="125" fill="#CCCCCC" />
  <rect x="250" y="750" width="125" height="125" fill="#F7F0F3" />
  <rect x="375" y="750" width="125" height="125" fill="#E2E5EC" />
  <rect x="500" y="750" width="125" height="125" fill="#DAB2AA" />
  <rect x="625" y="750" width="125" height="125" fill="#570808" />
  <rect x="750" y="750" width="125" height="125" fill="#2F3B46" />
  <rect x="875" y="750" width="125" height="125" fill="#828282" />
  <rect x="1000" y="750" width="125" height="125" fill="#373737" />
  <rect x="1125" y="750" width="125" height="125" fill="#999999" />
  <rect x="250" y="875" width="125" height="125" fill="#F3F5FA" />
  <rect x="375" y="875" width="125" height="125" fill="#BDE9E9" />
  <rect x="500" y="875" width="125" height="125" fill="#8B0A14" />
  <rect x="625" y="875" width="125" height="125" fill="#4C6C87" />
  <rect x="750" y="875" width="125" height="125" fill="#4C7B6E" />
  <rect x="875" y="875" width="125" height="125" fill="#2E2E2E" />
  <rect x="1000" y="875" width="125" height="125" fill="#E0E0E0" />
  <rect x="1125" y="875" width="125" height="125" fill="#F2F5F0" />
  <rect x="250" y="1000" width="125" height="125" fill="#E3E7EB" />
  <rect x="375" y="1000" width="125" height="125" fill="#D0B5AD" />
  <rect x="500" y="1000" width="125" height="125" fill="#E5A6A6" />
  <rect x="625" y="1000" width="125" height="125" fill="#B00E0E" />
  <rect x="750" y="1000" width="125" height="125" fill="#57575B" />
  <rect x="875" y="1000" width="125" height="125" fill="#282828" />
  <rect x="1000" y="1000" width="125" height="125" fill="#3E3E3E" />
  <rect x="1125" y="1000" width="125" height="125" fill="#737373" />
  <rect x="250" y="1125" width="125" height="125" fill="#DBDBDB" />
  <rect x="375" y="1125" width="125" height="125" fill="#E4E7E6" />
  <rect x="500" y="1125" width="125" height="125" fill="#F34848" />
  <rect x="625" y="1125" width="125" height="125" fill="#2F2F2F" />
  <rect x="750" y="1125" width="125" height="125" fill="#646464" />
  <rect x="875" y="1125" width="125" height="125" fill="#7A8B8A" />
  <rect x="1000" y="1125" width="125" height="125" fill="#9A9A9A" />
  <rect x="1125" y="1125" width="125" height="125" fill="#111111" />
  <rect x="250" y="250" width="1000" height="1000" fill="none" stroke="#151515" stroke-opacity="0.16" stroke-width="2" />
</svg>
