<svg xmlns="http://www.w3.org/2000/svg" width="1500" height="1500" viewBox="0 0 1500 1500" shape-rendering="crispEdges" role="img" aria-labelledby="title desc">
  <title id="title">Echoes of Uncertainty in Natural frame</title>
  <desc id="desc">Square Project artwork previewed in a natural frame.</desc>
  <rect x="0" y="0" width="1500" height="1500" fill="#FFFFFF" />
  <image href="https://mysquareart.com/frames/natural.jpg" x="0" y="0" width="1500" height="1500" preserveAspectRatio="xMidYMid meet" />
  <rect x="250" y="250" width="1000" height="1000" fill="#FFFFFF" />
  <rect x="250" y="250" width="125" height="125" fill="#000000" />
  <rect x="375" y="250" width="125" height="125" fill="#1B2E3B" />
  <rect x="500" y="250" width="125" height="125" fill="#4D757C" />
  <rect x="625" y="250" width="125" height="125" fill="#5BBD60" />
  <rect x="750" y="250" width="125" height="125" fill="#2C3A3B" />
  <rect x="875" y="250" width="125" height="125" fill="#F5C971" />
  <rect x="1000" y="250" width="125" height="125" fill="#8E1F3F" />
  <rect x="1125" y="250" width="125" height="125" fill="#4AAE82" />
  <rect x="250" y="375" width="125" height="125" fill="#2E2E2E" />
  <rect x="375" y="375" width="125" height="125" fill="#1B2E40" />
  <rect x="500" y="375" width="125" height="125" fill="#A0D4DC" />
  <rect x="625" y="375" width="125" height="125" fill="#47D65D" />
  <rect x="750" y="375" width="125" height="125" fill="#8D8271" />
  <rect x="875" y="375" width="125" height="125" fill="#FCFDC4" />
  <rect x="1000" y="375" width="125" height="125" fill="#8B5C9A" />
  <rect x="1125" y="375" width="125" height="125" fill="#4CB5A5" />
  <rect x="250" y="500" width="125" height="125" fill="#121212" />
  <rect x="375" y="500" width="125" height="125" fill="#2E4777" />
  <rect x="500" y="500" width="125" height="125" fill="#B4DFE5" />
  <rect x="625" y="500" width="125" height="125" fill="#1D4232" />
  <rect x="750" y="500" width="125" height="125" fill="#B2D061" />
  <rect x="875" y="500" width="125" height="125" fill="#3B373D" />
  <rect x="1000" y="500" width="125" height="125" fill="#6F1326" />
  <rect x="1125" y="500" width="125" height="125" fill="#DDC581" />
  <rect x="250" y="625" width="125" height="125" fill="#000000" />
  <rect x="375" y="625" width="125" height="125" fill="#4A4E51" />
  <rect x="500" y="625" width="125" height="125" fill="#6FA7A1" />
  <rect x="625" y="625" width="125" height="125" fill="#85C8A6" />
  <rect x="750" y="625" width="125" height="125" fill="#2C2F49" />
  <rect x="875" y="625" width="125" height="125" fill="#F4E4CD" />
  <rect x="1000" y="625" width="125" height="125" fill="#8C4B8D" />
  <rect x="1125" y="625" width="125" height="125" fill="#5C7F6A" />
  <rect x="250" y="750" width="125" height="125" fill="#2C2C2C" />
  <rect x="375" y="750" width="125" height="125" fill="#3A6A86" />
  <rect x="500" y="750" width="125" height="125" fill="#539C92" />
  <rect x="625" y="750" width="125" height="125" fill="#A7D8A2" />
  <rect x="750" y="750" width="125" height="125" fill="#BF3E6A" />
  <rect x="875" y="750" width="125" height="125" fill="#D9C9A7" />
  <rect x="1000" y="750" width="125" height="125" fill="#8E1F21" />
  <rect x="1125" y="750" width="125" height="125" fill="#3B9B70" />
  <rect x="250" y="875" width="125" height="125" fill="#1C1C1C" />
  <rect x="375" y="875" width="125" height="125" fill="#3A9B9E" />
  <rect x="500" y="875" width="125" height="125" fill="#5BEFA5" />
  <rect x="625" y="875" width="125" height="125" fill="#9CBF84" />
  <rect x="750" y="875" width="125" height="125" fill="#3D3227" />
  <rect x="875" y="875" width="125" height="125" fill="#E65B58" />
  <rect x="1000" y="875" width="125" height="125" fill="#FAE6C7" />
  <rect x="1125" y="875" width="125" height="125" fill="#8C6D73" />
  <rect x="250" y="1000" width="125" height="125" fill="#181818" />
  <rect x="375" y="1000" width="125" height="125" fill="#555555" />
  <rect x="500" y="1000" width="125" height="125" fill="#7A9B92" />
  <rect x="625" y="1000" width="125" height="125" fill="#A5DBA6" />
  <rect x="750" y="1000" width="125" height="125" fill="#EB0000" />
  <rect x="875" y="1000" width="125" height="125" fill="#E8D3B0" />
  <rect x="1000" y="1000" width="125" height="125" fill="#2E5E55" />
  <rect x="1125" y="1000" width="125" height="125" fill="#6F8FB4" />
  <rect x="250" y="1125" width="125" height="125" fill="#000000" />
  <rect x="375" y="1125" width="125" height="125" fill="#0C1F27" />
  <rect x="500" y="1125" width="125" height="125" fill="#295446" />
  <rect x="625" y="1125" width="125" height="125" fill="#79B71D" />
  <rect x="750" y="1125" width="125" height="125" fill="#A8C6A1" />
  <rect x="875" y="1125" width="125" height="125" fill="#C2D7E8" />
  <rect x="1000" y="1125" width="125" height="125" fill="#4E2A25" />
  <rect x="1125" y="1125" width="125" height="125" fill="#5A8E71" />
  <rect x="250" y="250" width="1000" height="1000" fill="none" stroke="#151515" stroke-opacity="0.16" stroke-width="2" />
</svg>
