<svg xmlns="http://www.w3.org/2000/svg" width="1500" height="1500" viewBox="0 0 1500 1500" shape-rendering="crispEdges" role="img" aria-labelledby="title desc">
  <title id="title">Resilient Fracture in Black frame</title>
  <desc id="desc">Square Project artwork previewed in a black frame.</desc>
  <defs>
    <linearGradient id="frameFace" x1="0" y1="0" x2="1" y2="1">
      <stop offset="0" stop-color="#6A6A6A" />
      <stop offset="0.32" stop-color="#343434" />
      <stop offset="0.68" stop-color="#111111" />
      <stop offset="1" stop-color="#050505" />
    </linearGradient>
    <filter id="artShadow" x="-10%" y="-10%" width="120%" height="120%">
      <feDropShadow dx="0" dy="20" stdDeviation="24" flood-color="#000000" flood-opacity="0.24" />
    </filter>
  </defs>
  <rect x="0" y="0" width="1500" height="1500" fill="#FFFFFF" />
  <rect x="0" y="0" width="1500" height="1500" fill="url(#frameFace)" />
  <rect x="120" y="120" width="1260" height="1260" fill="#F8F7F3" />
  <rect x="120" y="120" width="1260" height="1260" fill="none" stroke="#000000" stroke-opacity="0.14" stroke-width="10" />
  <rect x="250" y="250" width="1000" height="1000" fill="#FFFFFF" filter="url(#artShadow)" />
  <rect x="250" y="250" width="125" height="125" fill="#4CAF50" />
  <rect x="375" y="250" width="125" height="125" fill="#8BC34A" />
  <rect x="500" y="250" width="125" height="125" fill="#D0E3D1" />
  <rect x="625" y="250" width="125" height="125" fill="#FFEB3B" />
  <rect x="750" y="250" width="125" height="125" fill="#AEEA00" />
  <rect x="875" y="250" width="125" height="125" fill="#FF7043" />
  <rect x="1000" y="250" width="125" height="125" fill="#FFC107" />
  <rect x="1125" y="250" width="125" height="125" fill="#B2FF59" />
  <rect x="250" y="375" width="125" height="125" fill="#FFEB3B" />
  <rect x="375" y="375" width="125" height="125" fill="#379A38" />
  <rect x="500" y="375" width="125" height="125" fill="#C5E1A5" />
  <rect x="625" y="375" width="125" height="125" fill="#FF6F00" />
  <rect x="750" y="375" width="125" height="125" fill="#FFF59D" />
  <rect x="875" y="375" width="125" height="125" fill="#B08B00" />
  <rect x="1000" y="375" width="125" height="125" fill="#A6B58D" />
  <rect x="1125" y="375" width="125" height="125" fill="#E8F5E9" />
  <rect x="250" y="500" width="125" height="125" fill="#B2FF59" />
  <rect x="375" y="500" width="125" height="125" fill="#C6FF00" />
  <rect x="500" y="500" width="125" height="125" fill="#AEEA00" />
  <rect x="625" y="500" width="125" height="125" fill="#D2E6DC" />
  <rect x="750" y="500" width="125" height="125" fill="#DCEDC8" />
  <rect x="875" y="500" width="125" height="125" fill="#B2C7A3" />
  <rect x="1000" y="500" width="125" height="125" fill="#8FBC8B" />
  <rect x="1125" y="500" width="125" height="125" fill="#388E3C" />
  <rect x="250" y="625" width="125" height="125" fill="#FFD740" />
  <rect x="375" y="625" width="125" height="125" fill="#FFAB40" />
  <rect x="500" y="625" width="125" height="125" fill="#D0E3D1" />
  <rect x="625" y="625" width="125" height="125" fill="#FFA000" />
  <rect x="750" y="625" width="125" height="125" fill="#FF6F00" />
  <rect x="875" y="625" width="125" height="125" fill="#FF5252" />
  <rect x="1000" y="625" width="125" height="125" fill="#FFAB40" />
  <rect x="1125" y="625" width="125" height="125" fill="#FFC107" />
  <rect x="250" y="750" width="125" height="125" fill="#D0E3D1" />
  <rect x="375" y="750" width="125" height="125" fill="#4CAF50" />
  <rect x="500" y="750" width="125" height="125" fill="#FFEA00" />
  <rect x="625" y="750" width="125" height="125" fill="#B2FF59" />
  <rect x="750" y="750" width="125" height="125" fill="#E1F5FE" />
  <rect x="875" y="750" width="125" height="125" fill="#FFCC80" />
  <rect x="1000" y="750" width="125" height="125" fill="#C5E1A5" />
  <rect x="1125" y="750" width="125" height="125" fill="#757575" />
  <rect x="250" y="875" width="125" height="125" fill="#D2D2D2" />
  <rect x="375" y="875" width="125" height="125" fill="#A5D6A7" />
  <rect x="500" y="875" width="125" height="125" fill="#F57F17" />
  <rect x="625" y="875" width="125" height="125" fill="#FFA000" />
  <rect x="750" y="875" width="125" height="125" fill="#FF7043" />
  <rect x="875" y="875" width="125" height="125" fill="#FFAB40" />
  <rect x="1000" y="875" width="125" height="125" fill="#D0E3D1" />
  <rect x="1125" y="875" width="125" height="125" fill="#607D8B" />
  <rect x="250" y="1000" width="125" height="125" fill="#AEEA00" />
  <rect x="375" y="1000" width="125" height="125" fill="#8BC34A" />
  <rect x="500" y="1000" width="125" height="125" fill="#FF5252" />
  <rect x="625" y="1000" width="125" height="125" fill="#FFC107" />
  <rect x="750" y="1000" width="125" height="125" fill="#D4E157" />
  <rect x="875" y="1000" width="125" height="125" fill="#FFEB3B" />
  <rect x="1000" y="1000" width="125" height="125" fill="#C5E1A5" />
  <rect x="1125" y="1000" width="125" height="125" fill="#80C5EA" />
  <rect x="250" y="1125" width="125" height="125" fill="#C4DDDC" />
  <rect x="375" y="1125" width="125" height="125" fill="#E0E0E0" />
  <rect x="500" y="1125" width="125" height="125" fill="#B2FF59" />
  <rect x="625" y="1125" width="125" height="125" fill="#388E3C" />
  <rect x="750" y="1125" width="125" height="125" fill="#E1F5FE" />
  <rect x="875" y="1125" width="125" height="125" fill="#4CAF50" />
  <rect x="1000" y="1125" width="125" height="125" fill="#FFCC80" />
  <rect x="1125" y="1125" width="125" height="125" fill="#FFEB3B" />
  <rect x="250" y="250" width="1000" height="1000" fill="none" stroke="#151515" stroke-opacity="0.16" stroke-width="2" />
</svg>
