<svg xmlns="http://www.w3.org/2000/svg" width="1500" height="1500" viewBox="0 0 1500 1500" shape-rendering="crispEdges" role="img" aria-labelledby="title desc">
  <title id="title">Emotional Tensions in Gold frame</title>
  <desc id="desc">Square Project artwork previewed in a gold frame.</desc>
  <defs>
    <linearGradient id="frameFace" x1="0" y1="0" x2="1" y2="1">
      <stop offset="0" stop-color="#FFF0A3" />
      <stop offset="0.32" stop-color="#F1D676" />
      <stop offset="0.68" stop-color="#CBA642" />
      <stop offset="1" stop-color="#8B6A1D" />
    </linearGradient>
    <filter id="artShadow" x="-10%" y="-10%" width="120%" height="120%">
      <feDropShadow dx="0" dy="20" stdDeviation="24" flood-color="#000000" flood-opacity="0.24" />
    </filter>
  </defs>
  <rect x="0" y="0" width="1500" height="1500" fill="#FFFFFF" />
  <rect x="0" y="0" width="1500" height="1500" fill="url(#frameFace)" />
  <rect x="120" y="120" width="1260" height="1260" fill="#F8F7F3" />
  <rect x="120" y="120" width="1260" height="1260" fill="none" stroke="#000000" stroke-opacity="0.14" stroke-width="10" />
  <rect x="250" y="250" width="1000" height="1000" fill="#FFFFFF" filter="url(#artShadow)" />
  <rect x="250" y="250" width="125" height="125" fill="#000000" />
  <rect x="375" y="250" width="125" height="125" fill="#111111" />
  <rect x="500" y="250" width="125" height="125" fill="#333333" />
  <rect x="625" y="250" width="125" height="125" fill="#444444" />
  <rect x="750" y="250" width="125" height="125" fill="#442222" />
  <rect x="875" y="250" width="125" height="125" fill="#554433" />
  <rect x="1000" y="250" width="125" height="125" fill="#666655" />
  <rect x="1125" y="250" width="125" height="125" fill="#777777" />
  <rect x="250" y="375" width="125" height="125" fill="#000000" />
  <rect x="375" y="375" width="125" height="125" fill="#222222" />
  <rect x="500" y="375" width="125" height="125" fill="#444444" />
  <rect x="625" y="375" width="125" height="125" fill="#666655" />
  <rect x="750" y="375" width="125" height="125" fill="#999966" />
  <rect x="875" y="375" width="125" height="125" fill="#AAAAAA" />
  <rect x="1000" y="375" width="125" height="125" fill="#BBAA99" />
  <rect x="1125" y="375" width="125" height="125" fill="#CC6666" />
  <rect x="250" y="500" width="125" height="125" fill="#222222" />
  <rect x="375" y="500" width="125" height="125" fill="#333333" />
  <rect x="500" y="500" width="125" height="125" fill="#444444" />
  <rect x="625" y="500" width="125" height="125" fill="#557755" />
  <rect x="750" y="500" width="125" height="125" fill="#669988" />
  <rect x="875" y="500" width="125" height="125" fill="#AA7744" />
  <rect x="1000" y="500" width="125" height="125" fill="#BBCCAA" />
  <rect x="1125" y="500" width="125" height="125" fill="#554433" />
  <rect x="250" y="625" width="125" height="125" fill="#444444" />
  <rect x="375" y="625" width="125" height="125" fill="#333666" />
  <rect x="500" y="625" width="125" height="125" fill="#223344" />
  <rect x="625" y="625" width="125" height="125" fill="#112233" />
  <rect x="750" y="625" width="125" height="125" fill="#556677" />
  <rect x="875" y="625" width="125" height="125" fill="#AABBCC" />
  <rect x="1000" y="625" width="125" height="125" fill="#FFAA33" />
  <rect x="1125" y="625" width="125" height="125" fill="#CBAA66" />
  <rect x="250" y="750" width="125" height="125" fill="#333333" />
  <rect x="375" y="750" width="125" height="125" fill="#332211" />
  <rect x="500" y="750" width="125" height="125" fill="#AA5533" />
  <rect x="625" y="750" width="125" height="125" fill="#CCAA44" />
  <rect x="750" y="750" width="125" height="125" fill="#FFD200" />
  <rect x="875" y="750" width="125" height="125" fill="#FFE3B2" />
  <rect x="1000" y="750" width="125" height="125" fill="#FFFF00" />
  <rect x="1125" y="750" width="125" height="125" fill="#AAAAAA" />
  <rect x="250" y="875" width="125" height="125" fill="#555555" />
  <rect x="375" y="875" width="125" height="125" fill="#444466" />
  <rect x="500" y="875" width="125" height="125" fill="#AABBAA" />
  <rect x="625" y="875" width="125" height="125" fill="#BBCCAA" />
  <rect x="750" y="875" width="125" height="125" fill="#DDDDCC" />
  <rect x="875" y="875" width="125" height="125" fill="#DDCCBB" />
  <rect x="1000" y="875" width="125" height="125" fill="#BBAA77" />
  <rect x="1125" y="875" width="125" height="125" fill="#888888" />
  <rect x="250" y="1000" width="125" height="125" fill="#777777" />
  <rect x="375" y="1000" width="125" height="125" fill="#666666" />
  <rect x="500" y="1000" width="125" height="125" fill="#CC6666" />
  <rect x="625" y="1000" width="125" height="125" fill="#CC4444" />
  <rect x="750" y="1000" width="125" height="125" fill="#AA2200" />
  <rect x="875" y="1000" width="125" height="125" fill="#AA1333" />
  <rect x="1000" y="1000" width="125" height="125" fill="#AA4455" />
  <rect x="1125" y="1000" width="125" height="125" fill="#888888" />
  <rect x="250" y="1125" width="125" height="125" fill="#FFFFFF" />
  <rect x="375" y="1125" width="125" height="125" fill="#F0E0D0" />
  <rect x="500" y="1125" width="125" height="125" fill="#DDCCAA" />
  <rect x="625" y="1125" width="125" height="125" fill="#CBAA88" />
  <rect x="750" y="1125" width="125" height="125" fill="#AA7755" />
  <rect x="875" y="1125" width="125" height="125" fill="#997744" />
  <rect x="1000" y="1125" width="125" height="125" fill="#554433" />
  <rect x="1125" y="1125" width="125" height="125" fill="#000000" />
  <rect x="250" y="250" width="1000" height="1000" fill="none" stroke="#151515" stroke-opacity="0.16" stroke-width="2" />
</svg>
