<svg xmlns="http://www.w3.org/2000/svg" width="1500" height="1500" viewBox="0 0 1500 1500" shape-rendering="crispEdges" role="img" aria-labelledby="title desc">
  <title id="title">Echoes of Touch in White frame</title>
  <desc id="desc">Square Project artwork previewed in a white frame.</desc>
  <defs>
    <linearGradient id="frameFace" x1="0" y1="0" x2="1" y2="1">
      <stop offset="0" stop-color="#BEBEB8" />
      <stop offset="0.32" stop-color="#FFFFFF" />
      <stop offset="0.68" stop-color="#F8F8F5" />
      <stop offset="1" stop-color="#D5D5CF" />
    </linearGradient>
    <filter id="artShadow" x="-10%" y="-10%" width="120%" height="120%">
      <feDropShadow dx="0" dy="20" stdDeviation="24" flood-color="#000000" flood-opacity="0.24" />
    </filter>
  </defs>
  <rect x="0" y="0" width="1500" height="1500" fill="#FFFFFF" />
  <rect x="0" y="0" width="1500" height="1500" fill="url(#frameFace)" />
  <rect x="120" y="120" width="1260" height="1260" fill="#F8F7F3" />
  <rect x="120" y="120" width="1260" height="1260" fill="none" stroke="#000000" stroke-opacity="0.14" stroke-width="10" />
  <rect x="250" y="250" width="1000" height="1000" fill="#FFFFFF" filter="url(#artShadow)" />
  <rect x="250" y="250" width="125" height="125" fill="#F8E3E1" />
  <rect x="375" y="250" width="125" height="125" fill="#E1B2B8" />
  <rect x="500" y="250" width="125" height="125" fill="#793C3F" />
  <rect x="625" y="250" width="125" height="125" fill="#4C4F54" />
  <rect x="750" y="250" width="125" height="125" fill="#2D2A30" />
  <rect x="875" y="250" width="125" height="125" fill="#3B383C" />
  <rect x="1000" y="250" width="125" height="125" fill="#E8D0D3" />
  <rect x="1125" y="250" width="125" height="125" fill="#E1B2B8" />
  <rect x="250" y="375" width="125" height="125" fill="#D1A6A5" />
  <rect x="375" y="375" width="125" height="125" fill="#E8DEDB" />
  <rect x="500" y="375" width="125" height="125" fill="#F3F1F1" />
  <rect x="625" y="375" width="125" height="125" fill="#B6A3B0" />
  <rect x="750" y="375" width="125" height="125" fill="#E1B2B8" />
  <rect x="875" y="375" width="125" height="125" fill="#4C4F54" />
  <rect x="1000" y="375" width="125" height="125" fill="#C4C6C8" />
  <rect x="1125" y="375" width="125" height="125" fill="#F8E3E1" />
  <rect x="250" y="500" width="125" height="125" fill="#2C2A32" />
  <rect x="375" y="500" width="125" height="125" fill="#5C5358" />
  <rect x="500" y="500" width="125" height="125" fill="#793C3F" />
  <rect x="625" y="500" width="125" height="125" fill="#D6B1B4" />
  <rect x="750" y="500" width="125" height="125" fill="#D6A3A0" />
  <rect x="875" y="500" width="125" height="125" fill="#1F1B1E" />
  <rect x="1000" y="500" width="125" height="125" fill="#4C4F54" />
  <rect x="1125" y="500" width="125" height="125" fill="#F8E3E1" />
  <rect x="250" y="625" width="125" height="125" fill="#F3F1F1" />
  <rect x="375" y="625" width="125" height="125" fill="#E1B2B8" />
  <rect x="500" y="625" width="125" height="125" fill="#E8DEDB" />
  <rect x="625" y="625" width="125" height="125" fill="#C9C6C9" />
  <rect x="750" y="625" width="125" height="125" fill="#F6E9E6" />
  <rect x="875" y="625" width="125" height="125" fill="#C4C6C8" />
  <rect x="1000" y="625" width="125" height="125" fill="#2D2A30" />
  <rect x="1125" y="625" width="125" height="125" fill="#5C5358" />
  <rect x="250" y="750" width="125" height="125" fill="#3B383C" />
  <rect x="375" y="750" width="125" height="125" fill="#793C3F" />
  <rect x="500" y="750" width="125" height="125" fill="#4C4F54" />
  <rect x="625" y="750" width="125" height="125" fill="#B6A3B0" />
  <rect x="750" y="750" width="125" height="125" fill="#D1A6A5" />
  <rect x="875" y="750" width="125" height="125" fill="#F8E3E1" />
  <rect x="1000" y="750" width="125" height="125" fill="#E8D0D3" />
  <rect x="1125" y="750" width="125" height="125" fill="#F8E3E1" />
  <rect x="250" y="875" width="125" height="125" fill="#E1B2B8" />
  <rect x="375" y="875" width="125" height="125" fill="#F3F1F1" />
  <rect x="500" y="875" width="125" height="125" fill="#F8E3E1" />
  <rect x="625" y="875" width="125" height="125" fill="#2C2A32" />
  <rect x="750" y="875" width="125" height="125" fill="#4C4F54" />
  <rect x="875" y="875" width="125" height="125" fill="#D1A6A5" />
  <rect x="1000" y="875" width="125" height="125" fill="#C4C6C8" />
  <rect x="1125" y="875" width="125" height="125" fill="#C9C6C9" />
  <rect x="250" y="1000" width="125" height="125" fill="#E1B2B8" />
  <rect x="375" y="1000" width="125" height="125" fill="#5C5358" />
  <rect x="500" y="1000" width="125" height="125" fill="#793C3F" />
  <rect x="625" y="1000" width="125" height="125" fill="#D6A3A0" />
  <rect x="750" y="1000" width="125" height="125" fill="#4C4F54" />
  <rect x="875" y="1000" width="125" height="125" fill="#F3F1F1" />
  <rect x="1000" y="1000" width="125" height="125" fill="#E8D0D3" />
  <rect x="1125" y="1000" width="125" height="125" fill="#C9C6C9" />
  <rect x="250" y="1125" width="125" height="125" fill="#D1A6A5" />
  <rect x="375" y="1125" width="125" height="125" fill="#4C4F54" />
  <rect x="500" y="1125" width="125" height="125" fill="#D1A6A5" />
  <rect x="625" y="1125" width="125" height="125" fill="#1F1B1E" />
  <rect x="750" y="1125" width="125" height="125" fill="#2C2A32" />
  <rect x="875" y="1125" width="125" height="125" fill="#E8DEDB" />
  <rect x="1000" y="1125" width="125" height="125" fill="#5C5358" />
  <rect x="1125" y="1125" width="125" height="125" fill="#F8E3E1" />
  <rect x="250" y="250" width="1000" height="1000" fill="none" stroke="#151515" stroke-opacity="0.16" stroke-width="2" />
</svg>
