<svg xmlns="http://www.w3.org/2000/svg" width="1500" height="1500" viewBox="0 0 1500 1500" shape-rendering="crispEdges" role="img" aria-labelledby="title desc">
  <title id="title">Echoes of Time in Natural frame</title>
  <desc id="desc">Square Project artwork previewed in a natural frame.</desc>
  <defs>
    <linearGradient id="frameFace" x1="0" y1="0" x2="1" y2="1">
      <stop offset="0" stop-color="#8F6F35" />
      <stop offset="0.32" stop-color="#F0DDAA" />
      <stop offset="0.68" stop-color="#D8C190" />
      <stop offset="1" stop-color="#B39155" />
    </linearGradient>
    <filter id="artShadow" x="-10%" y="-10%" width="120%" height="120%">
      <feDropShadow dx="0" dy="20" stdDeviation="24" flood-color="#000000" flood-opacity="0.24" />
    </filter>
  </defs>
  <rect x="0" y="0" width="1500" height="1500" fill="#FFFFFF" />
  <rect x="0" y="0" width="1500" height="1500" fill="url(#frameFace)" />
  <rect x="120" y="120" width="1260" height="1260" fill="#F8F7F3" />
  <rect x="120" y="120" width="1260" height="1260" fill="none" stroke="#000000" stroke-opacity="0.14" stroke-width="10" />
  <rect x="250" y="250" width="1000" height="1000" fill="#FFFFFF" filter="url(#artShadow)" />
  <rect x="250" y="250" width="125" height="125" fill="#5B3A29" />
  <rect x="375" y="250" width="125" height="125" fill="#7A4F30" />
  <rect x="500" y="250" width="125" height="125" fill="#A65D3D" />
  <rect x="625" y="250" width="125" height="125" fill="#C57B4D" />
  <rect x="750" y="250" width="125" height="125" fill="#D67C3D" />
  <rect x="875" y="250" width="125" height="125" fill="#E3995B" />
  <rect x="1000" y="250" width="125" height="125" fill="#F7D7A8" />
  <rect x="1125" y="250" width="125" height="125" fill="#FFFFFF" />
  <rect x="250" y="375" width="125" height="125" fill="#4A2922" />
  <rect x="375" y="375" width="125" height="125" fill="#4E3B33" />
  <rect x="500" y="375" width="125" height="125" fill="#753A32" />
  <rect x="625" y="375" width="125" height="125" fill="#A04D43" />
  <rect x="750" y="375" width="125" height="125" fill="#CC705F" />
  <rect x="875" y="375" width="125" height="125" fill="#FFA45E" />
  <rect x="1000" y="375" width="125" height="125" fill="#D5C6A8" />
  <rect x="1125" y="375" width="125" height="125" fill="#F9E6C6" />
  <rect x="250" y="500" width="125" height="125" fill="#2B2D2F" />
  <rect x="375" y="500" width="125" height="125" fill="#7A4F30" />
  <rect x="500" y="500" width="125" height="125" fill="#B67A59" />
  <rect x="625" y="500" width="125" height="125" fill="#D4A069" />
  <rect x="750" y="500" width="125" height="125" fill="#EDBB76" />
  <rect x="875" y="500" width="125" height="125" fill="#FAD9A0" />
  <rect x="1000" y="500" width="125" height="125" fill="#C0A57B" />
  <rect x="1125" y="500" width="125" height="125" fill="#FFF1E0" />
  <rect x="250" y="625" width="125" height="125" fill="#34517A" />
  <rect x="375" y="625" width="125" height="125" fill="#8F5A34" />
  <rect x="500" y="625" width="125" height="125" fill="#E6B557" />
  <rect x="625" y="625" width="125" height="125" fill="#C3CA9A" />
  <rect x="750" y="625" width="125" height="125" fill="#875C3A" />
  <rect x="875" y="625" width="125" height="125" fill="#6D5D51" />
  <rect x="1000" y="625" width="125" height="125" fill="#F5E8E4" />
  <rect x="1125" y="625" width="125" height="125" fill="#E7D4C1" />
  <rect x="250" y="750" width="125" height="125" fill="#494B53" />
  <rect x="375" y="750" width="125" height="125" fill="#3B2C35" />
  <rect x="500" y="750" width="125" height="125" fill="#614C3D" />
  <rect x="625" y="750" width="125" height="125" fill="#C4A79A" />
  <rect x="750" y="750" width="125" height="125" fill="#FFC7B6" />
  <rect x="875" y="750" width="125" height="125" fill="#F2E5D8" />
  <rect x="1000" y="750" width="125" height="125" fill="#A28E77" />
  <rect x="1125" y="750" width="125" height="125" fill="#D1C4B5" />
  <rect x="250" y="875" width="125" height="125" fill="#5A6A73" />
  <rect x="375" y="875" width="125" height="125" fill="#28384E" />
  <rect x="500" y="875" width="125" height="125" fill="#BF9C6E" />
  <rect x="625" y="875" width="125" height="125" fill="#D1B892" />
  <rect x="750" y="875" width="125" height="125" fill="#A5C4B0" />
  <rect x="875" y="875" width="125" height="125" fill="#B8BCA5" />
  <rect x="1000" y="875" width="125" height="125" fill="#BDC9C2" />
  <rect x="1125" y="875" width="125" height="125" fill="#A6C3D0" />
  <rect x="250" y="1000" width="125" height="125" fill="#292F33" />
  <rect x="375" y="1000" width="125" height="125" fill="#7C4A3B" />
  <rect x="500" y="1000" width="125" height="125" fill="#E8D12D" />
  <rect x="625" y="1000" width="125" height="125" fill="#EFBF6B" />
  <rect x="750" y="1000" width="125" height="125" fill="#F8C8A5" />
  <rect x="875" y="1000" width="125" height="125" fill="#D3D6D9" />
  <rect x="1000" y="1000" width="125" height="125" fill="#A2B8C8" />
  <rect x="1125" y="1000" width="125" height="125" fill="#C6E6F4" />
  <rect x="250" y="1125" width="125" height="125" fill="#000000" />
  <rect x="375" y="1125" width="125" height="125" fill="#2E2E2E" />
  <rect x="500" y="1125" width="125" height="125" fill="#4B4B4B" />
  <rect x="625" y="1125" width="125" height="125" fill="#7D7F7F" />
  <rect x="750" y="1125" width="125" height="125" fill="#B6B6B6" />
  <rect x="875" y="1125" width="125" height="125" fill="#D0D2D2" />
  <rect x="1000" y="1125" width="125" height="125" fill="#F3F4F4" />
  <rect x="1125" y="1125" width="125" height="125" fill="#FFFFFF" />
  <rect x="250" y="250" width="1000" height="1000" fill="none" stroke="#151515" stroke-opacity="0.16" stroke-width="2" />
</svg>
