<svg xmlns="http://www.w3.org/2000/svg" width="1500" height="1500" viewBox="0 0 1500 1500" shape-rendering="crispEdges" role="img" aria-labelledby="title desc">
  <title id="title">Echoes of Contradiction in Brown frame</title>
  <desc id="desc">Square Project artwork previewed in a brown frame.</desc>
  <defs>
    <linearGradient id="frameFace" x1="0" y1="0" x2="1" y2="1">
      <stop offset="0" stop-color="#C18A55" />
      <stop offset="0.32" stop-color="#9A6840" />
      <stop offset="0.68" stop-color="#70401F" />
      <stop offset="1" stop-color="#3F2413" />
    </linearGradient>
    <filter id="artShadow" x="-10%" y="-10%" width="120%" height="120%">
      <feDropShadow dx="0" dy="20" stdDeviation="24" flood-color="#000000" flood-opacity="0.24" />
    </filter>
  </defs>
  <rect x="0" y="0" width="1500" height="1500" fill="#FFFFFF" />
  <rect x="0" y="0" width="1500" height="1500" fill="url(#frameFace)" />
  <rect x="120" y="120" width="1260" height="1260" fill="#F8F7F3" />
  <rect x="120" y="120" width="1260" height="1260" fill="none" stroke="#000000" stroke-opacity="0.14" stroke-width="10" />
  <rect x="250" y="250" width="1000" height="1000" fill="#FFFFFF" filter="url(#artShadow)" />
  <rect x="250" y="250" width="125" height="125" fill="#7D4B18" />
  <rect x="375" y="250" width="125" height="125" fill="#4E2E0C" />
  <rect x="500" y="250" width="125" height="125" fill="#3B2210" />
  <rect x="625" y="250" width="125" height="125" fill="#5C3A18" />
  <rect x="750" y="250" width="125" height="125" fill="#3D3133" />
  <rect x="875" y="250" width="125" height="125" fill="#C4A958" />
  <rect x="1000" y="250" width="125" height="125" fill="#805E26" />
  <rect x="1125" y="250" width="125" height="125" fill="#3F2A13" />
  <rect x="250" y="375" width="125" height="125" fill="#8C572E" />
  <rect x="375" y="375" width="125" height="125" fill="#364B4C" />
  <rect x="500" y="375" width="125" height="125" fill="#7A2A1D" />
  <rect x="625" y="375" width="125" height="125" fill="#B18636" />
  <rect x="750" y="375" width="125" height="125" fill="#437C73" />
  <rect x="875" y="375" width="125" height="125" fill="#4A3A1E" />
  <rect x="1000" y="375" width="125" height="125" fill="#3A2E2B" />
  <rect x="1125" y="375" width="125" height="125" fill="#503320" />
  <rect x="250" y="500" width="125" height="125" fill="#1B1B1F" />
  <rect x="375" y="500" width="125" height="125" fill="#EBC57D" />
  <rect x="500" y="500" width="125" height="125" fill="#B04B19" />
  <rect x="625" y="500" width="125" height="125" fill="#D13A24" />
  <rect x="750" y="500" width="125" height="125" fill="#BF3A14" />
  <rect x="875" y="500" width="125" height="125" fill="#8E1D0C" />
  <rect x="1000" y="500" width="125" height="125" fill="#513B29" />
  <rect x="1125" y="500" width="125" height="125" fill="#A4572E" />
  <rect x="250" y="625" width="125" height="125" fill="#C67B3C" />
  <rect x="375" y="625" width="125" height="125" fill="#D0B142" />
  <rect x="500" y="625" width="125" height="125" fill="#8A2930" />
  <rect x="625" y="625" width="125" height="125" fill="#E9B872" />
  <rect x="750" y="625" width="125" height="125" fill="#C3B692" />
  <rect x="875" y="625" width="125" height="125" fill="#A27C31" />
  <rect x="1000" y="625" width="125" height="125" fill="#4F3B25" />
  <rect x="1125" y="625" width="125" height="125" fill="#704725" />
  <rect x="250" y="750" width="125" height="125" fill="#3C2A45" />
  <rect x="375" y="750" width="125" height="125" fill="#352A37" />
  <rect x="500" y="750" width="125" height="125" fill="#6E2B18" />
  <rect x="625" y="750" width="125" height="125" fill="#C9B299" />
  <rect x="750" y="750" width="125" height="125" fill="#B69C4C" />
  <rect x="875" y="750" width="125" height="125" fill="#E47545" />
  <rect x="1000" y="750" width="125" height="125" fill="#484B4A" />
  <rect x="1125" y="750" width="125" height="125" fill="#D9B14A" />
  <rect x="250" y="875" width="125" height="125" fill="#A85D30" />
  <rect x="375" y="875" width="125" height="125" fill="#272F3A" />
  <rect x="500" y="875" width="125" height="125" fill="#C8B98E" />
  <rect x="625" y="875" width="125" height="125" fill="#F3A22D" />
  <rect x="750" y="875" width="125" height="125" fill="#A17514" />
  <rect x="875" y="875" width="125" height="125" fill="#794E4B" />
  <rect x="1000" y="875" width="125" height="125" fill="#CAD8A3" />
  <rect x="1125" y="875" width="125" height="125" fill="#E7B65A" />
  <rect x="250" y="1000" width="125" height="125" fill="#C7C480" />
  <rect x="375" y="1000" width="125" height="125" fill="#E4B20A" />
  <rect x="500" y="1000" width="125" height="125" fill="#AA652C" />
  <rect x="625" y="1000" width="125" height="125" fill="#A1863D" />
  <rect x="750" y="1000" width="125" height="125" fill="#93894E" />
  <rect x="875" y="1000" width="125" height="125" fill="#452B25" />
  <rect x="1000" y="1000" width="125" height="125" fill="#C1C6B6" />
  <rect x="1125" y="1000" width="125" height="125" fill="#D9D3BC" />
  <rect x="250" y="1125" width="125" height="125" fill="#4C3F32" />
  <rect x="375" y="1125" width="125" height="125" fill="#9E8B6F" />
  <rect x="500" y="1125" width="125" height="125" fill="#A25824" />
  <rect x="625" y="1125" width="125" height="125" fill="#C49B00" />
  <rect x="750" y="1125" width="125" height="125" fill="#7B6D4D" />
  <rect x="875" y="1125" width="125" height="125" fill="#393D34" />
  <rect x="1000" y="1125" width="125" height="125" fill="#5A1F1A" />
  <rect x="1125" y="1125" width="125" height="125" fill="#A13D2A" />
  <rect x="250" y="250" width="1000" height="1000" fill="none" stroke="#151515" stroke-opacity="0.16" stroke-width="2" />
</svg>
