<svg xmlns="http://www.w3.org/2000/svg" width="1500" height="1500" viewBox="0 0 1500 1500" shape-rendering="crispEdges" role="img" aria-labelledby="title desc">
  <title id="title">Tension in Motion in White frame</title>
  <desc id="desc">Square Project artwork previewed in a white frame.</desc>
  <rect x="0" y="0" width="1500" height="1500" fill="#FFFFFF" />
  <image href="https://mysquareart.com/frames/white.jpg" x="0" y="0" width="1500" height="1500" preserveAspectRatio="xMidYMid meet" />
  <rect x="250" y="250" width="1000" height="1000" fill="#FFFFFF" />
  <rect x="250" y="250" width="125" height="125" fill="#3E1F4E" />
  <rect x="375" y="250" width="125" height="125" fill="#4A2C73" />
  <rect x="500" y="250" width="125" height="125" fill="#6C4A92" />
  <rect x="625" y="250" width="125" height="125" fill="#A57A45" />
  <rect x="750" y="250" width="125" height="125" fill="#D9C59A" />
  <rect x="875" y="250" width="125" height="125" fill="#E8D095" />
  <rect x="1000" y="250" width="125" height="125" fill="#F7F1E3" />
  <rect x="1125" y="250" width="125" height="125" fill="#F1DBB4" />
  <rect x="250" y="375" width="125" height="125" fill="#392B45" />
  <rect x="375" y="375" width="125" height="125" fill="#3C254B" />
  <rect x="500" y="375" width="125" height="125" fill="#535B80" />
  <rect x="625" y="375" width="125" height="125" fill="#696687" />
  <rect x="750" y="375" width="125" height="125" fill="#8E8BA6" />
  <rect x="875" y="375" width="125" height="125" fill="#B7B9A7" />
  <rect x="1000" y="375" width="125" height="125" fill="#D1D3A0" />
  <rect x="1125" y="375" width="125" height="125" fill="#E9E8D6" />
  <rect x="250" y="500" width="125" height="125" fill="#A9D6B6" />
  <rect x="375" y="500" width="125" height="125" fill="#AEB9CC" />
  <rect x="500" y="500" width="125" height="125" fill="#B2A8E0" />
  <rect x="625" y="500" width="125" height="125" fill="#CAD7EA" />
  <rect x="750" y="500" width="125" height="125" fill="#D1E9D0" />
  <rect x="875" y="500" width="125" height="125" fill="#C6CBA7" />
  <rect x="1000" y="500" width="125" height="125" fill="#A5AF9D" />
  <rect x="1125" y="500" width="125" height="125" fill="#9CB09F" />
  <rect x="250" y="625" width="125" height="125" fill="#7DC1B8" />
  <rect x="375" y="625" width="125" height="125" fill="#B4D7D7" />
  <rect x="500" y="625" width="125" height="125" fill="#DB6D6D" />
  <rect x="625" y="625" width="125" height="125" fill="#F5A98D" />
  <rect x="750" y="625" width="125" height="125" fill="#F6E1B5" />
  <rect x="875" y="625" width="125" height="125" fill="#D9EED8" />
  <rect x="1000" y="625" width="125" height="125" fill="#D7B196" />
  <rect x="1125" y="625" width="125" height="125" fill="#DDC6E4" />
  <rect x="250" y="750" width="125" height="125" fill="#000000" />
  <rect x="375" y="750" width="125" height="125" fill="#0E0E0E" />
  <rect x="500" y="750" width="125" height="125" fill="#1C1C1C" />
  <rect x="625" y="750" width="125" height="125" fill="#2D2D2D" />
  <rect x="750" y="750" width="125" height="125" fill="#4B4B4B" />
  <rect x="875" y="750" width="125" height="125" fill="#7A7A7A" />
  <rect x="1000" y="750" width="125" height="125" fill="#A0A0A0" />
  <rect x="1125" y="750" width="125" height="125" fill="#C8C8C8" />
  <rect x="250" y="875" width="125" height="125" fill="#F6F1F0" />
  <rect x="375" y="875" width="125" height="125" fill="#EDDFDF" />
  <rect x="500" y="875" width="125" height="125" fill="#E5DBDB" />
  <rect x="625" y="875" width="125" height="125" fill="#D0D3D5" />
  <rect x="750" y="875" width="125" height="125" fill="#A3ADB9" />
  <rect x="875" y="875" width="125" height="125" fill="#919DA4" />
  <rect x="1000" y="875" width="125" height="125" fill="#788A8B" />
  <rect x="1125" y="875" width="125" height="125" fill="#5C7378" />
  <rect x="250" y="1000" width="125" height="125" fill="#253435" />
  <rect x="375" y="1000" width="125" height="125" fill="#2B3A3A" />
  <rect x="500" y="1000" width="125" height="125" fill="#375454" />
  <rect x="625" y="1000" width="125" height="125" fill="#476666" />
  <rect x="750" y="1000" width="125" height="125" fill="#5C8383" />
  <rect x="875" y="1000" width="125" height="125" fill="#7DAFAD" />
  <rect x="1000" y="1000" width="125" height="125" fill="#A3C4D9" />
  <rect x="1125" y="1000" width="125" height="125" fill="#DEDBD7" />
  <rect x="250" y="1125" width="125" height="125" fill="#F1DBB4" />
  <rect x="375" y="1125" width="125" height="125" fill="#EFE3D0" />
  <rect x="500" y="1125" width="125" height="125" fill="#EDD0B9" />
  <rect x="625" y="1125" width="125" height="125" fill="#EBAA93" />
  <rect x="750" y="1125" width="125" height="125" fill="#E8997C" />
  <rect x="875" y="1125" width="125" height="125" fill="#EF8B5D" />
  <rect x="1000" y="1125" width="125" height="125" fill="#F57A4F" />
  <rect x="1125" y="1125" width="125" height="125" fill="#F26A4D" />
  <rect x="250" y="250" width="1000" height="1000" fill="none" stroke="#151515" stroke-opacity="0.16" stroke-width="2" />
</svg>
