<svg xmlns="http://www.w3.org/2000/svg" width="1500" height="1500" viewBox="0 0 1500 1500" shape-rendering="crispEdges" role="img" aria-labelledby="title desc">
  <title id="title">Fractured Embrace in Natural frame</title>
  <desc id="desc">Square Project artwork previewed in a natural frame.</desc>
  <rect x="0" y="0" width="1500" height="1500" fill="#FFFFFF" />
  <image href="https://mysquareart.com/frames/natural.jpg" x="0" y="0" width="1500" height="1500" preserveAspectRatio="xMidYMid meet" />
  <rect x="250" y="250" width="1000" height="1000" fill="#FFFFFF" />
  <rect x="250" y="250" width="125" height="125" fill="#FF6F61" />
  <rect x="375" y="250" width="125" height="125" fill="#D95D3D" />
  <rect x="500" y="250" width="125" height="125" fill="#A2C6F4" />
  <rect x="625" y="250" width="125" height="125" fill="#737373" />
  <rect x="750" y="250" width="125" height="125" fill="#9C8D8B" />
  <rect x="875" y="250" width="125" height="125" fill="#C4C4C4" />
  <rect x="1000" y="250" width="125" height="125" fill="#FF4141" />
  <rect x="1125" y="250" width="125" height="125" fill="#C99C92" />
  <rect x="250" y="375" width="125" height="125" fill="#A46D87" />
  <rect x="375" y="375" width="125" height="125" fill="#FFB3B0" />
  <rect x="500" y="375" width="125" height="125" fill="#FFCD6E" />
  <rect x="625" y="375" width="125" height="125" fill="#B3B1B9" />
  <rect x="750" y="375" width="125" height="125" fill="#6F6F6F" />
  <rect x="875" y="375" width="125" height="125" fill="#3E3E3E" />
  <rect x="1000" y="375" width="125" height="125" fill="#282828" />
  <rect x="1125" y="375" width="125" height="125" fill="#FFFFFF" />
  <rect x="250" y="500" width="125" height="125" fill="#F1A7A1" />
  <rect x="375" y="500" width="125" height="125" fill="#F9D0D0" />
  <rect x="500" y="500" width="125" height="125" fill="#5D5D5D" />
  <rect x="625" y="500" width="125" height="125" fill="#F57F7F" />
  <rect x="750" y="500" width="125" height="125" fill="#BA1414" />
  <rect x="875" y="500" width="125" height="125" fill="#A6A6A1" />
  <rect x="1000" y="500" width="125" height="125" fill="#C1C1C1" />
  <rect x="1125" y="500" width="125" height="125" fill="#737373" />
  <rect x="250" y="625" width="125" height="125" fill="#B29EA4" />
  <rect x="375" y="625" width="125" height="125" fill="#E5B2B1" />
  <rect x="500" y="625" width="125" height="125" fill="#FF7F50" />
  <rect x="625" y="625" width="125" height="125" fill="#D36A00" />
  <rect x="750" y="625" width="125" height="125" fill="#9C8B7A" />
  <rect x="875" y="625" width="125" height="125" fill="#606060" />
  <rect x="1000" y="625" width="125" height="125" fill="#A5A5A5" />
  <rect x="1125" y="625" width="125" height="125" fill="#3C3C3C" />
  <rect x="250" y="750" width="125" height="125" fill="#FF9C9C" />
  <rect x="375" y="750" width="125" height="125" fill="#D9A99B" />
  <rect x="500" y="750" width="125" height="125" fill="#7D9B7E" />
  <rect x="625" y="750" width="125" height="125" fill="#D9D9D9" />
  <rect x="750" y="750" width="125" height="125" fill="#BFA6A6" />
  <rect x="875" y="750" width="125" height="125" fill="#4D4D4D" />
  <rect x="1000" y="750" width="125" height="125" fill="#262626" />
  <rect x="1125" y="750" width="125" height="125" fill="#000000" />
  <rect x="250" y="875" width="125" height="125" fill="#E47CC1" />
  <rect x="375" y="875" width="125" height="125" fill="#DDCD9B" />
  <rect x="500" y="875" width="125" height="125" fill="#8B5B5B" />
  <rect x="625" y="875" width="125" height="125" fill="#F2B2B2" />
  <rect x="750" y="875" width="125" height="125" fill="#C5C5C5" />
  <rect x="875" y="875" width="125" height="125" fill="#4B4B4B" />
  <rect x="1000" y="875" width="125" height="125" fill="#888888" />
  <rect x="1125" y="875" width="125" height="125" fill="#FFFFFF" />
  <rect x="250" y="1000" width="125" height="125" fill="#C0A8A1" />
  <rect x="375" y="1000" width="125" height="125" fill="#D77EA2" />
  <rect x="500" y="1000" width="125" height="125" fill="#A47979" />
  <rect x="625" y="1000" width="125" height="125" fill="#D3C2C2" />
  <rect x="750" y="1000" width="125" height="125" fill="#6E6E6E" />
  <rect x="875" y="1000" width="125" height="125" fill="#3F3F3F" />
  <rect x="1000" y="1000" width="125" height="125" fill="#BFBFBF" />
  <rect x="1125" y="1000" width="125" height="125" fill="#FFFFFF" />
  <rect x="250" y="1125" width="125" height="125" fill="#FFD5D5" />
  <rect x="375" y="1125" width="125" height="125" fill="#B4BEC0" />
  <rect x="500" y="1125" width="125" height="125" fill="#FF7F50" />
  <rect x="625" y="1125" width="125" height="125" fill="#A7A59D" />
  <rect x="750" y="1125" width="125" height="125" fill="#4E4E4E" />
  <rect x="875" y="1125" width="125" height="125" fill="#C9C9C9" />
  <rect x="1000" y="1125" width="125" height="125" fill="#E0E4E6" />
  <rect x="1125" y="1125" width="125" height="125" fill="#000000" />
  <rect x="250" y="250" width="1000" height="1000" fill="none" stroke="#151515" stroke-opacity="0.16" stroke-width="2" />
</svg>
