<svg xmlns="http://www.w3.org/2000/svg" width="1500" height="1500" viewBox="0 0 1500 1500" shape-rendering="crispEdges" role="img" aria-labelledby="title desc">
  <title id="title">Balance of Light and Shadow in Brown frame</title>
  <desc id="desc">Square Project artwork previewed in a brown frame.</desc>
  <defs>
    <linearGradient id="frameFace" x1="0" y1="0" x2="1" y2="1">
      <stop offset="0" stop-color="#C18A55" />
      <stop offset="0.32" stop-color="#9A6840" />
      <stop offset="0.68" stop-color="#70401F" />
      <stop offset="1" stop-color="#3F2413" />
    </linearGradient>
    <filter id="artShadow" x="-10%" y="-10%" width="120%" height="120%">
      <feDropShadow dx="0" dy="20" stdDeviation="24" flood-color="#000000" flood-opacity="0.24" />
    </filter>
  </defs>
  <rect x="0" y="0" width="1500" height="1500" fill="#FFFFFF" />
  <rect x="0" y="0" width="1500" height="1500" fill="url(#frameFace)" />
  <rect x="120" y="120" width="1260" height="1260" fill="#F8F7F3" />
  <rect x="120" y="120" width="1260" height="1260" fill="none" stroke="#000000" stroke-opacity="0.14" stroke-width="10" />
  <rect x="250" y="250" width="1000" height="1000" fill="#FFFFFF" filter="url(#artShadow)" />
  <rect x="250" y="250" width="125" height="125" fill="#4A253A" />
  <rect x="375" y="250" width="125" height="125" fill="#D9A6B4" />
  <rect x="500" y="250" width="125" height="125" fill="#D13F69" />
  <rect x="625" y="250" width="125" height="125" fill="#D9A9B2" />
  <rect x="750" y="250" width="125" height="125" fill="#734B56" />
  <rect x="875" y="250" width="125" height="125" fill="#BE4E6D" />
  <rect x="1000" y="250" width="125" height="125" fill="#573041" />
  <rect x="1125" y="250" width="125" height="125" fill="#E3BFC0" />
  <rect x="250" y="375" width="125" height="125" fill="#6E3A46" />
  <rect x="375" y="375" width="125" height="125" fill="#B74B5C" />
  <rect x="500" y="375" width="125" height="125" fill="#D8A9AC" />
  <rect x="625" y="375" width="125" height="125" fill="#D92B45" />
  <rect x="750" y="375" width="125" height="125" fill="#4F2328" />
  <rect x="875" y="375" width="125" height="125" fill="#C50223" />
  <rect x="1000" y="375" width="125" height="125" fill="#E59B5B" />
  <rect x="1125" y="375" width="125" height="125" fill="#5E234A" />
  <rect x="250" y="500" width="125" height="125" fill="#851B22" />
  <rect x="375" y="500" width="125" height="125" fill="#F5C8B9" />
  <rect x="500" y="500" width="125" height="125" fill="#4A2B38" />
  <rect x="625" y="500" width="125" height="125" fill="#D6637D" />
  <rect x="750" y="500" width="125" height="125" fill="#D1666C" />
  <rect x="875" y="500" width="125" height="125" fill="#3B3C3F" />
  <rect x="1000" y="500" width="125" height="125" fill="#B4A8AE" />
  <rect x="1125" y="500" width="125" height="125" fill="#8F252D" />
  <rect x="250" y="625" width="125" height="125" fill="#3B3548" />
  <rect x="375" y="625" width="125" height="125" fill="#CDA675" />
  <rect x="500" y="625" width="125" height="125" fill="#9C435D" />
  <rect x="625" y="625" width="125" height="125" fill="#B7213D" />
  <rect x="750" y="625" width="125" height="125" fill="#693B45" />
  <rect x="875" y="625" width="125" height="125" fill="#D3A0AA" />
  <rect x="1000" y="625" width="125" height="125" fill="#F2B5B7" />
  <rect x="1125" y="625" width="125" height="125" fill="#E15663" />
  <rect x="250" y="750" width="125" height="125" fill="#5F4E55" />
  <rect x="375" y="750" width="125" height="125" fill="#A5C6D4" />
  <rect x="500" y="750" width="125" height="125" fill="#BF4642" />
  <rect x="625" y="750" width="125" height="125" fill="#BF7C8D" />
  <rect x="750" y="750" width="125" height="125" fill="#823C49" />
  <rect x="875" y="750" width="125" height="125" fill="#9D4041" />
  <rect x="1000" y="750" width="125" height="125" fill="#D2A3B1" />
  <rect x="1125" y="750" width="125" height="125" fill="#C099B2" />
  <rect x="250" y="875" width="125" height="125" fill="#7B4D52" />
  <rect x="375" y="875" width="125" height="125" fill="#F1BFCC" />
  <rect x="500" y="875" width="125" height="125" fill="#6F2D3F" />
  <rect x="625" y="875" width="125" height="125" fill="#D76E8F" />
  <rect x="750" y="875" width="125" height="125" fill="#4C263C" />
  <rect x="875" y="875" width="125" height="125" fill="#A84C57" />
  <rect x="1000" y="875" width="125" height="125" fill="#F5868C" />
  <rect x="1125" y="875" width="125" height="125" fill="#8D3B41" />
  <rect x="250" y="1000" width="125" height="125" fill="#6C4265" />
  <rect x="375" y="1000" width="125" height="125" fill="#E8B7C2" />
  <rect x="500" y="1000" width="125" height="125" fill="#AE646D" />
  <rect x="625" y="1000" width="125" height="125" fill="#9D2F37" />
  <rect x="750" y="1000" width="125" height="125" fill="#6A4F57" />
  <rect x="875" y="1000" width="125" height="125" fill="#D77A8B" />
  <rect x="1000" y="1000" width="125" height="125" fill="#E4C1D4" />
  <rect x="1125" y="1000" width="125" height="125" fill="#E3B5B8" />
  <rect x="250" y="1125" width="125" height="125" fill="#8D5A65" />
  <rect x="375" y="1125" width="125" height="125" fill="#D5A9B4" />
  <rect x="500" y="1125" width="125" height="125" fill="#A73A5D" />
  <rect x="625" y="1125" width="125" height="125" fill="#D85274" />
  <rect x="750" y="1125" width="125" height="125" fill="#7D5863" />
  <rect x="875" y="1125" width="125" height="125" fill="#EDB7B6" />
  <rect x="1000" y="1125" width="125" height="125" fill="#E83F3F" />
  <rect x="1125" y="1125" width="125" height="125" fill="#6A4D5C" />
  <rect x="250" y="250" width="1000" height="1000" fill="none" stroke="#151515" stroke-opacity="0.16" stroke-width="2" />
</svg>
