<svg xmlns="http://www.w3.org/2000/svg" width="1500" height="1500" viewBox="0 0 1500 1500" shape-rendering="crispEdges" role="img" aria-labelledby="title desc">
  <title id="title">Echoes of Chaos and Order in Black frame</title>
  <desc id="desc">Square Project artwork previewed in a black frame.</desc>
  <defs>
    <linearGradient id="frameFace" x1="0" y1="0" x2="1" y2="1">
      <stop offset="0" stop-color="#6A6A6A" />
      <stop offset="0.32" stop-color="#343434" />
      <stop offset="0.68" stop-color="#111111" />
      <stop offset="1" stop-color="#050505" />
    </linearGradient>
    <filter id="artShadow" x="-10%" y="-10%" width="120%" height="120%">
      <feDropShadow dx="0" dy="20" stdDeviation="24" flood-color="#000000" flood-opacity="0.24" />
    </filter>
  </defs>
  <rect x="0" y="0" width="1500" height="1500" fill="#FFFFFF" />
  <rect x="0" y="0" width="1500" height="1500" fill="url(#frameFace)" />
  <rect x="120" y="120" width="1260" height="1260" fill="#F8F7F3" />
  <rect x="120" y="120" width="1260" height="1260" fill="none" stroke="#000000" stroke-opacity="0.14" stroke-width="10" />
  <rect x="250" y="250" width="1000" height="1000" fill="#FFFFFF" filter="url(#artShadow)" />
  <rect x="250" y="250" width="125" height="125" fill="#FFD700" />
  <rect x="375" y="250" width="125" height="125" fill="#FFA500" />
  <rect x="500" y="250" width="125" height="125" fill="#BDB76B" />
  <rect x="625" y="250" width="125" height="125" fill="#FFFFE0" />
  <rect x="750" y="250" width="125" height="125" fill="#E6E6FA" />
  <rect x="875" y="250" width="125" height="125" fill="#6A5ACD" />
  <rect x="1000" y="250" width="125" height="125" fill="#483D8B" />
  <rect x="1125" y="250" width="125" height="125" fill="#00008B" />
  <rect x="250" y="375" width="125" height="125" fill="#FF7F50" />
  <rect x="375" y="375" width="125" height="125" fill="#FF6347" />
  <rect x="500" y="375" width="125" height="125" fill="#D2691E" />
  <rect x="625" y="375" width="125" height="125" fill="#9B30FF" />
  <rect x="750" y="375" width="125" height="125" fill="#4B0082" />
  <rect x="875" y="375" width="125" height="125" fill="#7B68EE" />
  <rect x="1000" y="375" width="125" height="125" fill="#9932CC" />
  <rect x="1125" y="375" width="125" height="125" fill="#0000CD" />
  <rect x="250" y="500" width="125" height="125" fill="#FFA07A" />
  <rect x="375" y="500" width="125" height="125" fill="#FFDAB9" />
  <rect x="500" y="500" width="125" height="125" fill="#FFE4B5" />
  <rect x="625" y="500" width="125" height="125" fill="#F5FFFA" />
  <rect x="750" y="500" width="125" height="125" fill="#ADD8E6" />
  <rect x="875" y="500" width="125" height="125" fill="#4682B4" />
  <rect x="1000" y="500" width="125" height="125" fill="#4169E1" />
  <rect x="1125" y="500" width="125" height="125" fill="#0000FF" />
  <rect x="250" y="625" width="125" height="125" fill="#F0E68C" />
  <rect x="375" y="625" width="125" height="125" fill="#E0FFFF" />
  <rect x="500" y="625" width="125" height="125" fill="#B0C4DE" />
  <rect x="625" y="625" width="125" height="125" fill="#F8F8FF" />
  <rect x="750" y="625" width="125" height="125" fill="#C0C0C0" />
  <rect x="875" y="625" width="125" height="125" fill="#A9A9A9" />
  <rect x="1000" y="625" width="125" height="125" fill="#808080" />
  <rect x="1125" y="625" width="125" height="125" fill="#696969" />
  <rect x="250" y="750" width="125" height="125" fill="#FFB6C1" />
  <rect x="375" y="750" width="125" height="125" fill="#FF69B4" />
  <rect x="500" y="750" width="125" height="125" fill="#FF1493" />
  <rect x="625" y="750" width="125" height="125" fill="#FF4500" />
  <rect x="750" y="750" width="125" height="125" fill="#DC143C" />
  <rect x="875" y="750" width="125" height="125" fill="#B22222" />
  <rect x="1000" y="750" width="125" height="125" fill="#8B0000" />
  <rect x="1125" y="750" width="125" height="125" fill="#800000" />
  <rect x="250" y="875" width="125" height="125" fill="#FFD700" />
  <rect x="375" y="875" width="125" height="125" fill="#FFA07A" />
  <rect x="500" y="875" width="125" height="125" fill="#F0E68C" />
  <rect x="625" y="875" width="125" height="125" fill="#E6E6FA" />
  <rect x="750" y="875" width="125" height="125" fill="#CCCCFF" />
  <rect x="875" y="875" width="125" height="125" fill="#B0E0E6" />
  <rect x="1000" y="875" width="125" height="125" fill="#00CED1" />
  <rect x="1125" y="875" width="125" height="125" fill="#4682B4" />
  <rect x="250" y="1000" width="125" height="125" fill="#ADFF2F" />
  <rect x="375" y="1000" width="125" height="125" fill="#32CD32" />
  <rect x="500" y="1000" width="125" height="125" fill="#98FB98" />
  <rect x="625" y="1000" width="125" height="125" fill="#66CDAA" />
  <rect x="750" y="1000" width="125" height="125" fill="#2E8B57" />
  <rect x="875" y="1000" width="125" height="125" fill="#3CB371" />
  <rect x="1000" y="1000" width="125" height="125" fill="#4B0082" />
  <rect x="1125" y="1000" width="125" height="125" fill="#800080" />
  <rect x="250" y="1125" width="125" height="125" fill="#D3D3D3" />
  <rect x="375" y="1125" width="125" height="125" fill="#A9A9A9" />
  <rect x="500" y="1125" width="125" height="125" fill="#696969" />
  <rect x="625" y="1125" width="125" height="125" fill="#191970" />
  <rect x="750" y="1125" width="125" height="125" fill="#2F4F4F" />
  <rect x="875" y="1125" width="125" height="125" fill="#000000" />
  <rect x="1000" y="1125" width="125" height="125" fill="#000000" />
  <rect x="1125" y="1125" width="125" height="125" fill="#000000" />
  <rect x="250" y="250" width="1000" height="1000" fill="none" stroke="#151515" stroke-opacity="0.16" stroke-width="2" />
</svg>
