<svg xmlns="http://www.w3.org/2000/svg" width="1500" height="1500" viewBox="0 0 1500 1500" shape-rendering="crispEdges" role="img" aria-labelledby="title desc">
  <title id="title">Contrasting Echoes in Natural frame</title>
  <desc id="desc">Square Project artwork previewed in a natural frame.</desc>
  <defs>
    <linearGradient id="frameFace" x1="0" y1="0" x2="1" y2="1">
      <stop offset="0" stop-color="#8F6F35" />
      <stop offset="0.32" stop-color="#F0DDAA" />
      <stop offset="0.68" stop-color="#D8C190" />
      <stop offset="1" stop-color="#B39155" />
    </linearGradient>
    <filter id="artShadow" x="-10%" y="-10%" width="120%" height="120%">
      <feDropShadow dx="0" dy="20" stdDeviation="24" flood-color="#000000" flood-opacity="0.24" />
    </filter>
  </defs>
  <rect x="0" y="0" width="1500" height="1500" fill="#FFFFFF" />
  <rect x="0" y="0" width="1500" height="1500" fill="url(#frameFace)" />
  <rect x="120" y="120" width="1260" height="1260" fill="#F8F7F3" />
  <rect x="120" y="120" width="1260" height="1260" fill="none" stroke="#000000" stroke-opacity="0.14" stroke-width="10" />
  <rect x="250" y="250" width="1000" height="1000" fill="#FFFFFF" filter="url(#artShadow)" />
  <rect x="250" y="250" width="125" height="125" fill="#FF6F61" />
  <rect x="375" y="250" width="125" height="125" fill="#FFC107" />
  <rect x="500" y="250" width="125" height="125" fill="#FF8A65" />
  <rect x="625" y="250" width="125" height="125" fill="#FFB74D" />
  <rect x="750" y="250" width="125" height="125" fill="#FFC107" />
  <rect x="875" y="250" width="125" height="125" fill="#FF6F61" />
  <rect x="1000" y="250" width="125" height="125" fill="#FF8A65" />
  <rect x="1125" y="250" width="125" height="125" fill="#FFB74D" />
  <rect x="250" y="375" width="125" height="125" fill="#F4511E" />
  <rect x="375" y="375" width="125" height="125" fill="#FBC02D" />
  <rect x="500" y="375" width="125" height="125" fill="#FF7043" />
  <rect x="625" y="375" width="125" height="125" fill="#FFCC80" />
  <rect x="750" y="375" width="125" height="125" fill="#FFB300" />
  <rect x="875" y="375" width="125" height="125" fill="#F44336" />
  <rect x="1000" y="375" width="125" height="125" fill="#FFAB00" />
  <rect x="1125" y="375" width="125" height="125" fill="#FF7043" />
  <rect x="250" y="500" width="125" height="125" fill="#C2185B" />
  <rect x="375" y="500" width="125" height="125" fill="#BDBDBD" />
  <rect x="500" y="500" width="125" height="125" fill="#FFB300" />
  <rect x="625" y="500" width="125" height="125" fill="#FFC107" />
  <rect x="750" y="500" width="125" height="125" fill="#BDBDBD" />
  <rect x="875" y="500" width="125" height="125" fill="#C2185B" />
  <rect x="1000" y="500" width="125" height="125" fill="#E91E63" />
  <rect x="1125" y="500" width="125" height="125" fill="#F06292" />
  <rect x="250" y="625" width="125" height="125" fill="#455A64" />
  <rect x="375" y="625" width="125" height="125" fill="#78909C" />
  <rect x="500" y="625" width="125" height="125" fill="#CFD8DC" />
  <rect x="625" y="625" width="125" height="125" fill="#B0BEC5" />
  <rect x="750" y="625" width="125" height="125" fill="#78909C" />
  <rect x="875" y="625" width="125" height="125" fill="#455A64" />
  <rect x="1000" y="625" width="125" height="125" fill="#78909C" />
  <rect x="1125" y="625" width="125" height="125" fill="#CFD8DC" />
  <rect x="250" y="750" width="125" height="125" fill="#373D3F" />
  <rect x="375" y="750" width="125" height="125" fill="#B2FF59" />
  <rect x="500" y="750" width="125" height="125" fill="#000000" />
  <rect x="625" y="750" width="125" height="125" fill="#546E7A" />
  <rect x="750" y="750" width="125" height="125" fill="#C5E1A5" />
  <rect x="875" y="750" width="125" height="125" fill="#9E9D24" />
  <rect x="1000" y="750" width="125" height="125" fill="#4DB6AC" />
  <rect x="1125" y="750" width="125" height="125" fill="#FFC107" />
  <rect x="250" y="875" width="125" height="125" fill="#0288D1" />
  <rect x="375" y="875" width="125" height="125" fill="#4FC3F7" />
  <rect x="500" y="875" width="125" height="125" fill="#B3E5FC" />
  <rect x="625" y="875" width="125" height="125" fill="#1976D2" />
  <rect x="750" y="875" width="125" height="125" fill="#81D4FA" />
  <rect x="875" y="875" width="125" height="125" fill="#01579B" />
  <rect x="1000" y="875" width="125" height="125" fill="#0288D1" />
  <rect x="1125" y="875" width="125" height="125" fill="#81D4FA" />
  <rect x="250" y="1000" width="125" height="125" fill="#616161" />
  <rect x="375" y="1000" width="125" height="125" fill="#263238" />
  <rect x="500" y="1000" width="125" height="125" fill="#37474F" />
  <rect x="625" y="1000" width="125" height="125" fill="#898B8B" />
  <rect x="750" y="1000" width="125" height="125" fill="#90A4AE" />
  <rect x="875" y="1000" width="125" height="125" fill="#263238" />
  <rect x="1000" y="1000" width="125" height="125" fill="#37474F" />
  <rect x="1125" y="1000" width="125" height="125" fill="#616161" />
  <rect x="250" y="1125" width="125" height="125" fill="#FFA000" />
  <rect x="375" y="1125" width="125" height="125" fill="#FFC107" />
  <rect x="500" y="1125" width="125" height="125" fill="#FFD54F" />
  <rect x="625" y="1125" width="125" height="125" fill="#FF8B1B" />
  <rect x="750" y="1125" width="125" height="125" fill="#FFC107" />
  <rect x="875" y="1125" width="125" height="125" fill="#FFA000" />
  <rect x="1000" y="1125" width="125" height="125" fill="#FFD54F" />
  <rect x="1125" y="1125" width="125" height="125" fill="#FF8B1B" />
  <rect x="250" y="250" width="1000" height="1000" fill="none" stroke="#151515" stroke-opacity="0.16" stroke-width="2" />
</svg>
