<svg xmlns="http://www.w3.org/2000/svg" width="1500" height="1500" viewBox="0 0 1500 1500" shape-rendering="crispEdges" role="img" aria-labelledby="title desc">
  <title id="title">Echoes of Tension in Black frame</title>
  <desc id="desc">Square Project artwork previewed in a black frame.</desc>
  <defs>
    <linearGradient id="frameFace" x1="0" y1="0" x2="1" y2="1">
      <stop offset="0" stop-color="#6A6A6A" />
      <stop offset="0.32" stop-color="#343434" />
      <stop offset="0.68" stop-color="#111111" />
      <stop offset="1" stop-color="#050505" />
    </linearGradient>
    <filter id="artShadow" x="-10%" y="-10%" width="120%" height="120%">
      <feDropShadow dx="0" dy="20" stdDeviation="24" flood-color="#000000" flood-opacity="0.24" />
    </filter>
  </defs>
  <rect x="0" y="0" width="1500" height="1500" fill="#FFFFFF" />
  <rect x="0" y="0" width="1500" height="1500" fill="url(#frameFace)" />
  <rect x="120" y="120" width="1260" height="1260" fill="#F8F7F3" />
  <rect x="120" y="120" width="1260" height="1260" fill="none" stroke="#000000" stroke-opacity="0.14" stroke-width="10" />
  <rect x="250" y="250" width="1000" height="1000" fill="#FFFFFF" filter="url(#artShadow)" />
  <rect x="250" y="250" width="125" height="125" fill="#000000" />
  <rect x="375" y="250" width="125" height="125" fill="#000000" />
  <rect x="500" y="250" width="125" height="125" fill="#2E2A47" />
  <rect x="625" y="250" width="125" height="125" fill="#2A1B4D" />
  <rect x="750" y="250" width="125" height="125" fill="#4B1F84" />
  <rect x="875" y="250" width="125" height="125" fill="#4F2E80" />
  <rect x="1000" y="250" width="125" height="125" fill="#5C3C8D" />
  <rect x="1125" y="250" width="125" height="125" fill="#B88D3C" />
  <rect x="250" y="375" width="125" height="125" fill="#2A1B4D" />
  <rect x="375" y="375" width="125" height="125" fill="#1F1045" />
  <rect x="500" y="375" width="125" height="125" fill="#3D2E6A" />
  <rect x="625" y="375" width="125" height="125" fill="#B9A580" />
  <rect x="750" y="375" width="125" height="125" fill="#788E62" />
  <rect x="875" y="375" width="125" height="125" fill="#EAE0BE" />
  <rect x="1000" y="375" width="125" height="125" fill="#4F2E80" />
  <rect x="1125" y="375" width="125" height="125" fill="#5C3C8D" />
  <rect x="250" y="500" width="125" height="125" fill="#444444" />
  <rect x="375" y="500" width="125" height="125" fill="#0E0F18" />
  <rect x="500" y="500" width="125" height="125" fill="#5B4D7A" />
  <rect x="625" y="500" width="125" height="125" fill="#3B4A2E" />
  <rect x="750" y="500" width="125" height="125" fill="#6C7F40" />
  <rect x="875" y="500" width="125" height="125" fill="#E1D9C1" />
  <rect x="1000" y="500" width="125" height="125" fill="#D4A852" />
  <rect x="1125" y="500" width="125" height="125" fill="#7B5E8A" />
  <rect x="250" y="625" width="125" height="125" fill="#5C3C8D" />
  <rect x="375" y="625" width="125" height="125" fill="#1F1045" />
  <rect x="500" y="625" width="125" height="125" fill="#2E2A47" />
  <rect x="625" y="625" width="125" height="125" fill="#3B4A2E" />
  <rect x="750" y="625" width="125" height="125" fill="#2A1B4D" />
  <rect x="875" y="625" width="125" height="125" fill="#B88D3C" />
  <rect x="1000" y="625" width="125" height="125" fill="#F0E1D4" />
  <rect x="1125" y="625" width="125" height="125" fill="#C1C1C1" />
  <rect x="250" y="750" width="125" height="125" fill="#6F2F68" />
  <rect x="375" y="750" width="125" height="125" fill="#1E2326" />
  <rect x="500" y="750" width="125" height="125" fill="#C99A83" />
  <rect x="625" y="750" width="125" height="125" fill="#B88D3C" />
  <rect x="750" y="750" width="125" height="125" fill="#4B1F84" />
  <rect x="875" y="750" width="125" height="125" fill="#B88D3C" />
  <rect x="1000" y="750" width="125" height="125" fill="#F6E7C1" />
  <rect x="1125" y="750" width="125" height="125" fill="#4F2E80" />
  <rect x="250" y="875" width="125" height="125" fill="#E1D9C1" />
  <rect x="375" y="875" width="125" height="125" fill="#B9A580" />
  <rect x="500" y="875" width="125" height="125" fill="#444444" />
  <rect x="625" y="875" width="125" height="125" fill="#F0E1D4" />
  <rect x="750" y="875" width="125" height="125" fill="#788E62" />
  <rect x="875" y="875" width="125" height="125" fill="#D4A852" />
  <rect x="1000" y="875" width="125" height="125" fill="#5B4D7A" />
  <rect x="1125" y="875" width="125" height="125" fill="#D4A852" />
  <rect x="250" y="1000" width="125" height="125" fill="#5C3C8D" />
  <rect x="375" y="1000" width="125" height="125" fill="#B1A68D" />
  <rect x="500" y="1000" width="125" height="125" fill="#1E2326" />
  <rect x="625" y="1000" width="125" height="125" fill="#3B4A2E" />
  <rect x="750" y="1000" width="125" height="125" fill="#E5DB88" />
  <rect x="875" y="1000" width="125" height="125" fill="#4F2E80" />
  <rect x="1000" y="1000" width="125" height="125" fill="#D4A852" />
  <rect x="1125" y="1000" width="125" height="125" fill="#B88D3C" />
  <rect x="250" y="1125" width="125" height="125" fill="#B88D3C" />
  <rect x="375" y="1125" width="125" height="125" fill="#2A1B4D" />
  <rect x="500" y="1125" width="125" height="125" fill="#4B1F84" />
  <rect x="625" y="1125" width="125" height="125" fill="#3B4A2E" />
  <rect x="750" y="1125" width="125" height="125" fill="#5C3C8D" />
  <rect x="875" y="1125" width="125" height="125" fill="#D4A852" />
  <rect x="1000" y="1125" width="125" height="125" fill="#C1C1C1" />
  <rect x="1125" y="1125" width="125" height="125" fill="#8A5D82" />
  <rect x="250" y="250" width="1000" height="1000" fill="none" stroke="#151515" stroke-opacity="0.16" stroke-width="2" />
</svg>
