<svg xmlns="http://www.w3.org/2000/svg" width="1500" height="1500" viewBox="0 0 1500 1500" shape-rendering="crispEdges" role="img" aria-labelledby="title desc">
  <title id="title">Ebb and Flow in Brown frame</title>
  <desc id="desc">Square Project artwork previewed in a brown frame.</desc>
  <defs>
    <linearGradient id="frameFace" x1="0" y1="0" x2="1" y2="1">
      <stop offset="0" stop-color="#C18A55" />
      <stop offset="0.32" stop-color="#9A6840" />
      <stop offset="0.68" stop-color="#70401F" />
      <stop offset="1" stop-color="#3F2413" />
    </linearGradient>
    <filter id="artShadow" x="-10%" y="-10%" width="120%" height="120%">
      <feDropShadow dx="0" dy="20" stdDeviation="24" flood-color="#000000" flood-opacity="0.24" />
    </filter>
  </defs>
  <rect x="0" y="0" width="1500" height="1500" fill="#FFFFFF" />
  <rect x="0" y="0" width="1500" height="1500" fill="url(#frameFace)" />
  <rect x="120" y="120" width="1260" height="1260" fill="#F8F7F3" />
  <rect x="120" y="120" width="1260" height="1260" fill="none" stroke="#000000" stroke-opacity="0.14" stroke-width="10" />
  <rect x="250" y="250" width="1000" height="1000" fill="#FFFFFF" filter="url(#artShadow)" />
  <rect x="250" y="250" width="125" height="125" fill="#7F4C3A" />
  <rect x="375" y="250" width="125" height="125" fill="#F9A639" />
  <rect x="500" y="250" width="125" height="125" fill="#D61A32" />
  <rect x="625" y="250" width="125" height="125" fill="#E07C5D" />
  <rect x="750" y="250" width="125" height="125" fill="#C2FF3E" />
  <rect x="875" y="250" width="125" height="125" fill="#F49F2A" />
  <rect x="1000" y="250" width="125" height="125" fill="#C45A2B" />
  <rect x="1125" y="250" width="125" height="125" fill="#FFB400" />
  <rect x="250" y="375" width="125" height="125" fill="#C85E3A" />
  <rect x="375" y="375" width="125" height="125" fill="#4E483A" />
  <rect x="500" y="375" width="125" height="125" fill="#82BF6D" />
  <rect x="625" y="375" width="125" height="125" fill="#4A5A41" />
  <rect x="750" y="375" width="125" height="125" fill="#BF441E" />
  <rect x="875" y="375" width="125" height="125" fill="#6C6C3D" />
  <rect x="1000" y="375" width="125" height="125" fill="#FFD700" />
  <rect x="1125" y="375" width="125" height="125" fill="#DAA520" />
  <rect x="250" y="500" width="125" height="125" fill="#A52A2A" />
  <rect x="375" y="500" width="125" height="125" fill="#B89C7A" />
  <rect x="500" y="500" width="125" height="125" fill="#8B4513" />
  <rect x="625" y="500" width="125" height="125" fill="#FAEBAE" />
  <rect x="750" y="500" width="125" height="125" fill="#FFDAB9" />
  <rect x="875" y="500" width="125" height="125" fill="#BC8F8F" />
  <rect x="1000" y="500" width="125" height="125" fill="#B22222" />
  <rect x="1125" y="500" width="125" height="125" fill="#FF4500" />
  <rect x="250" y="625" width="125" height="125" fill="#5D452B" />
  <rect x="375" y="625" width="125" height="125" fill="#694F30" />
  <rect x="500" y="625" width="125" height="125" fill="#FF6347" />
  <rect x="625" y="625" width="125" height="125" fill="#B22222" />
  <rect x="750" y="625" width="125" height="125" fill="#CD5C5C" />
  <rect x="875" y="625" width="125" height="125" fill="#FF6347" />
  <rect x="1000" y="625" width="125" height="125" fill="#B8860B" />
  <rect x="1125" y="625" width="125" height="125" fill="#8B0000" />
  <rect x="250" y="750" width="125" height="125" fill="#D2691E" />
  <rect x="375" y="750" width="125" height="125" fill="#FF8C00" />
  <rect x="500" y="750" width="125" height="125" fill="#F4A460" />
  <rect x="625" y="750" width="125" height="125" fill="#FA8072" />
  <rect x="750" y="750" width="125" height="125" fill="#B8860B" />
  <rect x="875" y="750" width="125" height="125" fill="#FFD700" />
  <rect x="1000" y="750" width="125" height="125" fill="#DDA0DD" />
  <rect x="1125" y="750" width="125" height="125" fill="#FFD700" />
  <rect x="250" y="875" width="125" height="125" fill="#FFFACD" />
  <rect x="375" y="875" width="125" height="125" fill="#91C4A0" />
  <rect x="500" y="875" width="125" height="125" fill="#FFA07A" />
  <rect x="625" y="875" width="125" height="125" fill="#DDA0DD" />
  <rect x="750" y="875" width="125" height="125" fill="#DAA520" />
  <rect x="875" y="875" width="125" height="125" fill="#CD853F" />
  <rect x="1000" y="875" width="125" height="125" fill="#7B68EE" />
  <rect x="1125" y="875" width="125" height="125" fill="#F4A460" />
  <rect x="250" y="1000" width="125" height="125" fill="#ADFF2F" />
  <rect x="375" y="1000" width="125" height="125" fill="#FFD700" />
  <rect x="500" y="1000" width="125" height="125" fill="#FFDAB9" />
  <rect x="625" y="1000" width="125" height="125" fill="#FFA500" />
  <rect x="750" y="1000" width="125" height="125" fill="#C8C8F0" />
  <rect x="875" y="1000" width="125" height="125" fill="#FFE4B5" />
  <rect x="1000" y="1000" width="125" height="125" fill="#B0C4DE" />
  <rect x="1125" y="1000" width="125" height="125" fill="#BC8F8F" />
  <rect x="250" y="1125" width="125" height="125" fill="#FFEFD5" />
  <rect x="375" y="1125" width="125" height="125" fill="#FAF0E6" />
  <rect x="500" y="1125" width="125" height="125" fill="#EEE8AA" />
  <rect x="625" y="1125" width="125" height="125" fill="#F5DEB3" />
  <rect x="750" y="1125" width="125" height="125" fill="#DEB887" />
  <rect x="875" y="1125" width="125" height="125" fill="#F4A460" />
  <rect x="1000" y="1125" width="125" height="125" fill="#D8BFD8" />
  <rect x="1125" y="1125" width="125" height="125" fill="#FFF0F5" />
  <rect x="250" y="250" width="1000" height="1000" fill="none" stroke="#151515" stroke-opacity="0.16" stroke-width="2" />
</svg>
