<svg xmlns="http://www.w3.org/2000/svg" width="1500" height="1500" viewBox="0 0 1500 1500" shape-rendering="crispEdges" role="img" aria-labelledby="title desc">
  <title id="title">Center of Tension in Brown frame</title>
  <desc id="desc">Square Project artwork previewed in a brown frame.</desc>
  <rect x="0" y="0" width="1500" height="1500" fill="#FFFFFF" />
  <image href="https://mysquareart.com/frames/brown.jpg" x="0" y="0" width="1500" height="1500" preserveAspectRatio="xMidYMid meet" />
  <rect x="250" y="250" width="1000" height="1000" fill="#FFFFFF" />
  <rect x="250" y="250" width="125" height="125" fill="#001F3F" />
  <rect x="375" y="250" width="125" height="125" fill="#051A3E" />
  <rect x="500" y="250" width="125" height="125" fill="#032B44" />
  <rect x="625" y="250" width="125" height="125" fill="#21B5E0" />
  <rect x="750" y="250" width="125" height="125" fill="#76D1D6" />
  <rect x="875" y="250" width="125" height="125" fill="#39CBB3" />
  <rect x="1000" y="250" width="125" height="125" fill="#12A49B" />
  <rect x="1125" y="250" width="125" height="125" fill="#0F7E7D" />
  <rect x="250" y="375" width="125" height="125" fill="#000000" />
  <rect x="375" y="375" width="125" height="125" fill="#274F75" />
  <rect x="500" y="375" width="125" height="125" fill="#036B7C" />
  <rect x="625" y="375" width="125" height="125" fill="#38A19B" />
  <rect x="750" y="375" width="125" height="125" fill="#87DBB1" />
  <rect x="875" y="375" width="125" height="125" fill="#B7F8E0" />
  <rect x="1000" y="375" width="125" height="125" fill="#126A65" />
  <rect x="1125" y="375" width="125" height="125" fill="#005B57" />
  <rect x="250" y="500" width="125" height="125" fill="#002B26" />
  <rect x="375" y="500" width="125" height="125" fill="#004F4A" />
  <rect x="500" y="500" width="125" height="125" fill="#A5D3DE" />
  <rect x="625" y="500" width="125" height="125" fill="#5BC6B1" />
  <rect x="750" y="500" width="125" height="125" fill="#A8D39A" />
  <rect x="875" y="500" width="125" height="125" fill="#0A817F" />
  <rect x="1000" y="500" width="125" height="125" fill="#001E1F" />
  <rect x="1125" y="500" width="125" height="125" fill="#71B1B3" />
  <rect x="250" y="625" width="125" height="125" fill="#B0E0D0" />
  <rect x="375" y="625" width="125" height="125" fill="#77C4C0" />
  <rect x="500" y="625" width="125" height="125" fill="#20B3A5" />
  <rect x="625" y="625" width="125" height="125" fill="#000000" />
  <rect x="750" y="625" width="125" height="125" fill="#4BEBD8" />
  <rect x="875" y="625" width="125" height="125" fill="#005D56" />
  <rect x="1000" y="625" width="125" height="125" fill="#001F20" />
  <rect x="1125" y="625" width="125" height="125" fill="#003C3F" />
  <rect x="250" y="750" width="125" height="125" fill="#003B3D" />
  <rect x="375" y="750" width="125" height="125" fill="#169B99" />
  <rect x="500" y="750" width="125" height="125" fill="#00C7B3" />
  <rect x="625" y="750" width="125" height="125" fill="#007E80" />
  <rect x="750" y="750" width="125" height="125" fill="#00705D" />
  <rect x="875" y="750" width="125" height="125" fill="#003A3F" />
  <rect x="1000" y="750" width="125" height="125" fill="#001F3F" />
  <rect x="1125" y="750" width="125" height="125" fill="#025B5B" />
  <rect x="250" y="875" width="125" height="125" fill="#0C7F7F" />
  <rect x="375" y="875" width="125" height="125" fill="#3D9F99" />
  <rect x="500" y="875" width="125" height="125" fill="#6BC5B9" />
  <rect x="625" y="875" width="125" height="125" fill="#00A78E" />
  <rect x="750" y="875" width="125" height="125" fill="#2D5B5B" />
  <rect x="875" y="875" width="125" height="125" fill="#000000" />
  <rect x="1000" y="875" width="125" height="125" fill="#014D4D" />
  <rect x="1125" y="875" width="125" height="125" fill="#000000" />
  <rect x="250" y="1000" width="125" height="125" fill="#00A39B" />
  <rect x="375" y="1000" width="125" height="125" fill="#005E5F" />
  <rect x="500" y="1000" width="125" height="125" fill="#00BFB1" />
  <rect x="625" y="1000" width="125" height="125" fill="#4C9794" />
  <rect x="750" y="1000" width="125" height="125" fill="#007C83" />
  <rect x="875" y="1000" width="125" height="125" fill="#004F4F" />
  <rect x="1000" y="1000" width="125" height="125" fill="#002D2D" />
  <rect x="1125" y="1000" width="125" height="125" fill="#001C1C" />
  <rect x="250" y="1125" width="125" height="125" fill="#002F38" />
  <rect x="375" y="1125" width="125" height="125" fill="#004848" />
  <rect x="500" y="1125" width="125" height="125" fill="#003839" />
  <rect x="625" y="1125" width="125" height="125" fill="#004B4D" />
  <rect x="750" y="1125" width="125" height="125" fill="#005B5B" />
  <rect x="875" y="1125" width="125" height="125" fill="#007A7A" />
  <rect x="1000" y="1125" width="125" height="125" fill="#006C6C" />
  <rect x="1125" y="1125" width="125" height="125" fill="#000000" />
  <rect x="250" y="250" width="1000" height="1000" fill="none" stroke="#151515" stroke-opacity="0.16" stroke-width="2" />
</svg>
