<svg xmlns="http://www.w3.org/2000/svg" width="1500" height="1500" viewBox="0 0 1500 1500" shape-rendering="crispEdges" role="img" aria-labelledby="title desc">
  <title id="title">Tension and Balance in Brown frame</title>
  <desc id="desc">Square Project artwork previewed in a brown frame.</desc>
  <defs>
    <linearGradient id="frameFace" x1="0" y1="0" x2="1" y2="1">
      <stop offset="0" stop-color="#C18A55" />
      <stop offset="0.32" stop-color="#9A6840" />
      <stop offset="0.68" stop-color="#70401F" />
      <stop offset="1" stop-color="#3F2413" />
    </linearGradient>
    <filter id="artShadow" x="-10%" y="-10%" width="120%" height="120%">
      <feDropShadow dx="0" dy="20" stdDeviation="24" flood-color="#000000" flood-opacity="0.24" />
    </filter>
  </defs>
  <rect x="0" y="0" width="1500" height="1500" fill="#FFFFFF" />
  <rect x="0" y="0" width="1500" height="1500" fill="url(#frameFace)" />
  <rect x="120" y="120" width="1260" height="1260" fill="#F8F7F3" />
  <rect x="120" y="120" width="1260" height="1260" fill="none" stroke="#000000" stroke-opacity="0.14" stroke-width="10" />
  <rect x="250" y="250" width="1000" height="1000" fill="#FFFFFF" filter="url(#artShadow)" />
  <rect x="250" y="250" width="125" height="125" fill="#FF0000" />
  <rect x="375" y="250" width="125" height="125" fill="#FF4C4C" />
  <rect x="500" y="250" width="125" height="125" fill="#FF9999" />
  <rect x="625" y="250" width="125" height="125" fill="#FFFFFF" />
  <rect x="750" y="250" width="125" height="125" fill="#99CCFF" />
  <rect x="875" y="250" width="125" height="125" fill="#4C99FF" />
  <rect x="1000" y="250" width="125" height="125" fill="#004CFF" />
  <rect x="1125" y="250" width="125" height="125" fill="#0000FF" />
  <rect x="250" y="375" width="125" height="125" fill="#FF0000" />
  <rect x="375" y="375" width="125" height="125" fill="#FF2A2A" />
  <rect x="500" y="375" width="125" height="125" fill="#FF7A7A" />
  <rect x="625" y="375" width="125" height="125" fill="#FFFFFF" />
  <rect x="750" y="375" width="125" height="125" fill="#99CCFF" />
  <rect x="875" y="375" width="125" height="125" fill="#007FFF" />
  <rect x="1000" y="375" width="125" height="125" fill="#004CFF" />
  <rect x="1125" y="375" width="125" height="125" fill="#0000FF" />
  <rect x="250" y="500" width="125" height="125" fill="#FF0000" />
  <rect x="375" y="500" width="125" height="125" fill="#FF3F3F" />
  <rect x="500" y="500" width="125" height="125" fill="#FF8C8C" />
  <rect x="625" y="500" width="125" height="125" fill="#FFFFFF" />
  <rect x="750" y="500" width="125" height="125" fill="#99CCFF" />
  <rect x="875" y="500" width="125" height="125" fill="#0099CC" />
  <rect x="1000" y="500" width="125" height="125" fill="#007FFF" />
  <rect x="1125" y="500" width="125" height="125" fill="#0000FF" />
  <rect x="250" y="625" width="125" height="125" fill="#FF0000" />
  <rect x="375" y="625" width="125" height="125" fill="#E63939" />
  <rect x="500" y="625" width="125" height="125" fill="#FFC3C3" />
  <rect x="625" y="625" width="125" height="125" fill="#FFFFFF" />
  <rect x="750" y="625" width="125" height="125" fill="#CCDDFF" />
  <rect x="875" y="625" width="125" height="125" fill="#00A4C2" />
  <rect x="1000" y="625" width="125" height="125" fill="#006BA6" />
  <rect x="1125" y="625" width="125" height="125" fill="#0000FF" />
  <rect x="250" y="750" width="125" height="125" fill="#FF0000" />
  <rect x="375" y="750" width="125" height="125" fill="#D03030" />
  <rect x="500" y="750" width="125" height="125" fill="#FFB0B0" />
  <rect x="625" y="750" width="125" height="125" fill="#FFFFFF" />
  <rect x="750" y="750" width="125" height="125" fill="#AEDDFF" />
  <rect x="875" y="750" width="125" height="125" fill="#005B88" />
  <rect x="1000" y="750" width="125" height="125" fill="#005B88" />
  <rect x="1125" y="750" width="125" height="125" fill="#0000FF" />
  <rect x="250" y="875" width="125" height="125" fill="#FF0000" />
  <rect x="375" y="875" width="125" height="125" fill="#AA1414" />
  <rect x="500" y="875" width="125" height="125" fill="#FFC1C1" />
  <rect x="625" y="875" width="125" height="125" fill="#FFFFFF" />
  <rect x="750" y="875" width="125" height="125" fill="#B7E4F9" />
  <rect x="875" y="875" width="125" height="125" fill="#004472" />
  <rect x="1000" y="875" width="125" height="125" fill="#004B72" />
  <rect x="1125" y="875" width="125" height="125" fill="#0000FF" />
  <rect x="250" y="1000" width="125" height="125" fill="#FF0000" />
  <rect x="375" y="1000" width="125" height="125" fill="#9A0F0F" />
  <rect x="500" y="1000" width="125" height="125" fill="#FF9696" />
  <rect x="625" y="1000" width="125" height="125" fill="#FFFFFF" />
  <rect x="750" y="1000" width="125" height="125" fill="#92B2CC" />
  <rect x="875" y="1000" width="125" height="125" fill="#007C8D" />
  <rect x="1000" y="1000" width="125" height="125" fill="#00364A" />
  <rect x="1125" y="1000" width="125" height="125" fill="#0000FF" />
  <rect x="250" y="1125" width="125" height="125" fill="#FF0000" />
  <rect x="375" y="1125" width="125" height="125" fill="#7E0E0E" />
  <rect x="500" y="1125" width="125" height="125" fill="#FF7F7F" />
  <rect x="625" y="1125" width="125" height="125" fill="#FFFFFF" />
  <rect x="750" y="1125" width="125" height="125" fill="#005570" />
  <rect x="875" y="1125" width="125" height="125" fill="#004CFF" />
  <rect x="1000" y="1125" width="125" height="125" fill="#002B47" />
  <rect x="1125" y="1125" width="125" height="125" fill="#0000FF" />
  <rect x="250" y="250" width="1000" height="1000" fill="none" stroke="#151515" stroke-opacity="0.16" stroke-width="2" />
</svg>
