<svg xmlns="http://www.w3.org/2000/svg" width="1500" height="1500" viewBox="0 0 1500 1500" shape-rendering="crispEdges" role="img" aria-labelledby="title desc">
  <title id="title">Tension of Emotion in Black frame</title>
  <desc id="desc">Square Project artwork previewed in a black frame.</desc>
  <defs>
    <linearGradient id="frameFace" x1="0" y1="0" x2="1" y2="1">
      <stop offset="0" stop-color="#6A6A6A" />
      <stop offset="0.32" stop-color="#343434" />
      <stop offset="0.68" stop-color="#111111" />
      <stop offset="1" stop-color="#050505" />
    </linearGradient>
    <filter id="artShadow" x="-10%" y="-10%" width="120%" height="120%">
      <feDropShadow dx="0" dy="20" stdDeviation="24" flood-color="#000000" flood-opacity="0.24" />
    </filter>
  </defs>
  <rect x="0" y="0" width="1500" height="1500" fill="#FFFFFF" />
  <rect x="0" y="0" width="1500" height="1500" fill="url(#frameFace)" />
  <rect x="120" y="120" width="1260" height="1260" fill="#F8F7F3" />
  <rect x="120" y="120" width="1260" height="1260" fill="none" stroke="#000000" stroke-opacity="0.14" stroke-width="10" />
  <rect x="250" y="250" width="1000" height="1000" fill="#FFFFFF" filter="url(#artShadow)" />
  <rect x="250" y="250" width="125" height="125" fill="#FFF2A0" />
  <rect x="375" y="250" width="125" height="125" fill="#FCD734" />
  <rect x="500" y="250" width="125" height="125" fill="#FFC300" />
  <rect x="625" y="250" width="125" height="125" fill="#FFC700" />
  <rect x="750" y="250" width="125" height="125" fill="#C9A700" />
  <rect x="875" y="250" width="125" height="125" fill="#BC9D00" />
  <rect x="1000" y="250" width="125" height="125" fill="#B09D00" />
  <rect x="1125" y="250" width="125" height="125" fill="#A48B00" />
  <rect x="250" y="375" width="125" height="125" fill="#BFAF00" />
  <rect x="375" y="375" width="125" height="125" fill="#FFDA73" />
  <rect x="500" y="375" width="125" height="125" fill="#FFE1A5" />
  <rect x="625" y="375" width="125" height="125" fill="#FFEDBF" />
  <rect x="750" y="375" width="125" height="125" fill="#A8D0E1" />
  <rect x="875" y="375" width="125" height="125" fill="#7BA7C8" />
  <rect x="1000" y="375" width="125" height="125" fill="#4A7A9D" />
  <rect x="1125" y="375" width="125" height="125" fill="#00076D" />
  <rect x="250" y="500" width="125" height="125" fill="#001F59" />
  <rect x="375" y="500" width="125" height="125" fill="#003576" />
  <rect x="500" y="500" width="125" height="125" fill="#00528A" />
  <rect x="625" y="500" width="125" height="125" fill="#006EAD" />
  <rect x="750" y="500" width="125" height="125" fill="#0071C5" />
  <rect x="875" y="500" width="125" height="125" fill="#B09DAC" />
  <rect x="1000" y="500" width="125" height="125" fill="#E5D5B8" />
  <rect x="1125" y="500" width="125" height="125" fill="#8A8A8A" />
  <rect x="250" y="625" width="125" height="125" fill="#003E76" />
  <rect x="375" y="625" width="125" height="125" fill="#005C99" />
  <rect x="500" y="625" width="125" height="125" fill="#0084B2" />
  <rect x="625" y="625" width="125" height="125" fill="#00707D" />
  <rect x="750" y="625" width="125" height="125" fill="#5C7D94" />
  <rect x="875" y="625" width="125" height="125" fill="#8C93B7" />
  <rect x="1000" y="625" width="125" height="125" fill="#B4C4D6" />
  <rect x="1125" y="625" width="125" height="125" fill="#000000" />
  <rect x="250" y="750" width="125" height="125" fill="#1B76A5" />
  <rect x="375" y="750" width="125" height="125" fill="#3E9EC4" />
  <rect x="500" y="750" width="125" height="125" fill="#62B9D3" />
  <rect x="625" y="750" width="125" height="125" fill="#86D4E0" />
  <rect x="750" y="750" width="125" height="125" fill="#A0D6DB" />
  <rect x="875" y="750" width="125" height="125" fill="#3A4B5A" />
  <rect x="1000" y="750" width="125" height="125" fill="#2A3A4B" />
  <rect x="1125" y="750" width="125" height="125" fill="#3D4E5A" />
  <rect x="250" y="875" width="125" height="125" fill="#0C4B6B" />
  <rect x="375" y="875" width="125" height="125" fill="#004B8D" />
  <rect x="500" y="875" width="125" height="125" fill="#00578F" />
  <rect x="625" y="875" width="125" height="125" fill="#00679F" />
  <rect x="750" y="875" width="125" height="125" fill="#0A7EAB" />
  <rect x="875" y="875" width="125" height="125" fill="#D8CFC6" />
  <rect x="1000" y="875" width="125" height="125" fill="#D3B1BB" />
  <rect x="1125" y="875" width="125" height="125" fill="#B19DA0" />
  <rect x="250" y="1000" width="125" height="125" fill="#CAC4C9" />
  <rect x="375" y="1000" width="125" height="125" fill="#C0B7BB" />
  <rect x="500" y="1000" width="125" height="125" fill="#B3AAB1" />
  <rect x="625" y="1000" width="125" height="125" fill="#A8A095" />
  <rect x="750" y="1000" width="125" height="125" fill="#A29288" />
  <rect x="875" y="1000" width="125" height="125" fill="#978A7D" />
  <rect x="1000" y="1000" width="125" height="125" fill="#8B7F73" />
  <rect x="1125" y="1000" width="125" height="125" fill="#DAD3D1" />
  <rect x="250" y="1125" width="125" height="125" fill="#8A8A8A" />
  <rect x="375" y="1125" width="125" height="125" fill="#7B7B7B" />
  <rect x="500" y="1125" width="125" height="125" fill="#6C6C6C" />
  <rect x="625" y="1125" width="125" height="125" fill="#5D5D5D" />
  <rect x="750" y="1125" width="125" height="125" fill="#4E4E4E" />
  <rect x="875" y="1125" width="125" height="125" fill="#3F3F3F" />
  <rect x="1000" y="1125" width="125" height="125" fill="#2D2D2D" />
  <rect x="1125" y="1125" width="125" height="125" fill="#1C1C1C" />
  <rect x="250" y="250" width="1000" height="1000" fill="none" stroke="#151515" stroke-opacity="0.16" stroke-width="2" />
</svg>
