<svg xmlns="http://www.w3.org/2000/svg" width="1500" height="1500" viewBox="0 0 1500 1500" shape-rendering="crispEdges" role="img" aria-labelledby="title desc">
  <title id="title">Conflicted Symmetry in Brown frame</title>
  <desc id="desc">Square Project artwork previewed in a brown frame.</desc>
  <defs>
    <linearGradient id="frameFace" x1="0" y1="0" x2="1" y2="1">
      <stop offset="0" stop-color="#C18A55" />
      <stop offset="0.32" stop-color="#9A6840" />
      <stop offset="0.68" stop-color="#70401F" />
      <stop offset="1" stop-color="#3F2413" />
    </linearGradient>
    <filter id="artShadow" x="-10%" y="-10%" width="120%" height="120%">
      <feDropShadow dx="0" dy="20" stdDeviation="24" flood-color="#000000" flood-opacity="0.24" />
    </filter>
  </defs>
  <rect x="0" y="0" width="1500" height="1500" fill="#FFFFFF" />
  <rect x="0" y="0" width="1500" height="1500" fill="url(#frameFace)" />
  <rect x="120" y="120" width="1260" height="1260" fill="#F8F7F3" />
  <rect x="120" y="120" width="1260" height="1260" fill="none" stroke="#000000" stroke-opacity="0.14" stroke-width="10" />
  <rect x="250" y="250" width="1000" height="1000" fill="#FFFFFF" filter="url(#artShadow)" />
  <rect x="250" y="250" width="125" height="125" fill="#541A1D" />
  <rect x="375" y="250" width="125" height="125" fill="#FF6F61" />
  <rect x="500" y="250" width="125" height="125" fill="#D9BE5A" />
  <rect x="625" y="250" width="125" height="125" fill="#4D2C2A" />
  <rect x="750" y="250" width="125" height="125" fill="#4B9FC3" />
  <rect x="875" y="250" width="125" height="125" fill="#F7CBA0" />
  <rect x="1000" y="250" width="125" height="125" fill="#2F3B17" />
  <rect x="1125" y="250" width="125" height="125" fill="#A73F30" />
  <rect x="250" y="375" width="125" height="125" fill="#A73F30" />
  <rect x="375" y="375" width="125" height="125" fill="#522A2D" />
  <rect x="500" y="375" width="125" height="125" fill="#B8C3B4" />
  <rect x="625" y="375" width="125" height="125" fill="#E1F2D7" />
  <rect x="750" y="375" width="125" height="125" fill="#C2BAF6" />
  <rect x="875" y="375" width="125" height="125" fill="#564A23" />
  <rect x="1000" y="375" width="125" height="125" fill="#3C5A60" />
  <rect x="1125" y="375" width="125" height="125" fill="#F67996" />
  <rect x="250" y="500" width="125" height="125" fill="#F67762" />
  <rect x="375" y="500" width="125" height="125" fill="#453F3E" />
  <rect x="500" y="500" width="125" height="125" fill="#9A6D5D" />
  <rect x="625" y="500" width="125" height="125" fill="#783B5D" />
  <rect x="750" y="500" width="125" height="125" fill="#F1A0C3" />
  <rect x="875" y="500" width="125" height="125" fill="#C1B2A6" />
  <rect x="1000" y="500" width="125" height="125" fill="#A37F62" />
  <rect x="1125" y="500" width="125" height="125" fill="#C47270" />
  <rect x="250" y="625" width="125" height="125" fill="#3A193E" />
  <rect x="375" y="625" width="125" height="125" fill="#DAA66D" />
  <rect x="500" y="625" width="125" height="125" fill="#1E365B" />
  <rect x="625" y="625" width="125" height="125" fill="#6B1D30" />
  <rect x="750" y="625" width="125" height="125" fill="#3A5D3E" />
  <rect x="875" y="625" width="125" height="125" fill="#B56A3D" />
  <rect x="1000" y="625" width="125" height="125" fill="#EDDCC5" />
  <rect x="1125" y="625" width="125" height="125" fill="#63585E" />
  <rect x="250" y="750" width="125" height="125" fill="#5E468D" />
  <rect x="375" y="750" width="125" height="125" fill="#B8757E" />
  <rect x="500" y="750" width="125" height="125" fill="#FFBF4D" />
  <rect x="625" y="750" width="125" height="125" fill="#E0485D" />
  <rect x="750" y="750" width="125" height="125" fill="#C86E5A" />
  <rect x="875" y="750" width="125" height="125" fill="#AA8C86" />
  <rect x="1000" y="750" width="125" height="125" fill="#E6AF5D" />
  <rect x="1125" y="750" width="125" height="125" fill="#7C3728" />
  <rect x="250" y="875" width="125" height="125" fill="#DAA66D" />
  <rect x="375" y="875" width="125" height="125" fill="#F1A0C3" />
  <rect x="500" y="875" width="125" height="125" fill="#442B3F" />
  <rect x="625" y="875" width="125" height="125" fill="#A16741" />
  <rect x="750" y="875" width="125" height="125" fill="#D84C3D" />
  <rect x="875" y="875" width="125" height="125" fill="#4B3F4F" />
  <rect x="1000" y="875" width="125" height="125" fill="#C1B2A6" />
  <rect x="1125" y="875" width="125" height="125" fill="#8A635A" />
  <rect x="250" y="1000" width="125" height="125" fill="#6DF48E" />
  <rect x="375" y="1000" width="125" height="125" fill="#D5A3A6" />
  <rect x="500" y="1000" width="125" height="125" fill="#9B1D30" />
  <rect x="625" y="1000" width="125" height="125" fill="#3F7A87" />
  <rect x="750" y="1000" width="125" height="125" fill="#F7D62D" />
  <rect x="875" y="1000" width="125" height="125" fill="#CBE4D9" />
  <rect x="1000" y="1000" width="125" height="125" fill="#B15537" />
  <rect x="1125" y="1000" width="125" height="125" fill="#A67C9F" />
  <rect x="250" y="1125" width="125" height="125" fill="#46221C" />
  <rect x="375" y="1125" width="125" height="125" fill="#FF6F61" />
  <rect x="500" y="1125" width="125" height="125" fill="#DAA66D" />
  <rect x="625" y="1125" width="125" height="125" fill="#5E4C32" />
  <rect x="750" y="1125" width="125" height="125" fill="#FFC84D" />
  <rect x="875" y="1125" width="125" height="125" fill="#A1DF6D" />
  <rect x="1000" y="1125" width="125" height="125" fill="#E5BDEF" />
  <rect x="1125" y="1125" width="125" height="125" fill="#F67996" />
  <rect x="250" y="250" width="1000" height="1000" fill="none" stroke="#151515" stroke-opacity="0.16" stroke-width="2" />
</svg>
