<svg xmlns="http://www.w3.org/2000/svg" width="1500" height="1500" viewBox="0 0 1500 1500" shape-rendering="crispEdges" role="img" aria-labelledby="title desc">
  <title id="title">Echo of Tension in Natural frame</title>
  <desc id="desc">Square Project artwork previewed in a natural frame.</desc>
  <rect x="0" y="0" width="1500" height="1500" fill="#FFFFFF" />
  <image href="https://mysquareart.com/frames/natural.jpg" x="0" y="0" width="1500" height="1500" preserveAspectRatio="xMidYMid meet" />
  <rect x="250" y="250" width="1000" height="1000" fill="#FFFFFF" />
  <rect x="250" y="250" width="125" height="125" fill="#4B3D3D" />
  <rect x="375" y="250" width="125" height="125" fill="#E6D8B6" />
  <rect x="500" y="250" width="125" height="125" fill="#F8E5D1" />
  <rect x="625" y="250" width="125" height="125" fill="#7B6B5D" />
  <rect x="750" y="250" width="125" height="125" fill="#4F4644" />
  <rect x="875" y="250" width="125" height="125" fill="#8C7B5E" />
  <rect x="1000" y="250" width="125" height="125" fill="#F4C8B4" />
  <rect x="1125" y="250" width="125" height="125" fill="#F8E5D1" />
  <rect x="250" y="375" width="125" height="125" fill="#6F5F5C" />
  <rect x="375" y="375" width="125" height="125" fill="#C2B79E" />
  <rect x="500" y="375" width="125" height="125" fill="#FFD1B3" />
  <rect x="625" y="375" width="125" height="125" fill="#B5A99B" />
  <rect x="750" y="375" width="125" height="125" fill="#A67356" />
  <rect x="875" y="375" width="125" height="125" fill="#D7CDE3" />
  <rect x="1000" y="375" width="125" height="125" fill="#F7F2E1" />
  <rect x="1125" y="375" width="125" height="125" fill="#DFCFC8" />
  <rect x="250" y="500" width="125" height="125" fill="#2D2928" />
  <rect x="375" y="500" width="125" height="125" fill="#E8E1D2" />
  <rect x="500" y="500" width="125" height="125" fill="#B5937B" />
  <rect x="625" y="500" width="125" height="125" fill="#7D5D4A" />
  <rect x="750" y="500" width="125" height="125" fill="#E0A8A8" />
  <rect x="875" y="500" width="125" height="125" fill="#FFDCBA" />
  <rect x="1000" y="500" width="125" height="125" fill="#C2B2AE" />
  <rect x="1125" y="500" width="125" height="125" fill="#8B7B6C" />
  <rect x="250" y="625" width="125" height="125" fill="#3B312E" />
  <rect x="375" y="625" width="125" height="125" fill="#D6C6B4" />
  <rect x="500" y="625" width="125" height="125" fill="#DECFBD" />
  <rect x="625" y="625" width="125" height="125" fill="#F4E7E0" />
  <rect x="750" y="625" width="125" height="125" fill="#A77C6D" />
  <rect x="875" y="625" width="125" height="125" fill="#B7AB90" />
  <rect x="1000" y="625" width="125" height="125" fill="#4A4440" />
  <rect x="1125" y="625" width="125" height="125" fill="#B3A594" />
  <rect x="250" y="750" width="125" height="125" fill="#573535" />
  <rect x="375" y="750" width="125" height="125" fill="#F00A0A" />
  <rect x="500" y="750" width="125" height="125" fill="#F4C8A9" />
  <rect x="625" y="750" width="125" height="125" fill="#E9CFD3" />
  <rect x="750" y="750" width="125" height="125" fill="#B8B8B8" />
  <rect x="875" y="750" width="125" height="125" fill="#C0B094" />
  <rect x="1000" y="750" width="125" height="125" fill="#B1B6A5" />
  <rect x="1125" y="750" width="125" height="125" fill="#EBD6C0" />
  <rect x="250" y="875" width="125" height="125" fill="#2F2626" />
  <rect x="375" y="875" width="125" height="125" fill="#E9CFCF" />
  <rect x="500" y="875" width="125" height="125" fill="#FFAD86" />
  <rect x="625" y="875" width="125" height="125" fill="#B88F7F" />
  <rect x="750" y="875" width="125" height="125" fill="#44221D" />
  <rect x="875" y="875" width="125" height="125" fill="#DEB3A0" />
  <rect x="1000" y="875" width="125" height="125" fill="#E3D1D1" />
  <rect x="1125" y="875" width="125" height="125" fill="#F0E4D2" />
  <rect x="250" y="1000" width="125" height="125" fill="#1D1A1A" />
  <rect x="375" y="1000" width="125" height="125" fill="#FF0000" />
  <rect x="500" y="1000" width="125" height="125" fill="#FFD3AA" />
  <rect x="625" y="1000" width="125" height="125" fill="#F7B3AB" />
  <rect x="750" y="1000" width="125" height="125" fill="#61656B" />
  <rect x="875" y="1000" width="125" height="125" fill="#E3DBD0" />
  <rect x="1000" y="1000" width="125" height="125" fill="#D4C7B6" />
  <rect x="1125" y="1000" width="125" height="125" fill="#E0D8C4" />
  <rect x="250" y="1125" width="125" height="125" fill="#191818" />
  <rect x="375" y="1125" width="125" height="125" fill="#E9D8CB" />
  <rect x="500" y="1125" width="125" height="125" fill="#FDF9F6" />
  <rect x="625" y="1125" width="125" height="125" fill="#F1DBD0" />
  <rect x="750" y="1125" width="125" height="125" fill="#B84E46" />
  <rect x="875" y="1125" width="125" height="125" fill="#D1B3A0" />
  <rect x="1000" y="1125" width="125" height="125" fill="#DFDCD5" />
  <rect x="1125" y="1125" width="125" height="125" fill="#C2AE9F" />
  <rect x="250" y="250" width="1000" height="1000" fill="none" stroke="#151515" stroke-opacity="0.16" stroke-width="2" />
</svg>
