<svg xmlns="http://www.w3.org/2000/svg" width="1500" height="1500" viewBox="0 0 1500 1500" shape-rendering="crispEdges" role="img" aria-labelledby="title desc">
  <title id="title">Dynamic Tension in Natural frame</title>
  <desc id="desc">Square Project artwork previewed in a natural frame.</desc>
  <defs>
    <linearGradient id="frameFace" x1="0" y1="0" x2="1" y2="1">
      <stop offset="0" stop-color="#8F6F35" />
      <stop offset="0.32" stop-color="#F0DDAA" />
      <stop offset="0.68" stop-color="#D8C190" />
      <stop offset="1" stop-color="#B39155" />
    </linearGradient>
    <filter id="artShadow" x="-10%" y="-10%" width="120%" height="120%">
      <feDropShadow dx="0" dy="20" stdDeviation="24" flood-color="#000000" flood-opacity="0.24" />
    </filter>
  </defs>
  <rect x="0" y="0" width="1500" height="1500" fill="#FFFFFF" />
  <rect x="0" y="0" width="1500" height="1500" fill="url(#frameFace)" />
  <rect x="120" y="120" width="1260" height="1260" fill="#F8F7F3" />
  <rect x="120" y="120" width="1260" height="1260" fill="none" stroke="#000000" stroke-opacity="0.14" stroke-width="10" />
  <rect x="250" y="250" width="1000" height="1000" fill="#FFFFFF" filter="url(#artShadow)" />
  <rect x="250" y="250" width="125" height="125" fill="#C94A0A" />
  <rect x="375" y="250" width="125" height="125" fill="#D36D2F" />
  <rect x="500" y="250" width="125" height="125" fill="#D69A25" />
  <rect x="625" y="250" width="125" height="125" fill="#A66E0D" />
  <rect x="750" y="250" width="125" height="125" fill="#A49500" />
  <rect x="875" y="250" width="125" height="125" fill="#A68A13" />
  <rect x="1000" y="250" width="125" height="125" fill="#A5A500" />
  <rect x="1125" y="250" width="125" height="125" fill="#BCA300" />
  <rect x="250" y="375" width="125" height="125" fill="#A04B09" />
  <rect x="375" y="375" width="125" height="125" fill="#7B3E05" />
  <rect x="500" y="375" width="125" height="125" fill="#8A5B14" />
  <rect x="625" y="375" width="125" height="125" fill="#A75F0C" />
  <rect x="750" y="375" width="125" height="125" fill="#C1A000" />
  <rect x="875" y="375" width="125" height="125" fill="#E2B510" />
  <rect x="1000" y="375" width="125" height="125" fill="#C67E00" />
  <rect x="1125" y="375" width="125" height="125" fill="#B57418" />
  <rect x="250" y="500" width="125" height="125" fill="#B05208" />
  <rect x="375" y="500" width="125" height="125" fill="#DA8A30" />
  <rect x="500" y="500" width="125" height="125" fill="#A49011" />
  <rect x="625" y="500" width="125" height="125" fill="#858D00" />
  <rect x="750" y="500" width="125" height="125" fill="#8D6B08" />
  <rect x="875" y="500" width="125" height="125" fill="#6E4A04" />
  <rect x="1000" y="500" width="125" height="125" fill="#7A5722" />
  <rect x="1125" y="500" width="125" height="125" fill="#8C7B0E" />
  <rect x="250" y="625" width="125" height="125" fill="#D8550B" />
  <rect x="375" y="625" width="125" height="125" fill="#D80E03" />
  <rect x="500" y="625" width="125" height="125" fill="#A41E03" />
  <rect x="625" y="625" width="125" height="125" fill="#B0270C" />
  <rect x="750" y="625" width="125" height="125" fill="#6B3B00" />
  <rect x="875" y="625" width="125" height="125" fill="#5A6203" />
  <rect x="1000" y="625" width="125" height="125" fill="#4C3C03" />
  <rect x="1125" y="625" width="125" height="125" fill="#4D4904" />
  <rect x="250" y="750" width="125" height="125" fill="#F7B18C" />
  <rect x="375" y="750" width="125" height="125" fill="#F29A0D" />
  <rect x="500" y="750" width="125" height="125" fill="#E87408" />
  <rect x="625" y="750" width="125" height="125" fill="#D85E03" />
  <rect x="750" y="750" width="125" height="125" fill="#B95506" />
  <rect x="875" y="750" width="125" height="125" fill="#D01100" />
  <rect x="1000" y="750" width="125" height="125" fill="#B53A1A" />
  <rect x="1125" y="750" width="125" height="125" fill="#C55A0A" />
  <rect x="250" y="875" width="125" height="125" fill="#7A7A7A" />
  <rect x="375" y="875" width="125" height="125" fill="#555555" />
  <rect x="500" y="875" width="125" height="125" fill="#444E4E" />
  <rect x="625" y="875" width="125" height="125" fill="#333E3E" />
  <rect x="750" y="875" width="125" height="125" fill="#222D2D" />
  <rect x="875" y="875" width="125" height="125" fill="#111B1B" />
  <rect x="1000" y="875" width="125" height="125" fill="#000000" />
  <rect x="1125" y="875" width="125" height="125" fill="#443E3E" />
  <rect x="250" y="1000" width="125" height="125" fill="#1E1E1E" />
  <rect x="375" y="1000" width="125" height="125" fill="#2D2D2D" />
  <rect x="500" y="1000" width="125" height="125" fill="#3A3A3A" />
  <rect x="625" y="1000" width="125" height="125" fill="#484848" />
  <rect x="750" y="1000" width="125" height="125" fill="#545454" />
  <rect x="875" y="1000" width="125" height="125" fill="#606060" />
  <rect x="1000" y="1000" width="125" height="125" fill="#686868" />
  <rect x="1125" y="1000" width="125" height="125" fill="#727272" />
  <rect x="250" y="1125" width="125" height="125" fill="#8A8A8A" />
  <rect x="375" y="1125" width="125" height="125" fill="#A3A3A3" />
  <rect x="500" y="1125" width="125" height="125" fill="#B0B0B0" />
  <rect x="625" y="1125" width="125" height="125" fill="#C9C9C9" />
  <rect x="750" y="1125" width="125" height="125" fill="#D9D9D9" />
  <rect x="875" y="1125" width="125" height="125" fill="#E9E9E9" />
  <rect x="1000" y="1125" width="125" height="125" fill="#F9F9F9" />
  <rect x="1125" y="1125" width="125" height="125" fill="#FFFFFF" />
  <rect x="250" y="250" width="1000" height="1000" fill="none" stroke="#151515" stroke-opacity="0.16" stroke-width="2" />
</svg>
