<svg xmlns="http://www.w3.org/2000/svg" width="1500" height="1500" viewBox="0 0 1500 1500" shape-rendering="crispEdges" role="img" aria-labelledby="title desc">
  <title id="title">Exposure vs Shelter in White frame</title>
  <desc id="desc">Square Project artwork previewed in a white frame.</desc>
  <rect x="0" y="0" width="1500" height="1500" fill="#FFFFFF" />
  <image href="https://mysquareart.com/frames/white.jpg" x="0" y="0" width="1500" height="1500" preserveAspectRatio="xMidYMid meet" />
  <rect x="250" y="250" width="1000" height="1000" fill="#FFFFFF" />
  <rect x="250" y="250" width="125" height="125" fill="#8B5B29" />
  <rect x="375" y="250" width="125" height="125" fill="#C8BBAF" />
  <rect x="500" y="250" width="125" height="125" fill="#D9CFC2" />
  <rect x="625" y="250" width="125" height="125" fill="#E3E9E0" />
  <rect x="750" y="250" width="125" height="125" fill="#CAD7DB" />
  <rect x="875" y="250" width="125" height="125" fill="#A6B0B4" />
  <rect x="1000" y="250" width="125" height="125" fill="#BAC6C9" />
  <rect x="1125" y="250" width="125" height="125" fill="#F4F7F6" />
  <rect x="250" y="375" width="125" height="125" fill="#49372A" />
  <rect x="375" y="375" width="125" height="125" fill="#BFAFA1" />
  <rect x="500" y="375" width="125" height="125" fill="#C7C2B6" />
  <rect x="625" y="375" width="125" height="125" fill="#E0E6E6" />
  <rect x="750" y="375" width="125" height="125" fill="#CAD3D5" />
  <rect x="875" y="375" width="125" height="125" fill="#D4C8C8" />
  <rect x="1000" y="375" width="125" height="125" fill="#95A1A4" />
  <rect x="1125" y="375" width="125" height="125" fill="#FFFFFF" />
  <rect x="250" y="500" width="125" height="125" fill="#5D4D4D" />
  <rect x="375" y="500" width="125" height="125" fill="#DEDBD0" />
  <rect x="500" y="500" width="125" height="125" fill="#C1C6B5" />
  <rect x="625" y="500" width="125" height="125" fill="#EAF0F2" />
  <rect x="750" y="500" width="125" height="125" fill="#A5B3B5" />
  <rect x="875" y="500" width="125" height="125" fill="#B2BFC1" />
  <rect x="1000" y="500" width="125" height="125" fill="#E5E0DE" />
  <rect x="1125" y="500" width="125" height="125" fill="#F8FAF9" />
  <rect x="250" y="625" width="125" height="125" fill="#6F5A4C" />
  <rect x="375" y="625" width="125" height="125" fill="#D1C0B1" />
  <rect x="500" y="625" width="125" height="125" fill="#D3D9D8" />
  <rect x="625" y="625" width="125" height="125" fill="#DDDBD7" />
  <rect x="750" y="625" width="125" height="125" fill="#BAC5C6" />
  <rect x="875" y="625" width="125" height="125" fill="#9DA8AB" />
  <rect x="1000" y="625" width="125" height="125" fill="#C2C6C9" />
  <rect x="1125" y="625" width="125" height="125" fill="#FFFFFF" />
  <rect x="250" y="750" width="125" height="125" fill="#4F3F38" />
  <rect x="375" y="750" width="125" height="125" fill="#D6C4B4" />
  <rect x="500" y="750" width="125" height="125" fill="#E1C4B9" />
  <rect x="625" y="750" width="125" height="125" fill="#B7B8B6" />
  <rect x="750" y="750" width="125" height="125" fill="#ADBBBC" />
  <rect x="875" y="750" width="125" height="125" fill="#D0C9C5" />
  <rect x="1000" y="750" width="125" height="125" fill="#F4F7F7" />
  <rect x="1125" y="750" width="125" height="125" fill="#FDFDFD" />
  <rect x="250" y="875" width="125" height="125" fill="#3C292D" />
  <rect x="375" y="875" width="125" height="125" fill="#CCB5A3" />
  <rect x="500" y="875" width="125" height="125" fill="#D9D3D0" />
  <rect x="625" y="875" width="125" height="125" fill="#C8C7C6" />
  <rect x="750" y="875" width="125" height="125" fill="#B7C1C1" />
  <rect x="875" y="875" width="125" height="125" fill="#999D9E" />
  <rect x="1000" y="875" width="125" height="125" fill="#D9E1E2" />
  <rect x="1125" y="875" width="125" height="125" fill="#FFFFFF" />
  <rect x="250" y="1000" width="125" height="125" fill="#3E3036" />
  <rect x="375" y="1000" width="125" height="125" fill="#B8A09E" />
  <rect x="500" y="1000" width="125" height="125" fill="#D5CED3" />
  <rect x="625" y="1000" width="125" height="125" fill="#E6E3E1" />
  <rect x="750" y="1000" width="125" height="125" fill="#BAC8CC" />
  <rect x="875" y="1000" width="125" height="125" fill="#B1B6B8" />
  <rect x="1000" y="1000" width="125" height="125" fill="#C8D3D4" />
  <rect x="1125" y="1000" width="125" height="125" fill="#F5F7F7" />
  <rect x="250" y="1125" width="125" height="125" fill="#5A4E53" />
  <rect x="375" y="1125" width="125" height="125" fill="#AD9488" />
  <rect x="500" y="1125" width="125" height="125" fill="#D5D9D6" />
  <rect x="625" y="1125" width="125" height="125" fill="#E1D8D9" />
  <rect x="750" y="1125" width="125" height="125" fill="#D2E1E4" />
  <rect x="875" y="1125" width="125" height="125" fill="#B7C4C5" />
  <rect x="1000" y="1125" width="125" height="125" fill="#E2F0F1" />
  <rect x="1125" y="1125" width="125" height="125" fill="#FFFFFF" />
  <rect x="250" y="250" width="1000" height="1000" fill="none" stroke="#151515" stroke-opacity="0.16" stroke-width="2" />
</svg>
