<svg xmlns="http://www.w3.org/2000/svg" width="1500" height="1500" viewBox="0 0 1500 1500" shape-rendering="crispEdges" role="img" aria-labelledby="title desc">
  <title id="title">Tension of Repair in Black frame</title>
  <desc id="desc">Square Project artwork previewed in a black frame.</desc>
  <rect x="0" y="0" width="1500" height="1500" fill="#FFFFFF" />
  <image href="https://mysquareart.com/frames/black.jpg" x="0" y="0" width="1500" height="1500" preserveAspectRatio="xMidYMid meet" />
  <rect x="250" y="250" width="1000" height="1000" fill="#FFFFFF" />
  <rect x="250" y="250" width="125" height="125" fill="#000000" />
  <rect x="375" y="250" width="125" height="125" fill="#1A0F57" />
  <rect x="500" y="250" width="125" height="125" fill="#3E1B9B" />
  <rect x="625" y="250" width="125" height="125" fill="#431B7A" />
  <rect x="750" y="250" width="125" height="125" fill="#4C1E7B" />
  <rect x="875" y="250" width="125" height="125" fill="#7157A6" />
  <rect x="1000" y="250" width="125" height="125" fill="#B7A66D" />
  <rect x="1125" y="250" width="125" height="125" fill="#F4CDA1" />
  <rect x="250" y="375" width="125" height="125" fill="#1F1F30" />
  <rect x="375" y="375" width="125" height="125" fill="#2A204D" />
  <rect x="500" y="375" width="125" height="125" fill="#4B2D98" />
  <rect x="625" y="375" width="125" height="125" fill="#662F80" />
  <rect x="750" y="375" width="125" height="125" fill="#9A4D8A" />
  <rect x="875" y="375" width="125" height="125" fill="#733A6B" />
  <rect x="1000" y="375" width="125" height="125" fill="#CFB98C" />
  <rect x="1125" y="375" width="125" height="125" fill="#E5D8B5" />
  <rect x="250" y="500" width="125" height="125" fill="#101010" />
  <rect x="375" y="500" width="125" height="125" fill="#251A41" />
  <rect x="500" y="500" width="125" height="125" fill="#3A2073" />
  <rect x="625" y="500" width="125" height="125" fill="#58386D" />
  <rect x="750" y="500" width="125" height="125" fill="#9E6FB0" />
  <rect x="875" y="500" width="125" height="125" fill="#E5C7A0" />
  <rect x="1000" y="500" width="125" height="125" fill="#F7DAC7" />
  <rect x="1125" y="500" width="125" height="125" fill="#F5EDD7" />
  <rect x="250" y="625" width="125" height="125" fill="#000000" />
  <rect x="375" y="625" width="125" height="125" fill="#3E3E3E" />
  <rect x="500" y="625" width="125" height="125" fill="#6D6D84" />
  <rect x="625" y="625" width="125" height="125" fill="#A0A4D3" />
  <rect x="750" y="625" width="125" height="125" fill="#D1B3A1" />
  <rect x="875" y="625" width="125" height="125" fill="#C6A57D" />
  <rect x="1000" y="625" width="125" height="125" fill="#D5C6B5" />
  <rect x="1125" y="625" width="125" height="125" fill="#D8D1C4" />
  <rect x="250" y="750" width="125" height="125" fill="#1F1F1F" />
  <rect x="375" y="750" width="125" height="125" fill="#3A3A3A" />
  <rect x="500" y="750" width="125" height="125" fill="#646464" />
  <rect x="625" y="750" width="125" height="125" fill="#919BA6" />
  <rect x="750" y="750" width="125" height="125" fill="#B0B7C0" />
  <rect x="875" y="750" width="125" height="125" fill="#D5CFC8" />
  <rect x="1000" y="750" width="125" height="125" fill="#E8D8D3" />
  <rect x="1125" y="750" width="125" height="125" fill="#F2E6E1" />
  <rect x="250" y="875" width="125" height="125" fill="#2C2C2C" />
  <rect x="375" y="875" width="125" height="125" fill="#4D4D4D" />
  <rect x="500" y="875" width="125" height="125" fill="#757179" />
  <rect x="625" y="875" width="125" height="125" fill="#A0A0A0" />
  <rect x="750" y="875" width="125" height="125" fill="#C1C1C1" />
  <rect x="875" y="875" width="125" height="125" fill="#E3E3E3" />
  <rect x="1000" y="875" width="125" height="125" fill="#F1EAE7" />
  <rect x="1125" y="875" width="125" height="125" fill="#FFE6E6" />
  <rect x="250" y="1000" width="125" height="125" fill="#1C1C1C" />
  <rect x="375" y="1000" width="125" height="125" fill="#383838" />
  <rect x="500" y="1000" width="125" height="125" fill="#585858" />
  <rect x="625" y="1000" width="125" height="125" fill="#B0B0C0" />
  <rect x="750" y="1000" width="125" height="125" fill="#D0D2D5" />
  <rect x="875" y="1000" width="125" height="125" fill="#F5F5F5" />
  <rect x="1000" y="1000" width="125" height="125" fill="#B7D1E8" />
  <rect x="1125" y="1000" width="125" height="125" fill="#E8BEB5" />
  <rect x="250" y="1125" width="125" height="125" fill="#373736" />
  <rect x="375" y="1125" width="125" height="125" fill="#545558" />
  <rect x="500" y="1125" width="125" height="125" fill="#84869C" />
  <rect x="625" y="1125" width="125" height="125" fill="#D5C6A8" />
  <rect x="750" y="1125" width="125" height="125" fill="#E0D3C8" />
  <rect x="875" y="1125" width="125" height="125" fill="#F3E4D0" />
  <rect x="1000" y="1125" width="125" height="125" fill="#FFF1E1" />
  <rect x="1125" y="1125" width="125" height="125" fill="#FFFFFF" />
  <rect x="250" y="250" width="1000" height="1000" fill="none" stroke="#151515" stroke-opacity="0.16" stroke-width="2" />
</svg>
