<svg xmlns="http://www.w3.org/2000/svg" width="1500" height="1500" viewBox="0 0 1500 1500" shape-rendering="crispEdges" role="img" aria-labelledby="title desc">
  <title id="title">Contrasting Waves of Emotion in Natural frame</title>
  <desc id="desc">Square Project artwork previewed in a natural frame.</desc>
  <defs>
    <linearGradient id="frameFace" x1="0" y1="0" x2="1" y2="1">
      <stop offset="0" stop-color="#FFF1D7" />
      <stop offset="0.32" stop-color="#E8D4B7" />
      <stop offset="0.68" stop-color="#C2A17B" />
      <stop offset="1" stop-color="#8D6F50" />
    </linearGradient>
    <pattern id="naturalGrain" patternUnits="userSpaceOnUse" width="180" height="48">
      <path d="M0 12 C48 2 92 24 180 10" fill="none" stroke="#8D6F50" stroke-opacity="0.22" stroke-width="5" />
      <path d="M0 34 C62 44 118 22 180 36" fill="none" stroke="#FFFFFF" stroke-opacity="0.22" stroke-width="4" />
    </pattern>
    <filter id="artShadow" x="-10%" y="-10%" width="120%" height="120%">
      <feDropShadow dx="0" dy="20" stdDeviation="24" flood-color="#000000" flood-opacity="0.24" />
    </filter>
  </defs>
  <rect x="0" y="0" width="1500" height="1500" fill="#FFFFFF" />
  <rect x="0" y="0" width="1500" height="1500" fill="url(#frameFace)" />
  <rect x="0" y="0" width="1500" height="1500" fill="url(#naturalGrain)" />
  <rect x="120" y="120" width="1260" height="1260" fill="#F8F7F3" />
  <rect x="120" y="120" width="1260" height="1260" fill="none" stroke="#000000" stroke-opacity="0.14" stroke-width="10" />
  <rect x="250" y="250" width="1000" height="1000" fill="#FFFFFF" filter="url(#artShadow)" />
  <rect x="250" y="250" width="125" height="125" fill="#F1C6CD" />
  <rect x="375" y="250" width="125" height="125" fill="#F3D3D3" />
  <rect x="500" y="250" width="125" height="125" fill="#B9B9B9" />
  <rect x="625" y="250" width="125" height="125" fill="#8C8C8C" />
  <rect x="750" y="250" width="125" height="125" fill="#424242" />
  <rect x="875" y="250" width="125" height="125" fill="#303030" />
  <rect x="1000" y="250" width="125" height="125" fill="#1C1C1C" />
  <rect x="1125" y="250" width="125" height="125" fill="#000000" />
  <rect x="250" y="375" width="125" height="125" fill="#F8DFDF" />
  <rect x="375" y="375" width="125" height="125" fill="#F5C2C2" />
  <rect x="500" y="375" width="125" height="125" fill="#F3A3A3" />
  <rect x="625" y="375" width="125" height="125" fill="#EC7575" />
  <rect x="750" y="375" width="125" height="125" fill="#D03232" />
  <rect x="875" y="375" width="125" height="125" fill="#A63B3B" />
  <rect x="1000" y="375" width="125" height="125" fill="#711D1D" />
  <rect x="1125" y="375" width="125" height="125" fill="#3B3B3B" />
  <rect x="250" y="500" width="125" height="125" fill="#F1D6D6" />
  <rect x="375" y="500" width="125" height="125" fill="#EAC2C2" />
  <rect x="500" y="500" width="125" height="125" fill="#987878" />
  <rect x="625" y="500" width="125" height="125" fill="#5B5B5B" />
  <rect x="750" y="500" width="125" height="125" fill="#2B2B2B" />
  <rect x="875" y="500" width="125" height="125" fill="#101010" />
  <rect x="1000" y="500" width="125" height="125" fill="#141414" />
  <rect x="1125" y="500" width="125" height="125" fill="#262626" />
  <rect x="250" y="625" width="125" height="125" fill="#D7D1CD" />
  <rect x="375" y="625" width="125" height="125" fill="#B0A4A4" />
  <rect x="500" y="625" width="125" height="125" fill="#8D7F7F" />
  <rect x="625" y="625" width="125" height="125" fill="#705757" />
  <rect x="750" y="625" width="125" height="125" fill="#494949" />
  <rect x="875" y="625" width="125" height="125" fill="#3A3A3A" />
  <rect x="1000" y="625" width="125" height="125" fill="#262626" />
  <rect x="1125" y="625" width="125" height="125" fill="#0D0D0D" />
  <rect x="250" y="750" width="125" height="125" fill="#FFF8F8" />
  <rect x="375" y="750" width="125" height="125" fill="#F5E7E7" />
  <rect x="500" y="750" width="125" height="125" fill="#D7B3B3" />
  <rect x="625" y="750" width="125" height="125" fill="#B8A9A9" />
  <rect x="750" y="750" width="125" height="125" fill="#859292" />
  <rect x="875" y="750" width="125" height="125" fill="#676767" />
  <rect x="1000" y="750" width="125" height="125" fill="#414141" />
  <rect x="1125" y="750" width="125" height="125" fill="#0F0F0F" />
  <rect x="250" y="875" width="125" height="125" fill="#ECE3E3" />
  <rect x="375" y="875" width="125" height="125" fill="#DFC3C3" />
  <rect x="500" y="875" width="125" height="125" fill="#B19C9C" />
  <rect x="625" y="875" width="125" height="125" fill="#865D5D" />
  <rect x="750" y="875" width="125" height="125" fill="#6A4646" />
  <rect x="875" y="875" width="125" height="125" fill="#4F3030" />
  <rect x="1000" y="875" width="125" height="125" fill="#3F3F3F" />
  <rect x="1125" y="875" width="125" height="125" fill="#232323" />
  <rect x="250" y="1000" width="125" height="125" fill="#FEFEF8" />
  <rect x="375" y="1000" width="125" height="125" fill="#F3D8D2" />
  <rect x="500" y="1000" width="125" height="125" fill="#DDC5C0" />
  <rect x="625" y="1000" width="125" height="125" fill="#796D6A" />
  <rect x="750" y="1000" width="125" height="125" fill="#604040" />
  <rect x="875" y="1000" width="125" height="125" fill="#490606" />
  <rect x="1000" y="1000" width="125" height="125" fill="#252525" />
  <rect x="1125" y="1000" width="125" height="125" fill="#858585" />
  <rect x="250" y="1125" width="125" height="125" fill="#FFF5F5" />
  <rect x="375" y="1125" width="125" height="125" fill="#F0D4D4" />
  <rect x="500" y="1125" width="125" height="125" fill="#C8B9B9" />
  <rect x="625" y="1125" width="125" height="125" fill="#BC8D8D" />
  <rect x="750" y="1125" width="125" height="125" fill="#946363" />
  <rect x="875" y="1125" width="125" height="125" fill="#7D4B4B" />
  <rect x="1000" y="1125" width="125" height="125" fill="#5A2E2E" />
  <rect x="1125" y="1125" width="125" height="125" fill="#1A1A1A" />
  <rect x="250" y="250" width="1000" height="1000" fill="none" stroke="#151515" stroke-opacity="0.16" stroke-width="2" />
</svg>
