<svg xmlns="http://www.w3.org/2000/svg" width="1500" height="1500" viewBox="0 0 1500 1500" shape-rendering="crispEdges" role="img" aria-labelledby="title desc">
  <title id="title">Tension&#x27;s Edge in Black frame</title>
  <desc id="desc">Square Project artwork previewed in a black frame.</desc>
  <rect x="0" y="0" width="1500" height="1500" fill="#FFFFFF" />
  <image href="https://mysquareart.com/frames/black.jpg" x="0" y="0" width="1500" height="1500" preserveAspectRatio="xMidYMid meet" />
  <rect x="250" y="250" width="1000" height="1000" fill="#FFFFFF" />
  <rect x="250" y="250" width="125" height="125" fill="#FF6F61" />
  <rect x="375" y="250" width="125" height="125" fill="#D85D83" />
  <rect x="500" y="250" width="125" height="125" fill="#4B4A4A" />
  <rect x="625" y="250" width="125" height="125" fill="#9C8E8C" />
  <rect x="750" y="250" width="125" height="125" fill="#FF6F61" />
  <rect x="875" y="250" width="125" height="125" fill="#D85D83" />
  <rect x="1000" y="250" width="125" height="125" fill="#4B4A4A" />
  <rect x="1125" y="250" width="125" height="125" fill="#C4B6B0" />
  <rect x="250" y="375" width="125" height="125" fill="#FFB6C1" />
  <rect x="375" y="375" width="125" height="125" fill="#7A8D8D" />
  <rect x="500" y="375" width="125" height="125" fill="#D85D83" />
  <rect x="625" y="375" width="125" height="125" fill="#FFB6C1" />
  <rect x="750" y="375" width="125" height="125" fill="#4B4A4A" />
  <rect x="875" y="375" width="125" height="125" fill="#D85D83" />
  <rect x="1000" y="375" width="125" height="125" fill="#9C8E8C" />
  <rect x="1125" y="375" width="125" height="125" fill="#6A4B6E" />
  <rect x="250" y="500" width="125" height="125" fill="#FFC0CB" />
  <rect x="375" y="500" width="125" height="125" fill="#C4B6B0" />
  <rect x="500" y="500" width="125" height="125" fill="#9C8E8C" />
  <rect x="625" y="500" width="125" height="125" fill="#D85D83" />
  <rect x="750" y="500" width="125" height="125" fill="#FF6F61" />
  <rect x="875" y="500" width="125" height="125" fill="#4B4A4A" />
  <rect x="1000" y="500" width="125" height="125" fill="#FFB6C1" />
  <rect x="1125" y="500" width="125" height="125" fill="#D85D83" />
  <rect x="250" y="625" width="125" height="125" fill="#FF6F61" />
  <rect x="375" y="625" width="125" height="125" fill="#4B4A4A" />
  <rect x="500" y="625" width="125" height="125" fill="#D85D83" />
  <rect x="625" y="625" width="125" height="125" fill="#FF6F61" />
  <rect x="750" y="625" width="125" height="125" fill="#C4B6B0" />
  <rect x="875" y="625" width="125" height="125" fill="#9C8E8C" />
  <rect x="1000" y="625" width="125" height="125" fill="#FFB6C1" />
  <rect x="1125" y="625" width="125" height="125" fill="#7A8D8D" />
  <rect x="250" y="750" width="125" height="125" fill="#D85D83" />
  <rect x="375" y="750" width="125" height="125" fill="#FF6F61" />
  <rect x="500" y="750" width="125" height="125" fill="#C4B6B0" />
  <rect x="625" y="750" width="125" height="125" fill="#9C8E8C" />
  <rect x="750" y="750" width="125" height="125" fill="#FFB6C1" />
  <rect x="875" y="750" width="125" height="125" fill="#7A8D8D" />
  <rect x="1000" y="750" width="125" height="125" fill="#4B4A4A" />
  <rect x="1125" y="750" width="125" height="125" fill="#FF6F61" />
  <rect x="250" y="875" width="125" height="125" fill="#9C8E8C" />
  <rect x="375" y="875" width="125" height="125" fill="#D85D83" />
  <rect x="500" y="875" width="125" height="125" fill="#FFC0CB" />
  <rect x="625" y="875" width="125" height="125" fill="#4B4A4A" />
  <rect x="750" y="875" width="125" height="125" fill="#D85D83" />
  <rect x="875" y="875" width="125" height="125" fill="#FFB6C1" />
  <rect x="1000" y="875" width="125" height="125" fill="#C4B6B0" />
  <rect x="1125" y="875" width="125" height="125" fill="#4B4A4A" />
  <rect x="250" y="1000" width="125" height="125" fill="#FFC0CB" />
  <rect x="375" y="1000" width="125" height="125" fill="#9C8E8C" />
  <rect x="500" y="1000" width="125" height="125" fill="#D85D83" />
  <rect x="625" y="1000" width="125" height="125" fill="#FF6F61" />
  <rect x="750" y="1000" width="125" height="125" fill="#4B4A4A" />
  <rect x="875" y="1000" width="125" height="125" fill="#C4B6B0" />
  <rect x="1000" y="1000" width="125" height="125" fill="#D85D83" />
  <rect x="1125" y="1000" width="125" height="125" fill="#FFB6C1" />
  <rect x="250" y="1125" width="125" height="125" fill="#4B4A4A" />
  <rect x="375" y="1125" width="125" height="125" fill="#7A8D8D" />
  <rect x="500" y="1125" width="125" height="125" fill="#D85D83" />
  <rect x="625" y="1125" width="125" height="125" fill="#FF6F61" />
  <rect x="750" y="1125" width="125" height="125" fill="#9C8E8C" />
  <rect x="875" y="1125" width="125" height="125" fill="#7A8D8D" />
  <rect x="1000" y="1125" width="125" height="125" fill="#4B4A4A" />
  <rect x="1125" y="1125" width="125" height="125" fill="#FFC0CB" />
  <rect x="250" y="250" width="1000" height="1000" fill="none" stroke="#151515" stroke-opacity="0.16" stroke-width="2" />
</svg>
