<svg xmlns="http://www.w3.org/2000/svg" width="1500" height="1500" viewBox="0 0 1500 1500" shape-rendering="crispEdges" role="img" aria-labelledby="title desc">
  <title id="title">Tension and Release in Brown frame</title>
  <desc id="desc">Square Project artwork previewed in a brown frame.</desc>
  <rect x="0" y="0" width="1500" height="1500" fill="#FFFFFF" />
  <image href="https://mysquareart.com/frames/brown.jpg" x="0" y="0" width="1500" height="1500" preserveAspectRatio="xMidYMid meet" />
  <rect x="250" y="250" width="1000" height="1000" fill="#FFFFFF" />
  <rect x="250" y="250" width="125" height="125" fill="#333A5B" />
  <rect x="375" y="250" width="125" height="125" fill="#4D557A" />
  <rect x="500" y="250" width="125" height="125" fill="#6A7C99" />
  <rect x="625" y="250" width="125" height="125" fill="#7F99B3" />
  <rect x="750" y="250" width="125" height="125" fill="#B7C7D9" />
  <rect x="875" y="250" width="125" height="125" fill="#E1F0F4" />
  <rect x="1000" y="250" width="125" height="125" fill="#94A8B8" />
  <rect x="1125" y="250" width="125" height="125" fill="#E4E8EC" />
  <rect x="250" y="375" width="125" height="125" fill="#000000" />
  <rect x="375" y="375" width="125" height="125" fill="#1F1F2F" />
  <rect x="500" y="375" width="125" height="125" fill="#3F3F4F" />
  <rect x="625" y="375" width="125" height="125" fill="#5F5F6F" />
  <rect x="750" y="375" width="125" height="125" fill="#7F7F8F" />
  <rect x="875" y="375" width="125" height="125" fill="#9F9FAF" />
  <rect x="1000" y="375" width="125" height="125" fill="#BFBFCF" />
  <rect x="1125" y="375" width="125" height="125" fill="#DDDDFF" />
  <rect x="250" y="500" width="125" height="125" fill="#3B3F5A" />
  <rect x="375" y="500" width="125" height="125" fill="#5D62A4" />
  <rect x="500" y="500" width="125" height="125" fill="#6C7EBA" />
  <rect x="625" y="500" width="125" height="125" fill="#8FA3CB" />
  <rect x="750" y="500" width="125" height="125" fill="#B6C5DE" />
  <rect x="875" y="500" width="125" height="125" fill="#D0E1F0" />
  <rect x="1000" y="500" width="125" height="125" fill="#8C92B7" />
  <rect x="1125" y="500" width="125" height="125" fill="#D4D9DF" />
  <rect x="250" y="625" width="125" height="125" fill="#212A34" />
  <rect x="375" y="625" width="125" height="125" fill="#3E4551" />
  <rect x="500" y="625" width="125" height="125" fill="#5A697E" />
  <rect x="625" y="625" width="125" height="125" fill="#778BA2" />
  <rect x="750" y="625" width="125" height="125" fill="#92B9C7" />
  <rect x="875" y="625" width="125" height="125" fill="#BECADC" />
  <rect x="1000" y="625" width="125" height="125" fill="#476B8D" />
  <rect x="1125" y="625" width="125" height="125" fill="#E9F1F8" />
  <rect x="250" y="750" width="125" height="125" fill="#2A2D35" />
  <rect x="375" y="750" width="125" height="125" fill="#38464F" />
  <rect x="500" y="750" width="125" height="125" fill="#46505B" />
  <rect x="625" y="750" width="125" height="125" fill="#6990C1" />
  <rect x="750" y="750" width="125" height="125" fill="#A8C8D8" />
  <rect x="875" y="750" width="125" height="125" fill="#C4E6EE" />
  <rect x="1000" y="750" width="125" height="125" fill="#7A91A1" />
  <rect x="1125" y="750" width="125" height="125" fill="#E6F3F8" />
  <rect x="250" y="875" width="125" height="125" fill="#001F33" />
  <rect x="375" y="875" width="125" height="125" fill="#2C394A" />
  <rect x="500" y="875" width="125" height="125" fill="#6A7D94" />
  <rect x="625" y="875" width="125" height="125" fill="#B0C3DA" />
  <rect x="750" y="875" width="125" height="125" fill="#D5E3EB" />
  <rect x="875" y="875" width="125" height="125" fill="#B7C9D5" />
  <rect x="1000" y="875" width="125" height="125" fill="#5C7B9D" />
  <rect x="1125" y="875" width="125" height="125" fill="#D1D9E5" />
  <rect x="250" y="1000" width="125" height="125" fill="#090B0D" />
  <rect x="375" y="1000" width="125" height="125" fill="#1F2429" />
  <rect x="500" y="1000" width="125" height="125" fill="#3D474E" />
  <rect x="625" y="1000" width="125" height="125" fill="#885A7A" />
  <rect x="750" y="1000" width="125" height="125" fill="#A5BAC2" />
  <rect x="875" y="1000" width="125" height="125" fill="#D8E1E9" />
  <rect x="1000" y="1000" width="125" height="125" fill="#68B2C9" />
  <rect x="1125" y="1000" width="125" height="125" fill="#E1EBF3" />
  <rect x="250" y="1125" width="125" height="125" fill="#000000" />
  <rect x="375" y="1125" width="125" height="125" fill="#2E3440" />
  <rect x="500" y="1125" width="125" height="125" fill="#4A5660" />
  <rect x="625" y="1125" width="125" height="125" fill="#6D8490" />
  <rect x="750" y="1125" width="125" height="125" fill="#B3C9D7" />
  <rect x="875" y="1125" width="125" height="125" fill="#CFE6EB" />
  <rect x="1000" y="1125" width="125" height="125" fill="#A7B5C3" />
  <rect x="1125" y="1125" width="125" height="125" fill="#F4F6F8" />
  <rect x="250" y="250" width="1000" height="1000" fill="none" stroke="#151515" stroke-opacity="0.16" stroke-width="2" />
</svg>
