<svg xmlns="http://www.w3.org/2000/svg" width="1500" height="1500" viewBox="0 0 1500 1500" shape-rendering="crispEdges" role="img" aria-labelledby="title desc">
  <title id="title">Ebb and Flow in Natural frame</title>
  <desc id="desc">Square Project artwork previewed in a natural frame.</desc>
  <defs>
    <linearGradient id="frameFace" x1="0" y1="0" x2="1" y2="1">
      <stop offset="0" stop-color="#FFF1D7" />
      <stop offset="0.32" stop-color="#E8D4B7" />
      <stop offset="0.68" stop-color="#C2A17B" />
      <stop offset="1" stop-color="#8D6F50" />
    </linearGradient>
    <pattern id="naturalGrain" patternUnits="userSpaceOnUse" width="180" height="48">
      <path d="M0 12 C48 2 92 24 180 10" fill="none" stroke="#8D6F50" stroke-opacity="0.22" stroke-width="5" />
      <path d="M0 34 C62 44 118 22 180 36" fill="none" stroke="#FFFFFF" stroke-opacity="0.22" stroke-width="4" />
    </pattern>
    <filter id="artShadow" x="-10%" y="-10%" width="120%" height="120%">
      <feDropShadow dx="0" dy="20" stdDeviation="24" flood-color="#000000" flood-opacity="0.24" />
    </filter>
  </defs>
  <rect x="0" y="0" width="1500" height="1500" fill="#FFFFFF" />
  <rect x="0" y="0" width="1500" height="1500" fill="url(#frameFace)" />
  <rect x="0" y="0" width="1500" height="1500" fill="url(#naturalGrain)" />
  <rect x="120" y="120" width="1260" height="1260" fill="#F8F7F3" />
  <rect x="120" y="120" width="1260" height="1260" fill="none" stroke="#000000" stroke-opacity="0.14" stroke-width="10" />
  <rect x="250" y="250" width="1000" height="1000" fill="#FFFFFF" filter="url(#artShadow)" />
  <rect x="250" y="250" width="125" height="125" fill="#5D8B4F" />
  <rect x="375" y="250" width="125" height="125" fill="#B2A98A" />
  <rect x="500" y="250" width="125" height="125" fill="#C5D3DF" />
  <rect x="625" y="250" width="125" height="125" fill="#5E8A95" />
  <rect x="750" y="250" width="125" height="125" fill="#6A979C" />
  <rect x="875" y="250" width="125" height="125" fill="#D8D9D3" />
  <rect x="1000" y="250" width="125" height="125" fill="#A2B59C" />
  <rect x="1125" y="250" width="125" height="125" fill="#B4C9D5" />
  <rect x="250" y="375" width="125" height="125" fill="#D3C6B5" />
  <rect x="375" y="375" width="125" height="125" fill="#7B9B74" />
  <rect x="500" y="375" width="125" height="125" fill="#C7D1DA" />
  <rect x="625" y="375" width="125" height="125" fill="#1A3F5D" />
  <rect x="750" y="375" width="125" height="125" fill="#D8B5A1" />
  <rect x="875" y="375" width="125" height="125" fill="#F4F4F2" />
  <rect x="1000" y="375" width="125" height="125" fill="#A8C6B1" />
  <rect x="1125" y="375" width="125" height="125" fill="#3F597B" />
  <rect x="250" y="500" width="125" height="125" fill="#A1D6E0" />
  <rect x="375" y="500" width="125" height="125" fill="#FFEFDB" />
  <rect x="500" y="500" width="125" height="125" fill="#D9C3B2" />
  <rect x="625" y="500" width="125" height="125" fill="#8F9D8A" />
  <rect x="750" y="500" width="125" height="125" fill="#234F66" />
  <rect x="875" y="500" width="125" height="125" fill="#84959C" />
  <rect x="1000" y="500" width="125" height="125" fill="#B3C8E2" />
  <rect x="1125" y="500" width="125" height="125" fill="#E0F0F4" />
  <rect x="250" y="625" width="125" height="125" fill="#E4B153" />
  <rect x="375" y="625" width="125" height="125" fill="#387FB8" />
  <rect x="500" y="625" width="125" height="125" fill="#A8A69A" />
  <rect x="625" y="625" width="125" height="125" fill="#B7C5D9" />
  <rect x="750" y="625" width="125" height="125" fill="#4F6B81" />
  <rect x="875" y="625" width="125" height="125" fill="#A5D9E1" />
  <rect x="1000" y="625" width="125" height="125" fill="#D9DBCB" />
  <rect x="1125" y="625" width="125" height="125" fill="#7C4B27" />
  <rect x="250" y="750" width="125" height="125" fill="#3B8B5F" />
  <rect x="375" y="750" width="125" height="125" fill="#B3E7B9" />
  <rect x="500" y="750" width="125" height="125" fill="#E4F6F2" />
  <rect x="625" y="750" width="125" height="125" fill="#E2BCB4" />
  <rect x="750" y="750" width="125" height="125" fill="#6B725D" />
  <rect x="875" y="750" width="125" height="125" fill="#9BBDAA" />
  <rect x="1000" y="750" width="125" height="125" fill="#C3D5E7" />
  <rect x="1125" y="750" width="125" height="125" fill="#6F6F63" />
  <rect x="250" y="875" width="125" height="125" fill="#3A5A65" />
  <rect x="375" y="875" width="125" height="125" fill="#DBE0E8" />
  <rect x="500" y="875" width="125" height="125" fill="#5C8A8A" />
  <rect x="625" y="875" width="125" height="125" fill="#B6C9C9" />
  <rect x="750" y="875" width="125" height="125" fill="#C0A248" />
  <rect x="875" y="875" width="125" height="125" fill="#EED8BF" />
  <rect x="1000" y="875" width="125" height="125" fill="#6C7E91" />
  <rect x="1125" y="875" width="125" height="125" fill="#F3F3F4" />
  <rect x="250" y="1000" width="125" height="125" fill="#F0C2A0" />
  <rect x="375" y="1000" width="125" height="125" fill="#A6C3B2" />
  <rect x="500" y="1000" width="125" height="125" fill="#7CA2B8" />
  <rect x="625" y="1000" width="125" height="125" fill="#C8D6D2" />
  <rect x="750" y="1000" width="125" height="125" fill="#789B75" />
  <rect x="875" y="1000" width="125" height="125" fill="#4A5A5E" />
  <rect x="1000" y="1000" width="125" height="125" fill="#DAEDD4" />
  <rect x="1125" y="1000" width="125" height="125" fill="#6B5D56" />
  <rect x="250" y="1125" width="125" height="125" fill="#F6F3F2" />
  <rect x="375" y="1125" width="125" height="125" fill="#B1E0DE" />
  <rect x="500" y="1125" width="125" height="125" fill="#C4D0B9" />
  <rect x="625" y="1125" width="125" height="125" fill="#D3BFBE" />
  <rect x="750" y="1125" width="125" height="125" fill="#3D5C62" />
  <rect x="875" y="1125" width="125" height="125" fill="#A2BBBC" />
  <rect x="1000" y="1125" width="125" height="125" fill="#6B7C79" />
  <rect x="1125" y="1125" width="125" height="125" fill="#FFFFFF" />
  <rect x="250" y="250" width="1000" height="1000" fill="none" stroke="#151515" stroke-opacity="0.16" stroke-width="2" />
</svg>
