<svg xmlns="http://www.w3.org/2000/svg" width="1500" height="1500" viewBox="0 0 1500 1500" shape-rendering="crispEdges" role="img" aria-labelledby="title desc">
  <title id="title">Pulse Amidst Static in Natural frame</title>
  <desc id="desc">Square Project artwork previewed in a natural frame.</desc>
  <rect x="0" y="0" width="1500" height="1500" fill="#FFFFFF" />
  <image href="https://mysquareart.com/frames/natural.jpg" x="0" y="0" width="1500" height="1500" preserveAspectRatio="xMidYMid meet" />
  <rect x="250" y="250" width="1000" height="1000" fill="#FFFFFF" />
  <rect x="250" y="250" width="125" height="125" fill="#3E6B2B" />
  <rect x="375" y="250" width="125" height="125" fill="#C0D247" />
  <rect x="500" y="250" width="125" height="125" fill="#A6B052" />
  <rect x="625" y="250" width="125" height="125" fill="#6B8E36" />
  <rect x="750" y="250" width="125" height="125" fill="#4A5D24" />
  <rect x="875" y="250" width="125" height="125" fill="#4B4C2D" />
  <rect x="1000" y="250" width="125" height="125" fill="#C8D199" />
  <rect x="1125" y="250" width="125" height="125" fill="#B6C12B" />
  <rect x="250" y="375" width="125" height="125" fill="#E0E5A9" />
  <rect x="375" y="375" width="125" height="125" fill="#D7B45A" />
  <rect x="500" y="375" width="125" height="125" fill="#A7CB27" />
  <rect x="625" y="375" width="125" height="125" fill="#F0C84D" />
  <rect x="750" y="375" width="125" height="125" fill="#E1EA8D" />
  <rect x="875" y="375" width="125" height="125" fill="#9DBB50" />
  <rect x="1000" y="375" width="125" height="125" fill="#B3B42E" />
  <rect x="1125" y="375" width="125" height="125" fill="#6C6F17" />
  <rect x="250" y="500" width="125" height="125" fill="#C4E3BE" />
  <rect x="375" y="500" width="125" height="125" fill="#D3D26B" />
  <rect x="500" y="500" width="125" height="125" fill="#B5D05C" />
  <rect x="625" y="500" width="125" height="125" fill="#596D3C" />
  <rect x="750" y="500" width="125" height="125" fill="#ABBC3E" />
  <rect x="875" y="500" width="125" height="125" fill="#A6D2B1" />
  <rect x="1000" y="500" width="125" height="125" fill="#804E30" />
  <rect x="1125" y="500" width="125" height="125" fill="#5E795A" />
  <rect x="250" y="625" width="125" height="125" fill="#A8C65E" />
  <rect x="375" y="625" width="125" height="125" fill="#ACD9C2" />
  <rect x="500" y="625" width="125" height="125" fill="#5C6745" />
  <rect x="625" y="625" width="125" height="125" fill="#7F9B33" />
  <rect x="750" y="625" width="125" height="125" fill="#5B8D28" />
  <rect x="875" y="625" width="125" height="125" fill="#BDC8A1" />
  <rect x="1000" y="625" width="125" height="125" fill="#7A9A42" />
  <rect x="1125" y="625" width="125" height="125" fill="#D4E9A8" />
  <rect x="250" y="750" width="125" height="125" fill="#B5C2A1" />
  <rect x="375" y="750" width="125" height="125" fill="#C0B038" />
  <rect x="500" y="750" width="125" height="125" fill="#FFD2A3" />
  <rect x="625" y="750" width="125" height="125" fill="#546A34" />
  <rect x="750" y="750" width="125" height="125" fill="#C9D96E" />
  <rect x="875" y="750" width="125" height="125" fill="#8A967B" />
  <rect x="1000" y="750" width="125" height="125" fill="#BDC900" />
  <rect x="1125" y="750" width="125" height="125" fill="#B3D06D" />
  <rect x="250" y="875" width="125" height="125" fill="#F9E4B1" />
  <rect x="375" y="875" width="125" height="125" fill="#A8D641" />
  <rect x="500" y="875" width="125" height="125" fill="#C5D248" />
  <rect x="625" y="875" width="125" height="125" fill="#B3C888" />
  <rect x="750" y="875" width="125" height="125" fill="#F4E039" />
  <rect x="875" y="875" width="125" height="125" fill="#E5DF8A" />
  <rect x="1000" y="875" width="125" height="125" fill="#CED19A" />
  <rect x="1125" y="875" width="125" height="125" fill="#6D7D44" />
  <rect x="250" y="1000" width="125" height="125" fill="#E0A26D" />
  <rect x="375" y="1000" width="125" height="125" fill="#B5D0A1" />
  <rect x="500" y="1000" width="125" height="125" fill="#4C5E34" />
  <rect x="625" y="1000" width="125" height="125" fill="#C8C238" />
  <rect x="750" y="1000" width="125" height="125" fill="#D6E9D3" />
  <rect x="875" y="1000" width="125" height="125" fill="#D4E3C2" />
  <rect x="1000" y="1000" width="125" height="125" fill="#A6C81D" />
  <rect x="1125" y="1000" width="125" height="125" fill="#816226" />
  <rect x="250" y="1125" width="125" height="125" fill="#5C6811" />
  <rect x="375" y="1125" width="125" height="125" fill="#B7BD73" />
  <rect x="500" y="1125" width="125" height="125" fill="#CDE5B9" />
  <rect x="625" y="1125" width="125" height="125" fill="#B9C27A" />
  <rect x="750" y="1125" width="125" height="125" fill="#8AB06B" />
  <rect x="875" y="1125" width="125" height="125" fill="#4F643F" />
  <rect x="1000" y="1125" width="125" height="125" fill="#E2D7A6" />
  <rect x="1125" y="1125" width="125" height="125" fill="#A9D573" />
  <rect x="250" y="250" width="1000" height="1000" fill="none" stroke="#151515" stroke-opacity="0.16" stroke-width="2" />
</svg>
