<svg xmlns="http://www.w3.org/2000/svg" width="1500" height="1500" viewBox="0 0 1500 1500" shape-rendering="crispEdges" role="img" aria-labelledby="title desc">
  <title id="title">Tension of Memory in Brown frame</title>
  <desc id="desc">Square Project artwork previewed in a brown frame.</desc>
  <defs>
    <linearGradient id="frameFace" x1="0" y1="0" x2="1" y2="1">
      <stop offset="0" stop-color="#C18A55" />
      <stop offset="0.32" stop-color="#9A6840" />
      <stop offset="0.68" stop-color="#70401F" />
      <stop offset="1" stop-color="#3F2413" />
    </linearGradient>
    <filter id="artShadow" x="-10%" y="-10%" width="120%" height="120%">
      <feDropShadow dx="0" dy="20" stdDeviation="24" flood-color="#000000" flood-opacity="0.24" />
    </filter>
  </defs>
  <rect x="0" y="0" width="1500" height="1500" fill="#FFFFFF" />
  <rect x="0" y="0" width="1500" height="1500" fill="url(#frameFace)" />
  <rect x="120" y="120" width="1260" height="1260" fill="#F8F7F3" />
  <rect x="120" y="120" width="1260" height="1260" fill="none" stroke="#000000" stroke-opacity="0.14" stroke-width="10" />
  <rect x="250" y="250" width="1000" height="1000" fill="#FFFFFF" filter="url(#artShadow)" />
  <rect x="250" y="250" width="125" height="125" fill="#C3B094" />
  <rect x="375" y="250" width="125" height="125" fill="#C6B182" />
  <rect x="500" y="250" width="125" height="125" fill="#BDA78D" />
  <rect x="625" y="250" width="125" height="125" fill="#BAB8A0" />
  <rect x="750" y="250" width="125" height="125" fill="#B3A28F" />
  <rect x="875" y="250" width="125" height="125" fill="#D4C7B5" />
  <rect x="1000" y="250" width="125" height="125" fill="#4D6A86" />
  <rect x="1125" y="250" width="125" height="125" fill="#C1D2E1" />
  <rect x="250" y="375" width="125" height="125" fill="#B4A290" />
  <rect x="375" y="375" width="125" height="125" fill="#D0B59D" />
  <rect x="500" y="375" width="125" height="125" fill="#E4D6C7" />
  <rect x="625" y="375" width="125" height="125" fill="#CCCCDC" />
  <rect x="750" y="375" width="125" height="125" fill="#F0F0F0" />
  <rect x="875" y="375" width="125" height="125" fill="#D7E0E9" />
  <rect x="1000" y="375" width="125" height="125" fill="#B4CBDF" />
  <rect x="1125" y="375" width="125" height="125" fill="#8ABED2" />
  <rect x="250" y="500" width="125" height="125" fill="#D7C3A5" />
  <rect x="375" y="500" width="125" height="125" fill="#D6C4B4" />
  <rect x="500" y="500" width="125" height="125" fill="#E0E1E0" />
  <rect x="625" y="500" width="125" height="125" fill="#A8B6FF" />
  <rect x="750" y="500" width="125" height="125" fill="#A4B7C8" />
  <rect x="875" y="500" width="125" height="125" fill="#D5D3DF" />
  <rect x="1000" y="500" width="125" height="125" fill="#DCE5E0" />
  <rect x="1125" y="500" width="125" height="125" fill="#D7C7B5" />
  <rect x="250" y="625" width="125" height="125" fill="#F7EFFB" />
  <rect x="375" y="625" width="125" height="125" fill="#E6D5E4" />
  <rect x="500" y="625" width="125" height="125" fill="#D3BBBB" />
  <rect x="625" y="625" width="125" height="125" fill="#92B0C7" />
  <rect x="750" y="625" width="125" height="125" fill="#D6C5B1" />
  <rect x="875" y="625" width="125" height="125" fill="#A5C1D4" />
  <rect x="1000" y="625" width="125" height="125" fill="#A8BFE0" />
  <rect x="1125" y="625" width="125" height="125" fill="#8FD5B2" />
  <rect x="250" y="750" width="125" height="125" fill="#FFFBFE" />
  <rect x="375" y="750" width="125" height="125" fill="#F7D1B4" />
  <rect x="500" y="750" width="125" height="125" fill="#E3C8C2" />
  <rect x="625" y="750" width="125" height="125" fill="#43B7AD" />
  <rect x="750" y="750" width="125" height="125" fill="#8BD6C3" />
  <rect x="875" y="750" width="125" height="125" fill="#8EEBD2" />
  <rect x="1000" y="750" width="125" height="125" fill="#FCF4E0" />
  <rect x="1125" y="750" width="125" height="125" fill="#D5DBD8" />
  <rect x="250" y="875" width="125" height="125" fill="#D0D7E4" />
  <rect x="375" y="875" width="125" height="125" fill="#E4D8E1" />
  <rect x="500" y="875" width="125" height="125" fill="#D4F4EB" />
  <rect x="625" y="875" width="125" height="125" fill="#C1F2EE" />
  <rect x="750" y="875" width="125" height="125" fill="#BBD9D1" />
  <rect x="875" y="875" width="125" height="125" fill="#844D58" />
  <rect x="1000" y="875" width="125" height="125" fill="#D9A2AB" />
  <rect x="1125" y="875" width="125" height="125" fill="#FCFCFC" />
  <rect x="250" y="1000" width="125" height="125" fill="#E4E1E1" />
  <rect x="375" y="1000" width="125" height="125" fill="#ABACB4" />
  <rect x="500" y="1000" width="125" height="125" fill="#F2F3F1" />
  <rect x="625" y="1000" width="125" height="125" fill="#9DA5A7" />
  <rect x="750" y="1000" width="125" height="125" fill="#7E848D" />
  <rect x="875" y="1000" width="125" height="125" fill="#EFF1F5" />
  <rect x="1000" y="1000" width="125" height="125" fill="#D6E8E0" />
  <rect x="1125" y="1000" width="125" height="125" fill="#D4C8E3" />
  <rect x="250" y="1125" width="125" height="125" fill="#F5F7F8" />
  <rect x="375" y="1125" width="125" height="125" fill="#BBDFE1" />
  <rect x="500" y="1125" width="125" height="125" fill="#98B8C6" />
  <rect x="625" y="1125" width="125" height="125" fill="#E2DAF1" />
  <rect x="750" y="1125" width="125" height="125" fill="#F1F0E5" />
  <rect x="875" y="1125" width="125" height="125" fill="#FCFFFF" />
  <rect x="1000" y="1125" width="125" height="125" fill="#FFFFFA" />
  <rect x="1125" y="1125" width="125" height="125" fill="#F2F9FF" />
  <rect x="250" y="250" width="1000" height="1000" fill="none" stroke="#151515" stroke-opacity="0.16" stroke-width="2" />
</svg>
