<svg xmlns="http://www.w3.org/2000/svg" width="1500" height="1500" viewBox="0 0 1500 1500" shape-rendering="crispEdges" role="img" aria-labelledby="title desc">
  <title id="title">Echoes of Isolation in Brown frame</title>
  <desc id="desc">Square Project artwork previewed in a brown frame.</desc>
  <defs>
    <linearGradient id="frameFace" x1="0" y1="0" x2="1" y2="1">
      <stop offset="0" stop-color="#C18A55" />
      <stop offset="0.32" stop-color="#9A6840" />
      <stop offset="0.68" stop-color="#70401F" />
      <stop offset="1" stop-color="#3F2413" />
    </linearGradient>
    <filter id="artShadow" x="-10%" y="-10%" width="120%" height="120%">
      <feDropShadow dx="0" dy="20" stdDeviation="24" flood-color="#000000" flood-opacity="0.24" />
    </filter>
  </defs>
  <rect x="0" y="0" width="1500" height="1500" fill="#FFFFFF" />
  <rect x="0" y="0" width="1500" height="1500" fill="url(#frameFace)" />
  <rect x="120" y="120" width="1260" height="1260" fill="#F8F7F3" />
  <rect x="120" y="120" width="1260" height="1260" fill="none" stroke="#000000" stroke-opacity="0.14" stroke-width="10" />
  <rect x="250" y="250" width="1000" height="1000" fill="#FFFFFF" filter="url(#artShadow)" />
  <rect x="250" y="250" width="125" height="125" fill="#161B2E" />
  <rect x="375" y="250" width="125" height="125" fill="#222D5C" />
  <rect x="500" y="250" width="125" height="125" fill="#3A455C" />
  <rect x="625" y="250" width="125" height="125" fill="#241A3E" />
  <rect x="750" y="250" width="125" height="125" fill="#4A3E5E" />
  <rect x="875" y="250" width="125" height="125" fill="#6B5870" />
  <rect x="1000" y="250" width="125" height="125" fill="#9F9BC9" />
  <rect x="1125" y="250" width="125" height="125" fill="#C2C7E6" />
  <rect x="250" y="375" width="125" height="125" fill="#1B1E2D" />
  <rect x="375" y="375" width="125" height="125" fill="#253D6F" />
  <rect x="500" y="375" width="125" height="125" fill="#3E5870" />
  <rect x="625" y="375" width="125" height="125" fill="#4D5B84" />
  <rect x="750" y="375" width="125" height="125" fill="#726995" />
  <rect x="875" y="375" width="125" height="125" fill="#A689B0" />
  <rect x="1000" y="375" width="125" height="125" fill="#E1D8D3" />
  <rect x="1125" y="375" width="125" height="125" fill="#F5F2E5" />
  <rect x="250" y="500" width="125" height="125" fill="#0C0D14" />
  <rect x="375" y="500" width="125" height="125" fill="#3A3F61" />
  <rect x="500" y="500" width="125" height="125" fill="#5E6889" />
  <rect x="625" y="500" width="125" height="125" fill="#6A7E9B" />
  <rect x="750" y="500" width="125" height="125" fill="#8399C7" />
  <rect x="875" y="500" width="125" height="125" fill="#B0C3E6" />
  <rect x="1000" y="500" width="125" height="125" fill="#E7E9F6" />
  <rect x="1125" y="500" width="125" height="125" fill="#FFFFFF" />
  <rect x="250" y="625" width="125" height="125" fill="#1A1E2A" />
  <rect x="375" y="625" width="125" height="125" fill="#3D456F" />
  <rect x="500" y="625" width="125" height="125" fill="#41587B" />
  <rect x="625" y="625" width="125" height="125" fill="#A089B2" />
  <rect x="750" y="625" width="125" height="125" fill="#D2D7E0" />
  <rect x="875" y="625" width="125" height="125" fill="#F4F4F4" />
  <rect x="1000" y="625" width="125" height="125" fill="#D1C9D4" />
  <rect x="1125" y="625" width="125" height="125" fill="#B6A6B9" />
  <rect x="250" y="750" width="125" height="125" fill="#0D0D0E" />
  <rect x="375" y="750" width="125" height="125" fill="#3D4E61" />
  <rect x="500" y="750" width="125" height="125" fill="#577D89" />
  <rect x="625" y="750" width="125" height="125" fill="#8E9FBB" />
  <rect x="750" y="750" width="125" height="125" fill="#C1C7E8" />
  <rect x="875" y="750" width="125" height="125" fill="#EAE8FB" />
  <rect x="1000" y="750" width="125" height="125" fill="#F2F1F7" />
  <rect x="1125" y="750" width="125" height="125" fill="#F8F8F8" />
  <rect x="250" y="875" width="125" height="125" fill="#151621" />
  <rect x="375" y="875" width="125" height="125" fill="#313D4D" />
  <rect x="500" y="875" width="125" height="125" fill="#455B73" />
  <rect x="625" y="875" width="125" height="125" fill="#6D7F9F" />
  <rect x="750" y="875" width="125" height="125" fill="#B7C7DB" />
  <rect x="875" y="875" width="125" height="125" fill="#DBE1EB" />
  <rect x="1000" y="875" width="125" height="125" fill="#F4F7FA" />
  <rect x="1125" y="875" width="125" height="125" fill="#FFFFFF" />
  <rect x="250" y="1000" width="125" height="125" fill="#1E2128" />
  <rect x="375" y="1000" width="125" height="125" fill="#2B3E54" />
  <rect x="500" y="1000" width="125" height="125" fill="#468CBA" />
  <rect x="625" y="1000" width="125" height="125" fill="#6E9FC5" />
  <rect x="750" y="1000" width="125" height="125" fill="#B2C5DB" />
  <rect x="875" y="1000" width="125" height="125" fill="#E1F2F7" />
  <rect x="1000" y="1000" width="125" height="125" fill="#FFFFFF" />
  <rect x="1125" y="1000" width="125" height="125" fill="#FFFFFF" />
  <rect x="250" y="1125" width="125" height="125" fill="#0D1117" />
  <rect x="375" y="1125" width="125" height="125" fill="#2F3946" />
  <rect x="500" y="1125" width="125" height="125" fill="#586579" />
  <rect x="625" y="1125" width="125" height="125" fill="#7D9BB4" />
  <rect x="750" y="1125" width="125" height="125" fill="#C1D2E1" />
  <rect x="875" y="1125" width="125" height="125" fill="#F0F6F9" />
  <rect x="1000" y="1125" width="125" height="125" fill="#FFFFFF" />
  <rect x="1125" y="1125" width="125" height="125" fill="#FFFFFF" />
  <rect x="250" y="250" width="1000" height="1000" fill="none" stroke="#151515" stroke-opacity="0.16" stroke-width="2" />
</svg>
