<svg xmlns="http://www.w3.org/2000/svg" width="1500" height="1500" viewBox="0 0 1500 1500" shape-rendering="crispEdges" role="img" aria-labelledby="title desc">
  <title id="title">Contrasting Resonance in Gold frame</title>
  <desc id="desc">Square Project artwork previewed in a gold frame.</desc>
  <rect x="0" y="0" width="1500" height="1500" fill="#FFFFFF" />
  <image href="https://mysquareart.com/frames/gold.jpg" x="0" y="0" width="1500" height="1500" preserveAspectRatio="xMidYMid meet" />
  <rect x="250" y="250" width="1000" height="1000" fill="#FFFFFF" />
  <rect x="250" y="250" width="125" height="125" fill="#3C4F81" />
  <rect x="375" y="250" width="125" height="125" fill="#434A91" />
  <rect x="500" y="250" width="125" height="125" fill="#4A569B" />
  <rect x="625" y="250" width="125" height="125" fill="#4F62A2" />
  <rect x="750" y="250" width="125" height="125" fill="#555DA5" />
  <rect x="875" y="250" width="125" height="125" fill="#5761B3" />
  <rect x="1000" y="250" width="125" height="125" fill="#3E3A49" />
  <rect x="1125" y="250" width="125" height="125" fill="#2B2D4D" />
  <rect x="250" y="375" width="125" height="125" fill="#5C7B94" />
  <rect x="375" y="375" width="125" height="125" fill="#D9A64C" />
  <rect x="500" y="375" width="125" height="125" fill="#E7C366" />
  <rect x="625" y="375" width="125" height="125" fill="#F2D481" />
  <rect x="750" y="375" width="125" height="125" fill="#F8D895" />
  <rect x="875" y="375" width="125" height="125" fill="#F2C5B1" />
  <rect x="1000" y="375" width="125" height="125" fill="#CB8B2F" />
  <rect x="1125" y="375" width="125" height="125" fill="#6A7D8A" />
  <rect x="250" y="500" width="125" height="125" fill="#F8D8CA" />
  <rect x="375" y="500" width="125" height="125" fill="#F4E6E6" />
  <rect x="500" y="500" width="125" height="125" fill="#E0F8D9" />
  <rect x="625" y="500" width="125" height="125" fill="#B9E8B8" />
  <rect x="750" y="500" width="125" height="125" fill="#A4D6A9" />
  <rect x="875" y="500" width="125" height="125" fill="#A2CDA4" />
  <rect x="1000" y="500" width="125" height="125" fill="#8BB7B9" />
  <rect x="1125" y="500" width="125" height="125" fill="#6C9FA4" />
  <rect x="250" y="625" width="125" height="125" fill="#232F38" />
  <rect x="375" y="625" width="125" height="125" fill="#495D75" />
  <rect x="500" y="625" width="125" height="125" fill="#839EB8" />
  <rect x="625" y="625" width="125" height="125" fill="#B4C5D2" />
  <rect x="750" y="625" width="125" height="125" fill="#F5F8E6" />
  <rect x="875" y="625" width="125" height="125" fill="#E46156" />
  <rect x="1000" y="625" width="125" height="125" fill="#A75160" />
  <rect x="1125" y="625" width="125" height="125" fill="#7A7C8D" />
  <rect x="250" y="750" width="125" height="125" fill="#B59FC4" />
  <rect x="375" y="750" width="125" height="125" fill="#D2C4D5" />
  <rect x="500" y="750" width="125" height="125" fill="#CFC2D0" />
  <rect x="625" y="750" width="125" height="125" fill="#DAB1C9" />
  <rect x="750" y="750" width="125" height="125" fill="#D67FB0" />
  <rect x="875" y="750" width="125" height="125" fill="#E56976" />
  <rect x="1000" y="750" width="125" height="125" fill="#ED6064" />
  <rect x="1125" y="750" width="125" height="125" fill="#F28A7A" />
  <rect x="250" y="875" width="125" height="125" fill="#D0C4DB" />
  <rect x="375" y="875" width="125" height="125" fill="#614B73" />
  <rect x="500" y="875" width="125" height="125" fill="#573E6D" />
  <rect x="625" y="875" width="125" height="125" fill="#A35893" />
  <rect x="750" y="875" width="125" height="125" fill="#D277A5" />
  <rect x="875" y="875" width="125" height="125" fill="#E3AFC8" />
  <rect x="1000" y="875" width="125" height="125" fill="#F8C2D1" />
  <rect x="1125" y="875" width="125" height="125" fill="#F5B5D3" />
  <rect x="250" y="1000" width="125" height="125" fill="#ABAEAF" />
  <rect x="375" y="1000" width="125" height="125" fill="#A1C1C4" />
  <rect x="500" y="1000" width="125" height="125" fill="#420826" />
  <rect x="625" y="1000" width="125" height="125" fill="#865F8D" />
  <rect x="750" y="1000" width="125" height="125" fill="#D7A2C1" />
  <rect x="875" y="1000" width="125" height="125" fill="#E5B6C0" />
  <rect x="1000" y="1000" width="125" height="125" fill="#F1D4DC" />
  <rect x="1125" y="1000" width="125" height="125" fill="#B7A184" />
  <rect x="250" y="1125" width="125" height="125" fill="#F0E5D0" />
  <rect x="375" y="1125" width="125" height="125" fill="#C7B39C" />
  <rect x="500" y="1125" width="125" height="125" fill="#80230E" />
  <rect x="625" y="1125" width="125" height="125" fill="#473D3F" />
  <rect x="750" y="1125" width="125" height="125" fill="#33323D" />
  <rect x="875" y="1125" width="125" height="125" fill="#24252A" />
  <rect x="1000" y="1125" width="125" height="125" fill="#0D0E10" />
  <rect x="1125" y="1125" width="125" height="125" fill="#0C0E12" />
  <rect x="250" y="250" width="1000" height="1000" fill="none" stroke="#151515" stroke-opacity="0.16" stroke-width="2" />
</svg>
