<svg xmlns="http://www.w3.org/2000/svg" width="1500" height="1500" viewBox="0 0 1500 1500" shape-rendering="crispEdges" role="img" aria-labelledby="title desc">
  <title id="title">Collision of Echoes in Brown frame</title>
  <desc id="desc">Square Project artwork previewed in a brown frame.</desc>
  <defs>
    <linearGradient id="frameFace" x1="0" y1="0" x2="1" y2="1">
      <stop offset="0" stop-color="#C18A55" />
      <stop offset="0.32" stop-color="#9A6840" />
      <stop offset="0.68" stop-color="#70401F" />
      <stop offset="1" stop-color="#3F2413" />
    </linearGradient>
    <filter id="artShadow" x="-10%" y="-10%" width="120%" height="120%">
      <feDropShadow dx="0" dy="20" stdDeviation="24" flood-color="#000000" flood-opacity="0.24" />
    </filter>
  </defs>
  <rect x="0" y="0" width="1500" height="1500" fill="#FFFFFF" />
  <rect x="0" y="0" width="1500" height="1500" fill="url(#frameFace)" />
  <rect x="120" y="120" width="1260" height="1260" fill="#F8F7F3" />
  <rect x="120" y="120" width="1260" height="1260" fill="none" stroke="#000000" stroke-opacity="0.14" stroke-width="10" />
  <rect x="250" y="250" width="1000" height="1000" fill="#FFFFFF" filter="url(#artShadow)" />
  <rect x="250" y="250" width="125" height="125" fill="#000000" />
  <rect x="375" y="250" width="125" height="125" fill="#11111A" />
  <rect x="500" y="250" width="125" height="125" fill="#24272D" />
  <rect x="625" y="250" width="125" height="125" fill="#353B45" />
  <rect x="750" y="250" width="125" height="125" fill="#474E58" />
  <rect x="875" y="250" width="125" height="125" fill="#1B1F25" />
  <rect x="1000" y="250" width="125" height="125" fill="#4A4C50" />
  <rect x="1125" y="250" width="125" height="125" fill="#7B7D84" />
  <rect x="250" y="375" width="125" height="125" fill="#0B0D12" />
  <rect x="375" y="375" width="125" height="125" fill="#202327" />
  <rect x="500" y="375" width="125" height="125" fill="#424549" />
  <rect x="625" y="375" width="125" height="125" fill="#5B5E66" />
  <rect x="750" y="375" width="125" height="125" fill="#6D7080" />
  <rect x="875" y="375" width="125" height="125" fill="#A0A4B0" />
  <rect x="1000" y="375" width="125" height="125" fill="#E4E6E9" />
  <rect x="1125" y="375" width="125" height="125" fill="#F4F6F9" />
  <rect x="250" y="500" width="125" height="125" fill="#14181B" />
  <rect x="375" y="500" width="125" height="125" fill="#282D31" />
  <rect x="500" y="500" width="125" height="125" fill="#4F5458" />
  <rect x="625" y="500" width="125" height="125" fill="#3A3E47" />
  <rect x="750" y="500" width="125" height="125" fill="#1F2329" />
  <rect x="875" y="500" width="125" height="125" fill="#161A1D" />
  <rect x="1000" y="500" width="125" height="125" fill="#A4A7AE" />
  <rect x="1125" y="500" width="125" height="125" fill="#E0E2E5" />
  <rect x="250" y="625" width="125" height="125" fill="#1C1F25" />
  <rect x="375" y="625" width="125" height="125" fill="#33373D" />
  <rect x="500" y="625" width="125" height="125" fill="#474B51" />
  <rect x="625" y="625" width="125" height="125" fill="#E7E9ED" />
  <rect x="750" y="625" width="125" height="125" fill="#7E8188" />
  <rect x="875" y="625" width="125" height="125" fill="#B7B9BF" />
  <rect x="1000" y="625" width="125" height="125" fill="#B9BEC5" />
  <rect x="1125" y="625" width="125" height="125" fill="#D0D3D9" />
  <rect x="250" y="750" width="125" height="125" fill="#16191D" />
  <rect x="375" y="750" width="125" height="125" fill="#1D2024" />
  <rect x="500" y="750" width="125" height="125" fill="#20272C" />
  <rect x="625" y="750" width="125" height="125" fill="#4B4E54" />
  <rect x="750" y="750" width="125" height="125" fill="#5D616B" />
  <rect x="875" y="750" width="125" height="125" fill="#EAEBED" />
  <rect x="1000" y="750" width="125" height="125" fill="#D1D3D6" />
  <rect x="1125" y="750" width="125" height="125" fill="#AAACB1" />
  <rect x="250" y="875" width="125" height="125" fill="#2B2E34" />
  <rect x="375" y="875" width="125" height="125" fill="#393C43" />
  <rect x="500" y="875" width="125" height="125" fill="#2F353B" />
  <rect x="625" y="875" width="125" height="125" fill="#85878D" />
  <rect x="750" y="875" width="125" height="125" fill="#C6C9CE" />
  <rect x="875" y="875" width="125" height="125" fill="#B7BAC0" />
  <rect x="1000" y="875" width="125" height="125" fill="#7E8289" />
  <rect x="1125" y="875" width="125" height="125" fill="#D8DADB" />
  <rect x="250" y="1000" width="125" height="125" fill="#282B30" />
  <rect x="375" y="1000" width="125" height="125" fill="#4C5057" />
  <rect x="500" y="1000" width="125" height="125" fill="#777C83" />
  <rect x="625" y="1000" width="125" height="125" fill="#A7AAB0" />
  <rect x="750" y="1000" width="125" height="125" fill="#BDC2C5" />
  <rect x="875" y="1000" width="125" height="125" fill="#C3C7CD" />
  <rect x="1000" y="1000" width="125" height="125" fill="#E5E8EB" />
  <rect x="1125" y="1000" width="125" height="125" fill="#F9FAFC" />
  <rect x="250" y="1125" width="125" height="125" fill="#1F2025" />
  <rect x="375" y="1125" width="125" height="125" fill="#34383F" />
  <rect x="500" y="1125" width="125" height="125" fill="#474C53" />
  <rect x="625" y="1125" width="125" height="125" fill="#A4A7AE" />
  <rect x="750" y="1125" width="125" height="125" fill="#C4C8CC" />
  <rect x="875" y="1125" width="125" height="125" fill="#DFE1E4" />
  <rect x="1000" y="1125" width="125" height="125" fill="#F2F4F7" />
  <rect x="1125" y="1125" width="125" height="125" fill="#E5E9ED" />
  <rect x="250" y="250" width="1000" height="1000" fill="none" stroke="#151515" stroke-opacity="0.16" stroke-width="2" />
</svg>
