<svg xmlns="http://www.w3.org/2000/svg" width="1500" height="1500" viewBox="0 0 1500 1500" shape-rendering="crispEdges" role="img" aria-labelledby="title desc">
  <title id="title">Echoes of Resilience in Gold frame</title>
  <desc id="desc">Square Project artwork previewed in a gold frame.</desc>
  <defs>
    <linearGradient id="frameFace" x1="0" y1="0" x2="1" y2="1">
      <stop offset="0" stop-color="#FFF0A3" />
      <stop offset="0.32" stop-color="#F1D676" />
      <stop offset="0.68" stop-color="#CBA642" />
      <stop offset="1" stop-color="#8B6A1D" />
    </linearGradient>
    <filter id="artShadow" x="-10%" y="-10%" width="120%" height="120%">
      <feDropShadow dx="0" dy="20" stdDeviation="24" flood-color="#000000" flood-opacity="0.24" />
    </filter>
  </defs>
  <rect x="0" y="0" width="1500" height="1500" fill="#FFFFFF" />
  <rect x="0" y="0" width="1500" height="1500" fill="url(#frameFace)" />
  <rect x="120" y="120" width="1260" height="1260" fill="#F8F7F3" />
  <rect x="120" y="120" width="1260" height="1260" fill="none" stroke="#000000" stroke-opacity="0.14" stroke-width="10" />
  <rect x="250" y="250" width="1000" height="1000" fill="#FFFFFF" filter="url(#artShadow)" />
  <rect x="250" y="250" width="125" height="125" fill="#4B2C2E" />
  <rect x="375" y="250" width="125" height="125" fill="#3B1F25" />
  <rect x="500" y="250" width="125" height="125" fill="#FF9B00" />
  <rect x="625" y="250" width="125" height="125" fill="#E8C8B6" />
  <rect x="750" y="250" width="125" height="125" fill="#000000" />
  <rect x="875" y="250" width="125" height="125" fill="#3F292D" />
  <rect x="1000" y="250" width="125" height="125" fill="#BF9C8D" />
  <rect x="1125" y="250" width="125" height="125" fill="#F4F1E1" />
  <rect x="250" y="375" width="125" height="125" fill="#7A6E6E" />
  <rect x="375" y="375" width="125" height="125" fill="#E96A55" />
  <rect x="500" y="375" width="125" height="125" fill="#2A241F" />
  <rect x="625" y="375" width="125" height="125" fill="#D99179" />
  <rect x="750" y="375" width="125" height="125" fill="#C5B8A6" />
  <rect x="875" y="375" width="125" height="125" fill="#2E2523" />
  <rect x="1000" y="375" width="125" height="125" fill="#B15A33" />
  <rect x="1125" y="375" width="125" height="125" fill="#FBD29D" />
  <rect x="250" y="500" width="125" height="125" fill="#5B4345" />
  <rect x="375" y="500" width="125" height="125" fill="#CC8055" />
  <rect x="500" y="500" width="125" height="125" fill="#F1F0F4" />
  <rect x="625" y="500" width="125" height="125" fill="#DFD1D3" />
  <rect x="750" y="500" width="125" height="125" fill="#000000" />
  <rect x="875" y="500" width="125" height="125" fill="#DEB7B0" />
  <rect x="1000" y="500" width="125" height="125" fill="#F8E9E4" />
  <rect x="1125" y="500" width="125" height="125" fill="#F1F0F2" />
  <rect x="250" y="625" width="125" height="125" fill="#8A6F72" />
  <rect x="375" y="625" width="125" height="125" fill="#3A2B2B" />
  <rect x="500" y="625" width="125" height="125" fill="#E5A45E" />
  <rect x="625" y="625" width="125" height="125" fill="#E75800" />
  <rect x="750" y="625" width="125" height="125" fill="#8B471D" />
  <rect x="875" y="625" width="125" height="125" fill="#CDA87D" />
  <rect x="1000" y="625" width="125" height="125" fill="#B70D01" />
  <rect x="1125" y="625" width="125" height="125" fill="#FFD6B1" />
  <rect x="250" y="750" width="125" height="125" fill="#5A3042" />
  <rect x="375" y="750" width="125" height="125" fill="#C6422D" />
  <rect x="500" y="750" width="125" height="125" fill="#D5B3A2" />
  <rect x="625" y="750" width="125" height="125" fill="#FFCC65" />
  <rect x="750" y="750" width="125" height="125" fill="#DDFFDA" />
  <rect x="875" y="750" width="125" height="125" fill="#000000" />
  <rect x="1000" y="750" width="125" height="125" fill="#301735" />
  <rect x="1125" y="750" width="125" height="125" fill="#BF4F40" />
  <rect x="250" y="875" width="125" height="125" fill="#4A3831" />
  <rect x="375" y="875" width="125" height="125" fill="#6D4C4E" />
  <rect x="500" y="875" width="125" height="125" fill="#6A3A4B" />
  <rect x="625" y="875" width="125" height="125" fill="#E56C40" />
  <rect x="750" y="875" width="125" height="125" fill="#DAB98C" />
  <rect x="875" y="875" width="125" height="125" fill="#F8D0B6" />
  <rect x="1000" y="875" width="125" height="125" fill="#9C8E84" />
  <rect x="1125" y="875" width="125" height="125" fill="#F2E3E0" />
  <rect x="250" y="1000" width="125" height="125" fill="#D3837E" />
  <rect x="375" y="1000" width="125" height="125" fill="#BF5D5C" />
  <rect x="500" y="1000" width="125" height="125" fill="#F2A365" />
  <rect x="625" y="1000" width="125" height="125" fill="#C8AAB3" />
  <rect x="750" y="1000" width="125" height="125" fill="#E3BFA9" />
  <rect x="875" y="1000" width="125" height="125" fill="#C2453A" />
  <rect x="1000" y="1000" width="125" height="125" fill="#E1D7CE" />
  <rect x="1125" y="1000" width="125" height="125" fill="#F3E7E3" />
  <rect x="250" y="1125" width="125" height="125" fill="#B86A56" />
  <rect x="375" y="1125" width="125" height="125" fill="#4C3E30" />
  <rect x="500" y="1125" width="125" height="125" fill="#CC9F80" />
  <rect x="625" y="1125" width="125" height="125" fill="#7B634B" />
  <rect x="750" y="1125" width="125" height="125" fill="#CFC8D4" />
  <rect x="875" y="1125" width="125" height="125" fill="#FFE3B6" />
  <rect x="1000" y="1125" width="125" height="125" fill="#5A4A4C" />
  <rect x="1125" y="1125" width="125" height="125" fill="#3D281F" />
  <rect x="250" y="250" width="1000" height="1000" fill="none" stroke="#151515" stroke-opacity="0.16" stroke-width="2" />
</svg>
