<svg xmlns="http://www.w3.org/2000/svg" width="1500" height="1500" viewBox="0 0 1500 1500" shape-rendering="crispEdges" role="img" aria-labelledby="title desc">
  <title id="title">Fragmented Echo in Brown frame</title>
  <desc id="desc">Square Project artwork previewed in a brown frame.</desc>
  <defs>
    <linearGradient id="frameFace" x1="0" y1="0" x2="1" y2="1">
      <stop offset="0" stop-color="#C18A55" />
      <stop offset="0.32" stop-color="#9A6840" />
      <stop offset="0.68" stop-color="#70401F" />
      <stop offset="1" stop-color="#3F2413" />
    </linearGradient>
    <filter id="artShadow" x="-10%" y="-10%" width="120%" height="120%">
      <feDropShadow dx="0" dy="20" stdDeviation="24" flood-color="#000000" flood-opacity="0.24" />
    </filter>
  </defs>
  <rect x="0" y="0" width="1500" height="1500" fill="#FFFFFF" />
  <rect x="0" y="0" width="1500" height="1500" fill="url(#frameFace)" />
  <rect x="120" y="120" width="1260" height="1260" fill="#F8F7F3" />
  <rect x="120" y="120" width="1260" height="1260" fill="none" stroke="#000000" stroke-opacity="0.14" stroke-width="10" />
  <rect x="250" y="250" width="1000" height="1000" fill="#FFFFFF" filter="url(#artShadow)" />
  <rect x="250" y="250" width="125" height="125" fill="#5B3A29" />
  <rect x="375" y="250" width="125" height="125" fill="#885652" />
  <rect x="500" y="250" width="125" height="125" fill="#D19B74" />
  <rect x="625" y="250" width="125" height="125" fill="#C65B71" />
  <rect x="750" y="250" width="125" height="125" fill="#C35A75" />
  <rect x="875" y="250" width="125" height="125" fill="#9B3634" />
  <rect x="1000" y="250" width="125" height="125" fill="#44221B" />
  <rect x="1125" y="250" width="125" height="125" fill="#26150A" />
  <rect x="250" y="375" width="125" height="125" fill="#A75E55" />
  <rect x="375" y="375" width="125" height="125" fill="#C6B9B0" />
  <rect x="500" y="375" width="125" height="125" fill="#E7D1B8" />
  <rect x="625" y="375" width="125" height="125" fill="#F0E8E1" />
  <rect x="750" y="375" width="125" height="125" fill="#D9D8D2" />
  <rect x="875" y="375" width="125" height="125" fill="#A8A29A" />
  <rect x="1000" y="375" width="125" height="125" fill="#5C4F43" />
  <rect x="1125" y="375" width="125" height="125" fill="#3F3B36" />
  <rect x="250" y="500" width="125" height="125" fill="#E9D5C7" />
  <rect x="375" y="500" width="125" height="125" fill="#B4967F" />
  <rect x="500" y="500" width="125" height="125" fill="#6B4B37" />
  <rect x="625" y="500" width="125" height="125" fill="#ADEDC3" />
  <rect x="750" y="500" width="125" height="125" fill="#85C1D8" />
  <rect x="875" y="500" width="125" height="125" fill="#4C7C7F" />
  <rect x="1000" y="500" width="125" height="125" fill="#1A3031" />
  <rect x="1125" y="500" width="125" height="125" fill="#092222" />
  <rect x="250" y="625" width="125" height="125" fill="#F1F0F3" />
  <rect x="375" y="625" width="125" height="125" fill="#C4DFF0" />
  <rect x="500" y="625" width="125" height="125" fill="#81B3C5" />
  <rect x="625" y="625" width="125" height="125" fill="#4E6580" />
  <rect x="750" y="625" width="125" height="125" fill="#3C4C54" />
  <rect x="875" y="625" width="125" height="125" fill="#929BC4" />
  <rect x="1000" y="625" width="125" height="125" fill="#65778D" />
  <rect x="1125" y="625" width="125" height="125" fill="#2B2024" />
  <rect x="250" y="750" width="125" height="125" fill="#E3C2B7" />
  <rect x="375" y="750" width="125" height="125" fill="#B6AB82" />
  <rect x="500" y="750" width="125" height="125" fill="#F4E3D7" />
  <rect x="625" y="750" width="125" height="125" fill="#F8D3E7" />
  <rect x="750" y="750" width="125" height="125" fill="#D2B3B1" />
  <rect x="875" y="750" width="125" height="125" fill="#351F1E" />
  <rect x="1000" y="750" width="125" height="125" fill="#B78070" />
  <rect x="1125" y="750" width="125" height="125" fill="#62203A" />
  <rect x="250" y="875" width="125" height="125" fill="#DFC247" />
  <rect x="375" y="875" width="125" height="125" fill="#72715D" />
  <rect x="500" y="875" width="125" height="125" fill="#454642" />
  <rect x="625" y="875" width="125" height="125" fill="#C5C4B8" />
  <rect x="750" y="875" width="125" height="125" fill="#E6F4E1" />
  <rect x="875" y="875" width="125" height="125" fill="#B6B3BE" />
  <rect x="1000" y="875" width="125" height="125" fill="#909090" />
  <rect x="1125" y="875" width="125" height="125" fill="#8E8B88" />
  <rect x="250" y="1000" width="125" height="125" fill="#FEFEFC" />
  <rect x="375" y="1000" width="125" height="125" fill="#E4D9C2" />
  <rect x="500" y="1000" width="125" height="125" fill="#B8B3AF" />
  <rect x="625" y="1000" width="125" height="125" fill="#3F2D2F" />
  <rect x="750" y="1000" width="125" height="125" fill="#C1B7B4" />
  <rect x="875" y="1000" width="125" height="125" fill="#E1D7D3" />
  <rect x="1000" y="1000" width="125" height="125" fill="#E0B9A3" />
  <rect x="1125" y="1000" width="125" height="125" fill="#C28579" />
  <rect x="250" y="1125" width="125" height="125" fill="#C1C1C1" />
  <rect x="375" y="1125" width="125" height="125" fill="#C1C1C1" />
  <rect x="500" y="1125" width="125" height="125" fill="#C1C1C1" />
  <rect x="625" y="1125" width="125" height="125" fill="#C1C1C1" />
  <rect x="750" y="1125" width="125" height="125" fill="#C1C1C1" />
  <rect x="875" y="1125" width="125" height="125" fill="#C1C1C1" />
  <rect x="1000" y="1125" width="125" height="125" fill="#C1C1C1" />
  <rect x="1125" y="1125" width="125" height="125" fill="#C1C1C1" />
  <rect x="250" y="250" width="1000" height="1000" fill="none" stroke="#151515" stroke-opacity="0.16" stroke-width="2" />
</svg>
