<svg xmlns="http://www.w3.org/2000/svg" width="1500" height="1500" viewBox="0 0 1500 1500" shape-rendering="crispEdges" role="img" aria-labelledby="title desc">
  <title id="title">Threshold of Emotion in Natural frame</title>
  <desc id="desc">Square Project artwork previewed in a natural frame.</desc>
  <rect x="0" y="0" width="1500" height="1500" fill="#FFFFFF" />
  <image href="https://mysquareart.com/frames/natural.jpg" x="0" y="0" width="1500" height="1500" preserveAspectRatio="xMidYMid meet" />
  <rect x="250" y="250" width="1000" height="1000" fill="#FFFFFF" />
  <rect x="250" y="250" width="125" height="125" fill="#000C3F" />
  <rect x="375" y="250" width="125" height="125" fill="#1F4F75" />
  <rect x="500" y="250" width="125" height="125" fill="#3D6EAE" />
  <rect x="625" y="250" width="125" height="125" fill="#61B4D4" />
  <rect x="750" y="250" width="125" height="125" fill="#3E9A8A" />
  <rect x="875" y="250" width="125" height="125" fill="#B8C4BF" />
  <rect x="1000" y="250" width="125" height="125" fill="#E5E2EB" />
  <rect x="1125" y="250" width="125" height="125" fill="#FFFFFF" />
  <rect x="250" y="375" width="125" height="125" fill="#002340" />
  <rect x="375" y="375" width="125" height="125" fill="#153052" />
  <rect x="500" y="375" width="125" height="125" fill="#334D7C" />
  <rect x="625" y="375" width="125" height="125" fill="#5E9EB2" />
  <rect x="750" y="375" width="125" height="125" fill="#7FC4D7" />
  <rect x="875" y="375" width="125" height="125" fill="#A3C6DA" />
  <rect x="1000" y="375" width="125" height="125" fill="#EDEFF2" />
  <rect x="1125" y="375" width="125" height="125" fill="#F4F6F9" />
  <rect x="250" y="500" width="125" height="125" fill="#000000" />
  <rect x="375" y="500" width="125" height="125" fill="#003160" />
  <rect x="500" y="500" width="125" height="125" fill="#006A89" />
  <rect x="625" y="500" width="125" height="125" fill="#00A1B0" />
  <rect x="750" y="500" width="125" height="125" fill="#61D3DA" />
  <rect x="875" y="500" width="125" height="125" fill="#A1DBDA" />
  <rect x="1000" y="500" width="125" height="125" fill="#D4E9E9" />
  <rect x="1125" y="500" width="125" height="125" fill="#FFFFFF" />
  <rect x="250" y="625" width="125" height="125" fill="#1D2A3D" />
  <rect x="375" y="625" width="125" height="125" fill="#2E3E57" />
  <rect x="500" y="625" width="125" height="125" fill="#506B8B" />
  <rect x="625" y="625" width="125" height="125" fill="#7E9BB8" />
  <rect x="750" y="625" width="125" height="125" fill="#10B7CF" />
  <rect x="875" y="625" width="125" height="125" fill="#7DD6D8" />
  <rect x="1000" y="625" width="125" height="125" fill="#D1F6F3" />
  <rect x="1125" y="625" width="125" height="125" fill="#FFFFFF" />
  <rect x="250" y="750" width="125" height="125" fill="#111B27" />
  <rect x="375" y="750" width="125" height="125" fill="#23333F" />
  <rect x="500" y="750" width="125" height="125" fill="#36585C" />
  <rect x="625" y="750" width="125" height="125" fill="#526272" />
  <rect x="750" y="750" width="125" height="125" fill="#C4D1D7" />
  <rect x="875" y="750" width="125" height="125" fill="#6E7B88" />
  <rect x="1000" y="750" width="125" height="125" fill="#A8B2B9" />
  <rect x="1125" y="750" width="125" height="125" fill="#FFFFFF" />
  <rect x="250" y="875" width="125" height="125" fill="#0D1016" />
  <rect x="375" y="875" width="125" height="125" fill="#263547" />
  <rect x="500" y="875" width="125" height="125" fill="#385F6B" />
  <rect x="625" y="875" width="125" height="125" fill="#4C7487" />
  <rect x="750" y="875" width="125" height="125" fill="#007E92" />
  <rect x="875" y="875" width="125" height="125" fill="#69ADBF" />
  <rect x="1000" y="875" width="125" height="125" fill="#C4DFE6" />
  <rect x="1125" y="875" width="125" height="125" fill="#FFFFFF" />
  <rect x="250" y="1000" width="125" height="125" fill="#0F1827" />
  <rect x="375" y="1000" width="125" height="125" fill="#243B52" />
  <rect x="500" y="1000" width="125" height="125" fill="#386277" />
  <rect x="625" y="1000" width="125" height="125" fill="#4D8BB3" />
  <rect x="750" y="1000" width="125" height="125" fill="#6CABBF" />
  <rect x="875" y="1000" width="125" height="125" fill="#9DD6DB" />
  <rect x="1000" y="1000" width="125" height="125" fill="#E0F1F3" />
  <rect x="1125" y="1000" width="125" height="125" fill="#FFFFFF" />
  <rect x="250" y="1125" width="125" height="125" fill="#000000" />
  <rect x="375" y="1125" width="125" height="125" fill="#334751" />
  <rect x="500" y="1125" width="125" height="125" fill="#557B92" />
  <rect x="625" y="1125" width="125" height="125" fill="#77ADC1" />
  <rect x="750" y="1125" width="125" height="125" fill="#A1C8D4" />
  <rect x="875" y="1125" width="125" height="125" fill="#C8E0E8" />
  <rect x="1000" y="1125" width="125" height="125" fill="#EDEEF0" />
  <rect x="1125" y="1125" width="125" height="125" fill="#FFFFFF" />
  <rect x="250" y="250" width="1000" height="1000" fill="none" stroke="#151515" stroke-opacity="0.16" stroke-width="2" />
</svg>
