<svg xmlns="http://www.w3.org/2000/svg" width="1500" height="1500" viewBox="0 0 1500 1500" shape-rendering="crispEdges" role="img" aria-labelledby="title desc">
  <title id="title">Tension in Orbit in White frame</title>
  <desc id="desc">Square Project artwork previewed in a white frame.</desc>
  <rect x="0" y="0" width="1500" height="1500" fill="#FFFFFF" />
  <image href="https://mysquareart.com/frames/white.jpg" x="0" y="0" width="1500" height="1500" preserveAspectRatio="xMidYMid meet" />
  <rect x="250" y="250" width="1000" height="1000" fill="#FFFFFF" />
  <rect x="250" y="250" width="125" height="125" fill="#BF4C00" />
  <rect x="375" y="250" width="125" height="125" fill="#763C33" />
  <rect x="500" y="250" width="125" height="125" fill="#FFF5DB" />
  <rect x="625" y="250" width="125" height="125" fill="#251F21" />
  <rect x="750" y="250" width="125" height="125" fill="#4E1B00" />
  <rect x="875" y="250" width="125" height="125" fill="#BF4C00" />
  <rect x="1000" y="250" width="125" height="125" fill="#763C33" />
  <rect x="1125" y="250" width="125" height="125" fill="#000000" />
  <rect x="250" y="375" width="125" height="125" fill="#BF4C00" />
  <rect x="375" y="375" width="125" height="125" fill="#A6512B" />
  <rect x="500" y="375" width="125" height="125" fill="#F5E1D9" />
  <rect x="625" y="375" width="125" height="125" fill="#5B5452" />
  <rect x="750" y="375" width="125" height="125" fill="#4B2D2D" />
  <rect x="875" y="375" width="125" height="125" fill="#7A4F3D" />
  <rect x="1000" y="375" width="125" height="125" fill="#BF4C00" />
  <rect x="1125" y="375" width="125" height="125" fill="#000000" />
  <rect x="250" y="500" width="125" height="125" fill="#762A00" />
  <rect x="375" y="500" width="125" height="125" fill="#F5D3C5" />
  <rect x="500" y="500" width="125" height="125" fill="#E7BEBE" />
  <rect x="625" y="500" width="125" height="125" fill="#191919" />
  <rect x="750" y="500" width="125" height="125" fill="#BF4C00" />
  <rect x="875" y="500" width="125" height="125" fill="#6F3939" />
  <rect x="1000" y="500" width="125" height="125" fill="#BF4C00" />
  <rect x="1125" y="500" width="125" height="125" fill="#000000" />
  <rect x="250" y="625" width="125" height="125" fill="#BF4C00" />
  <rect x="375" y="625" width="125" height="125" fill="#763C33" />
  <rect x="500" y="625" width="125" height="125" fill="#FFFAF3" />
  <rect x="625" y="625" width="125" height="125" fill="#4A2E2F" />
  <rect x="750" y="625" width="125" height="125" fill="#111111" />
  <rect x="875" y="625" width="125" height="125" fill="#BF4C00" />
  <rect x="1000" y="625" width="125" height="125" fill="#4F3D33" />
  <rect x="1125" y="625" width="125" height="125" fill="#000000" />
  <rect x="250" y="750" width="125" height="125" fill="#BF4C00" />
  <rect x="375" y="750" width="125" height="125" fill="#A6512B" />
  <rect x="500" y="750" width="125" height="125" fill="#4D1313" />
  <rect x="625" y="750" width="125" height="125" fill="#FFFFFF" />
  <rect x="750" y="750" width="125" height="125" fill="#BF4C00" />
  <rect x="875" y="750" width="125" height="125" fill="#6F3939" />
  <rect x="1000" y="750" width="125" height="125" fill="#BF4C00" />
  <rect x="1125" y="750" width="125" height="125" fill="#000000" />
  <rect x="250" y="875" width="125" height="125" fill="#BF4C00" />
  <rect x="375" y="875" width="125" height="125" fill="#BF4C00" />
  <rect x="500" y="875" width="125" height="125" fill="#F5E1D9" />
  <rect x="625" y="875" width="125" height="125" fill="#2E1E1D" />
  <rect x="750" y="875" width="125" height="125" fill="#000000" />
  <rect x="875" y="875" width="125" height="125" fill="#BF4C00" />
  <rect x="1000" y="875" width="125" height="125" fill="#763C33" />
  <rect x="1125" y="875" width="125" height="125" fill="#000000" />
  <rect x="250" y="1000" width="125" height="125" fill="#BF4C00" />
  <rect x="375" y="1000" width="125" height="125" fill="#A6512B" />
  <rect x="500" y="1000" width="125" height="125" fill="#4C3B37" />
  <rect x="625" y="1000" width="125" height="125" fill="#763C33" />
  <rect x="750" y="1000" width="125" height="125" fill="#3E2C2B" />
  <rect x="875" y="1000" width="125" height="125" fill="#BF4C00" />
  <rect x="1000" y="1000" width="125" height="125" fill="#763C33" />
  <rect x="1125" y="1000" width="125" height="125" fill="#000000" />
  <rect x="250" y="1125" width="125" height="125" fill="#BF4C00" />
  <rect x="375" y="1125" width="125" height="125" fill="#BF4C00" />
  <rect x="500" y="1125" width="125" height="125" fill="#BF4C00" />
  <rect x="625" y="1125" width="125" height="125" fill="#BF4C00" />
  <rect x="750" y="1125" width="125" height="125" fill="#BF4C00" />
  <rect x="875" y="1125" width="125" height="125" fill="#BF4C00" />
  <rect x="1000" y="1125" width="125" height="125" fill="#000000" />
  <rect x="1125" y="1125" width="125" height="125" fill="#000000" />
  <rect x="250" y="250" width="1000" height="1000" fill="none" stroke="#151515" stroke-opacity="0.16" stroke-width="2" />
</svg>
