<svg xmlns="http://www.w3.org/2000/svg" width="1500" height="1500" viewBox="0 0 1500 1500" shape-rendering="crispEdges" role="img" aria-labelledby="title desc">
  <title id="title">Tension and Release in Gold frame</title>
  <desc id="desc">Square Project artwork previewed in a gold frame.</desc>
  <rect x="0" y="0" width="1500" height="1500" fill="#FFFFFF" />
  <image href="https://mysquareart.com/frames/gold.jpg" x="0" y="0" width="1500" height="1500" preserveAspectRatio="xMidYMid meet" />
  <rect x="250" y="250" width="1000" height="1000" fill="#FFFFFF" />
  <rect x="250" y="250" width="125" height="125" fill="#F2C6D4" />
  <rect x="375" y="250" width="125" height="125" fill="#F4E3E3" />
  <rect x="500" y="250" width="125" height="125" fill="#F7D1D1" />
  <rect x="625" y="250" width="125" height="125" fill="#FBDED7" />
  <rect x="750" y="250" width="125" height="125" fill="#F1B3C0" />
  <rect x="875" y="250" width="125" height="125" fill="#E5A6B4" />
  <rect x="1000" y="250" width="125" height="125" fill="#F3D2D3" />
  <rect x="1125" y="250" width="125" height="125" fill="#F7EEF0" />
  <rect x="250" y="375" width="125" height="125" fill="#FFFFFF" />
  <rect x="375" y="375" width="125" height="125" fill="#FFFFFF" />
  <rect x="500" y="375" width="125" height="125" fill="#FFFFFF" />
  <rect x="625" y="375" width="125" height="125" fill="#F1C0C0" />
  <rect x="750" y="375" width="125" height="125" fill="#D4A6B1" />
  <rect x="875" y="375" width="125" height="125" fill="#E0C6C7" />
  <rect x="1000" y="375" width="125" height="125" fill="#EEB2B4" />
  <rect x="1125" y="375" width="125" height="125" fill="#FFCCCC" />
  <rect x="250" y="500" width="125" height="125" fill="#B0B0B0" />
  <rect x="375" y="500" width="125" height="125" fill="#A8A8A8" />
  <rect x="500" y="500" width="125" height="125" fill="#A0A0A0" />
  <rect x="625" y="500" width="125" height="125" fill="#909090" />
  <rect x="750" y="500" width="125" height="125" fill="#888888" />
  <rect x="875" y="500" width="125" height="125" fill="#808080" />
  <rect x="1000" y="500" width="125" height="125" fill="#787878" />
  <rect x="1125" y="500" width="125" height="125" fill="#707070" />
  <rect x="250" y="625" width="125" height="125" fill="#6E6E6E" />
  <rect x="375" y="625" width="125" height="125" fill="#5C5C5C" />
  <rect x="500" y="625" width="125" height="125" fill="#4A4A4A" />
  <rect x="625" y="625" width="125" height="125" fill="#383838" />
  <rect x="750" y="625" width="125" height="125" fill="#262626" />
  <rect x="875" y="625" width="125" height="125" fill="#141414" />
  <rect x="1000" y="625" width="125" height="125" fill="#000000" />
  <rect x="1125" y="625" width="125" height="125" fill="#1A1A1A" />
  <rect x="250" y="750" width="125" height="125" fill="#B3B3B3" />
  <rect x="375" y="750" width="125" height="125" fill="#CCCCCC" />
  <rect x="500" y="750" width="125" height="125" fill="#D8D8D8" />
  <rect x="625" y="750" width="125" height="125" fill="#E1E1E1" />
  <rect x="750" y="750" width="125" height="125" fill="#EAEAEA" />
  <rect x="875" y="750" width="125" height="125" fill="#F4F4F4" />
  <rect x="1000" y="750" width="125" height="125" fill="#FFFFFF" />
  <rect x="1125" y="750" width="125" height="125" fill="#F5F5F5" />
  <rect x="250" y="875" width="125" height="125" fill="#EAE3E3" />
  <rect x="375" y="875" width="125" height="125" fill="#D4B3B3" />
  <rect x="500" y="875" width="125" height="125" fill="#B7A6A6" />
  <rect x="625" y="875" width="125" height="125" fill="#C0D4D4" />
  <rect x="750" y="875" width="125" height="125" fill="#B0B3B3" />
  <rect x="875" y="875" width="125" height="125" fill="#B7A6A6" />
  <rect x="1000" y="875" width="125" height="125" fill="#E0D3D3" />
  <rect x="1125" y="875" width="125" height="125" fill="#F4CFCE" />
  <rect x="250" y="1000" width="125" height="125" fill="#7D7D7D" />
  <rect x="375" y="1000" width="125" height="125" fill="#6B6B6B" />
  <rect x="500" y="1000" width="125" height="125" fill="#5B5B5B" />
  <rect x="625" y="1000" width="125" height="125" fill="#4F4F4F" />
  <rect x="750" y="1000" width="125" height="125" fill="#383838" />
  <rect x="875" y="1000" width="125" height="125" fill="#292929" />
  <rect x="1000" y="1000" width="125" height="125" fill="#191919" />
  <rect x="1125" y="1000" width="125" height="125" fill="#0A0A0A" />
  <rect x="250" y="1125" width="125" height="125" fill="#A5362F" />
  <rect x="375" y="1125" width="125" height="125" fill="#A8444F" />
  <rect x="500" y="1125" width="125" height="125" fill="#BB4848" />
  <rect x="625" y="1125" width="125" height="125" fill="#7A5858" />
  <rect x="750" y="1125" width="125" height="125" fill="#6C6C6C" />
  <rect x="875" y="1125" width="125" height="125" fill="#979797" />
  <rect x="1000" y="1125" width="125" height="125" fill="#BBBBBB" />
  <rect x="1125" y="1125" width="125" height="125" fill="#D7D7D7" />
  <rect x="250" y="250" width="1000" height="1000" fill="none" stroke="#151515" stroke-opacity="0.16" stroke-width="2" />
</svg>
