<svg xmlns="http://www.w3.org/2000/svg" width="1500" height="1500" viewBox="0 0 1500 1500" shape-rendering="crispEdges" role="img" aria-labelledby="title desc">
  <title id="title">Echoes of Tension in White frame</title>
  <desc id="desc">Square Project artwork previewed in a white frame.</desc>
  <defs>
    <linearGradient id="frameFace" x1="0" y1="0" x2="1" y2="1">
      <stop offset="0" stop-color="#BEBEB8" />
      <stop offset="0.32" stop-color="#FFFFFF" />
      <stop offset="0.68" stop-color="#F8F8F5" />
      <stop offset="1" stop-color="#D5D5CF" />
    </linearGradient>
    <filter id="artShadow" x="-10%" y="-10%" width="120%" height="120%">
      <feDropShadow dx="0" dy="20" stdDeviation="24" flood-color="#000000" flood-opacity="0.24" />
    </filter>
  </defs>
  <rect x="0" y="0" width="1500" height="1500" fill="#FFFFFF" />
  <rect x="0" y="0" width="1500" height="1500" fill="url(#frameFace)" />
  <rect x="120" y="120" width="1260" height="1260" fill="#F8F7F3" />
  <rect x="120" y="120" width="1260" height="1260" fill="none" stroke="#000000" stroke-opacity="0.14" stroke-width="10" />
  <rect x="250" y="250" width="1000" height="1000" fill="#FFFFFF" filter="url(#artShadow)" />
  <rect x="250" y="250" width="125" height="125" fill="#000000" />
  <rect x="375" y="250" width="125" height="125" fill="#051C33" />
  <rect x="500" y="250" width="125" height="125" fill="#0E2A41" />
  <rect x="625" y="250" width="125" height="125" fill="#15384F" />
  <rect x="750" y="250" width="125" height="125" fill="#0A1622" />
  <rect x="875" y="250" width="125" height="125" fill="#031D27" />
  <rect x="1000" y="250" width="125" height="125" fill="#1A5B9C" />
  <rect x="1125" y="250" width="125" height="125" fill="#000D1F" />
  <rect x="250" y="375" width="125" height="125" fill="#0E2A41" />
  <rect x="375" y="375" width="125" height="125" fill="#021C37" />
  <rect x="500" y="375" width="125" height="125" fill="#3B515D" />
  <rect x="625" y="375" width="125" height="125" fill="#202F3C" />
  <rect x="750" y="375" width="125" height="125" fill="#13252E" />
  <rect x="875" y="375" width="125" height="125" fill="#0C161A" />
  <rect x="1000" y="375" width="125" height="125" fill="#4C7585" />
  <rect x="1125" y="375" width="125" height="125" fill="#0A2334" />
  <rect x="250" y="500" width="125" height="125" fill="#1A5B9C" />
  <rect x="375" y="500" width="125" height="125" fill="#2E4C58" />
  <rect x="500" y="500" width="125" height="125" fill="#0C2334" />
  <rect x="625" y="500" width="125" height="125" fill="#172A3C" />
  <rect x="750" y="500" width="125" height="125" fill="#031B27" />
  <rect x="875" y="500" width="125" height="125" fill="#2A6A83" />
  <rect x="1000" y="500" width="125" height="125" fill="#0A1E23" />
  <rect x="1125" y="500" width="125" height="125" fill="#11151A" />
  <rect x="250" y="625" width="125" height="125" fill="#0A1622" />
  <rect x="375" y="625" width="125" height="125" fill="#093A4B" />
  <rect x="500" y="625" width="125" height="125" fill="#0B3E5A" />
  <rect x="625" y="625" width="125" height="125" fill="#021D34" />
  <rect x="750" y="625" width="125" height="125" fill="#4A8BBF" />
  <rect x="875" y="625" width="125" height="125" fill="#021B27" />
  <rect x="1000" y="625" width="125" height="125" fill="#0F3140" />
  <rect x="1125" y="625" width="125" height="125" fill="#000000" />
  <rect x="250" y="750" width="125" height="125" fill="#05324C" />
  <rect x="375" y="750" width="125" height="125" fill="#0A1D23" />
  <rect x="500" y="750" width="125" height="125" fill="#01828C" />
  <rect x="625" y="750" width="125" height="125" fill="#020F18" />
  <rect x="750" y="750" width="125" height="125" fill="#0A1E23" />
  <rect x="875" y="750" width="125" height="125" fill="#000D1F" />
  <rect x="1000" y="750" width="125" height="125" fill="#0E3D51" />
  <rect x="1125" y="750" width="125" height="125" fill="#0C2334" />
  <rect x="250" y="875" width="125" height="125" fill="#0D1B25" />
  <rect x="375" y="875" width="125" height="125" fill="#4F778A" />
  <rect x="500" y="875" width="125" height="125" fill="#1B3C47" />
  <rect x="625" y="875" width="125" height="125" fill="#26170B" />
  <rect x="750" y="875" width="125" height="125" fill="#0A1622" />
  <rect x="875" y="875" width="125" height="125" fill="#1D505D" />
  <rect x="1000" y="875" width="125" height="125" fill="#0C1B22" />
  <rect x="1125" y="875" width="125" height="125" fill="#111510" />
  <rect x="250" y="1000" width="125" height="125" fill="#0E2A41" />
  <rect x="375" y="1000" width="125" height="125" fill="#021C37" />
  <rect x="500" y="1000" width="125" height="125" fill="#151E1D" />
  <rect x="625" y="1000" width="125" height="125" fill="#000F13" />
  <rect x="750" y="1000" width="125" height="125" fill="#0A1622" />
  <rect x="875" y="1000" width="125" height="125" fill="#2D2B28" />
  <rect x="1000" y="1000" width="125" height="125" fill="#3B515D" />
  <rect x="1125" y="1000" width="125" height="125" fill="#0A1E23" />
  <rect x="250" y="1125" width="125" height="125" fill="#0C1B22" />
  <rect x="375" y="1125" width="125" height="125" fill="#0E2A41" />
  <rect x="500" y="1125" width="125" height="125" fill="#1A5B9C" />
  <rect x="625" y="1125" width="125" height="125" fill="#000000" />
  <rect x="750" y="1125" width="125" height="125" fill="#0A1622" />
  <rect x="875" y="1125" width="125" height="125" fill="#2B3D46" />
  <rect x="1000" y="1125" width="125" height="125" fill="#030F19" />
  <rect x="1125" y="1125" width="125" height="125" fill="#1A5B9C" />
  <rect x="250" y="250" width="1000" height="1000" fill="none" stroke="#151515" stroke-opacity="0.16" stroke-width="2" />
</svg>
