<svg xmlns="http://www.w3.org/2000/svg" width="1500" height="1500" viewBox="0 0 1500 1500" shape-rendering="crispEdges" role="img" aria-labelledby="title desc">
  <title id="title">Exposure vs Shelter in Brown frame</title>
  <desc id="desc">Square Project artwork previewed in a brown frame.</desc>
  <defs>
    <linearGradient id="frameFace" x1="0" y1="0" x2="1" y2="1">
      <stop offset="0" stop-color="#C18A55" />
      <stop offset="0.32" stop-color="#9A6840" />
      <stop offset="0.68" stop-color="#70401F" />
      <stop offset="1" stop-color="#3F2413" />
    </linearGradient>
    <filter id="artShadow" x="-10%" y="-10%" width="120%" height="120%">
      <feDropShadow dx="0" dy="20" stdDeviation="24" flood-color="#000000" flood-opacity="0.24" />
    </filter>
  </defs>
  <rect x="0" y="0" width="1500" height="1500" fill="#FFFFFF" />
  <rect x="0" y="0" width="1500" height="1500" fill="url(#frameFace)" />
  <rect x="120" y="120" width="1260" height="1260" fill="#F8F7F3" />
  <rect x="120" y="120" width="1260" height="1260" fill="none" stroke="#000000" stroke-opacity="0.14" stroke-width="10" />
  <rect x="250" y="250" width="1000" height="1000" fill="#FFFFFF" filter="url(#artShadow)" />
  <rect x="250" y="250" width="125" height="125" fill="#F1C6D4" />
  <rect x="375" y="250" width="125" height="125" fill="#FFC3C3" />
  <rect x="500" y="250" width="125" height="125" fill="#FFD6D6" />
  <rect x="625" y="250" width="125" height="125" fill="#FFF5F5" />
  <rect x="750" y="250" width="125" height="125" fill="#FFB3B3" />
  <rect x="875" y="250" width="125" height="125" fill="#FFC9C9" />
  <rect x="1000" y="250" width="125" height="125" fill="#FFFFFF" />
  <rect x="1125" y="250" width="125" height="125" fill="#E0C3D7" />
  <rect x="250" y="375" width="125" height="125" fill="#D1A4B7" />
  <rect x="375" y="375" width="125" height="125" fill="#C6A4B8" />
  <rect x="500" y="375" width="125" height="125" fill="#D7A5B6" />
  <rect x="625" y="375" width="125" height="125" fill="#E2D7E3" />
  <rect x="750" y="375" width="125" height="125" fill="#F6E4EB" />
  <rect x="875" y="375" width="125" height="125" fill="#F1C6D4" />
  <rect x="1000" y="375" width="125" height="125" fill="#C2AEB1" />
  <rect x="1125" y="375" width="125" height="125" fill="#D5B5C9" />
  <rect x="250" y="500" width="125" height="125" fill="#B2A98E" />
  <rect x="375" y="500" width="125" height="125" fill="#8A827B" />
  <rect x="500" y="500" width="125" height="125" fill="#7C6B67" />
  <rect x="625" y="500" width="125" height="125" fill="#5F4C4C" />
  <rect x="750" y="500" width="125" height="125" fill="#9D9997" />
  <rect x="875" y="500" width="125" height="125" fill="#8E8C8A" />
  <rect x="1000" y="500" width="125" height="125" fill="#BDB7B6" />
  <rect x="1125" y="500" width="125" height="125" fill="#E8D9D5" />
  <rect x="250" y="625" width="125" height="125" fill="#B7C1CA" />
  <rect x="375" y="625" width="125" height="125" fill="#BACBD7" />
  <rect x="500" y="625" width="125" height="125" fill="#A1B0B0" />
  <rect x="625" y="625" width="125" height="125" fill="#ABACB5" />
  <rect x="750" y="625" width="125" height="125" fill="#C0C3CA" />
  <rect x="875" y="625" width="125" height="125" fill="#BEC8D0" />
  <rect x="1000" y="625" width="125" height="125" fill="#C5D0D9" />
  <rect x="1125" y="625" width="125" height="125" fill="#D8E1E3" />
  <rect x="250" y="750" width="125" height="125" fill="#D8D0C9" />
  <rect x="375" y="750" width="125" height="125" fill="#D0D9DA" />
  <rect x="500" y="750" width="125" height="125" fill="#BCC4C7" />
  <rect x="625" y="750" width="125" height="125" fill="#D0DAE1" />
  <rect x="750" y="750" width="125" height="125" fill="#BFD6E6" />
  <rect x="875" y="750" width="125" height="125" fill="#A8C4D9" />
  <rect x="1000" y="750" width="125" height="125" fill="#82F2C2" />
  <rect x="1125" y="750" width="125" height="125" fill="#82C9D8" />
  <rect x="250" y="875" width="125" height="125" fill="#F7F5FB" />
  <rect x="375" y="875" width="125" height="125" fill="#F7F3F5" />
  <rect x="500" y="875" width="125" height="125" fill="#F2EEF3" />
  <rect x="625" y="875" width="125" height="125" fill="#E8D6E1" />
  <rect x="750" y="875" width="125" height="125" fill="#EAE5E9" />
  <rect x="875" y="875" width="125" height="125" fill="#E4E1E7" />
  <rect x="1000" y="875" width="125" height="125" fill="#D7D3DB" />
  <rect x="1125" y="875" width="125" height="125" fill="#D1CAD6" />
  <rect x="250" y="1000" width="125" height="125" fill="#111C1F" />
  <rect x="375" y="1000" width="125" height="125" fill="#1B2833" />
  <rect x="500" y="1000" width="125" height="125" fill="#2D353A" />
  <rect x="625" y="1000" width="125" height="125" fill="#1F293A" />
  <rect x="750" y="1000" width="125" height="125" fill="#3B4547" />
  <rect x="875" y="1000" width="125" height="125" fill="#2A3032" />
  <rect x="1000" y="1000" width="125" height="125" fill="#4E5458" />
  <rect x="1125" y="1000" width="125" height="125" fill="#4B5054" />
  <rect x="250" y="1125" width="125" height="125" fill="#272B2D" />
  <rect x="375" y="1125" width="125" height="125" fill="#4B4E52" />
  <rect x="500" y="1125" width="125" height="125" fill="#565B5F" />
  <rect x="625" y="1125" width="125" height="125" fill="#2D3136" />
  <rect x="750" y="1125" width="125" height="125" fill="#1B1D20" />
  <rect x="875" y="1125" width="125" height="125" fill="#1F2326" />
  <rect x="1000" y="1125" width="125" height="125" fill="#222526" />
  <rect x="1125" y="1125" width="125" height="125" fill="#2A2D30" />
  <rect x="250" y="250" width="1000" height="1000" fill="none" stroke="#151515" stroke-opacity="0.16" stroke-width="2" />
</svg>
