<svg xmlns="http://www.w3.org/2000/svg" width="1500" height="1500" viewBox="0 0 1500 1500" shape-rendering="crispEdges" role="img" aria-labelledby="title desc">
  <title id="title">Collision at Threshold in White frame</title>
  <desc id="desc">Square Project artwork previewed in a white frame.</desc>
  <defs>
    <linearGradient id="frameFace" x1="0" y1="0" x2="1" y2="1">
      <stop offset="0" stop-color="#BEBEB8" />
      <stop offset="0.32" stop-color="#FFFFFF" />
      <stop offset="0.68" stop-color="#F8F8F5" />
      <stop offset="1" stop-color="#D5D5CF" />
    </linearGradient>
    <filter id="artShadow" x="-10%" y="-10%" width="120%" height="120%">
      <feDropShadow dx="0" dy="20" stdDeviation="24" flood-color="#000000" flood-opacity="0.24" />
    </filter>
  </defs>
  <rect x="0" y="0" width="1500" height="1500" fill="#FFFFFF" />
  <rect x="0" y="0" width="1500" height="1500" fill="url(#frameFace)" />
  <rect x="120" y="120" width="1260" height="1260" fill="#F8F7F3" />
  <rect x="120" y="120" width="1260" height="1260" fill="none" stroke="#000000" stroke-opacity="0.14" stroke-width="10" />
  <rect x="250" y="250" width="1000" height="1000" fill="#FFFFFF" filter="url(#artShadow)" />
  <rect x="250" y="250" width="125" height="125" fill="#4D6B2C" />
  <rect x="375" y="250" width="125" height="125" fill="#B7C9A2" />
  <rect x="500" y="250" width="125" height="125" fill="#C6E1E1" />
  <rect x="625" y="250" width="125" height="125" fill="#F9F9F9" />
  <rect x="750" y="250" width="125" height="125" fill="#F9F3B7" />
  <rect x="875" y="250" width="125" height="125" fill="#D4C8A8" />
  <rect x="1000" y="250" width="125" height="125" fill="#A30F0F" />
  <rect x="1125" y="250" width="125" height="125" fill="#AA8A00" />
  <rect x="250" y="375" width="125" height="125" fill="#B7C9A2" />
  <rect x="375" y="375" width="125" height="125" fill="#676B4B" />
  <rect x="500" y="375" width="125" height="125" fill="#C6E1E1" />
  <rect x="625" y="375" width="125" height="125" fill="#F9F9F9" />
  <rect x="750" y="375" width="125" height="125" fill="#F9F3B7" />
  <rect x="875" y="375" width="125" height="125" fill="#A15F00" />
  <rect x="1000" y="375" width="125" height="125" fill="#DFAA51" />
  <rect x="1125" y="375" width="125" height="125" fill="#BF1000" />
  <rect x="250" y="500" width="125" height="125" fill="#BFE3B8" />
  <rect x="375" y="500" width="125" height="125" fill="#B7C9A2" />
  <rect x="500" y="500" width="125" height="125" fill="#B3C2B0" />
  <rect x="625" y="500" width="125" height="125" fill="#F9F9F9" />
  <rect x="750" y="500" width="125" height="125" fill="#FFD7D7" />
  <rect x="875" y="500" width="125" height="125" fill="#A15F00" />
  <rect x="1000" y="500" width="125" height="125" fill="#DAAC78" />
  <rect x="1125" y="500" width="125" height="125" fill="#BF1000" />
  <rect x="250" y="625" width="125" height="125" fill="#CEDD69" />
  <rect x="375" y="625" width="125" height="125" fill="#B7C9A2" />
  <rect x="500" y="625" width="125" height="125" fill="#C2C0B2" />
  <rect x="625" y="625" width="125" height="125" fill="#FFFBF3" />
  <rect x="750" y="625" width="125" height="125" fill="#F8D721" />
  <rect x="875" y="625" width="125" height="125" fill="#6C5A3E" />
  <rect x="1000" y="625" width="125" height="125" fill="#DFAA51" />
  <rect x="1125" y="625" width="125" height="125" fill="#F9D9E1" />
  <rect x="250" y="750" width="125" height="125" fill="#C78E4B" />
  <rect x="375" y="750" width="125" height="125" fill="#A0C4A2" />
  <rect x="500" y="750" width="125" height="125" fill="#D9D4B5" />
  <rect x="625" y="750" width="125" height="125" fill="#E5E7B8" />
  <rect x="750" y="750" width="125" height="125" fill="#D2A69C" />
  <rect x="875" y="750" width="125" height="125" fill="#AA8A00" />
  <rect x="1000" y="750" width="125" height="125" fill="#A16B1A" />
  <rect x="1125" y="750" width="125" height="125" fill="#BF1000" />
  <rect x="250" y="875" width="125" height="125" fill="#FFD60A" />
  <rect x="375" y="875" width="125" height="125" fill="#A4C89A" />
  <rect x="500" y="875" width="125" height="125" fill="#FFFFFF" />
  <rect x="625" y="875" width="125" height="125" fill="#F4F4F4" />
  <rect x="750" y="875" width="125" height="125" fill="#B7C9A2" />
  <rect x="875" y="875" width="125" height="125" fill="#A0EFA1" />
  <rect x="1000" y="875" width="125" height="125" fill="#C72D00" />
  <rect x="1125" y="875" width="125" height="125" fill="#6C5A3E" />
  <rect x="250" y="1000" width="125" height="125" fill="#A15F00" />
  <rect x="375" y="1000" width="125" height="125" fill="#C2D5E3" />
  <rect x="500" y="1000" width="125" height="125" fill="#D9D4B5" />
  <rect x="625" y="1000" width="125" height="125" fill="#D4C2B4" />
  <rect x="750" y="1000" width="125" height="125" fill="#B7C9A2" />
  <rect x="875" y="1000" width="125" height="125" fill="#F3E6D6" />
  <rect x="1000" y="1000" width="125" height="125" fill="#6C5A3E" />
  <rect x="1125" y="1000" width="125" height="125" fill="#DFAA51" />
  <rect x="250" y="1125" width="125" height="125" fill="#4A7C2A" />
  <rect x="375" y="1125" width="125" height="125" fill="#A1C7E2" />
  <rect x="500" y="1125" width="125" height="125" fill="#C2C0B2" />
  <rect x="625" y="1125" width="125" height="125" fill="#F9F9F9" />
  <rect x="750" y="1125" width="125" height="125" fill="#D9D4B5" />
  <rect x="875" y="1125" width="125" height="125" fill="#A15F00" />
  <rect x="1000" y="1125" width="125" height="125" fill="#BF1000" />
  <rect x="1125" y="1125" width="125" height="125" fill="#DAA658" />
  <rect x="250" y="250" width="1000" height="1000" fill="none" stroke="#151515" stroke-opacity="0.16" stroke-width="2" />
</svg>
