<svg xmlns="http://www.w3.org/2000/svg" width="1500" height="1500" viewBox="0 0 1500 1500" shape-rendering="crispEdges" role="img" aria-labelledby="title desc">
  <title id="title">Collision of Tension in Black frame</title>
  <desc id="desc">Square Project artwork previewed in a black frame.</desc>
  <defs>
    <linearGradient id="frameFace" x1="0" y1="0" x2="1" y2="1">
      <stop offset="0" stop-color="#6A6A6A" />
      <stop offset="0.32" stop-color="#343434" />
      <stop offset="0.68" stop-color="#111111" />
      <stop offset="1" stop-color="#050505" />
    </linearGradient>
    <filter id="artShadow" x="-10%" y="-10%" width="120%" height="120%">
      <feDropShadow dx="0" dy="20" stdDeviation="24" flood-color="#000000" flood-opacity="0.24" />
    </filter>
  </defs>
  <rect x="0" y="0" width="1500" height="1500" fill="#FFFFFF" />
  <rect x="0" y="0" width="1500" height="1500" fill="url(#frameFace)" />
  <rect x="120" y="120" width="1260" height="1260" fill="#F8F7F3" />
  <rect x="120" y="120" width="1260" height="1260" fill="none" stroke="#000000" stroke-opacity="0.14" stroke-width="10" />
  <rect x="250" y="250" width="1000" height="1000" fill="#FFFFFF" filter="url(#artShadow)" />
  <rect x="250" y="250" width="125" height="125" fill="#000000" />
  <rect x="375" y="250" width="125" height="125" fill="#232323" />
  <rect x="500" y="250" width="125" height="125" fill="#333639" />
  <rect x="625" y="250" width="125" height="125" fill="#4B4E54" />
  <rect x="750" y="250" width="125" height="125" fill="#7D7A88" />
  <rect x="875" y="250" width="125" height="125" fill="#8E82B3" />
  <rect x="1000" y="250" width="125" height="125" fill="#DDD1A1" />
  <rect x="1125" y="250" width="125" height="125" fill="#F4F3E6" />
  <rect x="250" y="375" width="125" height="125" fill="#1D1D1D" />
  <rect x="375" y="375" width="125" height="125" fill="#272727" />
  <rect x="500" y="375" width="125" height="125" fill="#4A5157" />
  <rect x="625" y="375" width="125" height="125" fill="#646664" />
  <rect x="750" y="375" width="125" height="125" fill="#8C8A9B" />
  <rect x="875" y="375" width="125" height="125" fill="#B796A5" />
  <rect x="1000" y="375" width="125" height="125" fill="#F8D95C" />
  <rect x="1125" y="375" width="125" height="125" fill="#F0E58C" />
  <rect x="250" y="500" width="125" height="125" fill="#2A2A2A" />
  <rect x="375" y="500" width="125" height="125" fill="#384241" />
  <rect x="500" y="500" width="125" height="125" fill="#464C51" />
  <rect x="625" y="500" width="125" height="125" fill="#555C67" />
  <rect x="750" y="500" width="125" height="125" fill="#6E7580" />
  <rect x="875" y="500" width="125" height="125" fill="#C1C3DB" />
  <rect x="1000" y="500" width="125" height="125" fill="#EAE8EE" />
  <rect x="1125" y="500" width="125" height="125" fill="#FFFFFF" />
  <rect x="250" y="625" width="125" height="125" fill="#3B3B3B" />
  <rect x="375" y="625" width="125" height="125" fill="#5C646F" />
  <rect x="500" y="625" width="125" height="125" fill="#778A8F" />
  <rect x="625" y="625" width="125" height="125" fill="#A7D6D2" />
  <rect x="750" y="625" width="125" height="125" fill="#C9C5F2" />
  <rect x="875" y="625" width="125" height="125" fill="#E3E8F1" />
  <rect x="1000" y="625" width="125" height="125" fill="#F2F6F2" />
  <rect x="1125" y="625" width="125" height="125" fill="#F9FAE7" />
  <rect x="250" y="750" width="125" height="125" fill="#454545" />
  <rect x="375" y="750" width="125" height="125" fill="#697679" />
  <rect x="500" y="750" width="125" height="125" fill="#8B9CA0" />
  <rect x="625" y="750" width="125" height="125" fill="#A7B7BE" />
  <rect x="750" y="750" width="125" height="125" fill="#A7C6CC" />
  <rect x="875" y="750" width="125" height="125" fill="#D0F1E8" />
  <rect x="1000" y="750" width="125" height="125" fill="#E8E7EC" />
  <rect x="1125" y="750" width="125" height="125" fill="#FFFFFF" />
  <rect x="250" y="875" width="125" height="125" fill="#555555" />
  <rect x="375" y="875" width="125" height="125" fill="#80999E" />
  <rect x="500" y="875" width="125" height="125" fill="#99C4C1" />
  <rect x="625" y="875" width="125" height="125" fill="#B7D1D8" />
  <rect x="750" y="875" width="125" height="125" fill="#C7C9D0" />
  <rect x="875" y="875" width="125" height="125" fill="#D5E7E5" />
  <rect x="1000" y="875" width="125" height="125" fill="#F4F4F6" />
  <rect x="1125" y="875" width="125" height="125" fill="#F9FDFD" />
  <rect x="250" y="1000" width="125" height="125" fill="#666666" />
  <rect x="375" y="1000" width="125" height="125" fill="#8F9FA5" />
  <rect x="500" y="1000" width="125" height="125" fill="#9FBEC0" />
  <rect x="625" y="1000" width="125" height="125" fill="#B9D4DA" />
  <rect x="750" y="1000" width="125" height="125" fill="#CCE1E4" />
  <rect x="875" y="1000" width="125" height="125" fill="#E6F0F3" />
  <rect x="1000" y="1000" width="125" height="125" fill="#FFFFFF" />
  <rect x="1125" y="1000" width="125" height="125" fill="#FFFFFF" />
  <rect x="250" y="1125" width="125" height="125" fill="#777777" />
  <rect x="375" y="1125" width="125" height="125" fill="#9FA7A9" />
  <rect x="500" y="1125" width="125" height="125" fill="#B3C4CC" />
  <rect x="625" y="1125" width="125" height="125" fill="#C7D4D7" />
  <rect x="750" y="1125" width="125" height="125" fill="#D1E1E5" />
  <rect x="875" y="1125" width="125" height="125" fill="#E4EDEE" />
  <rect x="1000" y="1125" width="125" height="125" fill="#FFFFFF" />
  <rect x="1125" y="1125" width="125" height="125" fill="#FFFFFF" />
  <rect x="250" y="250" width="1000" height="1000" fill="none" stroke="#151515" stroke-opacity="0.16" stroke-width="2" />
</svg>
