<svg xmlns="http://www.w3.org/2000/svg" width="1500" height="1500" viewBox="0 0 1500 1500" shape-rendering="crispEdges" role="img" aria-labelledby="title desc">
  <title id="title">Echoes of Balance in Brown frame</title>
  <desc id="desc">Square Project artwork previewed in a brown frame.</desc>
  <rect x="0" y="0" width="1500" height="1500" fill="#FFFFFF" />
  <image href="https://mysquareart.com/frames/brown.jpg" x="0" y="0" width="1500" height="1500" preserveAspectRatio="xMidYMid meet" />
  <rect x="250" y="250" width="1000" height="1000" fill="#FFFFFF" />
  <rect x="250" y="250" width="125" height="125" fill="#BF4C00" />
  <rect x="375" y="250" width="125" height="125" fill="#FFA500" />
  <rect x="500" y="250" width="125" height="125" fill="#FF8000" />
  <rect x="625" y="250" width="125" height="125" fill="#FF5000" />
  <rect x="750" y="250" width="125" height="125" fill="#550000" />
  <rect x="875" y="250" width="125" height="125" fill="#382A1E" />
  <rect x="1000" y="250" width="125" height="125" fill="#774B36" />
  <rect x="1125" y="250" width="125" height="125" fill="#AA7245" />
  <rect x="250" y="375" width="125" height="125" fill="#D8643C" />
  <rect x="375" y="375" width="125" height="125" fill="#FFD300" />
  <rect x="500" y="375" width="125" height="125" fill="#F77D00" />
  <rect x="625" y="375" width="125" height="125" fill="#F73B00" />
  <rect x="750" y="375" width="125" height="125" fill="#440000" />
  <rect x="875" y="375" width="125" height="125" fill="#5E4C3B" />
  <rect x="1000" y="375" width="125" height="125" fill="#4A3F36" />
  <rect x="1125" y="375" width="125" height="125" fill="#5D4B3A" />
  <rect x="250" y="500" width="125" height="125" fill="#BF4C00" />
  <rect x="375" y="500" width="125" height="125" fill="#FFA500" />
  <rect x="500" y="500" width="125" height="125" fill="#FF8000" />
  <rect x="625" y="500" width="125" height="125" fill="#FF5000" />
  <rect x="750" y="500" width="125" height="125" fill="#550000" />
  <rect x="875" y="500" width="125" height="125" fill="#382A1E" />
  <rect x="1000" y="500" width="125" height="125" fill="#774B36" />
  <rect x="1125" y="500" width="125" height="125" fill="#AA7245" />
  <rect x="250" y="625" width="125" height="125" fill="#D8643C" />
  <rect x="375" y="625" width="125" height="125" fill="#FFD300" />
  <rect x="500" y="625" width="125" height="125" fill="#F77D00" />
  <rect x="625" y="625" width="125" height="125" fill="#F73B00" />
  <rect x="750" y="625" width="125" height="125" fill="#440000" />
  <rect x="875" y="625" width="125" height="125" fill="#5E4C3B" />
  <rect x="1000" y="625" width="125" height="125" fill="#4A3F36" />
  <rect x="1125" y="625" width="125" height="125" fill="#5D4B3A" />
  <rect x="250" y="750" width="125" height="125" fill="#C54D00" />
  <rect x="375" y="750" width="125" height="125" fill="#FFA500" />
  <rect x="500" y="750" width="125" height="125" fill="#FF8000" />
  <rect x="625" y="750" width="125" height="125" fill="#FF5000" />
  <rect x="750" y="750" width="125" height="125" fill="#550000" />
  <rect x="875" y="750" width="125" height="125" fill="#382A1E" />
  <rect x="1000" y="750" width="125" height="125" fill="#774B36" />
  <rect x="1125" y="750" width="125" height="125" fill="#AA7245" />
  <rect x="250" y="875" width="125" height="125" fill="#D8643C" />
  <rect x="375" y="875" width="125" height="125" fill="#FFD300" />
  <rect x="500" y="875" width="125" height="125" fill="#F77D00" />
  <rect x="625" y="875" width="125" height="125" fill="#F73B00" />
  <rect x="750" y="875" width="125" height="125" fill="#440000" />
  <rect x="875" y="875" width="125" height="125" fill="#5E4C3B" />
  <rect x="1000" y="875" width="125" height="125" fill="#4A3F36" />
  <rect x="1125" y="875" width="125" height="125" fill="#5D4B3A" />
  <rect x="250" y="1000" width="125" height="125" fill="#BF4C00" />
  <rect x="375" y="1000" width="125" height="125" fill="#FFA500" />
  <rect x="500" y="1000" width="125" height="125" fill="#FF8000" />
  <rect x="625" y="1000" width="125" height="125" fill="#FF5000" />
  <rect x="750" y="1000" width="125" height="125" fill="#550000" />
  <rect x="875" y="1000" width="125" height="125" fill="#382A1E" />
  <rect x="1000" y="1000" width="125" height="125" fill="#774B36" />
  <rect x="1125" y="1000" width="125" height="125" fill="#AA7245" />
  <rect x="250" y="1125" width="125" height="125" fill="#C8643C" />
  <rect x="375" y="1125" width="125" height="125" fill="#FFD300" />
  <rect x="500" y="1125" width="125" height="125" fill="#F77D00" />
  <rect x="625" y="1125" width="125" height="125" fill="#F73B00" />
  <rect x="750" y="1125" width="125" height="125" fill="#440000" />
  <rect x="875" y="1125" width="125" height="125" fill="#5E4C3B" />
  <rect x="1000" y="1125" width="125" height="125" fill="#4A3F36" />
  <rect x="1125" y="1125" width="125" height="125" fill="#5D4B3A" />
  <rect x="250" y="250" width="1000" height="1000" fill="none" stroke="#151515" stroke-opacity="0.16" stroke-width="2" />
</svg>
