<svg xmlns="http://www.w3.org/2000/svg" width="1500" height="1500" viewBox="0 0 1500 1500" shape-rendering="crispEdges" role="img" aria-labelledby="title desc">
  <title id="title">Threshold of Emotion in Brown frame</title>
  <desc id="desc">Square Project artwork previewed in a brown frame.</desc>
  <rect x="0" y="0" width="1500" height="1500" fill="#FFFFFF" />
  <image href="https://mysquareart.com/frames/brown.jpg" x="0" y="0" width="1500" height="1500" preserveAspectRatio="xMidYMid meet" />
  <rect x="250" y="250" width="1000" height="1000" fill="#FFFFFF" />
  <rect x="250" y="250" width="125" height="125" fill="#7D9A6C" />
  <rect x="375" y="250" width="125" height="125" fill="#A67B62" />
  <rect x="500" y="250" width="125" height="125" fill="#E4B90B" />
  <rect x="625" y="250" width="125" height="125" fill="#F8E6A1" />
  <rect x="750" y="250" width="125" height="125" fill="#F7C9A8" />
  <rect x="875" y="250" width="125" height="125" fill="#B4D9D3" />
  <rect x="1000" y="250" width="125" height="125" fill="#A9B7A7" />
  <rect x="1125" y="250" width="125" height="125" fill="#F0E0C8" />
  <rect x="250" y="375" width="125" height="125" fill="#A4765C" />
  <rect x="375" y="375" width="125" height="125" fill="#94A2BB" />
  <rect x="500" y="375" width="125" height="125" fill="#B3D8ED" />
  <rect x="625" y="375" width="125" height="125" fill="#A5C1D4" />
  <rect x="750" y="375" width="125" height="125" fill="#5C6C7B" />
  <rect x="875" y="375" width="125" height="125" fill="#F2D600" />
  <rect x="1000" y="375" width="125" height="125" fill="#C4B0A1" />
  <rect x="1125" y="375" width="125" height="125" fill="#A4C1B9" />
  <rect x="250" y="500" width="125" height="125" fill="#DCB46C" />
  <rect x="375" y="500" width="125" height="125" fill="#B0943D" />
  <rect x="500" y="500" width="125" height="125" fill="#6D4F32" />
  <rect x="625" y="500" width="125" height="125" fill="#2C3B33" />
  <rect x="750" y="500" width="125" height="125" fill="#4B8D6C" />
  <rect x="875" y="500" width="125" height="125" fill="#9DB0B6" />
  <rect x="1000" y="500" width="125" height="125" fill="#C6BDC5" />
  <rect x="1125" y="500" width="125" height="125" fill="#F4B2A9" />
  <rect x="250" y="625" width="125" height="125" fill="#AC3D2D" />
  <rect x="375" y="625" width="125" height="125" fill="#F6BA47" />
  <rect x="500" y="625" width="125" height="125" fill="#F0801E" />
  <rect x="625" y="625" width="125" height="125" fill="#825B39" />
  <rect x="750" y="625" width="125" height="125" fill="#3B3F45" />
  <rect x="875" y="625" width="125" height="125" fill="#E1E0E0" />
  <rect x="1000" y="625" width="125" height="125" fill="#F0E0C8" />
  <rect x="1125" y="625" width="125" height="125" fill="#A4765C" />
  <rect x="250" y="750" width="125" height="125" fill="#403B27" />
  <rect x="375" y="750" width="125" height="125" fill="#69A4C9" />
  <rect x="500" y="750" width="125" height="125" fill="#8C9B8F" />
  <rect x="625" y="750" width="125" height="125" fill="#BFB5A8" />
  <rect x="750" y="750" width="125" height="125" fill="#A8C7D4" />
  <rect x="875" y="750" width="125" height="125" fill="#F0E0C8" />
  <rect x="1000" y="750" width="125" height="125" fill="#F6E9D7" />
  <rect x="1125" y="750" width="125" height="125" fill="#E1BA1E" />
  <rect x="250" y="875" width="125" height="125" fill="#9C9A86" />
  <rect x="375" y="875" width="125" height="125" fill="#4F3D31" />
  <rect x="500" y="875" width="125" height="125" fill="#E2A79B" />
  <rect x="625" y="875" width="125" height="125" fill="#D5AE94" />
  <rect x="750" y="875" width="125" height="125" fill="#9BDA8E" />
  <rect x="875" y="875" width="125" height="125" fill="#A68B7D" />
  <rect x="1000" y="875" width="125" height="125" fill="#5F990D" />
  <rect x="1125" y="875" width="125" height="125" fill="#6F5F3A" />
  <rect x="250" y="1000" width="125" height="125" fill="#E68131" />
  <rect x="375" y="1000" width="125" height="125" fill="#7E566E" />
  <rect x="500" y="1000" width="125" height="125" fill="#B03617" />
  <rect x="625" y="1000" width="125" height="125" fill="#C3F5A6" />
  <rect x="750" y="1000" width="125" height="125" fill="#CDEB73" />
  <rect x="875" y="1000" width="125" height="125" fill="#5E6B78" />
  <rect x="1000" y="1000" width="125" height="125" fill="#31819C" />
  <rect x="1125" y="1000" width="125" height="125" fill="#D9B9DA" />
  <rect x="250" y="1125" width="125" height="125" fill="#AD5249" />
  <rect x="375" y="1125" width="125" height="125" fill="#D9E5E0" />
  <rect x="500" y="1125" width="125" height="125" fill="#8F6E67" />
  <rect x="625" y="1125" width="125" height="125" fill="#B0A5C5" />
  <rect x="750" y="1125" width="125" height="125" fill="#C7B5A8" />
  <rect x="875" y="1125" width="125" height="125" fill="#BDB1A5" />
  <rect x="1000" y="1125" width="125" height="125" fill="#F1E8D7" />
  <rect x="1125" y="1125" width="125" height="125" fill="#CAD7D2" />
  <rect x="250" y="250" width="1000" height="1000" fill="none" stroke="#151515" stroke-opacity="0.16" stroke-width="2" />
</svg>
