<svg xmlns="http://www.w3.org/2000/svg" width="1500" height="1500" viewBox="0 0 1500 1500" shape-rendering="crispEdges" role="img" aria-labelledby="title desc">
  <title id="title">Echoes of Longing in White frame</title>
  <desc id="desc">Square Project artwork previewed in a white frame.</desc>
  <defs>
    <linearGradient id="frameFace" x1="0" y1="0" x2="1" y2="1">
      <stop offset="0" stop-color="#BEBEB8" />
      <stop offset="0.32" stop-color="#FFFFFF" />
      <stop offset="0.68" stop-color="#F8F8F5" />
      <stop offset="1" stop-color="#D5D5CF" />
    </linearGradient>
    <filter id="artShadow" x="-10%" y="-10%" width="120%" height="120%">
      <feDropShadow dx="0" dy="20" stdDeviation="24" flood-color="#000000" flood-opacity="0.24" />
    </filter>
  </defs>
  <rect x="0" y="0" width="1500" height="1500" fill="#FFFFFF" />
  <rect x="0" y="0" width="1500" height="1500" fill="url(#frameFace)" />
  <rect x="120" y="120" width="1260" height="1260" fill="#F8F7F3" />
  <rect x="120" y="120" width="1260" height="1260" fill="none" stroke="#000000" stroke-opacity="0.14" stroke-width="10" />
  <rect x="250" y="250" width="1000" height="1000" fill="#FFFFFF" filter="url(#artShadow)" />
  <rect x="250" y="250" width="125" height="125" fill="#4B3C34" />
  <rect x="375" y="250" width="125" height="125" fill="#A89BAF" />
  <rect x="500" y="250" width="125" height="125" fill="#E6D1B0" />
  <rect x="625" y="250" width="125" height="125" fill="#E0B99B" />
  <rect x="750" y="250" width="125" height="125" fill="#E8C9A1" />
  <rect x="875" y="250" width="125" height="125" fill="#574B39" />
  <rect x="1000" y="250" width="125" height="125" fill="#7C9A88" />
  <rect x="1125" y="250" width="125" height="125" fill="#D9CBAF" />
  <rect x="250" y="375" width="125" height="125" fill="#7F5B62" />
  <rect x="375" y="375" width="125" height="125" fill="#C1AB96" />
  <rect x="500" y="375" width="125" height="125" fill="#A47C73" />
  <rect x="625" y="375" width="125" height="125" fill="#3D4A50" />
  <rect x="750" y="375" width="125" height="125" fill="#8C8B7A" />
  <rect x="875" y="375" width="125" height="125" fill="#B5A4A9" />
  <rect x="1000" y="375" width="125" height="125" fill="#F1E3D2" />
  <rect x="1125" y="375" width="125" height="125" fill="#D7C4B2" />
  <rect x="250" y="500" width="125" height="125" fill="#B4A09C" />
  <rect x="375" y="500" width="125" height="125" fill="#5B818C" />
  <rect x="500" y="500" width="125" height="125" fill="#C7BEB2" />
  <rect x="625" y="500" width="125" height="125" fill="#3B3E38" />
  <rect x="750" y="500" width="125" height="125" fill="#E1C6D2" />
  <rect x="875" y="500" width="125" height="125" fill="#DEDEDE" />
  <rect x="1000" y="500" width="125" height="125" fill="#A4AAB2" />
  <rect x="1125" y="500" width="125" height="125" fill="#8B7D6A" />
  <rect x="250" y="625" width="125" height="125" fill="#C2A6A1" />
  <rect x="375" y="625" width="125" height="125" fill="#C4A5E0" />
  <rect x="500" y="625" width="125" height="125" fill="#BBA1AB" />
  <rect x="625" y="625" width="125" height="125" fill="#598888" />
  <rect x="750" y="625" width="125" height="125" fill="#B1A1B7" />
  <rect x="875" y="625" width="125" height="125" fill="#7A688B" />
  <rect x="1000" y="625" width="125" height="125" fill="#F0E8D3" />
  <rect x="1125" y="625" width="125" height="125" fill="#CDA299" />
  <rect x="250" y="750" width="125" height="125" fill="#665447" />
  <rect x="375" y="750" width="125" height="125" fill="#A9C9A1" />
  <rect x="500" y="750" width="125" height="125" fill="#E2D5CD" />
  <rect x="625" y="750" width="125" height="125" fill="#C9B1AC" />
  <rect x="750" y="750" width="125" height="125" fill="#5E5F69" />
  <rect x="875" y="750" width="125" height="125" fill="#E7C8B4" />
  <rect x="1000" y="750" width="125" height="125" fill="#BCC8CB" />
  <rect x="1125" y="750" width="125" height="125" fill="#6E8C7F" />
  <rect x="250" y="875" width="125" height="125" fill="#8E6E61" />
  <rect x="375" y="875" width="125" height="125" fill="#E1C6A6" />
  <rect x="500" y="875" width="125" height="125" fill="#D6C6D8" />
  <rect x="625" y="875" width="125" height="125" fill="#6F6F6F" />
  <rect x="750" y="875" width="125" height="125" fill="#A39B8D" />
  <rect x="875" y="875" width="125" height="125" fill="#4B625C" />
  <rect x="1000" y="875" width="125" height="125" fill="#B0B1BA" />
  <rect x="1125" y="875" width="125" height="125" fill="#E1B165" />
  <rect x="250" y="1000" width="125" height="125" fill="#F7D0B0" />
  <rect x="375" y="1000" width="125" height="125" fill="#B5C09E" />
  <rect x="500" y="1000" width="125" height="125" fill="#D7CCB0" />
  <rect x="625" y="1000" width="125" height="125" fill="#3F4E5A" />
  <rect x="750" y="1000" width="125" height="125" fill="#D1928E" />
  <rect x="875" y="1000" width="125" height="125" fill="#E4D8CE" />
  <rect x="1000" y="1000" width="125" height="125" fill="#D1B4B9" />
  <rect x="1125" y="1000" width="125" height="125" fill="#C2C3C9" />
  <rect x="250" y="1125" width="125" height="125" fill="#4D4E54" />
  <rect x="375" y="1125" width="125" height="125" fill="#3C5C4B" />
  <rect x="500" y="1125" width="125" height="125" fill="#A0535D" />
  <rect x="625" y="1125" width="125" height="125" fill="#D9C4A1" />
  <rect x="750" y="1125" width="125" height="125" fill="#8B5B3C" />
  <rect x="875" y="1125" width="125" height="125" fill="#B1A9A1" />
  <rect x="1000" y="1125" width="125" height="125" fill="#E7CFC5" />
  <rect x="1125" y="1125" width="125" height="125" fill="#4B3D2C" />
  <rect x="250" y="250" width="1000" height="1000" fill="none" stroke="#151515" stroke-opacity="0.16" stroke-width="2" />
</svg>
