<svg xmlns="http://www.w3.org/2000/svg" width="1500" height="1500" viewBox="0 0 1500 1500" shape-rendering="crispEdges" role="img" aria-labelledby="title desc">
  <title id="title">Duality of Pulse in Natural frame</title>
  <desc id="desc">Square Project artwork previewed in a natural frame.</desc>
  <defs>
    <linearGradient id="frameFace" x1="0" y1="0" x2="1" y2="1">
      <stop offset="0" stop-color="#8F6F35" />
      <stop offset="0.32" stop-color="#F0DDAA" />
      <stop offset="0.68" stop-color="#D8C190" />
      <stop offset="1" stop-color="#B39155" />
    </linearGradient>
    <filter id="artShadow" x="-10%" y="-10%" width="120%" height="120%">
      <feDropShadow dx="0" dy="20" stdDeviation="24" flood-color="#000000" flood-opacity="0.24" />
    </filter>
  </defs>
  <rect x="0" y="0" width="1500" height="1500" fill="#FFFFFF" />
  <rect x="0" y="0" width="1500" height="1500" fill="url(#frameFace)" />
  <rect x="120" y="120" width="1260" height="1260" fill="#F8F7F3" />
  <rect x="120" y="120" width="1260" height="1260" fill="none" stroke="#000000" stroke-opacity="0.14" stroke-width="10" />
  <rect x="250" y="250" width="1000" height="1000" fill="#FFFFFF" filter="url(#artShadow)" />
  <rect x="250" y="250" width="125" height="125" fill="#D6E5E1" />
  <rect x="375" y="250" width="125" height="125" fill="#A4BEC1" />
  <rect x="500" y="250" width="125" height="125" fill="#F03C20" />
  <rect x="625" y="250" width="125" height="125" fill="#0B4F72" />
  <rect x="750" y="250" width="125" height="125" fill="#E5EAE6" />
  <rect x="875" y="250" width="125" height="125" fill="#4B8DAB" />
  <rect x="1000" y="250" width="125" height="125" fill="#C1C6B1" />
  <rect x="1125" y="250" width="125" height="125" fill="#2B2B2A" />
  <rect x="250" y="375" width="125" height="125" fill="#B7C6B9" />
  <rect x="375" y="375" width="125" height="125" fill="#5A7E89" />
  <rect x="500" y="375" width="125" height="125" fill="#F7B736" />
  <rect x="625" y="375" width="125" height="125" fill="#C3E9E8" />
  <rect x="750" y="375" width="125" height="125" fill="#A8B3B0" />
  <rect x="875" y="375" width="125" height="125" fill="#E88280" />
  <rect x="1000" y="375" width="125" height="125" fill="#7A9EAA" />
  <rect x="1125" y="375" width="125" height="125" fill="#F6F1E9" />
  <rect x="250" y="500" width="125" height="125" fill="#C4D7D5" />
  <rect x="375" y="500" width="125" height="125" fill="#006D85" />
  <rect x="500" y="500" width="125" height="125" fill="#F15A22" />
  <rect x="625" y="500" width="125" height="125" fill="#A1BDC6" />
  <rect x="750" y="500" width="125" height="125" fill="#E6E4DA" />
  <rect x="875" y="500" width="125" height="125" fill="#94B3C3" />
  <rect x="1000" y="500" width="125" height="125" fill="#B6D4D4" />
  <rect x="1125" y="500" width="125" height="125" fill="#5C6669" />
  <rect x="250" y="625" width="125" height="125" fill="#B7E9E6" />
  <rect x="375" y="625" width="125" height="125" fill="#3D3F3E" />
  <rect x="500" y="625" width="125" height="125" fill="#F2FFF7" />
  <rect x="625" y="625" width="125" height="125" fill="#FF6045" />
  <rect x="750" y="625" width="125" height="125" fill="#A3CAD0" />
  <rect x="875" y="625" width="125" height="125" fill="#D4E5E2" />
  <rect x="1000" y="625" width="125" height="125" fill="#4A7D8C" />
  <rect x="1125" y="625" width="125" height="125" fill="#F8F8EF" />
  <rect x="250" y="750" width="125" height="125" fill="#C8E6EA" />
  <rect x="375" y="750" width="125" height="125" fill="#1D4D52" />
  <rect x="500" y="750" width="125" height="125" fill="#E22827" />
  <rect x="625" y="750" width="125" height="125" fill="#C0D3D4" />
  <rect x="750" y="750" width="125" height="125" fill="#B8D5D1" />
  <rect x="875" y="750" width="125" height="125" fill="#8D9EA1" />
  <rect x="1000" y="750" width="125" height="125" fill="#FDF8E9" />
  <rect x="1125" y="750" width="125" height="125" fill="#D7D1CE" />
  <rect x="250" y="875" width="125" height="125" fill="#C6DBD5" />
  <rect x="375" y="875" width="125" height="125" fill="#3B9EA0" />
  <rect x="500" y="875" width="125" height="125" fill="#F24E1D" />
  <rect x="625" y="875" width="125" height="125" fill="#A1C0B3" />
  <rect x="750" y="875" width="125" height="125" fill="#EBE5E2" />
  <rect x="875" y="875" width="125" height="125" fill="#6B8378" />
  <rect x="1000" y="875" width="125" height="125" fill="#F8E8E6" />
  <rect x="1125" y="875" width="125" height="125" fill="#B1C7C5" />
  <rect x="250" y="1000" width="125" height="125" fill="#D8E2DF" />
  <rect x="375" y="1000" width="125" height="125" fill="#0B4C54" />
  <rect x="500" y="1000" width="125" height="125" fill="#FF7E57" />
  <rect x="625" y="1000" width="125" height="125" fill="#7EBBBD" />
  <rect x="750" y="1000" width="125" height="125" fill="#D7E7EC" />
  <rect x="875" y="1000" width="125" height="125" fill="#9EC9B5" />
  <rect x="1000" y="1000" width="125" height="125" fill="#FBFFDC" />
  <rect x="1125" y="1000" width="125" height="125" fill="#C3D1CE" />
  <rect x="250" y="1125" width="125" height="125" fill="#E1EBE9" />
  <rect x="375" y="1125" width="125" height="125" fill="#5A888A" />
  <rect x="500" y="1125" width="125" height="125" fill="#F1A10B" />
  <rect x="625" y="1125" width="125" height="125" fill="#A2B5B6" />
  <rect x="750" y="1125" width="125" height="125" fill="#D4D3D1" />
  <rect x="875" y="1125" width="125" height="125" fill="#6D7B79" />
  <rect x="1000" y="1125" width="125" height="125" fill="#F2EDDF" />
  <rect x="1125" y="1125" width="125" height="125" fill="#2D341E" />
  <rect x="250" y="250" width="1000" height="1000" fill="none" stroke="#151515" stroke-opacity="0.16" stroke-width="2" />
</svg>
