<svg xmlns="http://www.w3.org/2000/svg" width="1500" height="1500" viewBox="0 0 1500 1500" shape-rendering="crispEdges" role="img" aria-labelledby="title desc">
  <title id="title">Echoes of Pulse in Black frame</title>
  <desc id="desc">Square Project artwork previewed in a black frame.</desc>
  <defs>
    <linearGradient id="frameFace" x1="0" y1="0" x2="1" y2="1">
      <stop offset="0" stop-color="#6A6A6A" />
      <stop offset="0.32" stop-color="#343434" />
      <stop offset="0.68" stop-color="#111111" />
      <stop offset="1" stop-color="#050505" />
    </linearGradient>
    <filter id="artShadow" x="-10%" y="-10%" width="120%" height="120%">
      <feDropShadow dx="0" dy="20" stdDeviation="24" flood-color="#000000" flood-opacity="0.24" />
    </filter>
  </defs>
  <rect x="0" y="0" width="1500" height="1500" fill="#FFFFFF" />
  <rect x="0" y="0" width="1500" height="1500" fill="url(#frameFace)" />
  <rect x="120" y="120" width="1260" height="1260" fill="#F8F7F3" />
  <rect x="120" y="120" width="1260" height="1260" fill="none" stroke="#000000" stroke-opacity="0.14" stroke-width="10" />
  <rect x="250" y="250" width="1000" height="1000" fill="#FFFFFF" filter="url(#artShadow)" />
  <rect x="250" y="250" width="125" height="125" fill="#000000" />
  <rect x="375" y="250" width="125" height="125" fill="#001F3F" />
  <rect x="500" y="250" width="125" height="125" fill="#002F6C" />
  <rect x="625" y="250" width="125" height="125" fill="#004A92" />
  <rect x="750" y="250" width="125" height="125" fill="#005FBA" />
  <rect x="875" y="250" width="125" height="125" fill="#0072F6" />
  <rect x="1000" y="250" width="125" height="125" fill="#0088FF" />
  <rect x="1125" y="250" width="125" height="125" fill="#00AAFF" />
  <rect x="250" y="375" width="125" height="125" fill="#001D3F" />
  <rect x="375" y="375" width="125" height="125" fill="#003B78" />
  <rect x="500" y="375" width="125" height="125" fill="#00539F" />
  <rect x="625" y="375" width="125" height="125" fill="#0075CA" />
  <rect x="750" y="375" width="125" height="125" fill="#0089EF" />
  <rect x="875" y="375" width="125" height="125" fill="#00B0FF" />
  <rect x="1000" y="375" width="125" height="125" fill="#00D0FB" />
  <rect x="1125" y="375" width="125" height="125" fill="#0EF2FF" />
  <rect x="250" y="500" width="125" height="125" fill="#001C2A" />
  <rect x="375" y="500" width="125" height="125" fill="#001D3F" />
  <rect x="500" y="500" width="125" height="125" fill="#001E4B" />
  <rect x="625" y="500" width="125" height="125" fill="#00204F" />
  <rect x="750" y="500" width="125" height="125" fill="#00305F" />
  <rect x="875" y="500" width="125" height="125" fill="#00407F" />
  <rect x="1000" y="500" width="125" height="125" fill="#0050A4" />
  <rect x="1125" y="500" width="125" height="125" fill="#0065D9" />
  <rect x="250" y="625" width="125" height="125" fill="#000000" />
  <rect x="375" y="625" width="125" height="125" fill="#111116" />
  <rect x="500" y="625" width="125" height="125" fill="#222222" />
  <rect x="625" y="625" width="125" height="125" fill="#333332" />
  <rect x="750" y="625" width="125" height="125" fill="#444442" />
  <rect x="875" y="625" width="125" height="125" fill="#555552" />
  <rect x="1000" y="625" width="125" height="125" fill="#666662" />
  <rect x="1125" y="625" width="125" height="125" fill="#777772" />
  <rect x="250" y="750" width="125" height="125" fill="#000000" />
  <rect x="375" y="750" width="125" height="125" fill="#000E17" />
  <rect x="500" y="750" width="125" height="125" fill="#001622" />
  <rect x="625" y="750" width="125" height="125" fill="#001E2E" />
  <rect x="750" y="750" width="125" height="125" fill="#002D3E" />
  <rect x="875" y="750" width="125" height="125" fill="#004053" />
  <rect x="1000" y="750" width="125" height="125" fill="#00505E" />
  <rect x="1125" y="750" width="125" height="125" fill="#00626F" />
  <rect x="250" y="875" width="125" height="125" fill="#00000E" />
  <rect x="375" y="875" width="125" height="125" fill="#111147" />
  <rect x="500" y="875" width="125" height="125" fill="#222278" />
  <rect x="625" y="875" width="125" height="125" fill="#33348C" />
  <rect x="750" y="875" width="125" height="125" fill="#44459C" />
  <rect x="875" y="875" width="125" height="125" fill="#5556B3" />
  <rect x="1000" y="875" width="125" height="125" fill="#6666C2" />
  <rect x="1125" y="875" width="125" height="125" fill="#7776D0" />
  <rect x="250" y="1000" width="125" height="125" fill="#0A0A0A" />
  <rect x="375" y="1000" width="125" height="125" fill="#1D1E1E" />
  <rect x="500" y="1000" width="125" height="125" fill="#2B2D2E" />
  <rect x="625" y="1000" width="125" height="125" fill="#3E3F3E" />
  <rect x="750" y="1000" width="125" height="125" fill="#5C5E5D" />
  <rect x="875" y="1000" width="125" height="125" fill="#A8AAB0" />
  <rect x="1000" y="1000" width="125" height="125" fill="#B4B6BD" />
  <rect x="1125" y="1000" width="125" height="125" fill="#C0C2CC" />
  <rect x="250" y="1125" width="125" height="125" fill="#000000" />
  <rect x="375" y="1125" width="125" height="125" fill="#000E15" />
  <rect x="500" y="1125" width="125" height="125" fill="#001E2D" />
  <rect x="625" y="1125" width="125" height="125" fill="#002E48" />
  <rect x="750" y="1125" width="125" height="125" fill="#002B49" />
  <rect x="875" y="1125" width="125" height="125" fill="#003E59" />
  <rect x="1000" y="1125" width="125" height="125" fill="#005E72" />
  <rect x="1125" y="1125" width="125" height="125" fill="#007C92" />
  <rect x="250" y="250" width="1000" height="1000" fill="none" stroke="#151515" stroke-opacity="0.16" stroke-width="2" />
</svg>
