<svg xmlns="http://www.w3.org/2000/svg" width="1500" height="1500" viewBox="0 0 1500 1500" shape-rendering="crispEdges" role="img" aria-labelledby="title desc">
  <title id="title">Threshold of Emotion in Natural frame</title>
  <desc id="desc">Square Project artwork previewed in a natural frame.</desc>
  <defs>
    <linearGradient id="frameFace" x1="0" y1="0" x2="1" y2="1">
      <stop offset="0" stop-color="#FFF1D7" />
      <stop offset="0.32" stop-color="#E8D4B7" />
      <stop offset="0.68" stop-color="#C2A17B" />
      <stop offset="1" stop-color="#8D6F50" />
    </linearGradient>
    <pattern id="naturalGrain" patternUnits="userSpaceOnUse" width="180" height="48">
      <path d="M0 12 C48 2 92 24 180 10" fill="none" stroke="#8D6F50" stroke-opacity="0.22" stroke-width="5" />
      <path d="M0 34 C62 44 118 22 180 36" fill="none" stroke="#FFFFFF" stroke-opacity="0.22" stroke-width="4" />
    </pattern>
    <filter id="artShadow" x="-10%" y="-10%" width="120%" height="120%">
      <feDropShadow dx="0" dy="20" stdDeviation="24" flood-color="#000000" flood-opacity="0.24" />
    </filter>
  </defs>
  <rect x="0" y="0" width="1500" height="1500" fill="#FFFFFF" />
  <rect x="0" y="0" width="1500" height="1500" fill="url(#frameFace)" />
  <rect x="0" y="0" width="1500" height="1500" fill="url(#naturalGrain)" />
  <rect x="120" y="120" width="1260" height="1260" fill="#F8F7F3" />
  <rect x="120" y="120" width="1260" height="1260" fill="none" stroke="#000000" stroke-opacity="0.14" stroke-width="10" />
  <rect x="250" y="250" width="1000" height="1000" fill="#FFFFFF" filter="url(#artShadow)" />
  <rect x="250" y="250" width="125" height="125" fill="#4A7C3E" />
  <rect x="375" y="250" width="125" height="125" fill="#3B6A41" />
  <rect x="500" y="250" width="125" height="125" fill="#97B5AE" />
  <rect x="625" y="250" width="125" height="125" fill="#E5EDD0" />
  <rect x="750" y="250" width="125" height="125" fill="#B1B78E" />
  <rect x="875" y="250" width="125" height="125" fill="#9BAA8D" />
  <rect x="1000" y="250" width="125" height="125" fill="#4C7E54" />
  <rect x="1125" y="250" width="125" height="125" fill="#A8C2BB" />
  <rect x="250" y="375" width="125" height="125" fill="#D0C8B0" />
  <rect x="375" y="375" width="125" height="125" fill="#4F7A52" />
  <rect x="500" y="375" width="125" height="125" fill="#C2DAB1" />
  <rect x="625" y="375" width="125" height="125" fill="#FAF6F0" />
  <rect x="750" y="375" width="125" height="125" fill="#A9B693" />
  <rect x="875" y="375" width="125" height="125" fill="#B6C7B0" />
  <rect x="1000" y="375" width="125" height="125" fill="#E5E7E6" />
  <rect x="1125" y="375" width="125" height="125" fill="#C2CDA9" />
  <rect x="250" y="500" width="125" height="125" fill="#E8F3F4" />
  <rect x="375" y="500" width="125" height="125" fill="#A9DAB7" />
  <rect x="500" y="500" width="125" height="125" fill="#BF9C8A" />
  <rect x="625" y="500" width="125" height="125" fill="#3E6C3A" />
  <rect x="750" y="500" width="125" height="125" fill="#C7E1BF" />
  <rect x="875" y="500" width="125" height="125" fill="#A0C4B4" />
  <rect x="1000" y="500" width="125" height="125" fill="#7E9A65" />
  <rect x="1125" y="500" width="125" height="125" fill="#D9E4E5" />
  <rect x="250" y="625" width="125" height="125" fill="#9BBF8E" />
  <rect x="375" y="625" width="125" height="125" fill="#C6D4C2" />
  <rect x="500" y="625" width="125" height="125" fill="#3F7754" />
  <rect x="625" y="625" width="125" height="125" fill="#F7F7F7" />
  <rect x="750" y="625" width="125" height="125" fill="#C3E7D8" />
  <rect x="875" y="625" width="125" height="125" fill="#A7C9B3" />
  <rect x="1000" y="625" width="125" height="125" fill="#A1BFB4" />
  <rect x="1125" y="625" width="125" height="125" fill="#839C89" />
  <rect x="250" y="750" width="125" height="125" fill="#E3F1E5" />
  <rect x="375" y="750" width="125" height="125" fill="#4F7F54" />
  <rect x="500" y="750" width="125" height="125" fill="#007B5F" />
  <rect x="625" y="750" width="125" height="125" fill="#4D8B5D" />
  <rect x="750" y="750" width="125" height="125" fill="#F4F1E2" />
  <rect x="875" y="750" width="125" height="125" fill="#A2A59E" />
  <rect x="1000" y="750" width="125" height="125" fill="#D6E2E2" />
  <rect x="1125" y="750" width="125" height="125" fill="#B7C9A1" />
  <rect x="250" y="875" width="125" height="125" fill="#D8E5D7" />
  <rect x="375" y="875" width="125" height="125" fill="#98C2B0" />
  <rect x="500" y="875" width="125" height="125" fill="#74A58C" />
  <rect x="625" y="875" width="125" height="125" fill="#FFD3A5" />
  <rect x="750" y="875" width="125" height="125" fill="#B1B8A6" />
  <rect x="875" y="875" width="125" height="125" fill="#A9D0A5" />
  <rect x="1000" y="875" width="125" height="125" fill="#7E9C8A" />
  <rect x="1125" y="875" width="125" height="125" fill="#F3F2E5" />
  <rect x="250" y="1000" width="125" height="125" fill="#A8C9B5" />
  <rect x="375" y="1000" width="125" height="125" fill="#D5E3E0" />
  <rect x="500" y="1000" width="125" height="125" fill="#6B9046" />
  <rect x="625" y="1000" width="125" height="125" fill="#A3B8B2" />
  <rect x="750" y="1000" width="125" height="125" fill="#F2E4D8" />
  <rect x="875" y="1000" width="125" height="125" fill="#3B5A38" />
  <rect x="1000" y="1000" width="125" height="125" fill="#657B61" />
  <rect x="1125" y="1000" width="125" height="125" fill="#C8D6D6" />
  <rect x="250" y="1125" width="125" height="125" fill="#D3EDD9" />
  <rect x="375" y="1125" width="125" height="125" fill="#5F3D27" />
  <rect x="500" y="1125" width="125" height="125" fill="#B4C3BB" />
  <rect x="625" y="1125" width="125" height="125" fill="#77A65B" />
  <rect x="750" y="1125" width="125" height="125" fill="#E7EDE8" />
  <rect x="875" y="1125" width="125" height="125" fill="#A8BDA0" />
  <rect x="1000" y="1125" width="125" height="125" fill="#C1D2C8" />
  <rect x="1125" y="1125" width="125" height="125" fill="#E5F0E0" />
  <rect x="250" y="250" width="1000" height="1000" fill="none" stroke="#151515" stroke-opacity="0.16" stroke-width="2" />
</svg>
