<svg xmlns="http://www.w3.org/2000/svg" width="1500" height="1500" viewBox="0 0 1500 1500" shape-rendering="crispEdges" role="img" aria-labelledby="title desc">
  <title id="title">Tension Between Calm and Chaos in Brown frame</title>
  <desc id="desc">Square Project artwork previewed in a brown frame.</desc>
  <rect x="0" y="0" width="1500" height="1500" fill="#FFFFFF" />
  <image href="https://mysquareart.com/frames/brown.jpg" x="0" y="0" width="1500" height="1500" preserveAspectRatio="xMidYMid meet" />
  <rect x="250" y="250" width="1000" height="1000" fill="#FFFFFF" />
  <rect x="250" y="250" width="125" height="125" fill="#FFFFFF" />
  <rect x="375" y="250" width="125" height="125" fill="#F0F8FF" />
  <rect x="500" y="250" width="125" height="125" fill="#E6E6FA" />
  <rect x="625" y="250" width="125" height="125" fill="#D3D3D3" />
  <rect x="750" y="250" width="125" height="125" fill="#C0C0C0" />
  <rect x="875" y="250" width="125" height="125" fill="#A9A9A9" />
  <rect x="1000" y="250" width="125" height="125" fill="#696969" />
  <rect x="1125" y="250" width="125" height="125" fill="#000000" />
  <rect x="250" y="375" width="125" height="125" fill="#F8C471" />
  <rect x="375" y="375" width="125" height="125" fill="#F4D03F" />
  <rect x="500" y="375" width="125" height="125" fill="#E67E22" />
  <rect x="625" y="375" width="125" height="125" fill="#D35400" />
  <rect x="750" y="375" width="125" height="125" fill="#C0392B" />
  <rect x="875" y="375" width="125" height="125" fill="#A93226" />
  <rect x="1000" y="375" width="125" height="125" fill="#922B21" />
  <rect x="1125" y="375" width="125" height="125" fill="#641E16" />
  <rect x="250" y="500" width="125" height="125" fill="#B8E2F7" />
  <rect x="375" y="500" width="125" height="125" fill="#A4D3E2" />
  <rect x="500" y="500" width="125" height="125" fill="#8FB5D0" />
  <rect x="625" y="500" width="125" height="125" fill="#7CA6C8" />
  <rect x="750" y="500" width="125" height="125" fill="#4F92B4" />
  <rect x="875" y="500" width="125" height="125" fill="#2874A6" />
  <rect x="1000" y="500" width="125" height="125" fill="#1F618D" />
  <rect x="1125" y="500" width="125" height="125" fill="#1F4F72" />
  <rect x="250" y="625" width="125" height="125" fill="#F6F0E8" />
  <rect x="375" y="625" width="125" height="125" fill="#EDDBB4" />
  <rect x="500" y="625" width="125" height="125" fill="#EAB8D1" />
  <rect x="625" y="625" width="125" height="125" fill="#EAA5D6" />
  <rect x="750" y="625" width="125" height="125" fill="#E573B6" />
  <rect x="875" y="625" width="125" height="125" fill="#D296B0" />
  <rect x="1000" y="625" width="125" height="125" fill="#B15879" />
  <rect x="1125" y="625" width="125" height="125" fill="#800000" />
  <rect x="250" y="750" width="125" height="125" fill="#D1C4E9" />
  <rect x="375" y="750" width="125" height="125" fill="#B39DDB" />
  <rect x="500" y="750" width="125" height="125" fill="#A76BBF" />
  <rect x="625" y="750" width="125" height="125" fill="#9C27B0" />
  <rect x="750" y="750" width="125" height="125" fill="#7B1FA2" />
  <rect x="875" y="750" width="125" height="125" fill="#6A1B9A" />
  <rect x="1000" y="750" width="125" height="125" fill="#4A148C" />
  <rect x="1125" y="750" width="125" height="125" fill="#4A235A" />
  <rect x="250" y="875" width="125" height="125" fill="#E2F0D5" />
  <rect x="375" y="875" width="125" height="125" fill="#B2E1C9" />
  <rect x="500" y="875" width="125" height="125" fill="#9FC5B8" />
  <rect x="625" y="875" width="125" height="125" fill="#A7D3D2" />
  <rect x="750" y="875" width="125" height="125" fill="#8DD4C2" />
  <rect x="875" y="875" width="125" height="125" fill="#74C8B9" />
  <rect x="1000" y="875" width="125" height="125" fill="#55B8B3" />
  <rect x="1125" y="875" width="125" height="125" fill="#2E8B88" />
  <rect x="250" y="1000" width="125" height="125" fill="#F9FBC0" />
  <rect x="375" y="1000" width="125" height="125" fill="#F6A4D2" />
  <rect x="500" y="1000" width="125" height="125" fill="#F78E90" />
  <rect x="625" y="1000" width="125" height="125" fill="#F30284" />
  <rect x="750" y="1000" width="125" height="125" fill="#D50001" />
  <rect x="875" y="1000" width="125" height="125" fill="#C50000" />
  <rect x="1000" y="1000" width="125" height="125" fill="#98002B" />
  <rect x="1125" y="1000" width="125" height="125" fill="#711A3A" />
  <rect x="250" y="1125" width="125" height="125" fill="#FFF5E1" />
  <rect x="375" y="1125" width="125" height="125" fill="#FFE0C8" />
  <rect x="500" y="1125" width="125" height="125" fill="#FFDAB9" />
  <rect x="625" y="1125" width="125" height="125" fill="#FFCB9A" />
  <rect x="750" y="1125" width="125" height="125" fill="#FFB76B" />
  <rect x="875" y="1125" width="125" height="125" fill="#FFA600" />
  <rect x="1000" y="1125" width="125" height="125" fill="#FF7F17" />
  <rect x="1125" y="1125" width="125" height="125" fill="#FF4910" />
  <rect x="250" y="250" width="1000" height="1000" fill="none" stroke="#151515" stroke-opacity="0.16" stroke-width="2" />
</svg>
