<svg xmlns="http://www.w3.org/2000/svg" width="1500" height="1500" viewBox="0 0 1500 1500" shape-rendering="crispEdges" role="img" aria-labelledby="title desc">
  <title id="title">Echoes of Trust and Doubt in Gold frame</title>
  <desc id="desc">Square Project artwork previewed in a gold frame.</desc>
  <rect x="0" y="0" width="1500" height="1500" fill="#FFFFFF" />
  <image href="https://mysquareart.com/frames/gold.jpg" x="0" y="0" width="1500" height="1500" preserveAspectRatio="xMidYMid meet" />
  <rect x="250" y="250" width="1000" height="1000" fill="#FFFFFF" />
  <rect x="250" y="250" width="125" height="125" fill="#3A5A2C" />
  <rect x="375" y="250" width="125" height="125" fill="#EDD8C8" />
  <rect x="500" y="250" width="125" height="125" fill="#D74B3A" />
  <rect x="625" y="250" width="125" height="125" fill="#A09B8C" />
  <rect x="750" y="250" width="125" height="125" fill="#5E5B51" />
  <rect x="875" y="250" width="125" height="125" fill="#E0C8A8" />
  <rect x="1000" y="250" width="125" height="125" fill="#D15A30" />
  <rect x="1125" y="250" width="125" height="125" fill="#E6B884" />
  <rect x="250" y="375" width="125" height="125" fill="#5F3A34" />
  <rect x="375" y="375" width="125" height="125" fill="#D6E0C4" />
  <rect x="500" y="375" width="125" height="125" fill="#B74B40" />
  <rect x="625" y="375" width="125" height="125" fill="#B0A99F" />
  <rect x="750" y="375" width="125" height="125" fill="#4A443D" />
  <rect x="875" y="375" width="125" height="125" fill="#D2C3B1" />
  <rect x="1000" y="375" width="125" height="125" fill="#C04116" />
  <rect x="1125" y="375" width="125" height="125" fill="#D4AA90" />
  <rect x="250" y="500" width="125" height="125" fill="#B5B09D" />
  <rect x="375" y="500" width="125" height="125" fill="#D1E5C9" />
  <rect x="500" y="500" width="125" height="125" fill="#C8B2B9" />
  <rect x="625" y="500" width="125" height="125" fill="#A65E53" />
  <rect x="750" y="500" width="125" height="125" fill="#D8D0C5" />
  <rect x="875" y="500" width="125" height="125" fill="#7F7A58" />
  <rect x="1000" y="500" width="125" height="125" fill="#4D4B41" />
  <rect x="1125" y="500" width="125" height="125" fill="#E9D5C3" />
  <rect x="250" y="625" width="125" height="125" fill="#2F3C31" />
  <rect x="375" y="625" width="125" height="125" fill="#E4C1A0" />
  <rect x="500" y="625" width="125" height="125" fill="#C2503A" />
  <rect x="625" y="625" width="125" height="125" fill="#998F82" />
  <rect x="750" y="625" width="125" height="125" fill="#70706C" />
  <rect x="875" y="625" width="125" height="125" fill="#D1D2C7" />
  <rect x="1000" y="625" width="125" height="125" fill="#C54E38" />
  <rect x="1125" y="625" width="125" height="125" fill="#EEDD72" />
  <rect x="250" y="750" width="125" height="125" fill="#3A573C" />
  <rect x="375" y="750" width="125" height="125" fill="#D6D6D0" />
  <rect x="500" y="750" width="125" height="125" fill="#D7A677" />
  <rect x="625" y="750" width="125" height="125" fill="#B0422B" />
  <rect x="750" y="750" width="125" height="125" fill="#B6C7B3" />
  <rect x="875" y="750" width="125" height="125" fill="#E6D1C0" />
  <rect x="1000" y="750" width="125" height="125" fill="#D97051" />
  <rect x="1125" y="750" width="125" height="125" fill="#B5A590" />
  <rect x="250" y="875" width="125" height="125" fill="#5A6B44" />
  <rect x="375" y="875" width="125" height="125" fill="#CCDFD6" />
  <rect x="500" y="875" width="125" height="125" fill="#BF4B4A" />
  <rect x="625" y="875" width="125" height="125" fill="#D4D4C9" />
  <rect x="750" y="875" width="125" height="125" fill="#B9A280" />
  <rect x="875" y="875" width="125" height="125" fill="#E6B158" />
  <rect x="1000" y="875" width="125" height="125" fill="#7B5F36" />
  <rect x="1125" y="875" width="125" height="125" fill="#A3D7C4" />
  <rect x="250" y="1000" width="125" height="125" fill="#6D832F" />
  <rect x="375" y="1000" width="125" height="125" fill="#E0E3D5" />
  <rect x="500" y="1000" width="125" height="125" fill="#DCCCB5" />
  <rect x="625" y="1000" width="125" height="125" fill="#AA5E45" />
  <rect x="750" y="1000" width="125" height="125" fill="#C4BBA9" />
  <rect x="875" y="1000" width="125" height="125" fill="#E7C8A3" />
  <rect x="1000" y="1000" width="125" height="125" fill="#D8442F" />
  <rect x="1125" y="1000" width="125" height="125" fill="#A16D56" />
  <rect x="250" y="1125" width="125" height="125" fill="#8A7B3A" />
  <rect x="375" y="1125" width="125" height="125" fill="#EDD5C6" />
  <rect x="500" y="1125" width="125" height="125" fill="#D0B9B2" />
  <rect x="625" y="1125" width="125" height="125" fill="#B8C8BF" />
  <rect x="750" y="1125" width="125" height="125" fill="#70603A" />
  <rect x="875" y="1125" width="125" height="125" fill="#E2DDB3" />
  <rect x="1000" y="1125" width="125" height="125" fill="#C55F37" />
  <rect x="1125" y="1125" width="125" height="125" fill="#C0A699" />
  <rect x="250" y="250" width="1000" height="1000" fill="none" stroke="#151515" stroke-opacity="0.16" stroke-width="2" />
</svg>
