<svg xmlns="http://www.w3.org/2000/svg" width="1500" height="1500" viewBox="0 0 1500 1500" shape-rendering="crispEdges" role="img" aria-labelledby="title desc">
  <title id="title">Weight of Uncertainty in Gold frame</title>
  <desc id="desc">Square Project artwork previewed in a gold frame.</desc>
  <rect x="0" y="0" width="1500" height="1500" fill="#FFFFFF" />
  <image href="https://mysquareart.com/frames/gold.jpg" x="0" y="0" width="1500" height="1500" preserveAspectRatio="xMidYMid meet" />
  <rect x="250" y="250" width="1000" height="1000" fill="#FFFFFF" />
  <rect x="250" y="250" width="125" height="125" fill="#000000" />
  <rect x="375" y="250" width="125" height="125" fill="#0D0D0D" />
  <rect x="500" y="250" width="125" height="125" fill="#202020" />
  <rect x="625" y="250" width="125" height="125" fill="#2D2D2D" />
  <rect x="750" y="250" width="125" height="125" fill="#3A3A3A" />
  <rect x="875" y="250" width="125" height="125" fill="#484848" />
  <rect x="1000" y="250" width="125" height="125" fill="#BFBFBF" />
  <rect x="1125" y="250" width="125" height="125" fill="#E0E0E0" />
  <rect x="250" y="375" width="125" height="125" fill="#1E1E1E" />
  <rect x="375" y="375" width="125" height="125" fill="#3B3B3B" />
  <rect x="500" y="375" width="125" height="125" fill="#717171" />
  <rect x="625" y="375" width="125" height="125" fill="#A8A8A8" />
  <rect x="750" y="375" width="125" height="125" fill="#D9D9D9" />
  <rect x="875" y="375" width="125" height="125" fill="#F5DAAA" />
  <rect x="1000" y="375" width="125" height="125" fill="#C6E1B3" />
  <rect x="1125" y="375" width="125" height="125" fill="#8FBFB6" />
  <rect x="250" y="500" width="125" height="125" fill="#2C2C2C" />
  <rect x="375" y="500" width="125" height="125" fill="#5B5B5B" />
  <rect x="500" y="500" width="125" height="125" fill="#929292" />
  <rect x="625" y="500" width="125" height="125" fill="#D8D8D8" />
  <rect x="750" y="500" width="125" height="125" fill="#F2FFD6" />
  <rect x="875" y="500" width="125" height="125" fill="#E5C7A1" />
  <rect x="1000" y="500" width="125" height="125" fill="#A8D5D2" />
  <rect x="1125" y="500" width="125" height="125" fill="#B0D0C7" />
  <rect x="250" y="625" width="125" height="125" fill="#141414" />
  <rect x="375" y="625" width="125" height="125" fill="#666666" />
  <rect x="500" y="625" width="125" height="125" fill="#888888" />
  <rect x="625" y="625" width="125" height="125" fill="#A3A3A3" />
  <rect x="750" y="625" width="125" height="125" fill="#CADB9E" />
  <rect x="875" y="625" width="125" height="125" fill="#D4E142" />
  <rect x="1000" y="625" width="125" height="125" fill="#99C17B" />
  <rect x="1125" y="625" width="125" height="125" fill="#F9E245" />
  <rect x="250" y="750" width="125" height="125" fill="#313131" />
  <rect x="375" y="750" width="125" height="125" fill="#4C4C4C" />
  <rect x="500" y="750" width="125" height="125" fill="#6F6F6F" />
  <rect x="625" y="750" width="125" height="125" fill="#B1B1B1" />
  <rect x="750" y="750" width="125" height="125" fill="#D9D2A8" />
  <rect x="875" y="750" width="125" height="125" fill="#CEDABC" />
  <rect x="1000" y="750" width="125" height="125" fill="#B9E5C0" />
  <rect x="1125" y="750" width="125" height="125" fill="#91C2B0" />
  <rect x="250" y="875" width="125" height="125" fill="#222222" />
  <rect x="375" y="875" width="125" height="125" fill="#444444" />
  <rect x="500" y="875" width="125" height="125" fill="#666666" />
  <rect x="625" y="875" width="125" height="125" fill="#999999" />
  <rect x="750" y="875" width="125" height="125" fill="#D7DAA3" />
  <rect x="875" y="875" width="125" height="125" fill="#C7D3AD" />
  <rect x="1000" y="875" width="125" height="125" fill="#B9B89D" />
  <rect x="1125" y="875" width="125" height="125" fill="#DAD0B1" />
  <rect x="250" y="1000" width="125" height="125" fill="#101010" />
  <rect x="375" y="1000" width="125" height="125" fill="#383838" />
  <rect x="500" y="1000" width="125" height="125" fill="#B6B6B6" />
  <rect x="625" y="1000" width="125" height="125" fill="#D2D3D2" />
  <rect x="750" y="1000" width="125" height="125" fill="#D3EDD4" />
  <rect x="875" y="1000" width="125" height="125" fill="#C6E0BB" />
  <rect x="1000" y="1000" width="125" height="125" fill="#A9D6C6" />
  <rect x="1125" y="1000" width="125" height="125" fill="#99C3D2" />
  <rect x="250" y="1125" width="125" height="125" fill="#000000" />
  <rect x="375" y="1125" width="125" height="125" fill="#262626" />
  <rect x="500" y="1125" width="125" height="125" fill="#777777" />
  <rect x="625" y="1125" width="125" height="125" fill="#A1A1A1" />
  <rect x="750" y="1125" width="125" height="125" fill="#DFDFDF" />
  <rect x="875" y="1125" width="125" height="125" fill="#FFFFFF" />
  <rect x="1000" y="1125" width="125" height="125" fill="#FBF8C1" />
  <rect x="1125" y="1125" width="125" height="125" fill="#E4F1B4" />
  <rect x="250" y="250" width="1000" height="1000" fill="none" stroke="#151515" stroke-opacity="0.16" stroke-width="2" />
</svg>
