<svg xmlns="http://www.w3.org/2000/svg" width="1500" height="1500" viewBox="0 0 1500 1500" shape-rendering="crispEdges" role="img" aria-labelledby="title desc">
  <title id="title">Echo Between Shelters in Natural frame</title>
  <desc id="desc">Square Project artwork previewed in a natural frame.</desc>
  <defs>
    <linearGradient id="frameFace" x1="0" y1="0" x2="1" y2="1">
      <stop offset="0" stop-color="#8F6F35" />
      <stop offset="0.32" stop-color="#F0DDAA" />
      <stop offset="0.68" stop-color="#D8C190" />
      <stop offset="1" stop-color="#B39155" />
    </linearGradient>
    <filter id="artShadow" x="-10%" y="-10%" width="120%" height="120%">
      <feDropShadow dx="0" dy="20" stdDeviation="24" flood-color="#000000" flood-opacity="0.24" />
    </filter>
  </defs>
  <rect x="0" y="0" width="1500" height="1500" fill="#FFFFFF" />
  <rect x="0" y="0" width="1500" height="1500" fill="url(#frameFace)" />
  <rect x="120" y="120" width="1260" height="1260" fill="#F8F7F3" />
  <rect x="120" y="120" width="1260" height="1260" fill="none" stroke="#000000" stroke-opacity="0.14" stroke-width="10" />
  <rect x="250" y="250" width="1000" height="1000" fill="#FFFFFF" filter="url(#artShadow)" />
  <rect x="250" y="250" width="125" height="125" fill="#4B3D3D" />
  <rect x="375" y="250" width="125" height="125" fill="#A8A79D" />
  <rect x="500" y="250" width="125" height="125" fill="#E2D6C9" />
  <rect x="625" y="250" width="125" height="125" fill="#B1A67D" />
  <rect x="750" y="250" width="125" height="125" fill="#A5483D" />
  <rect x="875" y="250" width="125" height="125" fill="#BA8C69" />
  <rect x="1000" y="250" width="125" height="125" fill="#EAE4D8" />
  <rect x="1125" y="250" width="125" height="125" fill="#F6F2E6" />
  <rect x="250" y="375" width="125" height="125" fill="#3D3D3D" />
  <rect x="375" y="375" width="125" height="125" fill="#54776D" />
  <rect x="500" y="375" width="125" height="125" fill="#F4D5D0" />
  <rect x="625" y="375" width="125" height="125" fill="#A1C6C8" />
  <rect x="750" y="375" width="125" height="125" fill="#7B5B49" />
  <rect x="875" y="375" width="125" height="125" fill="#B3A35A" />
  <rect x="1000" y="375" width="125" height="125" fill="#F2D5C6" />
  <rect x="1125" y="375" width="125" height="125" fill="#D6D4D3" />
  <rect x="250" y="500" width="125" height="125" fill="#1D1C1B" />
  <rect x="375" y="500" width="125" height="125" fill="#9C8B5C" />
  <rect x="500" y="500" width="125" height="125" fill="#EBC9AD" />
  <rect x="625" y="500" width="125" height="125" fill="#C2B0AA" />
  <rect x="750" y="500" width="125" height="125" fill="#9D6F6E" />
  <rect x="875" y="500" width="125" height="125" fill="#CEEDD9" />
  <rect x="1000" y="500" width="125" height="125" fill="#A2A18A" />
  <rect x="1125" y="500" width="125" height="125" fill="#E6E0CE" />
  <rect x="250" y="625" width="125" height="125" fill="#4B4B4B" />
  <rect x="375" y="625" width="125" height="125" fill="#3D6854" />
  <rect x="500" y="625" width="125" height="125" fill="#D3C7B7" />
  <rect x="625" y="625" width="125" height="125" fill="#7D6E6C" />
  <rect x="750" y="625" width="125" height="125" fill="#B6C2AE" />
  <rect x="875" y="625" width="125" height="125" fill="#B2A649" />
  <rect x="1000" y="625" width="125" height="125" fill="#E2D1D1" />
  <rect x="1125" y="625" width="125" height="125" fill="#D5DAD4" />
  <rect x="250" y="750" width="125" height="125" fill="#5B5B5B" />
  <rect x="375" y="750" width="125" height="125" fill="#A65C3C" />
  <rect x="500" y="750" width="125" height="125" fill="#EB8B62" />
  <rect x="625" y="750" width="125" height="125" fill="#C5BED5" />
  <rect x="750" y="750" width="125" height="125" fill="#C2D8D6" />
  <rect x="875" y="750" width="125" height="125" fill="#A44E4D" />
  <rect x="1000" y="750" width="125" height="125" fill="#E0C9B3" />
  <rect x="1125" y="750" width="125" height="125" fill="#F4E7DA" />
  <rect x="250" y="875" width="125" height="125" fill="#3D3D3D" />
  <rect x="375" y="875" width="125" height="125" fill="#7D5B4F" />
  <rect x="500" y="875" width="125" height="125" fill="#EFBDA2" />
  <rect x="625" y="875" width="125" height="125" fill="#E3D9C7" />
  <rect x="750" y="875" width="125" height="125" fill="#7B7677" />
  <rect x="875" y="875" width="125" height="125" fill="#A0FAF1" />
  <rect x="1000" y="875" width="125" height="125" fill="#D0C9B2" />
  <rect x="1125" y="875" width="125" height="125" fill="#F2F2F2" />
  <rect x="250" y="1000" width="125" height="125" fill="#2A2A2A" />
  <rect x="375" y="1000" width="125" height="125" fill="#6E6D6D" />
  <rect x="500" y="1000" width="125" height="125" fill="#EDBF88" />
  <rect x="625" y="1000" width="125" height="125" fill="#D2B99C" />
  <rect x="750" y="1000" width="125" height="125" fill="#C7D6D5" />
  <rect x="875" y="1000" width="125" height="125" fill="#BCA8BC" />
  <rect x="1000" y="1000" width="125" height="125" fill="#F3E8D9" />
  <rect x="1125" y="1000" width="125" height="125" fill="#D0C4C7" />
  <rect x="250" y="1125" width="125" height="125" fill="#1F1F1F" />
  <rect x="375" y="1125" width="125" height="125" fill="#3C3C3C" />
  <rect x="500" y="1125" width="125" height="125" fill="#4F5B66" />
  <rect x="625" y="1125" width="125" height="125" fill="#A99A8C" />
  <rect x="750" y="1125" width="125" height="125" fill="#D9D2CC" />
  <rect x="875" y="1125" width="125" height="125" fill="#C6B0A1" />
  <rect x="1000" y="1125" width="125" height="125" fill="#F0E7D7" />
  <rect x="1125" y="1125" width="125" height="125" fill="#FFFFFF" />
  <rect x="250" y="250" width="1000" height="1000" fill="none" stroke="#151515" stroke-opacity="0.16" stroke-width="2" />
</svg>
