<svg xmlns="http://www.w3.org/2000/svg" width="1500" height="1500" viewBox="0 0 1500 1500" shape-rendering="crispEdges" role="img" aria-labelledby="title desc">
  <title id="title">Ebb &amp; Flow in Brown frame</title>
  <desc id="desc">Square Project artwork previewed in a brown frame.</desc>
  <rect x="0" y="0" width="1500" height="1500" fill="#FFFFFF" />
  <image href="https://mysquareart.com/frames/brown.jpg" x="0" y="0" width="1500" height="1500" preserveAspectRatio="xMidYMid meet" />
  <rect x="250" y="250" width="1000" height="1000" fill="#FFFFFF" />
  <rect x="250" y="250" width="125" height="125" fill="#7F5724" />
  <rect x="375" y="250" width="125" height="125" fill="#9C5D35" />
  <rect x="500" y="250" width="125" height="125" fill="#C67A4A" />
  <rect x="625" y="250" width="125" height="125" fill="#D09164" />
  <rect x="750" y="250" width="125" height="125" fill="#E6A56D" />
  <rect x="875" y="250" width="125" height="125" fill="#F2B78F" />
  <rect x="1000" y="250" width="125" height="125" fill="#D3C2B3" />
  <rect x="1125" y="250" width="125" height="125" fill="#F5F5F5" />
  <rect x="250" y="375" width="125" height="125" fill="#5E3A2E" />
  <rect x="375" y="375" width="125" height="125" fill="#A7594A" />
  <rect x="500" y="375" width="125" height="125" fill="#C4835E" />
  <rect x="625" y="375" width="125" height="125" fill="#D4A76B" />
  <rect x="750" y="375" width="125" height="125" fill="#D4B869" />
  <rect x="875" y="375" width="125" height="125" fill="#E8C978" />
  <rect x="1000" y="375" width="125" height="125" fill="#C3D1E1" />
  <rect x="1125" y="375" width="125" height="125" fill="#FFFFFF" />
  <rect x="250" y="500" width="125" height="125" fill="#4A2C20" />
  <rect x="375" y="500" width="125" height="125" fill="#854A3B" />
  <rect x="500" y="500" width="125" height="125" fill="#A56841" />
  <rect x="625" y="500" width="125" height="125" fill="#BB8A60" />
  <rect x="750" y="500" width="125" height="125" fill="#D4B69A" />
  <rect x="875" y="500" width="125" height="125" fill="#E3C1C9" />
  <rect x="1000" y="500" width="125" height="125" fill="#9C9C9C" />
  <rect x="1125" y="500" width="125" height="125" fill="#D4C6B8" />
  <rect x="250" y="625" width="125" height="125" fill="#371B16" />
  <rect x="375" y="625" width="125" height="125" fill="#754D35" />
  <rect x="500" y="625" width="125" height="125" fill="#9C7563" />
  <rect x="625" y="625" width="125" height="125" fill="#CDA76A" />
  <rect x="750" y="625" width="125" height="125" fill="#EDD09E" />
  <rect x="875" y="625" width="125" height="125" fill="#F0DBBC" />
  <rect x="1000" y="625" width="125" height="125" fill="#A6B8C3" />
  <rect x="1125" y="625" width="125" height="125" fill="#E3E3E3" />
  <rect x="250" y="750" width="125" height="125" fill="#0D0D0D" />
  <rect x="375" y="750" width="125" height="125" fill="#3B3B3B" />
  <rect x="500" y="750" width="125" height="125" fill="#5D5D5D" />
  <rect x="625" y="750" width="125" height="125" fill="#7F7F7F" />
  <rect x="750" y="750" width="125" height="125" fill="#A1A1A1" />
  <rect x="875" y="750" width="125" height="125" fill="#C4C4C4" />
  <rect x="1000" y="750" width="125" height="125" fill="#E7E7E7" />
  <rect x="1125" y="750" width="125" height="125" fill="#FFFFFF" />
  <rect x="250" y="875" width="125" height="125" fill="#8B4D3A" />
  <rect x="375" y="875" width="125" height="125" fill="#BF8A5E" />
  <rect x="500" y="875" width="125" height="125" fill="#D6AD8D" />
  <rect x="625" y="875" width="125" height="125" fill="#EBC6A5" />
  <rect x="750" y="875" width="125" height="125" fill="#F4D7BF" />
  <rect x="875" y="875" width="125" height="125" fill="#EBE8E8" />
  <rect x="1000" y="875" width="125" height="125" fill="#C3C2BF" />
  <rect x="1125" y="875" width="125" height="125" fill="#FFFFFF" />
  <rect x="250" y="1000" width="125" height="125" fill="#4E1F15" />
  <rect x="375" y="1000" width="125" height="125" fill="#8F3C32" />
  <rect x="500" y="1000" width="125" height="125" fill="#A55B38" />
  <rect x="625" y="1000" width="125" height="125" fill="#B8764E" />
  <rect x="750" y="1000" width="125" height="125" fill="#C8946E" />
  <rect x="875" y="1000" width="125" height="125" fill="#D7BFA5" />
  <rect x="1000" y="1000" width="125" height="125" fill="#C8C8C8" />
  <rect x="1125" y="1000" width="125" height="125" fill="#F8F8F8" />
  <rect x="250" y="1125" width="125" height="125" fill="#2B2B2B" />
  <rect x="375" y="1125" width="125" height="125" fill="#484848" />
  <rect x="500" y="1125" width="125" height="125" fill="#757575" />
  <rect x="625" y="1125" width="125" height="125" fill="#A2A2A2" />
  <rect x="750" y="1125" width="125" height="125" fill="#C7C7C7" />
  <rect x="875" y="1125" width="125" height="125" fill="#E2E2E2" />
  <rect x="1000" y="1125" width="125" height="125" fill="#FFFFFF" />
  <rect x="1125" y="1125" width="125" height="125" fill="#F7F7F7" />
  <rect x="250" y="250" width="1000" height="1000" fill="none" stroke="#151515" stroke-opacity="0.16" stroke-width="2" />
</svg>
