<svg xmlns="http://www.w3.org/2000/svg" width="1500" height="1500" viewBox="0 0 1500 1500" shape-rendering="crispEdges" role="img" aria-labelledby="title desc">
  <title id="title">Tides of Tension in Natural frame</title>
  <desc id="desc">Square Project artwork previewed in a natural frame.</desc>
  <defs>
    <linearGradient id="frameFace" x1="0" y1="0" x2="1" y2="1">
      <stop offset="0" stop-color="#FFF1D7" />
      <stop offset="0.32" stop-color="#E8D4B7" />
      <stop offset="0.68" stop-color="#C2A17B" />
      <stop offset="1" stop-color="#8D6F50" />
    </linearGradient>
    <pattern id="naturalGrain" patternUnits="userSpaceOnUse" width="180" height="48">
      <path d="M0 12 C48 2 92 24 180 10" fill="none" stroke="#8D6F50" stroke-opacity="0.22" stroke-width="5" />
      <path d="M0 34 C62 44 118 22 180 36" fill="none" stroke="#FFFFFF" stroke-opacity="0.22" stroke-width="4" />
    </pattern>
    <filter id="artShadow" x="-10%" y="-10%" width="120%" height="120%">
      <feDropShadow dx="0" dy="20" stdDeviation="24" flood-color="#000000" flood-opacity="0.24" />
    </filter>
  </defs>
  <rect x="0" y="0" width="1500" height="1500" fill="#FFFFFF" />
  <rect x="0" y="0" width="1500" height="1500" fill="url(#frameFace)" />
  <rect x="0" y="0" width="1500" height="1500" fill="url(#naturalGrain)" />
  <rect x="120" y="120" width="1260" height="1260" fill="#F8F7F3" />
  <rect x="120" y="120" width="1260" height="1260" fill="none" stroke="#000000" stroke-opacity="0.14" stroke-width="10" />
  <rect x="250" y="250" width="1000" height="1000" fill="#FFFFFF" filter="url(#artShadow)" />
  <rect x="250" y="250" width="125" height="125" fill="#B1D9A0" />
  <rect x="375" y="250" width="125" height="125" fill="#E4F3E4" />
  <rect x="500" y="250" width="125" height="125" fill="#BCDBA4" />
  <rect x="625" y="250" width="125" height="125" fill="#A8D6A8" />
  <rect x="750" y="250" width="125" height="125" fill="#A8E0C1" />
  <rect x="875" y="250" width="125" height="125" fill="#D9E6D3" />
  <rect x="1000" y="250" width="125" height="125" fill="#C1D3C7" />
  <rect x="1125" y="250" width="125" height="125" fill="#E8F1E6" />
  <rect x="250" y="375" width="125" height="125" fill="#D1E3B7" />
  <rect x="375" y="375" width="125" height="125" fill="#C5DBA0" />
  <rect x="500" y="375" width="125" height="125" fill="#A4D7A1" />
  <rect x="625" y="375" width="125" height="125" fill="#B7E2B4" />
  <rect x="750" y="375" width="125" height="125" fill="#E0E9B1" />
  <rect x="875" y="375" width="125" height="125" fill="#B5CD9E" />
  <rect x="1000" y="375" width="125" height="125" fill="#92BA8D" />
  <rect x="1125" y="375" width="125" height="125" fill="#A3DBBE" />
  <rect x="250" y="500" width="125" height="125" fill="#797B7F" />
  <rect x="375" y="500" width="125" height="125" fill="#A6BEA7" />
  <rect x="500" y="500" width="125" height="125" fill="#4D5A2D" />
  <rect x="625" y="500" width="125" height="125" fill="#B3C79A" />
  <rect x="750" y="500" width="125" height="125" fill="#817F66" />
  <rect x="875" y="500" width="125" height="125" fill="#B7C1A6" />
  <rect x="1000" y="500" width="125" height="125" fill="#8AA081" />
  <rect x="1125" y="500" width="125" height="125" fill="#DFE7B6" />
  <rect x="250" y="625" width="125" height="125" fill="#E1F4A5" />
  <rect x="375" y="625" width="125" height="125" fill="#677A3E" />
  <rect x="500" y="625" width="125" height="125" fill="#764A27" />
  <rect x="625" y="625" width="125" height="125" fill="#BAC8A6" />
  <rect x="750" y="625" width="125" height="125" fill="#637963" />
  <rect x="875" y="625" width="125" height="125" fill="#888F4D" />
  <rect x="1000" y="625" width="125" height="125" fill="#5A5C38" />
  <rect x="1125" y="625" width="125" height="125" fill="#A7B79F" />
  <rect x="250" y="750" width="125" height="125" fill="#756F53" />
  <rect x="375" y="750" width="125" height="125" fill="#D0CD86" />
  <rect x="500" y="750" width="125" height="125" fill="#FFCC33" />
  <rect x="625" y="750" width="125" height="125" fill="#B5B328" />
  <rect x="750" y="750" width="125" height="125" fill="#FFBA00" />
  <rect x="875" y="750" width="125" height="125" fill="#A1A830" />
  <rect x="1000" y="750" width="125" height="125" fill="#C3D84A" />
  <rect x="1125" y="750" width="125" height="125" fill="#A6A82C" />
  <rect x="250" y="875" width="125" height="125" fill="#D9D9D9" />
  <rect x="375" y="875" width="125" height="125" fill="#F1EA33" />
  <rect x="500" y="875" width="125" height="125" fill="#F2D68D" />
  <rect x="625" y="875" width="125" height="125" fill="#FEFF8A" />
  <rect x="750" y="875" width="125" height="125" fill="#CAD47D" />
  <rect x="875" y="875" width="125" height="125" fill="#E8EDC3" />
  <rect x="1000" y="875" width="125" height="125" fill="#D9DD94" />
  <rect x="1125" y="875" width="125" height="125" fill="#B7B99C" />
  <rect x="250" y="1000" width="125" height="125" fill="#3E4B35" />
  <rect x="375" y="1000" width="125" height="125" fill="#F2E6A0" />
  <rect x="500" y="1000" width="125" height="125" fill="#F9C29A" />
  <rect x="625" y="1000" width="125" height="125" fill="#FFAA03" />
  <rect x="750" y="1000" width="125" height="125" fill="#FFE138" />
  <rect x="875" y="1000" width="125" height="125" fill="#BFAF6F" />
  <rect x="1000" y="1000" width="125" height="125" fill="#C9B741" />
  <rect x="1125" y="1000" width="125" height="125" fill="#D6D4A0" />
  <rect x="250" y="1125" width="125" height="125" fill="#6D7D66" />
  <rect x="375" y="1125" width="125" height="125" fill="#FFFED6" />
  <rect x="500" y="1125" width="125" height="125" fill="#FEFFEE" />
  <rect x="625" y="1125" width="125" height="125" fill="#D8D4B5" />
  <rect x="750" y="1125" width="125" height="125" fill="#C8CB91" />
  <rect x="875" y="1125" width="125" height="125" fill="#A5A86E" />
  <rect x="1000" y="1125" width="125" height="125" fill="#B2D6A8" />
  <rect x="1125" y="1125" width="125" height="125" fill="#F1FFF7" />
  <rect x="250" y="250" width="1000" height="1000" fill="none" stroke="#151515" stroke-opacity="0.16" stroke-width="2" />
</svg>
