<svg xmlns="http://www.w3.org/2000/svg" width="1500" height="1500" viewBox="0 0 1500 1500" shape-rendering="crispEdges" role="img" aria-labelledby="title desc">
  <title id="title">Echo of Threads in Black frame</title>
  <desc id="desc">Square Project artwork previewed in a black frame.</desc>
  <defs>
    <linearGradient id="frameFace" x1="0" y1="0" x2="1" y2="1">
      <stop offset="0" stop-color="#6A6A6A" />
      <stop offset="0.32" stop-color="#343434" />
      <stop offset="0.68" stop-color="#111111" />
      <stop offset="1" stop-color="#050505" />
    </linearGradient>
    <filter id="artShadow" x="-10%" y="-10%" width="120%" height="120%">
      <feDropShadow dx="0" dy="20" stdDeviation="24" flood-color="#000000" flood-opacity="0.24" />
    </filter>
  </defs>
  <rect x="0" y="0" width="1500" height="1500" fill="#FFFFFF" />
  <rect x="0" y="0" width="1500" height="1500" fill="url(#frameFace)" />
  <rect x="120" y="120" width="1260" height="1260" fill="#F8F7F3" />
  <rect x="120" y="120" width="1260" height="1260" fill="none" stroke="#000000" stroke-opacity="0.14" stroke-width="10" />
  <rect x="250" y="250" width="1000" height="1000" fill="#FFFFFF" filter="url(#artShadow)" />
  <rect x="250" y="250" width="125" height="125" fill="#5A7F5E" />
  <rect x="375" y="250" width="125" height="125" fill="#B7C9B0" />
  <rect x="500" y="250" width="125" height="125" fill="#D0DBD1" />
  <rect x="625" y="250" width="125" height="125" fill="#707B73" />
  <rect x="750" y="250" width="125" height="125" fill="#C54D0C" />
  <rect x="875" y="250" width="125" height="125" fill="#F2E2C4" />
  <rect x="1000" y="250" width="125" height="125" fill="#9E3C18" />
  <rect x="1125" y="250" width="125" height="125" fill="#D1E8AD" />
  <rect x="250" y="375" width="125" height="125" fill="#A7B5A8" />
  <rect x="375" y="375" width="125" height="125" fill="#F6F9F6" />
  <rect x="500" y="375" width="125" height="125" fill="#7E6145" />
  <rect x="625" y="375" width="125" height="125" fill="#C4D9C5" />
  <rect x="750" y="375" width="125" height="125" fill="#4A8A25" />
  <rect x="875" y="375" width="125" height="125" fill="#2D4518" />
  <rect x="1000" y="375" width="125" height="125" fill="#CED8C4" />
  <rect x="1125" y="375" width="125" height="125" fill="#5E6A5B" />
  <rect x="250" y="500" width="125" height="125" fill="#606A50" />
  <rect x="375" y="500" width="125" height="125" fill="#D1C2A0" />
  <rect x="500" y="500" width="125" height="125" fill="#C6BEB7" />
  <rect x="625" y="500" width="125" height="125" fill="#F7FFC3" />
  <rect x="750" y="500" width="125" height="125" fill="#9CB0B7" />
  <rect x="875" y="500" width="125" height="125" fill="#48233D" />
  <rect x="1000" y="500" width="125" height="125" fill="#C9D7D1" />
  <rect x="1125" y="500" width="125" height="125" fill="#3C2F1D" />
  <rect x="250" y="625" width="125" height="125" fill="#B3B8A1" />
  <rect x="375" y="625" width="125" height="125" fill="#9B9C8F" />
  <rect x="500" y="625" width="125" height="125" fill="#B0C3B7" />
  <rect x="625" y="625" width="125" height="125" fill="#A73D11" />
  <rect x="750" y="625" width="125" height="125" fill="#D3E67F" />
  <rect x="875" y="625" width="125" height="125" fill="#C9D3D5" />
  <rect x="1000" y="625" width="125" height="125" fill="#B64C33" />
  <rect x="1125" y="625" width="125" height="125" fill="#F3F6D9" />
  <rect x="250" y="750" width="125" height="125" fill="#6B7F80" />
  <rect x="375" y="750" width="125" height="125" fill="#D0C4B1" />
  <rect x="500" y="750" width="125" height="125" fill="#C60C1F" />
  <rect x="625" y="750" width="125" height="125" fill="#F3F4EB" />
  <rect x="750" y="750" width="125" height="125" fill="#7FB5A8" />
  <rect x="875" y="750" width="125" height="125" fill="#B0B3A9" />
  <rect x="1000" y="750" width="125" height="125" fill="#5F8A6C" />
  <rect x="1125" y="750" width="125" height="125" fill="#DED0A9" />
  <rect x="250" y="875" width="125" height="125" fill="#3E5053" />
  <rect x="375" y="875" width="125" height="125" fill="#D8E9D9" />
  <rect x="500" y="875" width="125" height="125" fill="#F4F1E4" />
  <rect x="625" y="875" width="125" height="125" fill="#A66A4B" />
  <rect x="750" y="875" width="125" height="125" fill="#D8C7B8" />
  <rect x="875" y="875" width="125" height="125" fill="#4C627B" />
  <rect x="1000" y="875" width="125" height="125" fill="#D3DDA6" />
  <rect x="1125" y="875" width="125" height="125" fill="#262A28" />
  <rect x="250" y="1000" width="125" height="125" fill="#2E4221" />
  <rect x="375" y="1000" width="125" height="125" fill="#F8E0B8" />
  <rect x="500" y="1000" width="125" height="125" fill="#D5E7E2" />
  <rect x="625" y="1000" width="125" height="125" fill="#A8B3B6" />
  <rect x="750" y="1000" width="125" height="125" fill="#C8A521" />
  <rect x="875" y="1000" width="125" height="125" fill="#D2D6B9" />
  <rect x="1000" y="1000" width="125" height="125" fill="#A59B8D" />
  <rect x="1125" y="1000" width="125" height="125" fill="#F3E8D7" />
  <rect x="250" y="1125" width="125" height="125" fill="#9A7465" />
  <rect x="375" y="1125" width="125" height="125" fill="#EAEDD0" />
  <rect x="500" y="1125" width="125" height="125" fill="#B5BCC1" />
  <rect x="625" y="1125" width="125" height="125" fill="#BB5A2D" />
  <rect x="750" y="1125" width="125" height="125" fill="#DCDCE9" />
  <rect x="875" y="1125" width="125" height="125" fill="#F1F4E7" />
  <rect x="1000" y="1125" width="125" height="125" fill="#7F9A83" />
  <rect x="1125" y="1125" width="125" height="125" fill="#E6E4B5" />
  <rect x="250" y="250" width="1000" height="1000" fill="none" stroke="#151515" stroke-opacity="0.16" stroke-width="2" />
</svg>
