<svg xmlns="http://www.w3.org/2000/svg" width="1500" height="1500" viewBox="0 0 1500 1500" shape-rendering="crispEdges" role="img" aria-labelledby="title desc">
  <title id="title">Emotional Symbiosis in Natural frame</title>
  <desc id="desc">Square Project artwork previewed in a natural frame.</desc>
  <defs>
    <linearGradient id="frameFace" x1="0" y1="0" x2="1" y2="1">
      <stop offset="0" stop-color="#FFF1D7" />
      <stop offset="0.32" stop-color="#E8D4B7" />
      <stop offset="0.68" stop-color="#C2A17B" />
      <stop offset="1" stop-color="#8D6F50" />
    </linearGradient>
    <pattern id="naturalGrain" patternUnits="userSpaceOnUse" width="180" height="48">
      <path d="M0 12 C48 2 92 24 180 10" fill="none" stroke="#8D6F50" stroke-opacity="0.22" stroke-width="5" />
      <path d="M0 34 C62 44 118 22 180 36" fill="none" stroke="#FFFFFF" stroke-opacity="0.22" stroke-width="4" />
    </pattern>
    <filter id="artShadow" x="-10%" y="-10%" width="120%" height="120%">
      <feDropShadow dx="0" dy="20" stdDeviation="24" flood-color="#000000" flood-opacity="0.24" />
    </filter>
  </defs>
  <rect x="0" y="0" width="1500" height="1500" fill="#FFFFFF" />
  <rect x="0" y="0" width="1500" height="1500" fill="url(#frameFace)" />
  <rect x="0" y="0" width="1500" height="1500" fill="url(#naturalGrain)" />
  <rect x="120" y="120" width="1260" height="1260" fill="#F8F7F3" />
  <rect x="120" y="120" width="1260" height="1260" fill="none" stroke="#000000" stroke-opacity="0.14" stroke-width="10" />
  <rect x="250" y="250" width="1000" height="1000" fill="#FFFFFF" filter="url(#artShadow)" />
  <rect x="250" y="250" width="125" height="125" fill="#FF0000" />
  <rect x="375" y="250" width="125" height="125" fill="#FF4C00" />
  <rect x="500" y="250" width="125" height="125" fill="#FF8080" />
  <rect x="625" y="250" width="125" height="125" fill="#FFCCCC" />
  <rect x="750" y="250" width="125" height="125" fill="#000000" />
  <rect x="875" y="250" width="125" height="125" fill="#333333" />
  <rect x="1000" y="250" width="125" height="125" fill="#555555" />
  <rect x="1125" y="250" width="125" height="125" fill="#777777" />
  <rect x="250" y="375" width="125" height="125" fill="#FFFFFF" />
  <rect x="375" y="375" width="125" height="125" fill="#D1E8E2" />
  <rect x="500" y="375" width="125" height="125" fill="#B3E5FC" />
  <rect x="625" y="375" width="125" height="125" fill="#A6D8FF" />
  <rect x="750" y="375" width="125" height="125" fill="#8FB3E3" />
  <rect x="875" y="375" width="125" height="125" fill="#7FAAD8" />
  <rect x="1000" y="375" width="125" height="125" fill="#4C6E8B" />
  <rect x="1125" y="375" width="125" height="125" fill="#3C4C6B" />
  <rect x="250" y="500" width="125" height="125" fill="#FF9999" />
  <rect x="375" y="500" width="125" height="125" fill="#FF6666" />
  <rect x="500" y="500" width="125" height="125" fill="#FF3333" />
  <rect x="625" y="500" width="125" height="125" fill="#FFFFFF" />
  <rect x="750" y="500" width="125" height="125" fill="#BFD3C1" />
  <rect x="875" y="500" width="125" height="125" fill="#A8C4B8" />
  <rect x="1000" y="500" width="125" height="125" fill="#8DBEC2" />
  <rect x="1125" y="500" width="125" height="125" fill="#73B6D3" />
  <rect x="250" y="625" width="125" height="125" fill="#FF4F6D" />
  <rect x="375" y="625" width="125" height="125" fill="#FF7F99" />
  <rect x="500" y="625" width="125" height="125" fill="#FFD1D1" />
  <rect x="625" y="625" width="125" height="125" fill="#D6E1E0" />
  <rect x="750" y="625" width="125" height="125" fill="#A6C6CD" />
  <rect x="875" y="625" width="125" height="125" fill="#7BA4A4" />
  <rect x="1000" y="625" width="125" height="125" fill="#6C8B7A" />
  <rect x="1125" y="625" width="125" height="125" fill="#4D707B" />
  <rect x="250" y="750" width="125" height="125" fill="#6C3F57" />
  <rect x="375" y="750" width="125" height="125" fill="#5B2131" />
  <rect x="500" y="750" width="125" height="125" fill="#FFF0F3" />
  <rect x="625" y="750" width="125" height="125" fill="#E6E2D4" />
  <rect x="750" y="750" width="125" height="125" fill="#BEC4BC" />
  <rect x="875" y="750" width="125" height="125" fill="#99B1A3" />
  <rect x="1000" y="750" width="125" height="125" fill="#7F9FB5" />
  <rect x="1125" y="750" width="125" height="125" fill="#4C7D92" />
  <rect x="250" y="875" width="125" height="125" fill="#FFACC5" />
  <rect x="375" y="875" width="125" height="125" fill="#FF6347" />
  <rect x="500" y="875" width="125" height="125" fill="#FFFFFF" />
  <rect x="625" y="875" width="125" height="125" fill="#D1DEC7" />
  <rect x="750" y="875" width="125" height="125" fill="#CECEDA" />
  <rect x="875" y="875" width="125" height="125" fill="#B5C6C8" />
  <rect x="1000" y="875" width="125" height="125" fill="#A3B1B3" />
  <rect x="1125" y="875" width="125" height="125" fill="#84959E" />
  <rect x="250" y="1000" width="125" height="125" fill="#B14B61" />
  <rect x="375" y="1000" width="125" height="125" fill="#C14C5C" />
  <rect x="500" y="1000" width="125" height="125" fill="#D94C62" />
  <rect x="625" y="1000" width="125" height="125" fill="#D8CAD5" />
  <rect x="750" y="1000" width="125" height="125" fill="#D4E1D2" />
  <rect x="875" y="1000" width="125" height="125" fill="#C9E5F0" />
  <rect x="1000" y="1000" width="125" height="125" fill="#9DBEE1" />
  <rect x="1125" y="1000" width="125" height="125" fill="#8D82A1" />
  <rect x="250" y="1125" width="125" height="125" fill="#000000" />
  <rect x="375" y="1125" width="125" height="125" fill="#CCCCCC" />
  <rect x="500" y="1125" width="125" height="125" fill="#B3B3B3" />
  <rect x="625" y="1125" width="125" height="125" fill="#808080" />
  <rect x="750" y="1125" width="125" height="125" fill="#666666" />
  <rect x="875" y="1125" width="125" height="125" fill="#333333" />
  <rect x="1000" y="1125" width="125" height="125" fill="#182D3B" />
  <rect x="1125" y="1125" width="125" height="125" fill="#012D39" />
  <rect x="250" y="250" width="1000" height="1000" fill="none" stroke="#151515" stroke-opacity="0.16" stroke-width="2" />
</svg>
