<svg xmlns="http://www.w3.org/2000/svg" width="1500" height="1500" viewBox="0 0 1500 1500" shape-rendering="crispEdges" role="img" aria-labelledby="title desc">
  <title id="title">Exposure vs Shelter in White frame</title>
  <desc id="desc">Square Project artwork previewed in a white frame.</desc>
  <defs>
    <linearGradient id="frameFace" x1="0" y1="0" x2="1" y2="1">
      <stop offset="0" stop-color="#BEBEB8" />
      <stop offset="0.32" stop-color="#FFFFFF" />
      <stop offset="0.68" stop-color="#F8F8F5" />
      <stop offset="1" stop-color="#D5D5CF" />
    </linearGradient>
    <filter id="artShadow" x="-10%" y="-10%" width="120%" height="120%">
      <feDropShadow dx="0" dy="20" stdDeviation="24" flood-color="#000000" flood-opacity="0.24" />
    </filter>
  </defs>
  <rect x="0" y="0" width="1500" height="1500" fill="#FFFFFF" />
  <rect x="0" y="0" width="1500" height="1500" fill="url(#frameFace)" />
  <rect x="120" y="120" width="1260" height="1260" fill="#F8F7F3" />
  <rect x="120" y="120" width="1260" height="1260" fill="none" stroke="#000000" stroke-opacity="0.14" stroke-width="10" />
  <rect x="250" y="250" width="1000" height="1000" fill="#FFFFFF" filter="url(#artShadow)" />
  <rect x="250" y="250" width="125" height="125" fill="#4E3B31" />
  <rect x="375" y="250" width="125" height="125" fill="#6F4F4E" />
  <rect x="500" y="250" width="125" height="125" fill="#E2B04A" />
  <rect x="625" y="250" width="125" height="125" fill="#D6D3C9" />
  <rect x="750" y="250" width="125" height="125" fill="#5A3E25" />
  <rect x="875" y="250" width="125" height="125" fill="#F6E6B2" />
  <rect x="1000" y="250" width="125" height="125" fill="#9A7D6D" />
  <rect x="1125" y="250" width="125" height="125" fill="#2C1F1A" />
  <rect x="250" y="375" width="125" height="125" fill="#B3A59D" />
  <rect x="375" y="375" width="125" height="125" fill="#D7B5A6" />
  <rect x="500" y="375" width="125" height="125" fill="#B0AFA4" />
  <rect x="625" y="375" width="125" height="125" fill="#C8BFAD" />
  <rect x="750" y="375" width="125" height="125" fill="#E0D9C4" />
  <rect x="875" y="375" width="125" height="125" fill="#C39257" />
  <rect x="1000" y="375" width="125" height="125" fill="#7D4B3A" />
  <rect x="1125" y="375" width="125" height="125" fill="#4E3B31" />
  <rect x="250" y="500" width="125" height="125" fill="#D6CFC4" />
  <rect x="375" y="500" width="125" height="125" fill="#A88C80" />
  <rect x="500" y="500" width="125" height="125" fill="#4E3B31" />
  <rect x="625" y="500" width="125" height="125" fill="#E6DEBE" />
  <rect x="750" y="500" width="125" height="125" fill="#5B3C27" />
  <rect x="875" y="500" width="125" height="125" fill="#9B6A5B" />
  <rect x="1000" y="500" width="125" height="125" fill="#8B7370" />
  <rect x="1125" y="500" width="125" height="125" fill="#7A6D66" />
  <rect x="250" y="625" width="125" height="125" fill="#3E2A26" />
  <rect x="375" y="625" width="125" height="125" fill="#F2E5D8" />
  <rect x="500" y="625" width="125" height="125" fill="#D0B79C" />
  <rect x="625" y="625" width="125" height="125" fill="#BDAF86" />
  <rect x="750" y="625" width="125" height="125" fill="#D0B8A0" />
  <rect x="875" y="625" width="125" height="125" fill="#FFE1C1" />
  <rect x="1000" y="625" width="125" height="125" fill="#B3B5B2" />
  <rect x="1125" y="625" width="125" height="125" fill="#A29C91" />
  <rect x="250" y="750" width="125" height="125" fill="#EAE6E3" />
  <rect x="375" y="750" width="125" height="125" fill="#7C4F4A" />
  <rect x="500" y="750" width="125" height="125" fill="#B48B2B" />
  <rect x="625" y="750" width="125" height="125" fill="#C8BEA5" />
  <rect x="750" y="750" width="125" height="125" fill="#6E4A4D" />
  <rect x="875" y="750" width="125" height="125" fill="#E6D8C8" />
  <rect x="1000" y="750" width="125" height="125" fill="#B3A89B" />
  <rect x="1125" y="750" width="125" height="125" fill="#5D3C34" />
  <rect x="250" y="875" width="125" height="125" fill="#A97D69" />
  <rect x="375" y="875" width="125" height="125" fill="#C8BCA1" />
  <rect x="500" y="875" width="125" height="125" fill="#6F4F4E" />
  <rect x="625" y="875" width="125" height="125" fill="#EBE3D6" />
  <rect x="750" y="875" width="125" height="125" fill="#745C4C" />
  <rect x="875" y="875" width="125" height="125" fill="#D6B5A5" />
  <rect x="1000" y="875" width="125" height="125" fill="#BB9E8E" />
  <rect x="1125" y="875" width="125" height="125" fill="#1F1515" />
  <rect x="250" y="1000" width="125" height="125" fill="#B0A595" />
  <rect x="375" y="1000" width="125" height="125" fill="#D4C9B2" />
  <rect x="500" y="1000" width="125" height="125" fill="#3E2A26" />
  <rect x="625" y="1000" width="125" height="125" fill="#DAE4D7" />
  <rect x="750" y="1000" width="125" height="125" fill="#C61F27" />
  <rect x="875" y="1000" width="125" height="125" fill="#5A3E25" />
  <rect x="1000" y="1000" width="125" height="125" fill="#7F5B46" />
  <rect x="1125" y="1000" width="125" height="125" fill="#E8E3DE" />
  <rect x="250" y="1125" width="125" height="125" fill="#E3D8C9" />
  <rect x="375" y="1125" width="125" height="125" fill="#A9A6A1" />
  <rect x="500" y="1125" width="125" height="125" fill="#CFC8B0" />
  <rect x="625" y="1125" width="125" height="125" fill="#6B4F44" />
  <rect x="750" y="1125" width="125" height="125" fill="#AA8230" />
  <rect x="875" y="1125" width="125" height="125" fill="#E6E6E6" />
  <rect x="1000" y="1125" width="125" height="125" fill="#5C3D3A" />
  <rect x="1125" y="1125" width="125" height="125" fill="#2A2024" />
  <rect x="250" y="250" width="1000" height="1000" fill="none" stroke="#151515" stroke-opacity="0.16" stroke-width="2" />
</svg>
