<svg xmlns="http://www.w3.org/2000/svg" width="1500" height="1500" viewBox="0 0 1500 1500" shape-rendering="crispEdges" role="img" aria-labelledby="title desc">
  <title id="title">Pressure and Release in Black frame</title>
  <desc id="desc">Square Project artwork previewed in a black frame.</desc>
  <rect x="0" y="0" width="1500" height="1500" fill="#FFFFFF" />
  <image href="https://mysquareart.com/frames/black.jpg" x="0" y="0" width="1500" height="1500" preserveAspectRatio="xMidYMid meet" />
  <rect x="250" y="250" width="1000" height="1000" fill="#FFFFFF" />
  <rect x="250" y="250" width="125" height="125" fill="#2D174D" />
  <rect x="375" y="250" width="125" height="125" fill="#2E2C2B" />
  <rect x="500" y="250" width="125" height="125" fill="#3C2D1F" />
  <rect x="625" y="250" width="125" height="125" fill="#8C7B5C" />
  <rect x="750" y="250" width="125" height="125" fill="#DCD2B1" />
  <rect x="875" y="250" width="125" height="125" fill="#8A6F3D" />
  <rect x="1000" y="250" width="125" height="125" fill="#423024" />
  <rect x="1125" y="250" width="125" height="125" fill="#A04E3E" />
  <rect x="250" y="375" width="125" height="125" fill="#5F4B8A" />
  <rect x="375" y="375" width="125" height="125" fill="#393E4D" />
  <rect x="500" y="375" width="125" height="125" fill="#9A9E7C" />
  <rect x="625" y="375" width="125" height="125" fill="#4D2A20" />
  <rect x="750" y="375" width="125" height="125" fill="#F1DE9B" />
  <rect x="875" y="375" width="125" height="125" fill="#F6C0BB" />
  <rect x="1000" y="375" width="125" height="125" fill="#B8B8A5" />
  <rect x="1125" y="375" width="125" height="125" fill="#AEDD8D" />
  <rect x="250" y="500" width="125" height="125" fill="#5C325B" />
  <rect x="375" y="500" width="125" height="125" fill="#B1D572" />
  <rect x="500" y="500" width="125" height="125" fill="#4EB6D9" />
  <rect x="625" y="500" width="125" height="125" fill="#BC47C0" />
  <rect x="750" y="500" width="125" height="125" fill="#83C8E9" />
  <rect x="875" y="500" width="125" height="125" fill="#E15A87" />
  <rect x="1000" y="500" width="125" height="125" fill="#5E4E8B" />
  <rect x="1125" y="500" width="125" height="125" fill="#F5F248" />
  <rect x="250" y="625" width="125" height="125" fill="#7E704D" />
  <rect x="375" y="625" width="125" height="125" fill="#BFA894" />
  <rect x="500" y="625" width="125" height="125" fill="#3C3E58" />
  <rect x="625" y="625" width="125" height="125" fill="#7CA3C6" />
  <rect x="750" y="625" width="125" height="125" fill="#CCB88D" />
  <rect x="875" y="625" width="125" height="125" fill="#482D4D" />
  <rect x="1000" y="625" width="125" height="125" fill="#D8E3A1" />
  <rect x="1125" y="625" width="125" height="125" fill="#C5B9D7" />
  <rect x="250" y="750" width="125" height="125" fill="#2F1E3D" />
  <rect x="375" y="750" width="125" height="125" fill="#C8D375" />
  <rect x="500" y="750" width="125" height="125" fill="#5CA4B5" />
  <rect x="625" y="750" width="125" height="125" fill="#8B3E56" />
  <rect x="750" y="750" width="125" height="125" fill="#A2634E" />
  <rect x="875" y="750" width="125" height="125" fill="#E5DF71" />
  <rect x="1000" y="750" width="125" height="125" fill="#6E399C" />
  <rect x="1125" y="750" width="125" height="125" fill="#3A254D" />
  <rect x="250" y="875" width="125" height="125" fill="#3C2F48" />
  <rect x="375" y="875" width="125" height="125" fill="#F2E0B7" />
  <rect x="500" y="875" width="125" height="125" fill="#234F34" />
  <rect x="625" y="875" width="125" height="125" fill="#B4C2BB" />
  <rect x="750" y="875" width="125" height="125" fill="#43739F" />
  <rect x="875" y="875" width="125" height="125" fill="#E7B8D5" />
  <rect x="1000" y="875" width="125" height="125" fill="#623821" />
  <rect x="1125" y="875" width="125" height="125" fill="#A09653" />
  <rect x="250" y="1000" width="125" height="125" fill="#C2B158" />
  <rect x="375" y="1000" width="125" height="125" fill="#A7C6D9" />
  <rect x="500" y="1000" width="125" height="125" fill="#4A1F2E" />
  <rect x="625" y="1000" width="125" height="125" fill="#58A9B3" />
  <rect x="750" y="1000" width="125" height="125" fill="#897A5D" />
  <rect x="875" y="1000" width="125" height="125" fill="#8F4D3C" />
  <rect x="1000" y="1000" width="125" height="125" fill="#8D7A54" />
  <rect x="1125" y="1000" width="125" height="125" fill="#D9D5AE" />
  <rect x="250" y="1125" width="125" height="125" fill="#311F3B" />
  <rect x="375" y="1125" width="125" height="125" fill="#EBD882" />
  <rect x="500" y="1125" width="125" height="125" fill="#C6273E" />
  <rect x="625" y="1125" width="125" height="125" fill="#B6A5E2" />
  <rect x="750" y="1125" width="125" height="125" fill="#66BDA2" />
  <rect x="875" y="1125" width="125" height="125" fill="#A54C93" />
  <rect x="1000" y="1125" width="125" height="125" fill="#DAC5A0" />
  <rect x="1125" y="1125" width="125" height="125" fill="#7F5F7D" />
  <rect x="250" y="250" width="1000" height="1000" fill="none" stroke="#151515" stroke-opacity="0.16" stroke-width="2" />
</svg>
