<svg xmlns="http://www.w3.org/2000/svg" width="1500" height="1500" viewBox="0 0 1500 1500" shape-rendering="crispEdges" role="img" aria-labelledby="title desc">
  <title id="title">Falling Echoes of Emotion in Brown frame</title>
  <desc id="desc">Square Project artwork previewed in a brown frame.</desc>
  <rect x="0" y="0" width="1500" height="1500" fill="#FFFFFF" />
  <image href="https://mysquareart.com/frames/brown.jpg" x="0" y="0" width="1500" height="1500" preserveAspectRatio="xMidYMid meet" />
  <rect x="250" y="250" width="1000" height="1000" fill="#FFFFFF" />
  <rect x="250" y="250" width="125" height="125" fill="#00274D" />
  <rect x="375" y="250" width="125" height="125" fill="#004D7C" />
  <rect x="500" y="250" width="125" height="125" fill="#007BA8" />
  <rect x="625" y="250" width="125" height="125" fill="#0094D8" />
  <rect x="750" y="250" width="125" height="125" fill="#FFDA44" />
  <rect x="875" y="250" width="125" height="125" fill="#FFA500" />
  <rect x="1000" y="250" width="125" height="125" fill="#FF6F20" />
  <rect x="1125" y="250" width="125" height="125" fill="#FFD700" />
  <rect x="250" y="375" width="125" height="125" fill="#003E5B" />
  <rect x="375" y="375" width="125" height="125" fill="#005D87" />
  <rect x="500" y="375" width="125" height="125" fill="#0083BB" />
  <rect x="625" y="375" width="125" height="125" fill="#00BBEA" />
  <rect x="750" y="375" width="125" height="125" fill="#FFE24D" />
  <rect x="875" y="375" width="125" height="125" fill="#FF952D" />
  <rect x="1000" y="375" width="125" height="125" fill="#FF650F" />
  <rect x="1125" y="375" width="125" height="125" fill="#FFAD00" />
  <rect x="250" y="500" width="125" height="125" fill="#004B7D" />
  <rect x="375" y="500" width="125" height="125" fill="#007BA8" />
  <rect x="500" y="500" width="125" height="125" fill="#00A9E1" />
  <rect x="625" y="500" width="125" height="125" fill="#00B5E2" />
  <rect x="750" y="500" width="125" height="125" fill="#FFD054" />
  <rect x="875" y="500" width="125" height="125" fill="#FF7C00" />
  <rect x="1000" y="500" width="125" height="125" fill="#FF6900" />
  <rect x="1125" y="500" width="125" height="125" fill="#FF9800" />
  <rect x="250" y="625" width="125" height="125" fill="#005E8B" />
  <rect x="375" y="625" width="125" height="125" fill="#006C9A" />
  <rect x="500" y="625" width="125" height="125" fill="#008CBD" />
  <rect x="625" y="625" width="125" height="125" fill="#00D0E3" />
  <rect x="750" y="625" width="125" height="125" fill="#FFC94E" />
  <rect x="875" y="625" width="125" height="125" fill="#FF6F20" />
  <rect x="1000" y="625" width="125" height="125" fill="#FF851B" />
  <rect x="1125" y="625" width="125" height="125" fill="#F25C00" />
  <rect x="250" y="750" width="125" height="125" fill="#007CAC" />
  <rect x="375" y="750" width="125" height="125" fill="#009CDC" />
  <rect x="500" y="750" width="125" height="125" fill="#00B0E0" />
  <rect x="625" y="750" width="125" height="125" fill="#00A2DF" />
  <rect x="750" y="750" width="125" height="125" fill="#FFDA44" />
  <rect x="875" y="750" width="125" height="125" fill="#FF9F2B" />
  <rect x="1000" y="750" width="125" height="125" fill="#FF5C00" />
  <rect x="1125" y="750" width="125" height="125" fill="#FF7000" />
  <rect x="250" y="875" width="125" height="125" fill="#0081B2" />
  <rect x="375" y="875" width="125" height="125" fill="#006A9A" />
  <rect x="500" y="875" width="125" height="125" fill="#0097C2" />
  <rect x="625" y="875" width="125" height="125" fill="#00C3E4" />
  <rect x="750" y="875" width="125" height="125" fill="#FCBB00" />
  <rect x="875" y="875" width="125" height="125" fill="#FF9000" />
  <rect x="1000" y="875" width="125" height="125" fill="#FF4400" />
  <rect x="1125" y="875" width="125" height="125" fill="#FF6B00" />
  <rect x="250" y="1000" width="125" height="125" fill="#004F6D" />
  <rect x="375" y="1000" width="125" height="125" fill="#006D8D" />
  <rect x="500" y="1000" width="125" height="125" fill="#007DA8" />
  <rect x="625" y="1000" width="125" height="125" fill="#009CDB" />
  <rect x="750" y="1000" width="125" height="125" fill="#FFE680" />
  <rect x="875" y="1000" width="125" height="125" fill="#FFAA00" />
  <rect x="1000" y="1000" width="125" height="125" fill="#FF731F" />
  <rect x="1125" y="1000" width="125" height="125" fill="#FF9B00" />
  <rect x="250" y="1125" width="125" height="125" fill="#002D4D" />
  <rect x="375" y="1125" width="125" height="125" fill="#004B7D" />
  <rect x="500" y="1125" width="125" height="125" fill="#005E9A" />
  <rect x="625" y="1125" width="125" height="125" fill="#0087B5" />
  <rect x="750" y="1125" width="125" height="125" fill="#FFC94E" />
  <rect x="875" y="1125" width="125" height="125" fill="#FF7500" />
  <rect x="1000" y="1125" width="125" height="125" fill="#FF5300" />
  <rect x="1125" y="1125" width="125" height="125" fill="#FFC600" />
  <rect x="250" y="250" width="1000" height="1000" fill="none" stroke="#151515" stroke-opacity="0.16" stroke-width="2" />
</svg>
