<svg xmlns="http://www.w3.org/2000/svg" width="1500" height="1500" viewBox="0 0 1500 1500" shape-rendering="crispEdges" role="img" aria-labelledby="title desc">
  <title id="title">Tension and Release in Gold frame</title>
  <desc id="desc">Square Project artwork previewed in a gold frame.</desc>
  <rect x="0" y="0" width="1500" height="1500" fill="#FFFFFF" />
  <image href="https://mysquareart.com/frames/gold.jpg" x="0" y="0" width="1500" height="1500" preserveAspectRatio="xMidYMid meet" />
  <rect x="250" y="250" width="1000" height="1000" fill="#FFFFFF" />
  <rect x="250" y="250" width="125" height="125" fill="#D32D4F" />
  <rect x="375" y="250" width="125" height="125" fill="#4F3133" />
  <rect x="500" y="250" width="125" height="125" fill="#D85C91" />
  <rect x="625" y="250" width="125" height="125" fill="#E4C6D4" />
  <rect x="750" y="250" width="125" height="125" fill="#FFCCD7" />
  <rect x="875" y="250" width="125" height="125" fill="#766F74" />
  <rect x="1000" y="250" width="125" height="125" fill="#D6888F" />
  <rect x="1125" y="250" width="125" height="125" fill="#F5E0DE" />
  <rect x="250" y="375" width="125" height="125" fill="#CE6D80" />
  <rect x="375" y="375" width="125" height="125" fill="#B4C7B8" />
  <rect x="500" y="375" width="125" height="125" fill="#EEB5B5" />
  <rect x="625" y="375" width="125" height="125" fill="#654D55" />
  <rect x="750" y="375" width="125" height="125" fill="#925659" />
  <rect x="875" y="375" width="125" height="125" fill="#E1A5B6" />
  <rect x="1000" y="375" width="125" height="125" fill="#63262C" />
  <rect x="1125" y="375" width="125" height="125" fill="#E7C3D0" />
  <rect x="250" y="500" width="125" height="125" fill="#BB7E9D" />
  <rect x="375" y="500" width="125" height="125" fill="#F7B0BB" />
  <rect x="500" y="500" width="125" height="125" fill="#B25960" />
  <rect x="625" y="500" width="125" height="125" fill="#F2E2E5" />
  <rect x="750" y="500" width="125" height="125" fill="#C7B2BC" />
  <rect x="875" y="500" width="125" height="125" fill="#FFEBEE" />
  <rect x="1000" y="500" width="125" height="125" fill="#8C4B48" />
  <rect x="1125" y="500" width="125" height="125" fill="#FFB8CB" />
  <rect x="250" y="625" width="125" height="125" fill="#A55F72" />
  <rect x="375" y="625" width="125" height="125" fill="#DDC5D2" />
  <rect x="500" y="625" width="125" height="125" fill="#4E241E" />
  <rect x="625" y="625" width="125" height="125" fill="#F0A8A1" />
  <rect x="750" y="625" width="125" height="125" fill="#D27985" />
  <rect x="875" y="625" width="125" height="125" fill="#E1CDEA" />
  <rect x="1000" y="625" width="125" height="125" fill="#9B7E85" />
  <rect x="1125" y="625" width="125" height="125" fill="#DFC3D0" />
  <rect x="250" y="750" width="125" height="125" fill="#919CA3" />
  <rect x="375" y="750" width="125" height="125" fill="#EFC3D2" />
  <rect x="500" y="750" width="125" height="125" fill="#6A4328" />
  <rect x="625" y="750" width="125" height="125" fill="#E5BDC6" />
  <rect x="750" y="750" width="125" height="125" fill="#DB8EA5" />
  <rect x="875" y="750" width="125" height="125" fill="#FCE8E3" />
  <rect x="1000" y="750" width="125" height="125" fill="#AB5257" />
  <rect x="1125" y="750" width="125" height="125" fill="#C89291" />
  <rect x="250" y="875" width="125" height="125" fill="#7A4E53" />
  <rect x="375" y="875" width="125" height="125" fill="#F2D3DD" />
  <rect x="500" y="875" width="125" height="125" fill="#8D5A66" />
  <rect x="625" y="875" width="125" height="125" fill="#7A333E" />
  <rect x="750" y="875" width="125" height="125" fill="#978A92" />
  <rect x="875" y="875" width="125" height="125" fill="#E3A7B5" />
  <rect x="1000" y="875" width="125" height="125" fill="#EBEBF2" />
  <rect x="1125" y="875" width="125" height="125" fill="#5180A0" />
  <rect x="250" y="1000" width="125" height="125" fill="#CDD2D0" />
  <rect x="375" y="1000" width="125" height="125" fill="#F2A6B5" />
  <rect x="500" y="1000" width="125" height="125" fill="#B25C5F" />
  <rect x="625" y="1000" width="125" height="125" fill="#C6B1C7" />
  <rect x="750" y="1000" width="125" height="125" fill="#FFEBF1" />
  <rect x="875" y="1000" width="125" height="125" fill="#DEC7CC" />
  <rect x="1000" y="1000" width="125" height="125" fill="#6B393E" />
  <rect x="1125" y="1000" width="125" height="125" fill="#A0909A" />
  <rect x="250" y="1125" width="125" height="125" fill="#F8C9C4" />
  <rect x="375" y="1125" width="125" height="125" fill="#D6B0B2" />
  <rect x="500" y="1125" width="125" height="125" fill="#896067" />
  <rect x="625" y="1125" width="125" height="125" fill="#F0B4B8" />
  <rect x="750" y="1125" width="125" height="125" fill="#5F3A3B" />
  <rect x="875" y="1125" width="125" height="125" fill="#F3CBED" />
  <rect x="1000" y="1125" width="125" height="125" fill="#B8D4D0" />
  <rect x="1125" y="1125" width="125" height="125" fill="#F6D1DB" />
  <rect x="250" y="250" width="1000" height="1000" fill="none" stroke="#151515" stroke-opacity="0.16" stroke-width="2" />
</svg>
