<svg xmlns="http://www.w3.org/2000/svg" width="1500" height="1500" viewBox="0 0 1500 1500" shape-rendering="crispEdges" role="img" aria-labelledby="title desc">
  <title id="title">Tension in Contrast in Gold frame</title>
  <desc id="desc">Square Project artwork previewed in a gold frame.</desc>
  <rect x="0" y="0" width="1500" height="1500" fill="#FFFFFF" />
  <image href="https://mysquareart.com/frames/gold.jpg" x="0" y="0" width="1500" height="1500" preserveAspectRatio="xMidYMid meet" />
  <rect x="250" y="250" width="1000" height="1000" fill="#FFFFFF" />
  <rect x="250" y="250" width="125" height="125" fill="#FFE600" />
  <rect x="375" y="250" width="125" height="125" fill="#FFA300" />
  <rect x="500" y="250" width="125" height="125" fill="#F77E00" />
  <rect x="625" y="250" width="125" height="125" fill="#BF4A00" />
  <rect x="750" y="250" width="125" height="125" fill="#B16D7A" />
  <rect x="875" y="250" width="125" height="125" fill="#2D3E50" />
  <rect x="1000" y="250" width="125" height="125" fill="#526D82" />
  <rect x="1125" y="250" width="125" height="125" fill="#3B2D3D" />
  <rect x="250" y="375" width="125" height="125" fill="#FFE600" />
  <rect x="375" y="375" width="125" height="125" fill="#FFA300" />
  <rect x="500" y="375" width="125" height="125" fill="#F77E00" />
  <rect x="625" y="375" width="125" height="125" fill="#662A00" />
  <rect x="750" y="375" width="125" height="125" fill="#7690B7" />
  <rect x="875" y="375" width="125" height="125" fill="#B16D7A" />
  <rect x="1000" y="375" width="125" height="125" fill="#2D3E50" />
  <rect x="1125" y="375" width="125" height="125" fill="#F0F0F0" />
  <rect x="250" y="500" width="125" height="125" fill="#BF4A00" />
  <rect x="375" y="500" width="125" height="125" fill="#662A00" />
  <rect x="500" y="500" width="125" height="125" fill="#FFE600" />
  <rect x="625" y="500" width="125" height="125" fill="#F77E00" />
  <rect x="750" y="500" width="125" height="125" fill="#A84043" />
  <rect x="875" y="500" width="125" height="125" fill="#B16D7A" />
  <rect x="1000" y="500" width="125" height="125" fill="#C3C3D5" />
  <rect x="1125" y="500" width="125" height="125" fill="#766D76" />
  <rect x="250" y="625" width="125" height="125" fill="#C3C3D5" />
  <rect x="375" y="625" width="125" height="125" fill="#2D3E50" />
  <rect x="500" y="625" width="125" height="125" fill="#3B2D3D" />
  <rect x="625" y="625" width="125" height="125" fill="#B16D7A" />
  <rect x="750" y="625" width="125" height="125" fill="#F77E00" />
  <rect x="875" y="625" width="125" height="125" fill="#FFA300" />
  <rect x="1000" y="625" width="125" height="125" fill="#FFE600" />
  <rect x="1125" y="625" width="125" height="125" fill="#BF4A00" />
  <rect x="250" y="750" width="125" height="125" fill="#F0F0F0" />
  <rect x="375" y="750" width="125" height="125" fill="#B16D7A" />
  <rect x="500" y="750" width="125" height="125" fill="#2D3E50" />
  <rect x="625" y="750" width="125" height="125" fill="#3B2D3D" />
  <rect x="750" y="750" width="125" height="125" fill="#666E90" />
  <rect x="875" y="750" width="125" height="125" fill="#A5403C" />
  <rect x="1000" y="750" width="125" height="125" fill="#BF4A00" />
  <rect x="1125" y="750" width="125" height="125" fill="#FFD600" />
  <rect x="250" y="875" width="125" height="125" fill="#FFE600" />
  <rect x="375" y="875" width="125" height="125" fill="#F77E00" />
  <rect x="500" y="875" width="125" height="125" fill="#BF4A00" />
  <rect x="625" y="875" width="125" height="125" fill="#A5403D" />
  <rect x="750" y="875" width="125" height="125" fill="#3B2D3D" />
  <rect x="875" y="875" width="125" height="125" fill="#B16D7A" />
  <rect x="1000" y="875" width="125" height="125" fill="#2D3E50" />
  <rect x="1125" y="875" width="125" height="125" fill="#4B3D55" />
  <rect x="250" y="1000" width="125" height="125" fill="#FFA300" />
  <rect x="375" y="1000" width="125" height="125" fill="#F77E00" />
  <rect x="500" y="1000" width="125" height="125" fill="#FFD600" />
  <rect x="625" y="1000" width="125" height="125" fill="#BF4A00" />
  <rect x="750" y="1000" width="125" height="125" fill="#3B2D3D" />
  <rect x="875" y="1000" width="125" height="125" fill="#A5403C" />
  <rect x="1000" y="1000" width="125" height="125" fill="#C3C3D5" />
  <rect x="1125" y="1000" width="125" height="125" fill="#6D4B4B" />
  <rect x="250" y="1125" width="125" height="125" fill="#2D3E50" />
  <rect x="375" y="1125" width="125" height="125" fill="#526D82" />
  <rect x="500" y="1125" width="125" height="125" fill="#3B2D3D" />
  <rect x="625" y="1125" width="125" height="125" fill="#BF4A00" />
  <rect x="750" y="1125" width="125" height="125" fill="#FFA300" />
  <rect x="875" y="1125" width="125" height="125" fill="#F77E00" />
  <rect x="1000" y="1125" width="125" height="125" fill="#FFE600" />
  <rect x="1125" y="1125" width="125" height="125" fill="#FFD600" />
  <rect x="250" y="250" width="1000" height="1000" fill="none" stroke="#151515" stroke-opacity="0.16" stroke-width="2" />
</svg>
