<svg xmlns="http://www.w3.org/2000/svg" width="1500" height="1500" viewBox="0 0 1500 1500" shape-rendering="crispEdges" role="img" aria-labelledby="title desc">
  <title id="title">Hollow vs Heavy in Natural frame</title>
  <desc id="desc">Square Project artwork previewed in a natural frame.</desc>
  <rect x="0" y="0" width="1500" height="1500" fill="#FFFFFF" />
  <image href="https://mysquareart.com/frames/natural.jpg" x="0" y="0" width="1500" height="1500" preserveAspectRatio="xMidYMid meet" />
  <rect x="250" y="250" width="1000" height="1000" fill="#FFFFFF" />
  <rect x="250" y="250" width="125" height="125" fill="#222222" />
  <rect x="375" y="250" width="125" height="125" fill="#444444" />
  <rect x="500" y="250" width="125" height="125" fill="#000000" />
  <rect x="625" y="250" width="125" height="125" fill="#111111" />
  <rect x="750" y="250" width="125" height="125" fill="#333333" />
  <rect x="875" y="250" width="125" height="125" fill="#444444" />
  <rect x="1000" y="250" width="125" height="125" fill="#666666" />
  <rect x="1125" y="250" width="125" height="125" fill="#888888" />
  <rect x="250" y="375" width="125" height="125" fill="#777777" />
  <rect x="375" y="375" width="125" height="125" fill="#999999" />
  <rect x="500" y="375" width="125" height="125" fill="#AAAAAA" />
  <rect x="625" y="375" width="125" height="125" fill="#BBBBBB" />
  <rect x="750" y="375" width="125" height="125" fill="#CCCCCC" />
  <rect x="875" y="375" width="125" height="125" fill="#DDDDDD" />
  <rect x="1000" y="375" width="125" height="125" fill="#EEEEEE" />
  <rect x="1125" y="375" width="125" height="125" fill="#FFFFFF" />
  <rect x="250" y="500" width="125" height="125" fill="#F0E68C" />
  <rect x="375" y="500" width="125" height="125" fill="#F0E68C" />
  <rect x="500" y="500" width="125" height="125" fill="#C6D8A7" />
  <rect x="625" y="500" width="125" height="125" fill="#D1E8D1" />
  <rect x="750" y="500" width="125" height="125" fill="#B0E0E6" />
  <rect x="875" y="500" width="125" height="125" fill="#B0C4DE" />
  <rect x="1000" y="500" width="125" height="125" fill="#A9A9A9" />
  <rect x="1125" y="500" width="125" height="125" fill="#808080" />
  <rect x="250" y="625" width="125" height="125" fill="#A0A0A0" />
  <rect x="375" y="625" width="125" height="125" fill="#B3B3B3" />
  <rect x="500" y="625" width="125" height="125" fill="#C2C2C2" />
  <rect x="625" y="625" width="125" height="125" fill="#D9D9D9" />
  <rect x="750" y="625" width="125" height="125" fill="#E6E6E6" />
  <rect x="875" y="625" width="125" height="125" fill="#F5F5F5" />
  <rect x="1000" y="625" width="125" height="125" fill="#F9F9F9" />
  <rect x="1125" y="625" width="125" height="125" fill="#FCFCFC" />
  <rect x="250" y="750" width="125" height="125" fill="#4B0082" />
  <rect x="375" y="750" width="125" height="125" fill="#5C5C68" />
  <rect x="500" y="750" width="125" height="125" fill="#6A6A6A" />
  <rect x="625" y="750" width="125" height="125" fill="#333333" />
  <rect x="750" y="750" width="125" height="125" fill="#666666" />
  <rect x="875" y="750" width="125" height="125" fill="#999999" />
  <rect x="1000" y="750" width="125" height="125" fill="#B3E0E0" />
  <rect x="1125" y="750" width="125" height="125" fill="#C0C0C0" />
  <rect x="250" y="875" width="125" height="125" fill="#6C7B8A" />
  <rect x="375" y="875" width="125" height="125" fill="#8B8B8B" />
  <rect x="500" y="875" width="125" height="125" fill="#A1A1A1" />
  <rect x="625" y="875" width="125" height="125" fill="#BEBEBE" />
  <rect x="750" y="875" width="125" height="125" fill="#CDCDCD" />
  <rect x="875" y="875" width="125" height="125" fill="#DBDBDB" />
  <rect x="1000" y="875" width="125" height="125" fill="#E4E4E4" />
  <rect x="1125" y="875" width="125" height="125" fill="#EDEDDE" />
  <rect x="250" y="1000" width="125" height="125" fill="#E0B168" />
  <rect x="375" y="1000" width="125" height="125" fill="#E6E6FA" />
  <rect x="500" y="1000" width="125" height="125" fill="#D7B8A1" />
  <rect x="625" y="1000" width="125" height="125" fill="#C5C3E1" />
  <rect x="750" y="1000" width="125" height="125" fill="#C24240" />
  <rect x="875" y="1000" width="125" height="125" fill="#C4D7D1" />
  <rect x="1000" y="1000" width="125" height="125" fill="#A0A0A0" />
  <rect x="1125" y="1000" width="125" height="125" fill="#7A7A7A" />
  <rect x="250" y="1125" width="125" height="125" fill="#5A5A5A" />
  <rect x="375" y="1125" width="125" height="125" fill="#B2B99F" />
  <rect x="500" y="1125" width="125" height="125" fill="#D4D4D4" />
  <rect x="625" y="1125" width="125" height="125" fill="#F2F2F2" />
  <rect x="750" y="1125" width="125" height="125" fill="#E8E8E8" />
  <rect x="875" y="1125" width="125" height="125" fill="#D7D7D7" />
  <rect x="1000" y="1125" width="125" height="125" fill="#C1C1C1" />
  <rect x="1125" y="1125" width="125" height="125" fill="#A9A9A9" />
  <rect x="250" y="250" width="1000" height="1000" fill="none" stroke="#151515" stroke-opacity="0.16" stroke-width="2" />
</svg>
