<svg xmlns="http://www.w3.org/2000/svg" width="1500" height="1500" viewBox="0 0 1500 1500" shape-rendering="crispEdges" role="img" aria-labelledby="title desc">
  <title id="title">Exposure vs. Shelter in White frame</title>
  <desc id="desc">Square Project artwork previewed in a white frame.</desc>
  <rect x="0" y="0" width="1500" height="1500" fill="#FFFFFF" />
  <image href="https://mysquareart.com/frames/white.jpg" x="0" y="0" width="1500" height="1500" preserveAspectRatio="xMidYMid meet" />
  <rect x="250" y="250" width="1000" height="1000" fill="#FFFFFF" />
  <rect x="250" y="250" width="125" height="125" fill="#D6C5B0" />
  <rect x="375" y="250" width="125" height="125" fill="#E9D3B5" />
  <rect x="500" y="250" width="125" height="125" fill="#E1B7A7" />
  <rect x="625" y="250" width="125" height="125" fill="#C9B5B8" />
  <rect x="750" y="250" width="125" height="125" fill="#5A303B" />
  <rect x="875" y="250" width="125" height="125" fill="#8A6457" />
  <rect x="1000" y="250" width="125" height="125" fill="#D1D3C5" />
  <rect x="1125" y="250" width="125" height="125" fill="#AD8C70" />
  <rect x="250" y="375" width="125" height="125" fill="#581E3B" />
  <rect x="375" y="375" width="125" height="125" fill="#F5E1AB" />
  <rect x="500" y="375" width="125" height="125" fill="#F4CB88" />
  <rect x="625" y="375" width="125" height="125" fill="#AB8A7B" />
  <rect x="750" y="375" width="125" height="125" fill="#D4D3B3" />
  <rect x="875" y="375" width="125" height="125" fill="#EBC4A1" />
  <rect x="1000" y="375" width="125" height="125" fill="#666F72" />
  <rect x="1125" y="375" width="125" height="125" fill="#4E5D64" />
  <rect x="250" y="500" width="125" height="125" fill="#9C6917" />
  <rect x="375" y="500" width="125" height="125" fill="#F7E4B6" />
  <rect x="500" y="500" width="125" height="125" fill="#EDC89E" />
  <rect x="625" y="500" width="125" height="125" fill="#8D742C" />
  <rect x="750" y="500" width="125" height="125" fill="#D2B8AB" />
  <rect x="875" y="500" width="125" height="125" fill="#F2D0B5" />
  <rect x="1000" y="500" width="125" height="125" fill="#8BADA0" />
  <rect x="1125" y="500" width="125" height="125" fill="#254F59" />
  <rect x="250" y="625" width="125" height="125" fill="#4F282E" />
  <rect x="375" y="625" width="125" height="125" fill="#E6C8AB" />
  <rect x="500" y="625" width="125" height="125" fill="#E1B682" />
  <rect x="625" y="625" width="125" height="125" fill="#7F4E4C" />
  <rect x="750" y="625" width="125" height="125" fill="#5F3A39" />
  <rect x="875" y="625" width="125" height="125" fill="#C9A482" />
  <rect x="1000" y="625" width="125" height="125" fill="#E2C3A8" />
  <rect x="1125" y="625" width="125" height="125" fill="#E1E6D6" />
  <rect x="250" y="750" width="125" height="125" fill="#984B3B" />
  <rect x="375" y="750" width="125" height="125" fill="#F1E2C0" />
  <rect x="500" y="750" width="125" height="125" fill="#DECA9E" />
  <rect x="625" y="750" width="125" height="125" fill="#9A8079" />
  <rect x="750" y="750" width="125" height="125" fill="#4E2C29" />
  <rect x="875" y="750" width="125" height="125" fill="#F7E8D3" />
  <rect x="1000" y="750" width="125" height="125" fill="#B79C84" />
  <rect x="1125" y="750" width="125" height="125" fill="#A7D0F7" />
  <rect x="250" y="875" width="125" height="125" fill="#69351E" />
  <rect x="375" y="875" width="125" height="125" fill="#E9D9A1" />
  <rect x="500" y="875" width="125" height="125" fill="#D8A86A" />
  <rect x="625" y="875" width="125" height="125" fill="#4A2C2B" />
  <rect x="750" y="875" width="125" height="125" fill="#E3C5B0" />
  <rect x="875" y="875" width="125" height="125" fill="#AB8D76" />
  <rect x="1000" y="875" width="125" height="125" fill="#B6A68A" />
  <rect x="1125" y="875" width="125" height="125" fill="#C8BDB9" />
  <rect x="250" y="1000" width="125" height="125" fill="#5B3E50" />
  <rect x="375" y="1000" width="125" height="125" fill="#F6D8A5" />
  <rect x="500" y="1000" width="125" height="125" fill="#D9B799" />
  <rect x="625" y="1000" width="125" height="125" fill="#524C54" />
  <rect x="750" y="1000" width="125" height="125" fill="#FAE8D2" />
  <rect x="875" y="1000" width="125" height="125" fill="#7D5F54" />
  <rect x="1000" y="1000" width="125" height="125" fill="#83C8BA" />
  <rect x="1125" y="1000" width="125" height="125" fill="#5C4A61" />
  <rect x="250" y="1125" width="125" height="125" fill="#D9A171" />
  <rect x="375" y="1125" width="125" height="125" fill="#BD9A56" />
  <rect x="500" y="1125" width="125" height="125" fill="#58545F" />
  <rect x="625" y="1125" width="125" height="125" fill="#631C26" />
  <rect x="750" y="1125" width="125" height="125" fill="#E6CFD3" />
  <rect x="875" y="1125" width="125" height="125" fill="#7C4F65" />
  <rect x="1000" y="1125" width="125" height="125" fill="#A7C1B3" />
  <rect x="1125" y="1125" width="125" height="125" fill="#30261C" />
  <rect x="250" y="250" width="1000" height="1000" fill="none" stroke="#151515" stroke-opacity="0.16" stroke-width="2" />
</svg>
