<svg xmlns="http://www.w3.org/2000/svg" width="1500" height="1500" viewBox="0 0 1500 1500" shape-rendering="crispEdges" role="img" aria-labelledby="title desc">
  <title id="title">Echo of Desire in Brown frame</title>
  <desc id="desc">Square Project artwork previewed in a brown frame.</desc>
  <rect x="0" y="0" width="1500" height="1500" fill="#FFFFFF" />
  <image href="https://mysquareart.com/frames/brown.jpg" x="0" y="0" width="1500" height="1500" preserveAspectRatio="xMidYMid meet" />
  <rect x="250" y="250" width="1000" height="1000" fill="#FFFFFF" />
  <rect x="250" y="250" width="125" height="125" fill="#C64D00" />
  <rect x="375" y="250" width="125" height="125" fill="#D15A00" />
  <rect x="500" y="250" width="125" height="125" fill="#FF8600" />
  <rect x="625" y="250" width="125" height="125" fill="#FFB300" />
  <rect x="750" y="250" width="125" height="125" fill="#FFC928" />
  <rect x="875" y="250" width="125" height="125" fill="#FFFFFF" />
  <rect x="1000" y="250" width="125" height="125" fill="#000000" />
  <rect x="1125" y="250" width="125" height="125" fill="#222222" />
  <rect x="250" y="375" width="125" height="125" fill="#D96A10" />
  <rect x="375" y="375" width="125" height="125" fill="#C04D20" />
  <rect x="500" y="375" width="125" height="125" fill="#B3B3B3" />
  <rect x="625" y="375" width="125" height="125" fill="#A7A7A7" />
  <rect x="750" y="375" width="125" height="125" fill="#9B9B9B" />
  <rect x="875" y="375" width="125" height="125" fill="#888888" />
  <rect x="1000" y="375" width="125" height="125" fill="#444444" />
  <rect x="1125" y="375" width="125" height="125" fill="#333333" />
  <rect x="250" y="500" width="125" height="125" fill="#E4B10F" />
  <rect x="375" y="500" width="125" height="125" fill="#D59300" />
  <rect x="500" y="500" width="125" height="125" fill="#D99A00" />
  <rect x="625" y="500" width="125" height="125" fill="#F4C20E" />
  <rect x="750" y="500" width="125" height="125" fill="#F7D66B" />
  <rect x="875" y="500" width="125" height="125" fill="#FFFFFF" />
  <rect x="1000" y="500" width="125" height="125" fill="#000000" />
  <rect x="1125" y="500" width="125" height="125" fill="#111111" />
  <rect x="250" y="625" width="125" height="125" fill="#A65600" />
  <rect x="375" y="625" width="125" height="125" fill="#3A3A3A" />
  <rect x="500" y="625" width="125" height="125" fill="#505050" />
  <rect x="625" y="625" width="125" height="125" fill="#6D6D6D" />
  <rect x="750" y="625" width="125" height="125" fill="#7C7C7C" />
  <rect x="875" y="625" width="125" height="125" fill="#B3B3B3" />
  <rect x="1000" y="625" width="125" height="125" fill="#222222" />
  <rect x="1125" y="625" width="125" height="125" fill="#555555" />
  <rect x="250" y="750" width="125" height="125" fill="#E0B000" />
  <rect x="375" y="750" width="125" height="125" fill="#FFD600" />
  <rect x="500" y="750" width="125" height="125" fill="#FFDF7E" />
  <rect x="625" y="750" width="125" height="125" fill="#FFBA4C" />
  <rect x="750" y="750" width="125" height="125" fill="#D40500" />
  <rect x="875" y="750" width="125" height="125" fill="#000000" />
  <rect x="1000" y="750" width="125" height="125" fill="#333333" />
  <rect x="1125" y="750" width="125" height="125" fill="#444444" />
  <rect x="250" y="875" width="125" height="125" fill="#DD950D" />
  <rect x="375" y="875" width="125" height="125" fill="#E5D60E" />
  <rect x="500" y="875" width="125" height="125" fill="#E8B300" />
  <rect x="625" y="875" width="125" height="125" fill="#FFCE00" />
  <rect x="750" y="875" width="125" height="125" fill="#FFC700" />
  <rect x="875" y="875" width="125" height="125" fill="#FFFFFF" />
  <rect x="1000" y="875" width="125" height="125" fill="#111111" />
  <rect x="1125" y="875" width="125" height="125" fill="#222222" />
  <rect x="250" y="1000" width="125" height="125" fill="#D95E00" />
  <rect x="375" y="1000" width="125" height="125" fill="#C29200" />
  <rect x="500" y="1000" width="125" height="125" fill="#A18C36" />
  <rect x="625" y="1000" width="125" height="125" fill="#6F727A" />
  <rect x="750" y="1000" width="125" height="125" fill="#919191" />
  <rect x="875" y="1000" width="125" height="125" fill="#555555" />
  <rect x="1000" y="1000" width="125" height="125" fill="#000000" />
  <rect x="1125" y="1000" width="125" height="125" fill="#333333" />
  <rect x="250" y="1125" width="125" height="125" fill="#C2A230" />
  <rect x="375" y="1125" width="125" height="125" fill="#D5B637" />
  <rect x="500" y="1125" width="125" height="125" fill="#D0B230" />
  <rect x="625" y="1125" width="125" height="125" fill="#CC9E00" />
  <rect x="750" y="1125" width="125" height="125" fill="#DAB52C" />
  <rect x="875" y="1125" width="125" height="125" fill="#FFFFFF" />
  <rect x="1000" y="1125" width="125" height="125" fill="#888888" />
  <rect x="1125" y="1125" width="125" height="125" fill="#333333" />
  <rect x="250" y="250" width="1000" height="1000" fill="none" stroke="#151515" stroke-opacity="0.16" stroke-width="2" />
</svg>
