<svg xmlns="http://www.w3.org/2000/svg" width="1500" height="1500" viewBox="0 0 1500 1500" shape-rendering="crispEdges" role="img" aria-labelledby="title desc">
  <title id="title">Tension of Repair in Gold frame</title>
  <desc id="desc">Square Project artwork previewed in a gold frame.</desc>
  <rect x="0" y="0" width="1500" height="1500" fill="#FFFFFF" />
  <image href="https://mysquareart.com/frames/gold.jpg" x="0" y="0" width="1500" height="1500" preserveAspectRatio="xMidYMid meet" />
  <rect x="250" y="250" width="1000" height="1000" fill="#FFFFFF" />
  <rect x="250" y="250" width="125" height="125" fill="#4C8C6B" />
  <rect x="375" y="250" width="125" height="125" fill="#D0D1C5" />
  <rect x="500" y="250" width="125" height="125" fill="#C76C47" />
  <rect x="625" y="250" width="125" height="125" fill="#B7B8B4" />
  <rect x="750" y="250" width="125" height="125" fill="#6E4D53" />
  <rect x="875" y="250" width="125" height="125" fill="#EBD9B3" />
  <rect x="1000" y="250" width="125" height="125" fill="#F2F2F2" />
  <rect x="1125" y="250" width="125" height="125" fill="#B0B3A1" />
  <rect x="250" y="375" width="125" height="125" fill="#4A7C57" />
  <rect x="375" y="375" width="125" height="125" fill="#D6D7CD" />
  <rect x="500" y="375" width="125" height="125" fill="#C45A31" />
  <rect x="625" y="375" width="125" height="125" fill="#B4B5A2" />
  <rect x="750" y="375" width="125" height="125" fill="#747672" />
  <rect x="875" y="375" width="125" height="125" fill="#EBC3A8" />
  <rect x="1000" y="375" width="125" height="125" fill="#F0F0F0" />
  <rect x="1125" y="375" width="125" height="125" fill="#B3B4A1" />
  <rect x="250" y="500" width="125" height="125" fill="#4B8B66" />
  <rect x="375" y="500" width="125" height="125" fill="#C4C7C0" />
  <rect x="500" y="500" width="125" height="125" fill="#D55B27" />
  <rect x="625" y="500" width="125" height="125" fill="#A1A2A9" />
  <rect x="750" y="500" width="125" height="125" fill="#6F6859" />
  <rect x="875" y="500" width="125" height="125" fill="#EBAE94" />
  <rect x="1000" y="500" width="125" height="125" fill="#F1F1F1" />
  <rect x="1125" y="500" width="125" height="125" fill="#B9BCA2" />
  <rect x="250" y="625" width="125" height="125" fill="#8CA76A" />
  <rect x="375" y="625" width="125" height="125" fill="#E3E5E3" />
  <rect x="500" y="625" width="125" height="125" fill="#BF4722" />
  <rect x="625" y="625" width="125" height="125" fill="#B2B2AB" />
  <rect x="750" y="625" width="125" height="125" fill="#6B6168" />
  <rect x="875" y="625" width="125" height="125" fill="#EDC8B4" />
  <rect x="1000" y="625" width="125" height="125" fill="#F3F3F3" />
  <rect x="1125" y="625" width="125" height="125" fill="#B7B9A1" />
  <rect x="250" y="750" width="125" height="125" fill="#4A7F52" />
  <rect x="375" y="750" width="125" height="125" fill="#D4D6C9" />
  <rect x="500" y="750" width="125" height="125" fill="#D0542A" />
  <rect x="625" y="750" width="125" height="125" fill="#A3A1A1" />
  <rect x="750" y="750" width="125" height="125" fill="#716D58" />
  <rect x="875" y="750" width="125" height="125" fill="#E8C1A0" />
  <rect x="1000" y="750" width="125" height="125" fill="#F2F2F2" />
  <rect x="1125" y="750" width="125" height="125" fill="#B6B8A4" />
  <rect x="250" y="875" width="125" height="125" fill="#3B746D" />
  <rect x="375" y="875" width="125" height="125" fill="#C4C5C2" />
  <rect x="500" y="875" width="125" height="125" fill="#B84D3D" />
  <rect x="625" y="875" width="125" height="125" fill="#AFADAA" />
  <rect x="750" y="875" width="125" height="125" fill="#6C6A44" />
  <rect x="875" y="875" width="125" height="125" fill="#E7AC90" />
  <rect x="1000" y="875" width="125" height="125" fill="#F0F0F0" />
  <rect x="1125" y="875" width="125" height="125" fill="#D0D3B0" />
  <rect x="250" y="1000" width="125" height="125" fill="#2B688A" />
  <rect x="375" y="1000" width="125" height="125" fill="#D6D6D6" />
  <rect x="500" y="1000" width="125" height="125" fill="#AC4934" />
  <rect x="625" y="1000" width="125" height="125" fill="#B6B4B4" />
  <rect x="750" y="1000" width="125" height="125" fill="#7B7B6A" />
  <rect x="875" y="1000" width="125" height="125" fill="#E06D6F" />
  <rect x="1000" y="1000" width="125" height="125" fill="#F3F3F3" />
  <rect x="1125" y="1000" width="125" height="125" fill="#C2C4AB" />
  <rect x="250" y="1125" width="125" height="125" fill="#2E5455" />
  <rect x="375" y="1125" width="125" height="125" fill="#D0D3D0" />
  <rect x="500" y="1125" width="125" height="125" fill="#A70025" />
  <rect x="625" y="1125" width="125" height="125" fill="#C1C1B9" />
  <rect x="750" y="1125" width="125" height="125" fill="#9A8A44" />
  <rect x="875" y="1125" width="125" height="125" fill="#EC4B2D" />
  <rect x="1000" y="1125" width="125" height="125" fill="#F0F0F0" />
  <rect x="1125" y="1125" width="125" height="125" fill="#D5D7BE" />
  <rect x="250" y="250" width="1000" height="1000" fill="none" stroke="#151515" stroke-opacity="0.16" stroke-width="2" />
</svg>
