<svg xmlns="http://www.w3.org/2000/svg" width="1500" height="1500" viewBox="0 0 1500 1500" shape-rendering="crispEdges" role="img" aria-labelledby="title desc">
  <title id="title">Echoes of Symmetry in Natural frame</title>
  <desc id="desc">Square Project artwork previewed in a natural frame.</desc>
  <defs>
    <linearGradient id="frameFace" x1="0" y1="0" x2="1" y2="1">
      <stop offset="0" stop-color="#8F6F35" />
      <stop offset="0.32" stop-color="#F0DDAA" />
      <stop offset="0.68" stop-color="#D8C190" />
      <stop offset="1" stop-color="#B39155" />
    </linearGradient>
    <filter id="artShadow" x="-10%" y="-10%" width="120%" height="120%">
      <feDropShadow dx="0" dy="20" stdDeviation="24" flood-color="#000000" flood-opacity="0.24" />
    </filter>
  </defs>
  <rect x="0" y="0" width="1500" height="1500" fill="#FFFFFF" />
  <rect x="0" y="0" width="1500" height="1500" fill="url(#frameFace)" />
  <rect x="120" y="120" width="1260" height="1260" fill="#F8F7F3" />
  <rect x="120" y="120" width="1260" height="1260" fill="none" stroke="#000000" stroke-opacity="0.14" stroke-width="10" />
  <rect x="250" y="250" width="1000" height="1000" fill="#FFFFFF" filter="url(#artShadow)" />
  <rect x="250" y="250" width="125" height="125" fill="#5D2E47" />
  <rect x="375" y="250" width="125" height="125" fill="#7F3B41" />
  <rect x="500" y="250" width="125" height="125" fill="#B73334" />
  <rect x="625" y="250" width="125" height="125" fill="#AE3F40" />
  <rect x="750" y="250" width="125" height="125" fill="#A2353A" />
  <rect x="875" y="250" width="125" height="125" fill="#B23A3C" />
  <rect x="1000" y="250" width="125" height="125" fill="#E4B3B7" />
  <rect x="1125" y="250" width="125" height="125" fill="#A32D35" />
  <rect x="250" y="375" width="125" height="125" fill="#4A1A2D" />
  <rect x="375" y="375" width="125" height="125" fill="#AA2B35" />
  <rect x="500" y="375" width="125" height="125" fill="#C74A40" />
  <rect x="625" y="375" width="125" height="125" fill="#885457" />
  <rect x="750" y="375" width="125" height="125" fill="#DABD5C" />
  <rect x="875" y="375" width="125" height="125" fill="#8A2B2D" />
  <rect x="1000" y="375" width="125" height="125" fill="#F3E2E5" />
  <rect x="1125" y="375" width="125" height="125" fill="#A82F5D" />
  <rect x="250" y="500" width="125" height="125" fill="#4A1A22" />
  <rect x="375" y="500" width="125" height="125" fill="#7A3A4D" />
  <rect x="500" y="500" width="125" height="125" fill="#A98D73" />
  <rect x="625" y="500" width="125" height="125" fill="#D89584" />
  <rect x="750" y="500" width="125" height="125" fill="#C35A47" />
  <rect x="875" y="500" width="125" height="125" fill="#9B5D6D" />
  <rect x="1000" y="500" width="125" height="125" fill="#AA752A" />
  <rect x="1125" y="500" width="125" height="125" fill="#E49B67" />
  <rect x="250" y="625" width="125" height="125" fill="#4D2E36" />
  <rect x="375" y="625" width="125" height="125" fill="#BB4D57" />
  <rect x="500" y="625" width="125" height="125" fill="#E8B5B8" />
  <rect x="625" y="625" width="125" height="125" fill="#CCDFB7" />
  <rect x="750" y="625" width="125" height="125" fill="#B85A5E" />
  <rect x="875" y="625" width="125" height="125" fill="#B65A6D" />
  <rect x="1000" y="625" width="125" height="125" fill="#B03E44" />
  <rect x="1125" y="625" width="125" height="125" fill="#5D2D34" />
  <rect x="250" y="750" width="125" height="125" fill="#7B453D" />
  <rect x="375" y="750" width="125" height="125" fill="#C45A3B" />
  <rect x="500" y="750" width="125" height="125" fill="#E58F8B" />
  <rect x="625" y="750" width="125" height="125" fill="#B97C73" />
  <rect x="750" y="750" width="125" height="125" fill="#89572A" />
  <rect x="875" y="750" width="125" height="125" fill="#3A323F" />
  <rect x="1000" y="750" width="125" height="125" fill="#F2E5E0" />
  <rect x="1125" y="750" width="125" height="125" fill="#D76A4E" />
  <rect x="250" y="875" width="125" height="125" fill="#854B39" />
  <rect x="375" y="875" width="125" height="125" fill="#DA3B52" />
  <rect x="500" y="875" width="125" height="125" fill="#CE474A" />
  <rect x="625" y="875" width="125" height="125" fill="#A36B47" />
  <rect x="750" y="875" width="125" height="125" fill="#D8A865" />
  <rect x="875" y="875" width="125" height="125" fill="#B67C85" />
  <rect x="1000" y="875" width="125" height="125" fill="#80252E" />
  <rect x="1125" y="875" width="125" height="125" fill="#A39C99" />
  <rect x="250" y="1000" width="125" height="125" fill="#313236" />
  <rect x="375" y="1000" width="125" height="125" fill="#C7B2B5" />
  <rect x="500" y="1000" width="125" height="125" fill="#DBE5D8" />
  <rect x="625" y="1000" width="125" height="125" fill="#DDAA8C" />
  <rect x="750" y="1000" width="125" height="125" fill="#E9B2C4" />
  <rect x="875" y="1000" width="125" height="125" fill="#5D87A1" />
  <rect x="1000" y="1000" width="125" height="125" fill="#A8B3B4" />
  <rect x="1125" y="1000" width="125" height="125" fill="#A12B39" />
  <rect x="250" y="1125" width="125" height="125" fill="#B24D5B" />
  <rect x="375" y="1125" width="125" height="125" fill="#C78F9C" />
  <rect x="500" y="1125" width="125" height="125" fill="#E6B2E0" />
  <rect x="625" y="1125" width="125" height="125" fill="#F8D0D6" />
  <rect x="750" y="1125" width="125" height="125" fill="#B0A88C" />
  <rect x="875" y="1125" width="125" height="125" fill="#231B2D" />
  <rect x="1000" y="1125" width="125" height="125" fill="#532E29" />
  <rect x="1125" y="1125" width="125" height="125" fill="#3C2A32" />
  <rect x="250" y="250" width="1000" height="1000" fill="none" stroke="#151515" stroke-opacity="0.16" stroke-width="2" />
</svg>
