<svg xmlns="http://www.w3.org/2000/svg" width="1500" height="1500" viewBox="0 0 1500 1500" shape-rendering="crispEdges" role="img" aria-labelledby="title desc">
  <title id="title">Emotional Dichotomy in Gold frame</title>
  <desc id="desc">Square Project artwork previewed in a gold frame.</desc>
  <rect x="0" y="0" width="1500" height="1500" fill="#FFFFFF" />
  <image href="https://mysquareart.com/frames/gold.jpg" x="0" y="0" width="1500" height="1500" preserveAspectRatio="xMidYMid meet" />
  <rect x="250" y="250" width="1000" height="1000" fill="#FFFFFF" />
  <rect x="250" y="250" width="125" height="125" fill="#FFB3C1" />
  <rect x="375" y="250" width="125" height="125" fill="#FAB1B2" />
  <rect x="500" y="250" width="125" height="125" fill="#F8A3A4" />
  <rect x="625" y="250" width="125" height="125" fill="#F28C94" />
  <rect x="750" y="250" width="125" height="125" fill="#AE565E" />
  <rect x="875" y="250" width="125" height="125" fill="#7D3C3E" />
  <rect x="1000" y="250" width="125" height="125" fill="#6D262C" />
  <rect x="1125" y="250" width="125" height="125" fill="#6A1B2A" />
  <rect x="250" y="375" width="125" height="125" fill="#FFCEDB" />
  <rect x="375" y="375" width="125" height="125" fill="#FFB3D1" />
  <rect x="500" y="375" width="125" height="125" fill="#F5A8C6" />
  <rect x="625" y="375" width="125" height="125" fill="#F18D9B" />
  <rect x="750" y="375" width="125" height="125" fill="#C9344D" />
  <rect x="875" y="375" width="125" height="125" fill="#A11C2E" />
  <rect x="1000" y="375" width="125" height="125" fill="#8A2D4B" />
  <rect x="1125" y="375" width="125" height="125" fill="#C5B0B2" />
  <rect x="250" y="500" width="125" height="125" fill="#FF9AAB" />
  <rect x="375" y="500" width="125" height="125" fill="#F6A3BB" />
  <rect x="500" y="500" width="125" height="125" fill="#E66593" />
  <rect x="625" y="500" width="125" height="125" fill="#D34D74" />
  <rect x="750" y="500" width="125" height="125" fill="#BF3E55" />
  <rect x="875" y="500" width="125" height="125" fill="#A02539" />
  <rect x="1000" y="500" width="125" height="125" fill="#940022" />
  <rect x="1125" y="500" width="125" height="125" fill="#910014" />
  <rect x="250" y="625" width="125" height="125" fill="#F5D6DF" />
  <rect x="375" y="625" width="125" height="125" fill="#E5B5C8" />
  <rect x="500" y="625" width="125" height="125" fill="#EBAECD" />
  <rect x="625" y="625" width="125" height="125" fill="#DC8A9E" />
  <rect x="750" y="625" width="125" height="125" fill="#D15D74" />
  <rect x="875" y="625" width="125" height="125" fill="#C67E88" />
  <rect x="1000" y="625" width="125" height="125" fill="#A0B2B5" />
  <rect x="1125" y="625" width="125" height="125" fill="#DBCAD7" />
  <rect x="250" y="750" width="125" height="125" fill="#DFB2C4" />
  <rect x="375" y="750" width="125" height="125" fill="#F8B3C0" />
  <rect x="500" y="750" width="125" height="125" fill="#F07F9D" />
  <rect x="625" y="750" width="125" height="125" fill="#D873A1" />
  <rect x="750" y="750" width="125" height="125" fill="#B95D9F" />
  <rect x="875" y="750" width="125" height="125" fill="#B23773" />
  <rect x="1000" y="750" width="125" height="125" fill="#A0255C" />
  <rect x="1125" y="750" width="125" height="125" fill="#6F1D3A" />
  <rect x="250" y="875" width="125" height="125" fill="#FFC9D7" />
  <rect x="375" y="875" width="125" height="125" fill="#EA7D8F" />
  <rect x="500" y="875" width="125" height="125" fill="#D27C8D" />
  <rect x="625" y="875" width="125" height="125" fill="#B85D8F" />
  <rect x="750" y="875" width="125" height="125" fill="#A06371" />
  <rect x="875" y="875" width="125" height="125" fill="#7E4D54" />
  <rect x="1000" y="875" width="125" height="125" fill="#611F30" />
  <rect x="1125" y="875" width="125" height="125" fill="#4A131D" />
  <rect x="250" y="1000" width="125" height="125" fill="#FFE5EA" />
  <rect x="375" y="1000" width="125" height="125" fill="#FFBFD5" />
  <rect x="500" y="1000" width="125" height="125" fill="#FCB7C1" />
  <rect x="625" y="1000" width="125" height="125" fill="#F5879A" />
  <rect x="750" y="1000" width="125" height="125" fill="#DA4C57" />
  <rect x="875" y="1000" width="125" height="125" fill="#D27C7F" />
  <rect x="1000" y="1000" width="125" height="125" fill="#B09398" />
  <rect x="1125" y="1000" width="125" height="125" fill="#7A272D" />
  <rect x="250" y="1125" width="125" height="125" fill="#FCF0F2" />
  <rect x="375" y="1125" width="125" height="125" fill="#FFDFE3" />
  <rect x="500" y="1125" width="125" height="125" fill="#FFD3E3" />
  <rect x="625" y="1125" width="125" height="125" fill="#F9B8B3" />
  <rect x="750" y="1125" width="125" height="125" fill="#EF6F79" />
  <rect x="875" y="1125" width="125" height="125" fill="#C23439" />
  <rect x="1000" y="1125" width="125" height="125" fill="#912B2E" />
  <rect x="1125" y="1125" width="125" height="125" fill="#881F25" />
  <rect x="250" y="250" width="1000" height="1000" fill="none" stroke="#151515" stroke-opacity="0.16" stroke-width="2" />
</svg>
