<svg xmlns="http://www.w3.org/2000/svg" width="1500" height="1500" viewBox="0 0 1500 1500" shape-rendering="crispEdges" role="img" aria-labelledby="title desc">
  <title id="title">Duality of Emotion in White frame</title>
  <desc id="desc">Square Project artwork previewed in a white frame.</desc>
  <rect x="0" y="0" width="1500" height="1500" fill="#FFFFFF" />
  <image href="https://mysquareart.com/frames/white.jpg" x="0" y="0" width="1500" height="1500" preserveAspectRatio="xMidYMid meet" />
  <rect x="250" y="250" width="1000" height="1000" fill="#FFFFFF" />
  <rect x="250" y="250" width="125" height="125" fill="#FFCC00" />
  <rect x="375" y="250" width="125" height="125" fill="#FF9900" />
  <rect x="500" y="250" width="125" height="125" fill="#FF6600" />
  <rect x="625" y="250" width="125" height="125" fill="#FF3300" />
  <rect x="750" y="250" width="125" height="125" fill="#CC3300" />
  <rect x="875" y="250" width="125" height="125" fill="#993300" />
  <rect x="1000" y="250" width="125" height="125" fill="#660033" />
  <rect x="1125" y="250" width="125" height="125" fill="#330033" />
  <rect x="250" y="375" width="125" height="125" fill="#FFFFFF" />
  <rect x="375" y="375" width="125" height="125" fill="#F7F7F7" />
  <rect x="500" y="375" width="125" height="125" fill="#E0E0E0" />
  <rect x="625" y="375" width="125" height="125" fill="#D0D0E5" />
  <rect x="750" y="375" width="125" height="125" fill="#A3A3D1" />
  <rect x="875" y="375" width="125" height="125" fill="#8888C1" />
  <rect x="1000" y="375" width="125" height="125" fill="#6B6BA5" />
  <rect x="1125" y="375" width="125" height="125" fill="#505080" />
  <rect x="250" y="500" width="125" height="125" fill="#FFCC00" />
  <rect x="375" y="500" width="125" height="125" fill="#FF6600" />
  <rect x="500" y="500" width="125" height="125" fill="#FF3300" />
  <rect x="625" y="500" width="125" height="125" fill="#D80C10" />
  <rect x="750" y="500" width="125" height="125" fill="#AA002C" />
  <rect x="875" y="500" width="125" height="125" fill="#7D0035" />
  <rect x="1000" y="500" width="125" height="125" fill="#C4A3B6" />
  <rect x="1125" y="500" width="125" height="125" fill="#A5A2B2" />
  <rect x="250" y="625" width="125" height="125" fill="#FF9900" />
  <rect x="375" y="625" width="125" height="125" fill="#FFB200" />
  <rect x="500" y="625" width="125" height="125" fill="#FFD300" />
  <rect x="625" y="625" width="125" height="125" fill="#D7D1D1" />
  <rect x="750" y="625" width="125" height="125" fill="#8F8FAE" />
  <rect x="875" y="625" width="125" height="125" fill="#C5C3DB" />
  <rect x="1000" y="625" width="125" height="125" fill="#999BCE" />
  <rect x="1125" y="625" width="125" height="125" fill="#808CBE" />
  <rect x="250" y="750" width="125" height="125" fill="#000000" />
  <rect x="375" y="750" width="125" height="125" fill="#1A1A3C" />
  <rect x="500" y="750" width="125" height="125" fill="#2C2C58" />
  <rect x="625" y="750" width="125" height="125" fill="#47487D" />
  <rect x="750" y="750" width="125" height="125" fill="#606097" />
  <rect x="875" y="750" width="125" height="125" fill="#C3C3E0" />
  <rect x="1000" y="750" width="125" height="125" fill="#C4C7EA" />
  <rect x="1125" y="750" width="125" height="125" fill="#7B7DBA" />
  <rect x="250" y="875" width="125" height="125" fill="#0A0A0D" />
  <rect x="375" y="875" width="125" height="125" fill="#1C1C21" />
  <rect x="500" y="875" width="125" height="125" fill="#272731" />
  <rect x="625" y="875" width="125" height="125" fill="#353646" />
  <rect x="750" y="875" width="125" height="125" fill="#606080" />
  <rect x="875" y="875" width="125" height="125" fill="#99214B" />
  <rect x="1000" y="875" width="125" height="125" fill="#86002D" />
  <rect x="1125" y="875" width="125" height="125" fill="#5A2F1C" />
  <rect x="250" y="1000" width="125" height="125" fill="#FFCC33" />
  <rect x="375" y="1000" width="125" height="125" fill="#FF9933" />
  <rect x="500" y="1000" width="125" height="125" fill="#FF6633" />
  <rect x="625" y="1000" width="125" height="125" fill="#CC3311" />
  <rect x="750" y="1000" width="125" height="125" fill="#663311" />
  <rect x="875" y="1000" width="125" height="125" fill="#332211" />
  <rect x="1000" y="1000" width="125" height="125" fill="#221100" />
  <rect x="1125" y="1000" width="125" height="125" fill="#110000" />
  <rect x="250" y="1125" width="125" height="125" fill="#000000" />
  <rect x="375" y="1125" width="125" height="125" fill="#111111" />
  <rect x="500" y="1125" width="125" height="125" fill="#222222" />
  <rect x="625" y="1125" width="125" height="125" fill="#333333" />
  <rect x="750" y="1125" width="125" height="125" fill="#444444" />
  <rect x="875" y="1125" width="125" height="125" fill="#555555" />
  <rect x="1000" y="1125" width="125" height="125" fill="#666666" />
  <rect x="1125" y="1125" width="125" height="125" fill="#777777" />
  <rect x="250" y="250" width="1000" height="1000" fill="none" stroke="#151515" stroke-opacity="0.16" stroke-width="2" />
</svg>
