<svg xmlns="http://www.w3.org/2000/svg" width="1500" height="1500" viewBox="0 0 1500 1500" shape-rendering="crispEdges" role="img" aria-labelledby="title desc">
  <title id="title">Duality&#x27;s Echo in Gold frame</title>
  <desc id="desc">Square Project artwork previewed in a gold frame.</desc>
  <rect x="0" y="0" width="1500" height="1500" fill="#FFFFFF" />
  <image href="https://mysquareart.com/frames/gold.jpg" x="0" y="0" width="1500" height="1500" preserveAspectRatio="xMidYMid meet" />
  <rect x="250" y="250" width="1000" height="1000" fill="#FFFFFF" />
  <rect x="250" y="250" width="125" height="125" fill="#8B5D33" />
  <rect x="375" y="250" width="125" height="125" fill="#D9B68C" />
  <rect x="500" y="250" width="125" height="125" fill="#C6C2B6" />
  <rect x="625" y="250" width="125" height="125" fill="#B1A09F" />
  <rect x="750" y="250" width="125" height="125" fill="#D1C5B3" />
  <rect x="875" y="250" width="125" height="125" fill="#D9C9A5" />
  <rect x="1000" y="250" width="125" height="125" fill="#B0B3A8" />
  <rect x="1125" y="250" width="125" height="125" fill="#8C8C8C" />
  <rect x="250" y="375" width="125" height="125" fill="#A4663B" />
  <rect x="375" y="375" width="125" height="125" fill="#F2E2D6" />
  <rect x="500" y="375" width="125" height="125" fill="#9FA8A0" />
  <rect x="625" y="375" width="125" height="125" fill="#C7C2B7" />
  <rect x="750" y="375" width="125" height="125" fill="#D2E0E5" />
  <rect x="875" y="375" width="125" height="125" fill="#7D8D9E" />
  <rect x="1000" y="375" width="125" height="125" fill="#A5A1A1" />
  <rect x="1125" y="375" width="125" height="125" fill="#A29F95" />
  <rect x="250" y="500" width="125" height="125" fill="#CCB29A" />
  <rect x="375" y="500" width="125" height="125" fill="#606B6D" />
  <rect x="500" y="500" width="125" height="125" fill="#4D6C7E" />
  <rect x="625" y="500" width="125" height="125" fill="#9FB5B3" />
  <rect x="750" y="500" width="125" height="125" fill="#E5E2D2" />
  <rect x="875" y="500" width="125" height="125" fill="#A4C8D3" />
  <rect x="1000" y="500" width="125" height="125" fill="#DAD6D6" />
  <rect x="1125" y="500" width="125" height="125" fill="#BFBEA0" />
  <rect x="250" y="625" width="125" height="125" fill="#6E6B52" />
  <rect x="375" y="625" width="125" height="125" fill="#D5BA94" />
  <rect x="500" y="625" width="125" height="125" fill="#7B8F9A" />
  <rect x="625" y="625" width="125" height="125" fill="#ECF1E2" />
  <rect x="750" y="625" width="125" height="125" fill="#B0C7D3" />
  <rect x="875" y="625" width="125" height="125" fill="#B4B5A7" />
  <rect x="1000" y="625" width="125" height="125" fill="#C2C19E" />
  <rect x="1125" y="625" width="125" height="125" fill="#3C4344" />
  <rect x="250" y="750" width="125" height="125" fill="#C89571" />
  <rect x="375" y="750" width="125" height="125" fill="#C0A77F" />
  <rect x="500" y="750" width="125" height="125" fill="#E4D0A4" />
  <rect x="625" y="750" width="125" height="125" fill="#B8C6B4" />
  <rect x="750" y="750" width="125" height="125" fill="#9B9C86" />
  <rect x="875" y="750" width="125" height="125" fill="#BEC8B0" />
  <rect x="1000" y="750" width="125" height="125" fill="#B3B1A8" />
  <rect x="1125" y="750" width="125" height="125" fill="#868483" />
  <rect x="250" y="875" width="125" height="125" fill="#271F2A" />
  <rect x="375" y="875" width="125" height="125" fill="#A18568" />
  <rect x="500" y="875" width="125" height="125" fill="#A4937C" />
  <rect x="625" y="875" width="125" height="125" fill="#D6DAC6" />
  <rect x="750" y="875" width="125" height="125" fill="#E9E4D6" />
  <rect x="875" y="875" width="125" height="125" fill="#B6B7AB" />
  <rect x="1000" y="875" width="125" height="125" fill="#4F5556" />
  <rect x="1125" y="875" width="125" height="125" fill="#B9B5A4" />
  <rect x="250" y="1000" width="125" height="125" fill="#B1A47C" />
  <rect x="375" y="1000" width="125" height="125" fill="#D9C1B1" />
  <rect x="500" y="1000" width="125" height="125" fill="#D6D3D0" />
  <rect x="625" y="1000" width="125" height="125" fill="#A1A83D" />
  <rect x="750" y="1000" width="125" height="125" fill="#6B756D" />
  <rect x="875" y="1000" width="125" height="125" fill="#B5A99B" />
  <rect x="1000" y="1000" width="125" height="125" fill="#D7B89A" />
  <rect x="1125" y="1000" width="125" height="125" fill="#4E5556" />
  <rect x="250" y="1125" width="125" height="125" fill="#B7A97F" />
  <rect x="375" y="1125" width="125" height="125" fill="#E4BDAF" />
  <rect x="500" y="1125" width="125" height="125" fill="#C2C8B0" />
  <rect x="625" y="1125" width="125" height="125" fill="#C9C9C1" />
  <rect x="750" y="1125" width="125" height="125" fill="#D6CFC1" />
  <rect x="875" y="1125" width="125" height="125" fill="#D1B0A1" />
  <rect x="1000" y="1125" width="125" height="125" fill="#D3C4B8" />
  <rect x="1125" y="1125" width="125" height="125" fill="#2E3030" />
  <rect x="250" y="250" width="1000" height="1000" fill="none" stroke="#151515" stroke-opacity="0.16" stroke-width="2" />
</svg>
