<svg xmlns="http://www.w3.org/2000/svg" width="1500" height="1500" viewBox="0 0 1500 1500" shape-rendering="crispEdges" role="img" aria-labelledby="title desc">
  <title id="title">Fractured Harmony in Brown frame</title>
  <desc id="desc">Square Project artwork previewed in a brown frame.</desc>
  <defs>
    <linearGradient id="frameFace" x1="0" y1="0" x2="1" y2="1">
      <stop offset="0" stop-color="#C18A55" />
      <stop offset="0.32" stop-color="#9A6840" />
      <stop offset="0.68" stop-color="#70401F" />
      <stop offset="1" stop-color="#3F2413" />
    </linearGradient>
    <filter id="artShadow" x="-10%" y="-10%" width="120%" height="120%">
      <feDropShadow dx="0" dy="20" stdDeviation="24" flood-color="#000000" flood-opacity="0.24" />
    </filter>
  </defs>
  <rect x="0" y="0" width="1500" height="1500" fill="#FFFFFF" />
  <rect x="0" y="0" width="1500" height="1500" fill="url(#frameFace)" />
  <rect x="120" y="120" width="1260" height="1260" fill="#F8F7F3" />
  <rect x="120" y="120" width="1260" height="1260" fill="none" stroke="#000000" stroke-opacity="0.14" stroke-width="10" />
  <rect x="250" y="250" width="1000" height="1000" fill="#FFFFFF" filter="url(#artShadow)" />
  <rect x="250" y="250" width="125" height="125" fill="#FFC0CB" />
  <rect x="375" y="250" width="125" height="125" fill="#FF6F61" />
  <rect x="500" y="250" width="125" height="125" fill="#FFBDC6" />
  <rect x="625" y="250" width="125" height="125" fill="#9E4C4F" />
  <rect x="750" y="250" width="125" height="125" fill="#FBF0F0" />
  <rect x="875" y="250" width="125" height="125" fill="#7D7F87" />
  <rect x="1000" y="250" width="125" height="125" fill="#A9A9A9" />
  <rect x="1125" y="250" width="125" height="125" fill="#5B0B0B" />
  <rect x="250" y="375" width="125" height="125" fill="#BF6969" />
  <rect x="375" y="375" width="125" height="125" fill="#FFC1C1" />
  <rect x="500" y="375" width="125" height="125" fill="#FFB1B1" />
  <rect x="625" y="375" width="125" height="125" fill="#6A5052" />
  <rect x="750" y="375" width="125" height="125" fill="#5B5B5B" />
  <rect x="875" y="375" width="125" height="125" fill="#787878" />
  <rect x="1000" y="375" width="125" height="125" fill="#CC4B4B" />
  <rect x="1125" y="375" width="125" height="125" fill="#FF9D9D" />
  <rect x="250" y="500" width="125" height="125" fill="#BF5D5D" />
  <rect x="375" y="500" width="125" height="125" fill="#FFBAC6" />
  <rect x="500" y="500" width="125" height="125" fill="#B56A68" />
  <rect x="625" y="500" width="125" height="125" fill="#AFAFAF" />
  <rect x="750" y="500" width="125" height="125" fill="#FFB8B8" />
  <rect x="875" y="500" width="125" height="125" fill="#4B1A1A" />
  <rect x="1000" y="500" width="125" height="125" fill="#7D4D4D" />
  <rect x="1125" y="500" width="125" height="125" fill="#C9C9C9" />
  <rect x="250" y="625" width="125" height="125" fill="#F1D0D0" />
  <rect x="375" y="625" width="125" height="125" fill="#EA7B7B" />
  <rect x="500" y="625" width="125" height="125" fill="#D16F6F" />
  <rect x="625" y="625" width="125" height="125" fill="#B2B2B2" />
  <rect x="750" y="625" width="125" height="125" fill="#8B5858" />
  <rect x="875" y="625" width="125" height="125" fill="#AC8585" />
  <rect x="1000" y="625" width="125" height="125" fill="#EDD8D8" />
  <rect x="1125" y="625" width="125" height="125" fill="#DA485A" />
  <rect x="250" y="750" width="125" height="125" fill="#FFD3DB" />
  <rect x="375" y="750" width="125" height="125" fill="#C9A6A6" />
  <rect x="500" y="750" width="125" height="125" fill="#D0A4A4" />
  <rect x="625" y="750" width="125" height="125" fill="#515151" />
  <rect x="750" y="750" width="125" height="125" fill="#383838" />
  <rect x="875" y="750" width="125" height="125" fill="#3B2828" />
  <rect x="1000" y="750" width="125" height="125" fill="#C0A0A0" />
  <rect x="1125" y="750" width="125" height="125" fill="#E1B2B2" />
  <rect x="250" y="875" width="125" height="125" fill="#E05353" />
  <rect x="375" y="875" width="125" height="125" fill="#FF9A9A" />
  <rect x="500" y="875" width="125" height="125" fill="#E2C2C2" />
  <rect x="625" y="875" width="125" height="125" fill="#AE7B7B" />
  <rect x="750" y="875" width="125" height="125" fill="#9C6B6B" />
  <rect x="875" y="875" width="125" height="125" fill="#BFBFBF" />
  <rect x="1000" y="875" width="125" height="125" fill="#7B5151" />
  <rect x="1125" y="875" width="125" height="125" fill="#FCB5B5" />
  <rect x="250" y="1000" width="125" height="125" fill="#9C4C4C" />
  <rect x="375" y="1000" width="125" height="125" fill="#FFC7C7" />
  <rect x="500" y="1000" width="125" height="125" fill="#EAB8B8" />
  <rect x="625" y="1000" width="125" height="125" fill="#5D5D5D" />
  <rect x="750" y="1000" width="125" height="125" fill="#4B2626" />
  <rect x="875" y="1000" width="125" height="125" fill="#F0C6C6" />
  <rect x="1000" y="1000" width="125" height="125" fill="#B87B7B" />
  <rect x="1125" y="1000" width="125" height="125" fill="#DFD3D3" />
  <rect x="250" y="1125" width="125" height="125" fill="#F8E4E4" />
  <rect x="375" y="1125" width="125" height="125" fill="#D95353" />
  <rect x="500" y="1125" width="125" height="125" fill="#C63939" />
  <rect x="625" y="1125" width="125" height="125" fill="#A8D4D4" />
  <rect x="750" y="1125" width="125" height="125" fill="#7B898E" />
  <rect x="875" y="1125" width="125" height="125" fill="#FFA3A3" />
  <rect x="1000" y="1125" width="125" height="125" fill="#B24B4B" />
  <rect x="1125" y="1125" width="125" height="125" fill="#FFC0CB" />
  <rect x="250" y="250" width="1000" height="1000" fill="none" stroke="#151515" stroke-opacity="0.16" stroke-width="2" />
</svg>
