<svg xmlns="http://www.w3.org/2000/svg" width="1500" height="1500" viewBox="0 0 1500 1500" shape-rendering="crispEdges" role="img" aria-labelledby="title desc">
  <title id="title">Order Amidst Chaos in Brown frame</title>
  <desc id="desc">Square Project artwork previewed in a brown frame.</desc>
  <defs>
    <linearGradient id="frameFace" x1="0" y1="0" x2="1" y2="1">
      <stop offset="0" stop-color="#C18A55" />
      <stop offset="0.32" stop-color="#9A6840" />
      <stop offset="0.68" stop-color="#70401F" />
      <stop offset="1" stop-color="#3F2413" />
    </linearGradient>
    <filter id="artShadow" x="-10%" y="-10%" width="120%" height="120%">
      <feDropShadow dx="0" dy="20" stdDeviation="24" flood-color="#000000" flood-opacity="0.24" />
    </filter>
  </defs>
  <rect x="0" y="0" width="1500" height="1500" fill="#FFFFFF" />
  <rect x="0" y="0" width="1500" height="1500" fill="url(#frameFace)" />
  <rect x="120" y="120" width="1260" height="1260" fill="#F8F7F3" />
  <rect x="120" y="120" width="1260" height="1260" fill="none" stroke="#000000" stroke-opacity="0.14" stroke-width="10" />
  <rect x="250" y="250" width="1000" height="1000" fill="#FFFFFF" filter="url(#artShadow)" />
  <rect x="250" y="250" width="125" height="125" fill="#FFD700" />
  <rect x="375" y="250" width="125" height="125" fill="#EA580C" />
  <rect x="500" y="250" width="125" height="125" fill="#002147" />
  <rect x="625" y="250" width="125" height="125" fill="#6F63E4" />
  <rect x="750" y="250" width="125" height="125" fill="#F2C94C" />
  <rect x="875" y="250" width="125" height="125" fill="#D67E22" />
  <rect x="1000" y="250" width="125" height="125" fill="#5E35B1" />
  <rect x="1125" y="250" width="125" height="125" fill="#9B59B6" />
  <rect x="250" y="375" width="125" height="125" fill="#FFA500" />
  <rect x="375" y="375" width="125" height="125" fill="#E76B2D" />
  <rect x="500" y="375" width="125" height="125" fill="#00274D" />
  <rect x="625" y="375" width="125" height="125" fill="#5A59DF" />
  <rect x="750" y="375" width="125" height="125" fill="#F0A500" />
  <rect x="875" y="375" width="125" height="125" fill="#D67F01" />
  <rect x="1000" y="375" width="125" height="125" fill="#433B9D" />
  <rect x="1125" y="375" width="125" height="125" fill="#B48ED3" />
  <rect x="250" y="500" width="125" height="125" fill="#FF4500" />
  <rect x="375" y="500" width="125" height="125" fill="#FF8800" />
  <rect x="500" y="500" width="125" height="125" fill="#AB8DFF" />
  <rect x="625" y="500" width="125" height="125" fill="#020917" />
  <rect x="750" y="500" width="125" height="125" fill="#F2C94C" />
  <rect x="875" y="500" width="125" height="125" fill="#E0E0E0" />
  <rect x="1000" y="500" width="125" height="125" fill="#4B3D99" />
  <rect x="1125" y="500" width="125" height="125" fill="#752C8E" />
  <rect x="250" y="625" width="125" height="125" fill="#FF6347" />
  <rect x="375" y="625" width="125" height="125" fill="#FFBEA0" />
  <rect x="500" y="625" width="125" height="125" fill="#D7B0F7" />
  <rect x="625" y="625" width="125" height="125" fill="#181A30" />
  <rect x="750" y="625" width="125" height="125" fill="#F9E761" />
  <rect x="875" y="625" width="125" height="125" fill="#C9E4DB" />
  <rect x="1000" y="625" width="125" height="125" fill="#5A59DF" />
  <rect x="1125" y="625" width="125" height="125" fill="#A9A9A9" />
  <rect x="250" y="750" width="125" height="125" fill="#F0E68C" />
  <rect x="375" y="750" width="125" height="125" fill="#FFD580" />
  <rect x="500" y="750" width="125" height="125" fill="#673AB7" />
  <rect x="625" y="750" width="125" height="125" fill="#3F51B5" />
  <rect x="750" y="750" width="125" height="125" fill="#FFC107" />
  <rect x="875" y="750" width="125" height="125" fill="#7B1FA2" />
  <rect x="1000" y="750" width="125" height="125" fill="#E57373" />
  <rect x="1125" y="750" width="125" height="125" fill="#9D287A" />
  <rect x="250" y="875" width="125" height="125" fill="#FFE09C" />
  <rect x="375" y="875" width="125" height="125" fill="#FF8214" />
  <rect x="500" y="875" width="125" height="125" fill="#5F2C91" />
  <rect x="625" y="875" width="125" height="125" fill="#1A1A1A" />
  <rect x="750" y="875" width="125" height="125" fill="#FFC107" />
  <rect x="875" y="875" width="125" height="125" fill="#D7AD98" />
  <rect x="1000" y="875" width="125" height="125" fill="#AB52E5" />
  <rect x="1125" y="875" width="125" height="125" fill="#962B99" />
  <rect x="250" y="1000" width="125" height="125" fill="#BEC0B1" />
  <rect x="375" y="1000" width="125" height="125" fill="#D9D9D9" />
  <rect x="500" y="1000" width="125" height="125" fill="#9C27B0" />
  <rect x="625" y="1000" width="125" height="125" fill="#4E4E4E" />
  <rect x="750" y="1000" width="125" height="125" fill="#882E3B" />
  <rect x="875" y="1000" width="125" height="125" fill="#F0E68C" />
  <rect x="1000" y="1000" width="125" height="125" fill="#F7B2A7" />
  <rect x="1125" y="1000" width="125" height="125" fill="#C7B198" />
  <rect x="250" y="1125" width="125" height="125" fill="#D0E1F9" />
  <rect x="375" y="1125" width="125" height="125" fill="#B2DFDB" />
  <rect x="500" y="1125" width="125" height="125" fill="#B39DDB" />
  <rect x="625" y="1125" width="125" height="125" fill="#9E9E9E" />
  <rect x="750" y="1125" width="125" height="125" fill="#FFC107" />
  <rect x="875" y="1125" width="125" height="125" fill="#FF6A00" />
  <rect x="1000" y="1125" width="125" height="125" fill="#F9F7F0" />
  <rect x="1125" y="1125" width="125" height="125" fill="#4E342E" />
  <rect x="250" y="250" width="1000" height="1000" fill="none" stroke="#151515" stroke-opacity="0.16" stroke-width="2" />
</svg>
