<svg xmlns="http://www.w3.org/2000/svg" width="1500" height="1500" viewBox="0 0 1500 1500" shape-rendering="crispEdges" role="img" aria-labelledby="title desc">
  <title id="title">Light vs Weight in Brown frame</title>
  <desc id="desc">Square Project artwork previewed in a brown frame.</desc>
  <rect x="0" y="0" width="1500" height="1500" fill="#FFFFFF" />
  <image href="https://mysquareart.com/frames/brown.jpg" x="0" y="0" width="1500" height="1500" preserveAspectRatio="xMidYMid meet" />
  <rect x="250" y="250" width="1000" height="1000" fill="#FFFFFF" />
  <rect x="250" y="250" width="125" height="125" fill="#FFEA00" />
  <rect x="375" y="250" width="125" height="125" fill="#F4C200" />
  <rect x="500" y="250" width="125" height="125" fill="#FFC700" />
  <rect x="625" y="250" width="125" height="125" fill="#F4A300" />
  <rect x="750" y="250" width="125" height="125" fill="#4856B3" />
  <rect x="875" y="250" width="125" height="125" fill="#443A86" />
  <rect x="1000" y="250" width="125" height="125" fill="#4E3B6A" />
  <rect x="1125" y="250" width="125" height="125" fill="#303A4B" />
  <rect x="250" y="375" width="125" height="125" fill="#FFEB7F" />
  <rect x="375" y="375" width="125" height="125" fill="#F9B000" />
  <rect x="500" y="375" width="125" height="125" fill="#FFD600" />
  <rect x="625" y="375" width="125" height="125" fill="#FFBF00" />
  <rect x="750" y="375" width="125" height="125" fill="#8889A8" />
  <rect x="875" y="375" width="125" height="125" fill="#66659B" />
  <rect x="1000" y="375" width="125" height="125" fill="#7A5C7A" />
  <rect x="1125" y="375" width="125" height="125" fill="#434456" />
  <rect x="250" y="500" width="125" height="125" fill="#F4C7A5" />
  <rect x="375" y="500" width="125" height="125" fill="#F7D39A" />
  <rect x="500" y="500" width="125" height="125" fill="#FFCD13" />
  <rect x="625" y="500" width="125" height="125" fill="#FF8F00" />
  <rect x="750" y="500" width="125" height="125" fill="#575D8D" />
  <rect x="875" y="500" width="125" height="125" fill="#584A88" />
  <rect x="1000" y="500" width="125" height="125" fill="#4D2F66" />
  <rect x="1125" y="500" width="125" height="125" fill="#1B2631" />
  <rect x="250" y="625" width="125" height="125" fill="#FFD1D1" />
  <rect x="375" y="625" width="125" height="125" fill="#FF9A00" />
  <rect x="500" y="625" width="125" height="125" fill="#FF9600" />
  <rect x="625" y="625" width="125" height="125" fill="#FF7B00" />
  <rect x="750" y="625" width="125" height="125" fill="#384750" />
  <rect x="875" y="625" width="125" height="125" fill="#3E546E" />
  <rect x="1000" y="625" width="125" height="125" fill="#4B4C7A" />
  <rect x="1125" y="625" width="125" height="125" fill="#313F4B" />
  <rect x="250" y="750" width="125" height="125" fill="#FFFFF0" />
  <rect x="375" y="750" width="125" height="125" fill="#FEDD54" />
  <rect x="500" y="750" width="125" height="125" fill="#FFC20E" />
  <rect x="625" y="750" width="125" height="125" fill="#F6A600" />
  <rect x="750" y="750" width="125" height="125" fill="#C5CBD8" />
  <rect x="875" y="750" width="125" height="125" fill="#7B86A2" />
  <rect x="1000" y="750" width="125" height="125" fill="#4D4857" />
  <rect x="1125" y="750" width="125" height="125" fill="#3D4A5E" />
  <rect x="250" y="875" width="125" height="125" fill="#FFFFAA" />
  <rect x="375" y="875" width="125" height="125" fill="#F4E0B2" />
  <rect x="500" y="875" width="125" height="125" fill="#FFDB4D" />
  <rect x="625" y="875" width="125" height="125" fill="#F6A800" />
  <rect x="750" y="875" width="125" height="125" fill="#2E3235" />
  <rect x="875" y="875" width="125" height="125" fill="#2D313A" />
  <rect x="1000" y="875" width="125" height="125" fill="#222531" />
  <rect x="1125" y="875" width="125" height="125" fill="#2F2C36" />
  <rect x="250" y="1000" width="125" height="125" fill="#FFF9A6" />
  <rect x="375" y="1000" width="125" height="125" fill="#FFD54F" />
  <rect x="500" y="1000" width="125" height="125" fill="#F9A000" />
  <rect x="625" y="1000" width="125" height="125" fill="#F4A000" />
  <rect x="750" y="1000" width="125" height="125" fill="#0F2D3C" />
  <rect x="875" y="1000" width="125" height="125" fill="#2B3349" />
  <rect x="1000" y="1000" width="125" height="125" fill="#3D4256" />
  <rect x="1125" y="1000" width="125" height="125" fill="#2B3033" />
  <rect x="250" y="1125" width="125" height="125" fill="#F3FFAA" />
  <rect x="375" y="1125" width="125" height="125" fill="#EEDD30" />
  <rect x="500" y="1125" width="125" height="125" fill="#F6D200" />
  <rect x="625" y="1125" width="125" height="125" fill="#FFBF33" />
  <rect x="750" y="1125" width="125" height="125" fill="#09232D" />
  <rect x="875" y="1125" width="125" height="125" fill="#18252B" />
  <rect x="1000" y="1125" width="125" height="125" fill="#1B2C36" />
  <rect x="1125" y="1125" width="125" height="125" fill="#252A3D" />
  <rect x="250" y="250" width="1000" height="1000" fill="none" stroke="#151515" stroke-opacity="0.16" stroke-width="2" />
</svg>
