<svg xmlns="http://www.w3.org/2000/svg" width="1500" height="1500" viewBox="0 0 1500 1500" shape-rendering="crispEdges" role="img" aria-labelledby="title desc">
  <title id="title">Tension of Dualities in Natural frame</title>
  <desc id="desc">Square Project artwork previewed in a natural frame.</desc>
  <defs>
    <linearGradient id="frameFace" x1="0" y1="0" x2="1" y2="1">
      <stop offset="0" stop-color="#FFF1D7" />
      <stop offset="0.32" stop-color="#E8D4B7" />
      <stop offset="0.68" stop-color="#C2A17B" />
      <stop offset="1" stop-color="#8D6F50" />
    </linearGradient>
    <pattern id="naturalGrain" patternUnits="userSpaceOnUse" width="180" height="48">
      <path d="M0 12 C48 2 92 24 180 10" fill="none" stroke="#8D6F50" stroke-opacity="0.22" stroke-width="5" />
      <path d="M0 34 C62 44 118 22 180 36" fill="none" stroke="#FFFFFF" stroke-opacity="0.22" stroke-width="4" />
    </pattern>
    <filter id="artShadow" x="-10%" y="-10%" width="120%" height="120%">
      <feDropShadow dx="0" dy="20" stdDeviation="24" flood-color="#000000" flood-opacity="0.24" />
    </filter>
  </defs>
  <rect x="0" y="0" width="1500" height="1500" fill="#FFFFFF" />
  <rect x="0" y="0" width="1500" height="1500" fill="url(#frameFace)" />
  <rect x="0" y="0" width="1500" height="1500" fill="url(#naturalGrain)" />
  <rect x="120" y="120" width="1260" height="1260" fill="#F8F7F3" />
  <rect x="120" y="120" width="1260" height="1260" fill="none" stroke="#000000" stroke-opacity="0.14" stroke-width="10" />
  <rect x="250" y="250" width="1000" height="1000" fill="#FFFFFF" filter="url(#artShadow)" />
  <rect x="250" y="250" width="125" height="125" fill="#F6D04D" />
  <rect x="375" y="250" width="125" height="125" fill="#F5A623" />
  <rect x="500" y="250" width="125" height="125" fill="#F8E03B" />
  <rect x="625" y="250" width="125" height="125" fill="#D4B84A" />
  <rect x="750" y="250" width="125" height="125" fill="#805D95" />
  <rect x="875" y="250" width="125" height="125" fill="#4C3C7B" />
  <rect x="1000" y="250" width="125" height="125" fill="#222B45" />
  <rect x="1125" y="250" width="125" height="125" fill="#111111" />
  <rect x="250" y="375" width="125" height="125" fill="#FFE6A5" />
  <rect x="375" y="375" width="125" height="125" fill="#FFC107" />
  <rect x="500" y="375" width="125" height="125" fill="#F9C742" />
  <rect x="625" y="375" width="125" height="125" fill="#E6EAA3" />
  <rect x="750" y="375" width="125" height="125" fill="#6D4C8C" />
  <rect x="875" y="375" width="125" height="125" fill="#3D2854" />
  <rect x="1000" y="375" width="125" height="125" fill="#1C1C30" />
  <rect x="1125" y="375" width="125" height="125" fill="#000000" />
  <rect x="250" y="500" width="125" height="125" fill="#FFD700" />
  <rect x="375" y="500" width="125" height="125" fill="#FF9F20" />
  <rect x="500" y="500" width="125" height="125" fill="#FAED52" />
  <rect x="625" y="500" width="125" height="125" fill="#D6CA6E" />
  <rect x="750" y="500" width="125" height="125" fill="#968BC2" />
  <rect x="875" y="500" width="125" height="125" fill="#4F2C4A" />
  <rect x="1000" y="500" width="125" height="125" fill="#2C3E50" />
  <rect x="1125" y="500" width="125" height="125" fill="#1B1B1B" />
  <rect x="250" y="625" width="125" height="125" fill="#F9C95C" />
  <rect x="375" y="625" width="125" height="125" fill="#F9AE2B" />
  <rect x="500" y="625" width="125" height="125" fill="#E3D24D" />
  <rect x="625" y="625" width="125" height="125" fill="#BBBE80" />
  <rect x="750" y="625" width="125" height="125" fill="#726B9F" />
  <rect x="875" y="625" width="125" height="125" fill="#3A283D" />
  <rect x="1000" y="625" width="125" height="125" fill="#101820" />
  <rect x="1125" y="625" width="125" height="125" fill="#000000" />
  <rect x="250" y="750" width="125" height="125" fill="#FEE9B4" />
  <rect x="375" y="750" width="125" height="125" fill="#FFC107" />
  <rect x="500" y="750" width="125" height="125" fill="#F4B300" />
  <rect x="625" y="750" width="125" height="125" fill="#E9A718" />
  <rect x="750" y="750" width="125" height="125" fill="#AD8B6D" />
  <rect x="875" y="750" width="125" height="125" fill="#483D69" />
  <rect x="1000" y="750" width="125" height="125" fill="#23262D" />
  <rect x="1125" y="750" width="125" height="125" fill="#111111" />
  <rect x="250" y="875" width="125" height="125" fill="#FFE18E" />
  <rect x="375" y="875" width="125" height="125" fill="#FFC0A1" />
  <rect x="500" y="875" width="125" height="125" fill="#F3F97C" />
  <rect x="625" y="875" width="125" height="125" fill="#D6D543" />
  <rect x="750" y="875" width="125" height="125" fill="#8A8BB2" />
  <rect x="875" y="875" width="125" height="125" fill="#4C3C4D" />
  <rect x="1000" y="875" width="125" height="125" fill="#222B32" />
  <rect x="1125" y="875" width="125" height="125" fill="#111111" />
  <rect x="250" y="1000" width="125" height="125" fill="#FFEA88" />
  <rect x="375" y="1000" width="125" height="125" fill="#FFCC52" />
  <rect x="500" y="1000" width="125" height="125" fill="#F8E76B" />
  <rect x="625" y="1000" width="125" height="125" fill="#C1B07F" />
  <rect x="750" y="1000" width="125" height="125" fill="#78568B" />
  <rect x="875" y="1000" width="125" height="125" fill="#4E3A5A" />
  <rect x="1000" y="1000" width="125" height="125" fill="#2D212D" />
  <rect x="1125" y="1000" width="125" height="125" fill="#000000" />
  <rect x="250" y="1125" width="125" height="125" fill="#FFF68F" />
  <rect x="375" y="1125" width="125" height="125" fill="#FFC800" />
  <rect x="500" y="1125" width="125" height="125" fill="#FFD933" />
  <rect x="625" y="1125" width="125" height="125" fill="#B9CC37" />
  <rect x="750" y="1125" width="125" height="125" fill="#7D9DBB" />
  <rect x="875" y="1125" width="125" height="125" fill="#4B3A4A" />
  <rect x="1000" y="1125" width="125" height="125" fill="#2C2C2E" />
  <rect x="1125" y="1125" width="125" height="125" fill="#111111" />
  <rect x="250" y="250" width="1000" height="1000" fill="none" stroke="#151515" stroke-opacity="0.16" stroke-width="2" />
</svg>
