<svg xmlns="http://www.w3.org/2000/svg" width="1500" height="1500" viewBox="0 0 1500 1500" shape-rendering="crispEdges" role="img" aria-labelledby="title desc">
  <title id="title">Fractured Affection in White frame</title>
  <desc id="desc">Square Project artwork previewed in a white frame.</desc>
  <rect x="0" y="0" width="1500" height="1500" fill="#FFFFFF" />
  <image href="https://mysquareart.com/frames/white.jpg" x="0" y="0" width="1500" height="1500" preserveAspectRatio="xMidYMid meet" />
  <rect x="250" y="250" width="1000" height="1000" fill="#FFFFFF" />
  <rect x="250" y="250" width="125" height="125" fill="#FF6F61" />
  <rect x="375" y="250" width="125" height="125" fill="#FFB3B3" />
  <rect x="500" y="250" width="125" height="125" fill="#FFCCCC" />
  <rect x="625" y="250" width="125" height="125" fill="#FFFFFF" />
  <rect x="750" y="250" width="125" height="125" fill="#B3CDE0" />
  <rect x="875" y="250" width="125" height="125" fill="#6A7F99" />
  <rect x="1000" y="250" width="125" height="125" fill="#434343" />
  <rect x="1125" y="250" width="125" height="125" fill="#1F1F1F" />
  <rect x="250" y="375" width="125" height="125" fill="#FF6F61" />
  <rect x="375" y="375" width="125" height="125" fill="#FF9999" />
  <rect x="500" y="375" width="125" height="125" fill="#FFC3C3" />
  <rect x="625" y="375" width="125" height="125" fill="#EEEEEE" />
  <rect x="750" y="375" width="125" height="125" fill="#9ABEB1" />
  <rect x="875" y="375" width="125" height="125" fill="#465A6B" />
  <rect x="1000" y="375" width="125" height="125" fill="#222222" />
  <rect x="1125" y="375" width="125" height="125" fill="#1E1E1E" />
  <rect x="250" y="500" width="125" height="125" fill="#FF414F" />
  <rect x="375" y="500" width="125" height="125" fill="#FF9191" />
  <rect x="500" y="500" width="125" height="125" fill="#FFD6D6" />
  <rect x="625" y="500" width="125" height="125" fill="#FFFFFF" />
  <rect x="750" y="500" width="125" height="125" fill="#7394A4" />
  <rect x="875" y="500" width="125" height="125" fill="#2F434E" />
  <rect x="1000" y="500" width="125" height="125" fill="#111111" />
  <rect x="1125" y="500" width="125" height="125" fill="#1E1E1E" />
  <rect x="250" y="625" width="125" height="125" fill="#E05131" />
  <rect x="375" y="625" width="125" height="125" fill="#FF6F61" />
  <rect x="500" y="625" width="125" height="125" fill="#FFB3B3" />
  <rect x="625" y="625" width="125" height="125" fill="#F9F9F9" />
  <rect x="750" y="625" width="125" height="125" fill="#C4DFE6" />
  <rect x="875" y="625" width="125" height="125" fill="#6A7F9B" />
  <rect x="1000" y="625" width="125" height="125" fill="#333333" />
  <rect x="1125" y="625" width="125" height="125" fill="#1A1A1A" />
  <rect x="250" y="750" width="125" height="125" fill="#FF6F61" />
  <rect x="375" y="750" width="125" height="125" fill="#FF8C8C" />
  <rect x="500" y="750" width="125" height="125" fill="#FFE4E1" />
  <rect x="625" y="750" width="125" height="125" fill="#F4F4F4" />
  <rect x="750" y="750" width="125" height="125" fill="#BEE3F8" />
  <rect x="875" y="750" width="125" height="125" fill="#4C5B78" />
  <rect x="1000" y="750" width="125" height="125" fill="#444444" />
  <rect x="1125" y="750" width="125" height="125" fill="#3D3D3D" />
  <rect x="250" y="875" width="125" height="125" fill="#D14C39" />
  <rect x="375" y="875" width="125" height="125" fill="#FF6F61" />
  <rect x="500" y="875" width="125" height="125" fill="#FFF2F2" />
  <rect x="625" y="875" width="125" height="125" fill="#F0F0F0" />
  <rect x="750" y="875" width="125" height="125" fill="#91C3D3" />
  <rect x="875" y="875" width="125" height="125" fill="#374955" />
  <rect x="1000" y="875" width="125" height="125" fill="#666666" />
  <rect x="1125" y="875" width="125" height="125" fill="#3F3F3F" />
  <rect x="250" y="1000" width="125" height="125" fill="#C8112F" />
  <rect x="375" y="1000" width="125" height="125" fill="#FF9999" />
  <rect x="500" y="1000" width="125" height="125" fill="#FFE0E0" />
  <rect x="625" y="1000" width="125" height="125" fill="#F2F2F2" />
  <rect x="750" y="1000" width="125" height="125" fill="#B0D5E5" />
  <rect x="875" y="1000" width="125" height="125" fill="#3A4A59" />
  <rect x="1000" y="1000" width="125" height="125" fill="#777777" />
  <rect x="1125" y="1000" width="125" height="125" fill="#4A4A4A" />
  <rect x="250" y="1125" width="125" height="125" fill="#C84B43" />
  <rect x="375" y="1125" width="125" height="125" fill="#FF7373" />
  <rect x="500" y="1125" width="125" height="125" fill="#F6B3B3" />
  <rect x="625" y="1125" width="125" height="125" fill="#F0F0F0" />
  <rect x="750" y="1125" width="125" height="125" fill="#A6C8D5" />
  <rect x="875" y="1125" width="125" height="125" fill="#2F343E" />
  <rect x="1000" y="1125" width="125" height="125" fill="#888888" />
  <rect x="1125" y="1125" width="125" height="125" fill="#5B5B5B" />
  <rect x="250" y="250" width="1000" height="1000" fill="none" stroke="#151515" stroke-opacity="0.16" stroke-width="2" />
</svg>
