<svg xmlns="http://www.w3.org/2000/svg" width="1500" height="1500" viewBox="0 0 1500 1500" shape-rendering="crispEdges" role="img" aria-labelledby="title desc">
  <title id="title">Fragmented Waves in Black frame</title>
  <desc id="desc">Square Project artwork previewed in a black frame.</desc>
  <rect x="0" y="0" width="1500" height="1500" fill="#FFFFFF" />
  <image href="https://mysquareart.com/frames/black.jpg" x="0" y="0" width="1500" height="1500" preserveAspectRatio="xMidYMid meet" />
  <rect x="250" y="250" width="1000" height="1000" fill="#FFFFFF" />
  <rect x="250" y="250" width="125" height="125" fill="#1F1A78" />
  <rect x="375" y="250" width="125" height="125" fill="#4B4A99" />
  <rect x="500" y="250" width="125" height="125" fill="#7B7CAD" />
  <rect x="625" y="250" width="125" height="125" fill="#A0A9A9" />
  <rect x="750" y="250" width="125" height="125" fill="#FFC947" />
  <rect x="875" y="250" width="125" height="125" fill="#FFEB8A" />
  <rect x="1000" y="250" width="125" height="125" fill="#D3D8C5" />
  <rect x="1125" y="250" width="125" height="125" fill="#AA9CBB" />
  <rect x="250" y="375" width="125" height="125" fill="#1F1A28" />
  <rect x="375" y="375" width="125" height="125" fill="#484B54" />
  <rect x="500" y="375" width="125" height="125" fill="#5A5E67" />
  <rect x="625" y="375" width="125" height="125" fill="#713B45" />
  <rect x="750" y="375" width="125" height="125" fill="#D17757" />
  <rect x="875" y="375" width="125" height="125" fill="#ECA23A" />
  <rect x="1000" y="375" width="125" height="125" fill="#F2B03D" />
  <rect x="1125" y="375" width="125" height="125" fill="#D05A69" />
  <rect x="250" y="500" width="125" height="125" fill="#121C25" />
  <rect x="375" y="500" width="125" height="125" fill="#283940" />
  <rect x="500" y="500" width="125" height="125" fill="#4E5B6D" />
  <rect x="625" y="500" width="125" height="125" fill="#2E3B54" />
  <rect x="750" y="500" width="125" height="125" fill="#FFC700" />
  <rect x="875" y="500" width="125" height="125" fill="#FF5800" />
  <rect x="1000" y="500" width="125" height="125" fill="#D5000F" />
  <rect x="1125" y="500" width="125" height="125" fill="#9E2223" />
  <rect x="250" y="625" width="125" height="125" fill="#2A1A6B" />
  <rect x="375" y="625" width="125" height="125" fill="#4E3F91" />
  <rect x="500" y="625" width="125" height="125" fill="#A2304C" />
  <rect x="625" y="625" width="125" height="125" fill="#E0C03D" />
  <rect x="750" y="625" width="125" height="125" fill="#B7E937" />
  <rect x="875" y="625" width="125" height="125" fill="#4EFB56" />
  <rect x="1000" y="625" width="125" height="125" fill="#B2E6B4" />
  <rect x="1125" y="625" width="125" height="125" fill="#E7EBA4" />
  <rect x="250" y="750" width="125" height="125" fill="#2C4F7C" />
  <rect x="375" y="750" width="125" height="125" fill="#7A8C99" />
  <rect x="500" y="750" width="125" height="125" fill="#B0C1CC" />
  <rect x="625" y="750" width="125" height="125" fill="#DADEEB" />
  <rect x="750" y="750" width="125" height="125" fill="#FFCBA8" />
  <rect x="875" y="750" width="125" height="125" fill="#FFB27B" />
  <rect x="1000" y="750" width="125" height="125" fill="#C9B39A" />
  <rect x="1125" y="750" width="125" height="125" fill="#A59BB1" />
  <rect x="250" y="875" width="125" height="125" fill="#7F1A3D" />
  <rect x="375" y="875" width="125" height="125" fill="#B46B89" />
  <rect x="500" y="875" width="125" height="125" fill="#E1A4BF" />
  <rect x="625" y="875" width="125" height="125" fill="#E55C79" />
  <rect x="750" y="875" width="125" height="125" fill="#FFD4C2" />
  <rect x="875" y="875" width="125" height="125" fill="#C2D4CB" />
  <rect x="1000" y="875" width="125" height="125" fill="#B6CBB0" />
  <rect x="1125" y="875" width="125" height="125" fill="#D1B3A3" />
  <rect x="250" y="1000" width="125" height="125" fill="#1E262C" />
  <rect x="375" y="1000" width="125" height="125" fill="#383028" />
  <rect x="500" y="1000" width="125" height="125" fill="#4D2F38" />
  <rect x="625" y="1000" width="125" height="125" fill="#634443" />
  <rect x="750" y="1000" width="125" height="125" fill="#DE9DA1" />
  <rect x="875" y="1000" width="125" height="125" fill="#F5E1B2" />
  <rect x="1000" y="1000" width="125" height="125" fill="#E4D9BF" />
  <rect x="1125" y="1000" width="125" height="125" fill="#A4BDAF" />
  <rect x="250" y="1125" width="125" height="125" fill="#00203E" />
  <rect x="375" y="1125" width="125" height="125" fill="#F8B400" />
  <rect x="500" y="1125" width="125" height="125" fill="#FFA300" />
  <rect x="625" y="1125" width="125" height="125" fill="#D83320" />
  <rect x="750" y="1125" width="125" height="125" fill="#A3403B" />
  <rect x="875" y="1125" width="125" height="125" fill="#580F27" />
  <rect x="1000" y="1125" width="125" height="125" fill="#4D4E5D" />
  <rect x="1125" y="1125" width="125" height="125" fill="#646266" />
  <rect x="250" y="250" width="1000" height="1000" fill="none" stroke="#151515" stroke-opacity="0.16" stroke-width="2" />
</svg>
