<svg xmlns="http://www.w3.org/2000/svg" width="1500" height="1500" viewBox="0 0 1500 1500" shape-rendering="crispEdges" role="img" aria-labelledby="title desc">
  <title id="title">Weight of Release in Black frame</title>
  <desc id="desc">Square Project artwork previewed in a black frame.</desc>
  <defs>
    <linearGradient id="frameFace" x1="0" y1="0" x2="1" y2="1">
      <stop offset="0" stop-color="#6A6A6A" />
      <stop offset="0.32" stop-color="#343434" />
      <stop offset="0.68" stop-color="#111111" />
      <stop offset="1" stop-color="#050505" />
    </linearGradient>
    <filter id="artShadow" x="-10%" y="-10%" width="120%" height="120%">
      <feDropShadow dx="0" dy="20" stdDeviation="24" flood-color="#000000" flood-opacity="0.24" />
    </filter>
  </defs>
  <rect x="0" y="0" width="1500" height="1500" fill="#FFFFFF" />
  <rect x="0" y="0" width="1500" height="1500" fill="url(#frameFace)" />
  <rect x="120" y="120" width="1260" height="1260" fill="#F8F7F3" />
  <rect x="120" y="120" width="1260" height="1260" fill="none" stroke="#000000" stroke-opacity="0.14" stroke-width="10" />
  <rect x="250" y="250" width="1000" height="1000" fill="#FFFFFF" filter="url(#artShadow)" />
  <rect x="250" y="250" width="125" height="125" fill="#3C3F3D" />
  <rect x="375" y="250" width="125" height="125" fill="#4B4F4A" />
  <rect x="500" y="250" width="125" height="125" fill="#707468" />
  <rect x="625" y="250" width="125" height="125" fill="#8C8C86" />
  <rect x="750" y="250" width="125" height="125" fill="#B6B39C" />
  <rect x="875" y="250" width="125" height="125" fill="#EDE9D2" />
  <rect x="1000" y="250" width="125" height="125" fill="#F4F2D3" />
  <rect x="1125" y="250" width="125" height="125" fill="#C7C3B5" />
  <rect x="250" y="375" width="125" height="125" fill="#4D5B35" />
  <rect x="375" y="375" width="125" height="125" fill="#899D4A" />
  <rect x="500" y="375" width="125" height="125" fill="#D3D0B8" />
  <rect x="625" y="375" width="125" height="125" fill="#A26752" />
  <rect x="750" y="375" width="125" height="125" fill="#BC8E71" />
  <rect x="875" y="375" width="125" height="125" fill="#F4C72D" />
  <rect x="1000" y="375" width="125" height="125" fill="#D6D2C8" />
  <rect x="1125" y="375" width="125" height="125" fill="#8B8C8F" />
  <rect x="250" y="500" width="125" height="125" fill="#A67C7D" />
  <rect x="375" y="500" width="125" height="125" fill="#EEDBDB" />
  <rect x="500" y="500" width="125" height="125" fill="#C0C4B7" />
  <rect x="625" y="500" width="125" height="125" fill="#8D8F87" />
  <rect x="750" y="500" width="125" height="125" fill="#698264" />
  <rect x="875" y="500" width="125" height="125" fill="#4D5B3D" />
  <rect x="1000" y="500" width="125" height="125" fill="#3B3D39" />
  <rect x="1125" y="500" width="125" height="125" fill="#9EC7A3" />
  <rect x="250" y="625" width="125" height="125" fill="#5A6C63" />
  <rect x="375" y="625" width="125" height="125" fill="#8BBA83" />
  <rect x="500" y="625" width="125" height="125" fill="#D6D9C0" />
  <rect x="625" y="625" width="125" height="125" fill="#868B7E" />
  <rect x="750" y="625" width="125" height="125" fill="#FFEDC8" />
  <rect x="875" y="625" width="125" height="125" fill="#B5A88A" />
  <rect x="1000" y="625" width="125" height="125" fill="#444F37" />
  <rect x="1125" y="625" width="125" height="125" fill="#2E3A25" />
  <rect x="250" y="750" width="125" height="125" fill="#7B7C74" />
  <rect x="375" y="750" width="125" height="125" fill="#B7B5A0" />
  <rect x="500" y="750" width="125" height="125" fill="#EDE0A6" />
  <rect x="625" y="750" width="125" height="125" fill="#9D9F84" />
  <rect x="750" y="750" width="125" height="125" fill="#6A8071" />
  <rect x="875" y="750" width="125" height="125" fill="#4A4E46" />
  <rect x="1000" y="750" width="125" height="125" fill="#A8917D" />
  <rect x="1125" y="750" width="125" height="125" fill="#D4DAD7" />
  <rect x="250" y="875" width="125" height="125" fill="#C3DFB9" />
  <rect x="375" y="875" width="125" height="125" fill="#E2E1C1" />
  <rect x="500" y="875" width="125" height="125" fill="#DFAF78" />
  <rect x="625" y="875" width="125" height="125" fill="#5F4C41" />
  <rect x="750" y="875" width="125" height="125" fill="#9B7E69" />
  <rect x="875" y="875" width="125" height="125" fill="#2C2923" />
  <rect x="1000" y="875" width="125" height="125" fill="#EAE4DB" />
  <rect x="1125" y="875" width="125" height="125" fill="#8A8C8B" />
  <rect x="250" y="1000" width="125" height="125" fill="#5E7351" />
  <rect x="375" y="1000" width="125" height="125" fill="#B6AC8D" />
  <rect x="500" y="1000" width="125" height="125" fill="#BEC3AE" />
  <rect x="625" y="1000" width="125" height="125" fill="#F3E8D4" />
  <rect x="750" y="1000" width="125" height="125" fill="#D3D3CF" />
  <rect x="875" y="1000" width="125" height="125" fill="#7A706B" />
  <rect x="1000" y="1000" width="125" height="125" fill="#8D5B58" />
  <rect x="1125" y="1000" width="125" height="125" fill="#A79F87" />
  <rect x="250" y="1125" width="125" height="125" fill="#3E4B2F" />
  <rect x="375" y="1125" width="125" height="125" fill="#A593A2" />
  <rect x="500" y="1125" width="125" height="125" fill="#C4C2B4" />
  <rect x="625" y="1125" width="125" height="125" fill="#F8EBD2" />
  <rect x="750" y="1125" width="125" height="125" fill="#D8D4C7" />
  <rect x="875" y="1125" width="125" height="125" fill="#CBBAA1" />
  <rect x="1000" y="1125" width="125" height="125" fill="#A7BFA8" />
  <rect x="1125" y="1125" width="125" height="125" fill="#D5E0D3" />
  <rect x="250" y="250" width="1000" height="1000" fill="none" stroke="#151515" stroke-opacity="0.16" stroke-width="2" />
</svg>
