<svg xmlns="http://www.w3.org/2000/svg" width="1500" height="1500" viewBox="0 0 1500 1500" shape-rendering="crispEdges" role="img" aria-labelledby="title desc">
  <title id="title">Light vs Weight in White frame</title>
  <desc id="desc">Square Project artwork previewed in a white frame.</desc>
  <rect x="0" y="0" width="1500" height="1500" fill="#FFFFFF" />
  <image href="https://mysquareart.com/frames/white.jpg" x="0" y="0" width="1500" height="1500" preserveAspectRatio="xMidYMid meet" />
  <rect x="250" y="250" width="1000" height="1000" fill="#FFFFFF" />
  <rect x="250" y="250" width="125" height="125" fill="#FFD700" />
  <rect x="375" y="250" width="125" height="125" fill="#FFEA00" />
  <rect x="500" y="250" width="125" height="125" fill="#FFC300" />
  <rect x="625" y="250" width="125" height="125" fill="#FFAA00" />
  <rect x="750" y="250" width="125" height="125" fill="#FF8C00" />
  <rect x="875" y="250" width="125" height="125" fill="#FF6F00" />
  <rect x="1000" y="250" width="125" height="125" fill="#FF4F00" />
  <rect x="1125" y="250" width="125" height="125" fill="#FF2D00" />
  <rect x="250" y="375" width="125" height="125" fill="#FFD700" />
  <rect x="375" y="375" width="125" height="125" fill="#FFEA00" />
  <rect x="500" y="375" width="125" height="125" fill="#FFC300" />
  <rect x="625" y="375" width="125" height="125" fill="#FFAA00" />
  <rect x="750" y="375" width="125" height="125" fill="#FF8C00" />
  <rect x="875" y="375" width="125" height="125" fill="#ED6A00" />
  <rect x="1000" y="375" width="125" height="125" fill="#FF4F00" />
  <rect x="1125" y="375" width="125" height="125" fill="#FF2D00" />
  <rect x="250" y="500" width="125" height="125" fill="#FFC700" />
  <rect x="375" y="500" width="125" height="125" fill="#FFDD00" />
  <rect x="500" y="500" width="125" height="125" fill="#FFBD00" />
  <rect x="625" y="500" width="125" height="125" fill="#FF9F00" />
  <rect x="750" y="500" width="125" height="125" fill="#FF8300" />
  <rect x="875" y="500" width="125" height="125" fill="#ED4B00" />
  <rect x="1000" y="500" width="125" height="125" fill="#FF2D00" />
  <rect x="1125" y="500" width="125" height="125" fill="#FF1700" />
  <rect x="250" y="625" width="125" height="125" fill="#FFD700" />
  <rect x="375" y="625" width="125" height="125" fill="#FFEA00" />
  <rect x="500" y="625" width="125" height="125" fill="#FFC300" />
  <rect x="625" y="625" width="125" height="125" fill="#ED6A00" />
  <rect x="750" y="625" width="125" height="125" fill="#6A8E99" />
  <rect x="875" y="625" width="125" height="125" fill="#4B637E" />
  <rect x="1000" y="625" width="125" height="125" fill="#A9A9BB" />
  <rect x="1125" y="625" width="125" height="125" fill="#7D7B8A" />
  <rect x="250" y="750" width="125" height="125" fill="#4B4B4B" />
  <rect x="375" y="750" width="125" height="125" fill="#3E3E3E" />
  <rect x="500" y="750" width="125" height="125" fill="#2D2D2D" />
  <rect x="625" y="750" width="125" height="125" fill="#1D1D1D" />
  <rect x="750" y="750" width="125" height="125" fill="#0F0F0F" />
  <rect x="875" y="750" width="125" height="125" fill="#1B1B1B" />
  <rect x="1000" y="750" width="125" height="125" fill="#222222" />
  <rect x="1125" y="750" width="125" height="125" fill="#292929" />
  <rect x="250" y="875" width="125" height="125" fill="#6B6B6B" />
  <rect x="375" y="875" width="125" height="125" fill="#5E5E5E" />
  <rect x="500" y="875" width="125" height="125" fill="#4F4F4F" />
  <rect x="625" y="875" width="125" height="125" fill="#404040" />
  <rect x="750" y="875" width="125" height="125" fill="#333333" />
  <rect x="875" y="875" width="125" height="125" fill="#262626" />
  <rect x="1000" y="875" width="125" height="125" fill="#1A1A1A" />
  <rect x="1125" y="875" width="125" height="125" fill="#0F0F0F" />
  <rect x="250" y="1000" width="125" height="125" fill="#6C7D99" />
  <rect x="375" y="1000" width="125" height="125" fill="#8C95B0" />
  <rect x="500" y="1000" width="125" height="125" fill="#4A4C77" />
  <rect x="625" y="1000" width="125" height="125" fill="#888898" />
  <rect x="750" y="1000" width="125" height="125" fill="#555F7D" />
  <rect x="875" y="1000" width="125" height="125" fill="#4C545D" />
  <rect x="1000" y="1000" width="125" height="125" fill="#434759" />
  <rect x="1125" y="1000" width="125" height="125" fill="#3B3D46" />
  <rect x="250" y="1125" width="125" height="125" fill="#001F3F" />
  <rect x="375" y="1125" width="125" height="125" fill="#003D66" />
  <rect x="500" y="1125" width="125" height="125" fill="#005B99" />
  <rect x="625" y="1125" width="125" height="125" fill="#007ECC" />
  <rect x="750" y="1125" width="125" height="125" fill="#0099FF" />
  <rect x="875" y="1125" width="125" height="125" fill="#0AB3FF" />
  <rect x="1000" y="1125" width="125" height="125" fill="#0CD9E4" />
  <rect x="1125" y="1125" width="125" height="125" fill="#7FC4D1" />
  <rect x="250" y="250" width="1000" height="1000" fill="none" stroke="#151515" stroke-opacity="0.16" stroke-width="2" />
</svg>
