<svg xmlns="http://www.w3.org/2000/svg" width="1500" height="1500" viewBox="0 0 1500 1500" shape-rendering="crispEdges" role="img" aria-labelledby="title desc">
  <title id="title">Echoes of Trust in Natural frame</title>
  <desc id="desc">Square Project artwork previewed in a natural frame.</desc>
  <rect x="0" y="0" width="1500" height="1500" fill="#FFFFFF" />
  <image href="https://mysquareart.com/frames/natural.jpg" x="0" y="0" width="1500" height="1500" preserveAspectRatio="xMidYMid meet" />
  <rect x="250" y="250" width="1000" height="1000" fill="#FFFFFF" />
  <rect x="250" y="250" width="125" height="125" fill="#0D0D0C" />
  <rect x="375" y="250" width="125" height="125" fill="#1A1B1D" />
  <rect x="500" y="250" width="125" height="125" fill="#4B4B4D" />
  <rect x="625" y="250" width="125" height="125" fill="#7A7D7E" />
  <rect x="750" y="250" width="125" height="125" fill="#CCCCAA" />
  <rect x="875" y="250" width="125" height="125" fill="#D4B800" />
  <rect x="1000" y="250" width="125" height="125" fill="#7F7F7F" />
  <rect x="1125" y="250" width="125" height="125" fill="#282828" />
  <rect x="250" y="375" width="125" height="125" fill="#0A0A0A" />
  <rect x="375" y="375" width="125" height="125" fill="#4F2B69" />
  <rect x="500" y="375" width="125" height="125" fill="#7C5F15" />
  <rect x="625" y="375" width="125" height="125" fill="#E8D7B5" />
  <rect x="750" y="375" width="125" height="125" fill="#BFAE4D" />
  <rect x="875" y="375" width="125" height="125" fill="#7A7A74" />
  <rect x="1000" y="375" width="125" height="125" fill="#3C3A39" />
  <rect x="1125" y="375" width="125" height="125" fill="#1D1D1F" />
  <rect x="250" y="500" width="125" height="125" fill="#151515" />
  <rect x="375" y="500" width="125" height="125" fill="#645F7C" />
  <rect x="500" y="500" width="125" height="125" fill="#BCC9B7" />
  <rect x="625" y="500" width="125" height="125" fill="#E3E8D9" />
  <rect x="750" y="500" width="125" height="125" fill="#DCCF7C" />
  <rect x="875" y="500" width="125" height="125" fill="#3D4E54" />
  <rect x="1000" y="500" width="125" height="125" fill="#1F1F1F" />
  <rect x="1125" y="500" width="125" height="125" fill="#2B2B2B" />
  <rect x="250" y="625" width="125" height="125" fill="#3E3E3D" />
  <rect x="375" y="625" width="125" height="125" fill="#262626" />
  <rect x="500" y="625" width="125" height="125" fill="#536B69" />
  <rect x="625" y="625" width="125" height="125" fill="#BF9325" />
  <rect x="750" y="625" width="125" height="125" fill="#A7A44D" />
  <rect x="875" y="625" width="125" height="125" fill="#383A39" />
  <rect x="1000" y="625" width="125" height="125" fill="#2F2F2D" />
  <rect x="1125" y="625" width="125" height="125" fill="#1E1E20" />
  <rect x="250" y="750" width="125" height="125" fill="#676C6E" />
  <rect x="375" y="750" width="125" height="125" fill="#1B1C1E" />
  <rect x="500" y="750" width="125" height="125" fill="#8C7F23" />
  <rect x="625" y="750" width="125" height="125" fill="#B4A85D" />
  <rect x="750" y="750" width="125" height="125" fill="#D1D2B5" />
  <rect x="875" y="750" width="125" height="125" fill="#544B2B" />
  <rect x="1000" y="750" width="125" height="125" fill="#4F5253" />
  <rect x="1125" y="750" width="125" height="125" fill="#1C1C1D" />
  <rect x="250" y="875" width="125" height="125" fill="#2A2A24" />
  <rect x="375" y="875" width="125" height="125" fill="#2F499B" />
  <rect x="500" y="875" width="125" height="125" fill="#5A865D" />
  <rect x="625" y="875" width="125" height="125" fill="#D7E3B5" />
  <rect x="750" y="875" width="125" height="125" fill="#B3A97D" />
  <rect x="875" y="875" width="125" height="125" fill="#3C3C3C" />
  <rect x="1000" y="875" width="125" height="125" fill="#1E1E22" />
  <rect x="1125" y="875" width="125" height="125" fill="#101010" />
  <rect x="250" y="1000" width="125" height="125" fill="#0E0E10" />
  <rect x="375" y="1000" width="125" height="125" fill="#B67D39" />
  <rect x="500" y="1000" width="125" height="125" fill="#D3B11A" />
  <rect x="625" y="1000" width="125" height="125" fill="#9ABC93" />
  <rect x="750" y="1000" width="125" height="125" fill="#DADADA" />
  <rect x="875" y="1000" width="125" height="125" fill="#A1A1A1" />
  <rect x="1000" y="1000" width="125" height="125" fill="#1B1B1B" />
  <rect x="1125" y="1000" width="125" height="125" fill="#000000" />
  <rect x="250" y="1125" width="125" height="125" fill="#131313" />
  <rect x="375" y="1125" width="125" height="125" fill="#4A4E55" />
  <rect x="500" y="1125" width="125" height="125" fill="#1C3A3A" />
  <rect x="625" y="1125" width="125" height="125" fill="#A4A574" />
  <rect x="750" y="1125" width="125" height="125" fill="#FCED66" />
  <rect x="875" y="1125" width="125" height="125" fill="#A1232B" />
  <rect x="1000" y="1125" width="125" height="125" fill="#0B0B0B" />
  <rect x="1125" y="1125" width="125" height="125" fill="#1A1A1B" />
  <rect x="250" y="250" width="1000" height="1000" fill="none" stroke="#151515" stroke-opacity="0.16" stroke-width="2" />
</svg>
