<svg xmlns="http://www.w3.org/2000/svg" width="1500" height="1500" viewBox="0 0 1500 1500" shape-rendering="crispEdges" role="img" aria-labelledby="title desc">
  <title id="title">Fractured Connections in Gold frame</title>
  <desc id="desc">Square Project artwork previewed in a gold frame.</desc>
  <rect x="0" y="0" width="1500" height="1500" fill="#FFFFFF" />
  <image href="https://mysquareart.com/frames/gold.jpg" x="0" y="0" width="1500" height="1500" preserveAspectRatio="xMidYMid meet" />
  <rect x="250" y="250" width="1000" height="1000" fill="#FFFFFF" />
  <rect x="250" y="250" width="125" height="125" fill="#7A2621" />
  <rect x="375" y="250" width="125" height="125" fill="#C04E35" />
  <rect x="500" y="250" width="125" height="125" fill="#8A3E30" />
  <rect x="625" y="250" width="125" height="125" fill="#BDAF9A" />
  <rect x="750" y="250" width="125" height="125" fill="#B9BECD" />
  <rect x="875" y="250" width="125" height="125" fill="#BA4A37" />
  <rect x="1000" y="250" width="125" height="125" fill="#E42827" />
  <rect x="1125" y="250" width="125" height="125" fill="#000000" />
  <rect x="250" y="375" width="125" height="125" fill="#D0B8A2" />
  <rect x="375" y="375" width="125" height="125" fill="#C27063" />
  <rect x="500" y="375" width="125" height="125" fill="#B6495E" />
  <rect x="625" y="375" width="125" height="125" fill="#0B0D10" />
  <rect x="750" y="375" width="125" height="125" fill="#8A3E30" />
  <rect x="875" y="375" width="125" height="125" fill="#3E3937" />
  <rect x="1000" y="375" width="125" height="125" fill="#4C6353" />
  <rect x="1125" y="375" width="125" height="125" fill="#A42427" />
  <rect x="250" y="500" width="125" height="125" fill="#BFD1D9" />
  <rect x="375" y="500" width="125" height="125" fill="#4D2B1F" />
  <rect x="500" y="500" width="125" height="125" fill="#8B0D10" />
  <rect x="625" y="500" width="125" height="125" fill="#9DA896" />
  <rect x="750" y="500" width="125" height="125" fill="#B80B0D" />
  <rect x="875" y="500" width="125" height="125" fill="#A86A6D" />
  <rect x="1000" y="500" width="125" height="125" fill="#EBC4B1" />
  <rect x="1125" y="500" width="125" height="125" fill="#B7C8D7" />
  <rect x="250" y="625" width="125" height="125" fill="#C65A56" />
  <rect x="375" y="625" width="125" height="125" fill="#D16267" />
  <rect x="500" y="625" width="125" height="125" fill="#7A2F32" />
  <rect x="625" y="625" width="125" height="125" fill="#0D1921" />
  <rect x="750" y="625" width="125" height="125" fill="#A51F25" />
  <rect x="875" y="625" width="125" height="125" fill="#858E9D" />
  <rect x="1000" y="625" width="125" height="125" fill="#B6A0A8" />
  <rect x="1125" y="625" width="125" height="125" fill="#CE7A8E" />
  <rect x="250" y="750" width="125" height="125" fill="#C5483C" />
  <rect x="375" y="750" width="125" height="125" fill="#ED663E" />
  <rect x="500" y="750" width="125" height="125" fill="#D38058" />
  <rect x="625" y="750" width="125" height="125" fill="#8DDBCA" />
  <rect x="750" y="750" width="125" height="125" fill="#A5A401" />
  <rect x="875" y="750" width="125" height="125" fill="#3D4144" />
  <rect x="1000" y="750" width="125" height="125" fill="#7E7579" />
  <rect x="1125" y="750" width="125" height="125" fill="#D7BEB6" />
  <rect x="250" y="875" width="125" height="125" fill="#B53624" />
  <rect x="375" y="875" width="125" height="125" fill="#432C24" />
  <rect x="500" y="875" width="125" height="125" fill="#AA0E1D" />
  <rect x="625" y="875" width="125" height="125" fill="#CC1B2A" />
  <rect x="750" y="875" width="125" height="125" fill="#444E60" />
  <rect x="875" y="875" width="125" height="125" fill="#3F3737" />
  <rect x="1000" y="875" width="125" height="125" fill="#A20F13" />
  <rect x="1125" y="875" width="125" height="125" fill="#D5C4BB" />
  <rect x="250" y="1000" width="125" height="125" fill="#BDE3D5" />
  <rect x="375" y="1000" width="125" height="125" fill="#F5C2A3" />
  <rect x="500" y="1000" width="125" height="125" fill="#E1C6A1" />
  <rect x="625" y="1000" width="125" height="125" fill="#9F5B52" />
  <rect x="750" y="1000" width="125" height="125" fill="#4A2D30" />
  <rect x="875" y="1000" width="125" height="125" fill="#BB5941" />
  <rect x="1000" y="1000" width="125" height="125" fill="#AA3D3D" />
  <rect x="1125" y="1000" width="125" height="125" fill="#111C1D" />
  <rect x="250" y="1125" width="125" height="125" fill="#484D54" />
  <rect x="375" y="1125" width="125" height="125" fill="#7D5852" />
  <rect x="500" y="1125" width="125" height="125" fill="#5E2E31" />
  <rect x="625" y="1125" width="125" height="125" fill="#B1827A" />
  <rect x="750" y="1125" width="125" height="125" fill="#46332A" />
  <rect x="875" y="1125" width="125" height="125" fill="#0E1114" />
  <rect x="1000" y="1125" width="125" height="125" fill="#A82F38" />
  <rect x="1125" y="1125" width="125" height="125" fill="#D4A99A" />
  <rect x="250" y="250" width="1000" height="1000" fill="none" stroke="#151515" stroke-opacity="0.16" stroke-width="2" />
</svg>
