<svg xmlns="http://www.w3.org/2000/svg" width="1500" height="1500" viewBox="0 0 1500 1500" shape-rendering="crispEdges" role="img" aria-labelledby="title desc">
  <title id="title">Echoes of Clarity and Confusion in Gold frame</title>
  <desc id="desc">Square Project artwork previewed in a gold frame.</desc>
  <defs>
    <linearGradient id="frameFace" x1="0" y1="0" x2="1" y2="1">
      <stop offset="0" stop-color="#FFF0A3" />
      <stop offset="0.32" stop-color="#F1D676" />
      <stop offset="0.68" stop-color="#CBA642" />
      <stop offset="1" stop-color="#8B6A1D" />
    </linearGradient>
    <filter id="artShadow" x="-10%" y="-10%" width="120%" height="120%">
      <feDropShadow dx="0" dy="20" stdDeviation="24" flood-color="#000000" flood-opacity="0.24" />
    </filter>
  </defs>
  <rect x="0" y="0" width="1500" height="1500" fill="#FFFFFF" />
  <rect x="0" y="0" width="1500" height="1500" fill="url(#frameFace)" />
  <rect x="120" y="120" width="1260" height="1260" fill="#F8F7F3" />
  <rect x="120" y="120" width="1260" height="1260" fill="none" stroke="#000000" stroke-opacity="0.14" stroke-width="10" />
  <rect x="250" y="250" width="1000" height="1000" fill="#FFFFFF" filter="url(#artShadow)" />
  <rect x="250" y="250" width="125" height="125" fill="#F5E3B5" />
  <rect x="375" y="250" width="125" height="125" fill="#E1CFC1" />
  <rect x="500" y="250" width="125" height="125" fill="#D9C0BE" />
  <rect x="625" y="250" width="125" height="125" fill="#C7B0A9" />
  <rect x="750" y="250" width="125" height="125" fill="#AFE1E0" />
  <rect x="875" y="250" width="125" height="125" fill="#B7DEEB" />
  <rect x="1000" y="250" width="125" height="125" fill="#D1D3D3" />
  <rect x="1125" y="250" width="125" height="125" fill="#F7F7F7" />
  <rect x="250" y="375" width="125" height="125" fill="#E1CFC1" />
  <rect x="375" y="375" width="125" height="125" fill="#F0DFD2" />
  <rect x="500" y="375" width="125" height="125" fill="#EDE4E9" />
  <rect x="625" y="375" width="125" height="125" fill="#BBC7CC" />
  <rect x="750" y="375" width="125" height="125" fill="#8800C0" />
  <rect x="875" y="375" width="125" height="125" fill="#D3B4AB" />
  <rect x="1000" y="375" width="125" height="125" fill="#B4D3DB" />
  <rect x="1125" y="375" width="125" height="125" fill="#F0F0F0" />
  <rect x="250" y="500" width="125" height="125" fill="#D9C0BE" />
  <rect x="375" y="500" width="125" height="125" fill="#F6E0C4" />
  <rect x="500" y="500" width="125" height="125" fill="#B4BAC1" />
  <rect x="625" y="500" width="125" height="125" fill="#F1EFEB" />
  <rect x="750" y="500" width="125" height="125" fill="#C0E0E4" />
  <rect x="875" y="500" width="125" height="125" fill="#F0D8D9" />
  <rect x="1000" y="500" width="125" height="125" fill="#E0CFC0" />
  <rect x="1125" y="500" width="125" height="125" fill="#F0F0F0" />
  <rect x="250" y="625" width="125" height="125" fill="#C7B0A9" />
  <rect x="375" y="625" width="125" height="125" fill="#BAC9D7" />
  <rect x="500" y="625" width="125" height="125" fill="#DBE0E0" />
  <rect x="625" y="625" width="125" height="125" fill="#F1E3F1" />
  <rect x="750" y="625" width="125" height="125" fill="#D0C5D3" />
  <rect x="875" y="625" width="125" height="125" fill="#90B7C2" />
  <rect x="1000" y="625" width="125" height="125" fill="#EFF4F2" />
  <rect x="1125" y="625" width="125" height="125" fill="#FAFAFA" />
  <rect x="250" y="750" width="125" height="125" fill="#AFE1E0" />
  <rect x="375" y="750" width="125" height="125" fill="#D1D3D3" />
  <rect x="500" y="750" width="125" height="125" fill="#D5E4E6" />
  <rect x="625" y="750" width="125" height="125" fill="#A3B4B6" />
  <rect x="750" y="750" width="125" height="125" fill="#5B8C9E" />
  <rect x="875" y="750" width="125" height="125" fill="#598A9B" />
  <rect x="1000" y="750" width="125" height="125" fill="#DFD5D7" />
  <rect x="1125" y="750" width="125" height="125" fill="#FBFBFB" />
  <rect x="250" y="875" width="125" height="125" fill="#B7DEEB" />
  <rect x="375" y="875" width="125" height="125" fill="#F4EEEB" />
  <rect x="500" y="875" width="125" height="125" fill="#B5C7CD" />
  <rect x="625" y="875" width="125" height="125" fill="#CDE5E9" />
  <rect x="750" y="875" width="125" height="125" fill="#4BBF8F" />
  <rect x="875" y="875" width="125" height="125" fill="#487D91" />
  <rect x="1000" y="875" width="125" height="125" fill="#FEFEFE" />
  <rect x="1125" y="875" width="125" height="125" fill="#FCFCFC" />
  <rect x="250" y="1000" width="125" height="125" fill="#D1D3D3" />
  <rect x="375" y="1000" width="125" height="125" fill="#E9EBF6" />
  <rect x="500" y="1000" width="125" height="125" fill="#8B9A9E" />
  <rect x="625" y="1000" width="125" height="125" fill="#C0C8D1" />
  <rect x="750" y="1000" width="125" height="125" fill="#78A6B3" />
  <rect x="875" y="1000" width="125" height="125" fill="#6B7278" />
  <rect x="1000" y="1000" width="125" height="125" fill="#FFFFFF" />
  <rect x="1125" y="1000" width="125" height="125" fill="#FFFFFF" />
  <rect x="250" y="1125" width="125" height="125" fill="#F7F7F7" />
  <rect x="375" y="1125" width="125" height="125" fill="#F5E3B5" />
  <rect x="500" y="1125" width="125" height="125" fill="#F0E0C5" />
  <rect x="625" y="1125" width="125" height="125" fill="#E3E3E3" />
  <rect x="750" y="1125" width="125" height="125" fill="#FFFFFF" />
  <rect x="875" y="1125" width="125" height="125" fill="#FFFFFF" />
  <rect x="1000" y="1125" width="125" height="125" fill="#FFFFFF" />
  <rect x="1125" y="1125" width="125" height="125" fill="#FFFFFF" />
  <rect x="250" y="250" width="1000" height="1000" fill="none" stroke="#151515" stroke-opacity="0.16" stroke-width="2" />
</svg>
