<svg xmlns="http://www.w3.org/2000/svg" width="1500" height="1500" viewBox="0 0 1500 1500" shape-rendering="crispEdges" role="img" aria-labelledby="title desc">
  <title id="title">Echoes of Contrast in White frame</title>
  <desc id="desc">Square Project artwork previewed in a white frame.</desc>
  <defs>
    <linearGradient id="frameFace" x1="0" y1="0" x2="1" y2="1">
      <stop offset="0" stop-color="#BEBEB8" />
      <stop offset="0.32" stop-color="#FFFFFF" />
      <stop offset="0.68" stop-color="#F8F8F5" />
      <stop offset="1" stop-color="#D5D5CF" />
    </linearGradient>
    <filter id="artShadow" x="-10%" y="-10%" width="120%" height="120%">
      <feDropShadow dx="0" dy="20" stdDeviation="24" flood-color="#000000" flood-opacity="0.24" />
    </filter>
  </defs>
  <rect x="0" y="0" width="1500" height="1500" fill="#FFFFFF" />
  <rect x="0" y="0" width="1500" height="1500" fill="url(#frameFace)" />
  <rect x="120" y="120" width="1260" height="1260" fill="#F8F7F3" />
  <rect x="120" y="120" width="1260" height="1260" fill="none" stroke="#000000" stroke-opacity="0.14" stroke-width="10" />
  <rect x="250" y="250" width="1000" height="1000" fill="#FFFFFF" filter="url(#artShadow)" />
  <rect x="250" y="250" width="125" height="125" fill="#4E2A12" />
  <rect x="375" y="250" width="125" height="125" fill="#7C3F00" />
  <rect x="500" y="250" width="125" height="125" fill="#241D1D" />
  <rect x="625" y="250" width="125" height="125" fill="#B05D00" />
  <rect x="750" y="250" width="125" height="125" fill="#876C00" />
  <rect x="875" y="250" width="125" height="125" fill="#D6A700" />
  <rect x="1000" y="250" width="125" height="125" fill="#572D12" />
  <rect x="1125" y="250" width="125" height="125" fill="#402000" />
  <rect x="250" y="375" width="125" height="125" fill="#321C1D" />
  <rect x="375" y="375" width="125" height="125" fill="#A64D15" />
  <rect x="500" y="375" width="125" height="125" fill="#B8A25D" />
  <rect x="625" y="375" width="125" height="125" fill="#412D24" />
  <rect x="750" y="375" width="125" height="125" fill="#3A241B" />
  <rect x="875" y="375" width="125" height="125" fill="#C88A2C" />
  <rect x="1000" y="375" width="125" height="125" fill="#A45A0F" />
  <rect x="1125" y="375" width="125" height="125" fill="#5D4A27" />
  <rect x="250" y="500" width="125" height="125" fill="#63412B" />
  <rect x="375" y="500" width="125" height="125" fill="#B72B00" />
  <rect x="500" y="500" width="125" height="125" fill="#592F1E" />
  <rect x="625" y="500" width="125" height="125" fill="#4A3120" />
  <rect x="750" y="500" width="125" height="125" fill="#1B0A0E" />
  <rect x="875" y="500" width="125" height="125" fill="#914726" />
  <rect x="1000" y="500" width="125" height="125" fill="#BF662C" />
  <rect x="1125" y="500" width="125" height="125" fill="#7A4303" />
  <rect x="250" y="625" width="125" height="125" fill="#181818" />
  <rect x="375" y="625" width="125" height="125" fill="#A04D38" />
  <rect x="500" y="625" width="125" height="125" fill="#F9F5BB" />
  <rect x="625" y="625" width="125" height="125" fill="#9F7F30" />
  <rect x="750" y="625" width="125" height="125" fill="#C25A1C" />
  <rect x="875" y="625" width="125" height="125" fill="#FFD733" />
  <rect x="1000" y="625" width="125" height="125" fill="#7C3C0D" />
  <rect x="1125" y="625" width="125" height="125" fill="#C87B67" />
  <rect x="250" y="750" width="125" height="125" fill="#290D0A" />
  <rect x="375" y="750" width="125" height="125" fill="#FFA26D" />
  <rect x="500" y="750" width="125" height="125" fill="#D79A1A" />
  <rect x="625" y="750" width="125" height="125" fill="#C65010" />
  <rect x="750" y="750" width="125" height="125" fill="#BF4B30" />
  <rect x="875" y="750" width="125" height="125" fill="#FBF6D9" />
  <rect x="1000" y="750" width="125" height="125" fill="#442B20" />
  <rect x="1125" y="750" width="125" height="125" fill="#BF3813" />
  <rect x="250" y="875" width="125" height="125" fill="#200000" />
  <rect x="375" y="875" width="125" height="125" fill="#123D04" />
  <rect x="500" y="875" width="125" height="125" fill="#4E2923" />
  <rect x="625" y="875" width="125" height="125" fill="#C6863A" />
  <rect x="750" y="875" width="125" height="125" fill="#B27C00" />
  <rect x="875" y="875" width="125" height="125" fill="#7B3531" />
  <rect x="1000" y="875" width="125" height="125" fill="#EFAD6E" />
  <rect x="1125" y="875" width="125" height="125" fill="#C05236" />
  <rect x="250" y="1000" width="125" height="125" fill="#1C1F1F" />
  <rect x="375" y="1000" width="125" height="125" fill="#938E76" />
  <rect x="500" y="1000" width="125" height="125" fill="#F9D8B3" />
  <rect x="625" y="1000" width="125" height="125" fill="#8B4E3E" />
  <rect x="750" y="1000" width="125" height="125" fill="#3E1B1B" />
  <rect x="875" y="1000" width="125" height="125" fill="#CA9A2A" />
  <rect x="1000" y="1000" width="125" height="125" fill="#ECA582" />
  <rect x="1125" y="1000" width="125" height="125" fill="#5D3F1A" />
  <rect x="250" y="1125" width="125" height="125" fill="#140B0B" />
  <rect x="375" y="1125" width="125" height="125" fill="#2A2C30" />
  <rect x="500" y="1125" width="125" height="125" fill="#F1E7DB" />
  <rect x="625" y="1125" width="125" height="125" fill="#290000" />
  <rect x="750" y="1125" width="125" height="125" fill="#E1A633" />
  <rect x="875" y="1125" width="125" height="125" fill="#A23F3F" />
  <rect x="1000" y="1125" width="125" height="125" fill="#621E20" />
  <rect x="1125" y="1125" width="125" height="125" fill="#000000" />
  <rect x="250" y="250" width="1000" height="1000" fill="none" stroke="#151515" stroke-opacity="0.16" stroke-width="2" />
</svg>
