<svg xmlns="http://www.w3.org/2000/svg" width="1500" height="1500" viewBox="0 0 1500 1500" shape-rendering="crispEdges" role="img" aria-labelledby="title desc">
  <title id="title">Tension of Duality in Natural frame</title>
  <desc id="desc">Square Project artwork previewed in a natural frame.</desc>
  <rect x="0" y="0" width="1500" height="1500" fill="#FFFFFF" />
  <image href="https://mysquareart.com/frames/natural.jpg" x="0" y="0" width="1500" height="1500" preserveAspectRatio="xMidYMid meet" />
  <rect x="250" y="250" width="1000" height="1000" fill="#FFFFFF" />
  <rect x="250" y="250" width="125" height="125" fill="#000000" />
  <rect x="375" y="250" width="125" height="125" fill="#292B2C" />
  <rect x="500" y="250" width="125" height="125" fill="#3A3D3E" />
  <rect x="625" y="250" width="125" height="125" fill="#4D4F50" />
  <rect x="750" y="250" width="125" height="125" fill="#4C4E51" />
  <rect x="875" y="250" width="125" height="125" fill="#D3B8A0" />
  <rect x="1000" y="250" width="125" height="125" fill="#B2DB99" />
  <rect x="1125" y="250" width="125" height="125" fill="#E0D2B3" />
  <rect x="250" y="375" width="125" height="125" fill="#1B1E22" />
  <rect x="375" y="375" width="125" height="125" fill="#111B1F" />
  <rect x="500" y="375" width="125" height="125" fill="#2D2F33" />
  <rect x="625" y="375" width="125" height="125" fill="#3D4245" />
  <rect x="750" y="375" width="125" height="125" fill="#3F464A" />
  <rect x="875" y="375" width="125" height="125" fill="#E2B97C" />
  <rect x="1000" y="375" width="125" height="125" fill="#AAE1B5" />
  <rect x="1125" y="375" width="125" height="125" fill="#65843C" />
  <rect x="250" y="500" width="125" height="125" fill="#141A1C" />
  <rect x="375" y="500" width="125" height="125" fill="#323638" />
  <rect x="500" y="500" width="125" height="125" fill="#404546" />
  <rect x="625" y="500" width="125" height="125" fill="#434C52" />
  <rect x="750" y="500" width="125" height="125" fill="#D5C8A9" />
  <rect x="875" y="500" width="125" height="125" fill="#B5CE9A" />
  <rect x="1000" y="500" width="125" height="125" fill="#B4D6AD" />
  <rect x="1125" y="500" width="125" height="125" fill="#CAD8B8" />
  <rect x="250" y="625" width="125" height="125" fill="#303134" />
  <rect x="375" y="625" width="125" height="125" fill="#354A5E" />
  <rect x="500" y="625" width="125" height="125" fill="#456870" />
  <rect x="625" y="625" width="125" height="125" fill="#5D7C88" />
  <rect x="750" y="625" width="125" height="125" fill="#5F9A6B" />
  <rect x="875" y="625" width="125" height="125" fill="#D1BC8F" />
  <rect x="1000" y="625" width="125" height="125" fill="#AEE9B5" />
  <rect x="1125" y="625" width="125" height="125" fill="#7EC48D" />
  <rect x="250" y="750" width="125" height="125" fill="#1C2123" />
  <rect x="375" y="750" width="125" height="125" fill="#232D38" />
  <rect x="500" y="750" width="125" height="125" fill="#315063" />
  <rect x="625" y="750" width="125" height="125" fill="#4E7782" />
  <rect x="750" y="750" width="125" height="125" fill="#94C3A6" />
  <rect x="875" y="750" width="125" height="125" fill="#B0C5A8" />
  <rect x="1000" y="750" width="125" height="125" fill="#A4DB96" />
  <rect x="1125" y="750" width="125" height="125" fill="#C9ED88" />
  <rect x="250" y="875" width="125" height="125" fill="#303232" />
  <rect x="375" y="875" width="125" height="125" fill="#1E2C34" />
  <rect x="500" y="875" width="125" height="125" fill="#3E5361" />
  <rect x="625" y="875" width="125" height="125" fill="#5A777C" />
  <rect x="750" y="875" width="125" height="125" fill="#A6CDF7" />
  <rect x="875" y="875" width="125" height="125" fill="#B9EDC1" />
  <rect x="1000" y="875" width="125" height="125" fill="#C7E8A4" />
  <rect x="1125" y="875" width="125" height="125" fill="#B7E8B4" />
  <rect x="250" y="1000" width="125" height="125" fill="#111213" />
  <rect x="375" y="1000" width="125" height="125" fill="#132328" />
  <rect x="500" y="1000" width="125" height="125" fill="#2D4756" />
  <rect x="625" y="1000" width="125" height="125" fill="#3A5A6B" />
  <rect x="750" y="1000" width="125" height="125" fill="#2B8D90" />
  <rect x="875" y="1000" width="125" height="125" fill="#D1EAA7" />
  <rect x="1000" y="1000" width="125" height="125" fill="#C7EDBA" />
  <rect x="1125" y="1000" width="125" height="125" fill="#A2DB8E" />
  <rect x="250" y="1125" width="125" height="125" fill="#202124" />
  <rect x="375" y="1125" width="125" height="125" fill="#131A1B" />
  <rect x="500" y="1125" width="125" height="125" fill="#2B3D49" />
  <rect x="625" y="1125" width="125" height="125" fill="#E2C9A2" />
  <rect x="750" y="1125" width="125" height="125" fill="#B7C5A8" />
  <rect x="875" y="1125" width="125" height="125" fill="#BAE9C5" />
  <rect x="1000" y="1125" width="125" height="125" fill="#9DCB88" />
  <rect x="1125" y="1125" width="125" height="125" fill="#8EC8B5" />
  <rect x="250" y="250" width="1000" height="1000" fill="none" stroke="#151515" stroke-opacity="0.16" stroke-width="2" />
</svg>
