<svg xmlns="http://www.w3.org/2000/svg" width="1500" height="1500" viewBox="0 0 1500 1500" shape-rendering="crispEdges" role="img" aria-labelledby="title desc">
  <title id="title">Echoes of Signal in Black frame</title>
  <desc id="desc">Square Project artwork previewed in a black frame.</desc>
  <defs>
    <linearGradient id="frameFace" x1="0" y1="0" x2="1" y2="1">
      <stop offset="0" stop-color="#6A6A6A" />
      <stop offset="0.32" stop-color="#343434" />
      <stop offset="0.68" stop-color="#111111" />
      <stop offset="1" stop-color="#050505" />
    </linearGradient>
    <filter id="artShadow" x="-10%" y="-10%" width="120%" height="120%">
      <feDropShadow dx="0" dy="20" stdDeviation="24" flood-color="#000000" flood-opacity="0.24" />
    </filter>
  </defs>
  <rect x="0" y="0" width="1500" height="1500" fill="#FFFFFF" />
  <rect x="0" y="0" width="1500" height="1500" fill="url(#frameFace)" />
  <rect x="120" y="120" width="1260" height="1260" fill="#F8F7F3" />
  <rect x="120" y="120" width="1260" height="1260" fill="none" stroke="#000000" stroke-opacity="0.14" stroke-width="10" />
  <rect x="250" y="250" width="1000" height="1000" fill="#FFFFFF" filter="url(#artShadow)" />
  <rect x="250" y="250" width="125" height="125" fill="#000000" />
  <rect x="375" y="250" width="125" height="125" fill="#101010" />
  <rect x="500" y="250" width="125" height="125" fill="#202030" />
  <rect x="625" y="250" width="125" height="125" fill="#303040" />
  <rect x="750" y="250" width="125" height="125" fill="#404050" />
  <rect x="875" y="250" width="125" height="125" fill="#00555A" />
  <rect x="1000" y="250" width="125" height="125" fill="#6A7F88" />
  <rect x="1125" y="250" width="125" height="125" fill="#7FB2CB" />
  <rect x="250" y="375" width="125" height="125" fill="#000000" />
  <rect x="375" y="375" width="125" height="125" fill="#0E1A1C" />
  <rect x="500" y="375" width="125" height="125" fill="#1E2B2E" />
  <rect x="625" y="375" width="125" height="125" fill="#393C3F" />
  <rect x="750" y="375" width="125" height="125" fill="#4A4646" />
  <rect x="875" y="375" width="125" height="125" fill="#5D555A" />
  <rect x="1000" y="375" width="125" height="125" fill="#688285" />
  <rect x="1125" y="375" width="125" height="125" fill="#8B9FA8" />
  <rect x="250" y="500" width="125" height="125" fill="#000000" />
  <rect x="375" y="500" width="125" height="125" fill="#1A1D1E" />
  <rect x="500" y="500" width="125" height="125" fill="#2E2D2F" />
  <rect x="625" y="500" width="125" height="125" fill="#4F4D4D" />
  <rect x="750" y="500" width="125" height="125" fill="#5C6063" />
  <rect x="875" y="500" width="125" height="125" fill="#73B5BC" />
  <rect x="1000" y="500" width="125" height="125" fill="#99C4C4" />
  <rect x="1125" y="500" width="125" height="125" fill="#A8E1E1" />
  <rect x="250" y="625" width="125" height="125" fill="#0A0D0E" />
  <rect x="375" y="625" width="125" height="125" fill="#1F252A" />
  <rect x="500" y="625" width="125" height="125" fill="#2A353B" />
  <rect x="625" y="625" width="125" height="125" fill="#4B4A49" />
  <rect x="750" y="625" width="125" height="125" fill="#699A96" />
  <rect x="875" y="625" width="125" height="125" fill="#7C9FB5" />
  <rect x="1000" y="625" width="125" height="125" fill="#C8E2E1" />
  <rect x="1125" y="625" width="125" height="125" fill="#D4EBE3" />
  <rect x="250" y="750" width="125" height="125" fill="#000000" />
  <rect x="375" y="750" width="125" height="125" fill="#101A1B" />
  <rect x="500" y="750" width="125" height="125" fill="#242B2F" />
  <rect x="625" y="750" width="125" height="125" fill="#3E3F45" />
  <rect x="750" y="750" width="125" height="125" fill="#4D555A" />
  <rect x="875" y="750" width="125" height="125" fill="#78BEC3" />
  <rect x="1000" y="750" width="125" height="125" fill="#80D5DA" />
  <rect x="1125" y="750" width="125" height="125" fill="#FFFFFF" />
  <rect x="250" y="875" width="125" height="125" fill="#0D0F10" />
  <rect x="375" y="875" width="125" height="125" fill="#203030" />
  <rect x="500" y="875" width="125" height="125" fill="#2B3C3C" />
  <rect x="625" y="875" width="125" height="125" fill="#394C4B" />
  <rect x="750" y="875" width="125" height="125" fill="#4B5A5E" />
  <rect x="875" y="875" width="125" height="125" fill="#57C1CD" />
  <rect x="1000" y="875" width="125" height="125" fill="#8DE3E6" />
  <rect x="1125" y="875" width="125" height="125" fill="#B0E8E8" />
  <rect x="250" y="1000" width="125" height="125" fill="#1C1F20" />
  <rect x="375" y="1000" width="125" height="125" fill="#283536" />
  <rect x="500" y="1000" width="125" height="125" fill="#484B4C" />
  <rect x="625" y="1000" width="125" height="125" fill="#606265" />
  <rect x="750" y="1000" width="125" height="125" fill="#7A8F97" />
  <rect x="875" y="1000" width="125" height="125" fill="#A0C8D6" />
  <rect x="1000" y="1000" width="125" height="125" fill="#B7E2E2" />
  <rect x="1125" y="1000" width="125" height="125" fill="#D7FCFC" />
  <rect x="250" y="1125" width="125" height="125" fill="#000000" />
  <rect x="375" y="1125" width="125" height="125" fill="#101010" />
  <rect x="500" y="1125" width="125" height="125" fill="#222D2D" />
  <rect x="625" y="1125" width="125" height="125" fill="#343C4B" />
  <rect x="750" y="1125" width="125" height="125" fill="#465F6E" />
  <rect x="875" y="1125" width="125" height="125" fill="#A5C7C6" />
  <rect x="1000" y="1125" width="125" height="125" fill="#C8D6D7" />
  <rect x="1125" y="1125" width="125" height="125" fill="#E2F1F1" />
  <rect x="250" y="250" width="1000" height="1000" fill="none" stroke="#151515" stroke-opacity="0.16" stroke-width="2" />
</svg>
