<svg xmlns="http://www.w3.org/2000/svg" width="1500" height="1500" viewBox="0 0 1500 1500" shape-rendering="crispEdges" role="img" aria-labelledby="title desc">
  <title id="title">Echoes of Stability in Black frame</title>
  <desc id="desc">Square Project artwork previewed in a black frame.</desc>
  <defs>
    <linearGradient id="frameFace" x1="0" y1="0" x2="1" y2="1">
      <stop offset="0" stop-color="#6A6A6A" />
      <stop offset="0.32" stop-color="#343434" />
      <stop offset="0.68" stop-color="#111111" />
      <stop offset="1" stop-color="#050505" />
    </linearGradient>
    <filter id="artShadow" x="-10%" y="-10%" width="120%" height="120%">
      <feDropShadow dx="0" dy="20" stdDeviation="24" flood-color="#000000" flood-opacity="0.24" />
    </filter>
  </defs>
  <rect x="0" y="0" width="1500" height="1500" fill="#FFFFFF" />
  <rect x="0" y="0" width="1500" height="1500" fill="url(#frameFace)" />
  <rect x="120" y="120" width="1260" height="1260" fill="#F8F7F3" />
  <rect x="120" y="120" width="1260" height="1260" fill="none" stroke="#000000" stroke-opacity="0.14" stroke-width="10" />
  <rect x="250" y="250" width="1000" height="1000" fill="#FFFFFF" filter="url(#artShadow)" />
  <rect x="250" y="250" width="125" height="125" fill="#B0004D" />
  <rect x="375" y="250" width="125" height="125" fill="#6A2C2E" />
  <rect x="500" y="250" width="125" height="125" fill="#D0B0B4" />
  <rect x="625" y="250" width="125" height="125" fill="#603F48" />
  <rect x="750" y="250" width="125" height="125" fill="#CC4E55" />
  <rect x="875" y="250" width="125" height="125" fill="#E7C4C8" />
  <rect x="1000" y="250" width="125" height="125" fill="#B1C8D6" />
  <rect x="1125" y="250" width="125" height="125" fill="#A4B3B5" />
  <rect x="250" y="375" width="125" height="125" fill="#E2B2B7" />
  <rect x="375" y="375" width="125" height="125" fill="#5F181A" />
  <rect x="500" y="375" width="125" height="125" fill="#542A2F" />
  <rect x="625" y="375" width="125" height="125" fill="#CC3A41" />
  <rect x="750" y="375" width="125" height="125" fill="#9E646A" />
  <rect x="875" y="375" width="125" height="125" fill="#D6E0E1" />
  <rect x="1000" y="375" width="125" height="125" fill="#B1B6B8" />
  <rect x="1125" y="375" width="125" height="125" fill="#A7C2C5" />
  <rect x="250" y="500" width="125" height="125" fill="#5C0C10" />
  <rect x="375" y="500" width="125" height="125" fill="#D42329" />
  <rect x="500" y="500" width="125" height="125" fill="#8A7C80" />
  <rect x="625" y="500" width="125" height="125" fill="#C8C8D4" />
  <rect x="750" y="500" width="125" height="125" fill="#A8B4B5" />
  <rect x="875" y="500" width="125" height="125" fill="#D8C9CD" />
  <rect x="1000" y="500" width="125" height="125" fill="#D5B8B9" />
  <rect x="1125" y="500" width="125" height="125" fill="#E1D2D5" />
  <rect x="250" y="625" width="125" height="125" fill="#5A1D24" />
  <rect x="375" y="625" width="125" height="125" fill="#7C161A" />
  <rect x="500" y="625" width="125" height="125" fill="#D62E3F" />
  <rect x="625" y="625" width="125" height="125" fill="#C93033" />
  <rect x="750" y="625" width="125" height="125" fill="#EDDBE4" />
  <rect x="875" y="625" width="125" height="125" fill="#A0B2B5" />
  <rect x="1000" y="625" width="125" height="125" fill="#BCC4C6" />
  <rect x="1125" y="625" width="125" height="125" fill="#9DA5A7" />
  <rect x="250" y="750" width="125" height="125" fill="#D03035" />
  <rect x="375" y="750" width="125" height="125" fill="#F9ADAE" />
  <rect x="500" y="750" width="125" height="125" fill="#E3B0B4" />
  <rect x="625" y="750" width="125" height="125" fill="#D5C6C1" />
  <rect x="750" y="750" width="125" height="125" fill="#C4C1C0" />
  <rect x="875" y="750" width="125" height="125" fill="#C2D4D4" />
  <rect x="1000" y="750" width="125" height="125" fill="#465B61" />
  <rect x="1125" y="750" width="125" height="125" fill="#A0C2C9" />
  <rect x="250" y="875" width="125" height="125" fill="#4A0E14" />
  <rect x="375" y="875" width="125" height="125" fill="#BB3D41" />
  <rect x="500" y="875" width="125" height="125" fill="#B7B7B7" />
  <rect x="625" y="875" width="125" height="125" fill="#CAD0D1" />
  <rect x="750" y="875" width="125" height="125" fill="#6D82B3" />
  <rect x="875" y="875" width="125" height="125" fill="#B1D6D8" />
  <rect x="1000" y="875" width="125" height="125" fill="#E6B8B9" />
  <rect x="1125" y="875" width="125" height="125" fill="#9FAEC1" />
  <rect x="250" y="1000" width="125" height="125" fill="#7B3E46" />
  <rect x="375" y="1000" width="125" height="125" fill="#C46C71" />
  <rect x="500" y="1000" width="125" height="125" fill="#D1B4B3" />
  <rect x="625" y="1000" width="125" height="125" fill="#5C6B77" />
  <rect x="750" y="1000" width="125" height="125" fill="#A3A1A3" />
  <rect x="875" y="1000" width="125" height="125" fill="#BEC9C6" />
  <rect x="1000" y="1000" width="125" height="125" fill="#EBE0E1" />
  <rect x="1125" y="1000" width="125" height="125" fill="#BFCCCF" />
  <rect x="250" y="1125" width="125" height="125" fill="#D9B6B5" />
  <rect x="375" y="1125" width="125" height="125" fill="#F1B2B0" />
  <rect x="500" y="1125" width="125" height="125" fill="#5D1922" />
  <rect x="625" y="1125" width="125" height="125" fill="#320D10" />
  <rect x="750" y="1125" width="125" height="125" fill="#7D3643" />
  <rect x="875" y="1125" width="125" height="125" fill="#C4D4CE" />
  <rect x="1000" y="1125" width="125" height="125" fill="#E5E3E4" />
  <rect x="1125" y="1125" width="125" height="125" fill="#EDE7E8" />
  <rect x="250" y="250" width="1000" height="1000" fill="none" stroke="#151515" stroke-opacity="0.16" stroke-width="2" />
</svg>
