<svg xmlns="http://www.w3.org/2000/svg" width="1500" height="1500" viewBox="0 0 1500 1500" shape-rendering="crispEdges" role="img" aria-labelledby="title desc">
  <title id="title">Tension Between Shadows in White frame</title>
  <desc id="desc">Square Project artwork previewed in a white frame.</desc>
  <defs>
    <linearGradient id="frameFace" x1="0" y1="0" x2="1" y2="1">
      <stop offset="0" stop-color="#BEBEB8" />
      <stop offset="0.32" stop-color="#FFFFFF" />
      <stop offset="0.68" stop-color="#F8F8F5" />
      <stop offset="1" stop-color="#D5D5CF" />
    </linearGradient>
    <filter id="artShadow" x="-10%" y="-10%" width="120%" height="120%">
      <feDropShadow dx="0" dy="20" stdDeviation="24" flood-color="#000000" flood-opacity="0.24" />
    </filter>
  </defs>
  <rect x="0" y="0" width="1500" height="1500" fill="#FFFFFF" />
  <rect x="0" y="0" width="1500" height="1500" fill="url(#frameFace)" />
  <rect x="120" y="120" width="1260" height="1260" fill="#F8F7F3" />
  <rect x="120" y="120" width="1260" height="1260" fill="none" stroke="#000000" stroke-opacity="0.14" stroke-width="10" />
  <rect x="250" y="250" width="1000" height="1000" fill="#FFFFFF" filter="url(#artShadow)" />
  <rect x="250" y="250" width="125" height="125" fill="#2A3749" />
  <rect x="375" y="250" width="125" height="125" fill="#353A4C" />
  <rect x="500" y="250" width="125" height="125" fill="#4C5B7F" />
  <rect x="625" y="250" width="125" height="125" fill="#A8C4D4" />
  <rect x="750" y="250" width="125" height="125" fill="#E2E9F0" />
  <rect x="875" y="250" width="125" height="125" fill="#C4D8E0" />
  <rect x="1000" y="250" width="125" height="125" fill="#A8BCC5" />
  <rect x="1125" y="250" width="125" height="125" fill="#7B9CBA" />
  <rect x="250" y="375" width="125" height="125" fill="#1B2A3A" />
  <rect x="375" y="375" width="125" height="125" fill="#273141" />
  <rect x="500" y="375" width="125" height="125" fill="#3D556B" />
  <rect x="625" y="375" width="125" height="125" fill="#B5D1D7" />
  <rect x="750" y="375" width="125" height="125" fill="#FFFFFF" />
  <rect x="875" y="375" width="125" height="125" fill="#5D7C82" />
  <rect x="1000" y="375" width="125" height="125" fill="#4A6870" />
  <rect x="1125" y="375" width="125" height="125" fill="#375052" />
  <rect x="250" y="500" width="125" height="125" fill="#2B3A4E" />
  <rect x="375" y="500" width="125" height="125" fill="#4C5B7F" />
  <rect x="500" y="500" width="125" height="125" fill="#D1E2E8" />
  <rect x="625" y="500" width="125" height="125" fill="#B3C9D4" />
  <rect x="750" y="500" width="125" height="125" fill="#7FA8B4" />
  <rect x="875" y="500" width="125" height="125" fill="#C7DAD6" />
  <rect x="1000" y="500" width="125" height="125" fill="#1E272C" />
  <rect x="1125" y="500" width="125" height="125" fill="#171E22" />
  <rect x="250" y="625" width="125" height="125" fill="#1E2B3D" />
  <rect x="375" y="625" width="125" height="125" fill="#4C6A96" />
  <rect x="500" y="625" width="125" height="125" fill="#DEF2F8" />
  <rect x="625" y="625" width="125" height="125" fill="#CEEDFA" />
  <rect x="750" y="625" width="125" height="125" fill="#E3F2F9" />
  <rect x="875" y="625" width="125" height="125" fill="#A3C9D7" />
  <rect x="1000" y="625" width="125" height="125" fill="#617B8B" />
  <rect x="1125" y="625" width="125" height="125" fill="#1A232A" />
  <rect x="250" y="750" width="125" height="125" fill="#2D2F34" />
  <rect x="375" y="750" width="125" height="125" fill="#4D7C9A" />
  <rect x="500" y="750" width="125" height="125" fill="#A6C5D5" />
  <rect x="625" y="750" width="125" height="125" fill="#D4E8E8" />
  <rect x="750" y="750" width="125" height="125" fill="#C4E3E3" />
  <rect x="875" y="750" width="125" height="125" fill="#B0D7D7" />
  <rect x="1000" y="750" width="125" height="125" fill="#6D9BB3" />
  <rect x="1125" y="750" width="125" height="125" fill="#14303D" />
  <rect x="250" y="875" width="125" height="125" fill="#222A35" />
  <rect x="375" y="875" width="125" height="125" fill="#354B72" />
  <rect x="500" y="875" width="125" height="125" fill="#587FA1" />
  <rect x="625" y="875" width="125" height="125" fill="#98C4CC" />
  <rect x="750" y="875" width="125" height="125" fill="#A8E6E8" />
  <rect x="875" y="875" width="125" height="125" fill="#B2D7D9" />
  <rect x="1000" y="875" width="125" height="125" fill="#6D9098" />
  <rect x="1125" y="875" width="125" height="125" fill="#2B3945" />
  <rect x="250" y="1000" width="125" height="125" fill="#3B4248" />
  <rect x="375" y="1000" width="125" height="125" fill="#5B6B8E" />
  <rect x="500" y="1000" width="125" height="125" fill="#7D8FAE" />
  <rect x="625" y="1000" width="125" height="125" fill="#B5D2D3" />
  <rect x="750" y="1000" width="125" height="125" fill="#D4E7E9" />
  <rect x="875" y="1000" width="125" height="125" fill="#95B9C2" />
  <rect x="1000" y="1000" width="125" height="125" fill="#3C515C" />
  <rect x="1125" y="1000" width="125" height="125" fill="#18272E" />
  <rect x="250" y="1125" width="125" height="125" fill="#1C2B37" />
  <rect x="375" y="1125" width="125" height="125" fill="#323D4C" />
  <rect x="500" y="1125" width="125" height="125" fill="#4E6B85" />
  <rect x="625" y="1125" width="125" height="125" fill="#D0E2E6" />
  <rect x="750" y="1125" width="125" height="125" fill="#B5CED5" />
  <rect x="875" y="1125" width="125" height="125" fill="#3A4D53" />
  <rect x="1000" y="1125" width="125" height="125" fill="#1C262D" />
  <rect x="1125" y="1125" width="125" height="125" fill="#0D161A" />
  <rect x="250" y="250" width="1000" height="1000" fill="none" stroke="#151515" stroke-opacity="0.16" stroke-width="2" />
</svg>
