<svg xmlns="http://www.w3.org/2000/svg" width="1500" height="1500" viewBox="0 0 1500 1500" shape-rendering="crispEdges" role="img" aria-labelledby="title desc">
  <title id="title">Rhythms of Release in Natural frame</title>
  <desc id="desc">Square Project artwork previewed in a natural frame.</desc>
  <rect x="0" y="0" width="1500" height="1500" fill="#FFFFFF" />
  <image href="https://mysquareart.com/frames/natural.jpg" x="0" y="0" width="1500" height="1500" preserveAspectRatio="xMidYMid meet" />
  <rect x="250" y="250" width="1000" height="1000" fill="#FFFFFF" />
  <rect x="250" y="250" width="125" height="125" fill="#0F4C81" />
  <rect x="375" y="250" width="125" height="125" fill="#A7C6ED" />
  <rect x="500" y="250" width="125" height="125" fill="#29739C" />
  <rect x="625" y="250" width="125" height="125" fill="#60A3D8" />
  <rect x="750" y="250" width="125" height="125" fill="#D8E9F5" />
  <rect x="875" y="250" width="125" height="125" fill="#A9D6E5" />
  <rect x="1000" y="250" width="125" height="125" fill="#D1E0E0" />
  <rect x="1125" y="250" width="125" height="125" fill="#FFB300" />
  <rect x="250" y="375" width="125" height="125" fill="#273C32" />
  <rect x="375" y="375" width="125" height="125" fill="#CAFF00" />
  <rect x="500" y="375" width="125" height="125" fill="#5CDB95" />
  <rect x="625" y="375" width="125" height="125" fill="#0F4C81" />
  <rect x="750" y="375" width="125" height="125" fill="#A7C6ED" />
  <rect x="875" y="375" width="125" height="125" fill="#F9AFAF" />
  <rect x="1000" y="375" width="125" height="125" fill="#FF6F61" />
  <rect x="1125" y="375" width="125" height="125" fill="#FFB300" />
  <rect x="250" y="500" width="125" height="125" fill="#FCF6F7" />
  <rect x="375" y="500" width="125" height="125" fill="#5B2E91" />
  <rect x="500" y="500" width="125" height="125" fill="#957DAD" />
  <rect x="625" y="500" width="125" height="125" fill="#D8E9F5" />
  <rect x="750" y="500" width="125" height="125" fill="#FFC857" />
  <rect x="875" y="500" width="125" height="125" fill="#232D61" />
  <rect x="1000" y="500" width="125" height="125" fill="#C64646" />
  <rect x="1125" y="500" width="125" height="125" fill="#FFB300" />
  <rect x="250" y="625" width="125" height="125" fill="#F7D9C6" />
  <rect x="375" y="625" width="125" height="125" fill="#B2D3C2" />
  <rect x="500" y="625" width="125" height="125" fill="#5C3B52" />
  <rect x="625" y="625" width="125" height="125" fill="#A8DADC" />
  <rect x="750" y="625" width="125" height="125" fill="#D9BF77" />
  <rect x="875" y="625" width="125" height="125" fill="#07575B" />
  <rect x="1000" y="625" width="125" height="125" fill="#1E3D58" />
  <rect x="1125" y="625" width="125" height="125" fill="#FFB300" />
  <rect x="250" y="750" width="125" height="125" fill="#5A0F0F" />
  <rect x="375" y="750" width="125" height="125" fill="#FCE1D5" />
  <rect x="500" y="750" width="125" height="125" fill="#F7C6A8" />
  <rect x="625" y="750" width="125" height="125" fill="#2D4777" />
  <rect x="750" y="750" width="125" height="125" fill="#D9D1B0" />
  <rect x="875" y="750" width="125" height="125" fill="#B4B8B1" />
  <rect x="1000" y="750" width="125" height="125" fill="#FF5733" />
  <rect x="1125" y="750" width="125" height="125" fill="#FFB300" />
  <rect x="250" y="875" width="125" height="125" fill="#FFE156" />
  <rect x="375" y="875" width="125" height="125" fill="#FFC9DE" />
  <rect x="500" y="875" width="125" height="125" fill="#FF6F61" />
  <rect x="625" y="875" width="125" height="125" fill="#283618" />
  <rect x="750" y="875" width="125" height="125" fill="#8D99AE" />
  <rect x="875" y="875" width="125" height="125" fill="#FFC857" />
  <rect x="1000" y="875" width="125" height="125" fill="#F9AFAF" />
  <rect x="1125" y="875" width="125" height="125" fill="#FFB300" />
  <rect x="250" y="1000" width="125" height="125" fill="#3A4451" />
  <rect x="375" y="1000" width="125" height="125" fill="#E7B7D5" />
  <rect x="500" y="1000" width="125" height="125" fill="#B4E7CB" />
  <rect x="625" y="1000" width="125" height="125" fill="#3C340B" />
  <rect x="750" y="1000" width="125" height="125" fill="#B95B7C" />
  <rect x="875" y="1000" width="125" height="125" fill="#D6E9D0" />
  <rect x="1000" y="1000" width="125" height="125" fill="#F8D8D6" />
  <rect x="1125" y="1000" width="125" height="125" fill="#FFB300" />
  <rect x="250" y="1125" width="125" height="125" fill="#004D40" />
  <rect x="375" y="1125" width="125" height="125" fill="#E08E45" />
  <rect x="500" y="1125" width="125" height="125" fill="#F6D55C" />
  <rect x="625" y="1125" width="125" height="125" fill="#E63946" />
  <rect x="750" y="1125" width="125" height="125" fill="#F9C74F" />
  <rect x="875" y="1125" width="125" height="125" fill="#823C30" />
  <rect x="1000" y="1125" width="125" height="125" fill="#FFB300" />
  <rect x="1125" y="1125" width="125" height="125" fill="#FFB300" />
  <rect x="250" y="250" width="1000" height="1000" fill="none" stroke="#151515" stroke-opacity="0.16" stroke-width="2" />
</svg>
