<svg xmlns="http://www.w3.org/2000/svg" width="1500" height="1500" viewBox="0 0 1500 1500" shape-rendering="crispEdges" role="img" aria-labelledby="title desc">
  <title id="title">Weight of Resilience in White frame</title>
  <desc id="desc">Square Project artwork previewed in a white frame.</desc>
  <defs>
    <linearGradient id="frameFace" x1="0" y1="0" x2="1" y2="1">
      <stop offset="0" stop-color="#BEBEB8" />
      <stop offset="0.32" stop-color="#FFFFFF" />
      <stop offset="0.68" stop-color="#F8F8F5" />
      <stop offset="1" stop-color="#D5D5CF" />
    </linearGradient>
    <filter id="artShadow" x="-10%" y="-10%" width="120%" height="120%">
      <feDropShadow dx="0" dy="20" stdDeviation="24" flood-color="#000000" flood-opacity="0.24" />
    </filter>
  </defs>
  <rect x="0" y="0" width="1500" height="1500" fill="#FFFFFF" />
  <rect x="0" y="0" width="1500" height="1500" fill="url(#frameFace)" />
  <rect x="120" y="120" width="1260" height="1260" fill="#F8F7F3" />
  <rect x="120" y="120" width="1260" height="1260" fill="none" stroke="#000000" stroke-opacity="0.14" stroke-width="10" />
  <rect x="250" y="250" width="1000" height="1000" fill="#FFFFFF" filter="url(#artShadow)" />
  <rect x="250" y="250" width="125" height="125" fill="#4B3C31" />
  <rect x="375" y="250" width="125" height="125" fill="#826B50" />
  <rect x="500" y="250" width="125" height="125" fill="#FFD94D" />
  <rect x="625" y="250" width="125" height="125" fill="#E1A84E" />
  <rect x="750" y="250" width="125" height="125" fill="#5C4B3A" />
  <rect x="875" y="250" width="125" height="125" fill="#A67A5A" />
  <rect x="1000" y="250" width="125" height="125" fill="#7EA43C" />
  <rect x="1125" y="250" width="125" height="125" fill="#C9B99F" />
  <rect x="250" y="375" width="125" height="125" fill="#545B44" />
  <rect x="375" y="375" width="125" height="125" fill="#C19A84" />
  <rect x="500" y="375" width="125" height="125" fill="#FFAB3E" />
  <rect x="625" y="375" width="125" height="125" fill="#AF7C53" />
  <rect x="750" y="375" width="125" height="125" fill="#8F6A5B" />
  <rect x="875" y="375" width="125" height="125" fill="#F4E2B4" />
  <rect x="1000" y="375" width="125" height="125" fill="#6B5B4A" />
  <rect x="1125" y="375" width="125" height="125" fill="#470504" />
  <rect x="250" y="500" width="125" height="125" fill="#C4C4C4" />
  <rect x="375" y="500" width="125" height="125" fill="#5C4F3C" />
  <rect x="500" y="500" width="125" height="125" fill="#3F301E" />
  <rect x="625" y="500" width="125" height="125" fill="#4A3A26" />
  <rect x="750" y="500" width="125" height="125" fill="#937C69" />
  <rect x="875" y="500" width="125" height="125" fill="#D7C7B2" />
  <rect x="1000" y="500" width="125" height="125" fill="#3C3E26" />
  <rect x="1125" y="500" width="125" height="125" fill="#B8B1A0" />
  <rect x="250" y="625" width="125" height="125" fill="#ADA8A2" />
  <rect x="375" y="625" width="125" height="125" fill="#B1A95D" />
  <rect x="500" y="625" width="125" height="125" fill="#D2B60D" />
  <rect x="625" y="625" width="125" height="125" fill="#C0A59D" />
  <rect x="750" y="625" width="125" height="125" fill="#CDA85B" />
  <rect x="875" y="625" width="125" height="125" fill="#4C4734" />
  <rect x="1000" y="625" width="125" height="125" fill="#756658" />
  <rect x="1125" y="625" width="125" height="125" fill="#4C4234" />
  <rect x="250" y="750" width="125" height="125" fill="#B2A95A" />
  <rect x="375" y="750" width="125" height="125" fill="#D4C9A5" />
  <rect x="500" y="750" width="125" height="125" fill="#9A7A4E" />
  <rect x="625" y="750" width="125" height="125" fill="#CC8A5D" />
  <rect x="750" y="750" width="125" height="125" fill="#A4AAB1" />
  <rect x="875" y="750" width="125" height="125" fill="#FFD44F" />
  <rect x="1000" y="750" width="125" height="125" fill="#3B3B30" />
  <rect x="1125" y="750" width="125" height="125" fill="#474B31" />
  <rect x="250" y="875" width="125" height="125" fill="#D7C4A5" />
  <rect x="375" y="875" width="125" height="125" fill="#EAAC5D" />
  <rect x="500" y="875" width="125" height="125" fill="#7B6E58" />
  <rect x="625" y="875" width="125" height="125" fill="#A17249" />
  <rect x="750" y="875" width="125" height="125" fill="#BB8731" />
  <rect x="875" y="875" width="125" height="125" fill="#9E6E4D" />
  <rect x="1000" y="875" width="125" height="125" fill="#4E4E3E" />
  <rect x="1125" y="875" width="125" height="125" fill="#2E2F5F" />
  <rect x="250" y="1000" width="125" height="125" fill="#FFFFF0" />
  <rect x="375" y="1000" width="125" height="125" fill="#FF6F00" />
  <rect x="500" y="1000" width="125" height="125" fill="#BF6F7D" />
  <rect x="625" y="1000" width="125" height="125" fill="#D01B53" />
  <rect x="750" y="1000" width="125" height="125" fill="#836393" />
  <rect x="875" y="1000" width="125" height="125" fill="#920000" />
  <rect x="1000" y="1000" width="125" height="125" fill="#D9BF51" />
  <rect x="1125" y="1000" width="125" height="125" fill="#BF7072" />
  <rect x="250" y="1125" width="125" height="125" fill="#5D5D5D" />
  <rect x="375" y="1125" width="125" height="125" fill="#1D1D1D" />
  <rect x="500" y="1125" width="125" height="125" fill="#AFAFAF" />
  <rect x="625" y="1125" width="125" height="125" fill="#C4C4C4" />
  <rect x="750" y="1125" width="125" height="125" fill="#EAE6DE" />
  <rect x="875" y="1125" width="125" height="125" fill="#FFDD33" />
  <rect x="1000" y="1125" width="125" height="125" fill="#B5836C" />
  <rect x="1125" y="1125" width="125" height="125" fill="#7C8F6B" />
  <rect x="250" y="250" width="1000" height="1000" fill="none" stroke="#151515" stroke-opacity="0.16" stroke-width="2" />
</svg>
