<svg xmlns="http://www.w3.org/2000/svg" width="1500" height="1500" viewBox="0 0 1500 1500" shape-rendering="crispEdges" role="img" aria-labelledby="title desc">
  <title id="title">Fractured Embrace in Brown frame</title>
  <desc id="desc">Square Project artwork previewed in a brown frame.</desc>
  <rect x="0" y="0" width="1500" height="1500" fill="#FFFFFF" />
  <image href="https://mysquareart.com/frames/brown.jpg" x="0" y="0" width="1500" height="1500" preserveAspectRatio="xMidYMid meet" />
  <rect x="250" y="250" width="1000" height="1000" fill="#FFFFFF" />
  <rect x="250" y="250" width="125" height="125" fill="#800000" />
  <rect x="375" y="250" width="125" height="125" fill="#9C3F3F" />
  <rect x="500" y="250" width="125" height="125" fill="#DA4E4E" />
  <rect x="625" y="250" width="125" height="125" fill="#FB6F6F" />
  <rect x="750" y="250" width="125" height="125" fill="#FF8D8D" />
  <rect x="875" y="250" width="125" height="125" fill="#FFC4C4" />
  <rect x="1000" y="250" width="125" height="125" fill="#C4C4C4" />
  <rect x="1125" y="250" width="125" height="125" fill="#000000" />
  <rect x="250" y="375" width="125" height="125" fill="#616161" />
  <rect x="375" y="375" width="125" height="125" fill="#7A7A7A" />
  <rect x="500" y="375" width="125" height="125" fill="#999999" />
  <rect x="625" y="375" width="125" height="125" fill="#B3B3B3" />
  <rect x="750" y="375" width="125" height="125" fill="#CCCCCC" />
  <rect x="875" y="375" width="125" height="125" fill="#A61F1F" />
  <rect x="1000" y="375" width="125" height="125" fill="#DA3C3C" />
  <rect x="1125" y="375" width="125" height="125" fill="#FEE5E5" />
  <rect x="250" y="500" width="125" height="125" fill="#FF5858" />
  <rect x="375" y="500" width="125" height="125" fill="#FB3D3D" />
  <rect x="500" y="500" width="125" height="125" fill="#A9A9A9" />
  <rect x="625" y="500" width="125" height="125" fill="#E8A982" />
  <rect x="750" y="500" width="125" height="125" fill="#FFC8C8" />
  <rect x="875" y="500" width="125" height="125" fill="#CD5C5C" />
  <rect x="1000" y="500" width="125" height="125" fill="#B59393" />
  <rect x="1125" y="500" width="125" height="125" fill="#C4C4C4" />
  <rect x="250" y="625" width="125" height="125" fill="#450000" />
  <rect x="375" y="625" width="125" height="125" fill="#6F0D0D" />
  <rect x="500" y="625" width="125" height="125" fill="#A40000" />
  <rect x="625" y="625" width="125" height="125" fill="#DA7C7C" />
  <rect x="750" y="625" width="125" height="125" fill="#DD3D3D" />
  <rect x="875" y="625" width="125" height="125" fill="#B7B7B7" />
  <rect x="1000" y="625" width="125" height="125" fill="#BA4E4E" />
  <rect x="1125" y="625" width="125" height="125" fill="#917B7B" />
  <rect x="250" y="750" width="125" height="125" fill="#BF5050" />
  <rect x="375" y="750" width="125" height="125" fill="#FFD8D8" />
  <rect x="500" y="750" width="125" height="125" fill="#F1C1C1" />
  <rect x="625" y="750" width="125" height="125" fill="#DB5E5E" />
  <rect x="750" y="750" width="125" height="125" fill="#7F0000" />
  <rect x="875" y="750" width="125" height="125" fill="#BA3F3F" />
  <rect x="1000" y="750" width="125" height="125" fill="#9B3B3B" />
  <rect x="1125" y="750" width="125" height="125" fill="#320000" />
  <rect x="250" y="875" width="125" height="125" fill="#3B0B0B" />
  <rect x="375" y="875" width="125" height="125" fill="#A45C5C" />
  <rect x="500" y="875" width="125" height="125" fill="#CC4C4C" />
  <rect x="625" y="875" width="125" height="125" fill="#FFA1A1" />
  <rect x="750" y="875" width="125" height="125" fill="#855C5C" />
  <rect x="875" y="875" width="125" height="125" fill="#F95A5A" />
  <rect x="1000" y="875" width="125" height="125" fill="#D03C3C" />
  <rect x="1125" y="875" width="125" height="125" fill="#3D0B0B" />
  <rect x="250" y="1000" width="125" height="125" fill="#FFFFFF" />
  <rect x="375" y="1000" width="125" height="125" fill="#DADADA" />
  <rect x="500" y="1000" width="125" height="125" fill="#D7BEBE" />
  <rect x="625" y="1000" width="125" height="125" fill="#A0AFB5" />
  <rect x="750" y="1000" width="125" height="125" fill="#D0A6A6" />
  <rect x="875" y="1000" width="125" height="125" fill="#C57F7F" />
  <rect x="1000" y="1000" width="125" height="125" fill="#BF7D7D" />
  <rect x="1125" y="1000" width="125" height="125" fill="#DA8B8B" />
  <rect x="250" y="1125" width="125" height="125" fill="#800000" />
  <rect x="375" y="1125" width="125" height="125" fill="#7E1B1B" />
  <rect x="500" y="1125" width="125" height="125" fill="#4F4242" />
  <rect x="625" y="1125" width="125" height="125" fill="#615151" />
  <rect x="750" y="1125" width="125" height="125" fill="#7A8888" />
  <rect x="875" y="1125" width="125" height="125" fill="#A0A0A0" />
  <rect x="1000" y="1125" width="125" height="125" fill="#A85454" />
  <rect x="1125" y="1125" width="125" height="125" fill="#000000" />
  <rect x="250" y="250" width="1000" height="1000" fill="none" stroke="#151515" stroke-opacity="0.16" stroke-width="2" />
</svg>
