<svg xmlns="http://www.w3.org/2000/svg" width="1500" height="1500" viewBox="0 0 1500 1500" shape-rendering="crispEdges" role="img" aria-labelledby="title desc">
  <title id="title">Order in Fracture in White frame</title>
  <desc id="desc">Square Project artwork previewed in a white frame.</desc>
  <rect x="0" y="0" width="1500" height="1500" fill="#FFFFFF" />
  <image href="https://mysquareart.com/frames/white.jpg" x="0" y="0" width="1500" height="1500" preserveAspectRatio="xMidYMid meet" />
  <rect x="250" y="250" width="1000" height="1000" fill="#FFFFFF" />
  <rect x="250" y="250" width="125" height="125" fill="#7A6A5E" />
  <rect x="375" y="250" width="125" height="125" fill="#C5BBA1" />
  <rect x="500" y="250" width="125" height="125" fill="#E1D4C1" />
  <rect x="625" y="250" width="125" height="125" fill="#EDD9B4" />
  <rect x="750" y="250" width="125" height="125" fill="#C4B4A1" />
  <rect x="875" y="250" width="125" height="125" fill="#8A7E6A" />
  <rect x="1000" y="250" width="125" height="125" fill="#5A4F3D" />
  <rect x="1125" y="250" width="125" height="125" fill="#C8C9C5" />
  <rect x="250" y="375" width="125" height="125" fill="#B5B2AA" />
  <rect x="375" y="375" width="125" height="125" fill="#E0D4B2" />
  <rect x="500" y="375" width="125" height="125" fill="#D7C2B2" />
  <rect x="625" y="375" width="125" height="125" fill="#EDDDCB" />
  <rect x="750" y="375" width="125" height="125" fill="#E8D9C4" />
  <rect x="875" y="375" width="125" height="125" fill="#BFA49A" />
  <rect x="1000" y="375" width="125" height="125" fill="#D7B998" />
  <rect x="1125" y="375" width="125" height="125" fill="#E8D493" />
  <rect x="250" y="500" width="125" height="125" fill="#E1C5A7" />
  <rect x="375" y="500" width="125" height="125" fill="#B9A091" />
  <rect x="500" y="500" width="125" height="125" fill="#9E8A76" />
  <rect x="625" y="500" width="125" height="125" fill="#C5C6C1" />
  <rect x="750" y="500" width="125" height="125" fill="#D4CACA" />
  <rect x="875" y="500" width="125" height="125" fill="#D2B8A6" />
  <rect x="1000" y="500" width="125" height="125" fill="#C2D2C3" />
  <rect x="1125" y="500" width="125" height="125" fill="#BEC6C1" />
  <rect x="250" y="625" width="125" height="125" fill="#7A6A5E" />
  <rect x="375" y="625" width="125" height="125" fill="#9F8B79" />
  <rect x="500" y="625" width="125" height="125" fill="#B0A79A" />
  <rect x="625" y="625" width="125" height="125" fill="#D8D391" />
  <rect x="750" y="625" width="125" height="125" fill="#E9E0C9" />
  <rect x="875" y="625" width="125" height="125" fill="#D3C7C3" />
  <rect x="1000" y="625" width="125" height="125" fill="#C8C6B2" />
  <rect x="1125" y="625" width="125" height="125" fill="#AFA493" />
  <rect x="250" y="750" width="125" height="125" fill="#E9D4BB" />
  <rect x="375" y="750" width="125" height="125" fill="#C3A68B" />
  <rect x="500" y="750" width="125" height="125" fill="#B2A491" />
  <rect x="625" y="750" width="125" height="125" fill="#D7C6B4" />
  <rect x="750" y="750" width="125" height="125" fill="#D4CDA0" />
  <rect x="875" y="750" width="125" height="125" fill="#EAE6D0" />
  <rect x="1000" y="750" width="125" height="125" fill="#C8C9C5" />
  <rect x="1125" y="750" width="125" height="125" fill="#8A796A" />
  <rect x="250" y="875" width="125" height="125" fill="#7C6D5D" />
  <rect x="375" y="875" width="125" height="125" fill="#B8A580" />
  <rect x="500" y="875" width="125" height="125" fill="#E4D5B2" />
  <rect x="625" y="875" width="125" height="125" fill="#D3C4A0" />
  <rect x="750" y="875" width="125" height="125" fill="#B2A9A5" />
  <rect x="875" y="875" width="125" height="125" fill="#D8D4C2" />
  <rect x="1000" y="875" width="125" height="125" fill="#C3B8A1" />
  <rect x="1125" y="875" width="125" height="125" fill="#A59C00" />
  <rect x="250" y="1000" width="125" height="125" fill="#A4978D" />
  <rect x="375" y="1000" width="125" height="125" fill="#E8D9CB" />
  <rect x="500" y="1000" width="125" height="125" fill="#DAC3B0" />
  <rect x="625" y="1000" width="125" height="125" fill="#C8C4B6" />
  <rect x="750" y="1000" width="125" height="125" fill="#B4AA8F" />
  <rect x="875" y="1000" width="125" height="125" fill="#D1C4AC" />
  <rect x="1000" y="1000" width="125" height="125" fill="#B0B4A1" />
  <rect x="1125" y="1000" width="125" height="125" fill="#C8C6BB" />
  <rect x="250" y="1125" width="125" height="125" fill="#E7C7B0" />
  <rect x="375" y="1125" width="125" height="125" fill="#D0B689" />
  <rect x="500" y="1125" width="125" height="125" fill="#BFA69B" />
  <rect x="625" y="1125" width="125" height="125" fill="#848669" />
  <rect x="750" y="1125" width="125" height="125" fill="#7B6F57" />
  <rect x="875" y="1125" width="125" height="125" fill="#D8D4CB" />
  <rect x="1000" y="1125" width="125" height="125" fill="#EAE8D3" />
  <rect x="1125" y="1125" width="125" height="125" fill="#C4B8A7" />
  <rect x="250" y="250" width="1000" height="1000" fill="none" stroke="#151515" stroke-opacity="0.16" stroke-width="2" />
</svg>
