<svg xmlns="http://www.w3.org/2000/svg" width="1500" height="1500" viewBox="0 0 1500 1500" shape-rendering="crispEdges" role="img" aria-labelledby="title desc">
  <title id="title">Fractured Affection in Brown frame</title>
  <desc id="desc">Square Project artwork previewed in a brown frame.</desc>
  <rect x="0" y="0" width="1500" height="1500" fill="#FFFFFF" />
  <image href="https://mysquareart.com/frames/brown.jpg" x="0" y="0" width="1500" height="1500" preserveAspectRatio="xMidYMid meet" />
  <rect x="250" y="250" width="1000" height="1000" fill="#FFFFFF" />
  <rect x="250" y="250" width="125" height="125" fill="#FFAAD4" />
  <rect x="375" y="250" width="125" height="125" fill="#FF6F61" />
  <rect x="500" y="250" width="125" height="125" fill="#FF8C9F" />
  <rect x="625" y="250" width="125" height="125" fill="#B0C4DE" />
  <rect x="750" y="250" width="125" height="125" fill="#CCCFD7" />
  <rect x="875" y="250" width="125" height="125" fill="#C2B2C4" />
  <rect x="1000" y="250" width="125" height="125" fill="#7B4B8D" />
  <rect x="1125" y="250" width="125" height="125" fill="#4A2537" />
  <rect x="250" y="375" width="125" height="125" fill="#FFFFFF" />
  <rect x="375" y="375" width="125" height="125" fill="#F5C7D7" />
  <rect x="500" y="375" width="125" height="125" fill="#F45C78" />
  <rect x="625" y="375" width="125" height="125" fill="#7A3B3B" />
  <rect x="750" y="375" width="125" height="125" fill="#E9C1B0" />
  <rect x="875" y="375" width="125" height="125" fill="#D2AFC8" />
  <rect x="1000" y="375" width="125" height="125" fill="#B76B94" />
  <rect x="1125" y="375" width="125" height="125" fill="#7F2828" />
  <rect x="250" y="500" width="125" height="125" fill="#F6BDC2" />
  <rect x="375" y="500" width="125" height="125" fill="#FFEBF5" />
  <rect x="500" y="500" width="125" height="125" fill="#E0B0C3" />
  <rect x="625" y="500" width="125" height="125" fill="#D9D9D9" />
  <rect x="750" y="500" width="125" height="125" fill="#808080" />
  <rect x="875" y="500" width="125" height="125" fill="#777777" />
  <rect x="1000" y="500" width="125" height="125" fill="#6F7588" />
  <rect x="1125" y="500" width="125" height="125" fill="#4C3F2F" />
  <rect x="250" y="625" width="125" height="125" fill="#FF6961" />
  <rect x="375" y="625" width="125" height="125" fill="#F7C0C5" />
  <rect x="500" y="625" width="125" height="125" fill="#D6D3D4" />
  <rect x="625" y="625" width="125" height="125" fill="#708090" />
  <rect x="750" y="625" width="125" height="125" fill="#3E2117" />
  <rect x="875" y="625" width="125" height="125" fill="#999999" />
  <rect x="1000" y="625" width="125" height="125" fill="#B7A4B7" />
  <rect x="1125" y="625" width="125" height="125" fill="#3E353B" />
  <rect x="250" y="750" width="125" height="125" fill="#FFB5B5" />
  <rect x="375" y="750" width="125" height="125" fill="#D5C4C4" />
  <rect x="500" y="750" width="125" height="125" fill="#D0B1B1" />
  <rect x="625" y="750" width="125" height="125" fill="#AA4F4F" />
  <rect x="750" y="750" width="125" height="125" fill="#F7B3B3" />
  <rect x="875" y="750" width="125" height="125" fill="#4B4848" />
  <rect x="1000" y="750" width="125" height="125" fill="#8F6772" />
  <rect x="1125" y="750" width="125" height="125" fill="#4B2C2C" />
  <rect x="250" y="875" width="125" height="125" fill="#FCE2D8" />
  <rect x="375" y="875" width="125" height="125" fill="#F43A8E" />
  <rect x="500" y="875" width="125" height="125" fill="#8B2332" />
  <rect x="625" y="875" width="125" height="125" fill="#D9A5E0" />
  <rect x="750" y="875" width="125" height="125" fill="#C7A7B8" />
  <rect x="875" y="875" width="125" height="125" fill="#9A4452" />
  <rect x="1000" y="875" width="125" height="125" fill="#2B1122" />
  <rect x="1125" y="875" width="125" height="125" fill="#4C4D4A" />
  <rect x="250" y="1000" width="125" height="125" fill="#EAE7E7" />
  <rect x="375" y="1000" width="125" height="125" fill="#EB9DBF" />
  <rect x="500" y="1000" width="125" height="125" fill="#D4AAA2" />
  <rect x="625" y="1000" width="125" height="125" fill="#3C3C3C" />
  <rect x="750" y="1000" width="125" height="125" fill="#C6B2C8" />
  <rect x="875" y="1000" width="125" height="125" fill="#A8A8A8" />
  <rect x="1000" y="1000" width="125" height="125" fill="#4F4A4A" />
  <rect x="1125" y="1000" width="125" height="125" fill="#202020" />
  <rect x="250" y="1125" width="125" height="125" fill="#FCF0F0" />
  <rect x="375" y="1125" width="125" height="125" fill="#F2BCBA" />
  <rect x="500" y="1125" width="125" height="125" fill="#A66A6A" />
  <rect x="625" y="1125" width="125" height="125" fill="#D1CBDD" />
  <rect x="750" y="1125" width="125" height="125" fill="#E2A7C0" />
  <rect x="875" y="1125" width="125" height="125" fill="#9A8686" />
  <rect x="1000" y="1125" width="125" height="125" fill="#332F32" />
  <rect x="1125" y="1125" width="125" height="125" fill="#000000" />
  <rect x="250" y="250" width="1000" height="1000" fill="none" stroke="#151515" stroke-opacity="0.16" stroke-width="2" />
</svg>
