<svg xmlns="http://www.w3.org/2000/svg" width="1500" height="1500" viewBox="0 0 1500 1500" shape-rendering="crispEdges" role="img" aria-labelledby="title desc">
  <title id="title">Tension of Light and Shadow in Black frame</title>
  <desc id="desc">Square Project artwork previewed in a black frame.</desc>
  <rect x="0" y="0" width="1500" height="1500" fill="#FFFFFF" />
  <image href="https://mysquareart.com/frames/black.jpg" x="0" y="0" width="1500" height="1500" preserveAspectRatio="xMidYMid meet" />
  <rect x="250" y="250" width="1000" height="1000" fill="#FFFFFF" />
  <rect x="250" y="250" width="125" height="125" fill="#FF6347" />
  <rect x="375" y="250" width="125" height="125" fill="#DCAEB6" />
  <rect x="500" y="250" width="125" height="125" fill="#B57373" />
  <rect x="625" y="250" width="125" height="125" fill="#8B0000" />
  <rect x="750" y="250" width="125" height="125" fill="#7F7F7F" />
  <rect x="875" y="250" width="125" height="125" fill="#B5B5B5" />
  <rect x="1000" y="250" width="125" height="125" fill="#D9D9D9" />
  <rect x="1125" y="250" width="125" height="125" fill="#FFFFFF" />
  <rect x="250" y="375" width="125" height="125" fill="#BF4C4D" />
  <rect x="375" y="375" width="125" height="125" fill="#EDB4B1" />
  <rect x="500" y="375" width="125" height="125" fill="#8C5A5A" />
  <rect x="625" y="375" width="125" height="125" fill="#AA2A2A" />
  <rect x="750" y="375" width="125" height="125" fill="#6B6B6B" />
  <rect x="875" y="375" width="125" height="125" fill="#A0A0A0" />
  <rect x="1000" y="375" width="125" height="125" fill="#C8C8C8" />
  <rect x="1125" y="375" width="125" height="125" fill="#D2D2D2" />
  <rect x="250" y="500" width="125" height="125" fill="#CE2B3D" />
  <rect x="375" y="500" width="125" height="125" fill="#FFCCCB" />
  <rect x="500" y="500" width="125" height="125" fill="#C1A3A3" />
  <rect x="625" y="500" width="125" height="125" fill="#505050" />
  <rect x="750" y="500" width="125" height="125" fill="#4E4E4E" />
  <rect x="875" y="500" width="125" height="125" fill="#A3A3A3" />
  <rect x="1000" y="500" width="125" height="125" fill="#E7E7E7" />
  <rect x="1125" y="500" width="125" height="125" fill="#FAFAFA" />
  <rect x="250" y="625" width="125" height="125" fill="#981D1D" />
  <rect x="375" y="625" width="125" height="125" fill="#FFB6C1" />
  <rect x="500" y="625" width="125" height="125" fill="#BB7777" />
  <rect x="625" y="625" width="125" height="125" fill="#4A4A4A" />
  <rect x="750" y="625" width="125" height="125" fill="#393939" />
  <rect x="875" y="625" width="125" height="125" fill="#B9B9B9" />
  <rect x="1000" y="625" width="125" height="125" fill="#E2E2E2" />
  <rect x="1125" y="625" width="125" height="125" fill="#FFFFFF" />
  <rect x="250" y="750" width="125" height="125" fill="#C71B27" />
  <rect x="375" y="750" width="125" height="125" fill="#FFD1D1" />
  <rect x="500" y="750" width="125" height="125" fill="#EAC5C5" />
  <rect x="625" y="750" width="125" height="125" fill="#666666" />
  <rect x="750" y="750" width="125" height="125" fill="#4E4E4E" />
  <rect x="875" y="750" width="125" height="125" fill="#C0C0C0" />
  <rect x="1000" y="750" width="125" height="125" fill="#D4D4D4" />
  <rect x="1125" y="750" width="125" height="125" fill="#F5F5F5" />
  <rect x="250" y="875" width="125" height="125" fill="#7A1FA2" />
  <rect x="375" y="875" width="125" height="125" fill="#F3C1C1" />
  <rect x="500" y="875" width="125" height="125" fill="#D4A6A6" />
  <rect x="625" y="875" width="125" height="125" fill="#525252" />
  <rect x="750" y="875" width="125" height="125" fill="#555555" />
  <rect x="875" y="875" width="125" height="125" fill="#AFAFAF" />
  <rect x="1000" y="875" width="125" height="125" fill="#D9D9D9" />
  <rect x="1125" y="875" width="125" height="125" fill="#FFFFFF" />
  <rect x="250" y="1000" width="125" height="125" fill="#9D1E30" />
  <rect x="375" y="1000" width="125" height="125" fill="#F7E3E3" />
  <rect x="500" y="1000" width="125" height="125" fill="#D6C1C1" />
  <rect x="625" y="1000" width="125" height="125" fill="#3A3A3A" />
  <rect x="750" y="1000" width="125" height="125" fill="#484848" />
  <rect x="875" y="1000" width="125" height="125" fill="#B5B5B5" />
  <rect x="1000" y="1000" width="125" height="125" fill="#E0E0E0" />
  <rect x="1125" y="1000" width="125" height="125" fill="#F2F2F2" />
  <rect x="250" y="1125" width="125" height="125" fill="#B22222" />
  <rect x="375" y="1125" width="125" height="125" fill="#F0B6B0" />
  <rect x="500" y="1125" width="125" height="125" fill="#DEB5B5" />
  <rect x="625" y="1125" width="125" height="125" fill="#4C4C4C" />
  <rect x="750" y="1125" width="125" height="125" fill="#5B5B5B" />
  <rect x="875" y="1125" width="125" height="125" fill="#C8C8C8" />
  <rect x="1000" y="1125" width="125" height="125" fill="#EBE7E7" />
  <rect x="1125" y="1125" width="125" height="125" fill="#FFFFFF" />
  <rect x="250" y="250" width="1000" height="1000" fill="none" stroke="#151515" stroke-opacity="0.16" stroke-width="2" />
</svg>
