<svg xmlns="http://www.w3.org/2000/svg" width="1500" height="1500" viewBox="0 0 1500 1500" shape-rendering="crispEdges" role="img" aria-labelledby="title desc">
  <title id="title">Dichotomy of Emotion in Black frame</title>
  <desc id="desc">Square Project artwork previewed in a black frame.</desc>
  <defs>
    <linearGradient id="frameFace" x1="0" y1="0" x2="1" y2="1">
      <stop offset="0" stop-color="#6A6A6A" />
      <stop offset="0.32" stop-color="#343434" />
      <stop offset="0.68" stop-color="#111111" />
      <stop offset="1" stop-color="#050505" />
    </linearGradient>
    <filter id="artShadow" x="-10%" y="-10%" width="120%" height="120%">
      <feDropShadow dx="0" dy="20" stdDeviation="24" flood-color="#000000" flood-opacity="0.24" />
    </filter>
  </defs>
  <rect x="0" y="0" width="1500" height="1500" fill="#FFFFFF" />
  <rect x="0" y="0" width="1500" height="1500" fill="url(#frameFace)" />
  <rect x="120" y="120" width="1260" height="1260" fill="#F8F7F3" />
  <rect x="120" y="120" width="1260" height="1260" fill="none" stroke="#000000" stroke-opacity="0.14" stroke-width="10" />
  <rect x="250" y="250" width="1000" height="1000" fill="#FFFFFF" filter="url(#artShadow)" />
  <rect x="250" y="250" width="125" height="125" fill="#D7C49E" />
  <rect x="375" y="250" width="125" height="125" fill="#C2B594" />
  <rect x="500" y="250" width="125" height="125" fill="#BDC3A6" />
  <rect x="625" y="250" width="125" height="125" fill="#C8D4E0" />
  <rect x="750" y="250" width="125" height="125" fill="#A2B7D4" />
  <rect x="875" y="250" width="125" height="125" fill="#A7B4C8" />
  <rect x="1000" y="250" width="125" height="125" fill="#BACED2" />
  <rect x="1125" y="250" width="125" height="125" fill="#92A7B8" />
  <rect x="250" y="375" width="125" height="125" fill="#E2D7C4" />
  <rect x="375" y="375" width="125" height="125" fill="#D6C9AA" />
  <rect x="500" y="375" width="125" height="125" fill="#B4B6C3" />
  <rect x="625" y="375" width="125" height="125" fill="#B2C3D8" />
  <rect x="750" y="375" width="125" height="125" fill="#A3C1D0" />
  <rect x="875" y="375" width="125" height="125" fill="#A8C3DA" />
  <rect x="1000" y="375" width="125" height="125" fill="#98AEC7" />
  <rect x="1125" y="375" width="125" height="125" fill="#B2C1D5" />
  <rect x="250" y="500" width="125" height="125" fill="#A58D74" />
  <rect x="375" y="500" width="125" height="125" fill="#E3C5B6" />
  <rect x="500" y="500" width="125" height="125" fill="#C3D2D5" />
  <rect x="625" y="500" width="125" height="125" fill="#A4BCCB" />
  <rect x="750" y="500" width="125" height="125" fill="#B8C6CE" />
  <rect x="875" y="500" width="125" height="125" fill="#9AB9C1" />
  <rect x="1000" y="500" width="125" height="125" fill="#A5B2B6" />
  <rect x="1125" y="500" width="125" height="125" fill="#A3B1C3" />
  <rect x="250" y="625" width="125" height="125" fill="#D0B19A" />
  <rect x="375" y="625" width="125" height="125" fill="#BCB6A1" />
  <rect x="500" y="625" width="125" height="125" fill="#C7C3C9" />
  <rect x="625" y="625" width="125" height="125" fill="#8B95A4" />
  <rect x="750" y="625" width="125" height="125" fill="#A8BFD8" />
  <rect x="875" y="625" width="125" height="125" fill="#C2D0DB" />
  <rect x="1000" y="625" width="125" height="125" fill="#7D9AAB" />
  <rect x="1125" y="625" width="125" height="125" fill="#A0B4C3" />
  <rect x="250" y="750" width="125" height="125" fill="#E0D3C5" />
  <rect x="375" y="750" width="125" height="125" fill="#C6B49A" />
  <rect x="500" y="750" width="125" height="125" fill="#D6D1D4" />
  <rect x="625" y="750" width="125" height="125" fill="#B7C4DB" />
  <rect x="750" y="750" width="125" height="125" fill="#BAC8D5" />
  <rect x="875" y="750" width="125" height="125" fill="#A9BCC9" />
  <rect x="1000" y="750" width="125" height="125" fill="#B1B4B8" />
  <rect x="1125" y="750" width="125" height="125" fill="#AED2D9" />
  <rect x="250" y="875" width="125" height="125" fill="#E6E3C5" />
  <rect x="375" y="875" width="125" height="125" fill="#C4B89C" />
  <rect x="500" y="875" width="125" height="125" fill="#CBCCDA" />
  <rect x="625" y="875" width="125" height="125" fill="#A8B6CC" />
  <rect x="750" y="875" width="125" height="125" fill="#8AB0C0" />
  <rect x="875" y="875" width="125" height="125" fill="#A4C1D1" />
  <rect x="1000" y="875" width="125" height="125" fill="#9CB1AD" />
  <rect x="1125" y="875" width="125" height="125" fill="#B5D3DA" />
  <rect x="250" y="1000" width="125" height="125" fill="#C6C0B9" />
  <rect x="375" y="1000" width="125" height="125" fill="#D9C9A6" />
  <rect x="500" y="1000" width="125" height="125" fill="#D0C4C2" />
  <rect x="625" y="1000" width="125" height="125" fill="#C7D6E1" />
  <rect x="750" y="1000" width="125" height="125" fill="#98B5C7" />
  <rect x="875" y="1000" width="125" height="125" fill="#9FB1BD" />
  <rect x="1000" y="1000" width="125" height="125" fill="#B6CAA6" />
  <rect x="1125" y="1000" width="125" height="125" fill="#93B2B1" />
  <rect x="250" y="1125" width="125" height="125" fill="#F0E1D0" />
  <rect x="375" y="1125" width="125" height="125" fill="#D3BFA2" />
  <rect x="500" y="1125" width="125" height="125" fill="#E2C8B4" />
  <rect x="625" y="1125" width="125" height="125" fill="#C1D4DB" />
  <rect x="750" y="1125" width="125" height="125" fill="#D1E1E7" />
  <rect x="875" y="1125" width="125" height="125" fill="#B4C0D1" />
  <rect x="1000" y="1125" width="125" height="125" fill="#A8BFD1" />
  <rect x="1125" y="1125" width="125" height="125" fill="#B2C6D2" />
  <rect x="250" y="250" width="1000" height="1000" fill="none" stroke="#151515" stroke-opacity="0.16" stroke-width="2" />
</svg>
