<svg xmlns="http://www.w3.org/2000/svg" width="1500" height="1500" viewBox="0 0 1500 1500" shape-rendering="crispEdges" role="img" aria-labelledby="title desc">
  <title id="title">Echoes of Emotion in Brown frame</title>
  <desc id="desc">Square Project artwork previewed in a brown frame.</desc>
  <rect x="0" y="0" width="1500" height="1500" fill="#FFFFFF" />
  <image href="https://mysquareart.com/frames/brown.jpg" x="0" y="0" width="1500" height="1500" preserveAspectRatio="xMidYMid meet" />
  <rect x="250" y="250" width="1000" height="1000" fill="#FFFFFF" />
  <rect x="250" y="250" width="125" height="125" fill="#8B4000" />
  <rect x="375" y="250" width="125" height="125" fill="#7D2600" />
  <rect x="500" y="250" width="125" height="125" fill="#D04100" />
  <rect x="625" y="250" width="125" height="125" fill="#FF8C00" />
  <rect x="750" y="250" width="125" height="125" fill="#C65D00" />
  <rect x="875" y="250" width="125" height="125" fill="#DA7700" />
  <rect x="1000" y="250" width="125" height="125" fill="#8A4700" />
  <rect x="1125" y="250" width="125" height="125" fill="#452D00" />
  <rect x="250" y="375" width="125" height="125" fill="#4B4A4C" />
  <rect x="375" y="375" width="125" height="125" fill="#4D6669" />
  <rect x="500" y="375" width="125" height="125" fill="#A24A3C" />
  <rect x="625" y="375" width="125" height="125" fill="#B36C40" />
  <rect x="750" y="375" width="125" height="125" fill="#2E2929" />
  <rect x="875" y="375" width="125" height="125" fill="#7C6649" />
  <rect x="1000" y="375" width="125" height="125" fill="#BFA550" />
  <rect x="1125" y="375" width="125" height="125" fill="#E0D6A4" />
  <rect x="250" y="500" width="125" height="125" fill="#D0B1A0" />
  <rect x="375" y="500" width="125" height="125" fill="#F6E2B5" />
  <rect x="500" y="500" width="125" height="125" fill="#C3A14D" />
  <rect x="625" y="500" width="125" height="125" fill="#5A3D28" />
  <rect x="750" y="500" width="125" height="125" fill="#BFAF81" />
  <rect x="875" y="500" width="125" height="125" fill="#AB7A40" />
  <rect x="1000" y="500" width="125" height="125" fill="#7B4C26" />
  <rect x="1125" y="500" width="125" height="125" fill="#C1A8A4" />
  <rect x="250" y="625" width="125" height="125" fill="#8C706C" />
  <rect x="375" y="625" width="125" height="125" fill="#7D6F62" />
  <rect x="500" y="625" width="125" height="125" fill="#A55B3D" />
  <rect x="625" y="625" width="125" height="125" fill="#3E2837" />
  <rect x="750" y="625" width="125" height="125" fill="#B4613F" />
  <rect x="875" y="625" width="125" height="125" fill="#A9623B" />
  <rect x="1000" y="625" width="125" height="125" fill="#BC6939" />
  <rect x="1125" y="625" width="125" height="125" fill="#FFB302" />
  <rect x="250" y="750" width="125" height="125" fill="#4A4F67" />
  <rect x="375" y="750" width="125" height="125" fill="#5D4642" />
  <rect x="500" y="750" width="125" height="125" fill="#3B3C4D" />
  <rect x="625" y="750" width="125" height="125" fill="#5C3F33" />
  <rect x="750" y="750" width="125" height="125" fill="#BF5520" />
  <rect x="875" y="750" width="125" height="125" fill="#FFCC66" />
  <rect x="1000" y="750" width="125" height="125" fill="#D4A66A" />
  <rect x="1125" y="750" width="125" height="125" fill="#C6A68D" />
  <rect x="250" y="875" width="125" height="125" fill="#4C4E53" />
  <rect x="375" y="875" width="125" height="125" fill="#565F68" />
  <rect x="500" y="875" width="125" height="125" fill="#788800" />
  <rect x="625" y="875" width="125" height="125" fill="#867B00" />
  <rect x="750" y="875" width="125" height="125" fill="#6D5D41" />
  <rect x="875" y="875" width="125" height="125" fill="#C0A24D" />
  <rect x="1000" y="875" width="125" height="125" fill="#DAC929" />
  <rect x="1125" y="875" width="125" height="125" fill="#BAA173" />
  <rect x="250" y="1000" width="125" height="125" fill="#F2F2F2" />
  <rect x="375" y="1000" width="125" height="125" fill="#CCCCCC" />
  <rect x="500" y="1000" width="125" height="125" fill="#B1B1B1" />
  <rect x="625" y="1000" width="125" height="125" fill="#999999" />
  <rect x="750" y="1000" width="125" height="125" fill="#757575" />
  <rect x="875" y="1000" width="125" height="125" fill="#539F3F" />
  <rect x="1000" y="1000" width="125" height="125" fill="#9B9B92" />
  <rect x="1125" y="1000" width="125" height="125" fill="#A0A0A0" />
  <rect x="250" y="1125" width="125" height="125" fill="#FFFFFF" />
  <rect x="375" y="1125" width="125" height="125" fill="#F8F8F8" />
  <rect x="500" y="1125" width="125" height="125" fill="#EEEEEE" />
  <rect x="625" y="1125" width="125" height="125" fill="#DDDDDD" />
  <rect x="750" y="1125" width="125" height="125" fill="#CCCCCC" />
  <rect x="875" y="1125" width="125" height="125" fill="#BBBBBB" />
  <rect x="1000" y="1125" width="125" height="125" fill="#AAAAAA" />
  <rect x="1125" y="1125" width="125" height="125" fill="#999999" />
  <rect x="250" y="250" width="1000" height="1000" fill="none" stroke="#151515" stroke-opacity="0.16" stroke-width="2" />
</svg>
