<svg xmlns="http://www.w3.org/2000/svg" width="1500" height="1500" viewBox="0 0 1500 1500" shape-rendering="crispEdges" role="img" aria-labelledby="title desc">
  <title id="title">Tear in the Signal in White frame</title>
  <desc id="desc">Square Project artwork previewed in a white frame.</desc>
  <defs>
    <linearGradient id="frameFace" x1="0" y1="0" x2="1" y2="1">
      <stop offset="0" stop-color="#BEBEB8" />
      <stop offset="0.32" stop-color="#FFFFFF" />
      <stop offset="0.68" stop-color="#F8F8F5" />
      <stop offset="1" stop-color="#D5D5CF" />
    </linearGradient>
    <filter id="artShadow" x="-10%" y="-10%" width="120%" height="120%">
      <feDropShadow dx="0" dy="20" stdDeviation="24" flood-color="#000000" flood-opacity="0.24" />
    </filter>
  </defs>
  <rect x="0" y="0" width="1500" height="1500" fill="#FFFFFF" />
  <rect x="0" y="0" width="1500" height="1500" fill="url(#frameFace)" />
  <rect x="120" y="120" width="1260" height="1260" fill="#F8F7F3" />
  <rect x="120" y="120" width="1260" height="1260" fill="none" stroke="#000000" stroke-opacity="0.14" stroke-width="10" />
  <rect x="250" y="250" width="1000" height="1000" fill="#FFFFFF" filter="url(#artShadow)" />
  <rect x="250" y="250" width="125" height="125" fill="#000000" />
  <rect x="375" y="250" width="125" height="125" fill="#001F3F" />
  <rect x="500" y="250" width="125" height="125" fill="#003C5D" />
  <rect x="625" y="250" width="125" height="125" fill="#006680" />
  <rect x="750" y="250" width="125" height="125" fill="#008C9E" />
  <rect x="875" y="250" width="125" height="125" fill="#00B2C2" />
  <rect x="1000" y="250" width="125" height="125" fill="#00C8D9" />
  <rect x="1125" y="250" width="125" height="125" fill="#00D3E0" />
  <rect x="250" y="375" width="125" height="125" fill="#003F3F" />
  <rect x="375" y="375" width="125" height="125" fill="#004C5D" />
  <rect x="500" y="375" width="125" height="125" fill="#005A7D" />
  <rect x="625" y="375" width="125" height="125" fill="#006E9B" />
  <rect x="750" y="375" width="125" height="125" fill="#0085B9" />
  <rect x="875" y="375" width="125" height="125" fill="#009CDA" />
  <rect x="1000" y="375" width="125" height="125" fill="#00B6E1" />
  <rect x="1125" y="375" width="125" height="125" fill="#00C3F0" />
  <rect x="250" y="500" width="125" height="125" fill="#005A6E" />
  <rect x="375" y="500" width="125" height="125" fill="#005C7A" />
  <rect x="500" y="500" width="125" height="125" fill="#005E85" />
  <rect x="625" y="500" width="125" height="125" fill="#006790" />
  <rect x="750" y="500" width="125" height="125" fill="#0077A5" />
  <rect x="875" y="500" width="125" height="125" fill="#008CC2" />
  <rect x="1000" y="500" width="125" height="125" fill="#00A1D3" />
  <rect x="1125" y="500" width="125" height="125" fill="#00B9E1" />
  <rect x="250" y="625" width="125" height="125" fill="#0D0D0D" />
  <rect x="375" y="625" width="125" height="125" fill="#1C1C1C" />
  <rect x="500" y="625" width="125" height="125" fill="#2C2C2C" />
  <rect x="625" y="625" width="125" height="125" fill="#3C3C3C" />
  <rect x="750" y="625" width="125" height="125" fill="#4C4C4C" />
  <rect x="875" y="625" width="125" height="125" fill="#5D5D5D" />
  <rect x="1000" y="625" width="125" height="125" fill="#6D6D6D" />
  <rect x="1125" y="625" width="125" height="125" fill="#7D7D7D" />
  <rect x="250" y="750" width="125" height="125" fill="#005052" />
  <rect x="375" y="750" width="125" height="125" fill="#005B5B" />
  <rect x="500" y="750" width="125" height="125" fill="#006464" />
  <rect x="625" y="750" width="125" height="125" fill="#007777" />
  <rect x="750" y="750" width="125" height="125" fill="#008D8D" />
  <rect x="875" y="750" width="125" height="125" fill="#00A5A5" />
  <rect x="1000" y="750" width="125" height="125" fill="#00B3B3" />
  <rect x="1125" y="750" width="125" height="125" fill="#00C1C1" />
  <rect x="250" y="875" width="125" height="125" fill="#1C4B4D" />
  <rect x="375" y="875" width="125" height="125" fill="#2E6265" />
  <rect x="500" y="875" width="125" height="125" fill="#4A8D95" />
  <rect x="625" y="875" width="125" height="125" fill="#6AA8A8" />
  <rect x="750" y="875" width="125" height="125" fill="#B2C6C6" />
  <rect x="875" y="875" width="125" height="125" fill="#D9E1E1" />
  <rect x="1000" y="875" width="125" height="125" fill="#E1E1E1" />
  <rect x="1125" y="875" width="125" height="125" fill="#F5F5F5" />
  <rect x="250" y="1000" width="125" height="125" fill="#101010" />
  <rect x="375" y="1000" width="125" height="125" fill="#202020" />
  <rect x="500" y="1000" width="125" height="125" fill="#303030" />
  <rect x="625" y="1000" width="125" height="125" fill="#404040" />
  <rect x="750" y="1000" width="125" height="125" fill="#505050" />
  <rect x="875" y="1000" width="125" height="125" fill="#606060" />
  <rect x="1000" y="1000" width="125" height="125" fill="#707070" />
  <rect x="1125" y="1000" width="125" height="125" fill="#808080" />
  <rect x="250" y="1125" width="125" height="125" fill="#0B486B" />
  <rect x="375" y="1125" width="125" height="125" fill="#1A8D9C" />
  <rect x="500" y="1125" width="125" height="125" fill="#34B4BF" />
  <rect x="625" y="1125" width="125" height="125" fill="#4DD0D0" />
  <rect x="750" y="1125" width="125" height="125" fill="#7ED4E6" />
  <rect x="875" y="1125" width="125" height="125" fill="#B3E7E8" />
  <rect x="1000" y="1125" width="125" height="125" fill="#BCE0E0" />
  <rect x="1125" y="1125" width="125" height="125" fill="#DCE5E5" />
  <rect x="250" y="250" width="1000" height="1000" fill="none" stroke="#151515" stroke-opacity="0.16" stroke-width="2" />
</svg>
