<svg xmlns="http://www.w3.org/2000/svg" width="1500" height="1500" viewBox="0 0 1500 1500" shape-rendering="crispEdges" role="img" aria-labelledby="title desc">
  <title id="title">Broken Reflections in Brown frame</title>
  <desc id="desc">Square Project artwork previewed in a brown frame.</desc>
  <rect x="0" y="0" width="1500" height="1500" fill="#FFFFFF" />
  <image href="https://mysquareart.com/frames/brown.jpg" x="0" y="0" width="1500" height="1500" preserveAspectRatio="xMidYMid meet" />
  <rect x="250" y="250" width="1000" height="1000" fill="#FFFFFF" />
  <rect x="250" y="250" width="125" height="125" fill="#F4B1C1" />
  <rect x="375" y="250" width="125" height="125" fill="#F2A6B2" />
  <rect x="500" y="250" width="125" height="125" fill="#C2AEB2" />
  <rect x="625" y="250" width="125" height="125" fill="#E0BFBC" />
  <rect x="750" y="250" width="125" height="125" fill="#BDAFA4" />
  <rect x="875" y="250" width="125" height="125" fill="#E3A5AF" />
  <rect x="1000" y="250" width="125" height="125" fill="#CD6F99" />
  <rect x="1125" y="250" width="125" height="125" fill="#D18A8E" />
  <rect x="250" y="375" width="125" height="125" fill="#B25665" />
  <rect x="375" y="375" width="125" height="125" fill="#A23C3E" />
  <rect x="500" y="375" width="125" height="125" fill="#8D4C65" />
  <rect x="625" y="375" width="125" height="125" fill="#6D3E54" />
  <rect x="750" y="375" width="125" height="125" fill="#AB5D6B" />
  <rect x="875" y="375" width="125" height="125" fill="#B29C9E" />
  <rect x="1000" y="375" width="125" height="125" fill="#905C6C" />
  <rect x="1125" y="375" width="125" height="125" fill="#9A6A7A" />
  <rect x="250" y="500" width="125" height="125" fill="#3C2F36" />
  <rect x="375" y="500" width="125" height="125" fill="#593D4E" />
  <rect x="500" y="500" width="125" height="125" fill="#5E4558" />
  <rect x="625" y="500" width="125" height="125" fill="#394B54" />
  <rect x="750" y="500" width="125" height="125" fill="#A4A0C2" />
  <rect x="875" y="500" width="125" height="125" fill="#B3B7C3" />
  <rect x="1000" y="500" width="125" height="125" fill="#EAD2D5" />
  <rect x="1125" y="500" width="125" height="125" fill="#DBB7C2" />
  <rect x="250" y="625" width="125" height="125" fill="#A34E71" />
  <rect x="375" y="625" width="125" height="125" fill="#8F4D60" />
  <rect x="500" y="625" width="125" height="125" fill="#736476" />
  <rect x="625" y="625" width="125" height="125" fill="#614F5E" />
  <rect x="750" y="625" width="125" height="125" fill="#455B74" />
  <rect x="875" y="625" width="125" height="125" fill="#7A8B96" />
  <rect x="1000" y="625" width="125" height="125" fill="#A1A2B2" />
  <rect x="1125" y="625" width="125" height="125" fill="#D0B2C0" />
  <rect x="250" y="750" width="125" height="125" fill="#B2D9D9" />
  <rect x="375" y="750" width="125" height="125" fill="#D7E0E0" />
  <rect x="500" y="750" width="125" height="125" fill="#A3A29A" />
  <rect x="625" y="750" width="125" height="125" fill="#3D2E37" />
  <rect x="750" y="750" width="125" height="125" fill="#4E3A44" />
  <rect x="875" y="750" width="125" height="125" fill="#C4B1C7" />
  <rect x="1000" y="750" width="125" height="125" fill="#E3D0D5" />
  <rect x="1125" y="750" width="125" height="125" fill="#F2A7B3" />
  <rect x="250" y="875" width="125" height="125" fill="#C1B5BF" />
  <rect x="375" y="875" width="125" height="125" fill="#BCC2D0" />
  <rect x="500" y="875" width="125" height="125" fill="#453B36" />
  <rect x="625" y="875" width="125" height="125" fill="#A7C6C7" />
  <rect x="750" y="875" width="125" height="125" fill="#B8D5DB" />
  <rect x="875" y="875" width="125" height="125" fill="#D0A3AB" />
  <rect x="1000" y="875" width="125" height="125" fill="#B95A69" />
  <rect x="1125" y="875" width="125" height="125" fill="#713D45" />
  <rect x="250" y="1000" width="125" height="125" fill="#282B3C" />
  <rect x="375" y="1000" width="125" height="125" fill="#6F7B8A" />
  <rect x="500" y="1000" width="125" height="125" fill="#3079A1" />
  <rect x="625" y="1000" width="125" height="125" fill="#2B4B56" />
  <rect x="750" y="1000" width="125" height="125" fill="#2B4C4E" />
  <rect x="875" y="1000" width="125" height="125" fill="#B3B2D5" />
  <rect x="1000" y="1000" width="125" height="125" fill="#A7B5C9" />
  <rect x="1125" y="1000" width="125" height="125" fill="#C2D6D8" />
  <rect x="250" y="1125" width="125" height="125" fill="#F5E7EA" />
  <rect x="375" y="1125" width="125" height="125" fill="#CAD2D7" />
  <rect x="500" y="1125" width="125" height="125" fill="#6C788D" />
  <rect x="625" y="1125" width="125" height="125" fill="#BCCBCE" />
  <rect x="750" y="1125" width="125" height="125" fill="#E6EFF2" />
  <rect x="875" y="1125" width="125" height="125" fill="#F7F5F7" />
  <rect x="1000" y="1125" width="125" height="125" fill="#C6C0C1" />
  <rect x="1125" y="1125" width="125" height="125" fill="#B6B3C5" />
  <rect x="250" y="250" width="1000" height="1000" fill="none" stroke="#151515" stroke-opacity="0.16" stroke-width="2" />
</svg>
