<svg xmlns="http://www.w3.org/2000/svg" width="1500" height="1500" viewBox="0 0 1500 1500" shape-rendering="crispEdges" role="img" aria-labelledby="title desc">
  <title id="title">Tension Within in Brown frame</title>
  <desc id="desc">Square Project artwork previewed in a brown frame.</desc>
  <rect x="0" y="0" width="1500" height="1500" fill="#FFFFFF" />
  <image href="https://mysquareart.com/frames/brown.jpg" x="0" y="0" width="1500" height="1500" preserveAspectRatio="xMidYMid meet" />
  <rect x="250" y="250" width="1000" height="1000" fill="#FFFFFF" />
  <rect x="250" y="250" width="125" height="125" fill="#4E3B2B" />
  <rect x="375" y="250" width="125" height="125" fill="#7B4B27" />
  <rect x="500" y="250" width="125" height="125" fill="#B87A35" />
  <rect x="625" y="250" width="125" height="125" fill="#E3C24E" />
  <rect x="750" y="250" width="125" height="125" fill="#D4B64D" />
  <rect x="875" y="250" width="125" height="125" fill="#C3A055" />
  <rect x="1000" y="250" width="125" height="125" fill="#7F6B4D" />
  <rect x="1125" y="250" width="125" height="125" fill="#4D4C52" />
  <rect x="250" y="375" width="125" height="125" fill="#3D2B2C" />
  <rect x="375" y="375" width="125" height="125" fill="#F6C95C" />
  <rect x="500" y="375" width="125" height="125" fill="#A95A3B" />
  <rect x="625" y="375" width="125" height="125" fill="#B4894D" />
  <rect x="750" y="375" width="125" height="125" fill="#E9D46B" />
  <rect x="875" y="375" width="125" height="125" fill="#C6B68C" />
  <rect x="1000" y="375" width="125" height="125" fill="#9D819C" />
  <rect x="1125" y="375" width="125" height="125" fill="#4D474E" />
  <rect x="250" y="500" width="125" height="125" fill="#D76B45" />
  <rect x="375" y="500" width="125" height="125" fill="#E2A130" />
  <rect x="500" y="500" width="125" height="125" fill="#C45E2D" />
  <rect x="625" y="500" width="125" height="125" fill="#B66F38" />
  <rect x="750" y="500" width="125" height="125" fill="#CDA148" />
  <rect x="875" y="500" width="125" height="125" fill="#7C5B45" />
  <rect x="1000" y="500" width="125" height="125" fill="#5E4A44" />
  <rect x="1125" y="500" width="125" height="125" fill="#E6C679" />
  <rect x="250" y="625" width="125" height="125" fill="#D19637" />
  <rect x="375" y="625" width="125" height="125" fill="#C9AC38" />
  <rect x="500" y="625" width="125" height="125" fill="#DFDAA7" />
  <rect x="625" y="625" width="125" height="125" fill="#BFA649" />
  <rect x="750" y="625" width="125" height="125" fill="#7F4D3D" />
  <rect x="875" y="625" width="125" height="125" fill="#5A3D3A" />
  <rect x="1000" y="625" width="125" height="125" fill="#7D6F5E" />
  <rect x="1125" y="625" width="125" height="125" fill="#B2B597" />
  <rect x="250" y="750" width="125" height="125" fill="#BC8C25" />
  <rect x="375" y="750" width="125" height="125" fill="#A94E44" />
  <rect x="500" y="750" width="125" height="125" fill="#EDE074" />
  <rect x="625" y="750" width="125" height="125" fill="#DBD67F" />
  <rect x="750" y="750" width="125" height="125" fill="#855B4F" />
  <rect x="875" y="750" width="125" height="125" fill="#5F4E4B" />
  <rect x="1000" y="750" width="125" height="125" fill="#F3C567" />
  <rect x="1125" y="750" width="125" height="125" fill="#4A4455" />
  <rect x="250" y="875" width="125" height="125" fill="#493B39" />
  <rect x="375" y="875" width="125" height="125" fill="#D9A660" />
  <rect x="500" y="875" width="125" height="125" fill="#B27D5E" />
  <rect x="625" y="875" width="125" height="125" fill="#E2C47B" />
  <rect x="750" y="875" width="125" height="125" fill="#AFAE3B" />
  <rect x="875" y="875" width="125" height="125" fill="#5D5C4F" />
  <rect x="1000" y="875" width="125" height="125" fill="#5A5154" />
  <rect x="1125" y="875" width="125" height="125" fill="#AE3E31" />
  <rect x="250" y="1000" width="125" height="125" fill="#C65344" />
  <rect x="375" y="1000" width="125" height="125" fill="#D2C09A" />
  <rect x="500" y="1000" width="125" height="125" fill="#B8AF5C" />
  <rect x="625" y="1000" width="125" height="125" fill="#3D3C44" />
  <rect x="750" y="1000" width="125" height="125" fill="#A66E6A" />
  <rect x="875" y="1000" width="125" height="125" fill="#8A7C63" />
  <rect x="1000" y="1000" width="125" height="125" fill="#E1BF4A" />
  <rect x="1125" y="1000" width="125" height="125" fill="#6C3A2D" />
  <rect x="250" y="1125" width="125" height="125" fill="#A2572C" />
  <rect x="375" y="1125" width="125" height="125" fill="#D6A158" />
  <rect x="500" y="1125" width="125" height="125" fill="#E7B93F" />
  <rect x="625" y="1125" width="125" height="125" fill="#B3A464" />
  <rect x="750" y="1125" width="125" height="125" fill="#9C7D72" />
  <rect x="875" y="1125" width="125" height="125" fill="#C4AD3B" />
  <rect x="1000" y="1125" width="125" height="125" fill="#695D55" />
  <rect x="1125" y="1125" width="125" height="125" fill="#4C4B4C" />
  <rect x="250" y="250" width="1000" height="1000" fill="none" stroke="#151515" stroke-opacity="0.16" stroke-width="2" />
</svg>
