<svg xmlns="http://www.w3.org/2000/svg" width="1500" height="1500" viewBox="0 0 1500 1500" shape-rendering="crispEdges" role="img" aria-labelledby="title desc">
  <title id="title">Embers of Emotion in Gold frame</title>
  <desc id="desc">Square Project artwork previewed in a gold frame.</desc>
  <rect x="0" y="0" width="1500" height="1500" fill="#FFFFFF" />
  <image href="https://mysquareart.com/frames/gold.jpg" x="0" y="0" width="1500" height="1500" preserveAspectRatio="xMidYMid meet" />
  <rect x="250" y="250" width="1000" height="1000" fill="#FFFFFF" />
  <rect x="250" y="250" width="125" height="125" fill="#FFD700" />
  <rect x="375" y="250" width="125" height="125" fill="#FFA500" />
  <rect x="500" y="250" width="125" height="125" fill="#FF4500" />
  <rect x="625" y="250" width="125" height="125" fill="#FF6347" />
  <rect x="750" y="250" width="125" height="125" fill="#FF7F50" />
  <rect x="875" y="250" width="125" height="125" fill="#FF8C00" />
  <rect x="1000" y="250" width="125" height="125" fill="#FF8C00" />
  <rect x="1125" y="250" width="125" height="125" fill="#FFA500" />
  <rect x="250" y="375" width="125" height="125" fill="#00BFFF" />
  <rect x="375" y="375" width="125" height="125" fill="#1E90FF" />
  <rect x="500" y="375" width="125" height="125" fill="#B0C4DE" />
  <rect x="625" y="375" width="125" height="125" fill="#ADD8E6" />
  <rect x="750" y="375" width="125" height="125" fill="#4682B4" />
  <rect x="875" y="375" width="125" height="125" fill="#5F9EA0" />
  <rect x="1000" y="375" width="125" height="125" fill="#7B68EE" />
  <rect x="1125" y="375" width="125" height="125" fill="#6A5ACD" />
  <rect x="250" y="500" width="125" height="125" fill="#FFA07A" />
  <rect x="375" y="500" width="125" height="125" fill="#FFB6C1" />
  <rect x="500" y="500" width="125" height="125" fill="#FF69B4" />
  <rect x="625" y="500" width="125" height="125" fill="#FF1493" />
  <rect x="750" y="500" width="125" height="125" fill="#C71585" />
  <rect x="875" y="500" width="125" height="125" fill="#DB7093" />
  <rect x="1000" y="500" width="125" height="125" fill="#BA55D3" />
  <rect x="1125" y="500" width="125" height="125" fill="#9932CC" />
  <rect x="250" y="625" width="125" height="125" fill="#000000" />
  <rect x="375" y="625" width="125" height="125" fill="#222222" />
  <rect x="500" y="625" width="125" height="125" fill="#333333" />
  <rect x="625" y="625" width="125" height="125" fill="#444444" />
  <rect x="750" y="625" width="125" height="125" fill="#555555" />
  <rect x="875" y="625" width="125" height="125" fill="#666666" />
  <rect x="1000" y="625" width="125" height="125" fill="#777777" />
  <rect x="1125" y="625" width="125" height="125" fill="#888888" />
  <rect x="250" y="750" width="125" height="125" fill="#E6E6FA" />
  <rect x="375" y="750" width="125" height="125" fill="#F8F8FF" />
  <rect x="500" y="750" width="125" height="125" fill="#D3D3D3" />
  <rect x="625" y="750" width="125" height="125" fill="#DCDCDC" />
  <rect x="750" y="750" width="125" height="125" fill="#C0C0C0" />
  <rect x="875" y="750" width="125" height="125" fill="#B0C4DE" />
  <rect x="1000" y="750" width="125" height="125" fill="#A9A9A9" />
  <rect x="1125" y="750" width="125" height="125" fill="#808080" />
  <rect x="250" y="875" width="125" height="125" fill="#FFFAF0" />
  <rect x="375" y="875" width="125" height="125" fill="#FFE4E1" />
  <rect x="500" y="875" width="125" height="125" fill="#FFEBCD" />
  <rect x="625" y="875" width="125" height="125" fill="#FFF0F5" />
  <rect x="750" y="875" width="125" height="125" fill="#FFF5EE" />
  <rect x="875" y="875" width="125" height="125" fill="#FFF8DC" />
  <rect x="1000" y="875" width="125" height="125" fill="#FAEBD7" />
  <rect x="1125" y="875" width="125" height="125" fill="#FFFACD" />
  <rect x="250" y="1000" width="125" height="125" fill="#8B0000" />
  <rect x="375" y="1000" width="125" height="125" fill="#800000" />
  <rect x="500" y="1000" width="125" height="125" fill="#708090" />
  <rect x="625" y="1000" width="125" height="125" fill="#6A5ACD" />
  <rect x="750" y="1000" width="125" height="125" fill="#483D8B" />
  <rect x="875" y="1000" width="125" height="125" fill="#2F4F4F" />
  <rect x="1000" y="1000" width="125" height="125" fill="#556B2F" />
  <rect x="1125" y="1000" width="125" height="125" fill="#6B8E23" />
  <rect x="250" y="1125" width="125" height="125" fill="#000080" />
  <rect x="375" y="1125" width="125" height="125" fill="#191970" />
  <rect x="500" y="1125" width="125" height="125" fill="#0000CD" />
  <rect x="625" y="1125" width="125" height="125" fill="#1C1C1C" />
  <rect x="750" y="1125" width="125" height="125" fill="#696969" />
  <rect x="875" y="1125" width="125" height="125" fill="#5500C7" />
  <rect x="1000" y="1125" width="125" height="125" fill="#4B0082" />
  <rect x="1125" y="1125" width="125" height="125" fill="#2E8B57" />
  <rect x="250" y="250" width="1000" height="1000" fill="none" stroke="#151515" stroke-opacity="0.16" stroke-width="2" />
</svg>
