<svg xmlns="http://www.w3.org/2000/svg" width="1500" height="1500" viewBox="0 0 1500 1500" shape-rendering="crispEdges" role="img" aria-labelledby="title desc">
  <title id="title">Emotional Collision in Black frame</title>
  <desc id="desc">Square Project artwork previewed in a black frame.</desc>
  <defs>
    <linearGradient id="frameFace" x1="0" y1="0" x2="1" y2="1">
      <stop offset="0" stop-color="#6A6A6A" />
      <stop offset="0.32" stop-color="#343434" />
      <stop offset="0.68" stop-color="#111111" />
      <stop offset="1" stop-color="#050505" />
    </linearGradient>
    <filter id="artShadow" x="-10%" y="-10%" width="120%" height="120%">
      <feDropShadow dx="0" dy="20" stdDeviation="24" flood-color="#000000" flood-opacity="0.24" />
    </filter>
  </defs>
  <rect x="0" y="0" width="1500" height="1500" fill="#FFFFFF" />
  <rect x="0" y="0" width="1500" height="1500" fill="url(#frameFace)" />
  <rect x="120" y="120" width="1260" height="1260" fill="#F8F7F3" />
  <rect x="120" y="120" width="1260" height="1260" fill="none" stroke="#000000" stroke-opacity="0.14" stroke-width="10" />
  <rect x="250" y="250" width="1000" height="1000" fill="#FFFFFF" filter="url(#artShadow)" />
  <rect x="250" y="250" width="125" height="125" fill="#000000" />
  <rect x="375" y="250" width="125" height="125" fill="#170F6F" />
  <rect x="500" y="250" width="125" height="125" fill="#28BF31" />
  <rect x="625" y="250" width="125" height="125" fill="#E8E3C9" />
  <rect x="750" y="250" width="125" height="125" fill="#F5A623" />
  <rect x="875" y="250" width="125" height="125" fill="#2E6DB8" />
  <rect x="1000" y="250" width="125" height="125" fill="#6115A2" />
  <rect x="1125" y="250" width="125" height="125" fill="#1D1C1B" />
  <rect x="250" y="375" width="125" height="125" fill="#3F232D" />
  <rect x="375" y="375" width="125" height="125" fill="#C1D6C3" />
  <rect x="500" y="375" width="125" height="125" fill="#865B3A" />
  <rect x="625" y="375" width="125" height="125" fill="#2A7B5D" />
  <rect x="750" y="375" width="125" height="125" fill="#24488D" />
  <rect x="875" y="375" width="125" height="125" fill="#A8558A" />
  <rect x="1000" y="375" width="125" height="125" fill="#6DDFB0" />
  <rect x="1125" y="375" width="125" height="125" fill="#3F2831" />
  <rect x="250" y="500" width="125" height="125" fill="#5C4A7D" />
  <rect x="375" y="500" width="125" height="125" fill="#E9C7D2" />
  <rect x="500" y="500" width="125" height="125" fill="#267B8D" />
  <rect x="625" y="500" width="125" height="125" fill="#EEEBD4" />
  <rect x="750" y="500" width="125" height="125" fill="#B76894" />
  <rect x="875" y="500" width="125" height="125" fill="#44B8F1" />
  <rect x="1000" y="500" width="125" height="125" fill="#8EEB92" />
  <rect x="1125" y="500" width="125" height="125" fill="#2A519F" />
  <rect x="250" y="625" width="125" height="125" fill="#778FBC" />
  <rect x="375" y="625" width="125" height="125" fill="#D80971" />
  <rect x="500" y="625" width="125" height="125" fill="#5EB6D5" />
  <rect x="625" y="625" width="125" height="125" fill="#F7F3E6" />
  <rect x="750" y="625" width="125" height="125" fill="#F5D1A6" />
  <rect x="875" y="625" width="125" height="125" fill="#14DA53" />
  <rect x="1000" y="625" width="125" height="125" fill="#F9453D" />
  <rect x="1125" y="625" width="125" height="125" fill="#1F1C24" />
  <rect x="250" y="750" width="125" height="125" fill="#E0E2E6" />
  <rect x="375" y="750" width="125" height="125" fill="#591313" />
  <rect x="500" y="750" width="125" height="125" fill="#75A056" />
  <rect x="625" y="750" width="125" height="125" fill="#FF6A0C" />
  <rect x="750" y="750" width="125" height="125" fill="#D2BFA2" />
  <rect x="875" y="750" width="125" height="125" fill="#00CADF" />
  <rect x="1000" y="750" width="125" height="125" fill="#A42E57" />
  <rect x="1125" y="750" width="125" height="125" fill="#7B3C13" />
  <rect x="250" y="875" width="125" height="125" fill="#79255B" />
  <rect x="375" y="875" width="125" height="125" fill="#5361B1" />
  <rect x="500" y="875" width="125" height="125" fill="#A1F093" />
  <rect x="625" y="875" width="125" height="125" fill="#D1C6A7" />
  <rect x="750" y="875" width="125" height="125" fill="#8BB62F" />
  <rect x="875" y="875" width="125" height="125" fill="#0E4B59" />
  <rect x="1000" y="875" width="125" height="125" fill="#F2F206" />
  <rect x="1125" y="875" width="125" height="125" fill="#301620" />
  <rect x="250" y="1000" width="125" height="125" fill="#E0B949" />
  <rect x="375" y="1000" width="125" height="125" fill="#3D52C4" />
  <rect x="500" y="1000" width="125" height="125" fill="#8661AD" />
  <rect x="625" y="1000" width="125" height="125" fill="#D18A5A" />
  <rect x="750" y="1000" width="125" height="125" fill="#BC2B9B" />
  <rect x="875" y="1000" width="125" height="125" fill="#4BA896" />
  <rect x="1000" y="1000" width="125" height="125" fill="#272432" />
  <rect x="1125" y="1000" width="125" height="125" fill="#4B3F00" />
  <rect x="250" y="1125" width="125" height="125" fill="#726B66" />
  <rect x="375" y="1125" width="125" height="125" fill="#5A7720" />
  <rect x="500" y="1125" width="125" height="125" fill="#F2F3F7" />
  <rect x="625" y="1125" width="125" height="125" fill="#D7D3B7" />
  <rect x="750" y="1125" width="125" height="125" fill="#2A8CA3" />
  <rect x="875" y="1125" width="125" height="125" fill="#F8B10E" />
  <rect x="1000" y="1125" width="125" height="125" fill="#247A72" />
  <rect x="1125" y="1125" width="125" height="125" fill="#1A3B5D" />
  <rect x="250" y="250" width="1000" height="1000" fill="none" stroke="#151515" stroke-opacity="0.16" stroke-width="2" />
</svg>
