<svg xmlns="http://www.w3.org/2000/svg" width="1500" height="1500" viewBox="0 0 1500 1500" shape-rendering="crispEdges" role="img" aria-labelledby="title desc">
  <title id="title">Fractured Harmony in Black frame</title>
  <desc id="desc">Square Project artwork previewed in a black frame.</desc>
  <rect x="0" y="0" width="1500" height="1500" fill="#FFFFFF" />
  <image href="https://mysquareart.com/frames/black.jpg" x="0" y="0" width="1500" height="1500" preserveAspectRatio="xMidYMid meet" />
  <rect x="250" y="250" width="1000" height="1000" fill="#FFFFFF" />
  <rect x="250" y="250" width="125" height="125" fill="#E93665" />
  <rect x="375" y="250" width="125" height="125" fill="#F9B8C7" />
  <rect x="500" y="250" width="125" height="125" fill="#E0B0BC" />
  <rect x="625" y="250" width="125" height="125" fill="#A94D54" />
  <rect x="750" y="250" width="125" height="125" fill="#F2B19A" />
  <rect x="875" y="250" width="125" height="125" fill="#D45156" />
  <rect x="1000" y="250" width="125" height="125" fill="#C8C5CB" />
  <rect x="1125" y="250" width="125" height="125" fill="#FFFFFF" />
  <rect x="250" y="375" width="125" height="125" fill="#D91E3F" />
  <rect x="375" y="375" width="125" height="125" fill="#F4A1D5" />
  <rect x="500" y="375" width="125" height="125" fill="#DD8F9E" />
  <rect x="625" y="375" width="125" height="125" fill="#A0465B" />
  <rect x="750" y="375" width="125" height="125" fill="#F2B19A" />
  <rect x="875" y="375" width="125" height="125" fill="#B84354" />
  <rect x="1000" y="375" width="125" height="125" fill="#EAE4E7" />
  <rect x="1125" y="375" width="125" height="125" fill="#EFEBEB" />
  <rect x="250" y="500" width="125" height="125" fill="#FFB3BA" />
  <rect x="375" y="500" width="125" height="125" fill="#F1ACB6" />
  <rect x="500" y="500" width="125" height="125" fill="#D26168" />
  <rect x="625" y="500" width="125" height="125" fill="#7A2D3D" />
  <rect x="750" y="500" width="125" height="125" fill="#FF8DBB" />
  <rect x="875" y="500" width="125" height="125" fill="#E75B73" />
  <rect x="1000" y="500" width="125" height="125" fill="#D3CFDE" />
  <rect x="1125" y="500" width="125" height="125" fill="#E6DAC9" />
  <rect x="250" y="625" width="125" height="125" fill="#D27F81" />
  <rect x="375" y="625" width="125" height="125" fill="#BA2B2D" />
  <rect x="500" y="625" width="125" height="125" fill="#C0D2D7" />
  <rect x="625" y="625" width="125" height="125" fill="#D9C4C5" />
  <rect x="750" y="625" width="125" height="125" fill="#E22844" />
  <rect x="875" y="625" width="125" height="125" fill="#8B8FA0" />
  <rect x="1000" y="625" width="125" height="125" fill="#844C54" />
  <rect x="1125" y="625" width="125" height="125" fill="#777B7D" />
  <rect x="250" y="750" width="125" height="125" fill="#F99DA5" />
  <rect x="375" y="750" width="125" height="125" fill="#C0495E" />
  <rect x="500" y="750" width="125" height="125" fill="#B0D3E8" />
  <rect x="625" y="750" width="125" height="125" fill="#532B33" />
  <rect x="750" y="750" width="125" height="125" fill="#7C676D" />
  <rect x="875" y="750" width="125" height="125" fill="#F6CCCA" />
  <rect x="1000" y="750" width="125" height="125" fill="#D25764" />
  <rect x="1125" y="750" width="125" height="125" fill="#C8C7C8" />
  <rect x="250" y="875" width="125" height="125" fill="#D31F45" />
  <rect x="375" y="875" width="125" height="125" fill="#E9C6CB" />
  <rect x="500" y="875" width="125" height="125" fill="#9B4A4E" />
  <rect x="625" y="875" width="125" height="125" fill="#E6287F" />
  <rect x="750" y="875" width="125" height="125" fill="#D9123D" />
  <rect x="875" y="875" width="125" height="125" fill="#B2556A" />
  <rect x="1000" y="875" width="125" height="125" fill="#C4C0C1" />
  <rect x="1125" y="875" width="125" height="125" fill="#D9D9D9" />
  <rect x="250" y="1000" width="125" height="125" fill="#E0B0BC" />
  <rect x="375" y="1000" width="125" height="125" fill="#AD5284" />
  <rect x="500" y="1000" width="125" height="125" fill="#CA5743" />
  <rect x="625" y="1000" width="125" height="125" fill="#A65A75" />
  <rect x="750" y="1000" width="125" height="125" fill="#F3A9B2" />
  <rect x="875" y="1000" width="125" height="125" fill="#994545" />
  <rect x="1000" y="1000" width="125" height="125" fill="#86888A" />
  <rect x="1125" y="1000" width="125" height="125" fill="#FFFFFF" />
  <rect x="250" y="1125" width="125" height="125" fill="#E03973" />
  <rect x="375" y="1125" width="125" height="125" fill="#F5AFBB" />
  <rect x="500" y="1125" width="125" height="125" fill="#C8D6D8" />
  <rect x="625" y="1125" width="125" height="125" fill="#8F3540" />
  <rect x="750" y="1125" width="125" height="125" fill="#C45F7A" />
  <rect x="875" y="1125" width="125" height="125" fill="#B3A3B3" />
  <rect x="1000" y="1125" width="125" height="125" fill="#9C7B81" />
  <rect x="1125" y="1125" width="125" height="125" fill="#E0D6D7" />
  <rect x="250" y="250" width="1000" height="1000" fill="none" stroke="#151515" stroke-opacity="0.16" stroke-width="2" />
</svg>
