<svg xmlns="http://www.w3.org/2000/svg" width="1500" height="1500" viewBox="0 0 1500 1500" shape-rendering="crispEdges" role="img" aria-labelledby="title desc">
  <title id="title">Tension and Release in White frame</title>
  <desc id="desc">Square Project artwork previewed in a white frame.</desc>
  <defs>
    <linearGradient id="frameFace" x1="0" y1="0" x2="1" y2="1">
      <stop offset="0" stop-color="#BEBEB8" />
      <stop offset="0.32" stop-color="#FFFFFF" />
      <stop offset="0.68" stop-color="#F8F8F5" />
      <stop offset="1" stop-color="#D5D5CF" />
    </linearGradient>
    <filter id="artShadow" x="-10%" y="-10%" width="120%" height="120%">
      <feDropShadow dx="0" dy="20" stdDeviation="24" flood-color="#000000" flood-opacity="0.24" />
    </filter>
  </defs>
  <rect x="0" y="0" width="1500" height="1500" fill="#FFFFFF" />
  <rect x="0" y="0" width="1500" height="1500" fill="url(#frameFace)" />
  <rect x="120" y="120" width="1260" height="1260" fill="#F8F7F3" />
  <rect x="120" y="120" width="1260" height="1260" fill="none" stroke="#000000" stroke-opacity="0.14" stroke-width="10" />
  <rect x="250" y="250" width="1000" height="1000" fill="#FFFFFF" filter="url(#artShadow)" />
  <rect x="250" y="250" width="125" height="125" fill="#6B4C92" />
  <rect x="375" y="250" width="125" height="125" fill="#A3756D" />
  <rect x="500" y="250" width="125" height="125" fill="#F7D6C1" />
  <rect x="625" y="250" width="125" height="125" fill="#E8B74A" />
  <rect x="750" y="250" width="125" height="125" fill="#BC8C5D" />
  <rect x="875" y="250" width="125" height="125" fill="#486A7A" />
  <rect x="1000" y="250" width="125" height="125" fill="#5E3C62" />
  <rect x="1125" y="250" width="125" height="125" fill="#F4F14D" />
  <rect x="250" y="375" width="125" height="125" fill="#E7BC6E" />
  <rect x="375" y="375" width="125" height="125" fill="#9B3B50" />
  <rect x="500" y="375" width="125" height="125" fill="#D5C7BB" />
  <rect x="625" y="375" width="125" height="125" fill="#F9EDAA" />
  <rect x="750" y="375" width="125" height="125" fill="#D0AED5" />
  <rect x="875" y="375" width="125" height="125" fill="#698C8F" />
  <rect x="1000" y="375" width="125" height="125" fill="#CA7F4B" />
  <rect x="1125" y="375" width="125" height="125" fill="#7D3D7E" />
  <rect x="250" y="500" width="125" height="125" fill="#CC6E51" />
  <rect x="375" y="500" width="125" height="125" fill="#EDBA8F" />
  <rect x="500" y="500" width="125" height="125" fill="#D2C4C8" />
  <rect x="625" y="500" width="125" height="125" fill="#F4B4A4" />
  <rect x="750" y="500" width="125" height="125" fill="#7C6C7F" />
  <rect x="875" y="500" width="125" height="125" fill="#9FF4D8" />
  <rect x="1000" y="500" width="125" height="125" fill="#4B2F6A" />
  <rect x="1125" y="500" width="125" height="125" fill="#F2DB8D" />
  <rect x="250" y="625" width="125" height="125" fill="#C4A478" />
  <rect x="375" y="625" width="125" height="125" fill="#AB3B4C" />
  <rect x="500" y="625" width="125" height="125" fill="#E4EBB8" />
  <rect x="625" y="625" width="125" height="125" fill="#FAEBA6" />
  <rect x="750" y="625" width="125" height="125" fill="#A0B8F1" />
  <rect x="875" y="625" width="125" height="125" fill="#A47C5B" />
  <rect x="1000" y="625" width="125" height="125" fill="#BCB2EA" />
  <rect x="1125" y="625" width="125" height="125" fill="#55A4B1" />
  <rect x="250" y="750" width="125" height="125" fill="#FF6E40" />
  <rect x="375" y="750" width="125" height="125" fill="#D9B35C" />
  <rect x="500" y="750" width="125" height="125" fill="#E8B73E" />
  <rect x="625" y="750" width="125" height="125" fill="#6D677A" />
  <rect x="750" y="750" width="125" height="125" fill="#C8B1B5" />
  <rect x="875" y="750" width="125" height="125" fill="#7F2F3D" />
  <rect x="1000" y="750" width="125" height="125" fill="#CFC8D0" />
  <rect x="1125" y="750" width="125" height="125" fill="#E1D7CE" />
  <rect x="250" y="875" width="125" height="125" fill="#8D4E3A" />
  <rect x="375" y="875" width="125" height="125" fill="#B6D77F" />
  <rect x="500" y="875" width="125" height="125" fill="#F4B19B" />
  <rect x="625" y="875" width="125" height="125" fill="#CA8DDA" />
  <rect x="750" y="875" width="125" height="125" fill="#E1DDD8" />
  <rect x="875" y="875" width="125" height="125" fill="#B1B5B0" />
  <rect x="1000" y="875" width="125" height="125" fill="#4B3F53" />
  <rect x="1125" y="875" width="125" height="125" fill="#A1C49C" />
  <rect x="250" y="1000" width="125" height="125" fill="#D8AE62" />
  <rect x="375" y="1000" width="125" height="125" fill="#F1C0C6" />
  <rect x="500" y="1000" width="125" height="125" fill="#BF7C8C" />
  <rect x="625" y="1000" width="125" height="125" fill="#5E352B" />
  <rect x="750" y="1000" width="125" height="125" fill="#D71C79" />
  <rect x="875" y="1000" width="125" height="125" fill="#D9B35C" />
  <rect x="1000" y="1000" width="125" height="125" fill="#E7B3C9" />
  <rect x="1125" y="1000" width="125" height="125" fill="#F9EAB1" />
  <rect x="250" y="1125" width="125" height="125" fill="#7E7C8B" />
  <rect x="375" y="1125" width="125" height="125" fill="#F5F7E5" />
  <rect x="500" y="1125" width="125" height="125" fill="#7A4A2D" />
  <rect x="625" y="1125" width="125" height="125" fill="#68B7C3" />
  <rect x="750" y="1125" width="125" height="125" fill="#C3B2D9" />
  <rect x="875" y="1125" width="125" height="125" fill="#BB8541" />
  <rect x="1000" y="1125" width="125" height="125" fill="#8B8479" />
  <rect x="1125" y="1125" width="125" height="125" fill="#EADBB5" />
  <rect x="250" y="250" width="1000" height="1000" fill="none" stroke="#151515" stroke-opacity="0.16" stroke-width="2" />
</svg>
