<svg xmlns="http://www.w3.org/2000/svg" width="1500" height="1500" viewBox="0 0 1500 1500" shape-rendering="crispEdges" role="img" aria-labelledby="title desc">
  <title id="title">Pressure Corner in Gold frame</title>
  <desc id="desc">Square Project artwork previewed in a gold frame.</desc>
  <defs>
    <linearGradient id="frameFace" x1="0" y1="0" x2="1" y2="1">
      <stop offset="0" stop-color="#FFF0A3" />
      <stop offset="0.32" stop-color="#F1D676" />
      <stop offset="0.68" stop-color="#CBA642" />
      <stop offset="1" stop-color="#8B6A1D" />
    </linearGradient>
    <filter id="artShadow" x="-10%" y="-10%" width="120%" height="120%">
      <feDropShadow dx="0" dy="20" stdDeviation="24" flood-color="#000000" flood-opacity="0.24" />
    </filter>
  </defs>
  <rect x="0" y="0" width="1500" height="1500" fill="#FFFFFF" />
  <rect x="0" y="0" width="1500" height="1500" fill="url(#frameFace)" />
  <rect x="120" y="120" width="1260" height="1260" fill="#F8F7F3" />
  <rect x="120" y="120" width="1260" height="1260" fill="none" stroke="#000000" stroke-opacity="0.14" stroke-width="10" />
  <rect x="250" y="250" width="1000" height="1000" fill="#FFFFFF" filter="url(#artShadow)" />
  <rect x="250" y="250" width="125" height="125" fill="#3F7F1A" />
  <rect x="375" y="250" width="125" height="125" fill="#5CD84B" />
  <rect x="500" y="250" width="125" height="125" fill="#A0C90E" />
  <rect x="625" y="250" width="125" height="125" fill="#FFFEDB" />
  <rect x="750" y="250" width="125" height="125" fill="#E4E4C9" />
  <rect x="875" y="250" width="125" height="125" fill="#B8C7E5" />
  <rect x="1000" y="250" width="125" height="125" fill="#A0A0A0" />
  <rect x="1125" y="250" width="125" height="125" fill="#7E7F7F" />
  <rect x="250" y="375" width="125" height="125" fill="#40484B" />
  <rect x="375" y="375" width="125" height="125" fill="#4B5B4A" />
  <rect x="500" y="375" width="125" height="125" fill="#B7C800" />
  <rect x="625" y="375" width="125" height="125" fill="#D1E0B4" />
  <rect x="750" y="375" width="125" height="125" fill="#F7F3D7" />
  <rect x="875" y="375" width="125" height="125" fill="#E5E5ED" />
  <rect x="1000" y="375" width="125" height="125" fill="#D4D4B5" />
  <rect x="1125" y="375" width="125" height="125" fill="#C1C1C1" />
  <rect x="250" y="500" width="125" height="125" fill="#3B3D3A" />
  <rect x="375" y="500" width="125" height="125" fill="#646958" />
  <rect x="500" y="500" width="125" height="125" fill="#BAC378" />
  <rect x="625" y="500" width="125" height="125" fill="#D1EBD3" />
  <rect x="750" y="500" width="125" height="125" fill="#E1F1E4" />
  <rect x="875" y="500" width="125" height="125" fill="#F5F3ED" />
  <rect x="1000" y="500" width="125" height="125" fill="#EAE8E1" />
  <rect x="1125" y="500" width="125" height="125" fill="#D1D7D5" />
  <rect x="250" y="625" width="125" height="125" fill="#1F1F1B" />
  <rect x="375" y="625" width="125" height="125" fill="#354144" />
  <rect x="500" y="625" width="125" height="125" fill="#86A09E" />
  <rect x="625" y="625" width="125" height="125" fill="#BCDA09" />
  <rect x="750" y="625" width="125" height="125" fill="#F6EAD6" />
  <rect x="875" y="625" width="125" height="125" fill="#F0F9FB" />
  <rect x="1000" y="625" width="125" height="125" fill="#D9D9D9" />
  <rect x="1125" y="625" width="125" height="125" fill="#C8C9B9" />
  <rect x="250" y="750" width="125" height="125" fill="#222D32" />
  <rect x="375" y="750" width="125" height="125" fill="#3A4B43" />
  <rect x="500" y="750" width="125" height="125" fill="#A5C499" />
  <rect x="625" y="750" width="125" height="125" fill="#E7E9A5" />
  <rect x="750" y="750" width="125" height="125" fill="#F3EAD0" />
  <rect x="875" y="750" width="125" height="125" fill="#F3F3E8" />
  <rect x="1000" y="750" width="125" height="125" fill="#C9C9B9" />
  <rect x="1125" y="750" width="125" height="125" fill="#A5B9B7" />
  <rect x="250" y="875" width="125" height="125" fill="#404345" />
  <rect x="375" y="875" width="125" height="125" fill="#5A6959" />
  <rect x="500" y="875" width="125" height="125" fill="#8A9D30" />
  <rect x="625" y="875" width="125" height="125" fill="#D2D297" />
  <rect x="750" y="875" width="125" height="125" fill="#F8E0B9" />
  <rect x="875" y="875" width="125" height="125" fill="#E8E8E8" />
  <rect x="1000" y="875" width="125" height="125" fill="#B7B7B7" />
  <rect x="1125" y="875" width="125" height="125" fill="#A1A3A1" />
  <rect x="250" y="1000" width="125" height="125" fill="#272D2D" />
  <rect x="375" y="1000" width="125" height="125" fill="#35473D" />
  <rect x="500" y="1000" width="125" height="125" fill="#A8B81D" />
  <rect x="625" y="1000" width="125" height="125" fill="#C5D6A0" />
  <rect x="750" y="1000" width="125" height="125" fill="#F4E7D4" />
  <rect x="875" y="1000" width="125" height="125" fill="#F1F3F9" />
  <rect x="1000" y="1000" width="125" height="125" fill="#D3D5D5" />
  <rect x="1125" y="1000" width="125" height="125" fill="#A8A8A8" />
  <rect x="250" y="1125" width="125" height="125" fill="#1F1F1F" />
  <rect x="375" y="1125" width="125" height="125" fill="#292D30" />
  <rect x="500" y="1125" width="125" height="125" fill="#4F5D35" />
  <rect x="625" y="1125" width="125" height="125" fill="#B7B83E" />
  <rect x="750" y="1125" width="125" height="125" fill="#E7E8BB" />
  <rect x="875" y="1125" width="125" height="125" fill="#F1F2F4" />
  <rect x="1000" y="1125" width="125" height="125" fill="#C6C6C6" />
  <rect x="1125" y="1125" width="125" height="125" fill="#A9A9A9" />
  <rect x="250" y="250" width="1000" height="1000" fill="none" stroke="#151515" stroke-opacity="0.16" stroke-width="2" />
</svg>
