<svg xmlns="http://www.w3.org/2000/svg" width="1500" height="1500" viewBox="0 0 1500 1500" shape-rendering="crispEdges" role="img" aria-labelledby="title desc">
  <title id="title">Tension of Elements in White frame</title>
  <desc id="desc">Square Project artwork previewed in a white frame.</desc>
  <defs>
    <linearGradient id="frameFace" x1="0" y1="0" x2="1" y2="1">
      <stop offset="0" stop-color="#BEBEB8" />
      <stop offset="0.32" stop-color="#FFFFFF" />
      <stop offset="0.68" stop-color="#F8F8F5" />
      <stop offset="1" stop-color="#D5D5CF" />
    </linearGradient>
    <filter id="artShadow" x="-10%" y="-10%" width="120%" height="120%">
      <feDropShadow dx="0" dy="20" stdDeviation="24" flood-color="#000000" flood-opacity="0.24" />
    </filter>
  </defs>
  <rect x="0" y="0" width="1500" height="1500" fill="#FFFFFF" />
  <rect x="0" y="0" width="1500" height="1500" fill="url(#frameFace)" />
  <rect x="120" y="120" width="1260" height="1260" fill="#F8F7F3" />
  <rect x="120" y="120" width="1260" height="1260" fill="none" stroke="#000000" stroke-opacity="0.14" stroke-width="10" />
  <rect x="250" y="250" width="1000" height="1000" fill="#FFFFFF" filter="url(#artShadow)" />
  <rect x="250" y="250" width="125" height="125" fill="#4B3C3B" />
  <rect x="375" y="250" width="125" height="125" fill="#BCC7B7" />
  <rect x="500" y="250" width="125" height="125" fill="#949E94" />
  <rect x="625" y="250" width="125" height="125" fill="#D9D1BB" />
  <rect x="750" y="250" width="125" height="125" fill="#3E5C53" />
  <rect x="875" y="250" width="125" height="125" fill="#A8B9B2" />
  <rect x="1000" y="250" width="125" height="125" fill="#E1D8C3" />
  <rect x="1125" y="250" width="125" height="125" fill="#BEC5B8" />
  <rect x="250" y="375" width="125" height="125" fill="#C7C4B6" />
  <rect x="375" y="375" width="125" height="125" fill="#F0E8DB" />
  <rect x="500" y="375" width="125" height="125" fill="#877F7B" />
  <rect x="625" y="375" width="125" height="125" fill="#525C5C" />
  <rect x="750" y="375" width="125" height="125" fill="#A1A1AA" />
  <rect x="875" y="375" width="125" height="125" fill="#1E3D37" />
  <rect x="1000" y="375" width="125" height="125" fill="#448A6C" />
  <rect x="1125" y="375" width="125" height="125" fill="#FAD1A4" />
  <rect x="250" y="500" width="125" height="125" fill="#C7D7C7" />
  <rect x="375" y="500" width="125" height="125" fill="#7A9189" />
  <rect x="500" y="500" width="125" height="125" fill="#B9BDC1" />
  <rect x="625" y="500" width="125" height="125" fill="#DEE1DD" />
  <rect x="750" y="500" width="125" height="125" fill="#4B5C54" />
  <rect x="875" y="500" width="125" height="125" fill="#D03923" />
  <rect x="1000" y="500" width="125" height="125" fill="#4D6B60" />
  <rect x="1125" y="500" width="125" height="125" fill="#0B0F0E" />
  <rect x="250" y="625" width="125" height="125" fill="#C1B18B" />
  <rect x="375" y="625" width="125" height="125" fill="#263D39" />
  <rect x="500" y="625" width="125" height="125" fill="#A1C3B3" />
  <rect x="625" y="625" width="125" height="125" fill="#3D5B57" />
  <rect x="750" y="625" width="125" height="125" fill="#F2DCC8" />
  <rect x="875" y="625" width="125" height="125" fill="#B9BAA4" />
  <rect x="1000" y="625" width="125" height="125" fill="#AD9685" />
  <rect x="1125" y="625" width="125" height="125" fill="#6E7B74" />
  <rect x="250" y="750" width="125" height="125" fill="#E8DDDE" />
  <rect x="375" y="750" width="125" height="125" fill="#A4C8B9" />
  <rect x="500" y="750" width="125" height="125" fill="#F4E9D0" />
  <rect x="625" y="750" width="125" height="125" fill="#CFC6B8" />
  <rect x="750" y="750" width="125" height="125" fill="#597B9B" />
  <rect x="875" y="750" width="125" height="125" fill="#A7BAB6" />
  <rect x="1000" y="750" width="125" height="125" fill="#D8CFC2" />
  <rect x="1125" y="750" width="125" height="125" fill="#250F0F" />
  <rect x="250" y="875" width="125" height="125" fill="#7A8B73" />
  <rect x="375" y="875" width="125" height="125" fill="#E1D9C8" />
  <rect x="500" y="875" width="125" height="125" fill="#CCBA9D" />
  <rect x="625" y="875" width="125" height="125" fill="#A1A69D" />
  <rect x="750" y="875" width="125" height="125" fill="#4B5B5B" />
  <rect x="875" y="875" width="125" height="125" fill="#B2B6A4" />
  <rect x="1000" y="875" width="125" height="125" fill="#DAC3A7" />
  <rect x="1125" y="875" width="125" height="125" fill="#3B2C26" />
  <rect x="250" y="1000" width="125" height="125" fill="#6F7470" />
  <rect x="375" y="1000" width="125" height="125" fill="#B7B94C" />
  <rect x="500" y="1000" width="125" height="125" fill="#D9DDAE" />
  <rect x="625" y="1000" width="125" height="125" fill="#3A5C5C" />
  <rect x="750" y="1000" width="125" height="125" fill="#0D1612" />
  <rect x="875" y="1000" width="125" height="125" fill="#DAE7DB" />
  <rect x="1000" y="1000" width="125" height="125" fill="#948D7D" />
  <rect x="1125" y="1000" width="125" height="125" fill="#1B2A2D" />
  <rect x="250" y="1125" width="125" height="125" fill="#C2B7B3" />
  <rect x="375" y="1125" width="125" height="125" fill="#F8EFDD" />
  <rect x="500" y="1125" width="125" height="125" fill="#BFB1A3" />
  <rect x="625" y="1125" width="125" height="125" fill="#E3E9D1" />
  <rect x="750" y="1125" width="125" height="125" fill="#7D6D62" />
  <rect x="875" y="1125" width="125" height="125" fill="#4D3D3B" />
  <rect x="1000" y="1125" width="125" height="125" fill="#A8B8B4" />
  <rect x="1125" y="1125" width="125" height="125" fill="#B9AA9A" />
  <rect x="250" y="250" width="1000" height="1000" fill="none" stroke="#151515" stroke-opacity="0.16" stroke-width="2" />
</svg>
