<svg xmlns="http://www.w3.org/2000/svg" width="1500" height="1500" viewBox="0 0 1500 1500" shape-rendering="crispEdges" role="img" aria-labelledby="title desc">
  <title id="title">Rise vs Fall in White frame</title>
  <desc id="desc">Square Project artwork previewed in a white frame.</desc>
  <rect x="0" y="0" width="1500" height="1500" fill="#FFFFFF" />
  <image href="https://mysquareart.com/frames/white.jpg" x="0" y="0" width="1500" height="1500" preserveAspectRatio="xMidYMid meet" />
  <rect x="250" y="250" width="1000" height="1000" fill="#FFFFFF" />
  <rect x="250" y="250" width="125" height="125" fill="#FFC300" />
  <rect x="375" y="250" width="125" height="125" fill="#FF5733" />
  <rect x="500" y="250" width="125" height="125" fill="#C70039" />
  <rect x="625" y="250" width="125" height="125" fill="#900C3F" />
  <rect x="750" y="250" width="125" height="125" fill="#581845" />
  <rect x="875" y="250" width="125" height="125" fill="#4B0082" />
  <rect x="1000" y="250" width="125" height="125" fill="#293B8A" />
  <rect x="1125" y="250" width="125" height="125" fill="#1F1A6E" />
  <rect x="250" y="375" width="125" height="125" fill="#FFF3A0" />
  <rect x="375" y="375" width="125" height="125" fill="#FFBD69" />
  <rect x="500" y="375" width="125" height="125" fill="#FF7D00" />
  <rect x="625" y="375" width="125" height="125" fill="#FF5722" />
  <rect x="750" y="375" width="125" height="125" fill="#D64C34" />
  <rect x="875" y="375" width="125" height="125" fill="#8A4BBA" />
  <rect x="1000" y="375" width="125" height="125" fill="#6B44B0" />
  <rect x="1125" y="375" width="125" height="125" fill="#2C2A8A" />
  <rect x="250" y="500" width="125" height="125" fill="#FFF9DB" />
  <rect x="375" y="500" width="125" height="125" fill="#F1C40F" />
  <rect x="500" y="500" width="125" height="125" fill="#E67E22" />
  <rect x="625" y="500" width="125" height="125" fill="#D35400" />
  <rect x="750" y="500" width="125" height="125" fill="#1F3A3D" />
  <rect x="875" y="500" width="125" height="125" fill="#448E54" />
  <rect x="1000" y="500" width="125" height="125" fill="#4A00A1" />
  <rect x="1125" y="500" width="125" height="125" fill="#5C6785" />
  <rect x="250" y="625" width="125" height="125" fill="#FFFFFF" />
  <rect x="375" y="625" width="125" height="125" fill="#FFD700" />
  <rect x="500" y="625" width="125" height="125" fill="#FFA500" />
  <rect x="625" y="625" width="125" height="125" fill="#FF8C00" />
  <rect x="750" y="625" width="125" height="125" fill="#A53F00" />
  <rect x="875" y="625" width="125" height="125" fill="#457B9D" />
  <rect x="1000" y="625" width="125" height="125" fill="#2C3E50" />
  <rect x="1125" y="625" width="125" height="125" fill="#D2C2DE" />
  <rect x="250" y="750" width="125" height="125" fill="#F0F4C3" />
  <rect x="375" y="750" width="125" height="125" fill="#C1E1C1" />
  <rect x="500" y="750" width="125" height="125" fill="#A9DFBF" />
  <rect x="625" y="750" width="125" height="125" fill="#7FB3D5" />
  <rect x="750" y="750" width="125" height="125" fill="#6C3483" />
  <rect x="875" y="750" width="125" height="125" fill="#2980B9" />
  <rect x="1000" y="750" width="125" height="125" fill="#1ABC9C" />
  <rect x="1125" y="750" width="125" height="125" fill="#58D68D" />
  <rect x="250" y="875" width="125" height="125" fill="#F9E79F" />
  <rect x="375" y="875" width="125" height="125" fill="#F7DC6F" />
  <rect x="500" y="875" width="125" height="125" fill="#F4D03F" />
  <rect x="625" y="875" width="125" height="125" fill="#F39C12" />
  <rect x="750" y="875" width="125" height="125" fill="#D4AC0D" />
  <rect x="875" y="875" width="125" height="125" fill="#FF5733" />
  <rect x="1000" y="875" width="125" height="125" fill="#D5DBDB" />
  <rect x="1125" y="875" width="125" height="125" fill="#C1C1C1" />
  <rect x="250" y="1000" width="125" height="125" fill="#CED6E0" />
  <rect x="375" y="1000" width="125" height="125" fill="#B2B7B4" />
  <rect x="500" y="1000" width="125" height="125" fill="#949C9A" />
  <rect x="625" y="1000" width="125" height="125" fill="#747D75" />
  <rect x="750" y="1000" width="125" height="125" fill="#515A5A" />
  <rect x="875" y="1000" width="125" height="125" fill="#373D3D" />
  <rect x="1000" y="1000" width="125" height="125" fill="#232D30" />
  <rect x="1125" y="1000" width="125" height="125" fill="#1B1B1B" />
  <rect x="250" y="1125" width="125" height="125" fill="#000000" />
  <rect x="375" y="1125" width="125" height="125" fill="#111111" />
  <rect x="500" y="1125" width="125" height="125" fill="#222222" />
  <rect x="625" y="1125" width="125" height="125" fill="#333333" />
  <rect x="750" y="1125" width="125" height="125" fill="#444444" />
  <rect x="875" y="1125" width="125" height="125" fill="#555555" />
  <rect x="1000" y="1125" width="125" height="125" fill="#666666" />
  <rect x="1125" y="1125" width="125" height="125" fill="#777777" />
  <rect x="250" y="250" width="1000" height="1000" fill="none" stroke="#151515" stroke-opacity="0.16" stroke-width="2" />
</svg>
