<svg xmlns="http://www.w3.org/2000/svg" width="1500" height="1500" viewBox="0 0 1500 1500" shape-rendering="crispEdges" role="img" aria-labelledby="title desc">
  <title id="title">Tension Between Worlds in Black frame</title>
  <desc id="desc">Square Project artwork previewed in a black frame.</desc>
  <rect x="0" y="0" width="1500" height="1500" fill="#FFFFFF" />
  <image href="https://mysquareart.com/frames/black.jpg" x="0" y="0" width="1500" height="1500" preserveAspectRatio="xMidYMid meet" />
  <rect x="250" y="250" width="1000" height="1000" fill="#FFFFFF" />
  <rect x="250" y="250" width="125" height="125" fill="#7D6B5F" />
  <rect x="375" y="250" width="125" height="125" fill="#B8A8A1" />
  <rect x="500" y="250" width="125" height="125" fill="#C4C6C4" />
  <rect x="625" y="250" width="125" height="125" fill="#B6D0E6" />
  <rect x="750" y="250" width="125" height="125" fill="#7C9DAD" />
  <rect x="875" y="250" width="125" height="125" fill="#5D7A8A" />
  <rect x="1000" y="250" width="125" height="125" fill="#D9D1CC" />
  <rect x="1125" y="250" width="125" height="125" fill="#5D5A57" />
  <rect x="250" y="375" width="125" height="125" fill="#E8B8A4" />
  <rect x="375" y="375" width="125" height="125" fill="#AFA49D" />
  <rect x="500" y="375" width="125" height="125" fill="#B0B5A8" />
  <rect x="625" y="375" width="125" height="125" fill="#B3C4D7" />
  <rect x="750" y="375" width="125" height="125" fill="#A6D3E1" />
  <rect x="875" y="375" width="125" height="125" fill="#8FA1A7" />
  <rect x="1000" y="375" width="125" height="125" fill="#C4BDC9" />
  <rect x="1125" y="375" width="125" height="125" fill="#D9C9B0" />
  <rect x="250" y="500" width="125" height="125" fill="#B2D7E0" />
  <rect x="375" y="500" width="125" height="125" fill="#D3C6C0" />
  <rect x="500" y="500" width="125" height="125" fill="#C1A68D" />
  <rect x="625" y="500" width="125" height="125" fill="#A0AFA3" />
  <rect x="750" y="500" width="125" height="125" fill="#9BA3AC" />
  <rect x="875" y="500" width="125" height="125" fill="#BAE0E3" />
  <rect x="1000" y="500" width="125" height="125" fill="#8FBDC3" />
  <rect x="1125" y="500" width="125" height="125" fill="#460D0D" />
  <rect x="250" y="625" width="125" height="125" fill="#C8C8B7" />
  <rect x="375" y="625" width="125" height="125" fill="#A6B8A7" />
  <rect x="500" y="625" width="125" height="125" fill="#E1E5D1" />
  <rect x="625" y="625" width="125" height="125" fill="#A8D9E4" />
  <rect x="750" y="625" width="125" height="125" fill="#E0E0D4" />
  <rect x="875" y="625" width="125" height="125" fill="#B8BFBA" />
  <rect x="1000" y="625" width="125" height="125" fill="#A4918B" />
  <rect x="1125" y="625" width="125" height="125" fill="#7F5D5D" />
  <rect x="250" y="750" width="125" height="125" fill="#A3B3AD" />
  <rect x="375" y="750" width="125" height="125" fill="#C4B0A0" />
  <rect x="500" y="750" width="125" height="125" fill="#B2D0D1" />
  <rect x="625" y="750" width="125" height="125" fill="#8CBBCC" />
  <rect x="750" y="750" width="125" height="125" fill="#C2C7B8" />
  <rect x="875" y="750" width="125" height="125" fill="#E5E8E5" />
  <rect x="1000" y="750" width="125" height="125" fill="#A2A298" />
  <rect x="1125" y="750" width="125" height="125" fill="#735E5E" />
  <rect x="250" y="875" width="125" height="125" fill="#B7B89D" />
  <rect x="375" y="875" width="125" height="125" fill="#D7CFC2" />
  <rect x="500" y="875" width="125" height="125" fill="#A6B1B4" />
  <rect x="625" y="875" width="125" height="125" fill="#BDC5AB" />
  <rect x="750" y="875" width="125" height="125" fill="#C0C9C6" />
  <rect x="875" y="875" width="125" height="125" fill="#899E99" />
  <rect x="1000" y="875" width="125" height="125" fill="#C7A89E" />
  <rect x="1125" y="875" width="125" height="125" fill="#5A4E4F" />
  <rect x="250" y="1000" width="125" height="125" fill="#D8E0DA" />
  <rect x="375" y="1000" width="125" height="125" fill="#A7B4C0" />
  <rect x="500" y="1000" width="125" height="125" fill="#9DACB2" />
  <rect x="625" y="1000" width="125" height="125" fill="#BAC2AA" />
  <rect x="750" y="1000" width="125" height="125" fill="#C1D1B7" />
  <rect x="875" y="1000" width="125" height="125" fill="#8D8D6B" />
  <rect x="1000" y="1000" width="125" height="125" fill="#646582" />
  <rect x="1125" y="1000" width="125" height="125" fill="#A65353" />
  <rect x="250" y="1125" width="125" height="125" fill="#EAD8C0" />
  <rect x="375" y="1125" width="125" height="125" fill="#E2E1DA" />
  <rect x="500" y="1125" width="125" height="125" fill="#A3B7C5" />
  <rect x="625" y="1125" width="125" height="125" fill="#B9CFCF" />
  <rect x="750" y="1125" width="125" height="125" fill="#79B0C0" />
  <rect x="875" y="1125" width="125" height="125" fill="#E7E4D8" />
  <rect x="1000" y="1125" width="125" height="125" fill="#B1C1B2" />
  <rect x="1125" y="1125" width="125" height="125" fill="#433D3F" />
  <rect x="250" y="250" width="1000" height="1000" fill="none" stroke="#151515" stroke-opacity="0.16" stroke-width="2" />
</svg>
