<svg xmlns="http://www.w3.org/2000/svg" width="1500" height="1500" viewBox="0 0 1500 1500" shape-rendering="crispEdges" role="img" aria-labelledby="title desc">
  <title id="title">Exposure vs Shelter in Black frame</title>
  <desc id="desc">Square Project artwork previewed in a black frame.</desc>
  <defs>
    <linearGradient id="frameFace" x1="0" y1="0" x2="1" y2="1">
      <stop offset="0" stop-color="#6A6A6A" />
      <stop offset="0.32" stop-color="#343434" />
      <stop offset="0.68" stop-color="#111111" />
      <stop offset="1" stop-color="#050505" />
    </linearGradient>
    <filter id="artShadow" x="-10%" y="-10%" width="120%" height="120%">
      <feDropShadow dx="0" dy="20" stdDeviation="24" flood-color="#000000" flood-opacity="0.24" />
    </filter>
  </defs>
  <rect x="0" y="0" width="1500" height="1500" fill="#FFFFFF" />
  <rect x="0" y="0" width="1500" height="1500" fill="url(#frameFace)" />
  <rect x="120" y="120" width="1260" height="1260" fill="#F8F7F3" />
  <rect x="120" y="120" width="1260" height="1260" fill="none" stroke="#000000" stroke-opacity="0.14" stroke-width="10" />
  <rect x="250" y="250" width="1000" height="1000" fill="#FFFFFF" filter="url(#artShadow)" />
  <rect x="250" y="250" width="125" height="125" fill="#5B4E2C" />
  <rect x="375" y="250" width="125" height="125" fill="#6A5B3F" />
  <rect x="500" y="250" width="125" height="125" fill="#7B7D4B" />
  <rect x="625" y="250" width="125" height="125" fill="#E2B592" />
  <rect x="750" y="250" width="125" height="125" fill="#C3BCA1" />
  <rect x="875" y="250" width="125" height="125" fill="#D0E1F9" />
  <rect x="1000" y="250" width="125" height="125" fill="#A5BECC" />
  <rect x="1125" y="250" width="125" height="125" fill="#FFFFFF" />
  <rect x="250" y="375" width="125" height="125" fill="#4B3D26" />
  <rect x="375" y="375" width="125" height="125" fill="#645B42" />
  <rect x="500" y="375" width="125" height="125" fill="#AFA49D" />
  <rect x="625" y="375" width="125" height="125" fill="#F3D6C3" />
  <rect x="750" y="375" width="125" height="125" fill="#F4E7EB" />
  <rect x="875" y="375" width="125" height="125" fill="#D9F3FF" />
  <rect x="1000" y="375" width="125" height="125" fill="#A6C8E6" />
  <rect x="1125" y="375" width="125" height="125" fill="#D4E5F1" />
  <rect x="250" y="500" width="125" height="125" fill="#5D4A3D" />
  <rect x="375" y="500" width="125" height="125" fill="#E1C8AE" />
  <rect x="500" y="500" width="125" height="125" fill="#C5B9B0" />
  <rect x="625" y="500" width="125" height="125" fill="#E7E2D5" />
  <rect x="750" y="500" width="125" height="125" fill="#B7D0E4" />
  <rect x="875" y="500" width="125" height="125" fill="#8FB9D8" />
  <rect x="1000" y="500" width="125" height="125" fill="#2B5299" />
  <rect x="1125" y="500" width="125" height="125" fill="#7DA0B0" />
  <rect x="250" y="625" width="125" height="125" fill="#6E6D61" />
  <rect x="375" y="625" width="125" height="125" fill="#FFE8E5" />
  <rect x="500" y="625" width="125" height="125" fill="#F4D6D3" />
  <rect x="625" y="625" width="125" height="125" fill="#E0E0DC" />
  <rect x="750" y="625" width="125" height="125" fill="#B8DAE6" />
  <rect x="875" y="625" width="125" height="125" fill="#A1C4E4" />
  <rect x="1000" y="625" width="125" height="125" fill="#CEEDFE" />
  <rect x="1125" y="625" width="125" height="125" fill="#A6BCC2" />
  <rect x="250" y="750" width="125" height="125" fill="#7A7A6E" />
  <rect x="375" y="750" width="125" height="125" fill="#EAB8A6" />
  <rect x="500" y="750" width="125" height="125" fill="#D0DFD6" />
  <rect x="625" y="750" width="125" height="125" fill="#B5D5E9" />
  <rect x="750" y="750" width="125" height="125" fill="#4B6076" />
  <rect x="875" y="750" width="125" height="125" fill="#A4D6E7" />
  <rect x="1000" y="750" width="125" height="125" fill="#A4C0D2" />
  <rect x="1125" y="750" width="125" height="125" fill="#D0D9E9" />
  <rect x="250" y="875" width="125" height="125" fill="#333D3B" />
  <rect x="375" y="875" width="125" height="125" fill="#F7EBE7" />
  <rect x="500" y="875" width="125" height="125" fill="#B7B4A8" />
  <rect x="625" y="875" width="125" height="125" fill="#E9F0F3" />
  <rect x="750" y="875" width="125" height="125" fill="#C7E8F9" />
  <rect x="875" y="875" width="125" height="125" fill="#A2D7ED" />
  <rect x="1000" y="875" width="125" height="125" fill="#0C3D63" />
  <rect x="1125" y="875" width="125" height="125" fill="#2F5C87" />
  <rect x="250" y="1000" width="125" height="125" fill="#0F1114" />
  <rect x="375" y="1000" width="125" height="125" fill="#1C1E24" />
  <rect x="500" y="1000" width="125" height="125" fill="#888B8F" />
  <rect x="625" y="1000" width="125" height="125" fill="#B7C9D4" />
  <rect x="750" y="1000" width="125" height="125" fill="#B7D6E2" />
  <rect x="875" y="1000" width="125" height="125" fill="#D0DDE7" />
  <rect x="1000" y="1000" width="125" height="125" fill="#A8C4D8" />
  <rect x="1125" y="1000" width="125" height="125" fill="#A7B7C1" />
  <rect x="250" y="1125" width="125" height="125" fill="#B6B7B8" />
  <rect x="375" y="1125" width="125" height="125" fill="#B4D3C7" />
  <rect x="500" y="1125" width="125" height="125" fill="#B9CED0" />
  <rect x="625" y="1125" width="125" height="125" fill="#E5E8E7" />
  <rect x="750" y="1125" width="125" height="125" fill="#E7F4F3" />
  <rect x="875" y="1125" width="125" height="125" fill="#D3E9EA" />
  <rect x="1000" y="1125" width="125" height="125" fill="#89C6DB" />
  <rect x="1125" y="1125" width="125" height="125" fill="#6BA8C6" />
  <rect x="250" y="250" width="1000" height="1000" fill="none" stroke="#151515" stroke-opacity="0.16" stroke-width="2" />
</svg>
