<svg xmlns="http://www.w3.org/2000/svg" width="1500" height="1500" viewBox="0 0 1500 1500" shape-rendering="crispEdges" role="img" aria-labelledby="title desc">
  <title id="title">Tension in Balance in Natural frame</title>
  <desc id="desc">Square Project artwork previewed in a natural frame.</desc>
  <defs>
    <linearGradient id="frameFace" x1="0" y1="0" x2="1" y2="1">
      <stop offset="0" stop-color="#8F6F35" />
      <stop offset="0.32" stop-color="#F0DDAA" />
      <stop offset="0.68" stop-color="#D8C190" />
      <stop offset="1" stop-color="#B39155" />
    </linearGradient>
    <filter id="artShadow" x="-10%" y="-10%" width="120%" height="120%">
      <feDropShadow dx="0" dy="20" stdDeviation="24" flood-color="#000000" flood-opacity="0.24" />
    </filter>
  </defs>
  <rect x="0" y="0" width="1500" height="1500" fill="#FFFFFF" />
  <rect x="0" y="0" width="1500" height="1500" fill="url(#frameFace)" />
  <rect x="120" y="120" width="1260" height="1260" fill="#F8F7F3" />
  <rect x="120" y="120" width="1260" height="1260" fill="none" stroke="#000000" stroke-opacity="0.14" stroke-width="10" />
  <rect x="250" y="250" width="1000" height="1000" fill="#FFFFFF" filter="url(#artShadow)" />
  <rect x="250" y="250" width="125" height="125" fill="#4B2C29" />
  <rect x="375" y="250" width="125" height="125" fill="#7A4D2A" />
  <rect x="500" y="250" width="125" height="125" fill="#1B1A17" />
  <rect x="625" y="250" width="125" height="125" fill="#D0BBA0" />
  <rect x="750" y="250" width="125" height="125" fill="#2A2A2A" />
  <rect x="875" y="250" width="125" height="125" fill="#7D6A55" />
  <rect x="1000" y="250" width="125" height="125" fill="#B08070" />
  <rect x="1125" y="250" width="125" height="125" fill="#EAE4D5" />
  <rect x="250" y="375" width="125" height="125" fill="#7B3A2D" />
  <rect x="375" y="375" width="125" height="125" fill="#C8B253" />
  <rect x="500" y="375" width="125" height="125" fill="#2F2D2C" />
  <rect x="625" y="375" width="125" height="125" fill="#3F2F28" />
  <rect x="750" y="375" width="125" height="125" fill="#8E5E50" />
  <rect x="875" y="375" width="125" height="125" fill="#DAC1AA" />
  <rect x="1000" y="375" width="125" height="125" fill="#3A382F" />
  <rect x="1125" y="375" width="125" height="125" fill="#6D5E54" />
  <rect x="250" y="500" width="125" height="125" fill="#C0A68C" />
  <rect x="375" y="500" width="125" height="125" fill="#D5B095" />
  <rect x="500" y="500" width="125" height="125" fill="#4E4A48" />
  <rect x="625" y="500" width="125" height="125" fill="#E3DBD3" />
  <rect x="750" y="500" width="125" height="125" fill="#5A4B47" />
  <rect x="875" y="500" width="125" height="125" fill="#8D7B6D" />
  <rect x="1000" y="500" width="125" height="125" fill="#2D2A26" />
  <rect x="1125" y="500" width="125" height="125" fill="#B3B0A6" />
  <rect x="250" y="625" width="125" height="125" fill="#7E6F6B" />
  <rect x="375" y="625" width="125" height="125" fill="#D2C6B1" />
  <rect x="500" y="625" width="125" height="125" fill="#423B38" />
  <rect x="625" y="625" width="125" height="125" fill="#9A8882" />
  <rect x="750" y="625" width="125" height="125" fill="#BFBAA5" />
  <rect x="875" y="625" width="125" height="125" fill="#C7BFA8" />
  <rect x="1000" y="625" width="125" height="125" fill="#5A5250" />
  <rect x="1125" y="625" width="125" height="125" fill="#393C38" />
  <rect x="250" y="750" width="125" height="125" fill="#5F5546" />
  <rect x="375" y="750" width="125" height="125" fill="#B78C73" />
  <rect x="500" y="750" width="125" height="125" fill="#4D4B47" />
  <rect x="625" y="750" width="125" height="125" fill="#A04A46" />
  <rect x="750" y="750" width="125" height="125" fill="#D9C7B8" />
  <rect x="875" y="750" width="125" height="125" fill="#E4D8CB" />
  <rect x="1000" y="750" width="125" height="125" fill="#393C38" />
  <rect x="1125" y="750" width="125" height="125" fill="#2D2D2D" />
  <rect x="250" y="875" width="125" height="125" fill="#3D3938" />
  <rect x="375" y="875" width="125" height="125" fill="#173D3A" />
  <rect x="500" y="875" width="125" height="125" fill="#A15851" />
  <rect x="625" y="875" width="125" height="125" fill="#E6C9B7" />
  <rect x="750" y="875" width="125" height="125" fill="#D9C6B5" />
  <rect x="875" y="875" width="125" height="125" fill="#970F14" />
  <rect x="1000" y="875" width="125" height="125" fill="#5D5B55" />
  <rect x="1125" y="875" width="125" height="125" fill="#7E6C65" />
  <rect x="250" y="1000" width="125" height="125" fill="#A16257" />
  <rect x="375" y="1000" width="125" height="125" fill="#D4B0A0" />
  <rect x="500" y="1000" width="125" height="125" fill="#3C3C38" />
  <rect x="625" y="1000" width="125" height="125" fill="#A95F52" />
  <rect x="750" y="1000" width="125" height="125" fill="#E3D9CC" />
  <rect x="875" y="1000" width="125" height="125" fill="#B1A38E" />
  <rect x="1000" y="1000" width="125" height="125" fill="#242627" />
  <rect x="1125" y="1000" width="125" height="125" fill="#5B5050" />
  <rect x="250" y="1125" width="125" height="125" fill="#2C2A26" />
  <rect x="375" y="1125" width="125" height="125" fill="#7A5D51" />
  <rect x="500" y="1125" width="125" height="125" fill="#C7C0B3" />
  <rect x="625" y="1125" width="125" height="125" fill="#B29279" />
  <rect x="750" y="1125" width="125" height="125" fill="#D5C5B2" />
  <rect x="875" y="1125" width="125" height="125" fill="#6C6A65" />
  <rect x="1000" y="1125" width="125" height="125" fill="#385353" />
  <rect x="1125" y="1125" width="125" height="125" fill="#3C2F2F" />
  <rect x="250" y="250" width="1000" height="1000" fill="none" stroke="#151515" stroke-opacity="0.16" stroke-width="2" />
</svg>
