<svg xmlns="http://www.w3.org/2000/svg" width="1500" height="1500" viewBox="0 0 1500 1500" shape-rendering="crispEdges" role="img" aria-labelledby="title desc">
  <title id="title">Order vs Chaos in Black frame</title>
  <desc id="desc">Square Project artwork previewed in a black frame.</desc>
  <defs>
    <linearGradient id="frameFace" x1="0" y1="0" x2="1" y2="1">
      <stop offset="0" stop-color="#6A6A6A" />
      <stop offset="0.32" stop-color="#343434" />
      <stop offset="0.68" stop-color="#111111" />
      <stop offset="1" stop-color="#050505" />
    </linearGradient>
    <filter id="artShadow" x="-10%" y="-10%" width="120%" height="120%">
      <feDropShadow dx="0" dy="20" stdDeviation="24" flood-color="#000000" flood-opacity="0.24" />
    </filter>
  </defs>
  <rect x="0" y="0" width="1500" height="1500" fill="#FFFFFF" />
  <rect x="0" y="0" width="1500" height="1500" fill="url(#frameFace)" />
  <rect x="120" y="120" width="1260" height="1260" fill="#F8F7F3" />
  <rect x="120" y="120" width="1260" height="1260" fill="none" stroke="#000000" stroke-opacity="0.14" stroke-width="10" />
  <rect x="250" y="250" width="1000" height="1000" fill="#FFFFFF" filter="url(#artShadow)" />
  <rect x="250" y="250" width="125" height="125" fill="#FFD700" />
  <rect x="375" y="250" width="125" height="125" fill="#FFDA44" />
  <rect x="500" y="250" width="125" height="125" fill="#FFCA30" />
  <rect x="625" y="250" width="125" height="125" fill="#FFB328" />
  <rect x="750" y="250" width="125" height="125" fill="#FFAA20" />
  <rect x="875" y="250" width="125" height="125" fill="#FFA013" />
  <rect x="1000" y="250" width="125" height="125" fill="#FF9508" />
  <rect x="1125" y="250" width="125" height="125" fill="#FF8900" />
  <rect x="250" y="375" width="125" height="125" fill="#FFA500" />
  <rect x="375" y="375" width="125" height="125" fill="#FF8E00" />
  <rect x="500" y="375" width="125" height="125" fill="#FF7F00" />
  <rect x="625" y="375" width="125" height="125" fill="#FF6E00" />
  <rect x="750" y="375" width="125" height="125" fill="#FF5D00" />
  <rect x="875" y="375" width="125" height="125" fill="#FF4D00" />
  <rect x="1000" y="375" width="125" height="125" fill="#FF3D00" />
  <rect x="1125" y="375" width="125" height="125" fill="#FF2C00" />
  <rect x="250" y="500" width="125" height="125" fill="#000080" />
  <rect x="375" y="500" width="125" height="125" fill="#001F4D" />
  <rect x="500" y="500" width="125" height="125" fill="#003D80" />
  <rect x="625" y="500" width="125" height="125" fill="#005CA8" />
  <rect x="750" y="500" width="125" height="125" fill="#007BDB" />
  <rect x="875" y="500" width="125" height="125" fill="#0091EA" />
  <rect x="1000" y="500" width="125" height="125" fill="#00A7FF" />
  <rect x="1125" y="500" width="125" height="125" fill="#00B7FF" />
  <rect x="250" y="625" width="125" height="125" fill="#002E5B" />
  <rect x="375" y="625" width="125" height="125" fill="#003D80" />
  <rect x="500" y="625" width="125" height="125" fill="#004F7F" />
  <rect x="625" y="625" width="125" height="125" fill="#0070A0" />
  <rect x="750" y="625" width="125" height="125" fill="#0091C7" />
  <rect x="875" y="625" width="125" height="125" fill="#00B7DB" />
  <rect x="1000" y="625" width="125" height="125" fill="#1CD4FF" />
  <rect x="1125" y="625" width="125" height="125" fill="#55E1FF" />
  <rect x="250" y="750" width="125" height="125" fill="#4B0063" />
  <rect x="375" y="750" width="125" height="125" fill="#5E0057" />
  <rect x="500" y="750" width="125" height="125" fill="#720046" />
  <rect x="625" y="750" width="125" height="125" fill="#86003B" />
  <rect x="750" y="750" width="125" height="125" fill="#A30030" />
  <rect x="875" y="750" width="125" height="125" fill="#BF0032" />
  <rect x="1000" y="750" width="125" height="125" fill="#D8003B" />
  <rect x="1125" y="750" width="125" height="125" fill="#E60646" />
  <rect x="250" y="875" width="125" height="125" fill="#3D0F49" />
  <rect x="375" y="875" width="125" height="125" fill="#5F2050" />
  <rect x="500" y="875" width="125" height="125" fill="#801F5E" />
  <rect x="625" y="875" width="125" height="125" fill="#A82E6F" />
  <rect x="750" y="875" width="125" height="125" fill="#B03D79" />
  <rect x="875" y="875" width="125" height="125" fill="#C75489" />
  <rect x="1000" y="875" width="125" height="125" fill="#D87A9E" />
  <rect x="1125" y="875" width="125" height="125" fill="#EAB0B3" />
  <rect x="250" y="1000" width="125" height="125" fill="#300820" />
  <rect x="375" y="1000" width="125" height="125" fill="#3D2333" />
  <rect x="500" y="1000" width="125" height="125" fill="#5A2D43" />
  <rect x="625" y="1000" width="125" height="125" fill="#782D69" />
  <rect x="750" y="1000" width="125" height="125" fill="#823847" />
  <rect x="875" y="1000" width="125" height="125" fill="#972052" />
  <rect x="1000" y="1000" width="125" height="125" fill="#AA2B64" />
  <rect x="1125" y="1000" width="125" height="125" fill="#B62C7B" />
  <rect x="250" y="1125" width="125" height="125" fill="#000000" />
  <rect x="375" y="1125" width="125" height="125" fill="#2A2D33" />
  <rect x="500" y="1125" width="125" height="125" fill="#535C68" />
  <rect x="625" y="1125" width="125" height="125" fill="#A0B2C5" />
  <rect x="750" y="1125" width="125" height="125" fill="#B7C8D7" />
  <rect x="875" y="1125" width="125" height="125" fill="#D2E1EB" />
  <rect x="1000" y="1125" width="125" height="125" fill="#F2F2F2" />
  <rect x="1125" y="1125" width="125" height="125" fill="#FFFFFF" />
  <rect x="250" y="250" width="1000" height="1000" fill="none" stroke="#151515" stroke-opacity="0.16" stroke-width="2" />
</svg>
