<svg xmlns="http://www.w3.org/2000/svg" width="1500" height="1500" viewBox="0 0 1500 1500" shape-rendering="crispEdges" role="img" aria-labelledby="title desc">
  <title id="title">Echoes of Tension in Natural frame</title>
  <desc id="desc">Square Project artwork previewed in a natural frame.</desc>
  <defs>
    <linearGradient id="frameFace" x1="0" y1="0" x2="1" y2="1">
      <stop offset="0" stop-color="#FFF1D7" />
      <stop offset="0.32" stop-color="#E8D4B7" />
      <stop offset="0.68" stop-color="#C2A17B" />
      <stop offset="1" stop-color="#8D6F50" />
    </linearGradient>
    <pattern id="naturalGrain" patternUnits="userSpaceOnUse" width="180" height="48">
      <path d="M0 12 C48 2 92 24 180 10" fill="none" stroke="#8D6F50" stroke-opacity="0.22" stroke-width="5" />
      <path d="M0 34 C62 44 118 22 180 36" fill="none" stroke="#FFFFFF" stroke-opacity="0.22" stroke-width="4" />
    </pattern>
    <filter id="artShadow" x="-10%" y="-10%" width="120%" height="120%">
      <feDropShadow dx="0" dy="20" stdDeviation="24" flood-color="#000000" flood-opacity="0.24" />
    </filter>
  </defs>
  <rect x="0" y="0" width="1500" height="1500" fill="#FFFFFF" />
  <rect x="0" y="0" width="1500" height="1500" fill="url(#frameFace)" />
  <rect x="0" y="0" width="1500" height="1500" fill="url(#naturalGrain)" />
  <rect x="120" y="120" width="1260" height="1260" fill="#F8F7F3" />
  <rect x="120" y="120" width="1260" height="1260" fill="none" stroke="#000000" stroke-opacity="0.14" stroke-width="10" />
  <rect x="250" y="250" width="1000" height="1000" fill="#FFFFFF" filter="url(#artShadow)" />
  <rect x="250" y="250" width="125" height="125" fill="#6F4C3E" />
  <rect x="375" y="250" width="125" height="125" fill="#B39C8E" />
  <rect x="500" y="250" width="125" height="125" fill="#E2D3B2" />
  <rect x="625" y="250" width="125" height="125" fill="#D4CFC0" />
  <rect x="750" y="250" width="125" height="125" fill="#5B3A24" />
  <rect x="875" y="250" width="125" height="125" fill="#F0E7D5" />
  <rect x="1000" y="250" width="125" height="125" fill="#D1E8E7" />
  <rect x="1125" y="250" width="125" height="125" fill="#E8CBA0" />
  <rect x="250" y="375" width="125" height="125" fill="#E0C4A7" />
  <rect x="375" y="375" width="125" height="125" fill="#AA8C75" />
  <rect x="500" y="375" width="125" height="125" fill="#4E2F2A" />
  <rect x="625" y="375" width="125" height="125" fill="#D29272" />
  <rect x="750" y="375" width="125" height="125" fill="#C4BEB3" />
  <rect x="875" y="375" width="125" height="125" fill="#F9F4E4" />
  <rect x="1000" y="375" width="125" height="125" fill="#9D6B4E" />
  <rect x="1125" y="375" width="125" height="125" fill="#C6855C" />
  <rect x="250" y="500" width="125" height="125" fill="#9B6B40" />
  <rect x="375" y="500" width="125" height="125" fill="#C7BC9A" />
  <rect x="500" y="500" width="125" height="125" fill="#4B3B35" />
  <rect x="625" y="500" width="125" height="125" fill="#E1C6B3" />
  <rect x="750" y="500" width="125" height="125" fill="#D8B7A0" />
  <rect x="875" y="500" width="125" height="125" fill="#B39F9B" />
  <rect x="1000" y="500" width="125" height="125" fill="#703B30" />
  <rect x="1125" y="500" width="125" height="125" fill="#C4938A" />
  <rect x="250" y="625" width="125" height="125" fill="#F8E2C9" />
  <rect x="375" y="625" width="125" height="125" fill="#DEBB96" />
  <rect x="500" y="625" width="125" height="125" fill="#513D34" />
  <rect x="625" y="625" width="125" height="125" fill="#BA8D6D" />
  <rect x="750" y="625" width="125" height="125" fill="#F3E1B8" />
  <rect x="875" y="625" width="125" height="125" fill="#B2C8C7" />
  <rect x="1000" y="625" width="125" height="125" fill="#A07547" />
  <rect x="1125" y="625" width="125" height="125" fill="#CBBDA6" />
  <rect x="250" y="750" width="125" height="125" fill="#D9C1B8" />
  <rect x="375" y="750" width="125" height="125" fill="#A87D6D" />
  <rect x="500" y="750" width="125" height="125" fill="#4E2B2B" />
  <rect x="625" y="750" width="125" height="125" fill="#CBBDA7" />
  <rect x="750" y="750" width="125" height="125" fill="#E5D5C7" />
  <rect x="875" y="750" width="125" height="125" fill="#8C691F" />
  <rect x="1000" y="750" width="125" height="125" fill="#F6E0B3" />
  <rect x="1125" y="750" width="125" height="125" fill="#E1B1A4" />
  <rect x="250" y="875" width="125" height="125" fill="#D6A46D" />
  <rect x="375" y="875" width="125" height="125" fill="#A74427" />
  <rect x="500" y="875" width="125" height="125" fill="#C2986E" />
  <rect x="625" y="875" width="125" height="125" fill="#E5D3B4" />
  <rect x="750" y="875" width="125" height="125" fill="#A2643B" />
  <rect x="875" y="875" width="125" height="125" fill="#DFD4C7" />
  <rect x="1000" y="875" width="125" height="125" fill="#B79F7A" />
  <rect x="1125" y="875" width="125" height="125" fill="#C8B9A4" />
  <rect x="250" y="1000" width="125" height="125" fill="#B28F48" />
  <rect x="375" y="1000" width="125" height="125" fill="#D5D8D7" />
  <rect x="500" y="1000" width="125" height="125" fill="#CBBDA2" />
  <rect x="625" y="1000" width="125" height="125" fill="#BC8B24" />
  <rect x="750" y="1000" width="125" height="125" fill="#DACFC2" />
  <rect x="875" y="1000" width="125" height="125" fill="#A75427" />
  <rect x="1000" y="1000" width="125" height="125" fill="#B8D1C2" />
  <rect x="1125" y="1000" width="125" height="125" fill="#D6D1BC" />
  <rect x="250" y="1125" width="125" height="125" fill="#F1E6D0" />
  <rect x="375" y="1125" width="125" height="125" fill="#9C5A3C" />
  <rect x="500" y="1125" width="125" height="125" fill="#6B3D3A" />
  <rect x="625" y="1125" width="125" height="125" fill="#E4C0A8" />
  <rect x="750" y="1125" width="125" height="125" fill="#F6E4D5" />
  <rect x="875" y="1125" width="125" height="125" fill="#D3C2B8" />
  <rect x="1000" y="1125" width="125" height="125" fill="#B8A99D" />
  <rect x="1125" y="1125" width="125" height="125" fill="#EAE6E6" />
  <rect x="250" y="250" width="1000" height="1000" fill="none" stroke="#151515" stroke-opacity="0.16" stroke-width="2" />
</svg>
