<svg xmlns="http://www.w3.org/2000/svg" width="1500" height="1500" viewBox="0 0 1500 1500" shape-rendering="crispEdges" role="img" aria-labelledby="title desc">
  <title id="title">Contradictory Waves in White frame</title>
  <desc id="desc">Square Project artwork previewed in a white frame.</desc>
  <defs>
    <linearGradient id="frameFace" x1="0" y1="0" x2="1" y2="1">
      <stop offset="0" stop-color="#BEBEB8" />
      <stop offset="0.32" stop-color="#FFFFFF" />
      <stop offset="0.68" stop-color="#F8F8F5" />
      <stop offset="1" stop-color="#D5D5CF" />
    </linearGradient>
    <filter id="artShadow" x="-10%" y="-10%" width="120%" height="120%">
      <feDropShadow dx="0" dy="20" stdDeviation="24" flood-color="#000000" flood-opacity="0.24" />
    </filter>
  </defs>
  <rect x="0" y="0" width="1500" height="1500" fill="#FFFFFF" />
  <rect x="0" y="0" width="1500" height="1500" fill="url(#frameFace)" />
  <rect x="120" y="120" width="1260" height="1260" fill="#F8F7F3" />
  <rect x="120" y="120" width="1260" height="1260" fill="none" stroke="#000000" stroke-opacity="0.14" stroke-width="10" />
  <rect x="250" y="250" width="1000" height="1000" fill="#FFFFFF" filter="url(#artShadow)" />
  <rect x="250" y="250" width="125" height="125" fill="#000000" />
  <rect x="375" y="250" width="125" height="125" fill="#0B0C0D" />
  <rect x="500" y="250" width="125" height="125" fill="#1E2122" />
  <rect x="625" y="250" width="125" height="125" fill="#2B2D2F" />
  <rect x="750" y="250" width="125" height="125" fill="#3C3F42" />
  <rect x="875" y="250" width="125" height="125" fill="#4D5053" />
  <rect x="1000" y="250" width="125" height="125" fill="#5B5F62" />
  <rect x="1125" y="250" width="125" height="125" fill="#6A6E72" />
  <rect x="250" y="375" width="125" height="125" fill="#707274" />
  <rect x="375" y="375" width="125" height="125" fill="#6882BF" />
  <rect x="500" y="375" width="125" height="125" fill="#B55D8D" />
  <rect x="625" y="375" width="125" height="125" fill="#EE2B42" />
  <rect x="750" y="375" width="125" height="125" fill="#5A5D63" />
  <rect x="875" y="375" width="125" height="125" fill="#3D4145" />
  <rect x="1000" y="375" width="125" height="125" fill="#B4B8BC" />
  <rect x="1125" y="375" width="125" height="125" fill="#A1A5A8" />
  <rect x="250" y="500" width="125" height="125" fill="#C4C6C9" />
  <rect x="375" y="500" width="125" height="125" fill="#DDDDDF" />
  <rect x="500" y="500" width="125" height="125" fill="#FFFFFF" />
  <rect x="625" y="500" width="125" height="125" fill="#A7A8A9" />
  <rect x="750" y="500" width="125" height="125" fill="#585A5C" />
  <rect x="875" y="500" width="125" height="125" fill="#1A1B1C" />
  <rect x="1000" y="500" width="125" height="125" fill="#44484B" />
  <rect x="1125" y="500" width="125" height="125" fill="#282D30" />
  <rect x="250" y="625" width="125" height="125" fill="#FFCC00" />
  <rect x="375" y="625" width="125" height="125" fill="#B3B5B7" />
  <rect x="500" y="625" width="125" height="125" fill="#FFA600" />
  <rect x="625" y="625" width="125" height="125" fill="#FFE600" />
  <rect x="750" y="625" width="125" height="125" fill="#FF9900" />
  <rect x="875" y="625" width="125" height="125" fill="#D7D9DB" />
  <rect x="1000" y="625" width="125" height="125" fill="#9A9C9D" />
  <rect x="1125" y="625" width="125" height="125" fill="#B0B3B5" />
  <rect x="250" y="750" width="125" height="125" fill="#E6E7E9" />
  <rect x="375" y="750" width="125" height="125" fill="#2D3337" />
  <rect x="500" y="750" width="125" height="125" fill="#1B1D1F" />
  <rect x="625" y="750" width="125" height="125" fill="#F6F8FA" />
  <rect x="750" y="750" width="125" height="125" fill="#7F7F80" />
  <rect x="875" y="750" width="125" height="125" fill="#C0C3C5" />
  <rect x="1000" y="750" width="125" height="125" fill="#A4A7A8" />
  <rect x="1125" y="750" width="125" height="125" fill="#8E9092" />
  <rect x="250" y="875" width="125" height="125" fill="#4B4C4E" />
  <rect x="375" y="875" width="125" height="125" fill="#7A7C7D" />
  <rect x="500" y="875" width="125" height="125" fill="#BA4D73" />
  <rect x="625" y="875" width="125" height="125" fill="#FF4E00" />
  <rect x="750" y="875" width="125" height="125" fill="#FFDD00" />
  <rect x="875" y="875" width="125" height="125" fill="#E7E9EA" />
  <rect x="1000" y="875" width="125" height="125" fill="#3F4244" />
  <rect x="1125" y="875" width="125" height="125" fill="#5A5C5E" />
  <rect x="250" y="1000" width="125" height="125" fill="#9E9FA0" />
  <rect x="375" y="1000" width="125" height="125" fill="#BFBFC0" />
  <rect x="500" y="1000" width="125" height="125" fill="#FFFF00" />
  <rect x="625" y="1000" width="125" height="125" fill="#555B5E" />
  <rect x="750" y="1000" width="125" height="125" fill="#5E6163" />
  <rect x="875" y="1000" width="125" height="125" fill="#3C3F42" />
  <rect x="1000" y="1000" width="125" height="125" fill="#2A2D30" />
  <rect x="1125" y="1000" width="125" height="125" fill="#1D1F21" />
  <rect x="250" y="1125" width="125" height="125" fill="#4A4D50" />
  <rect x="375" y="1125" width="125" height="125" fill="#8B8D8F" />
  <rect x="500" y="1125" width="125" height="125" fill="#A1A3A5" />
  <rect x="625" y="1125" width="125" height="125" fill="#FE4D6E" />
  <rect x="750" y="1125" width="125" height="125" fill="#FD9876" />
  <rect x="875" y="1125" width="125" height="125" fill="#FF9C00" />
  <rect x="1000" y="1125" width="125" height="125" fill="#FFDA00" />
  <rect x="1125" y="1125" width="125" height="125" fill="#D0D3D5" />
  <rect x="250" y="250" width="1000" height="1000" fill="none" stroke="#151515" stroke-opacity="0.16" stroke-width="2" />
</svg>
