<svg xmlns="http://www.w3.org/2000/svg" width="1500" height="1500" viewBox="0 0 1500 1500" shape-rendering="crispEdges" role="img" aria-labelledby="title desc">
  <title id="title">Fractured Echoes in Natural frame</title>
  <desc id="desc">Square Project artwork previewed in a natural frame.</desc>
  <defs>
    <linearGradient id="frameFace" x1="0" y1="0" x2="1" y2="1">
      <stop offset="0" stop-color="#8F6F35" />
      <stop offset="0.32" stop-color="#F0DDAA" />
      <stop offset="0.68" stop-color="#D8C190" />
      <stop offset="1" stop-color="#B39155" />
    </linearGradient>
    <filter id="artShadow" x="-10%" y="-10%" width="120%" height="120%">
      <feDropShadow dx="0" dy="20" stdDeviation="24" flood-color="#000000" flood-opacity="0.24" />
    </filter>
  </defs>
  <rect x="0" y="0" width="1500" height="1500" fill="#FFFFFF" />
  <rect x="0" y="0" width="1500" height="1500" fill="url(#frameFace)" />
  <rect x="120" y="120" width="1260" height="1260" fill="#F8F7F3" />
  <rect x="120" y="120" width="1260" height="1260" fill="none" stroke="#000000" stroke-opacity="0.14" stroke-width="10" />
  <rect x="250" y="250" width="1000" height="1000" fill="#FFFFFF" filter="url(#artShadow)" />
  <rect x="250" y="250" width="125" height="125" fill="#0A0A0A" />
  <rect x="375" y="250" width="125" height="125" fill="#1C1C2D" />
  <rect x="500" y="250" width="125" height="125" fill="#2E2E58" />
  <rect x="625" y="250" width="125" height="125" fill="#444C7D" />
  <rect x="750" y="250" width="125" height="125" fill="#5A6F8D" />
  <rect x="875" y="250" width="125" height="125" fill="#3D5F77" />
  <rect x="1000" y="250" width="125" height="125" fill="#A0A0B9" />
  <rect x="1125" y="250" width="125" height="125" fill="#D9D9E7" />
  <rect x="250" y="375" width="125" height="125" fill="#1F1F1F" />
  <rect x="375" y="375" width="125" height="125" fill="#292934" />
  <rect x="500" y="375" width="125" height="125" fill="#353545" />
  <rect x="625" y="375" width="125" height="125" fill="#757B91" />
  <rect x="750" y="375" width="125" height="125" fill="#A1A4C0" />
  <rect x="875" y="375" width="125" height="125" fill="#B7B7C9" />
  <rect x="1000" y="375" width="125" height="125" fill="#E3E5E9" />
  <rect x="1125" y="375" width="125" height="125" fill="#FFFFFF" />
  <rect x="250" y="500" width="125" height="125" fill="#000000" />
  <rect x="375" y="500" width="125" height="125" fill="#212121" />
  <rect x="500" y="500" width="125" height="125" fill="#333333" />
  <rect x="625" y="500" width="125" height="125" fill="#484848" />
  <rect x="750" y="500" width="125" height="125" fill="#4B4B4B" />
  <rect x="875" y="500" width="125" height="125" fill="#636363" />
  <rect x="1000" y="500" width="125" height="125" fill="#BFBFBF" />
  <rect x="1125" y="500" width="125" height="125" fill="#DADADA" />
  <rect x="250" y="625" width="125" height="125" fill="#2E1F31" />
  <rect x="375" y="625" width="125" height="125" fill="#492239" />
  <rect x="500" y="625" width="125" height="125" fill="#741F33" />
  <rect x="625" y="625" width="125" height="125" fill="#910F1C" />
  <rect x="750" y="625" width="125" height="125" fill="#AA382C" />
  <rect x="875" y="625" width="125" height="125" fill="#EFA194" />
  <rect x="1000" y="625" width="125" height="125" fill="#F1B2A8" />
  <rect x="1125" y="625" width="125" height="125" fill="#F9E9E5" />
  <rect x="250" y="750" width="125" height="125" fill="#000000" />
  <rect x="375" y="750" width="125" height="125" fill="#2A2A30" />
  <rect x="500" y="750" width="125" height="125" fill="#4D4D52" />
  <rect x="625" y="750" width="125" height="125" fill="#A0A0B2" />
  <rect x="750" y="750" width="125" height="125" fill="#C4C1C1" />
  <rect x="875" y="750" width="125" height="125" fill="#DADADA" />
  <rect x="1000" y="750" width="125" height="125" fill="#EDEDED" />
  <rect x="1125" y="750" width="125" height="125" fill="#FFFFFF" />
  <rect x="250" y="875" width="125" height="125" fill="#1A1A1A" />
  <rect x="375" y="875" width="125" height="125" fill="#373737" />
  <rect x="500" y="875" width="125" height="125" fill="#474747" />
  <rect x="625" y="875" width="125" height="125" fill="#505050" />
  <rect x="750" y="875" width="125" height="125" fill="#909090" />
  <rect x="875" y="875" width="125" height="125" fill="#D7D7D7" />
  <rect x="1000" y="875" width="125" height="125" fill="#EBEBEB" />
  <rect x="1125" y="875" width="125" height="125" fill="#FFFFFF" />
  <rect x="250" y="1000" width="125" height="125" fill="#0E0E0E" />
  <rect x="375" y="1000" width="125" height="125" fill="#121212" />
  <rect x="500" y="1000" width="125" height="125" fill="#1E1E1E" />
  <rect x="625" y="1000" width="125" height="125" fill="#3D3D3D" />
  <rect x="750" y="1000" width="125" height="125" fill="#8C8C8C" />
  <rect x="875" y="1000" width="125" height="125" fill="#BEC2C2" />
  <rect x="1000" y="1000" width="125" height="125" fill="#DEDEDE" />
  <rect x="1125" y="1000" width="125" height="125" fill="#FFFFFF" />
  <rect x="250" y="1125" width="125" height="125" fill="#000000" />
  <rect x="375" y="1125" width="125" height="125" fill="#3C353D" />
  <rect x="500" y="1125" width="125" height="125" fill="#765261" />
  <rect x="625" y="1125" width="125" height="125" fill="#EB6A67" />
  <rect x="750" y="1125" width="125" height="125" fill="#F4938A" />
  <rect x="875" y="1125" width="125" height="125" fill="#F6C2BA" />
  <rect x="1000" y="1125" width="125" height="125" fill="#F5E6E4" />
  <rect x="1125" y="1125" width="125" height="125" fill="#FFFFFF" />
  <rect x="250" y="250" width="1000" height="1000" fill="none" stroke="#151515" stroke-opacity="0.16" stroke-width="2" />
</svg>
