<svg xmlns="http://www.w3.org/2000/svg" width="1500" height="1500" viewBox="0 0 1500 1500" shape-rendering="crispEdges" role="img" aria-labelledby="title desc">
  <title id="title">Tension Between Containment and Release in White frame</title>
  <desc id="desc">Square Project artwork previewed in a white frame.</desc>
  <rect x="0" y="0" width="1500" height="1500" fill="#FFFFFF" />
  <image href="https://mysquareart.com/frames/white.jpg" x="0" y="0" width="1500" height="1500" preserveAspectRatio="xMidYMid meet" />
  <rect x="250" y="250" width="1000" height="1000" fill="#FFFFFF" />
  <rect x="250" y="250" width="125" height="125" fill="#3D3B2A" />
  <rect x="375" y="250" width="125" height="125" fill="#4A481D" />
  <rect x="500" y="250" width="125" height="125" fill="#B4A968" />
  <rect x="625" y="250" width="125" height="125" fill="#C4C3B0" />
  <rect x="750" y="250" width="125" height="125" fill="#EDEDE5" />
  <rect x="875" y="250" width="125" height="125" fill="#B0C6D7" />
  <rect x="1000" y="250" width="125" height="125" fill="#779FB0" />
  <rect x="1125" y="250" width="125" height="125" fill="#6E6A5E" />
  <rect x="250" y="375" width="125" height="125" fill="#3D3B2A" />
  <rect x="375" y="375" width="125" height="125" fill="#4B4917" />
  <rect x="500" y="375" width="125" height="125" fill="#AFA43C" />
  <rect x="625" y="375" width="125" height="125" fill="#B1B18C" />
  <rect x="750" y="375" width="125" height="125" fill="#E1E1D0" />
  <rect x="875" y="375" width="125" height="125" fill="#A4B8C3" />
  <rect x="1000" y="375" width="125" height="125" fill="#628186" />
  <rect x="1125" y="375" width="125" height="125" fill="#4D4A3D" />
  <rect x="250" y="500" width="125" height="125" fill="#7C7A55" />
  <rect x="375" y="500" width="125" height="125" fill="#B9B082" />
  <rect x="500" y="500" width="125" height="125" fill="#D1D1C2" />
  <rect x="625" y="500" width="125" height="125" fill="#A2B4D1" />
  <rect x="750" y="500" width="125" height="125" fill="#B4C4B7" />
  <rect x="875" y="500" width="125" height="125" fill="#607B84" />
  <rect x="1000" y="500" width="125" height="125" fill="#4D4B2A" />
  <rect x="1125" y="500" width="125" height="125" fill="#1A1E1A" />
  <rect x="250" y="625" width="125" height="125" fill="#3D3B2A" />
  <rect x="375" y="625" width="125" height="125" fill="#5A563D" />
  <rect x="500" y="625" width="125" height="125" fill="#BCB86E" />
  <rect x="625" y="625" width="125" height="125" fill="#D5D5C1" />
  <rect x="750" y="625" width="125" height="125" fill="#E8E8DC" />
  <rect x="875" y="625" width="125" height="125" fill="#A2B4C1" />
  <rect x="1000" y="625" width="125" height="125" fill="#545D5B" />
  <rect x="1125" y="625" width="125" height="125" fill="#B4A05A" />
  <rect x="250" y="750" width="125" height="125" fill="#3D3B2A" />
  <rect x="375" y="750" width="125" height="125" fill="#4A481D" />
  <rect x="500" y="750" width="125" height="125" fill="#B8A368" />
  <rect x="625" y="750" width="125" height="125" fill="#D1C1B0" />
  <rect x="750" y="750" width="125" height="125" fill="#E8E8C5" />
  <rect x="875" y="750" width="125" height="125" fill="#C4B8C0" />
  <rect x="1000" y="750" width="125" height="125" fill="#4A7E85" />
  <rect x="1125" y="750" width="125" height="125" fill="#5C5851" />
  <rect x="250" y="875" width="125" height="125" fill="#3D3B2A" />
  <rect x="375" y="875" width="125" height="125" fill="#4B4917" />
  <rect x="500" y="875" width="125" height="125" fill="#AFA43C" />
  <rect x="625" y="875" width="125" height="125" fill="#B5B2A2" />
  <rect x="750" y="875" width="125" height="125" fill="#E1E1D0" />
  <rect x="875" y="875" width="125" height="125" fill="#B4BAC3" />
  <rect x="1000" y="875" width="125" height="125" fill="#627E86" />
  <rect x="1125" y="875" width="125" height="125" fill="#3E3E3E" />
  <rect x="250" y="1000" width="125" height="125" fill="#5A532F" />
  <rect x="375" y="1000" width="125" height="125" fill="#C4BC7B" />
  <rect x="500" y="1000" width="125" height="125" fill="#D1C6AE" />
  <rect x="625" y="1000" width="125" height="125" fill="#A2B1A2" />
  <rect x="750" y="1000" width="125" height="125" fill="#E0E0D6" />
  <rect x="875" y="1000" width="125" height="125" fill="#A9B8C4" />
  <rect x="1000" y="1000" width="125" height="125" fill="#4F3E39" />
  <rect x="1125" y="1000" width="125" height="125" fill="#2A2727" />
  <rect x="250" y="1125" width="125" height="125" fill="#3D3B2A" />
  <rect x="375" y="1125" width="125" height="125" fill="#4A491C" />
  <rect x="500" y="1125" width="125" height="125" fill="#B6A032" />
  <rect x="625" y="1125" width="125" height="125" fill="#C9C4B0" />
  <rect x="750" y="1125" width="125" height="125" fill="#E8E8DC" />
  <rect x="875" y="1125" width="125" height="125" fill="#B8BDC0" />
  <rect x="1000" y="1125" width="125" height="125" fill="#4A8B85" />
  <rect x="1125" y="1125" width="125" height="125" fill="#6B6A58" />
  <rect x="250" y="250" width="1000" height="1000" fill="none" stroke="#151515" stroke-opacity="0.16" stroke-width="2" />
</svg>
