<svg xmlns="http://www.w3.org/2000/svg" width="1500" height="1500" viewBox="0 0 1500 1500" shape-rendering="crispEdges" role="img" aria-labelledby="title desc">
  <title id="title">Tension of Ascendance in Brown frame</title>
  <desc id="desc">Square Project artwork previewed in a brown frame.</desc>
  <defs>
    <linearGradient id="frameFace" x1="0" y1="0" x2="1" y2="1">
      <stop offset="0" stop-color="#C18A55" />
      <stop offset="0.32" stop-color="#9A6840" />
      <stop offset="0.68" stop-color="#70401F" />
      <stop offset="1" stop-color="#3F2413" />
    </linearGradient>
    <filter id="artShadow" x="-10%" y="-10%" width="120%" height="120%">
      <feDropShadow dx="0" dy="20" stdDeviation="24" flood-color="#000000" flood-opacity="0.24" />
    </filter>
  </defs>
  <rect x="0" y="0" width="1500" height="1500" fill="#FFFFFF" />
  <rect x="0" y="0" width="1500" height="1500" fill="url(#frameFace)" />
  <rect x="120" y="120" width="1260" height="1260" fill="#F8F7F3" />
  <rect x="120" y="120" width="1260" height="1260" fill="none" stroke="#000000" stroke-opacity="0.14" stroke-width="10" />
  <rect x="250" y="250" width="1000" height="1000" fill="#FFFFFF" filter="url(#artShadow)" />
  <rect x="250" y="250" width="125" height="125" fill="#0D0D0F" />
  <rect x="375" y="250" width="125" height="125" fill="#0F1215" />
  <rect x="500" y="250" width="125" height="125" fill="#2B4A7D" />
  <rect x="625" y="250" width="125" height="125" fill="#5E7CBA" />
  <rect x="750" y="250" width="125" height="125" fill="#F9C74F" />
  <rect x="875" y="250" width="125" height="125" fill="#F8961E" />
  <rect x="1000" y="250" width="125" height="125" fill="#F94144" />
  <rect x="1125" y="250" width="125" height="125" fill="#F3722C" />
  <rect x="250" y="375" width="125" height="125" fill="#001D33" />
  <rect x="375" y="375" width="125" height="125" fill="#1A355D" />
  <rect x="500" y="375" width="125" height="125" fill="#34578B" />
  <rect x="625" y="375" width="125" height="125" fill="#6D89B1" />
  <rect x="750" y="375" width="125" height="125" fill="#FFD60A" />
  <rect x="875" y="375" width="125" height="125" fill="#F9A600" />
  <rect x="1000" y="375" width="125" height="125" fill="#F3722C" />
  <rect x="1125" y="375" width="125" height="125" fill="#F94144" />
  <rect x="250" y="500" width="125" height="125" fill="#E9ECEF" />
  <rect x="375" y="500" width="125" height="125" fill="#ADB5BD" />
  <rect x="500" y="500" width="125" height="125" fill="#6C757D" />
  <rect x="625" y="500" width="125" height="125" fill="#495057" />
  <rect x="750" y="500" width="125" height="125" fill="#343A40" />
  <rect x="875" y="500" width="125" height="125" fill="#212529" />
  <rect x="1000" y="500" width="125" height="125" fill="#AB47BC" />
  <rect x="1125" y="500" width="125" height="125" fill="#673AB7" />
  <rect x="250" y="625" width="125" height="125" fill="#0D0D0F" />
  <rect x="375" y="625" width="125" height="125" fill="#6C757D" />
  <rect x="500" y="625" width="125" height="125" fill="#F1B24D" />
  <rect x="625" y="625" width="125" height="125" fill="#F9C9B6" />
  <rect x="750" y="625" width="125" height="125" fill="#F3722C" />
  <rect x="875" y="625" width="125" height="125" fill="#F94144" />
  <rect x="1000" y="625" width="125" height="125" fill="#9F4B89" />
  <rect x="1125" y="625" width="125" height="125" fill="#553F8B" />
  <rect x="250" y="750" width="125" height="125" fill="#344E3C" />
  <rect x="375" y="750" width="125" height="125" fill="#4C7C7B" />
  <rect x="500" y="750" width="125" height="125" fill="#D3D3D3" />
  <rect x="625" y="750" width="125" height="125" fill="#20C997" />
  <rect x="750" y="750" width="125" height="125" fill="#66FCF1" />
  <rect x="875" y="750" width="125" height="125" fill="#3FBCDB" />
  <rect x="1000" y="750" width="125" height="125" fill="#0D0D0F" />
  <rect x="1125" y="750" width="125" height="125" fill="#343A40" />
  <rect x="250" y="875" width="125" height="125" fill="#000000" />
  <rect x="375" y="875" width="125" height="125" fill="#C9E4DE" />
  <rect x="500" y="875" width="125" height="125" fill="#4A84C4" />
  <rect x="625" y="875" width="125" height="125" fill="#2B62A0" />
  <rect x="750" y="875" width="125" height="125" fill="#1E2B8F" />
  <rect x="875" y="875" width="125" height="125" fill="#CAF0F8" />
  <rect x="1000" y="875" width="125" height="125" fill="#C08E65" />
  <rect x="1125" y="875" width="125" height="125" fill="#A35B3B" />
  <rect x="250" y="1000" width="125" height="125" fill="#E63946" />
  <rect x="375" y="1000" width="125" height="125" fill="#F1FAEE" />
  <rect x="500" y="1000" width="125" height="125" fill="#F1FAEE" />
  <rect x="625" y="1000" width="125" height="125" fill="#F1FAEE" />
  <rect x="750" y="1000" width="125" height="125" fill="#F1FAEE" />
  <rect x="875" y="1000" width="125" height="125" fill="#F1FAEE" />
  <rect x="1000" y="1000" width="125" height="125" fill="#F1FAEE" />
  <rect x="1125" y="1000" width="125" height="125" fill="#F1FAEE" />
  <rect x="250" y="1125" width="125" height="125" fill="#231F2D" />
  <rect x="375" y="1125" width="125" height="125" fill="#5E4C49" />
  <rect x="500" y="1125" width="125" height="125" fill="#F2A365" />
  <rect x="625" y="1125" width="125" height="125" fill="#68D391" />
  <rect x="750" y="1125" width="125" height="125" fill="#BCC179" />
  <rect x="875" y="1125" width="125" height="125" fill="#3FBCDB" />
  <rect x="1000" y="1125" width="125" height="125" fill="#18191A" />
  <rect x="1125" y="1125" width="125" height="125" fill="#515657" />
  <rect x="250" y="250" width="1000" height="1000" fill="none" stroke="#151515" stroke-opacity="0.16" stroke-width="2" />
</svg>
