<svg xmlns="http://www.w3.org/2000/svg" width="1500" height="1500" viewBox="0 0 1500 1500" shape-rendering="crispEdges" role="img" aria-labelledby="title desc">
  <title id="title">Tension Between Forces in Natural frame</title>
  <desc id="desc">Square Project artwork previewed in a natural frame.</desc>
  <rect x="0" y="0" width="1500" height="1500" fill="#FFFFFF" />
  <image href="https://mysquareart.com/frames/natural.jpg" x="0" y="0" width="1500" height="1500" preserveAspectRatio="xMidYMid meet" />
  <rect x="250" y="250" width="1000" height="1000" fill="#FFFFFF" />
  <rect x="250" y="250" width="125" height="125" fill="#0D1B2A" />
  <rect x="375" y="250" width="125" height="125" fill="#1B2631" />
  <rect x="500" y="250" width="125" height="125" fill="#3A4750" />
  <rect x="625" y="250" width="125" height="125" fill="#4C6E9A" />
  <rect x="750" y="250" width="125" height="125" fill="#6C8EAA" />
  <rect x="875" y="250" width="125" height="125" fill="#7B9E9E" />
  <rect x="1000" y="250" width="125" height="125" fill="#88BCB7" />
  <rect x="1125" y="250" width="125" height="125" fill="#B9FBC0" />
  <rect x="250" y="375" width="125" height="125" fill="#0D1B2A" />
  <rect x="375" y="375" width="125" height="125" fill="#004D61" />
  <rect x="500" y="375" width="125" height="125" fill="#007B92" />
  <rect x="625" y="375" width="125" height="125" fill="#0099B1" />
  <rect x="750" y="375" width="125" height="125" fill="#4DC0B5" />
  <rect x="875" y="375" width="125" height="125" fill="#E2F0D7" />
  <rect x="1000" y="375" width="125" height="125" fill="#FFFFFF" />
  <rect x="1125" y="375" width="125" height="125" fill="#F5F5F5" />
  <rect x="250" y="500" width="125" height="125" fill="#2A353E" />
  <rect x="375" y="500" width="125" height="125" fill="#0D1B2A" />
  <rect x="500" y="500" width="125" height="125" fill="#0A4F4D" />
  <rect x="625" y="500" width="125" height="125" fill="#007C7A" />
  <rect x="750" y="500" width="125" height="125" fill="#00949E" />
  <rect x="875" y="500" width="125" height="125" fill="#00B1BB" />
  <rect x="1000" y="500" width="125" height="125" fill="#78E6D0" />
  <rect x="1125" y="500" width="125" height="125" fill="#E1FFF4" />
  <rect x="250" y="625" width="125" height="125" fill="#414B53" />
  <rect x="375" y="625" width="125" height="125" fill="#4D4F50" />
  <rect x="500" y="625" width="125" height="125" fill="#708C9F" />
  <rect x="625" y="625" width="125" height="125" fill="#A0CDCE" />
  <rect x="750" y="625" width="125" height="125" fill="#B8E6E6" />
  <rect x="875" y="625" width="125" height="125" fill="#FFFFFF" />
  <rect x="1000" y="625" width="125" height="125" fill="#E2F0D7" />
  <rect x="1125" y="625" width="125" height="125" fill="#F5F5F5" />
  <rect x="250" y="750" width="125" height="125" fill="#2A353E" />
  <rect x="375" y="750" width="125" height="125" fill="#3A4750" />
  <rect x="500" y="750" width="125" height="125" fill="#5AAFA6" />
  <rect x="625" y="750" width="125" height="125" fill="#8BDBD5" />
  <rect x="750" y="750" width="125" height="125" fill="#AAD4C5" />
  <rect x="875" y="750" width="125" height="125" fill="#00AEA1" />
  <rect x="1000" y="750" width="125" height="125" fill="#56C9C7" />
  <rect x="1125" y="750" width="125" height="125" fill="#E6FBF7" />
  <rect x="250" y="875" width="125" height="125" fill="#1B2631" />
  <rect x="375" y="875" width="125" height="125" fill="#1D2B32" />
  <rect x="500" y="875" width="125" height="125" fill="#4B6B7D" />
  <rect x="625" y="875" width="125" height="125" fill="#78B2BE" />
  <rect x="750" y="875" width="125" height="125" fill="#99E6E6" />
  <rect x="875" y="875" width="125" height="125" fill="#FFFFFF" />
  <rect x="1000" y="875" width="125" height="125" fill="#BDBDBD" />
  <rect x="1125" y="875" width="125" height="125" fill="#F5F5F5" />
  <rect x="250" y="1000" width="125" height="125" fill="#3A4750" />
  <rect x="375" y="1000" width="125" height="125" fill="#2A353E" />
  <rect x="500" y="1000" width="125" height="125" fill="#007C7A" />
  <rect x="625" y="1000" width="125" height="125" fill="#00B1BB" />
  <rect x="750" y="1000" width="125" height="125" fill="#00C3C6" />
  <rect x="875" y="1000" width="125" height="125" fill="#E6FFFF" />
  <rect x="1000" y="1000" width="125" height="125" fill="#FFFFFF" />
  <rect x="1125" y="1000" width="125" height="125" fill="#F5F5F5" />
  <rect x="250" y="1125" width="125" height="125" fill="#1B2631" />
  <rect x="375" y="1125" width="125" height="125" fill="#0D1B2A" />
  <rect x="500" y="1125" width="125" height="125" fill="#004D61" />
  <rect x="625" y="1125" width="125" height="125" fill="#00799C" />
  <rect x="750" y="1125" width="125" height="125" fill="#0099B1" />
  <rect x="875" y="1125" width="125" height="125" fill="#DBF7F7" />
  <rect x="1000" y="1125" width="125" height="125" fill="#E6FFFF" />
  <rect x="1125" y="1125" width="125" height="125" fill="#FFFFFF" />
  <rect x="250" y="250" width="1000" height="1000" fill="none" stroke="#151515" stroke-opacity="0.16" stroke-width="2" />
</svg>
