<svg xmlns="http://www.w3.org/2000/svg" width="1500" height="1500" viewBox="0 0 1500 1500" shape-rendering="crispEdges" role="img" aria-labelledby="title desc">
  <title id="title">Fleeting Connections in White frame</title>
  <desc id="desc">Square Project artwork previewed in a white frame.</desc>
  <defs>
    <linearGradient id="frameFace" x1="0" y1="0" x2="1" y2="1">
      <stop offset="0" stop-color="#BEBEB8" />
      <stop offset="0.32" stop-color="#FFFFFF" />
      <stop offset="0.68" stop-color="#F8F8F5" />
      <stop offset="1" stop-color="#D5D5CF" />
    </linearGradient>
    <filter id="artShadow" x="-10%" y="-10%" width="120%" height="120%">
      <feDropShadow dx="0" dy="20" stdDeviation="24" flood-color="#000000" flood-opacity="0.24" />
    </filter>
  </defs>
  <rect x="0" y="0" width="1500" height="1500" fill="#FFFFFF" />
  <rect x="0" y="0" width="1500" height="1500" fill="url(#frameFace)" />
  <rect x="120" y="120" width="1260" height="1260" fill="#F8F7F3" />
  <rect x="120" y="120" width="1260" height="1260" fill="none" stroke="#000000" stroke-opacity="0.14" stroke-width="10" />
  <rect x="250" y="250" width="1000" height="1000" fill="#FFFFFF" filter="url(#artShadow)" />
  <rect x="250" y="250" width="125" height="125" fill="#5A4E1D" />
  <rect x="375" y="250" width="125" height="125" fill="#C0B48A" />
  <rect x="500" y="250" width="125" height="125" fill="#E3D8B5" />
  <rect x="625" y="250" width="125" height="125" fill="#B4A16C" />
  <rect x="750" y="250" width="125" height="125" fill="#D8CBAF" />
  <rect x="875" y="250" width="125" height="125" fill="#A68B5B" />
  <rect x="1000" y="250" width="125" height="125" fill="#6F5A39" />
  <rect x="1125" y="250" width="125" height="125" fill="#84776E" />
  <rect x="250" y="375" width="125" height="125" fill="#D3D4D6" />
  <rect x="375" y="375" width="125" height="125" fill="#A8A9CC" />
  <rect x="500" y="375" width="125" height="125" fill="#E0CDB7" />
  <rect x="625" y="375" width="125" height="125" fill="#B9B6A6" />
  <rect x="750" y="375" width="125" height="125" fill="#9C8A7A" />
  <rect x="875" y="375" width="125" height="125" fill="#D0C5B0" />
  <rect x="1000" y="375" width="125" height="125" fill="#E0DAD1" />
  <rect x="1125" y="375" width="125" height="125" fill="#B7B2A0" />
  <rect x="250" y="500" width="125" height="125" fill="#AFAF70" />
  <rect x="375" y="500" width="125" height="125" fill="#D9C78F" />
  <rect x="500" y="500" width="125" height="125" fill="#F1E9C8" />
  <rect x="625" y="500" width="125" height="125" fill="#C9B9A6" />
  <rect x="750" y="500" width="125" height="125" fill="#B5A48E" />
  <rect x="875" y="500" width="125" height="125" fill="#E2D1B6" />
  <rect x="1000" y="500" width="125" height="125" fill="#D3D9C5" />
  <rect x="1125" y="500" width="125" height="125" fill="#D7BFA6" />
  <rect x="250" y="625" width="125" height="125" fill="#A5C1C3" />
  <rect x="375" y="625" width="125" height="125" fill="#B0A289" />
  <rect x="500" y="625" width="125" height="125" fill="#CCC2B9" />
  <rect x="625" y="625" width="125" height="125" fill="#E9E4DA" />
  <rect x="750" y="625" width="125" height="125" fill="#BFAB88" />
  <rect x="875" y="625" width="125" height="125" fill="#946B4D" />
  <rect x="1000" y="625" width="125" height="125" fill="#EAD2AC" />
  <rect x="1125" y="625" width="125" height="125" fill="#7B6B53" />
  <rect x="250" y="750" width="125" height="125" fill="#9F9D7A" />
  <rect x="375" y="750" width="125" height="125" fill="#C4B898" />
  <rect x="500" y="750" width="125" height="125" fill="#F6F4E4" />
  <rect x="625" y="750" width="125" height="125" fill="#DBD3BF" />
  <rect x="750" y="750" width="125" height="125" fill="#CFCFB9" />
  <rect x="875" y="750" width="125" height="125" fill="#D8CBBF" />
  <rect x="1000" y="750" width="125" height="125" fill="#A6A3B6" />
  <rect x="1125" y="750" width="125" height="125" fill="#7D6F66" />
  <rect x="250" y="875" width="125" height="125" fill="#E3E1C5" />
  <rect x="375" y="875" width="125" height="125" fill="#A5B2AA" />
  <rect x="500" y="875" width="125" height="125" fill="#BDBEBA" />
  <rect x="625" y="875" width="125" height="125" fill="#7E8C74" />
  <rect x="750" y="875" width="125" height="125" fill="#EDD2A5" />
  <rect x="875" y="875" width="125" height="125" fill="#B4A59F" />
  <rect x="1000" y="875" width="125" height="125" fill="#A59BA7" />
  <rect x="1125" y="875" width="125" height="125" fill="#D2B48C" />
  <rect x="250" y="1000" width="125" height="125" fill="#D1D7D8" />
  <rect x="375" y="1000" width="125" height="125" fill="#C9C4C9" />
  <rect x="500" y="1000" width="125" height="125" fill="#E4B29D" />
  <rect x="625" y="1000" width="125" height="125" fill="#C8A78E" />
  <rect x="750" y="1000" width="125" height="125" fill="#A8B4C6" />
  <rect x="875" y="1000" width="125" height="125" fill="#E0C9B0" />
  <rect x="1000" y="1000" width="125" height="125" fill="#BFBF9C" />
  <rect x="1125" y="1000" width="125" height="125" fill="#E2D6C4" />
  <rect x="250" y="1125" width="125" height="125" fill="#B4B1C0" />
  <rect x="375" y="1125" width="125" height="125" fill="#B4C2D9" />
  <rect x="500" y="1125" width="125" height="125" fill="#C2BEC6" />
  <rect x="625" y="1125" width="125" height="125" fill="#C1B9A8" />
  <rect x="750" y="1125" width="125" height="125" fill="#5C4D3D" />
  <rect x="875" y="1125" width="125" height="125" fill="#8D8E8F" />
  <rect x="1000" y="1125" width="125" height="125" fill="#EBE5D3" />
  <rect x="1125" y="1125" width="125" height="125" fill="#D4D0BA" />
  <rect x="250" y="250" width="1000" height="1000" fill="none" stroke="#151515" stroke-opacity="0.16" stroke-width="2" />
</svg>
