<svg xmlns="http://www.w3.org/2000/svg" width="1500" height="1500" viewBox="0 0 1500 1500" shape-rendering="crispEdges" role="img" aria-labelledby="title desc">
  <title id="title">Echoes of Distrust in Gold frame</title>
  <desc id="desc">Square Project artwork previewed in a gold frame.</desc>
  <defs>
    <linearGradient id="frameFace" x1="0" y1="0" x2="1" y2="1">
      <stop offset="0" stop-color="#FFF0A3" />
      <stop offset="0.32" stop-color="#F1D676" />
      <stop offset="0.68" stop-color="#CBA642" />
      <stop offset="1" stop-color="#8B6A1D" />
    </linearGradient>
    <filter id="artShadow" x="-10%" y="-10%" width="120%" height="120%">
      <feDropShadow dx="0" dy="20" stdDeviation="24" flood-color="#000000" flood-opacity="0.24" />
    </filter>
  </defs>
  <rect x="0" y="0" width="1500" height="1500" fill="#FFFFFF" />
  <rect x="0" y="0" width="1500" height="1500" fill="url(#frameFace)" />
  <rect x="120" y="120" width="1260" height="1260" fill="#F8F7F3" />
  <rect x="120" y="120" width="1260" height="1260" fill="none" stroke="#000000" stroke-opacity="0.14" stroke-width="10" />
  <rect x="250" y="250" width="1000" height="1000" fill="#FFFFFF" filter="url(#artShadow)" />
  <rect x="250" y="250" width="125" height="125" fill="#3B474D" />
  <rect x="375" y="250" width="125" height="125" fill="#2F3942" />
  <rect x="500" y="250" width="125" height="125" fill="#1E2C33" />
  <rect x="625" y="250" width="125" height="125" fill="#DCD6C8" />
  <rect x="750" y="250" width="125" height="125" fill="#FFC8A2" />
  <rect x="875" y="250" width="125" height="125" fill="#FFF3E0" />
  <rect x="1000" y="250" width="125" height="125" fill="#F6EBAE" />
  <rect x="1125" y="250" width="125" height="125" fill="#C3C2BC" />
  <rect x="250" y="375" width="125" height="125" fill="#2A1A2B" />
  <rect x="375" y="375" width="125" height="125" fill="#121B25" />
  <rect x="500" y="375" width="125" height="125" fill="#273032" />
  <rect x="625" y="375" width="125" height="125" fill="#FF8C00" />
  <rect x="750" y="375" width="125" height="125" fill="#FFF9D7" />
  <rect x="875" y="375" width="125" height="125" fill="#B6CFE6" />
  <rect x="1000" y="375" width="125" height="125" fill="#4D4F53" />
  <rect x="1125" y="375" width="125" height="125" fill="#4E758D" />
  <rect x="250" y="500" width="125" height="125" fill="#181B1C" />
  <rect x="375" y="500" width="125" height="125" fill="#3A3D3F" />
  <rect x="500" y="500" width="125" height="125" fill="#4B6173" />
  <rect x="625" y="500" width="125" height="125" fill="#FFD700" />
  <rect x="750" y="500" width="125" height="125" fill="#F1E6D0" />
  <rect x="875" y="500" width="125" height="125" fill="#3E8DAC" />
  <rect x="1000" y="500" width="125" height="125" fill="#6A787A" />
  <rect x="1125" y="500" width="125" height="125" fill="#7A5C9A" />
  <rect x="250" y="625" width="125" height="125" fill="#191D1F" />
  <rect x="375" y="625" width="125" height="125" fill="#4D6B76" />
  <rect x="500" y="625" width="125" height="125" fill="#663B3D" />
  <rect x="625" y="625" width="125" height="125" fill="#F5D103" />
  <rect x="750" y="625" width="125" height="125" fill="#BFD9F0" />
  <rect x="875" y="625" width="125" height="125" fill="#A8B3B4" />
  <rect x="1000" y="625" width="125" height="125" fill="#6F7E8C" />
  <rect x="1125" y="625" width="125" height="125" fill="#B7AFA1" />
  <rect x="250" y="750" width="125" height="125" fill="#2A2B30" />
  <rect x="375" y="750" width="125" height="125" fill="#7A7C80" />
  <rect x="500" y="750" width="125" height="125" fill="#575C61" />
  <rect x="625" y="750" width="125" height="125" fill="#FC4A1A" />
  <rect x="750" y="750" width="125" height="125" fill="#F2EDD1" />
  <rect x="875" y="750" width="125" height="125" fill="#C1D5D8" />
  <rect x="1000" y="750" width="125" height="125" fill="#607161" />
  <rect x="1125" y="750" width="125" height="125" fill="#7C8771" />
  <rect x="250" y="875" width="125" height="125" fill="#121315" />
  <rect x="375" y="875" width="125" height="125" fill="#1B1D22" />
  <rect x="500" y="875" width="125" height="125" fill="#1E2B30" />
  <rect x="625" y="875" width="125" height="125" fill="#FFD200" />
  <rect x="750" y="875" width="125" height="125" fill="#FFE9B4" />
  <rect x="875" y="875" width="125" height="125" fill="#A8A0A8" />
  <rect x="1000" y="875" width="125" height="125" fill="#738D8F" />
  <rect x="1125" y="875" width="125" height="125" fill="#6C6C65" />
  <rect x="250" y="1000" width="125" height="125" fill="#191C20" />
  <rect x="375" y="1000" width="125" height="125" fill="#5D6264" />
  <rect x="500" y="1000" width="125" height="125" fill="#3C4D53" />
  <rect x="625" y="1000" width="125" height="125" fill="#D5C79D" />
  <rect x="750" y="1000" width="125" height="125" fill="#FFC0CB" />
  <rect x="875" y="1000" width="125" height="125" fill="#BEC4C5" />
  <rect x="1000" y="1000" width="125" height="125" fill="#494C56" />
  <rect x="1125" y="1000" width="125" height="125" fill="#2D2F32" />
  <rect x="250" y="1125" width="125" height="125" fill="#0C0D0F" />
  <rect x="375" y="1125" width="125" height="125" fill="#0F1720" />
  <rect x="500" y="1125" width="125" height="125" fill="#3A3D42" />
  <rect x="625" y="1125" width="125" height="125" fill="#F1BF00" />
  <rect x="750" y="1125" width="125" height="125" fill="#F4E1CC" />
  <rect x="875" y="1125" width="125" height="125" fill="#C4D4DC" />
  <rect x="1000" y="1125" width="125" height="125" fill="#7E9198" />
  <rect x="1125" y="1125" width="125" height="125" fill="#4F5459" />
  <rect x="250" y="250" width="1000" height="1000" fill="none" stroke="#151515" stroke-opacity="0.16" stroke-width="2" />
</svg>
