<svg xmlns="http://www.w3.org/2000/svg" width="1500" height="1500" viewBox="0 0 1500 1500" shape-rendering="crispEdges" role="img" aria-labelledby="title desc">
  <title id="title">Embers of Connection in Natural frame</title>
  <desc id="desc">Square Project artwork previewed in a natural frame.</desc>
  <defs>
    <linearGradient id="frameFace" x1="0" y1="0" x2="1" y2="1">
      <stop offset="0" stop-color="#8F6F35" />
      <stop offset="0.32" stop-color="#F0DDAA" />
      <stop offset="0.68" stop-color="#D8C190" />
      <stop offset="1" stop-color="#B39155" />
    </linearGradient>
    <filter id="artShadow" x="-10%" y="-10%" width="120%" height="120%">
      <feDropShadow dx="0" dy="20" stdDeviation="24" flood-color="#000000" flood-opacity="0.24" />
    </filter>
  </defs>
  <rect x="0" y="0" width="1500" height="1500" fill="#FFFFFF" />
  <rect x="0" y="0" width="1500" height="1500" fill="url(#frameFace)" />
  <rect x="120" y="120" width="1260" height="1260" fill="#F8F7F3" />
  <rect x="120" y="120" width="1260" height="1260" fill="none" stroke="#000000" stroke-opacity="0.14" stroke-width="10" />
  <rect x="250" y="250" width="1000" height="1000" fill="#FFFFFF" filter="url(#artShadow)" />
  <rect x="250" y="250" width="125" height="125" fill="#7D0000" />
  <rect x="375" y="250" width="125" height="125" fill="#7D0033" />
  <rect x="500" y="250" width="125" height="125" fill="#7D0066" />
  <rect x="625" y="250" width="125" height="125" fill="#7D0099" />
  <rect x="750" y="250" width="125" height="125" fill="#7D00CC" />
  <rect x="875" y="250" width="125" height="125" fill="#7D00FF" />
  <rect x="1000" y="250" width="125" height="125" fill="#7D00AA" />
  <rect x="1125" y="250" width="125" height="125" fill="#7D0077" />
  <rect x="250" y="375" width="125" height="125" fill="#BF0000" />
  <rect x="375" y="375" width="125" height="125" fill="#BF0033" />
  <rect x="500" y="375" width="125" height="125" fill="#BF0066" />
  <rect x="625" y="375" width="125" height="125" fill="#BF0099" />
  <rect x="750" y="375" width="125" height="125" fill="#BF00CC" />
  <rect x="875" y="375" width="125" height="125" fill="#BF00FF" />
  <rect x="1000" y="375" width="125" height="125" fill="#BF00AA" />
  <rect x="1125" y="375" width="125" height="125" fill="#BF0077" />
  <rect x="250" y="500" width="125" height="125" fill="#D8D8D8" />
  <rect x="375" y="500" width="125" height="125" fill="#D8D8CC" />
  <rect x="500" y="500" width="125" height="125" fill="#D8D8AA" />
  <rect x="625" y="500" width="125" height="125" fill="#D8D8FF" />
  <rect x="750" y="500" width="125" height="125" fill="#D8D877" />
  <rect x="875" y="500" width="125" height="125" fill="#D8D8AA" />
  <rect x="1000" y="500" width="125" height="125" fill="#D8D855" />
  <rect x="1125" y="500" width="125" height="125" fill="#D8D844" />
  <rect x="250" y="625" width="125" height="125" fill="#A8A8A8" />
  <rect x="375" y="625" width="125" height="125" fill="#A8A8B8" />
  <rect x="500" y="625" width="125" height="125" fill="#A8A877" />
  <rect x="625" y="625" width="125" height="125" fill="#A8A8AA" />
  <rect x="750" y="625" width="125" height="125" fill="#A8A8BB" />
  <rect x="875" y="625" width="125" height="125" fill="#A8A8EE" />
  <rect x="1000" y="625" width="125" height="125" fill="#A8A855" />
  <rect x="1125" y="625" width="125" height="125" fill="#A8A8CC" />
  <rect x="250" y="750" width="125" height="125" fill="#888888" />
  <rect x="375" y="750" width="125" height="125" fill="#8888AA" />
  <rect x="500" y="750" width="125" height="125" fill="#888877" />
  <rect x="625" y="750" width="125" height="125" fill="#8888BB" />
  <rect x="750" y="750" width="125" height="125" fill="#8888CC" />
  <rect x="875" y="750" width="125" height="125" fill="#8888AA" />
  <rect x="1000" y="750" width="125" height="125" fill="#888877" />
  <rect x="1125" y="750" width="125" height="125" fill="#888844" />
  <rect x="250" y="875" width="125" height="125" fill="#555555" />
  <rect x="375" y="875" width="125" height="125" fill="#555577" />
  <rect x="500" y="875" width="125" height="125" fill="#5555AA" />
  <rect x="625" y="875" width="125" height="125" fill="#5555BB" />
  <rect x="750" y="875" width="125" height="125" fill="#5555CC" />
  <rect x="875" y="875" width="125" height="125" fill="#5555AA" />
  <rect x="1000" y="875" width="125" height="125" fill="#555555" />
  <rect x="1125" y="875" width="125" height="125" fill="#5555FF" />
  <rect x="250" y="1000" width="125" height="125" fill="#333333" />
  <rect x="375" y="1000" width="125" height="125" fill="#333355" />
  <rect x="500" y="1000" width="125" height="125" fill="#333377" />
  <rect x="625" y="1000" width="125" height="125" fill="#3333BB" />
  <rect x="750" y="1000" width="125" height="125" fill="#333388" />
  <rect x="875" y="1000" width="125" height="125" fill="#3333AA" />
  <rect x="1000" y="1000" width="125" height="125" fill="#3333FF" />
  <rect x="1125" y="1000" width="125" height="125" fill="#3333DD" />
  <rect x="250" y="1125" width="125" height="125" fill="#000000" />
  <rect x="375" y="1125" width="125" height="125" fill="#111111" />
  <rect x="500" y="1125" width="125" height="125" fill="#222222" />
  <rect x="625" y="1125" width="125" height="125" fill="#333333" />
  <rect x="750" y="1125" width="125" height="125" fill="#444444" />
  <rect x="875" y="1125" width="125" height="125" fill="#555555" />
  <rect x="1000" y="1125" width="125" height="125" fill="#666666" />
  <rect x="1125" y="1125" width="125" height="125" fill="#777777" />
  <rect x="250" y="250" width="1000" height="1000" fill="none" stroke="#151515" stroke-opacity="0.16" stroke-width="2" />
</svg>
