<svg xmlns="http://www.w3.org/2000/svg" width="1500" height="1500" viewBox="0 0 1500 1500" shape-rendering="crispEdges" role="img" aria-labelledby="title desc">
  <title id="title">Contrasting Waves of Emotion in White frame</title>
  <desc id="desc">Square Project artwork previewed in a white frame.</desc>
  <defs>
    <linearGradient id="frameFace" x1="0" y1="0" x2="1" y2="1">
      <stop offset="0" stop-color="#BEBEB8" />
      <stop offset="0.32" stop-color="#FFFFFF" />
      <stop offset="0.68" stop-color="#F8F8F5" />
      <stop offset="1" stop-color="#D5D5CF" />
    </linearGradient>
    <filter id="artShadow" x="-10%" y="-10%" width="120%" height="120%">
      <feDropShadow dx="0" dy="20" stdDeviation="24" flood-color="#000000" flood-opacity="0.24" />
    </filter>
  </defs>
  <rect x="0" y="0" width="1500" height="1500" fill="#FFFFFF" />
  <rect x="0" y="0" width="1500" height="1500" fill="url(#frameFace)" />
  <rect x="120" y="120" width="1260" height="1260" fill="#F8F7F3" />
  <rect x="120" y="120" width="1260" height="1260" fill="none" stroke="#000000" stroke-opacity="0.14" stroke-width="10" />
  <rect x="250" y="250" width="1000" height="1000" fill="#FFFFFF" filter="url(#artShadow)" />
  <rect x="250" y="250" width="125" height="125" fill="#000000" />
  <rect x="375" y="250" width="125" height="125" fill="#1E1E1E" />
  <rect x="500" y="250" width="125" height="125" fill="#3C3C3C" />
  <rect x="625" y="250" width="125" height="125" fill="#5A5A5A" />
  <rect x="750" y="250" width="125" height="125" fill="#6F6F6F" />
  <rect x="875" y="250" width="125" height="125" fill="#5C4C3B" />
  <rect x="1000" y="250" width="125" height="125" fill="#4F4F00" />
  <rect x="1125" y="250" width="125" height="125" fill="#A6A63C" />
  <rect x="250" y="375" width="125" height="125" fill="#000000" />
  <rect x="375" y="375" width="125" height="125" fill="#2B2B2B" />
  <rect x="500" y="375" width="125" height="125" fill="#383838" />
  <rect x="625" y="375" width="125" height="125" fill="#6A4B2A" />
  <rect x="750" y="375" width="125" height="125" fill="#8C7B13" />
  <rect x="875" y="375" width="125" height="125" fill="#C0C0C0" />
  <rect x="1000" y="375" width="125" height="125" fill="#D9D9D9" />
  <rect x="1125" y="375" width="125" height="125" fill="#F0F0F0" />
  <rect x="250" y="500" width="125" height="125" fill="#2D2D2D" />
  <rect x="375" y="500" width="125" height="125" fill="#4A4A4A" />
  <rect x="500" y="500" width="125" height="125" fill="#7C7C7C" />
  <rect x="625" y="500" width="125" height="125" fill="#A3A34D" />
  <rect x="750" y="500" width="125" height="125" fill="#B7CC75" />
  <rect x="875" y="500" width="125" height="125" fill="#D3E6AA" />
  <rect x="1000" y="500" width="125" height="125" fill="#B7D8A2" />
  <rect x="1125" y="500" width="125" height="125" fill="#D2E4C4" />
  <rect x="250" y="625" width="125" height="125" fill="#111111" />
  <rect x="375" y="625" width="125" height="125" fill="#333333" />
  <rect x="500" y="625" width="125" height="125" fill="#222222" />
  <rect x="625" y="625" width="125" height="125" fill="#545A28" />
  <rect x="750" y="625" width="125" height="125" fill="#A0C3C0" />
  <rect x="875" y="625" width="125" height="125" fill="#DB8B24" />
  <rect x="1000" y="625" width="125" height="125" fill="#F4EFD4" />
  <rect x="1125" y="625" width="125" height="125" fill="#FFFFFF" />
  <rect x="250" y="750" width="125" height="125" fill="#000000" />
  <rect x="375" y="750" width="125" height="125" fill="#2C2C4C" />
  <rect x="500" y="750" width="125" height="125" fill="#54544C" />
  <rect x="625" y="750" width="125" height="125" fill="#757A6A" />
  <rect x="750" y="750" width="125" height="125" fill="#A6B4A6" />
  <rect x="875" y="750" width="125" height="125" fill="#C8D1E3" />
  <rect x="1000" y="750" width="125" height="125" fill="#DADAB0" />
  <rect x="1125" y="750" width="125" height="125" fill="#FFFFFF" />
  <rect x="250" y="875" width="125" height="125" fill="#222B32" />
  <rect x="375" y="875" width="125" height="125" fill="#444444" />
  <rect x="500" y="875" width="125" height="125" fill="#343F39" />
  <rect x="625" y="875" width="125" height="125" fill="#2DA43C" />
  <rect x="750" y="875" width="125" height="125" fill="#AED387" />
  <rect x="875" y="875" width="125" height="125" fill="#F0E9D1" />
  <rect x="1000" y="875" width="125" height="125" fill="#D0B589" />
  <rect x="1125" y="875" width="125" height="125" fill="#D2D2D2" />
  <rect x="250" y="1000" width="125" height="125" fill="#000000" />
  <rect x="375" y="1000" width="125" height="125" fill="#2C2C2C" />
  <rect x="500" y="1000" width="125" height="125" fill="#3B3B3B" />
  <rect x="625" y="1000" width="125" height="125" fill="#736B5E" />
  <rect x="750" y="1000" width="125" height="125" fill="#AFAF7A" />
  <rect x="875" y="1000" width="125" height="125" fill="#D6D6D6" />
  <rect x="1000" y="1000" width="125" height="125" fill="#B4B4B4" />
  <rect x="1125" y="1000" width="125" height="125" fill="#F3F3F3" />
  <rect x="250" y="1125" width="125" height="125" fill="#2B2B2B" />
  <rect x="375" y="1125" width="125" height="125" fill="#515151" />
  <rect x="500" y="1125" width="125" height="125" fill="#6B6B25" />
  <rect x="625" y="1125" width="125" height="125" fill="#9A9A8C" />
  <rect x="750" y="1125" width="125" height="125" fill="#C3D3A0" />
  <rect x="875" y="1125" width="125" height="125" fill="#E1E1B7" />
  <rect x="1000" y="1125" width="125" height="125" fill="#E9E3D1" />
  <rect x="1125" y="1125" width="125" height="125" fill="#FFFFFF" />
  <rect x="250" y="250" width="1000" height="1000" fill="none" stroke="#151515" stroke-opacity="0.16" stroke-width="2" />
</svg>
