<svg xmlns="http://www.w3.org/2000/svg" width="1500" height="1500" viewBox="0 0 1500 1500" shape-rendering="crispEdges" role="img" aria-labelledby="title desc">
  <title id="title">Fractured Affection in Natural frame</title>
  <desc id="desc">Square Project artwork previewed in a natural frame.</desc>
  <rect x="0" y="0" width="1500" height="1500" fill="#FFFFFF" />
  <image href="https://mysquareart.com/frames/natural.jpg" x="0" y="0" width="1500" height="1500" preserveAspectRatio="xMidYMid meet" />
  <rect x="250" y="250" width="1000" height="1000" fill="#FFFFFF" />
  <rect x="250" y="250" width="125" height="125" fill="#FFC0CB" />
  <rect x="375" y="250" width="125" height="125" fill="#FF69B4" />
  <rect x="500" y="250" width="125" height="125" fill="#FFB6C1" />
  <rect x="625" y="250" width="125" height="125" fill="#FFD700" />
  <rect x="750" y="250" width="125" height="125" fill="#FF1493" />
  <rect x="875" y="250" width="125" height="125" fill="#FFB6C1" />
  <rect x="1000" y="250" width="125" height="125" fill="#FFC0CB" />
  <rect x="1125" y="250" width="125" height="125" fill="#FFE4E1" />
  <rect x="250" y="375" width="125" height="125" fill="#FF69B4" />
  <rect x="375" y="375" width="125" height="125" fill="#C71585" />
  <rect x="500" y="375" width="125" height="125" fill="#FF6347" />
  <rect x="625" y="375" width="125" height="125" fill="#FF1493" />
  <rect x="750" y="375" width="125" height="125" fill="#DB7093" />
  <rect x="875" y="375" width="125" height="125" fill="#FF69B4" />
  <rect x="1000" y="375" width="125" height="125" fill="#FFB6C1" />
  <rect x="1125" y="375" width="125" height="125" fill="#FF4500" />
  <rect x="250" y="500" width="125" height="125" fill="#444444" />
  <rect x="375" y="500" width="125" height="125" fill="#555555" />
  <rect x="500" y="500" width="125" height="125" fill="#666666" />
  <rect x="625" y="500" width="125" height="125" fill="#777777" />
  <rect x="750" y="500" width="125" height="125" fill="#888888" />
  <rect x="875" y="500" width="125" height="125" fill="#999999" />
  <rect x="1000" y="500" width="125" height="125" fill="#AAAAAA" />
  <rect x="1125" y="500" width="125" height="125" fill="#BBBBBB" />
  <rect x="250" y="625" width="125" height="125" fill="#808080" />
  <rect x="375" y="625" width="125" height="125" fill="#696969" />
  <rect x="500" y="625" width="125" height="125" fill="#5B5B5B" />
  <rect x="625" y="625" width="125" height="125" fill="#474747" />
  <rect x="750" y="625" width="125" height="125" fill="#383838" />
  <rect x="875" y="625" width="125" height="125" fill="#2F2F2F" />
  <rect x="1000" y="625" width="125" height="125" fill="#1C1C1C" />
  <rect x="1125" y="625" width="125" height="125" fill="#0A0A0A" />
  <rect x="250" y="750" width="125" height="125" fill="#5B0A0A" />
  <rect x="375" y="750" width="125" height="125" fill="#800000" />
  <rect x="500" y="750" width="125" height="125" fill="#BF2B2B" />
  <rect x="625" y="750" width="125" height="125" fill="#D18D8D" />
  <rect x="750" y="750" width="125" height="125" fill="#FF6347" />
  <rect x="875" y="750" width="125" height="125" fill="#A52A2A" />
  <rect x="1000" y="750" width="125" height="125" fill="#8B0000" />
  <rect x="1125" y="750" width="125" height="125" fill="#FF4500" />
  <rect x="250" y="875" width="125" height="125" fill="#7C2C2C" />
  <rect x="375" y="875" width="125" height="125" fill="#B22222" />
  <rect x="500" y="875" width="125" height="125" fill="#FF6347" />
  <rect x="625" y="875" width="125" height="125" fill="#D70000" />
  <rect x="750" y="875" width="125" height="125" fill="#AB0000" />
  <rect x="875" y="875" width="125" height="125" fill="#8B0000" />
  <rect x="1000" y="875" width="125" height="125" fill="#A52A2A" />
  <rect x="1125" y="875" width="125" height="125" fill="#FF7F50" />
  <rect x="250" y="1000" width="125" height="125" fill="#2E0000" />
  <rect x="375" y="1000" width="125" height="125" fill="#C75757" />
  <rect x="500" y="1000" width="125" height="125" fill="#D5A6A6" />
  <rect x="625" y="1000" width="125" height="125" fill="#CE3B3B" />
  <rect x="750" y="1000" width="125" height="125" fill="#FFB6C1" />
  <rect x="875" y="1000" width="125" height="125" fill="#FF6347" />
  <rect x="1000" y="1000" width="125" height="125" fill="#A52A2A" />
  <rect x="1125" y="1000" width="125" height="125" fill="#800000" />
  <rect x="250" y="1125" width="125" height="125" fill="#111111" />
  <rect x="375" y="1125" width="125" height="125" fill="#222222" />
  <rect x="500" y="1125" width="125" height="125" fill="#333333" />
  <rect x="625" y="1125" width="125" height="125" fill="#444444" />
  <rect x="750" y="1125" width="125" height="125" fill="#555555" />
  <rect x="875" y="1125" width="125" height="125" fill="#666666" />
  <rect x="1000" y="1125" width="125" height="125" fill="#777777" />
  <rect x="1125" y="1125" width="125" height="125" fill="#888888" />
  <rect x="250" y="250" width="1000" height="1000" fill="none" stroke="#151515" stroke-opacity="0.16" stroke-width="2" />
</svg>
