<svg xmlns="http://www.w3.org/2000/svg" width="1500" height="1500" viewBox="0 0 1500 1500" shape-rendering="crispEdges" role="img" aria-labelledby="title desc">
  <title id="title">Conflict of Elements in Gold frame</title>
  <desc id="desc">Square Project artwork previewed in a gold frame.</desc>
  <rect x="0" y="0" width="1500" height="1500" fill="#FFFFFF" />
  <image href="https://mysquareart.com/frames/gold.jpg" x="0" y="0" width="1500" height="1500" preserveAspectRatio="xMidYMid meet" />
  <rect x="250" y="250" width="1000" height="1000" fill="#FFFFFF" />
  <rect x="250" y="250" width="125" height="125" fill="#3B2D23" />
  <rect x="375" y="250" width="125" height="125" fill="#72604C" />
  <rect x="500" y="250" width="125" height="125" fill="#E1C6B4" />
  <rect x="625" y="250" width="125" height="125" fill="#8C7750" />
  <rect x="750" y="250" width="125" height="125" fill="#51392C" />
  <rect x="875" y="250" width="125" height="125" fill="#6F522E" />
  <rect x="1000" y="250" width="125" height="125" fill="#F0E5D1" />
  <rect x="1125" y="250" width="125" height="125" fill="#DBD0C5" />
  <rect x="250" y="375" width="125" height="125" fill="#3E4B50" />
  <rect x="375" y="375" width="125" height="125" fill="#9B8D7C" />
  <rect x="500" y="375" width="125" height="125" fill="#4B391C" />
  <rect x="625" y="375" width="125" height="125" fill="#E47736" />
  <rect x="750" y="375" width="125" height="125" fill="#E6B07C" />
  <rect x="875" y="375" width="125" height="125" fill="#7A866A" />
  <rect x="1000" y="375" width="125" height="125" fill="#5F5F61" />
  <rect x="1125" y="375" width="125" height="125" fill="#B2B3B0" />
  <rect x="250" y="500" width="125" height="125" fill="#421820" />
  <rect x="375" y="500" width="125" height="125" fill="#281E22" />
  <rect x="500" y="500" width="125" height="125" fill="#382820" />
  <rect x="625" y="500" width="125" height="125" fill="#5F4848" />
  <rect x="750" y="500" width="125" height="125" fill="#BD8C52" />
  <rect x="875" y="500" width="125" height="125" fill="#C4B39A" />
  <rect x="1000" y="500" width="125" height="125" fill="#FDEBDF" />
  <rect x="1125" y="500" width="125" height="125" fill="#D6C2B3" />
  <rect x="250" y="625" width="125" height="125" fill="#45353A" />
  <rect x="375" y="625" width="125" height="125" fill="#212322" />
  <rect x="500" y="625" width="125" height="125" fill="#5C4744" />
  <rect x="625" y="625" width="125" height="125" fill="#988774" />
  <rect x="750" y="625" width="125" height="125" fill="#FEFEFF" />
  <rect x="875" y="625" width="125" height="125" fill="#B8B8B8" />
  <rect x="1000" y="625" width="125" height="125" fill="#61605D" />
  <rect x="1125" y="625" width="125" height="125" fill="#01060A" />
  <rect x="250" y="750" width="125" height="125" fill="#F3C6B6" />
  <rect x="375" y="750" width="125" height="125" fill="#C0A188" />
  <rect x="500" y="750" width="125" height="125" fill="#574C41" />
  <rect x="625" y="750" width="125" height="125" fill="#FF6E8A" />
  <rect x="750" y="750" width="125" height="125" fill="#403B28" />
  <rect x="875" y="750" width="125" height="125" fill="#E4B17B" />
  <rect x="1000" y="750" width="125" height="125" fill="#C3CDC2" />
  <rect x="1125" y="750" width="125" height="125" fill="#A4A8A4" />
  <rect x="250" y="875" width="125" height="125" fill="#7B4741" />
  <rect x="375" y="875" width="125" height="125" fill="#CBD3CD" />
  <rect x="500" y="875" width="125" height="125" fill="#D4B8B6" />
  <rect x="625" y="875" width="125" height="125" fill="#601C5A" />
  <rect x="750" y="875" width="125" height="125" fill="#988676" />
  <rect x="875" y="875" width="125" height="125" fill="#EDFFFB" />
  <rect x="1000" y="875" width="125" height="125" fill="#F7C8C7" />
  <rect x="1125" y="875" width="125" height="125" fill="#D1112A" />
  <rect x="250" y="1000" width="125" height="125" fill="#4A2A28" />
  <rect x="375" y="1000" width="125" height="125" fill="#C2B59E" />
  <rect x="500" y="1000" width="125" height="125" fill="#BDE3CB" />
  <rect x="625" y="1000" width="125" height="125" fill="#DEE3D0" />
  <rect x="750" y="1000" width="125" height="125" fill="#E7A6A0" />
  <rect x="875" y="1000" width="125" height="125" fill="#B17263" />
  <rect x="1000" y="1000" width="125" height="125" fill="#BBB8B7" />
  <rect x="1125" y="1000" width="125" height="125" fill="#D2D1A8" />
  <rect x="250" y="1125" width="125" height="125" fill="#F9F7F4" />
  <rect x="375" y="1125" width="125" height="125" fill="#E8C3B7" />
  <rect x="500" y="1125" width="125" height="125" fill="#A13C27" />
  <rect x="625" y="1125" width="125" height="125" fill="#881E2E" />
  <rect x="750" y="1125" width="125" height="125" fill="#7C4A45" />
  <rect x="875" y="1125" width="125" height="125" fill="#D8D4CC" />
  <rect x="1000" y="1125" width="125" height="125" fill="#F6E8D1" />
  <rect x="1125" y="1125" width="125" height="125" fill="#7A7D8F" />
  <rect x="250" y="250" width="1000" height="1000" fill="none" stroke="#151515" stroke-opacity="0.16" stroke-width="2" />
</svg>
