<svg xmlns="http://www.w3.org/2000/svg" width="1500" height="1500" viewBox="0 0 1500 1500" shape-rendering="crispEdges" role="img" aria-labelledby="title desc">
  <title id="title">Fractured Warmth in Gold frame</title>
  <desc id="desc">Square Project artwork previewed in a gold frame.</desc>
  <defs>
    <linearGradient id="frameFace" x1="0" y1="0" x2="1" y2="1">
      <stop offset="0" stop-color="#FFF0A3" />
      <stop offset="0.32" stop-color="#F1D676" />
      <stop offset="0.68" stop-color="#CBA642" />
      <stop offset="1" stop-color="#8B6A1D" />
    </linearGradient>
    <filter id="artShadow" x="-10%" y="-10%" width="120%" height="120%">
      <feDropShadow dx="0" dy="20" stdDeviation="24" flood-color="#000000" flood-opacity="0.24" />
    </filter>
  </defs>
  <rect x="0" y="0" width="1500" height="1500" fill="#FFFFFF" />
  <rect x="0" y="0" width="1500" height="1500" fill="url(#frameFace)" />
  <rect x="120" y="120" width="1260" height="1260" fill="#F8F7F3" />
  <rect x="120" y="120" width="1260" height="1260" fill="none" stroke="#000000" stroke-opacity="0.14" stroke-width="10" />
  <rect x="250" y="250" width="1000" height="1000" fill="#FFFFFF" filter="url(#artShadow)" />
  <rect x="250" y="250" width="125" height="125" fill="#D5869D" />
  <rect x="375" y="250" width="125" height="125" fill="#D96F83" />
  <rect x="500" y="250" width="125" height="125" fill="#D24F70" />
  <rect x="625" y="250" width="125" height="125" fill="#B52B5C" />
  <rect x="750" y="250" width="125" height="125" fill="#A16A6D" />
  <rect x="875" y="250" width="125" height="125" fill="#BFAFBB" />
  <rect x="1000" y="250" width="125" height="125" fill="#D6C1C3" />
  <rect x="1125" y="250" width="125" height="125" fill="#EEFEFA" />
  <rect x="250" y="375" width="125" height="125" fill="#F8B2C2" />
  <rect x="375" y="375" width="125" height="125" fill="#F16476" />
  <rect x="500" y="375" width="125" height="125" fill="#FF3F5E" />
  <rect x="625" y="375" width="125" height="125" fill="#BF2B51" />
  <rect x="750" y="375" width="125" height="125" fill="#8D4D58" />
  <rect x="875" y="375" width="125" height="125" fill="#A58C95" />
  <rect x="1000" y="375" width="125" height="125" fill="#D9CACD" />
  <rect x="1125" y="375" width="125" height="125" fill="#5F3A4D" />
  <rect x="250" y="500" width="125" height="125" fill="#FF4D4D" />
  <rect x="375" y="500" width="125" height="125" fill="#C23D4B" />
  <rect x="500" y="500" width="125" height="125" fill="#F3B86B" />
  <rect x="625" y="500" width="125" height="125" fill="#4F2A2F" />
  <rect x="750" y="500" width="125" height="125" fill="#C7B8B5" />
  <rect x="875" y="500" width="125" height="125" fill="#B14555" />
  <rect x="1000" y="500" width="125" height="125" fill="#4C3848" />
  <rect x="1125" y="500" width="125" height="125" fill="#7C555A" />
  <rect x="250" y="625" width="125" height="125" fill="#F4B64A" />
  <rect x="375" y="625" width="125" height="125" fill="#BEC1C0" />
  <rect x="500" y="625" width="125" height="125" fill="#D96669" />
  <rect x="625" y="625" width="125" height="125" fill="#EAE6E8" />
  <rect x="750" y="625" width="125" height="125" fill="#8D545E" />
  <rect x="875" y="625" width="125" height="125" fill="#C9A7AA" />
  <rect x="1000" y="625" width="125" height="125" fill="#A27C84" />
  <rect x="1125" y="625" width="125" height="125" fill="#525252" />
  <rect x="250" y="750" width="125" height="125" fill="#C03B51" />
  <rect x="375" y="750" width="125" height="125" fill="#D24541" />
  <rect x="500" y="750" width="125" height="125" fill="#E4B5A8" />
  <rect x="625" y="750" width="125" height="125" fill="#B48291" />
  <rect x="750" y="750" width="125" height="125" fill="#A75B63" />
  <rect x="875" y="750" width="125" height="125" fill="#BF7379" />
  <rect x="1000" y="750" width="125" height="125" fill="#767474" />
  <rect x="1125" y="750" width="125" height="125" fill="#FFFFF0" />
  <rect x="250" y="875" width="125" height="125" fill="#FFC4D8" />
  <rect x="375" y="875" width="125" height="125" fill="#A74B55" />
  <rect x="500" y="875" width="125" height="125" fill="#E2B7AC" />
  <rect x="625" y="875" width="125" height="125" fill="#4B1F2B" />
  <rect x="750" y="875" width="125" height="125" fill="#BEA1A1" />
  <rect x="875" y="875" width="125" height="125" fill="#9E8A8C" />
  <rect x="1000" y="875" width="125" height="125" fill="#C6B2B2" />
  <rect x="1125" y="875" width="125" height="125" fill="#6E4F54" />
  <rect x="250" y="1000" width="125" height="125" fill="#FF7FE6" />
  <rect x="375" y="1000" width="125" height="125" fill="#FF4A87" />
  <rect x="500" y="1000" width="125" height="125" fill="#6B3A3D" />
  <rect x="625" y="1000" width="125" height="125" fill="#DDC9CB" />
  <rect x="750" y="1000" width="125" height="125" fill="#9FA6A0" />
  <rect x="875" y="1000" width="125" height="125" fill="#3C2528" />
  <rect x="1000" y="1000" width="125" height="125" fill="#8D4B5C" />
  <rect x="1125" y="1000" width="125" height="125" fill="#D2C6C4" />
  <rect x="250" y="1125" width="125" height="125" fill="#F3B190" />
  <rect x="375" y="1125" width="125" height="125" fill="#8F4149" />
  <rect x="500" y="1125" width="125" height="125" fill="#463737" />
  <rect x="625" y="1125" width="125" height="125" fill="#E9E1E4" />
  <rect x="750" y="1125" width="125" height="125" fill="#EAB7D2" />
  <rect x="875" y="1125" width="125" height="125" fill="#C7C5C1" />
  <rect x="1000" y="1125" width="125" height="125" fill="#B6B8BE" />
  <rect x="1125" y="1125" width="125" height="125" fill="#C1C2C3" />
  <rect x="250" y="250" width="1000" height="1000" fill="none" stroke="#151515" stroke-opacity="0.16" stroke-width="2" />
</svg>
