<svg xmlns="http://www.w3.org/2000/svg" width="1500" height="1500" viewBox="0 0 1500 1500" shape-rendering="crispEdges" role="img" aria-labelledby="title desc">
  <title id="title">Pressure and Release in Black frame</title>
  <desc id="desc">Square Project artwork previewed in a black frame.</desc>
  <rect x="0" y="0" width="1500" height="1500" fill="#FFFFFF" />
  <image href="https://mysquareart.com/frames/black.jpg" x="0" y="0" width="1500" height="1500" preserveAspectRatio="xMidYMid meet" />
  <rect x="250" y="250" width="1000" height="1000" fill="#FFFFFF" />
  <rect x="250" y="250" width="125" height="125" fill="#000000" />
  <rect x="375" y="250" width="125" height="125" fill="#1A0A0A" />
  <rect x="500" y="250" width="125" height="125" fill="#333333" />
  <rect x="625" y="250" width="125" height="125" fill="#666666" />
  <rect x="750" y="250" width="125" height="125" fill="#9C9C9C" />
  <rect x="875" y="250" width="125" height="125" fill="#D4D4D4" />
  <rect x="1000" y="250" width="125" height="125" fill="#FFFFFF" />
  <rect x="1125" y="250" width="125" height="125" fill="#F0E0D6" />
  <rect x="250" y="375" width="125" height="125" fill="#000000" />
  <rect x="375" y="375" width="125" height="125" fill="#090909" />
  <rect x="500" y="375" width="125" height="125" fill="#2C2C2C" />
  <rect x="625" y="375" width="125" height="125" fill="#5A5A5A" />
  <rect x="750" y="375" width="125" height="125" fill="#7C7C7C" />
  <rect x="875" y="375" width="125" height="125" fill="#BFBFBF" />
  <rect x="1000" y="375" width="125" height="125" fill="#E0E0E0" />
  <rect x="1125" y="375" width="125" height="125" fill="#FFFFFF" />
  <rect x="250" y="500" width="125" height="125" fill="#111111" />
  <rect x="375" y="500" width="125" height="125" fill="#181818" />
  <rect x="500" y="500" width="125" height="125" fill="#333333" />
  <rect x="625" y="500" width="125" height="125" fill="#4A4A4A" />
  <rect x="750" y="500" width="125" height="125" fill="#7B5E62" />
  <rect x="875" y="500" width="125" height="125" fill="#D3CFCB" />
  <rect x="1000" y="500" width="125" height="125" fill="#EAE3E0" />
  <rect x="1125" y="500" width="125" height="125" fill="#F4D9CD" />
  <rect x="250" y="625" width="125" height="125" fill="#050505" />
  <rect x="375" y="625" width="125" height="125" fill="#212121" />
  <rect x="500" y="625" width="125" height="125" fill="#383838" />
  <rect x="625" y="625" width="125" height="125" fill="#626262" />
  <rect x="750" y="625" width="125" height="125" fill="#A24A1B" />
  <rect x="875" y="625" width="125" height="125" fill="#E8B265" />
  <rect x="1000" y="625" width="125" height="125" fill="#EAE0D4" />
  <rect x="1125" y="625" width="125" height="125" fill="#F8EAE3" />
  <rect x="250" y="750" width="125" height="125" fill="#0B0B0B" />
  <rect x="375" y="750" width="125" height="125" fill="#1F1F1F" />
  <rect x="500" y="750" width="125" height="125" fill="#2E2E2E" />
  <rect x="625" y="750" width="125" height="125" fill="#484848" />
  <rect x="750" y="750" width="125" height="125" fill="#7F6B6F" />
  <rect x="875" y="750" width="125" height="125" fill="#D0BFBF" />
  <rect x="1000" y="750" width="125" height="125" fill="#F1E8E2" />
  <rect x="1125" y="750" width="125" height="125" fill="#F7E5D6" />
  <rect x="250" y="875" width="125" height="125" fill="#1C1C1C" />
  <rect x="375" y="875" width="125" height="125" fill="#2F2F2F" />
  <rect x="500" y="875" width="125" height="125" fill="#484848" />
  <rect x="625" y="875" width="125" height="125" fill="#606060" />
  <rect x="750" y="875" width="125" height="125" fill="#B66558" />
  <rect x="875" y="875" width="125" height="125" fill="#D6C8C9" />
  <rect x="1000" y="875" width="125" height="125" fill="#E3D9D1" />
  <rect x="1125" y="875" width="125" height="125" fill="#F4EAE5" />
  <rect x="250" y="1000" width="125" height="125" fill="#131313" />
  <rect x="375" y="1000" width="125" height="125" fill="#232323" />
  <rect x="500" y="1000" width="125" height="125" fill="#353535" />
  <rect x="625" y="1000" width="125" height="125" fill="#465A6A" />
  <rect x="750" y="1000" width="125" height="125" fill="#895B55" />
  <rect x="875" y="1000" width="125" height="125" fill="#E37E69" />
  <rect x="1000" y="1000" width="125" height="125" fill="#F1C2B2" />
  <rect x="1125" y="1000" width="125" height="125" fill="#F8E3DD" />
  <rect x="250" y="1125" width="125" height="125" fill="#0A0A0A" />
  <rect x="375" y="1125" width="125" height="125" fill="#1D1D1D" />
  <rect x="500" y="1125" width="125" height="125" fill="#2D2D2D" />
  <rect x="625" y="1125" width="125" height="125" fill="#3C4C5D" />
  <rect x="750" y="1125" width="125" height="125" fill="#734F53" />
  <rect x="875" y="1125" width="125" height="125" fill="#D28C81" />
  <rect x="1000" y="1125" width="125" height="125" fill="#F7CEB6" />
  <rect x="1125" y="1125" width="125" height="125" fill="#F3E3D5" />
  <rect x="250" y="250" width="1000" height="1000" fill="none" stroke="#151515" stroke-opacity="0.16" stroke-width="2" />
</svg>
