<svg xmlns="http://www.w3.org/2000/svg" width="1500" height="1500" viewBox="0 0 1500 1500" shape-rendering="crispEdges" role="img" aria-labelledby="title desc">
  <title id="title">Echoes of Tension in Gold frame</title>
  <desc id="desc">Square Project artwork previewed in a gold frame.</desc>
  <defs>
    <linearGradient id="frameFace" x1="0" y1="0" x2="1" y2="1">
      <stop offset="0" stop-color="#FFF0A3" />
      <stop offset="0.32" stop-color="#F1D676" />
      <stop offset="0.68" stop-color="#CBA642" />
      <stop offset="1" stop-color="#8B6A1D" />
    </linearGradient>
    <filter id="artShadow" x="-10%" y="-10%" width="120%" height="120%">
      <feDropShadow dx="0" dy="20" stdDeviation="24" flood-color="#000000" flood-opacity="0.24" />
    </filter>
  </defs>
  <rect x="0" y="0" width="1500" height="1500" fill="#FFFFFF" />
  <rect x="0" y="0" width="1500" height="1500" fill="url(#frameFace)" />
  <rect x="120" y="120" width="1260" height="1260" fill="#F8F7F3" />
  <rect x="120" y="120" width="1260" height="1260" fill="none" stroke="#000000" stroke-opacity="0.14" stroke-width="10" />
  <rect x="250" y="250" width="1000" height="1000" fill="#FFFFFF" filter="url(#artShadow)" />
  <rect x="250" y="250" width="125" height="125" fill="#3B2A1D" />
  <rect x="375" y="250" width="125" height="125" fill="#D2C1B0" />
  <rect x="500" y="250" width="125" height="125" fill="#607D8B" />
  <rect x="625" y="250" width="125" height="125" fill="#C9B0AE" />
  <rect x="750" y="250" width="125" height="125" fill="#4E3E3A" />
  <rect x="875" y="250" width="125" height="125" fill="#BEC6B2" />
  <rect x="1000" y="250" width="125" height="125" fill="#A3B4D6" />
  <rect x="1125" y="250" width="125" height="125" fill="#E6E0D0" />
  <rect x="250" y="375" width="125" height="125" fill="#F4D3CB" />
  <rect x="375" y="375" width="125" height="125" fill="#B9AFA8" />
  <rect x="500" y="375" width="125" height="125" fill="#C4B1A4" />
  <rect x="625" y="375" width="125" height="125" fill="#A2A6B8" />
  <rect x="750" y="375" width="125" height="125" fill="#BCB5A6" />
  <rect x="875" y="375" width="125" height="125" fill="#F0B7A4" />
  <rect x="1000" y="375" width="125" height="125" fill="#E6E2D0" />
  <rect x="1125" y="375" width="125" height="125" fill="#A8B1C1" />
  <rect x="250" y="500" width="125" height="125" fill="#7E5B51" />
  <rect x="375" y="500" width="125" height="125" fill="#D5D3D2" />
  <rect x="500" y="500" width="125" height="125" fill="#455A64" />
  <rect x="625" y="500" width="125" height="125" fill="#E6B1A5" />
  <rect x="750" y="500" width="125" height="125" fill="#AB9D8A" />
  <rect x="875" y="500" width="125" height="125" fill="#BFBACB" />
  <rect x="1000" y="500" width="125" height="125" fill="#7A7E7F" />
  <rect x="1125" y="500" width="125" height="125" fill="#E4C8B9" />
  <rect x="250" y="625" width="125" height="125" fill="#8C7364" />
  <rect x="375" y="625" width="125" height="125" fill="#B8A89D" />
  <rect x="500" y="625" width="125" height="125" fill="#536872" />
  <rect x="625" y="625" width="125" height="125" fill="#9BC1B9" />
  <rect x="750" y="625" width="125" height="125" fill="#E7C5A0" />
  <rect x="875" y="625" width="125" height="125" fill="#5A3D35" />
  <rect x="1000" y="625" width="125" height="125" fill="#B0A9A3" />
  <rect x="1125" y="625" width="125" height="125" fill="#D0C1B6" />
  <rect x="250" y="750" width="125" height="125" fill="#B6A99D" />
  <rect x="375" y="750" width="125" height="125" fill="#7D687E" />
  <rect x="500" y="750" width="125" height="125" fill="#F1E7E8" />
  <rect x="625" y="750" width="125" height="125" fill="#CCB9A0" />
  <rect x="750" y="750" width="125" height="125" fill="#C6BEC0" />
  <rect x="875" y="750" width="125" height="125" fill="#5B7F8B" />
  <rect x="1000" y="750" width="125" height="125" fill="#A6A57A" />
  <rect x="1125" y="750" width="125" height="125" fill="#E8D3D0" />
  <rect x="250" y="875" width="125" height="125" fill="#5B4D43" />
  <rect x="375" y="875" width="125" height="125" fill="#D0C9B6" />
  <rect x="500" y="875" width="125" height="125" fill="#4A7077" />
  <rect x="625" y="875" width="125" height="125" fill="#B7D9D8" />
  <rect x="750" y="875" width="125" height="125" fill="#C3B7B0" />
  <rect x="875" y="875" width="125" height="125" fill="#C9A496" />
  <rect x="1000" y="875" width="125" height="125" fill="#E2C8AF" />
  <rect x="1125" y="875" width="125" height="125" fill="#B2A1AD" />
  <rect x="250" y="1000" width="125" height="125" fill="#6B5C57" />
  <rect x="375" y="1000" width="125" height="125" fill="#E7D9C4" />
  <rect x="500" y="1000" width="125" height="125" fill="#597A7C" />
  <rect x="625" y="1000" width="125" height="125" fill="#848F9D" />
  <rect x="750" y="1000" width="125" height="125" fill="#B0BEB3" />
  <rect x="875" y="1000" width="125" height="125" fill="#E5D9CA" />
  <rect x="1000" y="1000" width="125" height="125" fill="#DEB6A3" />
  <rect x="1125" y="1000" width="125" height="125" fill="#A49387" />
  <rect x="250" y="1125" width="125" height="125" fill="#4A4A4D" />
  <rect x="375" y="1125" width="125" height="125" fill="#BEC2B5" />
  <rect x="500" y="1125" width="125" height="125" fill="#C8BFA1" />
  <rect x="625" y="1125" width="125" height="125" fill="#A8B4B5" />
  <rect x="750" y="1125" width="125" height="125" fill="#4A4D5E" />
  <rect x="875" y="1125" width="125" height="125" fill="#D4CBDF" />
  <rect x="1000" y="1125" width="125" height="125" fill="#F4E6E7" />
  <rect x="1125" y="1125" width="125" height="125" fill="#F6F6F6" />
  <rect x="250" y="250" width="1000" height="1000" fill="none" stroke="#151515" stroke-opacity="0.16" stroke-width="2" />
</svg>
