<svg xmlns="http://www.w3.org/2000/svg" width="1500" height="1500" viewBox="0 0 1500 1500" shape-rendering="crispEdges" role="img" aria-labelledby="title desc">
  <title id="title">Echoes of Trust and Suspicion in Gold frame</title>
  <desc id="desc">Square Project artwork previewed in a gold frame.</desc>
  <rect x="0" y="0" width="1500" height="1500" fill="#FFFFFF" />
  <image href="https://mysquareart.com/frames/gold.jpg" x="0" y="0" width="1500" height="1500" preserveAspectRatio="xMidYMid meet" />
  <rect x="250" y="250" width="1000" height="1000" fill="#FFFFFF" />
  <rect x="250" y="250" width="125" height="125" fill="#FFCCCC" />
  <rect x="375" y="250" width="125" height="125" fill="#FF9999" />
  <rect x="500" y="250" width="125" height="125" fill="#CC6666" />
  <rect x="625" y="250" width="125" height="125" fill="#CC3333" />
  <rect x="750" y="250" width="125" height="125" fill="#B30000" />
  <rect x="875" y="250" width="125" height="125" fill="#800000" />
  <rect x="1000" y="250" width="125" height="125" fill="#660000" />
  <rect x="1125" y="250" width="125" height="125" fill="#333333" />
  <rect x="250" y="375" width="125" height="125" fill="#F4E2E2" />
  <rect x="375" y="375" width="125" height="125" fill="#E0BDBD" />
  <rect x="500" y="375" width="125" height="125" fill="#D99696" />
  <rect x="625" y="375" width="125" height="125" fill="#D06A6A" />
  <rect x="750" y="375" width="125" height="125" fill="#B95B5B" />
  <rect x="875" y="375" width="125" height="125" fill="#9B4242" />
  <rect x="1000" y="375" width="125" height="125" fill="#7D2929" />
  <rect x="1125" y="375" width="125" height="125" fill="#4D1A1A" />
  <rect x="250" y="500" width="125" height="125" fill="#EEEEEE" />
  <rect x="375" y="500" width="125" height="125" fill="#E0E0E0" />
  <rect x="500" y="500" width="125" height="125" fill="#B8B8B8" />
  <rect x="625" y="500" width="125" height="125" fill="#A0A0A0" />
  <rect x="750" y="500" width="125" height="125" fill="#878787" />
  <rect x="875" y="500" width="125" height="125" fill="#707070" />
  <rect x="1000" y="500" width="125" height="125" fill="#545454" />
  <rect x="1125" y="500" width="125" height="125" fill="#3D3D3D" />
  <rect x="250" y="625" width="125" height="125" fill="#F0D8D8" />
  <rect x="375" y="625" width="125" height="125" fill="#E3B4B4" />
  <rect x="500" y="625" width="125" height="125" fill="#D59C9C" />
  <rect x="625" y="625" width="125" height="125" fill="#D47777" />
  <rect x="750" y="625" width="125" height="125" fill="#B95F5F" />
  <rect x="875" y="625" width="125" height="125" fill="#9C4949" />
  <rect x="1000" y="625" width="125" height="125" fill="#7F3B3B" />
  <rect x="1125" y="625" width="125" height="125" fill="#591E1E" />
  <rect x="250" y="750" width="125" height="125" fill="#CCCCCC" />
  <rect x="375" y="750" width="125" height="125" fill="#AAAAFF" />
  <rect x="500" y="750" width="125" height="125" fill="#7DA1FF" />
  <rect x="625" y="750" width="125" height="125" fill="#5F8CFF" />
  <rect x="750" y="750" width="125" height="125" fill="#5086FF" />
  <rect x="875" y="750" width="125" height="125" fill="#4A80FF" />
  <rect x="1000" y="750" width="125" height="125" fill="#4A7AFF" />
  <rect x="1125" y="750" width="125" height="125" fill="#476FFF" />
  <rect x="250" y="875" width="125" height="125" fill="#FF9999" />
  <rect x="375" y="875" width="125" height="125" fill="#FFCCCC" />
  <rect x="500" y="875" width="125" height="125" fill="#FF3333" />
  <rect x="625" y="875" width="125" height="125" fill="#FF0000" />
  <rect x="750" y="875" width="125" height="125" fill="#BF0000" />
  <rect x="875" y="875" width="125" height="125" fill="#660000" />
  <rect x="1000" y="875" width="125" height="125" fill="#222222" />
  <rect x="1125" y="875" width="125" height="125" fill="#000000" />
  <rect x="250" y="1000" width="125" height="125" fill="#D4D4D4" />
  <rect x="375" y="1000" width="125" height="125" fill="#B0B0B0" />
  <rect x="500" y="1000" width="125" height="125" fill="#8F8F8F" />
  <rect x="625" y="1000" width="125" height="125" fill="#727272" />
  <rect x="750" y="1000" width="125" height="125" fill="#434343" />
  <rect x="875" y="1000" width="125" height="125" fill="#292929" />
  <rect x="1000" y="1000" width="125" height="125" fill="#1A1A1A" />
  <rect x="1125" y="1000" width="125" height="125" fill="#101010" />
  <rect x="250" y="1125" width="125" height="125" fill="#EAEAEA" />
  <rect x="375" y="1125" width="125" height="125" fill="#D5D5D5" />
  <rect x="500" y="1125" width="125" height="125" fill="#C0C0C0" />
  <rect x="625" y="1125" width="125" height="125" fill="#AAAABA" />
  <rect x="750" y="1125" width="125" height="125" fill="#8E8E8E" />
  <rect x="875" y="1125" width="125" height="125" fill="#767676" />
  <rect x="1000" y="1125" width="125" height="125" fill="#4E4E4E" />
  <rect x="1125" y="1125" width="125" height="125" fill="#222222" />
  <rect x="250" y="250" width="1000" height="1000" fill="none" stroke="#151515" stroke-opacity="0.16" stroke-width="2" />
</svg>
