<svg xmlns="http://www.w3.org/2000/svg" width="1500" height="1500" viewBox="0 0 1500 1500" shape-rendering="crispEdges" role="img" aria-labelledby="title desc">
  <title id="title">Light vs Weight in Black frame</title>
  <desc id="desc">Square Project artwork previewed in a black frame.</desc>
  <rect x="0" y="0" width="1500" height="1500" fill="#FFFFFF" />
  <image href="https://mysquareart.com/frames/black.jpg" x="0" y="0" width="1500" height="1500" preserveAspectRatio="xMidYMid meet" />
  <rect x="250" y="250" width="1000" height="1000" fill="#FFFFFF" />
  <rect x="250" y="250" width="125" height="125" fill="#6F2C36" />
  <rect x="375" y="250" width="125" height="125" fill="#BF0A3D" />
  <rect x="500" y="250" width="125" height="125" fill="#98504C" />
  <rect x="625" y="250" width="125" height="125" fill="#DAE7C0" />
  <rect x="750" y="250" width="125" height="125" fill="#FFCAD4" />
  <rect x="875" y="250" width="125" height="125" fill="#F66D91" />
  <rect x="1000" y="250" width="125" height="125" fill="#E56D56" />
  <rect x="1125" y="250" width="125" height="125" fill="#A19F9E" />
  <rect x="250" y="375" width="125" height="125" fill="#C96384" />
  <rect x="375" y="375" width="125" height="125" fill="#404A27" />
  <rect x="500" y="375" width="125" height="125" fill="#A65446" />
  <rect x="625" y="375" width="125" height="125" fill="#861D30" />
  <rect x="750" y="375" width="125" height="125" fill="#F2D60E" />
  <rect x="875" y="375" width="125" height="125" fill="#D83D56" />
  <rect x="1000" y="375" width="125" height="125" fill="#B2A5C5" />
  <rect x="1125" y="375" width="125" height="125" fill="#DF9A2A" />
  <rect x="250" y="500" width="125" height="125" fill="#FFA05D" />
  <rect x="375" y="500" width="125" height="125" fill="#A46B9D" />
  <rect x="500" y="500" width="125" height="125" fill="#2E4A60" />
  <rect x="625" y="500" width="125" height="125" fill="#BFD8C2" />
  <rect x="750" y="500" width="125" height="125" fill="#FFB3C1" />
  <rect x="875" y="500" width="125" height="125" fill="#DC3E59" />
  <rect x="1000" y="500" width="125" height="125" fill="#5C3C3B" />
  <rect x="1125" y="500" width="125" height="125" fill="#AA3D3D" />
  <rect x="250" y="625" width="125" height="125" fill="#D0A4A9" />
  <rect x="375" y="625" width="125" height="125" fill="#5E3B32" />
  <rect x="500" y="625" width="125" height="125" fill="#CDDA25" />
  <rect x="625" y="625" width="125" height="125" fill="#BFB95B" />
  <rect x="750" y="625" width="125" height="125" fill="#4E2E6C" />
  <rect x="875" y="625" width="125" height="125" fill="#FD4C4D" />
  <rect x="1000" y="625" width="125" height="125" fill="#EBB6B5" />
  <rect x="1125" y="625" width="125" height="125" fill="#A3A3A3" />
  <rect x="250" y="750" width="125" height="125" fill="#EC644B" />
  <rect x="375" y="750" width="125" height="125" fill="#7B9B76" />
  <rect x="500" y="750" width="125" height="125" fill="#4B3A37" />
  <rect x="625" y="750" width="125" height="125" fill="#FFD45B" />
  <rect x="750" y="750" width="125" height="125" fill="#A8D5BA" />
  <rect x="875" y="750" width="125" height="125" fill="#A24E50" />
  <rect x="1000" y="750" width="125" height="125" fill="#B70D3F" />
  <rect x="1125" y="750" width="125" height="125" fill="#8B7C7F" />
  <rect x="250" y="875" width="125" height="125" fill="#D59D5B" />
  <rect x="375" y="875" width="125" height="125" fill="#E4C4A4" />
  <rect x="500" y="875" width="125" height="125" fill="#BF695D" />
  <rect x="625" y="875" width="125" height="125" fill="#00B82D" />
  <rect x="750" y="875" width="125" height="125" fill="#A83C2A" />
  <rect x="875" y="875" width="125" height="125" fill="#D49EBA" />
  <rect x="1000" y="875" width="125" height="125" fill="#E6B12E" />
  <rect x="1125" y="875" width="125" height="125" fill="#E1814D" />
  <rect x="250" y="1000" width="125" height="125" fill="#2F2222" />
  <rect x="375" y="1000" width="125" height="125" fill="#8B7F80" />
  <rect x="500" y="1000" width="125" height="125" fill="#F0E5D9" />
  <rect x="625" y="1000" width="125" height="125" fill="#C7414C" />
  <rect x="750" y="1000" width="125" height="125" fill="#694F4D" />
  <rect x="875" y="1000" width="125" height="125" fill="#E45D5D" />
  <rect x="1000" y="1000" width="125" height="125" fill="#A2B8B2" />
  <rect x="1125" y="1000" width="125" height="125" fill="#F7B8A1" />
  <rect x="250" y="1125" width="125" height="125" fill="#F9AFAF" />
  <rect x="375" y="1125" width="125" height="125" fill="#6F6F6F" />
  <rect x="500" y="1125" width="125" height="125" fill="#3A1C1C" />
  <rect x="625" y="1125" width="125" height="125" fill="#EA2E2E" />
  <rect x="750" y="1125" width="125" height="125" fill="#BA0043" />
  <rect x="875" y="1125" width="125" height="125" fill="#CA7B8A" />
  <rect x="1000" y="1125" width="125" height="125" fill="#E7C9B8" />
  <rect x="1125" y="1125" width="125" height="125" fill="#FBE6E6" />
  <rect x="250" y="250" width="1000" height="1000" fill="none" stroke="#151515" stroke-opacity="0.16" stroke-width="2" />
</svg>
