<svg xmlns="http://www.w3.org/2000/svg" width="1500" height="1500" viewBox="0 0 1500 1500" shape-rendering="crispEdges" role="img" aria-labelledby="title desc">
  <title id="title">Tension and Tranquility in Black frame</title>
  <desc id="desc">Square Project artwork previewed in a black frame.</desc>
  <defs>
    <linearGradient id="frameFace" x1="0" y1="0" x2="1" y2="1">
      <stop offset="0" stop-color="#6A6A6A" />
      <stop offset="0.32" stop-color="#343434" />
      <stop offset="0.68" stop-color="#111111" />
      <stop offset="1" stop-color="#050505" />
    </linearGradient>
    <filter id="artShadow" x="-10%" y="-10%" width="120%" height="120%">
      <feDropShadow dx="0" dy="20" stdDeviation="24" flood-color="#000000" flood-opacity="0.24" />
    </filter>
  </defs>
  <rect x="0" y="0" width="1500" height="1500" fill="#FFFFFF" />
  <rect x="0" y="0" width="1500" height="1500" fill="url(#frameFace)" />
  <rect x="120" y="120" width="1260" height="1260" fill="#F8F7F3" />
  <rect x="120" y="120" width="1260" height="1260" fill="none" stroke="#000000" stroke-opacity="0.14" stroke-width="10" />
  <rect x="250" y="250" width="1000" height="1000" fill="#FFFFFF" filter="url(#artShadow)" />
  <rect x="250" y="250" width="125" height="125" fill="#000000" />
  <rect x="375" y="250" width="125" height="125" fill="#0A0D1F" />
  <rect x="500" y="250" width="125" height="125" fill="#1A2B4F" />
  <rect x="625" y="250" width="125" height="125" fill="#425C7C" />
  <rect x="750" y="250" width="125" height="125" fill="#3B4E7B" />
  <rect x="875" y="250" width="125" height="125" fill="#A6A48A" />
  <rect x="1000" y="250" width="125" height="125" fill="#C9C6B7" />
  <rect x="1125" y="250" width="125" height="125" fill="#F3ECD6" />
  <rect x="250" y="375" width="125" height="125" fill="#0C0F2B" />
  <rect x="375" y="375" width="125" height="125" fill="#0B1A54" />
  <rect x="500" y="375" width="125" height="125" fill="#4C6A95" />
  <rect x="625" y="375" width="125" height="125" fill="#C7B3A4" />
  <rect x="750" y="375" width="125" height="125" fill="#B6A682" />
  <rect x="875" y="375" width="125" height="125" fill="#E1D4C4" />
  <rect x="1000" y="375" width="125" height="125" fill="#F4F2EC" />
  <rect x="1125" y="375" width="125" height="125" fill="#FFFFFF" />
  <rect x="250" y="500" width="125" height="125" fill="#2B2E4D" />
  <rect x="375" y="500" width="125" height="125" fill="#0A1C3A" />
  <rect x="500" y="500" width="125" height="125" fill="#374A7B" />
  <rect x="625" y="500" width="125" height="125" fill="#5B7EBA" />
  <rect x="750" y="500" width="125" height="125" fill="#B5A9A1" />
  <rect x="875" y="500" width="125" height="125" fill="#E7D4B8" />
  <rect x="1000" y="500" width="125" height="125" fill="#D1C7B2" />
  <rect x="1125" y="500" width="125" height="125" fill="#E6E2D1" />
  <rect x="250" y="625" width="125" height="125" fill="#1A2431" />
  <rect x="375" y="625" width="125" height="125" fill="#1F2751" />
  <rect x="500" y="625" width="125" height="125" fill="#3D5A82" />
  <rect x="625" y="625" width="125" height="125" fill="#8FAFB8" />
  <rect x="750" y="625" width="125" height="125" fill="#D4C9A8" />
  <rect x="875" y="625" width="125" height="125" fill="#E9E2D7" />
  <rect x="1000" y="625" width="125" height="125" fill="#F8F5ED" />
  <rect x="1125" y="625" width="125" height="125" fill="#F3F4F0" />
  <rect x="250" y="750" width="125" height="125" fill="#0B0D21" />
  <rect x="375" y="750" width="125" height="125" fill="#22304D" />
  <rect x="500" y="750" width="125" height="125" fill="#4B77A3" />
  <rect x="625" y="750" width="125" height="125" fill="#88B7CD" />
  <rect x="750" y="750" width="125" height="125" fill="#E2E0D5" />
  <rect x="875" y="750" width="125" height="125" fill="#CCB5A9" />
  <rect x="1000" y="750" width="125" height="125" fill="#D1C7C0" />
  <rect x="1125" y="750" width="125" height="125" fill="#F6E9D5" />
  <rect x="250" y="875" width="125" height="125" fill="#0F101B" />
  <rect x="375" y="875" width="125" height="125" fill="#1B223D" />
  <rect x="500" y="875" width="125" height="125" fill="#3C527B" />
  <rect x="625" y="875" width="125" height="125" fill="#A3C4EA" />
  <rect x="750" y="875" width="125" height="125" fill="#C4BEB7" />
  <rect x="875" y="875" width="125" height="125" fill="#D6D3BF" />
  <rect x="1000" y="875" width="125" height="125" fill="#E3D8CC" />
  <rect x="1125" y="875" width="125" height="125" fill="#F7F9F3" />
  <rect x="250" y="1000" width="125" height="125" fill="#171B2A" />
  <rect x="375" y="1000" width="125" height="125" fill="#31445D" />
  <rect x="500" y="1000" width="125" height="125" fill="#5A83B4" />
  <rect x="625" y="1000" width="125" height="125" fill="#B4D6E1" />
  <rect x="750" y="1000" width="125" height="125" fill="#F1E6C2" />
  <rect x="875" y="1000" width="125" height="125" fill="#D2C3B0" />
  <rect x="1000" y="1000" width="125" height="125" fill="#E5E1D5" />
  <rect x="1125" y="1000" width="125" height="125" fill="#FFFFFF" />
  <rect x="250" y="1125" width="125" height="125" fill="#2E3348" />
  <rect x="375" y="1125" width="125" height="125" fill="#4A5E8B" />
  <rect x="500" y="1125" width="125" height="125" fill="#87ADCB" />
  <rect x="625" y="1125" width="125" height="125" fill="#BDDFE8" />
  <rect x="750" y="1125" width="125" height="125" fill="#C9C6B7" />
  <rect x="875" y="1125" width="125" height="125" fill="#B3A993" />
  <rect x="1000" y="1125" width="125" height="125" fill="#F4F2ED" />
  <rect x="1125" y="1125" width="125" height="125" fill="#F3ECD6" />
  <rect x="250" y="250" width="1000" height="1000" fill="none" stroke="#151515" stroke-opacity="0.16" stroke-width="2" />
</svg>
