<svg xmlns="http://www.w3.org/2000/svg" width="1500" height="1500" viewBox="0 0 1500 1500" shape-rendering="crispEdges" role="img" aria-labelledby="title desc">
  <title id="title">Exposure vs Shelter in Black frame</title>
  <desc id="desc">Square Project artwork previewed in a black frame.</desc>
  <rect x="0" y="0" width="1500" height="1500" fill="#FFFFFF" />
  <image href="https://mysquareart.com/frames/black.jpg" x="0" y="0" width="1500" height="1500" preserveAspectRatio="xMidYMid meet" />
  <rect x="250" y="250" width="1000" height="1000" fill="#FFFFFF" />
  <rect x="250" y="250" width="125" height="125" fill="#3B2E2E" />
  <rect x="375" y="250" width="125" height="125" fill="#4D373D" />
  <rect x="500" y="250" width="125" height="125" fill="#F5E9D8" />
  <rect x="625" y="250" width="125" height="125" fill="#7D3B3B" />
  <rect x="750" y="250" width="125" height="125" fill="#000000" />
  <rect x="875" y="250" width="125" height="125" fill="#D0C9C5" />
  <rect x="1000" y="250" width="125" height="125" fill="#6C4F4F" />
  <rect x="1125" y="250" width="125" height="125" fill="#F09F9F" />
  <rect x="250" y="375" width="125" height="125" fill="#5A3A3A" />
  <rect x="375" y="375" width="125" height="125" fill="#D4C7A0" />
  <rect x="500" y="375" width="125" height="125" fill="#9D6B6B" />
  <rect x="625" y="375" width="125" height="125" fill="#F1EEEC" />
  <rect x="750" y="375" width="125" height="125" fill="#B89999" />
  <rect x="875" y="375" width="125" height="125" fill="#6D4F4F" />
  <rect x="1000" y="375" width="125" height="125" fill="#C5A5A5" />
  <rect x="1125" y="375" width="125" height="125" fill="#811B1B" />
  <rect x="250" y="500" width="125" height="125" fill="#000000" />
  <rect x="375" y="500" width="125" height="125" fill="#F2EFF0" />
  <rect x="500" y="500" width="125" height="125" fill="#4E4444" />
  <rect x="625" y="500" width="125" height="125" fill="#F8EFEF" />
  <rect x="750" y="500" width="125" height="125" fill="#5D4B4B" />
  <rect x="875" y="500" width="125" height="125" fill="#E1C6C6" />
  <rect x="1000" y="500" width="125" height="125" fill="#4A3939" />
  <rect x="1125" y="500" width="125" height="125" fill="#F8B0B0" />
  <rect x="250" y="625" width="125" height="125" fill="#B67979" />
  <rect x="375" y="625" width="125" height="125" fill="#FFD6A0" />
  <rect x="500" y="625" width="125" height="125" fill="#785656" />
  <rect x="625" y="625" width="125" height="125" fill="#C7C3C2" />
  <rect x="750" y="625" width="125" height="125" fill="#F5C6A0" />
  <rect x="875" y="625" width="125" height="125" fill="#FFAE8C" />
  <rect x="1000" y="625" width="125" height="125" fill="#000000" />
  <rect x="1125" y="625" width="125" height="125" fill="#C17373" />
  <rect x="250" y="750" width="125" height="125" fill="#C4B18A" />
  <rect x="375" y="750" width="125" height="125" fill="#E5B5B5" />
  <rect x="500" y="750" width="125" height="125" fill="#9A7777" />
  <rect x="625" y="750" width="125" height="125" fill="#F2E8E8" />
  <rect x="750" y="750" width="125" height="125" fill="#E8D4C4" />
  <rect x="875" y="750" width="125" height="125" fill="#DB7F7F" />
  <rect x="1000" y="750" width="125" height="125" fill="#5C3C3C" />
  <rect x="1125" y="750" width="125" height="125" fill="#000000" />
  <rect x="250" y="875" width="125" height="125" fill="#5E4B4B" />
  <rect x="375" y="875" width="125" height="125" fill="#F69F9F" />
  <rect x="500" y="875" width="125" height="125" fill="#D1B1B1" />
  <rect x="625" y="875" width="125" height="125" fill="#FFD6A0" />
  <rect x="750" y="875" width="125" height="125" fill="#BE5D5D" />
  <rect x="875" y="875" width="125" height="125" fill="#F1E6E6" />
  <rect x="1000" y="875" width="125" height="125" fill="#A86C6C" />
  <rect x="1125" y="875" width="125" height="125" fill="#2B1C1C" />
  <rect x="250" y="1000" width="125" height="125" fill="#C4B99F" />
  <rect x="375" y="1000" width="125" height="125" fill="#F0E3E3" />
  <rect x="500" y="1000" width="125" height="125" fill="#684C4C" />
  <rect x="625" y="1000" width="125" height="125" fill="#943A3A" />
  <rect x="750" y="1000" width="125" height="125" fill="#9AB6B6" />
  <rect x="875" y="1000" width="125" height="125" fill="#BA8989" />
  <rect x="1000" y="1000" width="125" height="125" fill="#FCE2E2" />
  <rect x="1125" y="1000" width="125" height="125" fill="#5E4343" />
  <rect x="250" y="1125" width="125" height="125" fill="#000000" />
  <rect x="375" y="1125" width="125" height="125" fill="#8C5B5B" />
  <rect x="500" y="1125" width="125" height="125" fill="#FFF4F4" />
  <rect x="625" y="1125" width="125" height="125" fill="#623D3D" />
  <rect x="750" y="1125" width="125" height="125" fill="#F5D8D8" />
  <rect x="875" y="1125" width="125" height="125" fill="#AD9B9B" />
  <rect x="1000" y="1125" width="125" height="125" fill="#4D3F3F" />
  <rect x="1125" y="1125" width="125" height="125" fill="#F08F8F" />
  <rect x="250" y="250" width="1000" height="1000" fill="none" stroke="#151515" stroke-opacity="0.16" stroke-width="2" />
</svg>
