<svg xmlns="http://www.w3.org/2000/svg" width="1500" height="1500" viewBox="0 0 1500 1500" shape-rendering="crispEdges" role="img" aria-labelledby="title desc">
  <title id="title">Emotional Chiaroscuro in Natural frame</title>
  <desc id="desc">Square Project artwork previewed in a natural frame.</desc>
  <defs>
    <linearGradient id="frameFace" x1="0" y1="0" x2="1" y2="1">
      <stop offset="0" stop-color="#8F6F35" />
      <stop offset="0.32" stop-color="#F0DDAA" />
      <stop offset="0.68" stop-color="#D8C190" />
      <stop offset="1" stop-color="#B39155" />
    </linearGradient>
    <filter id="artShadow" x="-10%" y="-10%" width="120%" height="120%">
      <feDropShadow dx="0" dy="20" stdDeviation="24" flood-color="#000000" flood-opacity="0.24" />
    </filter>
  </defs>
  <rect x="0" y="0" width="1500" height="1500" fill="#FFFFFF" />
  <rect x="0" y="0" width="1500" height="1500" fill="url(#frameFace)" />
  <rect x="120" y="120" width="1260" height="1260" fill="#F8F7F3" />
  <rect x="120" y="120" width="1260" height="1260" fill="none" stroke="#000000" stroke-opacity="0.14" stroke-width="10" />
  <rect x="250" y="250" width="1000" height="1000" fill="#FFFFFF" filter="url(#artShadow)" />
  <rect x="250" y="250" width="125" height="125" fill="#FDE1E0" />
  <rect x="375" y="250" width="125" height="125" fill="#FFB6C1" />
  <rect x="500" y="250" width="125" height="125" fill="#D3C6C3" />
  <rect x="625" y="250" width="125" height="125" fill="#FFC0CB" />
  <rect x="750" y="250" width="125" height="125" fill="#EAB8BF" />
  <rect x="875" y="250" width="125" height="125" fill="#FF6F61" />
  <rect x="1000" y="250" width="125" height="125" fill="#C2384A" />
  <rect x="1125" y="250" width="125" height="125" fill="#A3282B" />
  <rect x="250" y="375" width="125" height="125" fill="#FFC0CB" />
  <rect x="375" y="375" width="125" height="125" fill="#F5B7B1" />
  <rect x="500" y="375" width="125" height="125" fill="#E6DFD2" />
  <rect x="625" y="375" width="125" height="125" fill="#FFE4E2" />
  <rect x="750" y="375" width="125" height="125" fill="#FFB6C1" />
  <rect x="875" y="375" width="125" height="125" fill="#D19C96" />
  <rect x="1000" y="375" width="125" height="125" fill="#C7ADEB" />
  <rect x="1125" y="375" width="125" height="125" fill="#A2586D" />
  <rect x="250" y="500" width="125" height="125" fill="#DA4A39" />
  <rect x="375" y="500" width="125" height="125" fill="#990B17" />
  <rect x="500" y="500" width="125" height="125" fill="#770B12" />
  <rect x="625" y="500" width="125" height="125" fill="#6F3C3D" />
  <rect x="750" y="500" width="125" height="125" fill="#DFB3B9" />
  <rect x="875" y="500" width="125" height="125" fill="#E6C1B1" />
  <rect x="1000" y="500" width="125" height="125" fill="#C8A09D" />
  <rect x="1125" y="500" width="125" height="125" fill="#745B5C" />
  <rect x="250" y="625" width="125" height="125" fill="#D3C6C3" />
  <rect x="375" y="625" width="125" height="125" fill="#BCBEC3" />
  <rect x="500" y="625" width="125" height="125" fill="#D1E9E9" />
  <rect x="625" y="625" width="125" height="125" fill="#B6B1B3" />
  <rect x="750" y="625" width="125" height="125" fill="#F3E2EE" />
  <rect x="875" y="625" width="125" height="125" fill="#D6B6C2" />
  <rect x="1000" y="625" width="125" height="125" fill="#F4E1E1" />
  <rect x="1125" y="625" width="125" height="125" fill="#783E40" />
  <rect x="250" y="750" width="125" height="125" fill="#AE303D" />
  <rect x="375" y="750" width="125" height="125" fill="#9A4F60" />
  <rect x="500" y="750" width="125" height="125" fill="#E49191" />
  <rect x="625" y="750" width="125" height="125" fill="#E5BEC6" />
  <rect x="750" y="750" width="125" height="125" fill="#E82F52" />
  <rect x="875" y="750" width="125" height="125" fill="#C5D0D0" />
  <rect x="1000" y="750" width="125" height="125" fill="#AD8B95" />
  <rect x="1125" y="750" width="125" height="125" fill="#FAE5E5" />
  <rect x="250" y="875" width="125" height="125" fill="#8A2530" />
  <rect x="375" y="875" width="125" height="125" fill="#AAB0C0" />
  <rect x="500" y="875" width="125" height="125" fill="#122D46" />
  <rect x="625" y="875" width="125" height="125" fill="#66576D" />
  <rect x="750" y="875" width="125" height="125" fill="#D7BEC3" />
  <rect x="875" y="875" width="125" height="125" fill="#EC4E54" />
  <rect x="1000" y="875" width="125" height="125" fill="#F6E4D2" />
  <rect x="1125" y="875" width="125" height="125" fill="#DDC7D9" />
  <rect x="250" y="1000" width="125" height="125" fill="#C8A09D" />
  <rect x="375" y="1000" width="125" height="125" fill="#FFDFD6" />
  <rect x="500" y="1000" width="125" height="125" fill="#B499A8" />
  <rect x="625" y="1000" width="125" height="125" fill="#CB749E" />
  <rect x="750" y="1000" width="125" height="125" fill="#B5C4C4" />
  <rect x="875" y="1000" width="125" height="125" fill="#E2B8B4" />
  <rect x="1000" y="1000" width="125" height="125" fill="#F3D2DF" />
  <rect x="1125" y="1000" width="125" height="125" fill="#6B5C67" />
  <rect x="250" y="1125" width="125" height="125" fill="#FFBAC1" />
  <rect x="375" y="1125" width="125" height="125" fill="#FF0000" />
  <rect x="500" y="1125" width="125" height="125" fill="#6C757D" />
  <rect x="625" y="1125" width="125" height="125" fill="#FFC0CB" />
  <rect x="750" y="1125" width="125" height="125" fill="#F278B3" />
  <rect x="875" y="1125" width="125" height="125" fill="#BC8AC5" />
  <rect x="1000" y="1125" width="125" height="125" fill="#DAA2A8" />
  <rect x="1125" y="1125" width="125" height="125" fill="#AA6F90" />
  <rect x="250" y="250" width="1000" height="1000" fill="none" stroke="#151515" stroke-opacity="0.16" stroke-width="2" />
</svg>
