<svg xmlns="http://www.w3.org/2000/svg" width="1500" height="1500" viewBox="0 0 1500 1500" shape-rendering="crispEdges" role="img" aria-labelledby="title desc">
  <title id="title">Emotional Collisions in Gold frame</title>
  <desc id="desc">Square Project artwork previewed in a gold frame.</desc>
  <defs>
    <linearGradient id="frameFace" x1="0" y1="0" x2="1" y2="1">
      <stop offset="0" stop-color="#FFF0A3" />
      <stop offset="0.32" stop-color="#F1D676" />
      <stop offset="0.68" stop-color="#CBA642" />
      <stop offset="1" stop-color="#8B6A1D" />
    </linearGradient>
    <filter id="artShadow" x="-10%" y="-10%" width="120%" height="120%">
      <feDropShadow dx="0" dy="20" stdDeviation="24" flood-color="#000000" flood-opacity="0.24" />
    </filter>
  </defs>
  <rect x="0" y="0" width="1500" height="1500" fill="#FFFFFF" />
  <rect x="0" y="0" width="1500" height="1500" fill="url(#frameFace)" />
  <rect x="120" y="120" width="1260" height="1260" fill="#F8F7F3" />
  <rect x="120" y="120" width="1260" height="1260" fill="none" stroke="#000000" stroke-opacity="0.14" stroke-width="10" />
  <rect x="250" y="250" width="1000" height="1000" fill="#FFFFFF" filter="url(#artShadow)" />
  <rect x="250" y="250" width="125" height="125" fill="#4B2C20" />
  <rect x="375" y="250" width="125" height="125" fill="#7F3C31" />
  <rect x="500" y="250" width="125" height="125" fill="#4F292D" />
  <rect x="625" y="250" width="125" height="125" fill="#B8652E" />
  <rect x="750" y="250" width="125" height="125" fill="#DAAA4B" />
  <rect x="875" y="250" width="125" height="125" fill="#AA6E4D" />
  <rect x="1000" y="250" width="125" height="125" fill="#FFD3B6" />
  <rect x="1125" y="250" width="125" height="125" fill="#663A27" />
  <rect x="250" y="375" width="125" height="125" fill="#CB4F3D" />
  <rect x="375" y="375" width="125" height="125" fill="#F7C484" />
  <rect x="500" y="375" width="125" height="125" fill="#6D4E6D" />
  <rect x="625" y="375" width="125" height="125" fill="#402370" />
  <rect x="750" y="375" width="125" height="125" fill="#B0A54A" />
  <rect x="875" y="375" width="125" height="125" fill="#C8AC7D" />
  <rect x="1000" y="375" width="125" height="125" fill="#47494D" />
  <rect x="1125" y="375" width="125" height="125" fill="#1F1E24" />
  <rect x="250" y="500" width="125" height="125" fill="#5C6F6D" />
  <rect x="375" y="500" width="125" height="125" fill="#A22D41" />
  <rect x="500" y="500" width="125" height="125" fill="#563E24" />
  <rect x="625" y="500" width="125" height="125" fill="#A16C39" />
  <rect x="750" y="500" width="125" height="125" fill="#BC1A15" />
  <rect x="875" y="500" width="125" height="125" fill="#D4D6CE" />
  <rect x="1000" y="500" width="125" height="125" fill="#1C1E1E" />
  <rect x="1125" y="500" width="125" height="125" fill="#3D4B44" />
  <rect x="250" y="625" width="125" height="125" fill="#733D28" />
  <rect x="375" y="625" width="125" height="125" fill="#D05D39" />
  <rect x="500" y="625" width="125" height="125" fill="#C7752E" />
  <rect x="625" y="625" width="125" height="125" fill="#D2B94C" />
  <rect x="750" y="625" width="125" height="125" fill="#375C4D" />
  <rect x="875" y="625" width="125" height="125" fill="#E8CB94" />
  <rect x="1000" y="625" width="125" height="125" fill="#667668" />
  <rect x="1125" y="625" width="125" height="125" fill="#9A671A" />
  <rect x="250" y="750" width="125" height="125" fill="#C05723" />
  <rect x="375" y="750" width="125" height="125" fill="#AA7862" />
  <rect x="500" y="750" width="125" height="125" fill="#352727" />
  <rect x="625" y="750" width="125" height="125" fill="#BF9C5A" />
  <rect x="750" y="750" width="125" height="125" fill="#BA6C3B" />
  <rect x="875" y="750" width="125" height="125" fill="#F2B232" />
  <rect x="1000" y="750" width="125" height="125" fill="#486B5F" />
  <rect x="1125" y="750" width="125" height="125" fill="#26130D" />
  <rect x="250" y="875" width="125" height="125" fill="#A05E4B" />
  <rect x="375" y="875" width="125" height="125" fill="#391A1D" />
  <rect x="500" y="875" width="125" height="125" fill="#984E24" />
  <rect x="625" y="875" width="125" height="125" fill="#D5E2C3" />
  <rect x="750" y="875" width="125" height="125" fill="#D9B94D" />
  <rect x="875" y="875" width="125" height="125" fill="#46899B" />
  <rect x="1000" y="875" width="125" height="125" fill="#4C5A54" />
  <rect x="1125" y="875" width="125" height="125" fill="#C0E3E6" />
  <rect x="250" y="1000" width="125" height="125" fill="#4A1C1D" />
  <rect x="375" y="1000" width="125" height="125" fill="#BA775C" />
  <rect x="500" y="1000" width="125" height="125" fill="#23C3B3" />
  <rect x="625" y="1000" width="125" height="125" fill="#FFD2B2" />
  <rect x="750" y="1000" width="125" height="125" fill="#BF6C43" />
  <rect x="875" y="1000" width="125" height="125" fill="#7F6452" />
  <rect x="1000" y="1000" width="125" height="125" fill="#4F292D" />
  <rect x="1125" y="1000" width="125" height="125" fill="#B6D3E7" />
  <rect x="250" y="1125" width="125" height="125" fill="#8F4A3D" />
  <rect x="375" y="1125" width="125" height="125" fill="#6F4B49" />
  <rect x="500" y="1125" width="125" height="125" fill="#5C3F3F" />
  <rect x="625" y="1125" width="125" height="125" fill="#D9C084" />
  <rect x="750" y="1125" width="125" height="125" fill="#C6B679" />
  <rect x="875" y="1125" width="125" height="125" fill="#B29B4F" />
  <rect x="1000" y="1125" width="125" height="125" fill="#E18249" />
  <rect x="1125" y="1125" width="125" height="125" fill="#BF916A" />
  <rect x="250" y="250" width="1000" height="1000" fill="none" stroke="#151515" stroke-opacity="0.16" stroke-width="2" />
</svg>
