<svg xmlns="http://www.w3.org/2000/svg" width="1500" height="1500" viewBox="0 0 1500 1500" shape-rendering="crispEdges" role="img" aria-labelledby="title desc">
  <title id="title">Ebb and Flow in Brown frame</title>
  <desc id="desc">Square Project artwork previewed in a brown frame.</desc>
  <defs>
    <linearGradient id="frameFace" x1="0" y1="0" x2="1" y2="1">
      <stop offset="0" stop-color="#C18A55" />
      <stop offset="0.32" stop-color="#9A6840" />
      <stop offset="0.68" stop-color="#70401F" />
      <stop offset="1" stop-color="#3F2413" />
    </linearGradient>
    <filter id="artShadow" x="-10%" y="-10%" width="120%" height="120%">
      <feDropShadow dx="0" dy="20" stdDeviation="24" flood-color="#000000" flood-opacity="0.24" />
    </filter>
  </defs>
  <rect x="0" y="0" width="1500" height="1500" fill="#FFFFFF" />
  <rect x="0" y="0" width="1500" height="1500" fill="url(#frameFace)" />
  <rect x="120" y="120" width="1260" height="1260" fill="#F8F7F3" />
  <rect x="120" y="120" width="1260" height="1260" fill="none" stroke="#000000" stroke-opacity="0.14" stroke-width="10" />
  <rect x="250" y="250" width="1000" height="1000" fill="#FFFFFF" filter="url(#artShadow)" />
  <rect x="250" y="250" width="125" height="125" fill="#FF6F61" />
  <rect x="375" y="250" width="125" height="125" fill="#FFC264" />
  <rect x="500" y="250" width="125" height="125" fill="#AAB8BC" />
  <rect x="625" y="250" width="125" height="125" fill="#3B3D3F" />
  <rect x="750" y="250" width="125" height="125" fill="#1B1F23" />
  <rect x="875" y="250" width="125" height="125" fill="#7A7C7D" />
  <rect x="1000" y="250" width="125" height="125" fill="#E6E5E4" />
  <rect x="1125" y="250" width="125" height="125" fill="#FFE6B8" />
  <rect x="250" y="375" width="125" height="125" fill="#FFB6A0" />
  <rect x="375" y="375" width="125" height="125" fill="#FF3D00" />
  <rect x="500" y="375" width="125" height="125" fill="#5B97B5" />
  <rect x="625" y="375" width="125" height="125" fill="#CED7D8" />
  <rect x="750" y="375" width="125" height="125" fill="#4E5455" />
  <rect x="875" y="375" width="125" height="125" fill="#BBCCCF" />
  <rect x="1000" y="375" width="125" height="125" fill="#F3F1F1" />
  <rect x="1125" y="375" width="125" height="125" fill="#7C7B7B" />
  <rect x="250" y="500" width="125" height="125" fill="#D8A1C7" />
  <rect x="375" y="500" width="125" height="125" fill="#FF9A85" />
  <rect x="500" y="500" width="125" height="125" fill="#A3C0D6" />
  <rect x="625" y="500" width="125" height="125" fill="#395B5E" />
  <rect x="750" y="500" width="125" height="125" fill="#18292D" />
  <rect x="875" y="500" width="125" height="125" fill="#4D6A6D" />
  <rect x="1000" y="500" width="125" height="125" fill="#C2D4D3" />
  <rect x="1125" y="500" width="125" height="125" fill="#E2E1E2" />
  <rect x="250" y="625" width="125" height="125" fill="#FFB35B" />
  <rect x="375" y="625" width="125" height="125" fill="#FF6F40" />
  <rect x="500" y="625" width="125" height="125" fill="#8DABBD" />
  <rect x="625" y="625" width="125" height="125" fill="#6A7981" />
  <rect x="750" y="625" width="125" height="125" fill="#546264" />
  <rect x="875" y="625" width="125" height="125" fill="#E4E0E0" />
  <rect x="1000" y="625" width="125" height="125" fill="#FCE9C8" />
  <rect x="1125" y="625" width="125" height="125" fill="#B7B7B7" />
  <rect x="250" y="750" width="125" height="125" fill="#D1C5B9" />
  <rect x="375" y="750" width="125" height="125" fill="#F0A236" />
  <rect x="500" y="750" width="125" height="125" fill="#4F9B94" />
  <rect x="625" y="750" width="125" height="125" fill="#2B484A" />
  <rect x="750" y="750" width="125" height="125" fill="#2A2424" />
  <rect x="875" y="750" width="125" height="125" fill="#C2D8D3" />
  <rect x="1000" y="750" width="125" height="125" fill="#F4F7F8" />
  <rect x="1125" y="750" width="125" height="125" fill="#FFFFF0" />
  <rect x="250" y="875" width="125" height="125" fill="#FF9EB3" />
  <rect x="375" y="875" width="125" height="125" fill="#FFCC5E" />
  <rect x="500" y="875" width="125" height="125" fill="#8AB8C6" />
  <rect x="625" y="875" width="125" height="125" fill="#B4B1B3" />
  <rect x="750" y="875" width="125" height="125" fill="#343D40" />
  <rect x="875" y="875" width="125" height="125" fill="#6A6A6A" />
  <rect x="1000" y="875" width="125" height="125" fill="#B8B4B6" />
  <rect x="1125" y="875" width="125" height="125" fill="#BFAFB0" />
  <rect x="250" y="1000" width="125" height="125" fill="#D2B0B2" />
  <rect x="375" y="1000" width="125" height="125" fill="#FFDA79" />
  <rect x="500" y="1000" width="125" height="125" fill="#6498B1" />
  <rect x="625" y="1000" width="125" height="125" fill="#B8CCCB" />
  <rect x="750" y="1000" width="125" height="125" fill="#4A5253" />
  <rect x="875" y="1000" width="125" height="125" fill="#8B8B8B" />
  <rect x="1000" y="1000" width="125" height="125" fill="#E7E7E7" />
  <rect x="1125" y="1000" width="125" height="125" fill="#FFE2C2" />
  <rect x="250" y="1125" width="125" height="125" fill="#FF6B8A" />
  <rect x="375" y="1125" width="125" height="125" fill="#FFC7A3" />
  <rect x="500" y="1125" width="125" height="125" fill="#A0C4D9" />
  <rect x="625" y="1125" width="125" height="125" fill="#606569" />
  <rect x="750" y="1125" width="125" height="125" fill="#1C0D0E" />
  <rect x="875" y="1125" width="125" height="125" fill="#E1BA91" />
  <rect x="1000" y="1125" width="125" height="125" fill="#F9F4F4" />
  <rect x="1125" y="1125" width="125" height="125" fill="#D1C8C6" />
  <rect x="250" y="250" width="1000" height="1000" fill="none" stroke="#151515" stroke-opacity="0.16" stroke-width="2" />
</svg>
