<svg xmlns="http://www.w3.org/2000/svg" width="1500" height="1500" viewBox="0 0 1500 1500" shape-rendering="crispEdges" role="img" aria-labelledby="title desc">
  <title id="title">Tension and Release in Brown frame</title>
  <desc id="desc">Square Project artwork previewed in a brown frame.</desc>
  <rect x="0" y="0" width="1500" height="1500" fill="#FFFFFF" />
  <image href="https://mysquareart.com/frames/brown.jpg" x="0" y="0" width="1500" height="1500" preserveAspectRatio="xMidYMid meet" />
  <rect x="250" y="250" width="1000" height="1000" fill="#FFFFFF" />
  <rect x="250" y="250" width="125" height="125" fill="#C24B00" />
  <rect x="375" y="250" width="125" height="125" fill="#F96B00" />
  <rect x="500" y="250" width="125" height="125" fill="#FF8C00" />
  <rect x="625" y="250" width="125" height="125" fill="#FFD100" />
  <rect x="750" y="250" width="125" height="125" fill="#7D3C00" />
  <rect x="875" y="250" width="125" height="125" fill="#AA9B00" />
  <rect x="1000" y="250" width="125" height="125" fill="#B56600" />
  <rect x="1125" y="250" width="125" height="125" fill="#FFBF00" />
  <rect x="250" y="375" width="125" height="125" fill="#7D7D7D" />
  <rect x="375" y="375" width="125" height="125" fill="#616161" />
  <rect x="500" y="375" width="125" height="125" fill="#949494" />
  <rect x="625" y="375" width="125" height="125" fill="#888888" />
  <rect x="750" y="375" width="125" height="125" fill="#A0A0A0" />
  <rect x="875" y="375" width="125" height="125" fill="#7A7A7A" />
  <rect x="1000" y="375" width="125" height="125" fill="#9E9E9E" />
  <rect x="1125" y="375" width="125" height="125" fill="#B0B0B0" />
  <rect x="250" y="500" width="125" height="125" fill="#1C1C1C" />
  <rect x="375" y="500" width="125" height="125" fill="#2E2E2E" />
  <rect x="500" y="500" width="125" height="125" fill="#3C3C3C" />
  <rect x="625" y="500" width="125" height="125" fill="#4E4E4E" />
  <rect x="750" y="500" width="125" height="125" fill="#585858" />
  <rect x="875" y="500" width="125" height="125" fill="#707070" />
  <rect x="1000" y="500" width="125" height="125" fill="#8C8C8C" />
  <rect x="1125" y="500" width="125" height="125" fill="#A9A9A9" />
  <rect x="250" y="625" width="125" height="125" fill="#3F0800" />
  <rect x="375" y="625" width="125" height="125" fill="#5C0B00" />
  <rect x="500" y="625" width="125" height="125" fill="#7E1300" />
  <rect x="625" y="625" width="125" height="125" fill="#9F1700" />
  <rect x="750" y="625" width="125" height="125" fill="#BB2500" />
  <rect x="875" y="625" width="125" height="125" fill="#D04F00" />
  <rect x="1000" y="625" width="125" height="125" fill="#B73D30" />
  <rect x="1125" y="625" width="125" height="125" fill="#CC5A00" />
  <rect x="250" y="750" width="125" height="125" fill="#D0D0D0" />
  <rect x="375" y="750" width="125" height="125" fill="#C6C6C6" />
  <rect x="500" y="750" width="125" height="125" fill="#B0B0B0" />
  <rect x="625" y="750" width="125" height="125" fill="#A0A0A0" />
  <rect x="750" y="750" width="125" height="125" fill="#979797" />
  <rect x="875" y="750" width="125" height="125" fill="#B5B5B5" />
  <rect x="1000" y="750" width="125" height="125" fill="#C2C2C2" />
  <rect x="1125" y="750" width="125" height="125" fill="#D5D5D5" />
  <rect x="250" y="875" width="125" height="125" fill="#0C0C0C" />
  <rect x="375" y="875" width="125" height="125" fill="#1B1B1B" />
  <rect x="500" y="875" width="125" height="125" fill="#282828" />
  <rect x="625" y="875" width="125" height="125" fill="#333333" />
  <rect x="750" y="875" width="125" height="125" fill="#414141" />
  <rect x="875" y="875" width="125" height="125" fill="#575757" />
  <rect x="1000" y="875" width="125" height="125" fill="#686868" />
  <rect x="1125" y="875" width="125" height="125" fill="#878787" />
  <rect x="250" y="1000" width="125" height="125" fill="#A30000" />
  <rect x="375" y="1000" width="125" height="125" fill="#A80000" />
  <rect x="500" y="1000" width="125" height="125" fill="#AA0000" />
  <rect x="625" y="1000" width="125" height="125" fill="#B00000" />
  <rect x="750" y="1000" width="125" height="125" fill="#B70000" />
  <rect x="875" y="1000" width="125" height="125" fill="#BC0000" />
  <rect x="1000" y="1000" width="125" height="125" fill="#C30000" />
  <rect x="1125" y="1000" width="125" height="125" fill="#D10000" />
  <rect x="250" y="1125" width="125" height="125" fill="#4D4D4D" />
  <rect x="375" y="1125" width="125" height="125" fill="#3C3C3C" />
  <rect x="500" y="1125" width="125" height="125" fill="#2F2F2F" />
  <rect x="625" y="1125" width="125" height="125" fill="#191919" />
  <rect x="750" y="1125" width="125" height="125" fill="#000000" />
  <rect x="875" y="1125" width="125" height="125" fill="#121212" />
  <rect x="1000" y="1125" width="125" height="125" fill="#2A2A2A" />
  <rect x="1125" y="1125" width="125" height="125" fill="#3D3D3D" />
  <rect x="250" y="250" width="1000" height="1000" fill="none" stroke="#151515" stroke-opacity="0.16" stroke-width="2" />
</svg>
