<svg xmlns="http://www.w3.org/2000/svg" width="1500" height="1500" viewBox="0 0 1500 1500" shape-rendering="crispEdges" role="img" aria-labelledby="title desc">
  <title id="title">Collision of Resilience in Natural frame</title>
  <desc id="desc">Square Project artwork previewed in a natural frame.</desc>
  <rect x="0" y="0" width="1500" height="1500" fill="#FFFFFF" />
  <image href="https://mysquareart.com/frames/natural.jpg" x="0" y="0" width="1500" height="1500" preserveAspectRatio="xMidYMid meet" />
  <rect x="250" y="250" width="1000" height="1000" fill="#FFFFFF" />
  <rect x="250" y="250" width="125" height="125" fill="#4A7C3A" />
  <rect x="375" y="250" width="125" height="125" fill="#A5B6AD" />
  <rect x="500" y="250" width="125" height="125" fill="#D3C89A" />
  <rect x="625" y="250" width="125" height="125" fill="#FFF8ED" />
  <rect x="750" y="250" width="125" height="125" fill="#F4C3B8" />
  <rect x="875" y="250" width="125" height="125" fill="#BF9A83" />
  <rect x="1000" y="250" width="125" height="125" fill="#5C3921" />
  <rect x="1125" y="250" width="125" height="125" fill="#E4E9E5" />
  <rect x="250" y="375" width="125" height="125" fill="#C3DBB8" />
  <rect x="375" y="375" width="125" height="125" fill="#4F754D" />
  <rect x="500" y="375" width="125" height="125" fill="#FFFFFF" />
  <rect x="625" y="375" width="125" height="125" fill="#A4D6E1" />
  <rect x="750" y="375" width="125" height="125" fill="#BA5D49" />
  <rect x="875" y="375" width="125" height="125" fill="#D4C8B1" />
  <rect x="1000" y="375" width="125" height="125" fill="#BFA4C0" />
  <rect x="1125" y="375" width="125" height="125" fill="#D2D8D4" />
  <rect x="250" y="500" width="125" height="125" fill="#D3C89A" />
  <rect x="375" y="500" width="125" height="125" fill="#A5B6AD" />
  <rect x="500" y="500" width="125" height="125" fill="#577D95" />
  <rect x="625" y="500" width="125" height="125" fill="#C54D48" />
  <rect x="750" y="500" width="125" height="125" fill="#A0DB9D" />
  <rect x="875" y="500" width="125" height="125" fill="#BBE2D4" />
  <rect x="1000" y="500" width="125" height="125" fill="#7D8D7A" />
  <rect x="1125" y="500" width="125" height="125" fill="#6D2A61" />
  <rect x="250" y="625" width="125" height="125" fill="#C57C4B" />
  <rect x="375" y="625" width="125" height="125" fill="#F9D5C1" />
  <rect x="500" y="625" width="125" height="125" fill="#FFFCF2" />
  <rect x="625" y="625" width="125" height="125" fill="#D9596E" />
  <rect x="750" y="625" width="125" height="125" fill="#C7E9C0" />
  <rect x="875" y="625" width="125" height="125" fill="#A86D54" />
  <rect x="1000" y="625" width="125" height="125" fill="#D9C9AC" />
  <rect x="1125" y="625" width="125" height="125" fill="#8A8C8F" />
  <rect x="250" y="750" width="125" height="125" fill="#E8A98D" />
  <rect x="375" y="750" width="125" height="125" fill="#4E9B8C" />
  <rect x="500" y="750" width="125" height="125" fill="#C9D3CE" />
  <rect x="625" y="750" width="125" height="125" fill="#F0F7E7" />
  <rect x="750" y="750" width="125" height="125" fill="#554D4D" />
  <rect x="875" y="750" width="125" height="125" fill="#7F9A84" />
  <rect x="1000" y="750" width="125" height="125" fill="#A7BBA6" />
  <rect x="1125" y="750" width="125" height="125" fill="#D6C3E5" />
  <rect x="250" y="875" width="125" height="125" fill="#E4E9E5" />
  <rect x="375" y="875" width="125" height="125" fill="#B7AFA4" />
  <rect x="500" y="875" width="125" height="125" fill="#5E4D4C" />
  <rect x="625" y="875" width="125" height="125" fill="#C9CBBB" />
  <rect x="750" y="875" width="125" height="125" fill="#A7D8C4" />
  <rect x="875" y="875" width="125" height="125" fill="#FFD4B6" />
  <rect x="1000" y="875" width="125" height="125" fill="#B9BEC2" />
  <rect x="1125" y="875" width="125" height="125" fill="#C79792" />
  <rect x="250" y="1000" width="125" height="125" fill="#4A7C3A" />
  <rect x="375" y="1000" width="125" height="125" fill="#D2D8D4" />
  <rect x="500" y="1000" width="125" height="125" fill="#A85A6D" />
  <rect x="625" y="1000" width="125" height="125" fill="#D5E7C4" />
  <rect x="750" y="1000" width="125" height="125" fill="#D2C49A" />
  <rect x="875" y="1000" width="125" height="125" fill="#7C9D8D" />
  <rect x="1000" y="1000" width="125" height="125" fill="#A4D6E1" />
  <rect x="1125" y="1000" width="125" height="125" fill="#E8D7A5" />
  <rect x="250" y="1125" width="125" height="125" fill="#3F4D3C" />
  <rect x="375" y="1125" width="125" height="125" fill="#A2B4A3" />
  <rect x="500" y="1125" width="125" height="125" fill="#4A9B91" />
  <rect x="625" y="1125" width="125" height="125" fill="#F6E3D7" />
  <rect x="750" y="1125" width="125" height="125" fill="#8D5C49" />
  <rect x="875" y="1125" width="125" height="125" fill="#C3DDC4" />
  <rect x="1000" y="1125" width="125" height="125" fill="#C4C4C4" />
  <rect x="1125" y="1125" width="125" height="125" fill="#FFFFFF" />
  <rect x="250" y="250" width="1000" height="1000" fill="none" stroke="#151515" stroke-opacity="0.16" stroke-width="2" />
</svg>
