<svg xmlns="http://www.w3.org/2000/svg" width="1500" height="1500" viewBox="0 0 1500 1500" shape-rendering="crispEdges" role="img" aria-labelledby="title desc">
  <title id="title">Center vs Edges in Brown frame</title>
  <desc id="desc">Square Project artwork previewed in a brown frame.</desc>
  <defs>
    <linearGradient id="frameFace" x1="0" y1="0" x2="1" y2="1">
      <stop offset="0" stop-color="#C18A55" />
      <stop offset="0.32" stop-color="#9A6840" />
      <stop offset="0.68" stop-color="#70401F" />
      <stop offset="1" stop-color="#3F2413" />
    </linearGradient>
    <filter id="artShadow" x="-10%" y="-10%" width="120%" height="120%">
      <feDropShadow dx="0" dy="20" stdDeviation="24" flood-color="#000000" flood-opacity="0.24" />
    </filter>
  </defs>
  <rect x="0" y="0" width="1500" height="1500" fill="#FFFFFF" />
  <rect x="0" y="0" width="1500" height="1500" fill="url(#frameFace)" />
  <rect x="120" y="120" width="1260" height="1260" fill="#F8F7F3" />
  <rect x="120" y="120" width="1260" height="1260" fill="none" stroke="#000000" stroke-opacity="0.14" stroke-width="10" />
  <rect x="250" y="250" width="1000" height="1000" fill="#FFFFFF" filter="url(#artShadow)" />
  <rect x="250" y="250" width="125" height="125" fill="#000000" />
  <rect x="375" y="250" width="125" height="125" fill="#1C1C1C" />
  <rect x="500" y="250" width="125" height="125" fill="#2F2F3A" />
  <rect x="625" y="250" width="125" height="125" fill="#4B4B6A" />
  <rect x="750" y="250" width="125" height="125" fill="#727272" />
  <rect x="875" y="250" width="125" height="125" fill="#C0C0C0" />
  <rect x="1000" y="250" width="125" height="125" fill="#E1E1E1" />
  <rect x="1125" y="250" width="125" height="125" fill="#F8F873" />
  <rect x="250" y="375" width="125" height="125" fill="#0B0B0B" />
  <rect x="375" y="375" width="125" height="125" fill="#0D0D0D" />
  <rect x="500" y="375" width="125" height="125" fill="#1A1A1A" />
  <rect x="625" y="375" width="125" height="125" fill="#292929" />
  <rect x="750" y="375" width="125" height="125" fill="#7A7A7A" />
  <rect x="875" y="375" width="125" height="125" fill="#BFBFBF" />
  <rect x="1000" y="375" width="125" height="125" fill="#E8E8E8" />
  <rect x="1125" y="375" width="125" height="125" fill="#F5F5C7" />
  <rect x="250" y="500" width="125" height="125" fill="#0B0C15" />
  <rect x="375" y="500" width="125" height="125" fill="#0A0A21" />
  <rect x="500" y="500" width="125" height="125" fill="#161618" />
  <rect x="625" y="500" width="125" height="125" fill="#333244" />
  <rect x="750" y="500" width="125" height="125" fill="#6A6B95" />
  <rect x="875" y="500" width="125" height="125" fill="#ABABAB" />
  <rect x="1000" y="500" width="125" height="125" fill="#DBD9D1" />
  <rect x="1125" y="500" width="125" height="125" fill="#F9FBAF" />
  <rect x="250" y="625" width="125" height="125" fill="#1D1D1D" />
  <rect x="375" y="625" width="125" height="125" fill="#333333" />
  <rect x="500" y="625" width="125" height="125" fill="#3F3F5D" />
  <rect x="625" y="625" width="125" height="125" fill="#444346" />
  <rect x="750" y="625" width="125" height="125" fill="#ABADAB" />
  <rect x="875" y="625" width="125" height="125" fill="#D6D6D6" />
  <rect x="1000" y="625" width="125" height="125" fill="#F1F1A7" />
  <rect x="1125" y="625" width="125" height="125" fill="#F2F2A9" />
  <rect x="250" y="750" width="125" height="125" fill="#262626" />
  <rect x="375" y="750" width="125" height="125" fill="#1E1E3E" />
  <rect x="500" y="750" width="125" height="125" fill="#424254" />
  <rect x="625" y="750" width="125" height="125" fill="#8A8F7A" />
  <rect x="750" y="750" width="125" height="125" fill="#ABABAB" />
  <rect x="875" y="750" width="125" height="125" fill="#CDCDCA" />
  <rect x="1000" y="750" width="125" height="125" fill="#E8E8E8" />
  <rect x="1125" y="750" width="125" height="125" fill="#F5F5D5" />
  <rect x="250" y="875" width="125" height="125" fill="#33363E" />
  <rect x="375" y="875" width="125" height="125" fill="#44454B" />
  <rect x="500" y="875" width="125" height="125" fill="#5B5B6C" />
  <rect x="625" y="875" width="125" height="125" fill="#7378A2" />
  <rect x="750" y="875" width="125" height="125" fill="#B7B7A3" />
  <rect x="875" y="875" width="125" height="125" fill="#DAD3D3" />
  <rect x="1000" y="875" width="125" height="125" fill="#E8E8E8" />
  <rect x="1125" y="875" width="125" height="125" fill="#F8F8A5" />
  <rect x="250" y="1000" width="125" height="125" fill="#3D3D4B" />
  <rect x="375" y="1000" width="125" height="125" fill="#4C4D54" />
  <rect x="500" y="1000" width="125" height="125" fill="#777888" />
  <rect x="625" y="1000" width="125" height="125" fill="#8B8CBB" />
  <rect x="750" y="1000" width="125" height="125" fill="#C3C3C3" />
  <rect x="875" y="1000" width="125" height="125" fill="#D1D7D1" />
  <rect x="1000" y="1000" width="125" height="125" fill="#EAEAE7" />
  <rect x="1125" y="1000" width="125" height="125" fill="#F6F7A5" />
  <rect x="250" y="1125" width="125" height="125" fill="#4B4B57" />
  <rect x="375" y="1125" width="125" height="125" fill="#555562" />
  <rect x="500" y="1125" width="125" height="125" fill="#818281" />
  <rect x="625" y="1125" width="125" height="125" fill="#9395A2" />
  <rect x="750" y="1125" width="125" height="125" fill="#C2C2B8" />
  <rect x="875" y="1125" width="125" height="125" fill="#D0D3D3" />
  <rect x="1000" y="1125" width="125" height="125" fill="#DDDDDD" />
  <rect x="1125" y="1125" width="125" height="125" fill="#F1F2A7" />
  <rect x="250" y="250" width="1000" height="1000" fill="none" stroke="#151515" stroke-opacity="0.16" stroke-width="2" />
</svg>
