<svg xmlns="http://www.w3.org/2000/svg" width="1500" height="1500" viewBox="0 0 1500 1500" shape-rendering="crispEdges" role="img" aria-labelledby="title desc">
  <title id="title">Fractured Harmony in Brown frame</title>
  <desc id="desc">Square Project artwork previewed in a brown frame.</desc>
  <defs>
    <linearGradient id="frameFace" x1="0" y1="0" x2="1" y2="1">
      <stop offset="0" stop-color="#C18A55" />
      <stop offset="0.32" stop-color="#9A6840" />
      <stop offset="0.68" stop-color="#70401F" />
      <stop offset="1" stop-color="#3F2413" />
    </linearGradient>
    <filter id="artShadow" x="-10%" y="-10%" width="120%" height="120%">
      <feDropShadow dx="0" dy="20" stdDeviation="24" flood-color="#000000" flood-opacity="0.24" />
    </filter>
  </defs>
  <rect x="0" y="0" width="1500" height="1500" fill="#FFFFFF" />
  <rect x="0" y="0" width="1500" height="1500" fill="url(#frameFace)" />
  <rect x="120" y="120" width="1260" height="1260" fill="#F8F7F3" />
  <rect x="120" y="120" width="1260" height="1260" fill="none" stroke="#000000" stroke-opacity="0.14" stroke-width="10" />
  <rect x="250" y="250" width="1000" height="1000" fill="#FFFFFF" filter="url(#artShadow)" />
  <rect x="250" y="250" width="125" height="125" fill="#5B3A29" />
  <rect x="375" y="250" width="125" height="125" fill="#A68B73" />
  <rect x="500" y="250" width="125" height="125" fill="#C6C8C1" />
  <rect x="625" y="250" width="125" height="125" fill="#B4D3E2" />
  <rect x="750" y="250" width="125" height="125" fill="#001E35" />
  <rect x="875" y="250" width="125" height="125" fill="#3F9FC5" />
  <rect x="1000" y="250" width="125" height="125" fill="#E0D6D5" />
  <rect x="1125" y="250" width="125" height="125" fill="#A8BAC1" />
  <rect x="250" y="375" width="125" height="125" fill="#3E2924" />
  <rect x="375" y="375" width="125" height="125" fill="#9B734F" />
  <rect x="500" y="375" width="125" height="125" fill="#BDDAEA" />
  <rect x="625" y="375" width="125" height="125" fill="#A2C5D0" />
  <rect x="750" y="375" width="125" height="125" fill="#006376" />
  <rect x="875" y="375" width="125" height="125" fill="#3B8EA2" />
  <rect x="1000" y="375" width="125" height="125" fill="#D7C4C1" />
  <rect x="1125" y="375" width="125" height="125" fill="#BAC8C5" />
  <rect x="250" y="500" width="125" height="125" fill="#1D1514" />
  <rect x="375" y="500" width="125" height="125" fill="#8C6662" />
  <rect x="500" y="500" width="125" height="125" fill="#C2DBE2" />
  <rect x="625" y="500" width="125" height="125" fill="#B6C8DE" />
  <rect x="750" y="500" width="125" height="125" fill="#005B6D" />
  <rect x="875" y="500" width="125" height="125" fill="#2A8A93" />
  <rect x="1000" y="500" width="125" height="125" fill="#E5D3D1" />
  <rect x="1125" y="500" width="125" height="125" fill="#D1DBDB" />
  <rect x="250" y="625" width="125" height="125" fill="#531C1A" />
  <rect x="375" y="625" width="125" height="125" fill="#AA9D8D" />
  <rect x="500" y="625" width="125" height="125" fill="#E9F3F4" />
  <rect x="625" y="625" width="125" height="125" fill="#A4C8D6" />
  <rect x="750" y="625" width="125" height="125" fill="#007A83" />
  <rect x="875" y="625" width="125" height="125" fill="#1EA5B9" />
  <rect x="1000" y="625" width="125" height="125" fill="#CED3D2" />
  <rect x="1125" y="625" width="125" height="125" fill="#C2C3C1" />
  <rect x="250" y="750" width="125" height="125" fill="#3C2926" />
  <rect x="375" y="750" width="125" height="125" fill="#B69C89" />
  <rect x="500" y="750" width="125" height="125" fill="#D5E3EB" />
  <rect x="625" y="750" width="125" height="125" fill="#A2CBD8" />
  <rect x="750" y="750" width="125" height="125" fill="#00675E" />
  <rect x="875" y="750" width="125" height="125" fill="#28B3C0" />
  <rect x="1000" y="750" width="125" height="125" fill="#DFD5D3" />
  <rect x="1125" y="750" width="125" height="125" fill="#D9DADC" />
  <rect x="250" y="875" width="125" height="125" fill="#2E2322" />
  <rect x="375" y="875" width="125" height="125" fill="#BFA39E" />
  <rect x="500" y="875" width="125" height="125" fill="#DDE3E4" />
  <rect x="625" y="875" width="125" height="125" fill="#B3CED9" />
  <rect x="750" y="875" width="125" height="125" fill="#009478" />
  <rect x="875" y="875" width="125" height="125" fill="#22A0B1" />
  <rect x="1000" y="875" width="125" height="125" fill="#D6C9C5" />
  <rect x="1125" y="875" width="125" height="125" fill="#C8C9C8" />
  <rect x="250" y="1000" width="125" height="125" fill="#4A3530" />
  <rect x="375" y="1000" width="125" height="125" fill="#B58E79" />
  <rect x="500" y="1000" width="125" height="125" fill="#D7E0E2" />
  <rect x="625" y="1000" width="125" height="125" fill="#A8C5D4" />
  <rect x="750" y="1000" width="125" height="125" fill="#00898C" />
  <rect x="875" y="1000" width="125" height="125" fill="#1B9FA7" />
  <rect x="1000" y="1000" width="125" height="125" fill="#E0DCEB" />
  <rect x="1125" y="1000" width="125" height="125" fill="#D2D4D2" />
  <rect x="250" y="1125" width="125" height="125" fill="#2B1E1E" />
  <rect x="375" y="1125" width="125" height="125" fill="#D69B8F" />
  <rect x="500" y="1125" width="125" height="125" fill="#E1E5E8" />
  <rect x="625" y="1125" width="125" height="125" fill="#B3C7DB" />
  <rect x="750" y="1125" width="125" height="125" fill="#007B7C" />
  <rect x="875" y="1125" width="125" height="125" fill="#1D8FA5" />
  <rect x="1000" y="1125" width="125" height="125" fill="#E4D9D7" />
  <rect x="1125" y="1125" width="125" height="125" fill="#E1E2E1" />
  <rect x="250" y="250" width="1000" height="1000" fill="none" stroke="#151515" stroke-opacity="0.16" stroke-width="2" />
</svg>
