<svg xmlns="http://www.w3.org/2000/svg" width="1500" height="1500" viewBox="0 0 1500 1500" shape-rendering="crispEdges" role="img" aria-labelledby="title desc">
  <title id="title">Flickering Dichotomy in Brown frame</title>
  <desc id="desc">Square Project artwork previewed in a brown frame.</desc>
  <defs>
    <linearGradient id="frameFace" x1="0" y1="0" x2="1" y2="1">
      <stop offset="0" stop-color="#C18A55" />
      <stop offset="0.32" stop-color="#9A6840" />
      <stop offset="0.68" stop-color="#70401F" />
      <stop offset="1" stop-color="#3F2413" />
    </linearGradient>
    <filter id="artShadow" x="-10%" y="-10%" width="120%" height="120%">
      <feDropShadow dx="0" dy="20" stdDeviation="24" flood-color="#000000" flood-opacity="0.24" />
    </filter>
  </defs>
  <rect x="0" y="0" width="1500" height="1500" fill="#FFFFFF" />
  <rect x="0" y="0" width="1500" height="1500" fill="url(#frameFace)" />
  <rect x="120" y="120" width="1260" height="1260" fill="#F8F7F3" />
  <rect x="120" y="120" width="1260" height="1260" fill="none" stroke="#000000" stroke-opacity="0.14" stroke-width="10" />
  <rect x="250" y="250" width="1000" height="1000" fill="#FFFFFF" filter="url(#artShadow)" />
  <rect x="250" y="250" width="125" height="125" fill="#2E0F21" />
  <rect x="375" y="250" width="125" height="125" fill="#1E0C17" />
  <rect x="500" y="250" width="125" height="125" fill="#4A1F3B" />
  <rect x="625" y="250" width="125" height="125" fill="#0D0C0E" />
  <rect x="750" y="250" width="125" height="125" fill="#3D282F" />
  <rect x="875" y="250" width="125" height="125" fill="#FFE35B" />
  <rect x="1000" y="250" width="125" height="125" fill="#7BBF6A" />
  <rect x="1125" y="250" width="125" height="125" fill="#24302B" />
  <rect x="250" y="375" width="125" height="125" fill="#1F0B13" />
  <rect x="375" y="375" width="125" height="125" fill="#4A1D38" />
  <rect x="500" y="375" width="125" height="125" fill="#1B1A1C" />
  <rect x="625" y="375" width="125" height="125" fill="#401C2A" />
  <rect x="750" y="375" width="125" height="125" fill="#DAA45A" />
  <rect x="875" y="375" width="125" height="125" fill="#0F7D57" />
  <rect x="1000" y="375" width="125" height="125" fill="#5DD48B" />
  <rect x="1125" y="375" width="125" height="125" fill="#0B2A22" />
  <rect x="250" y="500" width="125" height="125" fill="#000000" />
  <rect x="375" y="500" width="125" height="125" fill="#2C1A26" />
  <rect x="500" y="500" width="125" height="125" fill="#4E1A28" />
  <rect x="625" y="500" width="125" height="125" fill="#7B1B38" />
  <rect x="750" y="500" width="125" height="125" fill="#232B2F" />
  <rect x="875" y="500" width="125" height="125" fill="#4C1E2B" />
  <rect x="1000" y="500" width="125" height="125" fill="#4C2A2F" />
  <rect x="1125" y="500" width="125" height="125" fill="#7F4A4A" />
  <rect x="250" y="625" width="125" height="125" fill="#2C3E50" />
  <rect x="375" y="625" width="125" height="125" fill="#D2B94C" />
  <rect x="500" y="625" width="125" height="125" fill="#D3AA5F" />
  <rect x="625" y="625" width="125" height="125" fill="#2B4940" />
  <rect x="750" y="625" width="125" height="125" fill="#4E3079" />
  <rect x="875" y="625" width="125" height="125" fill="#292421" />
  <rect x="1000" y="625" width="125" height="125" fill="#5A2F4D" />
  <rect x="1125" y="625" width="125" height="125" fill="#6F3D6E" />
  <rect x="250" y="750" width="125" height="125" fill="#0E1A1C" />
  <rect x="375" y="750" width="125" height="125" fill="#4F4B3A" />
  <rect x="500" y="750" width="125" height="125" fill="#2D272D" />
  <rect x="625" y="750" width="125" height="125" fill="#312A2E" />
  <rect x="750" y="750" width="125" height="125" fill="#C9A58D" />
  <rect x="875" y="750" width="125" height="125" fill="#DDE2D5" />
  <rect x="1000" y="750" width="125" height="125" fill="#C2CA9F" />
  <rect x="1125" y="750" width="125" height="125" fill="#52C5AA" />
  <rect x="250" y="875" width="125" height="125" fill="#000000" />
  <rect x="375" y="875" width="125" height="125" fill="#6B5465" />
  <rect x="500" y="875" width="125" height="125" fill="#5F3B3F" />
  <rect x="625" y="875" width="125" height="125" fill="#5C4A30" />
  <rect x="750" y="875" width="125" height="125" fill="#3A2C3F" />
  <rect x="875" y="875" width="125" height="125" fill="#D0C1A9" />
  <rect x="1000" y="875" width="125" height="125" fill="#AB8D7D" />
  <rect x="1125" y="875" width="125" height="125" fill="#B3C9A6" />
  <rect x="250" y="1000" width="125" height="125" fill="#3B1D24" />
  <rect x="375" y="1000" width="125" height="125" fill="#AB8855" />
  <rect x="500" y="1000" width="125" height="125" fill="#E5D99C" />
  <rect x="625" y="1000" width="125" height="125" fill="#9AB7A5" />
  <rect x="750" y="1000" width="125" height="125" fill="#4D3D63" />
  <rect x="875" y="1000" width="125" height="125" fill="#474C48" />
  <rect x="1000" y="1000" width="125" height="125" fill="#1F191E" />
  <rect x="1125" y="1000" width="125" height="125" fill="#3E215C" />
  <rect x="250" y="1125" width="125" height="125" fill="#2D2F2F" />
  <rect x="375" y="1125" width="125" height="125" fill="#050402" />
  <rect x="500" y="1125" width="125" height="125" fill="#000000" />
  <rect x="625" y="1125" width="125" height="125" fill="#2E0F21" />
  <rect x="750" y="1125" width="125" height="125" fill="#4B2A30" />
  <rect x="875" y="1125" width="125" height="125" fill="#0D0C0E" />
  <rect x="1000" y="1125" width="125" height="125" fill="#AAAAAA" />
  <rect x="1125" y="1125" width="125" height="125" fill="#FFFFFF" />
  <rect x="250" y="250" width="1000" height="1000" fill="none" stroke="#151515" stroke-opacity="0.16" stroke-width="2" />
</svg>
