<svg xmlns="http://www.w3.org/2000/svg" width="1500" height="1500" viewBox="0 0 1500 1500" shape-rendering="crispEdges" role="img" aria-labelledby="title desc">
  <title id="title">Tension Between Shadows and Light in Black frame</title>
  <desc id="desc">Square Project artwork previewed in a black frame.</desc>
  <defs>
    <linearGradient id="frameFace" x1="0" y1="0" x2="1" y2="1">
      <stop offset="0" stop-color="#6A6A6A" />
      <stop offset="0.32" stop-color="#343434" />
      <stop offset="0.68" stop-color="#111111" />
      <stop offset="1" stop-color="#050505" />
    </linearGradient>
    <filter id="artShadow" x="-10%" y="-10%" width="120%" height="120%">
      <feDropShadow dx="0" dy="20" stdDeviation="24" flood-color="#000000" flood-opacity="0.24" />
    </filter>
  </defs>
  <rect x="0" y="0" width="1500" height="1500" fill="#FFFFFF" />
  <rect x="0" y="0" width="1500" height="1500" fill="url(#frameFace)" />
  <rect x="120" y="120" width="1260" height="1260" fill="#F8F7F3" />
  <rect x="120" y="120" width="1260" height="1260" fill="none" stroke="#000000" stroke-opacity="0.14" stroke-width="10" />
  <rect x="250" y="250" width="1000" height="1000" fill="#FFFFFF" filter="url(#artShadow)" />
  <rect x="250" y="250" width="125" height="125" fill="#000000" />
  <rect x="375" y="250" width="125" height="125" fill="#1C1C1C" />
  <rect x="500" y="250" width="125" height="125" fill="#3C3C3C" />
  <rect x="625" y="250" width="125" height="125" fill="#4A4A4A" />
  <rect x="750" y="250" width="125" height="125" fill="#2E2E2E" />
  <rect x="875" y="250" width="125" height="125" fill="#3E3E3E" />
  <rect x="1000" y="250" width="125" height="125" fill="#1E1E1E" />
  <rect x="1125" y="250" width="125" height="125" fill="#393939" />
  <rect x="250" y="375" width="125" height="125" fill="#241B49" />
  <rect x="375" y="375" width="125" height="125" fill="#4A163B" />
  <rect x="500" y="375" width="125" height="125" fill="#9D244F" />
  <rect x="625" y="375" width="125" height="125" fill="#3D1D4D" />
  <rect x="750" y="375" width="125" height="125" fill="#5A232E" />
  <rect x="875" y="375" width="125" height="125" fill="#1B0D25" />
  <rect x="1000" y="375" width="125" height="125" fill="#2A0C3C" />
  <rect x="1125" y="375" width="125" height="125" fill="#441C4F" />
  <rect x="250" y="500" width="125" height="125" fill="#605C00" />
  <rect x="375" y="500" width="125" height="125" fill="#7A5B0D" />
  <rect x="500" y="500" width="125" height="125" fill="#D29E47" />
  <rect x="625" y="500" width="125" height="125" fill="#C9B844" />
  <rect x="750" y="500" width="125" height="125" fill="#BFBF6B" />
  <rect x="875" y="500" width="125" height="125" fill="#A7C568" />
  <rect x="1000" y="500" width="125" height="125" fill="#C0D4AA" />
  <rect x="1125" y="500" width="125" height="125" fill="#B6D4C3" />
  <rect x="250" y="625" width="125" height="125" fill="#B2CEBF" />
  <rect x="375" y="625" width="125" height="125" fill="#E5EBA8" />
  <rect x="500" y="625" width="125" height="125" fill="#D8E5B2" />
  <rect x="625" y="625" width="125" height="125" fill="#AECE8A" />
  <rect x="750" y="625" width="125" height="125" fill="#A7C9A2" />
  <rect x="875" y="625" width="125" height="125" fill="#C7DFCC" />
  <rect x="1000" y="625" width="125" height="125" fill="#D6EEDD" />
  <rect x="1125" y="625" width="125" height="125" fill="#E7FCE7" />
  <rect x="250" y="750" width="125" height="125" fill="#C4E4B4" />
  <rect x="375" y="750" width="125" height="125" fill="#A8D7A8" />
  <rect x="500" y="750" width="125" height="125" fill="#A1CC83" />
  <rect x="625" y="750" width="125" height="125" fill="#A6D25F" />
  <rect x="750" y="750" width="125" height="125" fill="#C3D78E" />
  <rect x="875" y="750" width="125" height="125" fill="#D8E5AE" />
  <rect x="1000" y="750" width="125" height="125" fill="#E4F6E3" />
  <rect x="1125" y="750" width="125" height="125" fill="#D7F9E8" />
  <rect x="250" y="875" width="125" height="125" fill="#F1F9EB" />
  <rect x="375" y="875" width="125" height="125" fill="#D8EFD2" />
  <rect x="500" y="875" width="125" height="125" fill="#B7E1DA" />
  <rect x="625" y="875" width="125" height="125" fill="#A5D3C5" />
  <rect x="750" y="875" width="125" height="125" fill="#85B7AB" />
  <rect x="875" y="875" width="125" height="125" fill="#678386" />
  <rect x="1000" y="875" width="125" height="125" fill="#3B5854" />
  <rect x="1125" y="875" width="125" height="125" fill="#2C3F3D" />
  <rect x="250" y="1000" width="125" height="125" fill="#2C2B2D" />
  <rect x="375" y="1000" width="125" height="125" fill="#191B23" />
  <rect x="500" y="1000" width="125" height="125" fill="#0A0A0D" />
  <rect x="625" y="1000" width="125" height="125" fill="#181519" />
  <rect x="750" y="1000" width="125" height="125" fill="#101014" />
  <rect x="875" y="1000" width="125" height="125" fill="#09090A" />
  <rect x="1000" y="1000" width="125" height="125" fill="#040406" />
  <rect x="1125" y="1000" width="125" height="125" fill="#000000" />
  <rect x="250" y="1125" width="125" height="125" fill="#222222" />
  <rect x="375" y="1125" width="125" height="125" fill="#444444" />
  <rect x="500" y="1125" width="125" height="125" fill="#666666" />
  <rect x="625" y="1125" width="125" height="125" fill="#888888" />
  <rect x="750" y="1125" width="125" height="125" fill="#AAAAAA" />
  <rect x="875" y="1125" width="125" height="125" fill="#CCCCCC" />
  <rect x="1000" y="1125" width="125" height="125" fill="#EEEEEE" />
  <rect x="1125" y="1125" width="125" height="125" fill="#FFFFFF" />
  <rect x="250" y="250" width="1000" height="1000" fill="none" stroke="#151515" stroke-opacity="0.16" stroke-width="2" />
</svg>
