<svg xmlns="http://www.w3.org/2000/svg" width="1500" height="1500" viewBox="0 0 1500 1500" shape-rendering="crispEdges" role="img" aria-labelledby="title desc">
  <title id="title">Symmetry vs Break in Natural frame</title>
  <desc id="desc">Square Project artwork previewed in a natural frame.</desc>
  <defs>
    <linearGradient id="frameFace" x1="0" y1="0" x2="1" y2="1">
      <stop offset="0" stop-color="#FFF1D7" />
      <stop offset="0.32" stop-color="#E8D4B7" />
      <stop offset="0.68" stop-color="#C2A17B" />
      <stop offset="1" stop-color="#8D6F50" />
    </linearGradient>
    <pattern id="naturalGrain" patternUnits="userSpaceOnUse" width="180" height="48">
      <path d="M0 12 C48 2 92 24 180 10" fill="none" stroke="#8D6F50" stroke-opacity="0.22" stroke-width="5" />
      <path d="M0 34 C62 44 118 22 180 36" fill="none" stroke="#FFFFFF" stroke-opacity="0.22" stroke-width="4" />
    </pattern>
    <filter id="artShadow" x="-10%" y="-10%" width="120%" height="120%">
      <feDropShadow dx="0" dy="20" stdDeviation="24" flood-color="#000000" flood-opacity="0.24" />
    </filter>
  </defs>
  <rect x="0" y="0" width="1500" height="1500" fill="#FFFFFF" />
  <rect x="0" y="0" width="1500" height="1500" fill="url(#frameFace)" />
  <rect x="0" y="0" width="1500" height="1500" fill="url(#naturalGrain)" />
  <rect x="120" y="120" width="1260" height="1260" fill="#F8F7F3" />
  <rect x="120" y="120" width="1260" height="1260" fill="none" stroke="#000000" stroke-opacity="0.14" stroke-width="10" />
  <rect x="250" y="250" width="1000" height="1000" fill="#FFFFFF" filter="url(#artShadow)" />
  <rect x="250" y="250" width="125" height="125" fill="#D8A3B1" />
  <rect x="375" y="250" width="125" height="125" fill="#D86D7E" />
  <rect x="500" y="250" width="125" height="125" fill="#D9586A" />
  <rect x="625" y="250" width="125" height="125" fill="#E2A9C3" />
  <rect x="750" y="250" width="125" height="125" fill="#E35B74" />
  <rect x="875" y="250" width="125" height="125" fill="#CF4A49" />
  <rect x="1000" y="250" width="125" height="125" fill="#9B50B5" />
  <rect x="1125" y="250" width="125" height="125" fill="#64243B" />
  <rect x="250" y="375" width="125" height="125" fill="#C96A94" />
  <rect x="375" y="375" width="125" height="125" fill="#DBACB8" />
  <rect x="500" y="375" width="125" height="125" fill="#E27978" />
  <rect x="625" y="375" width="125" height="125" fill="#F0C2D4" />
  <rect x="750" y="375" width="125" height="125" fill="#F8C1D0" />
  <rect x="875" y="375" width="125" height="125" fill="#BD4E55" />
  <rect x="1000" y="375" width="125" height="125" fill="#8A0050" />
  <rect x="1125" y="375" width="125" height="125" fill="#73485F" />
  <rect x="250" y="500" width="125" height="125" fill="#E54B50" />
  <rect x="375" y="500" width="125" height="125" fill="#D81E6F" />
  <rect x="500" y="500" width="125" height="125" fill="#F05D6E" />
  <rect x="625" y="500" width="125" height="125" fill="#E47785" />
  <rect x="750" y="500" width="125" height="125" fill="#C76472" />
  <rect x="875" y="500" width="125" height="125" fill="#D68395" />
  <rect x="1000" y="500" width="125" height="125" fill="#CC7382" />
  <rect x="1125" y="500" width="125" height="125" fill="#B8A9BC" />
  <rect x="250" y="625" width="125" height="125" fill="#E37888" />
  <rect x="375" y="625" width="125" height="125" fill="#DB6E7E" />
  <rect x="500" y="625" width="125" height="125" fill="#A86E99" />
  <rect x="625" y="625" width="125" height="125" fill="#BC8EBD" />
  <rect x="750" y="625" width="125" height="125" fill="#B13655" />
  <rect x="875" y="625" width="125" height="125" fill="#A62355" />
  <rect x="1000" y="625" width="125" height="125" fill="#675366" />
  <rect x="1125" y="625" width="125" height="125" fill="#847F99" />
  <rect x="250" y="750" width="125" height="125" fill="#AB0525" />
  <rect x="375" y="750" width="125" height="125" fill="#B6597C" />
  <rect x="500" y="750" width="125" height="125" fill="#D1729E" />
  <rect x="625" y="750" width="125" height="125" fill="#C8A44A" />
  <rect x="750" y="750" width="125" height="125" fill="#86344A" />
  <rect x="875" y="750" width="125" height="125" fill="#532D64" />
  <rect x="1000" y="750" width="125" height="125" fill="#8B7A9B" />
  <rect x="1125" y="750" width="125" height="125" fill="#7C5F9C" />
  <rect x="250" y="875" width="125" height="125" fill="#A33542" />
  <rect x="375" y="875" width="125" height="125" fill="#751C4D" />
  <rect x="500" y="875" width="125" height="125" fill="#796857" />
  <rect x="625" y="875" width="125" height="125" fill="#906872" />
  <rect x="750" y="875" width="125" height="125" fill="#D2AFBB" />
  <rect x="875" y="875" width="125" height="125" fill="#BB7D78" />
  <rect x="1000" y="875" width="125" height="125" fill="#F7AB97" />
  <rect x="1125" y="875" width="125" height="125" fill="#B8EFFE" />
  <rect x="250" y="1000" width="125" height="125" fill="#D94F61" />
  <rect x="375" y="1000" width="125" height="125" fill="#AA5364" />
  <rect x="500" y="1000" width="125" height="125" fill="#D22046" />
  <rect x="625" y="1000" width="125" height="125" fill="#9A7D80" />
  <rect x="750" y="1000" width="125" height="125" fill="#F29C8B" />
  <rect x="875" y="1000" width="125" height="125" fill="#85B5CF" />
  <rect x="1000" y="1000" width="125" height="125" fill="#7D58B5" />
  <rect x="1125" y="1000" width="125" height="125" fill="#702B34" />
  <rect x="250" y="1125" width="125" height="125" fill="#6A152B" />
  <rect x="375" y="1125" width="125" height="125" fill="#E32752" />
  <rect x="500" y="1125" width="125" height="125" fill="#A61F44" />
  <rect x="625" y="1125" width="125" height="125" fill="#A57F97" />
  <rect x="750" y="1125" width="125" height="125" fill="#945D66" />
  <rect x="875" y="1125" width="125" height="125" fill="#D5B3C7" />
  <rect x="1000" y="1125" width="125" height="125" fill="#8F6B9F" />
  <rect x="1125" y="1125" width="125" height="125" fill="#4E5065" />
  <rect x="250" y="250" width="1000" height="1000" fill="none" stroke="#151515" stroke-opacity="0.16" stroke-width="2" />
</svg>
