<svg xmlns="http://www.w3.org/2000/svg" width="1500" height="1500" viewBox="0 0 1500 1500" shape-rendering="crispEdges" role="img" aria-labelledby="title desc">
  <title id="title">Exposure vs Shelter in Black frame</title>
  <desc id="desc">Square Project artwork previewed in a black frame.</desc>
  <rect x="0" y="0" width="1500" height="1500" fill="#FFFFFF" />
  <image href="https://mysquareart.com/frames/black.jpg" x="0" y="0" width="1500" height="1500" preserveAspectRatio="xMidYMid meet" />
  <rect x="250" y="250" width="1000" height="1000" fill="#FFFFFF" />
  <rect x="250" y="250" width="125" height="125" fill="#D0E7E1" />
  <rect x="375" y="250" width="125" height="125" fill="#B6D3E8" />
  <rect x="500" y="250" width="125" height="125" fill="#7B9BBD" />
  <rect x="625" y="250" width="125" height="125" fill="#B9C2C6" />
  <rect x="750" y="250" width="125" height="125" fill="#3B3B3F" />
  <rect x="875" y="250" width="125" height="125" fill="#23282C" />
  <rect x="1000" y="250" width="125" height="125" fill="#FFFFFF" />
  <rect x="1125" y="250" width="125" height="125" fill="#F7E2C9" />
  <rect x="250" y="375" width="125" height="125" fill="#C0E3E3" />
  <rect x="375" y="375" width="125" height="125" fill="#86B8D0" />
  <rect x="500" y="375" width="125" height="125" fill="#5C788B" />
  <rect x="625" y="375" width="125" height="125" fill="#C6D7D5" />
  <rect x="750" y="375" width="125" height="125" fill="#61676C" />
  <rect x="875" y="375" width="125" height="125" fill="#37393B" />
  <rect x="1000" y="375" width="125" height="125" fill="#FBFBFB" />
  <rect x="1125" y="375" width="125" height="125" fill="#E1D4B9" />
  <rect x="250" y="500" width="125" height="125" fill="#D1E8DB" />
  <rect x="375" y="500" width="125" height="125" fill="#A4C7D2" />
  <rect x="500" y="500" width="125" height="125" fill="#B9C8D4" />
  <rect x="625" y="500" width="125" height="125" fill="#BDC7C9" />
  <rect x="750" y="500" width="125" height="125" fill="#1B1B1F" />
  <rect x="875" y="500" width="125" height="125" fill="#A7A8A2" />
  <rect x="1000" y="500" width="125" height="125" fill="#EFFAEF" />
  <rect x="1125" y="500" width="125" height="125" fill="#F6D5A2" />
  <rect x="250" y="625" width="125" height="125" fill="#E8F6F4" />
  <rect x="375" y="625" width="125" height="125" fill="#B3D0DB" />
  <rect x="500" y="625" width="125" height="125" fill="#9DB5C5" />
  <rect x="625" y="625" width="125" height="125" fill="#A7B1A4" />
  <rect x="750" y="625" width="125" height="125" fill="#111111" />
  <rect x="875" y="625" width="125" height="125" fill="#383D40" />
  <rect x="1000" y="625" width="125" height="125" fill="#FFFFFF" />
  <rect x="1125" y="625" width="125" height="125" fill="#F2E2BF" />
  <rect x="250" y="750" width="125" height="125" fill="#A7E8DA" />
  <rect x="375" y="750" width="125" height="125" fill="#8BDBC8" />
  <rect x="500" y="750" width="125" height="125" fill="#BACED6" />
  <rect x="625" y="750" width="125" height="125" fill="#2B3033" />
  <rect x="750" y="750" width="125" height="125" fill="#4B5052" />
  <rect x="875" y="750" width="125" height="125" fill="#4F5460" />
  <rect x="1000" y="750" width="125" height="125" fill="#E4E7E9" />
  <rect x="1125" y="750" width="125" height="125" fill="#F3D0E5" />
  <rect x="250" y="875" width="125" height="125" fill="#B0E2DF" />
  <rect x="375" y="875" width="125" height="125" fill="#A0CEDC" />
  <rect x="500" y="875" width="125" height="125" fill="#B7C4CF" />
  <rect x="625" y="875" width="125" height="125" fill="#BCBFBF" />
  <rect x="750" y="875" width="125" height="125" fill="#191C1E" />
  <rect x="875" y="875" width="125" height="125" fill="#373B3F" />
  <rect x="1000" y="875" width="125" height="125" fill="#EFEFEF" />
  <rect x="1125" y="875" width="125" height="125" fill="#D6C6A7" />
  <rect x="250" y="1000" width="125" height="125" fill="#D0E7E1" />
  <rect x="375" y="1000" width="125" height="125" fill="#A4D3E2" />
  <rect x="500" y="1000" width="125" height="125" fill="#C3B5BA" />
  <rect x="625" y="1000" width="125" height="125" fill="#C4C5C6" />
  <rect x="750" y="1000" width="125" height="125" fill="#1E2124" />
  <rect x="875" y="1000" width="125" height="125" fill="#2C3032" />
  <rect x="1000" y="1000" width="125" height="125" fill="#F6F6F6" />
  <rect x="1125" y="1000" width="125" height="125" fill="#F2E4D6" />
  <rect x="250" y="1125" width="125" height="125" fill="#A5EBC5" />
  <rect x="375" y="1125" width="125" height="125" fill="#B8D6E5" />
  <rect x="500" y="1125" width="125" height="125" fill="#B2B3B5" />
  <rect x="625" y="1125" width="125" height="125" fill="#B5C7C9" />
  <rect x="750" y="1125" width="125" height="125" fill="#2D3236" />
  <rect x="875" y="1125" width="125" height="125" fill="#3A3D41" />
  <rect x="1000" y="1125" width="125" height="125" fill="#E8E8E8" />
  <rect x="1125" y="1125" width="125" height="125" fill="#F9E3C5" />
  <rect x="250" y="250" width="1000" height="1000" fill="none" stroke="#151515" stroke-opacity="0.16" stroke-width="2" />
</svg>
