<svg xmlns="http://www.w3.org/2000/svg" width="1500" height="1500" viewBox="0 0 1500 1500" shape-rendering="crispEdges" role="img" aria-labelledby="title desc">
  <title id="title">Echoes of Clarity in Brown frame</title>
  <desc id="desc">Square Project artwork previewed in a brown frame.</desc>
  <rect x="0" y="0" width="1500" height="1500" fill="#FFFFFF" />
  <image href="https://mysquareart.com/frames/brown.jpg" x="0" y="0" width="1500" height="1500" preserveAspectRatio="xMidYMid meet" />
  <rect x="250" y="250" width="1000" height="1000" fill="#FFFFFF" />
  <rect x="250" y="250" width="125" height="125" fill="#000000" />
  <rect x="375" y="250" width="125" height="125" fill="#1E1E78" />
  <rect x="500" y="250" width="125" height="125" fill="#302B4C" />
  <rect x="625" y="250" width="125" height="125" fill="#FFFFFF" />
  <rect x="750" y="250" width="125" height="125" fill="#4C6AAB" />
  <rect x="875" y="250" width="125" height="125" fill="#777FFF" />
  <rect x="1000" y="250" width="125" height="125" fill="#8995C2" />
  <rect x="1125" y="250" width="125" height="125" fill="#9BAAB5" />
  <rect x="250" y="375" width="125" height="125" fill="#000000" />
  <rect x="375" y="375" width="125" height="125" fill="#3B3B4F" />
  <rect x="500" y="375" width="125" height="125" fill="#4C4C70" />
  <rect x="625" y="375" width="125" height="125" fill="#FFFFFF" />
  <rect x="750" y="375" width="125" height="125" fill="#C7C7CE" />
  <rect x="875" y="375" width="125" height="125" fill="#C7D9DE" />
  <rect x="1000" y="375" width="125" height="125" fill="#B6D0E9" />
  <rect x="1125" y="375" width="125" height="125" fill="#A3BFD3" />
  <rect x="250" y="500" width="125" height="125" fill="#000000" />
  <rect x="375" y="500" width="125" height="125" fill="#382F58" />
  <rect x="500" y="500" width="125" height="125" fill="#A1A3BB" />
  <rect x="625" y="500" width="125" height="125" fill="#FFFFFF" />
  <rect x="750" y="500" width="125" height="125" fill="#88B0D5" />
  <rect x="875" y="500" width="125" height="125" fill="#B4CCDB" />
  <rect x="1000" y="500" width="125" height="125" fill="#A6C6D2" />
  <rect x="1125" y="500" width="125" height="125" fill="#B1D2EB" />
  <rect x="250" y="625" width="125" height="125" fill="#000000" />
  <rect x="375" y="625" width="125" height="125" fill="#2E4553" />
  <rect x="500" y="625" width="125" height="125" fill="#B3A8C2" />
  <rect x="625" y="625" width="125" height="125" fill="#FFFFFF" />
  <rect x="750" y="625" width="125" height="125" fill="#A1C1DE" />
  <rect x="875" y="625" width="125" height="125" fill="#85B2D8" />
  <rect x="1000" y="625" width="125" height="125" fill="#A3C6E7" />
  <rect x="1125" y="625" width="125" height="125" fill="#89B9D3" />
  <rect x="250" y="750" width="125" height="125" fill="#000000" />
  <rect x="375" y="750" width="125" height="125" fill="#6F7F91" />
  <rect x="500" y="750" width="125" height="125" fill="#B9C4DA" />
  <rect x="625" y="750" width="125" height="125" fill="#FFFFFF" />
  <rect x="750" y="750" width="125" height="125" fill="#A6C9E8" />
  <rect x="875" y="750" width="125" height="125" fill="#89C0E3" />
  <rect x="1000" y="750" width="125" height="125" fill="#7EB9D8" />
  <rect x="1125" y="750" width="125" height="125" fill="#92C6E7" />
  <rect x="250" y="875" width="125" height="125" fill="#000000" />
  <rect x="375" y="875" width="125" height="125" fill="#3C3D4D" />
  <rect x="500" y="875" width="125" height="125" fill="#B5BEC8" />
  <rect x="625" y="875" width="125" height="125" fill="#FFFFFF" />
  <rect x="750" y="875" width="125" height="125" fill="#77A2CD" />
  <rect x="875" y="875" width="125" height="125" fill="#ABDFE3" />
  <rect x="1000" y="875" width="125" height="125" fill="#B0C4E2" />
  <rect x="1125" y="875" width="125" height="125" fill="#9AC9D1" />
  <rect x="250" y="1000" width="125" height="125" fill="#000000" />
  <rect x="375" y="1000" width="125" height="125" fill="#4B4B4D" />
  <rect x="500" y="1000" width="125" height="125" fill="#A7A7B9" />
  <rect x="625" y="1000" width="125" height="125" fill="#FFFFFF" />
  <rect x="750" y="1000" width="125" height="125" fill="#77A7D8" />
  <rect x="875" y="1000" width="125" height="125" fill="#AFAFBB" />
  <rect x="1000" y="1000" width="125" height="125" fill="#ABBDCB" />
  <rect x="1125" y="1000" width="125" height="125" fill="#8BC6E4" />
  <rect x="250" y="1125" width="125" height="125" fill="#000000" />
  <rect x="375" y="1125" width="125" height="125" fill="#444B5D" />
  <rect x="500" y="1125" width="125" height="125" fill="#A2A2B2" />
  <rect x="625" y="1125" width="125" height="125" fill="#FFFFFF" />
  <rect x="750" y="1125" width="125" height="125" fill="#4EA2D4" />
  <rect x="875" y="1125" width="125" height="125" fill="#A6C8D2" />
  <rect x="1000" y="1125" width="125" height="125" fill="#9BB4D5" />
  <rect x="1125" y="1125" width="125" height="125" fill="#88B0B8" />
  <rect x="250" y="250" width="1000" height="1000" fill="none" stroke="#151515" stroke-opacity="0.16" stroke-width="2" />
</svg>
