<svg xmlns="http://www.w3.org/2000/svg" width="1500" height="1500" viewBox="0 0 1500 1500" shape-rendering="crispEdges" role="img" aria-labelledby="title desc">
  <title id="title">Evolving Tensions in White frame</title>
  <desc id="desc">Square Project artwork previewed in a white frame.</desc>
  <defs>
    <linearGradient id="frameFace" x1="0" y1="0" x2="1" y2="1">
      <stop offset="0" stop-color="#BEBEB8" />
      <stop offset="0.32" stop-color="#FFFFFF" />
      <stop offset="0.68" stop-color="#F8F8F5" />
      <stop offset="1" stop-color="#D5D5CF" />
    </linearGradient>
    <filter id="artShadow" x="-10%" y="-10%" width="120%" height="120%">
      <feDropShadow dx="0" dy="20" stdDeviation="24" flood-color="#000000" flood-opacity="0.24" />
    </filter>
  </defs>
  <rect x="0" y="0" width="1500" height="1500" fill="#FFFFFF" />
  <rect x="0" y="0" width="1500" height="1500" fill="url(#frameFace)" />
  <rect x="120" y="120" width="1260" height="1260" fill="#F8F7F3" />
  <rect x="120" y="120" width="1260" height="1260" fill="none" stroke="#000000" stroke-opacity="0.14" stroke-width="10" />
  <rect x="250" y="250" width="1000" height="1000" fill="#FFFFFF" filter="url(#artShadow)" />
  <rect x="250" y="250" width="125" height="125" fill="#7F4B1E" />
  <rect x="375" y="250" width="125" height="125" fill="#4A2C2A" />
  <rect x="500" y="250" width="125" height="125" fill="#3B1D14" />
  <rect x="625" y="250" width="125" height="125" fill="#C45A1B" />
  <rect x="750" y="250" width="125" height="125" fill="#4E3D3F" />
  <rect x="875" y="250" width="125" height="125" fill="#AA7B5C" />
  <rect x="1000" y="250" width="125" height="125" fill="#8C4D43" />
  <rect x="1125" y="250" width="125" height="125" fill="#9B2D4D" />
  <rect x="250" y="375" width="125" height="125" fill="#59331A" />
  <rect x="375" y="375" width="125" height="125" fill="#AD3C2A" />
  <rect x="500" y="375" width="125" height="125" fill="#4F2C30" />
  <rect x="625" y="375" width="125" height="125" fill="#7C4B34" />
  <rect x="750" y="375" width="125" height="125" fill="#DFA05C" />
  <rect x="875" y="375" width="125" height="125" fill="#A24D2E" />
  <rect x="1000" y="375" width="125" height="125" fill="#40282E" />
  <rect x="1125" y="375" width="125" height="125" fill="#C8B000" />
  <rect x="250" y="500" width="125" height="125" fill="#902A1B" />
  <rect x="375" y="500" width="125" height="125" fill="#DAC3A5" />
  <rect x="500" y="500" width="125" height="125" fill="#5E4D4F" />
  <rect x="625" y="500" width="125" height="125" fill="#C35A37" />
  <rect x="750" y="500" width="125" height="125" fill="#15200C" />
  <rect x="875" y="500" width="125" height="125" fill="#8A3C29" />
  <rect x="1000" y="500" width="125" height="125" fill="#BB6122" />
  <rect x="1125" y="500" width="125" height="125" fill="#6F3E2B" />
  <rect x="250" y="625" width="125" height="125" fill="#50342E" />
  <rect x="375" y="625" width="125" height="125" fill="#FFD2D2" />
  <rect x="500" y="625" width="125" height="125" fill="#4E2D24" />
  <rect x="625" y="625" width="125" height="125" fill="#4C2D27" />
  <rect x="750" y="625" width="125" height="125" fill="#5B3B2B" />
  <rect x="875" y="625" width="125" height="125" fill="#DD8C2A" />
  <rect x="1000" y="625" width="125" height="125" fill="#7D2D27" />
  <rect x="1125" y="625" width="125" height="125" fill="#3A2A2A" />
  <rect x="250" y="750" width="125" height="125" fill="#582A1C" />
  <rect x="375" y="750" width="125" height="125" fill="#B4D09B" />
  <rect x="500" y="750" width="125" height="125" fill="#736447" />
  <rect x="625" y="750" width="125" height="125" fill="#4D5B55" />
  <rect x="750" y="750" width="125" height="125" fill="#742925" />
  <rect x="875" y="750" width="125" height="125" fill="#C47939" />
  <rect x="1000" y="750" width="125" height="125" fill="#C2B21B" />
  <rect x="1125" y="750" width="125" height="125" fill="#A3552E" />
  <rect x="250" y="875" width="125" height="125" fill="#3A241F" />
  <rect x="375" y="875" width="125" height="125" fill="#8A4A36" />
  <rect x="500" y="875" width="125" height="125" fill="#7E4D50" />
  <rect x="625" y="875" width="125" height="125" fill="#DFD4A2" />
  <rect x="750" y="875" width="125" height="125" fill="#7A4E3C" />
  <rect x="875" y="875" width="125" height="125" fill="#E3B800" />
  <rect x="1000" y="875" width="125" height="125" fill="#4D2A2A" />
  <rect x="1125" y="875" width="125" height="125" fill="#D56D3E" />
  <rect x="250" y="1000" width="125" height="125" fill="#4E2F2C" />
  <rect x="375" y="1000" width="125" height="125" fill="#C7A7E6" />
  <rect x="500" y="1000" width="125" height="125" fill="#AA6A57" />
  <rect x="625" y="1000" width="125" height="125" fill="#BCA6B4" />
  <rect x="750" y="1000" width="125" height="125" fill="#C34628" />
  <rect x="875" y="1000" width="125" height="125" fill="#7A4B24" />
  <rect x="1000" y="1000" width="125" height="125" fill="#583D3B" />
  <rect x="1125" y="1000" width="125" height="125" fill="#F0E6A0" />
  <rect x="250" y="1125" width="125" height="125" fill="#A25B3A" />
  <rect x="375" y="1125" width="125" height="125" fill="#7A6358" />
  <rect x="500" y="1125" width="125" height="125" fill="#232D2D" />
  <rect x="625" y="1125" width="125" height="125" fill="#E2B957" />
  <rect x="750" y="1125" width="125" height="125" fill="#A55622" />
  <rect x="875" y="1125" width="125" height="125" fill="#8D3C3C" />
  <rect x="1000" y="1125" width="125" height="125" fill="#452C1F" />
  <rect x="1125" y="1125" width="125" height="125" fill="#7F4F23" />
  <rect x="250" y="250" width="1000" height="1000" fill="none" stroke="#151515" stroke-opacity="0.16" stroke-width="2" />
</svg>
