<svg xmlns="http://www.w3.org/2000/svg" width="1500" height="1500" viewBox="0 0 1500 1500" shape-rendering="crispEdges" role="img" aria-labelledby="title desc">
  <title id="title">Entropy and Order in White frame</title>
  <desc id="desc">Square Project artwork previewed in a white frame.</desc>
  <defs>
    <linearGradient id="frameFace" x1="0" y1="0" x2="1" y2="1">
      <stop offset="0" stop-color="#BEBEB8" />
      <stop offset="0.32" stop-color="#FFFFFF" />
      <stop offset="0.68" stop-color="#F8F8F5" />
      <stop offset="1" stop-color="#D5D5CF" />
    </linearGradient>
    <filter id="artShadow" x="-10%" y="-10%" width="120%" height="120%">
      <feDropShadow dx="0" dy="20" stdDeviation="24" flood-color="#000000" flood-opacity="0.24" />
    </filter>
  </defs>
  <rect x="0" y="0" width="1500" height="1500" fill="#FFFFFF" />
  <rect x="0" y="0" width="1500" height="1500" fill="url(#frameFace)" />
  <rect x="120" y="120" width="1260" height="1260" fill="#F8F7F3" />
  <rect x="120" y="120" width="1260" height="1260" fill="none" stroke="#000000" stroke-opacity="0.14" stroke-width="10" />
  <rect x="250" y="250" width="1000" height="1000" fill="#FFFFFF" filter="url(#artShadow)" />
  <rect x="250" y="250" width="125" height="125" fill="#7D4C3A" />
  <rect x="375" y="250" width="125" height="125" fill="#BF9B30" />
  <rect x="500" y="250" width="125" height="125" fill="#5C2E1F" />
  <rect x="625" y="250" width="125" height="125" fill="#3D2127" />
  <rect x="750" y="250" width="125" height="125" fill="#B8A3C3" />
  <rect x="875" y="250" width="125" height="125" fill="#5B4F61" />
  <rect x="1000" y="250" width="125" height="125" fill="#962B34" />
  <rect x="1125" y="250" width="125" height="125" fill="#B44A00" />
  <rect x="250" y="375" width="125" height="125" fill="#211A0D" />
  <rect x="375" y="375" width="125" height="125" fill="#D3B892" />
  <rect x="500" y="375" width="125" height="125" fill="#A06A4D" />
  <rect x="625" y="375" width="125" height="125" fill="#E0B159" />
  <rect x="750" y="375" width="125" height="125" fill="#B6A05D" />
  <rect x="875" y="375" width="125" height="125" fill="#5E2512" />
  <rect x="1000" y="375" width="125" height="125" fill="#C77338" />
  <rect x="1125" y="375" width="125" height="125" fill="#D4BF6A" />
  <rect x="250" y="500" width="125" height="125" fill="#000000" />
  <rect x="375" y="500" width="125" height="125" fill="#4A3B2A" />
  <rect x="500" y="500" width="125" height="125" fill="#715B36" />
  <rect x="625" y="500" width="125" height="125" fill="#BF9B30" />
  <rect x="750" y="500" width="125" height="125" fill="#7B3F29" />
  <rect x="875" y="500" width="125" height="125" fill="#FFD55D" />
  <rect x="1000" y="500" width="125" height="125" fill="#F28D18" />
  <rect x="1125" y="500" width="125" height="125" fill="#6A4D1C" />
  <rect x="250" y="625" width="125" height="125" fill="#1C1411" />
  <rect x="375" y="625" width="125" height="125" fill="#4F482E" />
  <rect x="500" y="625" width="125" height="125" fill="#D3A06A" />
  <rect x="625" y="625" width="125" height="125" fill="#FF5722" />
  <rect x="750" y="625" width="125" height="125" fill="#D3B892" />
  <rect x="875" y="625" width="125" height="125" fill="#6F707B" />
  <rect x="1000" y="625" width="125" height="125" fill="#C8D1B0" />
  <rect x="1125" y="625" width="125" height="125" fill="#745B4B" />
  <rect x="250" y="750" width="125" height="125" fill="#707B84" />
  <rect x="375" y="750" width="125" height="125" fill="#E8C88A" />
  <rect x="500" y="750" width="125" height="125" fill="#EA9D24" />
  <rect x="625" y="750" width="125" height="125" fill="#C4B62D" />
  <rect x="750" y="750" width="125" height="125" fill="#383D3C" />
  <rect x="875" y="750" width="125" height="125" fill="#E16441" />
  <rect x="1000" y="750" width="125" height="125" fill="#C2C4D4" />
  <rect x="1125" y="750" width="125" height="125" fill="#5B3013" />
  <rect x="250" y="875" width="125" height="125" fill="#FFE4B9" />
  <rect x="375" y="875" width="125" height="125" fill="#F28D18" />
  <rect x="500" y="875" width="125" height="125" fill="#D2AC37" />
  <rect x="625" y="875" width="125" height="125" fill="#FFF3E0" />
  <rect x="750" y="875" width="125" height="125" fill="#B68A00" />
  <rect x="875" y="875" width="125" height="125" fill="#6A4D1C" />
  <rect x="1000" y="875" width="125" height="125" fill="#2A2726" />
  <rect x="1125" y="875" width="125" height="125" fill="#3B1E1C" />
  <rect x="250" y="1000" width="125" height="125" fill="#202020" />
  <rect x="375" y="1000" width="125" height="125" fill="#FFD55D" />
  <rect x="500" y="1000" width="125" height="125" fill="#D99A55" />
  <rect x="625" y="1000" width="125" height="125" fill="#3C2F3B" />
  <rect x="750" y="1000" width="125" height="125" fill="#B74A4F" />
  <rect x="875" y="1000" width="125" height="125" fill="#D3C9F6" />
  <rect x="1000" y="1000" width="125" height="125" fill="#E0B158" />
  <rect x="1125" y="1000" width="125" height="125" fill="#C48125" />
  <rect x="250" y="1125" width="125" height="125" fill="#3B2D27" />
  <rect x="375" y="1125" width="125" height="125" fill="#E3E4C8" />
  <rect x="500" y="1125" width="125" height="125" fill="#A97A62" />
  <rect x="625" y="1125" width="125" height="125" fill="#FFD3A9" />
  <rect x="750" y="1125" width="125" height="125" fill="#DF9442" />
  <rect x="875" y="1125" width="125" height="125" fill="#57372B" />
  <rect x="1000" y="1125" width="125" height="125" fill="#8D6B48" />
  <rect x="1125" y="1125" width="125" height="125" fill="#F9B935" />
  <rect x="250" y="250" width="1000" height="1000" fill="none" stroke="#151515" stroke-opacity="0.16" stroke-width="2" />
</svg>
