<svg xmlns="http://www.w3.org/2000/svg" width="1500" height="1500" viewBox="0 0 1500 1500" shape-rendering="crispEdges" role="img" aria-labelledby="title desc">
  <title id="title">Balance in Contrast in Gold frame</title>
  <desc id="desc">Square Project artwork previewed in a gold frame.</desc>
  <rect x="0" y="0" width="1500" height="1500" fill="#FFFFFF" />
  <image href="https://mysquareart.com/frames/gold.jpg" x="0" y="0" width="1500" height="1500" preserveAspectRatio="xMidYMid meet" />
  <rect x="250" y="250" width="1000" height="1000" fill="#FFFFFF" />
  <rect x="250" y="250" width="125" height="125" fill="#2E7D32" />
  <rect x="375" y="250" width="125" height="125" fill="#A5D6A7" />
  <rect x="500" y="250" width="125" height="125" fill="#FFE0B2" />
  <rect x="625" y="250" width="125" height="125" fill="#FFC107" />
  <rect x="750" y="250" width="125" height="125" fill="#227C1B" />
  <rect x="875" y="250" width="125" height="125" fill="#795548" />
  <rect x="1000" y="250" width="125" height="125" fill="#5D4037" />
  <rect x="1125" y="250" width="125" height="125" fill="#4E342E" />
  <rect x="250" y="375" width="125" height="125" fill="#2E7D32" />
  <rect x="375" y="375" width="125" height="125" fill="#C8E6C9" />
  <rect x="500" y="375" width="125" height="125" fill="#FFCC80" />
  <rect x="625" y="375" width="125" height="125" fill="#FFA000" />
  <rect x="750" y="375" width="125" height="125" fill="#388E3C" />
  <rect x="875" y="375" width="125" height="125" fill="#6D4C41" />
  <rect x="1000" y="375" width="125" height="125" fill="#4E342E" />
  <rect x="1125" y="375" width="125" height="125" fill="#3E2723" />
  <rect x="250" y="500" width="125" height="125" fill="#66BB6A" />
  <rect x="375" y="500" width="125" height="125" fill="#D7E3BC" />
  <rect x="500" y="500" width="125" height="125" fill="#FFB74D" />
  <rect x="625" y="500" width="125" height="125" fill="#F57F17" />
  <rect x="750" y="500" width="125" height="125" fill="#81C784" />
  <rect x="875" y="500" width="125" height="125" fill="#4E342E" />
  <rect x="1000" y="500" width="125" height="125" fill="#3E2723" />
  <rect x="1125" y="500" width="125" height="125" fill="#4A148C" />
  <rect x="250" y="625" width="125" height="125" fill="#A5D6A7" />
  <rect x="375" y="625" width="125" height="125" fill="#F0F4C3" />
  <rect x="500" y="625" width="125" height="125" fill="#FFAB40" />
  <rect x="625" y="625" width="125" height="125" fill="#616161" />
  <rect x="750" y="625" width="125" height="125" fill="#A5D6A7" />
  <rect x="875" y="625" width="125" height="125" fill="#3E2723" />
  <rect x="1000" y="625" width="125" height="125" fill="#3E2723" />
  <rect x="1125" y="625" width="125" height="125" fill="#FFEB3B" />
  <rect x="250" y="750" width="125" height="125" fill="#C8E6C9" />
  <rect x="375" y="750" width="125" height="125" fill="#FFCC80" />
  <rect x="500" y="750" width="125" height="125" fill="#DCE775" />
  <rect x="625" y="750" width="125" height="125" fill="#FFB300" />
  <rect x="750" y="750" width="125" height="125" fill="#C6FF00" />
  <rect x="875" y="750" width="125" height="125" fill="#7B1FA2" />
  <rect x="1000" y="750" width="125" height="125" fill="#3E2723" />
  <rect x="1125" y="750" width="125" height="125" fill="#AEC5F3" />
  <rect x="250" y="875" width="125" height="125" fill="#B2FF59" />
  <rect x="375" y="875" width="125" height="125" fill="#FF9800" />
  <rect x="500" y="875" width="125" height="125" fill="#FFD600" />
  <rect x="625" y="875" width="125" height="125" fill="#CDDC39" />
  <rect x="750" y="875" width="125" height="125" fill="#4CAF50" />
  <rect x="875" y="875" width="125" height="125" fill="#E6EE9C" />
  <rect x="1000" y="875" width="125" height="125" fill="#3E2723" />
  <rect x="1125" y="875" width="125" height="125" fill="#BF360C" />
  <rect x="250" y="1000" width="125" height="125" fill="#74B9A5" />
  <rect x="375" y="1000" width="125" height="125" fill="#B2FF59" />
  <rect x="500" y="1000" width="125" height="125" fill="#FFE0B2" />
  <rect x="625" y="1000" width="125" height="125" fill="#FF8A65" />
  <rect x="750" y="1000" width="125" height="125" fill="#2E7D32" />
  <rect x="875" y="1000" width="125" height="125" fill="#FFAB40" />
  <rect x="1000" y="1000" width="125" height="125" fill="#4E342E" />
  <rect x="1125" y="1000" width="125" height="125" fill="#6D4C41" />
  <rect x="250" y="1125" width="125" height="125" fill="#B39DDB" />
  <rect x="375" y="1125" width="125" height="125" fill="#FFE0B2" />
  <rect x="500" y="1125" width="125" height="125" fill="#FFB74D" />
  <rect x="625" y="1125" width="125" height="125" fill="#FFC107" />
  <rect x="750" y="1125" width="125" height="125" fill="#FFD600" />
  <rect x="875" y="1125" width="125" height="125" fill="#FF5722" />
  <rect x="1000" y="1125" width="125" height="125" fill="#3E2723" />
  <rect x="1125" y="1125" width="125" height="125" fill="#C6FF00" />
  <rect x="250" y="250" width="1000" height="1000" fill="none" stroke="#151515" stroke-opacity="0.16" stroke-width="2" />
</svg>
