<svg xmlns="http://www.w3.org/2000/svg" width="1500" height="1500" viewBox="0 0 1500 1500" shape-rendering="crispEdges" role="img" aria-labelledby="title desc">
  <title id="title">Preserved Sparks in Natural frame</title>
  <desc id="desc">Square Project artwork previewed in a natural frame.</desc>
  <defs>
    <linearGradient id="frameFace" x1="0" y1="0" x2="1" y2="1">
      <stop offset="0" stop-color="#8F6F35" />
      <stop offset="0.32" stop-color="#F0DDAA" />
      <stop offset="0.68" stop-color="#D8C190" />
      <stop offset="1" stop-color="#B39155" />
    </linearGradient>
    <filter id="artShadow" x="-10%" y="-10%" width="120%" height="120%">
      <feDropShadow dx="0" dy="20" stdDeviation="24" flood-color="#000000" flood-opacity="0.24" />
    </filter>
  </defs>
  <rect x="0" y="0" width="1500" height="1500" fill="#FFFFFF" />
  <rect x="0" y="0" width="1500" height="1500" fill="url(#frameFace)" />
  <rect x="120" y="120" width="1260" height="1260" fill="#F8F7F3" />
  <rect x="120" y="120" width="1260" height="1260" fill="none" stroke="#000000" stroke-opacity="0.14" stroke-width="10" />
  <rect x="250" y="250" width="1000" height="1000" fill="#FFFFFF" filter="url(#artShadow)" />
  <rect x="250" y="250" width="125" height="125" fill="#FFDD00" />
  <rect x="375" y="250" width="125" height="125" fill="#FFAA00" />
  <rect x="500" y="250" width="125" height="125" fill="#FF7700" />
  <rect x="625" y="250" width="125" height="125" fill="#FF5500" />
  <rect x="750" y="250" width="125" height="125" fill="#532D78" />
  <rect x="875" y="250" width="125" height="125" fill="#3E2A6D" />
  <rect x="1000" y="250" width="125" height="125" fill="#241E52" />
  <rect x="1125" y="250" width="125" height="125" fill="#1E1A4E" />
  <rect x="250" y="375" width="125" height="125" fill="#FFDA00" />
  <rect x="375" y="375" width="125" height="125" fill="#FFA400" />
  <rect x="500" y="375" width="125" height="125" fill="#D55D00" />
  <rect x="625" y="375" width="125" height="125" fill="#BF4200" />
  <rect x="750" y="375" width="125" height="125" fill="#5F2C78" />
  <rect x="875" y="375" width="125" height="125" fill="#4C1E69" />
  <rect x="1000" y="375" width="125" height="125" fill="#2B1A50" />
  <rect x="1125" y="375" width="125" height="125" fill="#181431" />
  <rect x="250" y="500" width="125" height="125" fill="#FFBB00" />
  <rect x="375" y="500" width="125" height="125" fill="#FB8700" />
  <rect x="500" y="500" width="125" height="125" fill="#D55B00" />
  <rect x="625" y="500" width="125" height="125" fill="#AA2E00" />
  <rect x="750" y="500" width="125" height="125" fill="#12385F" />
  <rect x="875" y="500" width="125" height="125" fill="#4A3E78" />
  <rect x="1000" y="500" width="125" height="125" fill="#21759B" />
  <rect x="1125" y="500" width="125" height="125" fill="#080B1A" />
  <rect x="250" y="625" width="125" height="125" fill="#EEA000" />
  <rect x="375" y="625" width="125" height="125" fill="#F57300" />
  <rect x="500" y="625" width="125" height="125" fill="#C46100" />
  <rect x="625" y="625" width="125" height="125" fill="#8E1D00" />
  <rect x="750" y="625" width="125" height="125" fill="#1A2940" />
  <rect x="875" y="625" width="125" height="125" fill="#434A6D" />
  <rect x="1000" y="625" width="125" height="125" fill="#1A4A78" />
  <rect x="1125" y="625" width="125" height="125" fill="#001B44" />
  <rect x="250" y="750" width="125" height="125" fill="#D08F00" />
  <rect x="375" y="750" width="125" height="125" fill="#E76E00" />
  <rect x="500" y="750" width="125" height="125" fill="#A84B00" />
  <rect x="625" y="750" width="125" height="125" fill="#B03000" />
  <rect x="750" y="750" width="125" height="125" fill="#A63B62" />
  <rect x="875" y="750" width="125" height="125" fill="#2D2D44" />
  <rect x="1000" y="750" width="125" height="125" fill="#384F78" />
  <rect x="1125" y="750" width="125" height="125" fill="#00476A" />
  <rect x="250" y="875" width="125" height="125" fill="#B88D00" />
  <rect x="375" y="875" width="125" height="125" fill="#D15500" />
  <rect x="500" y="875" width="125" height="125" fill="#943300" />
  <rect x="625" y="875" width="125" height="125" fill="#E03000" />
  <rect x="750" y="875" width="125" height="125" fill="#A12D6B" />
  <rect x="875" y="875" width="125" height="125" fill="#5D4F78" />
  <rect x="1000" y="875" width="125" height="125" fill="#455A78" />
  <rect x="1125" y="875" width="125" height="125" fill="#008B4C" />
  <rect x="250" y="1000" width="125" height="125" fill="#DE7C00" />
  <rect x="375" y="1000" width="125" height="125" fill="#C05B00" />
  <rect x="500" y="1000" width="125" height="125" fill="#8B3D00" />
  <rect x="625" y="1000" width="125" height="125" fill="#901E00" />
  <rect x="750" y="1000" width="125" height="125" fill="#A15578" />
  <rect x="875" y="1000" width="125" height="125" fill="#3D4A50" />
  <rect x="1000" y="1000" width="125" height="125" fill="#16939E" />
  <rect x="1125" y="1000" width="125" height="125" fill="#00A368" />
  <rect x="250" y="1125" width="125" height="125" fill="#FFAB00" />
  <rect x="375" y="1125" width="125" height="125" fill="#D84D00" />
  <rect x="500" y="1125" width="125" height="125" fill="#A02800" />
  <rect x="625" y="1125" width="125" height="125" fill="#410F00" />
  <rect x="750" y="1125" width="125" height="125" fill="#C44D89" />
  <rect x="875" y="1125" width="125" height="125" fill="#4D5060" />
  <rect x="1000" y="1125" width="125" height="125" fill="#1B2B4B" />
  <rect x="1125" y="1125" width="125" height="125" fill="#00234D" />
  <rect x="250" y="250" width="1000" height="1000" fill="none" stroke="#151515" stroke-opacity="0.16" stroke-width="2" />
</svg>
