<svg xmlns="http://www.w3.org/2000/svg" width="1500" height="1500" viewBox="0 0 1500 1500" shape-rendering="crispEdges" role="img" aria-labelledby="title desc">
  <title id="title">Interweaving Tensions in Gold frame</title>
  <desc id="desc">Square Project artwork previewed in a gold frame.</desc>
  <defs>
    <linearGradient id="frameFace" x1="0" y1="0" x2="1" y2="1">
      <stop offset="0" stop-color="#FFF0A3" />
      <stop offset="0.32" stop-color="#F1D676" />
      <stop offset="0.68" stop-color="#CBA642" />
      <stop offset="1" stop-color="#8B6A1D" />
    </linearGradient>
    <filter id="artShadow" x="-10%" y="-10%" width="120%" height="120%">
      <feDropShadow dx="0" dy="20" stdDeviation="24" flood-color="#000000" flood-opacity="0.24" />
    </filter>
  </defs>
  <rect x="0" y="0" width="1500" height="1500" fill="#FFFFFF" />
  <rect x="0" y="0" width="1500" height="1500" fill="url(#frameFace)" />
  <rect x="120" y="120" width="1260" height="1260" fill="#F8F7F3" />
  <rect x="120" y="120" width="1260" height="1260" fill="none" stroke="#000000" stroke-opacity="0.14" stroke-width="10" />
  <rect x="250" y="250" width="1000" height="1000" fill="#FFFFFF" filter="url(#artShadow)" />
  <rect x="250" y="250" width="125" height="125" fill="#4C8C6D" />
  <rect x="375" y="250" width="125" height="125" fill="#4A6C5D" />
  <rect x="500" y="250" width="125" height="125" fill="#D4BBA0" />
  <rect x="625" y="250" width="125" height="125" fill="#D4A59A" />
  <rect x="750" y="250" width="125" height="125" fill="#706B5A" />
  <rect x="875" y="250" width="125" height="125" fill="#D6E3D2" />
  <rect x="1000" y="250" width="125" height="125" fill="#B2C0B5" />
  <rect x="1125" y="250" width="125" height="125" fill="#A3A69D" />
  <rect x="250" y="375" width="125" height="125" fill="#A3A69D" />
  <rect x="375" y="375" width="125" height="125" fill="#B2C0B5" />
  <rect x="500" y="375" width="125" height="125" fill="#D5BDAF" />
  <rect x="625" y="375" width="125" height="125" fill="#D8D6C8" />
  <rect x="750" y="375" width="125" height="125" fill="#DAEDD6" />
  <rect x="875" y="375" width="125" height="125" fill="#8CC7EA" />
  <rect x="1000" y="375" width="125" height="125" fill="#5C7E8A" />
  <rect x="1125" y="375" width="125" height="125" fill="#5A8077" />
  <rect x="250" y="500" width="125" height="125" fill="#B8D0C8" />
  <rect x="375" y="500" width="125" height="125" fill="#C9D9D8" />
  <rect x="500" y="500" width="125" height="125" fill="#537480" />
  <rect x="625" y="500" width="125" height="125" fill="#5B8A79" />
  <rect x="750" y="500" width="125" height="125" fill="#A8B8A3" />
  <rect x="875" y="500" width="125" height="125" fill="#C4D5A5" />
  <rect x="1000" y="500" width="125" height="125" fill="#DFBFAD" />
  <rect x="1125" y="500" width="125" height="125" fill="#8F9A8A" />
  <rect x="250" y="625" width="125" height="125" fill="#556D61" />
  <rect x="375" y="625" width="125" height="125" fill="#6C8F7E" />
  <rect x="500" y="625" width="125" height="125" fill="#D4E3D9" />
  <rect x="625" y="625" width="125" height="125" fill="#E3E6E9" />
  <rect x="750" y="625" width="125" height="125" fill="#B1D1C9" />
  <rect x="875" y="625" width="125" height="125" fill="#C19B8E" />
  <rect x="1000" y="625" width="125" height="125" fill="#A3533D" />
  <rect x="1125" y="625" width="125" height="125" fill="#5E7D7A" />
  <rect x="250" y="750" width="125" height="125" fill="#6B4A2D" />
  <rect x="375" y="750" width="125" height="125" fill="#8C997C" />
  <rect x="500" y="750" width="125" height="125" fill="#B9D1D0" />
  <rect x="625" y="750" width="125" height="125" fill="#D3E4DF" />
  <rect x="750" y="750" width="125" height="125" fill="#A1BEC0" />
  <rect x="875" y="750" width="125" height="125" fill="#BAC6B4" />
  <rect x="1000" y="750" width="125" height="125" fill="#E1E3E1" />
  <rect x="1125" y="750" width="125" height="125" fill="#DADCD5" />
  <rect x="250" y="875" width="125" height="125" fill="#B7C5B2" />
  <rect x="375" y="875" width="125" height="125" fill="#C8E7E0" />
  <rect x="500" y="875" width="125" height="125" fill="#D2C6C5" />
  <rect x="625" y="875" width="125" height="125" fill="#D6ECC7" />
  <rect x="750" y="875" width="125" height="125" fill="#A6C6DA" />
  <rect x="875" y="875" width="125" height="125" fill="#DEBBA5" />
  <rect x="1000" y="875" width="125" height="125" fill="#6A825A" />
  <rect x="1125" y="875" width="125" height="125" fill="#4F553E" />
  <rect x="250" y="1000" width="125" height="125" fill="#3B4B44" />
  <rect x="375" y="1000" width="125" height="125" fill="#7D8B81" />
  <rect x="500" y="1000" width="125" height="125" fill="#D6BC92" />
  <rect x="625" y="1000" width="125" height="125" fill="#B7D7B7" />
  <rect x="750" y="1000" width="125" height="125" fill="#E4D4D5" />
  <rect x="875" y="1000" width="125" height="125" fill="#C3D8D4" />
  <rect x="1000" y="1000" width="125" height="125" fill="#B0BCB2" />
  <rect x="1125" y="1000" width="125" height="125" fill="#7B726D" />
  <rect x="250" y="1125" width="125" height="125" fill="#6E8A75" />
  <rect x="375" y="1125" width="125" height="125" fill="#657663" />
  <rect x="500" y="1125" width="125" height="125" fill="#B3D7BF" />
  <rect x="625" y="1125" width="125" height="125" fill="#C8D6E7" />
  <rect x="750" y="1125" width="125" height="125" fill="#D8D6D1" />
  <rect x="875" y="1125" width="125" height="125" fill="#B3A590" />
  <rect x="1000" y="1125" width="125" height="125" fill="#828B7D" />
  <rect x="1125" y="1125" width="125" height="125" fill="#1E3039" />
  <rect x="250" y="250" width="1000" height="1000" fill="none" stroke="#151515" stroke-opacity="0.16" stroke-width="2" />
</svg>
