<svg xmlns="http://www.w3.org/2000/svg" width="1500" height="1500" viewBox="0 0 1500 1500" shape-rendering="crispEdges" role="img" aria-labelledby="title desc">
  <title id="title">Pressure vs Release in Black frame</title>
  <desc id="desc">Square Project artwork previewed in a black frame.</desc>
  <rect x="0" y="0" width="1500" height="1500" fill="#FFFFFF" />
  <image href="https://mysquareart.com/frames/black.jpg" x="0" y="0" width="1500" height="1500" preserveAspectRatio="xMidYMid meet" />
  <rect x="250" y="250" width="1000" height="1000" fill="#FFFFFF" />
  <rect x="250" y="250" width="125" height="125" fill="#534F4D" />
  <rect x="375" y="250" width="125" height="125" fill="#6D6A5C" />
  <rect x="500" y="250" width="125" height="125" fill="#AFA488" />
  <rect x="625" y="250" width="125" height="125" fill="#E0CBAF" />
  <rect x="750" y="250" width="125" height="125" fill="#F7E1A8" />
  <rect x="875" y="250" width="125" height="125" fill="#C0C4B7" />
  <rect x="1000" y="250" width="125" height="125" fill="#839AA6" />
  <rect x="1125" y="250" width="125" height="125" fill="#3E4D5E" />
  <rect x="250" y="375" width="125" height="125" fill="#1C2326" />
  <rect x="375" y="375" width="125" height="125" fill="#485C6E" />
  <rect x="500" y="375" width="125" height="125" fill="#AFB4A0" />
  <rect x="625" y="375" width="125" height="125" fill="#CEB6A2" />
  <rect x="750" y="375" width="125" height="125" fill="#F8D79B" />
  <rect x="875" y="375" width="125" height="125" fill="#B8C168" />
  <rect x="1000" y="375" width="125" height="125" fill="#A4BE94" />
  <rect x="1125" y="375" width="125" height="125" fill="#DFD7CE" />
  <rect x="250" y="500" width="125" height="125" fill="#2C313C" />
  <rect x="375" y="500" width="125" height="125" fill="#5B6772" />
  <rect x="500" y="500" width="125" height="125" fill="#BAC6B4" />
  <rect x="625" y="500" width="125" height="125" fill="#E7E3D8" />
  <rect x="750" y="500" width="125" height="125" fill="#F7F3EA" />
  <rect x="875" y="500" width="125" height="125" fill="#B7C9E0" />
  <rect x="1000" y="500" width="125" height="125" fill="#8DE1F4" />
  <rect x="1125" y="500" width="125" height="125" fill="#F5F8BF" />
  <rect x="250" y="625" width="125" height="125" fill="#3A3F45" />
  <rect x="375" y="625" width="125" height="125" fill="#B7C8C7" />
  <rect x="500" y="625" width="125" height="125" fill="#D4E8DC" />
  <rect x="625" y="625" width="125" height="125" fill="#C8D9C8" />
  <rect x="750" y="625" width="125" height="125" fill="#A1B4B0" />
  <rect x="875" y="625" width="125" height="125" fill="#A7B4A1" />
  <rect x="1000" y="625" width="125" height="125" fill="#D1D7CC" />
  <rect x="1125" y="625" width="125" height="125" fill="#E7EDA8" />
  <rect x="250" y="750" width="125" height="125" fill="#484B4D" />
  <rect x="375" y="750" width="125" height="125" fill="#5E737D" />
  <rect x="500" y="750" width="125" height="125" fill="#B0C3BF" />
  <rect x="625" y="750" width="125" height="125" fill="#D6E2D1" />
  <rect x="750" y="750" width="125" height="125" fill="#F6F8E8" />
  <rect x="875" y="750" width="125" height="125" fill="#C7D4DC" />
  <rect x="1000" y="750" width="125" height="125" fill="#8EB4B6" />
  <rect x="1125" y="750" width="125" height="125" fill="#F7F7D0" />
  <rect x="250" y="875" width="125" height="125" fill="#3A4042" />
  <rect x="375" y="875" width="125" height="125" fill="#6B777F" />
  <rect x="500" y="875" width="125" height="125" fill="#9EB9A8" />
  <rect x="625" y="875" width="125" height="125" fill="#D9E4D7" />
  <rect x="750" y="875" width="125" height="125" fill="#F7F8EC" />
  <rect x="875" y="875" width="125" height="125" fill="#C2D9CC" />
  <rect x="1000" y="875" width="125" height="125" fill="#9BC7C3" />
  <rect x="1125" y="875" width="125" height="125" fill="#F4F7D5" />
  <rect x="250" y="1000" width="125" height="125" fill="#151B1E" />
  <rect x="375" y="1000" width="125" height="125" fill="#363F41" />
  <rect x="500" y="1000" width="125" height="125" fill="#758B99" />
  <rect x="625" y="1000" width="125" height="125" fill="#B4C9B0" />
  <rect x="750" y="1000" width="125" height="125" fill="#DEEBDA" />
  <rect x="875" y="1000" width="125" height="125" fill="#F5FAF4" />
  <rect x="1000" y="1000" width="125" height="125" fill="#A7BFA1" />
  <rect x="1125" y="1000" width="125" height="125" fill="#E5E7D2" />
  <rect x="250" y="1125" width="125" height="125" fill="#010101" />
  <rect x="375" y="1125" width="125" height="125" fill="#222426" />
  <rect x="500" y="1125" width="125" height="125" fill="#4C5455" />
  <rect x="625" y="1125" width="125" height="125" fill="#7A8C8E" />
  <rect x="750" y="1125" width="125" height="125" fill="#B52D2D" />
  <rect x="875" y="1125" width="125" height="125" fill="#AA8E99" />
  <rect x="1000" y="1125" width="125" height="125" fill="#F4F2E7" />
  <rect x="1125" y="1125" width="125" height="125" fill="#FFFFFF" />
  <rect x="250" y="250" width="1000" height="1000" fill="none" stroke="#151515" stroke-opacity="0.16" stroke-width="2" />
</svg>
