<svg xmlns="http://www.w3.org/2000/svg" width="1500" height="1500" viewBox="0 0 1500 1500" shape-rendering="crispEdges" role="img" aria-labelledby="title desc">
  <title id="title">Tension and Tranquility in Brown frame</title>
  <desc id="desc">Square Project artwork previewed in a brown frame.</desc>
  <rect x="0" y="0" width="1500" height="1500" fill="#FFFFFF" />
  <image href="https://mysquareart.com/frames/brown.jpg" x="0" y="0" width="1500" height="1500" preserveAspectRatio="xMidYMid meet" />
  <rect x="250" y="250" width="1000" height="1000" fill="#FFFFFF" />
  <rect x="250" y="250" width="125" height="125" fill="#C4B6A6" />
  <rect x="375" y="250" width="125" height="125" fill="#6B3F3D" />
  <rect x="500" y="250" width="125" height="125" fill="#FBE1BE" />
  <rect x="625" y="250" width="125" height="125" fill="#AC8772" />
  <rect x="750" y="250" width="125" height="125" fill="#6A4A52" />
  <rect x="875" y="250" width="125" height="125" fill="#D8BD98" />
  <rect x="1000" y="250" width="125" height="125" fill="#F4E0C7" />
  <rect x="1125" y="250" width="125" height="125" fill="#F2FDFF" />
  <rect x="250" y="375" width="125" height="125" fill="#8F5973" />
  <rect x="375" y="375" width="125" height="125" fill="#EBD1D2" />
  <rect x="500" y="375" width="125" height="125" fill="#D2BB91" />
  <rect x="625" y="375" width="125" height="125" fill="#C6A663" />
  <rect x="750" y="375" width="125" height="125" fill="#A85D4D" />
  <rect x="875" y="375" width="125" height="125" fill="#B9B1A2" />
  <rect x="1000" y="375" width="125" height="125" fill="#F6E2CD" />
  <rect x="1125" y="375" width="125" height="125" fill="#A87268" />
  <rect x="250" y="500" width="125" height="125" fill="#E5D3C7" />
  <rect x="375" y="500" width="125" height="125" fill="#D58B85" />
  <rect x="500" y="500" width="125" height="125" fill="#F3E0A5" />
  <rect x="625" y="500" width="125" height="125" fill="#B57C63" />
  <rect x="750" y="500" width="125" height="125" fill="#905D60" />
  <rect x="875" y="500" width="125" height="125" fill="#E0C3B9" />
  <rect x="1000" y="500" width="125" height="125" fill="#978767" />
  <rect x="1125" y="500" width="125" height="125" fill="#EAE3D6" />
  <rect x="250" y="625" width="125" height="125" fill="#634E4F" />
  <rect x="375" y="625" width="125" height="125" fill="#D1B2C5" />
  <rect x="500" y="625" width="125" height="125" fill="#E2E4F0" />
  <rect x="625" y="625" width="125" height="125" fill="#B0A58F" />
  <rect x="750" y="625" width="125" height="125" fill="#4B4E50" />
  <rect x="875" y="625" width="125" height="125" fill="#D3C9B7" />
  <rect x="1000" y="625" width="125" height="125" fill="#C7C78A" />
  <rect x="1125" y="625" width="125" height="125" fill="#FCE1BD" />
  <rect x="250" y="750" width="125" height="125" fill="#4A2C2F" />
  <rect x="375" y="750" width="125" height="125" fill="#F1E2DC" />
  <rect x="500" y="750" width="125" height="125" fill="#D8D9DD" />
  <rect x="625" y="750" width="125" height="125" fill="#EECDC8" />
  <rect x="750" y="750" width="125" height="125" fill="#9A826F" />
  <rect x="875" y="750" width="125" height="125" fill="#575A54" />
  <rect x="1000" y="750" width="125" height="125" fill="#CFC4AA" />
  <rect x="1125" y="750" width="125" height="125" fill="#E9C6B3" />
  <rect x="250" y="875" width="125" height="125" fill="#F7F2FB" />
  <rect x="375" y="875" width="125" height="125" fill="#C6B29D" />
  <rect x="500" y="875" width="125" height="125" fill="#BC998E" />
  <rect x="625" y="875" width="125" height="125" fill="#78574B" />
  <rect x="750" y="875" width="125" height="125" fill="#37493E" />
  <rect x="875" y="875" width="125" height="125" fill="#D7E8D2" />
  <rect x="1000" y="875" width="125" height="125" fill="#ECCEAB" />
  <rect x="1125" y="875" width="125" height="125" fill="#A72532" />
  <rect x="250" y="1000" width="125" height="125" fill="#6B2B29" />
  <rect x="375" y="1000" width="125" height="125" fill="#FEF3EB" />
  <rect x="500" y="1000" width="125" height="125" fill="#FAE1DD" />
  <rect x="625" y="1000" width="125" height="125" fill="#BB6F75" />
  <rect x="750" y="1000" width="125" height="125" fill="#605853" />
  <rect x="875" y="1000" width="125" height="125" fill="#F7F5EC" />
  <rect x="1000" y="1000" width="125" height="125" fill="#B8A093" />
  <rect x="1125" y="1000" width="125" height="125" fill="#F8E3B3" />
  <rect x="250" y="1125" width="125" height="125" fill="#D3C9C6" />
  <rect x="375" y="1125" width="125" height="125" fill="#625B57" />
  <rect x="500" y="1125" width="125" height="125" fill="#FFF8E1" />
  <rect x="625" y="1125" width="125" height="125" fill="#90B3AA" />
  <rect x="750" y="1125" width="125" height="125" fill="#CF5F53" />
  <rect x="875" y="1125" width="125" height="125" fill="#D4B7A6" />
  <rect x="1000" y="1125" width="125" height="125" fill="#F3F1F5" />
  <rect x="1125" y="1125" width="125" height="125" fill="#C8D9D8" />
  <rect x="250" y="250" width="1000" height="1000" fill="none" stroke="#151515" stroke-opacity="0.16" stroke-width="2" />
</svg>
