<svg xmlns="http://www.w3.org/2000/svg" width="1500" height="1500" viewBox="0 0 1500 1500" shape-rendering="crispEdges" role="img" aria-labelledby="title desc">
  <title id="title">Tension and Release in Gold frame</title>
  <desc id="desc">Square Project artwork previewed in a gold frame.</desc>
  <rect x="0" y="0" width="1500" height="1500" fill="#FFFFFF" />
  <image href="https://mysquareart.com/frames/gold.jpg" x="0" y="0" width="1500" height="1500" preserveAspectRatio="xMidYMid meet" />
  <rect x="250" y="250" width="1000" height="1000" fill="#FFFFFF" />
  <rect x="250" y="250" width="125" height="125" fill="#A4DBE3" />
  <rect x="375" y="250" width="125" height="125" fill="#A1B3B8" />
  <rect x="500" y="250" width="125" height="125" fill="#C1352D" />
  <rect x="625" y="250" width="125" height="125" fill="#5471A3" />
  <rect x="750" y="250" width="125" height="125" fill="#A4DBE3" />
  <rect x="875" y="250" width="125" height="125" fill="#C2DBE3" />
  <rect x="1000" y="250" width="125" height="125" fill="#C64031" />
  <rect x="1125" y="250" width="125" height="125" fill="#E8F6F8" />
  <rect x="250" y="375" width="125" height="125" fill="#889BA0" />
  <rect x="375" y="375" width="125" height="125" fill="#AEB8B5" />
  <rect x="500" y="375" width="125" height="125" fill="#FF6B6E" />
  <rect x="625" y="375" width="125" height="125" fill="#3D404D" />
  <rect x="750" y="375" width="125" height="125" fill="#C0E8E7" />
  <rect x="875" y="375" width="125" height="125" fill="#B1C8CC" />
  <rect x="1000" y="375" width="125" height="125" fill="#A23725" />
  <rect x="1125" y="375" width="125" height="125" fill="#F9F9F9" />
  <rect x="250" y="500" width="125" height="125" fill="#B7C9CE" />
  <rect x="375" y="500" width="125" height="125" fill="#DFE4E5" />
  <rect x="500" y="500" width="125" height="125" fill="#A40000" />
  <rect x="625" y="500" width="125" height="125" fill="#F5666D" />
  <rect x="750" y="500" width="125" height="125" fill="#B9D6D4" />
  <rect x="875" y="500" width="125" height="125" fill="#A0B1B4" />
  <rect x="1000" y="500" width="125" height="125" fill="#FF21A7" />
  <rect x="1125" y="500" width="125" height="125" fill="#F9F9F9" />
  <rect x="250" y="625" width="125" height="125" fill="#BAC3C8" />
  <rect x="375" y="625" width="125" height="125" fill="#95B1B4" />
  <rect x="500" y="625" width="125" height="125" fill="#FFC3B1" />
  <rect x="625" y="625" width="125" height="125" fill="#2F3856" />
  <rect x="750" y="625" width="125" height="125" fill="#4A9DB7" />
  <rect x="875" y="625" width="125" height="125" fill="#D5E5E5" />
  <rect x="1000" y="625" width="125" height="125" fill="#D5D7DB" />
  <rect x="1125" y="625" width="125" height="125" fill="#F1F8FB" />
  <rect x="250" y="750" width="125" height="125" fill="#B0C7CE" />
  <rect x="375" y="750" width="125" height="125" fill="#E8F9F9" />
  <rect x="500" y="750" width="125" height="125" fill="#667894" />
  <rect x="625" y="750" width="125" height="125" fill="#6D7E93" />
  <rect x="750" y="750" width="125" height="125" fill="#C3D5D8" />
  <rect x="875" y="750" width="125" height="125" fill="#C0B2B5" />
  <rect x="1000" y="750" width="125" height="125" fill="#FF7A5D" />
  <rect x="1125" y="750" width="125" height="125" fill="#F3F7F7" />
  <rect x="250" y="875" width="125" height="125" fill="#A1B9B2" />
  <rect x="375" y="875" width="125" height="125" fill="#9BC0C2" />
  <rect x="500" y="875" width="125" height="125" fill="#FC3332" />
  <rect x="625" y="875" width="125" height="125" fill="#73B0C6" />
  <rect x="750" y="875" width="125" height="125" fill="#F4F9FA" />
  <rect x="875" y="875" width="125" height="125" fill="#E8EBE8" />
  <rect x="1000" y="875" width="125" height="125" fill="#D2D5D3" />
  <rect x="1125" y="875" width="125" height="125" fill="#F7F8F8" />
  <rect x="250" y="1000" width="125" height="125" fill="#BCDFE3" />
  <rect x="375" y="1000" width="125" height="125" fill="#A6B9B6" />
  <rect x="500" y="1000" width="125" height="125" fill="#D9B28C" />
  <rect x="625" y="1000" width="125" height="125" fill="#A7D7D8" />
  <rect x="750" y="1000" width="125" height="125" fill="#D6D9D8" />
  <rect x="875" y="1000" width="125" height="125" fill="#3D5A62" />
  <rect x="1000" y="1000" width="125" height="125" fill="#FFD9D7" />
  <rect x="1125" y="1000" width="125" height="125" fill="#F9F9F9" />
  <rect x="250" y="1125" width="125" height="125" fill="#C3DBE2" />
  <rect x="375" y="1125" width="125" height="125" fill="#B1C3C4" />
  <rect x="500" y="1125" width="125" height="125" fill="#E3BB29" />
  <rect x="625" y="1125" width="125" height="125" fill="#BAC0C2" />
  <rect x="750" y="1125" width="125" height="125" fill="#E1E7E7" />
  <rect x="875" y="1125" width="125" height="125" fill="#FF5B47" />
  <rect x="1000" y="1125" width="125" height="125" fill="#B2C1C3" />
  <rect x="1125" y="1125" width="125" height="125" fill="#FFFFFF" />
  <rect x="250" y="250" width="1000" height="1000" fill="none" stroke="#151515" stroke-opacity="0.16" stroke-width="2" />
</svg>
