<svg xmlns="http://www.w3.org/2000/svg" width="1500" height="1500" viewBox="0 0 1500 1500" shape-rendering="crispEdges" role="img" aria-labelledby="title desc">
  <title id="title">Order vs Chaos: The Threshold in Brown frame</title>
  <desc id="desc">Square Project artwork previewed in a brown frame.</desc>
  <defs>
    <linearGradient id="frameFace" x1="0" y1="0" x2="1" y2="1">
      <stop offset="0" stop-color="#C18A55" />
      <stop offset="0.32" stop-color="#9A6840" />
      <stop offset="0.68" stop-color="#70401F" />
      <stop offset="1" stop-color="#3F2413" />
    </linearGradient>
    <filter id="artShadow" x="-10%" y="-10%" width="120%" height="120%">
      <feDropShadow dx="0" dy="20" stdDeviation="24" flood-color="#000000" flood-opacity="0.24" />
    </filter>
  </defs>
  <rect x="0" y="0" width="1500" height="1500" fill="#FFFFFF" />
  <rect x="0" y="0" width="1500" height="1500" fill="url(#frameFace)" />
  <rect x="120" y="120" width="1260" height="1260" fill="#F8F7F3" />
  <rect x="120" y="120" width="1260" height="1260" fill="none" stroke="#000000" stroke-opacity="0.14" stroke-width="10" />
  <rect x="250" y="250" width="1000" height="1000" fill="#FFFFFF" filter="url(#artShadow)" />
  <rect x="250" y="250" width="125" height="125" fill="#6C8CD9" />
  <rect x="375" y="250" width="125" height="125" fill="#9AB6E5" />
  <rect x="500" y="250" width="125" height="125" fill="#A5C3E1" />
  <rect x="625" y="250" width="125" height="125" fill="#C7E3F8" />
  <rect x="750" y="250" width="125" height="125" fill="#F1F5F9" />
  <rect x="875" y="250" width="125" height="125" fill="#E0E5E9" />
  <rect x="1000" y="250" width="125" height="125" fill="#C0C2C6" />
  <rect x="1125" y="250" width="125" height="125" fill="#99A3AF" />
  <rect x="250" y="375" width="125" height="125" fill="#8C7BCE" />
  <rect x="375" y="375" width="125" height="125" fill="#7F73B9" />
  <rect x="500" y="375" width="125" height="125" fill="#6F69A1" />
  <rect x="625" y="375" width="125" height="125" fill="#5C5B8A" />
  <rect x="750" y="375" width="125" height="125" fill="#515076" />
  <rect x="875" y="375" width="125" height="125" fill="#48446D" />
  <rect x="1000" y="375" width="125" height="125" fill="#36354F" />
  <rect x="1125" y="375" width="125" height="125" fill="#2B2C38" />
  <rect x="250" y="500" width="125" height="125" fill="#7F7F8A" />
  <rect x="375" y="500" width="125" height="125" fill="#505050" />
  <rect x="500" y="500" width="125" height="125" fill="#696969" />
  <rect x="625" y="500" width="125" height="125" fill="#8C8C90" />
  <rect x="750" y="500" width="125" height="125" fill="#B3B3B3" />
  <rect x="875" y="500" width="125" height="125" fill="#E5E5E5" />
  <rect x="1000" y="500" width="125" height="125" fill="#DCDCDC" />
  <rect x="1125" y="500" width="125" height="125" fill="#C0C0C0" />
  <rect x="250" y="625" width="125" height="125" fill="#485162" />
  <rect x="375" y="625" width="125" height="125" fill="#374C58" />
  <rect x="500" y="625" width="125" height="125" fill="#243B42" />
  <rect x="625" y="625" width="125" height="125" fill="#0F262C" />
  <rect x="750" y="625" width="125" height="125" fill="#0C1E26" />
  <rect x="875" y="625" width="125" height="125" fill="#0B1420" />
  <rect x="1000" y="625" width="125" height="125" fill="#0A0B14" />
  <rect x="1125" y="625" width="125" height="125" fill="#070808" />
  <rect x="250" y="750" width="125" height="125" fill="#E3E4E8" />
  <rect x="375" y="750" width="125" height="125" fill="#F1F2F4" />
  <rect x="500" y="750" width="125" height="125" fill="#C8D0DA" />
  <rect x="625" y="750" width="125" height="125" fill="#A7B4C0" />
  <rect x="750" y="750" width="125" height="125" fill="#8CA1B5" />
  <rect x="875" y="750" width="125" height="125" fill="#748793" />
  <rect x="1000" y="750" width="125" height="125" fill="#586B80" />
  <rect x="1125" y="750" width="125" height="125" fill="#455157" />
  <rect x="250" y="875" width="125" height="125" fill="#E8E9EE" />
  <rect x="375" y="875" width="125" height="125" fill="#CDD2D6" />
  <rect x="500" y="875" width="125" height="125" fill="#ABB3BC" />
  <rect x="625" y="875" width="125" height="125" fill="#7F8693" />
  <rect x="750" y="875" width="125" height="125" fill="#666C78" />
  <rect x="875" y="875" width="125" height="125" fill="#47515B" />
  <rect x="1000" y="875" width="125" height="125" fill="#364C56" />
  <rect x="1125" y="875" width="125" height="125" fill="#283B43" />
  <rect x="250" y="1000" width="125" height="125" fill="#CCCFE6" />
  <rect x="375" y="1000" width="125" height="125" fill="#B7BBD0" />
  <rect x="500" y="1000" width="125" height="125" fill="#A2A9BB" />
  <rect x="625" y="1000" width="125" height="125" fill="#8F8F99" />
  <rect x="750" y="1000" width="125" height="125" fill="#7B7B80" />
  <rect x="875" y="1000" width="125" height="125" fill="#60606A" />
  <rect x="1000" y="1000" width="125" height="125" fill="#535354" />
  <rect x="1125" y="1000" width="125" height="125" fill="#424246" />
  <rect x="250" y="1125" width="125" height="125" fill="#4B738C" />
  <rect x="375" y="1125" width="125" height="125" fill="#8BC3CB" />
  <rect x="500" y="1125" width="125" height="125" fill="#C1E1E2" />
  <rect x="625" y="1125" width="125" height="125" fill="#E8F3F1" />
  <rect x="750" y="1125" width="125" height="125" fill="#F9F9F9" />
  <rect x="875" y="1125" width="125" height="125" fill="#F2F2F2" />
  <rect x="1000" y="1125" width="125" height="125" fill="#E0E0E0" />
  <rect x="1125" y="1125" width="125" height="125" fill="#C8C8C8" />
  <rect x="250" y="250" width="1000" height="1000" fill="none" stroke="#151515" stroke-opacity="0.16" stroke-width="2" />
</svg>
