<svg xmlns="http://www.w3.org/2000/svg" width="1500" height="1500" viewBox="0 0 1500 1500" shape-rendering="crispEdges" role="img" aria-labelledby="title desc">
  <title id="title">Tension of Boundaries in Brown frame</title>
  <desc id="desc">Square Project artwork previewed in a brown frame.</desc>
  <rect x="0" y="0" width="1500" height="1500" fill="#FFFFFF" />
  <image href="https://mysquareart.com/frames/brown.jpg" x="0" y="0" width="1500" height="1500" preserveAspectRatio="xMidYMid meet" />
  <rect x="250" y="250" width="1000" height="1000" fill="#FFFFFF" />
  <rect x="250" y="250" width="125" height="125" fill="#A8E44C" />
  <rect x="375" y="250" width="125" height="125" fill="#FDF68E" />
  <rect x="500" y="250" width="125" height="125" fill="#D8C38A" />
  <rect x="625" y="250" width="125" height="125" fill="#7B7B63" />
  <rect x="750" y="250" width="125" height="125" fill="#7F5422" />
  <rect x="875" y="250" width="125" height="125" fill="#493B11" />
  <rect x="1000" y="250" width="125" height="125" fill="#E1E01F" />
  <rect x="1125" y="250" width="125" height="125" fill="#D8E0C1" />
  <rect x="250" y="375" width="125" height="125" fill="#6A8C6F" />
  <rect x="375" y="375" width="125" height="125" fill="#A56C25" />
  <rect x="500" y="375" width="125" height="125" fill="#2E5647" />
  <rect x="625" y="375" width="125" height="125" fill="#B6BB00" />
  <rect x="750" y="375" width="125" height="125" fill="#E9E8A2" />
  <rect x="875" y="375" width="125" height="125" fill="#4E5C4A" />
  <rect x="1000" y="375" width="125" height="125" fill="#B4CD45" />
  <rect x="1125" y="375" width="125" height="125" fill="#BFB5BF" />
  <rect x="250" y="500" width="125" height="125" fill="#8B977E" />
  <rect x="375" y="500" width="125" height="125" fill="#F1D57A" />
  <rect x="500" y="500" width="125" height="125" fill="#D5BB2A" />
  <rect x="625" y="500" width="125" height="125" fill="#C7D8F1" />
  <rect x="750" y="500" width="125" height="125" fill="#CFE378" />
  <rect x="875" y="500" width="125" height="125" fill="#A0A12A" />
  <rect x="1000" y="500" width="125" height="125" fill="#A6D29F" />
  <rect x="1125" y="500" width="125" height="125" fill="#B0D3C2" />
  <rect x="250" y="625" width="125" height="125" fill="#4F7417" />
  <rect x="375" y="625" width="125" height="125" fill="#BE7E2C" />
  <rect x="500" y="625" width="125" height="125" fill="#DAD370" />
  <rect x="625" y="625" width="125" height="125" fill="#C0DA28" />
  <rect x="750" y="625" width="125" height="125" fill="#B3C35F" />
  <rect x="875" y="625" width="125" height="125" fill="#C3D0A2" />
  <rect x="1000" y="625" width="125" height="125" fill="#BEA0CB" />
  <rect x="1125" y="625" width="125" height="125" fill="#F28CA7" />
  <rect x="250" y="750" width="125" height="125" fill="#C5D36E" />
  <rect x="375" y="750" width="125" height="125" fill="#E0D19E" />
  <rect x="500" y="750" width="125" height="125" fill="#99C0FE" />
  <rect x="625" y="750" width="125" height="125" fill="#36B858" />
  <rect x="750" y="750" width="125" height="125" fill="#A4D862" />
  <rect x="875" y="750" width="125" height="125" fill="#889F0D" />
  <rect x="1000" y="750" width="125" height="125" fill="#B2C48A" />
  <rect x="1125" y="750" width="125" height="125" fill="#F08D32" />
  <rect x="250" y="875" width="125" height="125" fill="#B8EAE0" />
  <rect x="375" y="875" width="125" height="125" fill="#6F6E5B" />
  <rect x="500" y="875" width="125" height="125" fill="#FF48B0" />
  <rect x="625" y="875" width="125" height="125" fill="#868D66" />
  <rect x="750" y="875" width="125" height="125" fill="#F2C28A" />
  <rect x="875" y="875" width="125" height="125" fill="#EBD141" />
  <rect x="1000" y="875" width="125" height="125" fill="#D8B4F4" />
  <rect x="1125" y="875" width="125" height="125" fill="#71C2CD" />
  <rect x="250" y="1000" width="125" height="125" fill="#82B185" />
  <rect x="375" y="1000" width="125" height="125" fill="#4C4E39" />
  <rect x="500" y="1000" width="125" height="125" fill="#D4E3A2" />
  <rect x="625" y="1000" width="125" height="125" fill="#EFCE9F" />
  <rect x="750" y="1000" width="125" height="125" fill="#B39D3C" />
  <rect x="875" y="1000" width="125" height="125" fill="#C8D6B3" />
  <rect x="1000" y="1000" width="125" height="125" fill="#B1D60D" />
  <rect x="1125" y="1000" width="125" height="125" fill="#D6D6D4" />
  <rect x="250" y="1125" width="125" height="125" fill="#7C60BC" />
  <rect x="375" y="1125" width="125" height="125" fill="#E3D4A2" />
  <rect x="500" y="1125" width="125" height="125" fill="#A9B072" />
  <rect x="625" y="1125" width="125" height="125" fill="#70C7F3" />
  <rect x="750" y="1125" width="125" height="125" fill="#B9930E" />
  <rect x="875" y="1125" width="125" height="125" fill="#A5E568" />
  <rect x="1000" y="1125" width="125" height="125" fill="#D1E3B5" />
  <rect x="1125" y="1125" width="125" height="125" fill="#2C2E2D" />
  <rect x="250" y="250" width="1000" height="1000" fill="none" stroke="#151515" stroke-opacity="0.16" stroke-width="2" />
</svg>
