<svg xmlns="http://www.w3.org/2000/svg" width="1500" height="1500" viewBox="0 0 1500 1500" shape-rendering="crispEdges" role="img" aria-labelledby="title desc">
  <title id="title">Order and Chaos in Natural frame</title>
  <desc id="desc">Square Project artwork previewed in a natural frame.</desc>
  <defs>
    <linearGradient id="frameFace" x1="0" y1="0" x2="1" y2="1">
      <stop offset="0" stop-color="#8F6F35" />
      <stop offset="0.32" stop-color="#F0DDAA" />
      <stop offset="0.68" stop-color="#D8C190" />
      <stop offset="1" stop-color="#B39155" />
    </linearGradient>
    <filter id="artShadow" x="-10%" y="-10%" width="120%" height="120%">
      <feDropShadow dx="0" dy="20" stdDeviation="24" flood-color="#000000" flood-opacity="0.24" />
    </filter>
  </defs>
  <rect x="0" y="0" width="1500" height="1500" fill="#FFFFFF" />
  <rect x="0" y="0" width="1500" height="1500" fill="url(#frameFace)" />
  <rect x="120" y="120" width="1260" height="1260" fill="#F8F7F3" />
  <rect x="120" y="120" width="1260" height="1260" fill="none" stroke="#000000" stroke-opacity="0.14" stroke-width="10" />
  <rect x="250" y="250" width="1000" height="1000" fill="#FFFFFF" filter="url(#artShadow)" />
  <rect x="250" y="250" width="125" height="125" fill="#000000" />
  <rect x="375" y="250" width="125" height="125" fill="#000000" />
  <rect x="500" y="250" width="125" height="125" fill="#001F3F" />
  <rect x="625" y="250" width="125" height="125" fill="#003D5B" />
  <rect x="750" y="250" width="125" height="125" fill="#00577E" />
  <rect x="875" y="250" width="125" height="125" fill="#005B99" />
  <rect x="1000" y="250" width="125" height="125" fill="#006EAB" />
  <rect x="1125" y="250" width="125" height="125" fill="#007DCA" />
  <rect x="250" y="375" width="125" height="125" fill="#FFFFFF" />
  <rect x="375" y="375" width="125" height="125" fill="#EFEFEF" />
  <rect x="500" y="375" width="125" height="125" fill="#D3DEF1" />
  <rect x="625" y="375" width="125" height="125" fill="#A3C5D4" />
  <rect x="750" y="375" width="125" height="125" fill="#79B4C5" />
  <rect x="875" y="375" width="125" height="125" fill="#56AAB5" />
  <rect x="1000" y="375" width="125" height="125" fill="#4DA2AC" />
  <rect x="1125" y="375" width="125" height="125" fill="#3DA19C" />
  <rect x="250" y="500" width="125" height="125" fill="#C70000" />
  <rect x="375" y="500" width="125" height="125" fill="#9B0000" />
  <rect x="500" y="500" width="125" height="125" fill="#660000" />
  <rect x="625" y="500" width="125" height="125" fill="#D5B3B3" />
  <rect x="750" y="500" width="125" height="125" fill="#E4D3D3" />
  <rect x="875" y="500" width="125" height="125" fill="#D0C0C0" />
  <rect x="1000" y="500" width="125" height="125" fill="#BDA1A1" />
  <rect x="1125" y="500" width="125" height="125" fill="#A98B8B" />
  <rect x="250" y="625" width="125" height="125" fill="#FFFFFF" />
  <rect x="375" y="625" width="125" height="125" fill="#FFFFFF" />
  <rect x="500" y="625" width="125" height="125" fill="#FFFFCC" />
  <rect x="625" y="625" width="125" height="125" fill="#FFEEDD" />
  <rect x="750" y="625" width="125" height="125" fill="#FFDDEB" />
  <rect x="875" y="625" width="125" height="125" fill="#FFC6CC" />
  <rect x="1000" y="625" width="125" height="125" fill="#FFADAD" />
  <rect x="1125" y="625" width="125" height="125" fill="#FF8080" />
  <rect x="250" y="750" width="125" height="125" fill="#005E8E" />
  <rect x="375" y="750" width="125" height="125" fill="#006F99" />
  <rect x="500" y="750" width="125" height="125" fill="#007EA1" />
  <rect x="625" y="750" width="125" height="125" fill="#008FA7" />
  <rect x="750" y="750" width="125" height="125" fill="#0096B0" />
  <rect x="875" y="750" width="125" height="125" fill="#00B8CC" />
  <rect x="1000" y="750" width="125" height="125" fill="#00C1D3" />
  <rect x="1125" y="750" width="125" height="125" fill="#00D2E0" />
  <rect x="250" y="875" width="125" height="125" fill="#FFFFFF" />
  <rect x="375" y="875" width="125" height="125" fill="#EFEFEF" />
  <rect x="500" y="875" width="125" height="125" fill="#D4D0D7" />
  <rect x="625" y="875" width="125" height="125" fill="#B2B2B2" />
  <rect x="750" y="875" width="125" height="125" fill="#999999" />
  <rect x="875" y="875" width="125" height="125" fill="#7F7F7F" />
  <rect x="1000" y="875" width="125" height="125" fill="#666666" />
  <rect x="1125" y="875" width="125" height="125" fill="#4D4D4D" />
  <rect x="250" y="1000" width="125" height="125" fill="#FF3700" />
  <rect x="375" y="1000" width="125" height="125" fill="#E83600" />
  <rect x="500" y="1000" width="125" height="125" fill="#D83D00" />
  <rect x="625" y="1000" width="125" height="125" fill="#BC5400" />
  <rect x="750" y="1000" width="125" height="125" fill="#A30B00" />
  <rect x="875" y="1000" width="125" height="125" fill="#7A0000" />
  <rect x="1000" y="1000" width="125" height="125" fill="#661717" />
  <rect x="1125" y="1000" width="125" height="125" fill="#444444" />
  <rect x="250" y="1125" width="125" height="125" fill="#000000" />
  <rect x="375" y="1125" width="125" height="125" fill="#222222" />
  <rect x="500" y="1125" width="125" height="125" fill="#444444" />
  <rect x="625" y="1125" width="125" height="125" fill="#666666" />
  <rect x="750" y="1125" width="125" height="125" fill="#888888" />
  <rect x="875" y="1125" width="125" height="125" fill="#AAAAAA" />
  <rect x="1000" y="1125" width="125" height="125" fill="#CCCCCC" />
  <rect x="1125" y="1125" width="125" height="125" fill="#FFFFFF" />
  <rect x="250" y="250" width="1000" height="1000" fill="none" stroke="#151515" stroke-opacity="0.16" stroke-width="2" />
</svg>
