<svg xmlns="http://www.w3.org/2000/svg" width="1500" height="1500" viewBox="0 0 1500 1500" shape-rendering="crispEdges" role="img" aria-labelledby="title desc">
  <title id="title">Symmetry Fractured in Natural frame</title>
  <desc id="desc">Square Project artwork previewed in a natural frame.</desc>
  <rect x="0" y="0" width="1500" height="1500" fill="#FFFFFF" />
  <image href="https://mysquareart.com/frames/natural.jpg" x="0" y="0" width="1500" height="1500" preserveAspectRatio="xMidYMid meet" />
  <rect x="250" y="250" width="1000" height="1000" fill="#FFFFFF" />
  <rect x="250" y="250" width="125" height="125" fill="#6A1B9A" />
  <rect x="375" y="250" width="125" height="125" fill="#D50032" />
  <rect x="500" y="250" width="125" height="125" fill="#D32F2F" />
  <rect x="625" y="250" width="125" height="125" fill="#F57F17" />
  <rect x="750" y="250" width="125" height="125" fill="#616161" />
  <rect x="875" y="250" width="125" height="125" fill="#FFFFFF" />
  <rect x="1000" y="250" width="125" height="125" fill="#F5F5F5" />
  <rect x="1125" y="250" width="125" height="125" fill="#FFC107" />
  <rect x="250" y="375" width="125" height="125" fill="#9C27B0" />
  <rect x="375" y="375" width="125" height="125" fill="#F44336" />
  <rect x="500" y="375" width="125" height="125" fill="#E64A19" />
  <rect x="625" y="375" width="125" height="125" fill="#FFEB3B" />
  <rect x="750" y="375" width="125" height="125" fill="#BDBDBD" />
  <rect x="875" y="375" width="125" height="125" fill="#FFFFFF" />
  <rect x="1000" y="375" width="125" height="125" fill="#F5F5F5" />
  <rect x="1125" y="375" width="125" height="125" fill="#FFC107" />
  <rect x="250" y="500" width="125" height="125" fill="#4A148C" />
  <rect x="375" y="500" width="125" height="125" fill="#D50032" />
  <rect x="500" y="500" width="125" height="125" fill="#FF5722" />
  <rect x="625" y="500" width="125" height="125" fill="#FF9800" />
  <rect x="750" y="500" width="125" height="125" fill="#757575" />
  <rect x="875" y="500" width="125" height="125" fill="#FFFFFF" />
  <rect x="1000" y="500" width="125" height="125" fill="#FAFAFA" />
  <rect x="1125" y="500" width="125" height="125" fill="#FFEB3B" />
  <rect x="250" y="625" width="125" height="125" fill="#4A148C" />
  <rect x="375" y="625" width="125" height="125" fill="#AB47BC" />
  <rect x="500" y="625" width="125" height="125" fill="#FF3D00" />
  <rect x="625" y="625" width="125" height="125" fill="#FFC107" />
  <rect x="750" y="625" width="125" height="125" fill="#BDBDBD" />
  <rect x="875" y="625" width="125" height="125" fill="#FFFFFF" />
  <rect x="1000" y="625" width="125" height="125" fill="#FAFAFA" />
  <rect x="1125" y="625" width="125" height="125" fill="#FFEB3B" />
  <rect x="250" y="750" width="125" height="125" fill="#880E4F" />
  <rect x="375" y="750" width="125" height="125" fill="#D81B60" />
  <rect x="500" y="750" width="125" height="125" fill="#F44336" />
  <rect x="625" y="750" width="125" height="125" fill="#FF7043" />
  <rect x="750" y="750" width="125" height="125" fill="#BDBDBD" />
  <rect x="875" y="750" width="125" height="125" fill="#FFFFFF" />
  <rect x="1000" y="750" width="125" height="125" fill="#FFFFFF" />
  <rect x="1125" y="750" width="125" height="125" fill="#FFC107" />
  <rect x="250" y="875" width="125" height="125" fill="#6A1B9A" />
  <rect x="375" y="875" width="125" height="125" fill="#C2185B" />
  <rect x="500" y="875" width="125" height="125" fill="#AB47BC" />
  <rect x="625" y="875" width="125" height="125" fill="#FF7043" />
  <rect x="750" y="875" width="125" height="125" fill="#BDBDBD" />
  <rect x="875" y="875" width="125" height="125" fill="#FFFFFF" />
  <rect x="1000" y="875" width="125" height="125" fill="#F5F5F5" />
  <rect x="1125" y="875" width="125" height="125" fill="#FFEB3B" />
  <rect x="250" y="1000" width="125" height="125" fill="#4A148C" />
  <rect x="375" y="1000" width="125" height="125" fill="#9C27B0" />
  <rect x="500" y="1000" width="125" height="125" fill="#FFC107" />
  <rect x="625" y="1000" width="125" height="125" fill="#FF9800" />
  <rect x="750" y="1000" width="125" height="125" fill="#757575" />
  <rect x="875" y="1000" width="125" height="125" fill="#FFFFFF" />
  <rect x="1000" y="1000" width="125" height="125" fill="#F5F5F5" />
  <rect x="1125" y="1000" width="125" height="125" fill="#FFD54F" />
  <rect x="250" y="1125" width="125" height="125" fill="#6A1B9A" />
  <rect x="375" y="1125" width="125" height="125" fill="#D50032" />
  <rect x="500" y="1125" width="125" height="125" fill="#D32F2F" />
  <rect x="625" y="1125" width="125" height="125" fill="#F57F17" />
  <rect x="750" y="1125" width="125" height="125" fill="#616161" />
  <rect x="875" y="1125" width="125" height="125" fill="#FFFFFF" />
  <rect x="1000" y="1125" width="125" height="125" fill="#F5F5F5" />
  <rect x="1125" y="1125" width="125" height="125" fill="#FFC107" />
  <rect x="250" y="250" width="1000" height="1000" fill="none" stroke="#151515" stroke-opacity="0.16" stroke-width="2" />
</svg>
