<svg xmlns="http://www.w3.org/2000/svg" width="1500" height="1500" viewBox="0 0 1500 1500" shape-rendering="crispEdges" role="img" aria-labelledby="title desc">
  <title id="title">Tension of Echoes in Natural frame</title>
  <desc id="desc">Square Project artwork previewed in a natural frame.</desc>
  <defs>
    <linearGradient id="frameFace" x1="0" y1="0" x2="1" y2="1">
      <stop offset="0" stop-color="#FFF1D7" />
      <stop offset="0.32" stop-color="#E8D4B7" />
      <stop offset="0.68" stop-color="#C2A17B" />
      <stop offset="1" stop-color="#8D6F50" />
    </linearGradient>
    <pattern id="naturalGrain" patternUnits="userSpaceOnUse" width="180" height="48">
      <path d="M0 12 C48 2 92 24 180 10" fill="none" stroke="#8D6F50" stroke-opacity="0.22" stroke-width="5" />
      <path d="M0 34 C62 44 118 22 180 36" fill="none" stroke="#FFFFFF" stroke-opacity="0.22" stroke-width="4" />
    </pattern>
    <filter id="artShadow" x="-10%" y="-10%" width="120%" height="120%">
      <feDropShadow dx="0" dy="20" stdDeviation="24" flood-color="#000000" flood-opacity="0.24" />
    </filter>
  </defs>
  <rect x="0" y="0" width="1500" height="1500" fill="#FFFFFF" />
  <rect x="0" y="0" width="1500" height="1500" fill="url(#frameFace)" />
  <rect x="0" y="0" width="1500" height="1500" fill="url(#naturalGrain)" />
  <rect x="120" y="120" width="1260" height="1260" fill="#F8F7F3" />
  <rect x="120" y="120" width="1260" height="1260" fill="none" stroke="#000000" stroke-opacity="0.14" stroke-width="10" />
  <rect x="250" y="250" width="1000" height="1000" fill="#FFFFFF" filter="url(#artShadow)" />
  <rect x="250" y="250" width="125" height="125" fill="#444B2C" />
  <rect x="375" y="250" width="125" height="125" fill="#5C6B21" />
  <rect x="500" y="250" width="125" height="125" fill="#F9E79F" />
  <rect x="625" y="250" width="125" height="125" fill="#F9C74F" />
  <rect x="750" y="250" width="125" height="125" fill="#5ED6D1" />
  <rect x="875" y="250" width="125" height="125" fill="#FFFFFF" />
  <rect x="1000" y="250" width="125" height="125" fill="#B8B8B8" />
  <rect x="1125" y="250" width="125" height="125" fill="#E6E6E6" />
  <rect x="250" y="375" width="125" height="125" fill="#111111" />
  <rect x="375" y="375" width="125" height="125" fill="#222222" />
  <rect x="500" y="375" width="125" height="125" fill="#333333" />
  <rect x="625" y="375" width="125" height="125" fill="#444444" />
  <rect x="750" y="375" width="125" height="125" fill="#555555" />
  <rect x="875" y="375" width="125" height="125" fill="#666666" />
  <rect x="1000" y="375" width="125" height="125" fill="#777777" />
  <rect x="1125" y="375" width="125" height="125" fill="#888888" />
  <rect x="250" y="500" width="125" height="125" fill="#33312E" />
  <rect x="375" y="500" width="125" height="125" fill="#F6C4A7" />
  <rect x="500" y="500" width="125" height="125" fill="#5E6F5B" />
  <rect x="625" y="500" width="125" height="125" fill="#BCAC8B" />
  <rect x="750" y="500" width="125" height="125" fill="#DBD2C6" />
  <rect x="875" y="500" width="125" height="125" fill="#222222" />
  <rect x="1000" y="500" width="125" height="125" fill="#333444" />
  <rect x="1125" y="500" width="125" height="125" fill="#444B2C" />
  <rect x="250" y="625" width="125" height="125" fill="#5C6B21" />
  <rect x="375" y="625" width="125" height="125" fill="#E1D5B9" />
  <rect x="500" y="625" width="125" height="125" fill="#F9E79F" />
  <rect x="625" y="625" width="125" height="125" fill="#C4D16F" />
  <rect x="750" y="625" width="125" height="125" fill="#A13E26" />
  <rect x="875" y="625" width="125" height="125" fill="#111111" />
  <rect x="1000" y="625" width="125" height="125" fill="#333333" />
  <rect x="1125" y="625" width="125" height="125" fill="#222222" />
  <rect x="250" y="750" width="125" height="125" fill="#F9C74F" />
  <rect x="375" y="750" width="125" height="125" fill="#5ED6D1" />
  <rect x="500" y="750" width="125" height="125" fill="#BCAC8B" />
  <rect x="625" y="750" width="125" height="125" fill="#F9C4A7" />
  <rect x="750" y="750" width="125" height="125" fill="#555555" />
  <rect x="875" y="750" width="125" height="125" fill="#666666" />
  <rect x="1000" y="750" width="125" height="125" fill="#777777" />
  <rect x="1125" y="750" width="125" height="125" fill="#888888" />
  <rect x="250" y="875" width="125" height="125" fill="#BCAC8B" />
  <rect x="375" y="875" width="125" height="125" fill="#D1C1B2" />
  <rect x="500" y="875" width="125" height="125" fill="#444B2C" />
  <rect x="625" y="875" width="125" height="125" fill="#F6C4A7" />
  <rect x="750" y="875" width="125" height="125" fill="#5C6B21" />
  <rect x="875" y="875" width="125" height="125" fill="#333333" />
  <rect x="1000" y="875" width="125" height="125" fill="#222222" />
  <rect x="1125" y="875" width="125" height="125" fill="#111111" />
  <rect x="250" y="1000" width="125" height="125" fill="#E6E6E6" />
  <rect x="375" y="1000" width="125" height="125" fill="#5ED6D1" />
  <rect x="500" y="1000" width="125" height="125" fill="#F9E79F" />
  <rect x="625" y="1000" width="125" height="125" fill="#F9C74F" />
  <rect x="750" y="1000" width="125" height="125" fill="#D1C1B2" />
  <rect x="875" y="1000" width="125" height="125" fill="#444B2C" />
  <rect x="1000" y="1000" width="125" height="125" fill="#333444" />
  <rect x="1125" y="1000" width="125" height="125" fill="#5C6B21" />
  <rect x="250" y="1125" width="125" height="125" fill="#FFFFFF" />
  <rect x="375" y="1125" width="125" height="125" fill="#D1C1B2" />
  <rect x="500" y="1125" width="125" height="125" fill="#BCAC8B" />
  <rect x="625" y="1125" width="125" height="125" fill="#5E6F5B" />
  <rect x="750" y="1125" width="125" height="125" fill="#F9C4A7" />
  <rect x="875" y="1125" width="125" height="125" fill="#F9E79F" />
  <rect x="1000" y="1125" width="125" height="125" fill="#666666" />
  <rect x="1125" y="1125" width="125" height="125" fill="#111111" />
  <rect x="250" y="250" width="1000" height="1000" fill="none" stroke="#151515" stroke-opacity="0.16" stroke-width="2" />
</svg>
