<svg xmlns="http://www.w3.org/2000/svg" width="1500" height="1500" viewBox="0 0 1500 1500" shape-rendering="crispEdges" role="img" aria-labelledby="title desc">
  <title id="title">Symmetry in Fragmentation in Black frame</title>
  <desc id="desc">Square Project artwork previewed in a black frame.</desc>
  <defs>
    <linearGradient id="frameFace" x1="0" y1="0" x2="1" y2="1">
      <stop offset="0" stop-color="#6A6A6A" />
      <stop offset="0.32" stop-color="#343434" />
      <stop offset="0.68" stop-color="#111111" />
      <stop offset="1" stop-color="#050505" />
    </linearGradient>
    <filter id="artShadow" x="-10%" y="-10%" width="120%" height="120%">
      <feDropShadow dx="0" dy="20" stdDeviation="24" flood-color="#000000" flood-opacity="0.24" />
    </filter>
  </defs>
  <rect x="0" y="0" width="1500" height="1500" fill="#FFFFFF" />
  <rect x="0" y="0" width="1500" height="1500" fill="url(#frameFace)" />
  <rect x="120" y="120" width="1260" height="1260" fill="#F8F7F3" />
  <rect x="120" y="120" width="1260" height="1260" fill="none" stroke="#000000" stroke-opacity="0.14" stroke-width="10" />
  <rect x="250" y="250" width="1000" height="1000" fill="#FFFFFF" filter="url(#artShadow)" />
  <rect x="250" y="250" width="125" height="125" fill="#C9BDA3" />
  <rect x="375" y="250" width="125" height="125" fill="#6A7B8E" />
  <rect x="500" y="250" width="125" height="125" fill="#D1C1B4" />
  <rect x="625" y="250" width="125" height="125" fill="#8EA3B4" />
  <rect x="750" y="250" width="125" height="125" fill="#F0E6DC" />
  <rect x="875" y="250" width="125" height="125" fill="#364B55" />
  <rect x="1000" y="250" width="125" height="125" fill="#F5F0E1" />
  <rect x="1125" y="250" width="125" height="125" fill="#738192" />
  <rect x="250" y="375" width="125" height="125" fill="#F6E7D3" />
  <rect x="375" y="375" width="125" height="125" fill="#B2A097" />
  <rect x="500" y="375" width="125" height="125" fill="#8FA8B2" />
  <rect x="625" y="375" width="125" height="125" fill="#E3D5C4" />
  <rect x="750" y="375" width="125" height="125" fill="#D6C7B5" />
  <rect x="875" y="375" width="125" height="125" fill="#A2B8C7" />
  <rect x="1000" y="375" width="125" height="125" fill="#E3D1C7" />
  <rect x="1125" y="375" width="125" height="125" fill="#404C51" />
  <rect x="250" y="500" width="125" height="125" fill="#E4B48D" />
  <rect x="375" y="500" width="125" height="125" fill="#A78A7E" />
  <rect x="500" y="500" width="125" height="125" fill="#F9E0D1" />
  <rect x="625" y="500" width="125" height="125" fill="#C1A75E" />
  <rect x="750" y="500" width="125" height="125" fill="#8E99A0" />
  <rect x="875" y="500" width="125" height="125" fill="#D7B8B5" />
  <rect x="1000" y="500" width="125" height="125" fill="#6E7B86" />
  <rect x="1125" y="500" width="125" height="125" fill="#B4C2D8" />
  <rect x="250" y="625" width="125" height="125" fill="#534D49" />
  <rect x="375" y="625" width="125" height="125" fill="#E2C8D5" />
  <rect x="500" y="625" width="125" height="125" fill="#C2B09C" />
  <rect x="625" y="625" width="125" height="125" fill="#763C35" />
  <rect x="750" y="625" width="125" height="125" fill="#7F989D" />
  <rect x="875" y="625" width="125" height="125" fill="#DCF8F4" />
  <rect x="1000" y="625" width="125" height="125" fill="#7B6660" />
  <rect x="1125" y="625" width="125" height="125" fill="#9DB4C3" />
  <rect x="250" y="750" width="125" height="125" fill="#6C8284" />
  <rect x="375" y="750" width="125" height="125" fill="#FEF4E8" />
  <rect x="500" y="750" width="125" height="125" fill="#E8C6B7" />
  <rect x="625" y="750" width="125" height="125" fill="#3A4B4E" />
  <rect x="750" y="750" width="125" height="125" fill="#C8B09C" />
  <rect x="875" y="750" width="125" height="125" fill="#E8D8CB" />
  <rect x="1000" y="750" width="125" height="125" fill="#6E7852" />
  <rect x="1125" y="750" width="125" height="125" fill="#A4A7A8" />
  <rect x="250" y="875" width="125" height="125" fill="#7C8490" />
  <rect x="375" y="875" width="125" height="125" fill="#E9B6C8" />
  <rect x="500" y="875" width="125" height="125" fill="#C0B29E" />
  <rect x="625" y="875" width="125" height="125" fill="#563D3D" />
  <rect x="750" y="875" width="125" height="125" fill="#A4A183" />
  <rect x="875" y="875" width="125" height="125" fill="#4B6F76" />
  <rect x="1000" y="875" width="125" height="125" fill="#D6CDBE" />
  <rect x="1125" y="875" width="125" height="125" fill="#B8BACB" />
  <rect x="250" y="1000" width="125" height="125" fill="#C4F0F4" />
  <rect x="375" y="1000" width="125" height="125" fill="#8B8D8E" />
  <rect x="500" y="1000" width="125" height="125" fill="#D5BEC5" />
  <rect x="625" y="1000" width="125" height="125" fill="#487378" />
  <rect x="750" y="1000" width="125" height="125" fill="#805C54" />
  <rect x="875" y="1000" width="125" height="125" fill="#D2C4B4" />
  <rect x="1000" y="1000" width="125" height="125" fill="#D4E0E2" />
  <rect x="1125" y="1000" width="125" height="125" fill="#B5C2CC" />
  <rect x="250" y="1125" width="125" height="125" fill="#8F7A6F" />
  <rect x="375" y="1125" width="125" height="125" fill="#E3D8C4" />
  <rect x="500" y="1125" width="125" height="125" fill="#6B8281" />
  <rect x="625" y="1125" width="125" height="125" fill="#BBA195" />
  <rect x="750" y="1125" width="125" height="125" fill="#5A4E59" />
  <rect x="875" y="1125" width="125" height="125" fill="#373C40" />
  <rect x="1000" y="1125" width="125" height="125" fill="#FEF1E0" />
  <rect x="1125" y="1125" width="125" height="125" fill="#B4A792" />
  <rect x="250" y="250" width="1000" height="1000" fill="none" stroke="#151515" stroke-opacity="0.16" stroke-width="2" />
</svg>
