<svg xmlns="http://www.w3.org/2000/svg" width="1500" height="1500" viewBox="0 0 1500 1500" shape-rendering="crispEdges" role="img" aria-labelledby="title desc">
  <title id="title">Tension of Hearts in Gold frame</title>
  <desc id="desc">Square Project artwork previewed in a gold frame.</desc>
  <defs>
    <linearGradient id="frameFace" x1="0" y1="0" x2="1" y2="1">
      <stop offset="0" stop-color="#FFF0A3" />
      <stop offset="0.32" stop-color="#F1D676" />
      <stop offset="0.68" stop-color="#CBA642" />
      <stop offset="1" stop-color="#8B6A1D" />
    </linearGradient>
    <filter id="artShadow" x="-10%" y="-10%" width="120%" height="120%">
      <feDropShadow dx="0" dy="20" stdDeviation="24" flood-color="#000000" flood-opacity="0.24" />
    </filter>
  </defs>
  <rect x="0" y="0" width="1500" height="1500" fill="#FFFFFF" />
  <rect x="0" y="0" width="1500" height="1500" fill="url(#frameFace)" />
  <rect x="120" y="120" width="1260" height="1260" fill="#F8F7F3" />
  <rect x="120" y="120" width="1260" height="1260" fill="none" stroke="#000000" stroke-opacity="0.14" stroke-width="10" />
  <rect x="250" y="250" width="1000" height="1000" fill="#FFFFFF" filter="url(#artShadow)" />
  <rect x="250" y="250" width="125" height="125" fill="#FFB3C1" />
  <rect x="375" y="250" width="125" height="125" fill="#FF6F61" />
  <rect x="500" y="250" width="125" height="125" fill="#FF4F51" />
  <rect x="625" y="250" width="125" height="125" fill="#FF3D31" />
  <rect x="750" y="250" width="125" height="125" fill="#8B0000" />
  <rect x="875" y="250" width="125" height="125" fill="#8B241C" />
  <rect x="1000" y="250" width="125" height="125" fill="#A05B69" />
  <rect x="1125" y="250" width="125" height="125" fill="#B16065" />
  <rect x="250" y="375" width="125" height="125" fill="#DAA520" />
  <rect x="375" y="375" width="125" height="125" fill="#D68C3C" />
  <rect x="500" y="375" width="125" height="125" fill="#C1B1A5" />
  <rect x="625" y="375" width="125" height="125" fill="#A7938D" />
  <rect x="750" y="375" width="125" height="125" fill="#C4C3C4" />
  <rect x="875" y="375" width="125" height="125" fill="#B2BAC1" />
  <rect x="1000" y="375" width="125" height="125" fill="#9B9F9E" />
  <rect x="1125" y="375" width="125" height="125" fill="#888C88" />
  <rect x="250" y="500" width="125" height="125" fill="#FFB3C1" />
  <rect x="375" y="500" width="125" height="125" fill="#DAA520" />
  <rect x="500" y="500" width="125" height="125" fill="#FF4F51" />
  <rect x="625" y="500" width="125" height="125" fill="#5C5470" />
  <rect x="750" y="500" width="125" height="125" fill="#8B0000" />
  <rect x="875" y="500" width="125" height="125" fill="#B16065" />
  <rect x="1000" y="500" width="125" height="125" fill="#8B241C" />
  <rect x="1125" y="500" width="125" height="125" fill="#C4C3C4" />
  <rect x="250" y="625" width="125" height="125" fill="#C1B1A5" />
  <rect x="375" y="625" width="125" height="125" fill="#A7938D" />
  <rect x="500" y="625" width="125" height="125" fill="#D68C3C" />
  <rect x="625" y="625" width="125" height="125" fill="#F7E3E6" />
  <rect x="750" y="625" width="125" height="125" fill="#D68C3C" />
  <rect x="875" y="625" width="125" height="125" fill="#A05B69" />
  <rect x="1000" y="625" width="125" height="125" fill="#F3E7DF" />
  <rect x="1125" y="625" width="125" height="125" fill="#9B9F9E" />
  <rect x="250" y="750" width="125" height="125" fill="#B2BAC1" />
  <rect x="375" y="750" width="125" height="125" fill="#A05B69" />
  <rect x="500" y="750" width="125" height="125" fill="#8B241C" />
  <rect x="625" y="750" width="125" height="125" fill="#8B0000" />
  <rect x="750" y="750" width="125" height="125" fill="#5C5470" />
  <rect x="875" y="750" width="125" height="125" fill="#DAA520" />
  <rect x="1000" y="750" width="125" height="125" fill="#D68C3C" />
  <rect x="1125" y="750" width="125" height="125" fill="#FF6F61" />
  <rect x="250" y="875" width="125" height="125" fill="#C4C3C4" />
  <rect x="375" y="875" width="125" height="125" fill="#FF3D31" />
  <rect x="500" y="875" width="125" height="125" fill="#DAA520" />
  <rect x="625" y="875" width="125" height="125" fill="#F7E3E6" />
  <rect x="750" y="875" width="125" height="125" fill="#D68C3C" />
  <rect x="875" y="875" width="125" height="125" fill="#A05B69" />
  <rect x="1000" y="875" width="125" height="125" fill="#C1B1A5" />
  <rect x="1125" y="875" width="125" height="125" fill="#888C88" />
  <rect x="250" y="1000" width="125" height="125" fill="#B2BAC1" />
  <rect x="375" y="1000" width="125" height="125" fill="#5C5470" />
  <rect x="500" y="1000" width="125" height="125" fill="#FF4F51" />
  <rect x="625" y="1000" width="125" height="125" fill="#B16065" />
  <rect x="750" y="1000" width="125" height="125" fill="#8B241C" />
  <rect x="875" y="1000" width="125" height="125" fill="#8B0000" />
  <rect x="1000" y="1000" width="125" height="125" fill="#C4C3C4" />
  <rect x="1125" y="1000" width="125" height="125" fill="#A7938D" />
  <rect x="250" y="1125" width="125" height="125" fill="#DAA520" />
  <rect x="375" y="1125" width="125" height="125" fill="#FF6F61" />
  <rect x="500" y="1125" width="125" height="125" fill="#FF3D31" />
  <rect x="625" y="1125" width="125" height="125" fill="#5C5470" />
  <rect x="750" y="1125" width="125" height="125" fill="#A05B69" />
  <rect x="875" y="1125" width="125" height="125" fill="#B16065" />
  <rect x="1000" y="1125" width="125" height="125" fill="#B2BAC1" />
  <rect x="1125" y="1125" width="125" height="125" fill="#D68C3C" />
  <rect x="250" y="250" width="1000" height="1000" fill="none" stroke="#151515" stroke-opacity="0.16" stroke-width="2" />
</svg>
