<svg xmlns="http://www.w3.org/2000/svg" width="1500" height="1500" viewBox="0 0 1500 1500" shape-rendering="crispEdges" role="img" aria-labelledby="title desc">
  <title id="title">Tension of Ascent in Gold frame</title>
  <desc id="desc">Square Project artwork previewed in a gold frame.</desc>
  <defs>
    <linearGradient id="frameFace" x1="0" y1="0" x2="1" y2="1">
      <stop offset="0" stop-color="#FFF0A3" />
      <stop offset="0.32" stop-color="#F1D676" />
      <stop offset="0.68" stop-color="#CBA642" />
      <stop offset="1" stop-color="#8B6A1D" />
    </linearGradient>
    <filter id="artShadow" x="-10%" y="-10%" width="120%" height="120%">
      <feDropShadow dx="0" dy="20" stdDeviation="24" flood-color="#000000" flood-opacity="0.24" />
    </filter>
  </defs>
  <rect x="0" y="0" width="1500" height="1500" fill="#FFFFFF" />
  <rect x="0" y="0" width="1500" height="1500" fill="url(#frameFace)" />
  <rect x="120" y="120" width="1260" height="1260" fill="#F8F7F3" />
  <rect x="120" y="120" width="1260" height="1260" fill="none" stroke="#000000" stroke-opacity="0.14" stroke-width="10" />
  <rect x="250" y="250" width="1000" height="1000" fill="#FFFFFF" filter="url(#artShadow)" />
  <rect x="250" y="250" width="125" height="125" fill="#F9E04E" />
  <rect x="375" y="250" width="125" height="125" fill="#FBBF44" />
  <rect x="500" y="250" width="125" height="125" fill="#F89430" />
  <rect x="625" y="250" width="125" height="125" fill="#EF7D20" />
  <rect x="750" y="250" width="125" height="125" fill="#6B2A68" />
  <rect x="875" y="250" width="125" height="125" fill="#563B8D" />
  <rect x="1000" y="250" width="125" height="125" fill="#4A5EB7" />
  <rect x="1125" y="250" width="125" height="125" fill="#3B87E0" />
  <rect x="250" y="375" width="125" height="125" fill="#F7B052" />
  <rect x="375" y="375" width="125" height="125" fill="#FFA65E" />
  <rect x="500" y="375" width="125" height="125" fill="#FFC1D6" />
  <rect x="625" y="375" width="125" height="125" fill="#FFF9B0" />
  <rect x="750" y="375" width="125" height="125" fill="#E4BCEB" />
  <rect x="875" y="375" width="125" height="125" fill="#A473B0" />
  <rect x="1000" y="375" width="125" height="125" fill="#6570A6" />
  <rect x="1125" y="375" width="125" height="125" fill="#3F5B7E" />
  <rect x="250" y="500" width="125" height="125" fill="#F9E04E" />
  <rect x="375" y="500" width="125" height="125" fill="#FBBF44" />
  <rect x="500" y="500" width="125" height="125" fill="#F89430" />
  <rect x="625" y="500" width="125" height="125" fill="#EF7D20" />
  <rect x="750" y="500" width="125" height="125" fill="#6B2A68" />
  <rect x="875" y="500" width="125" height="125" fill="#563B8D" />
  <rect x="1000" y="500" width="125" height="125" fill="#4A5EB7" />
  <rect x="1125" y="500" width="125" height="125" fill="#3B87E0" />
  <rect x="250" y="625" width="125" height="125" fill="#FFD962" />
  <rect x="375" y="625" width="125" height="125" fill="#F9B352" />
  <rect x="500" y="625" width="125" height="125" fill="#FF8F2B" />
  <rect x="625" y="625" width="125" height="125" fill="#EF7D20" />
  <rect x="750" y="625" width="125" height="125" fill="#282A36" />
  <rect x="875" y="625" width="125" height="125" fill="#495B75" />
  <rect x="1000" y="625" width="125" height="125" fill="#42658A" />
  <rect x="1125" y="625" width="125" height="125" fill="#335D92" />
  <rect x="250" y="750" width="125" height="125" fill="#FFB623" />
  <rect x="375" y="750" width="125" height="125" fill="#FF8F2B" />
  <rect x="500" y="750" width="125" height="125" fill="#D89714" />
  <rect x="625" y="750" width="125" height="125" fill="#F83B4B" />
  <rect x="750" y="750" width="125" height="125" fill="#5E227E" />
  <rect x="875" y="750" width="125" height="125" fill="#3C2FBA" />
  <rect x="1000" y="750" width="125" height="125" fill="#29349D" />
  <rect x="1125" y="750" width="125" height="125" fill="#192F7E" />
  <rect x="250" y="875" width="125" height="125" fill="#F8E72C" />
  <rect x="375" y="875" width="125" height="125" fill="#F9A628" />
  <rect x="500" y="875" width="125" height="125" fill="#F97D17" />
  <rect x="625" y="875" width="125" height="125" fill="#E08A34" />
  <rect x="750" y="875" width="125" height="125" fill="#A72B54" />
  <rect x="875" y="875" width="125" height="125" fill="#C178B6" />
  <rect x="1000" y="875" width="125" height="125" fill="#A44BD4" />
  <rect x="1125" y="875" width="125" height="125" fill="#6F7D95" />
  <rect x="250" y="1000" width="125" height="125" fill="#F7B52D" />
  <rect x="375" y="1000" width="125" height="125" fill="#F99822" />
  <rect x="500" y="1000" width="125" height="125" fill="#F67829" />
  <rect x="625" y="1000" width="125" height="125" fill="#E66A3A" />
  <rect x="750" y="1000" width="125" height="125" fill="#785C99" />
  <rect x="875" y="1000" width="125" height="125" fill="#433FFF" />
  <rect x="1000" y="1000" width="125" height="125" fill="#1F2631" />
  <rect x="1125" y="1000" width="125" height="125" fill="#070F10" />
  <rect x="250" y="1125" width="125" height="125" fill="#F9D52E" />
  <rect x="375" y="1125" width="125" height="125" fill="#E7AA44" />
  <rect x="500" y="1125" width="125" height="125" fill="#D95F6A" />
  <rect x="625" y="1125" width="125" height="125" fill="#AA2D81" />
  <rect x="750" y="1125" width="125" height="125" fill="#63204B" />
  <rect x="875" y="1125" width="125" height="125" fill="#001D53" />
  <rect x="1000" y="1125" width="125" height="125" fill="#000000" />
  <rect x="1125" y="1125" width="125" height="125" fill="#111111" />
  <rect x="250" y="250" width="1000" height="1000" fill="none" stroke="#151515" stroke-opacity="0.16" stroke-width="2" />
</svg>
