<svg xmlns="http://www.w3.org/2000/svg" width="1500" height="1500" viewBox="0 0 1500 1500" shape-rendering="crispEdges" role="img" aria-labelledby="title desc">
  <title id="title">Dissonance of Form in White frame</title>
  <desc id="desc">Square Project artwork previewed in a white frame.</desc>
  <defs>
    <linearGradient id="frameFace" x1="0" y1="0" x2="1" y2="1">
      <stop offset="0" stop-color="#BEBEB8" />
      <stop offset="0.32" stop-color="#FFFFFF" />
      <stop offset="0.68" stop-color="#F8F8F5" />
      <stop offset="1" stop-color="#D5D5CF" />
    </linearGradient>
    <filter id="artShadow" x="-10%" y="-10%" width="120%" height="120%">
      <feDropShadow dx="0" dy="20" stdDeviation="24" flood-color="#000000" flood-opacity="0.24" />
    </filter>
  </defs>
  <rect x="0" y="0" width="1500" height="1500" fill="#FFFFFF" />
  <rect x="0" y="0" width="1500" height="1500" fill="url(#frameFace)" />
  <rect x="120" y="120" width="1260" height="1260" fill="#F8F7F3" />
  <rect x="120" y="120" width="1260" height="1260" fill="none" stroke="#000000" stroke-opacity="0.14" stroke-width="10" />
  <rect x="250" y="250" width="1000" height="1000" fill="#FFFFFF" filter="url(#artShadow)" />
  <rect x="250" y="250" width="125" height="125" fill="#2B0A00" />
  <rect x="375" y="250" width="125" height="125" fill="#CC6A00" />
  <rect x="500" y="250" width="125" height="125" fill="#DA4A00" />
  <rect x="625" y="250" width="125" height="125" fill="#AA3700" />
  <rect x="750" y="250" width="125" height="125" fill="#2A0B00" />
  <rect x="875" y="250" width="125" height="125" fill="#462B00" />
  <rect x="1000" y="250" width="125" height="125" fill="#7C3D00" />
  <rect x="1125" y="250" width="125" height="125" fill="#AA6600" />
  <rect x="250" y="375" width="125" height="125" fill="#391C00" />
  <rect x="375" y="375" width="125" height="125" fill="#5E3100" />
  <rect x="500" y="375" width="125" height="125" fill="#5E4200" />
  <rect x="625" y="375" width="125" height="125" fill="#7C5800" />
  <rect x="750" y="375" width="125" height="125" fill="#B97700" />
  <rect x="875" y="375" width="125" height="125" fill="#C3B500" />
  <rect x="1000" y="375" width="125" height="125" fill="#D1D200" />
  <rect x="1125" y="375" width="125" height="125" fill="#D9D300" />
  <rect x="250" y="500" width="125" height="125" fill="#5C4E3B" />
  <rect x="375" y="500" width="125" height="125" fill="#7A6D5A" />
  <rect x="500" y="500" width="125" height="125" fill="#B4A79F" />
  <rect x="625" y="500" width="125" height="125" fill="#D9D9D9" />
  <rect x="750" y="500" width="125" height="125" fill="#A10D00" />
  <rect x="875" y="500" width="125" height="125" fill="#EA8B00" />
  <rect x="1000" y="500" width="125" height="125" fill="#F7C700" />
  <rect x="1125" y="500" width="125" height="125" fill="#FFE6AA" />
  <rect x="250" y="625" width="125" height="125" fill="#3A2D29" />
  <rect x="375" y="625" width="125" height="125" fill="#4F3E38" />
  <rect x="500" y="625" width="125" height="125" fill="#9FA6A2" />
  <rect x="625" y="625" width="125" height="125" fill="#D2D7D0" />
  <rect x="750" y="625" width="125" height="125" fill="#6B4C37" />
  <rect x="875" y="625" width="125" height="125" fill="#DEB190" />
  <rect x="1000" y="625" width="125" height="125" fill="#E6C6A0" />
  <rect x="1125" y="625" width="125" height="125" fill="#F7F3D5" />
  <rect x="250" y="750" width="125" height="125" fill="#191B1E" />
  <rect x="375" y="750" width="125" height="125" fill="#2E2D2B" />
  <rect x="500" y="750" width="125" height="125" fill="#5C5C5D" />
  <rect x="625" y="750" width="125" height="125" fill="#898C8E" />
  <rect x="750" y="750" width="125" height="125" fill="#BCB7AF" />
  <rect x="875" y="750" width="125" height="125" fill="#E6E0D6" />
  <rect x="1000" y="750" width="125" height="125" fill="#FFF0CE" />
  <rect x="1125" y="750" width="125" height="125" fill="#F9F8EE" />
  <rect x="250" y="875" width="125" height="125" fill="#292B2C" />
  <rect x="375" y="875" width="125" height="125" fill="#505254" />
  <rect x="500" y="875" width="125" height="125" fill="#898C91" />
  <rect x="625" y="875" width="125" height="125" fill="#B3B1B0" />
  <rect x="750" y="875" width="125" height="125" fill="#CDCDCC" />
  <rect x="875" y="875" width="125" height="125" fill="#E3E7E3" />
  <rect x="1000" y="875" width="125" height="125" fill="#F6F8F5" />
  <rect x="1125" y="875" width="125" height="125" fill="#FAFDFD" />
  <rect x="250" y="1000" width="125" height="125" fill="#221C20" />
  <rect x="375" y="1000" width="125" height="125" fill="#E7D1B9" />
  <rect x="500" y="1000" width="125" height="125" fill="#BDB0A2" />
  <rect x="625" y="1000" width="125" height="125" fill="#6B5B52" />
  <rect x="750" y="1000" width="125" height="125" fill="#C1B3A3" />
  <rect x="875" y="1000" width="125" height="125" fill="#D4CFC6" />
  <rect x="1000" y="1000" width="125" height="125" fill="#DFDFDE" />
  <rect x="1125" y="1000" width="125" height="125" fill="#FFFFFF" />
  <rect x="250" y="1125" width="125" height="125" fill="#080808" />
  <rect x="375" y="1125" width="125" height="125" fill="#191A1B" />
  <rect x="500" y="1125" width="125" height="125" fill="#2C2D32" />
  <rect x="625" y="1125" width="125" height="125" fill="#4C4E4F" />
  <rect x="750" y="1125" width="125" height="125" fill="#757678" />
  <rect x="875" y="1125" width="125" height="125" fill="#A0A4A6" />
  <rect x="1000" y="1125" width="125" height="125" fill="#D5D8D9" />
  <rect x="1125" y="1125" width="125" height="125" fill="#F2F4F6" />
  <rect x="250" y="250" width="1000" height="1000" fill="none" stroke="#151515" stroke-opacity="0.16" stroke-width="2" />
</svg>
