<svg xmlns="http://www.w3.org/2000/svg" width="1500" height="1500" viewBox="0 0 1500 1500" shape-rendering="crispEdges" role="img" aria-labelledby="title desc">
  <title id="title">Tension&#x27;s Dance in Natural frame</title>
  <desc id="desc">Square Project artwork previewed in a natural frame.</desc>
  <defs>
    <linearGradient id="frameFace" x1="0" y1="0" x2="1" y2="1">
      <stop offset="0" stop-color="#8F6F35" />
      <stop offset="0.32" stop-color="#F0DDAA" />
      <stop offset="0.68" stop-color="#D8C190" />
      <stop offset="1" stop-color="#B39155" />
    </linearGradient>
    <filter id="artShadow" x="-10%" y="-10%" width="120%" height="120%">
      <feDropShadow dx="0" dy="20" stdDeviation="24" flood-color="#000000" flood-opacity="0.24" />
    </filter>
  </defs>
  <rect x="0" y="0" width="1500" height="1500" fill="#FFFFFF" />
  <rect x="0" y="0" width="1500" height="1500" fill="url(#frameFace)" />
  <rect x="120" y="120" width="1260" height="1260" fill="#F8F7F3" />
  <rect x="120" y="120" width="1260" height="1260" fill="none" stroke="#000000" stroke-opacity="0.14" stroke-width="10" />
  <rect x="250" y="250" width="1000" height="1000" fill="#FFFFFF" filter="url(#artShadow)" />
  <rect x="250" y="250" width="125" height="125" fill="#001F9D" />
  <rect x="375" y="250" width="125" height="125" fill="#FFDA44" />
  <rect x="500" y="250" width="125" height="125" fill="#FF7F30" />
  <rect x="625" y="250" width="125" height="125" fill="#491A73" />
  <rect x="750" y="250" width="125" height="125" fill="#000F58" />
  <rect x="875" y="250" width="125" height="125" fill="#FFDA44" />
  <rect x="1000" y="250" width="125" height="125" fill="#FF7F30" />
  <rect x="1125" y="250" width="125" height="125" fill="#001F9D" />
  <rect x="250" y="375" width="125" height="125" fill="#333B5A" />
  <rect x="375" y="375" width="125" height="125" fill="#A065A8" />
  <rect x="500" y="375" width="125" height="125" fill="#404F82" />
  <rect x="625" y="375" width="125" height="125" fill="#A29C92" />
  <rect x="750" y="375" width="125" height="125" fill="#D63A2F" />
  <rect x="875" y="375" width="125" height="125" fill="#FFD4AA" />
  <rect x="1000" y="375" width="125" height="125" fill="#AA5A2F" />
  <rect x="1125" y="375" width="125" height="125" fill="#333B5A" />
  <rect x="250" y="500" width="125" height="125" fill="#6A6D98" />
  <rect x="375" y="500" width="125" height="125" fill="#292B2D" />
  <rect x="500" y="500" width="125" height="125" fill="#2A6E9E" />
  <rect x="625" y="500" width="125" height="125" fill="#FF8F49" />
  <rect x="750" y="500" width="125" height="125" fill="#000040" />
  <rect x="875" y="500" width="125" height="125" fill="#776B94" />
  <rect x="1000" y="500" width="125" height="125" fill="#FFDA44" />
  <rect x="1125" y="500" width="125" height="125" fill="#678BC1" />
  <rect x="250" y="625" width="125" height="125" fill="#F3C467" />
  <rect x="375" y="625" width="125" height="125" fill="#18354D" />
  <rect x="500" y="625" width="125" height="125" fill="#5F6B8A" />
  <rect x="625" y="625" width="125" height="125" fill="#7E788D" />
  <rect x="750" y="625" width="125" height="125" fill="#D1B60B" />
  <rect x="875" y="625" width="125" height="125" fill="#6C4C39" />
  <rect x="1000" y="625" width="125" height="125" fill="#666D87" />
  <rect x="1125" y="625" width="125" height="125" fill="#94A1D6" />
  <rect x="250" y="750" width="125" height="125" fill="#FF2E2E" />
  <rect x="375" y="750" width="125" height="125" fill="#1B1B2A" />
  <rect x="500" y="750" width="125" height="125" fill="#B3C7E6" />
  <rect x="625" y="750" width="125" height="125" fill="#F4D50A" />
  <rect x="750" y="750" width="125" height="125" fill="#540B2D" />
  <rect x="875" y="750" width="125" height="125" fill="#45884B" />
  <rect x="1000" y="750" width="125" height="125" fill="#FFD300" />
  <rect x="1125" y="750" width="125" height="125" fill="#D3B48D" />
  <rect x="250" y="875" width="125" height="125" fill="#A35800" />
  <rect x="375" y="875" width="125" height="125" fill="#1C2A44" />
  <rect x="500" y="875" width="125" height="125" fill="#5A565E" />
  <rect x="625" y="875" width="125" height="125" fill="#F29D00" />
  <rect x="750" y="875" width="125" height="125" fill="#405572" />
  <rect x="875" y="875" width="125" height="125" fill="#6B8EAF" />
  <rect x="1000" y="875" width="125" height="125" fill="#BFA2B0" />
  <rect x="1125" y="875" width="125" height="125" fill="#AA5C2B" />
  <rect x="250" y="1000" width="125" height="125" fill="#131E2F" />
  <rect x="375" y="1000" width="125" height="125" fill="#6980B8" />
  <rect x="500" y="1000" width="125" height="125" fill="#FFFDFF" />
  <rect x="625" y="1000" width="125" height="125" fill="#6E5E91" />
  <rect x="750" y="1000" width="125" height="125" fill="#D83445" />
  <rect x="875" y="1000" width="125" height="125" fill="#38426E" />
  <rect x="1000" y="1000" width="125" height="125" fill="#A36B96" />
  <rect x="1125" y="1000" width="125" height="125" fill="#181B2C" />
  <rect x="250" y="1125" width="125" height="125" fill="#A0B5D9" />
  <rect x="375" y="1125" width="125" height="125" fill="#D6C52B" />
  <rect x="500" y="1125" width="125" height="125" fill="#4A2B4C" />
  <rect x="625" y="1125" width="125" height="125" fill="#C0B9B3" />
  <rect x="750" y="1125" width="125" height="125" fill="#F7B880" />
  <rect x="875" y="1125" width="125" height="125" fill="#2A557E" />
  <rect x="1000" y="1125" width="125" height="125" fill="#151618" />
  <rect x="1125" y="1125" width="125" height="125" fill="#FFDDAA" />
  <rect x="250" y="250" width="1000" height="1000" fill="none" stroke="#151515" stroke-opacity="0.16" stroke-width="2" />
</svg>
