<svg xmlns="http://www.w3.org/2000/svg" width="1500" height="1500" viewBox="0 0 1500 1500" shape-rendering="crispEdges" role="img" aria-labelledby="title desc">
  <title id="title">Resilience in Fractured Light in Gold frame</title>
  <desc id="desc">Square Project artwork previewed in a gold frame.</desc>
  <rect x="0" y="0" width="1500" height="1500" fill="#FFFFFF" />
  <image href="https://mysquareart.com/frames/gold.jpg" x="0" y="0" width="1500" height="1500" preserveAspectRatio="xMidYMid meet" />
  <rect x="250" y="250" width="1000" height="1000" fill="#FFFFFF" />
  <rect x="250" y="250" width="125" height="125" fill="#303F9F" />
  <rect x="375" y="250" width="125" height="125" fill="#1A237E" />
  <rect x="500" y="250" width="125" height="125" fill="#673AB7" />
  <rect x="625" y="250" width="125" height="125" fill="#B39DDB" />
  <rect x="750" y="250" width="125" height="125" fill="#00BFAE" />
  <rect x="875" y="250" width="125" height="125" fill="#004D40" />
  <rect x="1000" y="250" width="125" height="125" fill="#000000" />
  <rect x="1125" y="250" width="125" height="125" fill="#2E7D32" />
  <rect x="250" y="375" width="125" height="125" fill="#FFEB3B" />
  <rect x="375" y="375" width="125" height="125" fill="#FFC107" />
  <rect x="500" y="375" width="125" height="125" fill="#FF9800" />
  <rect x="625" y="375" width="125" height="125" fill="#FF5722" />
  <rect x="750" y="375" width="125" height="125" fill="#B0BEC5" />
  <rect x="875" y="375" width="125" height="125" fill="#78909C" />
  <rect x="1000" y="375" width="125" height="125" fill="#607D8B" />
  <rect x="1125" y="375" width="125" height="125" fill="#455A64" />
  <rect x="250" y="500" width="125" height="125" fill="#1A237E" />
  <rect x="375" y="500" width="125" height="125" fill="#FBC02D" />
  <rect x="500" y="500" width="125" height="125" fill="#B2FF59" />
  <rect x="625" y="500" width="125" height="125" fill="#A5D6A7" />
  <rect x="750" y="500" width="125" height="125" fill="#FF8A80" />
  <rect x="875" y="500" width="125" height="125" fill="#C2185B" />
  <rect x="1000" y="500" width="125" height="125" fill="#F57F17" />
  <rect x="1125" y="500" width="125" height="125" fill="#82B1FF" />
  <rect x="250" y="625" width="125" height="125" fill="#B2FF59" />
  <rect x="375" y="625" width="125" height="125" fill="#81D4FA" />
  <rect x="500" y="625" width="125" height="125" fill="#FFD54F" />
  <rect x="625" y="625" width="125" height="125" fill="#FF6F00" />
  <rect x="750" y="625" width="125" height="125" fill="#D50000" />
  <rect x="875" y="625" width="125" height="125" fill="#FFAB40" />
  <rect x="1000" y="625" width="125" height="125" fill="#3D5AFE" />
  <rect x="1125" y="625" width="125" height="125" fill="#263238" />
  <rect x="250" y="750" width="125" height="125" fill="#FFEB3B" />
  <rect x="375" y="750" width="125" height="125" fill="#673AB7" />
  <rect x="500" y="750" width="125" height="125" fill="#D7CCC8" />
  <rect x="625" y="750" width="125" height="125" fill="#C5CAE9" />
  <rect x="750" y="750" width="125" height="125" fill="#E0E0E0" />
  <rect x="875" y="750" width="125" height="125" fill="#FF5722" />
  <rect x="1000" y="750" width="125" height="125" fill="#A5D6A7" />
  <rect x="1125" y="750" width="125" height="125" fill="#F06292" />
  <rect x="250" y="875" width="125" height="125" fill="#303F9F" />
  <rect x="375" y="875" width="125" height="125" fill="#616161" />
  <rect x="500" y="875" width="125" height="125" fill="#1976D2" />
  <rect x="625" y="875" width="125" height="125" fill="#26C6DA" />
  <rect x="750" y="875" width="125" height="125" fill="#64FFDA" />
  <rect x="875" y="875" width="125" height="125" fill="#DCEDC8" />
  <rect x="1000" y="875" width="125" height="125" fill="#BCAAA4" />
  <rect x="1125" y="875" width="125" height="125" fill="#E57373" />
  <rect x="250" y="1000" width="125" height="125" fill="#FFCCBC" />
  <rect x="375" y="1000" width="125" height="125" fill="#FFC107" />
  <rect x="500" y="1000" width="125" height="125" fill="#D50000" />
  <rect x="625" y="1000" width="125" height="125" fill="#5C6BC0" />
  <rect x="750" y="1000" width="125" height="125" fill="#1976D2" />
  <rect x="875" y="1000" width="125" height="125" fill="#7C4DFF" />
  <rect x="1000" y="1000" width="125" height="125" fill="#00897B" />
  <rect x="1125" y="1000" width="125" height="125" fill="#B3E5FC" />
  <rect x="250" y="1125" width="125" height="125" fill="#C2185B" />
  <rect x="375" y="1125" width="125" height="125" fill="#FF9800" />
  <rect x="500" y="1125" width="125" height="125" fill="#FAFAFA" />
  <rect x="625" y="1125" width="125" height="125" fill="#E1BEE7" />
  <rect x="750" y="1125" width="125" height="125" fill="#F44336" />
  <rect x="875" y="1125" width="125" height="125" fill="#F06292" />
  <rect x="1000" y="1125" width="125" height="125" fill="#B2FF59" />
  <rect x="1125" y="1125" width="125" height="125" fill="#4DD0E1" />
  <rect x="250" y="250" width="1000" height="1000" fill="none" stroke="#151515" stroke-opacity="0.16" stroke-width="2" />
</svg>
