<svg xmlns="http://www.w3.org/2000/svg" width="1500" height="1500" viewBox="0 0 1500 1500" shape-rendering="crispEdges" role="img" aria-labelledby="title desc">
  <title id="title">Tension in Motion in Gold frame</title>
  <desc id="desc">Square Project artwork previewed in a gold frame.</desc>
  <defs>
    <linearGradient id="frameFace" x1="0" y1="0" x2="1" y2="1">
      <stop offset="0" stop-color="#FFF0A3" />
      <stop offset="0.32" stop-color="#F1D676" />
      <stop offset="0.68" stop-color="#CBA642" />
      <stop offset="1" stop-color="#8B6A1D" />
    </linearGradient>
    <filter id="artShadow" x="-10%" y="-10%" width="120%" height="120%">
      <feDropShadow dx="0" dy="20" stdDeviation="24" flood-color="#000000" flood-opacity="0.24" />
    </filter>
  </defs>
  <rect x="0" y="0" width="1500" height="1500" fill="#FFFFFF" />
  <rect x="0" y="0" width="1500" height="1500" fill="url(#frameFace)" />
  <rect x="120" y="120" width="1260" height="1260" fill="#F8F7F3" />
  <rect x="120" y="120" width="1260" height="1260" fill="none" stroke="#000000" stroke-opacity="0.14" stroke-width="10" />
  <rect x="250" y="250" width="1000" height="1000" fill="#FFFFFF" filter="url(#artShadow)" />
  <rect x="250" y="250" width="125" height="125" fill="#3B0A0A" />
  <rect x="375" y="250" width="125" height="125" fill="#D53C29" />
  <rect x="500" y="250" width="125" height="125" fill="#9C8B70" />
  <rect x="625" y="250" width="125" height="125" fill="#482E2E" />
  <rect x="750" y="250" width="125" height="125" fill="#9B4C35" />
  <rect x="875" y="250" width="125" height="125" fill="#F4E7E0" />
  <rect x="1000" y="250" width="125" height="125" fill="#4F4037" />
  <rect x="1125" y="250" width="125" height="125" fill="#2E2C27" />
  <rect x="250" y="375" width="125" height="125" fill="#5B1F28" />
  <rect x="375" y="375" width="125" height="125" fill="#AA5838" />
  <rect x="500" y="375" width="125" height="125" fill="#E2D4C4" />
  <rect x="625" y="375" width="125" height="125" fill="#736A67" />
  <rect x="750" y="375" width="125" height="125" fill="#A68B83" />
  <rect x="875" y="375" width="125" height="125" fill="#4E4E4F" />
  <rect x="1000" y="375" width="125" height="125" fill="#0B0B0B" />
  <rect x="1125" y="375" width="125" height="125" fill="#E3E4DB" />
  <rect x="250" y="500" width="125" height="125" fill="#401E1E" />
  <rect x="375" y="500" width="125" height="125" fill="#C68B57" />
  <rect x="500" y="500" width="125" height="125" fill="#E6D0C1" />
  <rect x="625" y="500" width="125" height="125" fill="#B41F13" />
  <rect x="750" y="500" width="125" height="125" fill="#BA9A82" />
  <rect x="875" y="500" width="125" height="125" fill="#A98376" />
  <rect x="1000" y="500" width="125" height="125" fill="#E1B6A1" />
  <rect x="1125" y="500" width="125" height="125" fill="#302B29" />
  <rect x="250" y="625" width="125" height="125" fill="#4A2C2C" />
  <rect x="375" y="625" width="125" height="125" fill="#5B8F57" />
  <rect x="500" y="625" width="125" height="125" fill="#D2B7A2" />
  <rect x="625" y="625" width="125" height="125" fill="#641212" />
  <rect x="750" y="625" width="125" height="125" fill="#BE8C83" />
  <rect x="875" y="625" width="125" height="125" fill="#3E3D3D" />
  <rect x="1000" y="625" width="125" height="125" fill="#1D1B1A" />
  <rect x="1125" y="625" width="125" height="125" fill="#E9E1D8" />
  <rect x="250" y="750" width="125" height="125" fill="#7C5252" />
  <rect x="375" y="750" width="125" height="125" fill="#D1C3B6" />
  <rect x="500" y="750" width="125" height="125" fill="#CDB5AA" />
  <rect x="625" y="750" width="125" height="125" fill="#D73029" />
  <rect x="750" y="750" width="125" height="125" fill="#462F2E" />
  <rect x="875" y="750" width="125" height="125" fill="#4F4F4F" />
  <rect x="1000" y="750" width="125" height="125" fill="#E2D5C1" />
  <rect x="1125" y="750" width="125" height="125" fill="#7A7B76" />
  <rect x="250" y="875" width="125" height="125" fill="#3F3D3D" />
  <rect x="375" y="875" width="125" height="125" fill="#B63E2D" />
  <rect x="500" y="875" width="125" height="125" fill="#E7DFD7" />
  <rect x="625" y="875" width="125" height="125" fill="#445151" />
  <rect x="750" y="875" width="125" height="125" fill="#0F0F0F" />
  <rect x="875" y="875" width="125" height="125" fill="#F2D3C1" />
  <rect x="1000" y="875" width="125" height="125" fill="#695B52" />
  <rect x="1125" y="875" width="125" height="125" fill="#3C3333" />
  <rect x="250" y="1000" width="125" height="125" fill="#4F3E3E" />
  <rect x="375" y="1000" width="125" height="125" fill="#A98C83" />
  <rect x="500" y="1000" width="125" height="125" fill="#958B83" />
  <rect x="625" y="1000" width="125" height="125" fill="#EC6D5C" />
  <rect x="750" y="1000" width="125" height="125" fill="#789B89" />
  <rect x="875" y="1000" width="125" height="125" fill="#3B2D2D" />
  <rect x="1000" y="1000" width="125" height="125" fill="#C9C2B0" />
  <rect x="1125" y="1000" width="125" height="125" fill="#73352B" />
  <rect x="250" y="1125" width="125" height="125" fill="#4E2B2B" />
  <rect x="375" y="1125" width="125" height="125" fill="#AB8A73" />
  <rect x="500" y="1125" width="125" height="125" fill="#C69A97" />
  <rect x="625" y="1125" width="125" height="125" fill="#244443" />
  <rect x="750" y="1125" width="125" height="125" fill="#E3C8B0" />
  <rect x="875" y="1125" width="125" height="125" fill="#5A4F4F" />
  <rect x="1000" y="1125" width="125" height="125" fill="#3E5153" />
  <rect x="1125" y="1125" width="125" height="125" fill="#1A1A1A" />
  <rect x="250" y="250" width="1000" height="1000" fill="none" stroke="#151515" stroke-opacity="0.16" stroke-width="2" />
</svg>
