<svg xmlns="http://www.w3.org/2000/svg" width="1500" height="1500" viewBox="0 0 1500 1500" shape-rendering="crispEdges" role="img" aria-labelledby="title desc">
  <title id="title">Echoes of Shelter in White frame</title>
  <desc id="desc">Square Project artwork previewed in a white frame.</desc>
  <rect x="0" y="0" width="1500" height="1500" fill="#FFFFFF" />
  <image href="https://mysquareart.com/frames/white.jpg" x="0" y="0" width="1500" height="1500" preserveAspectRatio="xMidYMid meet" />
  <rect x="250" y="250" width="1000" height="1000" fill="#FFFFFF" />
  <rect x="250" y="250" width="125" height="125" fill="#B5D99C" />
  <rect x="375" y="250" width="125" height="125" fill="#C1B6A4" />
  <rect x="500" y="250" width="125" height="125" fill="#FFE4C4" />
  <rect x="625" y="250" width="125" height="125" fill="#B0C4DE" />
  <rect x="750" y="250" width="125" height="125" fill="#5F9EA0" />
  <rect x="875" y="250" width="125" height="125" fill="#BBDEFB" />
  <rect x="1000" y="250" width="125" height="125" fill="#E6F1F3" />
  <rect x="1125" y="250" width="125" height="125" fill="#FFFFFF" />
  <rect x="250" y="375" width="125" height="125" fill="#B5D99C" />
  <rect x="375" y="375" width="125" height="125" fill="#78B5A6" />
  <rect x="500" y="375" width="125" height="125" fill="#FFF9E6" />
  <rect x="625" y="375" width="125" height="125" fill="#B0C4DE" />
  <rect x="750" y="375" width="125" height="125" fill="#A0D0DF" />
  <rect x="875" y="375" width="125" height="125" fill="#E6F1F3" />
  <rect x="1000" y="375" width="125" height="125" fill="#FFFFFF" />
  <rect x="1125" y="375" width="125" height="125" fill="#FFFFFF" />
  <rect x="250" y="500" width="125" height="125" fill="#FFE4C4" />
  <rect x="375" y="500" width="125" height="125" fill="#E0D6B3" />
  <rect x="500" y="500" width="125" height="125" fill="#F1F8E0" />
  <rect x="625" y="500" width="125" height="125" fill="#B0C4DE" />
  <rect x="750" y="500" width="125" height="125" fill="#F9DCB8" />
  <rect x="875" y="500" width="125" height="125" fill="#FFFFFF" />
  <rect x="1000" y="500" width="125" height="125" fill="#D6E1E9" />
  <rect x="1125" y="500" width="125" height="125" fill="#FFFFFF" />
  <rect x="250" y="625" width="125" height="125" fill="#6B8E23" />
  <rect x="375" y="625" width="125" height="125" fill="#FFDAB9" />
  <rect x="500" y="625" width="125" height="125" fill="#F1E5B5" />
  <rect x="625" y="625" width="125" height="125" fill="#FFFFFF" />
  <rect x="750" y="625" width="125" height="125" fill="#FFFFFF" />
  <rect x="875" y="625" width="125" height="125" fill="#D3D3D3" />
  <rect x="1000" y="625" width="125" height="125" fill="#F9DCD1" />
  <rect x="1125" y="625" width="125" height="125" fill="#FFFFFF" />
  <rect x="250" y="750" width="125" height="125" fill="#455A64" />
  <rect x="375" y="750" width="125" height="125" fill="#A52A2A" />
  <rect x="500" y="750" width="125" height="125" fill="#FFCCCB" />
  <rect x="625" y="750" width="125" height="125" fill="#F9F6B6" />
  <rect x="750" y="750" width="125" height="125" fill="#FFFFFF" />
  <rect x="875" y="750" width="125" height="125" fill="#FFFFFF" />
  <rect x="1000" y="750" width="125" height="125" fill="#FFFFFF" />
  <rect x="1125" y="750" width="125" height="125" fill="#FFFFFF" />
  <rect x="250" y="875" width="125" height="125" fill="#FFFFFF" />
  <rect x="375" y="875" width="125" height="125" fill="#F2B5D4" />
  <rect x="500" y="875" width="125" height="125" fill="#C6ADF5" />
  <rect x="625" y="875" width="125" height="125" fill="#B5D99C" />
  <rect x="750" y="875" width="125" height="125" fill="#FFFFFF" />
  <rect x="875" y="875" width="125" height="125" fill="#FFFFFF" />
  <rect x="1000" y="875" width="125" height="125" fill="#FFFFFF" />
  <rect x="1125" y="875" width="125" height="125" fill="#FFFFFF" />
  <rect x="250" y="1000" width="125" height="125" fill="#C1B6A4" />
  <rect x="375" y="1000" width="125" height="125" fill="#FF825C" />
  <rect x="500" y="1000" width="125" height="125" fill="#C1B6A4" />
  <rect x="625" y="1000" width="125" height="125" fill="#FFFFFF" />
  <rect x="750" y="1000" width="125" height="125" fill="#FFFFFF" />
  <rect x="875" y="1000" width="125" height="125" fill="#FFFFFF" />
  <rect x="1000" y="1000" width="125" height="125" fill="#FFFFFF" />
  <rect x="1125" y="1000" width="125" height="125" fill="#FFFFFF" />
  <rect x="250" y="1125" width="125" height="125" fill="#FFFFFF" />
  <rect x="375" y="1125" width="125" height="125" fill="#D1E7DD" />
  <rect x="500" y="1125" width="125" height="125" fill="#FFFFFF" />
  <rect x="625" y="1125" width="125" height="125" fill="#FFFFFF" />
  <rect x="750" y="1125" width="125" height="125" fill="#FFFFFF" />
  <rect x="875" y="1125" width="125" height="125" fill="#FFFFFF" />
  <rect x="1000" y="1125" width="125" height="125" fill="#FFFFFF" />
  <rect x="1125" y="1125" width="125" height="125" fill="#FFFFFF" />
  <rect x="250" y="250" width="1000" height="1000" fill="none" stroke="#151515" stroke-opacity="0.16" stroke-width="2" />
</svg>
