<svg xmlns="http://www.w3.org/2000/svg" width="1500" height="1500" viewBox="0 0 1500 1500" shape-rendering="crispEdges" role="img" aria-labelledby="title desc">
  <title id="title">Contrast and Currents in Natural frame</title>
  <desc id="desc">Square Project artwork previewed in a natural frame.</desc>
  <defs>
    <linearGradient id="frameFace" x1="0" y1="0" x2="1" y2="1">
      <stop offset="0" stop-color="#8F6F35" />
      <stop offset="0.32" stop-color="#F0DDAA" />
      <stop offset="0.68" stop-color="#D8C190" />
      <stop offset="1" stop-color="#B39155" />
    </linearGradient>
    <filter id="artShadow" x="-10%" y="-10%" width="120%" height="120%">
      <feDropShadow dx="0" dy="20" stdDeviation="24" flood-color="#000000" flood-opacity="0.24" />
    </filter>
  </defs>
  <rect x="0" y="0" width="1500" height="1500" fill="#FFFFFF" />
  <rect x="0" y="0" width="1500" height="1500" fill="url(#frameFace)" />
  <rect x="120" y="120" width="1260" height="1260" fill="#F8F7F3" />
  <rect x="120" y="120" width="1260" height="1260" fill="none" stroke="#000000" stroke-opacity="0.14" stroke-width="10" />
  <rect x="250" y="250" width="1000" height="1000" fill="#FFFFFF" filter="url(#artShadow)" />
  <rect x="250" y="250" width="125" height="125" fill="#4E3B24" />
  <rect x="375" y="250" width="125" height="125" fill="#E1C699" />
  <rect x="500" y="250" width="125" height="125" fill="#1A0E10" />
  <rect x="625" y="250" width="125" height="125" fill="#A05227" />
  <rect x="750" y="250" width="125" height="125" fill="#B7A09D" />
  <rect x="875" y="250" width="125" height="125" fill="#3F1D20" />
  <rect x="1000" y="250" width="125" height="125" fill="#F4E3C4" />
  <rect x="1125" y="250" width="125" height="125" fill="#2E2755" />
  <rect x="250" y="375" width="125" height="125" fill="#0F0B0D" />
  <rect x="375" y="375" width="125" height="125" fill="#912C3E" />
  <rect x="500" y="375" width="125" height="125" fill="#BFB2AA" />
  <rect x="625" y="375" width="125" height="125" fill="#4A4E8C" />
  <rect x="750" y="375" width="125" height="125" fill="#A0653C" />
  <rect x="875" y="375" width="125" height="125" fill="#C8AA9A" />
  <rect x="1000" y="375" width="125" height="125" fill="#0E0E1A" />
  <rect x="1125" y="375" width="125" height="125" fill="#F4B1A7" />
  <rect x="250" y="500" width="125" height="125" fill="#F5E2D6" />
  <rect x="375" y="500" width="125" height="125" fill="#4B3D2A" />
  <rect x="500" y="500" width="125" height="125" fill="#8A514E" />
  <rect x="625" y="500" width="125" height="125" fill="#1B1A29" />
  <rect x="750" y="500" width="125" height="125" fill="#BAA49A" />
  <rect x="875" y="500" width="125" height="125" fill="#6D5E5C" />
  <rect x="1000" y="500" width="125" height="125" fill="#C7BDAE" />
  <rect x="1125" y="500" width="125" height="125" fill="#3E393C" />
  <rect x="250" y="625" width="125" height="125" fill="#D2C5B0" />
  <rect x="375" y="625" width="125" height="125" fill="#E3CEB2" />
  <rect x="500" y="625" width="125" height="125" fill="#2A1626" />
  <rect x="625" y="625" width="125" height="125" fill="#DA6D37" />
  <rect x="750" y="625" width="125" height="125" fill="#909B8D" />
  <rect x="875" y="625" width="125" height="125" fill="#7D4D37" />
  <rect x="1000" y="625" width="125" height="125" fill="#B3BBA4" />
  <rect x="1125" y="625" width="125" height="125" fill="#4A2D29" />
  <rect x="250" y="750" width="125" height="125" fill="#582A23" />
  <rect x="375" y="750" width="125" height="125" fill="#E1B7A0" />
  <rect x="500" y="750" width="125" height="125" fill="#C82D34" />
  <rect x="625" y="750" width="125" height="125" fill="#0A0B0E" />
  <rect x="750" y="750" width="125" height="125" fill="#5C4E3F" />
  <rect x="875" y="750" width="125" height="125" fill="#C1BFB4" />
  <rect x="1000" y="750" width="125" height="125" fill="#3D2C28" />
  <rect x="1125" y="750" width="125" height="125" fill="#A06337" />
  <rect x="250" y="875" width="125" height="125" fill="#F4D8C5" />
  <rect x="375" y="875" width="125" height="125" fill="#D9B3A0" />
  <rect x="500" y="875" width="125" height="125" fill="#793A41" />
  <rect x="625" y="875" width="125" height="125" fill="#545456" />
  <rect x="750" y="875" width="125" height="125" fill="#E4B4A1" />
  <rect x="875" y="875" width="125" height="125" fill="#180F1C" />
  <rect x="1000" y="875" width="125" height="125" fill="#CE0E15" />
  <rect x="1125" y="875" width="125" height="125" fill="#C3AA9D" />
  <rect x="250" y="1000" width="125" height="125" fill="#98564E" />
  <rect x="375" y="1000" width="125" height="125" fill="#5D4F42" />
  <rect x="500" y="1000" width="125" height="125" fill="#4C2D31" />
  <rect x="625" y="1000" width="125" height="125" fill="#FFC5AE" />
  <rect x="750" y="1000" width="125" height="125" fill="#A0867F" />
  <rect x="875" y="1000" width="125" height="125" fill="#2A1E22" />
  <rect x="1000" y="1000" width="125" height="125" fill="#D9C7B7" />
  <rect x="1125" y="1000" width="125" height="125" fill="#A5B29C" />
  <rect x="250" y="1125" width="125" height="125" fill="#F1E5D3" />
  <rect x="375" y="1125" width="125" height="125" fill="#341C24" />
  <rect x="500" y="1125" width="125" height="125" fill="#BA474B" />
  <rect x="625" y="1125" width="125" height="125" fill="#D4C7B6" />
  <rect x="750" y="1125" width="125" height="125" fill="#6B4C3B" />
  <rect x="875" y="1125" width="125" height="125" fill="#D8C1B1" />
  <rect x="1000" y="1125" width="125" height="125" fill="#484953" />
  <rect x="1125" y="1125" width="125" height="125" fill="#1B141D" />
  <rect x="250" y="250" width="1000" height="1000" fill="none" stroke="#151515" stroke-opacity="0.16" stroke-width="2" />
</svg>
