<svg xmlns="http://www.w3.org/2000/svg" width="1500" height="1500" viewBox="0 0 1500 1500" shape-rendering="crispEdges" role="img" aria-labelledby="title desc">
  <title id="title">Hunger vs Restraint in Black frame</title>
  <desc id="desc">Square Project artwork previewed in a black frame.</desc>
  <defs>
    <linearGradient id="frameFace" x1="0" y1="0" x2="1" y2="1">
      <stop offset="0" stop-color="#6A6A6A" />
      <stop offset="0.32" stop-color="#343434" />
      <stop offset="0.68" stop-color="#111111" />
      <stop offset="1" stop-color="#050505" />
    </linearGradient>
    <filter id="artShadow" x="-10%" y="-10%" width="120%" height="120%">
      <feDropShadow dx="0" dy="20" stdDeviation="24" flood-color="#000000" flood-opacity="0.24" />
    </filter>
  </defs>
  <rect x="0" y="0" width="1500" height="1500" fill="#FFFFFF" />
  <rect x="0" y="0" width="1500" height="1500" fill="url(#frameFace)" />
  <rect x="120" y="120" width="1260" height="1260" fill="#F8F7F3" />
  <rect x="120" y="120" width="1260" height="1260" fill="none" stroke="#000000" stroke-opacity="0.14" stroke-width="10" />
  <rect x="250" y="250" width="1000" height="1000" fill="#FFFFFF" filter="url(#artShadow)" />
  <rect x="250" y="250" width="125" height="125" fill="#FF6F61" />
  <rect x="375" y="250" width="125" height="125" fill="#F04E1E" />
  <rect x="500" y="250" width="125" height="125" fill="#FF8C74" />
  <rect x="625" y="250" width="125" height="125" fill="#FF7B5A" />
  <rect x="750" y="250" width="125" height="125" fill="#FF9C8A" />
  <rect x="875" y="250" width="125" height="125" fill="#FF6F61" />
  <rect x="1000" y="250" width="125" height="125" fill="#F04E1E" />
  <rect x="1125" y="250" width="125" height="125" fill="#FF8C74" />
  <rect x="250" y="375" width="125" height="125" fill="#FF8A2A" />
  <rect x="375" y="375" width="125" height="125" fill="#FFBA8D" />
  <rect x="500" y="375" width="125" height="125" fill="#FF641E" />
  <rect x="625" y="375" width="125" height="125" fill="#D17070" />
  <rect x="750" y="375" width="125" height="125" fill="#D9A3B9" />
  <rect x="875" y="375" width="125" height="125" fill="#C2B2B5" />
  <rect x="1000" y="375" width="125" height="125" fill="#6B7C9A" />
  <rect x="1125" y="375" width="125" height="125" fill="#B2B2B2" />
  <rect x="250" y="500" width="125" height="125" fill="#F04E25" />
  <rect x="375" y="500" width="125" height="125" fill="#D17070" />
  <rect x="500" y="500" width="125" height="125" fill="#F36B1E" />
  <rect x="625" y="500" width="125" height="125" fill="#F2B23A" />
  <rect x="750" y="500" width="125" height="125" fill="#B3C6E9" />
  <rect x="875" y="500" width="125" height="125" fill="#D4D3D4" />
  <rect x="1000" y="500" width="125" height="125" fill="#8BA3B7" />
  <rect x="1125" y="500" width="125" height="125" fill="#6D8BB0" />
  <rect x="250" y="625" width="125" height="125" fill="#BF4B4B" />
  <rect x="375" y="625" width="125" height="125" fill="#D7C0D2" />
  <rect x="500" y="625" width="125" height="125" fill="#F4D852" />
  <rect x="625" y="625" width="125" height="125" fill="#F2B23A" />
  <rect x="750" y="625" width="125" height="125" fill="#595B89" />
  <rect x="875" y="625" width="125" height="125" fill="#A0BAC1" />
  <rect x="1000" y="625" width="125" height="125" fill="#B7D0E7" />
  <rect x="1125" y="625" width="125" height="125" fill="#C1CED4" />
  <rect x="250" y="750" width="125" height="125" fill="#D3A8A5" />
  <rect x="375" y="750" width="125" height="125" fill="#A0BAC1" />
  <rect x="500" y="750" width="125" height="125" fill="#B7E3D6" />
  <rect x="625" y="750" width="125" height="125" fill="#D1E4F3" />
  <rect x="750" y="750" width="125" height="125" fill="#C5D9C7" />
  <rect x="875" y="750" width="125" height="125" fill="#0C1625" />
  <rect x="1000" y="750" width="125" height="125" fill="#A1A69D" />
  <rect x="1125" y="750" width="125" height="125" fill="#B8B2C3" />
  <rect x="250" y="875" width="125" height="125" fill="#C6C6C6" />
  <rect x="375" y="875" width="125" height="125" fill="#C5D9C7" />
  <rect x="500" y="875" width="125" height="125" fill="#8B8F91" />
  <rect x="625" y="875" width="125" height="125" fill="#2B2F0D" />
  <rect x="750" y="875" width="125" height="125" fill="#6E6C78" />
  <rect x="875" y="875" width="125" height="125" fill="#3A3D5D" />
  <rect x="1000" y="875" width="125" height="125" fill="#414F69" />
  <rect x="1125" y="875" width="125" height="125" fill="#B1C6F0" />
  <rect x="250" y="1000" width="125" height="125" fill="#C8AAB4" />
  <rect x="375" y="1000" width="125" height="125" fill="#6D8BB0" />
  <rect x="500" y="1000" width="125" height="125" fill="#94B5D1" />
  <rect x="625" y="1000" width="125" height="125" fill="#E4E4E4" />
  <rect x="750" y="1000" width="125" height="125" fill="#9BB9CE" />
  <rect x="875" y="1000" width="125" height="125" fill="#C5C5D1" />
  <rect x="1000" y="1000" width="125" height="125" fill="#6B7C9A" />
  <rect x="1125" y="1000" width="125" height="125" fill="#B2B2B2" />
  <rect x="250" y="1125" width="125" height="125" fill="#F1F1F1" />
  <rect x="375" y="1125" width="125" height="125" fill="#D5D3D2" />
  <rect x="500" y="1125" width="125" height="125" fill="#98A7B2" />
  <rect x="625" y="1125" width="125" height="125" fill="#A1D5DB" />
  <rect x="750" y="1125" width="125" height="125" fill="#1D2D3D" />
  <rect x="875" y="1125" width="125" height="125" fill="#A1BEB8" />
  <rect x="1000" y="1125" width="125" height="125" fill="#B2C8C2" />
  <rect x="1125" y="1125" width="125" height="125" fill="#D9D0B3" />
  <rect x="250" y="250" width="1000" height="1000" fill="none" stroke="#151515" stroke-opacity="0.16" stroke-width="2" />
</svg>
