<svg xmlns="http://www.w3.org/2000/svg" width="1500" height="1500" viewBox="0 0 1500 1500" shape-rendering="crispEdges" role="img" aria-labelledby="title desc">
  <title id="title">Symmetrical Disarray in White frame</title>
  <desc id="desc">Square Project artwork previewed in a white frame.</desc>
  <rect x="0" y="0" width="1500" height="1500" fill="#FFFFFF" />
  <image href="https://mysquareart.com/frames/white.jpg" x="0" y="0" width="1500" height="1500" preserveAspectRatio="xMidYMid meet" />
  <rect x="250" y="250" width="1000" height="1000" fill="#FFFFFF" />
  <rect x="250" y="250" width="125" height="125" fill="#5C2A29" />
  <rect x="375" y="250" width="125" height="125" fill="#A83B3C" />
  <rect x="500" y="250" width="125" height="125" fill="#5D2E31" />
  <rect x="625" y="250" width="125" height="125" fill="#7E5453" />
  <rect x="750" y="250" width="125" height="125" fill="#4D1D20" />
  <rect x="875" y="250" width="125" height="125" fill="#AD2C2B" />
  <rect x="1000" y="250" width="125" height="125" fill="#CC4C4D" />
  <rect x="1125" y="250" width="125" height="125" fill="#B52A2E" />
  <rect x="250" y="375" width="125" height="125" fill="#7F3F3C" />
  <rect x="375" y="375" width="125" height="125" fill="#B86A6D" />
  <rect x="500" y="375" width="125" height="125" fill="#B1A9B1" />
  <rect x="625" y="375" width="125" height="125" fill="#7E5A55" />
  <rect x="750" y="375" width="125" height="125" fill="#A33439" />
  <rect x="875" y="375" width="125" height="125" fill="#FFE5E6" />
  <rect x="1000" y="375" width="125" height="125" fill="#F6C9C9" />
  <rect x="1125" y="375" width="125" height="125" fill="#D7C5C7" />
  <rect x="250" y="500" width="125" height="125" fill="#5F313C" />
  <rect x="375" y="500" width="125" height="125" fill="#C0B0B3" />
  <rect x="500" y="500" width="125" height="125" fill="#C7A9A6" />
  <rect x="625" y="500" width="125" height="125" fill="#9F3032" />
  <rect x="750" y="500" width="125" height="125" fill="#5C2428" />
  <rect x="875" y="500" width="125" height="125" fill="#F06A71" />
  <rect x="1000" y="500" width="125" height="125" fill="#B45B53" />
  <rect x="1125" y="500" width="125" height="125" fill="#E4B3B6" />
  <rect x="250" y="625" width="125" height="125" fill="#4D1516" />
  <rect x="375" y="625" width="125" height="125" fill="#8E3C4D" />
  <rect x="500" y="625" width="125" height="125" fill="#B36A6F" />
  <rect x="625" y="625" width="125" height="125" fill="#D7C4C6" />
  <rect x="750" y="625" width="125" height="125" fill="#A54D51" />
  <rect x="875" y="625" width="125" height="125" fill="#8E3334" />
  <rect x="1000" y="625" width="125" height="125" fill="#C73A3D" />
  <rect x="1125" y="625" width="125" height="125" fill="#D9C5C7" />
  <rect x="250" y="750" width="125" height="125" fill="#A73D39" />
  <rect x="375" y="750" width="125" height="125" fill="#C42453" />
  <rect x="500" y="750" width="125" height="125" fill="#E8C2C2" />
  <rect x="625" y="750" width="125" height="125" fill="#5D2528" />
  <rect x="750" y="750" width="125" height="125" fill="#DA7073" />
  <rect x="875" y="750" width="125" height="125" fill="#B09B9B" />
  <rect x="1000" y="750" width="125" height="125" fill="#C2C7C7" />
  <rect x="1125" y="750" width="125" height="125" fill="#AAB1B1" />
  <rect x="250" y="875" width="125" height="125" fill="#5E43A7" />
  <rect x="375" y="875" width="125" height="125" fill="#D94052" />
  <rect x="500" y="875" width="125" height="125" fill="#D94A5E" />
  <rect x="625" y="875" width="125" height="125" fill="#CCB3B0" />
  <rect x="750" y="875" width="125" height="125" fill="#EF6365" />
  <rect x="875" y="875" width="125" height="125" fill="#6D3033" />
  <rect x="1000" y="875" width="125" height="125" fill="#500C10" />
  <rect x="1125" y="875" width="125" height="125" fill="#211E1E" />
  <rect x="250" y="1000" width="125" height="125" fill="#5C2C30" />
  <rect x="375" y="1000" width="125" height="125" fill="#8B5E64" />
  <rect x="500" y="1000" width="125" height="125" fill="#D1777A" />
  <rect x="625" y="1000" width="125" height="125" fill="#B31C1F" />
  <rect x="750" y="1000" width="125" height="125" fill="#8F3B42" />
  <rect x="875" y="1000" width="125" height="125" fill="#C3BEC2" />
  <rect x="1000" y="1000" width="125" height="125" fill="#E5D4D7" />
  <rect x="1125" y="1000" width="125" height="125" fill="#B9B1B3" />
  <rect x="250" y="1125" width="125" height="125" fill="#4B1515" />
  <rect x="375" y="1125" width="125" height="125" fill="#C04855" />
  <rect x="500" y="1125" width="125" height="125" fill="#C95661" />
  <rect x="625" y="1125" width="125" height="125" fill="#FBB3B7" />
  <rect x="750" y="1125" width="125" height="125" fill="#D8C2C4" />
  <rect x="875" y="1125" width="125" height="125" fill="#C23437" />
  <rect x="1000" y="1125" width="125" height="125" fill="#E5D1D1" />
  <rect x="1125" y="1125" width="125" height="125" fill="#C6B3B3" />
  <rect x="250" y="250" width="1000" height="1000" fill="none" stroke="#151515" stroke-opacity="0.16" stroke-width="2" />
</svg>
