<svg xmlns="http://www.w3.org/2000/svg" width="1500" height="1500" viewBox="0 0 1500 1500" shape-rendering="crispEdges" role="img" aria-labelledby="title desc">
  <title id="title">Echoes of Change in Brown frame</title>
  <desc id="desc">Square Project artwork previewed in a brown frame.</desc>
  <defs>
    <linearGradient id="frameFace" x1="0" y1="0" x2="1" y2="1">
      <stop offset="0" stop-color="#C18A55" />
      <stop offset="0.32" stop-color="#9A6840" />
      <stop offset="0.68" stop-color="#70401F" />
      <stop offset="1" stop-color="#3F2413" />
    </linearGradient>
    <filter id="artShadow" x="-10%" y="-10%" width="120%" height="120%">
      <feDropShadow dx="0" dy="20" stdDeviation="24" flood-color="#000000" flood-opacity="0.24" />
    </filter>
  </defs>
  <rect x="0" y="0" width="1500" height="1500" fill="#FFFFFF" />
  <rect x="0" y="0" width="1500" height="1500" fill="url(#frameFace)" />
  <rect x="120" y="120" width="1260" height="1260" fill="#F8F7F3" />
  <rect x="120" y="120" width="1260" height="1260" fill="none" stroke="#000000" stroke-opacity="0.14" stroke-width="10" />
  <rect x="250" y="250" width="1000" height="1000" fill="#FFFFFF" filter="url(#artShadow)" />
  <rect x="250" y="250" width="125" height="125" fill="#001F3F" />
  <rect x="375" y="250" width="125" height="125" fill="#003366" />
  <rect x="500" y="250" width="125" height="125" fill="#004B87" />
  <rect x="625" y="250" width="125" height="125" fill="#007FFF" />
  <rect x="750" y="250" width="125" height="125" fill="#003D5B" />
  <rect x="875" y="250" width="125" height="125" fill="#011F24" />
  <rect x="1000" y="250" width="125" height="125" fill="#002E39" />
  <rect x="1125" y="250" width="125" height="125" fill="#004B87" />
  <rect x="250" y="375" width="125" height="125" fill="#001F3F" />
  <rect x="375" y="375" width="125" height="125" fill="#003366" />
  <rect x="500" y="375" width="125" height="125" fill="#003A5E" />
  <rect x="625" y="375" width="125" height="125" fill="#005F8C" />
  <rect x="750" y="375" width="125" height="125" fill="#008B9F" />
  <rect x="875" y="375" width="125" height="125" fill="#0099B3" />
  <rect x="1000" y="375" width="125" height="125" fill="#007FFF" />
  <rect x="1125" y="375" width="125" height="125" fill="#005F8C" />
  <rect x="250" y="500" width="125" height="125" fill="#005F8C" />
  <rect x="375" y="500" width="125" height="125" fill="#007FFF" />
  <rect x="500" y="500" width="125" height="125" fill="#006B7A" />
  <rect x="625" y="500" width="125" height="125" fill="#006C85" />
  <rect x="750" y="500" width="125" height="125" fill="#008B9F" />
  <rect x="875" y="500" width="125" height="125" fill="#007DA2" />
  <rect x="1000" y="500" width="125" height="125" fill="#009BFF" />
  <rect x="1125" y="500" width="125" height="125" fill="#008C8D" />
  <rect x="250" y="625" width="125" height="125" fill="#99CCFF" />
  <rect x="375" y="625" width="125" height="125" fill="#0099B3" />
  <rect x="500" y="625" width="125" height="125" fill="#008C8D" />
  <rect x="625" y="625" width="125" height="125" fill="#007FFF" />
  <rect x="750" y="625" width="125" height="125" fill="#005F8C" />
  <rect x="875" y="625" width="125" height="125" fill="#003366" />
  <rect x="1000" y="625" width="125" height="125" fill="#001F3F" />
  <rect x="1125" y="625" width="125" height="125" fill="#000000" />
  <rect x="250" y="750" width="125" height="125" fill="#7FB3C2" />
  <rect x="375" y="750" width="125" height="125" fill="#0099B3" />
  <rect x="500" y="750" width="125" height="125" fill="#00B2A9" />
  <rect x="625" y="750" width="125" height="125" fill="#0099B3" />
  <rect x="750" y="750" width="125" height="125" fill="#007FFF" />
  <rect x="875" y="750" width="125" height="125" fill="#88C6D5" />
  <rect x="1000" y="750" width="125" height="125" fill="#A4D7E1" />
  <rect x="1125" y="750" width="125" height="125" fill="#9DDBEB" />
  <rect x="250" y="875" width="125" height="125" fill="#E0F7FA" />
  <rect x="375" y="875" width="125" height="125" fill="#B3E2E9" />
  <rect x="500" y="875" width="125" height="125" fill="#009BFF" />
  <rect x="625" y="875" width="125" height="125" fill="#A4D7E1" />
  <rect x="750" y="875" width="125" height="125" fill="#00B2A9" />
  <rect x="875" y="875" width="125" height="125" fill="#88C6D5" />
  <rect x="1000" y="875" width="125" height="125" fill="#77CEDA" />
  <rect x="1125" y="875" width="125" height="125" fill="#55B1B3" />
  <rect x="250" y="1000" width="125" height="125" fill="#DDDDDD" />
  <rect x="375" y="1000" width="125" height="125" fill="#D0E9E6" />
  <rect x="500" y="1000" width="125" height="125" fill="#B2EBF2" />
  <rect x="625" y="1000" width="125" height="125" fill="#A4CEDF" />
  <rect x="750" y="1000" width="125" height="125" fill="#AFD7E1" />
  <rect x="875" y="1000" width="125" height="125" fill="#FFFFFF" />
  <rect x="1000" y="1000" width="125" height="125" fill="#F4FCFD" />
  <rect x="1125" y="1000" width="125" height="125" fill="#E8F6F7" />
  <rect x="250" y="1125" width="125" height="125" fill="#FFFFFF" />
  <rect x="375" y="1125" width="125" height="125" fill="#F7FCFC" />
  <rect x="500" y="1125" width="125" height="125" fill="#E8F6F7" />
  <rect x="625" y="1125" width="125" height="125" fill="#D0E9E6" />
  <rect x="750" y="1125" width="125" height="125" fill="#B2EBF2" />
  <rect x="875" y="1125" width="125" height="125" fill="#A4CEDF" />
  <rect x="1000" y="1125" width="125" height="125" fill="#BCCFDF" />
  <rect x="1125" y="1125" width="125" height="125" fill="#FFFFFF" />
  <rect x="250" y="250" width="1000" height="1000" fill="none" stroke="#151515" stroke-opacity="0.16" stroke-width="2" />
</svg>
