<svg xmlns="http://www.w3.org/2000/svg" width="1500" height="1500" viewBox="0 0 1500 1500" shape-rendering="crispEdges" role="img" aria-labelledby="title desc">
  <title id="title">Striking Collision in Brown frame</title>
  <desc id="desc">Square Project artwork previewed in a brown frame.</desc>
  <defs>
    <linearGradient id="frameFace" x1="0" y1="0" x2="1" y2="1">
      <stop offset="0" stop-color="#C18A55" />
      <stop offset="0.32" stop-color="#9A6840" />
      <stop offset="0.68" stop-color="#70401F" />
      <stop offset="1" stop-color="#3F2413" />
    </linearGradient>
    <filter id="artShadow" x="-10%" y="-10%" width="120%" height="120%">
      <feDropShadow dx="0" dy="20" stdDeviation="24" flood-color="#000000" flood-opacity="0.24" />
    </filter>
  </defs>
  <rect x="0" y="0" width="1500" height="1500" fill="#FFFFFF" />
  <rect x="0" y="0" width="1500" height="1500" fill="url(#frameFace)" />
  <rect x="120" y="120" width="1260" height="1260" fill="#F8F7F3" />
  <rect x="120" y="120" width="1260" height="1260" fill="none" stroke="#000000" stroke-opacity="0.14" stroke-width="10" />
  <rect x="250" y="250" width="1000" height="1000" fill="#FFFFFF" filter="url(#artShadow)" />
  <rect x="250" y="250" width="125" height="125" fill="#6F1D99" />
  <rect x="375" y="250" width="125" height="125" fill="#6B92B4" />
  <rect x="500" y="250" width="125" height="125" fill="#E5C48E" />
  <rect x="625" y="250" width="125" height="125" fill="#4B2E54" />
  <rect x="750" y="250" width="125" height="125" fill="#A60533" />
  <rect x="875" y="250" width="125" height="125" fill="#FFCD72" />
  <rect x="1000" y="250" width="125" height="125" fill="#D9A44C" />
  <rect x="1125" y="250" width="125" height="125" fill="#543E37" />
  <rect x="250" y="375" width="125" height="125" fill="#4A233B" />
  <rect x="375" y="375" width="125" height="125" fill="#E8A9B0" />
  <rect x="500" y="375" width="125" height="125" fill="#8C565A" />
  <rect x="625" y="375" width="125" height="125" fill="#4B2F40" />
  <rect x="750" y="375" width="125" height="125" fill="#D2A076" />
  <rect x="875" y="375" width="125" height="125" fill="#FFB800" />
  <rect x="1000" y="375" width="125" height="125" fill="#D8A18B" />
  <rect x="1125" y="375" width="125" height="125" fill="#3D244D" />
  <rect x="250" y="500" width="125" height="125" fill="#D36A50" />
  <rect x="375" y="500" width="125" height="125" fill="#E63C57" />
  <rect x="500" y="500" width="125" height="125" fill="#FFDCB5" />
  <rect x="625" y="500" width="125" height="125" fill="#424D5A" />
  <rect x="750" y="500" width="125" height="125" fill="#D6C78C" />
  <rect x="875" y="500" width="125" height="125" fill="#DAB680" />
  <rect x="1000" y="500" width="125" height="125" fill="#8E7B57" />
  <rect x="1125" y="500" width="125" height="125" fill="#1A1C20" />
  <rect x="250" y="625" width="125" height="125" fill="#C8997D" />
  <rect x="375" y="625" width="125" height="125" fill="#A55783" />
  <rect x="500" y="625" width="125" height="125" fill="#F3F0E8" />
  <rect x="625" y="625" width="125" height="125" fill="#1F1A2F" />
  <rect x="750" y="625" width="125" height="125" fill="#865C4B" />
  <rect x="875" y="625" width="125" height="125" fill="#F4C465" />
  <rect x="1000" y="625" width="125" height="125" fill="#A98582" />
  <rect x="1125" y="625" width="125" height="125" fill="#D5CCB5" />
  <rect x="250" y="750" width="125" height="125" fill="#6D5B86" />
  <rect x="375" y="750" width="125" height="125" fill="#F0803E" />
  <rect x="500" y="750" width="125" height="125" fill="#DAA370" />
  <rect x="625" y="750" width="125" height="125" fill="#264653" />
  <rect x="750" y="750" width="125" height="125" fill="#B0B3A3" />
  <rect x="875" y="750" width="125" height="125" fill="#4F4F4F" />
  <rect x="1000" y="750" width="125" height="125" fill="#C26B76" />
  <rect x="1125" y="750" width="125" height="125" fill="#A85B85" />
  <rect x="250" y="875" width="125" height="125" fill="#B4CE9D" />
  <rect x="375" y="875" width="125" height="125" fill="#9A844A" />
  <rect x="500" y="875" width="125" height="125" fill="#DC2F2D" />
  <rect x="625" y="875" width="125" height="125" fill="#582A28" />
  <rect x="750" y="875" width="125" height="125" fill="#E8D3B8" />
  <rect x="875" y="875" width="125" height="125" fill="#7B8D8E" />
  <rect x="1000" y="875" width="125" height="125" fill="#FFC57D" />
  <rect x="1125" y="875" width="125" height="125" fill="#8B3A38" />
  <rect x="250" y="1000" width="125" height="125" fill="#FEABF5" />
  <rect x="375" y="1000" width="125" height="125" fill="#F55D04" />
  <rect x="500" y="1000" width="125" height="125" fill="#4F1B31" />
  <rect x="625" y="1000" width="125" height="125" fill="#989D82" />
  <rect x="750" y="1000" width="125" height="125" fill="#299B8A" />
  <rect x="875" y="1000" width="125" height="125" fill="#E20254" />
  <rect x="1000" y="1000" width="125" height="125" fill="#EAB11D" />
  <rect x="1125" y="1000" width="125" height="125" fill="#3A382D" />
  <rect x="250" y="1125" width="125" height="125" fill="#F1E2A6" />
  <rect x="375" y="1125" width="125" height="125" fill="#C83E46" />
  <rect x="500" y="1125" width="125" height="125" fill="#C8C2D5" />
  <rect x="625" y="1125" width="125" height="125" fill="#7F5B4F" />
  <rect x="750" y="1125" width="125" height="125" fill="#D6C8BB" />
  <rect x="875" y="1125" width="125" height="125" fill="#F1C94B" />
  <rect x="1000" y="1125" width="125" height="125" fill="#340C08" />
  <rect x="1125" y="1125" width="125" height="125" fill="#5E6A8F" />
  <rect x="250" y="250" width="1000" height="1000" fill="none" stroke="#151515" stroke-opacity="0.16" stroke-width="2" />
</svg>
