<svg xmlns="http://www.w3.org/2000/svg" width="1500" height="1500" viewBox="0 0 1500 1500" shape-rendering="crispEdges" role="img" aria-labelledby="title desc">
  <title id="title">Contrast of Emotion in Natural frame</title>
  <desc id="desc">Square Project artwork previewed in a natural frame.</desc>
  <defs>
    <linearGradient id="frameFace" x1="0" y1="0" x2="1" y2="1">
      <stop offset="0" stop-color="#FFF1D7" />
      <stop offset="0.32" stop-color="#E8D4B7" />
      <stop offset="0.68" stop-color="#C2A17B" />
      <stop offset="1" stop-color="#8D6F50" />
    </linearGradient>
    <pattern id="naturalGrain" patternUnits="userSpaceOnUse" width="180" height="48">
      <path d="M0 12 C48 2 92 24 180 10" fill="none" stroke="#8D6F50" stroke-opacity="0.22" stroke-width="5" />
      <path d="M0 34 C62 44 118 22 180 36" fill="none" stroke="#FFFFFF" stroke-opacity="0.22" stroke-width="4" />
    </pattern>
    <filter id="artShadow" x="-10%" y="-10%" width="120%" height="120%">
      <feDropShadow dx="0" dy="20" stdDeviation="24" flood-color="#000000" flood-opacity="0.24" />
    </filter>
  </defs>
  <rect x="0" y="0" width="1500" height="1500" fill="#FFFFFF" />
  <rect x="0" y="0" width="1500" height="1500" fill="url(#frameFace)" />
  <rect x="0" y="0" width="1500" height="1500" fill="url(#naturalGrain)" />
  <rect x="120" y="120" width="1260" height="1260" fill="#F8F7F3" />
  <rect x="120" y="120" width="1260" height="1260" fill="none" stroke="#000000" stroke-opacity="0.14" stroke-width="10" />
  <rect x="250" y="250" width="1000" height="1000" fill="#FFFFFF" filter="url(#artShadow)" />
  <rect x="250" y="250" width="125" height="125" fill="#FBAE3C" />
  <rect x="375" y="250" width="125" height="125" fill="#FDDC83" />
  <rect x="500" y="250" width="125" height="125" fill="#F2D007" />
  <rect x="625" y="250" width="125" height="125" fill="#F4C300" />
  <rect x="750" y="250" width="125" height="125" fill="#FEDF4B" />
  <rect x="875" y="250" width="125" height="125" fill="#FEFA77" />
  <rect x="1000" y="250" width="125" height="125" fill="#F2C85F" />
  <rect x="1125" y="250" width="125" height="125" fill="#F9E7C6" />
  <rect x="250" y="375" width="125" height="125" fill="#2B1E3D" />
  <rect x="375" y="375" width="125" height="125" fill="#3E4B8E" />
  <rect x="500" y="375" width="125" height="125" fill="#574A9C" />
  <rect x="625" y="375" width="125" height="125" fill="#5E4958" />
  <rect x="750" y="375" width="125" height="125" fill="#4F4073" />
  <rect x="875" y="375" width="125" height="125" fill="#4A2E63" />
  <rect x="1000" y="375" width="125" height="125" fill="#3E2B4D" />
  <rect x="1125" y="375" width="125" height="125" fill="#5C3A65" />
  <rect x="250" y="500" width="125" height="125" fill="#FFD700" />
  <rect x="375" y="500" width="125" height="125" fill="#FFB74D" />
  <rect x="500" y="500" width="125" height="125" fill="#FFC75F" />
  <rect x="625" y="500" width="125" height="125" fill="#FFC23C" />
  <rect x="750" y="500" width="125" height="125" fill="#FF9800" />
  <rect x="875" y="500" width="125" height="125" fill="#FFAA00" />
  <rect x="1000" y="500" width="125" height="125" fill="#F57F20" />
  <rect x="1125" y="500" width="125" height="125" fill="#FFCC00" />
  <rect x="250" y="625" width="125" height="125" fill="#2C3E50" />
  <rect x="375" y="625" width="125" height="125" fill="#34495E" />
  <rect x="500" y="625" width="125" height="125" fill="#1C2833" />
  <rect x="625" y="625" width="125" height="125" fill="#4A235A" />
  <rect x="750" y="625" width="125" height="125" fill="#5D6D7E" />
  <rect x="875" y="625" width="125" height="125" fill="#5D6D7E" />
  <rect x="1000" y="625" width="125" height="125" fill="#4B4B4B" />
  <rect x="1125" y="625" width="125" height="125" fill="#7D7D7D" />
  <rect x="250" y="750" width="125" height="125" fill="#FFA500" />
  <rect x="375" y="750" width="125" height="125" fill="#FFCE54" />
  <rect x="500" y="750" width="125" height="125" fill="#FFBA49" />
  <rect x="625" y="750" width="125" height="125" fill="#FDC7B7" />
  <rect x="750" y="750" width="125" height="125" fill="#FFB300" />
  <rect x="875" y="750" width="125" height="125" fill="#FFA300" />
  <rect x="1000" y="750" width="125" height="125" fill="#FCB900" />
  <rect x="1125" y="750" width="125" height="125" fill="#F1C40F" />
  <rect x="250" y="875" width="125" height="125" fill="#0E4C92" />
  <rect x="375" y="875" width="125" height="125" fill="#1B4F72" />
  <rect x="500" y="875" width="125" height="125" fill="#8E44AD" />
  <rect x="625" y="875" width="125" height="125" fill="#5D6D7E" />
  <rect x="750" y="875" width="125" height="125" fill="#D3D3D3" />
  <rect x="875" y="875" width="125" height="125" fill="#99AAB5" />
  <rect x="1000" y="875" width="125" height="125" fill="#BDC3C7" />
  <rect x="1125" y="875" width="125" height="125" fill="#B7C9D9" />
  <rect x="250" y="1000" width="125" height="125" fill="#FFC300" />
  <rect x="375" y="1000" width="125" height="125" fill="#FF5733" />
  <rect x="500" y="1000" width="125" height="125" fill="#C70039" />
  <rect x="625" y="1000" width="125" height="125" fill="#581845" />
  <rect x="750" y="1000" width="125" height="125" fill="#F39C12" />
  <rect x="875" y="1000" width="125" height="125" fill="#2ECC71" />
  <rect x="1000" y="1000" width="125" height="125" fill="#27AE60" />
  <rect x="1125" y="1000" width="125" height="125" fill="#AAB7B8" />
  <rect x="250" y="1125" width="125" height="125" fill="#1C2833" />
  <rect x="375" y="1125" width="125" height="125" fill="#6D9DC5" />
  <rect x="500" y="1125" width="125" height="125" fill="#F5B041" />
  <rect x="625" y="1125" width="125" height="125" fill="#FF8F1F" />
  <rect x="750" y="1125" width="125" height="125" fill="#7FB3D4" />
  <rect x="875" y="1125" width="125" height="125" fill="#2980B9" />
  <rect x="1000" y="1125" width="125" height="125" fill="#2E86C1" />
  <rect x="1125" y="1125" width="125" height="125" fill="#5DADE2" />
  <rect x="250" y="250" width="1000" height="1000" fill="none" stroke="#151515" stroke-opacity="0.16" stroke-width="2" />
</svg>
