<svg xmlns="http://www.w3.org/2000/svg" width="1500" height="1500" viewBox="0 0 1500 1500" shape-rendering="crispEdges" role="img" aria-labelledby="title desc">
  <title id="title">Tensioned Harmony in White frame</title>
  <desc id="desc">Square Project artwork previewed in a white frame.</desc>
  <rect x="0" y="0" width="1500" height="1500" fill="#FFFFFF" />
  <image href="https://mysquareart.com/frames/white.jpg" x="0" y="0" width="1500" height="1500" preserveAspectRatio="xMidYMid meet" />
  <rect x="250" y="250" width="1000" height="1000" fill="#FFFFFF" />
  <rect x="250" y="250" width="125" height="125" fill="#4B2C20" />
  <rect x="375" y="250" width="125" height="125" fill="#E09651" />
  <rect x="500" y="250" width="125" height="125" fill="#000000" />
  <rect x="625" y="250" width="125" height="125" fill="#4A4E4D" />
  <rect x="750" y="250" width="125" height="125" fill="#C1B481" />
  <rect x="875" y="250" width="125" height="125" fill="#D27A00" />
  <rect x="1000" y="250" width="125" height="125" fill="#4D0A00" />
  <rect x="1125" y="250" width="125" height="125" fill="#5D3A30" />
  <rect x="250" y="375" width="125" height="125" fill="#000000" />
  <rect x="375" y="375" width="125" height="125" fill="#A35D22" />
  <rect x="500" y="375" width="125" height="125" fill="#3B0E0E" />
  <rect x="625" y="375" width="125" height="125" fill="#FFA753" />
  <rect x="750" y="375" width="125" height="125" fill="#493D2A" />
  <rect x="875" y="375" width="125" height="125" fill="#232B23" />
  <rect x="1000" y="375" width="125" height="125" fill="#5E4D31" />
  <rect x="1125" y="375" width="125" height="125" fill="#75707E" />
  <rect x="250" y="500" width="125" height="125" fill="#8B4F36" />
  <rect x="375" y="500" width="125" height="125" fill="#3D2925" />
  <rect x="500" y="500" width="125" height="125" fill="#6B2F20" />
  <rect x="625" y="500" width="125" height="125" fill="#E4C174" />
  <rect x="750" y="500" width="125" height="125" fill="#A55130" />
  <rect x="875" y="500" width="125" height="125" fill="#D70200" />
  <rect x="1000" y="500" width="125" height="125" fill="#D5B36E" />
  <rect x="1125" y="500" width="125" height="125" fill="#443020" />
  <rect x="250" y="625" width="125" height="125" fill="#DA8135" />
  <rect x="375" y="625" width="125" height="125" fill="#FFBE3B" />
  <rect x="500" y="625" width="125" height="125" fill="#4C4A48" />
  <rect x="625" y="625" width="125" height="125" fill="#B8492D" />
  <rect x="750" y="625" width="125" height="125" fill="#A0A36B" />
  <rect x="875" y="625" width="125" height="125" fill="#C59B42" />
  <rect x="1000" y="625" width="125" height="125" fill="#652D22" />
  <rect x="1125" y="625" width="125" height="125" fill="#E9BF6F" />
  <rect x="250" y="750" width="125" height="125" fill="#222619" />
  <rect x="375" y="750" width="125" height="125" fill="#9F6B42" />
  <rect x="500" y="750" width="125" height="125" fill="#D65030" />
  <rect x="625" y="750" width="125" height="125" fill="#FFB65A" />
  <rect x="750" y="750" width="125" height="125" fill="#000000" />
  <rect x="875" y="750" width="125" height="125" fill="#323B3E" />
  <rect x="1000" y="750" width="125" height="125" fill="#BF9D2A" />
  <rect x="1125" y="750" width="125" height="125" fill="#366D4C" />
  <rect x="250" y="875" width="125" height="125" fill="#FBF7E3" />
  <rect x="375" y="875" width="125" height="125" fill="#D0A259" />
  <rect x="500" y="875" width="125" height="125" fill="#B46D3A" />
  <rect x="625" y="875" width="125" height="125" fill="#C1C5CB" />
  <rect x="750" y="875" width="125" height="125" fill="#BF2B01" />
  <rect x="875" y="875" width="125" height="125" fill="#392A1B" />
  <rect x="1000" y="875" width="125" height="125" fill="#E6DDA8" />
  <rect x="1125" y="875" width="125" height="125" fill="#C69F74" />
  <rect x="250" y="1000" width="125" height="125" fill="#4B2A15" />
  <rect x="375" y="1000" width="125" height="125" fill="#FFC266" />
  <rect x="500" y="1000" width="125" height="125" fill="#992E26" />
  <rect x="625" y="1000" width="125" height="125" fill="#5F4F54" />
  <rect x="750" y="1000" width="125" height="125" fill="#D8A94B" />
  <rect x="875" y="1000" width="125" height="125" fill="#290F0D" />
  <rect x="1000" y="1000" width="125" height="125" fill="#C4BF83" />
  <rect x="1125" y="1000" width="125" height="125" fill="#3D2A2A" />
  <rect x="250" y="1125" width="125" height="125" fill="#E9CBA4" />
  <rect x="375" y="1125" width="125" height="125" fill="#B6A54B" />
  <rect x="500" y="1125" width="125" height="125" fill="#4C2A32" />
  <rect x="625" y="1125" width="125" height="125" fill="#FFDAB3" />
  <rect x="750" y="1125" width="125" height="125" fill="#A16A3D" />
  <rect x="875" y="1125" width="125" height="125" fill="#C9B197" />
  <rect x="1000" y="1125" width="125" height="125" fill="#5A4F49" />
  <rect x="1125" y="1125" width="125" height="125" fill="#7B3B2A" />
  <rect x="250" y="250" width="1000" height="1000" fill="none" stroke="#151515" stroke-opacity="0.16" stroke-width="2" />
</svg>
