<svg xmlns="http://www.w3.org/2000/svg" width="1500" height="1500" viewBox="0 0 1500 1500" shape-rendering="crispEdges" role="img" aria-labelledby="title desc">
  <title id="title">Light Meets Weight in Natural frame</title>
  <desc id="desc">Square Project artwork previewed in a natural frame.</desc>
  <defs>
    <linearGradient id="frameFace" x1="0" y1="0" x2="1" y2="1">
      <stop offset="0" stop-color="#FFF1D7" />
      <stop offset="0.32" stop-color="#E8D4B7" />
      <stop offset="0.68" stop-color="#C2A17B" />
      <stop offset="1" stop-color="#8D6F50" />
    </linearGradient>
    <pattern id="naturalGrain" patternUnits="userSpaceOnUse" width="180" height="48">
      <path d="M0 12 C48 2 92 24 180 10" fill="none" stroke="#8D6F50" stroke-opacity="0.22" stroke-width="5" />
      <path d="M0 34 C62 44 118 22 180 36" fill="none" stroke="#FFFFFF" stroke-opacity="0.22" stroke-width="4" />
    </pattern>
    <filter id="artShadow" x="-10%" y="-10%" width="120%" height="120%">
      <feDropShadow dx="0" dy="20" stdDeviation="24" flood-color="#000000" flood-opacity="0.24" />
    </filter>
  </defs>
  <rect x="0" y="0" width="1500" height="1500" fill="#FFFFFF" />
  <rect x="0" y="0" width="1500" height="1500" fill="url(#frameFace)" />
  <rect x="0" y="0" width="1500" height="1500" fill="url(#naturalGrain)" />
  <rect x="120" y="120" width="1260" height="1260" fill="#F8F7F3" />
  <rect x="120" y="120" width="1260" height="1260" fill="none" stroke="#000000" stroke-opacity="0.14" stroke-width="10" />
  <rect x="250" y="250" width="1000" height="1000" fill="#FFFFFF" filter="url(#artShadow)" />
  <rect x="250" y="250" width="125" height="125" fill="#FFDA44" />
  <rect x="375" y="250" width="125" height="125" fill="#FFB300" />
  <rect x="500" y="250" width="125" height="125" fill="#FFC700" />
  <rect x="625" y="250" width="125" height="125" fill="#FFD700" />
  <rect x="750" y="250" width="125" height="125" fill="#003F6C" />
  <rect x="875" y="250" width="125" height="125" fill="#002B4D" />
  <rect x="1000" y="250" width="125" height="125" fill="#001A33" />
  <rect x="1125" y="250" width="125" height="125" fill="#000D1A" />
  <rect x="250" y="375" width="125" height="125" fill="#FFDB6B" />
  <rect x="375" y="375" width="125" height="125" fill="#FFC200" />
  <rect x="500" y="375" width="125" height="125" fill="#F38D00" />
  <rect x="625" y="375" width="125" height="125" fill="#ED5E00" />
  <rect x="750" y="375" width="125" height="125" fill="#005C9A" />
  <rect x="875" y="375" width="125" height="125" fill="#002B4D" />
  <rect x="1000" y="375" width="125" height="125" fill="#000D1A" />
  <rect x="1125" y="375" width="125" height="125" fill="#000D1A" />
  <rect x="250" y="500" width="125" height="125" fill="#FFE6A8" />
  <rect x="375" y="500" width="125" height="125" fill="#FFD400" />
  <rect x="500" y="500" width="125" height="125" fill="#FF9800" />
  <rect x="625" y="500" width="125" height="125" fill="#FF9E00" />
  <rect x="750" y="500" width="125" height="125" fill="#F3A847" />
  <rect x="875" y="500" width="125" height="125" fill="#B9B6D5" />
  <rect x="1000" y="500" width="125" height="125" fill="#000D1A" />
  <rect x="1125" y="500" width="125" height="125" fill="#005E9A" />
  <rect x="250" y="625" width="125" height="125" fill="#FFDA6B" />
  <rect x="375" y="625" width="125" height="125" fill="#FFBF00" />
  <rect x="500" y="625" width="125" height="125" fill="#D29B00" />
  <rect x="625" y="625" width="125" height="125" fill="#A76B00" />
  <rect x="750" y="625" width="125" height="125" fill="#0094DB" />
  <rect x="875" y="625" width="125" height="125" fill="#004D8C" />
  <rect x="1000" y="625" width="125" height="125" fill="#000D1A" />
  <rect x="1125" y="625" width="125" height="125" fill="#002B4D" />
  <rect x="250" y="750" width="125" height="125" fill="#FFD149" />
  <rect x="375" y="750" width="125" height="125" fill="#FFB84D" />
  <rect x="500" y="750" width="125" height="125" fill="#EA6B00" />
  <rect x="625" y="750" width="125" height="125" fill="#CC7B00" />
  <rect x="750" y="750" width="125" height="125" fill="#003A5B" />
  <rect x="875" y="750" width="125" height="125" fill="#002B4D" />
  <rect x="1000" y="750" width="125" height="125" fill="#000D1A" />
  <rect x="1125" y="750" width="125" height="125" fill="#00397E" />
  <rect x="250" y="875" width="125" height="125" fill="#FFA600" />
  <rect x="375" y="875" width="125" height="125" fill="#FFDA7A" />
  <rect x="500" y="875" width="125" height="125" fill="#FFAA33" />
  <rect x="625" y="875" width="125" height="125" fill="#F3A200" />
  <rect x="750" y="875" width="125" height="125" fill="#000A19" />
  <rect x="875" y="875" width="125" height="125" fill="#001A33" />
  <rect x="1000" y="875" width="125" height="125" fill="#00A4D4" />
  <rect x="1125" y="875" width="125" height="125" fill="#F2E1C1" />
  <rect x="250" y="1000" width="125" height="125" fill="#FFC107" />
  <rect x="375" y="1000" width="125" height="125" fill="#FFD28F" />
  <rect x="500" y="1000" width="125" height="125" fill="#FFCC4D" />
  <rect x="625" y="1000" width="125" height="125" fill="#FFB73D" />
  <rect x="750" y="1000" width="125" height="125" fill="#B9B6D5" />
  <rect x="875" y="1000" width="125" height="125" fill="#003D81" />
  <rect x="1000" y="1000" width="125" height="125" fill="#000D1A" />
  <rect x="1125" y="1000" width="125" height="125" fill="#000000" />
  <rect x="250" y="1125" width="125" height="125" fill="#FFEA00" />
  <rect x="375" y="1125" width="125" height="125" fill="#FF5E00" />
  <rect x="500" y="1125" width="125" height="125" fill="#FFA800" />
  <rect x="625" y="1125" width="125" height="125" fill="#FFE3B6" />
  <rect x="750" y="1125" width="125" height="125" fill="#E8E8E8" />
  <rect x="875" y="1125" width="125" height="125" fill="#BDC3C7" />
  <rect x="1000" y="1125" width="125" height="125" fill="#5D5D5D" />
  <rect x="1125" y="1125" width="125" height="125" fill="#292929" />
  <rect x="250" y="250" width="1000" height="1000" fill="none" stroke="#151515" stroke-opacity="0.16" stroke-width="2" />
</svg>
