<svg xmlns="http://www.w3.org/2000/svg" width="1500" height="1500" viewBox="0 0 1500 1500" shape-rendering="crispEdges" role="img" aria-labelledby="title desc">
  <title id="title">Tension between Absence and Longing in Gold frame</title>
  <desc id="desc">Square Project artwork previewed in a gold frame.</desc>
  <defs>
    <linearGradient id="frameFace" x1="0" y1="0" x2="1" y2="1">
      <stop offset="0" stop-color="#FFF0A3" />
      <stop offset="0.32" stop-color="#F1D676" />
      <stop offset="0.68" stop-color="#CBA642" />
      <stop offset="1" stop-color="#8B6A1D" />
    </linearGradient>
    <filter id="artShadow" x="-10%" y="-10%" width="120%" height="120%">
      <feDropShadow dx="0" dy="20" stdDeviation="24" flood-color="#000000" flood-opacity="0.24" />
    </filter>
  </defs>
  <rect x="0" y="0" width="1500" height="1500" fill="#FFFFFF" />
  <rect x="0" y="0" width="1500" height="1500" fill="url(#frameFace)" />
  <rect x="120" y="120" width="1260" height="1260" fill="#F8F7F3" />
  <rect x="120" y="120" width="1260" height="1260" fill="none" stroke="#000000" stroke-opacity="0.14" stroke-width="10" />
  <rect x="250" y="250" width="1000" height="1000" fill="#FFFFFF" filter="url(#artShadow)" />
  <rect x="250" y="250" width="125" height="125" fill="#000000" />
  <rect x="375" y="250" width="125" height="125" fill="#0A1F3C" />
  <rect x="500" y="250" width="125" height="125" fill="#2E5C8D" />
  <rect x="625" y="250" width="125" height="125" fill="#A0C4E7" />
  <rect x="750" y="250" width="125" height="125" fill="#A4D6E1" />
  <rect x="875" y="250" width="125" height="125" fill="#7F8C8D" />
  <rect x="1000" y="250" width="125" height="125" fill="#566573" />
  <rect x="1125" y="250" width="125" height="125" fill="#EBF5FB" />
  <rect x="250" y="375" width="125" height="125" fill="#001F3F" />
  <rect x="375" y="375" width="125" height="125" fill="#0E4C75" />
  <rect x="500" y="375" width="125" height="125" fill="#1B9AAA" />
  <rect x="625" y="375" width="125" height="125" fill="#FFC300" />
  <rect x="750" y="375" width="125" height="125" fill="#FF9A00" />
  <rect x="875" y="375" width="125" height="125" fill="#F8D8D8" />
  <rect x="1000" y="375" width="125" height="125" fill="#D5DBDB" />
  <rect x="1125" y="375" width="125" height="125" fill="#EAF2F8" />
  <rect x="250" y="500" width="125" height="125" fill="#0A192F" />
  <rect x="375" y="500" width="125" height="125" fill="#1A2D54" />
  <rect x="500" y="500" width="125" height="125" fill="#4B86B4" />
  <rect x="625" y="500" width="125" height="125" fill="#B9DFFB" />
  <rect x="750" y="500" width="125" height="125" fill="#E5F3F5" />
  <rect x="875" y="500" width="125" height="125" fill="#D1D3D4" />
  <rect x="1000" y="500" width="125" height="125" fill="#BDC3C7" />
  <rect x="1125" y="500" width="125" height="125" fill="#F6F7F8" />
  <rect x="250" y="625" width="125" height="125" fill="#182E4D" />
  <rect x="375" y="625" width="125" height="125" fill="#2F3C55" />
  <rect x="500" y="625" width="125" height="125" fill="#82CCDD" />
  <rect x="625" y="625" width="125" height="125" fill="#D6EAF8" />
  <rect x="750" y="625" width="125" height="125" fill="#B7DAE3" />
  <rect x="875" y="625" width="125" height="125" fill="#BEC3C7" />
  <rect x="1000" y="625" width="125" height="125" fill="#A6ACAF" />
  <rect x="1125" y="625" width="125" height="125" fill="#F7F9F9" />
  <rect x="250" y="750" width="125" height="125" fill="#1F2A44" />
  <rect x="375" y="750" width="125" height="125" fill="#233156" />
  <rect x="500" y="750" width="125" height="125" fill="#6ABED7" />
  <rect x="625" y="750" width="125" height="125" fill="#E9C7E8" />
  <rect x="750" y="750" width="125" height="125" fill="#C2B4CC" />
  <rect x="875" y="750" width="125" height="125" fill="#A7B1B3" />
  <rect x="1000" y="750" width="125" height="125" fill="#8B949E" />
  <rect x="1125" y="750" width="125" height="125" fill="#FBFCFC" />
  <rect x="250" y="875" width="125" height="125" fill="#263D69" />
  <rect x="375" y="875" width="125" height="125" fill="#1A1C2D" />
  <rect x="500" y="875" width="125" height="125" fill="#2980B9" />
  <rect x="625" y="875" width="125" height="125" fill="#F0B27A" />
  <rect x="750" y="875" width="125" height="125" fill="#E6B54E" />
  <rect x="875" y="875" width="125" height="125" fill="#CAD3D7" />
  <rect x="1000" y="875" width="125" height="125" fill="#BEC5C7" />
  <rect x="1125" y="875" width="125" height="125" fill="#FBF9F9" />
  <rect x="250" y="1000" width="125" height="125" fill="#2F4468" />
  <rect x="375" y="1000" width="125" height="125" fill="#A5BBD7" />
  <rect x="500" y="1000" width="125" height="125" fill="#1C3F72" />
  <rect x="625" y="1000" width="125" height="125" fill="#FCF6BD" />
  <rect x="750" y="1000" width="125" height="125" fill="#E4C534" />
  <rect x="875" y="1000" width="125" height="125" fill="#B0B2B4" />
  <rect x="1000" y="1000" width="125" height="125" fill="#BEC4C7" />
  <rect x="1125" y="1000" width="125" height="125" fill="#FAFAFA" />
  <rect x="250" y="1125" width="125" height="125" fill="#313B49" />
  <rect x="375" y="1125" width="125" height="125" fill="#232B30" />
  <rect x="500" y="1125" width="125" height="125" fill="#FDFEFE" />
  <rect x="625" y="1125" width="125" height="125" fill="#FFEA00" />
  <rect x="750" y="1125" width="125" height="125" fill="#FF9F00" />
  <rect x="875" y="1125" width="125" height="125" fill="#F79F00" />
  <rect x="1000" y="1125" width="125" height="125" fill="#BDC3C7" />
  <rect x="1125" y="1125" width="125" height="125" fill="#EAECE9" />
  <rect x="250" y="250" width="1000" height="1000" fill="none" stroke="#151515" stroke-opacity="0.16" stroke-width="2" />
</svg>
