<svg xmlns="http://www.w3.org/2000/svg" width="1500" height="1500" viewBox="0 0 1500 1500" shape-rendering="crispEdges" role="img" aria-labelledby="title desc">
  <title id="title">Balance of Emotions in Black frame</title>
  <desc id="desc">Square Project artwork previewed in a black frame.</desc>
  <defs>
    <linearGradient id="frameFace" x1="0" y1="0" x2="1" y2="1">
      <stop offset="0" stop-color="#6A6A6A" />
      <stop offset="0.32" stop-color="#343434" />
      <stop offset="0.68" stop-color="#111111" />
      <stop offset="1" stop-color="#050505" />
    </linearGradient>
    <filter id="artShadow" x="-10%" y="-10%" width="120%" height="120%">
      <feDropShadow dx="0" dy="20" stdDeviation="24" flood-color="#000000" flood-opacity="0.24" />
    </filter>
  </defs>
  <rect x="0" y="0" width="1500" height="1500" fill="#FFFFFF" />
  <rect x="0" y="0" width="1500" height="1500" fill="url(#frameFace)" />
  <rect x="120" y="120" width="1260" height="1260" fill="#F8F7F3" />
  <rect x="120" y="120" width="1260" height="1260" fill="none" stroke="#000000" stroke-opacity="0.14" stroke-width="10" />
  <rect x="250" y="250" width="1000" height="1000" fill="#FFFFFF" filter="url(#artShadow)" />
  <rect x="250" y="250" width="125" height="125" fill="#3E0F15" />
  <rect x="375" y="250" width="125" height="125" fill="#6A2E34" />
  <rect x="500" y="250" width="125" height="125" fill="#9F4A52" />
  <rect x="625" y="250" width="125" height="125" fill="#C26373" />
  <rect x="750" y="250" width="125" height="125" fill="#D9B8C4" />
  <rect x="875" y="250" width="125" height="125" fill="#EED4E0" />
  <rect x="1000" y="250" width="125" height="125" fill="#F4E4E7" />
  <rect x="1125" y="250" width="125" height="125" fill="#F6F7F8" />
  <rect x="250" y="375" width="125" height="125" fill="#4D1C27" />
  <rect x="375" y="375" width="125" height="125" fill="#7F424E" />
  <rect x="500" y="375" width="125" height="125" fill="#B6606B" />
  <rect x="625" y="375" width="125" height="125" fill="#DB8F9A" />
  <rect x="750" y="375" width="125" height="125" fill="#EAB7C0" />
  <rect x="875" y="375" width="125" height="125" fill="#F2D3D5" />
  <rect x="1000" y="375" width="125" height="125" fill="#F6E2E5" />
  <rect x="1125" y="375" width="125" height="125" fill="#FFFFFF" />
  <rect x="250" y="500" width="125" height="125" fill="#4A161A" />
  <rect x="375" y="500" width="125" height="125" fill="#771F24" />
  <rect x="500" y="500" width="125" height="125" fill="#AA3F4B" />
  <rect x="625" y="500" width="125" height="125" fill="#D86574" />
  <rect x="750" y="500" width="125" height="125" fill="#E493A0" />
  <rect x="875" y="500" width="125" height="125" fill="#F1B7C3" />
  <rect x="1000" y="500" width="125" height="125" fill="#F7D0D5" />
  <rect x="1125" y="500" width="125" height="125" fill="#FFFFFF" />
  <rect x="250" y="625" width="125" height="125" fill="#4B191D" />
  <rect x="375" y="625" width="125" height="125" fill="#762D36" />
  <rect x="500" y="625" width="125" height="125" fill="#AA3B4D" />
  <rect x="625" y="625" width="125" height="125" fill="#D9707C" />
  <rect x="750" y="625" width="125" height="125" fill="#E6B0BF" />
  <rect x="875" y="625" width="125" height="125" fill="#F1D6DF" />
  <rect x="1000" y="625" width="125" height="125" fill="#F5E7EA" />
  <rect x="1125" y="625" width="125" height="125" fill="#FFFFFF" />
  <rect x="250" y="750" width="125" height="125" fill="#3F1115" />
  <rect x="375" y="750" width="125" height="125" fill="#751A22" />
  <rect x="500" y="750" width="125" height="125" fill="#A8314A" />
  <rect x="625" y="750" width="125" height="125" fill="#D64B6E" />
  <rect x="750" y="750" width="125" height="125" fill="#E0B1C1" />
  <rect x="875" y="750" width="125" height="125" fill="#F2D0D6" />
  <rect x="1000" y="750" width="125" height="125" fill="#F6E5E9" />
  <rect x="1125" y="750" width="125" height="125" fill="#F8F9FA" />
  <rect x="250" y="875" width="125" height="125" fill="#500F13" />
  <rect x="375" y="875" width="125" height="125" fill="#7D262B" />
  <rect x="500" y="875" width="125" height="125" fill="#B83C49" />
  <rect x="625" y="875" width="125" height="125" fill="#D82B35" />
  <rect x="750" y="875" width="125" height="125" fill="#E46368" />
  <rect x="875" y="875" width="125" height="125" fill="#F0B2B9" />
  <rect x="1000" y="875" width="125" height="125" fill="#F4D6D9" />
  <rect x="1125" y="875" width="125" height="125" fill="#FFFFFF" />
  <rect x="250" y="1000" width="125" height="125" fill="#5C161C" />
  <rect x="375" y="1000" width="125" height="125" fill="#8E2636" />
  <rect x="500" y="1000" width="125" height="125" fill="#B73B55" />
  <rect x="625" y="1000" width="125" height="125" fill="#DA485E" />
  <rect x="750" y="1000" width="125" height="125" fill="#E68C91" />
  <rect x="875" y="1000" width="125" height="125" fill="#F1B3B9" />
  <rect x="1000" y="1000" width="125" height="125" fill="#F5D6D9" />
  <rect x="1125" y="1000" width="125" height="125" fill="#FFFFFF" />
  <rect x="250" y="1125" width="125" height="125" fill="#6F1D23" />
  <rect x="375" y="1125" width="125" height="125" fill="#9E2D35" />
  <rect x="500" y="1125" width="125" height="125" fill="#C94751" />
  <rect x="625" y="1125" width="125" height="125" fill="#DF596B" />
  <rect x="750" y="1125" width="125" height="125" fill="#E6A192" />
  <rect x="875" y="1125" width="125" height="125" fill="#F2C4C9" />
  <rect x="1000" y="1125" width="125" height="125" fill="#F6D9DC" />
  <rect x="1125" y="1125" width="125" height="125" fill="#FFFFFF" />
  <rect x="250" y="250" width="1000" height="1000" fill="none" stroke="#151515" stroke-opacity="0.16" stroke-width="2" />
</svg>
