<svg xmlns="http://www.w3.org/2000/svg" width="1500" height="1500" viewBox="0 0 1500 1500" shape-rendering="crispEdges" role="img" aria-labelledby="title desc">
  <title id="title">Echoes of Tension in Brown frame</title>
  <desc id="desc">Square Project artwork previewed in a brown frame.</desc>
  <defs>
    <linearGradient id="frameFace" x1="0" y1="0" x2="1" y2="1">
      <stop offset="0" stop-color="#C18A55" />
      <stop offset="0.32" stop-color="#9A6840" />
      <stop offset="0.68" stop-color="#70401F" />
      <stop offset="1" stop-color="#3F2413" />
    </linearGradient>
    <filter id="artShadow" x="-10%" y="-10%" width="120%" height="120%">
      <feDropShadow dx="0" dy="20" stdDeviation="24" flood-color="#000000" flood-opacity="0.24" />
    </filter>
  </defs>
  <rect x="0" y="0" width="1500" height="1500" fill="#FFFFFF" />
  <rect x="0" y="0" width="1500" height="1500" fill="url(#frameFace)" />
  <rect x="120" y="120" width="1260" height="1260" fill="#F8F7F3" />
  <rect x="120" y="120" width="1260" height="1260" fill="none" stroke="#000000" stroke-opacity="0.14" stroke-width="10" />
  <rect x="250" y="250" width="1000" height="1000" fill="#FFFFFF" filter="url(#artShadow)" />
  <rect x="250" y="250" width="125" height="125" fill="#000000" />
  <rect x="375" y="250" width="125" height="125" fill="#1A1A1A" />
  <rect x="500" y="250" width="125" height="125" fill="#2B2B2B" />
  <rect x="625" y="250" width="125" height="125" fill="#4C4C4C" />
  <rect x="750" y="250" width="125" height="125" fill="#666666" />
  <rect x="875" y="250" width="125" height="125" fill="#00BFFF" />
  <rect x="1000" y="250" width="125" height="125" fill="#FF00FF" />
  <rect x="1125" y="250" width="125" height="125" fill="#FFCCCC" />
  <rect x="250" y="375" width="125" height="125" fill="#111111" />
  <rect x="375" y="375" width="125" height="125" fill="#282828" />
  <rect x="500" y="375" width="125" height="125" fill="#444444" />
  <rect x="625" y="375" width="125" height="125" fill="#888888" />
  <rect x="750" y="375" width="125" height="125" fill="#999999" />
  <rect x="875" y="375" width="125" height="125" fill="#33CCFF" />
  <rect x="1000" y="375" width="125" height="125" fill="#FF66FF" />
  <rect x="1125" y="375" width="125" height="125" fill="#FFB3B3" />
  <rect x="250" y="500" width="125" height="125" fill="#222222" />
  <rect x="375" y="500" width="125" height="125" fill="#373737" />
  <rect x="500" y="500" width="125" height="125" fill="#555555" />
  <rect x="625" y="500" width="125" height="125" fill="#AAAAAA" />
  <rect x="750" y="500" width="125" height="125" fill="#B8B8B8" />
  <rect x="875" y="500" width="125" height="125" fill="#66CCFF" />
  <rect x="1000" y="500" width="125" height="125" fill="#FF99FF" />
  <rect x="1125" y="500" width="125" height="125" fill="#FFCCCC" />
  <rect x="250" y="625" width="125" height="125" fill="#333333" />
  <rect x="375" y="625" width="125" height="125" fill="#404040" />
  <rect x="500" y="625" width="125" height="125" fill="#666666" />
  <rect x="625" y="625" width="125" height="125" fill="#CCCCCC" />
  <rect x="750" y="625" width="125" height="125" fill="#D3D3D3" />
  <rect x="875" y="625" width="125" height="125" fill="#00B3FF" />
  <rect x="1000" y="625" width="125" height="125" fill="#FF55FF" />
  <rect x="1125" y="625" width="125" height="125" fill="#FFCCCC" />
  <rect x="250" y="750" width="125" height="125" fill="#444444" />
  <rect x="375" y="750" width="125" height="125" fill="#555555" />
  <rect x="500" y="750" width="125" height="125" fill="#777777" />
  <rect x="625" y="750" width="125" height="125" fill="#DDDDDD" />
  <rect x="750" y="750" width="125" height="125" fill="#E6E6E6" />
  <rect x="875" y="750" width="125" height="125" fill="#0099CC" />
  <rect x="1000" y="750" width="125" height="125" fill="#FF44FF" />
  <rect x="1125" y="750" width="125" height="125" fill="#FFCCCC" />
  <rect x="250" y="875" width="125" height="125" fill="#555555" />
  <rect x="375" y="875" width="125" height="125" fill="#666666" />
  <rect x="500" y="875" width="125" height="125" fill="#888888" />
  <rect x="625" y="875" width="125" height="125" fill="#EEEEEE" />
  <rect x="750" y="875" width="125" height="125" fill="#F5F5F5" />
  <rect x="875" y="875" width="125" height="125" fill="#0077B3" />
  <rect x="1000" y="875" width="125" height="125" fill="#FF33FF" />
  <rect x="1125" y="875" width="125" height="125" fill="#FFCCCC" />
  <rect x="250" y="1000" width="125" height="125" fill="#666666" />
  <rect x="375" y="1000" width="125" height="125" fill="#777777" />
  <rect x="500" y="1000" width="125" height="125" fill="#999999" />
  <rect x="625" y="1000" width="125" height="125" fill="#F0F0F0" />
  <rect x="750" y="1000" width="125" height="125" fill="#F7F7F7" />
  <rect x="875" y="1000" width="125" height="125" fill="#005599" />
  <rect x="1000" y="1000" width="125" height="125" fill="#FF22FF" />
  <rect x="1125" y="1000" width="125" height="125" fill="#FFCCCC" />
  <rect x="250" y="1125" width="125" height="125" fill="#777777" />
  <rect x="375" y="1125" width="125" height="125" fill="#888888" />
  <rect x="500" y="1125" width="125" height="125" fill="#AAAAAA" />
  <rect x="625" y="1125" width="125" height="125" fill="#FFFFFF" />
  <rect x="750" y="1125" width="125" height="125" fill="#FFFFFF" />
  <rect x="875" y="1125" width="125" height="125" fill="#003366" />
  <rect x="1000" y="1125" width="125" height="125" fill="#FF11FF" />
  <rect x="1125" y="1125" width="125" height="125" fill="#FFCCCC" />
  <rect x="250" y="250" width="1000" height="1000" fill="none" stroke="#151515" stroke-opacity="0.16" stroke-width="2" />
</svg>
