<svg xmlns="http://www.w3.org/2000/svg" width="1500" height="1500" viewBox="0 0 1500 1500" shape-rendering="crispEdges" role="img" aria-labelledby="title desc">
  <title id="title">Tension and Release in Natural frame</title>
  <desc id="desc">Square Project artwork previewed in a natural frame.</desc>
  <defs>
    <linearGradient id="frameFace" x1="0" y1="0" x2="1" y2="1">
      <stop offset="0" stop-color="#8F6F35" />
      <stop offset="0.32" stop-color="#F0DDAA" />
      <stop offset="0.68" stop-color="#D8C190" />
      <stop offset="1" stop-color="#B39155" />
    </linearGradient>
    <filter id="artShadow" x="-10%" y="-10%" width="120%" height="120%">
      <feDropShadow dx="0" dy="20" stdDeviation="24" flood-color="#000000" flood-opacity="0.24" />
    </filter>
  </defs>
  <rect x="0" y="0" width="1500" height="1500" fill="#FFFFFF" />
  <rect x="0" y="0" width="1500" height="1500" fill="url(#frameFace)" />
  <rect x="120" y="120" width="1260" height="1260" fill="#F8F7F3" />
  <rect x="120" y="120" width="1260" height="1260" fill="none" stroke="#000000" stroke-opacity="0.14" stroke-width="10" />
  <rect x="250" y="250" width="1000" height="1000" fill="#FFFFFF" filter="url(#artShadow)" />
  <rect x="250" y="250" width="125" height="125" fill="#4A5E0A" />
  <rect x="375" y="250" width="125" height="125" fill="#C6C6B6" />
  <rect x="500" y="250" width="125" height="125" fill="#AB581F" />
  <rect x="625" y="250" width="125" height="125" fill="#6F8058" />
  <rect x="750" y="250" width="125" height="125" fill="#A0A08D" />
  <rect x="875" y="250" width="125" height="125" fill="#D3C1AC" />
  <rect x="1000" y="250" width="125" height="125" fill="#D87E3E" />
  <rect x="1125" y="250" width="125" height="125" fill="#462A0D" />
  <rect x="250" y="375" width="125" height="125" fill="#B2C4AB" />
  <rect x="375" y="375" width="125" height="125" fill="#FFE5B5" />
  <rect x="500" y="375" width="125" height="125" fill="#C24D25" />
  <rect x="625" y="375" width="125" height="125" fill="#C9D5B5" />
  <rect x="750" y="375" width="125" height="125" fill="#A8341D" />
  <rect x="875" y="375" width="125" height="125" fill="#D6E2A3" />
  <rect x="1000" y="375" width="125" height="125" fill="#7D679C" />
  <rect x="1125" y="375" width="125" height="125" fill="#902920" />
  <rect x="250" y="500" width="125" height="125" fill="#A2CDA8" />
  <rect x="375" y="500" width="125" height="125" fill="#D0C3AC" />
  <rect x="500" y="500" width="125" height="125" fill="#5C4B3B" />
  <rect x="625" y="500" width="125" height="125" fill="#C2855A" />
  <rect x="750" y="500" width="125" height="125" fill="#FFE2C5" />
  <rect x="875" y="500" width="125" height="125" fill="#3C2B10" />
  <rect x="1000" y="500" width="125" height="125" fill="#B2B2B2" />
  <rect x="1125" y="500" width="125" height="125" fill="#FFABAB" />
  <rect x="250" y="625" width="125" height="125" fill="#E8D2AA" />
  <rect x="375" y="625" width="125" height="125" fill="#A4BF89" />
  <rect x="500" y="625" width="125" height="125" fill="#5F8537" />
  <rect x="625" y="625" width="125" height="125" fill="#B44C2D" />
  <rect x="750" y="625" width="125" height="125" fill="#8C7B5C" />
  <rect x="875" y="625" width="125" height="125" fill="#E5B7D4" />
  <rect x="1000" y="625" width="125" height="125" fill="#B0D6D9" />
  <rect x="1125" y="625" width="125" height="125" fill="#3F3E40" />
  <rect x="250" y="750" width="125" height="125" fill="#678E5B" />
  <rect x="375" y="750" width="125" height="125" fill="#E7B8B8" />
  <rect x="500" y="750" width="125" height="125" fill="#C8A47B" />
  <rect x="625" y="750" width="125" height="125" fill="#939336" />
  <rect x="750" y="750" width="125" height="125" fill="#B14025" />
  <rect x="875" y="750" width="125" height="125" fill="#CAF1B3" />
  <rect x="1000" y="750" width="125" height="125" fill="#FF7A6B" />
  <rect x="1125" y="750" width="125" height="125" fill="#525950" />
  <rect x="250" y="875" width="125" height="125" fill="#D9C4AA" />
  <rect x="375" y="875" width="125" height="125" fill="#C5D8E5" />
  <rect x="500" y="875" width="125" height="125" fill="#DEB7A0" />
  <rect x="625" y="875" width="125" height="125" fill="#A8765E" />
  <rect x="750" y="875" width="125" height="125" fill="#BBE3D1" />
  <rect x="875" y="875" width="125" height="125" fill="#C59A72" />
  <rect x="1000" y="875" width="125" height="125" fill="#F2E8D4" />
  <rect x="1125" y="875" width="125" height="125" fill="#6A4E63" />
  <rect x="250" y="1000" width="125" height="125" fill="#9AAE84" />
  <rect x="375" y="1000" width="125" height="125" fill="#FFEDD6" />
  <rect x="500" y="1000" width="125" height="125" fill="#43576E" />
  <rect x="625" y="1000" width="125" height="125" fill="#A0816C" />
  <rect x="750" y="1000" width="125" height="125" fill="#859B77" />
  <rect x="875" y="1000" width="125" height="125" fill="#D2C3A0" />
  <rect x="1000" y="1000" width="125" height="125" fill="#E0EFCA" />
  <rect x="1125" y="1000" width="125" height="125" fill="#4D4D4D" />
  <rect x="250" y="1125" width="125" height="125" fill="#E1EDE3" />
  <rect x="375" y="1125" width="125" height="125" fill="#B3A89D" />
  <rect x="500" y="1125" width="125" height="125" fill="#D2B98A" />
  <rect x="625" y="1125" width="125" height="125" fill="#1E2D2B" />
  <rect x="750" y="1125" width="125" height="125" fill="#B4C890" />
  <rect x="875" y="1125" width="125" height="125" fill="#D1A194" />
  <rect x="1000" y="1125" width="125" height="125" fill="#E9C153" />
  <rect x="1125" y="1125" width="125" height="125" fill="#7D9A40" />
  <rect x="250" y="250" width="1000" height="1000" fill="none" stroke="#151515" stroke-opacity="0.16" stroke-width="2" />
</svg>
