<svg xmlns="http://www.w3.org/2000/svg" width="1500" height="1500" viewBox="0 0 1500 1500" shape-rendering="crispEdges" role="img" aria-labelledby="title desc">
  <title id="title">Tension of Echo and Embrace in White frame</title>
  <desc id="desc">Square Project artwork previewed in a white frame.</desc>
  <rect x="0" y="0" width="1500" height="1500" fill="#FFFFFF" />
  <image href="https://mysquareart.com/frames/white.jpg" x="0" y="0" width="1500" height="1500" preserveAspectRatio="xMidYMid meet" />
  <rect x="250" y="250" width="1000" height="1000" fill="#FFFFFF" />
  <rect x="250" y="250" width="125" height="125" fill="#FF6F61" />
  <rect x="375" y="250" width="125" height="125" fill="#F1A7A1" />
  <rect x="500" y="250" width="125" height="125" fill="#D4C2B0" />
  <rect x="625" y="250" width="125" height="125" fill="#B7D7D6" />
  <rect x="750" y="250" width="125" height="125" fill="#7B9B9A" />
  <rect x="875" y="250" width="125" height="125" fill="#8AAEAC" />
  <rect x="1000" y="250" width="125" height="125" fill="#9FB0B5" />
  <rect x="1125" y="250" width="125" height="125" fill="#7D7B7B" />
  <rect x="250" y="375" width="125" height="125" fill="#FFB1A3" />
  <rect x="375" y="375" width="125" height="125" fill="#E7BBA8" />
  <rect x="500" y="375" width="125" height="125" fill="#F1DAD7" />
  <rect x="625" y="375" width="125" height="125" fill="#AAE2ED" />
  <rect x="750" y="375" width="125" height="125" fill="#59B2B5" />
  <rect x="875" y="375" width="125" height="125" fill="#BCCFD0" />
  <rect x="1000" y="375" width="125" height="125" fill="#99AFAF" />
  <rect x="1125" y="375" width="125" height="125" fill="#7D7B7B" />
  <rect x="250" y="500" width="125" height="125" fill="#FF6F61" />
  <rect x="375" y="500" width="125" height="125" fill="#F1A7A1" />
  <rect x="500" y="500" width="125" height="125" fill="#D4C2B0" />
  <rect x="625" y="500" width="125" height="125" fill="#B7D7D6" />
  <rect x="750" y="500" width="125" height="125" fill="#D1D7DB" />
  <rect x="875" y="500" width="125" height="125" fill="#83AEB2" />
  <rect x="1000" y="500" width="125" height="125" fill="#699F9D" />
  <rect x="1125" y="500" width="125" height="125" fill="#9FB0B5" />
  <rect x="250" y="625" width="125" height="125" fill="#596C68" />
  <rect x="375" y="625" width="125" height="125" fill="#4A6060" />
  <rect x="500" y="625" width="125" height="125" fill="#748D8B" />
  <rect x="625" y="625" width="125" height="125" fill="#5A7E7E" />
  <rect x="750" y="625" width="125" height="125" fill="#E4C8CD" />
  <rect x="875" y="625" width="125" height="125" fill="#9FC3C3" />
  <rect x="1000" y="625" width="125" height="125" fill="#C6C6C6" />
  <rect x="1125" y="625" width="125" height="125" fill="#7D7B7B" />
  <rect x="250" y="750" width="125" height="125" fill="#003D3C" />
  <rect x="375" y="750" width="125" height="125" fill="#00655E" />
  <rect x="500" y="750" width="125" height="125" fill="#009D94" />
  <rect x="625" y="750" width="125" height="125" fill="#A9C6C6" />
  <rect x="750" y="750" width="125" height="125" fill="#2B3B3A" />
  <rect x="875" y="750" width="125" height="125" fill="#4E7C7C" />
  <rect x="1000" y="750" width="125" height="125" fill="#6DA0A0" />
  <rect x="1125" y="750" width="125" height="125" fill="#7D7B7B" />
  <rect x="250" y="875" width="125" height="125" fill="#C5BFBF" />
  <rect x="375" y="875" width="125" height="125" fill="#B1D6D7" />
  <rect x="500" y="875" width="125" height="125" fill="#B2C7C7" />
  <rect x="625" y="875" width="125" height="125" fill="#99AFAF" />
  <rect x="750" y="875" width="125" height="125" fill="#4C5D5D" />
  <rect x="875" y="875" width="125" height="125" fill="#3E4F4F" />
  <rect x="1000" y="875" width="125" height="125" fill="#2D3D3D" />
  <rect x="1125" y="875" width="125" height="125" fill="#7D7B7B" />
  <rect x="250" y="1000" width="125" height="125" fill="#D4C2B0" />
  <rect x="375" y="1000" width="125" height="125" fill="#A8B8C8" />
  <rect x="500" y="1000" width="125" height="125" fill="#8FB9B8" />
  <rect x="625" y="1000" width="125" height="125" fill="#ACD3D3" />
  <rect x="750" y="1000" width="125" height="125" fill="#DFD1D1" />
  <rect x="875" y="1000" width="125" height="125" fill="#C1B6B0" />
  <rect x="1000" y="1000" width="125" height="125" fill="#A6A2A2" />
  <rect x="1125" y="1000" width="125" height="125" fill="#7D7B7B" />
  <rect x="250" y="1125" width="125" height="125" fill="#FFB1A3" />
  <rect x="375" y="1125" width="125" height="125" fill="#F7B2B2" />
  <rect x="500" y="1125" width="125" height="125" fill="#EBD6D6" />
  <rect x="625" y="1125" width="125" height="125" fill="#C1C3C3" />
  <rect x="750" y="1125" width="125" height="125" fill="#9DA7A7" />
  <rect x="875" y="1125" width="125" height="125" fill="#778D8D" />
  <rect x="1000" y="1125" width="125" height="125" fill="#3D3D3D" />
  <rect x="1125" y="1125" width="125" height="125" fill="#7D7B7B" />
  <rect x="250" y="250" width="1000" height="1000" fill="none" stroke="#151515" stroke-opacity="0.16" stroke-width="2" />
</svg>
