<svg xmlns="http://www.w3.org/2000/svg" width="1500" height="1500" viewBox="0 0 1500 1500" shape-rendering="crispEdges" role="img" aria-labelledby="title desc">
  <title id="title">Fractured Harmony in Black frame</title>
  <desc id="desc">Square Project artwork previewed in a black frame.</desc>
  <defs>
    <linearGradient id="frameFace" x1="0" y1="0" x2="1" y2="1">
      <stop offset="0" stop-color="#6A6A6A" />
      <stop offset="0.32" stop-color="#343434" />
      <stop offset="0.68" stop-color="#111111" />
      <stop offset="1" stop-color="#050505" />
    </linearGradient>
    <filter id="artShadow" x="-10%" y="-10%" width="120%" height="120%">
      <feDropShadow dx="0" dy="20" stdDeviation="24" flood-color="#000000" flood-opacity="0.24" />
    </filter>
  </defs>
  <rect x="0" y="0" width="1500" height="1500" fill="#FFFFFF" />
  <rect x="0" y="0" width="1500" height="1500" fill="url(#frameFace)" />
  <rect x="120" y="120" width="1260" height="1260" fill="#F8F7F3" />
  <rect x="120" y="120" width="1260" height="1260" fill="none" stroke="#000000" stroke-opacity="0.14" stroke-width="10" />
  <rect x="250" y="250" width="1000" height="1000" fill="#FFFFFF" filter="url(#artShadow)" />
  <rect x="250" y="250" width="125" height="125" fill="#F6EFA3" />
  <rect x="375" y="250" width="125" height="125" fill="#F7C74B" />
  <rect x="500" y="250" width="125" height="125" fill="#F89300" />
  <rect x="625" y="250" width="125" height="125" fill="#B5A7D8" />
  <rect x="750" y="250" width="125" height="125" fill="#4A92C9" />
  <rect x="875" y="250" width="125" height="125" fill="#4C7A94" />
  <rect x="1000" y="250" width="125" height="125" fill="#263F5B" />
  <rect x="1125" y="250" width="125" height="125" fill="#1D3B77" />
  <rect x="250" y="375" width="125" height="125" fill="#F1D585" />
  <rect x="375" y="375" width="125" height="125" fill="#F5B53A" />
  <rect x="500" y="375" width="125" height="125" fill="#F58F00" />
  <rect x="625" y="375" width="125" height="125" fill="#B1A7D3" />
  <rect x="750" y="375" width="125" height="125" fill="#4B89C5" />
  <rect x="875" y="375" width="125" height="125" fill="#4C7F95" />
  <rect x="1000" y="375" width="125" height="125" fill="#263A54" />
  <rect x="1125" y="375" width="125" height="125" fill="#1F4E8C" />
  <rect x="250" y="500" width="125" height="125" fill="#E5C88C" />
  <rect x="375" y="500" width="125" height="125" fill="#F1A817" />
  <rect x="500" y="500" width="125" height="125" fill="#F67900" />
  <rect x="625" y="500" width="125" height="125" fill="#A98FC7" />
  <rect x="750" y="500" width="125" height="125" fill="#4F89C4" />
  <rect x="875" y="500" width="125" height="125" fill="#4D7F82" />
  <rect x="1000" y="500" width="125" height="125" fill="#263A54" />
  <rect x="1125" y="500" width="125" height="125" fill="#1F4B87" />
  <rect x="250" y="625" width="125" height="125" fill="#CCBA76" />
  <rect x="375" y="625" width="125" height="125" fill="#F3A311" />
  <rect x="500" y="625" width="125" height="125" fill="#E56300" />
  <rect x="625" y="625" width="125" height="125" fill="#D29BC0" />
  <rect x="750" y="625" width="125" height="125" fill="#4A87C3" />
  <rect x="875" y="625" width="125" height="125" fill="#4C7E81" />
  <rect x="1000" y="625" width="125" height="125" fill="#282C3E" />
  <rect x="1125" y="625" width="125" height="125" fill="#1F3A78" />
  <rect x="250" y="750" width="125" height="125" fill="#B4C7BC" />
  <rect x="375" y="750" width="125" height="125" fill="#F58900" />
  <rect x="500" y="750" width="125" height="125" fill="#D25800" />
  <rect x="625" y="750" width="125" height="125" fill="#B48EB7" />
  <rect x="750" y="750" width="125" height="125" fill="#4A84BF" />
  <rect x="875" y="750" width="125" height="125" fill="#4D7A71" />
  <rect x="1000" y="750" width="125" height="125" fill="#1D2B3E" />
  <rect x="1125" y="750" width="125" height="125" fill="#1F2C77" />
  <rect x="250" y="875" width="125" height="125" fill="#A1D8A8" />
  <rect x="375" y="875" width="125" height="125" fill="#F8B700" />
  <rect x="500" y="875" width="125" height="125" fill="#E05400" />
  <rect x="625" y="875" width="125" height="125" fill="#A988B7" />
  <rect x="750" y="875" width="125" height="125" fill="#538FBF" />
  <rect x="875" y="875" width="125" height="125" fill="#467B76" />
  <rect x="1000" y="875" width="125" height="125" fill="#1F2A38" />
  <rect x="1125" y="875" width="125" height="125" fill="#1C2B76" />
  <rect x="250" y="1000" width="125" height="125" fill="#8FEA8A" />
  <rect x="375" y="1000" width="125" height="125" fill="#F8D600" />
  <rect x="500" y="1000" width="125" height="125" fill="#D29B00" />
  <rect x="625" y="1000" width="125" height="125" fill="#A98DB7" />
  <rect x="750" y="1000" width="125" height="125" fill="#488FBF" />
  <rect x="875" y="1000" width="125" height="125" fill="#1C4B98" />
  <rect x="1000" y="1000" width="125" height="125" fill="#1A2A34" />
  <rect x="1125" y="1000" width="125" height="125" fill="#1B2A80" />
  <rect x="250" y="1125" width="125" height="125" fill="#7CE3C1" />
  <rect x="375" y="1125" width="125" height="125" fill="#F5EC8D" />
  <rect x="500" y="1125" width="125" height="125" fill="#D1AB00" />
  <rect x="625" y="1125" width="125" height="125" fill="#EBA3A3" />
  <rect x="750" y="1125" width="125" height="125" fill="#4C87AF" />
  <rect x="875" y="1125" width="125" height="125" fill="#1B4C8A" />
  <rect x="1000" y="1125" width="125" height="125" fill="#1A2B36" />
  <rect x="1125" y="1125" width="125" height="125" fill="#1D2F69" />
  <rect x="250" y="250" width="1000" height="1000" fill="none" stroke="#151515" stroke-opacity="0.16" stroke-width="2" />
</svg>
