<svg xmlns="http://www.w3.org/2000/svg" width="1500" height="1500" viewBox="0 0 1500 1500" shape-rendering="crispEdges" role="img" aria-labelledby="title desc">
  <title id="title">Echoes of Longing and Resolve in Brown frame</title>
  <desc id="desc">Square Project artwork previewed in a brown frame.</desc>
  <defs>
    <linearGradient id="frameFace" x1="0" y1="0" x2="1" y2="1">
      <stop offset="0" stop-color="#C18A55" />
      <stop offset="0.32" stop-color="#9A6840" />
      <stop offset="0.68" stop-color="#70401F" />
      <stop offset="1" stop-color="#3F2413" />
    </linearGradient>
    <filter id="artShadow" x="-10%" y="-10%" width="120%" height="120%">
      <feDropShadow dx="0" dy="20" stdDeviation="24" flood-color="#000000" flood-opacity="0.24" />
    </filter>
  </defs>
  <rect x="0" y="0" width="1500" height="1500" fill="#FFFFFF" />
  <rect x="0" y="0" width="1500" height="1500" fill="url(#frameFace)" />
  <rect x="120" y="120" width="1260" height="1260" fill="#F8F7F3" />
  <rect x="120" y="120" width="1260" height="1260" fill="none" stroke="#000000" stroke-opacity="0.14" stroke-width="10" />
  <rect x="250" y="250" width="1000" height="1000" fill="#FFFFFF" filter="url(#artShadow)" />
  <rect x="250" y="250" width="125" height="125" fill="#4F8C7E" />
  <rect x="375" y="250" width="125" height="125" fill="#A62D2E" />
  <rect x="500" y="250" width="125" height="125" fill="#B6D7A8" />
  <rect x="625" y="250" width="125" height="125" fill="#ECF0F1" />
  <rect x="750" y="250" width="125" height="125" fill="#3E7C8D" />
  <rect x="875" y="250" width="125" height="125" fill="#901A20" />
  <rect x="1000" y="250" width="125" height="125" fill="#A4C3B2" />
  <rect x="1125" y="250" width="125" height="125" fill="#D0EAE2" />
  <rect x="250" y="375" width="125" height="125" fill="#354F3B" />
  <rect x="375" y="375" width="125" height="125" fill="#E8A8B4" />
  <rect x="500" y="375" width="125" height="125" fill="#A8A8A8" />
  <rect x="625" y="375" width="125" height="125" fill="#EB5056" />
  <rect x="750" y="375" width="125" height="125" fill="#4A7D97" />
  <rect x="875" y="375" width="125" height="125" fill="#F4F4F4" />
  <rect x="1000" y="375" width="125" height="125" fill="#F8F0E3" />
  <rect x="1125" y="375" width="125" height="125" fill="#B0DFF1" />
  <rect x="250" y="500" width="125" height="125" fill="#EDD3A8" />
  <rect x="375" y="500" width="125" height="125" fill="#B7D1BC" />
  <rect x="500" y="500" width="125" height="125" fill="#64A64B" />
  <rect x="625" y="500" width="125" height="125" fill="#E6CDA8" />
  <rect x="750" y="500" width="125" height="125" fill="#7CA9A0" />
  <rect x="875" y="500" width="125" height="125" fill="#579C3D" />
  <rect x="1000" y="500" width="125" height="125" fill="#3F4F37" />
  <rect x="1125" y="500" width="125" height="125" fill="#BEC9B1" />
  <rect x="250" y="625" width="125" height="125" fill="#7B9C8D" />
  <rect x="375" y="625" width="125" height="125" fill="#A7B4D6" />
  <rect x="500" y="625" width="125" height="125" fill="#FEF9A2" />
  <rect x="625" y="625" width="125" height="125" fill="#A8D3D2" />
  <rect x="750" y="625" width="125" height="125" fill="#6D8D97" />
  <rect x="875" y="625" width="125" height="125" fill="#FEC8BC" />
  <rect x="1000" y="625" width="125" height="125" fill="#5B736C" />
  <rect x="1125" y="625" width="125" height="125" fill="#FFEECC" />
  <rect x="250" y="750" width="125" height="125" fill="#4F97A3" />
  <rect x="375" y="750" width="125" height="125" fill="#D1E1DC" />
  <rect x="500" y="750" width="125" height="125" fill="#B0C8C3" />
  <rect x="625" y="750" width="125" height="125" fill="#FFEAB3" />
  <rect x="750" y="750" width="125" height="125" fill="#D8BBA8" />
  <rect x="875" y="750" width="125" height="125" fill="#3D5A6B" />
  <rect x="1000" y="750" width="125" height="125" fill="#C0DBDE" />
  <rect x="1125" y="750" width="125" height="125" fill="#CFE6E1" />
  <rect x="250" y="875" width="125" height="125" fill="#79BBAF" />
  <rect x="375" y="875" width="125" height="125" fill="#D3CBA3" />
  <rect x="500" y="875" width="125" height="125" fill="#F6E79E" />
  <rect x="625" y="875" width="125" height="125" fill="#A8B0C6" />
  <rect x="750" y="875" width="125" height="125" fill="#E0B0B8" />
  <rect x="875" y="875" width="125" height="125" fill="#A5C3C8" />
  <rect x="1000" y="875" width="125" height="125" fill="#8DC27C" />
  <rect x="1125" y="875" width="125" height="125" fill="#C7E7E4" />
  <rect x="250" y="1000" width="125" height="125" fill="#FFC9A4" />
  <rect x="375" y="1000" width="125" height="125" fill="#A1D8D9" />
  <rect x="500" y="1000" width="125" height="125" fill="#B6A5AA" />
  <rect x="625" y="1000" width="125" height="125" fill="#D9E7C5" />
  <rect x="750" y="1000" width="125" height="125" fill="#8DC6D8" />
  <rect x="875" y="1000" width="125" height="125" fill="#5C5F71" />
  <rect x="1000" y="1000" width="125" height="125" fill="#4D6A6B" />
  <rect x="1125" y="1000" width="125" height="125" fill="#E1F1F1" />
  <rect x="250" y="1125" width="125" height="125" fill="#E7BBA8" />
  <rect x="375" y="1125" width="125" height="125" fill="#B7DBD8" />
  <rect x="500" y="1125" width="125" height="125" fill="#A6B8C8" />
  <rect x="625" y="1125" width="125" height="125" fill="#3F7377" />
  <rect x="750" y="1125" width="125" height="125" fill="#C3DAD1" />
  <rect x="875" y="1125" width="125" height="125" fill="#BAC8C2" />
  <rect x="1000" y="1125" width="125" height="125" fill="#A8B1A8" />
  <rect x="1125" y="1125" width="125" height="125" fill="#A3DFD3" />
  <rect x="250" y="250" width="1000" height="1000" fill="none" stroke="#151515" stroke-opacity="0.16" stroke-width="2" />
</svg>
