<svg xmlns="http://www.w3.org/2000/svg" width="1500" height="1500" viewBox="0 0 1500 1500" shape-rendering="crispEdges" role="img" aria-labelledby="title desc">
  <title id="title">Exposure and Shelter in Black frame</title>
  <desc id="desc">Square Project artwork previewed in a black frame.</desc>
  <defs>
    <linearGradient id="frameFace" x1="0" y1="0" x2="1" y2="1">
      <stop offset="0" stop-color="#6A6A6A" />
      <stop offset="0.32" stop-color="#343434" />
      <stop offset="0.68" stop-color="#111111" />
      <stop offset="1" stop-color="#050505" />
    </linearGradient>
    <filter id="artShadow" x="-10%" y="-10%" width="120%" height="120%">
      <feDropShadow dx="0" dy="20" stdDeviation="24" flood-color="#000000" flood-opacity="0.24" />
    </filter>
  </defs>
  <rect x="0" y="0" width="1500" height="1500" fill="#FFFFFF" />
  <rect x="0" y="0" width="1500" height="1500" fill="url(#frameFace)" />
  <rect x="120" y="120" width="1260" height="1260" fill="#F8F7F3" />
  <rect x="120" y="120" width="1260" height="1260" fill="none" stroke="#000000" stroke-opacity="0.14" stroke-width="10" />
  <rect x="250" y="250" width="1000" height="1000" fill="#FFFFFF" filter="url(#artShadow)" />
  <rect x="250" y="250" width="125" height="125" fill="#AEDFF7" />
  <rect x="375" y="250" width="125" height="125" fill="#FFFFFF" />
  <rect x="500" y="250" width="125" height="125" fill="#E9F2F5" />
  <rect x="625" y="250" width="125" height="125" fill="#D0E8E3" />
  <rect x="750" y="250" width="125" height="125" fill="#C5E1E8" />
  <rect x="875" y="250" width="125" height="125" fill="#A5C2D2" />
  <rect x="1000" y="250" width="125" height="125" fill="#A5C2D2" />
  <rect x="1125" y="250" width="125" height="125" fill="#FFE0E0" />
  <rect x="250" y="375" width="125" height="125" fill="#D7B2C8" />
  <rect x="375" y="375" width="125" height="125" fill="#FDF6F6" />
  <rect x="500" y="375" width="125" height="125" fill="#D1E6E6" />
  <rect x="625" y="375" width="125" height="125" fill="#F5BBBB" />
  <rect x="750" y="375" width="125" height="125" fill="#E3B2C1" />
  <rect x="875" y="375" width="125" height="125" fill="#A4C9D5" />
  <rect x="1000" y="375" width="125" height="125" fill="#CFE8EF" />
  <rect x="1125" y="375" width="125" height="125" fill="#B0D3E8" />
  <rect x="250" y="500" width="125" height="125" fill="#A6E1D3" />
  <rect x="375" y="500" width="125" height="125" fill="#C0E0EA" />
  <rect x="500" y="500" width="125" height="125" fill="#E4C1D8" />
  <rect x="625" y="500" width="125" height="125" fill="#ABDBDA" />
  <rect x="750" y="500" width="125" height="125" fill="#824E5A" />
  <rect x="875" y="500" width="125" height="125" fill="#A1D0E0" />
  <rect x="1000" y="500" width="125" height="125" fill="#E7C9C9" />
  <rect x="1125" y="500" width="125" height="125" fill="#A0B4CE" />
  <rect x="250" y="625" width="125" height="125" fill="#FFE3D1" />
  <rect x="375" y="625" width="125" height="125" fill="#DCE7EA" />
  <rect x="500" y="625" width="125" height="125" fill="#F5C0C0" />
  <rect x="625" y="625" width="125" height="125" fill="#A5DBD0" />
  <rect x="750" y="625" width="125" height="125" fill="#D1D5DB" />
  <rect x="875" y="625" width="125" height="125" fill="#ADF1F9" />
  <rect x="1000" y="625" width="125" height="125" fill="#FFB3B3" />
  <rect x="1125" y="625" width="125" height="125" fill="#E2F2FB" />
  <rect x="250" y="750" width="125" height="125" fill="#A1DEFA" />
  <rect x="375" y="750" width="125" height="125" fill="#E3B2C1" />
  <rect x="500" y="750" width="125" height="125" fill="#B3E3D3" />
  <rect x="625" y="750" width="125" height="125" fill="#FFE8D4" />
  <rect x="750" y="750" width="125" height="125" fill="#E6B2AE" />
  <rect x="875" y="750" width="125" height="125" fill="#B1D2D9" />
  <rect x="1000" y="750" width="125" height="125" fill="#A7C9DC" />
  <rect x="1125" y="750" width="125" height="125" fill="#D3AFC4" />
  <rect x="250" y="875" width="125" height="125" fill="#E2F0E5" />
  <rect x="375" y="875" width="125" height="125" fill="#FFB5B5" />
  <rect x="500" y="875" width="125" height="125" fill="#D1E9F2" />
  <rect x="625" y="875" width="125" height="125" fill="#E6DBD3" />
  <rect x="750" y="875" width="125" height="125" fill="#F2E3E3" />
  <rect x="875" y="875" width="125" height="125" fill="#B1C6D4" />
  <rect x="1000" y="875" width="125" height="125" fill="#A77F97" />
  <rect x="1125" y="875" width="125" height="125" fill="#B6E8DE" />
  <rect x="250" y="1000" width="125" height="125" fill="#E9C6B8" />
  <rect x="375" y="1000" width="125" height="125" fill="#B5E4E1" />
  <rect x="500" y="1000" width="125" height="125" fill="#F7D6D6" />
  <rect x="625" y="1000" width="125" height="125" fill="#B2E3DD" />
  <rect x="750" y="1000" width="125" height="125" fill="#D7BCB9" />
  <rect x="875" y="1000" width="125" height="125" fill="#C9C2DA" />
  <rect x="1000" y="1000" width="125" height="125" fill="#F5F0F0" />
  <rect x="1125" y="1000" width="125" height="125" fill="#C7D9E4" />
  <rect x="250" y="1125" width="125" height="125" fill="#E0F5EA" />
  <rect x="375" y="1125" width="125" height="125" fill="#DFB9C7" />
  <rect x="500" y="1125" width="125" height="125" fill="#E0D2D2" />
  <rect x="625" y="1125" width="125" height="125" fill="#F2E0DD" />
  <rect x="750" y="1125" width="125" height="125" fill="#B1E4DA" />
  <rect x="875" y="1125" width="125" height="125" fill="#E5FCFC" />
  <rect x="1000" y="1125" width="125" height="125" fill="#B9B6C6" />
  <rect x="1125" y="1125" width="125" height="125" fill="#A0E1E1" />
  <rect x="250" y="250" width="1000" height="1000" fill="none" stroke="#151515" stroke-opacity="0.16" stroke-width="2" />
</svg>
