<svg xmlns="http://www.w3.org/2000/svg" width="1500" height="1500" viewBox="0 0 1500 1500" shape-rendering="crispEdges" role="img" aria-labelledby="title desc">
  <title id="title">Tension of Light and Shadow in Gold frame</title>
  <desc id="desc">Square Project artwork previewed in a gold frame.</desc>
  <defs>
    <linearGradient id="frameFace" x1="0" y1="0" x2="1" y2="1">
      <stop offset="0" stop-color="#FFF0A3" />
      <stop offset="0.32" stop-color="#F1D676" />
      <stop offset="0.68" stop-color="#CBA642" />
      <stop offset="1" stop-color="#8B6A1D" />
    </linearGradient>
    <filter id="artShadow" x="-10%" y="-10%" width="120%" height="120%">
      <feDropShadow dx="0" dy="20" stdDeviation="24" flood-color="#000000" flood-opacity="0.24" />
    </filter>
  </defs>
  <rect x="0" y="0" width="1500" height="1500" fill="#FFFFFF" />
  <rect x="0" y="0" width="1500" height="1500" fill="url(#frameFace)" />
  <rect x="120" y="120" width="1260" height="1260" fill="#F8F7F3" />
  <rect x="120" y="120" width="1260" height="1260" fill="none" stroke="#000000" stroke-opacity="0.14" stroke-width="10" />
  <rect x="250" y="250" width="1000" height="1000" fill="#FFFFFF" filter="url(#artShadow)" />
  <rect x="250" y="250" width="125" height="125" fill="#000000" />
  <rect x="375" y="250" width="125" height="125" fill="#2A2A2A" />
  <rect x="500" y="250" width="125" height="125" fill="#3B3B3B" />
  <rect x="625" y="250" width="125" height="125" fill="#4C4C4C" />
  <rect x="750" y="250" width="125" height="125" fill="#5D5D5D" />
  <rect x="875" y="250" width="125" height="125" fill="#666666" />
  <rect x="1000" y="250" width="125" height="125" fill="#777777" />
  <rect x="1125" y="250" width="125" height="125" fill="#888888" />
  <rect x="250" y="375" width="125" height="125" fill="#121212" />
  <rect x="375" y="375" width="125" height="125" fill="#1E1E1E" />
  <rect x="500" y="375" width="125" height="125" fill="#3A3A3A" />
  <rect x="625" y="375" width="125" height="125" fill="#454545" />
  <rect x="750" y="375" width="125" height="125" fill="#505050" />
  <rect x="875" y="375" width="125" height="125" fill="#606060" />
  <rect x="1000" y="375" width="125" height="125" fill="#7D7D7D" />
  <rect x="1125" y="375" width="125" height="125" fill="#8F8F8F" />
  <rect x="250" y="500" width="125" height="125" fill="#1A1A1A" />
  <rect x="375" y="500" width="125" height="125" fill="#222222" />
  <rect x="500" y="500" width="125" height="125" fill="#4F4F4F" />
  <rect x="625" y="500" width="125" height="125" fill="#5B5B5B" />
  <rect x="750" y="500" width="125" height="125" fill="#606060" />
  <rect x="875" y="500" width="125" height="125" fill="#1E1E1E" />
  <rect x="1000" y="500" width="125" height="125" fill="#343434" />
  <rect x="1125" y="500" width="125" height="125" fill="#767676" />
  <rect x="250" y="625" width="125" height="125" fill="#0F0F0F" />
  <rect x="375" y="625" width="125" height="125" fill="#1F1F1F" />
  <rect x="500" y="625" width="125" height="125" fill="#353535" />
  <rect x="625" y="625" width="125" height="125" fill="#606060" />
  <rect x="750" y="625" width="125" height="125" fill="#AFAFAF" />
  <rect x="875" y="625" width="125" height="125" fill="#B3B3B3" />
  <rect x="1000" y="625" width="125" height="125" fill="#C4C4C4" />
  <rect x="1125" y="625" width="125" height="125" fill="#D5D5D5" />
  <rect x="250" y="750" width="125" height="125" fill="#F0F0E0" />
  <rect x="375" y="750" width="125" height="125" fill="#C5D2B2" />
  <rect x="500" y="750" width="125" height="125" fill="#B1C99D" />
  <rect x="625" y="750" width="125" height="125" fill="#A1C68B" />
  <rect x="750" y="750" width="125" height="125" fill="#8FC583" />
  <rect x="875" y="750" width="125" height="125" fill="#90C9A6" />
  <rect x="1000" y="750" width="125" height="125" fill="#A3E4B1" />
  <rect x="1125" y="750" width="125" height="125" fill="#D2E5C2" />
  <rect x="250" y="875" width="125" height="125" fill="#C0E5CD" />
  <rect x="375" y="875" width="125" height="125" fill="#CDE0B2" />
  <rect x="500" y="875" width="125" height="125" fill="#D7E3B8" />
  <rect x="625" y="875" width="125" height="125" fill="#D5ECAB" />
  <rect x="750" y="875" width="125" height="125" fill="#C1E4A8" />
  <rect x="875" y="875" width="125" height="125" fill="#B4DD93" />
  <rect x="1000" y="875" width="125" height="125" fill="#A9D23D" />
  <rect x="1125" y="875" width="125" height="125" fill="#C1DAB1" />
  <rect x="250" y="1000" width="125" height="125" fill="#E6E9D3" />
  <rect x="375" y="1000" width="125" height="125" fill="#F2F7C2" />
  <rect x="500" y="1000" width="125" height="125" fill="#E3F0CC" />
  <rect x="625" y="1000" width="125" height="125" fill="#D3E0C5" />
  <rect x="750" y="1000" width="125" height="125" fill="#C5D4B2" />
  <rect x="875" y="1000" width="125" height="125" fill="#B6E0AA" />
  <rect x="1000" y="1000" width="125" height="125" fill="#D3E3B8" />
  <rect x="1125" y="1000" width="125" height="125" fill="#D9E5D5" />
  <rect x="250" y="1125" width="125" height="125" fill="#FFFEF5" />
  <rect x="375" y="1125" width="125" height="125" fill="#F7FEE3" />
  <rect x="500" y="1125" width="125" height="125" fill="#D3F0D3" />
  <rect x="625" y="1125" width="125" height="125" fill="#E6F5EB" />
  <rect x="750" y="1125" width="125" height="125" fill="#A2DF91" />
  <rect x="875" y="1125" width="125" height="125" fill="#9ED7A5" />
  <rect x="1000" y="1125" width="125" height="125" fill="#A2ECA4" />
  <rect x="1125" y="1125" width="125" height="125" fill="#F3F9E5" />
  <rect x="250" y="250" width="1000" height="1000" fill="none" stroke="#151515" stroke-opacity="0.16" stroke-width="2" />
</svg>
