<svg xmlns="http://www.w3.org/2000/svg" width="1500" height="1500" viewBox="0 0 1500 1500" shape-rendering="crispEdges" role="img" aria-labelledby="title desc">
  <title id="title">Hunger vs Restraint in Black frame</title>
  <desc id="desc">Square Project artwork previewed in a black frame.</desc>
  <defs>
    <linearGradient id="frameFace" x1="0" y1="0" x2="1" y2="1">
      <stop offset="0" stop-color="#6A6A6A" />
      <stop offset="0.32" stop-color="#343434" />
      <stop offset="0.68" stop-color="#111111" />
      <stop offset="1" stop-color="#050505" />
    </linearGradient>
    <filter id="artShadow" x="-10%" y="-10%" width="120%" height="120%">
      <feDropShadow dx="0" dy="20" stdDeviation="24" flood-color="#000000" flood-opacity="0.24" />
    </filter>
  </defs>
  <rect x="0" y="0" width="1500" height="1500" fill="#FFFFFF" />
  <rect x="0" y="0" width="1500" height="1500" fill="url(#frameFace)" />
  <rect x="120" y="120" width="1260" height="1260" fill="#F8F7F3" />
  <rect x="120" y="120" width="1260" height="1260" fill="none" stroke="#000000" stroke-opacity="0.14" stroke-width="10" />
  <rect x="250" y="250" width="1000" height="1000" fill="#FFFFFF" filter="url(#artShadow)" />
  <rect x="250" y="250" width="125" height="125" fill="#FF616F" />
  <rect x="375" y="250" width="125" height="125" fill="#FF3E4D" />
  <rect x="500" y="250" width="125" height="125" fill="#D36D8E" />
  <rect x="625" y="250" width="125" height="125" fill="#B3B3B3" />
  <rect x="750" y="250" width="125" height="125" fill="#4D4D4D" />
  <rect x="875" y="250" width="125" height="125" fill="#2A2A2A" />
  <rect x="1000" y="250" width="125" height="125" fill="#C4C4C4" />
  <rect x="1125" y="250" width="125" height="125" fill="#000000" />
  <rect x="250" y="375" width="125" height="125" fill="#FF9F70" />
  <rect x="375" y="375" width="125" height="125" fill="#FFBA8A" />
  <rect x="500" y="375" width="125" height="125" fill="#F2C8A2" />
  <rect x="625" y="375" width="125" height="125" fill="#545454" />
  <rect x="750" y="375" width="125" height="125" fill="#414141" />
  <rect x="875" y="375" width="125" height="125" fill="#6A6A6A" />
  <rect x="1000" y="375" width="125" height="125" fill="#808080" />
  <rect x="1125" y="375" width="125" height="125" fill="#AAAAAA" />
  <rect x="250" y="500" width="125" height="125" fill="#FFD700" />
  <rect x="375" y="500" width="125" height="125" fill="#F8A3B2" />
  <rect x="500" y="500" width="125" height="125" fill="#E0C2C2" />
  <rect x="625" y="500" width="125" height="125" fill="#6A6A6A" />
  <rect x="750" y="500" width="125" height="125" fill="#FFFFFF" />
  <rect x="875" y="500" width="125" height="125" fill="#BBBBBB" />
  <rect x="1000" y="500" width="125" height="125" fill="#CCCCCC" />
  <rect x="1125" y="500" width="125" height="125" fill="#DDDDDD" />
  <rect x="250" y="625" width="125" height="125" fill="#FF6B6B" />
  <rect x="375" y="625" width="125" height="125" fill="#F2A900" />
  <rect x="500" y="625" width="125" height="125" fill="#D2A7B0" />
  <rect x="625" y="625" width="125" height="125" fill="#3A3A3A" />
  <rect x="750" y="625" width="125" height="125" fill="#484848" />
  <rect x="875" y="625" width="125" height="125" fill="#B3B3B3" />
  <rect x="1000" y="625" width="125" height="125" fill="#7F7F7F" />
  <rect x="1125" y="625" width="125" height="125" fill="#C8C8C8" />
  <rect x="250" y="750" width="125" height="125" fill="#FF3030" />
  <rect x="375" y="750" width="125" height="125" fill="#D95D66" />
  <rect x="500" y="750" width="125" height="125" fill="#A7A7A7" />
  <rect x="625" y="750" width="125" height="125" fill="#454545" />
  <rect x="750" y="750" width="125" height="125" fill="#303030" />
  <rect x="875" y="750" width="125" height="125" fill="#828282" />
  <rect x="1000" y="750" width="125" height="125" fill="#B0B0B0" />
  <rect x="1125" y="750" width="125" height="125" fill="#EDEDED" />
  <rect x="250" y="875" width="125" height="125" fill="#FF4D4D" />
  <rect x="375" y="875" width="125" height="125" fill="#FF6871" />
  <rect x="500" y="875" width="125" height="125" fill="#D6A14B" />
  <rect x="625" y="875" width="125" height="125" fill="#5A5A5A" />
  <rect x="750" y="875" width="125" height="125" fill="#3C3C3C" />
  <rect x="875" y="875" width="125" height="125" fill="#A6A6A6" />
  <rect x="1000" y="875" width="125" height="125" fill="#CDCDCD" />
  <rect x="1125" y="875" width="125" height="125" fill="#C9C9C9" />
  <rect x="250" y="1000" width="125" height="125" fill="#E85845" />
  <rect x="375" y="1000" width="125" height="125" fill="#FFAD68" />
  <rect x="500" y="1000" width="125" height="125" fill="#FFCA88" />
  <rect x="625" y="1000" width="125" height="125" fill="#757575" />
  <rect x="750" y="1000" width="125" height="125" fill="#999999" />
  <rect x="875" y="1000" width="125" height="125" fill="#898989" />
  <rect x="1000" y="1000" width="125" height="125" fill="#D7D7D7" />
  <rect x="1125" y="1000" width="125" height="125" fill="#E7E7E7" />
  <rect x="250" y="1125" width="125" height="125" fill="#FF7A7A" />
  <rect x="375" y="1125" width="125" height="125" fill="#F1B6A7" />
  <rect x="500" y="1125" width="125" height="125" fill="#D6C9A8" />
  <rect x="625" y="1125" width="125" height="125" fill="#4B4B4B" />
  <rect x="750" y="1125" width="125" height="125" fill="#222222" />
  <rect x="875" y="1125" width="125" height="125" fill="#D7D7D7" />
  <rect x="1000" y="1125" width="125" height="125" fill="#EEEEEE" />
  <rect x="1125" y="1125" width="125" height="125" fill="#FFFFFF" />
  <rect x="250" y="250" width="1000" height="1000" fill="none" stroke="#151515" stroke-opacity="0.16" stroke-width="2" />
</svg>
