<svg xmlns="http://www.w3.org/2000/svg" width="1500" height="1500" viewBox="0 0 1500 1500" shape-rendering="crispEdges" role="img" aria-labelledby="title desc">
  <title id="title">Center vs Edges in Brown frame</title>
  <desc id="desc">Square Project artwork previewed in a brown frame.</desc>
  <defs>
    <linearGradient id="frameFace" x1="0" y1="0" x2="1" y2="1">
      <stop offset="0" stop-color="#C18A55" />
      <stop offset="0.32" stop-color="#9A6840" />
      <stop offset="0.68" stop-color="#70401F" />
      <stop offset="1" stop-color="#3F2413" />
    </linearGradient>
    <filter id="artShadow" x="-10%" y="-10%" width="120%" height="120%">
      <feDropShadow dx="0" dy="20" stdDeviation="24" flood-color="#000000" flood-opacity="0.24" />
    </filter>
  </defs>
  <rect x="0" y="0" width="1500" height="1500" fill="#FFFFFF" />
  <rect x="0" y="0" width="1500" height="1500" fill="url(#frameFace)" />
  <rect x="120" y="120" width="1260" height="1260" fill="#F8F7F3" />
  <rect x="120" y="120" width="1260" height="1260" fill="none" stroke="#000000" stroke-opacity="0.14" stroke-width="10" />
  <rect x="250" y="250" width="1000" height="1000" fill="#FFFFFF" filter="url(#artShadow)" />
  <rect x="250" y="250" width="125" height="125" fill="#FFC300" />
  <rect x="375" y="250" width="125" height="125" fill="#FF5733" />
  <rect x="500" y="250" width="125" height="125" fill="#FFBD33" />
  <rect x="625" y="250" width="125" height="125" fill="#FFD700" />
  <rect x="750" y="250" width="125" height="125" fill="#FFC300" />
  <rect x="875" y="250" width="125" height="125" fill="#FF5733" />
  <rect x="1000" y="250" width="125" height="125" fill="#FFBD33" />
  <rect x="1125" y="250" width="125" height="125" fill="#FFD700" />
  <rect x="250" y="375" width="125" height="125" fill="#F4A460" />
  <rect x="375" y="375" width="125" height="125" fill="#D2691E" />
  <rect x="500" y="375" width="125" height="125" fill="#FFA07A" />
  <rect x="625" y="375" width="125" height="125" fill="#FF8C00" />
  <rect x="750" y="375" width="125" height="125" fill="#F4A460" />
  <rect x="875" y="375" width="125" height="125" fill="#D2691E" />
  <rect x="1000" y="375" width="125" height="125" fill="#FFA07A" />
  <rect x="1125" y="375" width="125" height="125" fill="#FF8C00" />
  <rect x="250" y="500" width="125" height="125" fill="#6A5ACD" />
  <rect x="375" y="500" width="125" height="125" fill="#8A2BE2" />
  <rect x="500" y="500" width="125" height="125" fill="#5F9EA0" />
  <rect x="625" y="500" width="125" height="125" fill="#4682B4" />
  <rect x="750" y="500" width="125" height="125" fill="#6A5ACD" />
  <rect x="875" y="500" width="125" height="125" fill="#8A2BE2" />
  <rect x="1000" y="500" width="125" height="125" fill="#5F9EA0" />
  <rect x="1125" y="500" width="125" height="125" fill="#4682B4" />
  <rect x="250" y="625" width="125" height="125" fill="#4682B4" />
  <rect x="375" y="625" width="125" height="125" fill="#6A5ACD" />
  <rect x="500" y="625" width="125" height="125" fill="#8A2BE2" />
  <rect x="625" y="625" width="125" height="125" fill="#5F9EA0" />
  <rect x="750" y="625" width="125" height="125" fill="#4682B4" />
  <rect x="875" y="625" width="125" height="125" fill="#6A5ACD" />
  <rect x="1000" y="625" width="125" height="125" fill="#8A2BE2" />
  <rect x="1125" y="625" width="125" height="125" fill="#5F9EA0" />
  <rect x="250" y="750" width="125" height="125" fill="#B0C4DE" />
  <rect x="375" y="750" width="125" height="125" fill="#ADD8E6" />
  <rect x="500" y="750" width="125" height="125" fill="#87CEFA" />
  <rect x="625" y="750" width="125" height="125" fill="#00BFFF" />
  <rect x="750" y="750" width="125" height="125" fill="#B0C4DE" />
  <rect x="875" y="750" width="125" height="125" fill="#ADD8E6" />
  <rect x="1000" y="750" width="125" height="125" fill="#87CEFA" />
  <rect x="1125" y="750" width="125" height="125" fill="#00BFFF" />
  <rect x="250" y="875" width="125" height="125" fill="#1E90FF" />
  <rect x="375" y="875" width="125" height="125" fill="#00BFFF" />
  <rect x="500" y="875" width="125" height="125" fill="#00CED1" />
  <rect x="625" y="875" width="125" height="125" fill="#20B2AA" />
  <rect x="750" y="875" width="125" height="125" fill="#1E90FF" />
  <rect x="875" y="875" width="125" height="125" fill="#00BFFF" />
  <rect x="1000" y="875" width="125" height="125" fill="#00CED1" />
  <rect x="1125" y="875" width="125" height="125" fill="#20B2AA" />
  <rect x="250" y="1000" width="125" height="125" fill="#000000" />
  <rect x="375" y="1000" width="125" height="125" fill="#2F4F4F" />
  <rect x="500" y="1000" width="125" height="125" fill="#696969" />
  <rect x="625" y="1000" width="125" height="125" fill="#A9A9A9" />
  <rect x="750" y="1000" width="125" height="125" fill="#000000" />
  <rect x="875" y="1000" width="125" height="125" fill="#2F4F4F" />
  <rect x="1000" y="1000" width="125" height="125" fill="#696969" />
  <rect x="1125" y="1000" width="125" height="125" fill="#A9A9A9" />
  <rect x="250" y="1125" width="125" height="125" fill="#FFFFFF" />
  <rect x="375" y="1125" width="125" height="125" fill="#F5F5F5" />
  <rect x="500" y="1125" width="125" height="125" fill="#DCDCDC" />
  <rect x="625" y="1125" width="125" height="125" fill="#C0C0C0" />
  <rect x="750" y="1125" width="125" height="125" fill="#FFFFFF" />
  <rect x="875" y="1125" width="125" height="125" fill="#F5F5F5" />
  <rect x="1000" y="1125" width="125" height="125" fill="#DCDCDC" />
  <rect x="1125" y="1125" width="125" height="125" fill="#C0C0C0" />
  <rect x="250" y="250" width="1000" height="1000" fill="none" stroke="#151515" stroke-opacity="0.16" stroke-width="2" />
</svg>
