<svg xmlns="http://www.w3.org/2000/svg" width="1500" height="1500" viewBox="0 0 1500 1500" shape-rendering="crispEdges" role="img" aria-labelledby="title desc">
  <title id="title">Tension of Opposites in Black frame</title>
  <desc id="desc">Square Project artwork previewed in a black frame.</desc>
  <rect x="0" y="0" width="1500" height="1500" fill="#FFFFFF" />
  <image href="https://mysquareart.com/frames/black.jpg" x="0" y="0" width="1500" height="1500" preserveAspectRatio="xMidYMid meet" />
  <rect x="250" y="250" width="1000" height="1000" fill="#FFFFFF" />
  <rect x="250" y="250" width="125" height="125" fill="#2D2A4C" />
  <rect x="375" y="250" width="125" height="125" fill="#BAA64F" />
  <rect x="500" y="250" width="125" height="125" fill="#5D6E73" />
  <rect x="625" y="250" width="125" height="125" fill="#F2A900" />
  <rect x="750" y="250" width="125" height="125" fill="#8C30B5" />
  <rect x="875" y="250" width="125" height="125" fill="#E4B017" />
  <rect x="1000" y="250" width="125" height="125" fill="#111A2D" />
  <rect x="1125" y="250" width="125" height="125" fill="#7D7C9B" />
  <rect x="250" y="375" width="125" height="125" fill="#3D2A4B" />
  <rect x="375" y="375" width="125" height="125" fill="#F8D99C" />
  <rect x="500" y="375" width="125" height="125" fill="#A1244D" />
  <rect x="625" y="375" width="125" height="125" fill="#3F5B86" />
  <rect x="750" y="375" width="125" height="125" fill="#8C30B5" />
  <rect x="875" y="375" width="125" height="125" fill="#5D3F73" />
  <rect x="1000" y="375" width="125" height="125" fill="#600A2A" />
  <rect x="1125" y="375" width="125" height="125" fill="#AA9BC9" />
  <rect x="250" y="500" width="125" height="125" fill="#4B1E42" />
  <rect x="375" y="500" width="125" height="125" fill="#366679" />
  <rect x="500" y="500" width="125" height="125" fill="#D3D6B9" />
  <rect x="625" y="500" width="125" height="125" fill="#825B8D" />
  <rect x="750" y="500" width="125" height="125" fill="#B0223E" />
  <rect x="875" y="500" width="125" height="125" fill="#DAD697" />
  <rect x="1000" y="500" width="125" height="125" fill="#3C5D7A" />
  <rect x="1125" y="500" width="125" height="125" fill="#420F26" />
  <rect x="250" y="625" width="125" height="125" fill="#0D172D" />
  <rect x="375" y="625" width="125" height="125" fill="#BCD8E5" />
  <rect x="500" y="625" width="125" height="125" fill="#F57F20" />
  <rect x="625" y="625" width="125" height="125" fill="#3C2F58" />
  <rect x="750" y="625" width="125" height="125" fill="#7E0F52" />
  <rect x="875" y="625" width="125" height="125" fill="#B2A2E9" />
  <rect x="1000" y="625" width="125" height="125" fill="#D3C492" />
  <rect x="1125" y="625" width="125" height="125" fill="#F2C94C" />
  <rect x="250" y="750" width="125" height="125" fill="#5D4E8A" />
  <rect x="375" y="750" width="125" height="125" fill="#F4F4F4" />
  <rect x="500" y="750" width="125" height="125" fill="#D3D899" />
  <rect x="625" y="750" width="125" height="125" fill="#7F3F61" />
  <rect x="750" y="750" width="125" height="125" fill="#C16996" />
  <rect x="875" y="750" width="125" height="125" fill="#8A6C9D" />
  <rect x="1000" y="750" width="125" height="125" fill="#5D1B25" />
  <rect x="1125" y="750" width="125" height="125" fill="#4A0D2D" />
  <rect x="250" y="875" width="125" height="125" fill="#2A172C" />
  <rect x="375" y="875" width="125" height="125" fill="#BCA216" />
  <rect x="500" y="875" width="125" height="125" fill="#3B8C1A" />
  <rect x="625" y="875" width="125" height="125" fill="#978B38" />
  <rect x="750" y="875" width="125" height="125" fill="#FF2B21" />
  <rect x="875" y="875" width="125" height="125" fill="#FFC8A8" />
  <rect x="1000" y="875" width="125" height="125" fill="#A56D92" />
  <rect x="1125" y="875" width="125" height="125" fill="#062C3D" />
  <rect x="250" y="1000" width="125" height="125" fill="#4C1641" />
  <rect x="375" y="1000" width="125" height="125" fill="#F89B2C" />
  <rect x="500" y="1000" width="125" height="125" fill="#A26C23" />
  <rect x="625" y="1000" width="125" height="125" fill="#4A8B7D" />
  <rect x="750" y="1000" width="125" height="125" fill="#D6B000" />
  <rect x="875" y="1000" width="125" height="125" fill="#842918" />
  <rect x="1000" y="1000" width="125" height="125" fill="#E8E73C" />
  <rect x="1125" y="1000" width="125" height="125" fill="#222C3B" />
  <rect x="250" y="1125" width="125" height="125" fill="#7B0C35" />
  <rect x="375" y="1125" width="125" height="125" fill="#5B1E3C" />
  <rect x="500" y="1125" width="125" height="125" fill="#003A48" />
  <rect x="625" y="1125" width="125" height="125" fill="#F5E1B0" />
  <rect x="750" y="1125" width="125" height="125" fill="#BCA16E" />
  <rect x="875" y="1125" width="125" height="125" fill="#1D4E74" />
  <rect x="1000" y="1125" width="125" height="125" fill="#C1B8E7" />
  <rect x="1125" y="1125" width="125" height="125" fill="#E2646C" />
  <rect x="250" y="250" width="1000" height="1000" fill="none" stroke="#151515" stroke-opacity="0.16" stroke-width="2" />
</svg>
