<svg xmlns="http://www.w3.org/2000/svg" width="1500" height="1500" viewBox="0 0 1500 1500" shape-rendering="crispEdges" role="img" aria-labelledby="title desc">
  <title id="title">Eroded Symmetry in Black frame</title>
  <desc id="desc">Square Project artwork previewed in a black frame.</desc>
  <defs>
    <linearGradient id="frameFace" x1="0" y1="0" x2="1" y2="1">
      <stop offset="0" stop-color="#6A6A6A" />
      <stop offset="0.32" stop-color="#343434" />
      <stop offset="0.68" stop-color="#111111" />
      <stop offset="1" stop-color="#050505" />
    </linearGradient>
    <filter id="artShadow" x="-10%" y="-10%" width="120%" height="120%">
      <feDropShadow dx="0" dy="20" stdDeviation="24" flood-color="#000000" flood-opacity="0.24" />
    </filter>
  </defs>
  <rect x="0" y="0" width="1500" height="1500" fill="#FFFFFF" />
  <rect x="0" y="0" width="1500" height="1500" fill="url(#frameFace)" />
  <rect x="120" y="120" width="1260" height="1260" fill="#F8F7F3" />
  <rect x="120" y="120" width="1260" height="1260" fill="none" stroke="#000000" stroke-opacity="0.14" stroke-width="10" />
  <rect x="250" y="250" width="1000" height="1000" fill="#FFFFFF" filter="url(#artShadow)" />
  <rect x="250" y="250" width="125" height="125" fill="#5B3A29" />
  <rect x="375" y="250" width="125" height="125" fill="#6A4A36" />
  <rect x="500" y="250" width="125" height="125" fill="#4E2C25" />
  <rect x="625" y="250" width="125" height="125" fill="#7C4D3A" />
  <rect x="750" y="250" width="125" height="125" fill="#C4552C" />
  <rect x="875" y="250" width="125" height="125" fill="#B65030" />
  <rect x="1000" y="250" width="125" height="125" fill="#D36339" />
  <rect x="1125" y="250" width="125" height="125" fill="#F1A661" />
  <rect x="250" y="375" width="125" height="125" fill="#4A3F3B" />
  <rect x="375" y="375" width="125" height="125" fill="#5B5452" />
  <rect x="500" y="375" width="125" height="125" fill="#7A6664" />
  <rect x="625" y="375" width="125" height="125" fill="#BF483F" />
  <rect x="750" y="375" width="125" height="125" fill="#B14A3D" />
  <rect x="875" y="375" width="125" height="125" fill="#C45534" />
  <rect x="1000" y="375" width="125" height="125" fill="#3D2E29" />
  <rect x="1125" y="375" width="125" height="125" fill="#D0C4B2" />
  <rect x="250" y="500" width="125" height="125" fill="#865B59" />
  <rect x="375" y="500" width="125" height="125" fill="#8C7268" />
  <rect x="500" y="500" width="125" height="125" fill="#5D5A55" />
  <rect x="625" y="500" width="125" height="125" fill="#FDE7D9" />
  <rect x="750" y="500" width="125" height="125" fill="#CE6E54" />
  <rect x="875" y="500" width="125" height="125" fill="#DF905F" />
  <rect x="1000" y="500" width="125" height="125" fill="#A24D3D" />
  <rect x="1125" y="500" width="125" height="125" fill="#C57D68" />
  <rect x="250" y="625" width="125" height="125" fill="#3A302C" />
  <rect x="375" y="625" width="125" height="125" fill="#9A6B62" />
  <rect x="500" y="625" width="125" height="125" fill="#A28C8E" />
  <rect x="625" y="625" width="125" height="125" fill="#F4EBD8" />
  <rect x="750" y="625" width="125" height="125" fill="#7A6264" />
  <rect x="875" y="625" width="125" height="125" fill="#865B57" />
  <rect x="1000" y="625" width="125" height="125" fill="#CE4B40" />
  <rect x="1125" y="625" width="125" height="125" fill="#FA7B32" />
  <rect x="250" y="750" width="125" height="125" fill="#674A43" />
  <rect x="375" y="750" width="125" height="125" fill="#D7866C" />
  <rect x="500" y="750" width="125" height="125" fill="#BB5B50" />
  <rect x="625" y="750" width="125" height="125" fill="#E6B64D" />
  <rect x="750" y="750" width="125" height="125" fill="#463934" />
  <rect x="875" y="750" width="125" height="125" fill="#9A877D" />
  <rect x="1000" y="750" width="125" height="125" fill="#E4B17B" />
  <rect x="1125" y="750" width="125" height="125" fill="#D04E4D" />
  <rect x="250" y="875" width="125" height="125" fill="#6B5C54" />
  <rect x="375" y="875" width="125" height="125" fill="#532C2B" />
  <rect x="500" y="875" width="125" height="125" fill="#8F6C62" />
  <rect x="625" y="875" width="125" height="125" fill="#D0A16B" />
  <rect x="750" y="875" width="125" height="125" fill="#F0E7D2" />
  <rect x="875" y="875" width="125" height="125" fill="#C75B32" />
  <rect x="1000" y="875" width="125" height="125" fill="#542C28" />
  <rect x="1125" y="875" width="125" height="125" fill="#B8B3A6" />
  <rect x="250" y="1000" width="125" height="125" fill="#4C2C29" />
  <rect x="375" y="1000" width="125" height="125" fill="#F7E5BB" />
  <rect x="500" y="1000" width="125" height="125" fill="#A48A70" />
  <rect x="625" y="1000" width="125" height="125" fill="#CC7339" />
  <rect x="750" y="1000" width="125" height="125" fill="#6D5252" />
  <rect x="875" y="1000" width="125" height="125" fill="#A07B66" />
  <rect x="1000" y="1000" width="125" height="125" fill="#E6AF6C" />
  <rect x="1125" y="1000" width="125" height="125" fill="#D45F43" />
  <rect x="250" y="1125" width="125" height="125" fill="#4C4C4C" />
  <rect x="375" y="1125" width="125" height="125" fill="#BF6C49" />
  <rect x="500" y="1125" width="125" height="125" fill="#975B55" />
  <rect x="625" y="1125" width="125" height="125" fill="#AA766A" />
  <rect x="750" y="1125" width="125" height="125" fill="#C97A4C" />
  <rect x="875" y="1125" width="125" height="125" fill="#3A2A29" />
  <rect x="1000" y="1125" width="125" height="125" fill="#565B55" />
  <rect x="1125" y="1125" width="125" height="125" fill="#F3BE32" />
  <rect x="250" y="250" width="1000" height="1000" fill="none" stroke="#151515" stroke-opacity="0.16" stroke-width="2" />
</svg>
