<svg xmlns="http://www.w3.org/2000/svg" width="1500" height="1500" viewBox="0 0 1500 1500" shape-rendering="crispEdges" role="img" aria-labelledby="title desc">
  <title id="title">Tension and Tranquility in Black frame</title>
  <desc id="desc">Square Project artwork previewed in a black frame.</desc>
  <rect x="0" y="0" width="1500" height="1500" fill="#FFFFFF" />
  <image href="https://mysquareart.com/frames/black.jpg" x="0" y="0" width="1500" height="1500" preserveAspectRatio="xMidYMid meet" />
  <rect x="250" y="250" width="1000" height="1000" fill="#FFFFFF" />
  <rect x="250" y="250" width="125" height="125" fill="#FF0000" />
  <rect x="375" y="250" width="125" height="125" fill="#FC4C4C" />
  <rect x="500" y="250" width="125" height="125" fill="#F99B9B" />
  <rect x="625" y="250" width="125" height="125" fill="#F3C6C6" />
  <rect x="750" y="250" width="125" height="125" fill="#D9E4E4" />
  <rect x="875" y="250" width="125" height="125" fill="#B6D8D8" />
  <rect x="1000" y="250" width="125" height="125" fill="#94CECE" />
  <rect x="1125" y="250" width="125" height="125" fill="#E0E0E0" />
  <rect x="250" y="375" width="125" height="125" fill="#000000" />
  <rect x="375" y="375" width="125" height="125" fill="#2B2B2B" />
  <rect x="500" y="375" width="125" height="125" fill="#545454" />
  <rect x="625" y="375" width="125" height="125" fill="#7D7D7D" />
  <rect x="750" y="375" width="125" height="125" fill="#A5A5A5" />
  <rect x="875" y="375" width="125" height="125" fill="#CFCFCF" />
  <rect x="1000" y="375" width="125" height="125" fill="#FFFFFF" />
  <rect x="1125" y="375" width="125" height="125" fill="#F0F0F0" />
  <rect x="250" y="500" width="125" height="125" fill="#FF0000" />
  <rect x="375" y="500" width="125" height="125" fill="#FF4C4C" />
  <rect x="500" y="500" width="125" height="125" fill="#FF9999" />
  <rect x="625" y="500" width="125" height="125" fill="#FFC6C6" />
  <rect x="750" y="500" width="125" height="125" fill="#D9E4E4" />
  <rect x="875" y="500" width="125" height="125" fill="#A2D8D8" />
  <rect x="1000" y="500" width="125" height="125" fill="#72CECE" />
  <rect x="1125" y="500" width="125" height="125" fill="#E0E0E0" />
  <rect x="250" y="625" width="125" height="125" fill="#000000" />
  <rect x="375" y="625" width="125" height="125" fill="#222222" />
  <rect x="500" y="625" width="125" height="125" fill="#444444" />
  <rect x="625" y="625" width="125" height="125" fill="#666666" />
  <rect x="750" y="625" width="125" height="125" fill="#888888" />
  <rect x="875" y="625" width="125" height="125" fill="#AAAAAA" />
  <rect x="1000" y="625" width="125" height="125" fill="#CCCCCC" />
  <rect x="1125" y="625" width="125" height="125" fill="#FFFFFF" />
  <rect x="250" y="750" width="125" height="125" fill="#A50410" />
  <rect x="375" y="750" width="125" height="125" fill="#CD6256" />
  <rect x="500" y="750" width="125" height="125" fill="#E3A5A0" />
  <rect x="625" y="750" width="125" height="125" fill="#F1D5D5" />
  <rect x="750" y="750" width="125" height="125" fill="#D5E5E5" />
  <rect x="875" y="750" width="125" height="125" fill="#B0D3D3" />
  <rect x="1000" y="750" width="125" height="125" fill="#7EBBBD" />
  <rect x="1125" y="750" width="125" height="125" fill="#E2E2E2" />
  <rect x="250" y="875" width="125" height="125" fill="#000000" />
  <rect x="375" y="875" width="125" height="125" fill="#1D1D1D" />
  <rect x="500" y="875" width="125" height="125" fill="#404040" />
  <rect x="625" y="875" width="125" height="125" fill="#606060" />
  <rect x="750" y="875" width="125" height="125" fill="#888888" />
  <rect x="875" y="875" width="125" height="125" fill="#AFAFAF" />
  <rect x="1000" y="875" width="125" height="125" fill="#C8C8C8" />
  <rect x="1125" y="875" width="125" height="125" fill="#F0F0F0" />
  <rect x="250" y="1000" width="125" height="125" fill="#C70000" />
  <rect x="375" y="1000" width="125" height="125" fill="#E46A6A" />
  <rect x="500" y="1000" width="125" height="125" fill="#EDB2B2" />
  <rect x="625" y="1000" width="125" height="125" fill="#F0D9D9" />
  <rect x="750" y="1000" width="125" height="125" fill="#D7E6E6" />
  <rect x="875" y="1000" width="125" height="125" fill="#A4CCCB" />
  <rect x="1000" y="1000" width="125" height="125" fill="#71B0B0" />
  <rect x="1125" y="1000" width="125" height="125" fill="#D0D0D0" />
  <rect x="250" y="1125" width="125" height="125" fill="#FFFFFF" />
  <rect x="375" y="1125" width="125" height="125" fill="#F7F7F7" />
  <rect x="500" y="1125" width="125" height="125" fill="#EAEAEA" />
  <rect x="625" y="1125" width="125" height="125" fill="#DCDCDC" />
  <rect x="750" y="1125" width="125" height="125" fill="#CACACA" />
  <rect x="875" y="1125" width="125" height="125" fill="#B8B8B8" />
  <rect x="1000" y="1125" width="125" height="125" fill="#A6A6A6" />
  <rect x="1125" y="1125" width="125" height="125" fill="#949494" />
  <rect x="250" y="250" width="1000" height="1000" fill="none" stroke="#151515" stroke-opacity="0.16" stroke-width="2" />
</svg>
