<svg xmlns="http://www.w3.org/2000/svg" width="1500" height="1500" viewBox="0 0 1500 1500" shape-rendering="crispEdges" role="img" aria-labelledby="title desc">
  <title id="title">Echoes of Tension in Brown frame</title>
  <desc id="desc">Square Project artwork previewed in a brown frame.</desc>
  <defs>
    <linearGradient id="frameFace" x1="0" y1="0" x2="1" y2="1">
      <stop offset="0" stop-color="#C18A55" />
      <stop offset="0.32" stop-color="#9A6840" />
      <stop offset="0.68" stop-color="#70401F" />
      <stop offset="1" stop-color="#3F2413" />
    </linearGradient>
    <filter id="artShadow" x="-10%" y="-10%" width="120%" height="120%">
      <feDropShadow dx="0" dy="20" stdDeviation="24" flood-color="#000000" flood-opacity="0.24" />
    </filter>
  </defs>
  <rect x="0" y="0" width="1500" height="1500" fill="#FFFFFF" />
  <rect x="0" y="0" width="1500" height="1500" fill="url(#frameFace)" />
  <rect x="120" y="120" width="1260" height="1260" fill="#F8F7F3" />
  <rect x="120" y="120" width="1260" height="1260" fill="none" stroke="#000000" stroke-opacity="0.14" stroke-width="10" />
  <rect x="250" y="250" width="1000" height="1000" fill="#FFFFFF" filter="url(#artShadow)" />
  <rect x="250" y="250" width="125" height="125" fill="#2C2A29" />
  <rect x="375" y="250" width="125" height="125" fill="#2E2F51" />
  <rect x="500" y="250" width="125" height="125" fill="#3D3744" />
  <rect x="625" y="250" width="125" height="125" fill="#3A2A3E" />
  <rect x="750" y="250" width="125" height="125" fill="#8B7B54" />
  <rect x="875" y="250" width="125" height="125" fill="#6C6F7E" />
  <rect x="1000" y="250" width="125" height="125" fill="#D1C6A0" />
  <rect x="1125" y="250" width="125" height="125" fill="#B2A86E" />
  <rect x="250" y="375" width="125" height="125" fill="#2C2A29" />
  <rect x="375" y="375" width="125" height="125" fill="#2D2D3E" />
  <rect x="500" y="375" width="125" height="125" fill="#3B303A" />
  <rect x="625" y="375" width="125" height="125" fill="#35312D" />
  <rect x="750" y="375" width="125" height="125" fill="#A67F4D" />
  <rect x="875" y="375" width="125" height="125" fill="#9B9DAF" />
  <rect x="1000" y="375" width="125" height="125" fill="#D3D4B8" />
  <rect x="1125" y="375" width="125" height="125" fill="#C7B19A" />
  <rect x="250" y="500" width="125" height="125" fill="#1F1F1B" />
  <rect x="375" y="500" width="125" height="125" fill="#2B2B45" />
  <rect x="500" y="500" width="125" height="125" fill="#4E4E54" />
  <rect x="625" y="500" width="125" height="125" fill="#4F414F" />
  <rect x="750" y="500" width="125" height="125" fill="#A68D56" />
  <rect x="875" y="500" width="125" height="125" fill="#B6B9BE" />
  <rect x="1000" y="500" width="125" height="125" fill="#C4C58C" />
  <rect x="1125" y="500" width="125" height="125" fill="#BDAA76" />
  <rect x="250" y="625" width="125" height="125" fill="#2A2927" />
  <rect x="375" y="625" width="125" height="125" fill="#3B3C5B" />
  <rect x="500" y="625" width="125" height="125" fill="#525361" />
  <rect x="625" y="625" width="125" height="125" fill="#3C353D" />
  <rect x="750" y="625" width="125" height="125" fill="#CEAA72" />
  <rect x="875" y="625" width="125" height="125" fill="#E0D2AE" />
  <rect x="1000" y="625" width="125" height="125" fill="#D7C5A5" />
  <rect x="1125" y="625" width="125" height="125" fill="#BAA96C" />
  <rect x="250" y="750" width="125" height="125" fill="#2B2A28" />
  <rect x="375" y="750" width="125" height="125" fill="#323249" />
  <rect x="500" y="750" width="125" height="125" fill="#444B51" />
  <rect x="625" y="750" width="125" height="125" fill="#393C43" />
  <rect x="750" y="750" width="125" height="125" fill="#C8AA77" />
  <rect x="875" y="750" width="125" height="125" fill="#B7B1B6" />
  <rect x="1000" y="750" width="125" height="125" fill="#D1D09C" />
  <rect x="1125" y="750" width="125" height="125" fill="#D8DBAE" />
  <rect x="250" y="875" width="125" height="125" fill="#252525" />
  <rect x="375" y="875" width="125" height="125" fill="#363C5F" />
  <rect x="500" y="875" width="125" height="125" fill="#4E4F59" />
  <rect x="625" y="875" width="125" height="125" fill="#424547" />
  <rect x="750" y="875" width="125" height="125" fill="#CBA168" />
  <rect x="875" y="875" width="125" height="125" fill="#C3B8B1" />
  <rect x="1000" y="875" width="125" height="125" fill="#D9C88B" />
  <rect x="1125" y="875" width="125" height="125" fill="#D5CDA7" />
  <rect x="250" y="1000" width="125" height="125" fill="#373A39" />
  <rect x="375" y="1000" width="125" height="125" fill="#282834" />
  <rect x="500" y="1000" width="125" height="125" fill="#4E505B" />
  <rect x="625" y="1000" width="125" height="125" fill="#2A2638" />
  <rect x="750" y="1000" width="125" height="125" fill="#BBAE7B" />
  <rect x="875" y="1000" width="125" height="125" fill="#C1C1AF" />
  <rect x="1000" y="1000" width="125" height="125" fill="#D3CB87" />
  <rect x="1125" y="1000" width="125" height="125" fill="#C7B384" />
  <rect x="250" y="1125" width="125" height="125" fill="#292929" />
  <rect x="375" y="1125" width="125" height="125" fill="#3E3D54" />
  <rect x="500" y="1125" width="125" height="125" fill="#4C4E57" />
  <rect x="625" y="1125" width="125" height="125" fill="#33313F" />
  <rect x="750" y="1125" width="125" height="125" fill="#D4B867" />
  <rect x="875" y="1125" width="125" height="125" fill="#E7E2C2" />
  <rect x="1000" y="1125" width="125" height="125" fill="#D5C78E" />
  <rect x="1125" y="1125" width="125" height="125" fill="#CCC4A6" />
  <rect x="250" y="250" width="1000" height="1000" fill="none" stroke="#151515" stroke-opacity="0.16" stroke-width="2" />
</svg>
