<svg xmlns="http://www.w3.org/2000/svg" width="1500" height="1500" viewBox="0 0 1500 1500" shape-rendering="crispEdges" role="img" aria-labelledby="title desc">
  <title id="title">Tension in Color in Natural frame</title>
  <desc id="desc">Square Project artwork previewed in a natural frame.</desc>
  <rect x="0" y="0" width="1500" height="1500" fill="#FFFFFF" />
  <image href="https://mysquareart.com/frames/natural.jpg" x="0" y="0" width="1500" height="1500" preserveAspectRatio="xMidYMid meet" />
  <rect x="250" y="250" width="1000" height="1000" fill="#FFFFFF" />
  <rect x="250" y="250" width="125" height="125" fill="#000000" />
  <rect x="375" y="250" width="125" height="125" fill="#2E2E2E" />
  <rect x="500" y="250" width="125" height="125" fill="#4A4A4A" />
  <rect x="625" y="250" width="125" height="125" fill="#6B6B6B" />
  <rect x="750" y="250" width="125" height="125" fill="#B3B3B3" />
  <rect x="875" y="250" width="125" height="125" fill="#FFD700" />
  <rect x="1000" y="250" width="125" height="125" fill="#FF0F0F" />
  <rect x="1125" y="250" width="125" height="125" fill="#FF5E00" />
  <rect x="250" y="375" width="125" height="125" fill="#000000" />
  <rect x="375" y="375" width="125" height="125" fill="#2B2B2B" />
  <rect x="500" y="375" width="125" height="125" fill="#5F5F5F" />
  <rect x="625" y="375" width="125" height="125" fill="#5B59E8" />
  <rect x="750" y="375" width="125" height="125" fill="#B3B3B3" />
  <rect x="875" y="375" width="125" height="125" fill="#FF0F0F" />
  <rect x="1000" y="375" width="125" height="125" fill="#FCE88C" />
  <rect x="1125" y="375" width="125" height="125" fill="#F0C0C0" />
  <rect x="250" y="500" width="125" height="125" fill="#000000" />
  <rect x="375" y="500" width="125" height="125" fill="#0F0F0F" />
  <rect x="500" y="500" width="125" height="125" fill="#5F5F5F" />
  <rect x="625" y="500" width="125" height="125" fill="#6B5E8C" />
  <rect x="750" y="500" width="125" height="125" fill="#5E6B8C" />
  <rect x="875" y="500" width="125" height="125" fill="#888888" />
  <rect x="1000" y="500" width="125" height="125" fill="#F0C0C0" />
  <rect x="1125" y="500" width="125" height="125" fill="#DDAA00" />
  <rect x="250" y="625" width="125" height="125" fill="#2E2E2E" />
  <rect x="375" y="625" width="125" height="125" fill="#FF0F0F" />
  <rect x="500" y="625" width="125" height="125" fill="#FF5E00" />
  <rect x="625" y="625" width="125" height="125" fill="#5B5F5F" />
  <rect x="750" y="625" width="125" height="125" fill="#FFC0CB" />
  <rect x="875" y="625" width="125" height="125" fill="#B3B3B3" />
  <rect x="1000" y="625" width="125" height="125" fill="#FFD700" />
  <rect x="1125" y="625" width="125" height="125" fill="#FF7F50" />
  <rect x="250" y="750" width="125" height="125" fill="#4A4A4A" />
  <rect x="375" y="750" width="125" height="125" fill="#F0F0F0" />
  <rect x="500" y="750" width="125" height="125" fill="#FF5E00" />
  <rect x="625" y="750" width="125" height="125" fill="#6B5F8C" />
  <rect x="750" y="750" width="125" height="125" fill="#5F5F5F" />
  <rect x="875" y="750" width="125" height="125" fill="#6B8C8C" />
  <rect x="1000" y="750" width="125" height="125" fill="#FF8C00" />
  <rect x="1125" y="750" width="125" height="125" fill="#6B6B6B" />
  <rect x="250" y="875" width="125" height="125" fill="#B3B3B3" />
  <rect x="375" y="875" width="125" height="125" fill="#5F5F5F" />
  <rect x="500" y="875" width="125" height="125" fill="#5B59E8" />
  <rect x="625" y="875" width="125" height="125" fill="#4A4A4A" />
  <rect x="750" y="875" width="125" height="125" fill="#FF6347" />
  <rect x="875" y="875" width="125" height="125" fill="#FF8C00" />
  <rect x="1000" y="875" width="125" height="125" fill="#C0C0C0" />
  <rect x="1125" y="875" width="125" height="125" fill="#FFDE00" />
  <rect x="250" y="1000" width="125" height="125" fill="#DDAA00" />
  <rect x="375" y="1000" width="125" height="125" fill="#B3B3B3" />
  <rect x="500" y="1000" width="125" height="125" fill="#FFD700" />
  <rect x="625" y="1000" width="125" height="125" fill="#5C2EBE" />
  <rect x="750" y="1000" width="125" height="125" fill="#FF0F0F" />
  <rect x="875" y="1000" width="125" height="125" fill="#0F0F0F" />
  <rect x="1000" y="1000" width="125" height="125" fill="#7F7F7F" />
  <rect x="1125" y="1000" width="125" height="125" fill="#A9A9A9" />
  <rect x="250" y="1125" width="125" height="125" fill="#FF0000" />
  <rect x="375" y="1125" width="125" height="125" fill="#FFD700" />
  <rect x="500" y="1125" width="125" height="125" fill="#5B5F5F" />
  <rect x="625" y="1125" width="125" height="125" fill="#4A4A4A" />
  <rect x="750" y="1125" width="125" height="125" fill="#FFDE00" />
  <rect x="875" y="1125" width="125" height="125" fill="#C0C0C0" />
  <rect x="1000" y="1125" width="125" height="125" fill="#D3D3D3" />
  <rect x="1125" y="1125" width="125" height="125" fill="#000000" />
  <rect x="250" y="250" width="1000" height="1000" fill="none" stroke="#151515" stroke-opacity="0.16" stroke-width="2" />
</svg>
