<svg xmlns="http://www.w3.org/2000/svg" width="1500" height="1500" viewBox="0 0 1500 1500" shape-rendering="crispEdges" role="img" aria-labelledby="title desc">
  <title id="title">Pressure vs Release in White frame</title>
  <desc id="desc">Square Project artwork previewed in a white frame.</desc>
  <defs>
    <linearGradient id="frameFace" x1="0" y1="0" x2="1" y2="1">
      <stop offset="0" stop-color="#BEBEB8" />
      <stop offset="0.32" stop-color="#FFFFFF" />
      <stop offset="0.68" stop-color="#F8F8F5" />
      <stop offset="1" stop-color="#D5D5CF" />
    </linearGradient>
    <filter id="artShadow" x="-10%" y="-10%" width="120%" height="120%">
      <feDropShadow dx="0" dy="20" stdDeviation="24" flood-color="#000000" flood-opacity="0.24" />
    </filter>
  </defs>
  <rect x="0" y="0" width="1500" height="1500" fill="#FFFFFF" />
  <rect x="0" y="0" width="1500" height="1500" fill="url(#frameFace)" />
  <rect x="120" y="120" width="1260" height="1260" fill="#F8F7F3" />
  <rect x="120" y="120" width="1260" height="1260" fill="none" stroke="#000000" stroke-opacity="0.14" stroke-width="10" />
  <rect x="250" y="250" width="1000" height="1000" fill="#FFFFFF" filter="url(#artShadow)" />
  <rect x="250" y="250" width="125" height="125" fill="#3D3D3D" />
  <rect x="375" y="250" width="125" height="125" fill="#5A5A5A" />
  <rect x="500" y="250" width="125" height="125" fill="#757575" />
  <rect x="625" y="250" width="125" height="125" fill="#888888" />
  <rect x="750" y="250" width="125" height="125" fill="#A2A2A2" />
  <rect x="875" y="250" width="125" height="125" fill="#BEC4B2" />
  <rect x="1000" y="250" width="125" height="125" fill="#E0E8E1" />
  <rect x="1125" y="250" width="125" height="125" fill="#F2F9F4" />
  <rect x="250" y="375" width="125" height="125" fill="#3C3C3C" />
  <rect x="375" y="375" width="125" height="125" fill="#470B0B" />
  <rect x="500" y="375" width="125" height="125" fill="#6A6A6A" />
  <rect x="625" y="375" width="125" height="125" fill="#A5B4A4" />
  <rect x="750" y="375" width="125" height="125" fill="#C7D2C4" />
  <rect x="875" y="375" width="125" height="125" fill="#BFB0A3" />
  <rect x="1000" y="375" width="125" height="125" fill="#9BB5B9" />
  <rect x="1125" y="375" width="125" height="125" fill="#F7E8C0" />
  <rect x="250" y="500" width="125" height="125" fill="#262626" />
  <rect x="375" y="500" width="125" height="125" fill="#340A0A" />
  <rect x="500" y="500" width="125" height="125" fill="#6C7575" />
  <rect x="625" y="500" width="125" height="125" fill="#AAB9B0" />
  <rect x="750" y="500" width="125" height="125" fill="#E1E5E3" />
  <rect x="875" y="500" width="125" height="125" fill="#D7D7D7" />
  <rect x="1000" y="500" width="125" height="125" fill="#A8C0C3" />
  <rect x="1125" y="500" width="125" height="125" fill="#F8F9F8" />
  <rect x="250" y="625" width="125" height="125" fill="#111111" />
  <rect x="375" y="625" width="125" height="125" fill="#2D2D2D" />
  <rect x="500" y="625" width="125" height="125" fill="#7A7A7A" />
  <rect x="625" y="625" width="125" height="125" fill="#B4C8BF" />
  <rect x="750" y="625" width="125" height="125" fill="#C6C8C4" />
  <rect x="875" y="625" width="125" height="125" fill="#E2E1E1" />
  <rect x="1000" y="625" width="125" height="125" fill="#A3A6A8" />
  <rect x="1125" y="625" width="125" height="125" fill="#E3F2E4" />
  <rect x="250" y="750" width="125" height="125" fill="#000000" />
  <rect x="375" y="750" width="125" height="125" fill="#444444" />
  <rect x="500" y="750" width="125" height="125" fill="#707070" />
  <rect x="625" y="750" width="125" height="125" fill="#9F9F9F" />
  <rect x="750" y="750" width="125" height="125" fill="#B4B4B4" />
  <rect x="875" y="750" width="125" height="125" fill="#C0D1C1" />
  <rect x="1000" y="750" width="125" height="125" fill="#D8E6E2" />
  <rect x="1125" y="750" width="125" height="125" fill="#E3F6EF" />
  <rect x="250" y="875" width="125" height="125" fill="#1A1A1A" />
  <rect x="375" y="875" width="125" height="125" fill="#3B4D4D" />
  <rect x="500" y="875" width="125" height="125" fill="#79807A" />
  <rect x="625" y="875" width="125" height="125" fill="#AEB6B1" />
  <rect x="750" y="875" width="125" height="125" fill="#C9D3D0" />
  <rect x="875" y="875" width="125" height="125" fill="#D4D5DB" />
  <rect x="1000" y="875" width="125" height="125" fill="#D7E7E4" />
  <rect x="1125" y="875" width="125" height="125" fill="#FDFEFD" />
  <rect x="250" y="1000" width="125" height="125" fill="#505050" />
  <rect x="375" y="1000" width="125" height="125" fill="#6C6C6C" />
  <rect x="500" y="1000" width="125" height="125" fill="#9F9F9F" />
  <rect x="625" y="1000" width="125" height="125" fill="#C5DCDC" />
  <rect x="750" y="1000" width="125" height="125" fill="#D2E3E3" />
  <rect x="875" y="1000" width="125" height="125" fill="#E9F0F0" />
  <rect x="1000" y="1000" width="125" height="125" fill="#E2E3E6" />
  <rect x="1125" y="1000" width="125" height="125" fill="#F8FAFB" />
  <rect x="250" y="1125" width="125" height="125" fill="#383838" />
  <rect x="375" y="1125" width="125" height="125" fill="#505050" />
  <rect x="500" y="1125" width="125" height="125" fill="#828282" />
  <rect x="625" y="1125" width="125" height="125" fill="#B2B6B2" />
  <rect x="750" y="1125" width="125" height="125" fill="#DBE4E6" />
  <rect x="875" y="1125" width="125" height="125" fill="#E9F6F5" />
  <rect x="1000" y="1125" width="125" height="125" fill="#F7FEFF" />
  <rect x="1125" y="1125" width="125" height="125" fill="#F6FCF8" />
  <rect x="250" y="250" width="1000" height="1000" fill="none" stroke="#151515" stroke-opacity="0.16" stroke-width="2" />
</svg>
