<svg xmlns="http://www.w3.org/2000/svg" width="1500" height="1500" viewBox="0 0 1500 1500" shape-rendering="crispEdges" role="img" aria-labelledby="title desc">
  <title id="title">Exposed Harmony in Gold frame</title>
  <desc id="desc">Square Project artwork previewed in a gold frame.</desc>
  <defs>
    <linearGradient id="frameFace" x1="0" y1="0" x2="1" y2="1">
      <stop offset="0" stop-color="#FFF0A3" />
      <stop offset="0.32" stop-color="#F1D676" />
      <stop offset="0.68" stop-color="#CBA642" />
      <stop offset="1" stop-color="#8B6A1D" />
    </linearGradient>
    <filter id="artShadow" x="-10%" y="-10%" width="120%" height="120%">
      <feDropShadow dx="0" dy="20" stdDeviation="24" flood-color="#000000" flood-opacity="0.24" />
    </filter>
  </defs>
  <rect x="0" y="0" width="1500" height="1500" fill="#FFFFFF" />
  <rect x="0" y="0" width="1500" height="1500" fill="url(#frameFace)" />
  <rect x="120" y="120" width="1260" height="1260" fill="#F8F7F3" />
  <rect x="120" y="120" width="1260" height="1260" fill="none" stroke="#000000" stroke-opacity="0.14" stroke-width="10" />
  <rect x="250" y="250" width="1000" height="1000" fill="#FFFFFF" filter="url(#artShadow)" />
  <rect x="250" y="250" width="125" height="125" fill="#F5F1E6" />
  <rect x="375" y="250" width="125" height="125" fill="#D4C3B2" />
  <rect x="500" y="250" width="125" height="125" fill="#E0D7C7" />
  <rect x="625" y="250" width="125" height="125" fill="#F7E3B9" />
  <rect x="750" y="250" width="125" height="125" fill="#E5C4A8" />
  <rect x="875" y="250" width="125" height="125" fill="#F7E5B1" />
  <rect x="1000" y="250" width="125" height="125" fill="#D4B3A2" />
  <rect x="1125" y="250" width="125" height="125" fill="#F2D9C7" />
  <rect x="250" y="375" width="125" height="125" fill="#D4C3B2" />
  <rect x="375" y="375" width="125" height="125" fill="#BAA49A" />
  <rect x="500" y="375" width="125" height="125" fill="#BDA072" />
  <rect x="625" y="375" width="125" height="125" fill="#D4C3B2" />
  <rect x="750" y="375" width="125" height="125" fill="#D1B9A8" />
  <rect x="875" y="375" width="125" height="125" fill="#F4E2B4" />
  <rect x="1000" y="375" width="125" height="125" fill="#D6D68C" />
  <rect x="1125" y="375" width="125" height="125" fill="#C3C2AA" />
  <rect x="250" y="500" width="125" height="125" fill="#D8D1E2" />
  <rect x="375" y="500" width="125" height="125" fill="#B8C4DB" />
  <rect x="500" y="500" width="125" height="125" fill="#F0F5E3" />
  <rect x="625" y="500" width="125" height="125" fill="#B5B594" />
  <rect x="750" y="500" width="125" height="125" fill="#B4A68A" />
  <rect x="875" y="500" width="125" height="125" fill="#EDDD66" />
  <rect x="1000" y="500" width="125" height="125" fill="#D2A78B" />
  <rect x="1125" y="500" width="125" height="125" fill="#B4C4B8" />
  <rect x="250" y="625" width="125" height="125" fill="#B3A919" />
  <rect x="375" y="625" width="125" height="125" fill="#A29417" />
  <rect x="500" y="625" width="125" height="125" fill="#E8CBB2" />
  <rect x="625" y="625" width="125" height="125" fill="#C6A34A" />
  <rect x="750" y="625" width="125" height="125" fill="#B58F5C" />
  <rect x="875" y="625" width="125" height="125" fill="#A7634F" />
  <rect x="1000" y="625" width="125" height="125" fill="#F6E1C6" />
  <rect x="1125" y="625" width="125" height="125" fill="#DAC5A3" />
  <rect x="250" y="750" width="125" height="125" fill="#8C4D5D" />
  <rect x="375" y="750" width="125" height="125" fill="#734D3A" />
  <rect x="500" y="750" width="125" height="125" fill="#9A7C53" />
  <rect x="625" y="750" width="125" height="125" fill="#733F1F" />
  <rect x="750" y="750" width="125" height="125" fill="#E3D1C4" />
  <rect x="875" y="750" width="125" height="125" fill="#9D8C75" />
  <rect x="1000" y="750" width="125" height="125" fill="#CEBBA0" />
  <rect x="1125" y="750" width="125" height="125" fill="#B4A15D" />
  <rect x="250" y="875" width="125" height="125" fill="#862627" />
  <rect x="375" y="875" width="125" height="125" fill="#E8B651" />
  <rect x="500" y="875" width="125" height="125" fill="#835E4B" />
  <rect x="625" y="875" width="125" height="125" fill="#887141" />
  <rect x="750" y="875" width="125" height="125" fill="#F2A659" />
  <rect x="875" y="875" width="125" height="125" fill="#DAAA8D" />
  <rect x="1000" y="875" width="125" height="125" fill="#BF9D7E" />
  <rect x="1125" y="875" width="125" height="125" fill="#8C7364" />
  <rect x="250" y="1000" width="125" height="125" fill="#ACB2A0" />
  <rect x="375" y="1000" width="125" height="125" fill="#C8B1B1" />
  <rect x="500" y="1000" width="125" height="125" fill="#5C4D4E" />
  <rect x="625" y="1000" width="125" height="125" fill="#8D7A6D" />
  <rect x="750" y="1000" width="125" height="125" fill="#6F5D56" />
  <rect x="875" y="1000" width="125" height="125" fill="#56674B" />
  <rect x="1000" y="1000" width="125" height="125" fill="#A79E8D" />
  <rect x="1125" y="1000" width="125" height="125" fill="#B1C9A8" />
  <rect x="250" y="1125" width="125" height="125" fill="#3B2C2E" />
  <rect x="375" y="1125" width="125" height="125" fill="#2D2B29" />
  <rect x="500" y="1125" width="125" height="125" fill="#627B6B" />
  <rect x="625" y="1125" width="125" height="125" fill="#2F3D43" />
  <rect x="750" y="1125" width="125" height="125" fill="#54595E" />
  <rect x="875" y="1125" width="125" height="125" fill="#2A292B" />
  <rect x="1000" y="1125" width="125" height="125" fill="#394545" />
  <rect x="1125" y="1125" width="125" height="125" fill="#DAE5DB" />
  <rect x="250" y="250" width="1000" height="1000" fill="none" stroke="#151515" stroke-opacity="0.16" stroke-width="2" />
</svg>
