<svg xmlns="http://www.w3.org/2000/svg" width="1500" height="1500" viewBox="0 0 1500 1500" shape-rendering="crispEdges" role="img" aria-labelledby="title desc">
  <title id="title">Echoes of Progress in White frame</title>
  <desc id="desc">Square Project artwork previewed in a white frame.</desc>
  <rect x="0" y="0" width="1500" height="1500" fill="#FFFFFF" />
  <image href="https://mysquareart.com/frames/white.jpg" x="0" y="0" width="1500" height="1500" preserveAspectRatio="xMidYMid meet" />
  <rect x="250" y="250" width="1000" height="1000" fill="#FFFFFF" />
  <rect x="250" y="250" width="125" height="125" fill="#5C4F66" />
  <rect x="375" y="250" width="125" height="125" fill="#9A7A9D" />
  <rect x="500" y="250" width="125" height="125" fill="#EAB8D1" />
  <rect x="625" y="250" width="125" height="125" fill="#D6A0C0" />
  <rect x="750" y="250" width="125" height="125" fill="#6F3C5D" />
  <rect x="875" y="250" width="125" height="125" fill="#8F5A8E" />
  <rect x="1000" y="250" width="125" height="125" fill="#AB7588" />
  <rect x="1125" y="250" width="125" height="125" fill="#BAA4B8" />
  <rect x="250" y="375" width="125" height="125" fill="#3A2B3C" />
  <rect x="375" y="375" width="125" height="125" fill="#63192A" />
  <rect x="500" y="375" width="125" height="125" fill="#963A41" />
  <rect x="625" y="375" width="125" height="125" fill="#E45E67" />
  <rect x="750" y="375" width="125" height="125" fill="#D8C5D0" />
  <rect x="875" y="375" width="125" height="125" fill="#A8A8AD" />
  <rect x="1000" y="375" width="125" height="125" fill="#7F6C80" />
  <rect x="1125" y="375" width="125" height="125" fill="#A37391" />
  <rect x="250" y="500" width="125" height="125" fill="#B596B3" />
  <rect x="375" y="500" width="125" height="125" fill="#D2D4E0" />
  <rect x="500" y="500" width="125" height="125" fill="#AB9FA6" />
  <rect x="625" y="500" width="125" height="125" fill="#9B8DA2" />
  <rect x="750" y="500" width="125" height="125" fill="#E5B1A7" />
  <rect x="875" y="500" width="125" height="125" fill="#FDF2F2" />
  <rect x="1000" y="500" width="125" height="125" fill="#E6C4C4" />
  <rect x="1125" y="500" width="125" height="125" fill="#BEC3E4" />
  <rect x="250" y="625" width="125" height="125" fill="#C2555B" />
  <rect x="375" y="625" width="125" height="125" fill="#8B5D7A" />
  <rect x="500" y="625" width="125" height="125" fill="#5E2E4C" />
  <rect x="625" y="625" width="125" height="125" fill="#AA4F5A" />
  <rect x="750" y="625" width="125" height="125" fill="#834C4A" />
  <rect x="875" y="625" width="125" height="125" fill="#D68A8E" />
  <rect x="1000" y="625" width="125" height="125" fill="#A15B73" />
  <rect x="1125" y="625" width="125" height="125" fill="#77A9C8" />
  <rect x="250" y="750" width="125" height="125" fill="#736A76" />
  <rect x="375" y="750" width="125" height="125" fill="#D79BA1" />
  <rect x="500" y="750" width="125" height="125" fill="#B1697B" />
  <rect x="625" y="750" width="125" height="125" fill="#AA8395" />
  <rect x="750" y="750" width="125" height="125" fill="#633B49" />
  <rect x="875" y="750" width="125" height="125" fill="#B64563" />
  <rect x="1000" y="750" width="125" height="125" fill="#6D606C" />
  <rect x="1125" y="750" width="125" height="125" fill="#AF8B7D" />
  <rect x="250" y="875" width="125" height="125" fill="#3F2B38" />
  <rect x="375" y="875" width="125" height="125" fill="#E99FB5" />
  <rect x="500" y="875" width="125" height="125" fill="#8A615D" />
  <rect x="625" y="875" width="125" height="125" fill="#D06388" />
  <rect x="750" y="875" width="125" height="125" fill="#A87B77" />
  <rect x="875" y="875" width="125" height="125" fill="#B70023" />
  <rect x="1000" y="875" width="125" height="125" fill="#6B4F54" />
  <rect x="1125" y="875" width="125" height="125" fill="#C1A4E0" />
  <rect x="250" y="1000" width="125" height="125" fill="#202B45" />
  <rect x="375" y="1000" width="125" height="125" fill="#6F8488" />
  <rect x="500" y="1000" width="125" height="125" fill="#ACD8E1" />
  <rect x="625" y="1000" width="125" height="125" fill="#9FA3B5" />
  <rect x="750" y="1000" width="125" height="125" fill="#3C2B2F" />
  <rect x="875" y="1000" width="125" height="125" fill="#E6D4C6" />
  <rect x="1000" y="1000" width="125" height="125" fill="#DFA037" />
  <rect x="1125" y="1000" width="125" height="125" fill="#8E6B7C" />
  <rect x="250" y="1125" width="125" height="125" fill="#2B283B" />
  <rect x="375" y="1125" width="125" height="125" fill="#362D53" />
  <rect x="500" y="1125" width="125" height="125" fill="#B34D3D" />
  <rect x="625" y="1125" width="125" height="125" fill="#F2C0CD" />
  <rect x="750" y="1125" width="125" height="125" fill="#E56F75" />
  <rect x="875" y="1125" width="125" height="125" fill="#AA4A5D" />
  <rect x="1000" y="1125" width="125" height="125" fill="#79A3A9" />
  <rect x="1125" y="1125" width="125" height="125" fill="#C9B8CC" />
  <rect x="250" y="250" width="1000" height="1000" fill="none" stroke="#151515" stroke-opacity="0.16" stroke-width="2" />
</svg>
