<svg xmlns="http://www.w3.org/2000/svg" width="1500" height="1500" viewBox="0 0 1500 1500" shape-rendering="crispEdges" role="img" aria-labelledby="title desc">
  <title id="title">Echoes of Tension in Natural frame</title>
  <desc id="desc">Square Project artwork previewed in a natural frame.</desc>
  <rect x="0" y="0" width="1500" height="1500" fill="#FFFFFF" />
  <image href="https://mysquareart.com/frames/natural.jpg" x="0" y="0" width="1500" height="1500" preserveAspectRatio="xMidYMid meet" />
  <rect x="250" y="250" width="1000" height="1000" fill="#FFFFFF" />
  <rect x="250" y="250" width="125" height="125" fill="#F5F5F5" />
  <rect x="375" y="250" width="125" height="125" fill="#E0E0E0" />
  <rect x="500" y="250" width="125" height="125" fill="#C0C0C0" />
  <rect x="625" y="250" width="125" height="125" fill="#A0A0A0" />
  <rect x="750" y="250" width="125" height="125" fill="#808080" />
  <rect x="875" y="250" width="125" height="125" fill="#585858" />
  <rect x="1000" y="250" width="125" height="125" fill="#373737" />
  <rect x="1125" y="250" width="125" height="125" fill="#000000" />
  <rect x="250" y="375" width="125" height="125" fill="#E1B7B2" />
  <rect x="375" y="375" width="125" height="125" fill="#D88D81" />
  <rect x="500" y="375" width="125" height="125" fill="#C35858" />
  <rect x="625" y="375" width="125" height="125" fill="#A33C3C" />
  <rect x="750" y="375" width="125" height="125" fill="#8B2731" />
  <rect x="875" y="375" width="125" height="125" fill="#6F1427" />
  <rect x="1000" y="375" width="125" height="125" fill="#550D25" />
  <rect x="1125" y="375" width="125" height="125" fill="#3C0A1E" />
  <rect x="250" y="500" width="125" height="125" fill="#F5F5F5" />
  <rect x="375" y="500" width="125" height="125" fill="#D49A8E" />
  <rect x="500" y="500" width="125" height="125" fill="#AD6A7F" />
  <rect x="625" y="500" width="125" height="125" fill="#8D4B70" />
  <rect x="750" y="500" width="125" height="125" fill="#6D2E61" />
  <rect x="875" y="500" width="125" height="125" fill="#4F1C5B" />
  <rect x="1000" y="500" width="125" height="125" fill="#3C113D" />
  <rect x="1125" y="500" width="125" height="125" fill="#280A21" />
  <rect x="250" y="625" width="125" height="125" fill="#B2B2B2" />
  <rect x="375" y="625" width="125" height="125" fill="#7B7B7B" />
  <rect x="500" y="625" width="125" height="125" fill="#6095A4" />
  <rect x="625" y="625" width="125" height="125" fill="#2A3C41" />
  <rect x="750" y="625" width="125" height="125" fill="#1B2226" />
  <rect x="875" y="625" width="125" height="125" fill="#141C1F" />
  <rect x="1000" y="625" width="125" height="125" fill="#161E21" />
  <rect x="1125" y="625" width="125" height="125" fill="#000000" />
  <rect x="250" y="750" width="125" height="125" fill="#E1B7B2" />
  <rect x="375" y="750" width="125" height="125" fill="#E0E0E0" />
  <rect x="500" y="750" width="125" height="125" fill="#C7C6C1" />
  <rect x="625" y="750" width="125" height="125" fill="#B6B4AA" />
  <rect x="750" y="750" width="125" height="125" fill="#A8A09C" />
  <rect x="875" y="750" width="125" height="125" fill="#868684" />
  <rect x="1000" y="750" width="125" height="125" fill="#46454A" />
  <rect x="1125" y="750" width="125" height="125" fill="#000000" />
  <rect x="250" y="875" width="125" height="125" fill="#E3D8D2" />
  <rect x="375" y="875" width="125" height="125" fill="#C7B6B0" />
  <rect x="500" y="875" width="125" height="125" fill="#BF9A9C" />
  <rect x="625" y="875" width="125" height="125" fill="#A87786" />
  <rect x="750" y="875" width="125" height="125" fill="#8C596D" />
  <rect x="875" y="875" width="125" height="125" fill="#694257" />
  <rect x="1000" y="875" width="125" height="125" fill="#4C2E44" />
  <rect x="1125" y="875" width="125" height="125" fill="#2B0C1F" />
  <rect x="250" y="1000" width="125" height="125" fill="#DBD7D2" />
  <rect x="375" y="1000" width="125" height="125" fill="#DAD5C9" />
  <rect x="500" y="1000" width="125" height="125" fill="#C6C4B5" />
  <rect x="625" y="1000" width="125" height="125" fill="#A2A99A" />
  <rect x="750" y="1000" width="125" height="125" fill="#7A7A7A" />
  <rect x="875" y="1000" width="125" height="125" fill="#5D5D5D" />
  <rect x="1000" y="1000" width="125" height="125" fill="#3F3F3F" />
  <rect x="1125" y="1000" width="125" height="125" fill="#000000" />
  <rect x="250" y="1125" width="125" height="125" fill="#F5F5F5" />
  <rect x="375" y="1125" width="125" height="125" fill="#E0E0E0" />
  <rect x="500" y="1125" width="125" height="125" fill="#2C3E50" />
  <rect x="625" y="1125" width="125" height="125" fill="#3A5364" />
  <rect x="750" y="1125" width="125" height="125" fill="#8A9B8C" />
  <rect x="875" y="1125" width="125" height="125" fill="#D3C6B1" />
  <rect x="1000" y="1125" width="125" height="125" fill="#E8E8E8" />
  <rect x="1125" y="1125" width="125" height="125" fill="#FFFFFF" />
  <rect x="250" y="250" width="1000" height="1000" fill="none" stroke="#151515" stroke-opacity="0.16" stroke-width="2" />
</svg>
