<svg xmlns="http://www.w3.org/2000/svg" width="1500" height="1500" viewBox="0 0 1500 1500" shape-rendering="crispEdges" role="img" aria-labelledby="title desc">
  <title id="title">Tension of Opposites in Brown frame</title>
  <desc id="desc">Square Project artwork previewed in a brown frame.</desc>
  <rect x="0" y="0" width="1500" height="1500" fill="#FFFFFF" />
  <image href="https://mysquareart.com/frames/brown.jpg" x="0" y="0" width="1500" height="1500" preserveAspectRatio="xMidYMid meet" />
  <rect x="250" y="250" width="1000" height="1000" fill="#FFFFFF" />
  <rect x="250" y="250" width="125" height="125" fill="#FF6699" />
  <rect x="375" y="250" width="125" height="125" fill="#FF3366" />
  <rect x="500" y="250" width="125" height="125" fill="#FF0066" />
  <rect x="625" y="250" width="125" height="125" fill="#CC0055" />
  <rect x="750" y="250" width="125" height="125" fill="#990044" />
  <rect x="875" y="250" width="125" height="125" fill="#660033" />
  <rect x="1000" y="250" width="125" height="125" fill="#660066" />
  <rect x="1125" y="250" width="125" height="125" fill="#330033" />
  <rect x="250" y="375" width="125" height="125" fill="#FF9999" />
  <rect x="375" y="375" width="125" height="125" fill="#FF6666" />
  <rect x="500" y="375" width="125" height="125" fill="#FF3333" />
  <rect x="625" y="375" width="125" height="125" fill="#CC3333" />
  <rect x="750" y="375" width="125" height="125" fill="#993333" />
  <rect x="875" y="375" width="125" height="125" fill="#663333" />
  <rect x="1000" y="375" width="125" height="125" fill="#663366" />
  <rect x="1125" y="375" width="125" height="125" fill="#333333" />
  <rect x="250" y="500" width="125" height="125" fill="#CCCCE0" />
  <rect x="375" y="500" width="125" height="125" fill="#BBBBD9" />
  <rect x="500" y="500" width="125" height="125" fill="#AAAAE2" />
  <rect x="625" y="500" width="125" height="125" fill="#999AC8" />
  <rect x="750" y="500" width="125" height="125" fill="#888AB3" />
  <rect x="875" y="500" width="125" height="125" fill="#7777B1" />
  <rect x="1000" y="500" width="125" height="125" fill="#6666A0" />
  <rect x="1125" y="500" width="125" height="125" fill="#555586" />
  <rect x="250" y="625" width="125" height="125" fill="#E0E0E0" />
  <rect x="375" y="625" width="125" height="125" fill="#D9D9D9" />
  <rect x="500" y="625" width="125" height="125" fill="#D2D2D2" />
  <rect x="625" y="625" width="125" height="125" fill="#CCCCCC" />
  <rect x="750" y="625" width="125" height="125" fill="#C7C7C7" />
  <rect x="875" y="625" width="125" height="125" fill="#BCBCBC" />
  <rect x="1000" y="625" width="125" height="125" fill="#A8A8A8" />
  <rect x="1125" y="625" width="125" height="125" fill="#949494" />
  <rect x="250" y="750" width="125" height="125" fill="#434347" />
  <rect x="375" y="750" width="125" height="125" fill="#6E6E7A" />
  <rect x="500" y="750" width="125" height="125" fill="#9999A0" />
  <rect x="625" y="750" width="125" height="125" fill="#666699" />
  <rect x="750" y="750" width="125" height="125" fill="#575795" />
  <rect x="875" y="750" width="125" height="125" fill="#4242A0" />
  <rect x="1000" y="750" width="125" height="125" fill="#4D4D60" />
  <rect x="1125" y="750" width="125" height="125" fill="#58585E" />
  <rect x="250" y="875" width="125" height="125" fill="#4A4A4A" />
  <rect x="375" y="875" width="125" height="125" fill="#545454" />
  <rect x="500" y="875" width="125" height="125" fill="#676767" />
  <rect x="625" y="875" width="125" height="125" fill="#7A7A7A" />
  <rect x="750" y="875" width="125" height="125" fill="#838383" />
  <rect x="875" y="875" width="125" height="125" fill="#919191" />
  <rect x="1000" y="875" width="125" height="125" fill="#A1A1A1" />
  <rect x="1125" y="875" width="125" height="125" fill="#B0B0B0" />
  <rect x="250" y="1000" width="125" height="125" fill="#37373C" />
  <rect x="375" y="1000" width="125" height="125" fill="#404046" />
  <rect x="500" y="1000" width="125" height="125" fill="#48484C" />
  <rect x="625" y="1000" width="125" height="125" fill="#505053" />
  <rect x="750" y="1000" width="125" height="125" fill="#585859" />
  <rect x="875" y="1000" width="125" height="125" fill="#606060" />
  <rect x="1000" y="1000" width="125" height="125" fill="#686868" />
  <rect x="1125" y="1000" width="125" height="125" fill="#707070" />
  <rect x="250" y="1125" width="125" height="125" fill="#111111" />
  <rect x="375" y="1125" width="125" height="125" fill="#222222" />
  <rect x="500" y="1125" width="125" height="125" fill="#333333" />
  <rect x="625" y="1125" width="125" height="125" fill="#444444" />
  <rect x="750" y="1125" width="125" height="125" fill="#555555" />
  <rect x="875" y="1125" width="125" height="125" fill="#666666" />
  <rect x="1000" y="1125" width="125" height="125" fill="#777777" />
  <rect x="1125" y="1125" width="125" height="125" fill="#888888" />
  <rect x="250" y="250" width="1000" height="1000" fill="none" stroke="#151515" stroke-opacity="0.16" stroke-width="2" />
</svg>
