<svg xmlns="http://www.w3.org/2000/svg" width="1500" height="1500" viewBox="0 0 1500 1500" shape-rendering="crispEdges" role="img" aria-labelledby="title desc">
  <title id="title">Center vs Edges in Gold frame</title>
  <desc id="desc">Square Project artwork previewed in a gold frame.</desc>
  <defs>
    <linearGradient id="frameFace" x1="0" y1="0" x2="1" y2="1">
      <stop offset="0" stop-color="#FFF0A3" />
      <stop offset="0.32" stop-color="#F1D676" />
      <stop offset="0.68" stop-color="#CBA642" />
      <stop offset="1" stop-color="#8B6A1D" />
    </linearGradient>
    <filter id="artShadow" x="-10%" y="-10%" width="120%" height="120%">
      <feDropShadow dx="0" dy="20" stdDeviation="24" flood-color="#000000" flood-opacity="0.24" />
    </filter>
  </defs>
  <rect x="0" y="0" width="1500" height="1500" fill="#FFFFFF" />
  <rect x="0" y="0" width="1500" height="1500" fill="url(#frameFace)" />
  <rect x="120" y="120" width="1260" height="1260" fill="#F8F7F3" />
  <rect x="120" y="120" width="1260" height="1260" fill="none" stroke="#000000" stroke-opacity="0.14" stroke-width="10" />
  <rect x="250" y="250" width="1000" height="1000" fill="#FFFFFF" filter="url(#artShadow)" />
  <rect x="250" y="250" width="125" height="125" fill="#2D0F27" />
  <rect x="375" y="250" width="125" height="125" fill="#2E1728" />
  <rect x="500" y="250" width="125" height="125" fill="#A87E7B" />
  <rect x="625" y="250" width="125" height="125" fill="#8B3D3A" />
  <rect x="750" y="250" width="125" height="125" fill="#8A2723" />
  <rect x="875" y="250" width="125" height="125" fill="#34171D" />
  <rect x="1000" y="250" width="125" height="125" fill="#772B28" />
  <rect x="1125" y="250" width="125" height="125" fill="#5E1417" />
  <rect x="250" y="375" width="125" height="125" fill="#3F0B16" />
  <rect x="375" y="375" width="125" height="125" fill="#471318" />
  <rect x="500" y="375" width="125" height="125" fill="#C6BBAA" />
  <rect x="625" y="375" width="125" height="125" fill="#5A3734" />
  <rect x="750" y="375" width="125" height="125" fill="#BF3B39" />
  <rect x="875" y="375" width="125" height="125" fill="#A05247" />
  <rect x="1000" y="375" width="125" height="125" fill="#7C2D2A" />
  <rect x="1125" y="375" width="125" height="125" fill="#791821" />
  <rect x="250" y="500" width="125" height="125" fill="#A66B60" />
  <rect x="375" y="500" width="125" height="125" fill="#794743" />
  <rect x="500" y="500" width="125" height="125" fill="#E4D4C7" />
  <rect x="625" y="500" width="125" height="125" fill="#553434" />
  <rect x="750" y="500" width="125" height="125" fill="#D43730" />
  <rect x="875" y="500" width="125" height="125" fill="#38061A" />
  <rect x="1000" y="500" width="125" height="125" fill="#842D2C" />
  <rect x="1125" y="500" width="125" height="125" fill="#451821" />
  <rect x="250" y="625" width="125" height="125" fill="#A01224" />
  <rect x="375" y="625" width="125" height="125" fill="#5A3436" />
  <rect x="500" y="625" width="125" height="125" fill="#BD9C94" />
  <rect x="625" y="625" width="125" height="125" fill="#BF6060" />
  <rect x="750" y="625" width="125" height="125" fill="#D36E65" />
  <rect x="875" y="625" width="125" height="125" fill="#461A23" />
  <rect x="1000" y="625" width="125" height="125" fill="#A94E4F" />
  <rect x="1125" y="625" width="125" height="125" fill="#7B2329" />
  <rect x="250" y="750" width="125" height="125" fill="#752433" />
  <rect x="375" y="750" width="125" height="125" fill="#2B1517" />
  <rect x="500" y="750" width="125" height="125" fill="#DA9472" />
  <rect x="625" y="750" width="125" height="125" fill="#B68B90" />
  <rect x="750" y="750" width="125" height="125" fill="#A2252E" />
  <rect x="875" y="750" width="125" height="125" fill="#B46E70" />
  <rect x="1000" y="750" width="125" height="125" fill="#7F4A4C" />
  <rect x="1125" y="750" width="125" height="125" fill="#4B2226" />
  <rect x="250" y="875" width="125" height="125" fill="#3D141E" />
  <rect x="375" y="875" width="125" height="125" fill="#805C57" />
  <rect x="500" y="875" width="125" height="125" fill="#DA8883" />
  <rect x="625" y="875" width="125" height="125" fill="#ECF1E1" />
  <rect x="750" y="875" width="125" height="125" fill="#F1E8D0" />
  <rect x="875" y="875" width="125" height="125" fill="#951F28" />
  <rect x="1000" y="875" width="125" height="125" fill="#BF8A74" />
  <rect x="1125" y="875" width="125" height="125" fill="#9C423D" />
  <rect x="250" y="1000" width="125" height="125" fill="#19283E" />
  <rect x="375" y="1000" width="125" height="125" fill="#680D13" />
  <rect x="500" y="1000" width="125" height="125" fill="#EAB7A7" />
  <rect x="625" y="1000" width="125" height="125" fill="#CD5C57" />
  <rect x="750" y="1000" width="125" height="125" fill="#D43E33" />
  <rect x="875" y="1000" width="125" height="125" fill="#A76757" />
  <rect x="1000" y="1000" width="125" height="125" fill="#C7B8A3" />
  <rect x="1125" y="1000" width="125" height="125" fill="#C03D36" />
  <rect x="250" y="1125" width="125" height="125" fill="#3E0B18" />
  <rect x="375" y="1125" width="125" height="125" fill="#5D1B2A" />
  <rect x="500" y="1125" width="125" height="125" fill="#B1C9B5" />
  <rect x="625" y="1125" width="125" height="125" fill="#C4D0CC" />
  <rect x="750" y="1125" width="125" height="125" fill="#E5D6C8" />
  <rect x="875" y="1125" width="125" height="125" fill="#572D28" />
  <rect x="1000" y="1125" width="125" height="125" fill="#A83234" />
  <rect x="1125" y="1125" width="125" height="125" fill="#7C1B35" />
  <rect x="250" y="250" width="1000" height="1000" fill="none" stroke="#151515" stroke-opacity="0.16" stroke-width="2" />
</svg>
