<svg xmlns="http://www.w3.org/2000/svg" width="1500" height="1500" viewBox="0 0 1500 1500" shape-rendering="crispEdges" role="img" aria-labelledby="title desc">
  <title id="title">Tension and Release in Brown frame</title>
  <desc id="desc">Square Project artwork previewed in a brown frame.</desc>
  <defs>
    <linearGradient id="frameFace" x1="0" y1="0" x2="1" y2="1">
      <stop offset="0" stop-color="#C18A55" />
      <stop offset="0.32" stop-color="#9A6840" />
      <stop offset="0.68" stop-color="#70401F" />
      <stop offset="1" stop-color="#3F2413" />
    </linearGradient>
    <filter id="artShadow" x="-10%" y="-10%" width="120%" height="120%">
      <feDropShadow dx="0" dy="20" stdDeviation="24" flood-color="#000000" flood-opacity="0.24" />
    </filter>
  </defs>
  <rect x="0" y="0" width="1500" height="1500" fill="#FFFFFF" />
  <rect x="0" y="0" width="1500" height="1500" fill="url(#frameFace)" />
  <rect x="120" y="120" width="1260" height="1260" fill="#F8F7F3" />
  <rect x="120" y="120" width="1260" height="1260" fill="none" stroke="#000000" stroke-opacity="0.14" stroke-width="10" />
  <rect x="250" y="250" width="1000" height="1000" fill="#FFFFFF" filter="url(#artShadow)" />
  <rect x="250" y="250" width="125" height="125" fill="#BCAAA2" />
  <rect x="375" y="250" width="125" height="125" fill="#D5C4B1" />
  <rect x="500" y="250" width="125" height="125" fill="#D9D3C3" />
  <rect x="625" y="250" width="125" height="125" fill="#F1E3D0" />
  <rect x="750" y="250" width="125" height="125" fill="#E1C8B2" />
  <rect x="875" y="250" width="125" height="125" fill="#C6B6A4" />
  <rect x="1000" y="250" width="125" height="125" fill="#A6A7A5" />
  <rect x="1125" y="250" width="125" height="125" fill="#EDEDE2" />
  <rect x="250" y="375" width="125" height="125" fill="#D1BEB1" />
  <rect x="375" y="375" width="125" height="125" fill="#D5C7B9" />
  <rect x="500" y="375" width="125" height="125" fill="#D6BDAD" />
  <rect x="625" y="375" width="125" height="125" fill="#C7D5C9" />
  <rect x="750" y="375" width="125" height="125" fill="#BEC5BB" />
  <rect x="875" y="375" width="125" height="125" fill="#D2D0CB" />
  <rect x="1000" y="375" width="125" height="125" fill="#B0B6B8" />
  <rect x="1125" y="375" width="125" height="125" fill="#D0CEDB" />
  <rect x="250" y="500" width="125" height="125" fill="#F5D6B2" />
  <rect x="375" y="500" width="125" height="125" fill="#EABAB8" />
  <rect x="500" y="500" width="125" height="125" fill="#B49386" />
  <rect x="625" y="500" width="125" height="125" fill="#C2B7A4" />
  <rect x="750" y="500" width="125" height="125" fill="#D5C2B4" />
  <rect x="875" y="500" width="125" height="125" fill="#B7C6C9" />
  <rect x="1000" y="500" width="125" height="125" fill="#9DA3A8" />
  <rect x="1125" y="500" width="125" height="125" fill="#C6C7D1" />
  <rect x="250" y="625" width="125" height="125" fill="#B2D0B3" />
  <rect x="375" y="625" width="125" height="125" fill="#CFD4C5" />
  <rect x="500" y="625" width="125" height="125" fill="#B2C6C5" />
  <rect x="625" y="625" width="125" height="125" fill="#DAE1E4" />
  <rect x="750" y="625" width="125" height="125" fill="#D9C4A8" />
  <rect x="875" y="625" width="125" height="125" fill="#B0A89B" />
  <rect x="1000" y="625" width="125" height="125" fill="#AE978E" />
  <rect x="1125" y="625" width="125" height="125" fill="#B2B9C6" />
  <rect x="250" y="750" width="125" height="125" fill="#A5B3B4" />
  <rect x="375" y="750" width="125" height="125" fill="#D9D0C0" />
  <rect x="500" y="750" width="125" height="125" fill="#B0D9C0" />
  <rect x="625" y="750" width="125" height="125" fill="#B2B7C4" />
  <rect x="750" y="750" width="125" height="125" fill="#A6C8B6" />
  <rect x="875" y="750" width="125" height="125" fill="#A3C6D8" />
  <rect x="1000" y="750" width="125" height="125" fill="#D3C8B7" />
  <rect x="1125" y="750" width="125" height="125" fill="#DAE1D0" />
  <rect x="250" y="875" width="125" height="125" fill="#C6B4B1" />
  <rect x="375" y="875" width="125" height="125" fill="#F2E8D5" />
  <rect x="500" y="875" width="125" height="125" fill="#C1B5AD" />
  <rect x="625" y="875" width="125" height="125" fill="#B7B6BD" />
  <rect x="750" y="875" width="125" height="125" fill="#B2C9C2" />
  <rect x="875" y="875" width="125" height="125" fill="#D9C8A0" />
  <rect x="1000" y="875" width="125" height="125" fill="#E0D2C8" />
  <rect x="1125" y="875" width="125" height="125" fill="#C6C4D0" />
  <rect x="250" y="1000" width="125" height="125" fill="#D3C8D3" />
  <rect x="375" y="1000" width="125" height="125" fill="#C2B5B5" />
  <rect x="500" y="1000" width="125" height="125" fill="#E2C8C1" />
  <rect x="625" y="1000" width="125" height="125" fill="#E1B7AB" />
  <rect x="750" y="1000" width="125" height="125" fill="#D2D1C8" />
  <rect x="875" y="1000" width="125" height="125" fill="#DAC4B6" />
  <rect x="1000" y="1000" width="125" height="125" fill="#D3CED1" />
  <rect x="1125" y="1000" width="125" height="125" fill="#C6C1E4" />
  <rect x="250" y="1125" width="125" height="125" fill="#B1B0BB" />
  <rect x="375" y="1125" width="125" height="125" fill="#A6A697" />
  <rect x="500" y="1125" width="125" height="125" fill="#B5B8C0" />
  <rect x="625" y="1125" width="125" height="125" fill="#B5C4BF" />
  <rect x="750" y="1125" width="125" height="125" fill="#C9B1B2" />
  <rect x="875" y="1125" width="125" height="125" fill="#D5C6C8" />
  <rect x="1000" y="1125" width="125" height="125" fill="#B8C0B4" />
  <rect x="1125" y="1125" width="125" height="125" fill="#E6D1C0" />
  <rect x="250" y="250" width="1000" height="1000" fill="none" stroke="#151515" stroke-opacity="0.16" stroke-width="2" />
</svg>
