<svg xmlns="http://www.w3.org/2000/svg" width="1500" height="1500" viewBox="0 0 1500 1500" shape-rendering="crispEdges" role="img" aria-labelledby="title desc">
  <title id="title">Pulse Against the Seal in White frame</title>
  <desc id="desc">Square Project artwork previewed in a white frame.</desc>
  <defs>
    <linearGradient id="frameFace" x1="0" y1="0" x2="1" y2="1">
      <stop offset="0" stop-color="#BEBEB8" />
      <stop offset="0.32" stop-color="#FFFFFF" />
      <stop offset="0.68" stop-color="#F8F8F5" />
      <stop offset="1" stop-color="#D5D5CF" />
    </linearGradient>
    <filter id="artShadow" x="-10%" y="-10%" width="120%" height="120%">
      <feDropShadow dx="0" dy="20" stdDeviation="24" flood-color="#000000" flood-opacity="0.24" />
    </filter>
  </defs>
  <rect x="0" y="0" width="1500" height="1500" fill="#FFFFFF" />
  <rect x="0" y="0" width="1500" height="1500" fill="url(#frameFace)" />
  <rect x="120" y="120" width="1260" height="1260" fill="#F8F7F3" />
  <rect x="120" y="120" width="1260" height="1260" fill="none" stroke="#000000" stroke-opacity="0.14" stroke-width="10" />
  <rect x="250" y="250" width="1000" height="1000" fill="#FFFFFF" filter="url(#artShadow)" />
  <rect x="250" y="250" width="125" height="125" fill="#6C4E35" />
  <rect x="375" y="250" width="125" height="125" fill="#4F2C26" />
  <rect x="500" y="250" width="125" height="125" fill="#8B605E" />
  <rect x="625" y="250" width="125" height="125" fill="#9C7553" />
  <rect x="750" y="250" width="125" height="125" fill="#C29F8C" />
  <rect x="875" y="250" width="125" height="125" fill="#EED6B9" />
  <rect x="1000" y="250" width="125" height="125" fill="#DBAC4C" />
  <rect x="1125" y="250" width="125" height="125" fill="#AD6D2E" />
  <rect x="250" y="375" width="125" height="125" fill="#4F2C26" />
  <rect x="375" y="375" width="125" height="125" fill="#6A4E4E" />
  <rect x="500" y="375" width="125" height="125" fill="#B5948A" />
  <rect x="625" y="375" width="125" height="125" fill="#B46E54" />
  <rect x="750" y="375" width="125" height="125" fill="#5B3A29" />
  <rect x="875" y="375" width="125" height="125" fill="#D2B4A1" />
  <rect x="1000" y="375" width="125" height="125" fill="#C7B9A7" />
  <rect x="1125" y="375" width="125" height="125" fill="#6C4E35" />
  <rect x="250" y="500" width="125" height="125" fill="#584053" />
  <rect x="375" y="500" width="125" height="125" fill="#3D2824" />
  <rect x="500" y="500" width="125" height="125" fill="#BE9855" />
  <rect x="625" y="500" width="125" height="125" fill="#4F2C26" />
  <rect x="750" y="500" width="125" height="125" fill="#7F5E4C" />
  <rect x="875" y="500" width="125" height="125" fill="#4F2C26" />
  <rect x="1000" y="500" width="125" height="125" fill="#B59C7E" />
  <rect x="1125" y="500" width="125" height="125" fill="#9C7553" />
  <rect x="250" y="625" width="125" height="125" fill="#4F4C52" />
  <rect x="375" y="625" width="125" height="125" fill="#E4B592" />
  <rect x="500" y="625" width="125" height="125" fill="#C7B9A7" />
  <rect x="625" y="625" width="125" height="125" fill="#4B3A25" />
  <rect x="750" y="625" width="125" height="125" fill="#3D2824" />
  <rect x="875" y="625" width="125" height="125" fill="#9A7B57" />
  <rect x="1000" y="625" width="125" height="125" fill="#8D4C37" />
  <rect x="1125" y="625" width="125" height="125" fill="#8C5E4D" />
  <rect x="250" y="750" width="125" height="125" fill="#A35B4B" />
  <rect x="375" y="750" width="125" height="125" fill="#4B2D1F" />
  <rect x="500" y="750" width="125" height="125" fill="#E4B592" />
  <rect x="625" y="750" width="125" height="125" fill="#C29F8C" />
  <rect x="750" y="750" width="125" height="125" fill="#AD6D2E" />
  <rect x="875" y="750" width="125" height="125" fill="#4F2C26" />
  <rect x="1000" y="750" width="125" height="125" fill="#D2B4A1" />
  <rect x="1125" y="750" width="125" height="125" fill="#6C4E35" />
  <rect x="250" y="875" width="125" height="125" fill="#6C4E35" />
  <rect x="375" y="875" width="125" height="125" fill="#8B605E" />
  <rect x="500" y="875" width="125" height="125" fill="#5B3A29" />
  <rect x="625" y="875" width="125" height="125" fill="#4F4C52" />
  <rect x="750" y="875" width="125" height="125" fill="#4F2C26" />
  <rect x="875" y="875" width="125" height="125" fill="#C7B9A7" />
  <rect x="1000" y="875" width="125" height="125" fill="#D2B4A1" />
  <rect x="1125" y="875" width="125" height="125" fill="#9C7553" />
  <rect x="250" y="1000" width="125" height="125" fill="#8C5E4D" />
  <rect x="375" y="1000" width="125" height="125" fill="#6C4E35" />
  <rect x="500" y="1000" width="125" height="125" fill="#D2A469" />
  <rect x="625" y="1000" width="125" height="125" fill="#9C7553" />
  <rect x="750" y="1000" width="125" height="125" fill="#9A7B57" />
  <rect x="875" y="1000" width="125" height="125" fill="#4F2C26" />
  <rect x="1000" y="1000" width="125" height="125" fill="#4B3A25" />
  <rect x="1125" y="1000" width="125" height="125" fill="#8B605E" />
  <rect x="250" y="1125" width="125" height="125" fill="#4F2C26" />
  <rect x="375" y="1125" width="125" height="125" fill="#9C7553" />
  <rect x="500" y="1125" width="125" height="125" fill="#4B2321" />
  <rect x="625" y="1125" width="125" height="125" fill="#584053" />
  <rect x="750" y="1125" width="125" height="125" fill="#8B605E" />
  <rect x="875" y="1125" width="125" height="125" fill="#5B3A29" />
  <rect x="1000" y="1125" width="125" height="125" fill="#E4B592" />
  <rect x="1125" y="1125" width="125" height="125" fill="#DBAC4C" />
  <rect x="250" y="250" width="1000" height="1000" fill="none" stroke="#151515" stroke-opacity="0.16" stroke-width="2" />
</svg>
