<svg xmlns="http://www.w3.org/2000/svg" width="1500" height="1500" viewBox="0 0 1500 1500" shape-rendering="crispEdges" role="img" aria-labelledby="title desc">
  <title id="title">Light vs. Weight in Natural frame</title>
  <desc id="desc">Square Project artwork previewed in a natural frame.</desc>
  <rect x="0" y="0" width="1500" height="1500" fill="#FFFFFF" />
  <image href="https://mysquareart.com/frames/natural.jpg" x="0" y="0" width="1500" height="1500" preserveAspectRatio="xMidYMid meet" />
  <rect x="250" y="250" width="1000" height="1000" fill="#FFFFFF" />
  <rect x="250" y="250" width="125" height="125" fill="#4A0049" />
  <rect x="375" y="250" width="125" height="125" fill="#B00027" />
  <rect x="500" y="250" width="125" height="125" fill="#4F1A29" />
  <rect x="625" y="250" width="125" height="125" fill="#C45D68" />
  <rect x="750" y="250" width="125" height="125" fill="#A69E97" />
  <rect x="875" y="250" width="125" height="125" fill="#500C14" />
  <rect x="1000" y="250" width="125" height="125" fill="#7E1B26" />
  <rect x="1125" y="250" width="125" height="125" fill="#280A1B" />
  <rect x="250" y="375" width="125" height="125" fill="#8F5962" />
  <rect x="375" y="375" width="125" height="125" fill="#5A003A" />
  <rect x="500" y="375" width="125" height="125" fill="#E74C3C" />
  <rect x="625" y="375" width="125" height="125" fill="#F5E1B5" />
  <rect x="750" y="375" width="125" height="125" fill="#720404" />
  <rect x="875" y="375" width="125" height="125" fill="#910F38" />
  <rect x="1000" y="375" width="125" height="125" fill="#290C0D" />
  <rect x="1125" y="375" width="125" height="125" fill="#733A5D" />
  <rect x="250" y="500" width="125" height="125" fill="#E8B7D6" />
  <rect x="375" y="500" width="125" height="125" fill="#D3D0D4" />
  <rect x="500" y="500" width="125" height="125" fill="#260A0A" />
  <rect x="625" y="500" width="125" height="125" fill="#B55786" />
  <rect x="750" y="500" width="125" height="125" fill="#A32C36" />
  <rect x="875" y="500" width="125" height="125" fill="#5C0031" />
  <rect x="1000" y="500" width="125" height="125" fill="#800D1B" />
  <rect x="1125" y="500" width="125" height="125" fill="#5A7D8B" />
  <rect x="250" y="625" width="125" height="125" fill="#D6A8B5" />
  <rect x="375" y="625" width="125" height="125" fill="#EBB4D3" />
  <rect x="500" y="625" width="125" height="125" fill="#4C0032" />
  <rect x="625" y="625" width="125" height="125" fill="#220084" />
  <rect x="750" y="625" width="125" height="125" fill="#4A0F8E" />
  <rect x="875" y="625" width="125" height="125" fill="#A0848D" />
  <rect x="1000" y="625" width="125" height="125" fill="#8F080C" />
  <rect x="1125" y="625" width="125" height="125" fill="#D1D3E0" />
  <rect x="250" y="750" width="125" height="125" fill="#F9F2EA" />
  <rect x="375" y="750" width="125" height="125" fill="#DBD5D4" />
  <rect x="500" y="750" width="125" height="125" fill="#7E394B" />
  <rect x="625" y="750" width="125" height="125" fill="#B73D3E" />
  <rect x="750" y="750" width="125" height="125" fill="#A22832" />
  <rect x="875" y="750" width="125" height="125" fill="#8D8F91" />
  <rect x="1000" y="750" width="125" height="125" fill="#C3B6B3" />
  <rect x="1125" y="750" width="125" height="125" fill="#620E24" />
  <rect x="250" y="875" width="125" height="125" fill="#811258" />
  <rect x="375" y="875" width="125" height="125" fill="#5A6C82" />
  <rect x="500" y="875" width="125" height="125" fill="#A06571" />
  <rect x="625" y="875" width="125" height="125" fill="#3093A5" />
  <rect x="750" y="875" width="125" height="125" fill="#5E4D66" />
  <rect x="875" y="875" width="125" height="125" fill="#7F2676" />
  <rect x="1000" y="875" width="125" height="125" fill="#F4C8B7" />
  <rect x="1125" y="875" width="125" height="125" fill="#45357B" />
  <rect x="250" y="1000" width="125" height="125" fill="#C8A1B8" />
  <rect x="375" y="1000" width="125" height="125" fill="#3C191D" />
  <rect x="500" y="1000" width="125" height="125" fill="#D1C2C4" />
  <rect x="625" y="1000" width="125" height="125" fill="#683D43" />
  <rect x="750" y="1000" width="125" height="125" fill="#DE6B69" />
  <rect x="875" y="1000" width="125" height="125" fill="#AA80B6" />
  <rect x="1000" y="1000" width="125" height="125" fill="#60AD8C" />
  <rect x="1125" y="1000" width="125" height="125" fill="#234F76" />
  <rect x="250" y="1125" width="125" height="125" fill="#F2A2A9" />
  <rect x="375" y="1125" width="125" height="125" fill="#D9C9BA" />
  <rect x="500" y="1125" width="125" height="125" fill="#E6BEC4" />
  <rect x="625" y="1125" width="125" height="125" fill="#148F69" />
  <rect x="750" y="1125" width="125" height="125" fill="#D8A1B5" />
  <rect x="875" y="1125" width="125" height="125" fill="#692F47" />
  <rect x="1000" y="1125" width="125" height="125" fill="#838688" />
  <rect x="1125" y="1125" width="125" height="125" fill="#101010" />
  <rect x="250" y="250" width="1000" height="1000" fill="none" stroke="#151515" stroke-opacity="0.16" stroke-width="2" />
</svg>
