<svg xmlns="http://www.w3.org/2000/svg" width="1500" height="1500" viewBox="0 0 1500 1500" shape-rendering="crispEdges" role="img" aria-labelledby="title desc">
  <title id="title">Fragmented Resilience in Gold frame</title>
  <desc id="desc">Square Project artwork previewed in a gold frame.</desc>
  <defs>
    <linearGradient id="frameFace" x1="0" y1="0" x2="1" y2="1">
      <stop offset="0" stop-color="#FFF0A3" />
      <stop offset="0.32" stop-color="#F1D676" />
      <stop offset="0.68" stop-color="#CBA642" />
      <stop offset="1" stop-color="#8B6A1D" />
    </linearGradient>
    <filter id="artShadow" x="-10%" y="-10%" width="120%" height="120%">
      <feDropShadow dx="0" dy="20" stdDeviation="24" flood-color="#000000" flood-opacity="0.24" />
    </filter>
  </defs>
  <rect x="0" y="0" width="1500" height="1500" fill="#FFFFFF" />
  <rect x="0" y="0" width="1500" height="1500" fill="url(#frameFace)" />
  <rect x="120" y="120" width="1260" height="1260" fill="#F8F7F3" />
  <rect x="120" y="120" width="1260" height="1260" fill="none" stroke="#000000" stroke-opacity="0.14" stroke-width="10" />
  <rect x="250" y="250" width="1000" height="1000" fill="#FFFFFF" filter="url(#artShadow)" />
  <rect x="250" y="250" width="125" height="125" fill="#A89C8D" />
  <rect x="375" y="250" width="125" height="125" fill="#E1D6B9" />
  <rect x="500" y="250" width="125" height="125" fill="#D5C5C1" />
  <rect x="625" y="250" width="125" height="125" fill="#D0C8C0" />
  <rect x="750" y="250" width="125" height="125" fill="#C4A39B" />
  <rect x="875" y="250" width="125" height="125" fill="#C1B8A5" />
  <rect x="1000" y="250" width="125" height="125" fill="#D6C8B4" />
  <rect x="1125" y="250" width="125" height="125" fill="#CCC6B7" />
  <rect x="250" y="375" width="125" height="125" fill="#A1B8D0" />
  <rect x="375" y="375" width="125" height="125" fill="#B7D1E0" />
  <rect x="500" y="375" width="125" height="125" fill="#ABC0D4" />
  <rect x="625" y="375" width="125" height="125" fill="#F0F0F0" />
  <rect x="750" y="375" width="125" height="125" fill="#D7D7D7" />
  <rect x="875" y="375" width="125" height="125" fill="#BCBCBC" />
  <rect x="1000" y="375" width="125" height="125" fill="#929292" />
  <rect x="1125" y="375" width="125" height="125" fill="#777777" />
  <rect x="250" y="500" width="125" height="125" fill="#797F84" />
  <rect x="375" y="500" width="125" height="125" fill="#5F6471" />
  <rect x="500" y="500" width="125" height="125" fill="#6A6E78" />
  <rect x="625" y="500" width="125" height="125" fill="#40454A" />
  <rect x="750" y="500" width="125" height="125" fill="#2D313A" />
  <rect x="875" y="500" width="125" height="125" fill="#31363D" />
  <rect x="1000" y="500" width="125" height="125" fill="#1E2529" />
  <rect x="1125" y="500" width="125" height="125" fill="#11171C" />
  <rect x="250" y="625" width="125" height="125" fill="#594742" />
  <rect x="375" y="625" width="125" height="125" fill="#D0C7C0" />
  <rect x="500" y="625" width="125" height="125" fill="#E1D7C4" />
  <rect x="625" y="625" width="125" height="125" fill="#E1D6B9" />
  <rect x="750" y="625" width="125" height="125" fill="#BF86B1" />
  <rect x="875" y="625" width="125" height="125" fill="#F4F0DC" />
  <rect x="1000" y="625" width="125" height="125" fill="#F8F7EB" />
  <rect x="1125" y="625" width="125" height="125" fill="#FFFAF5" />
  <rect x="250" y="750" width="125" height="125" fill="#8E7C5A" />
  <rect x="375" y="750" width="125" height="125" fill="#9F9269" />
  <rect x="500" y="750" width="125" height="125" fill="#AB5B59" />
  <rect x="625" y="750" width="125" height="125" fill="#FFCC7A" />
  <rect x="750" y="750" width="125" height="125" fill="#E9BF78" />
  <rect x="875" y="750" width="125" height="125" fill="#C9B98E" />
  <rect x="1000" y="750" width="125" height="125" fill="#ABC0D4" />
  <rect x="1125" y="750" width="125" height="125" fill="#D5D0CF" />
  <rect x="250" y="875" width="125" height="125" fill="#7F6C57" />
  <rect x="375" y="875" width="125" height="125" fill="#9A875D" />
  <rect x="500" y="875" width="125" height="125" fill="#695848" />
  <rect x="625" y="875" width="125" height="125" fill="#4E4C4E" />
  <rect x="750" y="875" width="125" height="125" fill="#646063" />
  <rect x="875" y="875" width="125" height="125" fill="#383D3F" />
  <rect x="1000" y="875" width="125" height="125" fill="#1C1F23" />
  <rect x="1125" y="875" width="125" height="125" fill="#4F545C" />
  <rect x="250" y="1000" width="125" height="125" fill="#8C8A78" />
  <rect x="375" y="1000" width="125" height="125" fill="#868C89" />
  <rect x="500" y="1000" width="125" height="125" fill="#AD7F85" />
  <rect x="625" y="1000" width="125" height="125" fill="#925F62" />
  <rect x="750" y="1000" width="125" height="125" fill="#AA8377" />
  <rect x="875" y="1000" width="125" height="125" fill="#B49F88" />
  <rect x="1000" y="1000" width="125" height="125" fill="#B8B2A8" />
  <rect x="1125" y="1000" width="125" height="125" fill="#D3E5E1" />
  <rect x="250" y="1125" width="125" height="125" fill="#F0F2E6" />
  <rect x="375" y="1125" width="125" height="125" fill="#EDEBEF" />
  <rect x="500" y="1125" width="125" height="125" fill="#D8D4D2" />
  <rect x="625" y="1125" width="125" height="125" fill="#BCADA9" />
  <rect x="750" y="1125" width="125" height="125" fill="#E7E0DB" />
  <rect x="875" y="1125" width="125" height="125" fill="#E2DFD8" />
  <rect x="1000" y="1125" width="125" height="125" fill="#EFEFEE" />
  <rect x="1125" y="1125" width="125" height="125" fill="#FFFFFF" />
  <rect x="250" y="250" width="1000" height="1000" fill="none" stroke="#151515" stroke-opacity="0.16" stroke-width="2" />
</svg>
