<svg xmlns="http://www.w3.org/2000/svg" width="1500" height="1500" viewBox="0 0 1500 1500" shape-rendering="crispEdges" role="img" aria-labelledby="title desc">
  <title id="title">Order and Chaos in White frame</title>
  <desc id="desc">Square Project artwork previewed in a white frame.</desc>
  <defs>
    <linearGradient id="frameFace" x1="0" y1="0" x2="1" y2="1">
      <stop offset="0" stop-color="#BEBEB8" />
      <stop offset="0.32" stop-color="#FFFFFF" />
      <stop offset="0.68" stop-color="#F8F8F5" />
      <stop offset="1" stop-color="#D5D5CF" />
    </linearGradient>
    <filter id="artShadow" x="-10%" y="-10%" width="120%" height="120%">
      <feDropShadow dx="0" dy="20" stdDeviation="24" flood-color="#000000" flood-opacity="0.24" />
    </filter>
  </defs>
  <rect x="0" y="0" width="1500" height="1500" fill="#FFFFFF" />
  <rect x="0" y="0" width="1500" height="1500" fill="url(#frameFace)" />
  <rect x="120" y="120" width="1260" height="1260" fill="#F8F7F3" />
  <rect x="120" y="120" width="1260" height="1260" fill="none" stroke="#000000" stroke-opacity="0.14" stroke-width="10" />
  <rect x="250" y="250" width="1000" height="1000" fill="#FFFFFF" filter="url(#artShadow)" />
  <rect x="250" y="250" width="125" height="125" fill="#A7E3E1" />
  <rect x="375" y="250" width="125" height="125" fill="#B3D8D5" />
  <rect x="500" y="250" width="125" height="125" fill="#C3CFCF" />
  <rect x="625" y="250" width="125" height="125" fill="#F95C7D" />
  <rect x="750" y="250" width="125" height="125" fill="#F55F70" />
  <rect x="875" y="250" width="125" height="125" fill="#E0A1A7" />
  <rect x="1000" y="250" width="125" height="125" fill="#D5D5D5" />
  <rect x="1125" y="250" width="125" height="125" fill="#FFFFFF" />
  <rect x="250" y="375" width="125" height="125" fill="#C6E7E6" />
  <rect x="375" y="375" width="125" height="125" fill="#A3CED2" />
  <rect x="500" y="375" width="125" height="125" fill="#E8E5E5" />
  <rect x="625" y="375" width="125" height="125" fill="#EBB5B7" />
  <rect x="750" y="375" width="125" height="125" fill="#D56C77" />
  <rect x="875" y="375" width="125" height="125" fill="#C1B7B9" />
  <rect x="1000" y="375" width="125" height="125" fill="#E9E9E9" />
  <rect x="1125" y="375" width="125" height="125" fill="#F9F9F9" />
  <rect x="250" y="500" width="125" height="125" fill="#89C4C5" />
  <rect x="375" y="500" width="125" height="125" fill="#76B5B5" />
  <rect x="500" y="500" width="125" height="125" fill="#B7B0B0" />
  <rect x="625" y="500" width="125" height="125" fill="#D6C7C7" />
  <rect x="750" y="500" width="125" height="125" fill="#D98B91" />
  <rect x="875" y="500" width="125" height="125" fill="#E4C8CB" />
  <rect x="1000" y="500" width="125" height="125" fill="#C5C5C5" />
  <rect x="1125" y="500" width="125" height="125" fill="#F4F4F4" />
  <rect x="250" y="625" width="125" height="125" fill="#7FAF98" />
  <rect x="375" y="625" width="125" height="125" fill="#90B1B0" />
  <rect x="500" y="625" width="125" height="125" fill="#EAEAEA" />
  <rect x="625" y="625" width="125" height="125" fill="#F6AAB1" />
  <rect x="750" y="625" width="125" height="125" fill="#FD6B70" />
  <rect x="875" y="625" width="125" height="125" fill="#D1C4C5" />
  <rect x="1000" y="625" width="125" height="125" fill="#B0B0B0" />
  <rect x="1125" y="625" width="125" height="125" fill="#F9F9F9" />
  <rect x="250" y="750" width="125" height="125" fill="#64B7B7" />
  <rect x="375" y="750" width="125" height="125" fill="#8CC8C7" />
  <rect x="500" y="750" width="125" height="125" fill="#E6E6E6" />
  <rect x="625" y="750" width="125" height="125" fill="#EBB9C1" />
  <rect x="750" y="750" width="125" height="125" fill="#F87B8E" />
  <rect x="875" y="750" width="125" height="125" fill="#D8D8D8" />
  <rect x="1000" y="750" width="125" height="125" fill="#B9B9B9" />
  <rect x="1125" y="750" width="125" height="125" fill="#FFFFFF" />
  <rect x="250" y="875" width="125" height="125" fill="#95D1D3" />
  <rect x="375" y="875" width="125" height="125" fill="#AAD8D6" />
  <rect x="500" y="875" width="125" height="125" fill="#E1E1E1" />
  <rect x="625" y="875" width="125" height="125" fill="#F4ACBB" />
  <rect x="750" y="875" width="125" height="125" fill="#F25C78" />
  <rect x="875" y="875" width="125" height="125" fill="#D0D0D0" />
  <rect x="1000" y="875" width="125" height="125" fill="#C6C6C6" />
  <rect x="1125" y="875" width="125" height="125" fill="#F0F0F0" />
  <rect x="250" y="1000" width="125" height="125" fill="#5BB4B8" />
  <rect x="375" y="1000" width="125" height="125" fill="#9DD3D5" />
  <rect x="500" y="1000" width="125" height="125" fill="#EAEAEA" />
  <rect x="625" y="1000" width="125" height="125" fill="#EBB9C5" />
  <rect x="750" y="1000" width="125" height="125" fill="#F57B8F" />
  <rect x="875" y="1000" width="125" height="125" fill="#D4C8C8" />
  <rect x="1000" y="1000" width="125" height="125" fill="#D0D0D0" />
  <rect x="1125" y="1000" width="125" height="125" fill="#F5F5F5" />
  <rect x="250" y="1125" width="125" height="125" fill="#768F9E" />
  <rect x="375" y="1125" width="125" height="125" fill="#C4DBDB" />
  <rect x="500" y="1125" width="125" height="125" fill="#E8E8E8" />
  <rect x="625" y="1125" width="125" height="125" fill="#F8BAC3" />
  <rect x="750" y="1125" width="125" height="125" fill="#F0A8B2" />
  <rect x="875" y="1125" width="125" height="125" fill="#DDDDDD" />
  <rect x="1000" y="1125" width="125" height="125" fill="#C1C1C1" />
  <rect x="1125" y="1125" width="125" height="125" fill="#FFFFFF" />
  <rect x="250" y="250" width="1000" height="1000" fill="none" stroke="#151515" stroke-opacity="0.16" stroke-width="2" />
</svg>
