<svg xmlns="http://www.w3.org/2000/svg" width="1500" height="1500" viewBox="0 0 1500 1500" shape-rendering="crispEdges" role="img" aria-labelledby="title desc">
  <title id="title">Center of Tension in White frame</title>
  <desc id="desc">Square Project artwork previewed in a white frame.</desc>
  <defs>
    <linearGradient id="frameFace" x1="0" y1="0" x2="1" y2="1">
      <stop offset="0" stop-color="#BEBEB8" />
      <stop offset="0.32" stop-color="#FFFFFF" />
      <stop offset="0.68" stop-color="#F8F8F5" />
      <stop offset="1" stop-color="#D5D5CF" />
    </linearGradient>
    <filter id="artShadow" x="-10%" y="-10%" width="120%" height="120%">
      <feDropShadow dx="0" dy="20" stdDeviation="24" flood-color="#000000" flood-opacity="0.24" />
    </filter>
  </defs>
  <rect x="0" y="0" width="1500" height="1500" fill="#FFFFFF" />
  <rect x="0" y="0" width="1500" height="1500" fill="url(#frameFace)" />
  <rect x="120" y="120" width="1260" height="1260" fill="#F8F7F3" />
  <rect x="120" y="120" width="1260" height="1260" fill="none" stroke="#000000" stroke-opacity="0.14" stroke-width="10" />
  <rect x="250" y="250" width="1000" height="1000" fill="#FFFFFF" filter="url(#artShadow)" />
  <rect x="250" y="250" width="125" height="125" fill="#000000" />
  <rect x="375" y="250" width="125" height="125" fill="#2E004F" />
  <rect x="500" y="250" width="125" height="125" fill="#4B2D69" />
  <rect x="625" y="250" width="125" height="125" fill="#F0C02A" />
  <rect x="750" y="250" width="125" height="125" fill="#F8E5B1" />
  <rect x="875" y="250" width="125" height="125" fill="#A1783C" />
  <rect x="1000" y="250" width="125" height="125" fill="#957B3A" />
  <rect x="1125" y="250" width="125" height="125" fill="#7A9A34" />
  <rect x="250" y="375" width="125" height="125" fill="#141414" />
  <rect x="375" y="375" width="125" height="125" fill="#2A0C54" />
  <rect x="500" y="375" width="125" height="125" fill="#AB6C30" />
  <rect x="625" y="375" width="125" height="125" fill="#F0D0B4" />
  <rect x="750" y="375" width="125" height="125" fill="#F8D7A8" />
  <rect x="875" y="375" width="125" height="125" fill="#B0B25F" />
  <rect x="1000" y="375" width="125" height="125" fill="#D2D63B" />
  <rect x="1125" y="375" width="125" height="125" fill="#A5803A" />
  <rect x="250" y="500" width="125" height="125" fill="#292929" />
  <rect x="375" y="500" width="125" height="125" fill="#342D61" />
  <rect x="500" y="500" width="125" height="125" fill="#DA9F3B" />
  <rect x="625" y="500" width="125" height="125" fill="#F1CE7B" />
  <rect x="750" y="500" width="125" height="125" fill="#E3E98A" />
  <rect x="875" y="500" width="125" height="125" fill="#DAE95C" />
  <rect x="1000" y="500" width="125" height="125" fill="#B1B25D" />
  <rect x="1125" y="500" width="125" height="125" fill="#825B3F" />
  <rect x="250" y="625" width="125" height="125" fill="#3B3B3B" />
  <rect x="375" y="625" width="125" height="125" fill="#513B77" />
  <rect x="500" y="625" width="125" height="125" fill="#EFA50F" />
  <rect x="625" y="625" width="125" height="125" fill="#F8E6C4" />
  <rect x="750" y="625" width="125" height="125" fill="#D6D1A1" />
  <rect x="875" y="625" width="125" height="125" fill="#A6C09F" />
  <rect x="1000" y="625" width="125" height="125" fill="#B5C537" />
  <rect x="1125" y="625" width="125" height="125" fill="#8D7D58" />
  <rect x="250" y="750" width="125" height="125" fill="#4A4A4A" />
  <rect x="375" y="750" width="125" height="125" fill="#6F527D" />
  <rect x="500" y="750" width="125" height="125" fill="#E5B911" />
  <rect x="625" y="750" width="125" height="125" fill="#F3E7D6" />
  <rect x="750" y="750" width="125" height="125" fill="#D1D9B9" />
  <rect x="875" y="750" width="125" height="125" fill="#A3C74A" />
  <rect x="1000" y="750" width="125" height="125" fill="#B8C47C" />
  <rect x="1125" y="750" width="125" height="125" fill="#9F8E5E" />
  <rect x="250" y="875" width="125" height="125" fill="#606060" />
  <rect x="375" y="875" width="125" height="125" fill="#8C638D" />
  <rect x="500" y="875" width="125" height="125" fill="#D6B005" />
  <rect x="625" y="875" width="125" height="125" fill="#F5E6C3" />
  <rect x="750" y="875" width="125" height="125" fill="#C6DBA3" />
  <rect x="875" y="875" width="125" height="125" fill="#A6C9A1" />
  <rect x="1000" y="875" width="125" height="125" fill="#A9B16B" />
  <rect x="1125" y="875" width="125" height="125" fill="#C4C373" />
  <rect x="250" y="1000" width="125" height="125" fill="#717171" />
  <rect x="375" y="1000" width="125" height="125" fill="#9FA7A8" />
  <rect x="500" y="1000" width="125" height="125" fill="#C9C50C" />
  <rect x="625" y="1000" width="125" height="125" fill="#EBE5A5" />
  <rect x="750" y="1000" width="125" height="125" fill="#B1BBA0" />
  <rect x="875" y="1000" width="125" height="125" fill="#B8C1B7" />
  <rect x="1000" y="1000" width="125" height="125" fill="#BAC8B9" />
  <rect x="1125" y="1000" width="125" height="125" fill="#B7C1B8" />
  <rect x="250" y="1125" width="125" height="125" fill="#7C7C7C" />
  <rect x="375" y="1125" width="125" height="125" fill="#B7B99F" />
  <rect x="500" y="1125" width="125" height="125" fill="#C8DB0E" />
  <rect x="625" y="1125" width="125" height="125" fill="#E4902B" />
  <rect x="750" y="1125" width="125" height="125" fill="#B1C6A5" />
  <rect x="875" y="1125" width="125" height="125" fill="#A4B3C2" />
  <rect x="1000" y="1125" width="125" height="125" fill="#CCBFAF" />
  <rect x="1125" y="1125" width="125" height="125" fill="#D0EBD2" />
  <rect x="250" y="250" width="1000" height="1000" fill="none" stroke="#151515" stroke-opacity="0.16" stroke-width="2" />
</svg>
