<svg xmlns="http://www.w3.org/2000/svg" width="1500" height="1500" viewBox="0 0 1500 1500" shape-rendering="crispEdges" role="img" aria-labelledby="title desc">
  <title id="title">Echoes of Dread and Curiosity in Gold frame</title>
  <desc id="desc">Square Project artwork previewed in a gold frame.</desc>
  <defs>
    <linearGradient id="frameFace" x1="0" y1="0" x2="1" y2="1">
      <stop offset="0" stop-color="#FFF0A3" />
      <stop offset="0.32" stop-color="#F1D676" />
      <stop offset="0.68" stop-color="#CBA642" />
      <stop offset="1" stop-color="#8B6A1D" />
    </linearGradient>
    <filter id="artShadow" x="-10%" y="-10%" width="120%" height="120%">
      <feDropShadow dx="0" dy="20" stdDeviation="24" flood-color="#000000" flood-opacity="0.24" />
    </filter>
  </defs>
  <rect x="0" y="0" width="1500" height="1500" fill="#FFFFFF" />
  <rect x="0" y="0" width="1500" height="1500" fill="url(#frameFace)" />
  <rect x="120" y="120" width="1260" height="1260" fill="#F8F7F3" />
  <rect x="120" y="120" width="1260" height="1260" fill="none" stroke="#000000" stroke-opacity="0.14" stroke-width="10" />
  <rect x="250" y="250" width="1000" height="1000" fill="#FFFFFF" filter="url(#artShadow)" />
  <rect x="250" y="250" width="125" height="125" fill="#F8F8F8" />
  <rect x="375" y="250" width="125" height="125" fill="#E0E0E0" />
  <rect x="500" y="250" width="125" height="125" fill="#D3D3D3" />
  <rect x="625" y="250" width="125" height="125" fill="#283149" />
  <rect x="750" y="250" width="125" height="125" fill="#303846" />
  <rect x="875" y="250" width="125" height="125" fill="#4E4B57" />
  <rect x="1000" y="250" width="125" height="125" fill="#7E7C82" />
  <rect x="1125" y="250" width="125" height="125" fill="#B8326C" />
  <rect x="250" y="375" width="125" height="125" fill="#FFFFFF" />
  <rect x="375" y="375" width="125" height="125" fill="#E9E9E9" />
  <rect x="500" y="375" width="125" height="125" fill="#BBBBBB" />
  <rect x="625" y="375" width="125" height="125" fill="#1D2550" />
  <rect x="750" y="375" width="125" height="125" fill="#283149" />
  <rect x="875" y="375" width="125" height="125" fill="#5B270C" />
  <rect x="1000" y="375" width="125" height="125" fill="#E8A100" />
  <rect x="1125" y="375" width="125" height="125" fill="#F8B400" />
  <rect x="250" y="500" width="125" height="125" fill="#F4F4F4" />
  <rect x="375" y="500" width="125" height="125" fill="#CFCFCF" />
  <rect x="500" y="500" width="125" height="125" fill="#E9E9E9" />
  <rect x="625" y="500" width="125" height="125" fill="#323233" />
  <rect x="750" y="500" width="125" height="125" fill="#404E55" />
  <rect x="875" y="500" width="125" height="125" fill="#3F3B4F" />
  <rect x="1000" y="500" width="125" height="125" fill="#A85745" />
  <rect x="1125" y="500" width="125" height="125" fill="#9C252B" />
  <rect x="250" y="625" width="125" height="125" fill="#F2F2F2" />
  <rect x="375" y="625" width="125" height="125" fill="#B2B2B2" />
  <rect x="500" y="625" width="125" height="125" fill="#9F9F9F" />
  <rect x="625" y="625" width="125" height="125" fill="#332E3B" />
  <rect x="750" y="625" width="125" height="125" fill="#6F3C3E" />
  <rect x="875" y="625" width="125" height="125" fill="#DE6B3A" />
  <rect x="1000" y="625" width="125" height="125" fill="#E1AFA2" />
  <rect x="1125" y="625" width="125" height="125" fill="#7B8B70" />
  <rect x="250" y="750" width="125" height="125" fill="#EEEEEE" />
  <rect x="375" y="750" width="125" height="125" fill="#909090" />
  <rect x="500" y="750" width="125" height="125" fill="#777777" />
  <rect x="625" y="750" width="125" height="125" fill="#3A3A5A" />
  <rect x="750" y="750" width="125" height="125" fill="#2D3748" />
  <rect x="875" y="750" width="125" height="125" fill="#884B52" />
  <rect x="1000" y="750" width="125" height="125" fill="#C4624D" />
  <rect x="1125" y="750" width="125" height="125" fill="#EBC4C3" />
  <rect x="250" y="875" width="125" height="125" fill="#FFFFFF" />
  <rect x="375" y="875" width="125" height="125" fill="#F2F2F2" />
  <rect x="500" y="875" width="125" height="125" fill="#F4F4F4" />
  <rect x="625" y="875" width="125" height="125" fill="#232B34" />
  <rect x="750" y="875" width="125" height="125" fill="#3A2F32" />
  <rect x="875" y="875" width="125" height="125" fill="#8D5F62" />
  <rect x="1000" y="875" width="125" height="125" fill="#FF9F4A" />
  <rect x="1125" y="875" width="125" height="125" fill="#FFDD45" />
  <rect x="250" y="1000" width="125" height="125" fill="#E0E0E0" />
  <rect x="375" y="1000" width="125" height="125" fill="#C4C4C4" />
  <rect x="500" y="1000" width="125" height="125" fill="#B2B2B2" />
  <rect x="625" y="1000" width="125" height="125" fill="#3D3F42" />
  <rect x="750" y="1000" width="125" height="125" fill="#5A5B59" />
  <rect x="875" y="1000" width="125" height="125" fill="#4E3D3B" />
  <rect x="1000" y="1000" width="125" height="125" fill="#E79D37" />
  <rect x="1125" y="1000" width="125" height="125" fill="#ED7F1E" />
  <rect x="250" y="1125" width="125" height="125" fill="#FEFEFE" />
  <rect x="375" y="1125" width="125" height="125" fill="#EEEEEE" />
  <rect x="500" y="1125" width="125" height="125" fill="#BFBFBF" />
  <rect x="625" y="1125" width="125" height="125" fill="#1F2024" />
  <rect x="750" y="1125" width="125" height="125" fill="#5B598A" />
  <rect x="875" y="1125" width="125" height="125" fill="#5A3D3B" />
  <rect x="1000" y="1125" width="125" height="125" fill="#E46A2E" />
  <rect x="1125" y="1125" width="125" height="125" fill="#88F7F9" />
  <rect x="250" y="250" width="1000" height="1000" fill="none" stroke="#151515" stroke-opacity="0.16" stroke-width="2" />
</svg>
