<svg xmlns="http://www.w3.org/2000/svg" width="1500" height="1500" viewBox="0 0 1500 1500" shape-rendering="crispEdges" role="img" aria-labelledby="title desc">
  <title id="title">Order vs. Chaos in Natural frame</title>
  <desc id="desc">Square Project artwork previewed in a natural frame.</desc>
  <defs>
    <linearGradient id="frameFace" x1="0" y1="0" x2="1" y2="1">
      <stop offset="0" stop-color="#8F6F35" />
      <stop offset="0.32" stop-color="#F0DDAA" />
      <stop offset="0.68" stop-color="#D8C190" />
      <stop offset="1" stop-color="#B39155" />
    </linearGradient>
    <filter id="artShadow" x="-10%" y="-10%" width="120%" height="120%">
      <feDropShadow dx="0" dy="20" stdDeviation="24" flood-color="#000000" flood-opacity="0.24" />
    </filter>
  </defs>
  <rect x="0" y="0" width="1500" height="1500" fill="#FFFFFF" />
  <rect x="0" y="0" width="1500" height="1500" fill="url(#frameFace)" />
  <rect x="120" y="120" width="1260" height="1260" fill="#F8F7F3" />
  <rect x="120" y="120" width="1260" height="1260" fill="none" stroke="#000000" stroke-opacity="0.14" stroke-width="10" />
  <rect x="250" y="250" width="1000" height="1000" fill="#FFFFFF" filter="url(#artShadow)" />
  <rect x="250" y="250" width="125" height="125" fill="#2E4A16" />
  <rect x="375" y="250" width="125" height="125" fill="#546C45" />
  <rect x="500" y="250" width="125" height="125" fill="#C1D4B3" />
  <rect x="625" y="250" width="125" height="125" fill="#8DAE8D" />
  <rect x="750" y="250" width="125" height="125" fill="#7E5B49" />
  <rect x="875" y="250" width="125" height="125" fill="#B06952" />
  <rect x="1000" y="250" width="125" height="125" fill="#FFEFD6" />
  <rect x="1125" y="250" width="125" height="125" fill="#FFCFAE" />
  <rect x="250" y="375" width="125" height="125" fill="#5B3F23" />
  <rect x="375" y="375" width="125" height="125" fill="#A26440" />
  <rect x="500" y="375" width="125" height="125" fill="#EEBBAA" />
  <rect x="625" y="375" width="125" height="125" fill="#BFB8A6" />
  <rect x="750" y="375" width="125" height="125" fill="#C3D4D4" />
  <rect x="875" y="375" width="125" height="125" fill="#9FAFB4" />
  <rect x="1000" y="375" width="125" height="125" fill="#4B6E82" />
  <rect x="1125" y="375" width="125" height="125" fill="#2A5D92" />
  <rect x="250" y="500" width="125" height="125" fill="#D9D051" />
  <rect x="375" y="500" width="125" height="125" fill="#FFDE82" />
  <rect x="500" y="500" width="125" height="125" fill="#FFBB7F" />
  <rect x="625" y="500" width="125" height="125" fill="#AFAF9B" />
  <rect x="750" y="500" width="125" height="125" fill="#752C2C" />
  <rect x="875" y="500" width="125" height="125" fill="#C1AC9D" />
  <rect x="1000" y="500" width="125" height="125" fill="#A4A35F" />
  <rect x="1125" y="500" width="125" height="125" fill="#7DCC63" />
  <rect x="250" y="625" width="125" height="125" fill="#003B2D" />
  <rect x="375" y="625" width="125" height="125" fill="#004D5A" />
  <rect x="500" y="625" width="125" height="125" fill="#005B7A" />
  <rect x="625" y="625" width="125" height="125" fill="#002E3D" />
  <rect x="750" y="625" width="125" height="125" fill="#A8C3C5" />
  <rect x="875" y="625" width="125" height="125" fill="#F0E57F" />
  <rect x="1000" y="625" width="125" height="125" fill="#FFA200" />
  <rect x="1125" y="625" width="125" height="125" fill="#FFEB89" />
  <rect x="250" y="750" width="125" height="125" fill="#3B2A26" />
  <rect x="375" y="750" width="125" height="125" fill="#A9675E" />
  <rect x="500" y="750" width="125" height="125" fill="#F6D401" />
  <rect x="625" y="750" width="125" height="125" fill="#FFC8A3" />
  <rect x="750" y="750" width="125" height="125" fill="#F57D6F" />
  <rect x="875" y="750" width="125" height="125" fill="#4E445A" />
  <rect x="1000" y="750" width="125" height="125" fill="#A27651" />
  <rect x="1125" y="750" width="125" height="125" fill="#B4BF82" />
  <rect x="250" y="875" width="125" height="125" fill="#D7A25A" />
  <rect x="375" y="875" width="125" height="125" fill="#6D3A3E" />
  <rect x="500" y="875" width="125" height="125" fill="#F1C2A8" />
  <rect x="625" y="875" width="125" height="125" fill="#BCC6A0" />
  <rect x="750" y="875" width="125" height="125" fill="#784B3A" />
  <rect x="875" y="875" width="125" height="125" fill="#E2E5E9" />
  <rect x="1000" y="875" width="125" height="125" fill="#C1D0E1" />
  <rect x="1125" y="875" width="125" height="125" fill="#899C8F" />
  <rect x="250" y="1000" width="125" height="125" fill="#E5E0E2" />
  <rect x="375" y="1000" width="125" height="125" fill="#A68C64" />
  <rect x="500" y="1000" width="125" height="125" fill="#7A6C53" />
  <rect x="625" y="1000" width="125" height="125" fill="#C59F8B" />
  <rect x="750" y="1000" width="125" height="125" fill="#434E48" />
  <rect x="875" y="1000" width="125" height="125" fill="#4A3B36" />
  <rect x="1000" y="1000" width="125" height="125" fill="#D3C4D8" />
  <rect x="1125" y="1000" width="125" height="125" fill="#DAEDD1" />
  <rect x="250" y="1125" width="125" height="125" fill="#0F2234" />
  <rect x="375" y="1125" width="125" height="125" fill="#F0F1E2" />
  <rect x="500" y="1125" width="125" height="125" fill="#720E12" />
  <rect x="625" y="1125" width="125" height="125" fill="#395B7D" />
  <rect x="750" y="1125" width="125" height="125" fill="#5F7F80" />
  <rect x="875" y="1125" width="125" height="125" fill="#C4AD8D" />
  <rect x="1000" y="1125" width="125" height="125" fill="#BBCC96" />
  <rect x="1125" y="1125" width="125" height="125" fill="#FFE1A8" />
  <rect x="250" y="250" width="1000" height="1000" fill="none" stroke="#151515" stroke-opacity="0.16" stroke-width="2" />
</svg>
