<svg xmlns="http://www.w3.org/2000/svg" width="256" height="256" viewBox="0 0 256 256" shape-rendering="crispEdges" role="img" aria-labelledby="title desc">
  <title id="title">Emotional Collision</title>
  <desc id="desc">This composition explores the tension between rage and calm through the use of a contrasting palette of hot reds and cool pale blues. The main collision is positioned centrally, where sharp red lines ('echo' pattern) jolt against a tranquil blue background ('ash_field' pattern), illustrating the struggle between eruptive energy and serene containment. The use of broken pixels introduces disruptions, reflecting the imperfections in emotional balance. Overall, the layout features a mirrored structure with intentional mismatches, representing the dichotomy of feelings while maintaining abstract purity.</desc>
  <rect width="256" height="256" fill="#FFFFFF" />
  <rect x="0" y="0" width="32" height="32" fill="#000000" />
  <rect x="32" y="0" width="32" height="32" fill="#FF0000" />
  <rect x="64" y="0" width="32" height="32" fill="#FF6666" />
  <rect x="96" y="0" width="32" height="32" fill="#FFCCCB" />
  <rect x="128" y="0" width="32" height="32" fill="#FFFFFF" />
  <rect x="160" y="0" width="32" height="32" fill="#BFD3C1" />
  <rect x="192" y="0" width="32" height="32" fill="#A3B4D6" />
  <rect x="224" y="0" width="32" height="32" fill="#0000FF" />
  <rect x="0" y="32" width="32" height="32" fill="#FF3333" />
  <rect x="32" y="32" width="32" height="32" fill="#FF9999" />
  <rect x="64" y="32" width="32" height="32" fill="#FFFFFF" />
  <rect x="96" y="32" width="32" height="32" fill="#C3D8E7" />
  <rect x="128" y="32" width="32" height="32" fill="#DDDDDD" />
  <rect x="160" y="32" width="32" height="32" fill="#B0C4DE" />
  <rect x="192" y="32" width="32" height="32" fill="#A0A0A0" />
  <rect x="224" y="32" width="32" height="32" fill="#001F3F" />
  <rect x="0" y="64" width="32" height="32" fill="#FF0000" />
  <rect x="32" y="64" width="32" height="32" fill="#FFFFFF" />
  <rect x="64" y="64" width="32" height="32" fill="#BFD3C1" />
  <rect x="96" y="64" width="32" height="32" fill="#AAE1FF" />
  <rect x="128" y="64" width="32" height="32" fill="#FFFFFF" />
  <rect x="160" y="64" width="32" height="32" fill="#B3C7DB" />
  <rect x="192" y="64" width="32" height="32" fill="#444444" />
  <rect x="224" y="64" width="32" height="32" fill="#FF6666" />
  <rect x="0" y="96" width="32" height="32" fill="#FF9999" />
  <rect x="32" y="96" width="32" height="32" fill="#CCCCCC" />
  <rect x="64" y="96" width="32" height="32" fill="#F0F8FF" />
  <rect x="96" y="96" width="32" height="32" fill="#FFFFFF" />
  <rect x="128" y="96" width="32" height="32" fill="#BFD3C1" />
  <rect x="160" y="96" width="32" height="32" fill="#AAE1FF" />
  <rect x="192" y="96" width="32" height="32" fill="#000000" />
  <rect x="224" y="96" width="32" height="32" fill="#FF3333" />
  <rect x="0" y="128" width="32" height="32" fill="#FFFFFF" />
  <rect x="32" y="128" width="32" height="32" fill="#B3C7DB" />
  <rect x="64" y="128" width="32" height="32" fill="#FFFFFF" />
  <rect x="96" y="128" width="32" height="32" fill="#CCCCCC" />
  <rect x="128" y="128" width="32" height="32" fill="#FFCCCB" />
  <rect x="160" y="128" width="32" height="32" fill="#FF6666" />
  <rect x="192" y="128" width="32" height="32" fill="#FF0000" />
  <rect x="224" y="128" width="32" height="32" fill="#A3B4D6" />
  <rect x="0" y="160" width="32" height="32" fill="#444444" />
  <rect x="32" y="160" width="32" height="32" fill="#FF9999" />
  <rect x="64" y="160" width="32" height="32" fill="#FF0000" />
  <rect x="96" y="160" width="32" height="32" fill="#DDDDDD" />
  <rect x="128" y="160" width="32" height="32" fill="#C3D8E7" />
  <rect x="160" y="160" width="32" height="32" fill="#B0C4DE" />
  <rect x="192" y="160" width="32" height="32" fill="#000000" />
  <rect x="224" y="160" width="32" height="32" fill="#001F3F" />
  <rect x="0" y="192" width="32" height="32" fill="#FFCCCB" />
  <rect x="32" y="192" width="32" height="32" fill="#FF6666" />
  <rect x="64" y="192" width="32" height="32" fill="#FFFFFF" />
  <rect x="96" y="192" width="32" height="32" fill="#BFD3C1" />
  <rect x="128" y="192" width="32" height="32" fill="#CCCCCC" />
  <rect x="160" y="192" width="32" height="32" fill="#DDDDDD" />
  <rect x="192" y="192" width="32" height="32" fill="#FFFFFF" />
  <rect x="224" y="192" width="32" height="32" fill="#AAE1FF" />
  <rect x="0" y="224" width="32" height="32" fill="#001F3F" />
  <rect x="32" y="224" width="32" height="32" fill="#A3B4D6" />
  <rect x="64" y="224" width="32" height="32" fill="#0000FF" />
  <rect x="96" y="224" width="32" height="32" fill="#FF0000" />
  <rect x="128" y="224" width="32" height="32" fill="#FF9999" />
  <rect x="160" y="224" width="32" height="32" fill="#FF3333" />
  <rect x="192" y="224" width="32" height="32" fill="#FFFFFF" />
  <rect x="224" y="224" width="32" height="32" fill="#B3C7DB" />
</svg>
