<svg xmlns="http://www.w3.org/2000/svg" width="256" height="256" viewBox="0 0 256 256" shape-rendering="crispEdges" role="img" aria-labelledby="title desc">
  <title id="title">Shelter in Exposure</title>
  <desc id="desc">This artwork embodies the tension between vulnerability and strength. The palette combines muted, earthy tones like moss green and stone gray with lighter accents of bone white, suggesting a layer of protection within an exposed environment. The sharp contrast between darker colors representing strength and lighter colors reflecting vulnerability creates a visual collision predominantly in the center, accentuating the theme of shelter amidst exposure. The interplay of 'tide' and 'flood' patterns symbolizes the dynamics between these contrasting emotions. The sparse layout emphasizes negative space, drawing focus to the core tension while maintaining a balance between chaos and calm.</desc>
  <rect width="256" height="256" fill="#FFFFFF" />
  <rect x="0" y="0" width="32" height="32" fill="#7C9A8B" />
  <rect x="32" y="0" width="32" height="32" fill="#D9D1C9" />
  <rect x="64" y="0" width="32" height="32" fill="#A1584D" />
  <rect x="96" y="0" width="32" height="32" fill="#E6E0D4" />
  <rect x="128" y="0" width="32" height="32" fill="#D9C3B1" />
  <rect x="160" y="0" width="32" height="32" fill="#F5F5F5" />
  <rect x="192" y="0" width="32" height="32" fill="#B1E1A6" />
  <rect x="224" y="0" width="32" height="32" fill="#7D5A4D" />
  <rect x="0" y="32" width="32" height="32" fill="#C1C2B3" />
  <rect x="32" y="32" width="32" height="32" fill="#474B3B" />
  <rect x="64" y="32" width="32" height="32" fill="#A6D19C" />
  <rect x="96" y="32" width="32" height="32" fill="#F8F6F4" />
  <rect x="128" y="32" width="32" height="32" fill="#555843" />
  <rect x="160" y="32" width="32" height="32" fill="#9A7D68" />
  <rect x="192" y="32" width="32" height="32" fill="#F2E7D8" />
  <rect x="224" y="32" width="32" height="32" fill="#4B3D33" />
  <rect x="0" y="64" width="32" height="32" fill="#8C9B6D" />
  <rect x="32" y="64" width="32" height="32" fill="#A1C2B4" />
  <rect x="64" y="64" width="32" height="32" fill="#7F7B7A" />
  <rect x="96" y="64" width="32" height="32" fill="#DAE7E7" />
  <rect x="128" y="64" width="32" height="32" fill="#C1B6A4" />
  <rect x="160" y="64" width="32" height="32" fill="#E1E0DB" />
  <rect x="192" y="64" width="32" height="32" fill="#A37A6F" />
  <rect x="224" y="64" width="32" height="32" fill="#B9B1AE" />
  <rect x="0" y="96" width="32" height="32" fill="#F0E8E0" />
  <rect x="32" y="96" width="32" height="32" fill="#D9D7C1" />
  <rect x="64" y="96" width="32" height="32" fill="#2C3531" />
  <rect x="96" y="96" width="32" height="32" fill="#CBE3D0" />
  <rect x="128" y="96" width="32" height="32" fill="#7FBF9A" />
  <rect x="160" y="96" width="32" height="32" fill="#B1C8C7" />
  <rect x="192" y="96" width="32" height="32" fill="#C1A49C" />
  <rect x="224" y="96" width="32" height="32" fill="#FFD3A5" />
  <rect x="0" y="128" width="32" height="32" fill="#5E6A63" />
  <rect x="32" y="128" width="32" height="32" fill="#B0C9A6" />
  <rect x="64" y="128" width="32" height="32" fill="#E4E6D1" />
  <rect x="96" y="128" width="32" height="32" fill="#C8B7A6" />
  <rect x="128" y="128" width="32" height="32" fill="#A59E82" />
  <rect x="160" y="128" width="32" height="32" fill="#C8E6D2" />
  <rect x="192" y="128" width="32" height="32" fill="#4F4D4E" />
  <rect x="224" y="128" width="32" height="32" fill="#A29088" />
  <rect x="0" y="160" width="32" height="32" fill="#C1C028" />
  <rect x="32" y="160" width="32" height="32" fill="#E1D4C1" />
  <rect x="64" y="160" width="32" height="32" fill="#C0B8A4" />
  <rect x="96" y="160" width="32" height="32" fill="#6F9E7E" />
  <rect x="128" y="160" width="32" height="32" fill="#F8F6E2" />
  <rect x="160" y="160" width="32" height="32" fill="#B5D5B7" />
  <rect x="192" y="160" width="32" height="32" fill="#A6A1A4" />
  <rect x="224" y="160" width="32" height="32" fill="#7A6562" />
  <rect x="0" y="192" width="32" height="32" fill="#DFE1D1" />
  <rect x="32" y="192" width="32" height="32" fill="#A1B6A4" />
  <rect x="64" y="192" width="32" height="32" fill="#6F6F4A" />
  <rect x="96" y="192" width="32" height="32" fill="#9B9F8D" />
  <rect x="128" y="192" width="32" height="32" fill="#E5E4B7" />
  <rect x="160" y="192" width="32" height="32" fill="#AABC88" />
  <rect x="192" y="192" width="32" height="32" fill="#D9D1C4" />
  <rect x="224" y="192" width="32" height="32" fill="#3D3A34" />
  <rect x="0" y="224" width="32" height="32" fill="#F4F5EC" />
  <rect x="32" y="224" width="32" height="32" fill="#C4CCB5" />
  <rect x="64" y="224" width="32" height="32" fill="#595B4D" />
  <rect x="96" y="224" width="32" height="32" fill="#A1C8B4" />
  <rect x="128" y="224" width="32" height="32" fill="#C8D6C9" />
  <rect x="160" y="224" width="32" height="32" fill="#C1B6A4" />
  <rect x="192" y="224" width="32" height="32" fill="#AFA69D" />
  <rect x="224" y="224" width="32" height="32" fill="#B3C6B3" />
</svg>
