<svg xmlns="http://www.w3.org/2000/svg" width="256" height="256" viewBox="0 0 256 256" shape-rendering="crispEdges" role="img" aria-labelledby="title desc">
  <title id="title">Fragmented Serenity</title>
  <desc id="desc">The emotional tone reflects a compelling contrast between restlessness and peace, where dark colors symbolize density and unease, while lighter hues provide intervals of calm. The palette employs deep teal and void black to embody restlessness, with cosmic indigo and star white as accents signaling moments of clarity and hope against the backdrop. The diagonal layout establishes a collision in the center, where the tension between restless patterns and peaceful spaces meets, creating a visual harmony of disruption and stillness. Broken pixels are scattered intentionally to evoke the scars of memory amidst calmness, reinforcing the emotional narrative.</desc>
  <rect width="256" height="256" fill="#FFFFFF" />
  <rect x="0" y="0" width="32" height="32" fill="#1E1E2F" />
  <rect x="32" y="0" width="32" height="32" fill="#2E2E3F" />
  <rect x="64" y="0" width="32" height="32" fill="#3E3E4F" />
  <rect x="96" y="0" width="32" height="32" fill="#4E4E5F" />
  <rect x="128" y="0" width="32" height="32" fill="#2C2C3C" />
  <rect x="160" y="0" width="32" height="32" fill="#1B1B2B" />
  <rect x="192" y="0" width="32" height="32" fill="#0A0A1A" />
  <rect x="224" y="0" width="32" height="32" fill="#0D0D1D" />
  <rect x="0" y="32" width="32" height="32" fill="#A3A3B3" />
  <rect x="32" y="32" width="32" height="32" fill="#8B8BC3" />
  <rect x="64" y="32" width="32" height="32" fill="#7F9FCD" />
  <rect x="96" y="32" width="32" height="32" fill="#6FB2D9" />
  <rect x="128" y="32" width="32" height="32" fill="#51A3BF" />
  <rect x="160" y="32" width="32" height="32" fill="#4A4B5F" />
  <rect x="192" y="32" width="32" height="32" fill="#333A4F" />
  <rect x="224" y="32" width="32" height="32" fill="#566E8B" />
  <rect x="0" y="64" width="32" height="32" fill="#9E9FBF" />
  <rect x="32" y="64" width="32" height="32" fill="#A2B3C9" />
  <rect x="64" y="64" width="32" height="32" fill="#B4C1DB" />
  <rect x="96" y="64" width="32" height="32" fill="#C4D1EB" />
  <rect x="128" y="64" width="32" height="32" fill="#E0F1FF" />
  <rect x="160" y="64" width="32" height="32" fill="#F0F1FF" />
  <rect x="192" y="64" width="32" height="32" fill="#D4E3F6" />
  <rect x="224" y="64" width="32" height="32" fill="#A1C3D7" />
  <rect x="0" y="96" width="32" height="32" fill="#000000" />
  <rect x="32" y="96" width="32" height="32" fill="#000000" />
  <rect x="64" y="96" width="32" height="32" fill="#1B1B1B" />
  <rect x="96" y="96" width="32" height="32" fill="#2E2E3F" />
  <rect x="128" y="96" width="32" height="32" fill="#4A4B5F" />
  <rect x="160" y="96" width="32" height="32" fill="#4E4E5F" />
  <rect x="192" y="96" width="32" height="32" fill="#5F606F" />
  <rect x="224" y="96" width="32" height="32" fill="#4C4D5D" />
  <rect x="0" y="128" width="32" height="32" fill="#E7F5FF" />
  <rect x="32" y="128" width="32" height="32" fill="#91D8E0" />
  <rect x="64" y="128" width="32" height="32" fill="#6BB2CB" />
  <rect x="96" y="128" width="32" height="32" fill="#4BA0B1" />
  <rect x="128" y="128" width="32" height="32" fill="#009198" />
  <rect x="160" y="128" width="32" height="32" fill="#007971" />
  <rect x="192" y="128" width="32" height="32" fill="#005D5F" />
  <rect x="224" y="128" width="32" height="32" fill="#005050" />
  <rect x="0" y="160" width="32" height="32" fill="#A9BAC2" />
  <rect x="32" y="160" width="32" height="32" fill="#8AB8C2" />
  <rect x="64" y="160" width="32" height="32" fill="#00A1B6" />
  <rect x="96" y="160" width="32" height="32" fill="#009CB3" />
  <rect x="128" y="160" width="32" height="32" fill="#0085B3" />
  <rect x="160" y="160" width="32" height="32" fill="#006A8F" />
  <rect x="192" y="160" width="32" height="32" fill="#005C7F" />
  <rect x="224" y="160" width="32" height="32" fill="#005C7F" />
  <rect x="0" y="192" width="32" height="32" fill="#E0C9CA" />
  <rect x="32" y="192" width="32" height="32" fill="#F0D5D5" />
  <rect x="64" y="192" width="32" height="32" fill="#F2E1E1" />
  <rect x="96" y="192" width="32" height="32" fill="#E8F0F1" />
  <rect x="128" y="192" width="32" height="32" fill="#D0D0D0" />
  <rect x="160" y="192" width="32" height="32" fill="#C2C2C2" />
  <rect x="192" y="192" width="32" height="32" fill="#B1B1B1" />
  <rect x="224" y="192" width="32" height="32" fill="#A9A9A9" />
  <rect x="0" y="224" width="32" height="32" fill="#000000" />
  <rect x="32" y="224" width="32" height="32" fill="#111111" />
  <rect x="64" y="224" width="32" height="32" fill="#2A2A2A" />
  <rect x="96" y="224" width="32" height="32" fill="#414141" />
  <rect x="128" y="224" width="32" height="32" fill="#6B6B6B" />
  <rect x="160" y="224" width="32" height="32" fill="#9E9E9E" />
  <rect x="192" y="224" width="32" height="32" fill="#C6C6C6" />
  <rect x="224" y="224" width="32" height="32" fill="#F2F2F2" />
</svg>
