<svg xmlns="http://www.w3.org/2000/svg" width="256" height="256" viewBox="0 0 256 256" shape-rendering="crispEdges" role="img" aria-labelledby="title desc">
  <title id="title">Tension and Light</title>
  <desc id="desc">This composition explores the emotional dichotomy of fear and hope through contrasting palette choices and structural arrangement. The tension between sharp, angular blacks and soft, luminous golds signifies fear's chilling grip versus hope's warm embrace. The left half features dark violets and blacks in a jagged pattern, symbolizing fear's chaotic influence. In contrast, the right half introduces pale greens and soft golds in a framing design, embodying the quiet rising signals of hope. The zigzag flow adds rhythm, while the placement of broken pixels ensures a sense of imperfection, capturing the rawness of these emotions.</desc>
  <rect width="256" height="256" fill="#FFFFFF" />
  <rect x="0" y="0" width="32" height="32" fill="#000000" />
  <rect x="32" y="0" width="32" height="32" fill="#1C1C1C" />
  <rect x="64" y="0" width="32" height="32" fill="#3D3D3D" />
  <rect x="96" y="0" width="32" height="32" fill="#5F5F5F" />
  <rect x="128" y="0" width="32" height="32" fill="#7F7F7F" />
  <rect x="160" y="0" width="32" height="32" fill="#A1A1A1" />
  <rect x="192" y="0" width="32" height="32" fill="#B2B2B2" />
  <rect x="224" y="0" width="32" height="32" fill="#C3C3C3" />
  <rect x="0" y="32" width="32" height="32" fill="#000000" />
  <rect x="32" y="32" width="32" height="32" fill="#2C2C2C" />
  <rect x="64" y="32" width="32" height="32" fill="#4E4E4E" />
  <rect x="96" y="32" width="32" height="32" fill="#706868" />
  <rect x="128" y="32" width="32" height="32" fill="#8F8F8F" />
  <rect x="160" y="32" width="32" height="32" fill="#B6B6B6" />
  <rect x="192" y="32" width="32" height="32" fill="#D7D7D7" />
  <rect x="224" y="32" width="32" height="32" fill="#E1E1E1" />
  <rect x="0" y="64" width="32" height="32" fill="#000000" />
  <rect x="32" y="64" width="32" height="32" fill="#353535" />
  <rect x="64" y="64" width="32" height="32" fill="#444444" />
  <rect x="96" y="64" width="32" height="32" fill="#5B5B5B" />
  <rect x="128" y="64" width="32" height="32" fill="#747474" />
  <rect x="160" y="64" width="32" height="32" fill="#A5AFAF" />
  <rect x="192" y="64" width="32" height="32" fill="#BDC4C4" />
  <rect x="224" y="64" width="32" height="32" fill="#C8C8C8" />
  <rect x="0" y="96" width="32" height="32" fill="#DAA520" />
  <rect x="32" y="96" width="32" height="32" fill="#D6D6D6" />
  <rect x="64" y="96" width="32" height="32" fill="#B5B5B5" />
  <rect x="96" y="96" width="32" height="32" fill="#A8A8A8" />
  <rect x="128" y="96" width="32" height="32" fill="#95C8A7" />
  <rect x="160" y="96" width="32" height="32" fill="#74E4AA" />
  <rect x="192" y="96" width="32" height="32" fill="#B6D9C5" />
  <rect x="224" y="96" width="32" height="32" fill="#D3E5D2" />
  <rect x="0" y="128" width="32" height="32" fill="#1C1C1C" />
  <rect x="32" y="128" width="32" height="32" fill="#F0E68C" />
  <rect x="64" y="128" width="32" height="32" fill="#D3D3D3" />
  <rect x="96" y="128" width="32" height="32" fill="#C2C2A7" />
  <rect x="128" y="128" width="32" height="32" fill="#A8BCA9" />
  <rect x="160" y="128" width="32" height="32" fill="#A8D3CE" />
  <rect x="192" y="128" width="32" height="32" fill="#B2DFDA" />
  <rect x="224" y="128" width="32" height="32" fill="#C3F8D0" />
  <rect x="0" y="160" width="32" height="32" fill="#000000" />
  <rect x="32" y="160" width="32" height="32" fill="#E7E7C6" />
  <rect x="64" y="160" width="32" height="32" fill="#E3E3AA" />
  <rect x="96" y="160" width="32" height="32" fill="#B2E6B2" />
  <rect x="128" y="160" width="32" height="32" fill="#83D3A7" />
  <rect x="160" y="160" width="32" height="32" fill="#C7E2D2" />
  <rect x="192" y="160" width="32" height="32" fill="#D9E4DF" />
  <rect x="224" y="160" width="32" height="32" fill="#D1F1D0" />
  <rect x="0" y="192" width="32" height="32" fill="#8B008B" />
  <rect x="32" y="192" width="32" height="32" fill="#D4E4D7" />
  <rect x="64" y="192" width="32" height="32" fill="#D0F0E4" />
  <rect x="96" y="192" width="32" height="32" fill="#88C8B4" />
  <rect x="128" y="192" width="32" height="32" fill="#66BDA7" />
  <rect x="160" y="192" width="32" height="32" fill="#E6F1E9" />
  <rect x="192" y="192" width="32" height="32" fill="#C8E2D5" />
  <rect x="224" y="192" width="32" height="32" fill="#A9F5E1" />
  <rect x="0" y="224" width="32" height="32" fill="#7CFC00" />
  <rect x="32" y="224" width="32" height="32" fill="#A5E910" />
  <rect x="64" y="224" width="32" height="32" fill="#BEF2E4" />
  <rect x="96" y="224" width="32" height="32" fill="#CFFFFF" />
  <rect x="128" y="224" width="32" height="32" fill="#D6D6D6" />
  <rect x="160" y="224" width="32" height="32" fill="#D9E7E0" />
  <rect x="192" y="224" width="32" height="32" fill="#E1F8EA" />
  <rect x="224" y="224" width="32" height="32" fill="#F6FFFE" />
</svg>
