<svg xmlns="http://www.w3.org/2000/svg" width="256" height="256" viewBox="0 0 256 256" shape-rendering="crispEdges" role="img" aria-labelledby="title desc">
  <title id="title">Signal vs Noise</title>
  <desc id="desc">The emotional tone reflects a tension between vibrant sparks of energy and subdued ashes of restraint, captured in a palette of melancholy blues and muted lavenders. This evokes a sense of struggle and resilience within a canvas of imperfection. The palette alternates between soft cyan and muted plum, with a contrast at the center, where radial patterns collide with crosshatch marks, creating an interruption in flow. The jagged sensations from memory and erasure are echoed through broken pixels, suggesting a layered complexity of feeling.</desc>
  <rect width="256" height="256" fill="#FFFFFF" />
  <rect x="0" y="0" width="32" height="32" fill="#5A9BD4" />
  <rect x="32" y="0" width="32" height="32" fill="#E3D8E0" />
  <rect x="64" y="0" width="32" height="32" fill="#8B4F88" />
  <rect x="96" y="0" width="32" height="32" fill="#A2C1D8" />
  <rect x="128" y="0" width="32" height="32" fill="#E2E8E4" />
  <rect x="160" y="0" width="32" height="32" fill="#C4E1E9" />
  <rect x="192" y="0" width="32" height="32" fill="#6A8E92" />
  <rect x="224" y="0" width="32" height="32" fill="#F6F4F7" />
  <rect x="0" y="32" width="32" height="32" fill="#9491A7" />
  <rect x="32" y="32" width="32" height="32" fill="#B6C3D0" />
  <rect x="64" y="32" width="32" height="32" fill="#C9D5E8" />
  <rect x="96" y="32" width="32" height="32" fill="#B0A4D1" />
  <rect x="128" y="32" width="32" height="32" fill="#CED7E6" />
  <rect x="160" y="32" width="32" height="32" fill="#E7E2E9" />
  <rect x="192" y="32" width="32" height="32" fill="#8E6B78" />
  <rect x="224" y="32" width="32" height="32" fill="#F8F2F2" />
  <rect x="0" y="64" width="32" height="32" fill="#6C92B0" />
  <rect x="32" y="64" width="32" height="32" fill="#DAD5DC" />
  <rect x="64" y="64" width="32" height="32" fill="#7E4E75" />
  <rect x="96" y="64" width="32" height="32" fill="#A4B8C7" />
  <rect x="128" y="64" width="32" height="32" fill="#BAC5D5" />
  <rect x="160" y="64" width="32" height="32" fill="#E1D7E6" />
  <rect x="192" y="64" width="32" height="32" fill="#708DA9" />
  <rect x="224" y="64" width="32" height="32" fill="#B8A5C6" />
  <rect x="0" y="96" width="32" height="32" fill="#4C7381" />
  <rect x="32" y="96" width="32" height="32" fill="#D6D2D8" />
  <rect x="64" y="96" width="32" height="32" fill="#A54E69" />
  <rect x="96" y="96" width="32" height="32" fill="#C6C8D4" />
  <rect x="128" y="96" width="32" height="32" fill="#B98FBB" />
  <rect x="160" y="96" width="32" height="32" fill="#D2D5DB" />
  <rect x="192" y="96" width="32" height="32" fill="#9A7364" />
  <rect x="224" y="96" width="32" height="32" fill="#F0F4F8" />
  <rect x="0" y="128" width="32" height="32" fill="#007B99" />
  <rect x="32" y="128" width="32" height="32" fill="#F7F7FA" />
  <rect x="64" y="128" width="32" height="32" fill="#E6C2E4" />
  <rect x="96" y="128" width="32" height="32" fill="#A2C4D0" />
  <rect x="128" y="128" width="32" height="32" fill="#B7C0C7" />
  <rect x="160" y="128" width="32" height="32" fill="#E0E0E3" />
  <rect x="192" y="128" width="32" height="32" fill="#5C3E52" />
  <rect x="224" y="128" width="32" height="32" fill="#F4F1F4" />
  <rect x="0" y="160" width="32" height="32" fill="#8B8E9F" />
  <rect x="32" y="160" width="32" height="32" fill="#D1C4E9" />
  <rect x="64" y="160" width="32" height="32" fill="#C6D6DB" />
  <rect x="96" y="160" width="32" height="32" fill="#A4C8D3" />
  <rect x="128" y="160" width="32" height="32" fill="#E4E8E7" />
  <rect x="160" y="160" width="32" height="32" fill="#B5A4B2" />
  <rect x="192" y="160" width="32" height="32" fill="#6E0F28" />
  <rect x="224" y="160" width="32" height="32" fill="#F6F1F6" />
  <rect x="0" y="192" width="32" height="32" fill="#83C2D8" />
  <rect x="32" y="192" width="32" height="32" fill="#D9D5E0" />
  <rect x="64" y="192" width="32" height="32" fill="#8B4F88" />
  <rect x="96" y="192" width="32" height="32" fill="#A9BCCF" />
  <rect x="128" y="192" width="32" height="32" fill="#C0C5D0" />
  <rect x="160" y="192" width="32" height="32" fill="#F2F2F5" />
  <rect x="192" y="192" width="32" height="32" fill="#992B35" />
  <rect x="224" y="192" width="32" height="32" fill="#F9F5F9" />
  <rect x="0" y="224" width="32" height="32" fill="#A0C4D8" />
  <rect x="32" y="224" width="32" height="32" fill="#E3D8E0" />
  <rect x="64" y="224" width="32" height="32" fill="#6A5C76" />
  <rect x="96" y="224" width="32" height="32" fill="#9E8B9C" />
  <rect x="128" y="224" width="32" height="32" fill="#E3F4F6" />
  <rect x="160" y="224" width="32" height="32" fill="#D9D2E1" />
  <rect x="192" y="224" width="32" height="32" fill="#A6A2B1" />
  <rect x="224" y="224" width="32" height="32" fill="#F4E2E6" />
</svg>
