<svg xmlns="http://www.w3.org/2000/svg" width="256" height="256" viewBox="0 0 256 256" shape-rendering="crispEdges" role="img" aria-labelledby="title desc">
  <title id="title">Tension in Harmony</title>
  <desc id="desc">This piece embodies the emotional contrast of defiance and submission through color placement and density. The palette of muted elements like 'dust_gray' and 'faint_peach' creates a quiet yet tense backdrop, while the bold 'compressed_red' and 'dark_navy' punctuate the center, representing defiance. The arrangement follows a halo void layout, emphasizing the protected yet vulnerable core against a textured, braided pattern in the edges. The broken pixels scattered throughout serve as moments of chaos, reflecting the themes of invasion and disruption.</desc>
  <rect width="256" height="256" fill="#FFFFFF" />
  <rect x="0" y="0" width="32" height="32" fill="#ECECEC" />
  <rect x="32" y="0" width="32" height="32" fill="#D3D3D3" />
  <rect x="64" y="0" width="32" height="32" fill="#B0B0B0" />
  <rect x="96" y="0" width="32" height="32" fill="#808080" />
  <rect x="128" y="0" width="32" height="32" fill="#403F4A" />
  <rect x="160" y="0" width="32" height="32" fill="#A0522D" />
  <rect x="192" y="0" width="32" height="32" fill="#C0C0C0" />
  <rect x="224" y="0" width="32" height="32" fill="#FFFFFF" />
  <rect x="0" y="32" width="32" height="32" fill="#F8F8F8" />
  <rect x="32" y="32" width="32" height="32" fill="#D1CFCF" />
  <rect x="64" y="32" width="32" height="32" fill="#A19F9E" />
  <rect x="96" y="32" width="32" height="32" fill="#7F7F7F" />
  <rect x="128" y="32" width="32" height="32" fill="#47505C" />
  <rect x="160" y="32" width="32" height="32" fill="#9B3D3D" />
  <rect x="192" y="32" width="32" height="32" fill="#C4C4C4" />
  <rect x="224" y="32" width="32" height="32" fill="#EBEBEB" />
  <rect x="0" y="64" width="32" height="32" fill="#FFFFFF" />
  <rect x="32" y="64" width="32" height="32" fill="#F8EFED" />
  <rect x="64" y="64" width="32" height="32" fill="#E1DFE1" />
  <rect x="96" y="64" width="32" height="32" fill="#D1CFCF" />
  <rect x="128" y="64" width="32" height="32" fill="#ABA69D" />
  <rect x="160" y="64" width="32" height="32" fill="#7F7F7F" />
  <rect x="192" y="64" width="32" height="32" fill="#C06262" />
  <rect x="224" y="64" width="32" height="32" fill="#F5F5F5" />
  <rect x="0" y="96" width="32" height="32" fill="#F0F0F0" />
  <rect x="32" y="96" width="32" height="32" fill="#DCDCDC" />
  <rect x="64" y="96" width="32" height="32" fill="#B8B4B9" />
  <rect x="96" y="96" width="32" height="32" fill="#A0A09E" />
  <rect x="128" y="96" width="32" height="32" fill="#676E86" />
  <rect x="160" y="96" width="32" height="32" fill="#FF5E5E" />
  <rect x="192" y="96" width="32" height="32" fill="#C3C3C3" />
  <rect x="224" y="96" width="32" height="32" fill="#FFFFFF" />
  <rect x="0" y="128" width="32" height="32" fill="#FFFFFF" />
  <rect x="32" y="128" width="32" height="32" fill="#D7CFD0" />
  <rect x="64" y="128" width="32" height="32" fill="#B9B5B7" />
  <rect x="96" y="128" width="32" height="32" fill="#8B8B7C" />
  <rect x="128" y="128" width="32" height="32" fill="#55555E" />
  <rect x="160" y="128" width="32" height="32" fill="#D25454" />
  <rect x="192" y="128" width="32" height="32" fill="#C2C2C2" />
  <rect x="224" y="128" width="32" height="32" fill="#EEEEEE" />
  <rect x="0" y="160" width="32" height="32" fill="#ECECF1" />
  <rect x="32" y="160" width="32" height="32" fill="#E2D6D8" />
  <rect x="64" y="160" width="32" height="32" fill="#B7A9A6" />
  <rect x="96" y="160" width="32" height="32" fill="#7D7D7D" />
  <rect x="128" y="160" width="32" height="32" fill="#333C40" />
  <rect x="160" y="160" width="32" height="32" fill="#FE6A6A" />
  <rect x="192" y="160" width="32" height="32" fill="#C8C8C8" />
  <rect x="224" y="160" width="32" height="32" fill="#F9F9F9" />
  <rect x="0" y="192" width="32" height="32" fill="#FEFEFE" />
  <rect x="32" y="192" width="32" height="32" fill="#DDDDDD" />
  <rect x="64" y="192" width="32" height="32" fill="#808080" />
  <rect x="96" y="192" width="32" height="32" fill="#666666" />
  <rect x="128" y="192" width="32" height="32" fill="#535B61" />
  <rect x="160" y="192" width="32" height="32" fill="#FE4848" />
  <rect x="192" y="192" width="32" height="32" fill="#B9B9B9" />
  <rect x="224" y="192" width="32" height="32" fill="#FFFFFF" />
  <rect x="0" y="224" width="32" height="32" fill="#FFFFFF" />
  <rect x="32" y="224" width="32" height="32" fill="#F3E2E6" />
  <rect x="64" y="224" width="32" height="32" fill="#D6CBD6" />
  <rect x="96" y="224" width="32" height="32" fill="#BFB8BB" />
  <rect x="128" y="224" width="32" height="32" fill="#9999A0" />
  <rect x="160" y="224" width="32" height="32" fill="#F55F5F" />
  <rect x="192" y="224" width="32" height="32" fill="#C7C7C7" />
  <rect x="224" y="224" width="32" height="32" fill="#FDFDFD" />
</svg>
