<svg xmlns="http://www.w3.org/2000/svg" width="256" height="256" viewBox="0 0 256 256" shape-rendering="crispEdges" role="img" aria-labelledby="title desc">
  <title id="title">Exposure and Shelter</title>
  <desc id="desc">This artwork embodies the tension between vulnerability and strength, illustrated through a careful balance of pale and muted colors contrasted with deeper tones. The palette consists of soft hues that evoke melancholy yet offer moments of stability. The main contrast occurs in the central area, where a lighter pattern interrupts denser rows, echoing the feeling of exposure amidst protective layers. The broken pixels create an intentional disruption, reflecting the fragility in strength as we navigate safety and openness.</desc>
  <rect width="256" height="256" fill="#FFFFFF" />
  <rect x="0" y="0" width="32" height="32" fill="#D0C8DE" />
  <rect x="32" y="0" width="32" height="32" fill="#B3A2C3" />
  <rect x="64" y="0" width="32" height="32" fill="#A69DB8" />
  <rect x="96" y="0" width="32" height="32" fill="#A4B4D8" />
  <rect x="128" y="0" width="32" height="32" fill="#8C9DC5" />
  <rect x="160" y="0" width="32" height="32" fill="#B1A6D7" />
  <rect x="192" y="0" width="32" height="32" fill="#D0D6E4" />
  <rect x="224" y="0" width="32" height="32" fill="#E0E6F2" />
  <rect x="0" y="32" width="32" height="32" fill="#AB9EB5" />
  <rect x="32" y="32" width="32" height="32" fill="#BFD0E2" />
  <rect x="64" y="32" width="32" height="32" fill="#A7B9CB" />
  <rect x="96" y="32" width="32" height="32" fill="#A4A8B7" />
  <rect x="128" y="32" width="32" height="32" fill="#A5BACD" />
  <rect x="160" y="32" width="32" height="32" fill="#C8D8E9" />
  <rect x="192" y="32" width="32" height="32" fill="#DED6E2" />
  <rect x="224" y="32" width="32" height="32" fill="#E7F0FA" />
  <rect x="0" y="64" width="32" height="32" fill="#E2E0EE" />
  <rect x="32" y="64" width="32" height="32" fill="#BEC6DA" />
  <rect x="64" y="64" width="32" height="32" fill="#C0B2D3" />
  <rect x="96" y="64" width="32" height="32" fill="#A9BFF3" />
  <rect x="128" y="64" width="32" height="32" fill="#D6D2E5" />
  <rect x="160" y="64" width="32" height="32" fill="#C4B8D1" />
  <rect x="192" y="64" width="32" height="32" fill="#E5E9F0" />
  <rect x="224" y="64" width="32" height="32" fill="#D3D9E9" />
  <rect x="0" y="96" width="32" height="32" fill="#C5D5E3" />
  <rect x="32" y="96" width="32" height="32" fill="#A1B8D5" />
  <rect x="64" y="96" width="32" height="32" fill="#9DA2B5" />
  <rect x="96" y="96" width="32" height="32" fill="#B8C8DB" />
  <rect x="128" y="96" width="32" height="32" fill="#E5E3F6" />
  <rect x="160" y="96" width="32" height="32" fill="#C7D2E4" />
  <rect x="192" y="96" width="32" height="32" fill="#BEC3D8" />
  <rect x="224" y="96" width="32" height="32" fill="#D9E4EB" />
  <rect x="0" y="128" width="32" height="32" fill="#B0C6D0" />
  <rect x="32" y="128" width="32" height="32" fill="#DBE2F0" />
  <rect x="64" y="128" width="32" height="32" fill="#BACAD8" />
  <rect x="96" y="128" width="32" height="32" fill="#A6B4C9" />
  <rect x="128" y="128" width="32" height="32" fill="#C0BDC9" />
  <rect x="160" y="128" width="32" height="32" fill="#E1E0E6" />
  <rect x="192" y="128" width="32" height="32" fill="#F7F7FC" />
  <rect x="224" y="128" width="32" height="32" fill="#EBEDEB" />
  <rect x="0" y="160" width="32" height="32" fill="#D1BFD3" />
  <rect x="32" y="160" width="32" height="32" fill="#C4C8D0" />
  <rect x="64" y="160" width="32" height="32" fill="#A4ADBB" />
  <rect x="96" y="160" width="32" height="32" fill="#D2E0F5" />
  <rect x="128" y="160" width="32" height="32" fill="#B6C3D3" />
  <rect x="160" y="160" width="32" height="32" fill="#D9E3EA" />
  <rect x="192" y="160" width="32" height="32" fill="#E6E3E5" />
  <rect x="224" y="160" width="32" height="32" fill="#F0F5FB" />
  <rect x="0" y="192" width="32" height="32" fill="#E5D3E1" />
  <rect x="32" y="192" width="32" height="32" fill="#B7C0D0" />
  <rect x="64" y="192" width="32" height="32" fill="#A3B6C3" />
  <rect x="96" y="192" width="32" height="32" fill="#D2E3F7" />
  <rect x="128" y="192" width="32" height="32" fill="#BAC2D1" />
  <rect x="160" y="192" width="32" height="32" fill="#CEC4D3" />
  <rect x="192" y="192" width="32" height="32" fill="#DFDFE0" />
  <rect x="224" y="192" width="32" height="32" fill="#F2F2F5" />
  <rect x="0" y="224" width="32" height="32" fill="#D9C5D7" />
  <rect x="32" y="224" width="32" height="32" fill="#B2B4CE" />
  <rect x="64" y="224" width="32" height="32" fill="#C9C3DB" />
  <rect x="96" y="224" width="32" height="32" fill="#B7C5D6" />
  <rect x="128" y="224" width="32" height="32" fill="#D8E9F6" />
  <rect x="160" y="224" width="32" height="32" fill="#E3D7E5" />
  <rect x="192" y="224" width="32" height="32" fill="#E3E7E8" />
  <rect x="224" y="224" width="32" height="32" fill="#FFF9FC" />
</svg>
