<svg xmlns="http://www.w3.org/2000/svg" width="256" height="256" viewBox="0 0 256 256" shape-rendering="crispEdges" role="img" aria-labelledby="title desc">
  <title id="title">Tension Between Longing and Void</title>
  <desc id="desc">This artwork embodies the emotional tension between 'emptiness' and 'desire' through a contrasting palette of warm reds and cool grays. The central area consists of brighter colors to signify desire, with darker shades surrounding it to represent the encroaching emptiness. The pattern of broken dots conveys fragmented desires while the frame encapsulates the feeling of protection and confinement, echoing the 'falling' theme in its descending flow from top to bottom. Each row's gradient subtly shifts to create a rhythm of rising and falling contrasts, evoking a story of yearning amidst isolation.</desc>
  <rect width="256" height="256" fill="#FFFFFF" />
  <rect x="0" y="0" width="32" height="32" fill="#FFCCCC" />
  <rect x="32" y="0" width="32" height="32" fill="#FF6666" />
  <rect x="64" y="0" width="32" height="32" fill="#FF9999" />
  <rect x="96" y="0" width="32" height="32" fill="#F2F2F2" />
  <rect x="128" y="0" width="32" height="32" fill="#D9D9D9" />
  <rect x="160" y="0" width="32" height="32" fill="#A6A6A6" />
  <rect x="192" y="0" width="32" height="32" fill="#999999" />
  <rect x="224" y="0" width="32" height="32" fill="#7F7F7F" />
  <rect x="0" y="32" width="32" height="32" fill="#FFCCCC" />
  <rect x="32" y="32" width="32" height="32" fill="#FF6666" />
  <rect x="64" y="32" width="32" height="32" fill="#FF9999" />
  <rect x="96" y="32" width="32" height="32" fill="#F2F2F2" />
  <rect x="128" y="32" width="32" height="32" fill="#D9D9D9" />
  <rect x="160" y="32" width="32" height="32" fill="#A6A6A6" />
  <rect x="192" y="32" width="32" height="32" fill="#999999" />
  <rect x="224" y="32" width="32" height="32" fill="#7F7F7F" />
  <rect x="0" y="64" width="32" height="32" fill="#FFCCCC" />
  <rect x="32" y="64" width="32" height="32" fill="#FF6666" />
  <rect x="64" y="64" width="32" height="32" fill="#FF9999" />
  <rect x="96" y="64" width="32" height="32" fill="#F2F2F2" />
  <rect x="128" y="64" width="32" height="32" fill="#D9D9D9" />
  <rect x="160" y="64" width="32" height="32" fill="#A6A6A6" />
  <rect x="192" y="64" width="32" height="32" fill="#999999" />
  <rect x="224" y="64" width="32" height="32" fill="#7F7F7F" />
  <rect x="0" y="96" width="32" height="32" fill="#FFCCCC" />
  <rect x="32" y="96" width="32" height="32" fill="#FF6666" />
  <rect x="64" y="96" width="32" height="32" fill="#FF9999" />
  <rect x="96" y="96" width="32" height="32" fill="#F2F2F2" />
  <rect x="128" y="96" width="32" height="32" fill="#CCCCCC" />
  <rect x="160" y="96" width="32" height="32" fill="#999999" />
  <rect x="192" y="96" width="32" height="32" fill="#7F7F7F" />
  <rect x="224" y="96" width="32" height="32" fill="#666666" />
  <rect x="0" y="128" width="32" height="32" fill="#FFCCCC" />
  <rect x="32" y="128" width="32" height="32" fill="#FF6666" />
  <rect x="64" y="128" width="32" height="32" fill="#FF9999" />
  <rect x="96" y="128" width="32" height="32" fill="#E6E6E6" />
  <rect x="128" y="128" width="32" height="32" fill="#CCCCCC" />
  <rect x="160" y="128" width="32" height="32" fill="#999999" />
  <rect x="192" y="128" width="32" height="32" fill="#666666" />
  <rect x="224" y="128" width="32" height="32" fill="#444444" />
  <rect x="0" y="160" width="32" height="32" fill="#FFCCCC" />
  <rect x="32" y="160" width="32" height="32" fill="#CC0000" />
  <rect x="64" y="160" width="32" height="32" fill="#CC9999" />
  <rect x="96" y="160" width="32" height="32" fill="#E6E6E6" />
  <rect x="128" y="160" width="32" height="32" fill="#CCCCCC" />
  <rect x="160" y="160" width="32" height="32" fill="#888888" />
  <rect x="192" y="160" width="32" height="32" fill="#444444" />
  <rect x="224" y="160" width="32" height="32" fill="#222222" />
  <rect x="0" y="192" width="32" height="32" fill="#FFCCCC" />
  <rect x="32" y="192" width="32" height="32" fill="#CC6666" />
  <rect x="64" y="192" width="32" height="32" fill="#B3B3B3" />
  <rect x="96" y="192" width="32" height="32" fill="#E6E6E6" />
  <rect x="128" y="192" width="32" height="32" fill="#CCCCCC" />
  <rect x="160" y="192" width="32" height="32" fill="#666666" />
  <rect x="192" y="192" width="32" height="32" fill="#444444" />
  <rect x="224" y="192" width="32" height="32" fill="#111111" />
  <rect x="0" y="224" width="32" height="32" fill="#FFCCCC" />
  <rect x="32" y="224" width="32" height="32" fill="#CC6666" />
  <rect x="64" y="224" width="32" height="32" fill="#A6A6A6" />
  <rect x="96" y="224" width="32" height="32" fill="#EAEAEA" />
  <rect x="128" y="224" width="32" height="32" fill="#CCCCCC" />
  <rect x="160" y="224" width="32" height="32" fill="#555555" />
  <rect x="192" y="224" width="32" height="32" fill="#333333" />
  <rect x="224" y="224" width="32" height="32" fill="#000000" />
</svg>
