<svg xmlns="http://www.w3.org/2000/svg" width="256" height="256" viewBox="0 0 256 256" shape-rendering="crispEdges" role="img" aria-labelledby="title desc">
  <title id="title">Veil of Trust</title>
  <desc id="desc">The emotional tone captures the duality of trust and suspicion, with a palette that evokes 'melancholy wonder.' The arrangement reflects a rising signal with pressure borders highlighting the tension. The soft cyan and moon white create calmness while muted plum adds a subtle weight, suggesting layers of both warmth and unraveling doubts. The main contrast occurs where darker hues meet lighter shades, creating a visual echo of the theme. The diagonal arrangement symbolizes shifting perspectives, while broken pixels introduce an aspect of fragility. Overall, it tells a story of resilience challenged by hidden suspicions.</desc>
  <rect width="256" height="256" fill="#FFFFFF" />
  <rect x="0" y="0" width="32" height="32" fill="#B5C9E5" />
  <rect x="32" y="0" width="32" height="32" fill="#E6E3EE" />
  <rect x="64" y="0" width="32" height="32" fill="#A493BD" />
  <rect x="96" y="0" width="32" height="32" fill="#4B4A56" />
  <rect x="128" y="0" width="32" height="32" fill="#2D2F35" />
  <rect x="160" y="0" width="32" height="32" fill="#3E3B4B" />
  <rect x="192" y="0" width="32" height="32" fill="#6D7A94" />
  <rect x="224" y="0" width="32" height="32" fill="#D3DEEE" />
  <rect x="0" y="32" width="32" height="32" fill="#5A5B90" />
  <rect x="32" y="32" width="32" height="32" fill="#C4CFE4" />
  <rect x="64" y="32" width="32" height="32" fill="#9F2D4D" />
  <rect x="96" y="32" width="32" height="32" fill="#897C9D" />
  <rect x="128" y="32" width="32" height="32" fill="#D3E3E6" />
  <rect x="160" y="32" width="32" height="32" fill="#D9C9E0" />
  <rect x="192" y="32" width="32" height="32" fill="#5B6165" />
  <rect x="224" y="32" width="32" height="32" fill="#9A98B7" />
  <rect x="0" y="64" width="32" height="32" fill="#7BFFFE" />
  <rect x="32" y="64" width="32" height="32" fill="#B9C4E3" />
  <rect x="64" y="64" width="32" height="32" fill="#685A75" />
  <rect x="96" y="64" width="32" height="32" fill="#CDD5EC" />
  <rect x="128" y="64" width="32" height="32" fill="#4B4756" />
  <rect x="160" y="64" width="32" height="32" fill="#67696F" />
  <rect x="192" y="64" width="32" height="32" fill="#E6E1E7" />
  <rect x="224" y="64" width="32" height="32" fill="#D3DBDB" />
  <rect x="0" y="96" width="32" height="32" fill="#D1E0E5" />
  <rect x="32" y="96" width="32" height="32" fill="#A4A7C1" />
  <rect x="64" y="96" width="32" height="32" fill="#C1D1E4" />
  <rect x="96" y="96" width="32" height="32" fill="#2A2E37" />
  <rect x="128" y="96" width="32" height="32" fill="#73667B" />
  <rect x="160" y="96" width="32" height="32" fill="#5F6789" />
  <rect x="192" y="96" width="32" height="32" fill="#ACBDC8" />
  <rect x="224" y="96" width="32" height="32" fill="#999EAE" />
  <rect x="0" y="128" width="32" height="32" fill="#3B353A" />
  <rect x="32" y="128" width="32" height="32" fill="#8088A3" />
  <rect x="64" y="128" width="32" height="32" fill="#154F66" />
  <rect x="96" y="128" width="32" height="32" fill="#07193B" />
  <rect x="128" y="128" width="32" height="32" fill="#A5A3B9" />
  <rect x="160" y="128" width="32" height="32" fill="#313B4C" />
  <rect x="192" y="128" width="32" height="32" fill="#6C7583" />
  <rect x="224" y="128" width="32" height="32" fill="#B1B6E6" />
  <rect x="0" y="160" width="32" height="32" fill="#CAD4E2" />
  <rect x="32" y="160" width="32" height="32" fill="#F2E1EE" />
  <rect x="64" y="160" width="32" height="32" fill="#2D2F33" />
  <rect x="96" y="160" width="32" height="32" fill="#5B6E76" />
  <rect x="128" y="160" width="32" height="32" fill="#E5EFF1" />
  <rect x="160" y="160" width="32" height="32" fill="#C6C3D0" />
  <rect x="192" y="160" width="32" height="32" fill="#D2C4CD" />
  <rect x="224" y="160" width="32" height="32" fill="#8E8496" />
  <rect x="0" y="192" width="32" height="32" fill="#4F4A62" />
  <rect x="32" y="192" width="32" height="32" fill="#C0C3D1" />
  <rect x="64" y="192" width="32" height="32" fill="#7F9DB1" />
  <rect x="96" y="192" width="32" height="32" fill="#9FA0A9" />
  <rect x="128" y="192" width="32" height="32" fill="#D5E0E6" />
  <rect x="160" y="192" width="32" height="32" fill="#A6B8C7" />
  <rect x="192" y="192" width="32" height="32" fill="#3B5A61" />
  <rect x="224" y="192" width="32" height="32" fill="#798596" />
  <rect x="0" y="224" width="32" height="32" fill="#E1EAF3" />
  <rect x="32" y="224" width="32" height="32" fill="#D1E5F7" />
  <rect x="64" y="224" width="32" height="32" fill="#B2C2D9" />
  <rect x="96" y="224" width="32" height="32" fill="#8E9CB8" />
  <rect x="128" y="224" width="32" height="32" fill="#4D5058" />
  <rect x="160" y="224" width="32" height="32" fill="#C0BEC1" />
  <rect x="192" y="224" width="32" height="32" fill="#4D484D" />
  <rect x="224" y="224" width="32" height="32" fill="#1F252E" />
</svg>
