<svg xmlns="http://www.w3.org/2000/svg" width="256" height="256" viewBox="0 0 256 256" shape-rendering="crispEdges" role="img" aria-labelledby="title desc">
  <title id="title">Echoes of Resistance</title>
  <desc id="desc">The emotional tone juxtaposes defiance against submission, symbolizing tension between two states. The chosen palette of black, dark violet, soft gold, and pale green underscores fear and hope—colors that invoke strong emotion and contrast. The arrangement features a central echo of soft gold that fights against darker edges, representing light weighted against heavy shadows. The asymmetry in placement creates a sense of imbalance, mirroring the conflict suggested by the seed. Broken pixels intercede in the structure, hinting at imperfections and the reality of struggle, forming a chaotic yet harmonious tension throughout the piece.</desc>
  <rect width="256" height="256" fill="#FFFFFF" />
  <rect x="0" y="0" width="32" height="32" fill="#000000" />
  <rect x="32" y="0" width="32" height="32" fill="#000000" />
  <rect x="64" y="0" width="32" height="32" fill="#4B0082" />
  <rect x="96" y="0" width="32" height="32" fill="#4B0082" />
  <rect x="128" y="0" width="32" height="32" fill="#000000" />
  <rect x="160" y="0" width="32" height="32" fill="#000000" />
  <rect x="192" y="0" width="32" height="32" fill="#111111" />
  <rect x="224" y="0" width="32" height="32" fill="#111111" />
  <rect x="0" y="32" width="32" height="32" fill="#000000" />
  <rect x="32" y="32" width="32" height="32" fill="#FFD700" />
  <rect x="64" y="32" width="32" height="32" fill="#FFD700" />
  <rect x="96" y="32" width="32" height="32" fill="#4B0082" />
  <rect x="128" y="32" width="32" height="32" fill="#4B0082" />
  <rect x="160" y="32" width="32" height="32" fill="#FFD700" />
  <rect x="192" y="32" width="32" height="32" fill="#000000" />
  <rect x="224" y="32" width="32" height="32" fill="#000000" />
  <rect x="0" y="64" width="32" height="32" fill="#111111" />
  <rect x="32" y="64" width="32" height="32" fill="#000000" />
  <rect x="64" y="64" width="32" height="32" fill="#4B0082" />
  <rect x="96" y="64" width="32" height="32" fill="#FFD700" />
  <rect x="128" y="64" width="32" height="32" fill="#004D00" />
  <rect x="160" y="64" width="32" height="32" fill="#004D00" />
  <rect x="192" y="64" width="32" height="32" fill="#000000" />
  <rect x="224" y="64" width="32" height="32" fill="#111111" />
  <rect x="0" y="96" width="32" height="32" fill="#000000" />
  <rect x="32" y="96" width="32" height="32" fill="#111111" />
  <rect x="64" y="96" width="32" height="32" fill="#111111" />
  <rect x="96" y="96" width="32" height="32" fill="#4B0082" />
  <rect x="128" y="96" width="32" height="32" fill="#FFFFE0" />
  <rect x="160" y="96" width="32" height="32" fill="#111111" />
  <rect x="192" y="96" width="32" height="32" fill="#111111" />
  <rect x="224" y="96" width="32" height="32" fill="#000000" />
  <rect x="0" y="128" width="32" height="32" fill="#4B0082" />
  <rect x="32" y="128" width="32" height="32" fill="#FFFFE0" />
  <rect x="64" y="128" width="32" height="32" fill="#4B0082" />
  <rect x="96" y="128" width="32" height="32" fill="#4B0082" />
  <rect x="128" y="128" width="32" height="32" fill="#111111" />
  <rect x="160" y="128" width="32" height="32" fill="#004D00" />
  <rect x="192" y="128" width="32" height="32" fill="#000000" />
  <rect x="224" y="128" width="32" height="32" fill="#111111" />
  <rect x="0" y="160" width="32" height="32" fill="#000000" />
  <rect x="32" y="160" width="32" height="32" fill="#000000" />
  <rect x="64" y="160" width="32" height="32" fill="#FFD700" />
  <rect x="96" y="160" width="32" height="32" fill="#4B0082" />
  <rect x="128" y="160" width="32" height="32" fill="#111111" />
  <rect x="160" y="160" width="32" height="32" fill="#4B0082" />
  <rect x="192" y="160" width="32" height="32" fill="#000000" />
  <rect x="224" y="160" width="32" height="32" fill="#000000" />
  <rect x="0" y="192" width="32" height="32" fill="#111111" />
  <rect x="32" y="192" width="32" height="32" fill="#4B0082" />
  <rect x="64" y="192" width="32" height="32" fill="#4B0082" />
  <rect x="96" y="192" width="32" height="32" fill="#FFD700" />
  <rect x="128" y="192" width="32" height="32" fill="#FFD700" />
  <rect x="160" y="192" width="32" height="32" fill="#4B0082" />
  <rect x="192" y="192" width="32" height="32" fill="#111111" />
  <rect x="224" y="192" width="32" height="32" fill="#000000" />
  <rect x="0" y="224" width="32" height="32" fill="#000000" />
  <rect x="32" y="224" width="32" height="32" fill="#000000" />
  <rect x="64" y="224" width="32" height="32" fill="#111111" />
  <rect x="96" y="224" width="32" height="32" fill="#000000" />
  <rect x="128" y="224" width="32" height="32" fill="#000000" />
  <rect x="160" y="224" width="32" height="32" fill="#000000" />
  <rect x="192" y="224" width="32" height="32" fill="#000000" />
  <rect x="224" y="224" width="32" height="32" fill="#000000" />
</svg>
