<svg xmlns="http://www.w3.org/2000/svg" width="256" height="256" viewBox="0 0 256 256" shape-rendering="crispEdges" role="img" aria-labelledby="title desc">
  <title id="title">Signal vs Noise</title>
  <desc id="desc">This composition captures the emotional tension between restlessness and peace. The palette of dark navy and hints of dim cyan represents the chaotic noise of memory and motion, while quiet whites engage as peaceful accents. The main contrast occurs at the center, where dense dark clusters meet lighter fields, symbolizing a struggle between intrusive thoughts and tranquil moments. Patterns of 'ladder' disrupt 'broken frame' elements, suggesting echoing memories amidst calm reflections, creating a dynamic visual dialogue without literal representation.</desc>
  <rect width="256" height="256" fill="#FFFFFF" />
  <rect x="0" y="0" width="32" height="32" fill="#000080" />
  <rect x="32" y="0" width="32" height="32" fill="#000000" />
  <rect x="64" y="0" width="32" height="32" fill="#002147" />
  <rect x="96" y="0" width="32" height="32" fill="#111111" />
  <rect x="128" y="0" width="32" height="32" fill="#222222" />
  <rect x="160" y="0" width="32" height="32" fill="#333333" />
  <rect x="192" y="0" width="32" height="32" fill="#4B92DB" />
  <rect x="224" y="0" width="32" height="32" fill="#B8D7E2" />
  <rect x="0" y="32" width="32" height="32" fill="#000000" />
  <rect x="32" y="32" width="32" height="32" fill="#111111" />
  <rect x="64" y="32" width="32" height="32" fill="#222222" />
  <rect x="96" y="32" width="32" height="32" fill="#333333" />
  <rect x="128" y="32" width="32" height="32" fill="#333333" />
  <rect x="160" y="32" width="32" height="32" fill="#555555" />
  <rect x="192" y="32" width="32" height="32" fill="#89C5E7" />
  <rect x="224" y="32" width="32" height="32" fill="#E6E6E6" />
  <rect x="0" y="64" width="32" height="32" fill="#001F3F" />
  <rect x="32" y="64" width="32" height="32" fill="#000000" />
  <rect x="64" y="64" width="32" height="32" fill="#4B92DB" />
  <rect x="96" y="64" width="32" height="32" fill="#326B92" />
  <rect x="128" y="64" width="32" height="32" fill="#004B87" />
  <rect x="160" y="64" width="32" height="32" fill="#0A1D30" />
  <rect x="192" y="64" width="32" height="32" fill="#002A40" />
  <rect x="224" y="64" width="32" height="32" fill="#D7E1E8" />
  <rect x="0" y="96" width="32" height="32" fill="#2C3E50" />
  <rect x="32" y="96" width="32" height="32" fill="#001F3F" />
  <rect x="64" y="96" width="32" height="32" fill="#002147" />
  <rect x="96" y="96" width="32" height="32" fill="#003B5C" />
  <rect x="128" y="96" width="32" height="32" fill="#AAB8D0" />
  <rect x="160" y="96" width="32" height="32" fill="#000000" />
  <rect x="192" y="96" width="32" height="32" fill="#89C5E7" />
  <rect x="224" y="96" width="32" height="32" fill="#00A1B5" />
  <rect x="0" y="128" width="32" height="32" fill="#003B5C" />
  <rect x="32" y="128" width="32" height="32" fill="#4B92DB" />
  <rect x="64" y="128" width="32" height="32" fill="#B8D7E2" />
  <rect x="96" y="128" width="32" height="32" fill="#CCC8C8" />
  <rect x="128" y="128" width="32" height="32" fill="#333333" />
  <rect x="160" y="128" width="32" height="32" fill="#222222" />
  <rect x="192" y="128" width="32" height="32" fill="#111111" />
  <rect x="224" y="128" width="32" height="32" fill="#000000" />
  <rect x="0" y="160" width="32" height="32" fill="#9B5C3B" />
  <rect x="32" y="160" width="32" height="32" fill="#4B92DB" />
  <rect x="64" y="160" width="32" height="32" fill="#002147" />
  <rect x="96" y="160" width="32" height="32" fill="#0C374C" />
  <rect x="128" y="160" width="32" height="32" fill="#006B8C" />
  <rect x="160" y="160" width="32" height="32" fill="#004B87" />
  <rect x="192" y="160" width="32" height="32" fill="#005F87" />
  <rect x="224" y="160" width="32" height="32" fill="#C3D9E7" />
  <rect x="0" y="192" width="32" height="32" fill="#D1E8F2" />
  <rect x="32" y="192" width="32" height="32" fill="#D4DBE1" />
  <rect x="64" y="192" width="32" height="32" fill="#8DBBD3" />
  <rect x="96" y="192" width="32" height="32" fill="#0B95B1" />
  <rect x="128" y="192" width="32" height="32" fill="#9DA8B6" />
  <rect x="160" y="192" width="32" height="32" fill="#7EB9C3" />
  <rect x="192" y="192" width="32" height="32" fill="#C6E2EB" />
  <rect x="224" y="192" width="32" height="32" fill="#2E4357" />
  <rect x="0" y="224" width="32" height="32" fill="#B8D7E2" />
  <rect x="32" y="224" width="32" height="32" fill="#E6E6E6" />
  <rect x="64" y="224" width="32" height="32" fill="#C4C4C4" />
  <rect x="96" y="224" width="32" height="32" fill="#869BA1" />
  <rect x="128" y="224" width="32" height="32" fill="#65777B" />
  <rect x="160" y="224" width="32" height="32" fill="#22333B" />
  <rect x="192" y="224" width="32" height="32" fill="#000000" />
  <rect x="224" y="224" width="32" height="32" fill="#000000" />
</svg>
