<svg xmlns="http://www.w3.org/2000/svg" width="256" height="256" viewBox="0 0 256 256" shape-rendering="crispEdges" role="img" aria-labelledby="title desc">
  <title id="title">Signal vs Noise</title>
  <desc id="desc">This composition embodies the emotional dynamic of tenderness and rage, contrasted by the calmness of muted colors and the turmoil of saturated tones. The palette features deep blacks to express rage, and soft pale blues to introduce tenderness, allowing both emotions to collide within the framed layout. A central pattern of pulse marks (representing rage) collides with the veil-like bands of blue, suggesting an interplay between an overwhelming force and a soothing presence. The flow moves inward, illustrating a rising tension from the edges toward the center, where the conflict culminates. Broken pixels create interruptions in the smooth transitions, fostering a sense of unease amidst the gentle textures. The negative space remains strategically positioned to suggest quiet amid the chaos, ensuring readability in the grid structure.</desc>
  <rect width="256" height="256" fill="#FFFFFF" />
  <rect x="0" y="0" width="32" height="32" fill="#000000" />
  <rect x="32" y="0" width="32" height="32" fill="#FF0000" />
  <rect x="64" y="0" width="32" height="32" fill="#FF0000" />
  <rect x="96" y="0" width="32" height="32" fill="#000000" />
  <rect x="128" y="0" width="32" height="32" fill="#000000" />
  <rect x="160" y="0" width="32" height="32" fill="#000000" />
  <rect x="192" y="0" width="32" height="32" fill="#000000" />
  <rect x="224" y="0" width="32" height="32" fill="#000000" />
  <rect x="0" y="32" width="32" height="32" fill="#000000" />
  <rect x="32" y="32" width="32" height="32" fill="#000000" />
  <rect x="64" y="32" width="32" height="32" fill="#000000" />
  <rect x="96" y="32" width="32" height="32" fill="#000000" />
  <rect x="128" y="32" width="32" height="32" fill="#00BFFF" />
  <rect x="160" y="32" width="32" height="32" fill="#00BFFF" />
  <rect x="192" y="32" width="32" height="32" fill="#000000" />
  <rect x="224" y="32" width="32" height="32" fill="#000000" />
  <rect x="0" y="64" width="32" height="32" fill="#000000" />
  <rect x="32" y="64" width="32" height="32" fill="#000000" />
  <rect x="64" y="64" width="32" height="32" fill="#000000" />
  <rect x="96" y="64" width="32" height="32" fill="#00BFFF" />
  <rect x="128" y="64" width="32" height="32" fill="#00BFFF" />
  <rect x="160" y="64" width="32" height="32" fill="#00BFFF" />
  <rect x="192" y="64" width="32" height="32" fill="#000000" />
  <rect x="224" y="64" width="32" height="32" fill="#000000" />
  <rect x="0" y="96" width="32" height="32" fill="#FFFFFF" />
  <rect x="32" y="96" width="32" height="32" fill="#FFFFFF" />
  <rect x="64" y="96" width="32" height="32" fill="#FFFFFF" />
  <rect x="96" y="96" width="32" height="32" fill="#00BFFF" />
  <rect x="128" y="96" width="32" height="32" fill="#00BFFF" />
  <rect x="160" y="96" width="32" height="32" fill="#FFFFFF" />
  <rect x="192" y="96" width="32" height="32" fill="#FFFFFF" />
  <rect x="224" y="96" width="32" height="32" fill="#FFFFFF" />
  <rect x="0" y="128" width="32" height="32" fill="#FFFFFF" />
  <rect x="32" y="128" width="32" height="32" fill="#CCCCCC" />
  <rect x="64" y="128" width="32" height="32" fill="#00BFFF" />
  <rect x="96" y="128" width="32" height="32" fill="#00BFFF" />
  <rect x="128" y="128" width="32" height="32" fill="#CCCCCC" />
  <rect x="160" y="128" width="32" height="32" fill="#FFFFFF" />
  <rect x="192" y="128" width="32" height="32" fill="#FFFFFF" />
  <rect x="224" y="128" width="32" height="32" fill="#FFFFFF" />
  <rect x="0" y="160" width="32" height="32" fill="#FFFFFF" />
  <rect x="32" y="160" width="32" height="32" fill="#00BFFF" />
  <rect x="64" y="160" width="32" height="32" fill="#ADD8E6" />
  <rect x="96" y="160" width="32" height="32" fill="#ADD8E6" />
  <rect x="128" y="160" width="32" height="32" fill="#00BFFF" />
  <rect x="160" y="160" width="32" height="32" fill="#FFFFFF" />
  <rect x="192" y="160" width="32" height="32" fill="#FFFFFF" />
  <rect x="224" y="160" width="32" height="32" fill="#FFFFFF" />
  <rect x="0" y="192" width="32" height="32" fill="#FFFFFF" />
  <rect x="32" y="192" width="32" height="32" fill="#CCCCCC" />
  <rect x="64" y="192" width="32" height="32" fill="#00BFFF" />
  <rect x="96" y="192" width="32" height="32" fill="#00BFFF" />
  <rect x="128" y="192" width="32" height="32" fill="#00BFFF" />
  <rect x="160" y="192" width="32" height="32" fill="#FFFFFF" />
  <rect x="192" y="192" width="32" height="32" fill="#FFFFFF" />
  <rect x="224" y="192" width="32" height="32" fill="#FFFFFF" />
  <rect x="0" y="224" width="32" height="32" fill="#FFFFFF" />
  <rect x="32" y="224" width="32" height="32" fill="#FFFFFF" />
  <rect x="64" y="224" width="32" height="32" fill="#FFFFFF" />
  <rect x="96" y="224" width="32" height="32" fill="#FFFFFF" />
  <rect x="128" y="224" width="32" height="32" fill="#FFFFFF" />
  <rect x="160" y="224" width="32" height="32" fill="#FFFFFF" />
  <rect x="192" y="224" width="32" height="32" fill="#FFFFFF" />
  <rect x="224" y="224" width="32" height="32" fill="#FFFFFF" />
</svg>
