<svg xmlns="http://www.w3.org/2000/svg" width="256" height="256" viewBox="0 0 256 256" shape-rendering="crispEdges" role="img" aria-labelledby="title desc">
  <title id="title">Ashen Sparks</title>
  <desc id="desc">The emotional tone reflects a dichotomy between the vibrancy of sparks and the stillness of ash. The palette of muted gray tones and a few bright accents conveys a balance of pressure and release, resonating with the themes of resilience and fragility. The contrast emerges sharply in the center, where the jagged patterns of ash collide with the softer edges of the sparks, creating an ongoing argument within the space. The arrangement is designed to evoke a sense of dynamic tension between vivid and muted spaces, reflecting an inner struggle that aligns with the seed's themes of memory and erasure.</desc>
  <rect width="256" height="256" fill="#FFFFFF" />
  <rect x="0" y="0" width="32" height="32" fill="#FAFAFA" />
  <rect x="32" y="0" width="32" height="32" fill="#E0E0E0" />
  <rect x="64" y="0" width="32" height="32" fill="#B0B0B0" />
  <rect x="96" y="0" width="32" height="32" fill="#FF2F2F" />
  <rect x="128" y="0" width="32" height="32" fill="#F4F4F4" />
  <rect x="160" y="0" width="32" height="32" fill="#8B8B8B" />
  <rect x="192" y="0" width="32" height="32" fill="#D9D9D9" />
  <rect x="224" y="0" width="32" height="32" fill="#FFFFFF" />
  <rect x="0" y="32" width="32" height="32" fill="#E8E8E8" />
  <rect x="32" y="32" width="32" height="32" fill="#FFFFFF" />
  <rect x="64" y="32" width="32" height="32" fill="#B0B0B0" />
  <rect x="96" y="32" width="32" height="32" fill="#FF6B6B" />
  <rect x="128" y="32" width="32" height="32" fill="#E0E0E0" />
  <rect x="160" y="32" width="32" height="32" fill="#D9D9D9" />
  <rect x="192" y="32" width="32" height="32" fill="#F4F4F4" />
  <rect x="224" y="32" width="32" height="32" fill="#CCCCCC" />
  <rect x="0" y="64" width="32" height="32" fill="#B0B0B0" />
  <rect x="32" y="64" width="32" height="32" fill="#FF4F4F" />
  <rect x="64" y="64" width="32" height="32" fill="#D9D9D9" />
  <rect x="96" y="64" width="32" height="32" fill="#F4F4F4" />
  <rect x="128" y="64" width="32" height="32" fill="#C0C0C0" />
  <rect x="160" y="64" width="32" height="32" fill="#F76B6B" />
  <rect x="192" y="64" width="32" height="32" fill="#E8E8E8" />
  <rect x="224" y="64" width="32" height="32" fill="#A3A3A3" />
  <rect x="0" y="96" width="32" height="32" fill="#F0F0F0" />
  <rect x="32" y="96" width="32" height="32" fill="#FF7373" />
  <rect x="64" y="96" width="32" height="32" fill="#B0B0B0" />
  <rect x="96" y="96" width="32" height="32" fill="#CCCCCC" />
  <rect x="128" y="96" width="32" height="32" fill="#E8E8E8" />
  <rect x="160" y="96" width="32" height="32" fill="#D0D0D0" />
  <rect x="192" y="96" width="32" height="32" fill="#2F2F2F" />
  <rect x="224" y="96" width="32" height="32" fill="#757575" />
  <rect x="0" y="128" width="32" height="32" fill="#8B8B8B" />
  <rect x="32" y="128" width="32" height="32" fill="#FF9999" />
  <rect x="64" y="128" width="32" height="32" fill="#C0C0C0" />
  <rect x="96" y="128" width="32" height="32" fill="#D9D9D9" />
  <rect x="128" y="128" width="32" height="32" fill="#F0F0F0" />
  <rect x="160" y="128" width="32" height="32" fill="#7F7F7F" />
  <rect x="192" y="128" width="32" height="32" fill="#F4F4F4" />
  <rect x="224" y="128" width="32" height="32" fill="#A3A3A3" />
  <rect x="0" y="160" width="32" height="32" fill="#FAFAFA" />
  <rect x="32" y="160" width="32" height="32" fill="#DCDCDC" />
  <rect x="64" y="160" width="32" height="32" fill="#FF8080" />
  <rect x="96" y="160" width="32" height="32" fill="#B6B6B6" />
  <rect x="128" y="160" width="32" height="32" fill="#E0E0E0" />
  <rect x="160" y="160" width="32" height="32" fill="#A0A0A0" />
  <rect x="192" y="160" width="32" height="32" fill="#F2F2F2" />
  <rect x="224" y="160" width="32" height="32" fill="#CCCCCC" />
  <rect x="0" y="192" width="32" height="32" fill="#E0E0E0" />
  <rect x="32" y="192" width="32" height="32" fill="#FF8F8F" />
  <rect x="64" y="192" width="32" height="32" fill="#C0C0C0" />
  <rect x="96" y="192" width="32" height="32" fill="#B0B0B0" />
  <rect x="128" y="192" width="32" height="32" fill="#D9D9D9" />
  <rect x="160" y="192" width="32" height="32" fill="#F4F4F4" />
  <rect x="192" y="192" width="32" height="32" fill="#848484" />
  <rect x="224" y="192" width="32" height="32" fill="#F0F0F0" />
  <rect x="0" y="224" width="32" height="32" fill="#D9D9D9" />
  <rect x="32" y="224" width="32" height="32" fill="#FCCFDC" />
  <rect x="64" y="224" width="32" height="32" fill="#C0C0C0" />
  <rect x="96" y="224" width="32" height="32" fill="#A3A3A3" />
  <rect x="128" y="224" width="32" height="32" fill="#F4F4F4" />
  <rect x="160" y="224" width="32" height="32" fill="#B0B0B0" />
  <rect x="192" y="224" width="32" height="32" fill="#C0C0C0" />
  <rect x="224" y="224" width="32" height="32" fill="#FFFFFF" />
</svg>
