<svg xmlns="http://www.w3.org/2000/svg" width="256" height="256" viewBox="0 0 256 256" shape-rendering="crispEdges" role="img" aria-labelledby="title desc">
  <title id="title">Tension in Balance</title>
  <desc id="desc">The emotional tone reflects a clash between the intense feelings of envy and gratitude, translating into a jarring yet harmonious color composition. The palette consists of black and dark violet for depth and pressure, contrasted by the soft gold and pale green that evoke a sense of warmth and hope. The central theme of imbalance is illustrated through a pattern where dense colors collide with lighter ones, creating a sense of unresolved tension. An edge style of 'pixel bleed' adds to the feeling of imperfection, while leaving negative space allows for moments of quiet amidst the visual chaos.</desc>
  <rect width="256" height="256" fill="#FFFFFF" />
  <rect x="0" y="0" width="32" height="32" fill="#2A2C2E" />
  <rect x="32" y="0" width="32" height="32" fill="#3C4A56" />
  <rect x="64" y="0" width="32" height="32" fill="#8BAAB2" />
  <rect x="96" y="0" width="32" height="32" fill="#4F8F1A" />
  <rect x="128" y="0" width="32" height="32" fill="#C78C1D" />
  <rect x="160" y="0" width="32" height="32" fill="#EAD5C0" />
  <rect x="192" y="0" width="32" height="32" fill="#1A1A1A" />
  <rect x="224" y="0" width="32" height="32" fill="#4C4E51" />
  <rect x="0" y="32" width="32" height="32" fill="#6F8DAA" />
  <rect x="32" y="32" width="32" height="32" fill="#8B6F3D" />
  <rect x="64" y="32" width="32" height="32" fill="#2D3B2E" />
  <rect x="96" y="32" width="32" height="32" fill="#D0D6BF" />
  <rect x="128" y="32" width="32" height="32" fill="#FAF3E0" />
  <rect x="160" y="32" width="32" height="32" fill="#7E7E7E" />
  <rect x="192" y="32" width="32" height="32" fill="#3E3E4C" />
  <rect x="224" y="32" width="32" height="32" fill="#1F1F1F" />
  <rect x="0" y="64" width="32" height="32" fill="#4A2C16" />
  <rect x="32" y="64" width="32" height="32" fill="#DAAF7E" />
  <rect x="64" y="64" width="32" height="32" fill="#423B23" />
  <rect x="96" y="64" width="32" height="32" fill="#4A2E14" />
  <rect x="128" y="64" width="32" height="32" fill="#7F8C8C" />
  <rect x="160" y="64" width="32" height="32" fill="#3E7B5B" />
  <rect x="192" y="64" width="32" height="32" fill="#1B9C6D" />
  <rect x="224" y="64" width="32" height="32" fill="#7D95A4" />
  <rect x="0" y="96" width="32" height="32" fill="#FFCE93" />
  <rect x="32" y="96" width="32" height="32" fill="#B0E4E7" />
  <rect x="64" y="96" width="32" height="32" fill="#3E5548" />
  <rect x="96" y="96" width="32" height="32" fill="#B6E3B8" />
  <rect x="128" y="96" width="32" height="32" fill="#D7C7A8" />
  <rect x="160" y="96" width="32" height="32" fill="#D12A14" />
  <rect x="192" y="96" width="32" height="32" fill="#101A28" />
  <rect x="224" y="96" width="32" height="32" fill="#5E829A" />
  <rect x="0" y="128" width="32" height="32" fill="#2AC68C" />
  <rect x="32" y="128" width="32" height="32" fill="#D3C3A4" />
  <rect x="64" y="128" width="32" height="32" fill="#A8350B" />
  <rect x="96" y="128" width="32" height="32" fill="#EBF5FC" />
  <rect x="128" y="128" width="32" height="32" fill="#A4B4A5" />
  <rect x="160" y="128" width="32" height="32" fill="#795953" />
  <rect x="192" y="128" width="32" height="32" fill="#3A3C3F" />
  <rect x="224" y="128" width="32" height="32" fill="#FAF3E0" />
  <rect x="0" y="160" width="32" height="32" fill="#2F4A65" />
  <rect x="32" y="160" width="32" height="32" fill="#1B7A1E" />
  <rect x="64" y="160" width="32" height="32" fill="#FF5C5C" />
  <rect x="96" y="160" width="32" height="32" fill="#4DB6AC" />
  <rect x="128" y="160" width="32" height="32" fill="#A1C5D3" />
  <rect x="160" y="160" width="32" height="32" fill="#C7D9D5" />
  <rect x="192" y="160" width="32" height="32" fill="#4A3A30" />
  <rect x="224" y="160" width="32" height="32" fill="#25262D" />
  <rect x="0" y="192" width="32" height="32" fill="#104F4F" />
  <rect x="32" y="192" width="32" height="32" fill="#3B5D3D" />
  <rect x="64" y="192" width="32" height="32" fill="#201305" />
  <rect x="96" y="192" width="32" height="32" fill="#E2A434" />
  <rect x="128" y="192" width="32" height="32" fill="#222F5C" />
  <rect x="160" y="192" width="32" height="32" fill="#8D6B64" />
  <rect x="192" y="192" width="32" height="32" fill="#582F2F" />
  <rect x="224" y="192" width="32" height="32" fill="#7F8E8A" />
  <rect x="0" y="224" width="32" height="32" fill="#013D3E" />
  <rect x="32" y="224" width="32" height="32" fill="#0A4A3A" />
  <rect x="64" y="224" width="32" height="32" fill="#FFEDC3" />
  <rect x="96" y="224" width="32" height="32" fill="#2A4A45" />
  <rect x="128" y="224" width="32" height="32" fill="#822B35" />
  <rect x="160" y="224" width="32" height="32" fill="#D4D4D5" />
  <rect x="192" y="224" width="32" height="32" fill="#7F9401" />
  <rect x="224" y="224" width="32" height="32" fill="#C1D1B5" />
</svg>
