<svg xmlns="http://www.w3.org/2000/svg" width="256" height="256" viewBox="0 0 256 256" shape-rendering="crispEdges" role="img" aria-labelledby="title desc">
  <title id="title">Fractured Emotion</title>
  <desc id="desc">The emotional tone juxtaposes warmth and heartbreak, represented through the palette of pinks and reds for love against gray and dark maroon for betrayal. The layout is a split that reflects a fractured symmetry, where the lower half features chaotic patterns, while the upper region offers a more layered and split-screen feel. The contrast lies in the density of colors colliding with open spaces, creating a rhythm that echoes the themes of love's warmth interrupted by betrayal's cold edges, symbolized by fragmented placements within the structure.</desc>
  <rect width="256" height="256" fill="#FFFFFF" />
  <rect x="0" y="0" width="32" height="32" fill="#FFB6C1" />
  <rect x="32" y="0" width="32" height="32" fill="#FF69B4" />
  <rect x="64" y="0" width="32" height="32" fill="#FF1493" />
  <rect x="96" y="0" width="32" height="32" fill="#DC143C" />
  <rect x="128" y="0" width="32" height="32" fill="#8B0000" />
  <rect x="160" y="0" width="32" height="32" fill="#B22222" />
  <rect x="192" y="0" width="32" height="32" fill="#A52A2A" />
  <rect x="224" y="0" width="32" height="32" fill="#800000" />
  <rect x="0" y="32" width="32" height="32" fill="#FFFFFF" />
  <rect x="32" y="32" width="32" height="32" fill="#F0E68C" />
  <rect x="64" y="32" width="32" height="32" fill="#D3D3D3" />
  <rect x="96" y="32" width="32" height="32" fill="#DCDCDC" />
  <rect x="128" y="32" width="32" height="32" fill="#C0C0C0" />
  <rect x="160" y="32" width="32" height="32" fill="#A9A9A9" />
  <rect x="192" y="32" width="32" height="32" fill="#808080" />
  <rect x="224" y="32" width="32" height="32" fill="#696969" />
  <rect x="0" y="64" width="32" height="32" fill="#B22222" />
  <rect x="32" y="64" width="32" height="32" fill="#FF6347" />
  <rect x="64" y="64" width="32" height="32" fill="#FF4500" />
  <rect x="96" y="64" width="32" height="32" fill="#FF8C00" />
  <rect x="128" y="64" width="32" height="32" fill="#FFA500" />
  <rect x="160" y="64" width="32" height="32" fill="#FFD700" />
  <rect x="192" y="64" width="32" height="32" fill="#FFFFE0" />
  <rect x="224" y="64" width="32" height="32" fill="#FFFACD" />
  <rect x="0" y="96" width="32" height="32" fill="#808080" />
  <rect x="32" y="96" width="32" height="32" fill="#696969" />
  <rect x="64" y="96" width="32" height="32" fill="#A9A9A9" />
  <rect x="96" y="96" width="32" height="32" fill="#C0C0C0" />
  <rect x="128" y="96" width="32" height="32" fill="#D3D3D3" />
  <rect x="160" y="96" width="32" height="32" fill="#DCDCDC" />
  <rect x="192" y="96" width="32" height="32" fill="#F0E68C" />
  <rect x="224" y="96" width="32" height="32" fill="#FFFFFF" />
  <rect x="0" y="128" width="32" height="32" fill="#FF6347" />
  <rect x="32" y="128" width="32" height="32" fill="#DC143C" />
  <rect x="64" y="128" width="32" height="32" fill="#FF69B4" />
  <rect x="96" y="128" width="32" height="32" fill="#FF1493" />
  <rect x="128" y="128" width="32" height="32" fill="#B22222" />
  <rect x="160" y="128" width="32" height="32" fill="#800000" />
  <rect x="192" y="128" width="32" height="32" fill="#8B0000" />
  <rect x="224" y="128" width="32" height="32" fill="#A52A2A" />
  <rect x="0" y="160" width="32" height="32" fill="#D3D3D3" />
  <rect x="32" y="160" width="32" height="32" fill="#C0C0C0" />
  <rect x="64" y="160" width="32" height="32" fill="#A9A9A9" />
  <rect x="96" y="160" width="32" height="32" fill="#808080" />
  <rect x="128" y="160" width="32" height="32" fill="#696969" />
  <rect x="160" y="160" width="32" height="32" fill="#FFFFFF" />
  <rect x="192" y="160" width="32" height="32" fill="#F0E68C" />
  <rect x="224" y="160" width="32" height="32" fill="#DCDCDC" />
  <rect x="0" y="192" width="32" height="32" fill="#FF4500" />
  <rect x="32" y="192" width="32" height="32" fill="#FF8C00" />
  <rect x="64" y="192" width="32" height="32" fill="#FFA500" />
  <rect x="96" y="192" width="32" height="32" fill="#FFD700" />
  <rect x="128" y="192" width="32" height="32" fill="#FFFFE0" />
  <rect x="160" y="192" width="32" height="32" fill="#FFFACD" />
  <rect x="192" y="192" width="32" height="32" fill="#FFE4B5" />
  <rect x="224" y="192" width="32" height="32" fill="#FFDEAD" />
  <rect x="0" y="224" width="32" height="32" fill="#000000" />
  <rect x="32" y="224" width="32" height="32" fill="#000000" />
  <rect x="64" y="224" width="32" height="32" fill="#000000" />
  <rect x="96" y="224" width="32" height="32" fill="#000000" />
  <rect x="128" y="224" width="32" height="32" fill="#000000" />
  <rect x="160" y="224" width="32" height="32" fill="#000000" />
  <rect x="192" y="224" width="32" height="32" fill="#000000" />
  <rect x="224" y="224" width="32" height="32" fill="#000000" />
</svg>
