<svg xmlns="http://www.w3.org/2000/svg" width="256" height="256" viewBox="0 0 256 256" shape-rendering="crispEdges" role="img" aria-labelledby="title desc">
  <title id="title">Zigzagging Emotions</title>
  <desc id="desc">This piece embodies the emotional tension between fear and hope. The use of dark colors like black and dark violet represents fear's heaviness, while the soft glow of pale green symbolizes hope. The jagged and sharp pixel patterns create a sense of disruption, reflecting conflict, while the scattered placements evoke both chaos and a hint of upward movement indicative of hope. The placement of broken pixels introduces imperfection and complexity, suggesting that the path to hope is not linear but fraught with challenges.</desc>
  <rect width="256" height="256" fill="#FFFFFF" />
  <rect x="0" y="0" width="32" height="32" fill="#000000" />
  <rect x="32" y="0" width="32" height="32" fill="#000000" />
  <rect x="64" y="0" width="32" height="32" fill="#6A0FAD" />
  <rect x="96" y="0" width="32" height="32" fill="#6A0FAD" />
  <rect x="128" y="0" width="32" height="32" fill="#000000" />
  <rect x="160" y="0" width="32" height="32" fill="#000000" />
  <rect x="192" y="0" width="32" height="32" fill="#000000" />
  <rect x="224" y="0" width="32" height="32" fill="#000000" />
  <rect x="0" y="32" width="32" height="32" fill="#6A0FAD" />
  <rect x="32" y="32" width="32" height="32" fill="#6A0FAD" />
  <rect x="64" y="32" width="32" height="32" fill="#000000" />
  <rect x="96" y="32" width="32" height="32" fill="#6A0FAD" />
  <rect x="128" y="32" width="32" height="32" fill="#6A0FAD" />
  <rect x="160" y="32" width="32" height="32" fill="#000000" />
  <rect x="192" y="32" width="32" height="32" fill="#6A0FAD" />
  <rect x="224" y="32" width="32" height="32" fill="#6A0FAD" />
  <rect x="0" y="64" width="32" height="32" fill="#6A0FAD" />
  <rect x="32" y="64" width="32" height="32" fill="#6A0FAD" />
  <rect x="64" y="64" width="32" height="32" fill="#FFFFFF" />
  <rect x="96" y="64" width="32" height="32" fill="#6A0FAD" />
  <rect x="128" y="64" width="32" height="32" fill="#000000" />
  <rect x="160" y="64" width="32" height="32" fill="#000000" />
  <rect x="192" y="64" width="32" height="32" fill="#6A0FAD" />
  <rect x="224" y="64" width="32" height="32" fill="#6A0FAD" />
  <rect x="0" y="96" width="32" height="32" fill="#000000" />
  <rect x="32" y="96" width="32" height="32" fill="#6A0FAD" />
  <rect x="64" y="96" width="32" height="32" fill="#6A0FAD" />
  <rect x="96" y="96" width="32" height="32" fill="#000000" />
  <rect x="128" y="96" width="32" height="32" fill="#000000" />
  <rect x="160" y="96" width="32" height="32" fill="#6A0FAD" />
  <rect x="192" y="96" width="32" height="32" fill="#6A0FAD" />
  <rect x="224" y="96" width="32" height="32" fill="#6A0FAD" />
  <rect x="0" y="128" width="32" height="32" fill="#6A0FAD" />
  <rect x="32" y="128" width="32" height="32" fill="#6A0FAD" />
  <rect x="64" y="128" width="32" height="32" fill="#6A0FAD" />
  <rect x="96" y="128" width="32" height="32" fill="#000000" />
  <rect x="128" y="128" width="32" height="32" fill="#000000" />
  <rect x="160" y="128" width="32" height="32" fill="#000000" />
  <rect x="192" y="128" width="32" height="32" fill="#6A0FAD" />
  <rect x="224" y="128" width="32" height="32" fill="#FFFFFF" />
  <rect x="0" y="160" width="32" height="32" fill="#FFFFFF" />
  <rect x="32" y="160" width="32" height="32" fill="#000000" />
  <rect x="64" y="160" width="32" height="32" fill="#6A0FAD" />
  <rect x="96" y="160" width="32" height="32" fill="#6A0FAD" />
  <rect x="128" y="160" width="32" height="32" fill="#000000" />
  <rect x="160" y="160" width="32" height="32" fill="#6A0FAD" />
  <rect x="192" y="160" width="32" height="32" fill="#000000" />
  <rect x="224" y="160" width="32" height="32" fill="#000000" />
  <rect x="0" y="192" width="32" height="32" fill="#000000" />
  <rect x="32" y="192" width="32" height="32" fill="#6A0FAD" />
  <rect x="64" y="192" width="32" height="32" fill="#6A0FAD" />
  <rect x="96" y="192" width="32" height="32" fill="#6A0FAD" />
  <rect x="128" y="192" width="32" height="32" fill="#000000" />
  <rect x="160" y="192" width="32" height="32" fill="#6A0FAD" />
  <rect x="192" y="192" width="32" height="32" fill="#000000" />
  <rect x="224" y="192" width="32" height="32" fill="#000000" />
  <rect x="0" y="224" width="32" height="32" fill="#000000" />
  <rect x="32" y="224" width="32" height="32" fill="#000000" />
  <rect x="64" y="224" width="32" height="32" fill="#6A0FAD" />
  <rect x="96" y="224" width="32" height="32" fill="#FFFFFF" />
  <rect x="128" y="224" width="32" height="32" fill="#FFFFFF" />
  <rect x="160" y="224" width="32" height="32" fill="#00FF7F" />
  <rect x="192" y="224" width="32" height="32" fill="#6A0FAD" />
  <rect x="224" y="224" width="32" height="32" fill="#000000" />
</svg>
