<svg xmlns="http://www.w3.org/2000/svg" width="256" height="256" viewBox="0 0 256 256" shape-rendering="crispEdges" role="img" aria-labelledby="title desc">
  <title id="title">Echoes of Contrast</title>
  <desc id="desc">The emotional tone captures the tension between longing and resolve—represented through a rhythmic dance of soft and severe colors. The palette includes powder pink and warm white to evoke a sense of yearning, while carbon black and sharp crimson provide dramatic contrasts that embody strength and clarity. The pattern features dense clusters of 'shatter' shapes for longing, interrupted by organized 'constellation' clusters representing resolve. The main collision is located towards the center, creating an intentional disruption within the flow, suggesting the struggle of feelings breaking through a quiet channel of negative space.</desc>
  <rect width="256" height="256" fill="#FFFFFF" />
  <rect x="0" y="0" width="32" height="32" fill="#FFC0CB" />
  <rect x="32" y="0" width="32" height="32" fill="#FFFFFF" />
  <rect x="64" y="0" width="32" height="32" fill="#FFC0CB" />
  <rect x="96" y="0" width="32" height="32" fill="#FFFFFF" />
  <rect x="128" y="0" width="32" height="32" fill="#FFC0CB" />
  <rect x="160" y="0" width="32" height="32" fill="#FFFFFF" />
  <rect x="192" y="0" width="32" height="32" fill="#FFC0CB" />
  <rect x="224" y="0" width="32" height="32" fill="#FFFFFF" />
  <rect x="0" y="32" width="32" height="32" fill="#FFFFFF" />
  <rect x="32" y="32" width="32" height="32" fill="#FFFFFF" />
  <rect x="64" y="32" width="32" height="32" fill="#FFC0CB" />
  <rect x="96" y="32" width="32" height="32" fill="#FFC0CB" />
  <rect x="128" y="32" width="32" height="32" fill="#FFFFFF" />
  <rect x="160" y="32" width="32" height="32" fill="#FFFFFF" />
  <rect x="192" y="32" width="32" height="32" fill="#FFC0CB" />
  <rect x="224" y="32" width="32" height="32" fill="#FFFFFF" />
  <rect x="0" y="64" width="32" height="32" fill="#FFFFFF" />
  <rect x="32" y="64" width="32" height="32" fill="#FFC0CB" />
  <rect x="64" y="64" width="32" height="32" fill="#000000" />
  <rect x="96" y="64" width="32" height="32" fill="#000000" />
  <rect x="128" y="64" width="32" height="32" fill="#FFC0CB" />
  <rect x="160" y="64" width="32" height="32" fill="#FFFFFF" />
  <rect x="192" y="64" width="32" height="32" fill="#FFFFFF" />
  <rect x="224" y="64" width="32" height="32" fill="#FFFFFF" />
  <rect x="0" y="96" width="32" height="32" fill="#FFC0CB" />
  <rect x="32" y="96" width="32" height="32" fill="#000000" />
  <rect x="64" y="96" width="32" height="32" fill="#000000" />
  <rect x="96" y="96" width="32" height="32" fill="#000000" />
  <rect x="128" y="96" width="32" height="32" fill="#000000" />
  <rect x="160" y="96" width="32" height="32" fill="#FFC0CB" />
  <rect x="192" y="96" width="32" height="32" fill="#FFC0CB" />
  <rect x="224" y="96" width="32" height="32" fill="#FFFFFF" />
  <rect x="0" y="128" width="32" height="32" fill="#FFFFFF" />
  <rect x="32" y="128" width="32" height="32" fill="#000000" />
  <rect x="64" y="128" width="32" height="32" fill="#FF0000" />
  <rect x="96" y="128" width="32" height="32" fill="#000000" />
  <rect x="128" y="128" width="32" height="32" fill="#000000" />
  <rect x="160" y="128" width="32" height="32" fill="#FFFFFF" />
  <rect x="192" y="128" width="32" height="32" fill="#000000" />
  <rect x="224" y="128" width="32" height="32" fill="#000000" />
  <rect x="0" y="160" width="32" height="32" fill="#FFFFFF" />
  <rect x="32" y="160" width="32" height="32" fill="#FFFFFF" />
  <rect x="64" y="160" width="32" height="32" fill="#000000" />
  <rect x="96" y="160" width="32" height="32" fill="#FFC0CB" />
  <rect x="128" y="160" width="32" height="32" fill="#FFC0CB" />
  <rect x="160" y="160" width="32" height="32" fill="#FFC0CB" />
  <rect x="192" y="160" width="32" height="32" fill="#FFFFFF" />
  <rect x="224" y="160" width="32" height="32" fill="#FFFFFF" />
  <rect x="0" y="192" width="32" height="32" fill="#FFFFFF" />
  <rect x="32" y="192" width="32" height="32" fill="#FFC0CB" />
  <rect x="64" y="192" width="32" height="32" fill="#000000" />
  <rect x="96" y="192" width="32" height="32" fill="#000000" />
  <rect x="128" y="192" width="32" height="32" fill="#FFFFFF" />
  <rect x="160" y="192" width="32" height="32" fill="#FFFFFF" />
  <rect x="192" y="192" width="32" height="32" fill="#FFC0CB" />
  <rect x="224" y="192" width="32" height="32" fill="#FFFFFF" />
  <rect x="0" y="224" width="32" height="32" fill="#FFFFFF" />
  <rect x="32" y="224" width="32" height="32" fill="#FFFFFF" />
  <rect x="64" y="224" width="32" height="32" fill="#FFC0CB" />
  <rect x="96" y="224" width="32" height="32" fill="#FFFFFF" />
  <rect x="128" y="224" width="32" height="32" fill="#FFC0CB" />
  <rect x="160" y="224" width="32" height="32" fill="#FFFFFF" />
  <rect x="192" y="224" width="32" height="32" fill="#FFC0CB" />
  <rect x="224" y="224" width="32" height="32" fill="#FFFFFF" />
</svg>
