<svg xmlns="http://www.w3.org/2000/svg" width="256" height="256" viewBox="0 0 256 256" shape-rendering="crispEdges" role="img" aria-labelledby="title desc">
  <title id="title">Tension and Release</title>
  <desc id="desc">The piece explores the emotional tension derived from the interplay of quiet spaces and dense clusters, representing the complexities of human emotions. The palette contrasts deep, muted tones (#1B1F23, #384E5B) with brighter accents (#FF6B6B, #FFD93D), creating a dynamic rhythm. Clusters of dark colors signify depth and pressure, while lighter colors symbolize moments of release and quiet. The result is an abstract narrative of friction and harmony, echoing the essence of the seed's emotional score.</desc>
  <rect width="256" height="256" fill="#FFFFFF" />
  <rect x="0" y="0" width="32" height="32" fill="#1B1F23" />
  <rect x="32" y="0" width="32" height="32" fill="#384E5B" />
  <rect x="64" y="0" width="32" height="32" fill="#FF6B6B" />
  <rect x="96" y="0" width="32" height="32" fill="#F0D9A7" />
  <rect x="128" y="0" width="32" height="32" fill="#FFD93D" />
  <rect x="160" y="0" width="32" height="32" fill="#1F8A94" />
  <rect x="192" y="0" width="32" height="32" fill="#004B87" />
  <rect x="224" y="0" width="32" height="32" fill="#00203F" />
  <rect x="0" y="32" width="32" height="32" fill="#1A1A1D" />
  <rect x="32" y="32" width="32" height="32" fill="#C9D6D5" />
  <rect x="64" y="32" width="32" height="32" fill="#E4F9F5" />
  <rect x="96" y="32" width="32" height="32" fill="#D7D3C3" />
  <rect x="128" y="32" width="32" height="32" fill="#F5BFF1" />
  <rect x="160" y="32" width="32" height="32" fill="#FFABAB" />
  <rect x="192" y="32" width="32" height="32" fill="#48C9B0" />
  <rect x="224" y="32" width="32" height="32" fill="#F8C471" />
  <rect x="0" y="64" width="32" height="32" fill="#3F3F3F" />
  <rect x="32" y="64" width="32" height="32" fill="#636E72" />
  <rect x="64" y="64" width="32" height="32" fill="#BF6062" />
  <rect x="96" y="64" width="32" height="32" fill="#FFEAA7" />
  <rect x="128" y="64" width="32" height="32" fill="#B8E2F5" />
  <rect x="160" y="64" width="32" height="32" fill="#8E44AD" />
  <rect x="192" y="64" width="32" height="32" fill="#FFDB58" />
  <rect x="224" y="64" width="32" height="32" fill="#009688" />
  <rect x="0" y="96" width="32" height="32" fill="#232B2B" />
  <rect x="32" y="96" width="32" height="32" fill="#D9BF77" />
  <rect x="64" y="96" width="32" height="32" fill="#704C3B" />
  <rect x="96" y="96" width="32" height="32" fill="#FF6B6B" />
  <rect x="128" y="96" width="32" height="32" fill="#BB8BFF" />
  <rect x="160" y="96" width="32" height="32" fill="#A3C4F8" />
  <rect x="192" y="96" width="32" height="32" fill="#F8F3D4" />
  <rect x="224" y="96" width="32" height="32" fill="#F4D03F" />
  <rect x="0" y="128" width="32" height="32" fill="#212F3C" />
  <rect x="32" y="128" width="32" height="32" fill="#F5B7B1" />
  <rect x="64" y="128" width="32" height="32" fill="#F7DC6F" />
  <rect x="96" y="128" width="32" height="32" fill="#2E86C1" />
  <rect x="128" y="128" width="32" height="32" fill="#A0D6E8" />
  <rect x="160" y="128" width="32" height="32" fill="#D5DBDB" />
  <rect x="192" y="128" width="32" height="32" fill="#D5DBDB" />
  <rect x="224" y="128" width="32" height="32" fill="#333F4B" />
  <rect x="0" y="160" width="32" height="32" fill="#4A4C4E" />
  <rect x="32" y="160" width="32" height="32" fill="#B0B3B8" />
  <rect x="64" y="160" width="32" height="32" fill="#F8C471" />
  <rect x="96" y="160" width="32" height="32" fill="#FF6B81" />
  <rect x="128" y="160" width="32" height="32" fill="#99D98C" />
  <rect x="160" y="160" width="32" height="32" fill="#FFEAA7" />
  <rect x="192" y="160" width="32" height="32" fill="#001F3F" />
  <rect x="224" y="160" width="32" height="32" fill="#FF69B4" />
  <rect x="0" y="192" width="32" height="32" fill="#17202A" />
  <rect x="32" y="192" width="32" height="32" fill="#D5DBDB" />
  <rect x="64" y="192" width="32" height="32" fill="#AAB7B8" />
  <rect x="96" y="192" width="32" height="32" fill="#FF6D6D" />
  <rect x="128" y="192" width="32" height="32" fill="#F4D03F" />
  <rect x="160" y="192" width="32" height="32" fill="#F1948A" />
  <rect x="192" y="192" width="32" height="32" fill="#FFC300" />
  <rect x="224" y="192" width="32" height="32" fill="#D6EAF8" />
  <rect x="0" y="224" width="32" height="32" fill="#000000" />
  <rect x="32" y="224" width="32" height="32" fill="#1A1A20" />
  <rect x="64" y="224" width="32" height="32" fill="#D3D3D3" />
  <rect x="96" y="224" width="32" height="32" fill="#E8DAEF" />
  <rect x="128" y="224" width="32" height="32" fill="#BEC3C7" />
  <rect x="160" y="224" width="32" height="32" fill="#D9E7E1" />
  <rect x="192" y="224" width="32" height="32" fill="#A3C4F8" />
  <rect x="224" y="224" width="32" height="32" fill="#707C7F" />
</svg>
