<svg xmlns="http://www.w3.org/2000/svg" width="256" height="256" viewBox="0 0 256 256" shape-rendering="crispEdges" role="img" aria-labelledby="title desc">
  <title id="title">Fragments of Emotion</title>
  <desc id="desc">The emotional tone embodies the tension between love and betrayal, revealed through an 8x8 pattern that juxtaposes warmth against shadow. The palette features deep reds and grays symbolizing love, decay, and conflict. The layout emphasizes a transition from a dense left side representing betrayal to a lighter right side symbolizing the warmth of love. Broken pixels reflect imperfection and disruption. The central diagonal flow creates an unresolved tension, capturing the dynamic of rising signals amid chaos, echoing the jagged reality between these contrasting emotions.</desc>
  <rect width="256" height="256" fill="#FFFFFF" />
  <rect x="0" y="0" width="32" height="32" fill="#300000" />
  <rect x="32" y="0" width="32" height="32" fill="#661C1A" />
  <rect x="64" y="0" width="32" height="32" fill="#D58A8C" />
  <rect x="96" y="0" width="32" height="32" fill="#D58A8C" />
  <rect x="128" y="0" width="32" height="32" fill="#661C1A" />
  <rect x="160" y="0" width="32" height="32" fill="#300000" />
  <rect x="192" y="0" width="32" height="32" fill="#FFFFFF" />
  <rect x="224" y="0" width="32" height="32" fill="#FFFFFF" />
  <rect x="0" y="32" width="32" height="32" fill="#300000" />
  <rect x="32" y="32" width="32" height="32" fill="#661C1A" />
  <rect x="64" y="32" width="32" height="32" fill="#E2B0B0" />
  <rect x="96" y="32" width="32" height="32" fill="#E2B0B0" />
  <rect x="128" y="32" width="32" height="32" fill="#661C1A" />
  <rect x="160" y="32" width="32" height="32" fill="#300000" />
  <rect x="192" y="32" width="32" height="32" fill="#FFFFFF" />
  <rect x="224" y="32" width="32" height="32" fill="#FFFFFF" />
  <rect x="0" y="64" width="32" height="32" fill="#500000" />
  <rect x="32" y="64" width="32" height="32" fill="#A0252A" />
  <rect x="64" y="64" width="32" height="32" fill="#D3B8B4" />
  <rect x="96" y="64" width="32" height="32" fill="#D3B8B4" />
  <rect x="128" y="64" width="32" height="32" fill="#A0252A" />
  <rect x="160" y="64" width="32" height="32" fill="#500000" />
  <rect x="192" y="64" width="32" height="32" fill="#F2F2F2" />
  <rect x="224" y="64" width="32" height="32" fill="#F2F2F2" />
  <rect x="0" y="96" width="32" height="32" fill="#500000" />
  <rect x="32" y="96" width="32" height="32" fill="#A0252A" />
  <rect x="64" y="96" width="32" height="32" fill="#D58A8C" />
  <rect x="96" y="96" width="32" height="32" fill="#D58A8C" />
  <rect x="128" y="96" width="32" height="32" fill="#A0252A" />
  <rect x="160" y="96" width="32" height="32" fill="#500000" />
  <rect x="192" y="96" width="32" height="32" fill="#D0D0D0" />
  <rect x="224" y="96" width="32" height="32" fill="#D0D0D0" />
  <rect x="0" y="128" width="32" height="32" fill="#800000" />
  <rect x="32" y="128" width="32" height="32" fill="#BF131C" />
  <rect x="64" y="128" width="32" height="32" fill="#DFB7B4" />
  <rect x="96" y="128" width="32" height="32" fill="#DFB7B4" />
  <rect x="128" y="128" width="32" height="32" fill="#BF131C" />
  <rect x="160" y="128" width="32" height="32" fill="#800000" />
  <rect x="192" y="128" width="32" height="32" fill="#B0B0B0" />
  <rect x="224" y="128" width="32" height="32" fill="#B0B0B0" />
  <rect x="0" y="160" width="32" height="32" fill="#800000" />
  <rect x="32" y="160" width="32" height="32" fill="#BF131C" />
  <rect x="64" y="160" width="32" height="32" fill="#D58A8C" />
  <rect x="96" y="160" width="32" height="32" fill="#D58A8C" />
  <rect x="128" y="160" width="32" height="32" fill="#BF131C" />
  <rect x="160" y="160" width="32" height="32" fill="#800000" />
  <rect x="192" y="160" width="32" height="32" fill="#C0C0C0" />
  <rect x="224" y="160" width="32" height="32" fill="#C0C0C0" />
  <rect x="0" y="192" width="32" height="32" fill="#D20000" />
  <rect x="32" y="192" width="32" height="32" fill="#BF131C" />
  <rect x="64" y="192" width="32" height="32" fill="#D5A6A1" />
  <rect x="96" y="192" width="32" height="32" fill="#D5A6A1" />
  <rect x="128" y="192" width="32" height="32" fill="#BF131C" />
  <rect x="160" y="192" width="32" height="32" fill="#D20000" />
  <rect x="192" y="192" width="32" height="32" fill="#E8E8E8" />
  <rect x="224" y="192" width="32" height="32" fill="#E8E8E8" />
  <rect x="0" y="224" width="32" height="32" fill="#D20000" />
  <rect x="32" y="224" width="32" height="32" fill="#D87A7C" />
  <rect x="64" y="224" width="32" height="32" fill="#E1B8B4" />
  <rect x="96" y="224" width="32" height="32" fill="#E1B8B4" />
  <rect x="128" y="224" width="32" height="32" fill="#D87A7C" />
  <rect x="160" y="224" width="32" height="32" fill="#D20000" />
  <rect x="192" y="224" width="32" height="32" fill="#F5F5F5" />
  <rect x="224" y="224" width="32" height="32" fill="#F5F5F5" />
</svg>
