<svg xmlns="http://www.w3.org/2000/svg" width="256" height="256" viewBox="0 0 256 256" shape-rendering="crispEdges" role="img" aria-labelledby="title desc">
  <title id="title">Struggle of Light and Weight</title>
  <desc id="desc">The emotional tone blends panic with control, illustrating an internal struggle between chaos and stability. The palette, structured around deep blacks and dim cyans, underscores a lonely signal amidst the stark contrast. The left side uses broken dots to evoke panic while the right employs cracks to suggest fragmented control. The movement flows diagonally, enhancing the feeling of tension and unresolved balance as brighter elements clash with darker fields, culminating in an abstract dance of emotion that highlights a struggle for equilibrium.</desc>
  <rect width="256" height="256" fill="#FFFFFF" />
  <rect x="0" y="0" width="32" height="32" fill="#000000" />
  <rect x="32" y="0" width="32" height="32" fill="#0C2D6E" />
  <rect x="64" y="0" width="32" height="32" fill="#2A51A0" />
  <rect x="96" y="0" width="32" height="32" fill="#8FA1C2" />
  <rect x="128" y="0" width="32" height="32" fill="#2A51A0" />
  <rect x="160" y="0" width="32" height="32" fill="#0C2D6E" />
  <rect x="192" y="0" width="32" height="32" fill="#000000" />
  <rect x="224" y="0" width="32" height="32" fill="#000000" />
  <rect x="0" y="32" width="32" height="32" fill="#1B1B1B" />
  <rect x="32" y="32" width="32" height="32" fill="#0A4A80" />
  <rect x="64" y="32" width="32" height="32" fill="#5C8FB6" />
  <rect x="96" y="32" width="32" height="32" fill="#C0D5E1" />
  <rect x="128" y="32" width="32" height="32" fill="#5C8FB6" />
  <rect x="160" y="32" width="32" height="32" fill="#0A4A80" />
  <rect x="192" y="32" width="32" height="32" fill="#1B1B1B" />
  <rect x="224" y="32" width="32" height="32" fill="#1B1B1B" />
  <rect x="0" y="64" width="32" height="32" fill="#2D2D2D" />
  <rect x="32" y="64" width="32" height="32" fill="#1F577A" />
  <rect x="64" y="64" width="32" height="32" fill="#8D99B5" />
  <rect x="96" y="64" width="32" height="32" fill="#FFFFFF" />
  <rect x="128" y="64" width="32" height="32" fill="#8D99B5" />
  <rect x="160" y="64" width="32" height="32" fill="#1F577A" />
  <rect x="192" y="64" width="32" height="32" fill="#2D2D2D" />
  <rect x="224" y="64" width="32" height="32" fill="#2D2D2D" />
  <rect x="0" y="96" width="32" height="32" fill="#444444" />
  <rect x="32" y="96" width="32" height="32" fill="#F5F5F5" />
  <rect x="64" y="96" width="32" height="32" fill="#8D99B5" />
  <rect x="96" y="96" width="32" height="32" fill="#8FA1C2" />
  <rect x="128" y="96" width="32" height="32" fill="#8D99B5" />
  <rect x="160" y="96" width="32" height="32" fill="#F5F5F5" />
  <rect x="192" y="96" width="32" height="32" fill="#444444" />
  <rect x="224" y="96" width="32" height="32" fill="#444444" />
  <rect x="0" y="128" width="32" height="32" fill="#666666" />
  <rect x="32" y="128" width="32" height="32" fill="#E1E1E1" />
  <rect x="64" y="128" width="32" height="32" fill="#A4C6D4" />
  <rect x="96" y="128" width="32" height="32" fill="#3C3C3C" />
  <rect x="128" y="128" width="32" height="32" fill="#A4C6D4" />
  <rect x="160" y="128" width="32" height="32" fill="#E1E1E1" />
  <rect x="192" y="128" width="32" height="32" fill="#666666" />
  <rect x="224" y="128" width="32" height="32" fill="#666666" />
  <rect x="0" y="160" width="32" height="32" fill="#777777" />
  <rect x="32" y="160" width="32" height="32" fill="#B7B7B7" />
  <rect x="64" y="160" width="32" height="32" fill="#A4C6D4" />
  <rect x="96" y="160" width="32" height="32" fill="#D1D1D1" />
  <rect x="128" y="160" width="32" height="32" fill="#A4C6D4" />
  <rect x="160" y="160" width="32" height="32" fill="#B7B7B7" />
  <rect x="192" y="160" width="32" height="32" fill="#777777" />
  <rect x="224" y="160" width="32" height="32" fill="#777777" />
  <rect x="0" y="192" width="32" height="32" fill="#888888" />
  <rect x="32" y="192" width="32" height="32" fill="#E2E2E2" />
  <rect x="64" y="192" width="32" height="32" fill="#A4C6D4" />
  <rect x="96" y="192" width="32" height="32" fill="#9DAEBA" />
  <rect x="128" y="192" width="32" height="32" fill="#A4C6D4" />
  <rect x="160" y="192" width="32" height="32" fill="#E2E2E2" />
  <rect x="192" y="192" width="32" height="32" fill="#888888" />
  <rect x="224" y="192" width="32" height="32" fill="#888888" />
  <rect x="0" y="224" width="32" height="32" fill="#999999" />
  <rect x="32" y="224" width="32" height="32" fill="#FFFFFF" />
  <rect x="64" y="224" width="32" height="32" fill="#B7C4C8" />
  <rect x="96" y="224" width="32" height="32" fill="#C2D0D6" />
  <rect x="128" y="224" width="32" height="32" fill="#B7C4C8" />
  <rect x="160" y="224" width="32" height="32" fill="#FFFFFF" />
  <rect x="192" y="224" width="32" height="32" fill="#999999" />
  <rect x="224" y="224" width="32" height="32" fill="#999999" />
</svg>
