<svg xmlns="http://www.w3.org/2000/svg" width="256" height="256" viewBox="0 0 256 256" shape-rendering="crispEdges" role="img" aria-labelledby="title desc">
  <title id="title">Echoes of Duality</title>
  <desc id="desc">The emotional tone reflects the tension between confusion and clarity. The chosen palette of bright yellow and muted purple symbolizes joy battling grief, with deep blue serving as an anchor reflecting calm amidst chaos. In the layout, the outer frame represents clarity through a split screen, contrasting with a dense, noise pattern in the center that evokes confusion. Key collisions occur at the boundary between the vibrant outside and murky inner square, creating a sense of pulse and interruption, where the pixels seem to fall and collide.</desc>
  <rect width="256" height="256" fill="#FFFFFF" />
  <rect x="0" y="0" width="32" height="32" fill="#F6EB61" />
  <rect x="32" y="0" width="32" height="32" fill="#9283B1" />
  <rect x="64" y="0" width="32" height="32" fill="#F6EB61" />
  <rect x="96" y="0" width="32" height="32" fill="#F6EB61" />
  <rect x="128" y="0" width="32" height="32" fill="#9283B1" />
  <rect x="160" y="0" width="32" height="32" fill="#F6EB61" />
  <rect x="192" y="0" width="32" height="32" fill="#F6EB61" />
  <rect x="224" y="0" width="32" height="32" fill="#9283B1" />
  <rect x="0" y="32" width="32" height="32" fill="#F6EB61" />
  <rect x="32" y="32" width="32" height="32" fill="#F6EB61" />
  <rect x="64" y="32" width="32" height="32" fill="#A3D8FF" />
  <rect x="96" y="32" width="32" height="32" fill="#D0C5E5" />
  <rect x="128" y="32" width="32" height="32" fill="#F6EB61" />
  <rect x="160" y="32" width="32" height="32" fill="#A3D8FF" />
  <rect x="192" y="32" width="32" height="32" fill="#F6EB61" />
  <rect x="224" y="32" width="32" height="32" fill="#9283B1" />
  <rect x="0" y="64" width="32" height="32" fill="#F6EB61" />
  <rect x="32" y="64" width="32" height="32" fill="#F6EB61" />
  <rect x="64" y="64" width="32" height="32" fill="#D0C5E5" />
  <rect x="96" y="64" width="32" height="32" fill="#9283B1" />
  <rect x="128" y="64" width="32" height="32" fill="#F6EB61" />
  <rect x="160" y="64" width="32" height="32" fill="#F6EB61" />
  <rect x="192" y="64" width="32" height="32" fill="#F6EB61" />
  <rect x="224" y="64" width="32" height="32" fill="#F6EB61" />
  <rect x="0" y="96" width="32" height="32" fill="#D0C5E5" />
  <rect x="32" y="96" width="32" height="32" fill="#D0C5E5" />
  <rect x="64" y="96" width="32" height="32" fill="#9283B1" />
  <rect x="96" y="96" width="32" height="32" fill="#F6EB61" />
  <rect x="128" y="96" width="32" height="32" fill="#A3D8FF" />
  <rect x="160" y="96" width="32" height="32" fill="#F6EB61" />
  <rect x="192" y="96" width="32" height="32" fill="#D0C5E5" />
  <rect x="224" y="96" width="32" height="32" fill="#F6EB61" />
  <rect x="0" y="128" width="32" height="32" fill="#9283B1" />
  <rect x="32" y="128" width="32" height="32" fill="#A3D8FF" />
  <rect x="64" y="128" width="32" height="32" fill="#F6EB61" />
  <rect x="96" y="128" width="32" height="32" fill="#F6EB61" />
  <rect x="128" y="128" width="32" height="32" fill="#F6EB61" />
  <rect x="160" y="128" width="32" height="32" fill="#F6EB61" />
  <rect x="192" y="128" width="32" height="32" fill="#9283B1" />
  <rect x="224" y="128" width="32" height="32" fill="#D0C5E5" />
  <rect x="0" y="160" width="32" height="32" fill="#D0C5E5" />
  <rect x="32" y="160" width="32" height="32" fill="#F6EB61" />
  <rect x="64" y="160" width="32" height="32" fill="#A3D8FF" />
  <rect x="96" y="160" width="32" height="32" fill="#9283B1" />
  <rect x="128" y="160" width="32" height="32" fill="#F6EB61" />
  <rect x="160" y="160" width="32" height="32" fill="#A3D8FF" />
  <rect x="192" y="160" width="32" height="32" fill="#F6EB61" />
  <rect x="224" y="160" width="32" height="32" fill="#F6EB61" />
  <rect x="0" y="192" width="32" height="32" fill="#9283B1" />
  <rect x="32" y="192" width="32" height="32" fill="#F6EB61" />
  <rect x="64" y="192" width="32" height="32" fill="#F6EB61" />
  <rect x="96" y="192" width="32" height="32" fill="#D0C5E5" />
  <rect x="128" y="192" width="32" height="32" fill="#F6EB61" />
  <rect x="160" y="192" width="32" height="32" fill="#F6EB61" />
  <rect x="192" y="192" width="32" height="32" fill="#A3D8FF" />
  <rect x="224" y="192" width="32" height="32" fill="#D0C5E5" />
  <rect x="0" y="224" width="32" height="32" fill="#F6EB61" />
  <rect x="32" y="224" width="32" height="32" fill="#9283B1" />
  <rect x="64" y="224" width="32" height="32" fill="#F6EB61" />
  <rect x="96" y="224" width="32" height="32" fill="#A3D8FF" />
  <rect x="128" y="224" width="32" height="32" fill="#D0C5E5" />
  <rect x="160" y="224" width="32" height="32" fill="#F6EB61" />
  <rect x="192" y="224" width="32" height="32" fill="#F6EB61" />
  <rect x="224" y="224" width="32" height="32" fill="#9283B1" />
</svg>
