<svg xmlns="http://www.w3.org/2000/svg" width="256" height="256" viewBox="0 0 256 256" shape-rendering="crispEdges" role="img" aria-labelledby="title desc">
  <title id="title">Tension and Release</title>
  <desc id="desc">This artwork explores the emotional collision between vulnerability and strength. The contrasting palette incorporates deep greens and warm golds, representing vitality and desire, while the pale cream serves as an unshielded light, hinting at vulnerability. The diagonal layout sees lush, darker greens filling one wedge, imbuing a sense of rooted strength, while the lighter cream and honey tones assert themselves as an ephemeral edge that bleeds into the main body. The broken pixels introduce unpredictable disruptions, simulating the tension present in moments of vulnerability, suggesting a pleading cry amidst strength. The piece strikes a balance by allowing negative space to breathe amidst the dense color arrangement, embodying the conflict and interdependence of these emotional states.</desc>
  <rect width="256" height="256" fill="#FFFFFF" />
  <rect x="0" y="0" width="32" height="32" fill="#2B5D34" />
  <rect x="32" y="0" width="32" height="32" fill="#2B5D34" />
  <rect x="64" y="0" width="32" height="32" fill="#2B5D34" />
  <rect x="96" y="0" width="32" height="32" fill="#2B5D34" />
  <rect x="128" y="0" width="32" height="32" fill="#E2C793" />
  <rect x="160" y="0" width="32" height="32" fill="#E2C793" />
  <rect x="192" y="0" width="32" height="32" fill="#E2C793" />
  <rect x="224" y="0" width="32" height="32" fill="#E2C793" />
  <rect x="0" y="32" width="32" height="32" fill="#2B5D34" />
  <rect x="32" y="32" width="32" height="32" fill="#2B5D34" />
  <rect x="64" y="32" width="32" height="32" fill="#2B5D34" />
  <rect x="96" y="32" width="32" height="32" fill="#EBD5B1" />
  <rect x="128" y="32" width="32" height="32" fill="#EBD5B1" />
  <rect x="160" y="32" width="32" height="32" fill="#EBD5B1" />
  <rect x="192" y="32" width="32" height="32" fill="#EBD5B1" />
  <rect x="224" y="32" width="32" height="32" fill="#D3E6AA" />
  <rect x="0" y="64" width="32" height="32" fill="#2B5D34" />
  <rect x="32" y="64" width="32" height="32" fill="#2B5D34" />
  <rect x="64" y="64" width="32" height="32" fill="#E2B446" />
  <rect x="96" y="64" width="32" height="32" fill="#E2B446" />
  <rect x="128" y="64" width="32" height="32" fill="#E2B446" />
  <rect x="160" y="64" width="32" height="32" fill="#EBD5B1" />
  <rect x="192" y="64" width="32" height="32" fill="#D3E6AA" />
  <rect x="224" y="64" width="32" height="32" fill="#D3E6AA" />
  <rect x="0" y="96" width="32" height="32" fill="#2B5D34" />
  <rect x="32" y="96" width="32" height="32" fill="#E2B446" />
  <rect x="64" y="96" width="32" height="32" fill="#EBD5B1" />
  <rect x="96" y="96" width="32" height="32" fill="#D3E6AA" />
  <rect x="128" y="96" width="32" height="32" fill="#D3E6AA" />
  <rect x="160" y="96" width="32" height="32" fill="#E2C793" />
  <rect x="192" y="96" width="32" height="32" fill="#D3E6AA" />
  <rect x="224" y="96" width="32" height="32" fill="#D3E6AA" />
  <rect x="0" y="128" width="32" height="32" fill="#2B5D34" />
  <rect x="32" y="128" width="32" height="32" fill="#E2B446" />
  <rect x="64" y="128" width="32" height="32" fill="#E2C793" />
  <rect x="96" y="128" width="32" height="32" fill="#D3E6AA" />
  <rect x="128" y="128" width="32" height="32" fill="#E2C793" />
  <rect x="160" y="128" width="32" height="32" fill="#EBD5B1" />
  <rect x="192" y="128" width="32" height="32" fill="#EBD5B1" />
  <rect x="224" y="128" width="32" height="32" fill="#EBD5B1" />
  <rect x="0" y="160" width="32" height="32" fill="#2B5D34" />
  <rect x="32" y="160" width="32" height="32" fill="#E2B446" />
  <rect x="64" y="160" width="32" height="32" fill="#E2B446" />
  <rect x="96" y="160" width="32" height="32" fill="#D3E6AA" />
  <rect x="128" y="160" width="32" height="32" fill="#D3E6AA" />
  <rect x="160" y="160" width="32" height="32" fill="#D3E6AA" />
  <rect x="192" y="160" width="32" height="32" fill="#E2C793" />
  <rect x="224" y="160" width="32" height="32" fill="#E2C793" />
  <rect x="0" y="192" width="32" height="32" fill="#E2C793" />
  <rect x="32" y="192" width="32" height="32" fill="#EBD5B1" />
  <rect x="64" y="192" width="32" height="32" fill="#EBD5B1" />
  <rect x="96" y="192" width="32" height="32" fill="#E2B446" />
  <rect x="128" y="192" width="32" height="32" fill="#EBD5B1" />
  <rect x="160" y="192" width="32" height="32" fill="#EBD5B1" />
  <rect x="192" y="192" width="32" height="32" fill="#E2C793" />
  <rect x="224" y="192" width="32" height="32" fill="#E2C793" />
  <rect x="0" y="224" width="32" height="32" fill="#EBD5B1" />
  <rect x="32" y="224" width="32" height="32" fill="#E2C793" />
  <rect x="64" y="224" width="32" height="32" fill="#D3E6AA" />
  <rect x="96" y="224" width="32" height="32" fill="#D3E6AA" />
  <rect x="128" y="224" width="32" height="32" fill="#E2B446" />
  <rect x="160" y="224" width="32" height="32" fill="#E2B446" />
  <rect x="192" y="224" width="32" height="32" fill="#2B5D34" />
  <rect x="224" y="224" width="32" height="32" fill="#2B5D34" />
</svg>
