<svg xmlns="http://www.w3.org/2000/svg" width="256" height="256" viewBox="0 0 256 256" shape-rendering="crispEdges" role="img" aria-labelledby="title desc">
  <title id="title">Tensioned Echo</title>
  <desc id="desc">The artwork embodies the emotional struggle between panic and control, employing a palette of yellow, orange, deep blue, and muted purple to represent joy and grief. The arrangement presents a nearly symmetrical layout disrupted by subtle, asymmetrical adjustments to convey chaos amid structure. The dominant contrast occurs between warm, vibrant colors and darker, muted tones, evoking a sense of unresolved tension and collision, mirroring the conflict of feelings within the seed. The combination of dot patterns and noise enhances this dynamic, creating an abstract narrative of pressure and release with a feel of balance and discord.</desc>
  <rect width="256" height="256" fill="#FFFFFF" />
  <rect x="0" y="0" width="32" height="32" fill="#F6A600" />
  <rect x="32" y="0" width="32" height="32" fill="#FF8C00" />
  <rect x="64" y="0" width="32" height="32" fill="#4B0082" />
  <rect x="96" y="0" width="32" height="32" fill="#6A5ACD" />
  <rect x="128" y="0" width="32" height="32" fill="#E6E6FA" />
  <rect x="160" y="0" width="32" height="32" fill="#141414" />
  <rect x="192" y="0" width="32" height="32" fill="#6C63FF" />
  <rect x="224" y="0" width="32" height="32" fill="#FFB300" />
  <rect x="0" y="32" width="32" height="32" fill="#FFCC00" />
  <rect x="32" y="32" width="32" height="32" fill="#7C7C7C" />
  <rect x="64" y="32" width="32" height="32" fill="#1E90FF" />
  <rect x="96" y="32" width="32" height="32" fill="#ECEFF1" />
  <rect x="128" y="32" width="32" height="32" fill="#FF5722" />
  <rect x="160" y="32" width="32" height="32" fill="#607D8B" />
  <rect x="192" y="32" width="32" height="32" fill="#3F51B5" />
  <rect x="224" y="32" width="32" height="32" fill="#FFBF00" />
  <rect x="0" y="64" width="32" height="32" fill="#FFD700" />
  <rect x="32" y="64" width="32" height="32" fill="#455A64" />
  <rect x="64" y="64" width="32" height="32" fill="#795548" />
  <rect x="96" y="64" width="32" height="32" fill="#FF6F00" />
  <rect x="128" y="64" width="32" height="32" fill="#FFEB3B" />
  <rect x="160" y="64" width="32" height="32" fill="#764ABC" />
  <rect x="192" y="64" width="32" height="32" fill="#CCFF90" />
  <rect x="224" y="64" width="32" height="32" fill="#9E9E9E" />
  <rect x="0" y="96" width="32" height="32" fill="#FFFFE0" />
  <rect x="32" y="96" width="32" height="32" fill="#3F3F3F" />
  <rect x="64" y="96" width="32" height="32" fill="#D50000" />
  <rect x="96" y="96" width="32" height="32" fill="#FF9E80" />
  <rect x="128" y="96" width="32" height="32" fill="#8A2BE2" />
  <rect x="160" y="96" width="32" height="32" fill="#FFEBEE" />
  <rect x="192" y="96" width="32" height="32" fill="#B3E5FC" />
  <rect x="224" y="96" width="32" height="32" fill="#B0BEC5" />
  <rect x="0" y="128" width="32" height="32" fill="#FF7043" />
  <rect x="32" y="128" width="32" height="32" fill="#2196F3" />
  <rect x="64" y="128" width="32" height="32" fill="#FFBB33" />
  <rect x="96" y="128" width="32" height="32" fill="#1C1C1C" />
  <rect x="128" y="128" width="32" height="32" fill="#CDDC39" />
  <rect x="160" y="128" width="32" height="32" fill="#8B0000" />
  <rect x="192" y="128" width="32" height="32" fill="#FFC107" />
  <rect x="224" y="128" width="32" height="32" fill="#FF3D00" />
  <rect x="0" y="160" width="32" height="32" fill="#F5F5F5" />
  <rect x="32" y="160" width="32" height="32" fill="#FFDAB9" />
  <rect x="64" y="160" width="32" height="32" fill="#E0F7FA" />
  <rect x="96" y="160" width="32" height="32" fill="#303F9F" />
  <rect x="128" y="160" width="32" height="32" fill="#FFA07A" />
  <rect x="160" y="160" width="32" height="32" fill="#212121" />
  <rect x="192" y="160" width="32" height="32" fill="#FFC0CB" />
  <rect x="224" y="160" width="32" height="32" fill="#00BFFF" />
  <rect x="0" y="192" width="32" height="32" fill="#B2C2E9" />
  <rect x="32" y="192" width="32" height="32" fill="#D50000" />
  <rect x="64" y="192" width="32" height="32" fill="#C0C0C0" />
  <rect x="96" y="192" width="32" height="32" fill="#FBC02D" />
  <rect x="128" y="192" width="32" height="32" fill="#900C3F" />
  <rect x="160" y="192" width="32" height="32" fill="#FFA500" />
  <rect x="192" y="192" width="32" height="32" fill="#4B0082" />
  <rect x="224" y="192" width="32" height="32" fill="#8E24AA" />
  <rect x="0" y="224" width="32" height="32" fill="#E0E0E0" />
  <rect x="32" y="224" width="32" height="32" fill="#546E7A" />
  <rect x="64" y="224" width="32" height="32" fill="#FBC02D" />
  <rect x="96" y="224" width="32" height="32" fill="#78909C" />
  <rect x="128" y="224" width="32" height="32" fill="#FF5C00" />
  <rect x="160" y="224" width="32" height="32" fill="#FFAB00" />
  <rect x="192" y="224" width="32" height="32" fill="#F48FB1" />
  <rect x="224" y="224" width="32" height="32" fill="#B0BEC5" />
</svg>
