<svg xmlns="http://www.w3.org/2000/svg" width="256" height="256" viewBox="0 0 256 256" shape-rendering="crispEdges" role="img" aria-labelledby="title desc">
  <title id="title">Fragmented Sparks</title>
  <desc id="desc">The emotional tone reflects a conflict between vitality and decay—'spark' symbolizes bursts of life, while 'ash' denotes the remnants of what was. The chosen palette of pinks and grays illustrates this duality: pink represents the vibrancy of sparks, contrasting sharply with the subdued tones of gray that evoke ashen residue. The main collision occurs diagonally across the square, where the checker-like pattern of pink against a shatter pattern of gray creates tension and visual interest, echoing the push and pull between growth and restraint. Broken pixels enhance the sense of imperfection and turbulence, while maintaining moments of quiet negative space. This composition embodies the struggle of memory and erasure, shaped by the abstract concepts rather than literal imagery.</desc>
  <rect width="256" height="256" fill="#FFFFFF" />
  <rect x="0" y="0" width="32" height="32" fill="#FF6F61" />
  <rect x="32" y="0" width="32" height="32" fill="#E56262" />
  <rect x="64" y="0" width="32" height="32" fill="#C0C0C0" />
  <rect x="96" y="0" width="32" height="32" fill="#A39C9D" />
  <rect x="128" y="0" width="32" height="32" fill="#E7B2B2" />
  <rect x="160" y="0" width="32" height="32" fill="#FF9A9E" />
  <rect x="192" y="0" width="32" height="32" fill="#B0B0B0" />
  <rect x="224" y="0" width="32" height="32" fill="#868686" />
  <rect x="0" y="32" width="32" height="32" fill="#FF3C3B" />
  <rect x="32" y="32" width="32" height="32" fill="#D3D3D3" />
  <rect x="64" y="32" width="32" height="32" fill="#BFBFBF" />
  <rect x="96" y="32" width="32" height="32" fill="#9E9E9E" />
  <rect x="128" y="32" width="32" height="32" fill="#FFC8C4" />
  <rect x="160" y="32" width="32" height="32" fill="#FF7075" />
  <rect x="192" y="32" width="32" height="32" fill="#CCCED4" />
  <rect x="224" y="32" width="32" height="32" fill="#AFAFAF" />
  <rect x="0" y="64" width="32" height="32" fill="#DA9B9B" />
  <rect x="32" y="64" width="32" height="32" fill="#C6B3B3" />
  <rect x="64" y="64" width="32" height="32" fill="#B2A1A1" />
  <rect x="96" y="64" width="32" height="32" fill="#FFFFFF" />
  <rect x="128" y="64" width="32" height="32" fill="#FFC4C4" />
  <rect x="160" y="64" width="32" height="32" fill="#FFE3E3" />
  <rect x="192" y="64" width="32" height="32" fill="#D56F6B" />
  <rect x="224" y="64" width="32" height="32" fill="#B0A3A3" />
  <rect x="0" y="96" width="32" height="32" fill="#A28E8E" />
  <rect x="32" y="96" width="32" height="32" fill="#886565" />
  <rect x="64" y="96" width="32" height="32" fill="#BCB2B2" />
  <rect x="96" y="96" width="32" height="32" fill="#D1CFCF" />
  <rect x="128" y="96" width="32" height="32" fill="#FF7FB7" />
  <rect x="160" y="96" width="32" height="32" fill="#D6D6D6" />
  <rect x="192" y="96" width="32" height="32" fill="#A3A3A3" />
  <rect x="224" y="96" width="32" height="32" fill="#808080" />
  <rect x="0" y="128" width="32" height="32" fill="#CA5E5E" />
  <rect x="32" y="128" width="32" height="32" fill="#E5C5C6" />
  <rect x="64" y="128" width="32" height="32" fill="#BDA0A0" />
  <rect x="96" y="128" width="32" height="32" fill="#9D9C9D" />
  <rect x="128" y="128" width="32" height="32" fill="#D8B6B6" />
  <rect x="160" y="128" width="32" height="32" fill="#F2B7B7" />
  <rect x="192" y="128" width="32" height="32" fill="#FF8C8C" />
  <rect x="224" y="128" width="32" height="32" fill="#75B8B6" />
  <rect x="0" y="160" width="32" height="32" fill="#FFB2B1" />
  <rect x="32" y="160" width="32" height="32" fill="#FFE6E6" />
  <rect x="64" y="160" width="32" height="32" fill="#C4BDBD" />
  <rect x="96" y="160" width="32" height="32" fill="#877C7C" />
  <rect x="128" y="160" width="32" height="32" fill="#C0AFAF" />
  <rect x="160" y="160" width="32" height="32" fill="#FFC9C9" />
  <rect x="192" y="160" width="32" height="32" fill="#E1D6D6" />
  <rect x="224" y="160" width="32" height="32" fill="#E6E1E1" />
  <rect x="0" y="192" width="32" height="32" fill="#E07979" />
  <rect x="32" y="192" width="32" height="32" fill="#E3B9B9" />
  <rect x="64" y="192" width="32" height="32" fill="#D1C0C0" />
  <rect x="96" y="192" width="32" height="32" fill="#AA9E9E" />
  <rect x="128" y="192" width="32" height="32" fill="#D8A1A1" />
  <rect x="160" y="192" width="32" height="32" fill="#FFE1E1" />
  <rect x="192" y="192" width="32" height="32" fill="#C8B4B4" />
  <rect x="224" y="192" width="32" height="32" fill="#BFBFBF" />
  <rect x="0" y="224" width="32" height="32" fill="#B30000" />
  <rect x="32" y="224" width="32" height="32" fill="#D0C1C1" />
  <rect x="64" y="224" width="32" height="32" fill="#F4F4F4" />
  <rect x="96" y="224" width="32" height="32" fill="#CED2D3" />
  <rect x="128" y="224" width="32" height="32" fill="#B6B3B3" />
  <rect x="160" y="224" width="32" height="32" fill="#A1A1A1" />
  <rect x="192" y="224" width="32" height="32" fill="#8D8D8D" />
  <rect x="224" y="224" width="32" height="32" fill="#767676" />
</svg>
