<svg xmlns="http://www.w3.org/2000/svg" width="256" height="256" viewBox="0 0 256 256" shape-rendering="crispEdges" role="img" aria-labelledby="title desc">
  <title id="title">Inner Tension</title>
  <desc id="desc">The emotional tone reflects the delicate balance between vulnerability and strength. The chosen palette of melancholy wonder—with rain blue and muted plum—embodies the soothing depth of vulnerability while the lavender gray and soft cyan symbolize resilience and clarity. The primary collision occurs at the center where the 'hook' pattern rises amidst a dense grid, creating tension between the supportive edges and the unshielded center. Broken pixels introduce intentional flaws, reflecting vulnerability in the structure, while maintaining a cohesive flow upward, signifying hope against pressure.</desc>
  <rect width="256" height="256" fill="#FFFFFF" />
  <rect x="0" y="0" width="32" height="32" fill="#5A7F96" />
  <rect x="32" y="0" width="32" height="32" fill="#494C6A" />
  <rect x="64" y="0" width="32" height="32" fill="#7B869D" />
  <rect x="96" y="0" width="32" height="32" fill="#BAC9D7" />
  <rect x="128" y="0" width="32" height="32" fill="#E4E6EB" />
  <rect x="160" y="0" width="32" height="32" fill="#A6C1D4" />
  <rect x="192" y="0" width="32" height="32" fill="#B3C9D9" />
  <rect x="224" y="0" width="32" height="32" fill="#F4F0F2" />
  <rect x="0" y="32" width="32" height="32" fill="#828CBA" />
  <rect x="32" y="32" width="32" height="32" fill="#B1B4D4" />
  <rect x="64" y="32" width="32" height="32" fill="#E0E3E9" />
  <rect x="96" y="32" width="32" height="32" fill="#C8D0DA" />
  <rect x="128" y="32" width="32" height="32" fill="#D8D2D5" />
  <rect x="160" y="32" width="32" height="32" fill="#B6C4C8" />
  <rect x="192" y="32" width="32" height="32" fill="#C3D2D7" />
  <rect x="224" y="32" width="32" height="32" fill="#D7D5DF" />
  <rect x="0" y="64" width="32" height="32" fill="#E5EAF0" />
  <rect x="32" y="64" width="32" height="32" fill="#C7C4D7" />
  <rect x="64" y="64" width="32" height="32" fill="#B7BEC5" />
  <rect x="96" y="64" width="32" height="32" fill="#A9A8B4" />
  <rect x="128" y="64" width="32" height="32" fill="#BFD8E3" />
  <rect x="160" y="64" width="32" height="32" fill="#D3D8DD" />
  <rect x="192" y="64" width="32" height="32" fill="#A3B5BF" />
  <rect x="224" y="64" width="32" height="32" fill="#8C929C" />
  <rect x="0" y="96" width="32" height="32" fill="#F4F1F6" />
  <rect x="32" y="96" width="32" height="32" fill="#8B8FA6" />
  <rect x="64" y="96" width="32" height="32" fill="#A2AFC3" />
  <rect x="96" y="96" width="32" height="32" fill="#C0C8D5" />
  <rect x="128" y="96" width="32" height="32" fill="#B4B5B8" />
  <rect x="160" y="96" width="32" height="32" fill="#869DA5" />
  <rect x="192" y="96" width="32" height="32" fill="#A3B7C2" />
  <rect x="224" y="96" width="32" height="32" fill="#8D9AB1" />
  <rect x="0" y="128" width="32" height="32" fill="#B1C8DD" />
  <rect x="32" y="128" width="32" height="32" fill="#E1E0EB" />
  <rect x="64" y="128" width="32" height="32" fill="#D2DAE1" />
  <rect x="96" y="128" width="32" height="32" fill="#A3B7C8" />
  <rect x="128" y="128" width="32" height="32" fill="#B8CDDC" />
  <rect x="160" y="128" width="32" height="32" fill="#74A1C8" />
  <rect x="192" y="128" width="32" height="32" fill="#6E8BA3" />
  <rect x="224" y="128" width="32" height="32" fill="#DAE9ED" />
  <rect x="0" y="160" width="32" height="32" fill="#C9C2CE" />
  <rect x="32" y="160" width="32" height="32" fill="#C4C3D3" />
  <rect x="64" y="160" width="32" height="32" fill="#A4B8CC" />
  <rect x="96" y="160" width="32" height="32" fill="#B9D3E8" />
  <rect x="128" y="160" width="32" height="32" fill="#BACFDE" />
  <rect x="160" y="160" width="32" height="32" fill="#D8E4E9" />
  <rect x="192" y="160" width="32" height="32" fill="#F0F3F5" />
  <rect x="224" y="160" width="32" height="32" fill="#B7C4C9" />
  <rect x="0" y="192" width="32" height="32" fill="#608936" />
  <rect x="32" y="192" width="32" height="32" fill="#4C8A5F" />
  <rect x="64" y="192" width="32" height="32" fill="#F1F2F4" />
  <rect x="96" y="192" width="32" height="32" fill="#CED8DE" />
  <rect x="128" y="192" width="32" height="32" fill="#D4E6E7" />
  <rect x="160" y="192" width="32" height="32" fill="#A6B9BF" />
  <rect x="192" y="192" width="32" height="32" fill="#8DA2AA" />
  <rect x="224" y="192" width="32" height="32" fill="#C2C0D6" />
  <rect x="0" y="224" width="32" height="32" fill="#A2B4C0" />
  <rect x="32" y="224" width="32" height="32" fill="#AEBCC9" />
  <rect x="64" y="224" width="32" height="32" fill="#E2EDFD" />
  <rect x="96" y="224" width="32" height="32" fill="#BCC3D0" />
  <rect x="128" y="224" width="32" height="32" fill="#A8C8D2" />
  <rect x="160" y="224" width="32" height="32" fill="#E8F0F3" />
  <rect x="192" y="224" width="32" height="32" fill="#D5E1E4" />
  <rect x="224" y="224" width="32" height="32" fill="#F7FAFC" />
</svg>
