<svg xmlns="http://www.w3.org/2000/svg" width="256" height="256" viewBox="0 0 256 256" shape-rendering="crispEdges" role="img" aria-labelledby="title desc">
  <title id="title">Pulse Amidst Static</title>
  <desc id="desc">The emotional tone reflects the struggle between clarity and interference, with a vibrant pulse represented by the signal green cutting through the static gray and dead black. The layout evokes a rising signal, with broken pixels introducing intentional disruptions that symbolize scars of noise. The collision occurs centrally as elements of pattern intersect and blend, embodying an ongoing tension between order and chaos.</desc>
  <rect width="256" height="256" fill="#FFFFFF" />
  <rect x="0" y="0" width="32" height="32" fill="#000000" />
  <rect x="32" y="0" width="32" height="32" fill="#7F7F7F" />
  <rect x="64" y="0" width="32" height="32" fill="#A3A3A3" />
  <rect x="96" y="0" width="32" height="32" fill="#BFBFBF" />
  <rect x="128" y="0" width="32" height="32" fill="#C0FFEE" />
  <rect x="160" y="0" width="32" height="32" fill="#D2007E" />
  <rect x="192" y="0" width="32" height="32" fill="#23D7E9" />
  <rect x="224" y="0" width="32" height="32" fill="#000000" />
  <rect x="0" y="32" width="32" height="32" fill="#101010" />
  <rect x="32" y="32" width="32" height="32" fill="#C0C0C0" />
  <rect x="64" y="32" width="32" height="32" fill="#121212" />
  <rect x="96" y="32" width="32" height="32" fill="#E7F6F9" />
  <rect x="128" y="32" width="32" height="32" fill="#503B4C" />
  <rect x="160" y="32" width="32" height="32" fill="#5C3D67" />
  <rect x="192" y="32" width="32" height="32" fill="#80BCAC" />
  <rect x="224" y="32" width="32" height="32" fill="#333333" />
  <rect x="0" y="64" width="32" height="32" fill="#111111" />
  <rect x="32" y="64" width="32" height="32" fill="#D27080" />
  <rect x="64" y="64" width="32" height="32" fill="#222222" />
  <rect x="96" y="64" width="32" height="32" fill="#DAA061" />
  <rect x="128" y="64" width="32" height="32" fill="#E8AA67" />
  <rect x="160" y="64" width="32" height="32" fill="#C8BDBD" />
  <rect x="192" y="64" width="32" height="32" fill="#700A07" />
  <rect x="224" y="64" width="32" height="32" fill="#000000" />
  <rect x="0" y="96" width="32" height="32" fill="#E4E7E9" />
  <rect x="32" y="96" width="32" height="32" fill="#DAA061" />
  <rect x="64" y="96" width="32" height="32" fill="#D8D8D8" />
  <rect x="96" y="96" width="32" height="32" fill="#D2007E" />
  <rect x="128" y="96" width="32" height="32" fill="#023197" />
  <rect x="160" y="96" width="32" height="32" fill="#D1A5BD" />
  <rect x="192" y="96" width="32" height="32" fill="#3C3B3B" />
  <rect x="224" y="96" width="32" height="32" fill="#E4E7E9" />
  <rect x="0" y="128" width="32" height="32" fill="#A3DAE8" />
  <rect x="32" y="128" width="32" height="32" fill="#A3A3A3" />
  <rect x="64" y="128" width="32" height="32" fill="#A3DAE8" />
  <rect x="96" y="128" width="32" height="32" fill="#500D1B" />
  <rect x="128" y="128" width="32" height="32" fill="#C0FFEE" />
  <rect x="160" y="128" width="32" height="32" fill="#D2007E" />
  <rect x="192" y="128" width="32" height="32" fill="#B7C9D8" />
  <rect x="224" y="128" width="32" height="32" fill="#3A2727" />
  <rect x="0" y="160" width="32" height="32" fill="#BFBFBF" />
  <rect x="32" y="160" width="32" height="32" fill="#B7C9D8" />
  <rect x="64" y="160" width="32" height="32" fill="#E8A1A1" />
  <rect x="96" y="160" width="32" height="32" fill="#5B4C84" />
  <rect x="128" y="160" width="32" height="32" fill="#806A7B" />
  <rect x="160" y="160" width="32" height="32" fill="#E3F6F9" />
  <rect x="192" y="160" width="32" height="32" fill="#A3DAE8" />
  <rect x="224" y="160" width="32" height="32" fill="#A3A3A3" />
  <rect x="0" y="192" width="32" height="32" fill="#5B4C84" />
  <rect x="32" y="192" width="32" height="32" fill="#5E7C9C" />
  <rect x="64" y="192" width="32" height="32" fill="#FF877C" />
  <rect x="96" y="192" width="32" height="32" fill="#A3DAE8" />
  <rect x="128" y="192" width="32" height="32" fill="#C4D3EB" />
  <rect x="160" y="192" width="32" height="32" fill="#F91E30" />
  <rect x="192" y="192" width="32" height="32" fill="#7D7D7D" />
  <rect x="224" y="192" width="32" height="32" fill="#5E7C9C" />
  <rect x="0" y="224" width="32" height="32" fill="#800080" />
  <rect x="32" y="224" width="32" height="32" fill="#A3DAE8" />
  <rect x="64" y="224" width="32" height="32" fill="#500D1B" />
  <rect x="96" y="224" width="32" height="32" fill="#101010" />
  <rect x="128" y="224" width="32" height="32" fill="#5E7C9C" />
  <rect x="160" y="224" width="32" height="32" fill="#A3DAE8" />
  <rect x="192" y="224" width="32" height="32" fill="#5E7C9C" />
  <rect x="224" y="224" width="32" height="32" fill="#000000" />
</svg>
