<svg xmlns="http://www.w3.org/2000/svg" width="256" height="256" viewBox="0 0 256 256" shape-rendering="crispEdges" role="img" aria-labelledby="title desc">
  <title id="title">Echoes of Dichotomy</title>
  <desc id="desc">This composition embodies the emotional tension between confusion and clarity through contrasting color placements. The choice of a dark palette with shades of navy and black evokes depth and uncertainty, while subtle hints of dim cyan introduce moments of clarity breaking through. The crowding of darker pixels in the lower half represents confusion, while the light tones in the upper half suggest emergent clarity. Broken pixels throughout disrupt the patterns to signify the 'falling pixels' motif, while the jagged edges create a sense of tension and interruption, reflecting the emotional conflict within the seed. The layout reflects an argument between symmetrical and broken patterns, lending a rhythmic flow as colors pulse against one another.</desc>
  <rect width="256" height="256" fill="#FFFFFF" />
  <rect x="0" y="0" width="32" height="32" fill="#000000" />
  <rect x="32" y="0" width="32" height="32" fill="#002D5B" />
  <rect x="64" y="0" width="32" height="32" fill="#005B8A" />
  <rect x="96" y="0" width="32" height="32" fill="#008FB1" />
  <rect x="128" y="0" width="32" height="32" fill="#00B3D1" />
  <rect x="160" y="0" width="32" height="32" fill="#007A9C" />
  <rect x="192" y="0" width="32" height="32" fill="#005B7F" />
  <rect x="224" y="0" width="32" height="32" fill="#003B63" />
  <rect x="0" y="32" width="32" height="32" fill="#001A3B" />
  <rect x="32" y="32" width="32" height="32" fill="#004A66" />
  <rect x="64" y="32" width="32" height="32" fill="#007F9E" />
  <rect x="96" y="32" width="32" height="32" fill="#00B7D7" />
  <rect x="128" y="32" width="32" height="32" fill="#00A3C2" />
  <rect x="160" y="32" width="32" height="32" fill="#0096B3" />
  <rect x="192" y="32" width="32" height="32" fill="#007D94" />
  <rect x="224" y="32" width="32" height="32" fill="#004D6B" />
  <rect x="0" y="64" width="32" height="32" fill="#FFFFFF" />
  <rect x="32" y="64" width="32" height="32" fill="#F1F7F7" />
  <rect x="64" y="64" width="32" height="32" fill="#E3F2F4" />
  <rect x="96" y="64" width="32" height="32" fill="#D5E3E3" />
  <rect x="128" y="64" width="32" height="32" fill="#C7D5D6" />
  <rect x="160" y="64" width="32" height="32" fill="#B4C7C9" />
  <rect x="192" y="64" width="32" height="32" fill="#A7B5B7" />
  <rect x="224" y="64" width="32" height="32" fill="#9CA6A8" />
  <rect x="0" y="96" width="32" height="32" fill="#E6F1F4" />
  <rect x="32" y="96" width="32" height="32" fill="#D0E3E9" />
  <rect x="64" y="96" width="32" height="32" fill="#B2D5DD" />
  <rect x="96" y="96" width="32" height="32" fill="#94C7D1" />
  <rect x="128" y="96" width="32" height="32" fill="#76BAC3" />
  <rect x="160" y="96" width="32" height="32" fill="#58AEB3" />
  <rect x="192" y="96" width="32" height="32" fill="#3FA0AB" />
  <rect x="224" y="96" width="32" height="32" fill="#0E8DA0" />
  <rect x="0" y="128" width="32" height="32" fill="#101010" />
  <rect x="32" y="128" width="32" height="32" fill="#232A30" />
  <rect x="64" y="128" width="32" height="32" fill="#343D49" />
  <rect x="96" y="128" width="32" height="32" fill="#45505B" />
  <rect x="128" y="128" width="32" height="32" fill="#56676F" />
  <rect x="160" y="128" width="32" height="32" fill="#678C87" />
  <rect x="192" y="128" width="32" height="32" fill="#7DA2A2" />
  <rect x="224" y="128" width="32" height="32" fill="#F1F7F7" />
  <rect x="0" y="160" width="32" height="32" fill="#0A0A0A" />
  <rect x="32" y="160" width="32" height="32" fill="#1C2836" />
  <rect x="64" y="160" width="32" height="32" fill="#293D47" />
  <rect x="96" y="160" width="32" height="32" fill="#364F5D" />
  <rect x="128" y="160" width="32" height="32" fill="#475C6F" />
  <rect x="160" y="160" width="32" height="32" fill="#587483" />
  <rect x="192" y="160" width="32" height="32" fill="#688C8C" />
  <rect x="224" y="160" width="32" height="32" fill="#D1D1D1" />
  <rect x="0" y="192" width="32" height="32" fill="#000000" />
  <rect x="32" y="192" width="32" height="32" fill="#121212" />
  <rect x="64" y="192" width="32" height="32" fill="#1E1E1E" />
  <rect x="96" y="192" width="32" height="32" fill="#2A2A2A" />
  <rect x="128" y="192" width="32" height="32" fill="#FFFFF0" />
  <rect x="160" y="192" width="32" height="32" fill="#D9E4E4" />
  <rect x="192" y="192" width="32" height="32" fill="#BCB2B2" />
  <rect x="224" y="192" width="32" height="32" fill="#A39393" />
  <rect x="0" y="224" width="32" height="32" fill="#222222" />
  <rect x="32" y="224" width="32" height="32" fill="#1F2D3A" />
  <rect x="64" y="224" width="32" height="32" fill="#3A4A5A" />
  <rect x="96" y="224" width="32" height="32" fill="#FF0000" />
  <rect x="128" y="224" width="32" height="32" fill="#FF6F00" />
  <rect x="160" y="224" width="32" height="32" fill="#FFFF00" />
  <rect x="192" y="224" width="32" height="32" fill="#BFFF00" />
  <rect x="224" y="224" width="32" height="32" fill="#7FFF00" />
</svg>
