<svg xmlns="http://www.w3.org/2000/svg" width="256" height="256" viewBox="0 0 256 256" shape-rendering="crispEdges" role="img" aria-labelledby="title desc">
  <title id="title">Balance of Tension</title>
  <desc id="desc">This piece explores the interplay between vulnerability and strength through contrasting color fields. The palette of soft powder pink and stark carbon black emphasizes emotional tension—softness versus severity. The main collision occurs at the center, where dense black patches encounter lighter, fragmented colors to represent the fragile boundaries between opposing forces. The broken pixels introduce disruptions, embodying the theme of imperfection and complexity in our emotional landscapes.</desc>
  <rect width="256" height="256" fill="#FFFFFF" />
  <rect x="0" y="0" width="32" height="32" fill="#FFB3C1" />
  <rect x="32" y="0" width="32" height="32" fill="#FFB3C1" />
  <rect x="64" y="0" width="32" height="32" fill="#FFB3C1" />
  <rect x="96" y="0" width="32" height="32" fill="#000000" />
  <rect x="128" y="0" width="32" height="32" fill="#000000" />
  <rect x="160" y="0" width="32" height="32" fill="#FFB3C1" />
  <rect x="192" y="0" width="32" height="32" fill="#FFFFFF" />
  <rect x="224" y="0" width="32" height="32" fill="#000000" />
  <rect x="0" y="32" width="32" height="32" fill="#000000" />
  <rect x="32" y="32" width="32" height="32" fill="#FFFFFF" />
  <rect x="64" y="32" width="32" height="32" fill="#FFFFFF" />
  <rect x="96" y="32" width="32" height="32" fill="#FFB3C1" />
  <rect x="128" y="32" width="32" height="32" fill="#FFB3C1" />
  <rect x="160" y="32" width="32" height="32" fill="#FFFFFF" />
  <rect x="192" y="32" width="32" height="32" fill="#FFFFFF" />
  <rect x="224" y="32" width="32" height="32" fill="#FFFFFF" />
  <rect x="0" y="64" width="32" height="32" fill="#000000" />
  <rect x="32" y="64" width="32" height="32" fill="#FFFFFF" />
  <rect x="64" y="64" width="32" height="32" fill="#FFB3C1" />
  <rect x="96" y="64" width="32" height="32" fill="#000000" />
  <rect x="128" y="64" width="32" height="32" fill="#FFB3C1" />
  <rect x="160" y="64" width="32" height="32" fill="#000000" />
  <rect x="192" y="64" width="32" height="32" fill="#FFFFFF" />
  <rect x="224" y="64" width="32" height="32" fill="#FFFFFF" />
  <rect x="0" y="96" width="32" height="32" fill="#FFFFFF" />
  <rect x="32" y="96" width="32" height="32" fill="#000000" />
  <rect x="64" y="96" width="32" height="32" fill="#000000" />
  <rect x="96" y="96" width="32" height="32" fill="#000000" />
  <rect x="128" y="96" width="32" height="32" fill="#FFB3C1" />
  <rect x="160" y="96" width="32" height="32" fill="#000000" />
  <rect x="192" y="96" width="32" height="32" fill="#FFB3C1" />
  <rect x="224" y="96" width="32" height="32" fill="#FFFFFF" />
  <rect x="0" y="128" width="32" height="32" fill="#FFFFFF" />
  <rect x="32" y="128" width="32" height="32" fill="#000000" />
  <rect x="64" y="128" width="32" height="32" fill="#000000" />
  <rect x="96" y="128" width="32" height="32" fill="#FFB3C1" />
  <rect x="128" y="128" width="32" height="32" fill="#000000" />
  <rect x="160" y="128" width="32" height="32" fill="#FFB3C1" />
  <rect x="192" y="128" width="32" height="32" fill="#FFFFFF" />
  <rect x="224" y="128" width="32" height="32" fill="#FFFFFF" />
  <rect x="0" y="160" width="32" height="32" fill="#000000" />
  <rect x="32" y="160" width="32" height="32" fill="#000000" />
  <rect x="64" y="160" width="32" height="32" fill="#FFFFFF" />
  <rect x="96" y="160" width="32" height="32" fill="#000000" />
  <rect x="128" y="160" width="32" height="32" fill="#FFB3C1" />
  <rect x="160" y="160" width="32" height="32" fill="#FFFFFF" />
  <rect x="192" y="160" width="32" height="32" fill="#FFFFFF" />
  <rect x="224" y="160" width="32" height="32" fill="#000000" />
  <rect x="0" y="192" width="32" height="32" fill="#000000" />
  <rect x="32" y="192" width="32" height="32" fill="#FFB3C1" />
  <rect x="64" y="192" width="32" height="32" fill="#000000" />
  <rect x="96" y="192" width="32" height="32" fill="#FFB3C1" />
  <rect x="128" y="192" width="32" height="32" fill="#FFFFFF" />
  <rect x="160" y="192" width="32" height="32" fill="#FFFFFF" />
  <rect x="192" y="192" width="32" height="32" fill="#000000" />
  <rect x="224" y="192" width="32" height="32" fill="#FFFFFF" />
  <rect x="0" y="224" width="32" height="32" fill="#FFB3C1" />
  <rect x="32" y="224" width="32" height="32" fill="#000000" />
  <rect x="64" y="224" width="32" height="32" fill="#FFFFFF" />
  <rect x="96" y="224" width="32" height="32" fill="#FFB3C1" />
  <rect x="128" y="224" width="32" height="32" fill="#000000" />
  <rect x="160" y="224" width="32" height="32" fill="#FFB3C1" />
  <rect x="192" y="224" width="32" height="32" fill="#FFB3C1" />
  <rect x="224" y="224" width="32" height="32" fill="#FFB3C1" />
</svg>
