<svg xmlns="http://www.w3.org/2000/svg" width="256" height="256" viewBox="0 0 256 256" shape-rendering="crispEdges" role="img" aria-labelledby="title desc">
  <title id="title">Harmony in Dissonance</title>
  <desc id="desc">This artwork expresses the emotional tension between tenderness and rage through a diagonal layout of contrasting colors. The vibrant reds invoke sharp, intense feelings of rage, while the surrounding pale blues and whites represent soft tenderness and calm. The main contrast occurs at the center where the red ignites against the calm hues, symbolizing an emotional collision. The deliberate placement of broken black pixels symbolizes disruptions and imperfections, reinforcing the theme of conflict and resolution inherent in the seed text. Overall, this piece captures the complexity of emotions by blending saturation with muted tones, crafting an engaging visual dialogue.</desc>
  <rect width="256" height="256" fill="#FFFFFF" />
  <rect x="0" y="0" width="32" height="32" fill="#FF5733" />
  <rect x="32" y="0" width="32" height="32" fill="#FF5733" />
  <rect x="64" y="0" width="32" height="32" fill="#FF5733" />
  <rect x="96" y="0" width="32" height="32" fill="#FF5733" />
  <rect x="128" y="0" width="32" height="32" fill="#BFBFBF" />
  <rect x="160" y="0" width="32" height="32" fill="#BFBFBF" />
  <rect x="192" y="0" width="32" height="32" fill="#BFBFBF" />
  <rect x="224" y="0" width="32" height="32" fill="#BFBFBF" />
  <rect x="0" y="32" width="32" height="32" fill="#FF5733" />
  <rect x="32" y="32" width="32" height="32" fill="#FF5733" />
  <rect x="64" y="32" width="32" height="32" fill="#FF5733" />
  <rect x="96" y="32" width="32" height="32" fill="#FF5733" />
  <rect x="128" y="32" width="32" height="32" fill="#A2C2D4" />
  <rect x="160" y="32" width="32" height="32" fill="#A2C2D4" />
  <rect x="192" y="32" width="32" height="32" fill="#A2C2D4" />
  <rect x="224" y="32" width="32" height="32" fill="#BFBFBF" />
  <rect x="0" y="64" width="32" height="32" fill="#FF5733" />
  <rect x="32" y="64" width="32" height="32" fill="#FF5733" />
  <rect x="64" y="64" width="32" height="32" fill="#FF5733" />
  <rect x="96" y="64" width="32" height="32" fill="#FF5733" />
  <rect x="128" y="64" width="32" height="32" fill="#A2C2D4" />
  <rect x="160" y="64" width="32" height="32" fill="#FFFFFF" />
  <rect x="192" y="64" width="32" height="32" fill="#A2C2D4" />
  <rect x="224" y="64" width="32" height="32" fill="#BFBFBF" />
  <rect x="0" y="96" width="32" height="32" fill="#FF5733" />
  <rect x="32" y="96" width="32" height="32" fill="#FF5733" />
  <rect x="64" y="96" width="32" height="32" fill="#FF5733" />
  <rect x="96" y="96" width="32" height="32" fill="#BFBFBF" />
  <rect x="128" y="96" width="32" height="32" fill="#FFFFFF" />
  <rect x="160" y="96" width="32" height="32" fill="#FFFFFF" />
  <rect x="192" y="96" width="32" height="32" fill="#FFFFFF" />
  <rect x="224" y="96" width="32" height="32" fill="#BFBFBF" />
  <rect x="0" y="128" width="32" height="32" fill="#FF5733" />
  <rect x="32" y="128" width="32" height="32" fill="#FF5733" />
  <rect x="64" y="128" width="32" height="32" fill="#BFBFBF" />
  <rect x="96" y="128" width="32" height="32" fill="#BFBFBF" />
  <rect x="128" y="128" width="32" height="32" fill="#FFFFFF" />
  <rect x="160" y="128" width="32" height="32" fill="#FFFFFF" />
  <rect x="192" y="128" width="32" height="32" fill="#A2C2D4" />
  <rect x="224" y="128" width="32" height="32" fill="#BFBFBF" />
  <rect x="0" y="160" width="32" height="32" fill="#FF5733" />
  <rect x="32" y="160" width="32" height="32" fill="#BFBFBF" />
  <rect x="64" y="160" width="32" height="32" fill="#BFBFBF" />
  <rect x="96" y="160" width="32" height="32" fill="#BFBFBF" />
  <rect x="128" y="160" width="32" height="32" fill="#FFFFFF" />
  <rect x="160" y="160" width="32" height="32" fill="#A2C2D4" />
  <rect x="192" y="160" width="32" height="32" fill="#A2C2D4" />
  <rect x="224" y="160" width="32" height="32" fill="#BFBFBF" />
  <rect x="0" y="192" width="32" height="32" fill="#BFBFBF" />
  <rect x="32" y="192" width="32" height="32" fill="#BFBFBF" />
  <rect x="64" y="192" width="32" height="32" fill="#BFBFBF" />
  <rect x="96" y="192" width="32" height="32" fill="#BFBFBF" />
  <rect x="128" y="192" width="32" height="32" fill="#FFFFFF" />
  <rect x="160" y="192" width="32" height="32" fill="#A2C2D4" />
  <rect x="192" y="192" width="32" height="32" fill="#A2C2D4" />
  <rect x="224" y="192" width="32" height="32" fill="#BFBFBF" />
  <rect x="0" y="224" width="32" height="32" fill="#BFBFBF" />
  <rect x="32" y="224" width="32" height="32" fill="#BFBFBF" />
  <rect x="64" y="224" width="32" height="32" fill="#BFBFBF" />
  <rect x="96" y="224" width="32" height="32" fill="#BFBFBF" />
  <rect x="128" y="224" width="32" height="32" fill="#BFBFBF" />
  <rect x="160" y="224" width="32" height="32" fill="#A2C2D4" />
  <rect x="192" y="224" width="32" height="32" fill="#A2C2D4" />
  <rect x="224" y="224" width="32" height="32" fill="#BFBFBF" />
</svg>
