<svg xmlns="http://www.w3.org/2000/svg" width="256" height="256" viewBox="0 0 256 256" shape-rendering="crispEdges" role="img" aria-labelledby="title desc">
  <title id="title">Tension in Corners</title>
  <desc id="desc">The emotional tone oscillates between defiance and submission, expressed through a chaotic corner filled with vibrant colors and a serene negative space. The selected palette of moss green and rust evokes organic resistance against the permanence of bone white, symbolizing resilience amidst fragility. The main interaction occurs at the bottom left corner, where the bold, broken frame pattern creates a visual spark, symbolizing invasion and pressure, contrasting with the subdued threads of submission that stretch toward the upper edges. The arrangement signifies a struggle within the space, while the broken pixels introduce intentional imperfections, enhancing the narrative of conflict.</desc>
  <rect width="256" height="256" fill="#FFFFFF" />
  <rect x="0" y="0" width="32" height="32" fill="#6B8E23" />
  <rect x="32" y="0" width="32" height="32" fill="#B0C4DE" />
  <rect x="64" y="0" width="32" height="32" fill="#8B4513" />
  <rect x="96" y="0" width="32" height="32" fill="#DCDCDC" />
  <rect x="128" y="0" width="32" height="32" fill="#FFF5EE" />
  <rect x="160" y="0" width="32" height="32" fill="#A0522D" />
  <rect x="192" y="0" width="32" height="32" fill="#556B2F" />
  <rect x="224" y="0" width="32" height="32" fill="#F5F5F5" />
  <rect x="0" y="32" width="32" height="32" fill="#8B0000" />
  <rect x="32" y="32" width="32" height="32" fill="#D3D3D3" />
  <rect x="64" y="32" width="32" height="32" fill="#B8860B" />
  <rect x="96" y="32" width="32" height="32" fill="#A9A9A9" />
  <rect x="128" y="32" width="32" height="32" fill="#F0E68C" />
  <rect x="160" y="32" width="32" height="32" fill="#E6E6FA" />
  <rect x="192" y="32" width="32" height="32" fill="#5F9EA0" />
  <rect x="224" y="32" width="32" height="32" fill="#696969" />
  <rect x="0" y="64" width="32" height="32" fill="#A9A9A9" />
  <rect x="32" y="64" width="32" height="32" fill="#ADD8E6" />
  <rect x="64" y="64" width="32" height="32" fill="#B0E0E6" />
  <rect x="96" y="64" width="32" height="32" fill="#F5F5DC" />
  <rect x="128" y="64" width="32" height="32" fill="#DDA0DD" />
  <rect x="160" y="64" width="32" height="32" fill="#CD5C5C" />
  <rect x="192" y="64" width="32" height="32" fill="#D2B48C" />
  <rect x="224" y="64" width="32" height="32" fill="#696969" />
  <rect x="0" y="96" width="32" height="32" fill="#CD853F" />
  <rect x="32" y="96" width="32" height="32" fill="#FFE4B5" />
  <rect x="64" y="96" width="32" height="32" fill="#D2691E" />
  <rect x="96" y="96" width="32" height="32" fill="#F4A460" />
  <rect x="128" y="96" width="32" height="32" fill="#B0C4DE" />
  <rect x="160" y="96" width="32" height="32" fill="#FFF5EE" />
  <rect x="192" y="96" width="32" height="32" fill="#FFF0F5" />
  <rect x="224" y="96" width="32" height="32" fill="#708090" />
  <rect x="0" y="128" width="32" height="32" fill="#FFE4E1" />
  <rect x="32" y="128" width="32" height="32" fill="#F5DEB3" />
  <rect x="64" y="128" width="32" height="32" fill="#FFFFE0" />
  <rect x="96" y="128" width="32" height="32" fill="#DEB887" />
  <rect x="128" y="128" width="32" height="32" fill="#F08080" />
  <rect x="160" y="128" width="32" height="32" fill="#F5F5F5" />
  <rect x="192" y="128" width="32" height="32" fill="#FF7F50" />
  <rect x="224" y="128" width="32" height="32" fill="#BDB76B" />
  <rect x="0" y="160" width="32" height="32" fill="#FFB6C1" />
  <rect x="32" y="160" width="32" height="32" fill="#FFFAFA" />
  <rect x="64" y="160" width="32" height="32" fill="#B0E0E6" />
  <rect x="96" y="160" width="32" height="32" fill="#D3D3D3" />
  <rect x="128" y="160" width="32" height="32" fill="#D8BFD8" />
  <rect x="160" y="160" width="32" height="32" fill="#F0E68C" />
  <rect x="192" y="160" width="32" height="32" fill="#FF6347" />
  <rect x="224" y="160" width="32" height="32" fill="#F5FFFA" />
  <rect x="0" y="192" width="32" height="32" fill="#7CFC00" />
  <rect x="32" y="192" width="32" height="32" fill="#708090" />
  <rect x="64" y="192" width="32" height="32" fill="#B0C4DE" />
  <rect x="96" y="192" width="32" height="32" fill="#FAF0E6" />
  <rect x="128" y="192" width="32" height="32" fill="#D8BFD8" />
  <rect x="160" y="192" width="32" height="32" fill="#FFF5EE" />
  <rect x="192" y="192" width="32" height="32" fill="#FFEFD5" />
  <rect x="224" y="192" width="32" height="32" fill="#4682B4" />
  <rect x="0" y="224" width="32" height="32" fill="#F5FFFA" />
  <rect x="32" y="224" width="32" height="32" fill="#F0FFF0" />
  <rect x="64" y="224" width="32" height="32" fill="#FFF8DC" />
  <rect x="96" y="224" width="32" height="32" fill="#D8BFD8" />
  <rect x="128" y="224" width="32" height="32" fill="#1E90FF" />
  <rect x="160" y="224" width="32" height="32" fill="#ADFF2F" />
  <rect x="192" y="224" width="32" height="32" fill="#FFD700" />
  <rect x="224" y="224" width="32" height="32" fill="#B22222" />
</svg>
