<svg xmlns="http://www.w3.org/2000/svg" width="256" height="256" viewBox="0 0 256 256" shape-rendering="crispEdges" role="img" aria-labelledby="title desc">
  <title id="title">Collision of Soft and Sharp</title>
  <desc id="desc">This artwork explores the emotional tension between tenderness and rage. The palette combines deep blacks representing rage and pale blues reflecting calmness, creating a stark contrast. The primary collision occurs along a diagonal wedge, where the intense dark colors press against lighter fields, signifying the struggle of emotions. The pixel bleed mimics the chaos of this conflict, while the intentional broken pixels add an element of imperfection, enhancing the narrative of guilt and forgiveness woven through the seed.</desc>
  <rect width="256" height="256" fill="#FFFFFF" />
  <rect x="0" y="0" width="32" height="32" fill="#000000" />
  <rect x="32" y="0" width="32" height="32" fill="#000000" />
  <rect x="64" y="0" width="32" height="32" fill="#000000" />
  <rect x="96" y="0" width="32" height="32" fill="#000000" />
  <rect x="128" y="0" width="32" height="32" fill="#000000" />
  <rect x="160" y="0" width="32" height="32" fill="#11384D" />
  <rect x="192" y="0" width="32" height="32" fill="#A9C6DA" />
  <rect x="224" y="0" width="32" height="32" fill="#FFFFFF" />
  <rect x="0" y="32" width="32" height="32" fill="#000000" />
  <rect x="32" y="32" width="32" height="32" fill="#000000" />
  <rect x="64" y="32" width="32" height="32" fill="#000000" />
  <rect x="96" y="32" width="32" height="32" fill="#4D637C" />
  <rect x="128" y="32" width="32" height="32" fill="#A1A9B9" />
  <rect x="160" y="32" width="32" height="32" fill="#D9E2E6" />
  <rect x="192" y="32" width="32" height="32" fill="#FFFFFF" />
  <rect x="224" y="32" width="32" height="32" fill="#FFFFFF" />
  <rect x="0" y="64" width="32" height="32" fill="#000000" />
  <rect x="32" y="64" width="32" height="32" fill="#4B3832" />
  <rect x="64" y="64" width="32" height="32" fill="#6F9B9A" />
  <rect x="96" y="64" width="32" height="32" fill="#B7CED5" />
  <rect x="128" y="64" width="32" height="32" fill="#E9F1FF" />
  <rect x="160" y="64" width="32" height="32" fill="#FFFFFF" />
  <rect x="192" y="64" width="32" height="32" fill="#FFFFFF" />
  <rect x="224" y="64" width="32" height="32" fill="#FFFFFF" />
  <rect x="0" y="96" width="32" height="32" fill="#000000" />
  <rect x="32" y="96" width="32" height="32" fill="#4B3832" />
  <rect x="64" y="96" width="32" height="32" fill="#6F9B9A" />
  <rect x="96" y="96" width="32" height="32" fill="#A9C6DA" />
  <rect x="128" y="96" width="32" height="32" fill="#FFFFFF" />
  <rect x="160" y="96" width="32" height="32" fill="#FFFFFF" />
  <rect x="192" y="96" width="32" height="32" fill="#FFFFFF" />
  <rect x="224" y="96" width="32" height="32" fill="#FFFFFF" />
  <rect x="0" y="128" width="32" height="32" fill="#000000" />
  <rect x="32" y="128" width="32" height="32" fill="#4B3832" />
  <rect x="64" y="128" width="32" height="32" fill="#4D637C" />
  <rect x="96" y="128" width="32" height="32" fill="#B7CED5" />
  <rect x="128" y="128" width="32" height="32" fill="#D9E2E6" />
  <rect x="160" y="128" width="32" height="32" fill="#FFFFFF" />
  <rect x="192" y="128" width="32" height="32" fill="#FFFFFF" />
  <rect x="224" y="128" width="32" height="32" fill="#FFFFFF" />
  <rect x="0" y="160" width="32" height="32" fill="#000000" />
  <rect x="32" y="160" width="32" height="32" fill="#000000" />
  <rect x="64" y="160" width="32" height="32" fill="#4D637C" />
  <rect x="96" y="160" width="32" height="32" fill="#B7CED5" />
  <rect x="128" y="160" width="32" height="32" fill="#E9F1FF" />
  <rect x="160" y="160" width="32" height="32" fill="#FFFFFF" />
  <rect x="192" y="160" width="32" height="32" fill="#FFFFFF" />
  <rect x="224" y="160" width="32" height="32" fill="#FFFFFF" />
  <rect x="0" y="192" width="32" height="32" fill="#000000" />
  <rect x="32" y="192" width="32" height="32" fill="#4B3832" />
  <rect x="64" y="192" width="32" height="32" fill="#4D637C" />
  <rect x="96" y="192" width="32" height="32" fill="#A1A9B9" />
  <rect x="128" y="192" width="32" height="32" fill="#D9E2E6" />
  <rect x="160" y="192" width="32" height="32" fill="#FFFFFF" />
  <rect x="192" y="192" width="32" height="32" fill="#FFFFFF" />
  <rect x="224" y="192" width="32" height="32" fill="#FFFFFF" />
  <rect x="0" y="224" width="32" height="32" fill="#000000" />
  <rect x="32" y="224" width="32" height="32" fill="#000000" />
  <rect x="64" y="224" width="32" height="32" fill="#000000" />
  <rect x="96" y="224" width="32" height="32" fill="#000000" />
  <rect x="128" y="224" width="32" height="32" fill="#000000" />
  <rect x="160" y="224" width="32" height="32" fill="#FFFFFF" />
  <rect x="192" y="224" width="32" height="32" fill="#FFFFFF" />
  <rect x="224" y="224" width="32" height="32" fill="#FFFFFF" />
</svg>
