<svg xmlns="http://www.w3.org/2000/svg" width="256" height="256" viewBox="0 0 256 256" shape-rendering="crispEdges" role="img" aria-labelledby="title desc">
  <title id="title">Threshold of Emotion</title>
  <desc id="desc">This piece contrasts the tension of dread with the release of relief through a carefully structured color palette. The palette blends shades of pale mint and soft sky, representing relief, with storm gray and near black, evoking dread. The arrangement clusters darker tones in the top left corner, symbolizing building pressure, and gradually transitions into softer hues that create an opening toward the bottom right. This dynamic transformation reflects the seed's theme of tension and release through colors that symbolize ancient fire and the spiral of emotions. The broken pixels act as intentional disruptions, enhancing the sense of imperfection and adding depth to this emotional journey.</desc>
  <rect width="256" height="256" fill="#FFFFFF" />
  <rect x="0" y="0" width="32" height="32" fill="#000000" />
  <rect x="32" y="0" width="32" height="32" fill="#000000" />
  <rect x="64" y="0" width="32" height="32" fill="#111111" />
  <rect x="96" y="0" width="32" height="32" fill="#222222" />
  <rect x="128" y="0" width="32" height="32" fill="#333333" />
  <rect x="160" y="0" width="32" height="32" fill="#444444" />
  <rect x="192" y="0" width="32" height="32" fill="#555555" />
  <rect x="224" y="0" width="32" height="32" fill="#555555" />
  <rect x="0" y="32" width="32" height="32" fill="#111111" />
  <rect x="32" y="32" width="32" height="32" fill="#222222" />
  <rect x="64" y="32" width="32" height="32" fill="#333333" />
  <rect x="96" y="32" width="32" height="32" fill="#444444" />
  <rect x="128" y="32" width="32" height="32" fill="#555555" />
  <rect x="160" y="32" width="32" height="32" fill="#666666" />
  <rect x="192" y="32" width="32" height="32" fill="#777777" />
  <rect x="224" y="32" width="32" height="32" fill="#777777" />
  <rect x="0" y="64" width="32" height="32" fill="#000000" />
  <rect x="32" y="64" width="32" height="32" fill="#111111" />
  <rect x="64" y="64" width="32" height="32" fill="#444444" />
  <rect x="96" y="64" width="32" height="32" fill="#555555" />
  <rect x="128" y="64" width="32" height="32" fill="#666666" />
  <rect x="160" y="64" width="32" height="32" fill="#777777" />
  <rect x="192" y="64" width="32" height="32" fill="#888888" />
  <rect x="224" y="64" width="32" height="32" fill="#888888" />
  <rect x="0" y="96" width="32" height="32" fill="#000000" />
  <rect x="32" y="96" width="32" height="32" fill="#111111" />
  <rect x="64" y="96" width="32" height="32" fill="#333333" />
  <rect x="96" y="96" width="32" height="32" fill="#444444" />
  <rect x="128" y="96" width="32" height="32" fill="#666666" />
  <rect x="160" y="96" width="32" height="32" fill="#AAAAAA" />
  <rect x="192" y="96" width="32" height="32" fill="#BBBBBB" />
  <rect x="224" y="96" width="32" height="32" fill="#CCCCCC" />
  <rect x="0" y="128" width="32" height="32" fill="#111111" />
  <rect x="32" y="128" width="32" height="32" fill="#222222" />
  <rect x="64" y="128" width="32" height="32" fill="#444444" />
  <rect x="96" y="128" width="32" height="32" fill="#555555" />
  <rect x="128" y="128" width="32" height="32" fill="#666666" />
  <rect x="160" y="128" width="32" height="32" fill="#AAAAAA" />
  <rect x="192" y="128" width="32" height="32" fill="#DDDDDD" />
  <rect x="224" y="128" width="32" height="32" fill="#EEEEEE" />
  <rect x="0" y="160" width="32" height="32" fill="#AAEEAA" />
  <rect x="32" y="160" width="32" height="32" fill="#BBFFAA" />
  <rect x="64" y="160" width="32" height="32" fill="#CCFFA1" />
  <rect x="96" y="160" width="32" height="32" fill="#DDFFC1" />
  <rect x="128" y="160" width="32" height="32" fill="#EEF1E1" />
  <rect x="160" y="160" width="32" height="32" fill="#F2F2F2" />
  <rect x="192" y="160" width="32" height="32" fill="#F8F2E1" />
  <rect x="224" y="160" width="32" height="32" fill="#FFFFFF" />
  <rect x="0" y="192" width="32" height="32" fill="#334455" />
  <rect x="32" y="192" width="32" height="32" fill="#445566" />
  <rect x="64" y="192" width="32" height="32" fill="#556677" />
  <rect x="96" y="192" width="32" height="32" fill="#667788" />
  <rect x="128" y="192" width="32" height="32" fill="#778899" />
  <rect x="160" y="192" width="32" height="32" fill="#88AABB" />
  <rect x="192" y="192" width="32" height="32" fill="#99BBCC" />
  <rect x="224" y="192" width="32" height="32" fill="#AACCDD" />
  <rect x="0" y="224" width="32" height="32" fill="#223344" />
  <rect x="32" y="224" width="32" height="32" fill="#334455" />
  <rect x="64" y="224" width="32" height="32" fill="#445566" />
  <rect x="96" y="224" width="32" height="32" fill="#556677" />
  <rect x="128" y="224" width="32" height="32" fill="#667788" />
  <rect x="160" y="224" width="32" height="32" fill="#778899" />
  <rect x="192" y="224" width="32" height="32" fill="#8899AA" />
  <rect x="224" y="224" width="32" height="32" fill="#9999BB" />
</svg>
