<svg xmlns="http://www.w3.org/2000/svg" width="256" height="256" viewBox="0 0 256 256" shape-rendering="crispEdges" role="img" aria-labelledby="title desc">
  <title id="title">Tension Between Worlds</title>
  <desc id="desc">This composition captures the emotional dichotomy of panic and control using a carefully selected palette and arrangement. The contrasting colors of deep black, dark violet, soft gold, and pale green evoke feelings of both fear and hope. The left side, embodying panic, uses sharp transitions and broken pixels to create a feeling of tension, while the right side represents control with softer patterns. The encounter between these contrasting emotions manifests in the center where the flow of colors collides, creating a pivotal interaction that symbolizes instability. This arrangement is intentional, suggesting the ongoing struggle between order and chaos.</desc>
  <rect width="256" height="256" fill="#FFFFFF" />
  <rect x="0" y="0" width="32" height="32" fill="#000000" />
  <rect x="32" y="0" width="32" height="32" fill="#2E004F" />
  <rect x="64" y="0" width="32" height="32" fill="#FFD700" />
  <rect x="96" y="0" width="32" height="32" fill="#D0E8D0" />
  <rect x="128" y="0" width="32" height="32" fill="#2E004F" />
  <rect x="160" y="0" width="32" height="32" fill="#FFD700" />
  <rect x="192" y="0" width="32" height="32" fill="#D0E8D0" />
  <rect x="224" y="0" width="32" height="32" fill="#000000" />
  <rect x="0" y="32" width="32" height="32" fill="#3B0046" />
  <rect x="32" y="32" width="32" height="32" fill="#4B0082" />
  <rect x="64" y="32" width="32" height="32" fill="#D0E8D0" />
  <rect x="96" y="32" width="32" height="32" fill="#FFD700" />
  <rect x="128" y="32" width="32" height="32" fill="#4B0082" />
  <rect x="160" y="32" width="32" height="32" fill="#D0E8D0" />
  <rect x="192" y="32" width="32" height="32" fill="#FFD700" />
  <rect x="224" y="32" width="32" height="32" fill="#3B0046" />
  <rect x="0" y="64" width="32" height="32" fill="#000000" />
  <rect x="32" y="64" width="32" height="32" fill="#5B0056" />
  <rect x="64" y="64" width="32" height="32" fill="#FFD700" />
  <rect x="96" y="64" width="32" height="32" fill="#D0E8D0" />
  <rect x="128" y="64" width="32" height="32" fill="#5B0056" />
  <rect x="160" y="64" width="32" height="32" fill="#FFD700" />
  <rect x="192" y="64" width="32" height="32" fill="#D0E8D0" />
  <rect x="224" y="64" width="32" height="32" fill="#000000" />
  <rect x="0" y="96" width="32" height="32" fill="#4A003D" />
  <rect x="32" y="96" width="32" height="32" fill="#CC7722" />
  <rect x="64" y="96" width="32" height="32" fill="#D0E8D0" />
  <rect x="96" y="96" width="32" height="32" fill="#FFD700" />
  <rect x="128" y="96" width="32" height="32" fill="#CC7722" />
  <rect x="160" y="96" width="32" height="32" fill="#D0E8D0" />
  <rect x="192" y="96" width="32" height="32" fill="#FFD700" />
  <rect x="224" y="96" width="32" height="32" fill="#4A003D" />
  <rect x="0" y="128" width="32" height="32" fill="#000000" />
  <rect x="32" y="128" width="32" height="32" fill="#4F0044" />
  <rect x="64" y="128" width="32" height="32" fill="#D0E8D0" />
  <rect x="96" y="128" width="32" height="32" fill="#FFD700" />
  <rect x="128" y="128" width="32" height="32" fill="#4F0044" />
  <rect x="160" y="128" width="32" height="32" fill="#D0E8D0" />
  <rect x="192" y="128" width="32" height="32" fill="#FFD700" />
  <rect x="224" y="128" width="32" height="32" fill="#000000" />
  <rect x="0" y="160" width="32" height="32" fill="#440043" />
  <rect x="32" y="160" width="32" height="32" fill="#CC7722" />
  <rect x="64" y="160" width="32" height="32" fill="#FFD700" />
  <rect x="96" y="160" width="32" height="32" fill="#D0E8D0" />
  <rect x="128" y="160" width="32" height="32" fill="#CC7722" />
  <rect x="160" y="160" width="32" height="32" fill="#FFD700" />
  <rect x="192" y="160" width="32" height="32" fill="#D0E8D0" />
  <rect x="224" y="160" width="32" height="32" fill="#440043" />
  <rect x="0" y="192" width="32" height="32" fill="#000000" />
  <rect x="32" y="192" width="32" height="32" fill="#3C004B" />
  <rect x="64" y="192" width="32" height="32" fill="#D0E8D0" />
  <rect x="96" y="192" width="32" height="32" fill="#FFD700" />
  <rect x="128" y="192" width="32" height="32" fill="#3C004B" />
  <rect x="160" y="192" width="32" height="32" fill="#D0E8D0" />
  <rect x="192" y="192" width="32" height="32" fill="#FFD700" />
  <rect x="224" y="192" width="32" height="32" fill="#000000" />
  <rect x="0" y="224" width="32" height="32" fill="#4C003E" />
  <rect x="32" y="224" width="32" height="32" fill="#5A2D5E" />
  <rect x="64" y="224" width="32" height="32" fill="#FFD700" />
  <rect x="96" y="224" width="32" height="32" fill="#D0E8D0" />
  <rect x="128" y="224" width="32" height="32" fill="#5A2D5E" />
  <rect x="160" y="224" width="32" height="32" fill="#FFD700" />
  <rect x="192" y="224" width="32" height="32" fill="#D0E8D0" />
  <rect x="224" y="224" width="32" height="32" fill="#4C003E" />
</svg>
