<svg xmlns="http://www.w3.org/2000/svg" width="256" height="256" viewBox="0 0 256 256" shape-rendering="crispEdges" role="img" aria-labelledby="title desc">
  <title id="title">Veil of Connections</title>
  <desc id="desc">The artwork explores the emotional dichotomy of loneliness and connection, embodying a tense interplay through color and form. The chosen palette of pink, red, gray, and dark maroon reflects warmth and tumult, tying closely to feelings of both affection and betrayal. The central pixels are dense and warm, represented by reds and dark maroons, contrasting against cooler gray tones that form an outer boundary, conveying a sense of isolation. Through the grid-like pattern of connection clashing with flame-like bursts of loneliness, the arrangement suggests a struggle between togetherness and solitude, allowing the viewer to feel the weight of connection amidst the vastness of disconnection. The broken edges and negative spaces hint at the fragility of these emotions.</desc>
  <rect width="256" height="256" fill="#FFFFFF" />
  <rect x="0" y="0" width="32" height="32" fill="#FFC0CB" />
  <rect x="32" y="0" width="32" height="32" fill="#FFCCCC" />
  <rect x="64" y="0" width="32" height="32" fill="#FFB2B2" />
  <rect x="96" y="0" width="32" height="32" fill="#D3D3D3" />
  <rect x="128" y="0" width="32" height="32" fill="#A9A9A9" />
  <rect x="160" y="0" width="32" height="32" fill="#7D7D7D" />
  <rect x="192" y="0" width="32" height="32" fill="#555555" />
  <rect x="224" y="0" width="32" height="32" fill="#333333" />
  <rect x="0" y="32" width="32" height="32" fill="#F57F7F" />
  <rect x="32" y="32" width="32" height="32" fill="#FF6F6F" />
  <rect x="64" y="32" width="32" height="32" fill="#FF5050" />
  <rect x="96" y="32" width="32" height="32" fill="#CCCCCC" />
  <rect x="128" y="32" width="32" height="32" fill="#B0B0B0" />
  <rect x="160" y="32" width="32" height="32" fill="#A0A0A0" />
  <rect x="192" y="32" width="32" height="32" fill="#727272" />
  <rect x="224" y="32" width="32" height="32" fill="#454545" />
  <rect x="0" y="64" width="32" height="32" fill="#FFB3B3" />
  <rect x="32" y="64" width="32" height="32" fill="#FF9999" />
  <rect x="64" y="64" width="32" height="32" fill="#FF7F7F" />
  <rect x="96" y="64" width="32" height="32" fill="#E4E4E4" />
  <rect x="128" y="64" width="32" height="32" fill="#D1D1D1" />
  <rect x="160" y="64" width="32" height="32" fill="#B8B8B8" />
  <rect x="192" y="64" width="32" height="32" fill="#A0A0A0" />
  <rect x="224" y="64" width="32" height="32" fill="#606060" />
  <rect x="0" y="96" width="32" height="32" fill="#D66C6C" />
  <rect x="32" y="96" width="32" height="32" fill="#BF4F4F" />
  <rect x="64" y="96" width="32" height="32" fill="#FF5555" />
  <rect x="96" y="96" width="32" height="32" fill="#D3D3D3" />
  <rect x="128" y="96" width="32" height="32" fill="#AFAFAF" />
  <rect x="160" y="96" width="32" height="32" fill="#9C9C9C" />
  <rect x="192" y="96" width="32" height="32" fill="#7B7B7B" />
  <rect x="224" y="96" width="32" height="32" fill="#4A4A4A" />
  <rect x="0" y="128" width="32" height="32" fill="#840B0B" />
  <rect x="32" y="128" width="32" height="32" fill="#9C1414" />
  <rect x="64" y="128" width="32" height="32" fill="#FF4040" />
  <rect x="96" y="128" width="32" height="32" fill="#D5D5D5" />
  <rect x="128" y="128" width="32" height="32" fill="#B6B6B6" />
  <rect x="160" y="128" width="32" height="32" fill="#C2C2C2" />
  <rect x="192" y="128" width="32" height="32" fill="#989898" />
  <rect x="224" y="128" width="32" height="32" fill="#545454" />
  <rect x="0" y="160" width="32" height="32" fill="#550000" />
  <rect x="32" y="160" width="32" height="32" fill="#A70000" />
  <rect x="64" y="160" width="32" height="32" fill="#FF3B3B" />
  <rect x="96" y="160" width="32" height="32" fill="#EBEBEB" />
  <rect x="128" y="160" width="32" height="32" fill="#CFCFCF" />
  <rect x="160" y="160" width="32" height="32" fill="#B1B1B1" />
  <rect x="192" y="160" width="32" height="32" fill="#A1A1A1" />
  <rect x="224" y="160" width="32" height="32" fill="#4A4A4A" />
  <rect x="0" y="192" width="32" height="32" fill="#2C0000" />
  <rect x="32" y="192" width="32" height="32" fill="#A30000" />
  <rect x="64" y="192" width="32" height="32" fill="#FF2B2B" />
  <rect x="96" y="192" width="32" height="32" fill="#DEDEDE" />
  <rect x="128" y="192" width="32" height="32" fill="#D0D0D0" />
  <rect x="160" y="192" width="32" height="32" fill="#BEBEBE" />
  <rect x="192" y="192" width="32" height="32" fill="#7D7D7D" />
  <rect x="224" y="192" width="32" height="32" fill="#222222" />
  <rect x="0" y="224" width="32" height="32" fill="#000000" />
  <rect x="32" y="224" width="32" height="32" fill="#B00000" />
  <rect x="64" y="224" width="32" height="32" fill="#FF0000" />
  <rect x="96" y="224" width="32" height="32" fill="#C8C8C8" />
  <rect x="128" y="224" width="32" height="32" fill="#D1D1D1" />
  <rect x="160" y="224" width="32" height="32" fill="#E0E0E0" />
  <rect x="192" y="224" width="32" height="32" fill="#A0A0A0" />
  <rect x="224" y="224" width="32" height="32" fill="#111111" />
</svg>
