<svg xmlns="http://www.w3.org/2000/svg" width="256" height="256" viewBox="0 0 256 256" shape-rendering="crispEdges" role="img" aria-labelledby="title desc">
  <title id="title">Echoes of Clarity</title>
  <desc id="desc">The emotional tone reflects the struggle between clarity (signal) and chaos (noise). The palette includes a 'signal green' for moments of clarity and an 'electric blue' to evoke a sense of urgency, contrasted sharply with 'dead black' and 'static gray' to represent interference and shadowy echoes. The upper left quadrant dominates with a smooth arrangement of green dots signifying the pulse of clarity, while the right side exhibits scarred arrangements of gray and magenta showing noise. The collision, led by jagged edges and broken pixels, occurs centrally, creating a striking interruption that draws the eye.</desc>
  <rect width="256" height="256" fill="#FFFFFF" />
  <rect x="0" y="0" width="32" height="32" fill="#0BDA51" />
  <rect x="32" y="0" width="32" height="32" fill="#0BDA51" />
  <rect x="64" y="0" width="32" height="32" fill="#0BDA51" />
  <rect x="96" y="0" width="32" height="32" fill="#0BDA51" />
  <rect x="128" y="0" width="32" height="32" fill="#6A6A6A" />
  <rect x="160" y="0" width="32" height="32" fill="#F04E1E" />
  <rect x="192" y="0" width="32" height="32" fill="#6A6A6A" />
  <rect x="224" y="0" width="32" height="32" fill="#6A6A6A" />
  <rect x="0" y="32" width="32" height="32" fill="#0BDA51" />
  <rect x="32" y="32" width="32" height="32" fill="#0BDA51" />
  <rect x="64" y="32" width="32" height="32" fill="#0BDA51" />
  <rect x="96" y="32" width="32" height="32" fill="#0BDA51" />
  <rect x="128" y="32" width="32" height="32" fill="#6A6A6A" />
  <rect x="160" y="32" width="32" height="32" fill="#999999" />
  <rect x="192" y="32" width="32" height="32" fill="#6A6A6A" />
  <rect x="224" y="32" width="32" height="32" fill="#6A6A6A" />
  <rect x="0" y="64" width="32" height="32" fill="#0BDA51" />
  <rect x="32" y="64" width="32" height="32" fill="#0BDA51" />
  <rect x="64" y="64" width="32" height="32" fill="#0BDA51" />
  <rect x="96" y="64" width="32" height="32" fill="#0BDA51" />
  <rect x="128" y="64" width="32" height="32" fill="#6A6A6A" />
  <rect x="160" y="64" width="32" height="32" fill="#F04E1E" />
  <rect x="192" y="64" width="32" height="32" fill="#6A6A6A" />
  <rect x="224" y="64" width="32" height="32" fill="#6A6A6A" />
  <rect x="0" y="96" width="32" height="32" fill="#0BDA51" />
  <rect x="32" y="96" width="32" height="32" fill="#0BDA51" />
  <rect x="64" y="96" width="32" height="32" fill="#0BDA51" />
  <rect x="96" y="96" width="32" height="32" fill="#0BDA51" />
  <rect x="128" y="96" width="32" height="32" fill="#6A6A6A" />
  <rect x="160" y="96" width="32" height="32" fill="#999999" />
  <rect x="192" y="96" width="32" height="32" fill="#6A6A6A" />
  <rect x="224" y="96" width="32" height="32" fill="#6A6A6A" />
  <rect x="0" y="128" width="32" height="32" fill="#F04E1E" />
  <rect x="32" y="128" width="32" height="32" fill="#F04E1E" />
  <rect x="64" y="128" width="32" height="32" fill="#F04E1E" />
  <rect x="96" y="128" width="32" height="32" fill="#F04E1E" />
  <rect x="128" y="128" width="32" height="32" fill="#6A6A6A" />
  <rect x="160" y="128" width="32" height="32" fill="#F04E1E" />
  <rect x="192" y="128" width="32" height="32" fill="#F04E1E" />
  <rect x="224" y="128" width="32" height="32" fill="#F04E1E" />
  <rect x="0" y="160" width="32" height="32" fill="#0BDA51" />
  <rect x="32" y="160" width="32" height="32" fill="#6A6A6A" />
  <rect x="64" y="160" width="32" height="32" fill="#0BDA51" />
  <rect x="96" y="160" width="32" height="32" fill="#0BDA51" />
  <rect x="128" y="160" width="32" height="32" fill="#F04E1E" />
  <rect x="160" y="160" width="32" height="32" fill="#6A6A6A" />
  <rect x="192" y="160" width="32" height="32" fill="#0BDA51" />
  <rect x="224" y="160" width="32" height="32" fill="#0BDA51" />
  <rect x="0" y="192" width="32" height="32" fill="#0BDA51" />
  <rect x="32" y="192" width="32" height="32" fill="#6A6A6A" />
  <rect x="64" y="192" width="32" height="32" fill="#0BDA51" />
  <rect x="96" y="192" width="32" height="32" fill="#0BDA51" />
  <rect x="128" y="192" width="32" height="32" fill="#6A6A6A" />
  <rect x="160" y="192" width="32" height="32" fill="#FFFFFF" />
  <rect x="192" y="192" width="32" height="32" fill="#FFFFFF" />
  <rect x="224" y="192" width="32" height="32" fill="#FFFFFF" />
  <rect x="0" y="224" width="32" height="32" fill="#6A6A6A" />
  <rect x="32" y="224" width="32" height="32" fill="#6A6A6A" />
  <rect x="64" y="224" width="32" height="32" fill="#6A6A6A" />
  <rect x="96" y="224" width="32" height="32" fill="#6A6A6A" />
  <rect x="128" y="224" width="32" height="32" fill="#6A6A6A" />
  <rect x="160" y="224" width="32" height="32" fill="#FFFFFF" />
  <rect x="192" y="224" width="32" height="32" fill="#FFFFFF" />
  <rect x="224" y="224" width="32" height="32" fill="#FFFFFF" />
</svg>
