<svg xmlns="http://www.w3.org/2000/svg" width="256" height="256" viewBox="0 0 256 256" shape-rendering="crispEdges" role="img" aria-labelledby="title desc">
  <title id="title">Exposure and Shelter</title>
  <desc id="desc">This square embodies the emotional tension between vulnerability and strength. The muted palette of blues, grays, and soft whites suggests a melancholic wonder, with gentle echoes of strength represented through dense, structured patterns. The bright central cluster represents the exposed core, surrounded by darker, textured fields that suggest protection and pressure. The collision occurs in the center where light slips through, creating a dynamic contrast between the illuminated and the shadowed edges. The broken pixels serve to introduce organic imperfections, enhancing the narrative of exposure vs. shelter as fragments interrupt the calm.</desc>
  <rect width="256" height="256" fill="#FFFFFF" />
  <rect x="0" y="0" width="32" height="32" fill="#3B597A" />
  <rect x="32" y="0" width="32" height="32" fill="#A1A5BB" />
  <rect x="64" y="0" width="32" height="32" fill="#C8D7E3" />
  <rect x="96" y="0" width="32" height="32" fill="#A4B9C8" />
  <rect x="128" y="0" width="32" height="32" fill="#565D78" />
  <rect x="160" y="0" width="32" height="32" fill="#132B43" />
  <rect x="192" y="0" width="32" height="32" fill="#434D5B" />
  <rect x="224" y="0" width="32" height="32" fill="#2A2D39" />
  <rect x="0" y="32" width="32" height="32" fill="#BFD3E1" />
  <rect x="32" y="32" width="32" height="32" fill="#E2E6E3" />
  <rect x="64" y="32" width="32" height="32" fill="#C3E3E6" />
  <rect x="96" y="32" width="32" height="32" fill="#BAC8D7" />
  <rect x="128" y="32" width="32" height="32" fill="#D3D3E0" />
  <rect x="160" y="32" width="32" height="32" fill="#6A708E" />
  <rect x="192" y="32" width="32" height="32" fill="#9BA1B6" />
  <rect x="224" y="32" width="32" height="32" fill="#2C2F36" />
  <rect x="0" y="64" width="32" height="32" fill="#4B6970" />
  <rect x="32" y="64" width="32" height="32" fill="#E7EBDF" />
  <rect x="64" y="64" width="32" height="32" fill="#D2D4DD" />
  <rect x="96" y="64" width="32" height="32" fill="#C9C9C9" />
  <rect x="128" y="64" width="32" height="32" fill="#A8B2BB" />
  <rect x="160" y="64" width="32" height="32" fill="#8F9CB4" />
  <rect x="192" y="64" width="32" height="32" fill="#893236" />
  <rect x="224" y="64" width="32" height="32" fill="#342422" />
  <rect x="0" y="96" width="32" height="32" fill="#A4B5C2" />
  <rect x="32" y="96" width="32" height="32" fill="#5B717D" />
  <rect x="64" y="96" width="32" height="32" fill="#D4E4E2" />
  <rect x="96" y="96" width="32" height="32" fill="#5D757F" />
  <rect x="128" y="96" width="32" height="32" fill="#4A595C" />
  <rect x="160" y="96" width="32" height="32" fill="#162126" />
  <rect x="192" y="96" width="32" height="32" fill="#BAC8D6" />
  <rect x="224" y="96" width="32" height="32" fill="#A7B3B9" />
  <rect x="0" y="128" width="32" height="32" fill="#418B9B" />
  <rect x="32" y="128" width="32" height="32" fill="#BAC5CC" />
  <rect x="64" y="128" width="32" height="32" fill="#A2B7BF" />
  <rect x="96" y="128" width="32" height="32" fill="#D3D6E2" />
  <rect x="128" y="128" width="32" height="32" fill="#4B6677" />
  <rect x="160" y="128" width="32" height="32" fill="#0D1E23" />
  <rect x="192" y="128" width="32" height="32" fill="#BFD7E3" />
  <rect x="224" y="128" width="32" height="32" fill="#8B9FBF" />
  <rect x="0" y="160" width="32" height="32" fill="#597E89" />
  <rect x="32" y="160" width="32" height="32" fill="#C6CED2" />
  <rect x="64" y="160" width="32" height="32" fill="#F1F3F7" />
  <rect x="96" y="160" width="32" height="32" fill="#869DA2" />
  <rect x="128" y="160" width="32" height="32" fill="#6A7F87" />
  <rect x="160" y="160" width="32" height="32" fill="#4B4F54" />
  <rect x="192" y="160" width="32" height="32" fill="#B6C3C7" />
  <rect x="224" y="160" width="32" height="32" fill="#DAEBF0" />
  <rect x="0" y="192" width="32" height="32" fill="#BDC5D1" />
  <rect x="32" y="192" width="32" height="32" fill="#D6D9DF" />
  <rect x="64" y="192" width="32" height="32" fill="#4F6175" />
  <rect x="96" y="192" width="32" height="32" fill="#97B0B5" />
  <rect x="128" y="192" width="32" height="32" fill="#E7EAEF" />
  <rect x="160" y="192" width="32" height="32" fill="#9DC0C8" />
  <rect x="192" y="192" width="32" height="32" fill="#E2F2F5" />
  <rect x="224" y="192" width="32" height="32" fill="#8A9499" />
  <rect x="0" y="224" width="32" height="32" fill="#BAC8D4" />
  <rect x="32" y="224" width="32" height="32" fill="#A6B1BB" />
  <rect x="64" y="224" width="32" height="32" fill="#B0C7D0" />
  <rect x="96" y="224" width="32" height="32" fill="#F4F4F7" />
  <rect x="128" y="224" width="32" height="32" fill="#8D8A8C" />
  <rect x="160" y="224" width="32" height="32" fill="#BDC9CE" />
  <rect x="192" y="224" width="32" height="32" fill="#373B45" />
  <rect x="224" y="224" width="32" height="32" fill="#898E9B" />
</svg>
