<svg xmlns="http://www.w3.org/2000/svg" width="256" height="256" viewBox="0 0 256 256" shape-rendering="crispEdges" role="img" aria-labelledby="title desc">
  <title id="title">Tension and Release</title>
  <desc id="desc">The emotional tone of this artwork explores the conflict between desire and restraint. The palette combines warm tones of hot coral and blood orange to represent desire, with the cooler charcoal and hollow blue to signify restraint. The saturated colors spiral towards the center, where desire collides with the muted edges, encapsulating tension. The placement of broken pixels symbolizes imperfection in this push-pull dynamic, with a clear flow from top to bottom, suggesting a descending emotion. Overall, the grid maintains a readable structure while allowing for a profound exploration of emotional depth.</desc>
  <rect width="256" height="256" fill="#FFFFFF" />
  <rect x="0" y="0" width="32" height="32" fill="#FF6F61" />
  <rect x="32" y="0" width="32" height="32" fill="#FF4F28" />
  <rect x="64" y="0" width="32" height="32" fill="#F05987" />
  <rect x="96" y="0" width="32" height="32" fill="#FF6F67" />
  <rect x="128" y="0" width="32" height="32" fill="#1F1F1F" />
  <rect x="160" y="0" width="32" height="32" fill="#0D4B8E" />
  <rect x="192" y="0" width="32" height="32" fill="#3A9AD6" />
  <rect x="224" y="0" width="32" height="32" fill="#222222" />
  <rect x="0" y="32" width="32" height="32" fill="#FF6F61" />
  <rect x="32" y="32" width="32" height="32" fill="#FF4F28" />
  <rect x="64" y="32" width="32" height="32" fill="#FCBF9A" />
  <rect x="96" y="32" width="32" height="32" fill="#FF6F61" />
  <rect x="128" y="32" width="32" height="32" fill="#2B2B2B" />
  <rect x="160" y="32" width="32" height="32" fill="#1A2A3B" />
  <rect x="192" y="32" width="32" height="32" fill="#6EB5E0" />
  <rect x="224" y="32" width="32" height="32" fill="#1A1A1A" />
  <rect x="0" y="64" width="32" height="32" fill="#E27F8D" />
  <rect x="32" y="64" width="32" height="32" fill="#FFBB88" />
  <rect x="64" y="64" width="32" height="32" fill="#5A5A5A" />
  <rect x="96" y="64" width="32" height="32" fill="#3C8B8B" />
  <rect x="128" y="64" width="32" height="32" fill="#5A98C7" />
  <rect x="160" y="64" width="32" height="32" fill="#2E4A6D" />
  <rect x="192" y="64" width="32" height="32" fill="#0F2B48" />
  <rect x="224" y="64" width="32" height="32" fill="#000000" />
  <rect x="0" y="96" width="32" height="32" fill="#FFB7B7" />
  <rect x="32" y="96" width="32" height="32" fill="#FF6F28" />
  <rect x="64" y="96" width="32" height="32" fill="#FF8D1C" />
  <rect x="96" y="96" width="32" height="32" fill="#D3D3D3" />
  <rect x="128" y="96" width="32" height="32" fill="#255B77" />
  <rect x="160" y="96" width="32" height="32" fill="#3C6380" />
  <rect x="192" y="96" width="32" height="32" fill="#1D1D1D" />
  <rect x="224" y="96" width="32" height="32" fill="#000000" />
  <rect x="0" y="128" width="32" height="32" fill="#FF4F28" />
  <rect x="32" y="128" width="32" height="32" fill="#FF8788" />
  <rect x="64" y="128" width="32" height="32" fill="#FFD5B6" />
  <rect x="96" y="128" width="32" height="32" fill="#FFCBA4" />
  <rect x="128" y="128" width="32" height="32" fill="#6F789C" />
  <rect x="160" y="128" width="32" height="32" fill="#4B2E49" />
  <rect x="192" y="128" width="32" height="32" fill="#222222" />
  <rect x="224" y="128" width="32" height="32" fill="#7A7A7A" />
  <rect x="0" y="160" width="32" height="32" fill="#F05A28" />
  <rect x="32" y="160" width="32" height="32" fill="#E5B5C1" />
  <rect x="64" y="160" width="32" height="32" fill="#E0D5D3" />
  <rect x="96" y="160" width="32" height="32" fill="#A4BDC7" />
  <rect x="128" y="160" width="32" height="32" fill="#4D9D53" />
  <rect x="160" y="160" width="32" height="32" fill="#1A4D36" />
  <rect x="192" y="160" width="32" height="32" fill="#2D2D2D" />
  <rect x="224" y="160" width="32" height="32" fill="#000000" />
  <rect x="0" y="192" width="32" height="32" fill="#FF6F61" />
  <rect x="32" y="192" width="32" height="32" fill="#FFA07A" />
  <rect x="64" y="192" width="32" height="32" fill="#FFC2B4" />
  <rect x="96" y="192" width="32" height="32" fill="#F4A414" />
  <rect x="128" y="192" width="32" height="32" fill="#222222" />
  <rect x="160" y="192" width="32" height="32" fill="#7FAFDF" />
  <rect x="192" y="192" width="32" height="32" fill="#8A8A8A" />
  <rect x="224" y="192" width="32" height="32" fill="#1C1F1F" />
  <rect x="0" y="224" width="32" height="32" fill="#FF8D6B" />
  <rect x="32" y="224" width="32" height="32" fill="#D79476" />
  <rect x="64" y="224" width="32" height="32" fill="#FF5B54" />
  <rect x="96" y="224" width="32" height="32" fill="#FFFFFF" />
  <rect x="128" y="224" width="32" height="32" fill="#5D5D5D" />
  <rect x="160" y="224" width="32" height="32" fill="#000000" />
  <rect x="192" y="224" width="32" height="32" fill="#3D4F58" />
  <rect x="224" y="224" width="32" height="32" fill="#2B343F" />
</svg>
