<svg xmlns="http://www.w3.org/2000/svg" width="256" height="256" viewBox="0 0 256 256" shape-rendering="crispEdges" role="img" aria-labelledby="title desc">
  <title id="title">Echoes of Emotion</title>
  <desc id="desc">The emotional tone oscillates between warmth and betrayal, reflecting a subtle turbulence. The palette combines warm pinks and deep maroons to highlight love, while cool greys represent the chill of betrayal. The contrasting sections create a dynamic tension, with a core of warmer tones interrupted by darker edges, symbolizing the battle between hope and loss. The broken pixels add to the complexity, suggesting imperfection and the chaos of human emotions.</desc>
  <rect width="256" height="256" fill="#FFFFFF" />
  <rect x="0" y="0" width="32" height="32" fill="#754C77" />
  <rect x="32" y="0" width="32" height="32" fill="#DBB8C3" />
  <rect x="64" y="0" width="32" height="32" fill="#D16D7F" />
  <rect x="96" y="0" width="32" height="32" fill="#633F56" />
  <rect x="128" y="0" width="32" height="32" fill="#BDAFC3" />
  <rect x="160" y="0" width="32" height="32" fill="#A05279" />
  <rect x="192" y="0" width="32" height="32" fill="#9F6B84" />
  <rect x="224" y="0" width="32" height="32" fill="#B6C3D5" />
  <rect x="0" y="32" width="32" height="32" fill="#D16D7F" />
  <rect x="32" y="32" width="32" height="32" fill="#DA8A92" />
  <rect x="64" y="32" width="32" height="32" fill="#993244" />
  <rect x="96" y="32" width="32" height="32" fill="#754C77" />
  <rect x="128" y="32" width="32" height="32" fill="#C1A4B4" />
  <rect x="160" y="32" width="32" height="32" fill="#D9C1C7" />
  <rect x="192" y="32" width="32" height="32" fill="#7D4B6A" />
  <rect x="224" y="32" width="32" height="32" fill="#F7E6F0" />
  <rect x="0" y="64" width="32" height="32" fill="#9F6B84" />
  <rect x="32" y="64" width="32" height="32" fill="#C2A1AE" />
  <rect x="64" y="64" width="32" height="32" fill="#C18292" />
  <rect x="96" y="64" width="32" height="32" fill="#D16D7F" />
  <rect x="128" y="64" width="32" height="32" fill="#7D4B6A" />
  <rect x="160" y="64" width="32" height="32" fill="#DA8A92" />
  <rect x="192" y="64" width="32" height="32" fill="#D9C1C7" />
  <rect x="224" y="64" width="32" height="32" fill="#BDAFC3" />
  <rect x="0" y="96" width="32" height="32" fill="#DA8A92" />
  <rect x="32" y="96" width="32" height="32" fill="#A05279" />
  <rect x="64" y="96" width="32" height="32" fill="#B6C3D5" />
  <rect x="96" y="96" width="32" height="32" fill="#C1A4B4" />
  <rect x="128" y="96" width="32" height="32" fill="#9F6B84" />
  <rect x="160" y="96" width="32" height="32" fill="#F7E6F0" />
  <rect x="192" y="96" width="32" height="32" fill="#A05279" />
  <rect x="224" y="96" width="32" height="32" fill="#D9C1C7" />
  <rect x="0" y="128" width="32" height="32" fill="#754C77" />
  <rect x="32" y="128" width="32" height="32" fill="#C2A1AE" />
  <rect x="64" y="128" width="32" height="32" fill="#DA8A92" />
  <rect x="96" y="128" width="32" height="32" fill="#7D4B6A" />
  <rect x="128" y="128" width="32" height="32" fill="#9F6B84" />
  <rect x="160" y="128" width="32" height="32" fill="#B6C3D5" />
  <rect x="192" y="128" width="32" height="32" fill="#C1A4B4" />
  <rect x="224" y="128" width="32" height="32" fill="#D16D7F" />
  <rect x="0" y="160" width="32" height="32" fill="#BDAFC3" />
  <rect x="32" y="160" width="32" height="32" fill="#D8C6D1" />
  <rect x="64" y="160" width="32" height="32" fill="#D16D7F" />
  <rect x="96" y="160" width="32" height="32" fill="#F7E6F0" />
  <rect x="128" y="160" width="32" height="32" fill="#C18292" />
  <rect x="160" y="160" width="32" height="32" fill="#A05279" />
  <rect x="192" y="160" width="32" height="32" fill="#754C77" />
  <rect x="224" y="160" width="32" height="32" fill="#993244" />
  <rect x="0" y="192" width="32" height="32" fill="#9F6B84" />
  <rect x="32" y="192" width="32" height="32" fill="#C2A1AE" />
  <rect x="64" y="192" width="32" height="32" fill="#DA8A92" />
  <rect x="96" y="192" width="32" height="32" fill="#7D4B6A" />
  <rect x="128" y="192" width="32" height="32" fill="#D16D7F" />
  <rect x="160" y="192" width="32" height="32" fill="#BDAFC3" />
  <rect x="192" y="192" width="32" height="32" fill="#D9C1C7" />
  <rect x="224" y="192" width="32" height="32" fill="#F7E6F0" />
  <rect x="0" y="224" width="32" height="32" fill="#7D4B6A" />
  <rect x="32" y="224" width="32" height="32" fill="#D16D7F" />
  <rect x="64" y="224" width="32" height="32" fill="#C18292" />
  <rect x="96" y="224" width="32" height="32" fill="#D8C6D1" />
  <rect x="128" y="224" width="32" height="32" fill="#9F6B84" />
  <rect x="160" y="224" width="32" height="32" fill="#C2A1AE" />
  <rect x="192" y="224" width="32" height="32" fill="#BDAFC3" />
  <rect x="224" y="224" width="32" height="32" fill="#D9C1C7" />
</svg>
