<svg xmlns="http://www.w3.org/2000/svg" width="256" height="256" viewBox="0 0 256 256" shape-rendering="crispEdges" role="img" aria-labelledby="title desc">
  <title id="title">Tension in Hollow Spaces</title>
  <desc id="desc">This piece evokes emotional contrasts between vulnerability and strength through its deliberate use of a warm color palette punctuated by strong dark accents. The juxtaposition of hot coral against charcoal emphasizes pressure, while soft dust pinks create moments of release, reflecting inner turmoil. The collision occurs at the center, embodying conflict, as patterned stripes of strength border an exposed field of vulnerability. This arrangement reflects life's complex emotional landscape, where safety beautifully collides with exposure.</desc>
  <rect width="256" height="256" fill="#FFFFFF" />
  <rect x="0" y="0" width="32" height="32" fill="#FFFFFF" />
  <rect x="32" y="0" width="32" height="32" fill="#FFFFFF" />
  <rect x="64" y="0" width="32" height="32" fill="#FF6F61" />
  <rect x="96" y="0" width="32" height="32" fill="#FF9F8C" />
  <rect x="128" y="0" width="32" height="32" fill="#E2BDB1" />
  <rect x="160" y="0" width="32" height="32" fill="#000000" />
  <rect x="192" y="0" width="32" height="32" fill="#000000" />
  <rect x="224" y="0" width="32" height="32" fill="#FFFFFF" />
  <rect x="0" y="32" width="32" height="32" fill="#FFFFFF" />
  <rect x="32" y="32" width="32" height="32" fill="#FF9F8C" />
  <rect x="64" y="32" width="32" height="32" fill="#FF6F61" />
  <rect x="96" y="32" width="32" height="32" fill="#FF6F61" />
  <rect x="128" y="32" width="32" height="32" fill="#000000" />
  <rect x="160" y="32" width="32" height="32" fill="#000000" />
  <rect x="192" y="32" width="32" height="32" fill="#E2BDB1" />
  <rect x="224" y="32" width="32" height="32" fill="#FFFFFF" />
  <rect x="0" y="64" width="32" height="32" fill="#FF6F61" />
  <rect x="32" y="64" width="32" height="32" fill="#FF9F8C" />
  <rect x="64" y="64" width="32" height="32" fill="#000000" />
  <rect x="96" y="64" width="32" height="32" fill="#000000" />
  <rect x="128" y="64" width="32" height="32" fill="#E2BDB1" />
  <rect x="160" y="64" width="32" height="32" fill="#E2BDB1" />
  <rect x="192" y="64" width="32" height="32" fill="#000000" />
  <rect x="224" y="64" width="32" height="32" fill="#FFFFFF" />
  <rect x="0" y="96" width="32" height="32" fill="#FF9F8C" />
  <rect x="32" y="96" width="32" height="32" fill="#000000" />
  <rect x="64" y="96" width="32" height="32" fill="#000000" />
  <rect x="96" y="96" width="32" height="32" fill="#E2BDB1" />
  <rect x="128" y="96" width="32" height="32" fill="#FFFFFF" />
  <rect x="160" y="96" width="32" height="32" fill="#000000" />
  <rect x="192" y="96" width="32" height="32" fill="#FF6F61" />
  <rect x="224" y="96" width="32" height="32" fill="#FFFFFF" />
  <rect x="0" y="128" width="32" height="32" fill="#E2BDB1" />
  <rect x="32" y="128" width="32" height="32" fill="#000000" />
  <rect x="64" y="128" width="32" height="32" fill="#000000" />
  <rect x="96" y="128" width="32" height="32" fill="#FFFFFF" />
  <rect x="128" y="128" width="32" height="32" fill="#FF9F8C" />
  <rect x="160" y="128" width="32" height="32" fill="#E2BDB1" />
  <rect x="192" y="128" width="32" height="32" fill="#FF6F61" />
  <rect x="224" y="128" width="32" height="32" fill="#000000" />
  <rect x="0" y="160" width="32" height="32" fill="#000000" />
  <rect x="32" y="160" width="32" height="32" fill="#000000" />
  <rect x="64" y="160" width="32" height="32" fill="#E2BDB1" />
  <rect x="96" y="160" width="32" height="32" fill="#FF6F61" />
  <rect x="128" y="160" width="32" height="32" fill="#FF9F8C" />
  <rect x="160" y="160" width="32" height="32" fill="#FFFFFF" />
  <rect x="192" y="160" width="32" height="32" fill="#000000" />
  <rect x="224" y="160" width="32" height="32" fill="#FFFFFF" />
  <rect x="0" y="192" width="32" height="32" fill="#000000" />
  <rect x="32" y="192" width="32" height="32" fill="#E2BDB1" />
  <rect x="64" y="192" width="32" height="32" fill="#E2BDB1" />
  <rect x="96" y="192" width="32" height="32" fill="#FF9F8C" />
  <rect x="128" y="192" width="32" height="32" fill="#000000" />
  <rect x="160" y="192" width="32" height="32" fill="#FFFFFF" />
  <rect x="192" y="192" width="32" height="32" fill="#FF6F61" />
  <rect x="224" y="192" width="32" height="32" fill="#FFFFFF" />
  <rect x="0" y="224" width="32" height="32" fill="#FFFFFF" />
  <rect x="32" y="224" width="32" height="32" fill="#000000" />
  <rect x="64" y="224" width="32" height="32" fill="#000000" />
  <rect x="96" y="224" width="32" height="32" fill="#FFFFFF" />
  <rect x="128" y="224" width="32" height="32" fill="#FF9F8C" />
  <rect x="160" y="224" width="32" height="32" fill="#FF9F8C" />
  <rect x="192" y="224" width="32" height="32" fill="#000000" />
  <rect x="224" y="224" width="32" height="32" fill="#FFFFFF" />
</svg>
