<svg xmlns="http://www.w3.org/2000/svg" width="256" height="256" viewBox="0 0 256 256" shape-rendering="crispEdges" role="img" aria-labelledby="title desc">
  <title id="title">Contrasting Echoes</title>
  <desc id="desc">This piece embodies the conflict between the brightness of sparks and the muted tones of ash. The palette, consisting of black, dark violet, soft gold, and pale green, reflects the emotional dichotomy of fear versus hope. The main collision occurs in the center, where the warmer soft gold suddenly disrupts the cooler black and violet. The diagonal flow suggests movement and tension, while the halo of ash mingles imperfectly with pulse-like marks of sparks, creating an abstract representation of struggle and resilience. The broken pixels introduce intentional imperfections, hinting at the fragility of memory and the scars of restraint. The layout is structured yet unbalanced, with one side echoing the other but disrupted by random deviations, evoking unease and curiosity.</desc>
  <rect width="256" height="256" fill="#FFFFFF" />
  <rect x="0" y="0" width="32" height="32" fill="#000000" />
  <rect x="32" y="0" width="32" height="32" fill="#1C1C1C" />
  <rect x="64" y="0" width="32" height="32" fill="#3D3D3D" />
  <rect x="96" y="0" width="32" height="32" fill="#5E5E5E" />
  <rect x="128" y="0" width="32" height="32" fill="#7E7E7E" />
  <rect x="160" y="0" width="32" height="32" fill="#AFAF5A" />
  <rect x="192" y="0" width="32" height="32" fill="#FFD700" />
  <rect x="224" y="0" width="32" height="32" fill="#606060" />
  <rect x="0" y="32" width="32" height="32" fill="#000000" />
  <rect x="32" y="32" width="32" height="32" fill="#3333FF" />
  <rect x="64" y="32" width="32" height="32" fill="#3333CC" />
  <rect x="96" y="32" width="32" height="32" fill="#4C4C4C" />
  <rect x="128" y="32" width="32" height="32" fill="#999999" />
  <rect x="160" y="32" width="32" height="32" fill="#BFAF20" />
  <rect x="192" y="32" width="32" height="32" fill="#FFD700" />
  <rect x="224" y="32" width="32" height="32" fill="#AFAF60" />
  <rect x="0" y="64" width="32" height="32" fill="#1A1A1A" />
  <rect x="32" y="64" width="32" height="32" fill="#4C4C4C" />
  <rect x="64" y="64" width="32" height="32" fill="#5E5E5E" />
  <rect x="96" y="64" width="32" height="32" fill="#707070" />
  <rect x="128" y="64" width="32" height="32" fill="#606060" />
  <rect x="160" y="64" width="32" height="32" fill="#BFBF7B" />
  <rect x="192" y="64" width="32" height="32" fill="#E5D74A" />
  <rect x="224" y="64" width="32" height="32" fill="#3D3D3D" />
  <rect x="0" y="96" width="32" height="32" fill="#3D3D3D" />
  <rect x="32" y="96" width="32" height="32" fill="#3A3A3A" />
  <rect x="64" y="96" width="32" height="32" fill="#4D4D4D" />
  <rect x="96" y="96" width="32" height="32" fill="#6B6B6B" />
  <rect x="128" y="96" width="32" height="32" fill="#AFAF30" />
  <rect x="160" y="96" width="32" height="32" fill="#E5D74A" />
  <rect x="192" y="96" width="32" height="32" fill="#F5F5DC" />
  <rect x="224" y="96" width="32" height="32" fill="#7C7C7C" />
  <rect x="0" y="128" width="32" height="32" fill="#1C1C1C" />
  <rect x="32" y="128" width="32" height="32" fill="#FFC0CB" />
  <rect x="64" y="128" width="32" height="32" fill="#BFAF20" />
  <rect x="96" y="128" width="32" height="32" fill="#4D4D4D" />
  <rect x="128" y="128" width="32" height="32" fill="#AFAF40" />
  <rect x="160" y="128" width="32" height="32" fill="#E5D74A" />
  <rect x="192" y="128" width="32" height="32" fill="#FFFFFF" />
  <rect x="224" y="128" width="32" height="32" fill="#000000" />
  <rect x="0" y="160" width="32" height="32" fill="#5E5E5E" />
  <rect x="32" y="160" width="32" height="32" fill="#C0C0C0" />
  <rect x="64" y="160" width="32" height="32" fill="#FFFFFF" />
  <rect x="96" y="160" width="32" height="32" fill="#BFAF20" />
  <rect x="128" y="160" width="32" height="32" fill="#3333FF" />
  <rect x="160" y="160" width="32" height="32" fill="#FFD700" />
  <rect x="192" y="160" width="32" height="32" fill="#707070" />
  <rect x="224" y="160" width="32" height="32" fill="#000000" />
  <rect x="0" y="192" width="32" height="32" fill="#4C4C4C" />
  <rect x="32" y="192" width="32" height="32" fill="#5E5E5E" />
  <rect x="64" y="192" width="32" height="32" fill="#AAFFAA" />
  <rect x="96" y="192" width="32" height="32" fill="#FFC0CB" />
  <rect x="128" y="192" width="32" height="32" fill="#000000" />
  <rect x="160" y="192" width="32" height="32" fill="#FFD700" />
  <rect x="192" y="192" width="32" height="32" fill="#BFAF20" />
  <rect x="224" y="192" width="32" height="32" fill="#3D3D3D" />
  <rect x="0" y="224" width="32" height="32" fill="#1C1C1C" />
  <rect x="32" y="224" width="32" height="32" fill="#444444" />
  <rect x="64" y="224" width="32" height="32" fill="#BFAF20" />
  <rect x="96" y="224" width="32" height="32" fill="#FFFFFF" />
  <rect x="128" y="224" width="32" height="32" fill="#BFBF40" />
  <rect x="160" y="224" width="32" height="32" fill="#3D3D3D" />
  <rect x="192" y="224" width="32" height="32" fill="#5E5E5E" />
  <rect x="224" y="224" width="32" height="32" fill="#707070" />
</svg>
