<svg xmlns="http://www.w3.org/2000/svg" width="256" height="256" viewBox="0 0 256 256" shape-rendering="crispEdges" role="img" aria-labelledby="title desc">
  <title id="title">Echo of Contrast</title>
  <desc id="desc">This artwork embodies the emotional tension between restlessness and peace, utilizing a palette that combines deep blues for depth and mourning blacks for reflection, while the lighter hues of pale yellow suggest moments of clarity amidst chaos. The conflict is centered along a diagonal axis, where dark tones collide with brighter accents, echoing the push and pull of memory and motion. The open gate layout allows for visual exploration of contrasting feelings and broken pixels add intentional disruptions, representing fragmented thoughts or memories. Overall, it strikes a balance between serene quietness and unsettling movement.</desc>
  <rect width="256" height="256" fill="#FFFFFF" />
  <rect x="0" y="0" width="32" height="32" fill="#000000" />
  <rect x="32" y="0" width="32" height="32" fill="#0B0D17" />
  <rect x="64" y="0" width="32" height="32" fill="#0E4B8C" />
  <rect x="96" y="0" width="32" height="32" fill="#009688" />
  <rect x="128" y="0" width="32" height="32" fill="#FFE082" />
  <rect x="160" y="0" width="32" height="32" fill="#FF5722" />
  <rect x="192" y="0" width="32" height="32" fill="#A5D6A7" />
  <rect x="224" y="0" width="32" height="32" fill="#E8F5E9" />
  <rect x="0" y="32" width="32" height="32" fill="#1C1F3F" />
  <rect x="32" y="32" width="32" height="32" fill="#1B2E74" />
  <rect x="64" y="32" width="32" height="32" fill="#4FC3F7" />
  <rect x="96" y="32" width="32" height="32" fill="#FFC107" />
  <rect x="128" y="32" width="32" height="32" fill="#80DEEA" />
  <rect x="160" y="32" width="32" height="32" fill="#FF8A65" />
  <rect x="192" y="32" width="32" height="32" fill="#C8E6C9" />
  <rect x="224" y="32" width="32" height="32" fill="#F1F8E9" />
  <rect x="0" y="64" width="32" height="32" fill="#2E2E2E" />
  <rect x="32" y="64" width="32" height="32" fill="#2196F3" />
  <rect x="64" y="64" width="32" height="32" fill="#FFEB3B" />
  <rect x="96" y="64" width="32" height="32" fill="#FF3D00" />
  <rect x="128" y="64" width="32" height="32" fill="#D7CCC8" />
  <rect x="160" y="64" width="32" height="32" fill="#B2DFDB" />
  <rect x="192" y="64" width="32" height="32" fill="#A5D6A7" />
  <rect x="224" y="64" width="32" height="32" fill="#CFD8DC" />
  <rect x="0" y="96" width="32" height="32" fill="#212121" />
  <rect x="32" y="96" width="32" height="32" fill="#3F51B5" />
  <rect x="64" y="96" width="32" height="32" fill="#FFC107" />
  <rect x="96" y="96" width="32" height="32" fill="#FF7043" />
  <rect x="128" y="96" width="32" height="32" fill="#B0BEC5" />
  <rect x="160" y="96" width="32" height="32" fill="#AAB2B8" />
  <rect x="192" y="96" width="32" height="32" fill="#D1C4E9" />
  <rect x="224" y="96" width="32" height="32" fill="#FFFFFF" />
  <rect x="0" y="128" width="32" height="32" fill="#00002E" />
  <rect x="32" y="128" width="32" height="32" fill="#673AB7" />
  <rect x="64" y="128" width="32" height="32" fill="#795548" />
  <rect x="96" y="128" width="32" height="32" fill="#CDDC39" />
  <rect x="128" y="128" width="32" height="32" fill="#E0F7FA" />
  <rect x="160" y="128" width="32" height="32" fill="#B2FF59" />
  <rect x="192" y="128" width="32" height="32" fill="#B2FF59" />
  <rect x="224" y="128" width="32" height="32" fill="#F3E5F5" />
  <rect x="0" y="160" width="32" height="32" fill="#111111" />
  <rect x="32" y="160" width="32" height="32" fill="#37474F" />
  <rect x="64" y="160" width="32" height="32" fill="#757575" />
  <rect x="96" y="160" width="32" height="32" fill="#C5E1A5" />
  <rect x="128" y="160" width="32" height="32" fill="#FFCC80" />
  <rect x="160" y="160" width="32" height="32" fill="#D1C4E9" />
  <rect x="192" y="160" width="32" height="32" fill="#F5F5F5" />
  <rect x="224" y="160" width="32" height="32" fill="#FFC107" />
  <rect x="0" y="192" width="32" height="32" fill="#000000" />
  <rect x="32" y="192" width="32" height="32" fill="#11151D" />
  <rect x="64" y="192" width="32" height="32" fill="#3A3F47" />
  <rect x="96" y="192" width="32" height="32" fill="#4FC3F7" />
  <rect x="128" y="192" width="32" height="32" fill="#FFEB3B" />
  <rect x="160" y="192" width="32" height="32" fill="#A5D6A7" />
  <rect x="192" y="192" width="32" height="32" fill="#FF7043" />
  <rect x="224" y="192" width="32" height="32" fill="#F0F4C3" />
  <rect x="0" y="224" width="32" height="32" fill="#1A1A1A" />
  <rect x="32" y="224" width="32" height="32" fill="#283593" />
  <rect x="64" y="224" width="32" height="32" fill="#FF5722" />
  <rect x="96" y="224" width="32" height="32" fill="#FF9800" />
  <rect x="128" y="224" width="32" height="32" fill="#9C27B0" />
  <rect x="160" y="224" width="32" height="32" fill="#CDDC39" />
  <rect x="192" y="224" width="32" height="32" fill="#B2FF59" />
  <rect x="224" y="224" width="32" height="32" fill="#87CEFA" />
</svg>
