<svg xmlns="http://www.w3.org/2000/svg" width="256" height="256" viewBox="0 0 256 256" shape-rendering="crispEdges" role="img" aria-labelledby="title desc">
  <title id="title">Emotional Collision</title>
  <desc id="desc">The emotional tone explores the tension between defiance and submission, using a palette that juxtaposes warm and cool colors. The selected colors embody a narrative where vibrant pink and red accents disrupt the subdued gray and dark maroon fields, illustrating conflict and resolution. The main contrast occurs at the center where the patchwork and thread patterns collide, suggesting an inward spiral of resistance against surrounding pressure. The arrangement embraces dynamic tension, with broken pixels representing the scars of experience, encapsulating the emotional messiness of the concepts.</desc>
  <rect width="256" height="256" fill="#FFFFFF" />
  <rect x="0" y="0" width="32" height="32" fill="#D90030" />
  <rect x="32" y="0" width="32" height="32" fill="#FFE5E0" />
  <rect x="64" y="0" width="32" height="32" fill="#9B1B1C" />
  <rect x="96" y="0" width="32" height="32" fill="#F89D94" />
  <rect x="128" y="0" width="32" height="32" fill="#CC14A1" />
  <rect x="160" y="0" width="32" height="32" fill="#FFDDC1" />
  <rect x="192" y="0" width="32" height="32" fill="#B1B3B5" />
  <rect x="224" y="0" width="32" height="32" fill="#111111" />
  <rect x="0" y="32" width="32" height="32" fill="#C4818E" />
  <rect x="32" y="32" width="32" height="32" fill="#F4B8C6" />
  <rect x="64" y="32" width="32" height="32" fill="#E2D0CA" />
  <rect x="96" y="32" width="32" height="32" fill="#DDCFE1" />
  <rect x="128" y="32" width="32" height="32" fill="#EFF7F2" />
  <rect x="160" y="32" width="32" height="32" fill="#3D2C3E" />
  <rect x="192" y="32" width="32" height="32" fill="#4A4A4A" />
  <rect x="224" y="32" width="32" height="32" fill="#222222" />
  <rect x="0" y="64" width="32" height="32" fill="#FFE5E0" />
  <rect x="32" y="64" width="32" height="32" fill="#FFAAD2" />
  <rect x="64" y="64" width="32" height="32" fill="#F28D8F" />
  <rect x="96" y="64" width="32" height="32" fill="#D7999B" />
  <rect x="128" y="64" width="32" height="32" fill="#792519" />
  <rect x="160" y="64" width="32" height="32" fill="#461633" />
  <rect x="192" y="64" width="32" height="32" fill="#111111" />
  <rect x="224" y="64" width="32" height="32" fill="#000000" />
  <rect x="0" y="96" width="32" height="32" fill="#A06063" />
  <rect x="32" y="96" width="32" height="32" fill="#D9C2C7" />
  <rect x="64" y="96" width="32" height="32" fill="#E2D3CB" />
  <rect x="96" y="96" width="32" height="32" fill="#F0C9D4" />
  <rect x="128" y="96" width="32" height="32" fill="#CC2E1F" />
  <rect x="160" y="96" width="32" height="32" fill="#5C2F3E" />
  <rect x="192" y="96" width="32" height="32" fill="#282828" />
  <rect x="224" y="96" width="32" height="32" fill="#000000" />
  <rect x="0" y="128" width="32" height="32" fill="#E53027" />
  <rect x="32" y="128" width="32" height="32" fill="#FF5584" />
  <rect x="64" y="128" width="32" height="32" fill="#F58261" />
  <rect x="96" y="128" width="32" height="32" fill="#C2A29C" />
  <rect x="128" y="128" width="32" height="32" fill="#E7D8D2" />
  <rect x="160" y="128" width="32" height="32" fill="#8B2D36" />
  <rect x="192" y="128" width="32" height="32" fill="#4A4E52" />
  <rect x="224" y="128" width="32" height="32" fill="#1C1C1C" />
  <rect x="0" y="160" width="32" height="32" fill="#FF2A00" />
  <rect x="32" y="160" width="32" height="32" fill="#FF6F70" />
  <rect x="64" y="160" width="32" height="32" fill="#D3BA99" />
  <rect x="96" y="160" width="32" height="32" fill="#F1DBD4" />
  <rect x="128" y="160" width="32" height="32" fill="#B55562" />
  <rect x="160" y="160" width="32" height="32" fill="#A2B3B6" />
  <rect x="192" y="160" width="32" height="32" fill="#333333" />
  <rect x="224" y="160" width="32" height="32" fill="#000000" />
  <rect x="0" y="192" width="32" height="32" fill="#F8B24F" />
  <rect x="32" y="192" width="32" height="32" fill="#F28700" />
  <rect x="64" y="192" width="32" height="32" fill="#F8C68C" />
  <rect x="96" y="192" width="32" height="32" fill="#FFDDC1" />
  <rect x="128" y="192" width="32" height="32" fill="#F08080" />
  <rect x="160" y="192" width="32" height="32" fill="#6C4B84" />
  <rect x="192" y="192" width="32" height="32" fill="#3A3A3A" />
  <rect x="224" y="192" width="32" height="32" fill="#000000" />
  <rect x="0" y="224" width="32" height="32" fill="#0D0D0D" />
  <rect x="32" y="224" width="32" height="32" fill="#F5F5F5" />
  <rect x="64" y="224" width="32" height="32" fill="#FFFFFF" />
  <rect x="96" y="224" width="32" height="32" fill="#FBE4E4" />
  <rect x="128" y="224" width="32" height="32" fill="#D8D8E0" />
  <rect x="160" y="224" width="32" height="32" fill="#CC7A88" />
  <rect x="192" y="224" width="32" height="32" fill="#A9D6B1" />
  <rect x="224" y="224" width="32" height="32" fill="#5C5C5C" />
</svg>
