<svg xmlns="http://www.w3.org/2000/svg" width="256" height="256" viewBox="0 0 256 256" shape-rendering="crispEdges" role="img" aria-labelledby="title desc">
  <title id="title">Fractured Boundaries</title>
  <desc id="desc">This composition embodies the tension between vulnerability and strength. The selected palette, 'broken_memory', features muted tones (sepia, tan, dust_gray, and faded_blue) creating an ambience of introspection and fragility. The application of two contrasting patterns—'negative_cross' for strength and 'scar' for vulnerability—results in a visible collision at the center, where stronger tones break through softer shades. The layout features a broken frame that allows light elements to bleed into darker paths, representing exposure and shelter. The arrangement of colors suggests movement from heavy density in the corners to lighter hues in the center, echoing the emotions linked with resilience amidst fragility.</desc>
  <rect width="256" height="256" fill="#FFFFFF" />
  <rect x="0" y="0" width="32" height="32" fill="#7E6E5B" />
  <rect x="32" y="0" width="32" height="32" fill="#BDB3A8" />
  <rect x="64" y="0" width="32" height="32" fill="#C0B7A6" />
  <rect x="96" y="0" width="32" height="32" fill="#D5CED1" />
  <rect x="128" y="0" width="32" height="32" fill="#B7B2C0" />
  <rect x="160" y="0" width="32" height="32" fill="#E6DBD2" />
  <rect x="192" y="0" width="32" height="32" fill="#6A5A4D" />
  <rect x="224" y="0" width="32" height="32" fill="#4B3941" />
  <rect x="0" y="32" width="32" height="32" fill="#EFE9E6" />
  <rect x="32" y="32" width="32" height="32" fill="#C9D5DB" />
  <rect x="64" y="32" width="32" height="32" fill="#A5C1CD" />
  <rect x="96" y="32" width="32" height="32" fill="#A4B9B6" />
  <rect x="128" y="32" width="32" height="32" fill="#EEDCDB" />
  <rect x="160" y="32" width="32" height="32" fill="#D7C8B5" />
  <rect x="192" y="32" width="32" height="32" fill="#7D6598" />
  <rect x="224" y="32" width="32" height="32" fill="#3C2A3E" />
  <rect x="0" y="64" width="32" height="32" fill="#C6BFAC" />
  <rect x="32" y="64" width="32" height="32" fill="#B6A699" />
  <rect x="64" y="64" width="32" height="32" fill="#D9D6CE" />
  <rect x="96" y="64" width="32" height="32" fill="#AEB5AA" />
  <rect x="128" y="64" width="32" height="32" fill="#918989" />
  <rect x="160" y="64" width="32" height="32" fill="#BDC6C1" />
  <rect x="192" y="64" width="32" height="32" fill="#8C9B9E" />
  <rect x="224" y="64" width="32" height="32" fill="#CBAA95" />
  <rect x="0" y="96" width="32" height="32" fill="#C4BEB5" />
  <rect x="32" y="96" width="32" height="32" fill="#B2AFA4" />
  <rect x="64" y="96" width="32" height="32" fill="#BFCCCD" />
  <rect x="96" y="96" width="32" height="32" fill="#D7E3E5" />
  <rect x="128" y="96" width="32" height="32" fill="#BAC2C9" />
  <rect x="160" y="96" width="32" height="32" fill="#DCE1D5" />
  <rect x="192" y="96" width="32" height="32" fill="#4B495C" />
  <rect x="224" y="96" width="32" height="32" fill="#2D2430" />
  <rect x="0" y="128" width="32" height="32" fill="#BFC3C8" />
  <rect x="32" y="128" width="32" height="32" fill="#7C5D52" />
  <rect x="64" y="128" width="32" height="32" fill="#D3E2E0" />
  <rect x="96" y="128" width="32" height="32" fill="#9EB4C1" />
  <rect x="128" y="128" width="32" height="32" fill="#C5B5A1" />
  <rect x="160" y="128" width="32" height="32" fill="#F2E1DF" />
  <rect x="192" y="128" width="32" height="32" fill="#B27A6D" />
  <rect x="224" y="128" width="32" height="32" fill="#817572" />
  <rect x="0" y="160" width="32" height="32" fill="#C1B6A8" />
  <rect x="32" y="160" width="32" height="32" fill="#A98B8F" />
  <rect x="64" y="160" width="32" height="32" fill="#BFD0D0" />
  <rect x="96" y="160" width="32" height="32" fill="#A0A9AA" />
  <rect x="128" y="160" width="32" height="32" fill="#C8D1CB" />
  <rect x="160" y="160" width="32" height="32" fill="#8D8C8A" />
  <rect x="192" y="160" width="32" height="32" fill="#D0B9A0" />
  <rect x="224" y="160" width="32" height="32" fill="#6A6B65" />
  <rect x="0" y="192" width="32" height="32" fill="#AB9A90" />
  <rect x="32" y="192" width="32" height="32" fill="#C2B6AE" />
  <rect x="64" y="192" width="32" height="32" fill="#D8E1DF" />
  <rect x="96" y="192" width="32" height="32" fill="#D4CDCB" />
  <rect x="128" y="192" width="32" height="32" fill="#B8B5B4" />
  <rect x="160" y="192" width="32" height="32" fill="#B3A99E" />
  <rect x="192" y="192" width="32" height="32" fill="#C1B4AC" />
  <rect x="224" y="192" width="32" height="32" fill="#798187" />
  <rect x="0" y="224" width="32" height="32" fill="#A39485" />
  <rect x="32" y="224" width="32" height="32" fill="#BAAFA7" />
  <rect x="64" y="224" width="32" height="32" fill="#E2E0DF" />
  <rect x="96" y="224" width="32" height="32" fill="#A6B9B9" />
  <rect x="128" y="224" width="32" height="32" fill="#B09B93" />
  <rect x="160" y="224" width="32" height="32" fill="#D6D3CD" />
  <rect x="192" y="224" width="32" height="32" fill="#BB6E75" />
  <rect x="224" y="224" width="32" height="32" fill="#4A373D" />
</svg>
