<svg xmlns="http://www.w3.org/2000/svg" width="256" height="256" viewBox="0 0 256 256" shape-rendering="crispEdges" role="img" aria-labelledby="title desc">
  <title id="title">Staggered Tensions</title>
  <desc id="desc">This artwork expresses the emotional duality of 'relief' and 'dread' through a carefully curated palette of deep blacks and soft golds, suggesting a bleak expanse punctuated by flickers of hope. The contrast flows from dark, nearly oppressive tones at the top, fading into lighter colors as it approaches the bottom, creating a sense of gravity against levity. The imposing darker shapes clash with shimmering golden accents, embodying the tension between stability and chaos, reflective of the seed's interplay of 'symmetry' and 'break'. Imperfections are introduced through sporadic broken pixels that interrupt the flow and amplify the dissonance.</desc>
  <rect width="256" height="256" fill="#FFFFFF" />
  <rect x="0" y="0" width="32" height="32" fill="#000000" />
  <rect x="32" y="0" width="32" height="32" fill="#000000" />
  <rect x="64" y="0" width="32" height="32" fill="#000000" />
  <rect x="96" y="0" width="32" height="32" fill="#000000" />
  <rect x="128" y="0" width="32" height="32" fill="#111111" />
  <rect x="160" y="0" width="32" height="32" fill="#222222" />
  <rect x="192" y="0" width="32" height="32" fill="#333333" />
  <rect x="224" y="0" width="32" height="32" fill="#333333" />
  <rect x="0" y="32" width="32" height="32" fill="#000000" />
  <rect x="32" y="32" width="32" height="32" fill="#444444" />
  <rect x="64" y="32" width="32" height="32" fill="#444444" />
  <rect x="96" y="32" width="32" height="32" fill="#555555" />
  <rect x="128" y="32" width="32" height="32" fill="#666666" />
  <rect x="160" y="32" width="32" height="32" fill="#777777" />
  <rect x="192" y="32" width="32" height="32" fill="#888888" />
  <rect x="224" y="32" width="32" height="32" fill="#999999" />
  <rect x="0" y="64" width="32" height="32" fill="#000000" />
  <rect x="32" y="64" width="32" height="32" fill="#222222" />
  <rect x="64" y="64" width="32" height="32" fill="#444444" />
  <rect x="96" y="64" width="32" height="32" fill="#666666" />
  <rect x="128" y="64" width="32" height="32" fill="#BBBBBB" />
  <rect x="160" y="64" width="32" height="32" fill="#CCCCCC" />
  <rect x="192" y="64" width="32" height="32" fill="#DDDDDD" />
  <rect x="224" y="64" width="32" height="32" fill="#FFFFFF" />
  <rect x="0" y="96" width="32" height="32" fill="#000000" />
  <rect x="32" y="96" width="32" height="32" fill="#111111" />
  <rect x="64" y="96" width="32" height="32" fill="#222222" />
  <rect x="96" y="96" width="32" height="32" fill="#333333" />
  <rect x="128" y="96" width="32" height="32" fill="#444444" />
  <rect x="160" y="96" width="32" height="32" fill="#555555" />
  <rect x="192" y="96" width="32" height="32" fill="#AAAAAA" />
  <rect x="224" y="96" width="32" height="32" fill="#FFFFFF" />
  <rect x="0" y="128" width="32" height="32" fill="#111111" />
  <rect x="32" y="128" width="32" height="32" fill="#222222" />
  <rect x="64" y="128" width="32" height="32" fill="#333333" />
  <rect x="96" y="128" width="32" height="32" fill="#444444" />
  <rect x="128" y="128" width="32" height="32" fill="#555555" />
  <rect x="160" y="128" width="32" height="32" fill="#666666" />
  <rect x="192" y="128" width="32" height="32" fill="#AAAAAA" />
  <rect x="224" y="128" width="32" height="32" fill="#FFFFFF" />
  <rect x="0" y="160" width="32" height="32" fill="#000000" />
  <rect x="32" y="160" width="32" height="32" fill="#111111" />
  <rect x="64" y="160" width="32" height="32" fill="#555555" />
  <rect x="96" y="160" width="32" height="32" fill="#666666" />
  <rect x="128" y="160" width="32" height="32" fill="#BBBBBB" />
  <rect x="160" y="160" width="32" height="32" fill="#FFFFFF" />
  <rect x="192" y="160" width="32" height="32" fill="#FFFFFF" />
  <rect x="224" y="160" width="32" height="32" fill="#FFFFFF" />
  <rect x="0" y="192" width="32" height="32" fill="#222222" />
  <rect x="32" y="192" width="32" height="32" fill="#333333" />
  <rect x="64" y="192" width="32" height="32" fill="#444444" />
  <rect x="96" y="192" width="32" height="32" fill="#666666" />
  <rect x="128" y="192" width="32" height="32" fill="#AAAAAA" />
  <rect x="160" y="192" width="32" height="32" fill="#FFFFFF" />
  <rect x="192" y="192" width="32" height="32" fill="#FFFFFF" />
  <rect x="224" y="192" width="32" height="32" fill="#FFFFFF" />
  <rect x="0" y="224" width="32" height="32" fill="#333333" />
  <rect x="32" y="224" width="32" height="32" fill="#444444" />
  <rect x="64" y="224" width="32" height="32" fill="#555555" />
  <rect x="96" y="224" width="32" height="32" fill="#FFFFFF" />
  <rect x="128" y="224" width="32" height="32" fill="#FFFFFF" />
  <rect x="160" y="224" width="32" height="32" fill="#FFFFFF" />
  <rect x="192" y="224" width="32" height="32" fill="#FFFFFF" />
  <rect x="224" y="224" width="32" height="32" fill="#FFFFFF" />
</svg>
