<svg xmlns="http://www.w3.org/2000/svg" width="256" height="256" viewBox="0 0 256 256" shape-rendering="crispEdges" role="img" aria-labelledby="title desc">
  <title id="title">Duality in Tension</title>
  <desc id="desc">The emotional tone reflects a dance between longing and resolve, with a stark emphasis on pressure emanating from one corner. The palette combines deep blacks and vibrant reds for tension, contrasted by pale blue and white for serenity, creating a push-pull in the composition. The main contrast occurs around the top left, where red bursts against calmer tones, suggesting a noise against stillness. The arrangement translates the seed into a rhythm of interrupted flow where longing finds its place amidst a frame of resolve.</desc>
  <rect width="256" height="256" fill="#FFFFFF" />
  <rect x="0" y="0" width="32" height="32" fill="#FF0000" />
  <rect x="32" y="0" width="32" height="32" fill="#FF6666" />
  <rect x="64" y="0" width="32" height="32" fill="#FFFFFF" />
  <rect x="96" y="0" width="32" height="32" fill="#FFFFFF" />
  <rect x="128" y="0" width="32" height="32" fill="#FFFFFF" />
  <rect x="160" y="0" width="32" height="32" fill="#C0C0C0" />
  <rect x="192" y="0" width="32" height="32" fill="#CCCCCC" />
  <rect x="224" y="0" width="32" height="32" fill="#DDDDDD" />
  <rect x="0" y="32" width="32" height="32" fill="#FF0000" />
  <rect x="32" y="32" width="32" height="32" fill="#FF6666" />
  <rect x="64" y="32" width="32" height="32" fill="#FFFFFF" />
  <rect x="96" y="32" width="32" height="32" fill="#FFFFFF" />
  <rect x="128" y="32" width="32" height="32" fill="#FFFFFF" />
  <rect x="160" y="32" width="32" height="32" fill="#C0C0C0" />
  <rect x="192" y="32" width="32" height="32" fill="#CCCCCC" />
  <rect x="224" y="32" width="32" height="32" fill="#DDDDDD" />
  <rect x="0" y="64" width="32" height="32" fill="#000000" />
  <rect x="32" y="64" width="32" height="32" fill="#000000" />
  <rect x="64" y="64" width="32" height="32" fill="#C0C0C0" />
  <rect x="96" y="64" width="32" height="32" fill="#C0C0C0" />
  <rect x="128" y="64" width="32" height="32" fill="#C0C0C0" />
  <rect x="160" y="64" width="32" height="32" fill="#FFFFFF" />
  <rect x="192" y="64" width="32" height="32" fill="#FFFFFF" />
  <rect x="224" y="64" width="32" height="32" fill="#DDDDDD" />
  <rect x="0" y="96" width="32" height="32" fill="#000000" />
  <rect x="32" y="96" width="32" height="32" fill="#C0C0C0" />
  <rect x="64" y="96" width="32" height="32" fill="#C0C0C0" />
  <rect x="96" y="96" width="32" height="32" fill="#C0C0C0" />
  <rect x="128" y="96" width="32" height="32" fill="#FFFFFF" />
  <rect x="160" y="96" width="32" height="32" fill="#FFFFFF" />
  <rect x="192" y="96" width="32" height="32" fill="#FFFFFF" />
  <rect x="224" y="96" width="32" height="32" fill="#FFFFFF" />
  <rect x="0" y="128" width="32" height="32" fill="#000000" />
  <rect x="32" y="128" width="32" height="32" fill="#C0C0C0" />
  <rect x="64" y="128" width="32" height="32" fill="#C0C0C0" />
  <rect x="96" y="128" width="32" height="32" fill="#C0C0C0" />
  <rect x="128" y="128" width="32" height="32" fill="#C0C0C0" />
  <rect x="160" y="128" width="32" height="32" fill="#C0C0C0" />
  <rect x="192" y="128" width="32" height="32" fill="#FFFFCC" />
  <rect x="224" y="128" width="32" height="32" fill="#FFFFFF" />
  <rect x="0" y="160" width="32" height="32" fill="#000000" />
  <rect x="32" y="160" width="32" height="32" fill="#C0C0C0" />
  <rect x="64" y="160" width="32" height="32" fill="#C0C0C0" />
  <rect x="96" y="160" width="32" height="32" fill="#C0C0C0" />
  <rect x="128" y="160" width="32" height="32" fill="#C0C0C0" />
  <rect x="160" y="160" width="32" height="32" fill="#C0C0C0" />
  <rect x="192" y="160" width="32" height="32" fill="#DDDDDD" />
  <rect x="224" y="160" width="32" height="32" fill="#FFFFFF" />
  <rect x="0" y="192" width="32" height="32" fill="#FF0000" />
  <rect x="32" y="192" width="32" height="32" fill="#FFAAAA" />
  <rect x="64" y="192" width="32" height="32" fill="#FFFFFF" />
  <rect x="96" y="192" width="32" height="32" fill="#FFFFFF" />
  <rect x="128" y="192" width="32" height="32" fill="#FFFFFF" />
  <rect x="160" y="192" width="32" height="32" fill="#C0C0C0" />
  <rect x="192" y="192" width="32" height="32" fill="#CCCCCC" />
  <rect x="224" y="192" width="32" height="32" fill="#DDDDDD" />
  <rect x="0" y="224" width="32" height="32" fill="#FF0000" />
  <rect x="32" y="224" width="32" height="32" fill="#FFAAAA" />
  <rect x="64" y="224" width="32" height="32" fill="#FFFFFF" />
  <rect x="96" y="224" width="32" height="32" fill="#FFFFFF" />
  <rect x="128" y="224" width="32" height="32" fill="#FFFFFF" />
  <rect x="160" y="224" width="32" height="32" fill="#C0C0C0" />
  <rect x="192" y="224" width="32" height="32" fill="#CCCCCC" />
  <rect x="224" y="224" width="32" height="32" fill="#FFFFFF" />
</svg>
