<svg xmlns="http://www.w3.org/2000/svg" width="256" height="256" viewBox="0 0 256 256" shape-rendering="crispEdges" role="img" aria-labelledby="title desc">
  <title id="title">Echoes of Tension</title>
  <desc id="desc">This composition captures the emotional spectrum between chaos and control through contrasting warm and cool tones. The chosen palette reflects feelings of joy and grief, with yellows and oranges representing an underlying joy amidst tension and burnt edges suggesting unresolved emotional clashes. The arrangement features a zigzag pattern to symbolize the conflict, with sharper diagonal lines representing panic colliding with more structured, controlled tones and textures. The broken pixels introduce imperfection, enhancing the idea of tension and chaos within the ordered framework. This allows for a visual representation of the struggle between these contrasting emotional states.</desc>
  <rect width="256" height="256" fill="#FFFFFF" />
  <rect x="0" y="0" width="32" height="32" fill="#F4C300" />
  <rect x="32" y="0" width="32" height="32" fill="#FB7C00" />
  <rect x="64" y="0" width="32" height="32" fill="#004B87" />
  <rect x="96" y="0" width="32" height="32" fill="#948CDA" />
  <rect x="128" y="0" width="32" height="32" fill="#9E7EBE" />
  <rect x="160" y="0" width="32" height="32" fill="#BB6F55" />
  <rect x="192" y="0" width="32" height="32" fill="#E45F1B" />
  <rect x="224" y="0" width="32" height="32" fill="#FFD300" />
  <rect x="0" y="32" width="32" height="32" fill="#EDDABF" />
  <rect x="32" y="32" width="32" height="32" fill="#FF6F61" />
  <rect x="64" y="32" width="32" height="32" fill="#A1C7E1" />
  <rect x="96" y="32" width="32" height="32" fill="#8F5B8C" />
  <rect x="128" y="32" width="32" height="32" fill="#6D4765" />
  <rect x="160" y="32" width="32" height="32" fill="#B3A2D7" />
  <rect x="192" y="32" width="32" height="32" fill="#F10A28" />
  <rect x="224" y="32" width="32" height="32" fill="#F7A696" />
  <rect x="0" y="64" width="32" height="32" fill="#D8B56E" />
  <rect x="32" y="64" width="32" height="32" fill="#CB561D" />
  <rect x="64" y="64" width="32" height="32" fill="#002D40" />
  <rect x="96" y="64" width="32" height="32" fill="#C1B2D5" />
  <rect x="128" y="64" width="32" height="32" fill="#473F89" />
  <rect x="160" y="64" width="32" height="32" fill="#7FBAAC" />
  <rect x="192" y="64" width="32" height="32" fill="#D3A65C" />
  <rect x="224" y="64" width="32" height="32" fill="#FB3C9B" />
  <rect x="0" y="96" width="32" height="32" fill="#BC7B12" />
  <rect x="32" y="96" width="32" height="32" fill="#F8DE96" />
  <rect x="64" y="96" width="32" height="32" fill="#0E1833" />
  <rect x="96" y="96" width="32" height="32" fill="#4C4700" />
  <rect x="128" y="96" width="32" height="32" fill="#B3BEC7" />
  <rect x="160" y="96" width="32" height="32" fill="#88BFA6" />
  <rect x="192" y="96" width="32" height="32" fill="#F2E5D0" />
  <rect x="224" y="96" width="32" height="32" fill="#9C7CB2" />
  <rect x="0" y="128" width="32" height="32" fill="#5A4E68" />
  <rect x="32" y="128" width="32" height="32" fill="#E1A94D" />
  <rect x="64" y="128" width="32" height="32" fill="#326B94" />
  <rect x="96" y="128" width="32" height="32" fill="#B86F95" />
  <rect x="128" y="128" width="32" height="32" fill="#E4B262" />
  <rect x="160" y="128" width="32" height="32" fill="#FFE1A6" />
  <rect x="192" y="128" width="32" height="32" fill="#F626A5" />
  <rect x="224" y="128" width="32" height="32" fill="#805D7C" />
  <rect x="0" y="160" width="32" height="32" fill="#283960" />
  <rect x="32" y="160" width="32" height="32" fill="#FFC9B4" />
  <rect x="64" y="160" width="32" height="32" fill="#4D8C9A" />
  <rect x="96" y="160" width="32" height="32" fill="#7F9D42" />
  <rect x="128" y="160" width="32" height="32" fill="#F26718" />
  <rect x="160" y="160" width="32" height="32" fill="#D8A3A8" />
  <rect x="192" y="160" width="32" height="32" fill="#F11D65" />
  <rect x="224" y="160" width="32" height="32" fill="#9886A0" />
  <rect x="0" y="192" width="32" height="32" fill="#C3C3C3" />
  <rect x="32" y="192" width="32" height="32" fill="#8A6F91" />
  <rect x="64" y="192" width="32" height="32" fill="#A5A166" />
  <rect x="96" y="192" width="32" height="32" fill="#F2812D" />
  <rect x="128" y="192" width="32" height="32" fill="#6F719B" />
  <rect x="160" y="192" width="32" height="32" fill="#D4D0E2" />
  <rect x="192" y="192" width="32" height="32" fill="#D8CC9E" />
  <rect x="224" y="192" width="32" height="32" fill="#AC3223" />
  <rect x="0" y="224" width="32" height="32" fill="#B8C8B3" />
  <rect x="32" y="224" width="32" height="32" fill="#DAE0DA" />
  <rect x="64" y="224" width="32" height="32" fill="#C1B6A6" />
  <rect x="96" y="224" width="32" height="32" fill="#802F5A" />
  <rect x="128" y="224" width="32" height="32" fill="#FFD3B9" />
  <rect x="160" y="224" width="32" height="32" fill="#D7D242" />
  <rect x="192" y="224" width="32" height="32" fill="#FF9F6D" />
  <rect x="224" y="224" width="32" height="32" fill="#782A3C" />
</svg>
