<svg xmlns="http://www.w3.org/2000/svg" width="256" height="256" viewBox="0 0 256 256" shape-rendering="crispEdges" role="img" aria-labelledby="title desc">
  <title id="title">Echoing Contrasts</title>
  <desc id="desc">This piece explores the emotional tension between longing and resolve. The color palette, drawn from muted creams and deep plums, conveys a sense of hunger and restraint. The interplay between the pressure band of darker hues and the quiet field of lighter colors creates a rhythmic ebb and flow across the grid. The center features a concentrated collision of resolve, symbolized by darker colors, surrounded by a soft, longing space utilizing lighter tones, representing the soothing yet unfulfilled desires. The broken pixels introduce imperfections and interruptions, enhancing the sentiment of repair in the midst of damage, contributing to a narrative of healing and hope amidst chaos.</desc>
  <rect width="256" height="256" fill="#FFFFFF" />
  <rect x="0" y="0" width="32" height="32" fill="#3F251D" />
  <rect x="32" y="0" width="32" height="32" fill="#7A4C3A" />
  <rect x="64" y="0" width="32" height="32" fill="#3A2D2D" />
  <rect x="96" y="0" width="32" height="32" fill="#6B5B55" />
  <rect x="128" y="0" width="32" height="32" fill="#CFC5B5" />
  <rect x="160" y="0" width="32" height="32" fill="#D0C6B2" />
  <rect x="192" y="0" width="32" height="32" fill="#4A2C24" />
  <rect x="224" y="0" width="32" height="32" fill="#E5E9D9" />
  <rect x="0" y="32" width="32" height="32" fill="#B04736" />
  <rect x="32" y="32" width="32" height="32" fill="#E6E4E0" />
  <rect x="64" y="32" width="32" height="32" fill="#6E3A3A" />
  <rect x="96" y="32" width="32" height="32" fill="#3E4B3A" />
  <rect x="128" y="32" width="32" height="32" fill="#B0937D" />
  <rect x="160" y="32" width="32" height="32" fill="#E6C8A2" />
  <rect x="192" y="32" width="32" height="32" fill="#8A4C4C" />
  <rect x="224" y="32" width="32" height="32" fill="#F3F1ED" />
  <rect x="0" y="64" width="32" height="32" fill="#4A2B29" />
  <rect x="32" y="64" width="32" height="32" fill="#A8624D" />
  <rect x="64" y="64" width="32" height="32" fill="#CCBB94" />
  <rect x="96" y="64" width="32" height="32" fill="#E8E3DB" />
  <rect x="128" y="64" width="32" height="32" fill="#B3A49F" />
  <rect x="160" y="64" width="32" height="32" fill="#5B2D25" />
  <rect x="192" y="64" width="32" height="32" fill="#7C3B35" />
  <rect x="224" y="64" width="32" height="32" fill="#D6C6B0" />
  <rect x="0" y="96" width="32" height="32" fill="#C2A4A0" />
  <rect x="32" y="96" width="32" height="32" fill="#333E38" />
  <rect x="64" y="96" width="32" height="32" fill="#706D5B" />
  <rect x="96" y="96" width="32" height="32" fill="#3D2D2E" />
  <rect x="128" y="96" width="32" height="32" fill="#C7B99B" />
  <rect x="160" y="96" width="32" height="32" fill="#B06E61" />
  <rect x="192" y="96" width="32" height="32" fill="#7D4341" />
  <rect x="224" y="96" width="32" height="32" fill="#E6D7C6" />
  <rect x="0" y="128" width="32" height="32" fill="#3E2A2B" />
  <rect x="32" y="128" width="32" height="32" fill="#AA603D" />
  <rect x="64" y="128" width="32" height="32" fill="#E4C1B2" />
  <rect x="96" y="128" width="32" height="32" fill="#D6BFA5" />
  <rect x="128" y="128" width="32" height="32" fill="#DAD1C2" />
  <rect x="160" y="128" width="32" height="32" fill="#C0A29B" />
  <rect x="192" y="128" width="32" height="32" fill="#585D64" />
  <rect x="224" y="128" width="32" height="32" fill="#F2E6D2" />
  <rect x="0" y="160" width="32" height="32" fill="#400F11" />
  <rect x="32" y="160" width="32" height="32" fill="#E0B6A2" />
  <rect x="64" y="160" width="32" height="32" fill="#B03C2A" />
  <rect x="96" y="160" width="32" height="32" fill="#BB8D6B" />
  <rect x="128" y="160" width="32" height="32" fill="#4F3D37" />
  <rect x="160" y="160" width="32" height="32" fill="#D2C4B6" />
  <rect x="192" y="160" width="32" height="32" fill="#8D5730" />
  <rect x="224" y="160" width="32" height="32" fill="#EBE2D0" />
  <rect x="0" y="192" width="32" height="32" fill="#C8A6A0" />
  <rect x="32" y="192" width="32" height="32" fill="#E7E7D7" />
  <rect x="64" y="192" width="32" height="32" fill="#4E4342" />
  <rect x="96" y="192" width="32" height="32" fill="#5B4E4B" />
  <rect x="128" y="192" width="32" height="32" fill="#A16A4C" />
  <rect x="160" y="192" width="32" height="32" fill="#D5C1B4" />
  <rect x="192" y="192" width="32" height="32" fill="#7B2F30" />
  <rect x="224" y="192" width="32" height="32" fill="#E9D7D2" />
  <rect x="0" y="224" width="32" height="32" fill="#E6D9D0" />
  <rect x="32" y="224" width="32" height="32" fill="#C2B2A0" />
  <rect x="64" y="224" width="32" height="32" fill="#4B3938" />
  <rect x="96" y="224" width="32" height="32" fill="#BF8A79" />
  <rect x="128" y="224" width="32" height="32" fill="#6B5D55" />
  <rect x="160" y="224" width="32" height="32" fill="#5F3E3D" />
  <rect x="192" y="224" width="32" height="32" fill="#F1E8E8" />
  <rect x="224" y="224" width="32" height="32" fill="#C2BDA3" />
</svg>
