<svg xmlns="http://www.w3.org/2000/svg" width="256" height="256" viewBox="0 0 256 256" shape-rendering="crispEdges" role="img" aria-labelledby="title desc">
  <title id="title">Contrasting Dynamics</title>
  <desc id="desc">The emotional tone balances between turmoil and serenity, evoking a dynamic tension. The palette, inspired by ripe greens and honey golds, contrasts warm and cool shades to reflect the push and pull of restlessness versus peace. The layout features scattered repairs that interrupt a consistent grid pattern, symbolizing a struggle between chaos (static pattern) and calm (grid). The collision of brighter patches against darker fields at the center emphasizes the tension central to the seed's narrative, suggesting movement yet yielding to moments of tranquility. This creates a complex emotional exchange without relying on literal imagery.</desc>
  <rect width="256" height="256" fill="#FFFFFF" />
  <rect x="0" y="0" width="32" height="32" fill="#4CAF50" />
  <rect x="32" y="0" width="32" height="32" fill="#D4E157" />
  <rect x="64" y="0" width="32" height="32" fill="#FFC107" />
  <rect x="96" y="0" width="32" height="32" fill="#A5D6A7" />
  <rect x="128" y="0" width="32" height="32" fill="#C9DCB2" />
  <rect x="160" y="0" width="32" height="32" fill="#A5D6A7" />
  <rect x="192" y="0" width="32" height="32" fill="#D4E157" />
  <rect x="224" y="0" width="32" height="32" fill="#4CAF50" />
  <rect x="0" y="32" width="32" height="32" fill="#D4E157" />
  <rect x="32" y="32" width="32" height="32" fill="#74B9FF" />
  <rect x="64" y="32" width="32" height="32" fill="#4CAF50" />
  <rect x="96" y="32" width="32" height="32" fill="#FFC107" />
  <rect x="128" y="32" width="32" height="32" fill="#A5D6A7" />
  <rect x="160" y="32" width="32" height="32" fill="#FFC107" />
  <rect x="192" y="32" width="32" height="32" fill="#D4E157" />
  <rect x="224" y="32" width="32" height="32" fill="#74B9FF" />
  <rect x="0" y="64" width="32" height="32" fill="#FFC107" />
  <rect x="32" y="64" width="32" height="32" fill="#A5D6A7" />
  <rect x="64" y="64" width="32" height="32" fill="#4CAF50" />
  <rect x="96" y="64" width="32" height="32" fill="#D4E157" />
  <rect x="128" y="64" width="32" height="32" fill="#74B9FF" />
  <rect x="160" y="64" width="32" height="32" fill="#A5D6A7" />
  <rect x="192" y="64" width="32" height="32" fill="#FFC107" />
  <rect x="224" y="64" width="32" height="32" fill="#A5D6A7" />
  <rect x="0" y="96" width="32" height="32" fill="#A5D6A7" />
  <rect x="32" y="96" width="32" height="32" fill="#FFC107" />
  <rect x="64" y="96" width="32" height="32" fill="#D4E157" />
  <rect x="96" y="96" width="32" height="32" fill="#4CAF50" />
  <rect x="128" y="96" width="32" height="32" fill="#FFC107" />
  <rect x="160" y="96" width="32" height="32" fill="#A5D6A7" />
  <rect x="192" y="96" width="32" height="32" fill="#74B9FF" />
  <rect x="224" y="96" width="32" height="32" fill="#4CAF50" />
  <rect x="0" y="128" width="32" height="32" fill="#4CAF50" />
  <rect x="32" y="128" width="32" height="32" fill="#FFC107" />
  <rect x="64" y="128" width="32" height="32" fill="#D4E157" />
  <rect x="96" y="128" width="32" height="32" fill="#A5D6A7" />
  <rect x="128" y="128" width="32" height="32" fill="#D4E157" />
  <rect x="160" y="128" width="32" height="32" fill="#FFC107" />
  <rect x="192" y="128" width="32" height="32" fill="#A5D6A7" />
  <rect x="224" y="128" width="32" height="32" fill="#74B9FF" />
  <rect x="0" y="160" width="32" height="32" fill="#A5D6A7" />
  <rect x="32" y="160" width="32" height="32" fill="#D4E157" />
  <rect x="64" y="160" width="32" height="32" fill="#FFC107" />
  <rect x="96" y="160" width="32" height="32" fill="#74B9FF" />
  <rect x="128" y="160" width="32" height="32" fill="#4CAF50" />
  <rect x="160" y="160" width="32" height="32" fill="#FFC107" />
  <rect x="192" y="160" width="32" height="32" fill="#A5D6A7" />
  <rect x="224" y="160" width="32" height="32" fill="#D4E157" />
  <rect x="0" y="192" width="32" height="32" fill="#FFC107" />
  <rect x="32" y="192" width="32" height="32" fill="#A5D6A7" />
  <rect x="64" y="192" width="32" height="32" fill="#D4E157" />
  <rect x="96" y="192" width="32" height="32" fill="#4CAF50" />
  <rect x="128" y="192" width="32" height="32" fill="#D4E157" />
  <rect x="160" y="192" width="32" height="32" fill="#74B9FF" />
  <rect x="192" y="192" width="32" height="32" fill="#A5D6A7" />
  <rect x="224" y="192" width="32" height="32" fill="#FFC107" />
  <rect x="0" y="224" width="32" height="32" fill="#C9DCB2" />
  <rect x="32" y="224" width="32" height="32" fill="#4CAF50" />
  <rect x="64" y="224" width="32" height="32" fill="#FFC107" />
  <rect x="96" y="224" width="32" height="32" fill="#A5D6A7" />
  <rect x="128" y="224" width="32" height="32" fill="#4CAF50" />
  <rect x="160" y="224" width="32" height="32" fill="#D4E157" />
  <rect x="192" y="224" width="32" height="32" fill="#A5D6A7" />
  <rect x="224" y="224" width="32" height="32" fill="#C9DCB2" />
</svg>
