<svg xmlns="http://www.w3.org/2000/svg" width="256" height="256" viewBox="0 0 256 256" shape-rendering="crispEdges" role="img" aria-labelledby="title desc">
  <title id="title">Suspended Tension</title>
  <desc id="desc">This composition explores the emotional duality of longing and resolve. The chosen palette of navy, black, and dim cyan evokes a sense of distant warmth tempered by clarity. The dense center of dark colors represents longing, contrasted by lighter segments that symbolize resolve. The pattern alternates between sharp edges and broken frames, creating a visual pulse that mirrors the emotional tension expressed in the seed. The central collision of color creates a visual threshold, echoing the constant push-pull between these contrasting feelings.</desc>
  <rect width="256" height="256" fill="#FFFFFF" />
  <rect x="0" y="0" width="32" height="32" fill="#000000" />
  <rect x="32" y="0" width="32" height="32" fill="#001F3F" />
  <rect x="64" y="0" width="32" height="32" fill="#001F3F" />
  <rect x="96" y="0" width="32" height="32" fill="#001F3F" />
  <rect x="128" y="0" width="32" height="32" fill="#005B8C" />
  <rect x="160" y="0" width="32" height="32" fill="#005B8C" />
  <rect x="192" y="0" width="32" height="32" fill="#007C92" />
  <rect x="224" y="0" width="32" height="32" fill="#FFFFFF" />
  <rect x="0" y="32" width="32" height="32" fill="#005B8C" />
  <rect x="32" y="32" width="32" height="32" fill="#001F3F" />
  <rect x="64" y="32" width="32" height="32" fill="#003B5C" />
  <rect x="96" y="32" width="32" height="32" fill="#003B5C" />
  <rect x="128" y="32" width="32" height="32" fill="#005B8C" />
  <rect x="160" y="32" width="32" height="32" fill="#005B8C" />
  <rect x="192" y="32" width="32" height="32" fill="#007C92" />
  <rect x="224" y="32" width="32" height="32" fill="#FFFFFF" />
  <rect x="0" y="64" width="32" height="32" fill="#001F3F" />
  <rect x="32" y="64" width="32" height="32" fill="#003B5C" />
  <rect x="64" y="64" width="32" height="32" fill="#001F3F" />
  <rect x="96" y="64" width="32" height="32" fill="#001F3F" />
  <rect x="128" y="64" width="32" height="32" fill="#007C92" />
  <rect x="160" y="64" width="32" height="32" fill="#007C92" />
  <rect x="192" y="64" width="32" height="32" fill="#007C92" />
  <rect x="224" y="64" width="32" height="32" fill="#FFFFFF" />
  <rect x="0" y="96" width="32" height="32" fill="#001F3F" />
  <rect x="32" y="96" width="32" height="32" fill="#003B5C" />
  <rect x="64" y="96" width="32" height="32" fill="#005B8C" />
  <rect x="96" y="96" width="32" height="32" fill="#001F3F" />
  <rect x="128" y="96" width="32" height="32" fill="#007C92" />
  <rect x="160" y="96" width="32" height="32" fill="#005B8C" />
  <rect x="192" y="96" width="32" height="32" fill="#FFFFFF" />
  <rect x="224" y="96" width="32" height="32" fill="#FFFFFF" />
  <rect x="0" y="128" width="32" height="32" fill="#005B8C" />
  <rect x="32" y="128" width="32" height="32" fill="#003B5C" />
  <rect x="64" y="128" width="32" height="32" fill="#001F3F" />
  <rect x="96" y="128" width="32" height="32" fill="#005B8C" />
  <rect x="128" y="128" width="32" height="32" fill="#001F3F" />
  <rect x="160" y="128" width="32" height="32" fill="#007C92" />
  <rect x="192" y="128" width="32" height="32" fill="#FFFFFF" />
  <rect x="224" y="128" width="32" height="32" fill="#FFFFFF" />
  <rect x="0" y="160" width="32" height="32" fill="#005B8C" />
  <rect x="32" y="160" width="32" height="32" fill="#001F3F" />
  <rect x="64" y="160" width="32" height="32" fill="#005B8C" />
  <rect x="96" y="160" width="32" height="32" fill="#001F3F" />
  <rect x="128" y="160" width="32" height="32" fill="#003B5C" />
  <rect x="160" y="160" width="32" height="32" fill="#003B5C" />
  <rect x="192" y="160" width="32" height="32" fill="#FFFFFF" />
  <rect x="224" y="160" width="32" height="32" fill="#FFFFFF" />
  <rect x="0" y="192" width="32" height="32" fill="#007C92" />
  <rect x="32" y="192" width="32" height="32" fill="#005B8C" />
  <rect x="64" y="192" width="32" height="32" fill="#003B5C" />
  <rect x="96" y="192" width="32" height="32" fill="#007C92" />
  <rect x="128" y="192" width="32" height="32" fill="#005B8C" />
  <rect x="160" y="192" width="32" height="32" fill="#003B5C" />
  <rect x="192" y="192" width="32" height="32" fill="#FFFFFF" />
  <rect x="224" y="192" width="32" height="32" fill="#FFFFFF" />
  <rect x="0" y="224" width="32" height="32" fill="#FFFFFF" />
  <rect x="32" y="224" width="32" height="32" fill="#FFFFFF" />
  <rect x="64" y="224" width="32" height="32" fill="#FFFFFF" />
  <rect x="96" y="224" width="32" height="32" fill="#FFFFFF" />
  <rect x="128" y="224" width="32" height="32" fill="#FFFFFF" />
  <rect x="160" y="224" width="32" height="32" fill="#FFFFFF" />
  <rect x="192" y="224" width="32" height="32" fill="#FFFFFF" />
  <rect x="224" y="224" width="32" height="32" fill="#FFFFFF" />
</svg>
