<svg xmlns="http://www.w3.org/2000/svg" width="256" height="256" viewBox="0 0 256 256" shape-rendering="crispEdges" role="img" aria-labelledby="title desc">
  <title id="title">Clash of Energies</title>
  <desc id="desc">This artwork embodies the emotional tension between defiance and submission, utilizing a palette of melancholy colors that resonate with these themes. The vibrant contrasts in the center reflect the defiance, while softer hues on the periphery suggest a subtle submission. The main collision occurs diagonally, creating a rhythmic pulse through the chaos, complemented by broken pixels that introduce intentional disruptions, representing the interplay between order and chaos. The layout channels a sense of confinement as the edges wrestle with the dense center.</desc>
  <rect width="256" height="256" fill="#FFFFFF" />
  <rect x="0" y="0" width="32" height="32" fill="#2A3E8C" />
  <rect x="32" y="0" width="32" height="32" fill="#484F8C" />
  <rect x="64" y="0" width="32" height="32" fill="#B9B79C" />
  <rect x="96" y="0" width="32" height="32" fill="#C0C2D6" />
  <rect x="128" y="0" width="32" height="32" fill="#9AB8E4" />
  <rect x="160" y="0" width="32" height="32" fill="#2C7DAF" />
  <rect x="192" y="0" width="32" height="32" fill="#4BBFBE" />
  <rect x="224" y="0" width="32" height="32" fill="#E6E6E6" />
  <rect x="0" y="32" width="32" height="32" fill="#4C66B3" />
  <rect x="32" y="32" width="32" height="32" fill="#7074B4" />
  <rect x="64" y="32" width="32" height="32" fill="#C4C3B5" />
  <rect x="96" y="32" width="32" height="32" fill="#FFFFFF" />
  <rect x="128" y="32" width="32" height="32" fill="#BAC4D7" />
  <rect x="160" y="32" width="32" height="32" fill="#A6BACD" />
  <rect x="192" y="32" width="32" height="32" fill="#4A8B9A" />
  <rect x="224" y="32" width="32" height="32" fill="#D2E0E2" />
  <rect x="0" y="64" width="32" height="32" fill="#3A3F68" />
  <rect x="32" y="64" width="32" height="32" fill="#2B405D" />
  <rect x="64" y="64" width="32" height="32" fill="#B7B8A1" />
  <rect x="96" y="64" width="32" height="32" fill="#8C8DA1" />
  <rect x="128" y="64" width="32" height="32" fill="#C2C6DB" />
  <rect x="160" y="64" width="32" height="32" fill="#7FA8C2" />
  <rect x="192" y="64" width="32" height="32" fill="#42B1B2" />
  <rect x="224" y="64" width="32" height="32" fill="#BEE3E6" />
  <rect x="0" y="96" width="32" height="32" fill="#2D3A55" />
  <rect x="32" y="96" width="32" height="32" fill="#D7D4CA" />
  <rect x="64" y="96" width="32" height="32" fill="#A8A9B2" />
  <rect x="96" y="96" width="32" height="32" fill="#BAC5D8" />
  <rect x="128" y="96" width="32" height="32" fill="#7C8E7E" />
  <rect x="160" y="96" width="32" height="32" fill="#A3BAC3" />
  <rect x="192" y="96" width="32" height="32" fill="#68B2B2" />
  <rect x="224" y="96" width="32" height="32" fill="#C8D0D6" />
  <rect x="0" y="128" width="32" height="32" fill="#43B9D9" />
  <rect x="32" y="128" width="32" height="32" fill="#6F8F9E" />
  <rect x="64" y="128" width="32" height="32" fill="#BDC0C8" />
  <rect x="96" y="128" width="32" height="32" fill="#D3D6E1" />
  <rect x="128" y="128" width="32" height="32" fill="#2E3B4F" />
  <rect x="160" y="128" width="32" height="32" fill="#93A1B5" />
  <rect x="192" y="128" width="32" height="32" fill="#BAC8D3" />
  <rect x="224" y="128" width="32" height="32" fill="#E8F1F1" />
  <rect x="0" y="160" width="32" height="32" fill="#3C5B8F" />
  <rect x="32" y="160" width="32" height="32" fill="#7A93B1" />
  <rect x="64" y="160" width="32" height="32" fill="#9BB3B8" />
  <rect x="96" y="160" width="32" height="32" fill="#CFE1DF" />
  <rect x="128" y="160" width="32" height="32" fill="#E0E7E6" />
  <rect x="160" y="160" width="32" height="32" fill="#7FA3A6" />
  <rect x="192" y="160" width="32" height="32" fill="#B3BDCC" />
  <rect x="224" y="160" width="32" height="32" fill="#BFE1E2" />
  <rect x="0" y="192" width="32" height="32" fill="#3B4A6B" />
  <rect x="32" y="192" width="32" height="32" fill="#61666B" />
  <rect x="64" y="192" width="32" height="32" fill="#999790" />
  <rect x="96" y="192" width="32" height="32" fill="#C5C9CE" />
  <rect x="128" y="192" width="32" height="32" fill="#A8C2CE" />
  <rect x="160" y="192" width="32" height="32" fill="#C1D6DE" />
  <rect x="192" y="192" width="32" height="32" fill="#D6E2E2" />
  <rect x="224" y="192" width="32" height="32" fill="#4AB8D8" />
  <rect x="0" y="224" width="32" height="32" fill="#2A4A88" />
  <rect x="32" y="224" width="32" height="32" fill="#4B6787" />
  <rect x="64" y="224" width="32" height="32" fill="#BACDD1" />
  <rect x="96" y="224" width="32" height="32" fill="#E9F1F1" />
  <rect x="128" y="224" width="32" height="32" fill="#BCCED0" />
  <rect x="160" y="224" width="32" height="32" fill="#A8C6CB" />
  <rect x="192" y="224" width="32" height="32" fill="#2B3D4D" />
  <rect x="224" y="224" width="32" height="32" fill="#1BEBE7" />
</svg>
