<svg xmlns="http://www.w3.org/2000/svg" width="256" height="256" viewBox="0 0 256 256" shape-rendering="crispEdges" role="img" aria-labelledby="title desc">
  <title id="title">Hunger vs Restraint</title>
  <desc id="desc">This composition balances a saturated emotional pull against a stark outer border. The inner 4x4 grid represents desire with a warm tide pattern through vivid colors (hot coral, blood orange), while the outer frame contrasts this with a checker pattern in muted hues (charcoal, hollow blue) that symbolize emptiness and restraint. The primary collision occurs at the center, highlighting the struggle between fulfillment and limitation, creating a dynamic visual tension amid a quiet backdrop.</desc>
  <rect width="256" height="256" fill="#FFFFFF" />
  <rect x="0" y="0" width="32" height="32" fill="#3D1B1B" />
  <rect x="32" y="0" width="32" height="32" fill="#5E2C2C" />
  <rect x="64" y="0" width="32" height="32" fill="#7F3D3D" />
  <rect x="96" y="0" width="32" height="32" fill="#A14E4E" />
  <rect x="128" y="0" width="32" height="32" fill="#D15F5F" />
  <rect x="160" y="0" width="32" height="32" fill="#F07070" />
  <rect x="192" y="0" width="32" height="32" fill="#FF8B8B" />
  <rect x="224" y="0" width="32" height="32" fill="#FFF0F0" />
  <rect x="0" y="32" width="32" height="32" fill="#3F3F3F" />
  <rect x="32" y="32" width="32" height="32" fill="#393939" />
  <rect x="64" y="32" width="32" height="32" fill="#353535" />
  <rect x="96" y="32" width="32" height="32" fill="#313131" />
  <rect x="128" y="32" width="32" height="32" fill="#2F2F2F" />
  <rect x="160" y="32" width="32" height="32" fill="#2C2C2C" />
  <rect x="192" y="32" width="32" height="32" fill="#242424" />
  <rect x="224" y="32" width="32" height="32" fill="#1F1F1F" />
  <rect x="0" y="64" width="32" height="32" fill="#5C4C4C" />
  <rect x="32" y="64" width="32" height="32" fill="#6D5D5D" />
  <rect x="64" y="64" width="32" height="32" fill="#7E6E6E" />
  <rect x="96" y="64" width="32" height="32" fill="#8F7F7F" />
  <rect x="128" y="64" width="32" height="32" fill="#AFAFAF" />
  <rect x="160" y="64" width="32" height="32" fill="#B8B8B8" />
  <rect x="192" y="64" width="32" height="32" fill="#C2C2C2" />
  <rect x="224" y="64" width="32" height="32" fill="#CDCDCD" />
  <rect x="0" y="96" width="32" height="32" fill="#2A0C0C" />
  <rect x="32" y="96" width="32" height="32" fill="#381C1C" />
  <rect x="64" y="96" width="32" height="32" fill="#4B2D2D" />
  <rect x="96" y="96" width="32" height="32" fill="#5C3D3D" />
  <rect x="128" y="96" width="32" height="32" fill="#6F4E4E" />
  <rect x="160" y="96" width="32" height="32" fill="#805E5E" />
  <rect x="192" y="96" width="32" height="32" fill="#917F7F" />
  <rect x="224" y="96" width="32" height="32" fill="#A0B0B0" />
  <rect x="0" y="128" width="32" height="32" fill="#B0B0B0" />
  <rect x="32" y="128" width="32" height="32" fill="#AFAFAF" />
  <rect x="64" y="128" width="32" height="32" fill="#AEAEAE" />
  <rect x="96" y="128" width="32" height="32" fill="#ADADAD" />
  <rect x="128" y="128" width="32" height="32" fill="#ACACAC" />
  <rect x="160" y="128" width="32" height="32" fill="#AAAAAA" />
  <rect x="192" y="128" width="32" height="32" fill="#A8A8A8" />
  <rect x="224" y="128" width="32" height="32" fill="#A7A7A7" />
  <rect x="0" y="160" width="32" height="32" fill="#0A5E5E" />
  <rect x="32" y="160" width="32" height="32" fill="#0C6969" />
  <rect x="64" y="160" width="32" height="32" fill="#0E7575" />
  <rect x="96" y="160" width="32" height="32" fill="#107B7B" />
  <rect x="128" y="160" width="32" height="32" fill="#128585" />
  <rect x="160" y="160" width="32" height="32" fill="#139494" />
  <rect x="192" y="160" width="32" height="32" fill="#15A1A1" />
  <rect x="224" y="160" width="32" height="32" fill="#16A3A3" />
  <rect x="0" y="192" width="32" height="32" fill="#3A4B4B" />
  <rect x="32" y="192" width="32" height="32" fill="#3D5C5C" />
  <rect x="64" y="192" width="32" height="32" fill="#3F6969" />
  <rect x="96" y="192" width="32" height="32" fill="#417878" />
  <rect x="128" y="192" width="32" height="32" fill="#438989" />
  <rect x="160" y="192" width="32" height="32" fill="#459A9A" />
  <rect x="192" y="192" width="32" height="32" fill="#47A7A7" />
  <rect x="224" y="192" width="32" height="32" fill="#48AAAA" />
  <rect x="0" y="224" width="32" height="32" fill="#EAEAEA" />
  <rect x="32" y="224" width="32" height="32" fill="#F6F6F6" />
  <rect x="64" y="224" width="32" height="32" fill="#FFFFFF" />
  <rect x="96" y="224" width="32" height="32" fill="#FFFFFF" />
  <rect x="128" y="224" width="32" height="32" fill="#FFFFFF" />
  <rect x="160" y="224" width="32" height="32" fill="#FFFFFF" />
  <rect x="192" y="224" width="32" height="32" fill="#FFFFFF" />
  <rect x="224" y="224" width="32" height="32" fill="#FFFFFF" />
</svg>
