<svg xmlns="http://www.w3.org/2000/svg" width="256" height="256" viewBox="0 0 256 256" shape-rendering="crispEdges" role="img" aria-labelledby="title desc">
  <title id="title">Tension in Resonance</title>
  <desc id="desc">The emotional tone of relief and dread is explored through the juxtaposition of vivid and muted colors. The selected palette of yellow, orange, deep blue, and muted purple emphasizes the collision between light and dark. The layout features a grid pattern representing dread, contrasted with broken dots that suggest relief. The top-weighted edge style draws attention upward, while the broken pixel elements create visual interruption, enhancing the sense of tension and release within the abstract composition.</desc>
  <rect width="256" height="256" fill="#FFFFFF" />
  <rect x="0" y="0" width="32" height="32" fill="#FFC107" />
  <rect x="32" y="0" width="32" height="32" fill="#FF9800" />
  <rect x="64" y="0" width="32" height="32" fill="#2196F3" />
  <rect x="96" y="0" width="32" height="32" fill="#673AB7" />
  <rect x="128" y="0" width="32" height="32" fill="#FFC107" />
  <rect x="160" y="0" width="32" height="32" fill="#FF9800" />
  <rect x="192" y="0" width="32" height="32" fill="#2196F3" />
  <rect x="224" y="0" width="32" height="32" fill="#673AB7" />
  <rect x="0" y="32" width="32" height="32" fill="#2196F3" />
  <rect x="32" y="32" width="32" height="32" fill="#673AB7" />
  <rect x="64" y="32" width="32" height="32" fill="#FFC107" />
  <rect x="96" y="32" width="32" height="32" fill="#FF9800" />
  <rect x="128" y="32" width="32" height="32" fill="#2196F3" />
  <rect x="160" y="32" width="32" height="32" fill="#673AB7" />
  <rect x="192" y="32" width="32" height="32" fill="#FFC107" />
  <rect x="224" y="32" width="32" height="32" fill="#FF9800" />
  <rect x="0" y="64" width="32" height="32" fill="#673AB7" />
  <rect x="32" y="64" width="32" height="32" fill="#FFC107" />
  <rect x="64" y="64" width="32" height="32" fill="#FF9800" />
  <rect x="96" y="64" width="32" height="32" fill="#2196F3" />
  <rect x="128" y="64" width="32" height="32" fill="#673AB7" />
  <rect x="160" y="64" width="32" height="32" fill="#FFC107" />
  <rect x="192" y="64" width="32" height="32" fill="#FF9800" />
  <rect x="224" y="64" width="32" height="32" fill="#2196F3" />
  <rect x="0" y="96" width="32" height="32" fill="#FF9800" />
  <rect x="32" y="96" width="32" height="32" fill="#2196F3" />
  <rect x="64" y="96" width="32" height="32" fill="#673AB7" />
  <rect x="96" y="96" width="32" height="32" fill="#FFC107" />
  <rect x="128" y="96" width="32" height="32" fill="#FF9800" />
  <rect x="160" y="96" width="32" height="32" fill="#2196F3" />
  <rect x="192" y="96" width="32" height="32" fill="#673AB7" />
  <rect x="224" y="96" width="32" height="32" fill="#FFC107" />
  <rect x="0" y="128" width="32" height="32" fill="#FFC107" />
  <rect x="32" y="128" width="32" height="32" fill="#FF9800" />
  <rect x="64" y="128" width="32" height="32" fill="#2196F3" />
  <rect x="96" y="128" width="32" height="32" fill="#673AB7" />
  <rect x="128" y="128" width="32" height="32" fill="#FFC107" />
  <rect x="160" y="128" width="32" height="32" fill="#FF9800" />
  <rect x="192" y="128" width="32" height="32" fill="#2196F3" />
  <rect x="224" y="128" width="32" height="32" fill="#673AB7" />
  <rect x="0" y="160" width="32" height="32" fill="#2196F3" />
  <rect x="32" y="160" width="32" height="32" fill="#673AB7" />
  <rect x="64" y="160" width="32" height="32" fill="#FFC107" />
  <rect x="96" y="160" width="32" height="32" fill="#FF9800" />
  <rect x="128" y="160" width="32" height="32" fill="#2196F3" />
  <rect x="160" y="160" width="32" height="32" fill="#673AB7" />
  <rect x="192" y="160" width="32" height="32" fill="#FFC107" />
  <rect x="224" y="160" width="32" height="32" fill="#FF9800" />
  <rect x="0" y="192" width="32" height="32" fill="#673AB7" />
  <rect x="32" y="192" width="32" height="32" fill="#FFC107" />
  <rect x="64" y="192" width="32" height="32" fill="#FF9800" />
  <rect x="96" y="192" width="32" height="32" fill="#2196F3" />
  <rect x="128" y="192" width="32" height="32" fill="#673AB7" />
  <rect x="160" y="192" width="32" height="32" fill="#FFC107" />
  <rect x="192" y="192" width="32" height="32" fill="#FF9800" />
  <rect x="224" y="192" width="32" height="32" fill="#2196F3" />
  <rect x="0" y="224" width="32" height="32" fill="#FF9800" />
  <rect x="32" y="224" width="32" height="32" fill="#2196F3" />
  <rect x="64" y="224" width="32" height="32" fill="#673AB7" />
  <rect x="96" y="224" width="32" height="32" fill="#FFC107" />
  <rect x="128" y="224" width="32" height="32" fill="#FF9800" />
  <rect x="160" y="224" width="32" height="32" fill="#2196F3" />
  <rect x="192" y="224" width="32" height="32" fill="#673AB7" />
  <rect x="224" y="224" width="32" height="32" fill="#FFC107" />
</svg>
