<svg xmlns="http://www.w3.org/2000/svg" width="256" height="256" viewBox="0 0 256 256" shape-rendering="crispEdges" role="img" aria-labelledby="title desc">
  <title id="title">Pressure Corner</title>
  <desc id="desc">This artwork captures the emotional tension between quietude and pressure. The palette blends muted tones of dust gray and faint peach, creating a soft atmosphere contrasted by compressed red representing pressure. The layout suggests density in the bottom-left corner, where colors stack, echoing the feeling of weight. The interplay of light and dark enhances the emotional argument, with the soft edges providing a gentle resistance to the sharpness of the overlaid patterns. This arrangement signifies the struggle between calmness and the overwhelming force of pressure, embodying the seed's thematic complexity.</desc>
  <rect width="256" height="256" fill="#FFFFFF" />
  <rect x="0" y="0" width="32" height="32" fill="#F2E7E1" />
  <rect x="32" y="0" width="32" height="32" fill="#F0C0C5" />
  <rect x="64" y="0" width="32" height="32" fill="#A6A1A8" />
  <rect x="96" y="0" width="32" height="32" fill="#70414B" />
  <rect x="128" y="0" width="32" height="32" fill="#4B3136" />
  <rect x="160" y="0" width="32" height="32" fill="#5A2D33" />
  <rect x="192" y="0" width="32" height="32" fill="#3D252B" />
  <rect x="224" y="0" width="32" height="32" fill="#2A1B1E" />
  <rect x="0" y="32" width="32" height="32" fill="#F2E7E1" />
  <rect x="32" y="32" width="32" height="32" fill="#F0C0C5" />
  <rect x="64" y="32" width="32" height="32" fill="#E0C3C9" />
  <rect x="96" y="32" width="32" height="32" fill="#C6A8AE" />
  <rect x="128" y="32" width="32" height="32" fill="#E9D6D5" />
  <rect x="160" y="32" width="32" height="32" fill="#F1D6D5" />
  <rect x="192" y="32" width="32" height="32" fill="#AC787B" />
  <rect x="224" y="32" width="32" height="32" fill="#7B585C" />
  <rect x="0" y="64" width="32" height="32" fill="#D7D1CF" />
  <rect x="32" y="64" width="32" height="32" fill="#E0C3C9" />
  <rect x="64" y="64" width="32" height="32" fill="#C6C9C7" />
  <rect x="96" y="64" width="32" height="32" fill="#A3B0B4" />
  <rect x="128" y="64" width="32" height="32" fill="#8BA3A9" />
  <rect x="160" y="64" width="32" height="32" fill="#A6B2B3" />
  <rect x="192" y="64" width="32" height="32" fill="#6E9295" />
  <rect x="224" y="64" width="32" height="32" fill="#3E5A5C" />
  <rect x="0" y="96" width="32" height="32" fill="#D7D1CF" />
  <rect x="32" y="96" width="32" height="32" fill="#ADB6B0" />
  <rect x="64" y="96" width="32" height="32" fill="#C6C9C7" />
  <rect x="96" y="96" width="32" height="32" fill="#E0D1D1" />
  <rect x="128" y="96" width="32" height="32" fill="#D5CFCF" />
  <rect x="160" y="96" width="32" height="32" fill="#F9E6E3" />
  <rect x="192" y="96" width="32" height="32" fill="#7F8783" />
  <rect x="224" y="96" width="32" height="32" fill="#4A5658" />
  <rect x="0" y="128" width="32" height="32" fill="#B6B3B1" />
  <rect x="32" y="128" width="32" height="32" fill="#F0C0C5" />
  <rect x="64" y="128" width="32" height="32" fill="#E6E0E0" />
  <rect x="96" y="128" width="32" height="32" fill="#DADADA" />
  <rect x="128" y="128" width="32" height="32" fill="#C7C6C5" />
  <rect x="160" y="128" width="32" height="32" fill="#C1B3B0" />
  <rect x="192" y="128" width="32" height="32" fill="#866C71" />
  <rect x="224" y="128" width="32" height="32" fill="#5F4C4F" />
  <rect x="0" y="160" width="32" height="32" fill="#F9E6E3" />
  <rect x="32" y="160" width="32" height="32" fill="#D7D1CF" />
  <rect x="64" y="160" width="32" height="32" fill="#E3DEDE" />
  <rect x="96" y="160" width="32" height="32" fill="#C6C9C7" />
  <rect x="128" y="160" width="32" height="32" fill="#8C7D7D" />
  <rect x="160" y="160" width="32" height="32" fill="#5F4C4F" />
  <rect x="192" y="160" width="32" height="32" fill="#3A3033" />
  <rect x="224" y="160" width="32" height="32" fill="#221A1C" />
  <rect x="0" y="192" width="32" height="32" fill="#F2E7E1" />
  <rect x="32" y="192" width="32" height="32" fill="#D5CFCF" />
  <rect x="64" y="192" width="32" height="32" fill="#F0C0C5" />
  <rect x="96" y="192" width="32" height="32" fill="#CC999C" />
  <rect x="128" y="192" width="32" height="32" fill="#5B4E51" />
  <rect x="160" y="192" width="32" height="32" fill="#3A3033" />
  <rect x="192" y="192" width="32" height="32" fill="#2E2325" />
  <rect x="224" y="192" width="32" height="32" fill="#221A1C" />
  <rect x="0" y="224" width="32" height="32" fill="#E9D6D5" />
  <rect x="32" y="224" width="32" height="32" fill="#DDDDDD" />
  <rect x="64" y="224" width="32" height="32" fill="#CCCCCC" />
  <rect x="96" y="224" width="32" height="32" fill="#AAAAAA" />
  <rect x="128" y="224" width="32" height="32" fill="#888888" />
  <rect x="160" y="224" width="32" height="32" fill="#777777" />
  <rect x="192" y="224" width="32" height="32" fill="#666666" />
  <rect x="224" y="224" width="32" height="32" fill="#555555" />
</svg>
