<svg xmlns="http://www.w3.org/2000/svg" width="256" height="256" viewBox="0 0 256 256" shape-rendering="crispEdges" role="img" aria-labelledby="title desc">
  <title id="title">Fractured Clarity</title>
  <desc id="desc">The emotional tone reflects the struggle between confusion and clarity, utilizing a palette of pink, red, gray, and dark maroon to emphasize the tension. The contrast manifests in the stark juxtaposition between thick outlines and broken dots, creating an echo of collisions. The layout fights for dominance with broken pixels scattered throughout, symbolizing imperfection radiating from the center outward. This design creates an unsettling atmosphere while also suggesting moments of clarity amidst chaos.</desc>
  <rect width="256" height="256" fill="#FFFFFF" />
  <rect x="0" y="0" width="32" height="32" fill="#7C3C9B" />
  <rect x="32" y="0" width="32" height="32" fill="#B4A3AC" />
  <rect x="64" y="0" width="32" height="32" fill="#E5B7C5" />
  <rect x="96" y="0" width="32" height="32" fill="#7F2047" />
  <rect x="128" y="0" width="32" height="32" fill="#6F3D66" />
  <rect x="160" y="0" width="32" height="32" fill="#C0A2B4" />
  <rect x="192" y="0" width="32" height="32" fill="#FFE9F6" />
  <rect x="224" y="0" width="32" height="32" fill="#4C2C3B" />
  <rect x="0" y="32" width="32" height="32" fill="#5A2A46" />
  <rect x="32" y="32" width="32" height="32" fill="#ECF3F8" />
  <rect x="64" y="32" width="32" height="32" fill="#A45B78" />
  <rect x="96" y="32" width="32" height="32" fill="#B19BA1" />
  <rect x="128" y="32" width="32" height="32" fill="#7B2244" />
  <rect x="160" y="32" width="32" height="32" fill="#E7AFB8" />
  <rect x="192" y="32" width="32" height="32" fill="#D198C9" />
  <rect x="224" y="32" width="32" height="32" fill="#0E2A38" />
  <rect x="0" y="64" width="32" height="32" fill="#6B3F50" />
  <rect x="32" y="64" width="32" height="32" fill="#EECFDC" />
  <rect x="64" y="64" width="32" height="32" fill="#9C6B7A" />
  <rect x="96" y="64" width="32" height="32" fill="#EA4554" />
  <rect x="128" y="64" width="32" height="32" fill="#A7B2C6" />
  <rect x="160" y="64" width="32" height="32" fill="#926C77" />
  <rect x="192" y="64" width="32" height="32" fill="#3A1F32" />
  <rect x="224" y="64" width="32" height="32" fill="#6A3953" />
  <rect x="0" y="96" width="32" height="32" fill="#B87570" />
  <rect x="32" y="96" width="32" height="32" fill="#180A1E" />
  <rect x="64" y="96" width="32" height="32" fill="#D8C3C9" />
  <rect x="96" y="96" width="32" height="32" fill="#9A7E8B" />
  <rect x="128" y="96" width="32" height="32" fill="#F2D7E4" />
  <rect x="160" y="96" width="32" height="32" fill="#4E304C" />
  <rect x="192" y="96" width="32" height="32" fill="#BB718A" />
  <rect x="224" y="96" width="32" height="32" fill="#DA92C1" />
  <rect x="0" y="128" width="32" height="32" fill="#C78A9D" />
  <rect x="32" y="128" width="32" height="32" fill="#3C1F29" />
  <rect x="64" y="128" width="32" height="32" fill="#452542" />
  <rect x="96" y="128" width="32" height="32" fill="#FF6B8C" />
  <rect x="128" y="128" width="32" height="32" fill="#AB8D99" />
  <rect x="160" y="128" width="32" height="32" fill="#E1A6B9" />
  <rect x="192" y="128" width="32" height="32" fill="#263240" />
  <rect x="224" y="128" width="32" height="32" fill="#D6A2CA" />
  <rect x="0" y="160" width="32" height="32" fill="#9C3E52" />
  <rect x="32" y="160" width="32" height="32" fill="#D1D5DB" />
  <rect x="64" y="160" width="32" height="32" fill="#CE6580" />
  <rect x="96" y="160" width="32" height="32" fill="#F8C9D7" />
  <rect x="128" y="160" width="32" height="32" fill="#500F2A" />
  <rect x="160" y="160" width="32" height="32" fill="#B04559" />
  <rect x="192" y="160" width="32" height="32" fill="#A4B0BF" />
  <rect x="224" y="160" width="32" height="32" fill="#BF99B7" />
  <rect x="0" y="192" width="32" height="32" fill="#3B2F39" />
  <rect x="32" y="192" width="32" height="32" fill="#DE878D" />
  <rect x="64" y="192" width="32" height="32" fill="#1C0B12" />
  <rect x="96" y="192" width="32" height="32" fill="#D7A1B8" />
  <rect x="128" y="192" width="32" height="32" fill="#C95C78" />
  <rect x="160" y="192" width="32" height="32" fill="#4C2A38" />
  <rect x="192" y="192" width="32" height="32" fill="#EDE0E3" />
  <rect x="224" y="192" width="32" height="32" fill="#F7FBFC" />
  <rect x="0" y="224" width="32" height="32" fill="#F0B2CC" />
  <rect x="32" y="224" width="32" height="32" fill="#6E2E49" />
  <rect x="64" y="224" width="32" height="32" fill="#A15168" />
  <rect x="96" y="224" width="32" height="32" fill="#C03D49" />
  <rect x="128" y="224" width="32" height="32" fill="#DB8B91" />
  <rect x="160" y="224" width="32" height="32" fill="#E3BEC3" />
  <rect x="192" y="224" width="32" height="32" fill="#2F2A2F" />
  <rect x="224" y="224" width="32" height="32" fill="#B4A9AC" />
</svg>
