<svg xmlns="http://www.w3.org/2000/svg" width="256" height="256" viewBox="0 0 256 256" shape-rendering="crispEdges" role="img" aria-labelledby="title desc">
  <title id="title">Echoes of Strength</title>
  <desc id="desc">The emotional tone balances a deep longing with moments of resolve, expressed through a palette of navy, black, dim cyan, and white. The use of navy grounds the composition in depth, while white offers bright accents that punctuate moments of clarity against the darker elements. The main collision occurs in the center, where the strong diagonal 'stairs' from the resolve meet the softer, more fragmented 'split-screen' of longing, creating tension between structured strength and emotional scattering. Broken pixels are placed strategically to symbolize imperfections in the journey between these feelings, providing a narrative of repair rather than destruction. The negative space around the edges adds a sense of quiet, enhancing the impact of these colorful collisions within the dense center.</desc>
  <rect width="256" height="256" fill="#FFFFFF" />
  <rect x="0" y="0" width="32" height="32" fill="#000000" />
  <rect x="32" y="0" width="32" height="32" fill="#0D1B2A" />
  <rect x="64" y="0" width="32" height="32" fill="#1B2631" />
  <rect x="96" y="0" width="32" height="32" fill="#2B3A42" />
  <rect x="128" y="0" width="32" height="32" fill="#4C5B7F" />
  <rect x="160" y="0" width="32" height="32" fill="#6C7A92" />
  <rect x="192" y="0" width="32" height="32" fill="#A6C8E0" />
  <rect x="224" y="0" width="32" height="32" fill="#FFFFFF" />
  <rect x="0" y="32" width="32" height="32" fill="#000000" />
  <rect x="32" y="32" width="32" height="32" fill="#1E2C3A" />
  <rect x="64" y="32" width="32" height="32" fill="#3A4B58" />
  <rect x="96" y="32" width="32" height="32" fill="#6F7D9A" />
  <rect x="128" y="32" width="32" height="32" fill="#A1C6D5" />
  <rect x="160" y="32" width="32" height="32" fill="#BCDFE5" />
  <rect x="192" y="32" width="32" height="32" fill="#F3F5F5" />
  <rect x="224" y="32" width="32" height="32" fill="#C3D6E7" />
  <rect x="0" y="64" width="32" height="32" fill="#000000" />
  <rect x="32" y="64" width="32" height="32" fill="#1A2D42" />
  <rect x="64" y="64" width="32" height="32" fill="#283D4A" />
  <rect x="96" y="64" width="32" height="32" fill="#3E5561" />
  <rect x="128" y="64" width="32" height="32" fill="#5B707B" />
  <rect x="160" y="64" width="32" height="32" fill="#A0AEB5" />
  <rect x="192" y="64" width="32" height="32" fill="#C5D9E1" />
  <rect x="224" y="64" width="32" height="32" fill="#F0F4F8" />
  <rect x="0" y="96" width="32" height="32" fill="#000000" />
  <rect x="32" y="96" width="32" height="32" fill="#1D2E3E" />
  <rect x="64" y="96" width="32" height="32" fill="#2E4A5A" />
  <rect x="96" y="96" width="32" height="32" fill="#4A678F" />
  <rect x="128" y="96" width="32" height="32" fill="#7893BC" />
  <rect x="160" y="96" width="32" height="32" fill="#A3B7D9" />
  <rect x="192" y="96" width="32" height="32" fill="#E9F1F7" />
  <rect x="224" y="96" width="32" height="32" fill="#FFFFFF" />
  <rect x="0" y="128" width="32" height="32" fill="#000000" />
  <rect x="32" y="128" width="32" height="32" fill="#212F48" />
  <rect x="64" y="128" width="32" height="32" fill="#34405C" />
  <rect x="96" y="128" width="32" height="32" fill="#4D678D" />
  <rect x="128" y="128" width="32" height="32" fill="#627BAE" />
  <rect x="160" y="128" width="32" height="32" fill="#8BB8E4" />
  <rect x="192" y="128" width="32" height="32" fill="#D1E1E6" />
  <rect x="224" y="128" width="32" height="32" fill="#F7F9FC" />
  <rect x="0" y="160" width="32" height="32" fill="#000000" />
  <rect x="32" y="160" width="32" height="32" fill="#17202A" />
  <rect x="64" y="160" width="32" height="32" fill="#2B3B49" />
  <rect x="96" y="160" width="32" height="32" fill="#3C4D66" />
  <rect x="128" y="160" width="32" height="32" fill="#5696B2" />
  <rect x="160" y="160" width="32" height="32" fill="#B0D6E8" />
  <rect x="192" y="160" width="32" height="32" fill="#D3E6EE" />
  <rect x="224" y="160" width="32" height="32" fill="#FFFFFF" />
  <rect x="0" y="192" width="32" height="32" fill="#000000" />
  <rect x="32" y="192" width="32" height="32" fill="#1A2E44" />
  <rect x="64" y="192" width="32" height="32" fill="#283046" />
  <rect x="96" y="192" width="32" height="32" fill="#4B647A" />
  <rect x="128" y="192" width="32" height="32" fill="#5D758D" />
  <rect x="160" y="192" width="32" height="32" fill="#8CC1E2" />
  <rect x="192" y="192" width="32" height="32" fill="#C4D9E9" />
  <rect x="224" y="192" width="32" height="32" fill="#F0F4F4" />
  <rect x="0" y="224" width="32" height="32" fill="#000000" />
  <rect x="32" y="224" width="32" height="32" fill="#111B22" />
  <rect x="64" y="224" width="32" height="32" fill="#244B5D" />
  <rect x="96" y="224" width="32" height="32" fill="#4E758F" />
  <rect x="128" y="224" width="32" height="32" fill="#86A7C9" />
  <rect x="160" y="224" width="32" height="32" fill="#B1D1E8" />
  <rect x="192" y="224" width="32" height="32" fill="#E3F5FC" />
  <rect x="224" y="224" width="32" height="32" fill="#FFFFFF" />
</svg>
