<svg xmlns="http://www.w3.org/2000/svg" width="256" height="256" viewBox="0 0 256 256" shape-rendering="crispEdges" role="img" aria-labelledby="title desc">
  <title id="title">Echoes of Contrast</title>
  <desc id="desc">This piece embodies the tension between safety and exposure, utilizing a cool palette to signify vulnerability and a warm palette to suggest protection. The main collision occurs in the center, where the cool pale skin tones interlace with warm brown frames, evoking a struggle between openness and enclosure. The soft edges allow for subtle transitions, while broken pixels represent interruptions in the emotional flow, mimicking the tension of the seed's narrative. The layout follows an 'empty room' aesthetic, with negative space enhancing the sense of quiet contemplation amid invisible pressures, suggesting organic rhythms of life.</desc>
  <rect width="256" height="256" fill="#FFFFFF" />
  <rect x="0" y="0" width="32" height="32" fill="#E0C5B8" />
  <rect x="32" y="0" width="32" height="32" fill="#A36F52" />
  <rect x="64" y="0" width="32" height="32" fill="#D4BBA0" />
  <rect x="96" y="0" width="32" height="32" fill="#B6A080" />
  <rect x="128" y="0" width="32" height="32" fill="#A4D1E5" />
  <rect x="160" y="0" width="32" height="32" fill="#C0B5A8" />
  <rect x="192" y="0" width="32" height="32" fill="#E3D6D0" />
  <rect x="224" y="0" width="32" height="32" fill="#F6E3DA" />
  <rect x="0" y="32" width="32" height="32" fill="#9FD1D0" />
  <rect x="32" y="32" width="32" height="32" fill="#CF9A87" />
  <rect x="64" y="32" width="32" height="32" fill="#E4C1A8" />
  <rect x="96" y="32" width="32" height="32" fill="#E4B48D" />
  <rect x="128" y="32" width="32" height="32" fill="#AABBAD" />
  <rect x="160" y="32" width="32" height="32" fill="#C4C4B4" />
  <rect x="192" y="32" width="32" height="32" fill="#D1D3D7" />
  <rect x="224" y="32" width="32" height="32" fill="#F2F1ED" />
  <rect x="0" y="64" width="32" height="32" fill="#D8C2B4" />
  <rect x="32" y="64" width="32" height="32" fill="#7F4E35" />
  <rect x="64" y="64" width="32" height="32" fill="#FFE2E0" />
  <rect x="96" y="64" width="32" height="32" fill="#1694A0" />
  <rect x="128" y="64" width="32" height="32" fill="#A4C8D9" />
  <rect x="160" y="64" width="32" height="32" fill="#C5B9B1" />
  <rect x="192" y="64" width="32" height="32" fill="#A1B3A5" />
  <rect x="224" y="64" width="32" height="32" fill="#E5E5D9" />
  <rect x="0" y="96" width="32" height="32" fill="#FDF3F1" />
  <rect x="32" y="96" width="32" height="32" fill="#FFE0D4" />
  <rect x="64" y="96" width="32" height="32" fill="#9DAFA2" />
  <rect x="96" y="96" width="32" height="32" fill="#C0C5C8" />
  <rect x="128" y="96" width="32" height="32" fill="#C7B0A7" />
  <rect x="160" y="96" width="32" height="32" fill="#D94C4C" />
  <rect x="192" y="96" width="32" height="32" fill="#F1E4E1" />
  <rect x="224" y="96" width="32" height="32" fill="#A7C9E6" />
  <rect x="0" y="128" width="32" height="32" fill="#ECBEA2" />
  <rect x="32" y="128" width="32" height="32" fill="#D1C0C5" />
  <rect x="64" y="128" width="32" height="32" fill="#B9A93A" />
  <rect x="96" y="128" width="32" height="32" fill="#D0D6D9" />
  <rect x="128" y="128" width="32" height="32" fill="#F5B1A0" />
  <rect x="160" y="128" width="32" height="32" fill="#D29178" />
  <rect x="192" y="128" width="32" height="32" fill="#A3A18D" />
  <rect x="224" y="128" width="32" height="32" fill="#D0C6B5" />
  <rect x="0" y="160" width="32" height="32" fill="#8ED1C1" />
  <rect x="32" y="160" width="32" height="32" fill="#F3E6DE" />
  <rect x="64" y="160" width="32" height="32" fill="#DA9E76" />
  <rect x="96" y="160" width="32" height="32" fill="#C1B1B2" />
  <rect x="128" y="160" width="32" height="32" fill="#8CA2B3" />
  <rect x="160" y="160" width="32" height="32" fill="#D5C6BB" />
  <rect x="192" y="160" width="32" height="32" fill="#E9C7B8" />
  <rect x="224" y="160" width="32" height="32" fill="#8EAFB2" />
  <rect x="0" y="192" width="32" height="32" fill="#B8B59D" />
  <rect x="32" y="192" width="32" height="32" fill="#E2D9C4" />
  <rect x="64" y="192" width="32" height="32" fill="#B5B9AB" />
  <rect x="96" y="192" width="32" height="32" fill="#94C7C5" />
  <rect x="128" y="192" width="32" height="32" fill="#D5C3C0" />
  <rect x="160" y="192" width="32" height="32" fill="#EAE4D5" />
  <rect x="192" y="192" width="32" height="32" fill="#AFAF79" />
  <rect x="224" y="192" width="32" height="32" fill="#D1345B" />
  <rect x="0" y="224" width="32" height="32" fill="#FFFFFF" />
  <rect x="32" y="224" width="32" height="32" fill="#F5F5F5" />
  <rect x="64" y="224" width="32" height="32" fill="#D4EDE4" />
  <rect x="96" y="224" width="32" height="32" fill="#B4B9B7" />
  <rect x="128" y="224" width="32" height="32" fill="#A3C9E7" />
  <rect x="160" y="224" width="32" height="32" fill="#C4C4C4" />
  <rect x="192" y="224" width="32" height="32" fill="#D3D7D5" />
  <rect x="224" y="224" width="32" height="32" fill="#5E5E5E" />
</svg>
