<svg xmlns="http://www.w3.org/2000/svg" width="256" height="256" viewBox="0 0 256 256" shape-rendering="crispEdges" role="img" aria-labelledby="title desc">
  <title id="title">Echoing Surrender</title>
  <desc id="desc">The emotional tone reflects a struggle between control and surrender, represented through the dense center that suggests overflow contrasted with gentle descents at the edges. The palette combines deep wine and warm ivory to create warmth and depth, while ash gray provides a muted backdrop. A stuttered rhythm occurs as warm colors subtly intersperse into cooler tones, leading to a thick outline of darker colors that delineate chaos versus calm. The main contrast happens centrally where the largest concentration of texture lies, echoing the theme of containment versus release.</desc>
  <rect width="256" height="256" fill="#FFFFFF" />
  <rect x="0" y="0" width="32" height="32" fill="#8B5A2B" />
  <rect x="32" y="0" width="32" height="32" fill="#D9CFC3" />
  <rect x="64" y="0" width="32" height="32" fill="#DC9A55" />
  <rect x="96" y="0" width="32" height="32" fill="#F4E7CB" />
  <rect x="128" y="0" width="32" height="32" fill="#E1B682" />
  <rect x="160" y="0" width="32" height="32" fill="#4A2C2A" />
  <rect x="192" y="0" width="32" height="32" fill="#897C7A" />
  <rect x="224" y="0" width="32" height="32" fill="#3B2925" />
  <rect x="0" y="32" width="32" height="32" fill="#B5A39B" />
  <rect x="32" y="32" width="32" height="32" fill="#EDD5B9" />
  <rect x="64" y="32" width="32" height="32" fill="#A9744E" />
  <rect x="96" y="32" width="32" height="32" fill="#C7A280" />
  <rect x="128" y="32" width="32" height="32" fill="#E8DCC9" />
  <rect x="160" y="32" width="32" height="32" fill="#DEE3E0" />
  <rect x="192" y="32" width="32" height="32" fill="#5B4E52" />
  <rect x="224" y="32" width="32" height="32" fill="#8C7C7A" />
  <rect x="0" y="64" width="32" height="32" fill="#4E3B35" />
  <rect x="32" y="64" width="32" height="32" fill="#F6E9E3" />
  <rect x="64" y="64" width="32" height="32" fill="#C1B7A1" />
  <rect x="96" y="64" width="32" height="32" fill="#1F1A3D" />
  <rect x="128" y="64" width="32" height="32" fill="#B69578" />
  <rect x="160" y="64" width="32" height="32" fill="#A5A17F" />
  <rect x="192" y="64" width="32" height="32" fill="#5F574E" />
  <rect x="224" y="64" width="32" height="32" fill="#6D4B3D" />
  <rect x="0" y="96" width="32" height="32" fill="#4D3E38" />
  <rect x="32" y="96" width="32" height="32" fill="#7E6B5C" />
  <rect x="64" y="96" width="32" height="32" fill="#9B8381" />
  <rect x="96" y="96" width="32" height="32" fill="#E8C2AA" />
  <rect x="128" y="96" width="32" height="32" fill="#A87A5B" />
  <rect x="160" y="96" width="32" height="32" fill="#D5C1AA" />
  <rect x="192" y="96" width="32" height="32" fill="#BB9A7E" />
  <rect x="224" y="96" width="32" height="32" fill="#7B6A5B" />
  <rect x="0" y="128" width="32" height="32" fill="#2C2A39" />
  <rect x="32" y="128" width="32" height="32" fill="#4E4840" />
  <rect x="64" y="128" width="32" height="32" fill="#D6AE7B" />
  <rect x="96" y="128" width="32" height="32" fill="#C7B4A9" />
  <rect x="128" y="128" width="32" height="32" fill="#CAAF86" />
  <rect x="160" y="128" width="32" height="32" fill="#F0E1D7" />
  <rect x="192" y="128" width="32" height="32" fill="#3F2F2A" />
  <rect x="224" y="128" width="32" height="32" fill="#4E4A39" />
  <rect x="0" y="160" width="32" height="32" fill="#BDB59B" />
  <rect x="32" y="160" width="32" height="32" fill="#6B554F" />
  <rect x="64" y="160" width="32" height="32" fill="#85B9A8" />
  <rect x="96" y="160" width="32" height="32" fill="#F0E0D4" />
  <rect x="128" y="160" width="32" height="32" fill="#DAAA79" />
  <rect x="160" y="160" width="32" height="32" fill="#C75E4A" />
  <rect x="192" y="160" width="32" height="32" fill="#7A5A46" />
  <rect x="224" y="160" width="32" height="32" fill="#3D3B38" />
  <rect x="0" y="192" width="32" height="32" fill="#F6EAE7" />
  <rect x="32" y="192" width="32" height="32" fill="#DBD3C9" />
  <rect x="64" y="192" width="32" height="32" fill="#C8BBAE" />
  <rect x="96" y="192" width="32" height="32" fill="#4A3830" />
  <rect x="128" y="192" width="32" height="32" fill="#D8AA8F" />
  <rect x="160" y="192" width="32" height="32" fill="#B2998A" />
  <rect x="192" y="192" width="32" height="32" fill="#5C3D36" />
  <rect x="224" y="192" width="32" height="32" fill="#372C29" />
  <rect x="0" y="224" width="32" height="32" fill="#C4B1A6" />
  <rect x="32" y="224" width="32" height="32" fill="#D9D3C4" />
  <rect x="64" y="224" width="32" height="32" fill="#D6B49C" />
  <rect x="96" y="224" width="32" height="32" fill="#F4D0A4" />
  <rect x="128" y="224" width="32" height="32" fill="#EBE2D1" />
  <rect x="160" y="224" width="32" height="32" fill="#7B6D68" />
  <rect x="192" y="224" width="32" height="32" fill="#656560" />
  <rect x="224" y="224" width="32" height="32" fill="#543931" />
</svg>
