<svg xmlns="http://www.w3.org/2000/svg" width="256" height="256" viewBox="0 0 256 256" shape-rendering="crispEdges" role="img" aria-labelledby="title desc">
  <title id="title">Exposure vs. Shelter</title>
  <desc id="desc">This artwork embodies the emotional tension between vulnerability and strength. The selected palette of 'melancholy wonder' colors—soft blues and muted purples—creates a serene yet poignant atmosphere. The main collision occurs at the center, where the lattice pattern of vulnerability meets the stable dots symbolizing strength. This juxtaposition evokes feelings of exposure yet encased in a protective layer, reflecting the conflict inherent in the seed's emotional narrative. Each broken pixel introduces imperfection, enhancing the artwork's depth and dynamic interplay.</desc>
  <rect width="256" height="256" fill="#FFFFFF" />
  <rect x="0" y="0" width="32" height="32" fill="#C5D7E3" />
  <rect x="32" y="0" width="32" height="32" fill="#B3C4D6" />
  <rect x="64" y="0" width="32" height="32" fill="#97A8B2" />
  <rect x="96" y="0" width="32" height="32" fill="#F6F0F2" />
  <rect x="128" y="0" width="32" height="32" fill="#B7B0B9" />
  <rect x="160" y="0" width="32" height="32" fill="#6F89B8" />
  <rect x="192" y="0" width="32" height="32" fill="#E5E7FF" />
  <rect x="224" y="0" width="32" height="32" fill="#647690" />
  <rect x="0" y="32" width="32" height="32" fill="#C0C3D2" />
  <rect x="32" y="32" width="32" height="32" fill="#B9BEC9" />
  <rect x="64" y="32" width="32" height="32" fill="#8FD6E1" />
  <rect x="96" y="32" width="32" height="32" fill="#FFFFFF" />
  <rect x="128" y="32" width="32" height="32" fill="#A4B1CA" />
  <rect x="160" y="32" width="32" height="32" fill="#A8B8C2" />
  <rect x="192" y="32" width="32" height="32" fill="#7496B0" />
  <rect x="224" y="32" width="32" height="32" fill="#5B7C9A" />
  <rect x="0" y="64" width="32" height="32" fill="#F0F4F8" />
  <rect x="32" y="64" width="32" height="32" fill="#A7CFE0" />
  <rect x="64" y="64" width="32" height="32" fill="#EFF3FF" />
  <rect x="96" y="64" width="32" height="32" fill="#9AB4D9" />
  <rect x="128" y="64" width="32" height="32" fill="#E4EBF3" />
  <rect x="160" y="64" width="32" height="32" fill="#74959A" />
  <rect x="192" y="64" width="32" height="32" fill="#302A3E" />
  <rect x="224" y="64" width="32" height="32" fill="#1E1C24" />
  <rect x="0" y="96" width="32" height="32" fill="#DADFDF" />
  <rect x="32" y="96" width="32" height="32" fill="#D1D6DC" />
  <rect x="64" y="96" width="32" height="32" fill="#6197B1" />
  <rect x="96" y="96" width="32" height="32" fill="#C3CCDE" />
  <rect x="128" y="96" width="32" height="32" fill="#849AC8" />
  <rect x="160" y="96" width="32" height="32" fill="#4D668D" />
  <rect x="192" y="96" width="32" height="32" fill="#B8D8E9" />
  <rect x="224" y="96" width="32" height="32" fill="#94B5CA" />
  <rect x="0" y="128" width="32" height="32" fill="#E1E6EB" />
  <rect x="32" y="128" width="32" height="32" fill="#A6ADBC" />
  <rect x="64" y="128" width="32" height="32" fill="#EAF3FF" />
  <rect x="96" y="128" width="32" height="32" fill="#B7C3D6" />
  <rect x="128" y="128" width="32" height="32" fill="#8A9CB5" />
  <rect x="160" y="128" width="32" height="32" fill="#4685A9" />
  <rect x="192" y="128" width="32" height="32" fill="#AABAC9" />
  <rect x="224" y="128" width="32" height="32" fill="#56B8E1" />
  <rect x="0" y="160" width="32" height="32" fill="#D1CBD3" />
  <rect x="32" y="160" width="32" height="32" fill="#D1D2DC" />
  <rect x="64" y="160" width="32" height="32" fill="#DFE8F3" />
  <rect x="96" y="160" width="32" height="32" fill="#F1EFF3" />
  <rect x="128" y="160" width="32" height="32" fill="#FEFCFC" />
  <rect x="160" y="160" width="32" height="32" fill="#A5B0B8" />
  <rect x="192" y="160" width="32" height="32" fill="#FFFFFF" />
  <rect x="224" y="160" width="32" height="32" fill="#CFD8DD" />
  <rect x="0" y="192" width="32" height="32" fill="#BBCFD4" />
  <rect x="32" y="192" width="32" height="32" fill="#85B0CA" />
  <rect x="64" y="192" width="32" height="32" fill="#ECECEF" />
  <rect x="96" y="192" width="32" height="32" fill="#7A9BBF" />
  <rect x="128" y="192" width="32" height="32" fill="#8BD8E0" />
  <rect x="160" y="192" width="32" height="32" fill="#C2D4DB" />
  <rect x="192" y="192" width="32" height="32" fill="#E3E2E4" />
  <rect x="224" y="192" width="32" height="32" fill="#A2B8C7" />
  <rect x="0" y="224" width="32" height="32" fill="#B5D8E5" />
  <rect x="32" y="224" width="32" height="32" fill="#F7F7F8" />
  <rect x="64" y="224" width="32" height="32" fill="#BBC6CD" />
  <rect x="96" y="224" width="32" height="32" fill="#D3E2ED" />
  <rect x="128" y="224" width="32" height="32" fill="#364453" />
  <rect x="160" y="224" width="32" height="32" fill="#7D979B" />
  <rect x="192" y="224" width="32" height="32" fill="#273D48" />
  <rect x="224" y="224" width="32" height="32" fill="#4E6976" />
</svg>
