<svg xmlns="http://www.w3.org/2000/svg" width="256" height="256" viewBox="0 0 256 256" shape-rendering="crispEdges" role="img" aria-labelledby="title desc">
  <title id="title">Hinge of Contrast</title>
  <desc id="desc">The emotional tone is a dynamic interplay between the stark contrasts of vulnerability and strength. The palette of cosmic indigo, void black, star white, cold gold, and deep teal communicates awe and terror, symbolizing the weight of experiences. The main collision occurs in the corner where deeper shades invoke a sense of dense pressure, while lighter colors radiate outward, creating a spiral that reflects both protective strength and the fragility of exposure. Broken pixel placements add intentional disruptions that mirror the imperfections of strength at its most vulnerable points.</desc>
  <rect width="256" height="256" fill="#FFFFFF" />
  <rect x="0" y="0" width="32" height="32" fill="#000000" />
  <rect x="32" y="0" width="32" height="32" fill="#2E1A47" />
  <rect x="64" y="0" width="32" height="32" fill="#5B4D86" />
  <rect x="96" y="0" width="32" height="32" fill="#7A70B8" />
  <rect x="128" y="0" width="32" height="32" fill="#B9B2D3" />
  <rect x="160" y="0" width="32" height="32" fill="#E1D8FF" />
  <rect x="192" y="0" width="32" height="32" fill="#F5E08E" />
  <rect x="224" y="0" width="32" height="32" fill="#D6B655" />
  <rect x="0" y="32" width="32" height="32" fill="#2B2330" />
  <rect x="32" y="32" width="32" height="32" fill="#3F2B41" />
  <rect x="64" y="32" width="32" height="32" fill="#4D4D4C" />
  <rect x="96" y="32" width="32" height="32" fill="#726F78" />
  <rect x="128" y="32" width="32" height="32" fill="#A486AA" />
  <rect x="160" y="32" width="32" height="32" fill="#E5A69D" />
  <rect x="192" y="32" width="32" height="32" fill="#FFEECB" />
  <rect x="224" y="32" width="32" height="32" fill="#F9C2A0" />
  <rect x="0" y="64" width="32" height="32" fill="#1F1A22" />
  <rect x="32" y="64" width="32" height="32" fill="#3E2738" />
  <rect x="64" y="64" width="32" height="32" fill="#5D4D6A" />
  <rect x="96" y="64" width="32" height="32" fill="#8A6A9D" />
  <rect x="128" y="64" width="32" height="32" fill="#B9B2D2" />
  <rect x="160" y="64" width="32" height="32" fill="#DCD7E9" />
  <rect x="192" y="64" width="32" height="32" fill="#E4D1B0" />
  <rect x="224" y="64" width="32" height="32" fill="#FFCBA4" />
  <rect x="0" y="96" width="32" height="32" fill="#080808" />
  <rect x="32" y="96" width="32" height="32" fill="#232B36" />
  <rect x="64" y="96" width="32" height="32" fill="#36374C" />
  <rect x="96" y="96" width="32" height="32" fill="#525260" />
  <rect x="128" y="96" width="32" height="32" fill="#D7D3E6" />
  <rect x="160" y="96" width="32" height="32" fill="#F9F0E2" />
  <rect x="192" y="96" width="32" height="32" fill="#F0CB7C" />
  <rect x="224" y="96" width="32" height="32" fill="#F6B27B" />
  <rect x="0" y="128" width="32" height="32" fill="#1C1B1E" />
  <rect x="32" y="128" width="32" height="32" fill="#331F2D" />
  <rect x="64" y="128" width="32" height="32" fill="#443040" />
  <rect x="96" y="128" width="32" height="32" fill="#6A4B80" />
  <rect x="128" y="128" width="32" height="32" fill="#9C6CA8" />
  <rect x="160" y="128" width="32" height="32" fill="#D8A1C7" />
  <rect x="192" y="128" width="32" height="32" fill="#E9C5A5" />
  <rect x="224" y="128" width="32" height="32" fill="#FFDFA2" />
  <rect x="0" y="160" width="32" height="32" fill="#2A2D31" />
  <rect x="32" y="160" width="32" height="32" fill="#404B58" />
  <rect x="64" y="160" width="32" height="32" fill="#6B7A94" />
  <rect x="96" y="160" width="32" height="32" fill="#B6BCEB" />
  <rect x="128" y="160" width="32" height="32" fill="#D4D9E6" />
  <rect x="160" y="160" width="32" height="32" fill="#D9D36D" />
  <rect x="192" y="160" width="32" height="32" fill="#F1D05F" />
  <rect x="224" y="160" width="32" height="32" fill="#FDEED9" />
  <rect x="0" y="192" width="32" height="32" fill="#1F2233" />
  <rect x="32" y="192" width="32" height="32" fill="#3C4B69" />
  <rect x="64" y="192" width="32" height="32" fill="#5799B8" />
  <rect x="96" y="192" width="32" height="32" fill="#A2C0D4" />
  <rect x="128" y="192" width="32" height="32" fill="#C1CAEB" />
  <rect x="160" y="192" width="32" height="32" fill="#D5DAE5" />
  <rect x="192" y="192" width="32" height="32" fill="#ECF7F9" />
  <rect x="224" y="192" width="32" height="32" fill="#F8F4ED" />
  <rect x="0" y="224" width="32" height="32" fill="#0D0E0F" />
  <rect x="32" y="224" width="32" height="32" fill="#292D32" />
  <rect x="64" y="224" width="32" height="32" fill="#3F4552" />
  <rect x="96" y="224" width="32" height="32" fill="#617D94" />
  <rect x="128" y="224" width="32" height="32" fill="#748BA0" />
  <rect x="160" y="224" width="32" height="32" fill="#A2B5B5" />
  <rect x="192" y="224" width="32" height="32" fill="#D9E4E4" />
  <rect x="224" y="224" width="32" height="32" fill="#FDFDFD" />
</svg>
