<svg xmlns="http://www.w3.org/2000/svg" width="256" height="256" viewBox="0 0 256 256" shape-rendering="crispEdges" role="img" aria-labelledby="title desc">
  <title id="title">Memory Marks</title>
  <desc id="desc">This piece captures the emotional tension between softness and severity. The palette consists of powder pink and warm white representing softness, contrasted by the starkness of carbon black and sharp crimson reflecting severity. The collision happens centrally where the light and dark play against each other, illustrating the clash of guilt and forgiveness. The layout features stacked bands shifting in density, allowing for a sense of movement and emotional layering, embodying the seed's essence of contrasting feelings and interruptions.</desc>
  <rect width="256" height="256" fill="#FFFFFF" />
  <rect x="0" y="0" width="32" height="32" fill="#F6D0D8" />
  <rect x="32" y="0" width="32" height="32" fill="#F7C3C8" />
  <rect x="64" y="0" width="32" height="32" fill="#F9B4B8" />
  <rect x="96" y="0" width="32" height="32" fill="#F2A1B1" />
  <rect x="128" y="0" width="32" height="32" fill="#A73D4C" />
  <rect x="160" y="0" width="32" height="32" fill="#7B272C" />
  <rect x="192" y="0" width="32" height="32" fill="#7A3B3D" />
  <rect x="224" y="0" width="32" height="32" fill="#AA5564" />
  <rect x="0" y="32" width="32" height="32" fill="#D1C4D3" />
  <rect x="32" y="32" width="32" height="32" fill="#E2D3DF" />
  <rect x="64" y="32" width="32" height="32" fill="#F4D4E5" />
  <rect x="96" y="32" width="32" height="32" fill="#F9C8D8" />
  <rect x="128" y="32" width="32" height="32" fill="#B3BEC2" />
  <rect x="160" y="32" width="32" height="32" fill="#BDC0C3" />
  <rect x="192" y="32" width="32" height="32" fill="#D4D4D8" />
  <rect x="224" y="32" width="32" height="32" fill="#A9A9A9" />
  <rect x="0" y="64" width="32" height="32" fill="#A5A7A8" />
  <rect x="32" y="64" width="32" height="32" fill="#B6C0C2" />
  <rect x="64" y="64" width="32" height="32" fill="#A7B6B9" />
  <rect x="96" y="64" width="32" height="32" fill="#F1D3D9" />
  <rect x="128" y="64" width="32" height="32" fill="#9C7F8D" />
  <rect x="160" y="64" width="32" height="32" fill="#C8BDC2" />
  <rect x="192" y="64" width="32" height="32" fill="#C3CED3" />
  <rect x="224" y="64" width="32" height="32" fill="#EBC5D2" />
  <rect x="0" y="96" width="32" height="32" fill="#F9E5E5" />
  <rect x="32" y="96" width="32" height="32" fill="#E8B2C7" />
  <rect x="64" y="96" width="32" height="32" fill="#C2C6C8" />
  <rect x="96" y="96" width="32" height="32" fill="#7B7C80" />
  <rect x="128" y="96" width="32" height="32" fill="#4D3A45" />
  <rect x="160" y="96" width="32" height="32" fill="#3D2D38" />
  <rect x="192" y="96" width="32" height="32" fill="#A15661" />
  <rect x="224" y="96" width="32" height="32" fill="#44383F" />
  <rect x="0" y="128" width="32" height="32" fill="#E5E9E1" />
  <rect x="32" y="128" width="32" height="32" fill="#F2F2F2" />
  <rect x="64" y="128" width="32" height="32" fill="#E9B9D4" />
  <rect x="96" y="128" width="32" height="32" fill="#C8ACB4" />
  <rect x="128" y="128" width="32" height="32" fill="#DAD8D0" />
  <rect x="160" y="128" width="32" height="32" fill="#B2B3B5" />
  <rect x="192" y="128" width="32" height="32" fill="#ADBDC0" />
  <rect x="224" y="128" width="32" height="32" fill="#6D6D6F" />
  <rect x="0" y="160" width="32" height="32" fill="#D4D7D5" />
  <rect x="32" y="160" width="32" height="32" fill="#A5756E" />
  <rect x="64" y="160" width="32" height="32" fill="#CB99A3" />
  <rect x="96" y="160" width="32" height="32" fill="#B0A5A4" />
  <rect x="128" y="160" width="32" height="32" fill="#7D7B6B" />
  <rect x="160" y="160" width="32" height="32" fill="#DAE5DD" />
  <rect x="192" y="160" width="32" height="32" fill="#8BBAEA" />
  <rect x="224" y="160" width="32" height="32" fill="#C8C6C0" />
  <rect x="0" y="192" width="32" height="32" fill="#B5CECE" />
  <rect x="32" y="192" width="32" height="32" fill="#E2E1DB" />
  <rect x="64" y="192" width="32" height="32" fill="#8A8A8B" />
  <rect x="96" y="192" width="32" height="32" fill="#4F4F4F" />
  <rect x="128" y="192" width="32" height="32" fill="#616263" />
  <rect x="160" y="192" width="32" height="32" fill="#4D5158" />
  <rect x="192" y="192" width="32" height="32" fill="#2A2B2B" />
  <rect x="224" y="192" width="32" height="32" fill="#B8BCC1" />
  <rect x="0" y="224" width="32" height="32" fill="#9FC3BF" />
  <rect x="32" y="224" width="32" height="32" fill="#7B9B9A" />
  <rect x="64" y="224" width="32" height="32" fill="#4E5B5D" />
  <rect x="96" y="224" width="32" height="32" fill="#24262B" />
  <rect x="128" y="224" width="32" height="32" fill="#080908" />
  <rect x="160" y="224" width="32" height="32" fill="#A6A6A6" />
  <rect x="192" y="224" width="32" height="32" fill="#B1A8A1" />
  <rect x="224" y="224" width="32" height="32" fill="#D9D6D3" />
</svg>
