<svg xmlns="http://www.w3.org/2000/svg" width="256" height="256" viewBox="0 0 256 256" shape-rendering="crispEdges" role="img" aria-labelledby="title desc">
  <title id="title">Conflicted Symmetry</title>
  <desc id="desc">This artwork embodies a dialogue between confusion and clarity, utilizing an 'ancient fire' palette to evoke warmth amidst shadows. The core contrast emerges through the use of jagged and soft elements, representing broken structures and flowing backgrounds. Dark colors anchor the central area, symbolizing clarity's core, while burnt orange and gold radiate outward, echoing the themes of conflict and motion. The disrupted patterns reflect falling pixels, suggesting uncertainty and a lack of symmetry, reinforcing the emotional tension throughout the piece.</desc>
  <rect width="256" height="256" fill="#FFFFFF" />
  <rect x="0" y="0" width="32" height="32" fill="#541A1D" />
  <rect x="32" y="0" width="32" height="32" fill="#FF6F61" />
  <rect x="64" y="0" width="32" height="32" fill="#D9BE5A" />
  <rect x="96" y="0" width="32" height="32" fill="#4D2C2A" />
  <rect x="128" y="0" width="32" height="32" fill="#4B9FC3" />
  <rect x="160" y="0" width="32" height="32" fill="#F7CBA0" />
  <rect x="192" y="0" width="32" height="32" fill="#2F3B17" />
  <rect x="224" y="0" width="32" height="32" fill="#A73F30" />
  <rect x="0" y="32" width="32" height="32" fill="#A73F30" />
  <rect x="32" y="32" width="32" height="32" fill="#522A2D" />
  <rect x="64" y="32" width="32" height="32" fill="#B8C3B4" />
  <rect x="96" y="32" width="32" height="32" fill="#E1F2D7" />
  <rect x="128" y="32" width="32" height="32" fill="#C2BAF6" />
  <rect x="160" y="32" width="32" height="32" fill="#564A23" />
  <rect x="192" y="32" width="32" height="32" fill="#3C5A60" />
  <rect x="224" y="32" width="32" height="32" fill="#F67996" />
  <rect x="0" y="64" width="32" height="32" fill="#F67762" />
  <rect x="32" y="64" width="32" height="32" fill="#453F3E" />
  <rect x="64" y="64" width="32" height="32" fill="#9A6D5D" />
  <rect x="96" y="64" width="32" height="32" fill="#783B5D" />
  <rect x="128" y="64" width="32" height="32" fill="#F1A0C3" />
  <rect x="160" y="64" width="32" height="32" fill="#C1B2A6" />
  <rect x="192" y="64" width="32" height="32" fill="#A37F62" />
  <rect x="224" y="64" width="32" height="32" fill="#C47270" />
  <rect x="0" y="96" width="32" height="32" fill="#3A193E" />
  <rect x="32" y="96" width="32" height="32" fill="#DAA66D" />
  <rect x="64" y="96" width="32" height="32" fill="#1E365B" />
  <rect x="96" y="96" width="32" height="32" fill="#6B1D30" />
  <rect x="128" y="96" width="32" height="32" fill="#3A5D3E" />
  <rect x="160" y="96" width="32" height="32" fill="#B56A3D" />
  <rect x="192" y="96" width="32" height="32" fill="#EDDCC5" />
  <rect x="224" y="96" width="32" height="32" fill="#63585E" />
  <rect x="0" y="128" width="32" height="32" fill="#5E468D" />
  <rect x="32" y="128" width="32" height="32" fill="#B8757E" />
  <rect x="64" y="128" width="32" height="32" fill="#FFBF4D" />
  <rect x="96" y="128" width="32" height="32" fill="#E0485D" />
  <rect x="128" y="128" width="32" height="32" fill="#C86E5A" />
  <rect x="160" y="128" width="32" height="32" fill="#AA8C86" />
  <rect x="192" y="128" width="32" height="32" fill="#E6AF5D" />
  <rect x="224" y="128" width="32" height="32" fill="#7C3728" />
  <rect x="0" y="160" width="32" height="32" fill="#DAA66D" />
  <rect x="32" y="160" width="32" height="32" fill="#F1A0C3" />
  <rect x="64" y="160" width="32" height="32" fill="#442B3F" />
  <rect x="96" y="160" width="32" height="32" fill="#A16741" />
  <rect x="128" y="160" width="32" height="32" fill="#D84C3D" />
  <rect x="160" y="160" width="32" height="32" fill="#4B3F4F" />
  <rect x="192" y="160" width="32" height="32" fill="#C1B2A6" />
  <rect x="224" y="160" width="32" height="32" fill="#8A635A" />
  <rect x="0" y="192" width="32" height="32" fill="#6DF48E" />
  <rect x="32" y="192" width="32" height="32" fill="#D5A3A6" />
  <rect x="64" y="192" width="32" height="32" fill="#9B1D30" />
  <rect x="96" y="192" width="32" height="32" fill="#3F7A87" />
  <rect x="128" y="192" width="32" height="32" fill="#F7D62D" />
  <rect x="160" y="192" width="32" height="32" fill="#CBE4D9" />
  <rect x="192" y="192" width="32" height="32" fill="#B15537" />
  <rect x="224" y="192" width="32" height="32" fill="#A67C9F" />
  <rect x="0" y="224" width="32" height="32" fill="#46221C" />
  <rect x="32" y="224" width="32" height="32" fill="#FF6F61" />
  <rect x="64" y="224" width="32" height="32" fill="#DAA66D" />
  <rect x="96" y="224" width="32" height="32" fill="#5E4C32" />
  <rect x="128" y="224" width="32" height="32" fill="#FFC84D" />
  <rect x="160" y="224" width="32" height="32" fill="#A1DF6D" />
  <rect x="192" y="224" width="32" height="32" fill="#E5BDEF" />
  <rect x="224" y="224" width="32" height="32" fill="#F67996" />
</svg>
