<svg xmlns="http://www.w3.org/2000/svg" width="256" height="256" viewBox="0 0 256 256" shape-rendering="crispEdges" role="img" aria-labelledby="title desc">
  <title id="title">Ember Eruption</title>
  <desc id="desc">The emotional tone captures the tension between spark and ash, symbolizing sudden bursts of energy overshadowed by remnants of restraint. The palette, featuring faded golds and stormy grays, reflects this juxtaposition—delicate yet impactful. The layout offers a quiet channel, with a dominant dark central band interrupted by lighter colors, illustrating a collision of past memories and present urgency. The jagged edges hint at destructive forces, while the broken pixels represent moments of imperfection, ensuring a chaotic beauty as sparks ignite amidst lingering ashes.</desc>
  <rect width="256" height="256" fill="#FFFFFF" />
  <rect x="0" y="0" width="32" height="32" fill="#000000" />
  <rect x="32" y="0" width="32" height="32" fill="#1A1A1A" />
  <rect x="64" y="0" width="32" height="32" fill="#3D3D3D" />
  <rect x="96" y="0" width="32" height="32" fill="#6B6B6B" />
  <rect x="128" y="0" width="32" height="32" fill="#A8A8A8" />
  <rect x="160" y="0" width="32" height="32" fill="#F6E7B4" />
  <rect x="192" y="0" width="32" height="32" fill="#F1C74A" />
  <rect x="224" y="0" width="32" height="32" fill="#F6C918" />
  <rect x="0" y="32" width="32" height="32" fill="#111111" />
  <rect x="32" y="32" width="32" height="32" fill="#333333" />
  <rect x="64" y="32" width="32" height="32" fill="#4D4D4D" />
  <rect x="96" y="32" width="32" height="32" fill="#777777" />
  <rect x="128" y="32" width="32" height="32" fill="#B5B5B5" />
  <rect x="160" y="32" width="32" height="32" fill="#F0C0A2" />
  <rect x="192" y="32" width="32" height="32" fill="#E8A54B" />
  <rect x="224" y="32" width="32" height="32" fill="#D8A30E" />
  <rect x="0" y="64" width="32" height="32" fill="#222222" />
  <rect x="32" y="64" width="32" height="32" fill="#222B2F" />
  <rect x="64" y="64" width="32" height="32" fill="#353A3A" />
  <rect x="96" y="64" width="32" height="32" fill="#505B59" />
  <rect x="128" y="64" width="32" height="32" fill="#A8A8A8" />
  <rect x="160" y="64" width="32" height="32" fill="#B5C9AA" />
  <rect x="192" y="64" width="32" height="32" fill="#F6D6B1" />
  <rect x="224" y="64" width="32" height="32" fill="#F39C20" />
  <rect x="0" y="96" width="32" height="32" fill="#121212" />
  <rect x="32" y="96" width="32" height="32" fill="#454545" />
  <rect x="64" y="96" width="32" height="32" fill="#686B6B" />
  <rect x="96" y="96" width="32" height="32" fill="#939B9D" />
  <rect x="128" y="96" width="32" height="32" fill="#D6D5D0" />
  <rect x="160" y="96" width="32" height="32" fill="#C1B29E" />
  <rect x="192" y="96" width="32" height="32" fill="#F38F23" />
  <rect x="224" y="96" width="32" height="32" fill="#FFED65" />
  <rect x="0" y="128" width="32" height="32" fill="#101010" />
  <rect x="32" y="128" width="32" height="32" fill="#353535" />
  <rect x="64" y="128" width="32" height="32" fill="#575E61" />
  <rect x="96" y="128" width="32" height="32" fill="#888E9A" />
  <rect x="128" y="128" width="32" height="32" fill="#A1A0A1" />
  <rect x="160" y="128" width="32" height="32" fill="#C8B5A7" />
  <rect x="192" y="128" width="32" height="32" fill="#E4C162" />
  <rect x="224" y="128" width="32" height="32" fill="#EA8A2B" />
  <rect x="0" y="160" width="32" height="32" fill="#333333" />
  <rect x="32" y="160" width="32" height="32" fill="#4A4A4A" />
  <rect x="64" y="160" width="32" height="32" fill="#7F7E7D" />
  <rect x="96" y="160" width="32" height="32" fill="#A6A18B" />
  <rect x="128" y="160" width="32" height="32" fill="#C5B7B0" />
  <rect x="160" y="160" width="32" height="32" fill="#D5C6A9" />
  <rect x="192" y="160" width="32" height="32" fill="#F1D577" />
  <rect x="224" y="160" width="32" height="32" fill="#E1A22E" />
  <rect x="0" y="192" width="32" height="32" fill="#333F43" />
  <rect x="32" y="192" width="32" height="32" fill="#4E5458" />
  <rect x="64" y="192" width="32" height="32" fill="#606A6D" />
  <rect x="96" y="192" width="32" height="32" fill="#858A8F" />
  <rect x="128" y="192" width="32" height="32" fill="#A0A8A8" />
  <rect x="160" y="192" width="32" height="32" fill="#B5D0CB" />
  <rect x="192" y="192" width="32" height="32" fill="#F0E2AD" />
  <rect x="224" y="192" width="32" height="32" fill="#CD9C45" />
  <rect x="0" y="224" width="32" height="32" fill="#1A1A1A" />
  <rect x="32" y="224" width="32" height="32" fill="#2E2E2E" />
  <rect x="64" y="224" width="32" height="32" fill="#4C4C4C" />
  <rect x="96" y="224" width="32" height="32" fill="#858585" />
  <rect x="128" y="224" width="32" height="32" fill="#C3C3B8" />
  <rect x="160" y="224" width="32" height="32" fill="#D6D1B3" />
  <rect x="192" y="224" width="32" height="32" fill="#F7E8B0" />
  <rect x="224" y="224" width="32" height="32" fill="#FFC20E" />
</svg>
