<svg xmlns="http://www.w3.org/2000/svg" width="256" height="256" viewBox="0 0 256 256" shape-rendering="crispEdges" role="img" aria-labelledby="title desc">
  <title id="title">Echoes of Safety and Exposure</title>
  <desc id="desc">The emotional tone oscillates between the notions of safety and exposure, with a focus on delicate contrasts. The chosen palette features soft greens and warm browns representing safety, while cooler whites and blues symbolize exposure. The arrangement places cool colors on the left, subtly cascading towards warmer tones on the right, creating a visual 'rising signal' effect, illustrating the tension between safety and exposure. The central area remains lighter, suggesting an open space amidst the heavier borders, crafted with broken pixels to signify imperfect protection against the noise of exposure.</desc>
  <rect width="256" height="256" fill="#FFFFFF" />
  <rect x="0" y="0" width="32" height="32" fill="#6D9C6D" />
  <rect x="32" y="0" width="32" height="32" fill="#AD7C59" />
  <rect x="64" y="0" width="32" height="32" fill="#C9BBA4" />
  <rect x="96" y="0" width="32" height="32" fill="#C4D5E5" />
  <rect x="128" y="0" width="32" height="32" fill="#B0E1FF" />
  <rect x="160" y="0" width="32" height="32" fill="#F4F6F6" />
  <rect x="192" y="0" width="32" height="32" fill="#FFFFFF" />
  <rect x="224" y="0" width="32" height="32" fill="#EDECEB" />
  <rect x="0" y="32" width="32" height="32" fill="#D1D8E1" />
  <rect x="32" y="32" width="32" height="32" fill="#EBB8A1" />
  <rect x="64" y="32" width="32" height="32" fill="#D6C6B5" />
  <rect x="96" y="32" width="32" height="32" fill="#A0B6D4" />
  <rect x="128" y="32" width="32" height="32" fill="#A4DBE8" />
  <rect x="160" y="32" width="32" height="32" fill="#E1F5F9" />
  <rect x="192" y="32" width="32" height="32" fill="#E9E3D6" />
  <rect x="224" y="32" width="32" height="32" fill="#C8C9BF" />
  <rect x="0" y="64" width="32" height="32" fill="#A5B1A2" />
  <rect x="32" y="64" width="32" height="32" fill="#B39C73" />
  <rect x="64" y="64" width="32" height="32" fill="#E6D5D2" />
  <rect x="96" y="64" width="32" height="32" fill="#F1FAFB" />
  <rect x="128" y="64" width="32" height="32" fill="#BFD8E2" />
  <rect x="160" y="64" width="32" height="32" fill="#B4D3DB" />
  <rect x="192" y="64" width="32" height="32" fill="#D6E8E4" />
  <rect x="224" y="64" width="32" height="32" fill="#F6F9F8" />
  <rect x="0" y="96" width="32" height="32" fill="#8DAF8D" />
  <rect x="32" y="96" width="32" height="32" fill="#C5B072" />
  <rect x="64" y="96" width="32" height="32" fill="#E4D8D0" />
  <rect x="96" y="96" width="32" height="32" fill="#E0F1F4" />
  <rect x="128" y="96" width="32" height="32" fill="#C8D1D8" />
  <rect x="160" y="96" width="32" height="32" fill="#A0C6D4" />
  <rect x="192" y="96" width="32" height="32" fill="#FBFDFE" />
  <rect x="224" y="96" width="32" height="32" fill="#F0F1ED" />
  <rect x="0" y="128" width="32" height="32" fill="#7C9F7F" />
  <rect x="32" y="128" width="32" height="32" fill="#D2B27F" />
  <rect x="64" y="128" width="32" height="32" fill="#E4D2D5" />
  <rect x="96" y="128" width="32" height="32" fill="#DEF3F4" />
  <rect x="128" y="128" width="32" height="32" fill="#C9D4D6" />
  <rect x="160" y="128" width="32" height="32" fill="#A8D2D4" />
  <rect x="192" y="128" width="32" height="32" fill="#FFF5F6" />
  <rect x="224" y="128" width="32" height="32" fill="#F1F3EF" />
  <rect x="0" y="160" width="32" height="32" fill="#7A8D7A" />
  <rect x="32" y="160" width="32" height="32" fill="#D8BB8A" />
  <rect x="64" y="160" width="32" height="32" fill="#E2D4D9" />
  <rect x="96" y="160" width="32" height="32" fill="#E1F6F7" />
  <rect x="128" y="160" width="32" height="32" fill="#C5D8DB" />
  <rect x="160" y="160" width="32" height="32" fill="#C3E2E5" />
  <rect x="192" y="160" width="32" height="32" fill="#FFFFFF" />
  <rect x="224" y="160" width="32" height="32" fill="#FBFBFA" />
  <rect x="0" y="192" width="32" height="32" fill="#6B7E6B" />
  <rect x="32" y="192" width="32" height="32" fill="#C3A48C" />
  <rect x="64" y="192" width="32" height="32" fill="#DAD3D2" />
  <rect x="96" y="192" width="32" height="32" fill="#E3F8F9" />
  <rect x="128" y="192" width="32" height="32" fill="#B3D1D5" />
  <rect x="160" y="192" width="32" height="32" fill="#C9E5E8" />
  <rect x="192" y="192" width="32" height="32" fill="#F5FBFB" />
  <rect x="224" y="192" width="32" height="32" fill="#F8F9F8" />
  <rect x="0" y="224" width="32" height="32" fill="#3C5C3C" />
  <rect x="32" y="224" width="32" height="32" fill="#A19D7B" />
  <rect x="64" y="224" width="32" height="32" fill="#C7B2B8" />
  <rect x="96" y="224" width="32" height="32" fill="#E2F8F8" />
  <rect x="128" y="224" width="32" height="32" fill="#B6DBE1" />
  <rect x="160" y="224" width="32" height="32" fill="#CDE9E5" />
  <rect x="192" y="224" width="32" height="32" fill="#D3D9D9" />
  <rect x="224" y="224" width="32" height="32" fill="#F1F3EF" />
</svg>
