<svg xmlns="http://www.w3.org/2000/svg" width="256" height="256" viewBox="0 0 256 256" shape-rendering="crispEdges" role="img" aria-labelledby="title desc">
  <title id="title">Tension and Release</title>
  <desc id="desc">This artwork captures the emotional tension between defiance and submission through contrasting color patterns. The palette, drawn from 'love_betrayal', emphasizes a clash between vibrant pink and deep maroon, expressing defiance in the dominant color. The layout spirals towards a small off-center point, symbolizing the struggle between control (order) and chaos. The use of broken pixels serves as intentional disruptions, echoing the theme of edge versus center. The overall composition tells a story of shifting balance and unresolved motion.</desc>
  <rect width="256" height="256" fill="#FFFFFF" />
  <rect x="0" y="0" width="32" height="32" fill="#A50034" />
  <rect x="32" y="0" width="32" height="32" fill="#C72C41" />
  <rect x="64" y="0" width="32" height="32" fill="#FF6F91" />
  <rect x="96" y="0" width="32" height="32" fill="#F8BBD0" />
  <rect x="128" y="0" width="32" height="32" fill="#FFFFFF" />
  <rect x="160" y="0" width="32" height="32" fill="#FF6F91" />
  <rect x="192" y="0" width="32" height="32" fill="#C72C41" />
  <rect x="224" y="0" width="32" height="32" fill="#A50034" />
  <rect x="0" y="32" width="32" height="32" fill="#C72C41" />
  <rect x="32" y="32" width="32" height="32" fill="#A50034" />
  <rect x="64" y="32" width="32" height="32" fill="#FF6F91" />
  <rect x="96" y="32" width="32" height="32" fill="#F8BBD0" />
  <rect x="128" y="32" width="32" height="32" fill="#FFFFFF" />
  <rect x="160" y="32" width="32" height="32" fill="#FF6F91" />
  <rect x="192" y="32" width="32" height="32" fill="#A50034" />
  <rect x="224" y="32" width="32" height="32" fill="#C72C41" />
  <rect x="0" y="64" width="32" height="32" fill="#FFFFFF" />
  <rect x="32" y="64" width="32" height="32" fill="#F8BBD0" />
  <rect x="64" y="64" width="32" height="32" fill="#FF6F91" />
  <rect x="96" y="64" width="32" height="32" fill="#A50034" />
  <rect x="128" y="64" width="32" height="32" fill="#C72C41" />
  <rect x="160" y="64" width="32" height="32" fill="#A50034" />
  <rect x="192" y="64" width="32" height="32" fill="#FF6F91" />
  <rect x="224" y="64" width="32" height="32" fill="#F8BBD0" />
  <rect x="0" y="96" width="32" height="32" fill="#F8BBD0" />
  <rect x="32" y="96" width="32" height="32" fill="#FF6F91" />
  <rect x="64" y="96" width="32" height="32" fill="#A50034" />
  <rect x="96" y="96" width="32" height="32" fill="#C72C41" />
  <rect x="128" y="96" width="32" height="32" fill="#FFFFFF" />
  <rect x="160" y="96" width="32" height="32" fill="#C72C41" />
  <rect x="192" y="96" width="32" height="32" fill="#A50034" />
  <rect x="224" y="96" width="32" height="32" fill="#FF6F91" />
  <rect x="0" y="128" width="32" height="32" fill="#A50034" />
  <rect x="32" y="128" width="32" height="32" fill="#C72C41" />
  <rect x="64" y="128" width="32" height="32" fill="#F8BBD0" />
  <rect x="96" y="128" width="32" height="32" fill="#FFFFFF" />
  <rect x="128" y="128" width="32" height="32" fill="#FF6F91" />
  <rect x="160" y="128" width="32" height="32" fill="#A50034" />
  <rect x="192" y="128" width="32" height="32" fill="#C72C41" />
  <rect x="224" y="128" width="32" height="32" fill="#F8BBD0" />
  <rect x="0" y="160" width="32" height="32" fill="#C72C41" />
  <rect x="32" y="160" width="32" height="32" fill="#A50034" />
  <rect x="64" y="160" width="32" height="32" fill="#F8BBD0" />
  <rect x="96" y="160" width="32" height="32" fill="#C72C41" />
  <rect x="128" y="160" width="32" height="32" fill="#A50034" />
  <rect x="160" y="160" width="32" height="32" fill="#F8BBD0" />
  <rect x="192" y="160" width="32" height="32" fill="#FFFFFF" />
  <rect x="224" y="160" width="32" height="32" fill="#FF6F91" />
  <rect x="0" y="192" width="32" height="32" fill="#FFFFFF" />
  <rect x="32" y="192" width="32" height="32" fill="#F8BBD0" />
  <rect x="64" y="192" width="32" height="32" fill="#C72C41" />
  <rect x="96" y="192" width="32" height="32" fill="#A50034" />
  <rect x="128" y="192" width="32" height="32" fill="#FF6F91" />
  <rect x="160" y="192" width="32" height="32" fill="#A50034" />
  <rect x="192" y="192" width="32" height="32" fill="#F8BBD0" />
  <rect x="224" y="192" width="32" height="32" fill="#C72C41" />
  <rect x="0" y="224" width="32" height="32" fill="#F8BBD0" />
  <rect x="32" y="224" width="32" height="32" fill="#FF6F91" />
  <rect x="64" y="224" width="32" height="32" fill="#C72C41" />
  <rect x="96" y="224" width="32" height="32" fill="#A50034" />
  <rect x="128" y="224" width="32" height="32" fill="#F8BBD0" />
  <rect x="160" y="224" width="32" height="32" fill="#FFFFFF" />
  <rect x="192" y="224" width="32" height="32" fill="#C72C41" />
  <rect x="224" y="224" width="32" height="32" fill="#A50034" />
</svg>
