<svg xmlns="http://www.w3.org/2000/svg" width="256" height="256" viewBox="0 0 256 256" shape-rendering="crispEdges" role="img" aria-labelledby="title desc">
  <title id="title">Echoes of Tension</title>
  <desc id="desc">This artwork embodies the emotional contrasts of longing and resolve through a structured yet disrupted pattern. The palette, featuring vibrant accents of electric blue and hot magenta against deep tones of dead black and static gray, highlights the tension between the two emotions. The arrangement emphasizes a halo void, with dense clusters near the center contrasting a spacious border, symbolizing both intimacy and distance. The use of broken pixels suggests flaws and imperfections, reflecting the disorder within the search for resolution.</desc>
  <rect width="256" height="256" fill="#FFFFFF" />
  <rect x="0" y="0" width="32" height="32" fill="#000000" />
  <rect x="32" y="0" width="32" height="32" fill="#0A0A0A" />
  <rect x="64" y="0" width="32" height="32" fill="#1A1A1A" />
  <rect x="96" y="0" width="32" height="32" fill="#2A2A2A" />
  <rect x="128" y="0" width="32" height="32" fill="#3A3A3A" />
  <rect x="160" y="0" width="32" height="32" fill="#3F3F3F" />
  <rect x="192" y="0" width="32" height="32" fill="#5F5F5F" />
  <rect x="224" y="0" width="32" height="32" fill="#C3C3C3" />
  <rect x="0" y="32" width="32" height="32" fill="#444444" />
  <rect x="32" y="32" width="32" height="32" fill="#545454" />
  <rect x="64" y="32" width="32" height="32" fill="#646464" />
  <rect x="96" y="32" width="32" height="32" fill="#747474" />
  <rect x="128" y="32" width="32" height="32" fill="#848484" />
  <rect x="160" y="32" width="32" height="32" fill="#949494" />
  <rect x="192" y="32" width="32" height="32" fill="#A4A4A4" />
  <rect x="224" y="32" width="32" height="32" fill="#B4B4B4" />
  <rect x="0" y="64" width="32" height="32" fill="#070707" />
  <rect x="32" y="64" width="32" height="32" fill="#E6E6E6" />
  <rect x="64" y="64" width="32" height="32" fill="#FFFFFF" />
  <rect x="96" y="64" width="32" height="32" fill="#FAFAFA" />
  <rect x="128" y="64" width="32" height="32" fill="#F0F0F0" />
  <rect x="160" y="64" width="32" height="32" fill="#E0E0E0" />
  <rect x="192" y="64" width="32" height="32" fill="#D0D0D0" />
  <rect x="224" y="64" width="32" height="32" fill="#C0C0C0" />
  <rect x="0" y="96" width="32" height="32" fill="#A3D5FF" />
  <rect x="32" y="96" width="32" height="32" fill="#ABF4FF" />
  <rect x="64" y="96" width="32" height="32" fill="#B0E3FF" />
  <rect x="96" y="96" width="32" height="32" fill="#C1E4FF" />
  <rect x="128" y="96" width="32" height="32" fill="#D0E0FF" />
  <rect x="160" y="96" width="32" height="32" fill="#C4D8FF" />
  <rect x="192" y="96" width="32" height="32" fill="#B4C8FF" />
  <rect x="224" y="96" width="32" height="32" fill="#A4B8FF" />
  <rect x="0" y="128" width="32" height="32" fill="#FF2B72" />
  <rect x="32" y="128" width="32" height="32" fill="#FF1D45" />
  <rect x="64" y="128" width="32" height="32" fill="#FF0F1F" />
  <rect x="96" y="128" width="32" height="32" fill="#F1A6CC" />
  <rect x="128" y="128" width="32" height="32" fill="#FF4D92" />
  <rect x="160" y="128" width="32" height="32" fill="#FF3F7B" />
  <rect x="192" y="128" width="32" height="32" fill="#FF2F3D" />
  <rect x="224" y="128" width="32" height="32" fill="#FF9BB0" />
  <rect x="0" y="160" width="32" height="32" fill="#2E2E2E" />
  <rect x="32" y="160" width="32" height="32" fill="#3C3C3C" />
  <rect x="64" y="160" width="32" height="32" fill="#2C2C2C" />
  <rect x="96" y="160" width="32" height="32" fill="#1C1C1C" />
  <rect x="128" y="160" width="32" height="32" fill="#0C0C0C" />
  <rect x="160" y="160" width="32" height="32" fill="#FF6F20" />
  <rect x="192" y="160" width="32" height="32" fill="#FFA500" />
  <rect x="224" y="160" width="32" height="32" fill="#FFCC00" />
  <rect x="0" y="192" width="32" height="32" fill="#4A4A4A" />
  <rect x="32" y="192" width="32" height="32" fill="#3B3B3B" />
  <rect x="64" y="192" width="32" height="32" fill="#B7B7B7" />
  <rect x="96" y="192" width="32" height="32" fill="#A5A5A5" />
  <rect x="128" y="192" width="32" height="32" fill="#939393" />
  <rect x="160" y="192" width="32" height="32" fill="#828282" />
  <rect x="192" y="192" width="32" height="32" fill="#717171" />
  <rect x="224" y="192" width="32" height="32" fill="#606060" />
  <rect x="0" y="224" width="32" height="32" fill="#323232" />
  <rect x="32" y="224" width="32" height="32" fill="#123456" />
  <rect x="64" y="224" width="32" height="32" fill="#ABCDEF" />
  <rect x="96" y="224" width="32" height="32" fill="#8A8A8A" />
  <rect x="128" y="224" width="32" height="32" fill="#7A7A7A" />
  <rect x="160" y="224" width="32" height="32" fill="#6A6A6A" />
  <rect x="192" y="224" width="32" height="32" fill="#5A5A5A" />
  <rect x="224" y="224" width="32" height="32" fill="#4A4A4A" />
</svg>
