<svg xmlns="http://www.w3.org/2000/svg" width="256" height="256" viewBox="0 0 256 256" shape-rendering="crispEdges" role="img" aria-labelledby="title desc">
  <title id="title">Echoes and Contrasts</title>
  <desc id="desc">The emotional tone embodies the tension of trust versus suspicion, represented through a palette that contrasts soft hues of warmth with stark tones of severity. The chosen colors like powder pink and sharp crimson play against carbon black and steel gray to manifest the underlying pulse of resilience and fragility. The main collision sits diagonally, where the warmer top section, suggesting trust, fights against the cooler, darker bottom, echoing suspicion. This creates a visual narrative where patterns ripple and distort—an interplay of calm and pressure reflecting the seed's themes.</desc>
  <rect width="256" height="256" fill="#FFFFFF" />
  <rect x="0" y="0" width="32" height="32" fill="#F6ADC6" />
  <rect x="32" y="0" width="32" height="32" fill="#F4B6C2" />
  <rect x="64" y="0" width="32" height="32" fill="#F0BEC0" />
  <rect x="96" y="0" width="32" height="32" fill="#FFFFFF" />
  <rect x="128" y="0" width="32" height="32" fill="#D9D9D9" />
  <rect x="160" y="0" width="32" height="32" fill="#AFAFAF" />
  <rect x="192" y="0" width="32" height="32" fill="#4D4D4D" />
  <rect x="224" y="0" width="32" height="32" fill="#1D1D1D" />
  <rect x="0" y="32" width="32" height="32" fill="#F6ADC6" />
  <rect x="32" y="32" width="32" height="32" fill="#FAE3E2" />
  <rect x="64" y="32" width="32" height="32" fill="#E5B2BD" />
  <rect x="96" y="32" width="32" height="32" fill="#D1D1D1" />
  <rect x="128" y="32" width="32" height="32" fill="#9E9E9E" />
  <rect x="160" y="32" width="32" height="32" fill="#6A6A6A" />
  <rect x="192" y="32" width="32" height="32" fill="#404040" />
  <rect x="224" y="32" width="32" height="32" fill="#1D1D1D" />
  <rect x="0" y="64" width="32" height="32" fill="#FFCCCB" />
  <rect x="32" y="64" width="32" height="32" fill="#E6E6E6" />
  <rect x="64" y="64" width="32" height="32" fill="#C0C0C0" />
  <rect x="96" y="64" width="32" height="32" fill="#B0B0B0" />
  <rect x="128" y="64" width="32" height="32" fill="#7D7D7D" />
  <rect x="160" y="64" width="32" height="32" fill="#4D4D4D" />
  <rect x="192" y="64" width="32" height="32" fill="#2C2C2C" />
  <rect x="224" y="64" width="32" height="32" fill="#1D1D1D" />
  <rect x="0" y="96" width="32" height="32" fill="#F8C8D2" />
  <rect x="32" y="96" width="32" height="32" fill="#F4B6C2" />
  <rect x="64" y="96" width="32" height="32" fill="#E1A9B3" />
  <rect x="96" y="96" width="32" height="32" fill="#C7C7C7" />
  <rect x="128" y="96" width="32" height="32" fill="#A0A0A0" />
  <rect x="160" y="96" width="32" height="32" fill="#7C7C7C" />
  <rect x="192" y="96" width="32" height="32" fill="#515151" />
  <rect x="224" y="96" width="32" height="32" fill="#2A2A2A" />
  <rect x="0" y="128" width="32" height="32" fill="#FFCAD6" />
  <rect x="32" y="128" width="32" height="32" fill="#F4B0B7" />
  <rect x="64" y="128" width="32" height="32" fill="#D8A8BC" />
  <rect x="96" y="128" width="32" height="32" fill="#C1C1C1" />
  <rect x="128" y="128" width="32" height="32" fill="#A6A6A6" />
  <rect x="160" y="128" width="32" height="32" fill="#8E8E8E" />
  <rect x="192" y="128" width="32" height="32" fill="#707070" />
  <rect x="224" y="128" width="32" height="32" fill="#3C3C3C" />
  <rect x="0" y="160" width="32" height="32" fill="#F1B2C6" />
  <rect x="32" y="160" width="32" height="32" fill="#F0A3BB" />
  <rect x="64" y="160" width="32" height="32" fill="#EA949E" />
  <rect x="96" y="160" width="32" height="32" fill="#D6D6D6" />
  <rect x="128" y="160" width="32" height="32" fill="#A2A2A2" />
  <rect x="160" y="160" width="32" height="32" fill="#757575" />
  <rect x="192" y="160" width="32" height="32" fill="#444444" />
  <rect x="224" y="160" width="32" height="32" fill="#222222" />
  <rect x="0" y="192" width="32" height="32" fill="#E0A8B7" />
  <rect x="32" y="192" width="32" height="32" fill="#CFAFCE" />
  <rect x="64" y="192" width="32" height="32" fill="#D9B5C8" />
  <rect x="96" y="192" width="32" height="32" fill="#C0C0C0" />
  <rect x="128" y="192" width="32" height="32" fill="#828282" />
  <rect x="160" y="192" width="32" height="32" fill="#5F5F5F" />
  <rect x="192" y="192" width="32" height="32" fill="#404040" />
  <rect x="224" y="192" width="32" height="32" fill="#1B1B1B" />
  <rect x="0" y="224" width="32" height="32" fill="#D8B1B9" />
  <rect x="32" y="224" width="32" height="32" fill="#D2B5D8" />
  <rect x="64" y="224" width="32" height="32" fill="#D6A2B6" />
  <rect x="96" y="224" width="32" height="32" fill="#B3B3B3" />
  <rect x="128" y="224" width="32" height="32" fill="#7E7E7E" />
  <rect x="160" y="224" width="32" height="32" fill="#5C5C5C" />
  <rect x="192" y="224" width="32" height="32" fill="#363636" />
  <rect x="224" y="224" width="32" height="32" fill="#1D1D1D" />
</svg>
