<svg xmlns="http://www.w3.org/2000/svg" width="256" height="256" viewBox="0 0 256 256" shape-rendering="crispEdges" role="img" aria-labelledby="title desc">
  <title id="title">Tension of Light and Shadow</title>
  <desc id="desc">This artwork embodies the emotional contrast between joy and grief, highlighted through the chosen palette of warm yellows and oranges meeting deep blues and muted purples. The layout flows from top to bottom, creating a sense of descent, enhancing the feelings of falling or letting go. The warm tones suggest an expanding joy, while the cool shades of blue evoke feelings of grief and weight. The collision occurs in the center, where brightness and heaviness intermingle, creating a visual rhythm of alternating patterns reminiscent of crosshatching for joy and cracks for grief. The 'broken pixels' add unexpected moments of imperfection, reinforcing the theme of hidden vs. exposed emotions.</desc>
  <rect width="256" height="256" fill="#FFFFFF" />
  <rect x="0" y="0" width="32" height="32" fill="#FFCC00" />
  <rect x="32" y="0" width="32" height="32" fill="#FF6600" />
  <rect x="64" y="0" width="32" height="32" fill="#FF9933" />
  <rect x="96" y="0" width="32" height="32" fill="#FFCC99" />
  <rect x="128" y="0" width="32" height="32" fill="#003366" />
  <rect x="160" y="0" width="32" height="32" fill="#003399" />
  <rect x="192" y="0" width="32" height="32" fill="#6699CC" />
  <rect x="224" y="0" width="32" height="32" fill="#990033" />
  <rect x="0" y="32" width="32" height="32" fill="#FFCC33" />
  <rect x="32" y="32" width="32" height="32" fill="#FF3300" />
  <rect x="64" y="32" width="32" height="32" fill="#FF9966" />
  <rect x="96" y="32" width="32" height="32" fill="#FFCCAA" />
  <rect x="128" y="32" width="32" height="32" fill="#003366" />
  <rect x="160" y="32" width="32" height="32" fill="#006699" />
  <rect x="192" y="32" width="32" height="32" fill="#6699CC" />
  <rect x="224" y="32" width="32" height="32" fill="#990033" />
  <rect x="0" y="64" width="32" height="32" fill="#FF9900" />
  <rect x="32" y="64" width="32" height="32" fill="#FF6600" />
  <rect x="64" y="64" width="32" height="32" fill="#FFCC66" />
  <rect x="96" y="64" width="32" height="32" fill="#FFFDAA" />
  <rect x="128" y="64" width="32" height="32" fill="#006699" />
  <rect x="160" y="64" width="32" height="32" fill="#003399" />
  <rect x="192" y="64" width="32" height="32" fill="#6699CC" />
  <rect x="224" y="64" width="32" height="32" fill="#990033" />
  <rect x="0" y="96" width="32" height="32" fill="#FFCC00" />
  <rect x="32" y="96" width="32" height="32" fill="#FF3300" />
  <rect x="64" y="96" width="32" height="32" fill="#FF6666" />
  <rect x="96" y="96" width="32" height="32" fill="#FFF3DD" />
  <rect x="128" y="96" width="32" height="32" fill="#005577" />
  <rect x="160" y="96" width="32" height="32" fill="#003366" />
  <rect x="192" y="96" width="32" height="32" fill="#6699CC" />
  <rect x="224" y="96" width="32" height="32" fill="#990033" />
  <rect x="0" y="128" width="32" height="32" fill="#FFCC33" />
  <rect x="32" y="128" width="32" height="32" fill="#FF9900" />
  <rect x="64" y="128" width="32" height="32" fill="#FFCC33" />
  <rect x="96" y="128" width="32" height="32" fill="#FFCCAA" />
  <rect x="128" y="128" width="32" height="32" fill="#005577" />
  <rect x="160" y="128" width="32" height="32" fill="#003366" />
  <rect x="192" y="128" width="32" height="32" fill="#6699CC" />
  <rect x="224" y="128" width="32" height="32" fill="#CC0033" />
  <rect x="0" y="160" width="32" height="32" fill="#FF3300" />
  <rect x="32" y="160" width="32" height="32" fill="#FF0033" />
  <rect x="64" y="160" width="32" height="32" fill="#FF6666" />
  <rect x="96" y="160" width="32" height="32" fill="#FFCCAA" />
  <rect x="128" y="160" width="32" height="32" fill="#003366" />
  <rect x="160" y="160" width="32" height="32" fill="#003399" />
  <rect x="192" y="160" width="32" height="32" fill="#6699CC" />
  <rect x="224" y="160" width="32" height="32" fill="#330099" />
  <rect x="0" y="192" width="32" height="32" fill="#FF9900" />
  <rect x="32" y="192" width="32" height="32" fill="#FF6600" />
  <rect x="64" y="192" width="32" height="32" fill="#FFCC66" />
  <rect x="96" y="192" width="32" height="32" fill="#FFF3AA" />
  <rect x="128" y="192" width="32" height="32" fill="#003366" />
  <rect x="160" y="192" width="32" height="32" fill="#006699" />
  <rect x="192" y="192" width="32" height="32" fill="#6699CC" />
  <rect x="224" y="192" width="32" height="32" fill="#990033" />
  <rect x="0" y="224" width="32" height="32" fill="#FFCC00" />
  <rect x="32" y="224" width="32" height="32" fill="#FF6600" />
  <rect x="64" y="224" width="32" height="32" fill="#FF9933" />
  <rect x="96" y="224" width="32" height="32" fill="#FFCC99" />
  <rect x="128" y="224" width="32" height="32" fill="#003333" />
  <rect x="160" y="224" width="32" height="32" fill="#005577" />
  <rect x="192" y="224" width="32" height="32" fill="#6699CC" />
  <rect x="224" y="224" width="32" height="32" fill="#990033" />
</svg>
