<svg xmlns="http://www.w3.org/2000/svg" width="256" height="256" viewBox="0 0 256 256" shape-rendering="crispEdges" role="img" aria-labelledby="title desc">
  <title id="title">Tension Between States</title>
  <desc id="desc">The emotional tone embodies the struggle between control and surrender. The palette of signal green, electric blue, hot magenta alongside the grounding dead black and static gray creates a stark contrast of dominance and repose. The main collision occurs in the center, where the structured maze of control interjects with the flowing stripes of surrender, suggesting the push and pull of emotions battling for space. This creates an intricate narrative captured within the chaos and order reflected in each pixel.</desc>
  <rect width="256" height="256" fill="#FFFFFF" />
  <rect x="0" y="0" width="32" height="32" fill="#000000" />
  <rect x="32" y="0" width="32" height="32" fill="#1D3F8B" />
  <rect x="64" y="0" width="32" height="32" fill="#1E90FF" />
  <rect x="96" y="0" width="32" height="32" fill="#00FF7F" />
  <rect x="128" y="0" width="32" height="32" fill="#FF1493" />
  <rect x="160" y="0" width="32" height="32" fill="#1E90FF" />
  <rect x="192" y="0" width="32" height="32" fill="#1D3F8B" />
  <rect x="224" y="0" width="32" height="32" fill="#000000" />
  <rect x="0" y="32" width="32" height="32" fill="#1D3F8B" />
  <rect x="32" y="32" width="32" height="32" fill="#4B0082" />
  <rect x="64" y="32" width="32" height="32" fill="#4169E1" />
  <rect x="96" y="32" width="32" height="32" fill="#00BFFF" />
  <rect x="128" y="32" width="32" height="32" fill="#FF69B4" />
  <rect x="160" y="32" width="32" height="32" fill="#4169E1" />
  <rect x="192" y="32" width="32" height="32" fill="#4B0082" />
  <rect x="224" y="32" width="32" height="32" fill="#1D3F8B" />
  <rect x="0" y="64" width="32" height="32" fill="#1E90FF" />
  <rect x="32" y="64" width="32" height="32" fill="#808080" />
  <rect x="64" y="64" width="32" height="32" fill="#D3D3D3" />
  <rect x="96" y="64" width="32" height="32" fill="#B22222" />
  <rect x="128" y="64" width="32" height="32" fill="#FF7F50" />
  <rect x="160" y="64" width="32" height="32" fill="#D3D3D3" />
  <rect x="192" y="64" width="32" height="32" fill="#808080" />
  <rect x="224" y="64" width="32" height="32" fill="#1E90FF" />
  <rect x="0" y="96" width="32" height="32" fill="#00FF7F" />
  <rect x="32" y="96" width="32" height="32" fill="#000000" />
  <rect x="64" y="96" width="32" height="32" fill="#4B0082" />
  <rect x="96" y="96" width="32" height="32" fill="#4682B4" />
  <rect x="128" y="96" width="32" height="32" fill="#B22222" />
  <rect x="160" y="96" width="32" height="32" fill="#4B0082" />
  <rect x="192" y="96" width="32" height="32" fill="#000000" />
  <rect x="224" y="96" width="32" height="32" fill="#00FF7F" />
  <rect x="0" y="128" width="32" height="32" fill="#FF1493" />
  <rect x="32" y="128" width="32" height="32" fill="#4B0082" />
  <rect x="64" y="128" width="32" height="32" fill="#708090" />
  <rect x="96" y="128" width="32" height="32" fill="#778899" />
  <rect x="128" y="128" width="32" height="32" fill="#B22222" />
  <rect x="160" y="128" width="32" height="32" fill="#708090" />
  <rect x="192" y="128" width="32" height="32" fill="#4B0082" />
  <rect x="224" y="128" width="32" height="32" fill="#FF1493" />
  <rect x="0" y="160" width="32" height="32" fill="#1E90FF" />
  <rect x="32" y="160" width="32" height="32" fill="#D3D3D3" />
  <rect x="64" y="160" width="32" height="32" fill="#B0C4DE" />
  <rect x="96" y="160" width="32" height="32" fill="#FF4500" />
  <rect x="128" y="160" width="32" height="32" fill="#B0C4DE" />
  <rect x="160" y="160" width="32" height="32" fill="#D3D3D3" />
  <rect x="192" y="160" width="32" height="32" fill="#1E90FF" />
  <rect x="224" y="160" width="32" height="32" fill="#1D3F8B" />
  <rect x="0" y="192" width="32" height="32" fill="#1D3F8B" />
  <rect x="32" y="192" width="32" height="32" fill="#FF69B4" />
  <rect x="64" y="192" width="32" height="32" fill="#B22222" />
  <rect x="96" y="192" width="32" height="32" fill="#FF4500" />
  <rect x="128" y="192" width="32" height="32" fill="#FFA07A" />
  <rect x="160" y="192" width="32" height="32" fill="#B22222" />
  <rect x="192" y="192" width="32" height="32" fill="#FF69B4" />
  <rect x="224" y="192" width="32" height="32" fill="#1D3F8B" />
  <rect x="0" y="224" width="32" height="32" fill="#000000" />
  <rect x="32" y="224" width="32" height="32" fill="#FFF5EE" />
  <rect x="64" y="224" width="32" height="32" fill="#F5FFFA" />
  <rect x="96" y="224" width="32" height="32" fill="#F0FFFF" />
  <rect x="128" y="224" width="32" height="32" fill="#FFF5EE" />
  <rect x="160" y="224" width="32" height="32" fill="#F5FFFA" />
  <rect x="192" y="224" width="32" height="32" fill="#FFF5EE" />
  <rect x="224" y="224" width="32" height="32" fill="#000000" />
</svg>
