<svg xmlns="http://www.w3.org/2000/svg" width="256" height="256" viewBox="0 0 256 256" shape-rendering="crispEdges" role="img" aria-labelledby="title desc">
  <title id="title">Echoes of Thought</title>
  <desc id="desc">The artwork explores the tension between confusion and clarity through a contrasting palette of muted sepia and faded blue tones. The colors suggest a sense of nostalgia and memory, aiming for a delicate balance between calm and chaos. The arrangement plays with broken symmetry; the left side is composed of structured, spark-like patterns while the right features layered noise, creating a pulse of disruption. The thick outlines serve to frame this conflict, while the specific placement of 'broken' pixels adds to the overall sense of fragmentation and unresolved dialogue. This fusion of order and chaos embodies the essence of the seed, creating a narrative without literal representation.</desc>
  <rect width="256" height="256" fill="#FFFFFF" />
  <rect x="0" y="0" width="32" height="32" fill="#CFCFCF" />
  <rect x="32" y="0" width="32" height="32" fill="#D3D3D3" />
  <rect x="64" y="0" width="32" height="32" fill="#B8B8B8" />
  <rect x="96" y="0" width="32" height="32" fill="#B0C4DE" />
  <rect x="128" y="0" width="32" height="32" fill="#AFAFAF" />
  <rect x="160" y="0" width="32" height="32" fill="#E0E0E0" />
  <rect x="192" y="0" width="32" height="32" fill="#B0E0E6" />
  <rect x="224" y="0" width="32" height="32" fill="#FFFFFF" />
  <rect x="0" y="32" width="32" height="32" fill="#A9A9A9" />
  <rect x="32" y="32" width="32" height="32" fill="#DEB887" />
  <rect x="64" y="32" width="32" height="32" fill="#D3D3D3" />
  <rect x="96" y="32" width="32" height="32" fill="#9A9A9A" />
  <rect x="128" y="32" width="32" height="32" fill="#8B4513" />
  <rect x="160" y="32" width="32" height="32" fill="#C0C0C0" />
  <rect x="192" y="32" width="32" height="32" fill="#87CEFA" />
  <rect x="224" y="32" width="32" height="32" fill="#FFFFFF" />
  <rect x="0" y="64" width="32" height="32" fill="#C8C8C8" />
  <rect x="32" y="64" width="32" height="32" fill="#C5BFBF" />
  <rect x="64" y="64" width="32" height="32" fill="#8B4513" />
  <rect x="96" y="64" width="32" height="32" fill="#D8BFD8" />
  <rect x="128" y="64" width="32" height="32" fill="#C5C5C5" />
  <rect x="160" y="64" width="32" height="32" fill="#8A2BE2" />
  <rect x="192" y="64" width="32" height="32" fill="#87CEFA" />
  <rect x="224" y="64" width="32" height="32" fill="#FFFFFF" />
  <rect x="0" y="96" width="32" height="32" fill="#DCDCDC" />
  <rect x="32" y="96" width="32" height="32" fill="#EDCFAF" />
  <rect x="64" y="96" width="32" height="32" fill="#404040" />
  <rect x="96" y="96" width="32" height="32" fill="#FFF5EE" />
  <rect x="128" y="96" width="32" height="32" fill="#D3D3D3" />
  <rect x="160" y="96" width="32" height="32" fill="#C0C0C0" />
  <rect x="192" y="96" width="32" height="32" fill="#7B68EE" />
  <rect x="224" y="96" width="32" height="32" fill="#FFFFFF" />
  <rect x="0" y="128" width="32" height="32" fill="#F0F0F0" />
  <rect x="32" y="128" width="32" height="32" fill="#FFE4C4" />
  <rect x="64" y="128" width="32" height="32" fill="#DCDCDC" />
  <rect x="96" y="128" width="32" height="32" fill="#CD853F" />
  <rect x="128" y="128" width="32" height="32" fill="#D3D3D3" />
  <rect x="160" y="128" width="32" height="32" fill="#A9A9A9" />
  <rect x="192" y="128" width="32" height="32" fill="#EEDD82" />
  <rect x="224" y="128" width="32" height="32" fill="#FFFFFF" />
  <rect x="0" y="160" width="32" height="32" fill="#E8E8E8" />
  <rect x="32" y="160" width="32" height="32" fill="#C2B280" />
  <rect x="64" y="160" width="32" height="32" fill="#FFD700" />
  <rect x="96" y="160" width="32" height="32" fill="#C0C0C0" />
  <rect x="128" y="160" width="32" height="32" fill="#E8E8E8" />
  <rect x="160" y="160" width="32" height="32" fill="#DDA0DD" />
  <rect x="192" y="160" width="32" height="32" fill="#BDB76B" />
  <rect x="224" y="160" width="32" height="32" fill="#FFFFFF" />
  <rect x="0" y="192" width="32" height="32" fill="#F5F5F5" />
  <rect x="32" y="192" width="32" height="32" fill="#D9D9D9" />
  <rect x="64" y="192" width="32" height="32" fill="#C0C0C0" />
  <rect x="96" y="192" width="32" height="32" fill="#FAFAD2" />
  <rect x="128" y="192" width="32" height="32" fill="#FFDAB9" />
  <rect x="160" y="192" width="32" height="32" fill="#C8E6C9" />
  <rect x="192" y="192" width="32" height="32" fill="#8A2BE2" />
  <rect x="224" y="192" width="32" height="32" fill="#FFFFFF" />
  <rect x="0" y="224" width="32" height="32" fill="#FCFCFC" />
  <rect x="32" y="224" width="32" height="32" fill="#FFFAFA" />
  <rect x="64" y="224" width="32" height="32" fill="#D3D3D3" />
  <rect x="96" y="224" width="32" height="32" fill="#BEBEBE" />
  <rect x="128" y="224" width="32" height="32" fill="#E0FFFF" />
  <rect x="160" y="224" width="32" height="32" fill="#DEB887" />
  <rect x="192" y="224" width="32" height="32" fill="#B0C4DE" />
  <rect x="224" y="224" width="32" height="32" fill="#FFFFFF" />
</svg>
