<svg xmlns="http://www.w3.org/2000/svg" width="256" height="256" viewBox="0 0 256 256" shape-rendering="crispEdges" role="img" aria-labelledby="title desc">
  <title id="title">Echoes of Duality</title>
  <desc id="desc">This artwork embodies the emotional polarity of confusion vs clarity through a grid pattern that simulates controlled chaos. The palette of deep navy and stark black, contrasted by single accents of white and dim cyan, creates a tension that reflects the push-and-pull of clarity amidst confusion. The contrast lies within the layout, where one side leans towards order and the other distorts it through broken pixels, ensuring that the viewer feels the struggle between symmetry and fracture. Every pixel placement echoes the thematic duality presented in the seed.</desc>
  <rect width="256" height="256" fill="#FFFFFF" />
  <rect x="0" y="0" width="32" height="32" fill="#000000" />
  <rect x="32" y="0" width="32" height="32" fill="#000000" />
  <rect x="64" y="0" width="32" height="32" fill="#FFFFFF" />
  <rect x="96" y="0" width="32" height="32" fill="#000000" />
  <rect x="128" y="0" width="32" height="32" fill="#222222" />
  <rect x="160" y="0" width="32" height="32" fill="#005B5C" />
  <rect x="192" y="0" width="32" height="32" fill="#000000" />
  <rect x="224" y="0" width="32" height="32" fill="#000000" />
  <rect x="0" y="32" width="32" height="32" fill="#000000" />
  <rect x="32" y="32" width="32" height="32" fill="#FFFFFF" />
  <rect x="64" y="32" width="32" height="32" fill="#FFFFFF" />
  <rect x="96" y="32" width="32" height="32" fill="#000000" />
  <rect x="128" y="32" width="32" height="32" fill="#005B5C" />
  <rect x="160" y="32" width="32" height="32" fill="#222222" />
  <rect x="192" y="32" width="32" height="32" fill="#000000" />
  <rect x="224" y="32" width="32" height="32" fill="#000000" />
  <rect x="0" y="64" width="32" height="32" fill="#005B5C" />
  <rect x="32" y="64" width="32" height="32" fill="#005B5C" />
  <rect x="64" y="64" width="32" height="32" fill="#000000" />
  <rect x="96" y="64" width="32" height="32" fill="#FFFFFF" />
  <rect x="128" y="64" width="32" height="32" fill="#000000" />
  <rect x="160" y="64" width="32" height="32" fill="#005B5C" />
  <rect x="192" y="64" width="32" height="32" fill="#000000" />
  <rect x="224" y="64" width="32" height="32" fill="#222222" />
  <rect x="0" y="96" width="32" height="32" fill="#222222" />
  <rect x="32" y="96" width="32" height="32" fill="#005B5C" />
  <rect x="64" y="96" width="32" height="32" fill="#000000" />
  <rect x="96" y="96" width="32" height="32" fill="#000000" />
  <rect x="128" y="96" width="32" height="32" fill="#FFFFFF" />
  <rect x="160" y="96" width="32" height="32" fill="#005B5C" />
  <rect x="192" y="96" width="32" height="32" fill="#222222" />
  <rect x="224" y="96" width="32" height="32" fill="#000000" />
  <rect x="0" y="128" width="32" height="32" fill="#000000" />
  <rect x="32" y="128" width="32" height="32" fill="#000000" />
  <rect x="64" y="128" width="32" height="32" fill="#222222" />
  <rect x="96" y="128" width="32" height="32" fill="#005B5C" />
  <rect x="128" y="128" width="32" height="32" fill="#000000" />
  <rect x="160" y="128" width="32" height="32" fill="#000000" />
  <rect x="192" y="128" width="32" height="32" fill="#005B5C" />
  <rect x="224" y="128" width="32" height="32" fill="#FFFFFF" />
  <rect x="0" y="160" width="32" height="32" fill="#FFFFFF" />
  <rect x="32" y="160" width="32" height="32" fill="#005B5C" />
  <rect x="64" y="160" width="32" height="32" fill="#000000" />
  <rect x="96" y="160" width="32" height="32" fill="#222222" />
  <rect x="128" y="160" width="32" height="32" fill="#000000" />
  <rect x="160" y="160" width="32" height="32" fill="#005B5C" />
  <rect x="192" y="160" width="32" height="32" fill="#005B5C" />
  <rect x="224" y="160" width="32" height="32" fill="#000000" />
  <rect x="0" y="192" width="32" height="32" fill="#000000" />
  <rect x="32" y="192" width="32" height="32" fill="#000000" />
  <rect x="64" y="192" width="32" height="32" fill="#000000" />
  <rect x="96" y="192" width="32" height="32" fill="#005B5C" />
  <rect x="128" y="192" width="32" height="32" fill="#FFFFFF" />
  <rect x="160" y="192" width="32" height="32" fill="#000000" />
  <rect x="192" y="192" width="32" height="32" fill="#222222" />
  <rect x="224" y="192" width="32" height="32" fill="#000000" />
  <rect x="0" y="224" width="32" height="32" fill="#005B5C" />
  <rect x="32" y="224" width="32" height="32" fill="#005B5C" />
  <rect x="64" y="224" width="32" height="32" fill="#000000" />
  <rect x="96" y="224" width="32" height="32" fill="#000000" />
  <rect x="128" y="224" width="32" height="32" fill="#000000" />
  <rect x="160" y="224" width="32" height="32" fill="#000000" />
  <rect x="192" y="224" width="32" height="32" fill="#000000" />
  <rect x="224" y="224" width="32" height="32" fill="#000000" />
</svg>
