<svg xmlns="http://www.w3.org/2000/svg" width="256" height="256" viewBox="0 0 256 256" shape-rendering="crispEdges" role="img" aria-labelledby="title desc">
  <title id="title">Pulse Amidst Static</title>
  <desc id="desc">The emotional tone fluctuates between clarity and confusion, represented by a visual conflict of bright accents and muted fields. The palette balances 'signal_green' and 'hot_magenta' to manifest 'signal' against layers of 'static_gray' and 'dead_black', echoing an interplay of noise within the framework of memory. Central collision occurs at the core, where a narrow path of 'signal' marking, defined by the green, emerges from dense gray static, suggesting resilience in a chaotic field.</desc>
  <rect width="256" height="256" fill="#FFFFFF" />
  <rect x="0" y="0" width="32" height="32" fill="#000000" />
  <rect x="32" y="0" width="32" height="32" fill="#FFFFFF" />
  <rect x="64" y="0" width="32" height="32" fill="#444444" />
  <rect x="96" y="0" width="32" height="32" fill="#11FF44" />
  <rect x="128" y="0" width="32" height="32" fill="#FFFF00" />
  <rect x="160" y="0" width="32" height="32" fill="#000022" />
  <rect x="192" y="0" width="32" height="32" fill="#555555" />
  <rect x="224" y="0" width="32" height="32" fill="#000000" />
  <rect x="0" y="32" width="32" height="32" fill="#222222" />
  <rect x="32" y="32" width="32" height="32" fill="#444444" />
  <rect x="64" y="32" width="32" height="32" fill="#888888" />
  <rect x="96" y="32" width="32" height="32" fill="#000000" />
  <rect x="128" y="32" width="32" height="32" fill="#FF00FF" />
  <rect x="160" y="32" width="32" height="32" fill="#00FFFF" />
  <rect x="192" y="32" width="32" height="32" fill="#FFFFFF" />
  <rect x="224" y="32" width="32" height="32" fill="#AAAAAA" />
  <rect x="0" y="64" width="32" height="32" fill="#444444" />
  <rect x="32" y="64" width="32" height="32" fill="#FFFF00" />
  <rect x="64" y="64" width="32" height="32" fill="#333333" />
  <rect x="96" y="64" width="32" height="32" fill="#11FF44" />
  <rect x="128" y="64" width="32" height="32" fill="#FF0000" />
  <rect x="160" y="64" width="32" height="32" fill="#000022" />
  <rect x="192" y="64" width="32" height="32" fill="#555555" />
  <rect x="224" y="64" width="32" height="32" fill="#222222" />
  <rect x="0" y="96" width="32" height="32" fill="#888888" />
  <rect x="32" y="96" width="32" height="32" fill="#000000" />
  <rect x="64" y="96" width="32" height="32" fill="#444444" />
  <rect x="96" y="96" width="32" height="32" fill="#DDDDDD" />
  <rect x="128" y="96" width="32" height="32" fill="#000000" />
  <rect x="160" y="96" width="32" height="32" fill="#FFFF00" />
  <rect x="192" y="96" width="32" height="32" fill="#00FFFF" />
  <rect x="224" y="96" width="32" height="32" fill="#222222" />
  <rect x="0" y="128" width="32" height="32" fill="#111111" />
  <rect x="32" y="128" width="32" height="32" fill="#AAAAAA" />
  <rect x="64" y="128" width="32" height="32" fill="#000000" />
  <rect x="96" y="128" width="32" height="32" fill="#11FF44" />
  <rect x="128" y="128" width="32" height="32" fill="#888888" />
  <rect x="160" y="128" width="32" height="32" fill="#FF00FF" />
  <rect x="192" y="128" width="32" height="32" fill="#333333" />
  <rect x="224" y="128" width="32" height="32" fill="#444444" />
  <rect x="0" y="160" width="32" height="32" fill="#000000" />
  <rect x="32" y="160" width="32" height="32" fill="#222222" />
  <rect x="64" y="160" width="32" height="32" fill="#999999" />
  <rect x="96" y="160" width="32" height="32" fill="#FF0000" />
  <rect x="128" y="160" width="32" height="32" fill="#444444" />
  <rect x="160" y="160" width="32" height="32" fill="#11FF44" />
  <rect x="192" y="160" width="32" height="32" fill="#FFFFFF" />
  <rect x="224" y="160" width="32" height="32" fill="#555555" />
  <rect x="0" y="192" width="32" height="32" fill="#DDDDDD" />
  <rect x="32" y="192" width="32" height="32" fill="#444444" />
  <rect x="64" y="192" width="32" height="32" fill="#000000" />
  <rect x="96" y="192" width="32" height="32" fill="#11FF44" />
  <rect x="128" y="192" width="32" height="32" fill="#AAAAAA" />
  <rect x="160" y="192" width="32" height="32" fill="#222222" />
  <rect x="192" y="192" width="32" height="32" fill="#FFFF00" />
  <rect x="224" y="192" width="32" height="32" fill="#000000" />
  <rect x="0" y="224" width="32" height="32" fill="#222222" />
  <rect x="32" y="224" width="32" height="32" fill="#111111" />
  <rect x="64" y="224" width="32" height="32" fill="#777777" />
  <rect x="96" y="224" width="32" height="32" fill="#333333" />
  <rect x="128" y="224" width="32" height="32" fill="#11FF44" />
  <rect x="160" y="224" width="32" height="32" fill="#888888" />
  <rect x="192" y="224" width="32" height="32" fill="#000000" />
  <rect x="224" y="224" width="32" height="32" fill="#444444" />
</svg>
