<svg xmlns="http://www.w3.org/2000/svg" width="256" height="256" viewBox="0 0 256 256" shape-rendering="crispEdges" role="img" aria-labelledby="title desc">
  <title id="title">Echoing Pulse</title>
  <desc id="desc">This composition captures the emotional tension between 'signal' and 'noise', representing a clear pulse amidst static interference. The chosen palette, dominated by navy and dim cyan, evokes a sense of isolation and focus, with striking white accents providing clarity against the overwhelming noise. The collision occurs in the center, where the brighter colors conflict with darker shades. The layout features significant negative space to amplify the sense of solitude, with selective use of broken pixels to suggest the imperfections inherent in memory and experience.</desc>
  <rect width="256" height="256" fill="#FFFFFF" />
  <rect x="0" y="0" width="32" height="32" fill="#000000" />
  <rect x="32" y="0" width="32" height="32" fill="#001F3F" />
  <rect x="64" y="0" width="32" height="32" fill="#003B5C" />
  <rect x="96" y="0" width="32" height="32" fill="#006E94" />
  <rect x="128" y="0" width="32" height="32" fill="#0084B4" />
  <rect x="160" y="0" width="32" height="32" fill="#0078A8" />
  <rect x="192" y="0" width="32" height="32" fill="#005F8A" />
  <rect x="224" y="0" width="32" height="32" fill="#003B5C" />
  <rect x="0" y="32" width="32" height="32" fill="#FFFFFF" />
  <rect x="32" y="32" width="32" height="32" fill="#DAE8F6" />
  <rect x="64" y="32" width="32" height="32" fill="#B0D6E7" />
  <rect x="96" y="32" width="32" height="32" fill="#A0CED5" />
  <rect x="128" y="32" width="32" height="32" fill="#8CC8E8" />
  <rect x="160" y="32" width="32" height="32" fill="#7AB1C8" />
  <rect x="192" y="32" width="32" height="32" fill="#5C8EAA" />
  <rect x="224" y="32" width="32" height="32" fill="#4B7B8D" />
  <rect x="0" y="64" width="32" height="32" fill="#001F3F" />
  <rect x="32" y="64" width="32" height="32" fill="#005F8A" />
  <rect x="64" y="64" width="32" height="32" fill="#7AB1C8" />
  <rect x="96" y="64" width="32" height="32" fill="#0094CC" />
  <rect x="128" y="64" width="32" height="32" fill="#0097D5" />
  <rect x="160" y="64" width="32" height="32" fill="#007CBB" />
  <rect x="192" y="64" width="32" height="32" fill="#004959" />
  <rect x="224" y="64" width="32" height="32" fill="#001F3F" />
  <rect x="0" y="96" width="32" height="32" fill="#A0CED5" />
  <rect x="32" y="96" width="32" height="32" fill="#85B2B4" />
  <rect x="64" y="96" width="32" height="32" fill="#4B7B8D" />
  <rect x="96" y="96" width="32" height="32" fill="#0084B4" />
  <rect x="128" y="96" width="32" height="32" fill="#00778A" />
  <rect x="160" y="96" width="32" height="32" fill="#005242" />
  <rect x="192" y="96" width="32" height="32" fill="#002F33" />
  <rect x="224" y="96" width="32" height="32" fill="#000000" />
  <rect x="0" y="128" width="32" height="32" fill="#000000" />
  <rect x="32" y="128" width="32" height="32" fill="#003B5C" />
  <rect x="64" y="128" width="32" height="32" fill="#005F8A" />
  <rect x="96" y="128" width="32" height="32" fill="#0084B4" />
  <rect x="128" y="128" width="32" height="32" fill="#003B5C" />
  <rect x="160" y="128" width="32" height="32" fill="#002033" />
  <rect x="192" y="128" width="32" height="32" fill="#001F3F" />
  <rect x="224" y="128" width="32" height="32" fill="#003B5C" />
  <rect x="0" y="160" width="32" height="32" fill="#DAE8F6" />
  <rect x="32" y="160" width="32" height="32" fill="#B0D6E7" />
  <rect x="64" y="160" width="32" height="32" fill="#85B2B4" />
  <rect x="96" y="160" width="32" height="32" fill="#007CBB" />
  <rect x="128" y="160" width="32" height="32" fill="#005F8A" />
  <rect x="160" y="160" width="32" height="32" fill="#002F33" />
  <rect x="192" y="160" width="32" height="32" fill="#001F3F" />
  <rect x="224" y="160" width="32" height="32" fill="#000000" />
  <rect x="0" y="192" width="32" height="32" fill="#0084B4" />
  <rect x="32" y="192" width="32" height="32" fill="#0097D5" />
  <rect x="64" y="192" width="32" height="32" fill="#006E94" />
  <rect x="96" y="192" width="32" height="32" fill="#004959" />
  <rect x="128" y="192" width="32" height="32" fill="#0A556C" />
  <rect x="160" y="192" width="32" height="32" fill="#1B7479" />
  <rect x="192" y="192" width="32" height="32" fill="#005F8A" />
  <rect x="224" y="192" width="32" height="32" fill="#001F3F" />
  <rect x="0" y="224" width="32" height="32" fill="#4B7B8D" />
  <rect x="32" y="224" width="32" height="32" fill="#B0C6D5" />
  <rect x="64" y="224" width="32" height="32" fill="#E7F1F8" />
  <rect x="96" y="224" width="32" height="32" fill="#005242" />
  <rect x="128" y="224" width="32" height="32" fill="#005F8A" />
  <rect x="160" y="224" width="32" height="32" fill="#003B5C" />
  <rect x="192" y="224" width="32" height="32" fill="#000000" />
  <rect x="224" y="224" width="32" height="32" fill="#000000" />
</svg>
