<svg xmlns="http://www.w3.org/2000/svg" width="256" height="256" viewBox="0 0 256 256" shape-rendering="crispEdges" role="img" aria-labelledby="title desc">
  <title id="title">Echoes of Signal</title>
  <desc id="desc">The emotional tone reflects an interplay between clarity and disruption, symbolizing the struggle of a bright signal against the overwhelming presence of noise. The palette, dominated by shades of signal green and electric blue with accents of hot magenta, evokes a sense of urgency and visibility amidst static gray and dead black, suggesting a vibrant path amidst confusion. The main collision occurs in the center, where brighter colors clash with darker hues, signifying moments of clarity deeply embedded within chaotic noise. The spiral layout enhances the forward movement, capturing a sense of exposure countered by sheltering layers, embodying the essence of the seed.</desc>
  <rect width="256" height="256" fill="#FFFFFF" />
  <rect x="0" y="0" width="32" height="32" fill="#00FF00" />
  <rect x="32" y="0" width="32" height="32" fill="#00BFFF" />
  <rect x="64" y="0" width="32" height="32" fill="#101010" />
  <rect x="96" y="0" width="32" height="32" fill="#2C2C2C" />
  <rect x="128" y="0" width="32" height="32" fill="#7F7F7F" />
  <rect x="160" y="0" width="32" height="32" fill="#FF00FF" />
  <rect x="192" y="0" width="32" height="32" fill="#000000" />
  <rect x="224" y="0" width="32" height="32" fill="#444444" />
  <rect x="0" y="32" width="32" height="32" fill="#00FF00" />
  <rect x="32" y="32" width="32" height="32" fill="#1E90FF" />
  <rect x="64" y="32" width="32" height="32" fill="#1C1C1C" />
  <rect x="96" y="32" width="32" height="32" fill="#2E2E2E" />
  <rect x="128" y="32" width="32" height="32" fill="#6C6C6C" />
  <rect x="160" y="32" width="32" height="32" fill="#FF69B4" />
  <rect x="192" y="32" width="32" height="32" fill="#000000" />
  <rect x="224" y="32" width="32" height="32" fill="#333333" />
  <rect x="0" y="64" width="32" height="32" fill="#00FF00" />
  <rect x="32" y="64" width="32" height="32" fill="#00A8E1" />
  <rect x="64" y="64" width="32" height="32" fill="#202020" />
  <rect x="96" y="64" width="32" height="32" fill="#3D3D3D" />
  <rect x="128" y="64" width="32" height="32" fill="#A9A9A9" />
  <rect x="160" y="64" width="32" height="32" fill="#FF1493" />
  <rect x="192" y="64" width="32" height="32" fill="#303030" />
  <rect x="224" y="64" width="32" height="32" fill="#222222" />
  <rect x="0" y="96" width="32" height="32" fill="#00FF00" />
  <rect x="32" y="96" width="32" height="32" fill="#0080FF" />
  <rect x="64" y="96" width="32" height="32" fill="#181818" />
  <rect x="96" y="96" width="32" height="32" fill="#4B4B4B" />
  <rect x="128" y="96" width="32" height="32" fill="#BEBEBE" />
  <rect x="160" y="96" width="32" height="32" fill="#FF00FF" />
  <rect x="192" y="96" width="32" height="32" fill="#444444" />
  <rect x="224" y="96" width="32" height="32" fill="#111111" />
  <rect x="0" y="128" width="32" height="32" fill="#00FF00" />
  <rect x="32" y="128" width="32" height="32" fill="#005BFF" />
  <rect x="64" y="128" width="32" height="32" fill="#121212" />
  <rect x="96" y="128" width="32" height="32" fill="#5F5F5F" />
  <rect x="128" y="128" width="32" height="32" fill="#CDCDCD" />
  <rect x="160" y="128" width="32" height="32" fill="#FF6347" />
  <rect x="192" y="128" width="32" height="32" fill="#666666" />
  <rect x="224" y="128" width="32" height="32" fill="#000000" />
  <rect x="0" y="160" width="32" height="32" fill="#00FF00" />
  <rect x="32" y="160" width="32" height="32" fill="#0033FF" />
  <rect x="64" y="160" width="32" height="32" fill="#0C0C0C" />
  <rect x="96" y="160" width="32" height="32" fill="#696969" />
  <rect x="128" y="160" width="32" height="32" fill="#DFDFDF" />
  <rect x="160" y="160" width="32" height="32" fill="#FF7F50" />
  <rect x="192" y="160" width="32" height="32" fill="#333333" />
  <rect x="224" y="160" width="32" height="32" fill="#111111" />
  <rect x="0" y="192" width="32" height="32" fill="#00FF00" />
  <rect x="32" y="192" width="32" height="32" fill="#0000CD" />
  <rect x="64" y="192" width="32" height="32" fill="#060606" />
  <rect x="96" y="192" width="32" height="32" fill="#7A7A7A" />
  <rect x="128" y="192" width="32" height="32" fill="#C0C0C0" />
  <rect x="160" y="192" width="32" height="32" fill="#FF4500" />
  <rect x="192" y="192" width="32" height="32" fill="#444444" />
  <rect x="224" y="192" width="32" height="32" fill="#000000" />
  <rect x="0" y="224" width="32" height="32" fill="#00FF00" />
  <rect x="32" y="224" width="32" height="32" fill="#1E90FF" />
  <rect x="64" y="224" width="32" height="32" fill="#0A0A0A" />
  <rect x="96" y="224" width="32" height="32" fill="#5C5C5C" />
  <rect x="128" y="224" width="32" height="32" fill="#D3D3D3" />
  <rect x="160" y="224" width="32" height="32" fill="#FF8C00" />
  <rect x="192" y="224" width="32" height="32" fill="#222222" />
  <rect x="224" y="224" width="32" height="32" fill="#000000" />
</svg>
