<svg xmlns="http://www.w3.org/2000/svg" width="256" height="256" viewBox="0 0 256 256" shape-rendering="crispEdges" role="img" aria-labelledby="title desc">
  <title id="title">Overflow vs Containment</title>
  <desc id="desc">The emotional tone reflects a juxtaposition between calm and rage. The palette employs intense reds against soothing pale blues, suggesting collision and overflow where bright colors clash with muted ones. The main contrast emerges centrally, where warm tones break through cooler fields, echoing the concept of emotions spilling beyond boundaries. The broken pixels introduce intentional disruption, emphasizing imperfections in both calm and rage, while the layout focuses on a central theme of tension overlapping with an external calmness.</desc>
  <rect width="256" height="256" fill="#FFFFFF" />
  <rect x="0" y="0" width="32" height="32" fill="#CC0000" />
  <rect x="32" y="0" width="32" height="32" fill="#CC0000" />
  <rect x="64" y="0" width="32" height="32" fill="#CC0000" />
  <rect x="96" y="0" width="32" height="32" fill="#CC0000" />
  <rect x="128" y="0" width="32" height="32" fill="#B0C4DE" />
  <rect x="160" y="0" width="32" height="32" fill="#B0C4DE" />
  <rect x="192" y="0" width="32" height="32" fill="#B0C4DE" />
  <rect x="224" y="0" width="32" height="32" fill="#B0C4DE" />
  <rect x="0" y="32" width="32" height="32" fill="#CC0000" />
  <rect x="32" y="32" width="32" height="32" fill="#CC0000" />
  <rect x="64" y="32" width="32" height="32" fill="#CC0000" />
  <rect x="96" y="32" width="32" height="32" fill="#CC0000" />
  <rect x="128" y="32" width="32" height="32" fill="#B0C4DE" />
  <rect x="160" y="32" width="32" height="32" fill="#B0C4DE" />
  <rect x="192" y="32" width="32" height="32" fill="#B0C4DE" />
  <rect x="224" y="32" width="32" height="32" fill="#FFFFFF" />
  <rect x="0" y="64" width="32" height="32" fill="#CC0000" />
  <rect x="32" y="64" width="32" height="32" fill="#CC0000" />
  <rect x="64" y="64" width="32" height="32" fill="#FF6347" />
  <rect x="96" y="64" width="32" height="32" fill="#CC0000" />
  <rect x="128" y="64" width="32" height="32" fill="#B0C4DE" />
  <rect x="160" y="64" width="32" height="32" fill="#FFFFFF" />
  <rect x="192" y="64" width="32" height="32" fill="#FFFFFF" />
  <rect x="224" y="64" width="32" height="32" fill="#FFFFFF" />
  <rect x="0" y="96" width="32" height="32" fill="#000000" />
  <rect x="32" y="96" width="32" height="32" fill="#CC0000" />
  <rect x="64" y="96" width="32" height="32" fill="#FF6347" />
  <rect x="96" y="96" width="32" height="32" fill="#CC0000" />
  <rect x="128" y="96" width="32" height="32" fill="#B0C4DE" />
  <rect x="160" y="96" width="32" height="32" fill="#B0C4DE" />
  <rect x="192" y="96" width="32" height="32" fill="#B0C4DE" />
  <rect x="224" y="96" width="32" height="32" fill="#FFFFFF" />
  <rect x="0" y="128" width="32" height="32" fill="#000000" />
  <rect x="32" y="128" width="32" height="32" fill="#B0C4DE" />
  <rect x="64" y="128" width="32" height="32" fill="#B0C4DE" />
  <rect x="96" y="128" width="32" height="32" fill="#B0C4DE" />
  <rect x="128" y="128" width="32" height="32" fill="#B0C4DE" />
  <rect x="160" y="128" width="32" height="32" fill="#FFFFFF" />
  <rect x="192" y="128" width="32" height="32" fill="#FFFFFF" />
  <rect x="224" y="128" width="32" height="32" fill="#FFFFFF" />
  <rect x="0" y="160" width="32" height="32" fill="#000000" />
  <rect x="32" y="160" width="32" height="32" fill="#B0C4DE" />
  <rect x="64" y="160" width="32" height="32" fill="#B0C4DE" />
  <rect x="96" y="160" width="32" height="32" fill="#B0C4DE" />
  <rect x="128" y="160" width="32" height="32" fill="#B0C4DE" />
  <rect x="160" y="160" width="32" height="32" fill="#FFFFFF" />
  <rect x="192" y="160" width="32" height="32" fill="#FFFFFF" />
  <rect x="224" y="160" width="32" height="32" fill="#FFFFFF" />
  <rect x="0" y="192" width="32" height="32" fill="#000000" />
  <rect x="32" y="192" width="32" height="32" fill="#000000" />
  <rect x="64" y="192" width="32" height="32" fill="#000000" />
  <rect x="96" y="192" width="32" height="32" fill="#B0C4DE" />
  <rect x="128" y="192" width="32" height="32" fill="#FFFFFF" />
  <rect x="160" y="192" width="32" height="32" fill="#FFFFFF" />
  <rect x="192" y="192" width="32" height="32" fill="#FFFFFF" />
  <rect x="224" y="192" width="32" height="32" fill="#FFFFFF" />
  <rect x="0" y="224" width="32" height="32" fill="#000000" />
  <rect x="32" y="224" width="32" height="32" fill="#B0C4DE" />
  <rect x="64" y="224" width="32" height="32" fill="#B0C4DE" />
  <rect x="96" y="224" width="32" height="32" fill="#B0C4DE" />
  <rect x="128" y="224" width="32" height="32" fill="#B0C4DE" />
  <rect x="160" y="224" width="32" height="32" fill="#FFFFFF" />
  <rect x="192" y="224" width="32" height="32" fill="#FFFFFF" />
  <rect x="224" y="224" width="32" height="32" fill="#FFFFFF" />
</svg>
