<svg xmlns="http://www.w3.org/2000/svg" width="256" height="256" viewBox="0 0 256 256" shape-rendering="crispEdges" role="img" aria-labelledby="title desc">
  <title id="title">Overflow vs. Containment</title>
  <desc id="desc">The emotional tone reflects a tense contrast between tenderness and rage, depicted through color placement. The palette combines deep blacks and reds to signify intense emotions, interspersed with soft pale blues and whites for contrast. The collision occurs diagonally, with deep reds flooding one corner, while muted cool tones contain the opposite, suggesting an emotional battle. The broken pixels add subtle disruptions, imbuing the piece with a sense of imperfection and struggle between the two emotions, echoing feelings of guilt and forgiveness.</desc>
  <rect width="256" height="256" fill="#FFFFFF" />
  <rect x="0" y="0" width="32" height="32" fill="#FF0000" />
  <rect x="32" y="0" width="32" height="32" fill="#FF4444" />
  <rect x="64" y="0" width="32" height="32" fill="#FF6666" />
  <rect x="96" y="0" width="32" height="32" fill="#FF8888" />
  <rect x="128" y="0" width="32" height="32" fill="#FFFFFF" />
  <rect x="160" y="0" width="32" height="32" fill="#B0C4DE" />
  <rect x="192" y="0" width="32" height="32" fill="#B0E0E6" />
  <rect x="224" y="0" width="32" height="32" fill="#87CEFA" />
  <rect x="0" y="32" width="32" height="32" fill="#FF0000" />
  <rect x="32" y="32" width="32" height="32" fill="#FF4444" />
  <rect x="64" y="32" width="32" height="32" fill="#FFFF00" />
  <rect x="96" y="32" width="32" height="32" fill="#FFFF88" />
  <rect x="128" y="32" width="32" height="32" fill="#FFFFFF" />
  <rect x="160" y="32" width="32" height="32" fill="#B0C4DE" />
  <rect x="192" y="32" width="32" height="32" fill="#B0E0E6" />
  <rect x="224" y="32" width="32" height="32" fill="#87CEFA" />
  <rect x="0" y="64" width="32" height="32" fill="#FF2222" />
  <rect x="32" y="64" width="32" height="32" fill="#FF6666" />
  <rect x="64" y="64" width="32" height="32" fill="#FF8888" />
  <rect x="96" y="64" width="32" height="32" fill="#FFAAAA" />
  <rect x="128" y="64" width="32" height="32" fill="#C0C0C0" />
  <rect x="160" y="64" width="32" height="32" fill="#A8D8EA" />
  <rect x="192" y="64" width="32" height="32" fill="#87CEEB" />
  <rect x="224" y="64" width="32" height="32" fill="#ADD8E6" />
  <rect x="0" y="96" width="32" height="32" fill="#CC0000" />
  <rect x="32" y="96" width="32" height="32" fill="#CC4444" />
  <rect x="64" y="96" width="32" height="32" fill="#FFFFFF" />
  <rect x="96" y="96" width="32" height="32" fill="#F0F8FF" />
  <rect x="128" y="96" width="32" height="32" fill="#E0FFFF" />
  <rect x="160" y="96" width="32" height="32" fill="#AEEEEE" />
  <rect x="192" y="96" width="32" height="32" fill="#B0D0FF" />
  <rect x="224" y="96" width="32" height="32" fill="#87CEEB" />
  <rect x="0" y="128" width="32" height="32" fill="#990000" />
  <rect x="32" y="128" width="32" height="32" fill="#990000" />
  <rect x="64" y="128" width="32" height="32" fill="#FFFFFF" />
  <rect x="96" y="128" width="32" height="32" fill="#F8F8FF" />
  <rect x="128" y="128" width="32" height="32" fill="#D3D3D3" />
  <rect x="160" y="128" width="32" height="32" fill="#A3C1DA" />
  <rect x="192" y="128" width="32" height="32" fill="#A1E0E0" />
  <rect x="224" y="128" width="32" height="32" fill="#87CEFA" />
  <rect x="0" y="160" width="32" height="32" fill="#660000" />
  <rect x="32" y="160" width="32" height="32" fill="#AA0000" />
  <rect x="64" y="160" width="32" height="32" fill="#FFB0B0" />
  <rect x="96" y="160" width="32" height="32" fill="#FFFFFF" />
  <rect x="128" y="160" width="32" height="32" fill="#B0C4DE" />
  <rect x="160" y="160" width="32" height="32" fill="#90CED1" />
  <rect x="192" y="160" width="32" height="32" fill="#87CEEB" />
  <rect x="224" y="160" width="32" height="32" fill="#A0D9D8" />
  <rect x="0" y="192" width="32" height="32" fill="#330000" />
  <rect x="32" y="192" width="32" height="32" fill="#CC4444" />
  <rect x="64" y="192" width="32" height="32" fill="#FF9999" />
  <rect x="96" y="192" width="32" height="32" fill="#F1F1F1" />
  <rect x="128" y="192" width="32" height="32" fill="#B0E0E6" />
  <rect x="160" y="192" width="32" height="32" fill="#A0D9D8" />
  <rect x="192" y="192" width="32" height="32" fill="#B0E0E6" />
  <rect x="224" y="192" width="32" height="32" fill="#87CEFA" />
  <rect x="0" y="224" width="32" height="32" fill="#000000" />
  <rect x="32" y="224" width="32" height="32" fill="#000000" />
  <rect x="64" y="224" width="32" height="32" fill="#440000" />
  <rect x="96" y="224" width="32" height="32" fill="#FFCCCC" />
  <rect x="128" y="224" width="32" height="32" fill="#FFFFFF" />
  <rect x="160" y="224" width="32" height="32" fill="#E0F7FA" />
  <rect x="192" y="224" width="32" height="32" fill="#E1FFFF" />
  <rect x="224" y="224" width="32" height="32" fill="#87CEEB" />
</svg>
