<svg xmlns="http://www.w3.org/2000/svg" width="256" height="256" viewBox="0 0 256 256" shape-rendering="crispEdges" role="img" aria-labelledby="title desc">
  <title id="title">Erosion of Certainty</title>
  <desc id="desc">The emotional tone contrasts the warmth of trust with the shadows of suspicion. The palette combines soft aquas and greys with sharp reds and deep blues, lending the piece both a serene and urgent feel. The collision occurs at the center, where darker colors invade the lighter, symbolizing a struggle between trust and suspicion. The abstract patterns formed are jagged and broken, aligning with the seed's theme of resilience and fragility, while also suggesting a subtle edge of noise beneath calm surfaces.</desc>
  <rect width="256" height="256" fill="#FFFFFF" />
  <rect x="0" y="0" width="32" height="32" fill="#A7E2E5" />
  <rect x="32" y="0" width="32" height="32" fill="#B5C7CB" />
  <rect x="64" y="0" width="32" height="32" fill="#D0C7CF" />
  <rect x="96" y="0" width="32" height="32" fill="#B52A2A" />
  <rect x="128" y="0" width="32" height="32" fill="#9E1A1A" />
  <rect x="160" y="0" width="32" height="32" fill="#CCDAE1" />
  <rect x="192" y="0" width="32" height="32" fill="#B5C5C7" />
  <rect x="224" y="0" width="32" height="32" fill="#E4C5C5" />
  <rect x="0" y="32" width="32" height="32" fill="#A1B7B9" />
  <rect x="32" y="32" width="32" height="32" fill="#F4A8A4" />
  <rect x="64" y="32" width="32" height="32" fill="#9A7C8D" />
  <rect x="96" y="32" width="32" height="32" fill="#6A9DDA" />
  <rect x="128" y="32" width="32" height="32" fill="#DDCCDD" />
  <rect x="160" y="32" width="32" height="32" fill="#E4BEC4" />
  <rect x="192" y="32" width="32" height="32" fill="#D6A2B5" />
  <rect x="224" y="32" width="32" height="32" fill="#5D6A7B" />
  <rect x="0" y="64" width="32" height="32" fill="#DEE6E9" />
  <rect x="32" y="64" width="32" height="32" fill="#B4C3C5" />
  <rect x="64" y="64" width="32" height="32" fill="#C8CDCC" />
  <rect x="96" y="64" width="32" height="32" fill="#C2D7E2" />
  <rect x="128" y="64" width="32" height="32" fill="#4B1D22" />
  <rect x="160" y="64" width="32" height="32" fill="#303D4A" />
  <rect x="192" y="64" width="32" height="32" fill="#C9DEE3" />
  <rect x="224" y="64" width="32" height="32" fill="#A7A9B8" />
  <rect x="0" y="96" width="32" height="32" fill="#8D94A0" />
  <rect x="32" y="96" width="32" height="32" fill="#FFFFFF" />
  <rect x="64" y="96" width="32" height="32" fill="#D2D6D7" />
  <rect x="96" y="96" width="32" height="32" fill="#E9F1F2" />
  <rect x="128" y="96" width="32" height="32" fill="#B1C8D3" />
  <rect x="160" y="96" width="32" height="32" fill="#DFA3A1" />
  <rect x="192" y="96" width="32" height="32" fill="#34537C" />
  <rect x="224" y="96" width="32" height="32" fill="#B6A2B1" />
  <rect x="0" y="128" width="32" height="32" fill="#D7D8D7" />
  <rect x="32" y="128" width="32" height="32" fill="#A1BDC4" />
  <rect x="64" y="128" width="32" height="32" fill="#E8E3E1" />
  <rect x="96" y="128" width="32" height="32" fill="#4F5866" />
  <rect x="128" y="128" width="32" height="32" fill="#663C49" />
  <rect x="160" y="128" width="32" height="32" fill="#C6A8B1" />
  <rect x="192" y="128" width="32" height="32" fill="#E3C8D3" />
  <rect x="224" y="128" width="32" height="32" fill="#AAB2B0" />
  <rect x="0" y="160" width="32" height="32" fill="#B3D0D4" />
  <rect x="32" y="160" width="32" height="32" fill="#5F717D" />
  <rect x="64" y="160" width="32" height="32" fill="#D5C6D0" />
  <rect x="96" y="160" width="32" height="32" fill="#E2C0C8" />
  <rect x="128" y="160" width="32" height="32" fill="#8E6B7B" />
  <rect x="160" y="160" width="32" height="32" fill="#4F5D6D" />
  <rect x="192" y="160" width="32" height="32" fill="#C8D5DA" />
  <rect x="224" y="160" width="32" height="32" fill="#6C8095" />
  <rect x="0" y="192" width="32" height="32" fill="#F8E3E1" />
  <rect x="32" y="192" width="32" height="32" fill="#C5D7DE" />
  <rect x="64" y="192" width="32" height="32" fill="#D5B5B0" />
  <rect x="96" y="192" width="32" height="32" fill="#5196CC" />
  <rect x="128" y="192" width="32" height="32" fill="#4A5D72" />
  <rect x="160" y="192" width="32" height="32" fill="#AE2A31" />
  <rect x="192" y="192" width="32" height="32" fill="#D7B2B6" />
  <rect x="224" y="192" width="32" height="32" fill="#8DA4B1" />
  <rect x="0" y="224" width="32" height="32" fill="#C5E0E1" />
  <rect x="32" y="224" width="32" height="32" fill="#BF6B74" />
  <rect x="64" y="224" width="32" height="32" fill="#D4C7CB" />
  <rect x="96" y="224" width="32" height="32" fill="#A5C7D5" />
  <rect x="128" y="224" width="32" height="32" fill="#92EDFB" />
  <rect x="160" y="224" width="32" height="32" fill="#BCC0B1" />
  <rect x="192" y="224" width="32" height="32" fill="#E0E2DB" />
  <rect x="224" y="224" width="32" height="32" fill="#B7B8BB" />
</svg>
