<svg xmlns="http://www.w3.org/2000/svg" width="256" height="256" viewBox="0 0 256 256" shape-rendering="crispEdges" role="img" aria-labelledby="title desc">
  <title id="title">Converging Forces</title>
  <desc id="desc">This composition conveys the emotional tension between defiance and submission, highlighted by a color palette that contrasts warm coral and soft amber against the coolness of blue-black and cold slate. The pattern resembles a clash of islands and veils, creating a busy interior framed by quieter edges. The central area embraces a burst of activity (representing defiance) while the edges reflect the softness of submission, culminating in a visual interplay of dense cluster and quiet space. Each broken pixel increases an unsettling sense of disruption, mirroring the complexity of the emotional conflict suggested by the seed.</desc>
  <rect width="256" height="256" fill="#FFFFFF" />
  <rect x="0" y="0" width="32" height="32" fill="#FF6F61" />
  <rect x="32" y="0" width="32" height="32" fill="#FFB74D" />
  <rect x="64" y="0" width="32" height="32" fill="#000000" />
  <rect x="96" y="0" width="32" height="32" fill="#666666" />
  <rect x="128" y="0" width="32" height="32" fill="#FF6F61" />
  <rect x="160" y="0" width="32" height="32" fill="#000000" />
  <rect x="192" y="0" width="32" height="32" fill="#FFB74D" />
  <rect x="224" y="0" width="32" height="32" fill="#666666" />
  <rect x="0" y="32" width="32" height="32" fill="#FFB74D" />
  <rect x="32" y="32" width="32" height="32" fill="#FF6F61" />
  <rect x="64" y="32" width="32" height="32" fill="#222222" />
  <rect x="96" y="32" width="32" height="32" fill="#444444" />
  <rect x="128" y="32" width="32" height="32" fill="#FFB74D" />
  <rect x="160" y="32" width="32" height="32" fill="#222222" />
  <rect x="192" y="32" width="32" height="32" fill="#444444" />
  <rect x="224" y="32" width="32" height="32" fill="#000000" />
  <rect x="0" y="64" width="32" height="32" fill="#000000" />
  <rect x="32" y="64" width="32" height="32" fill="#444444" />
  <rect x="64" y="64" width="32" height="32" fill="#FFB74D" />
  <rect x="96" y="64" width="32" height="32" fill="#FF6F61" />
  <rect x="128" y="64" width="32" height="32" fill="#000000" />
  <rect x="160" y="64" width="32" height="32" fill="#666666" />
  <rect x="192" y="64" width="32" height="32" fill="#888888" />
  <rect x="224" y="64" width="32" height="32" fill="#FFB74D" />
  <rect x="0" y="96" width="32" height="32" fill="#666666" />
  <rect x="32" y="96" width="32" height="32" fill="#222222" />
  <rect x="64" y="96" width="32" height="32" fill="#000000" />
  <rect x="96" y="96" width="32" height="32" fill="#666666" />
  <rect x="128" y="96" width="32" height="32" fill="#FF6F61" />
  <rect x="160" y="96" width="32" height="32" fill="#FFB74D" />
  <rect x="192" y="96" width="32" height="32" fill="#444444" />
  <rect x="224" y="96" width="32" height="32" fill="#000000" />
  <rect x="0" y="128" width="32" height="32" fill="#FFB74D" />
  <rect x="32" y="128" width="32" height="32" fill="#000000" />
  <rect x="64" y="128" width="32" height="32" fill="#222222" />
  <rect x="96" y="128" width="32" height="32" fill="#444444" />
  <rect x="128" y="128" width="32" height="32" fill="#FF6F61" />
  <rect x="160" y="128" width="32" height="32" fill="#FFB74D" />
  <rect x="192" y="128" width="32" height="32" fill="#666666" />
  <rect x="224" y="128" width="32" height="32" fill="#222222" />
  <rect x="0" y="160" width="32" height="32" fill="#222222" />
  <rect x="32" y="160" width="32" height="32" fill="#FF6F61" />
  <rect x="64" y="160" width="32" height="32" fill="#FFB74D" />
  <rect x="96" y="160" width="32" height="32" fill="#333333" />
  <rect x="128" y="160" width="32" height="32" fill="#666666" />
  <rect x="160" y="160" width="32" height="32" fill="#000000" />
  <rect x="192" y="160" width="32" height="32" fill="#FFB74D" />
  <rect x="224" y="160" width="32" height="32" fill="#FF6F61" />
  <rect x="0" y="192" width="32" height="32" fill="#000000" />
  <rect x="32" y="192" width="32" height="32" fill="#FF6F61" />
  <rect x="64" y="192" width="32" height="32" fill="#FFB74D" />
  <rect x="96" y="192" width="32" height="32" fill="#444444" />
  <rect x="128" y="192" width="32" height="32" fill="#222222" />
  <rect x="160" y="192" width="32" height="32" fill="#FFB74D" />
  <rect x="192" y="192" width="32" height="32" fill="#666666" />
  <rect x="224" y="192" width="32" height="32" fill="#888888" />
  <rect x="0" y="224" width="32" height="32" fill="#FF6F61" />
  <rect x="32" y="224" width="32" height="32" fill="#222222" />
  <rect x="64" y="224" width="32" height="32" fill="#666666" />
  <rect x="96" y="224" width="32" height="32" fill="#FFB74D" />
  <rect x="128" y="224" width="32" height="32" fill="#444444" />
  <rect x="160" y="224" width="32" height="32" fill="#000000" />
  <rect x="192" y="224" width="32" height="32" fill="#222222" />
  <rect x="224" y="224" width="32" height="32" fill="#FF6F61" />
</svg>
