<svg xmlns="http://www.w3.org/2000/svg" width="256" height="256" viewBox="0 0 256 256" shape-rendering="crispEdges" role="img" aria-labelledby="title desc">
  <title id="title">Tension Between Echoes</title>
  <desc id="desc">This artwork embodies the emotional tension between envy and gratitude, split horizontally. The top half, encapsulating envy, features a pattern of deep shades to suggest heaviness, while the bottom, representing gratitude, uses brighter, sparking colors suggesting lightness and optimism. The contrast between the black and lime colors creates a collision of feelings, amplifying a sense of noise against the calmness below. Broken pixels introduce unpredictability, mirroring real-life imperfections in dealing with these emotions.</desc>
  <rect width="256" height="256" fill="#FFFFFF" />
  <rect x="0" y="0" width="32" height="32" fill="#000000" />
  <rect x="32" y="0" width="32" height="32" fill="#1C1C1C" />
  <rect x="64" y="0" width="32" height="32" fill="#3C3C3C" />
  <rect x="96" y="0" width="32" height="32" fill="#4DFF00" />
  <rect x="128" y="0" width="32" height="32" fill="#4DFF00" />
  <rect x="160" y="0" width="32" height="32" fill="#3C3C3C" />
  <rect x="192" y="0" width="32" height="32" fill="#1C1C1C" />
  <rect x="224" y="0" width="32" height="32" fill="#000000" />
  <rect x="0" y="32" width="32" height="32" fill="#1F1F1F" />
  <rect x="32" y="32" width="32" height="32" fill="#3A3A3A" />
  <rect x="64" y="32" width="32" height="32" fill="#4DFF00" />
  <rect x="96" y="32" width="32" height="32" fill="#4DFF00" />
  <rect x="128" y="32" width="32" height="32" fill="#4DFF00" />
  <rect x="160" y="32" width="32" height="32" fill="#4DFF00" />
  <rect x="192" y="32" width="32" height="32" fill="#1F1F1F" />
  <rect x="224" y="32" width="32" height="32" fill="#1C1C1C" />
  <rect x="0" y="64" width="32" height="32" fill="#2F2F2F" />
  <rect x="32" y="64" width="32" height="32" fill="#4DFF00" />
  <rect x="64" y="64" width="32" height="32" fill="#4DFF00" />
  <rect x="96" y="64" width="32" height="32" fill="#4DFF00" />
  <rect x="128" y="64" width="32" height="32" fill="#4DFF00" />
  <rect x="160" y="64" width="32" height="32" fill="#4DFF00" />
  <rect x="192" y="64" width="32" height="32" fill="#2F2F2F" />
  <rect x="224" y="64" width="32" height="32" fill="#1C1C1C" />
  <rect x="0" y="96" width="32" height="32" fill="#4DFF00" />
  <rect x="32" y="96" width="32" height="32" fill="#4DFF00" />
  <rect x="64" y="96" width="32" height="32" fill="#4DFF00" />
  <rect x="96" y="96" width="32" height="32" fill="#4DFF00" />
  <rect x="128" y="96" width="32" height="32" fill="#4DFF00" />
  <rect x="160" y="96" width="32" height="32" fill="#4DFF00" />
  <rect x="192" y="96" width="32" height="32" fill="#4DFF00" />
  <rect x="224" y="96" width="32" height="32" fill="#4DFF00" />
  <rect x="0" y="128" width="32" height="32" fill="#00FFFF" />
  <rect x="32" y="128" width="32" height="32" fill="#00FFFF" />
  <rect x="64" y="128" width="32" height="32" fill="#00FFFF" />
  <rect x="96" y="128" width="32" height="32" fill="#00FFFF" />
  <rect x="128" y="128" width="32" height="32" fill="#00FFFF" />
  <rect x="160" y="128" width="32" height="32" fill="#00FFFF" />
  <rect x="192" y="128" width="32" height="32" fill="#00FFFF" />
  <rect x="224" y="128" width="32" height="32" fill="#00FFFF" />
  <rect x="0" y="160" width="32" height="32" fill="#00FFFF" />
  <rect x="32" y="160" width="32" height="32" fill="#00FFFF" />
  <rect x="64" y="160" width="32" height="32" fill="#00FFFF" />
  <rect x="96" y="160" width="32" height="32" fill="#00FFFF" />
  <rect x="128" y="160" width="32" height="32" fill="#00FFFF" />
  <rect x="160" y="160" width="32" height="32" fill="#00FFFF" />
  <rect x="192" y="160" width="32" height="32" fill="#00FFFF" />
  <rect x="224" y="160" width="32" height="32" fill="#00FFFF" />
  <rect x="0" y="192" width="32" height="32" fill="#00FFFF" />
  <rect x="32" y="192" width="32" height="32" fill="#00FFFF" />
  <rect x="64" y="192" width="32" height="32" fill="#00FFFF" />
  <rect x="96" y="192" width="32" height="32" fill="#00FFFF" />
  <rect x="128" y="192" width="32" height="32" fill="#00FFFF" />
  <rect x="160" y="192" width="32" height="32" fill="#00FFFF" />
  <rect x="192" y="192" width="32" height="32" fill="#00FFFF" />
  <rect x="224" y="192" width="32" height="32" fill="#00FFFF" />
  <rect x="0" y="224" width="32" height="32" fill="#00FFFF" />
  <rect x="32" y="224" width="32" height="32" fill="#00FFFF" />
  <rect x="64" y="224" width="32" height="32" fill="#00FFFF" />
  <rect x="96" y="224" width="32" height="32" fill="#00FFFF" />
  <rect x="128" y="224" width="32" height="32" fill="#00FFFF" />
  <rect x="160" y="224" width="32" height="32" fill="#00FFFF" />
  <rect x="192" y="224" width="32" height="32" fill="#00FFFF" />
  <rect x="224" y="224" width="32" height="32" fill="#00FFFF" />
</svg>
