<svg xmlns="http://www.w3.org/2000/svg" width="256" height="256" viewBox="0 0 256 256" shape-rendering="crispEdges" role="img" aria-labelledby="title desc">
  <title id="title">Symmetric Disruption</title>
  <desc id="desc">This artwork captures the emotional tension between love and betrayal. The palette of pink, red, and gray embodies warmth and depth, creating a juxtaposition of nurturing and pain. The arrangement favors a dense lower section, suggesting betrayal rising like heat, while the upper row cools into gray tones, representing a quiet space of emptiness and reflection. By applying broken pixels, there's an intentional imperfection echoing the theme of fractured relationships. The contrast between the sharp edges and soft tones reflects the complex dynamics of attachment and separation, yielding a tension-filled aesthetic that balances chaos with calmness.</desc>
  <rect width="256" height="256" fill="#FFFFFF" />
  <rect x="0" y="0" width="32" height="32" fill="#D69D9A" />
  <rect x="32" y="0" width="32" height="32" fill="#FFB6B1" />
  <rect x="64" y="0" width="32" height="32" fill="#DB6063" />
  <rect x="96" y="0" width="32" height="32" fill="#99393E" />
  <rect x="128" y="0" width="32" height="32" fill="#BEB4B3" />
  <rect x="160" y="0" width="32" height="32" fill="#C9A6A8" />
  <rect x="192" y="0" width="32" height="32" fill="#F5C6C8" />
  <rect x="224" y="0" width="32" height="32" fill="#FFDDDD" />
  <rect x="0" y="32" width="32" height="32" fill="#F6E3E8" />
  <rect x="32" y="32" width="32" height="32" fill="#BDA2A5" />
  <rect x="64" y="32" width="32" height="32" fill="#D83B57" />
  <rect x="96" y="32" width="32" height="32" fill="#EDC1C4" />
  <rect x="128" y="32" width="32" height="32" fill="#B2A3A5" />
  <rect x="160" y="32" width="32" height="32" fill="#9F8186" />
  <rect x="192" y="32" width="32" height="32" fill="#F8E5E8" />
  <rect x="224" y="32" width="32" height="32" fill="#CC9999" />
  <rect x="0" y="64" width="32" height="32" fill="#A46B72" />
  <rect x="32" y="64" width="32" height="32" fill="#D1E3E6" />
  <rect x="64" y="64" width="32" height="32" fill="#737373" />
  <rect x="96" y="64" width="32" height="32" fill="#A0C1C9" />
  <rect x="128" y="64" width="32" height="32" fill="#B7DBD7" />
  <rect x="160" y="64" width="32" height="32" fill="#D9D5DB" />
  <rect x="192" y="64" width="32" height="32" fill="#F0F0F0" />
  <rect x="224" y="64" width="32" height="32" fill="#D0C7C7" />
  <rect x="0" y="96" width="32" height="32" fill="#B1CAE2" />
  <rect x="32" y="96" width="32" height="32" fill="#7F8C8D" />
  <rect x="64" y="96" width="32" height="32" fill="#343A40" />
  <rect x="96" y="96" width="32" height="32" fill="#A9CBD1" />
  <rect x="128" y="96" width="32" height="32" fill="#B1E0E2" />
  <rect x="160" y="96" width="32" height="32" fill="#A6CFCF" />
  <rect x="192" y="96" width="32" height="32" fill="#C8D6D6" />
  <rect x="224" y="96" width="32" height="32" fill="#FFFFFF" />
  <rect x="0" y="128" width="32" height="32" fill="#7F3535" />
  <rect x="32" y="128" width="32" height="32" fill="#B5D5DA" />
  <rect x="64" y="128" width="32" height="32" fill="#C5BFCF" />
  <rect x="96" y="128" width="32" height="32" fill="#B38892" />
  <rect x="128" y="128" width="32" height="32" fill="#D3D3D3" />
  <rect x="160" y="128" width="32" height="32" fill="#7A5D5D" />
  <rect x="192" y="128" width="32" height="32" fill="#A6A6A6" />
  <rect x="224" y="128" width="32" height="32" fill="#C2C2C2" />
  <rect x="0" y="160" width="32" height="32" fill="#F8BBD0" />
  <rect x="32" y="160" width="32" height="32" fill="#CDB5C3" />
  <rect x="64" y="160" width="32" height="32" fill="#7F4C55" />
  <rect x="96" y="160" width="32" height="32" fill="#BC3D59" />
  <rect x="128" y="160" width="32" height="32" fill="#945958" />
  <rect x="160" y="160" width="32" height="32" fill="#DDDDDD" />
  <rect x="192" y="160" width="32" height="32" fill="#B7B3B3" />
  <rect x="224" y="160" width="32" height="32" fill="#D9C3C6" />
  <rect x="0" y="192" width="32" height="32" fill="#F8D3D4" />
  <rect x="32" y="192" width="32" height="32" fill="#D8C6C2" />
  <rect x="64" y="192" width="32" height="32" fill="#B1A7CA" />
  <rect x="96" y="192" width="32" height="32" fill="#E1D5DC" />
  <rect x="128" y="192" width="32" height="32" fill="#F74B89" />
  <rect x="160" y="192" width="32" height="32" fill="#F0EDF0" />
  <rect x="192" y="192" width="32" height="32" fill="#D3D8DB" />
  <rect x="224" y="192" width="32" height="32" fill="#B5A8AB" />
  <rect x="0" y="224" width="32" height="32" fill="#8A5B62" />
  <rect x="32" y="224" width="32" height="32" fill="#F8C0C1" />
  <rect x="64" y="224" width="32" height="32" fill="#DBB7B2" />
  <rect x="96" y="224" width="32" height="32" fill="#D36E77" />
  <rect x="128" y="224" width="32" height="32" fill="#AA5C6D" />
  <rect x="160" y="224" width="32" height="32" fill="#EFF3F3" />
  <rect x="192" y="224" width="32" height="32" fill="#C8B1B7" />
  <rect x="224" y="224" width="32" height="32" fill="#5C434F" />
</svg>
