<svg xmlns="http://www.w3.org/2000/svg" width="256" height="256" viewBox="0 0 256 256" shape-rendering="crispEdges" role="img" aria-labelledby="title desc">
  <title id="title">Tension of Connections</title>
  <desc id="desc">This composition explores the emotional dichotomy of loneliness and connection through contrasting colors and patterns. The dark palette symbolizes isolation, while soft gold hints at hope and connection, embodying warmth against the heavier tones. The top-weighted layout represents a struggle upwards, with broken pixels enhancing the imperfect nature of human connections. The contrast occurs mainly between the deep dark tones and the bright gold, suggesting bursts of connection within a broader atmosphere of loneliness. The pattern oscillates between dense stripes representing loneliness and crack-like formations suggesting fleeting connections.</desc>
  <rect width="256" height="256" fill="#FFFFFF" />
  <rect x="0" y="0" width="32" height="32" fill="#000000" />
  <rect x="32" y="0" width="32" height="32" fill="#1A0F8D" />
  <rect x="64" y="0" width="32" height="32" fill="#4E1CD9" />
  <rect x="96" y="0" width="32" height="32" fill="#5F2A1C" />
  <rect x="128" y="0" width="32" height="32" fill="#7C8444" />
  <rect x="160" y="0" width="32" height="32" fill="#A4B246" />
  <rect x="192" y="0" width="32" height="32" fill="#E8D7A6" />
  <rect x="224" y="0" width="32" height="32" fill="#F7D60D" />
  <rect x="0" y="32" width="32" height="32" fill="#1A0D1C" />
  <rect x="32" y="32" width="32" height="32" fill="#241B2B" />
  <rect x="64" y="32" width="32" height="32" fill="#802019" />
  <rect x="96" y="32" width="32" height="32" fill="#54324E" />
  <rect x="128" y="32" width="32" height="32" fill="#7C8E49" />
  <rect x="160" y="32" width="32" height="32" fill="#B8C51B" />
  <rect x="192" y="32" width="32" height="32" fill="#E6E8B4" />
  <rect x="224" y="32" width="32" height="32" fill="#EBDE24" />
  <rect x="0" y="64" width="32" height="32" fill="#1E0638" />
  <rect x="32" y="64" width="32" height="32" fill="#581817" />
  <rect x="64" y="64" width="32" height="32" fill="#C72D00" />
  <rect x="96" y="64" width="32" height="32" fill="#4C4D3E" />
  <rect x="128" y="64" width="32" height="32" fill="#A9A83B" />
  <rect x="160" y="64" width="32" height="32" fill="#BF1F20" />
  <rect x="192" y="64" width="32" height="32" fill="#F2D17C" />
  <rect x="224" y="64" width="32" height="32" fill="#F6C401" />
  <rect x="0" y="96" width="32" height="32" fill="#112E6C" />
  <rect x="32" y="96" width="32" height="32" fill="#491B1C" />
  <rect x="64" y="96" width="32" height="32" fill="#7B7986" />
  <rect x="96" y="96" width="32" height="32" fill="#C8CC68" />
  <rect x="128" y="96" width="32" height="32" fill="#A29A4C" />
  <rect x="160" y="96" width="32" height="32" fill="#A7642E" />
  <rect x="192" y="96" width="32" height="32" fill="#E7AC9A" />
  <rect x="224" y="96" width="32" height="32" fill="#F83F2C" />
  <rect x="0" y="128" width="32" height="32" fill="#2C1312" />
  <rect x="32" y="128" width="32" height="32" fill="#393D1F" />
  <rect x="64" y="128" width="32" height="32" fill="#617C59" />
  <rect x="96" y="128" width="32" height="32" fill="#A2BF7B" />
  <rect x="128" y="128" width="32" height="32" fill="#D1D248" />
  <rect x="160" y="128" width="32" height="32" fill="#F7BC50" />
  <rect x="192" y="128" width="32" height="32" fill="#F0E9A3" />
  <rect x="224" y="128" width="32" height="32" fill="#F6D7A2" />
  <rect x="0" y="160" width="32" height="32" fill="#113A54" />
  <rect x="32" y="160" width="32" height="32" fill="#000000" />
  <rect x="64" y="160" width="32" height="32" fill="#3F1A2B" />
  <rect x="96" y="160" width="32" height="32" fill="#B2907B" />
  <rect x="128" y="160" width="32" height="32" fill="#A3B37D" />
  <rect x="160" y="160" width="32" height="32" fill="#B7CE28" />
  <rect x="192" y="160" width="32" height="32" fill="#E5FF67" />
  <rect x="224" y="160" width="32" height="32" fill="#FBFF75" />
  <rect x="0" y="192" width="32" height="32" fill="#1C2536" />
  <rect x="32" y="192" width="32" height="32" fill="#493A63" />
  <rect x="64" y="192" width="32" height="32" fill="#76582F" />
  <rect x="96" y="192" width="32" height="32" fill="#A40D3A" />
  <rect x="128" y="192" width="32" height="32" fill="#F2A20D" />
  <rect x="160" y="192" width="32" height="32" fill="#F4C42E" />
  <rect x="192" y="192" width="32" height="32" fill="#F8D9A9" />
  <rect x="224" y="192" width="32" height="32" fill="#F8CC39" />
  <rect x="0" y="224" width="32" height="32" fill="#306092" />
  <rect x="32" y="224" width="32" height="32" fill="#5C2E38" />
  <rect x="64" y="224" width="32" height="32" fill="#79452E" />
  <rect x="96" y="224" width="32" height="32" fill="#974829" />
  <rect x="128" y="224" width="32" height="32" fill="#D2B4FC" />
  <rect x="160" y="224" width="32" height="32" fill="#F7C3A8" />
  <rect x="192" y="224" width="32" height="32" fill="#F7D263" />
  <rect x="224" y="224" width="32" height="32" fill="#FFFFFF" />
</svg>
