<svg xmlns="http://www.w3.org/2000/svg" width="256" height="256" viewBox="0 0 256 256" shape-rendering="crispEdges" role="img" aria-labelledby="title desc">
  <title id="title">Awe and Terror: A Chasm of Contrast</title>
  <desc id="desc">The emotional tone is one of duality, capturing the tension between awe and terror. The palette intertwines dark navy and dim cyan to evoke a feeling of depth against stark white, suggesting both illumination and threat. The collision occurs at the center where brighter whites disrupt the heavy darkness, illustrating the struggle between stability and chaos. The vertical flow and soft edges hint at a wave-like movement, symbolizing the push and pull of these emotions while incorporating broken pixels to add an imperfection reflecting broken memories.</desc>
  <rect width="256" height="256" fill="#FFFFFF" />
  <rect x="0" y="0" width="32" height="32" fill="#000000" />
  <rect x="32" y="0" width="32" height="32" fill="#111F35" />
  <rect x="64" y="0" width="32" height="32" fill="#003B5C" />
  <rect x="96" y="0" width="32" height="32" fill="#004C6D" />
  <rect x="128" y="0" width="32" height="32" fill="#005C82" />
  <rect x="160" y="0" width="32" height="32" fill="#005F9E" />
  <rect x="192" y="0" width="32" height="32" fill="#006FB1" />
  <rect x="224" y="0" width="32" height="32" fill="#007FCE" />
  <rect x="0" y="32" width="32" height="32" fill="#005F9E" />
  <rect x="32" y="32" width="32" height="32" fill="#004C6D" />
  <rect x="64" y="32" width="32" height="32" fill="#003B5C" />
  <rect x="96" y="32" width="32" height="32" fill="#002964" />
  <rect x="128" y="32" width="32" height="32" fill="#001F50" />
  <rect x="160" y="32" width="32" height="32" fill="#000000" />
  <rect x="192" y="32" width="32" height="32" fill="#FFFFFF" />
  <rect x="224" y="32" width="32" height="32" fill="#FFFFFF" />
  <rect x="0" y="64" width="32" height="32" fill="#FFFFFF" />
  <rect x="32" y="64" width="32" height="32" fill="#D1EBE8" />
  <rect x="64" y="64" width="32" height="32" fill="#B0E0E6" />
  <rect x="96" y="64" width="32" height="32" fill="#8CD9DA" />
  <rect x="128" y="64" width="32" height="32" fill="#68CED2" />
  <rect x="160" y="64" width="32" height="32" fill="#4BB6BD" />
  <rect x="192" y="64" width="32" height="32" fill="#20A3B5" />
  <rect x="224" y="64" width="32" height="32" fill="#007FCE" />
  <rect x="0" y="96" width="32" height="32" fill="#007FCE" />
  <rect x="32" y="96" width="32" height="32" fill="#006FB1" />
  <rect x="64" y="96" width="32" height="32" fill="#005C82" />
  <rect x="96" y="96" width="32" height="32" fill="#005F9E" />
  <rect x="128" y="96" width="32" height="32" fill="#004C6D" />
  <rect x="160" y="96" width="32" height="32" fill="#003B5C" />
  <rect x="192" y="96" width="32" height="32" fill="#001F50" />
  <rect x="224" y="96" width="32" height="32" fill="#000000" />
  <rect x="0" y="128" width="32" height="32" fill="#000000" />
  <rect x="32" y="128" width="32" height="32" fill="#000000" />
  <rect x="64" y="128" width="32" height="32" fill="#111F35" />
  <rect x="96" y="128" width="32" height="32" fill="#003B5C" />
  <rect x="128" y="128" width="32" height="32" fill="#005C82" />
  <rect x="160" y="128" width="32" height="32" fill="#0083C4" />
  <rect x="192" y="128" width="32" height="32" fill="#8CD9DA" />
  <rect x="224" y="128" width="32" height="32" fill="#FFFFFF" />
  <rect x="0" y="160" width="32" height="32" fill="#D1EBE8" />
  <rect x="32" y="160" width="32" height="32" fill="#B0E0E6" />
  <rect x="64" y="160" width="32" height="32" fill="#68CED2" />
  <rect x="96" y="160" width="32" height="32" fill="#4BB6BD" />
  <rect x="128" y="160" width="32" height="32" fill="#20A3B5" />
  <rect x="160" y="160" width="32" height="32" fill="#007FCE" />
  <rect x="192" y="160" width="32" height="32" fill="#004C6D" />
  <rect x="224" y="160" width="32" height="32" fill="#000000" />
  <rect x="0" y="192" width="32" height="32" fill="#000000" />
  <rect x="32" y="192" width="32" height="32" fill="#000000" />
  <rect x="64" y="192" width="32" height="32" fill="#111F35" />
  <rect x="96" y="192" width="32" height="32" fill="#003B5C" />
  <rect x="128" y="192" width="32" height="32" fill="#005C82" />
  <rect x="160" y="192" width="32" height="32" fill="#005F9E" />
  <rect x="192" y="192" width="32" height="32" fill="#006FB1" />
  <rect x="224" y="192" width="32" height="32" fill="#FFFFFF" />
  <rect x="0" y="224" width="32" height="32" fill="#FFFFFF" />
  <rect x="32" y="224" width="32" height="32" fill="#FFFFFF" />
  <rect x="64" y="224" width="32" height="32" fill="#D1EBE8" />
  <rect x="96" y="224" width="32" height="32" fill="#B0E0E6" />
  <rect x="128" y="224" width="32" height="32" fill="#8CD9DA" />
  <rect x="160" y="224" width="32" height="32" fill="#68CED2" />
  <rect x="192" y="224" width="32" height="32" fill="#4BB6BD" />
  <rect x="224" y="224" width="32" height="32" fill="#007FCE" />
</svg>
