<svg xmlns="http://www.w3.org/2000/svg" width="256" height="256" viewBox="0 0 256 256" shape-rendering="crispEdges" role="img" aria-labelledby="title desc">
  <title id="title">Pressure Release</title>
  <desc id="desc">The emotional tone oscillates between the weight of pressure and the calm of quiet. The palette of muted tones (off_white, dust_gray, faint_peach) introduces a subtler interference which reflects 'quiet,' while deeper hues (compressed_red, dark_navy) create the confines of pressure. The central collision transpires diagonally, where heaviness meets gentler notes, suggesting a shattering of tension. This interplay connects to the seed’s themes, balancing hard edges with soft veils and allowing negative space as a metaphor for clarity amidst confusion.</desc>
  <rect width="256" height="256" fill="#FFFFFF" />
  <rect x="0" y="0" width="32" height="32" fill="#F2F2F2" />
  <rect x="32" y="0" width="32" height="32" fill="#E0E0E0" />
  <rect x="64" y="0" width="32" height="32" fill="#D1D1D1" />
  <rect x="96" y="0" width="32" height="32" fill="#C1C1C1" />
  <rect x="128" y="0" width="32" height="32" fill="#A69A8D" />
  <rect x="160" y="0" width="32" height="32" fill="#6C7585" />
  <rect x="192" y="0" width="32" height="32" fill="#2E3139" />
  <rect x="224" y="0" width="32" height="32" fill="#101820" />
  <rect x="0" y="32" width="32" height="32" fill="#F2F2F2" />
  <rect x="32" y="32" width="32" height="32" fill="#FCEAE9" />
  <rect x="64" y="32" width="32" height="32" fill="#C1C1C1" />
  <rect x="96" y="32" width="32" height="32" fill="#8A949E" />
  <rect x="128" y="32" width="32" height="32" fill="#4B4F56" />
  <rect x="160" y="32" width="32" height="32" fill="#2E3139" />
  <rect x="192" y="32" width="32" height="32" fill="#1F2226" />
  <rect x="224" y="32" width="32" height="32" fill="#B1A493" />
  <rect x="0" y="64" width="32" height="32" fill="#E0E0E0" />
  <rect x="32" y="64" width="32" height="32" fill="#FCEAE9" />
  <rect x="64" y="64" width="32" height="32" fill="#D1D1D1" />
  <rect x="96" y="64" width="32" height="32" fill="#EEC5C0" />
  <rect x="128" y="64" width="32" height="32" fill="#B0B3B6" />
  <rect x="160" y="64" width="32" height="32" fill="#4B4F56" />
  <rect x="192" y="64" width="32" height="32" fill="#1F2226" />
  <rect x="224" y="64" width="32" height="32" fill="#4E5C67" />
  <rect x="0" y="96" width="32" height="32" fill="#D9D9D9" />
  <rect x="32" y="96" width="32" height="32" fill="#B7B7B7" />
  <rect x="64" y="96" width="32" height="32" fill="#EEC5C0" />
  <rect x="96" y="96" width="32" height="32" fill="#F7EAE0" />
  <rect x="128" y="96" width="32" height="32" fill="#6C7180" />
  <rect x="160" y="96" width="32" height="32" fill="#3A3E45" />
  <rect x="192" y="96" width="32" height="32" fill="#101820" />
  <rect x="224" y="96" width="32" height="32" fill="#1F2A32" />
  <rect x="0" y="128" width="32" height="32" fill="#A6A6A6" />
  <rect x="32" y="128" width="32" height="32" fill="#8A949E" />
  <rect x="64" y="128" width="32" height="32" fill="#C1C1C1" />
  <rect x="96" y="128" width="32" height="32" fill="#EEC5C0" />
  <rect x="128" y="128" width="32" height="32" fill="#2B2F36" />
  <rect x="160" y="128" width="32" height="32" fill="#333C46" />
  <rect x="192" y="128" width="32" height="32" fill="#101820" />
  <rect x="224" y="128" width="32" height="32" fill="#B7B7B7" />
  <rect x="0" y="160" width="32" height="32" fill="#4B4F56" />
  <rect x="32" y="160" width="32" height="32" fill="#FF5733" />
  <rect x="64" y="160" width="32" height="32" fill="#8A949E" />
  <rect x="96" y="160" width="32" height="32" fill="#C1C1C1" />
  <rect x="128" y="160" width="32" height="32" fill="#1F2226" />
  <rect x="160" y="160" width="32" height="32" fill="#262E35" />
  <rect x="192" y="160" width="32" height="32" fill="#EEC5C0" />
  <rect x="224" y="160" width="32" height="32" fill="#7D8287" />
  <rect x="0" y="192" width="32" height="32" fill="#4B4F56" />
  <rect x="32" y="192" width="32" height="32" fill="#6C7585" />
  <rect x="64" y="192" width="32" height="32" fill="#6E7678" />
  <rect x="96" y="192" width="32" height="32" fill="#7F9FA1" />
  <rect x="128" y="192" width="32" height="32" fill="#101820" />
  <rect x="160" y="192" width="32" height="32" fill="#5E6C75" />
  <rect x="192" y="192" width="32" height="32" fill="#C1C1C1" />
  <rect x="224" y="192" width="32" height="32" fill="#D9D9D9" />
  <rect x="0" y="224" width="32" height="32" fill="#7F9FA1" />
  <rect x="32" y="224" width="32" height="32" fill="#F2F2F2" />
  <rect x="64" y="224" width="32" height="32" fill="#D1D1D1" />
  <rect x="96" y="224" width="32" height="32" fill="#FF5733" />
  <rect x="128" y="224" width="32" height="32" fill="#1F2226" />
  <rect x="160" y="224" width="32" height="32" fill="#2E3139" />
  <rect x="192" y="224" width="32" height="32" fill="#7D8287" />
  <rect x="224" y="224" width="32" height="32" fill="#3A3E45" />
</svg>
