<svg xmlns="http://www.w3.org/2000/svg" width="256" height="256" viewBox="0 0 256 256" shape-rendering="crispEdges" role="img" aria-labelledby="title desc">
  <title id="title">Echoes of Tension</title>
  <desc id="desc">The emotional tone revolves around the tension between longing and resolve, embodied through a palette that shifts from muted tones to sharper contrasts. The quiet pressure of colors like off-white and dust-gray evokes a sense of calm and yearning, while the compressed red adds urgency against a dark navy backdrop, drawing the eye to the center as a collision point that emphasizes the emotional struggle. The top half of the square, representing longing, features flowing tide patterns with broken pixels indicating unresolved feelings. The bottom half, representing resolve, adopts a static approach, with solid blocks reinforcing strength. This juxtaposition captures the essence of the seed: the intertwining of desires and boundaries, with negative space allowing the emotional weight to breathe, suggesting both serenity and urgency in a cohesive abstract narrative.</desc>
  <rect width="256" height="256" fill="#FFFFFF" />
  <rect x="0" y="0" width="32" height="32" fill="#F7F7F7" />
  <rect x="32" y="0" width="32" height="32" fill="#E1E1E1" />
  <rect x="64" y="0" width="32" height="32" fill="#D0D0D0" />
  <rect x="96" y="0" width="32" height="32" fill="#B8B8B8" />
  <rect x="128" y="0" width="32" height="32" fill="#C97C7C" />
  <rect x="160" y="0" width="32" height="32" fill="#5B5C76" />
  <rect x="192" y="0" width="32" height="32" fill="#6B8AE6" />
  <rect x="224" y="0" width="32" height="32" fill="#4C4B4F" />
  <rect x="0" y="32" width="32" height="32" fill="#FFFFFF" />
  <rect x="32" y="32" width="32" height="32" fill="#D9D9D9" />
  <rect x="64" y="32" width="32" height="32" fill="#B2B2B2" />
  <rect x="96" y="32" width="32" height="32" fill="#9C9C9C" />
  <rect x="128" y="32" width="32" height="32" fill="#987F7F" />
  <rect x="160" y="32" width="32" height="32" fill="#6B6A7F" />
  <rect x="192" y="32" width="32" height="32" fill="#677DAB" />
  <rect x="224" y="32" width="32" height="32" fill="#5C5A62" />
  <rect x="0" y="64" width="32" height="32" fill="#F4F4F4" />
  <rect x="32" y="64" width="32" height="32" fill="#D7D7D7" />
  <rect x="64" y="64" width="32" height="32" fill="#959595" />
  <rect x="96" y="64" width="32" height="32" fill="#8F8F8F" />
  <rect x="128" y="64" width="32" height="32" fill="#C72D2D" />
  <rect x="160" y="64" width="32" height="32" fill="#3C3851" />
  <rect x="192" y="64" width="32" height="32" fill="#6C8CDB" />
  <rect x="224" y="64" width="32" height="32" fill="#383238" />
  <rect x="0" y="96" width="32" height="32" fill="#E7E7E7" />
  <rect x="32" y="96" width="32" height="32" fill="#B5B5B5" />
  <rect x="64" y="96" width="32" height="32" fill="#7C7C7C" />
  <rect x="96" y="96" width="32" height="32" fill="#606060" />
  <rect x="128" y="96" width="32" height="32" fill="#D15353" />
  <rect x="160" y="96" width="32" height="32" fill="#32324B" />
  <rect x="192" y="96" width="32" height="32" fill="#4D7DC6" />
  <rect x="224" y="96" width="32" height="32" fill="#292929" />
  <rect x="0" y="128" width="32" height="32" fill="#FFFFFF" />
  <rect x="32" y="128" width="32" height="32" fill="#E0E0E0" />
  <rect x="64" y="128" width="32" height="32" fill="#CCCCCC" />
  <rect x="96" y="128" width="32" height="32" fill="#A9A9A9" />
  <rect x="128" y="128" width="32" height="32" fill="#800000" />
  <rect x="160" y="128" width="32" height="32" fill="#2B2B4D" />
  <rect x="192" y="128" width="32" height="32" fill="#5F8DD9" />
  <rect x="224" y="128" width="32" height="32" fill="#3B3B3B" />
  <rect x="0" y="160" width="32" height="32" fill="#F0F0F0" />
  <rect x="32" y="160" width="32" height="32" fill="#C7C7C7" />
  <rect x="64" y="160" width="32" height="32" fill="#B3B3B3" />
  <rect x="96" y="160" width="32" height="32" fill="#555555" />
  <rect x="128" y="160" width="32" height="32" fill="#7C1A1A" />
  <rect x="160" y="160" width="32" height="32" fill="#1F2128" />
  <rect x="192" y="160" width="32" height="32" fill="#6A9BD1" />
  <rect x="224" y="160" width="32" height="32" fill="#353535" />
  <rect x="0" y="192" width="32" height="32" fill="#FDFDFD" />
  <rect x="32" y="192" width="32" height="32" fill="#D8D8D8" />
  <rect x="64" y="192" width="32" height="32" fill="#ABABAB" />
  <rect x="96" y="192" width="32" height="32" fill="#7C7C7C" />
  <rect x="128" y="192" width="32" height="32" fill="#6E6464" />
  <rect x="160" y="192" width="32" height="32" fill="#4A4A5D" />
  <rect x="192" y="192" width="32" height="32" fill="#598ED2" />
  <rect x="224" y="192" width="32" height="32" fill="#1B1B1B" />
  <rect x="0" y="224" width="32" height="32" fill="#EFEFEF" />
  <rect x="32" y="224" width="32" height="32" fill="#FFCCCC" />
  <rect x="64" y="224" width="32" height="32" fill="#B0B0B0" />
  <rect x="96" y="224" width="32" height="32" fill="#6E6E6E" />
  <rect x="128" y="224" width="32" height="32" fill="#654242" />
  <rect x="160" y="224" width="32" height="32" fill="#727582" />
  <rect x="192" y="224" width="32" height="32" fill="#7AA0D7" />
  <rect x="224" y="224" width="32" height="32" fill="#343434" />
</svg>
