<svg xmlns="http://www.w3.org/2000/svg" width="256" height="256" viewBox="0 0 256 256" shape-rendering="crispEdges" role="img" aria-labelledby="title desc">
  <title id="title">Echoes of Emotion</title>
  <desc id="desc">This composition embodies the juxtaposition of joy and grief, with a warm palette representing joy (yellow and orange) contrasted against muted tones of deep blue and muted purple illustrating grief. The zigzag flow symbolizes the ups and downs of emotional experiences, while the broken edges evoke a sense of fragmentation and complexity in feelings. Main contrasts occur where vibrant colors collide with deeper hues, creating tension and a sense of unresolved emotion. This abstraction tells a story of rising signals of hope amidst the creeping weight of grief.</desc>
  <rect width="256" height="256" fill="#FFFFFF" />
  <rect x="0" y="0" width="32" height="32" fill="#FFD700" />
  <rect x="32" y="0" width="32" height="32" fill="#FFA500" />
  <rect x="64" y="0" width="32" height="32" fill="#FFB740" />
  <rect x="96" y="0" width="32" height="32" fill="#FFDB5B" />
  <rect x="128" y="0" width="32" height="32" fill="#B0C4DE" />
  <rect x="160" y="0" width="32" height="32" fill="#836FFF" />
  <rect x="192" y="0" width="32" height="32" fill="#6A5ACD" />
  <rect x="224" y="0" width="32" height="32" fill="#4B0082" />
  <rect x="0" y="32" width="32" height="32" fill="#FFFFE0" />
  <rect x="32" y="32" width="32" height="32" fill="#FFE4B5" />
  <rect x="64" y="32" width="32" height="32" fill="#F0E68C" />
  <rect x="96" y="32" width="32" height="32" fill="#FFFACD" />
  <rect x="128" y="32" width="32" height="32" fill="#DDA0DD" />
  <rect x="160" y="32" width="32" height="32" fill="#9ACD32" />
  <rect x="192" y="32" width="32" height="32" fill="#4682B4" />
  <rect x="224" y="32" width="32" height="32" fill="#483D8B" />
  <rect x="0" y="64" width="32" height="32" fill="#FFFACD" />
  <rect x="32" y="64" width="32" height="32" fill="#FF4500" />
  <rect x="64" y="64" width="32" height="32" fill="#FF69B4" />
  <rect x="96" y="64" width="32" height="32" fill="#6495ED" />
  <rect x="128" y="64" width="32" height="32" fill="#C71585" />
  <rect x="160" y="64" width="32" height="32" fill="#7B68EE" />
  <rect x="192" y="64" width="32" height="32" fill="#5F9EA0" />
  <rect x="224" y="64" width="32" height="32" fill="#007FFF" />
  <rect x="0" y="96" width="32" height="32" fill="#FFE4C4" />
  <rect x="32" y="96" width="32" height="32" fill="#FF7F50" />
  <rect x="64" y="96" width="32" height="32" fill="#FF6347" />
  <rect x="96" y="96" width="32" height="32" fill="#3CB371" />
  <rect x="128" y="96" width="32" height="32" fill="#20B2AA" />
  <rect x="160" y="96" width="32" height="32" fill="#778899" />
  <rect x="192" y="96" width="32" height="32" fill="#483D8B" />
  <rect x="224" y="96" width="32" height="32" fill="#8B008B" />
  <rect x="0" y="128" width="32" height="32" fill="#DAA520" />
  <rect x="32" y="128" width="32" height="32" fill="#FFC0CB" />
  <rect x="64" y="128" width="32" height="32" fill="#FF1493" />
  <rect x="96" y="128" width="32" height="32" fill="#9B30FF" />
  <rect x="128" y="128" width="32" height="32" fill="#4169E1" />
  <rect x="160" y="128" width="32" height="32" fill="#00CED1" />
  <rect x="192" y="128" width="32" height="32" fill="#2E8B57" />
  <rect x="224" y="128" width="32" height="32" fill="#4B0082" />
  <rect x="0" y="160" width="32" height="32" fill="#F5DEB3" />
  <rect x="32" y="160" width="32" height="32" fill="#FFEFD5" />
  <rect x="64" y="160" width="32" height="32" fill="#FFE4E1" />
  <rect x="96" y="160" width="32" height="32" fill="#E6E6FA" />
  <rect x="128" y="160" width="32" height="32" fill="#C0C0C0" />
  <rect x="160" y="160" width="32" height="32" fill="#708090" />
  <rect x="192" y="160" width="32" height="32" fill="#8B4513" />
  <rect x="224" y="160" width="32" height="32" fill="#8C5A00" />
  <rect x="0" y="192" width="32" height="32" fill="#FFF8DC" />
  <rect x="32" y="192" width="32" height="32" fill="#F0E68C" />
  <rect x="64" y="192" width="32" height="32" fill="#D3D3D3" />
  <rect x="96" y="192" width="32" height="32" fill="#C6E2FF" />
  <rect x="128" y="192" width="32" height="32" fill="#4682B4" />
  <rect x="160" y="192" width="32" height="32" fill="#8B0000" />
  <rect x="192" y="192" width="32" height="32" fill="#A0522D" />
  <rect x="224" y="192" width="32" height="32" fill="#C71585" />
  <rect x="0" y="224" width="32" height="32" fill="#FDF5E6" />
  <rect x="32" y="224" width="32" height="32" fill="#FFDAB9" />
  <rect x="64" y="224" width="32" height="32" fill="#F5F5DC" />
  <rect x="96" y="224" width="32" height="32" fill="#B0C4DE" />
  <rect x="128" y="224" width="32" height="32" fill="#C6E2FF" />
  <rect x="160" y="224" width="32" height="32" fill="#FFB6C1" />
  <rect x="192" y="224" width="32" height="32" fill="#E0FFFF" />
  <rect x="224" y="224" width="32" height="32" fill="#7B68EE" />
</svg>
