<svg xmlns="http://www.w3.org/2000/svg" width="256" height="256" viewBox="0 0 256 256" shape-rendering="crispEdges" role="img" aria-labelledby="title desc">
  <title id="title">Echo of Duality</title>
  <desc id="desc">The emotional tone reflects the tension between vulnerability and strength, where a pale exposed center signifies openness and potential harm, contrasted with dark edges suggesting protection. The palette employs burnt orange and dark red for warmth and intensity, while charcoal offers a muted backdrop, providing depth. The collision occurs prominently in the center, interrupting the dominance of the strength patterns with softer vulnerability elements. This interplay is abstracted to reflect emotional complexity rather than literal imagery.</desc>
  <rect width="256" height="256" fill="#FFFFFF" />
  <rect x="0" y="0" width="32" height="32" fill="#7C4D00" />
  <rect x="32" y="0" width="32" height="32" fill="#A63E00" />
  <rect x="64" y="0" width="32" height="32" fill="#B65C00" />
  <rect x="96" y="0" width="32" height="32" fill="#FF6F00" />
  <rect x="128" y="0" width="32" height="32" fill="#FFAB40" />
  <rect x="160" y="0" width="32" height="32" fill="#FFC107" />
  <rect x="192" y="0" width="32" height="32" fill="#FFE082" />
  <rect x="224" y="0" width="32" height="32" fill="#FFF3E0" />
  <rect x="0" y="32" width="32" height="32" fill="#FB8C00" />
  <rect x="32" y="32" width="32" height="32" fill="#E64A19" />
  <rect x="64" y="32" width="32" height="32" fill="#F57C00" />
  <rect x="96" y="32" width="32" height="32" fill="#FFA726" />
  <rect x="128" y="32" width="32" height="32" fill="#FFCC80" />
  <rect x="160" y="32" width="32" height="32" fill="#FFB300" />
  <rect x="192" y="32" width="32" height="32" fill="#FFF9C4" />
  <rect x="224" y="32" width="32" height="32" fill="#FFF1B1" />
  <rect x="0" y="64" width="32" height="32" fill="#5D4037" />
  <rect x="32" y="64" width="32" height="32" fill="#E57373" />
  <rect x="64" y="64" width="32" height="32" fill="#EF5350" />
  <rect x="96" y="64" width="32" height="32" fill="#FF8A65" />
  <rect x="128" y="64" width="32" height="32" fill="#FFCCBC" />
  <rect x="160" y="64" width="32" height="32" fill="#FFABAB" />
  <rect x="192" y="64" width="32" height="32" fill="#BF9E9E" />
  <rect x="224" y="64" width="32" height="32" fill="#A1887F" />
  <rect x="0" y="96" width="32" height="32" fill="#424242" />
  <rect x="32" y="96" width="32" height="32" fill="#9E9E9E" />
  <rect x="64" y="96" width="32" height="32" fill="#BDBDBD" />
  <rect x="96" y="96" width="32" height="32" fill="#CFD8DC" />
  <rect x="128" y="96" width="32" height="32" fill="#E0E0E0" />
  <rect x="160" y="96" width="32" height="32" fill="#EFEBE9" />
  <rect x="192" y="96" width="32" height="32" fill="#F5F5F5" />
  <rect x="224" y="96" width="32" height="32" fill="#FFFFFF" />
  <rect x="0" y="128" width="32" height="32" fill="#757575" />
  <rect x="32" y="128" width="32" height="32" fill="#B0BEC5" />
  <rect x="64" y="128" width="32" height="32" fill="#C0CA33" />
  <rect x="96" y="128" width="32" height="32" fill="#B9FBC0" />
  <rect x="128" y="128" width="32" height="32" fill="#F0F4C3" />
  <rect x="160" y="128" width="32" height="32" fill="#DCE775" />
  <rect x="192" y="128" width="32" height="32" fill="#C6FF00" />
  <rect x="224" y="128" width="32" height="32" fill="#B2FF59" />
  <rect x="0" y="160" width="32" height="32" fill="#424242" />
  <rect x="32" y="160" width="32" height="32" fill="#BDBDBD" />
  <rect x="64" y="160" width="32" height="32" fill="#C8E6C9" />
  <rect x="96" y="160" width="32" height="32" fill="#A5D6A7" />
  <rect x="128" y="160" width="32" height="32" fill="#81C784" />
  <rect x="160" y="160" width="32" height="32" fill="#66BB6A" />
  <rect x="192" y="160" width="32" height="32" fill="#43A047" />
  <rect x="224" y="160" width="32" height="32" fill="#388E3C" />
  <rect x="0" y="192" width="32" height="32" fill="#000000" />
  <rect x="32" y="192" width="32" height="32" fill="#0D47A1" />
  <rect x="64" y="192" width="32" height="32" fill="#1565C0" />
  <rect x="96" y="192" width="32" height="32" fill="#1E88E5" />
  <rect x="128" y="192" width="32" height="32" fill="#29B6F6" />
  <rect x="160" y="192" width="32" height="32" fill="#4FC3F7" />
  <rect x="192" y="192" width="32" height="32" fill="#4DD0E1" />
  <rect x="224" y="192" width="32" height="32" fill="#B3E5FC" />
  <rect x="0" y="224" width="32" height="32" fill="#424242" />
  <rect x="32" y="224" width="32" height="32" fill="#FF5722" />
  <rect x="64" y="224" width="32" height="32" fill="#D50000" />
  <rect x="96" y="224" width="32" height="32" fill="#C62828" />
  <rect x="128" y="224" width="32" height="32" fill="#BF360C" />
  <rect x="160" y="224" width="32" height="32" fill="#F44336" />
  <rect x="192" y="224" width="32" height="32" fill="#D32F2F" />
  <rect x="224" y="224" width="32" height="32" fill="#B71C1C" />
</svg>
