<svg xmlns="http://www.w3.org/2000/svg" width="256" height="256" viewBox="0 0 256 256" shape-rendering="crispEdges" role="img" aria-labelledby="title desc">
  <title id="title">Tension of Echoes</title>
  <desc id="desc">This composition captures the interplay between longing and resolve through a contrast of dark and light elements. The color palette is rooted in deep navy and black against moments of white and dim cyan, portraying an emotional depth represented by longing and serene yet firm resolve. The main collision occurs at the center, where the stark light meets dark, creating tension that reflects the struggle of emotional states colliding. The flow evokes a spiral of thought and feeling, while broken pixels disrupt the grid, symbolizing the imperfections of desire and completion, amplifying the piece’s narrative of repair and damage.</desc>
  <rect width="256" height="256" fill="#FFFFFF" />
  <rect x="0" y="0" width="32" height="32" fill="#0C3E76" />
  <rect x="32" y="0" width="32" height="32" fill="#3A7D9D" />
  <rect x="64" y="0" width="32" height="32" fill="#A9C6D6" />
  <rect x="96" y="0" width="32" height="32" fill="#FFFFFF" />
  <rect x="128" y="0" width="32" height="32" fill="#A9C6D6" />
  <rect x="160" y="0" width="32" height="32" fill="#3A7D9D" />
  <rect x="192" y="0" width="32" height="32" fill="#0C3E76" />
  <rect x="224" y="0" width="32" height="32" fill="#0C3E76" />
  <rect x="0" y="32" width="32" height="32" fill="#0C3E76" />
  <rect x="32" y="32" width="32" height="32" fill="#A9C6D6" />
  <rect x="64" y="32" width="32" height="32" fill="#FFFFFF" />
  <rect x="96" y="32" width="32" height="32" fill="#3A7D9D" />
  <rect x="128" y="32" width="32" height="32" fill="#A9C6D6" />
  <rect x="160" y="32" width="32" height="32" fill="#3A7D9D" />
  <rect x="192" y="32" width="32" height="32" fill="#0C3E76" />
  <rect x="224" y="32" width="32" height="32" fill="#0C3E76" />
  <rect x="0" y="64" width="32" height="32" fill="#3A7D9D" />
  <rect x="32" y="64" width="32" height="32" fill="#FFFFFF" />
  <rect x="64" y="64" width="32" height="32" fill="#A9C6D6" />
  <rect x="96" y="64" width="32" height="32" fill="#0C3E76" />
  <rect x="128" y="64" width="32" height="32" fill="#3A7D9D" />
  <rect x="160" y="64" width="32" height="32" fill="#0C3E76" />
  <rect x="192" y="64" width="32" height="32" fill="#0C3E76" />
  <rect x="224" y="64" width="32" height="32" fill="#A9C6D6" />
  <rect x="0" y="96" width="32" height="32" fill="#B7B7B7" />
  <rect x="32" y="96" width="32" height="32" fill="#0C3E76" />
  <rect x="64" y="96" width="32" height="32" fill="#A9C6D6" />
  <rect x="96" y="96" width="32" height="32" fill="#3A7D9D" />
  <rect x="128" y="96" width="32" height="32" fill="#FFFFFF" />
  <rect x="160" y="96" width="32" height="32" fill="#0C3E76" />
  <rect x="192" y="96" width="32" height="32" fill="#B7B7B7" />
  <rect x="224" y="96" width="32" height="32" fill="#3A7D9D" />
  <rect x="0" y="128" width="32" height="32" fill="#3A7D9D" />
  <rect x="32" y="128" width="32" height="32" fill="#A9C6D6" />
  <rect x="64" y="128" width="32" height="32" fill="#0C3E76" />
  <rect x="96" y="128" width="32" height="32" fill="#B7B7B7" />
  <rect x="128" y="128" width="32" height="32" fill="#A9C6D6" />
  <rect x="160" y="128" width="32" height="32" fill="#3A7D9D" />
  <rect x="192" y="128" width="32" height="32" fill="#0C3E76" />
  <rect x="224" y="128" width="32" height="32" fill="#FFFFFF" />
  <rect x="0" y="160" width="32" height="32" fill="#FFFFFF" />
  <rect x="32" y="160" width="32" height="32" fill="#3A7D9D" />
  <rect x="64" y="160" width="32" height="32" fill="#0C3E76" />
  <rect x="96" y="160" width="32" height="32" fill="#A9C6D6" />
  <rect x="128" y="160" width="32" height="32" fill="#B7B7B7" />
  <rect x="160" y="160" width="32" height="32" fill="#3A7D9D" />
  <rect x="192" y="160" width="32" height="32" fill="#0C3E76" />
  <rect x="224" y="160" width="32" height="32" fill="#0C3E76" />
  <rect x="0" y="192" width="32" height="32" fill="#A9C6D6" />
  <rect x="32" y="192" width="32" height="32" fill="#0C3E76" />
  <rect x="64" y="192" width="32" height="32" fill="#3A7D9D" />
  <rect x="96" y="192" width="32" height="32" fill="#B7B7B7" />
  <rect x="128" y="192" width="32" height="32" fill="#FFFFFF" />
  <rect x="160" y="192" width="32" height="32" fill="#3A7D9D" />
  <rect x="192" y="192" width="32" height="32" fill="#0C3E76" />
  <rect x="224" y="192" width="32" height="32" fill="#B7B7B7" />
  <rect x="0" y="224" width="32" height="32" fill="#3A7D9D" />
  <rect x="32" y="224" width="32" height="32" fill="#0C3E76" />
  <rect x="64" y="224" width="32" height="32" fill="#A9C6D6" />
  <rect x="96" y="224" width="32" height="32" fill="#0C3E76" />
  <rect x="128" y="224" width="32" height="32" fill="#B7B7B7" />
  <rect x="160" y="224" width="32" height="32" fill="#3A7D9D" />
  <rect x="192" y="224" width="32" height="32" fill="#0C3E76" />
  <rect x="224" y="224" width="32" height="32" fill="#0C3E76" />
</svg>
