<svg xmlns="http://www.w3.org/2000/svg" width="256" height="256" viewBox="0 0 256 256" shape-rendering="crispEdges" role="img" aria-labelledby="title desc">
  <title id="title">Echoes of Strength</title>
  <desc id="desc">This piece embodies the emotional tension between vulnerability and strength. The palette features soft off-whites and faint peaches representing vulnerability, contrasted with the deeper tones of dark navy and compressed red symbolizing strength. The layout flows upward, suggesting hope and resilience rising from the darkness. The central placement of off-white offers a calm, exposed core underneath jagged edges, representing both protection and the potential for external pressure. The broken pixels disrupt the structure, reflecting moments of vulnerability, interspersed within the dominant strong shades, creating a visually dynamic collision between safety and exposure.</desc>
  <rect width="256" height="256" fill="#FFFFFF" />
  <rect x="0" y="0" width="32" height="32" fill="#F5F1E6" />
  <rect x="32" y="0" width="32" height="32" fill="#AA4B4B" />
  <rect x="64" y="0" width="32" height="32" fill="#3B2A2A" />
  <rect x="96" y="0" width="32" height="32" fill="#F4B5B5" />
  <rect x="128" y="0" width="32" height="32" fill="#3A3F45" />
  <rect x="160" y="0" width="32" height="32" fill="#1F2731" />
  <rect x="192" y="0" width="32" height="32" fill="#E8C8A0" />
  <rect x="224" y="0" width="32" height="32" fill="#D4D9D8" />
  <rect x="0" y="32" width="32" height="32" fill="#F0E6D2" />
  <rect x="32" y="32" width="32" height="32" fill="#4E3D3B" />
  <rect x="64" y="32" width="32" height="32" fill="#C5B2AC" />
  <rect x="96" y="32" width="32" height="32" fill="#C5B2AC" />
  <rect x="128" y="32" width="32" height="32" fill="#2B2A26" />
  <rect x="160" y="32" width="32" height="32" fill="#BF4B4C" />
  <rect x="192" y="32" width="32" height="32" fill="#C0C0C0" />
  <rect x="224" y="32" width="32" height="32" fill="#B3B8B7" />
  <rect x="0" y="64" width="32" height="32" fill="#D0CFCF" />
  <rect x="32" y="64" width="32" height="32" fill="#C8B1BB" />
  <rect x="64" y="64" width="32" height="32" fill="#8D1D1D" />
  <rect x="96" y="64" width="32" height="32" fill="#B3B8B7" />
  <rect x="128" y="64" width="32" height="32" fill="#BAA99A" />
  <rect x="160" y="64" width="32" height="32" fill="#4B3434" />
  <rect x="192" y="64" width="32" height="32" fill="#C9C03E" />
  <rect x="224" y="64" width="32" height="32" fill="#FBEBE5" />
  <rect x="0" y="96" width="32" height="32" fill="#EAE3D1" />
  <rect x="32" y="96" width="32" height="32" fill="#6A7B8A" />
  <rect x="64" y="96" width="32" height="32" fill="#E6C1C1" />
  <rect x="96" y="96" width="32" height="32" fill="#727B8D" />
  <rect x="128" y="96" width="32" height="32" fill="#D1A493" />
  <rect x="160" y="96" width="32" height="32" fill="#F5F5F5" />
  <rect x="192" y="96" width="32" height="32" fill="#FFC0B4" />
  <rect x="224" y="96" width="32" height="32" fill="#4D4D50" />
  <rect x="0" y="128" width="32" height="32" fill="#B1B2A1" />
  <rect x="32" y="128" width="32" height="32" fill="#CDB3BA" />
  <rect x="64" y="128" width="32" height="32" fill="#EED6D2" />
  <rect x="96" y="128" width="32" height="32" fill="#EDD6C0" />
  <rect x="128" y="128" width="32" height="32" fill="#574B4B" />
  <rect x="160" y="128" width="32" height="32" fill="#A7A29D" />
  <rect x="192" y="128" width="32" height="32" fill="#D7C9B2" />
  <rect x="224" y="128" width="32" height="32" fill="#D8BE8B" />
  <rect x="0" y="160" width="32" height="32" fill="#E6E5E5" />
  <rect x="32" y="160" width="32" height="32" fill="#FAFAF5" />
  <rect x="64" y="160" width="32" height="32" fill="#C5B2AC" />
  <rect x="96" y="160" width="32" height="32" fill="#EAD9DA" />
  <rect x="128" y="160" width="32" height="32" fill="#7E4D5D" />
  <rect x="160" y="160" width="32" height="32" fill="#A1A9A0" />
  <rect x="192" y="160" width="32" height="32" fill="#BFAE89" />
  <rect x="224" y="160" width="32" height="32" fill="#B8C9D2" />
  <rect x="0" y="192" width="32" height="32" fill="#E5E7DF" />
  <rect x="32" y="192" width="32" height="32" fill="#B1B2A1" />
  <rect x="64" y="192" width="32" height="32" fill="#5C4F4F" />
  <rect x="96" y="192" width="32" height="32" fill="#BF857C" />
  <rect x="128" y="192" width="32" height="32" fill="#A4A7B5" />
  <rect x="160" y="192" width="32" height="32" fill="#B8C9D2" />
  <rect x="192" y="192" width="32" height="32" fill="#D2CFCF" />
  <rect x="224" y="192" width="32" height="32" fill="#3A2F36" />
  <rect x="0" y="224" width="32" height="32" fill="#FFE5D2" />
  <rect x="32" y="224" width="32" height="32" fill="#F5F5F0" />
  <rect x="64" y="224" width="32" height="32" fill="#DBD9C7" />
  <rect x="96" y="224" width="32" height="32" fill="#E8C8A0" />
  <rect x="128" y="224" width="32" height="32" fill="#04884B" />
  <rect x="160" y="224" width="32" height="32" fill="#B4B2A0" />
  <rect x="192" y="224" width="32" height="32" fill="#C7B2B4" />
  <rect x="224" y="224" width="32" height="32" fill="#CE3884" />
</svg>
