<svg xmlns="http://www.w3.org/2000/svg" width="256" height="256" viewBox="0 0 256 256" shape-rendering="crispEdges" role="img" aria-labelledby="title desc">
  <title id="title">Tension and Harmony</title>
  <desc id="desc">The emotional tone reflects a dichotomy between restlessness and peace, represented by a striking contrast of deep blacks and vibrant electric blue. The layout splits the canvas vertically, with the left side embodying chaos through disjointed 'islands' of accents (lime and magenta), while the right side offers a 'threaded' calmness, utilizing soft fading tones. A sense of motion is suggested as colors jostle for space, structured yet unbalanced, evoking the feeling of a silent argument. The seed's elements are expressed through the tension of colors colliding at the center, embodying memory and motion, while leaving ample negative space to emphasize tranquility on the right side. This structure allows the viewer to experience the push and pull of emotion without a literal representation, focusing purely on abstract interaction.</desc>
  <rect width="256" height="256" fill="#FFFFFF" />
  <rect x="0" y="0" width="32" height="32" fill="#000000" />
  <rect x="32" y="0" width="32" height="32" fill="#000000" />
  <rect x="64" y="0" width="32" height="32" fill="#000000" />
  <rect x="96" y="0" width="32" height="32" fill="#000000" />
  <rect x="128" y="0" width="32" height="32" fill="#1BFF00" />
  <rect x="160" y="0" width="32" height="32" fill="#1BFF00" />
  <rect x="192" y="0" width="32" height="32" fill="#1BFF00" />
  <rect x="224" y="0" width="32" height="32" fill="#1BFF00" />
  <rect x="0" y="32" width="32" height="32" fill="#000000" />
  <rect x="32" y="32" width="32" height="32" fill="#000000" />
  <rect x="64" y="32" width="32" height="32" fill="#000000" />
  <rect x="96" y="32" width="32" height="32" fill="#000000" />
  <rect x="128" y="32" width="32" height="32" fill="#FFF700" />
  <rect x="160" y="32" width="32" height="32" fill="#FFF700" />
  <rect x="192" y="32" width="32" height="32" fill="#FFF700" />
  <rect x="224" y="32" width="32" height="32" fill="#FFF700" />
  <rect x="0" y="64" width="32" height="32" fill="#000000" />
  <rect x="32" y="64" width="32" height="32" fill="#000000" />
  <rect x="64" y="64" width="32" height="32" fill="#000000" />
  <rect x="96" y="64" width="32" height="32" fill="#1BFF00" />
  <rect x="128" y="64" width="32" height="32" fill="#FFF700" />
  <rect x="160" y="64" width="32" height="32" fill="#FFF700" />
  <rect x="192" y="64" width="32" height="32" fill="#1BFF00" />
  <rect x="224" y="64" width="32" height="32" fill="#1BFF00" />
  <rect x="0" y="96" width="32" height="32" fill="#000000" />
  <rect x="32" y="96" width="32" height="32" fill="#000000" />
  <rect x="64" y="96" width="32" height="32" fill="#1BFF00" />
  <rect x="96" y="96" width="32" height="32" fill="#FFF700" />
  <rect x="128" y="96" width="32" height="32" fill="#FFF700" />
  <rect x="160" y="96" width="32" height="32" fill="#1BFF00" />
  <rect x="192" y="96" width="32" height="32" fill="#1BFF00" />
  <rect x="224" y="96" width="32" height="32" fill="#1BFF00" />
  <rect x="0" y="128" width="32" height="32" fill="#1BFF00" />
  <rect x="32" y="128" width="32" height="32" fill="#1BFF00" />
  <rect x="64" y="128" width="32" height="32" fill="#FFF700" />
  <rect x="96" y="128" width="32" height="32" fill="#1BFF00" />
  <rect x="128" y="128" width="32" height="32" fill="#000000" />
  <rect x="160" y="128" width="32" height="32" fill="#000000" />
  <rect x="192" y="128" width="32" height="32" fill="#000000" />
  <rect x="224" y="128" width="32" height="32" fill="#000000" />
  <rect x="0" y="160" width="32" height="32" fill="#FFF700" />
  <rect x="32" y="160" width="32" height="32" fill="#1BFF00" />
  <rect x="64" y="160" width="32" height="32" fill="#000000" />
  <rect x="96" y="160" width="32" height="32" fill="#000000" />
  <rect x="128" y="160" width="32" height="32" fill="#000000" />
  <rect x="160" y="160" width="32" height="32" fill="#000000" />
  <rect x="192" y="160" width="32" height="32" fill="#000000" />
  <rect x="224" y="160" width="32" height="32" fill="#000000" />
  <rect x="0" y="192" width="32" height="32" fill="#000000" />
  <rect x="32" y="192" width="32" height="32" fill="#000000" />
  <rect x="64" y="192" width="32" height="32" fill="#000000" />
  <rect x="96" y="192" width="32" height="32" fill="#1BFF00" />
  <rect x="128" y="192" width="32" height="32" fill="#000000" />
  <rect x="160" y="192" width="32" height="32" fill="#000000" />
  <rect x="192" y="192" width="32" height="32" fill="#000000" />
  <rect x="224" y="192" width="32" height="32" fill="#000000" />
  <rect x="0" y="224" width="32" height="32" fill="#000000" />
  <rect x="32" y="224" width="32" height="32" fill="#000000" />
  <rect x="64" y="224" width="32" height="32" fill="#000000" />
  <rect x="96" y="224" width="32" height="32" fill="#1BFF00" />
  <rect x="128" y="224" width="32" height="32" fill="#FFF700" />
  <rect x="160" y="224" width="32" height="32" fill="#FFF700" />
  <rect x="192" y="224" width="32" height="32" fill="#1BFF00" />
  <rect x="224" y="224" width="32" height="32" fill="#1BFF00" />
</svg>
