<svg xmlns="http://www.w3.org/2000/svg" width="256" height="256" viewBox="0 0 256 256" shape-rendering="crispEdges" role="img" aria-labelledby="title desc">
  <title id="title">Tension at the Edge</title>
  <desc id="desc">The artwork embodies the emotional tension between defiance and submission through its color choices and arrangement. The palette includes a soft 'off_white' and 'faint_peach' that create a quiet space, contrasted sharply by 'compressed_red' and 'dark_navy,' which represent the collision of defiance. The layout features a hollow center indicative of submission surrounded by more intense, angular patterns reflecting defiance, creating a visual pulse towards the edges. This arrangement reflects the spiral inward, signifying a conflict between personal strength and vulnerability, while the broken pixels introduce an element of unpredictability, symbolizing disruption and flaws amidst pressure.</desc>
  <rect width="256" height="256" fill="#FFFFFF" />
  <rect x="0" y="0" width="32" height="32" fill="#FFFFFF" />
  <rect x="32" y="0" width="32" height="32" fill="#E8CFCF" />
  <rect x="64" y="0" width="32" height="32" fill="#E8CFCF" />
  <rect x="96" y="0" width="32" height="32" fill="#E8CFCF" />
  <rect x="128" y="0" width="32" height="32" fill="#E8CFCF" />
  <rect x="160" y="0" width="32" height="32" fill="#E8CFCF" />
  <rect x="192" y="0" width="32" height="32" fill="#E8CFCF" />
  <rect x="224" y="0" width="32" height="32" fill="#FFFFFF" />
  <rect x="0" y="32" width="32" height="32" fill="#E8CFCF" />
  <rect x="32" y="32" width="32" height="32" fill="#D5A6A6" />
  <rect x="64" y="32" width="32" height="32" fill="#D5A6A6" />
  <rect x="96" y="32" width="32" height="32" fill="#D5A6A6" />
  <rect x="128" y="32" width="32" height="32" fill="#D5A6A6" />
  <rect x="160" y="32" width="32" height="32" fill="#D5A6A6" />
  <rect x="192" y="32" width="32" height="32" fill="#E8CFCF" />
  <rect x="224" y="32" width="32" height="32" fill="#E8CFCF" />
  <rect x="0" y="64" width="32" height="32" fill="#E8CFCF" />
  <rect x="32" y="64" width="32" height="32" fill="#D5A6A6" />
  <rect x="64" y="64" width="32" height="32" fill="#A83E3E" />
  <rect x="96" y="64" width="32" height="32" fill="#D5A6A6" />
  <rect x="128" y="64" width="32" height="32" fill="#D5A6A6" />
  <rect x="160" y="64" width="32" height="32" fill="#D5A6A6" />
  <rect x="192" y="64" width="32" height="32" fill="#E8CFCF" />
  <rect x="224" y="64" width="32" height="32" fill="#E8CFCF" />
  <rect x="0" y="96" width="32" height="32" fill="#E8CFCF" />
  <rect x="32" y="96" width="32" height="32" fill="#D5A6A6" />
  <rect x="64" y="96" width="32" height="32" fill="#D5A6A6" />
  <rect x="96" y="96" width="32" height="32" fill="#D5A6A6" />
  <rect x="128" y="96" width="32" height="32" fill="#D5A6A6" />
  <rect x="160" y="96" width="32" height="32" fill="#D5A6A6" />
  <rect x="192" y="96" width="32" height="32" fill="#E8CFCF" />
  <rect x="224" y="96" width="32" height="32" fill="#E8CFCF" />
  <rect x="0" y="128" width="32" height="32" fill="#E8CFCF" />
  <rect x="32" y="128" width="32" height="32" fill="#D5A6A6" />
  <rect x="64" y="128" width="32" height="32" fill="#D5A6A6" />
  <rect x="96" y="128" width="32" height="32" fill="#D5A6A6" />
  <rect x="128" y="128" width="32" height="32" fill="#D5A6A6" />
  <rect x="160" y="128" width="32" height="32" fill="#D5A6A6" />
  <rect x="192" y="128" width="32" height="32" fill="#E8CFCF" />
  <rect x="224" y="128" width="32" height="32" fill="#E8CFCF" />
  <rect x="0" y="160" width="32" height="32" fill="#E8CFCF" />
  <rect x="32" y="160" width="32" height="32" fill="#D5A6A6" />
  <rect x="64" y="160" width="32" height="32" fill="#E8CFCF" />
  <rect x="96" y="160" width="32" height="32" fill="#E8CFCF" />
  <rect x="128" y="160" width="32" height="32" fill="#E8CFCF" />
  <rect x="160" y="160" width="32" height="32" fill="#D5A6A6" />
  <rect x="192" y="160" width="32" height="32" fill="#E8CFCF" />
  <rect x="224" y="160" width="32" height="32" fill="#E8CFCF" />
  <rect x="0" y="192" width="32" height="32" fill="#E8CFCF" />
  <rect x="32" y="192" width="32" height="32" fill="#E8CFCF" />
  <rect x="64" y="192" width="32" height="32" fill="#E8CFCF" />
  <rect x="96" y="192" width="32" height="32" fill="#D5A6A6" />
  <rect x="128" y="192" width="32" height="32" fill="#D5A6A6" />
  <rect x="160" y="192" width="32" height="32" fill="#E8CFCF" />
  <rect x="192" y="192" width="32" height="32" fill="#E8CFCF" />
  <rect x="224" y="192" width="32" height="32" fill="#E8CFCF" />
  <rect x="0" y="224" width="32" height="32" fill="#FFFFFF" />
  <rect x="32" y="224" width="32" height="32" fill="#FFFFFF" />
  <rect x="64" y="224" width="32" height="32" fill="#FFFFFF" />
  <rect x="96" y="224" width="32" height="32" fill="#E8CFCF" />
  <rect x="128" y="224" width="32" height="32" fill="#E8CFCF" />
  <rect x="160" y="224" width="32" height="32" fill="#FFFFFF" />
  <rect x="192" y="224" width="32" height="32" fill="#FFFFFF" />
  <rect x="224" y="224" width="32" height="32" fill="#FFFFFF" />
</svg>
