<svg xmlns="http://www.w3.org/2000/svg" width="256" height="256" viewBox="0 0 256 256" shape-rendering="crispEdges" role="img" aria-labelledby="title desc">
  <title id="title">Echoes of Trust</title>
  <desc id="desc">The emotional tone intertwines trust's warmth against the underlying tension of suspicion. I selected a palette that balances deep reds and muted creams, grounding the piece yet reflecting complexity. The main contrast resides at the center, where saturated hues collide with quieter tones, forming a visible pulse amidst static. This resonates with the idea of a stable core struggling within an ambient noise. The pattern embodies resilience and fragile beauty, echoing the seed's themes of signal versus noise.</desc>
  <rect width="256" height="256" fill="#FFFFFF" />
  <rect x="0" y="0" width="32" height="32" fill="#6B3E48" />
  <rect x="32" y="0" width="32" height="32" fill="#4A2C35" />
  <rect x="64" y="0" width="32" height="32" fill="#EBD5B2" />
  <rect x="96" y="0" width="32" height="32" fill="#763C35" />
  <rect x="128" y="0" width="32" height="32" fill="#4F2D2E" />
  <rect x="160" y="0" width="32" height="32" fill="#E0C6B4" />
  <rect x="192" y="0" width="32" height="32" fill="#4D2F31" />
  <rect x="224" y="0" width="32" height="32" fill="#2E1215" />
  <rect x="0" y="32" width="32" height="32" fill="#2A0F12" />
  <rect x="32" y="32" width="32" height="32" fill="#90403D" />
  <rect x="64" y="32" width="32" height="32" fill="#E8D4C1" />
  <rect x="96" y="32" width="32" height="32" fill="#7B3835" />
  <rect x="128" y="32" width="32" height="32" fill="#573034" />
  <rect x="160" y="32" width="32" height="32" fill="#B59A89" />
  <rect x="192" y="32" width="32" height="32" fill="#B6A392" />
  <rect x="224" y="32" width="32" height="32" fill="#EABFB1" />
  <rect x="0" y="64" width="32" height="32" fill="#4E1518" />
  <rect x="32" y="64" width="32" height="32" fill="#3F1B21" />
  <rect x="64" y="64" width="32" height="32" fill="#B6382E" />
  <rect x="96" y="64" width="32" height="32" fill="#E6D9D0" />
  <rect x="128" y="64" width="32" height="32" fill="#3E241E" />
  <rect x="160" y="64" width="32" height="32" fill="#4F2F28" />
  <rect x="192" y="64" width="32" height="32" fill="#C5B7A8" />
  <rect x="224" y="64" width="32" height="32" fill="#733D3E" />
  <rect x="0" y="96" width="32" height="32" fill="#9E4340" />
  <rect x="32" y="96" width="32" height="32" fill="#BC8E85" />
  <rect x="64" y="96" width="32" height="32" fill="#6F3D39" />
  <rect x="96" y="96" width="32" height="32" fill="#8B6663" />
  <rect x="128" y="96" width="32" height="32" fill="#D8C8B4" />
  <rect x="160" y="96" width="32" height="32" fill="#5C3231" />
  <rect x="192" y="96" width="32" height="32" fill="#22282A" />
  <rect x="224" y="96" width="32" height="32" fill="#3F1B21" />
  <rect x="0" y="128" width="32" height="32" fill="#1F1112" />
  <rect x="32" y="128" width="32" height="32" fill="#6B4A48" />
  <rect x="64" y="128" width="32" height="32" fill="#F2E5DB" />
  <rect x="96" y="128" width="32" height="32" fill="#764D48" />
  <rect x="128" y="128" width="32" height="32" fill="#3C2A2B" />
  <rect x="160" y="128" width="32" height="32" fill="#9E7C7A" />
  <rect x="192" y="128" width="32" height="32" fill="#BB9C8F" />
  <rect x="224" y="128" width="32" height="32" fill="#482B2F" />
  <rect x="0" y="160" width="32" height="32" fill="#4E3D2E" />
  <rect x="32" y="160" width="32" height="32" fill="#862D31" />
  <rect x="64" y="160" width="32" height="32" fill="#C7B09A" />
  <rect x="96" y="160" width="32" height="32" fill="#E5DFDC" />
  <rect x="128" y="160" width="32" height="32" fill="#1B1313" />
  <rect x="160" y="160" width="32" height="32" fill="#707A68" />
  <rect x="192" y="160" width="32" height="32" fill="#58403D" />
  <rect x="224" y="160" width="32" height="32" fill="#D6D1CA" />
  <rect x="0" y="192" width="32" height="32" fill="#2E1518" />
  <rect x="32" y="192" width="32" height="32" fill="#7E3E3E" />
  <rect x="64" y="192" width="32" height="32" fill="#CBA289" />
  <rect x="96" y="192" width="32" height="32" fill="#DBB098" />
  <rect x="128" y="192" width="32" height="32" fill="#4F3436" />
  <rect x="160" y="192" width="32" height="32" fill="#6D4F4A" />
  <rect x="192" y="192" width="32" height="32" fill="#DA9074" />
  <rect x="224" y="192" width="32" height="32" fill="#F5EADE" />
  <rect x="0" y="224" width="32" height="32" fill="#4C2B2F" />
  <rect x="32" y="224" width="32" height="32" fill="#B27561" />
  <rect x="64" y="224" width="32" height="32" fill="#733C3E" />
  <rect x="96" y="224" width="32" height="32" fill="#D4B39C" />
  <rect x="128" y="224" width="32" height="32" fill="#5B3738" />
  <rect x="160" y="224" width="32" height="32" fill="#615757" />
  <rect x="192" y="224" width="32" height="32" fill="#291B1D" />
  <rect x="224" y="224" width="32" height="32" fill="#F3E2DD" />
</svg>
