<svg xmlns="http://www.w3.org/2000/svg" width="256" height="256" viewBox="0 0 256 256" shape-rendering="crispEdges" role="img" aria-labelledby="title desc">
  <title id="title">Echoing Desires</title>
  <desc id="desc">The emotional tone captures the juxtaposition of emptiness and desire, expressed through warm and cool colors. The palette of sepia, tan, and faded blue conveys nostalgia and longing. The main contrast exists in the abrupt transition from warm yellows and muted tawny on the left, symbolizing desire, to cool blues and grays on the right, representing emptiness. The broken dots suggest desire's fragmented nature, while the flame-like pattern implies the fierce energy of longings. This chaotic interplay creates a tangible rhythm and tension, reflecting the push and pull between conflicting emotions.</desc>
  <rect width="256" height="256" fill="#FFFFFF" />
  <rect x="0" y="0" width="32" height="32" fill="#BFAE8A" />
  <rect x="32" y="0" width="32" height="32" fill="#C69C7D" />
  <rect x="64" y="0" width="32" height="32" fill="#F2D7B1" />
  <rect x="96" y="0" width="32" height="32" fill="#E5C4A1" />
  <rect x="128" y="0" width="32" height="32" fill="#89A1B6" />
  <rect x="160" y="0" width="32" height="32" fill="#A2BCB4" />
  <rect x="192" y="0" width="32" height="32" fill="#F6FBFF" />
  <rect x="224" y="0" width="32" height="32" fill="#E0E4E7" />
  <rect x="0" y="32" width="32" height="32" fill="#C4B7A9" />
  <rect x="32" y="32" width="32" height="32" fill="#D6D9B9" />
  <rect x="64" y="32" width="32" height="32" fill="#C6C5C7" />
  <rect x="96" y="32" width="32" height="32" fill="#A0B5B1" />
  <rect x="128" y="32" width="32" height="32" fill="#7D9EAB" />
  <rect x="160" y="32" width="32" height="32" fill="#B4CAE2" />
  <rect x="192" y="32" width="32" height="32" fill="#C2D4DB" />
  <rect x="224" y="32" width="32" height="32" fill="#D4E2E6" />
  <rect x="0" y="64" width="32" height="32" fill="#B4A89A" />
  <rect x="32" y="64" width="32" height="32" fill="#BEA593" />
  <rect x="64" y="64" width="32" height="32" fill="#F4E8C1" />
  <rect x="96" y="64" width="32" height="32" fill="#E6D5B0" />
  <rect x="128" y="64" width="32" height="32" fill="#547B93" />
  <rect x="160" y="64" width="32" height="32" fill="#6DA0B1" />
  <rect x="192" y="64" width="32" height="32" fill="#8FC1C9" />
  <rect x="224" y="64" width="32" height="32" fill="#93C5D7" />
  <rect x="0" y="96" width="32" height="32" fill="#A68B76" />
  <rect x="32" y="96" width="32" height="32" fill="#CBBC95" />
  <rect x="64" y="96" width="32" height="32" fill="#EEDFA2" />
  <rect x="96" y="96" width="32" height="32" fill="#D2CAB5" />
  <rect x="128" y="96" width="32" height="32" fill="#A8C7D9" />
  <rect x="160" y="96" width="32" height="32" fill="#A4D9E8" />
  <rect x="192" y="96" width="32" height="32" fill="#8FD4E6" />
  <rect x="224" y="96" width="32" height="32" fill="#9BC4D1" />
  <rect x="0" y="128" width="32" height="32" fill="#E4BFB5" />
  <rect x="32" y="128" width="32" height="32" fill="#E7DCC5" />
  <rect x="64" y="128" width="32" height="32" fill="#E8C6A7" />
  <rect x="96" y="128" width="32" height="32" fill="#D3D9E2" />
  <rect x="128" y="128" width="32" height="32" fill="#A0B7CA" />
  <rect x="160" y="128" width="32" height="32" fill="#7AA1BC" />
  <rect x="192" y="128" width="32" height="32" fill="#6DA8D1" />
  <rect x="224" y="128" width="32" height="32" fill="#7CBCDB" />
  <rect x="0" y="160" width="32" height="32" fill="#B6AFA0" />
  <rect x="32" y="160" width="32" height="32" fill="#DFD4BD" />
  <rect x="64" y="160" width="32" height="32" fill="#E9E0C8" />
  <rect x="96" y="160" width="32" height="32" fill="#B8B4E1" />
  <rect x="128" y="160" width="32" height="32" fill="#6BB1C5" />
  <rect x="160" y="160" width="32" height="32" fill="#5EA7C5" />
  <rect x="192" y="160" width="32" height="32" fill="#58D6DE" />
  <rect x="224" y="160" width="32" height="32" fill="#69D4DB" />
  <rect x="0" y="192" width="32" height="32" fill="#DEBCB7" />
  <rect x="32" y="192" width="32" height="32" fill="#F0D2B6" />
  <rect x="64" y="192" width="32" height="32" fill="#E5D6B0" />
  <rect x="96" y="192" width="32" height="32" fill="#C2E1CC" />
  <rect x="128" y="192" width="32" height="32" fill="#A0B2C5" />
  <rect x="160" y="192" width="32" height="32" fill="#A6D6E1" />
  <rect x="192" y="192" width="32" height="32" fill="#9BD8DB" />
  <rect x="224" y="192" width="32" height="32" fill="#A4D6DE" />
  <rect x="0" y="224" width="32" height="32" fill="#EAB7A8" />
  <rect x="32" y="224" width="32" height="32" fill="#E2C49F" />
  <rect x="64" y="224" width="32" height="32" fill="#C6D3B6" />
  <rect x="96" y="224" width="32" height="32" fill="#B4E1CA" />
  <rect x="128" y="224" width="32" height="32" fill="#B5C9DA" />
  <rect x="160" y="224" width="32" height="32" fill="#B3D3DC" />
  <rect x="192" y="224" width="32" height="32" fill="#B5E1E4" />
  <rect x="224" y="224" width="32" height="32" fill="#E4F1EA" />
</svg>
