<svg xmlns="http://www.w3.org/2000/svg" width="256" height="256" viewBox="0 0 256 256" shape-rendering="crispEdges" role="img" aria-labelledby="title desc">
  <title id="title">Echoing Connections</title>
  <desc id="desc">This piece embodies the emotional contrast of loneliness and connection. The palette of deep reds and pale blues reflects the tension between warmth and isolation. The dark colors represent loneliness, creating a central cluster that is surrounded by lighter shades, which symbolize connection. The burst pattern represents an explosive moment of clarity against an otherwise dense and muted backdrop. There is a strong contrast as darker hues clash with softer tones, creating a rhythmic struggle between connection and separation. The pixel arrangement evokes an ancient, primal feeling while incorporating both exposure and concealment.</desc>
  <rect width="256" height="256" fill="#FFFFFF" />
  <rect x="0" y="0" width="32" height="32" fill="#660000" />
  <rect x="32" y="0" width="32" height="32" fill="#330000" />
  <rect x="64" y="0" width="32" height="32" fill="#000000" />
  <rect x="96" y="0" width="32" height="32" fill="#330033" />
  <rect x="128" y="0" width="32" height="32" fill="#660066" />
  <rect x="160" y="0" width="32" height="32" fill="#9999CC" />
  <rect x="192" y="0" width="32" height="32" fill="#CCFFFF" />
  <rect x="224" y="0" width="32" height="32" fill="#FFFFFF" />
  <rect x="0" y="32" width="32" height="32" fill="#330033" />
  <rect x="32" y="32" width="32" height="32" fill="#990000" />
  <rect x="64" y="32" width="32" height="32" fill="#000000" />
  <rect x="96" y="32" width="32" height="32" fill="#330000" />
  <rect x="128" y="32" width="32" height="32" fill="#663399" />
  <rect x="160" y="32" width="32" height="32" fill="#6699FF" />
  <rect x="192" y="32" width="32" height="32" fill="#CCFFFF" />
  <rect x="224" y="32" width="32" height="32" fill="#CCCCCC" />
  <rect x="0" y="64" width="32" height="32" fill="#000000" />
  <rect x="32" y="64" width="32" height="32" fill="#990000" />
  <rect x="64" y="64" width="32" height="32" fill="#993366" />
  <rect x="96" y="64" width="32" height="32" fill="#000000" />
  <rect x="128" y="64" width="32" height="32" fill="#336699" />
  <rect x="160" y="64" width="32" height="32" fill="#6699CC" />
  <rect x="192" y="64" width="32" height="32" fill="#CCCCCC" />
  <rect x="224" y="64" width="32" height="32" fill="#AAAAAA" />
  <rect x="0" y="96" width="32" height="32" fill="#660000" />
  <rect x="32" y="96" width="32" height="32" fill="#330033" />
  <rect x="64" y="96" width="32" height="32" fill="#000000" />
  <rect x="96" y="96" width="32" height="32" fill="#003366" />
  <rect x="128" y="96" width="32" height="32" fill="#336699" />
  <rect x="160" y="96" width="32" height="32" fill="#6699CC" />
  <rect x="192" y="96" width="32" height="32" fill="#9999CC" />
  <rect x="224" y="96" width="32" height="32" fill="#FFFFFF" />
  <rect x="0" y="128" width="32" height="32" fill="#990000" />
  <rect x="32" y="128" width="32" height="32" fill="#660000" />
  <rect x="64" y="128" width="32" height="32" fill="#330033" />
  <rect x="96" y="128" width="32" height="32" fill="#000000" />
  <rect x="128" y="128" width="32" height="32" fill="#003366" />
  <rect x="160" y="128" width="32" height="32" fill="#6699CC" />
  <rect x="192" y="128" width="32" height="32" fill="#CCFFFF" />
  <rect x="224" y="128" width="32" height="32" fill="#CCCCCC" />
  <rect x="0" y="160" width="32" height="32" fill="#000000" />
  <rect x="32" y="160" width="32" height="32" fill="#330033" />
  <rect x="64" y="160" width="32" height="32" fill="#000000" />
  <rect x="96" y="160" width="32" height="32" fill="#660066" />
  <rect x="128" y="160" width="32" height="32" fill="#993366" />
  <rect x="160" y="160" width="32" height="32" fill="#6699CC" />
  <rect x="192" y="160" width="32" height="32" fill="#CCFFFF" />
  <rect x="224" y="160" width="32" height="32" fill="#AAAAAA" />
  <rect x="0" y="192" width="32" height="32" fill="#660000" />
  <rect x="32" y="192" width="32" height="32" fill="#330033" />
  <rect x="64" y="192" width="32" height="32" fill="#000000" />
  <rect x="96" y="192" width="32" height="32" fill="#000000" />
  <rect x="128" y="192" width="32" height="32" fill="#F0F8FF" />
  <rect x="160" y="192" width="32" height="32" fill="#99CCFF" />
  <rect x="192" y="192" width="32" height="32" fill="#6699CC" />
  <rect x="224" y="192" width="32" height="32" fill="#FFFFFF" />
  <rect x="0" y="224" width="32" height="32" fill="#FFFFFF" />
  <rect x="32" y="224" width="32" height="32" fill="#CCCCCC" />
  <rect x="64" y="224" width="32" height="32" fill="#AAAAAA" />
  <rect x="96" y="224" width="32" height="32" fill="#999999" />
  <rect x="128" y="224" width="32" height="32" fill="#888888" />
  <rect x="160" y="224" width="32" height="32" fill="#777777" />
  <rect x="192" y="224" width="32" height="32" fill="#666666" />
  <rect x="224" y="224" width="32" height="32" fill="#555555" />
</svg>
