<svg xmlns="http://www.w3.org/2000/svg" width="256" height="256" viewBox="0 0 256 256" shape-rendering="crispEdges" role="img" aria-labelledby="title desc">
  <title id="title">Resonance of Threads</title>
  <desc id="desc">This composition reflects the emotional tension between longing and resolve. The chosen palette of warm coral and cold slate evokes a sense of balance between warmth and distance. The pattern of barcodes symbolizing longing intersects with structured frames representing resolve, creating a dynamic collision in the central area. The rising signal layout allows colors to ascend, suggesting hope and aspiration, while retaining a quiet space that punctuates the rising tension.</desc>
  <rect width="256" height="256" fill="#FFFFFF" />
  <rect x="0" y="0" width="32" height="32" fill="#FF6F61" />
  <rect x="32" y="0" width="32" height="32" fill="#FF9A8D" />
  <rect x="64" y="0" width="32" height="32" fill="#F6B93A" />
  <rect x="96" y="0" width="32" height="32" fill="#636E72" />
  <rect x="128" y="0" width="32" height="32" fill="#000000" />
  <rect x="160" y="0" width="32" height="32" fill="#BDC3C7" />
  <rect x="192" y="0" width="32" height="32" fill="#FFFFFF" />
  <rect x="224" y="0" width="32" height="32" fill="#F3F4F6" />
  <rect x="0" y="32" width="32" height="32" fill="#FF6F61" />
  <rect x="32" y="32" width="32" height="32" fill="#FF6F61" />
  <rect x="64" y="32" width="32" height="32" fill="#FAD4D7" />
  <rect x="96" y="32" width="32" height="32" fill="#B2B2B2" />
  <rect x="128" y="32" width="32" height="32" fill="#00796B" />
  <rect x="160" y="32" width="32" height="32" fill="#00575B" />
  <rect x="192" y="32" width="32" height="32" fill="#AACDDA" />
  <rect x="224" y="32" width="32" height="32" fill="#FFFFFF" />
  <rect x="0" y="64" width="32" height="32" fill="#FFABAB" />
  <rect x="32" y="64" width="32" height="32" fill="#FF9A8D" />
  <rect x="64" y="64" width="32" height="32" fill="#F0F0F0" />
  <rect x="96" y="64" width="32" height="32" fill="#007C92" />
  <rect x="128" y="64" width="32" height="32" fill="#F6B93A" />
  <rect x="160" y="64" width="32" height="32" fill="#FFFFFF" />
  <rect x="192" y="64" width="32" height="32" fill="#BDC3C7" />
  <rect x="224" y="64" width="32" height="32" fill="#F6B93A" />
  <rect x="0" y="96" width="32" height="32" fill="#B2E5E7" />
  <rect x="32" y="96" width="32" height="32" fill="#00BFFF" />
  <rect x="64" y="96" width="32" height="32" fill="#007C92" />
  <rect x="96" y="96" width="32" height="32" fill="#B2B2B2" />
  <rect x="128" y="96" width="32" height="32" fill="#FAD4D7" />
  <rect x="160" y="96" width="32" height="32" fill="#FFFFFF" />
  <rect x="192" y="96" width="32" height="32" fill="#FAFAFA" />
  <rect x="224" y="96" width="32" height="32" fill="#FF9A8D" />
  <rect x="0" y="128" width="32" height="32" fill="#FF6F61" />
  <rect x="32" y="128" width="32" height="32" fill="#B2E5E7" />
  <rect x="64" y="128" width="32" height="32" fill="#FAD4D7" />
  <rect x="96" y="128" width="32" height="32" fill="#FFFFFF" />
  <rect x="128" y="128" width="32" height="32" fill="#636E72" />
  <rect x="160" y="128" width="32" height="32" fill="#F0F0F0" />
  <rect x="192" y="128" width="32" height="32" fill="#00796B" />
  <rect x="224" y="128" width="32" height="32" fill="#B2B2B2" />
  <rect x="0" y="160" width="32" height="32" fill="#FFABAB" />
  <rect x="32" y="160" width="32" height="32" fill="#00575B" />
  <rect x="64" y="160" width="32" height="32" fill="#F6B93A" />
  <rect x="96" y="160" width="32" height="32" fill="#D5DBDB" />
  <rect x="128" y="160" width="32" height="32" fill="#FFFFFF" />
  <rect x="160" y="160" width="32" height="32" fill="#FAFAFA" />
  <rect x="192" y="160" width="32" height="32" fill="#FF6F61" />
  <rect x="224" y="160" width="32" height="32" fill="#FF9A8D" />
  <rect x="0" y="192" width="32" height="32" fill="#F3F4F6" />
  <rect x="32" y="192" width="32" height="32" fill="#FFABAB" />
  <rect x="64" y="192" width="32" height="32" fill="#FF6F61" />
  <rect x="96" y="192" width="32" height="32" fill="#B2B2B2" />
  <rect x="128" y="192" width="32" height="32" fill="#007C92" />
  <rect x="160" y="192" width="32" height="32" fill="#00BFFF" />
  <rect x="192" y="192" width="32" height="32" fill="#636E72" />
  <rect x="224" y="192" width="32" height="32" fill="#00575B" />
  <rect x="0" y="224" width="32" height="32" fill="#FFFFFF" />
  <rect x="32" y="224" width="32" height="32" fill="#F0F0F0" />
  <rect x="64" y="224" width="32" height="32" fill="#D5DBDB" />
  <rect x="96" y="224" width="32" height="32" fill="#B2E5E7" />
  <rect x="128" y="224" width="32" height="32" fill="#FF9A8D" />
  <rect x="160" y="224" width="32" height="32" fill="#FAD4D7" />
  <rect x="192" y="224" width="32" height="32" fill="#FF6F61" />
  <rect x="224" y="224" width="32" height="32" fill="#F6B93A" />
</svg>
