<svg xmlns="http://www.w3.org/2000/svg" width="256" height="256" viewBox="0 0 256 256" shape-rendering="crispEdges" role="img" aria-labelledby="title desc">
  <title id="title">Echoes of Emotion</title>
  <desc id="desc">The composition embodies a dance between tenderness and rage, using a palette of saturated reds and calm blues to illustrate emotional tension. The strong contrast occurs vertically in the square, where jagged red pulses intersect softer blue channels, creating a sense of clash and overlap. This configuration evokes a story of internal struggle, as if the elements of guilt and forgiveness battle in a confined space, reflecting the delicate balance between calm and chaos.</desc>
  <rect width="256" height="256" fill="#FFFFFF" />
  <rect x="0" y="0" width="32" height="32" fill="#000000" />
  <rect x="32" y="0" width="32" height="32" fill="#FF0000" />
  <rect x="64" y="0" width="32" height="32" fill="#FF6666" />
  <rect x="96" y="0" width="32" height="32" fill="#FF9999" />
  <rect x="128" y="0" width="32" height="32" fill="#FFFFFF" />
  <rect x="160" y="0" width="32" height="32" fill="#E1E1E1" />
  <rect x="192" y="0" width="32" height="32" fill="#B0C4DE" />
  <rect x="224" y="0" width="32" height="32" fill="#A3C1DA" />
  <rect x="0" y="32" width="32" height="32" fill="#FF0000" />
  <rect x="32" y="32" width="32" height="32" fill="#FF3333" />
  <rect x="64" y="32" width="32" height="32" fill="#FFFFFF" />
  <rect x="96" y="32" width="32" height="32" fill="#A3C1DA" />
  <rect x="128" y="32" width="32" height="32" fill="#FFFFFF" />
  <rect x="160" y="32" width="32" height="32" fill="#C0C0C0" />
  <rect x="192" y="32" width="32" height="32" fill="#B0C4DE" />
  <rect x="224" y="32" width="32" height="32" fill="#E1E1E1" />
  <rect x="0" y="64" width="32" height="32" fill="#BF3E3E" />
  <rect x="32" y="64" width="32" height="32" fill="#FFFFFF" />
  <rect x="64" y="64" width="32" height="32" fill="#B0C4DE" />
  <rect x="96" y="64" width="32" height="32" fill="#E1E1E1" />
  <rect x="128" y="64" width="32" height="32" fill="#A3C1DA" />
  <rect x="160" y="64" width="32" height="32" fill="#E3E3E3" />
  <rect x="192" y="64" width="32" height="32" fill="#FFFFFF" />
  <rect x="224" y="64" width="32" height="32" fill="#FFEEEE" />
  <rect x="0" y="96" width="32" height="32" fill="#FFFFFF" />
  <rect x="32" y="96" width="32" height="32" fill="#FF9999" />
  <rect x="64" y="96" width="32" height="32" fill="#FFCC99" />
  <rect x="96" y="96" width="32" height="32" fill="#B0C4DE" />
  <rect x="128" y="96" width="32" height="32" fill="#FFFFFF" />
  <rect x="160" y="96" width="32" height="32" fill="#FFCCCC" />
  <rect x="192" y="96" width="32" height="32" fill="#E1E1E1" />
  <rect x="224" y="96" width="32" height="32" fill="#FF0000" />
  <rect x="0" y="128" width="32" height="32" fill="#E0E0E0" />
  <rect x="32" y="128" width="32" height="32" fill="#A3C1DA" />
  <rect x="64" y="128" width="32" height="32" fill="#FF3300" />
  <rect x="96" y="128" width="32" height="32" fill="#FF9999" />
  <rect x="128" y="128" width="32" height="32" fill="#B0C4DE" />
  <rect x="160" y="128" width="32" height="32" fill="#C0C0C0" />
  <rect x="192" y="128" width="32" height="32" fill="#FFFFFF" />
  <rect x="224" y="128" width="32" height="32" fill="#E1E1E1" />
  <rect x="0" y="160" width="32" height="32" fill="#E1E1E1" />
  <rect x="32" y="160" width="32" height="32" fill="#FF6666" />
  <rect x="64" y="160" width="32" height="32" fill="#B0C4DE" />
  <rect x="96" y="160" width="32" height="32" fill="#FFFFFF" />
  <rect x="128" y="160" width="32" height="32" fill="#A3C1DA" />
  <rect x="160" y="160" width="32" height="32" fill="#FFAAAA" />
  <rect x="192" y="160" width="32" height="32" fill="#FF0000" />
  <rect x="224" y="160" width="32" height="32" fill="#E1E1E1" />
  <rect x="0" y="192" width="32" height="32" fill="#FFFFFF" />
  <rect x="32" y="192" width="32" height="32" fill="#FF6666" />
  <rect x="64" y="192" width="32" height="32" fill="#B0C4DE" />
  <rect x="96" y="192" width="32" height="32" fill="#C0C0C0" />
  <rect x="128" y="192" width="32" height="32" fill="#A3C1DA" />
  <rect x="160" y="192" width="32" height="32" fill="#FFAAAA" />
  <rect x="192" y="192" width="32" height="32" fill="#E1E1E1" />
  <rect x="224" y="192" width="32" height="32" fill="#FF9999" />
  <rect x="0" y="224" width="32" height="32" fill="#AAFFAA" />
  <rect x="32" y="224" width="32" height="32" fill="#E1E1E1" />
  <rect x="64" y="224" width="32" height="32" fill="#D3D3D3" />
  <rect x="96" y="224" width="32" height="32" fill="#FFFFFF" />
  <rect x="128" y="224" width="32" height="32" fill="#B0C4DE" />
  <rect x="160" y="224" width="32" height="32" fill="#E1E1E1" />
  <rect x="192" y="224" width="32" height="32" fill="#CC0000" />
  <rect x="224" y="224" width="32" height="32" fill="#FF0000" />
</svg>
