<svg xmlns="http://www.w3.org/2000/svg" width="256" height="256" viewBox="0 0 256 256" shape-rendering="crispEdges" role="img" aria-labelledby="title desc">
  <title id="title">Collision of Calm and Chaos</title>
  <desc id="desc">The emotional tone explores the tension between restlessness and peace, utilizing a warm and cool palette to highlight this contrast. The colors red and pale blue represent conflict, while black and white offer moments of both containment and release. The layout begins with warm tones in the corner, suggesting flame and intense restlessness, which diagonally clashes against cool calming colors that provide interruption and a sense of distance. The broken pixels create disruptions echoing the initial emotional turbulence while maintaining a core of calm at the center, emphasizing a balance that is both chaotic and serene.</desc>
  <rect width="256" height="256" fill="#FFFFFF" />
  <rect x="0" y="0" width="32" height="32" fill="#FF3333" />
  <rect x="32" y="0" width="32" height="32" fill="#FF8C00" />
  <rect x="64" y="0" width="32" height="32" fill="#FFCC00" />
  <rect x="96" y="0" width="32" height="32" fill="#FFFFFF" />
  <rect x="128" y="0" width="32" height="32" fill="#A0C8FF" />
  <rect x="160" y="0" width="32" height="32" fill="#7FB8FF" />
  <rect x="192" y="0" width="32" height="32" fill="#2B7DFF" />
  <rect x="224" y="0" width="32" height="32" fill="#000000" />
  <rect x="0" y="32" width="32" height="32" fill="#FF6633" />
  <rect x="32" y="32" width="32" height="32" fill="#FFAA00" />
  <rect x="64" y="32" width="32" height="32" fill="#FDDA00" />
  <rect x="96" y="32" width="32" height="32" fill="#FFFFFF" />
  <rect x="128" y="32" width="32" height="32" fill="#A0D8FF" />
  <rect x="160" y="32" width="32" height="32" fill="#A6B3D1" />
  <rect x="192" y="32" width="32" height="32" fill="#5B8CBB" />
  <rect x="224" y="32" width="32" height="32" fill="#000000" />
  <rect x="0" y="64" width="32" height="32" fill="#FF7F33" />
  <rect x="32" y="64" width="32" height="32" fill="#FFD700" />
  <rect x="64" y="64" width="32" height="32" fill="#FFE633" />
  <rect x="96" y="64" width="32" height="32" fill="#FFFFFF" />
  <rect x="128" y="64" width="32" height="32" fill="#9FD6FF" />
  <rect x="160" y="64" width="32" height="32" fill="#A4BBE1" />
  <rect x="192" y="64" width="32" height="32" fill="#3C99D5" />
  <rect x="224" y="64" width="32" height="32" fill="#333333" />
  <rect x="0" y="96" width="32" height="32" fill="#FF9933" />
  <rect x="32" y="96" width="32" height="32" fill="#FFF000" />
  <rect x="64" y="96" width="32" height="32" fill="#FFFF33" />
  <rect x="96" y="96" width="32" height="32" fill="#FFFFFF" />
  <rect x="128" y="96" width="32" height="32" fill="#8FD0FF" />
  <rect x="160" y="96" width="32" height="32" fill="#ABC0DC" />
  <rect x="192" y="96" width="32" height="32" fill="#2793C2" />
  <rect x="224" y="96" width="32" height="32" fill="#666666" />
  <rect x="0" y="128" width="32" height="32" fill="#FFB300" />
  <rect x="32" y="128" width="32" height="32" fill="#FFFF80" />
  <rect x="64" y="128" width="32" height="32" fill="#FFFF66" />
  <rect x="96" y="128" width="32" height="32" fill="#FFFFFF" />
  <rect x="128" y="128" width="32" height="32" fill="#A2C3F7" />
  <rect x="160" y="128" width="32" height="32" fill="#BAC8E8" />
  <rect x="192" y="128" width="32" height="32" fill="#006DAA" />
  <rect x="224" y="128" width="32" height="32" fill="#999999" />
  <rect x="0" y="160" width="32" height="32" fill="#FFB700" />
  <rect x="32" y="160" width="32" height="32" fill="#FFFFA1" />
  <rect x="64" y="160" width="32" height="32" fill="#FAFF4F" />
  <rect x="96" y="160" width="32" height="32" fill="#FFFFFF" />
  <rect x="128" y="160" width="32" height="32" fill="#98B9F8" />
  <rect x="160" y="160" width="32" height="32" fill="#D9E0E8" />
  <rect x="192" y="160" width="32" height="32" fill="#0077A8" />
  <rect x="224" y="160" width="32" height="32" fill="#888888" />
  <rect x="0" y="192" width="32" height="32" fill="#FFCC00" />
  <rect x="32" y="192" width="32" height="32" fill="#FFFFCC" />
  <rect x="64" y="192" width="32" height="32" fill="#E9E900" />
  <rect x="96" y="192" width="32" height="32" fill="#FFFFFF" />
  <rect x="128" y="192" width="32" height="32" fill="#85AFFF" />
  <rect x="160" y="192" width="32" height="32" fill="#D0DFF5" />
  <rect x="192" y="192" width="32" height="32" fill="#0080A8" />
  <rect x="224" y="192" width="32" height="32" fill="#BBBBBB" />
  <rect x="0" y="224" width="32" height="32" fill="#FFDD00" />
  <rect x="32" y="224" width="32" height="32" fill="#FFFFFF" />
  <rect x="64" y="224" width="32" height="32" fill="#F5F500" />
  <rect x="96" y="224" width="32" height="32" fill="#FFFFFF" />
  <rect x="128" y="224" width="32" height="32" fill="#71A6E5" />
  <rect x="160" y="224" width="32" height="32" fill="#E0E8F6" />
  <rect x="192" y="224" width="32" height="32" fill="#0090B0" />
  <rect x="224" y="224" width="32" height="32" fill="#777777" />
</svg>
