<svg xmlns="http://www.w3.org/2000/svg" width="256" height="256" viewBox="0 0 256 256" shape-rendering="crispEdges" role="img" aria-labelledby="title desc">
  <title id="title">Echoing Strength</title>
  <desc id="desc">The artwork captures the emotional tension between longing and resolve through a spiral pressure layout, contrasting dark, deep colors representing longing with strong, defined boundaries of resolve. The gray and deep blue tones create a somber, introspective atmosphere, while pops of pale yellow serve as accents, symbolizing moments of clarity amidst chaos. The emotional collision is concentrated towards the center, where dense clusters of longing meet the structured resolve of the outer regions, creating a dialogue between the drawn-together and the separated forms.</desc>
  <rect width="256" height="256" fill="#FFFFFF" />
  <rect x="0" y="0" width="32" height="32" fill="#000000" />
  <rect x="32" y="0" width="32" height="32" fill="#111111" />
  <rect x="64" y="0" width="32" height="32" fill="#0F4C81" />
  <rect x="96" y="0" width="32" height="32" fill="#F4D03F" />
  <rect x="128" y="0" width="32" height="32" fill="#000000" />
  <rect x="160" y="0" width="32" height="32" fill="#000000" />
  <rect x="192" y="0" width="32" height="32" fill="#111111" />
  <rect x="224" y="0" width="32" height="32" fill="#111111" />
  <rect x="0" y="32" width="32" height="32" fill="#222222" />
  <rect x="32" y="32" width="32" height="32" fill="#0F4C81" />
  <rect x="64" y="32" width="32" height="32" fill="#F4D03F" />
  <rect x="96" y="32" width="32" height="32" fill="#F4D03F" />
  <rect x="128" y="32" width="32" height="32" fill="#222222" />
  <rect x="160" y="32" width="32" height="32" fill="#0F4C81" />
  <rect x="192" y="32" width="32" height="32" fill="#0F4C81" />
  <rect x="224" y="32" width="32" height="32" fill="#222222" />
  <rect x="0" y="64" width="32" height="32" fill="#333333" />
  <rect x="32" y="64" width="32" height="32" fill="#F1F1F1" />
  <rect x="64" y="64" width="32" height="32" fill="#F4D03F" />
  <rect x="96" y="64" width="32" height="32" fill="#F1F1F1" />
  <rect x="128" y="64" width="32" height="32" fill="#333333" />
  <rect x="160" y="64" width="32" height="32" fill="#333333" />
  <rect x="192" y="64" width="32" height="32" fill="#222222" />
  <rect x="224" y="64" width="32" height="32" fill="#333333" />
  <rect x="0" y="96" width="32" height="32" fill="#444444" />
  <rect x="32" y="96" width="32" height="32" fill="#0F4C81" />
  <rect x="64" y="96" width="32" height="32" fill="#F1F1F1" />
  <rect x="96" y="96" width="32" height="32" fill="#F1F1F1" />
  <rect x="128" y="96" width="32" height="32" fill="#0F4C81" />
  <rect x="160" y="96" width="32" height="32" fill="#444444" />
  <rect x="192" y="96" width="32" height="32" fill="#444444" />
  <rect x="224" y="96" width="32" height="32" fill="#444444" />
  <rect x="0" y="128" width="32" height="32" fill="#555555" />
  <rect x="32" y="128" width="32" height="32" fill="#555555" />
  <rect x="64" y="128" width="32" height="32" fill="#0F4C81" />
  <rect x="96" y="128" width="32" height="32" fill="#0F4C81" />
  <rect x="128" y="128" width="32" height="32" fill="#555555" />
  <rect x="160" y="128" width="32" height="32" fill="#555555" />
  <rect x="192" y="128" width="32" height="32" fill="#000000" />
  <rect x="224" y="128" width="32" height="32" fill="#555555" />
  <rect x="0" y="160" width="32" height="32" fill="#666666" />
  <rect x="32" y="160" width="32" height="32" fill="#222222" />
  <rect x="64" y="160" width="32" height="32" fill="#111111" />
  <rect x="96" y="160" width="32" height="32" fill="#0F4C81" />
  <rect x="128" y="160" width="32" height="32" fill="#222222" />
  <rect x="160" y="160" width="32" height="32" fill="#222222" />
  <rect x="192" y="160" width="32" height="32" fill="#666666" />
  <rect x="224" y="160" width="32" height="32" fill="#666666" />
  <rect x="0" y="192" width="32" height="32" fill="#777777" />
  <rect x="32" y="192" width="32" height="32" fill="#444444" />
  <rect x="64" y="192" width="32" height="32" fill="#555555" />
  <rect x="96" y="192" width="32" height="32" fill="#666666" />
  <rect x="128" y="192" width="32" height="32" fill="#444444" />
  <rect x="160" y="192" width="32" height="32" fill="#777777" />
  <rect x="192" y="192" width="32" height="32" fill="#777777" />
  <rect x="224" y="192" width="32" height="32" fill="#777777" />
  <rect x="0" y="224" width="32" height="32" fill="#888888" />
  <rect x="32" y="224" width="32" height="32" fill="#555555" />
  <rect x="64" y="224" width="32" height="32" fill="#000000" />
  <rect x="96" y="224" width="32" height="32" fill="#333333" />
  <rect x="128" y="224" width="32" height="32" fill="#222222" />
  <rect x="160" y="224" width="32" height="32" fill="#888888" />
  <rect x="192" y="224" width="32" height="32" fill="#888888" />
  <rect x="224" y="224" width="32" height="32" fill="#888888" />
</svg>
