<svg xmlns="http://www.w3.org/2000/svg" width="256" height="256" viewBox="0 0 256 256" shape-rendering="crispEdges" role="img" aria-labelledby="title desc">
  <title id="title">Curved Certainty</title>
  <desc id="desc">This composition embodies the tension between certainty and curiosity through layered diagonal flows, where defined thread patterns symbolize certainty and soft quiet fields represent curiosity. The palette, featuring pale aqua and alarm red, evokes serenity against urgency, with clear white providing openings and mist gray creating atmosphere. The collision occurs prominently in the center and edges, interrupting the structured path with broken pixels, representing disruptions amidst smooth transitions. The abstract interplay of colors captures the essence of rising signals, a tide against constraints and the destabilization of order.</desc>
  <rect width="256" height="256" fill="#FFFFFF" />
  <rect x="0" y="0" width="32" height="32" fill="#A0D8E0" />
  <rect x="32" y="0" width="32" height="32" fill="#6B8E8D" />
  <rect x="64" y="0" width="32" height="32" fill="#F44336" />
  <rect x="96" y="0" width="32" height="32" fill="#D1E5EA" />
  <rect x="128" y="0" width="32" height="32" fill="#E6E6E6" />
  <rect x="160" y="0" width="32" height="32" fill="#C7D4D8" />
  <rect x="192" y="0" width="32" height="32" fill="#3D5365" />
  <rect x="224" y="0" width="32" height="32" fill="#FFFFFF" />
  <rect x="0" y="32" width="32" height="32" fill="#2B2D42" />
  <rect x="32" y="32" width="32" height="32" fill="#8D99AE" />
  <rect x="64" y="32" width="32" height="32" fill="#F2F2F2" />
  <rect x="96" y="32" width="32" height="32" fill="#C7D4D8" />
  <rect x="128" y="32" width="32" height="32" fill="#F44336" />
  <rect x="160" y="32" width="32" height="32" fill="#A0D8E0" />
  <rect x="192" y="32" width="32" height="32" fill="#3D5365" />
  <rect x="224" y="32" width="32" height="32" fill="#BEC8C8" />
  <rect x="0" y="64" width="32" height="32" fill="#E5F9FF" />
  <rect x="32" y="64" width="32" height="32" fill="#2B2D42" />
  <rect x="64" y="64" width="32" height="32" fill="#F44336" />
  <rect x="96" y="64" width="32" height="32" fill="#6B8E8D" />
  <rect x="128" y="64" width="32" height="32" fill="#A0D8E0" />
  <rect x="160" y="64" width="32" height="32" fill="#8D99AE" />
  <rect x="192" y="64" width="32" height="32" fill="#C7D4D8" />
  <rect x="224" y="64" width="32" height="32" fill="#FFFFFF" />
  <rect x="0" y="96" width="32" height="32" fill="#F2F2F2" />
  <rect x="32" y="96" width="32" height="32" fill="#C7D4D8" />
  <rect x="64" y="96" width="32" height="32" fill="#2B2D42" />
  <rect x="96" y="96" width="32" height="32" fill="#6B8E8D" />
  <rect x="128" y="96" width="32" height="32" fill="#D1E5EA" />
  <rect x="160" y="96" width="32" height="32" fill="#F44336" />
  <rect x="192" y="96" width="32" height="32" fill="#3D5365" />
  <rect x="224" y="96" width="32" height="32" fill="#BEC8C8" />
  <rect x="0" y="128" width="32" height="32" fill="#A0D8E0" />
  <rect x="32" y="128" width="32" height="32" fill="#F44336" />
  <rect x="64" y="128" width="32" height="32" fill="#E6E6E6" />
  <rect x="96" y="128" width="32" height="32" fill="#8D99AE" />
  <rect x="128" y="128" width="32" height="32" fill="#F2F2F2" />
  <rect x="160" y="128" width="32" height="32" fill="#C7D4D8" />
  <rect x="192" y="128" width="32" height="32" fill="#2B2D42" />
  <rect x="224" y="128" width="32" height="32" fill="#FFFFFF" />
  <rect x="0" y="160" width="32" height="32" fill="#6B8E8D" />
  <rect x="32" y="160" width="32" height="32" fill="#3D5365" />
  <rect x="64" y="160" width="32" height="32" fill="#A0D8E0" />
  <rect x="96" y="160" width="32" height="32" fill="#F44336" />
  <rect x="128" y="160" width="32" height="32" fill="#C7D4D8" />
  <rect x="160" y="160" width="32" height="32" fill="#E6E6E6" />
  <rect x="192" y="160" width="32" height="32" fill="#8D99AE" />
  <rect x="224" y="160" width="32" height="32" fill="#2B2D42" />
  <rect x="0" y="192" width="32" height="32" fill="#BEC8C8" />
  <rect x="32" y="192" width="32" height="32" fill="#FFFFFF" />
  <rect x="64" y="192" width="32" height="32" fill="#8D99AE" />
  <rect x="96" y="192" width="32" height="32" fill="#2B2D42" />
  <rect x="128" y="192" width="32" height="32" fill="#F2F2F2" />
  <rect x="160" y="192" width="32" height="32" fill="#C7D4D8" />
  <rect x="192" y="192" width="32" height="32" fill="#A0D8E0" />
  <rect x="224" y="192" width="32" height="32" fill="#F44336" />
  <rect x="0" y="224" width="32" height="32" fill="#FFFFFF" />
  <rect x="32" y="224" width="32" height="32" fill="#E6E6E6" />
  <rect x="64" y="224" width="32" height="32" fill="#6B8E8D" />
  <rect x="96" y="224" width="32" height="32" fill="#BEC8C8" />
  <rect x="128" y="224" width="32" height="32" fill="#A0D8E0" />
  <rect x="160" y="224" width="32" height="32" fill="#F2F2F2" />
  <rect x="192" y="224" width="32" height="32" fill="#8D99AE" />
  <rect x="224" y="224" width="32" height="32" fill="#3D5365" />
</svg>
