<svg xmlns="http://www.w3.org/2000/svg" width="256" height="256" viewBox="0 0 256 256" shape-rendering="crispEdges" role="img" aria-labelledby="title desc">
  <title id="title">Tension and Release</title>
  <desc id="desc">This artwork embodies the emotional tension between vulnerability and strength through contrasting colors and patterns. The palette of rich greens and honey golds represents vitality and growth, while the deep olive introduces a sense of grounding and stability. The pattern of 'islands' indicates strength amid chaos, offset by 'stack' flows that imply vulnerability, especially in the center where colors collide. The main contrast emerges at the borders, simulating a break as vulnerability seeps through, creating an echo of desire amidst emptiness. The balanced chaos reflects the seed's essence, inviting a reflective exploration of strength in the midst of vulnerability.</desc>
  <rect width="256" height="256" fill="#FFFFFF" />
  <rect x="0" y="0" width="32" height="32" fill="#2E7D32" />
  <rect x="32" y="0" width="32" height="32" fill="#B3E6B6" />
  <rect x="64" y="0" width="32" height="32" fill="#FFD54F" />
  <rect x="96" y="0" width="32" height="32" fill="#663300" />
  <rect x="128" y="0" width="32" height="32" fill="#FFF9C4" />
  <rect x="160" y="0" width="32" height="32" fill="#CFCFCF" />
  <rect x="192" y="0" width="32" height="32" fill="#3A763A" />
  <rect x="224" y="0" width="32" height="32" fill="#A1C8A1" />
  <rect x="0" y="32" width="32" height="32" fill="#B2CC8A" />
  <rect x="32" y="32" width="32" height="32" fill="#3E6B3F" />
  <rect x="64" y="32" width="32" height="32" fill="#7CAA3B" />
  <rect x="96" y="32" width="32" height="32" fill="#AACC60" />
  <rect x="128" y="32" width="32" height="32" fill="#AE5F48" />
  <rect x="160" y="32" width="32" height="32" fill="#E7C399" />
  <rect x="192" y="32" width="32" height="32" fill="#8FA74A" />
  <rect x="224" y="32" width="32" height="32" fill="#E3E3E3" />
  <rect x="0" y="64" width="32" height="32" fill="#FFFDE7" />
  <rect x="32" y="64" width="32" height="32" fill="#466C1E" />
  <rect x="64" y="64" width="32" height="32" fill="#FFF8E1" />
  <rect x="96" y="64" width="32" height="32" fill="#8E8E8E" />
  <rect x="128" y="64" width="32" height="32" fill="#D1A043" />
  <rect x="160" y="64" width="32" height="32" fill="#645A4A" />
  <rect x="192" y="64" width="32" height="32" fill="#F9F9F9" />
  <rect x="224" y="64" width="32" height="32" fill="#C6D8C6" />
  <rect x="0" y="96" width="32" height="32" fill="#A9C9A0" />
  <rect x="32" y="96" width="32" height="32" fill="#DEE6A1" />
  <rect x="64" y="96" width="32" height="32" fill="#FFCC80" />
  <rect x="96" y="96" width="32" height="32" fill="#462272" />
  <rect x="128" y="96" width="32" height="32" fill="#4C4D4F" />
  <rect x="160" y="96" width="32" height="32" fill="#FFECB3" />
  <rect x="192" y="96" width="32" height="32" fill="#D3D8D3" />
  <rect x="224" y="96" width="32" height="32" fill="#FAE3B2" />
  <rect x="0" y="128" width="32" height="32" fill="#B7C9B6" />
  <rect x="32" y="128" width="32" height="32" fill="#3A6350" />
  <rect x="64" y="128" width="32" height="32" fill="#FFD740" />
  <rect x="96" y="128" width="32" height="32" fill="#AB663A" />
  <rect x="128" y="128" width="32" height="32" fill="#C2C8C2" />
  <rect x="160" y="128" width="32" height="32" fill="#E8F5E9" />
  <rect x="192" y="128" width="32" height="32" fill="#333333" />
  <rect x="224" y="128" width="32" height="32" fill="#E2EFDA" />
  <rect x="0" y="160" width="32" height="32" fill="#ABEB8A" />
  <rect x="32" y="160" width="32" height="32" fill="#7A9C6C" />
  <rect x="64" y="160" width="32" height="32" fill="#D6D3E5" />
  <rect x="96" y="160" width="32" height="32" fill="#8BE44C" />
  <rect x="128" y="160" width="32" height="32" fill="#FFD740" />
  <rect x="160" y="160" width="32" height="32" fill="#CBB88A" />
  <rect x="192" y="160" width="32" height="32" fill="#F1F4E3" />
  <rect x="224" y="160" width="32" height="32" fill="#F5F5F5" />
  <rect x="0" y="192" width="32" height="32" fill="#E1E1E1" />
  <rect x="32" y="192" width="32" height="32" fill="#F0E68C" />
  <rect x="64" y="192" width="32" height="32" fill="#4CAF50" />
  <rect x="96" y="192" width="32" height="32" fill="#B88E47" />
  <rect x="128" y="192" width="32" height="32" fill="#FFE0B2" />
  <rect x="160" y="192" width="32" height="32" fill="#B2D1B0" />
  <rect x="192" y="192" width="32" height="32" fill="#777777" />
  <rect x="224" y="192" width="32" height="32" fill="#FFCCBC" />
  <rect x="0" y="224" width="32" height="32" fill="#F8E1D4" />
  <rect x="32" y="224" width="32" height="32" fill="#DDFFED" />
  <rect x="64" y="224" width="32" height="32" fill="#C8E6C9" />
  <rect x="96" y="224" width="32" height="32" fill="#6C705B" />
  <rect x="128" y="224" width="32" height="32" fill="#F9F4D9" />
  <rect x="160" y="224" width="32" height="32" fill="#37474F" />
  <rect x="192" y="224" width="32" height="32" fill="#F4EEFF" />
  <rect x="224" y="224" width="32" height="32" fill="#BBDEFB" />
</svg>
