<svg xmlns="http://www.w3.org/2000/svg" width="256" height="256" viewBox="0 0 256 256" shape-rendering="crispEdges" role="img" aria-labelledby="title desc">
  <title id="title">Echoes of Contrast</title>
  <desc id="desc">This composition captures the tension between longing and resolve through a structured 8x8 grid. The emotional tone is expressed with a palette of deep blue and pale yellow, symbolizing melancholic yearning against determined clarity. The top half, representing longing, features dense clusters of muted, darker colors, while the bottom reflects resolve with more structured, vibrant oscillations. The collision is most visible in the horizontal separation where the deep blue bands starkly meet the lighter accents, evoking a struggle between chaos and order. The ‘ladder’ shape seed is abstractly interpreted through directional lines and spacing, creating a visual metaphor for upward aspiration versus grounding reality.</desc>
  <rect width="256" height="256" fill="#FFFFFF" />
  <rect x="0" y="0" width="32" height="32" fill="#000000" />
  <rect x="32" y="0" width="32" height="32" fill="#001F4D" />
  <rect x="64" y="0" width="32" height="32" fill="#003B5C" />
  <rect x="96" y="0" width="32" height="32" fill="#005974" />
  <rect x="128" y="0" width="32" height="32" fill="#00788C" />
  <rect x="160" y="0" width="32" height="32" fill="#009EB8" />
  <rect x="192" y="0" width="32" height="32" fill="#00CFFF" />
  <rect x="224" y="0" width="32" height="32" fill="#FFFFD4" />
  <rect x="0" y="32" width="32" height="32" fill="#F6FFB2" />
  <rect x="32" y="32" width="32" height="32" fill="#F1FFB0" />
  <rect x="64" y="32" width="32" height="32" fill="#E9FFA4" />
  <rect x="96" y="32" width="32" height="32" fill="#D9FF95" />
  <rect x="128" y="32" width="32" height="32" fill="#C6FF85" />
  <rect x="160" y="32" width="32" height="32" fill="#B3FF75" />
  <rect x="192" y="32" width="32" height="32" fill="#99FF58" />
  <rect x="224" y="32" width="32" height="32" fill="#8DFF47" />
  <rect x="0" y="64" width="32" height="32" fill="#7FFFD4" />
  <rect x="32" y="64" width="32" height="32" fill="#5ED2B0" />
  <rect x="64" y="64" width="32" height="32" fill="#4BA68A" />
  <rect x="96" y="64" width="32" height="32" fill="#388C68" />
  <rect x="128" y="64" width="32" height="32" fill="#26734A" />
  <rect x="160" y="64" width="32" height="32" fill="#1A5A30" />
  <rect x="192" y="64" width="32" height="32" fill="#255C3A" />
  <rect x="224" y="64" width="32" height="32" fill="#E0E0E0" />
  <rect x="0" y="96" width="32" height="32" fill="#A0A0A0" />
  <rect x="32" y="96" width="32" height="32" fill="#B3B3B3" />
  <rect x="64" y="96" width="32" height="32" fill="#C1C1C1" />
  <rect x="96" y="96" width="32" height="32" fill="#D5D5D5" />
  <rect x="128" y="96" width="32" height="32" fill="#E3E3E3" />
  <rect x="160" y="96" width="32" height="32" fill="#F5F5F5" />
  <rect x="192" y="96" width="32" height="32" fill="#FFFFFF" />
  <rect x="224" y="96" width="32" height="32" fill="#FFFFFF" />
  <rect x="0" y="128" width="32" height="32" fill="#FFE4B5" />
  <rect x="32" y="128" width="32" height="32" fill="#E0B000" />
  <rect x="64" y="128" width="32" height="32" fill="#C89E00" />
  <rect x="96" y="128" width="32" height="32" fill="#B18800" />
  <rect x="128" y="128" width="32" height="32" fill="#997700" />
  <rect x="160" y="128" width="32" height="32" fill="#7F6B00" />
  <rect x="192" y="128" width="32" height="32" fill="#665C00" />
  <rect x="224" y="128" width="32" height="32" fill="#545300" />
  <rect x="0" y="160" width="32" height="32" fill="#484E00" />
  <rect x="32" y="160" width="32" height="32" fill="#646400" />
  <rect x="64" y="160" width="32" height="32" fill="#828900" />
  <rect x="96" y="160" width="32" height="32" fill="#A1AB00" />
  <rect x="128" y="160" width="32" height="32" fill="#B0C700" />
  <rect x="160" y="160" width="32" height="32" fill="#BFD900" />
  <rect x="192" y="160" width="32" height="32" fill="#CCF800" />
  <rect x="224" y="160" width="32" height="32" fill="#FFF4D1" />
  <rect x="0" y="192" width="32" height="32" fill="#E6E6E6" />
  <rect x="32" y="192" width="32" height="32" fill="#DADADA" />
  <rect x="64" y="192" width="32" height="32" fill="#CFD9D9" />
  <rect x="96" y="192" width="32" height="32" fill="#BECFD0" />
  <rect x="128" y="192" width="32" height="32" fill="#A8B3E0" />
  <rect x="160" y="192" width="32" height="32" fill="#9FB2F6" />
  <rect x="192" y="192" width="32" height="32" fill="#8DB7FF" />
  <rect x="224" y="192" width="32" height="32" fill="#759BFF" />
  <rect x="0" y="224" width="32" height="32" fill="#4B5FCE" />
  <rect x="32" y="224" width="32" height="32" fill="#2456AA" />
  <rect x="64" y="224" width="32" height="32" fill="#003E88" />
  <rect x="96" y="224" width="32" height="32" fill="#002E67" />
  <rect x="128" y="224" width="32" height="32" fill="#001F4D" />
  <rect x="160" y="224" width="32" height="32" fill="#000C2E" />
  <rect x="192" y="224" width="32" height="32" fill="#000500" />
  <rect x="224" y="224" width="32" height="32" fill="#000000" />
</svg>
