<svg xmlns="http://www.w3.org/2000/svg" width="256" height="256" viewBox="0 0 256 256" shape-rendering="crispEdges" role="img" aria-labelledby="title desc">
  <title id="title">Collision of Colors</title>
  <desc id="desc">The emotional tone reflects the juxtaposition of joy and grief, which is expressed through contrasting colors and patterns. The palette features deep blues and muted purples representing grief, offset by vibrant yellows and oranges embodying joy. The main contrast is concentrated in the center, where warm tones radiate outward, interrupted by cooler shades, exemplifying the collision of emotions. This arrangement creates a dynamic tension that suggests motion from despair to hope, mirroring life’s complexity. The patterns employed evoke a sense of order versus chaos, with structured segments clashing against more chaotic distributions.</desc>
  <rect width="256" height="256" fill="#FFFFFF" />
  <rect x="0" y="0" width="32" height="32" fill="#FFFF00" />
  <rect x="32" y="0" width="32" height="32" fill="#FFA500" />
  <rect x="64" y="0" width="32" height="32" fill="#0000FF" />
  <rect x="96" y="0" width="32" height="32" fill="#000080" />
  <rect x="128" y="0" width="32" height="32" fill="#6A5ACD" />
  <rect x="160" y="0" width="32" height="32" fill="#D8BFD8" />
  <rect x="192" y="0" width="32" height="32" fill="#FFB6C1" />
  <rect x="224" y="0" width="32" height="32" fill="#000000" />
  <rect x="0" y="32" width="32" height="32" fill="#FFFFFF" />
  <rect x="32" y="32" width="32" height="32" fill="#FFFFE0" />
  <rect x="64" y="32" width="32" height="32" fill="#ADD8E6" />
  <rect x="96" y="32" width="32" height="32" fill="#B0C4DE" />
  <rect x="128" y="32" width="32" height="32" fill="#E6E6FA" />
  <rect x="160" y="32" width="32" height="32" fill="#A9A9A9" />
  <rect x="192" y="32" width="32" height="32" fill="#778899" />
  <rect x="224" y="32" width="32" height="32" fill="#696969" />
  <rect x="0" y="64" width="32" height="32" fill="#FFFAF0" />
  <rect x="32" y="64" width="32" height="32" fill="#FFD700" />
  <rect x="64" y="64" width="32" height="32" fill="#4682B4" />
  <rect x="96" y="64" width="32" height="32" fill="#8A2BE2" />
  <rect x="128" y="64" width="32" height="32" fill="#E0FFFF" />
  <rect x="160" y="64" width="32" height="32" fill="#DDA0DD" />
  <rect x="192" y="64" width="32" height="32" fill="#FF69B4" />
  <rect x="224" y="64" width="32" height="32" fill="#708090" />
  <rect x="0" y="96" width="32" height="32" fill="#FFF8DC" />
  <rect x="32" y="96" width="32" height="32" fill="#FFE4B5" />
  <rect x="64" y="96" width="32" height="32" fill="#5F9EA0" />
  <rect x="96" y="96" width="32" height="32" fill="#9370DB" />
  <rect x="128" y="96" width="32" height="32" fill="#F5FFFA" />
  <rect x="160" y="96" width="32" height="32" fill="#F0E68C" />
  <rect x="192" y="96" width="32" height="32" fill="#C0C0C0" />
  <rect x="224" y="96" width="32" height="32" fill="#556B2F" />
  <rect x="0" y="128" width="32" height="32" fill="#FAFAD2" />
  <rect x="32" y="128" width="32" height="32" fill="#FF4500" />
  <rect x="64" y="128" width="32" height="32" fill="#6495ED" />
  <rect x="96" y="128" width="32" height="32" fill="#7B68EE" />
  <rect x="128" y="128" width="32" height="32" fill="#D3D3D3" />
  <rect x="160" y="128" width="32" height="32" fill="#B0E0E6" />
  <rect x="192" y="128" width="32" height="32" fill="#CD5C5C" />
  <rect x="224" y="128" width="32" height="32" fill="#2F4F4F" />
  <rect x="0" y="160" width="32" height="32" fill="#F0FFF0" />
  <rect x="32" y="160" width="32" height="32" fill="#FFF0F5" />
  <rect x="64" y="160" width="32" height="32" fill="#4169E1" />
  <rect x="96" y="160" width="32" height="32" fill="#8B008B" />
  <rect x="128" y="160" width="32" height="32" fill="#FFF5EE" />
  <rect x="160" y="160" width="32" height="32" fill="#20B2AA" />
  <rect x="192" y="160" width="32" height="32" fill="#F5DEB3" />
  <rect x="224" y="160" width="32" height="32" fill="#A52A2A" />
  <rect x="0" y="192" width="32" height="32" fill="#FFEBCD" />
  <rect x="32" y="192" width="32" height="32" fill="#FFF5EE" />
  <rect x="64" y="192" width="32" height="32" fill="#4682B4" />
  <rect x="96" y="192" width="32" height="32" fill="#9370DB" />
  <rect x="128" y="192" width="32" height="32" fill="#F5FFFA" />
  <rect x="160" y="192" width="32" height="32" fill="#D2691E" />
  <rect x="192" y="192" width="32" height="32" fill="#808080" />
  <rect x="224" y="192" width="32" height="32" fill="#3CB371" />
  <rect x="0" y="224" width="32" height="32" fill="#F0E68C" />
  <rect x="32" y="224" width="32" height="32" fill="#F08080" />
  <rect x="64" y="224" width="32" height="32" fill="#708090" />
  <rect x="96" y="224" width="32" height="32" fill="#4169E1" />
  <rect x="128" y="224" width="32" height="32" fill="#C71585" />
  <rect x="160" y="224" width="32" height="32" fill="#2E8B57" />
  <rect x="192" y="224" width="32" height="32" fill="#D8BFD8" />
  <rect x="224" y="224" width="32" height="32" fill="#A8A8A8" />
</svg>
