<svg xmlns="http://www.w3.org/2000/svg" width="256" height="256" viewBox="0 0 256 256" shape-rendering="crispEdges" role="img" aria-labelledby="title desc">
  <title id="title">Contrasting Echo</title>
  <desc id="desc">This artwork utilizes the emotional tension between loneliness and connection through a palette of deep reds, grays, and pinks, symbolizing raw emotion and vulnerability. The central area bursts forth with intensity while the edges remain subdued, creating a visual tension. The broken pixels echo the imperfections of personal connections, while the crosshatch pattern contrasts the structured grid, suggesting the struggle between hidden emotions and open expression. This layout emphasizes the outpouring of feelings from the center, radiating towards the corners, with a deliberate negative space to reflect isolation.</desc>
  <rect width="256" height="256" fill="#FFFFFF" />
  <rect x="0" y="0" width="32" height="32" fill="#D50032" />
  <rect x="32" y="0" width="32" height="32" fill="#F95A8C" />
  <rect x="64" y="0" width="32" height="32" fill="#F1C6D3" />
  <rect x="96" y="0" width="32" height="32" fill="#C2B4C8" />
  <rect x="128" y="0" width="32" height="32" fill="#8E8B9A" />
  <rect x="160" y="0" width="32" height="32" fill="#5B5A6F" />
  <rect x="192" y="0" width="32" height="32" fill="#22223B" />
  <rect x="224" y="0" width="32" height="32" fill="#111219" />
  <rect x="0" y="32" width="32" height="32" fill="#D50032" />
  <rect x="32" y="32" width="32" height="32" fill="#F95A8C" />
  <rect x="64" y="32" width="32" height="32" fill="#F1C6D3" />
  <rect x="96" y="32" width="32" height="32" fill="#C2B4C8" />
  <rect x="128" y="32" width="32" height="32" fill="#8E8B9A" />
  <rect x="160" y="32" width="32" height="32" fill="#5B5A6F" />
  <rect x="192" y="32" width="32" height="32" fill="#22223B" />
  <rect x="224" y="32" width="32" height="32" fill="#111219" />
  <rect x="0" y="64" width="32" height="32" fill="#F95A8C" />
  <rect x="32" y="64" width="32" height="32" fill="#3C3B47" />
  <rect x="64" y="64" width="32" height="32" fill="#6A6B7D" />
  <rect x="96" y="64" width="32" height="32" fill="#A7A7A9" />
  <rect x="128" y="64" width="32" height="32" fill="#B6BEC3" />
  <rect x="160" y="64" width="32" height="32" fill="#D8DDE1" />
  <rect x="192" y="64" width="32" height="32" fill="#FFFFFF" />
  <rect x="224" y="64" width="32" height="32" fill="#F8F9FA" />
  <rect x="0" y="96" width="32" height="32" fill="#F1C6D3" />
  <rect x="32" y="96" width="32" height="32" fill="#1B1C4A" />
  <rect x="64" y="96" width="32" height="32" fill="#363646" />
  <rect x="96" y="96" width="32" height="32" fill="#4A4D59" />
  <rect x="128" y="96" width="32" height="32" fill="#6B7280" />
  <rect x="160" y="96" width="32" height="32" fill="#A0A4A7" />
  <rect x="192" y="96" width="32" height="32" fill="#DFDFE1" />
  <rect x="224" y="96" width="32" height="32" fill="#FFFFFF" />
  <rect x="0" y="128" width="32" height="32" fill="#C2B4C8" />
  <rect x="32" y="128" width="32" height="32" fill="#4B4E53" />
  <rect x="64" y="128" width="32" height="32" fill="#515459" />
  <rect x="96" y="128" width="32" height="32" fill="#6B6D72" />
  <rect x="128" y="128" width="32" height="32" fill="#9A9DA0" />
  <rect x="160" y="128" width="32" height="32" fill="#D1D2D5" />
  <rect x="192" y="128" width="32" height="32" fill="#FFFFFF" />
  <rect x="224" y="128" width="32" height="32" fill="#E7E9EB" />
  <rect x="0" y="160" width="32" height="32" fill="#8E8B9A" />
  <rect x="32" y="160" width="32" height="32" fill="#7F8084" />
  <rect x="64" y="160" width="32" height="32" fill="#A1A4A7" />
  <rect x="96" y="160" width="32" height="32" fill="#C3C5C7" />
  <rect x="128" y="160" width="32" height="32" fill="#D9DBDD" />
  <rect x="160" y="160" width="32" height="32" fill="#F1F3F5" />
  <rect x="192" y="160" width="32" height="32" fill="#FFFFFF" />
  <rect x="224" y="160" width="32" height="32" fill="#F7F8FA" />
  <rect x="0" y="192" width="32" height="32" fill="#5B5A6F" />
  <rect x="32" y="192" width="32" height="32" fill="#424548" />
  <rect x="64" y="192" width="32" height="32" fill="#626466" />
  <rect x="96" y="192" width="32" height="32" fill="#7A7B7D" />
  <rect x="128" y="192" width="32" height="32" fill="#A7A8AA" />
  <rect x="160" y="192" width="32" height="32" fill="#DFF1F5" />
  <rect x="192" y="192" width="32" height="32" fill="#FFFFFF" />
  <rect x="224" y="192" width="32" height="32" fill="#F3F4F5" />
  <rect x="0" y="224" width="32" height="32" fill="#22223B" />
  <rect x="32" y="224" width="32" height="32" fill="#111219" />
  <rect x="64" y="224" width="32" height="32" fill="#2A2D34" />
  <rect x="96" y="224" width="32" height="32" fill="#43474B" />
  <rect x="128" y="224" width="32" height="32" fill="#5C5F63" />
  <rect x="160" y="224" width="32" height="32" fill="#D1D5DA" />
  <rect x="192" y="224" width="32" height="32" fill="#FFFFFF" />
  <rect x="224" y="224" width="32" height="32" fill="#F9F9F9" />
</svg>
