<svg xmlns="http://www.w3.org/2000/svg" width="256" height="256" viewBox="0 0 256 256" shape-rendering="crispEdges" role="img" aria-labelledby="title desc">
  <title id="title">Pressure Release</title>
  <desc id="desc">The emotional tone captures the tension between quietude and the weight of pressure, evoking a contrast of compressed density on one edge which loosens into a quiet field. The palette of soft off-white and faint peach serves as a muted field against darker tones, illustrating a transition from soft to sharp. The main collision occurs where darker hues clash with lighter ones, suggesting an argument of emotional flow, embodying the seed ideas of symmetry breaking and diagonal tension.</desc>
  <rect width="256" height="256" fill="#FFFFFF" />
  <rect x="0" y="0" width="32" height="32" fill="#2E0B1B" />
  <rect x="32" y="0" width="32" height="32" fill="#2B0D1A" />
  <rect x="64" y="0" width="32" height="32" fill="#2A0E1E" />
  <rect x="96" y="0" width="32" height="32" fill="#2E113D" />
  <rect x="128" y="0" width="32" height="32" fill="#6A3D5B" />
  <rect x="160" y="0" width="32" height="32" fill="#C6B2B9" />
  <rect x="192" y="0" width="32" height="32" fill="#FFE3D8" />
  <rect x="224" y="0" width="32" height="32" fill="#FAF7F4" />
  <rect x="0" y="32" width="32" height="32" fill="#2B0D1A" />
  <rect x="32" y="32" width="32" height="32" fill="#2E0B1B" />
  <rect x="64" y="32" width="32" height="32" fill="#3D193D" />
  <rect x="96" y="32" width="32" height="32" fill="#5A3D58" />
  <rect x="128" y="32" width="32" height="32" fill="#B8B8C3" />
  <rect x="160" y="32" width="32" height="32" fill="#E2D7DA" />
  <rect x="192" y="32" width="32" height="32" fill="#F1E3E7" />
  <rect x="224" y="32" width="32" height="32" fill="#F0F2F2" />
  <rect x="0" y="64" width="32" height="32" fill="#2F1846" />
  <rect x="32" y="64" width="32" height="32" fill="#2E113D" />
  <rect x="64" y="64" width="32" height="32" fill="#5C2A54" />
  <rect x="96" y="64" width="32" height="32" fill="#9B3E65" />
  <rect x="128" y="64" width="32" height="32" fill="#D79DB4" />
  <rect x="160" y="64" width="32" height="32" fill="#F7E4E4" />
  <rect x="192" y="64" width="32" height="32" fill="#F9F9F8" />
  <rect x="224" y="64" width="32" height="32" fill="#FAFAF8" />
  <rect x="0" y="96" width="32" height="32" fill="#004746" />
  <rect x="32" y="96" width="32" height="32" fill="#3E6D71" />
  <rect x="64" y="96" width="32" height="32" fill="#A5B8B7" />
  <rect x="96" y="96" width="32" height="32" fill="#D3D7DC" />
  <rect x="128" y="96" width="32" height="32" fill="#F0EAE8" />
  <rect x="160" y="96" width="32" height="32" fill="#F4F8F3" />
  <rect x="192" y="96" width="32" height="32" fill="#FAFAF8" />
  <rect x="224" y="96" width="32" height="32" fill="#FDFDFE" />
  <rect x="0" y="128" width="32" height="32" fill="#D3B749" />
  <rect x="32" y="128" width="32" height="32" fill="#7B5B24" />
  <rect x="64" y="128" width="32" height="32" fill="#B68B44" />
  <rect x="96" y="128" width="32" height="32" fill="#DAAA57" />
  <rect x="128" y="128" width="32" height="32" fill="#FDEEC6" />
  <rect x="160" y="128" width="32" height="32" fill="#F5EDD3" />
  <rect x="192" y="128" width="32" height="32" fill="#F7F3F0" />
  <rect x="224" y="128" width="32" height="32" fill="#FBF7F7" />
  <rect x="0" y="160" width="32" height="32" fill="#1C2B26" />
  <rect x="32" y="160" width="32" height="32" fill="#5D7576" />
  <rect x="64" y="160" width="32" height="32" fill="#A3C6C4" />
  <rect x="96" y="160" width="32" height="32" fill="#E0EBED" />
  <rect x="128" y="160" width="32" height="32" fill="#F1F4F2" />
  <rect x="160" y="160" width="32" height="32" fill="#FAFBFA" />
  <rect x="192" y="160" width="32" height="32" fill="#FDFDFE" />
  <rect x="224" y="160" width="32" height="32" fill="#FFFFFF" />
  <rect x="0" y="192" width="32" height="32" fill="#4E2453" />
  <rect x="32" y="192" width="32" height="32" fill="#6F3C60" />
  <rect x="64" y="192" width="32" height="32" fill="#A89DA4" />
  <rect x="96" y="192" width="32" height="32" fill="#D9D4DB" />
  <rect x="128" y="192" width="32" height="32" fill="#F3E6E8" />
  <rect x="160" y="192" width="32" height="32" fill="#F9F8F9" />
  <rect x="192" y="192" width="32" height="32" fill="#F9F9F9" />
  <rect x="224" y="192" width="32" height="32" fill="#FFFFFF" />
  <rect x="0" y="224" width="32" height="32" fill="#141A1C" />
  <rect x="32" y="224" width="32" height="32" fill="#2B2628" />
  <rect x="64" y="224" width="32" height="32" fill="#2F3A3B" />
  <rect x="96" y="224" width="32" height="32" fill="#C7C9C8" />
  <rect x="128" y="224" width="32" height="32" fill="#D1E3E2" />
  <rect x="160" y="224" width="32" height="32" fill="#F4F7F4" />
  <rect x="192" y="224" width="32" height="32" fill="#FAFDFD" />
  <rect x="224" y="224" width="32" height="32" fill="#FFFFFF" />
</svg>
