<svg xmlns="http://www.w3.org/2000/svg" width="256" height="256" viewBox="0 0 256 256" shape-rendering="crispEdges" role="img" aria-labelledby="title desc">
  <title id="title">Pulse of Connection</title>
  <desc id="desc">The emotional tone oscillates between 'loneliness' and 'connection,' represented by a mix of warm and cool colors to evoke tension and juxtaposition. The palette of yellow and muted purple stands for warmth and depth, while deep blue adds a sense of calm yet echoes a feeling of solitude. The arrangement features a dense cluster of colors in one corner, gradually tapering off into negative space, reflecting the push and pull of emotional connectivity. The 'crosshatch against grid' pattern creates lines of division yet allows colors to blend at the intersection, signifying moments of connection amidst isolation. The use of broken pixels adds imperfection, embodying the fragility of human relationships.</desc>
  <rect width="256" height="256" fill="#FFFFFF" />
  <rect x="0" y="0" width="32" height="32" fill="#FBC02D" />
  <rect x="32" y="0" width="32" height="32" fill="#795548" />
  <rect x="64" y="0" width="32" height="32" fill="#9C27B0" />
  <rect x="96" y="0" width="32" height="32" fill="#6A1B9A" />
  <rect x="128" y="0" width="32" height="32" fill="#2196F3" />
  <rect x="160" y="0" width="32" height="32" fill="#42A5F5" />
  <rect x="192" y="0" width="32" height="32" fill="#E1BEE7" />
  <rect x="224" y="0" width="32" height="32" fill="#FFFFFF" />
  <rect x="0" y="32" width="32" height="32" fill="#FBC02D" />
  <rect x="32" y="32" width="32" height="32" fill="#FFB74D" />
  <rect x="64" y="32" width="32" height="32" fill="#6D4C41" />
  <rect x="96" y="32" width="32" height="32" fill="#D32F2F" />
  <rect x="128" y="32" width="32" height="32" fill="#8E24AA" />
  <rect x="160" y="32" width="32" height="32" fill="#5E35B1" />
  <rect x="192" y="32" width="32" height="32" fill="#BBDEFB" />
  <rect x="224" y="32" width="32" height="32" fill="#FFFFFF" />
  <rect x="0" y="64" width="32" height="32" fill="#FFF3E0" />
  <rect x="32" y="64" width="32" height="32" fill="#F0F4C3" />
  <rect x="64" y="64" width="32" height="32" fill="#FFD54F" />
  <rect x="96" y="64" width="32" height="32" fill="#CDDC39" />
  <rect x="128" y="64" width="32" height="32" fill="#A1887F" />
  <rect x="160" y="64" width="32" height="32" fill="#42B983" />
  <rect x="192" y="64" width="32" height="32" fill="#546E7A" />
  <rect x="224" y="64" width="32" height="32" fill="#FFFFFF" />
  <rect x="0" y="96" width="32" height="32" fill="#F57F20" />
  <rect x="32" y="96" width="32" height="32" fill="#8D6E63" />
  <rect x="64" y="96" width="32" height="32" fill="#AFC74E" />
  <rect x="96" y="96" width="32" height="32" fill="#E57373" />
  <rect x="128" y="96" width="32" height="32" fill="#EF5350" />
  <rect x="160" y="96" width="32" height="32" fill="#2196F3" />
  <rect x="192" y="96" width="32" height="32" fill="#00695C" />
  <rect x="224" y="96" width="32" height="32" fill="#FFFFFF" />
  <rect x="0" y="128" width="32" height="32" fill="#FFECB3" />
  <rect x="32" y="128" width="32" height="32" fill="#FFCDD2" />
  <rect x="64" y="128" width="32" height="32" fill="#D1C4E9" />
  <rect x="96" y="128" width="32" height="32" fill="#B0BEC5" />
  <rect x="128" y="128" width="32" height="32" fill="#1E88E5" />
  <rect x="160" y="128" width="32" height="32" fill="#3949AB" />
  <rect x="192" y="128" width="32" height="32" fill="#F06292" />
  <rect x="224" y="128" width="32" height="32" fill="#FFFFFF" />
  <rect x="0" y="160" width="32" height="32" fill="#80DEEA" />
  <rect x="32" y="160" width="32" height="32" fill="#90CAF9" />
  <rect x="64" y="160" width="32" height="32" fill="#F06292" />
  <rect x="96" y="160" width="32" height="32" fill="#D32F2F" />
  <rect x="128" y="160" width="32" height="32" fill="#FBC02D" />
  <rect x="160" y="160" width="32" height="32" fill="#FFCC80" />
  <rect x="192" y="160" width="32" height="32" fill="#F48FB1" />
  <rect x="224" y="160" width="32" height="32" fill="#FFFFFF" />
  <rect x="0" y="192" width="32" height="32" fill="#FFECB3" />
  <rect x="32" y="192" width="32" height="32" fill="#C8E6C9" />
  <rect x="64" y="192" width="32" height="32" fill="#9FA8DA" />
  <rect x="96" y="192" width="32" height="32" fill="#B3E5FC" />
  <rect x="128" y="192" width="32" height="32" fill="#FF9800" />
  <rect x="160" y="192" width="32" height="32" fill="#FF5252" />
  <rect x="192" y="192" width="32" height="32" fill="#00BCD4" />
  <rect x="224" y="192" width="32" height="32" fill="#FFFFFF" />
  <rect x="0" y="224" width="32" height="32" fill="#FFFFFF" />
  <rect x="32" y="224" width="32" height="32" fill="#FFFFFF" />
  <rect x="64" y="224" width="32" height="32" fill="#FFFFFF" />
  <rect x="96" y="224" width="32" height="32" fill="#FFFFFF" />
  <rect x="128" y="224" width="32" height="32" fill="#FFFFFF" />
  <rect x="160" y="224" width="32" height="32" fill="#FFFFFF" />
  <rect x="192" y="224" width="32" height="32" fill="#FFFFFF" />
  <rect x="224" y="224" width="32" height="32" fill="#FFFFFF" />
</svg>
