<svg xmlns="http://www.w3.org/2000/svg" width="256" height="256" viewBox="0 0 256 256" shape-rendering="crispEdges" role="img" aria-labelledby="title desc">
  <title id="title">Veil of Trust</title>
  <desc id="desc">The emotional tone shifts between the warmth of trust and the cold suspicion through a balanced yet fractured composition. The color palette, characterized by soft sepia and muted blues, emphasizes a sense of nostalgia and broken memories. The left side exudes quiet balance, while the right introduces darker tones and fragmented patterns, illustrating the collision between the two emotions. The stark contrast occurs in the middle, where the organized 'rain' pattern of light colors meets the chaotic 'pressure_band' of shadows, evoking a visual tension between structure and disorder.</desc>
  <rect width="256" height="256" fill="#FFFFFF" />
  <rect x="0" y="0" width="32" height="32" fill="#F7F4E1" />
  <rect x="32" y="0" width="32" height="32" fill="#E8D9B3" />
  <rect x="64" y="0" width="32" height="32" fill="#D7D5C5" />
  <rect x="96" y="0" width="32" height="32" fill="#B3B1A3" />
  <rect x="128" y="0" width="32" height="32" fill="#A89C8D" />
  <rect x="160" y="0" width="32" height="32" fill="#7D6B59" />
  <rect x="192" y="0" width="32" height="32" fill="#4A4A4A" />
  <rect x="224" y="0" width="32" height="32" fill="#3A3A3A" />
  <rect x="0" y="32" width="32" height="32" fill="#E4D9B4" />
  <rect x="32" y="32" width="32" height="32" fill="#D8B89E" />
  <rect x="64" y="32" width="32" height="32" fill="#C2B29F" />
  <rect x="96" y="32" width="32" height="32" fill="#A67E7E" />
  <rect x="128" y="32" width="32" height="32" fill="#876E5D" />
  <rect x="160" y="32" width="32" height="32" fill="#524746" />
  <rect x="192" y="32" width="32" height="32" fill="#3D3D3D" />
  <rect x="224" y="32" width="32" height="32" fill="#1C1C1C" />
  <rect x="0" y="64" width="32" height="32" fill="#D0B38D" />
  <rect x="32" y="64" width="32" height="32" fill="#C2A46A" />
  <rect x="64" y="64" width="32" height="32" fill="#B0926C" />
  <rect x="96" y="64" width="32" height="32" fill="#A68659" />
  <rect x="128" y="64" width="32" height="32" fill="#8A704F" />
  <rect x="160" y="64" width="32" height="32" fill="#614E4F" />
  <rect x="192" y="64" width="32" height="32" fill="#3E3E3E" />
  <rect x="224" y="64" width="32" height="32" fill="#2E2E2E" />
  <rect x="0" y="96" width="32" height="32" fill="#BFAF95" />
  <rect x="32" y="96" width="32" height="32" fill="#CFC1A1" />
  <rect x="64" y="96" width="32" height="32" fill="#E0D2B4" />
  <rect x="96" y="96" width="32" height="32" fill="#D2D0C4" />
  <rect x="128" y="96" width="32" height="32" fill="#B8B2A6" />
  <rect x="160" y="96" width="32" height="32" fill="#7C6E6A" />
  <rect x="192" y="96" width="32" height="32" fill="#444545" />
  <rect x="224" y="96" width="32" height="32" fill="#262626" />
  <rect x="0" y="128" width="32" height="32" fill="#BFBFBF" />
  <rect x="32" y="128" width="32" height="32" fill="#D9D9D9" />
  <rect x="64" y="128" width="32" height="32" fill="#E6E6E6" />
  <rect x="96" y="128" width="32" height="32" fill="#C6C6C6" />
  <rect x="128" y="128" width="32" height="32" fill="#AAB8B1" />
  <rect x="160" y="128" width="32" height="32" fill="#838682" />
  <rect x="192" y="128" width="32" height="32" fill="#545454" />
  <rect x="224" y="128" width="32" height="32" fill="#202020" />
  <rect x="0" y="160" width="32" height="32" fill="#B2A78A" />
  <rect x="32" y="160" width="32" height="32" fill="#C9B89E" />
  <rect x="64" y="160" width="32" height="32" fill="#A9E1F2" />
  <rect x="96" y="160" width="32" height="32" fill="#B4D5EA" />
  <rect x="128" y="160" width="32" height="32" fill="#C1AEC4" />
  <rect x="160" y="160" width="32" height="32" fill="#8F7472" />
  <rect x="192" y="160" width="32" height="32" fill="#494949" />
  <rect x="224" y="160" width="32" height="32" fill="#1A1A1A" />
  <rect x="0" y="192" width="32" height="32" fill="#A3C5D8" />
  <rect x="32" y="192" width="32" height="32" fill="#B0B7C6" />
  <rect x="64" y="192" width="32" height="32" fill="#E8E8E8" />
  <rect x="96" y="192" width="32" height="32" fill="#BFD7C0" />
  <rect x="128" y="192" width="32" height="32" fill="#7C8A91" />
  <rect x="160" y="192" width="32" height="32" fill="#5A6465" />
  <rect x="192" y="192" width="32" height="32" fill="#383838" />
  <rect x="224" y="192" width="32" height="32" fill="#0D0D0D" />
  <rect x="0" y="224" width="32" height="32" fill="#B8D4E3" />
  <rect x="32" y="224" width="32" height="32" fill="#A4BDC7" />
  <rect x="64" y="224" width="32" height="32" fill="#BFC2C4" />
  <rect x="96" y="224" width="32" height="32" fill="#DEDFE0" />
  <rect x="128" y="224" width="32" height="32" fill="#E8ECD5" />
  <rect x="160" y="224" width="32" height="32" fill="#C4C4C4" />
  <rect x="192" y="224" width="32" height="32" fill="#2B2B2B" />
  <rect x="224" y="224" width="32" height="32" fill="#101010" />
</svg>
