<svg xmlns="http://www.w3.org/2000/svg" width="256" height="256" viewBox="0 0 256 256" shape-rendering="crispEdges" role="img" aria-labelledby="title desc">
  <title id="title">Braid of Shelter</title>
  <desc id="desc">This piece explores the emotional tension between safety and exposure. The palette, featuring soft greens and warm browns, evokes a sense of stability while contrasting with pale and cold tones that suggest vulnerability. The main collision occurs in the center where patterns of channels and glitches intertwine, representing the fragile balance between protection and exposure. The rising signal flow leads the eye upward, instilling a sense of hope amidst the complexities of safety and risk.</desc>
  <rect width="256" height="256" fill="#FFFFFF" />
  <rect x="0" y="0" width="32" height="32" fill="#4D8C5A" />
  <rect x="32" y="0" width="32" height="32" fill="#D8C59A" />
  <rect x="64" y="0" width="32" height="32" fill="#D8B49C" />
  <rect x="96" y="0" width="32" height="32" fill="#B4A590" />
  <rect x="128" y="0" width="32" height="32" fill="#F5E3CC" />
  <rect x="160" y="0" width="32" height="32" fill="#B7C9BF" />
  <rect x="192" y="0" width="32" height="32" fill="#C4D2D7" />
  <rect x="224" y="0" width="32" height="32" fill="#F2F6F2" />
  <rect x="0" y="32" width="32" height="32" fill="#C9B2A2" />
  <rect x="32" y="32" width="32" height="32" fill="#CDE9B8" />
  <rect x="64" y="32" width="32" height="32" fill="#B7C9BF" />
  <rect x="96" y="32" width="32" height="32" fill="#A2BAA9" />
  <rect x="128" y="32" width="32" height="32" fill="#E5E1D2" />
  <rect x="160" y="32" width="32" height="32" fill="#D6B989" />
  <rect x="192" y="32" width="32" height="32" fill="#D1E0E4" />
  <rect x="224" y="32" width="32" height="32" fill="#F1F5EA" />
  <rect x="0" y="64" width="32" height="32" fill="#DBE1CE" />
  <rect x="32" y="64" width="32" height="32" fill="#D6B291" />
  <rect x="64" y="64" width="32" height="32" fill="#BDB4A7" />
  <rect x="96" y="64" width="32" height="32" fill="#F7E4D8" />
  <rect x="128" y="64" width="32" height="32" fill="#C8E6B9" />
  <rect x="160" y="64" width="32" height="32" fill="#A6C8DA" />
  <rect x="192" y="64" width="32" height="32" fill="#8AABBF" />
  <rect x="224" y="64" width="32" height="32" fill="#C9E1DC" />
  <rect x="0" y="96" width="32" height="32" fill="#A6B8A2" />
  <rect x="32" y="96" width="32" height="32" fill="#D4C8B0" />
  <rect x="64" y="96" width="32" height="32" fill="#A3B9A7" />
  <rect x="96" y="96" width="32" height="32" fill="#EBD8B5" />
  <rect x="128" y="96" width="32" height="32" fill="#E2E8E6" />
  <rect x="160" y="96" width="32" height="32" fill="#B4CCB9" />
  <rect x="192" y="96" width="32" height="32" fill="#BAE3D1" />
  <rect x="224" y="96" width="32" height="32" fill="#E8EBE8" />
  <rect x="0" y="128" width="32" height="32" fill="#F1E3D0" />
  <rect x="32" y="128" width="32" height="32" fill="#C5D7C5" />
  <rect x="64" y="128" width="32" height="32" fill="#7DAE9B" />
  <rect x="96" y="128" width="32" height="32" fill="#A9C3A8" />
  <rect x="128" y="128" width="32" height="32" fill="#B3D6BE" />
  <rect x="160" y="128" width="32" height="32" fill="#BCC2D9" />
  <rect x="192" y="128" width="32" height="32" fill="#EAE4DB" />
  <rect x="224" y="128" width="32" height="32" fill="#E8F2F8" />
  <rect x="0" y="160" width="32" height="32" fill="#A4BDA8" />
  <rect x="32" y="160" width="32" height="32" fill="#F5F0E8" />
  <rect x="64" y="160" width="32" height="32" fill="#D8D4C1" />
  <rect x="96" y="160" width="32" height="32" fill="#9BCDB9" />
  <rect x="128" y="160" width="32" height="32" fill="#84D3CA" />
  <rect x="160" y="160" width="32" height="32" fill="#E6E1D3" />
  <rect x="192" y="160" width="32" height="32" fill="#D0E2D3" />
  <rect x="224" y="160" width="32" height="32" fill="#E8F7F5" />
  <rect x="0" y="192" width="32" height="32" fill="#F0E6D5" />
  <rect x="32" y="192" width="32" height="32" fill="#B6D9F2" />
  <rect x="64" y="192" width="32" height="32" fill="#B9CC8A" />
  <rect x="96" y="192" width="32" height="32" fill="#A5BEC7" />
  <rect x="128" y="192" width="32" height="32" fill="#88B4B5" />
  <rect x="160" y="192" width="32" height="32" fill="#C7D3E3" />
  <rect x="192" y="192" width="32" height="32" fill="#B9D7D3" />
  <rect x="224" y="192" width="32" height="32" fill="#DFF1F6" />
  <rect x="0" y="224" width="32" height="32" fill="#E1D5C5" />
  <rect x="32" y="224" width="32" height="32" fill="#E2E1C9" />
  <rect x="64" y="224" width="32" height="32" fill="#F5F3E1" />
  <rect x="96" y="224" width="32" height="32" fill="#D7C9B5" />
  <rect x="128" y="224" width="32" height="32" fill="#A2D0C5" />
  <rect x="160" y="224" width="32" height="32" fill="#B2E1D9" />
  <rect x="192" y="224" width="32" height="32" fill="#B1D5E0" />
  <rect x="224" y="224" width="32" height="32" fill="#F7FDFF" />
</svg>
