<svg xmlns="http://www.w3.org/2000/svg" width="256" height="256" viewBox="0 0 256 256" shape-rendering="crispEdges" role="img" aria-labelledby="title desc">
  <title id="title">Pressure and Release</title>
  <desc id="desc">This artwork explores the emotional dichotomy of softness versus severity through a carefully selected palette of muted and stark colors. The warm white and powder pink represent softness, while carbon black and sharp crimson introduce severity. The layout is designed with a dense center using checker patterns to symbolize softness colliding with the quiet field of severity on the edges, creating tension. The diagonal flow from dark to light illustrates a gradual release from pressure to calmness, with intentional broken pixels adding imperfection and disruption, hinting at guilt and forgiveness in the narrative. The overall composition reflects a leaning toward softness, occupying 65% of the square's area, while preserving a sense of negative space along the edges.</desc>
  <rect width="256" height="256" fill="#FFFFFF" />
  <rect x="0" y="0" width="32" height="32" fill="#F6B1C3" />
  <rect x="32" y="0" width="32" height="32" fill="#F3A0B2" />
  <rect x="64" y="0" width="32" height="32" fill="#ED8B99" />
  <rect x="96" y="0" width="32" height="32" fill="#ED9A92" />
  <rect x="128" y="0" width="32" height="32" fill="#FCFCFC" />
  <rect x="160" y="0" width="32" height="32" fill="#F3F8F8" />
  <rect x="192" y="0" width="32" height="32" fill="#EEEEEE" />
  <rect x="224" y="0" width="32" height="32" fill="#DDDDDD" />
  <rect x="0" y="32" width="32" height="32" fill="#C7C9CF" />
  <rect x="32" y="32" width="32" height="32" fill="#999696" />
  <rect x="64" y="32" width="32" height="32" fill="#686868" />
  <rect x="96" y="32" width="32" height="32" fill="#777D85" />
  <rect x="128" y="32" width="32" height="32" fill="#A8B0B8" />
  <rect x="160" y="32" width="32" height="32" fill="#858F95" />
  <rect x="192" y="32" width="32" height="32" fill="#4A5458" />
  <rect x="224" y="32" width="32" height="32" fill="#30363B" />
  <rect x="0" y="64" width="32" height="32" fill="#E9D9D1" />
  <rect x="32" y="64" width="32" height="32" fill="#FFDDC3" />
  <rect x="64" y="64" width="32" height="32" fill="#FFFFFF" />
  <rect x="96" y="64" width="32" height="32" fill="#C15654" />
  <rect x="128" y="64" width="32" height="32" fill="#2B2B2B" />
  <rect x="160" y="64" width="32" height="32" fill="#222222" />
  <rect x="192" y="64" width="32" height="32" fill="#1E1E1E" />
  <rect x="224" y="64" width="32" height="32" fill="#0E0E0E" />
  <rect x="0" y="96" width="32" height="32" fill="#E5E9EF" />
  <rect x="32" y="96" width="32" height="32" fill="#F5F5F5" />
  <rect x="64" y="96" width="32" height="32" fill="#F1F1F3" />
  <rect x="96" y="96" width="32" height="32" fill="#D3D9DD" />
  <rect x="128" y="96" width="32" height="32" fill="#F9F8F5" />
  <rect x="160" y="96" width="32" height="32" fill="#C1C4CA" />
  <rect x="192" y="96" width="32" height="32" fill="#8F9295" />
  <rect x="224" y="96" width="32" height="32" fill="#6B7276" />
  <rect x="0" y="128" width="32" height="32" fill="#A2B2C9" />
  <rect x="32" y="128" width="32" height="32" fill="#312D30" />
  <rect x="64" y="128" width="32" height="32" fill="#74303C" />
  <rect x="96" y="128" width="32" height="32" fill="#990D14" />
  <rect x="128" y="128" width="32" height="32" fill="#FF5F2C" />
  <rect x="160" y="128" width="32" height="32" fill="#DEB7B1" />
  <rect x="192" y="128" width="32" height="32" fill="#611221" />
  <rect x="224" y="128" width="32" height="32" fill="#4F4344" />
  <rect x="0" y="160" width="32" height="32" fill="#D1E6F4" />
  <rect x="32" y="160" width="32" height="32" fill="#A6B8C0" />
  <rect x="64" y="160" width="32" height="32" fill="#92A6AB" />
  <rect x="96" y="160" width="32" height="32" fill="#E4D1CD" />
  <rect x="128" y="160" width="32" height="32" fill="#E6D7D1" />
  <rect x="160" y="160" width="32" height="32" fill="#8B8D8F" />
  <rect x="192" y="160" width="32" height="32" fill="#5A605D" />
  <rect x="224" y="160" width="32" height="32" fill="#3D4445" />
  <rect x="0" y="192" width="32" height="32" fill="#B2DFD8" />
  <rect x="32" y="192" width="32" height="32" fill="#99C0B0" />
  <rect x="64" y="192" width="32" height="32" fill="#7E9D8B" />
  <rect x="96" y="192" width="32" height="32" fill="#5E7574" />
  <rect x="128" y="192" width="32" height="32" fill="#293C36" />
  <rect x="160" y="192" width="32" height="32" fill="#484E4F" />
  <rect x="192" y="192" width="32" height="32" fill="#35484C" />
  <rect x="224" y="192" width="32" height="32" fill="#212626" />
  <rect x="0" y="224" width="32" height="32" fill="#D0D3D4" />
  <rect x="32" y="224" width="32" height="32" fill="#C2C2C2" />
  <rect x="64" y="224" width="32" height="32" fill="#B7B7B7" />
  <rect x="96" y="224" width="32" height="32" fill="#A9A9A9" />
  <rect x="128" y="224" width="32" height="32" fill="#8C8C8C" />
  <rect x="160" y="224" width="32" height="32" fill="#727272" />
  <rect x="192" y="224" width="32" height="32" fill="#585858" />
  <rect x="224" y="224" width="32" height="32" fill="#434343" />
</svg>
