<svg xmlns="http://www.w3.org/2000/svg" width="256" height="256" viewBox="0 0 256 256" shape-rendering="crispEdges" role="img" aria-labelledby="title desc">
  <title id="title">Echoes of Emotion</title>
  <desc id="desc">This piece captures the emotional tension between tenderness and rage through the juxtaposition of soothing soft colors against aggressive, sharp tones. The palette of dark red and pale blue represents the clash of emotions, where the red signifies rage radiating from the center while the blue brings moments of calm around it, creating a visual ripple effect. The strong contrast between the left side (rage, with a ripple pattern) and the right side (tenderness, with a split-screen pattern) displays a vibrant collision, echoing the seed's themes of inner turmoil and external calm. The broken pixels introduce imperfections, adding depth to the struggle depicted in the square.</desc>
  <rect width="256" height="256" fill="#FFFFFF" />
  <rect x="0" y="0" width="32" height="32" fill="#FF0000" />
  <rect x="32" y="0" width="32" height="32" fill="#FF4D00" />
  <rect x="64" y="0" width="32" height="32" fill="#FF8000" />
  <rect x="96" y="0" width="32" height="32" fill="#FFB300" />
  <rect x="128" y="0" width="32" height="32" fill="#FF6F00" />
  <rect x="160" y="0" width="32" height="32" fill="#FF2E00" />
  <rect x="192" y="0" width="32" height="32" fill="#FF0000" />
  <rect x="224" y="0" width="32" height="32" fill="#FF0000" />
  <rect x="0" y="32" width="32" height="32" fill="#FF0000" />
  <rect x="32" y="32" width="32" height="32" fill="#FF4D00" />
  <rect x="64" y="32" width="32" height="32" fill="#FF8000" />
  <rect x="96" y="32" width="32" height="32" fill="#FFB300" />
  <rect x="128" y="32" width="32" height="32" fill="#FF6F00" />
  <rect x="160" y="32" width="32" height="32" fill="#FF2E00" />
  <rect x="192" y="32" width="32" height="32" fill="#FF0000" />
  <rect x="224" y="32" width="32" height="32" fill="#FF0000" />
  <rect x="0" y="64" width="32" height="32" fill="#DCEFFF" />
  <rect x="32" y="64" width="32" height="32" fill="#A3C5E5" />
  <rect x="64" y="64" width="32" height="32" fill="#6BA3C2" />
  <rect x="96" y="64" width="32" height="32" fill="#3E708F" />
  <rect x="128" y="64" width="32" height="32" fill="#6BA3C2" />
  <rect x="160" y="64" width="32" height="32" fill="#A3C5E5" />
  <rect x="192" y="64" width="32" height="32" fill="#DCEFFF" />
  <rect x="224" y="64" width="32" height="32" fill="#DCEFFF" />
  <rect x="0" y="96" width="32" height="32" fill="#DCEFFF" />
  <rect x="32" y="96" width="32" height="32" fill="#A3C5E5" />
  <rect x="64" y="96" width="32" height="32" fill="#6BA3C2" />
  <rect x="96" y="96" width="32" height="32" fill="#3E708F" />
  <rect x="128" y="96" width="32" height="32" fill="#6BA3C2" />
  <rect x="160" y="96" width="32" height="32" fill="#A3C5E5" />
  <rect x="192" y="96" width="32" height="32" fill="#DCEFFF" />
  <rect x="224" y="96" width="32" height="32" fill="#DCEFFF" />
  <rect x="0" y="128" width="32" height="32" fill="#DCEFFF" />
  <rect x="32" y="128" width="32" height="32" fill="#A3C5E5" />
  <rect x="64" y="128" width="32" height="32" fill="#6BA3C2" />
  <rect x="96" y="128" width="32" height="32" fill="#3E708F" />
  <rect x="128" y="128" width="32" height="32" fill="#6BA3C2" />
  <rect x="160" y="128" width="32" height="32" fill="#A3C5E5" />
  <rect x="192" y="128" width="32" height="32" fill="#DCEFFF" />
  <rect x="224" y="128" width="32" height="32" fill="#DCEFFF" />
  <rect x="0" y="160" width="32" height="32" fill="#FF0000" />
  <rect x="32" y="160" width="32" height="32" fill="#FF4D00" />
  <rect x="64" y="160" width="32" height="32" fill="#FF8000" />
  <rect x="96" y="160" width="32" height="32" fill="#FFB300" />
  <rect x="128" y="160" width="32" height="32" fill="#FF6F00" />
  <rect x="160" y="160" width="32" height="32" fill="#FF2E00" />
  <rect x="192" y="160" width="32" height="32" fill="#FF0000" />
  <rect x="224" y="160" width="32" height="32" fill="#FF0000" />
  <rect x="0" y="192" width="32" height="32" fill="#FF0000" />
  <rect x="32" y="192" width="32" height="32" fill="#FF4D00" />
  <rect x="64" y="192" width="32" height="32" fill="#FF8000" />
  <rect x="96" y="192" width="32" height="32" fill="#FFB300" />
  <rect x="128" y="192" width="32" height="32" fill="#FF6F00" />
  <rect x="160" y="192" width="32" height="32" fill="#FF2E00" />
  <rect x="192" y="192" width="32" height="32" fill="#FF0000" />
  <rect x="224" y="192" width="32" height="32" fill="#FF0000" />
  <rect x="0" y="224" width="32" height="32" fill="#FF0000" />
  <rect x="32" y="224" width="32" height="32" fill="#FF4D00" />
  <rect x="64" y="224" width="32" height="32" fill="#FF8000" />
  <rect x="96" y="224" width="32" height="32" fill="#FFB300" />
  <rect x="128" y="224" width="32" height="32" fill="#FF6F00" />
  <rect x="160" y="224" width="32" height="32" fill="#FF2E00" />
  <rect x="192" y="224" width="32" height="32" fill="#FF0000" />
  <rect x="224" y="224" width="32" height="32" fill="#FF0000" />
</svg>
