<svg xmlns="http://www.w3.org/2000/svg" width="256" height="256" viewBox="0 0 256 256" shape-rendering="crispEdges" role="img" aria-labelledby="title desc">
  <title id="title">Tension Between Thread and Flow</title>
  <desc id="desc">The emotional tone of this piece captures a juxtaposition of longing and resolve, channeling both into a rhythm of rising hope. The palette of 'intimacy_distance' colors reflects warmth and coolness, suggesting a delicate balance: rose clay and warm shadow symbolize warmth and yearning, while cool blue and distant lilac evoke a sense of introspection and calm. The main contrast emerges at the center, where warm tones collide with cooler hues, representing the tension between resolution emerging from longing. The layout 'rising_signal' captures an upward motion, contributing to the visual narrative of hope and release. Broken pixels strategically interrupt the flow, embodying imperfections in the journey and adding depth to the emotional landscape.</desc>
  <rect width="256" height="256" fill="#FFFFFF" />
  <rect x="0" y="0" width="32" height="32" fill="#D18F7E" />
  <rect x="32" y="0" width="32" height="32" fill="#D0BAA1" />
  <rect x="64" y="0" width="32" height="32" fill="#5B7F98" />
  <rect x="96" y="0" width="32" height="32" fill="#A2C2DC" />
  <rect x="128" y="0" width="32" height="32" fill="#8E8D8A" />
  <rect x="160" y="0" width="32" height="32" fill="#A5644C" />
  <rect x="192" y="0" width="32" height="32" fill="#EAB9A3" />
  <rect x="224" y="0" width="32" height="32" fill="#C7B095" />
  <rect x="0" y="32" width="32" height="32" fill="#C73B36" />
  <rect x="32" y="32" width="32" height="32" fill="#BEB5A1" />
  <rect x="64" y="32" width="32" height="32" fill="#8A9FA2" />
  <rect x="96" y="32" width="32" height="32" fill="#C0D6E4" />
  <rect x="128" y="32" width="32" height="32" fill="#7F3D3B" />
  <rect x="160" y="32" width="32" height="32" fill="#F0E7DB" />
  <rect x="192" y="32" width="32" height="32" fill="#C06C4D" />
  <rect x="224" y="32" width="32" height="32" fill="#C0A490" />
  <rect x="0" y="64" width="32" height="32" fill="#3C8A9C" />
  <rect x="32" y="64" width="32" height="32" fill="#5D6A72" />
  <rect x="64" y="64" width="32" height="32" fill="#CED2C3" />
  <rect x="96" y="64" width="32" height="32" fill="#C5BEBD" />
  <rect x="128" y="64" width="32" height="32" fill="#D3C5B3" />
  <rect x="160" y="64" width="32" height="32" fill="#E1C4B9" />
  <rect x="192" y="64" width="32" height="32" fill="#4A899D" />
  <rect x="224" y="64" width="32" height="32" fill="#9DBFBB" />
  <rect x="0" y="96" width="32" height="32" fill="#BAA8A0" />
  <rect x="32" y="96" width="32" height="32" fill="#E2C9B5" />
  <rect x="64" y="96" width="32" height="32" fill="#F9F1E1" />
  <rect x="96" y="96" width="32" height="32" fill="#E82C26" />
  <rect x="128" y="96" width="32" height="32" fill="#8AB4D1" />
  <rect x="160" y="96" width="32" height="32" fill="#7A9FBF" />
  <rect x="192" y="96" width="32" height="32" fill="#A0B9DA" />
  <rect x="224" y="96" width="32" height="32" fill="#BCB2A2" />
  <rect x="0" y="128" width="32" height="32" fill="#F4E4D5" />
  <rect x="32" y="128" width="32" height="32" fill="#F3D0B0" />
  <rect x="64" y="128" width="32" height="32" fill="#A58D89" />
  <rect x="96" y="128" width="32" height="32" fill="#CC6340" />
  <rect x="128" y="128" width="32" height="32" fill="#BFAF95" />
  <rect x="160" y="128" width="32" height="32" fill="#A2767D" />
  <rect x="192" y="128" width="32" height="32" fill="#CDCFCA" />
  <rect x="224" y="128" width="32" height="32" fill="#E2F1F3" />
  <rect x="0" y="160" width="32" height="32" fill="#90B3AE" />
  <rect x="32" y="160" width="32" height="32" fill="#C6B08D" />
  <rect x="64" y="160" width="32" height="32" fill="#E1C9C1" />
  <rect x="96" y="160" width="32" height="32" fill="#BDA68A" />
  <rect x="128" y="160" width="32" height="32" fill="#C11123" />
  <rect x="160" y="160" width="32" height="32" fill="#457A7C" />
  <rect x="192" y="160" width="32" height="32" fill="#D8EDE5" />
  <rect x="224" y="160" width="32" height="32" fill="#F1E5D8" />
  <rect x="0" y="192" width="32" height="32" fill="#C0412A" />
  <rect x="32" y="192" width="32" height="32" fill="#B5A690" />
  <rect x="64" y="192" width="32" height="32" fill="#A39F91" />
  <rect x="96" y="192" width="32" height="32" fill="#C5B48A" />
  <rect x="128" y="192" width="32" height="32" fill="#DAE5E2" />
  <rect x="160" y="192" width="32" height="32" fill="#EBBFC4" />
  <rect x="192" y="192" width="32" height="32" fill="#C7C9CB" />
  <rect x="224" y="192" width="32" height="32" fill="#ECECDB" />
  <rect x="0" y="224" width="32" height="32" fill="#757B8A" />
  <rect x="32" y="224" width="32" height="32" fill="#A88C79" />
  <rect x="64" y="224" width="32" height="32" fill="#F9E8C2" />
  <rect x="96" y="224" width="32" height="32" fill="#E49761" />
  <rect x="128" y="224" width="32" height="32" fill="#F6E9D6" />
  <rect x="160" y="224" width="32" height="32" fill="#DAE5EC" />
  <rect x="192" y="224" width="32" height="32" fill="#B7B9B9" />
  <rect x="224" y="224" width="32" height="32" fill="#F9F9F9" />
</svg>
