<svg xmlns="http://www.w3.org/2000/svg" width="256" height="256" viewBox="0 0 256 256" shape-rendering="crispEdges" role="img" aria-labelledby="title desc">
  <title id="title">Echo of Tension</title>
  <desc id="desc">The emotional tone reflects an interplay of softness and severity, creating a dialogue between gentle, powder colors and sharp, dark contrasts. The palette combines powder pink and warm white to represent softness with carbon black and steel gray denoting severity, each competing for space. The central collision of light and dark emphasizes the struggle between these contrasting emotions. The chosen layout suggests a hollow center ringing with light and dark tones, creating an echo that feels both tense and peaceful, mirroring the seed's complexity into an abstract expression.</desc>
  <rect width="256" height="256" fill="#FFFFFF" />
  <rect x="0" y="0" width="32" height="32" fill="#F1A7B3" />
  <rect x="32" y="0" width="32" height="32" fill="#E5D6D8" />
  <rect x="64" y="0" width="32" height="32" fill="#C1C1C1" />
  <rect x="96" y="0" width="32" height="32" fill="#BAC0C4" />
  <rect x="128" y="0" width="32" height="32" fill="#8A8B88" />
  <rect x="160" y="0" width="32" height="32" fill="#5C5E61" />
  <rect x="192" y="0" width="32" height="32" fill="#33373A" />
  <rect x="224" y="0" width="32" height="32" fill="#212121" />
  <rect x="0" y="32" width="32" height="32" fill="#FFC3D7" />
  <rect x="32" y="32" width="32" height="32" fill="#E4E4E4" />
  <rect x="64" y="32" width="32" height="32" fill="#C0BEC1" />
  <rect x="96" y="32" width="32" height="32" fill="#9B9A9D" />
  <rect x="128" y="32" width="32" height="32" fill="#6D6B6E" />
  <rect x="160" y="32" width="32" height="32" fill="#4C4B4D" />
  <rect x="192" y="32" width="32" height="32" fill="#282729" />
  <rect x="224" y="32" width="32" height="32" fill="#1C1C1C" />
  <rect x="0" y="64" width="32" height="32" fill="#FFDFE7" />
  <rect x="32" y="64" width="32" height="32" fill="#D2D0D5" />
  <rect x="64" y="64" width="32" height="32" fill="#A5A1A5" />
  <rect x="96" y="64" width="32" height="32" fill="#87868C" />
  <rect x="128" y="64" width="32" height="32" fill="#5F5B63" />
  <rect x="160" y="64" width="32" height="32" fill="#373A3C" />
  <rect x="192" y="64" width="32" height="32" fill="#222324" />
  <rect x="224" y="64" width="32" height="32" fill="#111313" />
  <rect x="0" y="96" width="32" height="32" fill="#BADADE" />
  <rect x="32" y="96" width="32" height="32" fill="#C7C4C1" />
  <rect x="64" y="96" width="32" height="32" fill="#D8D6D9" />
  <rect x="96" y="96" width="32" height="32" fill="#E0E3E2" />
  <rect x="128" y="96" width="32" height="32" fill="#D7D2D5" />
  <rect x="160" y="96" width="32" height="32" fill="#B6B8B7" />
  <rect x="192" y="96" width="32" height="32" fill="#6A757A" />
  <rect x="224" y="96" width="32" height="32" fill="#0D0D0D" />
  <rect x="0" y="128" width="32" height="32" fill="#FAFAFA" />
  <rect x="32" y="128" width="32" height="32" fill="#D6CCDA" />
  <rect x="64" y="128" width="32" height="32" fill="#BAC4C4" />
  <rect x="96" y="128" width="32" height="32" fill="#9FA3A4" />
  <rect x="128" y="128" width="32" height="32" fill="#8B8C89" />
  <rect x="160" y="128" width="32" height="32" fill="#676363" />
  <rect x="192" y="128" width="32" height="32" fill="#61606B" />
  <rect x="224" y="128" width="32" height="32" fill="#1A181C" />
  <rect x="0" y="160" width="32" height="32" fill="#F0C2C4" />
  <rect x="32" y="160" width="32" height="32" fill="#E2E2E2" />
  <rect x="64" y="160" width="32" height="32" fill="#D1C8CB" />
  <rect x="96" y="160" width="32" height="32" fill="#A8A6A7" />
  <rect x="128" y="160" width="32" height="32" fill="#7D7D7F" />
  <rect x="160" y="160" width="32" height="32" fill="#505354" />
  <rect x="192" y="160" width="32" height="32" fill="#333A3C" />
  <rect x="224" y="160" width="32" height="32" fill="#7D2B2A" />
  <rect x="0" y="192" width="32" height="32" fill="#F6E9EA" />
  <rect x="32" y="192" width="32" height="32" fill="#ECDEDF" />
  <rect x="64" y="192" width="32" height="32" fill="#D5D3D3" />
  <rect x="96" y="192" width="32" height="32" fill="#BBBCB8" />
  <rect x="128" y="192" width="32" height="32" fill="#9A9C9B" />
  <rect x="160" y="192" width="32" height="32" fill="#797673" />
  <rect x="192" y="192" width="32" height="32" fill="#494D50" />
  <rect x="224" y="192" width="32" height="32" fill="#0073FF" />
  <rect x="0" y="224" width="32" height="32" fill="#F9F9FB" />
  <rect x="32" y="224" width="32" height="32" fill="#E8E8E8" />
  <rect x="64" y="224" width="32" height="32" fill="#D6DAD9" />
  <rect x="96" y="224" width="32" height="32" fill="#B7B5BA" />
  <rect x="128" y="224" width="32" height="32" fill="#8F8F92" />
  <rect x="160" y="224" width="32" height="32" fill="#3B3D3D" />
  <rect x="192" y="224" width="32" height="32" fill="#272829" />
  <rect x="224" y="224" width="32" height="32" fill="#0E0E0E" />
</svg>
