<svg xmlns="http://www.w3.org/2000/svg" width="256" height="256" viewBox="0 0 256 256" shape-rendering="crispEdges" role="img" aria-labelledby="title desc">
  <title id="title">Pulse of Tension</title>
  <desc id="desc">This artwork embodies the emotional dichotomy of control and surrender, using a palette of pale mint, soft sky, storm gray, near black, and faded gold. The selected colors communicate a spectrum of relief and dread. The dominant dark hues signify control and pressure, while the lighter shades introduce moments of surrender. The main contrast arises in the center, where layered patterns of flame and ladder interplay, suggesting a collision of emotions and the tension of confinement. The use of broken pixels creates intentional disruptions that echo the struggle between containment and overflow.</desc>
  <rect width="256" height="256" fill="#FFFFFF" />
  <rect x="0" y="0" width="32" height="32" fill="#000000" />
  <rect x="32" y="0" width="32" height="32" fill="#1D3C6A" />
  <rect x="64" y="0" width="32" height="32" fill="#A7B3B7" />
  <rect x="96" y="0" width="32" height="32" fill="#C1DBD5" />
  <rect x="128" y="0" width="32" height="32" fill="#F3F7E4" />
  <rect x="160" y="0" width="32" height="32" fill="#A3D7A1" />
  <rect x="192" y="0" width="32" height="32" fill="#79C3A5" />
  <rect x="224" y="0" width="32" height="32" fill="#F8F2A2" />
  <rect x="0" y="32" width="32" height="32" fill="#111111" />
  <rect x="32" y="32" width="32" height="32" fill="#3A4A66" />
  <rect x="64" y="32" width="32" height="32" fill="#9B9FAD" />
  <rect x="96" y="32" width="32" height="32" fill="#E0F2E3" />
  <rect x="128" y="32" width="32" height="32" fill="#F9D96C" />
  <rect x="160" y="32" width="32" height="32" fill="#A3BDA6" />
  <rect x="192" y="32" width="32" height="32" fill="#56C5C5" />
  <rect x="224" y="32" width="32" height="32" fill="#F5E7AD" />
  <rect x="0" y="64" width="32" height="32" fill="#222222" />
  <rect x="32" y="64" width="32" height="32" fill="#4B6077" />
  <rect x="64" y="64" width="32" height="32" fill="#D2E0E5" />
  <rect x="96" y="64" width="32" height="32" fill="#E7F5C7" />
  <rect x="128" y="64" width="32" height="32" fill="#FAE8A9" />
  <rect x="160" y="64" width="32" height="32" fill="#C2D8C2" />
  <rect x="192" y="64" width="32" height="32" fill="#37C4C4" />
  <rect x="224" y="64" width="32" height="32" fill="#E1EDB5" />
  <rect x="0" y="96" width="32" height="32" fill="#333333" />
  <rect x="32" y="96" width="32" height="32" fill="#647C8E" />
  <rect x="64" y="96" width="32" height="32" fill="#EBE8E5" />
  <rect x="96" y="96" width="32" height="32" fill="#E0F3B8" />
  <rect x="128" y="96" width="32" height="32" fill="#FBFDD1" />
  <rect x="160" y="96" width="32" height="32" fill="#D3D4D4" />
  <rect x="192" y="96" width="32" height="32" fill="#006B47" />
  <rect x="224" y="96" width="32" height="32" fill="#DDF3AC" />
  <rect x="0" y="128" width="32" height="32" fill="#444444" />
  <rect x="32" y="128" width="32" height="32" fill="#7A9BB0" />
  <rect x="64" y="128" width="32" height="32" fill="#F1E8E0" />
  <rect x="96" y="128" width="32" height="32" fill="#C8E8A9" />
  <rect x="128" y="128" width="32" height="32" fill="#F7F9C8" />
  <rect x="160" y="128" width="32" height="32" fill="#B7B5B1" />
  <rect x="192" y="128" width="32" height="32" fill="#00B020" />
  <rect x="224" y="128" width="32" height="32" fill="#B6D45B" />
  <rect x="0" y="160" width="32" height="32" fill="#555555" />
  <rect x="32" y="160" width="32" height="32" fill="#8EB5C5" />
  <rect x="64" y="160" width="32" height="32" fill="#D5E8E5" />
  <rect x="96" y="160" width="32" height="32" fill="#D8F4B1" />
  <rect x="128" y="160" width="32" height="32" fill="#FFE0A3" />
  <rect x="160" y="160" width="32" height="32" fill="#BDC6C1" />
  <rect x="192" y="160" width="32" height="32" fill="#00992D" />
  <rect x="224" y="160" width="32" height="32" fill="#B3E65D" />
  <rect x="0" y="192" width="32" height="32" fill="#666666" />
  <rect x="32" y="192" width="32" height="32" fill="#A1C1D9" />
  <rect x="64" y="192" width="32" height="32" fill="#C3E8E2" />
  <rect x="96" y="192" width="32" height="32" fill="#E4F8DC" />
  <rect x="128" y="192" width="32" height="32" fill="#FAFFD6" />
  <rect x="160" y="192" width="32" height="32" fill="#D2C1B2" />
  <rect x="192" y="192" width="32" height="32" fill="#008C2D" />
  <rect x="224" y="192" width="32" height="32" fill="#A9E43A" />
  <rect x="0" y="224" width="32" height="32" fill="#777777" />
  <rect x="32" y="224" width="32" height="32" fill="#B2D5EA" />
  <rect x="64" y="224" width="32" height="32" fill="#B8E8DF" />
  <rect x="96" y="224" width="32" height="32" fill="#D6F9C4" />
  <rect x="128" y="224" width="32" height="32" fill="#F2F5D6" />
  <rect x="160" y="224" width="32" height="32" fill="#D6CAB0" />
  <rect x="192" y="224" width="32" height="32" fill="#008025" />
  <rect x="224" y="224" width="32" height="32" fill="#92D147" />
</svg>
