<svg xmlns="http://www.w3.org/2000/svg" width="256" height="256" viewBox="0 0 256 256" shape-rendering="crispEdges" role="img" aria-labelledby="title desc">
  <title id="title">Tension in Tranquility</title>
  <desc id="desc">The emotional tone captures the struggle between restlessness and peace. The chosen palette of sepia tones reflects the memory and warmth of moments, with quiet fields like tan and faded blue evoking a sense of calm. The contrasting darker shades introduce interruptions and tension, especially evident in the diagonal flow of darker colors against the lighter ones. The composition leaves negative spaces that symbolize unfilled moments, while broken pixels add intentional disruptions, imitating the interruptions in memory.</desc>
  <rect width="256" height="256" fill="#FFFFFF" />
  <rect x="0" y="0" width="32" height="32" fill="#D3CFCF" />
  <rect x="32" y="0" width="32" height="32" fill="#B8A49C" />
  <rect x="64" y="0" width="32" height="32" fill="#A69485" />
  <rect x="96" y="0" width="32" height="32" fill="#A68A73" />
  <rect x="128" y="0" width="32" height="32" fill="#C8C1B3" />
  <rect x="160" y="0" width="32" height="32" fill="#D7E6E5" />
  <rect x="192" y="0" width="32" height="32" fill="#B2C3B8" />
  <rect x="224" y="0" width="32" height="32" fill="#E6E9E4" />
  <rect x="0" y="32" width="32" height="32" fill="#9A8B7D" />
  <rect x="32" y="32" width="32" height="32" fill="#C1B2A3" />
  <rect x="64" y="32" width="32" height="32" fill="#C8D6DA" />
  <rect x="96" y="32" width="32" height="32" fill="#B1C5C7" />
  <rect x="128" y="32" width="32" height="32" fill="#D8C9B8" />
  <rect x="160" y="32" width="32" height="32" fill="#A6B7C2" />
  <rect x="192" y="32" width="32" height="32" fill="#B6C7C8" />
  <rect x="224" y="32" width="32" height="32" fill="#E7E8E6" />
  <rect x="0" y="64" width="32" height="32" fill="#FAF0E3" />
  <rect x="32" y="64" width="32" height="32" fill="#C4B3A1" />
  <rect x="64" y="64" width="32" height="32" fill="#D5C3A7" />
  <rect x="96" y="64" width="32" height="32" fill="#E0D4C7" />
  <rect x="128" y="64" width="32" height="32" fill="#F1E7E5" />
  <rect x="160" y="64" width="32" height="32" fill="#B8C9C9" />
  <rect x="192" y="64" width="32" height="32" fill="#B1DCE0" />
  <rect x="224" y="64" width="32" height="32" fill="#BAC6B4" />
  <rect x="0" y="96" width="32" height="32" fill="#C0A58F" />
  <rect x="32" y="96" width="32" height="32" fill="#F2F5F5" />
  <rect x="64" y="96" width="32" height="32" fill="#F8E5D3" />
  <rect x="96" y="96" width="32" height="32" fill="#D3A98B" />
  <rect x="128" y="96" width="32" height="32" fill="#D3C9B0" />
  <rect x="160" y="96" width="32" height="32" fill="#B5B8B9" />
  <rect x="192" y="96" width="32" height="32" fill="#AABDBD" />
  <rect x="224" y="96" width="32" height="32" fill="#F0E3D7" />
  <rect x="0" y="128" width="32" height="32" fill="#927A64" />
  <rect x="32" y="128" width="32" height="32" fill="#A45D49" />
  <rect x="64" y="128" width="32" height="32" fill="#DBD6CC" />
  <rect x="96" y="128" width="32" height="32" fill="#C4C3C5" />
  <rect x="128" y="128" width="32" height="32" fill="#B9C1C3" />
  <rect x="160" y="128" width="32" height="32" fill="#988C7A" />
  <rect x="192" y="128" width="32" height="32" fill="#C1C6C1" />
  <rect x="224" y="128" width="32" height="32" fill="#FCEAD0" />
  <rect x="0" y="160" width="32" height="32" fill="#C4E0E0" />
  <rect x="32" y="160" width="32" height="32" fill="#B0D1C7" />
  <rect x="64" y="160" width="32" height="32" fill="#E0D4CC" />
  <rect x="96" y="160" width="32" height="32" fill="#D3B4A0" />
  <rect x="128" y="160" width="32" height="32" fill="#BDAA8A" />
  <rect x="160" y="160" width="32" height="32" fill="#D4B6A4" />
  <rect x="192" y="160" width="32" height="32" fill="#B8C0C9" />
  <rect x="224" y="160" width="32" height="32" fill="#A3C7C7" />
  <rect x="0" y="192" width="32" height="32" fill="#A29F94" />
  <rect x="32" y="192" width="32" height="32" fill="#D7D5D2" />
  <rect x="64" y="192" width="32" height="32" fill="#E1D4C5" />
  <rect x="96" y="192" width="32" height="32" fill="#D8CEDD" />
  <rect x="128" y="192" width="32" height="32" fill="#C3B6A0" />
  <rect x="160" y="192" width="32" height="32" fill="#B7C8B1" />
  <rect x="192" y="192" width="32" height="32" fill="#B9D1DA" />
  <rect x="224" y="192" width="32" height="32" fill="#E6E8E7" />
  <rect x="0" y="224" width="32" height="32" fill="#EBE3D5" />
  <rect x="32" y="224" width="32" height="32" fill="#C2B59C" />
  <rect x="64" y="224" width="32" height="32" fill="#E1D8CC" />
  <rect x="96" y="224" width="32" height="32" fill="#D0B7A3" />
  <rect x="128" y="224" width="32" height="32" fill="#F5E8D7" />
  <rect x="160" y="224" width="32" height="32" fill="#C6C2B3" />
  <rect x="192" y="224" width="32" height="32" fill="#B3B1B1" />
  <rect x="224" y="224" width="32" height="32" fill="#D3CFCF" />
</svg>
