<svg xmlns="http://www.w3.org/2000/svg" width="256" height="256" viewBox="0 0 256 256" shape-rendering="crispEdges" role="img" aria-labelledby="title desc">
  <title id="title">Order vs Chaos</title>
  <desc id="desc">The emotional tone reflects the tension between control and surrender, represented in the top half with systematic patterns and dense colors, while the bottom half flows into soft radial interruptions. The palette of deep blacks contrasts sharply with pale blues, representing the struggle between pressure and release. The main collision is centered, creating a visual push-pull effect that resonates with the seed's themes of tension and release.</desc>
  <rect width="256" height="256" fill="#FFFFFF" />
  <rect x="0" y="0" width="32" height="32" fill="#000000" />
  <rect x="32" y="0" width="32" height="32" fill="#001F3F" />
  <rect x="64" y="0" width="32" height="32" fill="#003566" />
  <rect x="96" y="0" width="32" height="32" fill="#005E8A" />
  <rect x="128" y="0" width="32" height="32" fill="#0079B8" />
  <rect x="160" y="0" width="32" height="32" fill="#00A6E4" />
  <rect x="192" y="0" width="32" height="32" fill="#C0E1F1" />
  <rect x="224" y="0" width="32" height="32" fill="#FFFFFF" />
  <rect x="0" y="32" width="32" height="32" fill="#001F3F" />
  <rect x="32" y="32" width="32" height="32" fill="#003566" />
  <rect x="64" y="32" width="32" height="32" fill="#005E8A" />
  <rect x="96" y="32" width="32" height="32" fill="#0079B8" />
  <rect x="128" y="32" width="32" height="32" fill="#0099D4" />
  <rect x="160" y="32" width="32" height="32" fill="#00A6E4" />
  <rect x="192" y="32" width="32" height="32" fill="#C5E2F8" />
  <rect x="224" y="32" width="32" height="32" fill="#FFFFFF" />
  <rect x="0" y="64" width="32" height="32" fill="#003566" />
  <rect x="32" y="64" width="32" height="32" fill="#005E8A" />
  <rect x="64" y="64" width="32" height="32" fill="#0079B8" />
  <rect x="96" y="64" width="32" height="32" fill="#0099D4" />
  <rect x="128" y="64" width="32" height="32" fill="#00A6E4" />
  <rect x="160" y="64" width="32" height="32" fill="#B2E3F0" />
  <rect x="192" y="64" width="32" height="32" fill="#D6E6F4" />
  <rect x="224" y="64" width="32" height="32" fill="#FFFFFF" />
  <rect x="0" y="96" width="32" height="32" fill="#005E8A" />
  <rect x="32" y="96" width="32" height="32" fill="#0079B8" />
  <rect x="64" y="96" width="32" height="32" fill="#0099D4" />
  <rect x="96" y="96" width="32" height="32" fill="#00A6E4" />
  <rect x="128" y="96" width="32" height="32" fill="#B2E3F0" />
  <rect x="160" y="96" width="32" height="32" fill="#C5E2F8" />
  <rect x="192" y="96" width="32" height="32" fill="#EAF1F5" />
  <rect x="224" y="96" width="32" height="32" fill="#FFFFFF" />
  <rect x="0" y="128" width="32" height="32" fill="#0079B8" />
  <rect x="32" y="128" width="32" height="32" fill="#0099D4" />
  <rect x="64" y="128" width="32" height="32" fill="#00A6E4" />
  <rect x="96" y="128" width="32" height="32" fill="#B2E3F0" />
  <rect x="128" y="128" width="32" height="32" fill="#C5E2F8" />
  <rect x="160" y="128" width="32" height="32" fill="#C0E1F1" />
  <rect x="192" y="128" width="32" height="32" fill="#CDE8F7" />
  <rect x="224" y="128" width="32" height="32" fill="#FFFFFF" />
  <rect x="0" y="160" width="32" height="32" fill="#0099D4" />
  <rect x="32" y="160" width="32" height="32" fill="#00A6E4" />
  <rect x="64" y="160" width="32" height="32" fill="#B2E3F0" />
  <rect x="96" y="160" width="32" height="32" fill="#C5E2F8" />
  <rect x="128" y="160" width="32" height="32" fill="#E8F5F7" />
  <rect x="160" y="160" width="32" height="32" fill="#E1F0F7" />
  <rect x="192" y="160" width="32" height="32" fill="#D9E8F2" />
  <rect x="224" y="160" width="32" height="32" fill="#FFFFFF" />
  <rect x="0" y="192" width="32" height="32" fill="#00A6E4" />
  <rect x="32" y="192" width="32" height="32" fill="#B2E3F0" />
  <rect x="64" y="192" width="32" height="32" fill="#C5E2F8" />
  <rect x="96" y="192" width="32" height="32" fill="#CDE8F7" />
  <rect x="128" y="192" width="32" height="32" fill="#FCFCFC" />
  <rect x="160" y="192" width="32" height="32" fill="#F9F9F9" />
  <rect x="192" y="192" width="32" height="32" fill="#F3F4F5" />
  <rect x="224" y="192" width="32" height="32" fill="#FFFFFF" />
  <rect x="0" y="224" width="32" height="32" fill="#B2E3F0" />
  <rect x="32" y="224" width="32" height="32" fill="#C5E2F8" />
  <rect x="64" y="224" width="32" height="32" fill="#E1F0F7" />
  <rect x="96" y="224" width="32" height="32" fill="#FCFCFC" />
  <rect x="128" y="224" width="32" height="32" fill="#F9F9F9" />
  <rect x="160" y="224" width="32" height="32" fill="#F3F4F5" />
  <rect x="192" y="224" width="32" height="32" fill="#FFFFFF" />
  <rect x="224" y="224" width="32" height="32" fill="#FFFFFF" />
</svg>
