<svg xmlns="http://www.w3.org/2000/svg" width="256" height="256" viewBox="0 0 256 256" shape-rendering="crispEdges" role="img" aria-labelledby="title desc">
  <title id="title">Echoes of Resolution</title>
  <desc id="desc">The emotional tone examines the tension between longing and resolve, represented through a palette of serene aqua and urgent red, reflecting both calm and pressure. The contrasting patterns of 'shatter' and 'broken_dots' illustrate echoes of memory and the persistent pulse of urgency. The collision occurs centrally, with dense sections of red surrounded by the quieter aqua field, symbolizing a threshold between turmoil and resolution. The pixel imperfections act as intentional disruptions, enhancing the sense of emotional scars and repairs.</desc>
  <rect width="256" height="256" fill="#FFFFFF" />
  <rect x="0" y="0" width="32" height="32" fill="#A2E3E0" />
  <rect x="32" y="0" width="32" height="32" fill="#A2E3E0" />
  <rect x="64" y="0" width="32" height="32" fill="#FFFFFF" />
  <rect x="96" y="0" width="32" height="32" fill="#FFFFFF" />
  <rect x="128" y="0" width="32" height="32" fill="#FF3F34" />
  <rect x="160" y="0" width="32" height="32" fill="#FF3F34" />
  <rect x="192" y="0" width="32" height="32" fill="#FFFFFF" />
  <rect x="224" y="0" width="32" height="32" fill="#FFFFFF" />
  <rect x="0" y="32" width="32" height="32" fill="#A2E3E0" />
  <rect x="32" y="32" width="32" height="32" fill="#A2E3E0" />
  <rect x="64" y="32" width="32" height="32" fill="#FFFFFF" />
  <rect x="96" y="32" width="32" height="32" fill="#FF3F34" />
  <rect x="128" y="32" width="32" height="32" fill="#FF3F34" />
  <rect x="160" y="32" width="32" height="32" fill="#FF3F34" />
  <rect x="192" y="32" width="32" height="32" fill="#FFFFF0" />
  <rect x="224" y="32" width="32" height="32" fill="#FFFFFF" />
  <rect x="0" y="64" width="32" height="32" fill="#FFFFFF" />
  <rect x="32" y="64" width="32" height="32" fill="#FFFFFF" />
  <rect x="64" y="64" width="32" height="32" fill="#FF3F34" />
  <rect x="96" y="64" width="32" height="32" fill="#FF3F34" />
  <rect x="128" y="64" width="32" height="32" fill="#FF3F34" />
  <rect x="160" y="64" width="32" height="32" fill="#A2E3E0" />
  <rect x="192" y="64" width="32" height="32" fill="#FFFFFF" />
  <rect x="224" y="64" width="32" height="32" fill="#FFFFFF" />
  <rect x="0" y="96" width="32" height="32" fill="#FFFFFF" />
  <rect x="32" y="96" width="32" height="32" fill="#FF3F34" />
  <rect x="64" y="96" width="32" height="32" fill="#FF3F34" />
  <rect x="96" y="96" width="32" height="32" fill="#A2E3E0" />
  <rect x="128" y="96" width="32" height="32" fill="#A2E3E0" />
  <rect x="160" y="96" width="32" height="32" fill="#FFFFFF" />
  <rect x="192" y="96" width="32" height="32" fill="#FFFFFF" />
  <rect x="224" y="96" width="32" height="32" fill="#FFFFFF" />
  <rect x="0" y="128" width="32" height="32" fill="#FFFFFF" />
  <rect x="32" y="128" width="32" height="32" fill="#FF3F34" />
  <rect x="64" y="128" width="32" height="32" fill="#FF3F34" />
  <rect x="96" y="128" width="32" height="32" fill="#A2E3E0" />
  <rect x="128" y="128" width="32" height="32" fill="#FFFFFF" />
  <rect x="160" y="128" width="32" height="32" fill="#FFFFF0" />
  <rect x="192" y="128" width="32" height="32" fill="#FFFFF0" />
  <rect x="224" y="128" width="32" height="32" fill="#FFFFFF" />
  <rect x="0" y="160" width="32" height="32" fill="#A2E3E0" />
  <rect x="32" y="160" width="32" height="32" fill="#A2E3E0" />
  <rect x="64" y="160" width="32" height="32" fill="#FFFFFF" />
  <rect x="96" y="160" width="32" height="32" fill="#FFFFFF" />
  <rect x="128" y="160" width="32" height="32" fill="#FF3F34" />
  <rect x="160" y="160" width="32" height="32" fill="#FFFFFF" />
  <rect x="192" y="160" width="32" height="32" fill="#FFFFFF" />
  <rect x="224" y="160" width="32" height="32" fill="#FFFFFF" />
  <rect x="0" y="192" width="32" height="32" fill="#FFFFFF" />
  <rect x="32" y="192" width="32" height="32" fill="#A2E3E0" />
  <rect x="64" y="192" width="32" height="32" fill="#FFFFFF" />
  <rect x="96" y="192" width="32" height="32" fill="#FFFFFF" />
  <rect x="128" y="192" width="32" height="32" fill="#FF3F34" />
  <rect x="160" y="192" width="32" height="32" fill="#FF3F34" />
  <rect x="192" y="192" width="32" height="32" fill="#FFFFFF" />
  <rect x="224" y="192" width="32" height="32" fill="#FFFFFF" />
  <rect x="0" y="224" width="32" height="32" fill="#FFFFFF" />
  <rect x="32" y="224" width="32" height="32" fill="#FFFFFF" />
  <rect x="64" y="224" width="32" height="32" fill="#FFFFFF" />
  <rect x="96" y="224" width="32" height="32" fill="#FFFFFF" />
  <rect x="128" y="224" width="32" height="32" fill="#A2E3E0" />
  <rect x="160" y="224" width="32" height="32" fill="#FFFFFF" />
  <rect x="192" y="224" width="32" height="32" fill="#FFFFFF" />
  <rect x="224" y="224" width="32" height="32" fill="#FFFFFF" />
</svg>
