<svg xmlns="http://www.w3.org/2000/svg" width="256" height="256" viewBox="0 0 256 256" shape-rendering="crispEdges" role="img" aria-labelledby="title desc">
  <title id="title">Flicker of Resilience</title>
  <desc id="desc">The emotional tone expresses a conflict between fleeting sparks of vitality and the settling ash of restraint. The palette combines shelter green for vitality, warm brown for the weight of memory, and pale skin for vulnerability against a backdrop of cold white that suggests erasure. The main clash of colors occurs at the center, where vibrant accents like shelter green spark against the calming presence of warm browns, illustrating the tension between resilience and fragility. The arrangement flows from the upper-left corner, symbolizing pressure that unfolds across the grid, while jagged edges at the grid's borders provide a broken, imperfect quality, reinforcing the theme of conflict and coexistence.</desc>
  <rect width="256" height="256" fill="#FFFFFF" />
  <rect x="0" y="0" width="32" height="32" fill="#A7D4A1" />
  <rect x="32" y="0" width="32" height="32" fill="#6E4F3B" />
  <rect x="64" y="0" width="32" height="32" fill="#A57C63" />
  <rect x="96" y="0" width="32" height="32" fill="#FFF3E3" />
  <rect x="128" y="0" width="32" height="32" fill="#7B9FBB" />
  <rect x="160" y="0" width="32" height="32" fill="#B9C1C8" />
  <rect x="192" y="0" width="32" height="32" fill="#C1E0D7" />
  <rect x="224" y="0" width="32" height="32" fill="#FFF6F0" />
  <rect x="0" y="32" width="32" height="32" fill="#F3E1D5" />
  <rect x="32" y="32" width="32" height="32" fill="#5A8E7C" />
  <rect x="64" y="32" width="32" height="32" fill="#D8C7B0" />
  <rect x="96" y="32" width="32" height="32" fill="#B7C2C5" />
  <rect x="128" y="32" width="32" height="32" fill="#C2F1E8" />
  <rect x="160" y="32" width="32" height="32" fill="#E9B7AD" />
  <rect x="192" y="32" width="32" height="32" fill="#E6E8E5" />
  <rect x="224" y="32" width="32" height="32" fill="#578B87" />
  <rect x="0" y="64" width="32" height="32" fill="#7D7C77" />
  <rect x="32" y="64" width="32" height="32" fill="#4E3C28" />
  <rect x="64" y="64" width="32" height="32" fill="#832E28" />
  <rect x="96" y="64" width="32" height="32" fill="#EFDDDC" />
  <rect x="128" y="64" width="32" height="32" fill="#6C6D6D" />
  <rect x="160" y="64" width="32" height="32" fill="#C3AB7E" />
  <rect x="192" y="64" width="32" height="32" fill="#9E9792" />
  <rect x="224" y="64" width="32" height="32" fill="#E2E2E2" />
  <rect x="0" y="96" width="32" height="32" fill="#172A2C" />
  <rect x="32" y="96" width="32" height="32" fill="#A09E94" />
  <rect x="64" y="96" width="32" height="32" fill="#B3E4DF" />
  <rect x="96" y="96" width="32" height="32" fill="#8DA5AA" />
  <rect x="128" y="96" width="32" height="32" fill="#889EA3" />
  <rect x="160" y="96" width="32" height="32" fill="#C0B9A5" />
  <rect x="192" y="96" width="32" height="32" fill="#4C565B" />
  <rect x="224" y="96" width="32" height="32" fill="#3B3E3E" />
  <rect x="0" y="128" width="32" height="32" fill="#F9F9F9" />
  <rect x="32" y="128" width="32" height="32" fill="#D3B2A2" />
  <rect x="64" y="128" width="32" height="32" fill="#5E5C59" />
  <rect x="96" y="128" width="32" height="32" fill="#DFE9E2" />
  <rect x="128" y="128" width="32" height="32" fill="#8A643E" />
  <rect x="160" y="128" width="32" height="32" fill="#5B8243" />
  <rect x="192" y="128" width="32" height="32" fill="#C1D3CB" />
  <rect x="224" y="128" width="32" height="32" fill="#8A9A8C" />
  <rect x="0" y="160" width="32" height="32" fill="#1E1E1E" />
  <rect x="32" y="160" width="32" height="32" fill="#7B5E4E" />
  <rect x="64" y="160" width="32" height="32" fill="#D8B594" />
  <rect x="96" y="160" width="32" height="32" fill="#199887" />
  <rect x="128" y="160" width="32" height="32" fill="#142C2E" />
  <rect x="160" y="160" width="32" height="32" fill="#363D3D" />
  <rect x="192" y="160" width="32" height="32" fill="#A3B1B7" />
  <rect x="224" y="160" width="32" height="32" fill="#C1CDCC" />
  <rect x="0" y="192" width="32" height="32" fill="#FFD6C4" />
  <rect x="32" y="192" width="32" height="32" fill="#BE4C4C" />
  <rect x="64" y="192" width="32" height="32" fill="#EFEFEF" />
  <rect x="96" y="192" width="32" height="32" fill="#AB4040" />
  <rect x="128" y="192" width="32" height="32" fill="#C7B3A3" />
  <rect x="160" y="192" width="32" height="32" fill="#B0D5E5" />
  <rect x="192" y="192" width="32" height="32" fill="#FFEBC4" />
  <rect x="224" y="192" width="32" height="32" fill="#B3C2BB" />
  <rect x="0" y="224" width="32" height="32" fill="#F4E7E5" />
  <rect x="32" y="224" width="32" height="32" fill="#4F5148" />
  <rect x="64" y="224" width="32" height="32" fill="#BC4E4E" />
  <rect x="96" y="224" width="32" height="32" fill="#B9C5C8" />
  <rect x="128" y="224" width="32" height="32" fill="#E0D4C5" />
  <rect x="160" y="224" width="32" height="32" fill="#DDC3B5" />
  <rect x="192" y="224" width="32" height="32" fill="#A4B8BB" />
  <rect x="224" y="224" width="32" height="32" fill="#000000" />
</svg>
