<svg xmlns="http://www.w3.org/2000/svg" width="256" height="256" viewBox="0 0 256 256" shape-rendering="crispEdges" role="img" aria-labelledby="title desc">
  <title id="title">Pressure and Release</title>
  <desc id="desc">The emotional tone reflects a struggle between dense pressure and serene quietude. The palette of 'quiet_pressure' incorporates muted colors like off-white and dust gray to convey soft calm, contrasted by the darker, saturated hues of compressed red and dark navy to represent pressure. The main conflict occurs in the center where the compressed red meets the soft colors, emphasizing the collision of feelings. Throughout, there's a mix of static and 'teeth' patterns that disrupts the overall flow, suggesting an inherent tension and release within the abstract. This aligns with the seed's themes of clarity and confusion, illustrated by the porous edges that soften the harshness of pressure.</desc>
  <rect width="256" height="256" fill="#FFFFFF" />
  <rect x="0" y="0" width="32" height="32" fill="#FFFFFF" />
  <rect x="32" y="0" width="32" height="32" fill="#F5F5F5" />
  <rect x="64" y="0" width="32" height="32" fill="#E0E0E0" />
  <rect x="96" y="0" width="32" height="32" fill="#C8C8C8" />
  <rect x="128" y="0" width="32" height="32" fill="#A70000" />
  <rect x="160" y="0" width="32" height="32" fill="#7C7C7C" />
  <rect x="192" y="0" width="32" height="32" fill="#4B4B4B" />
  <rect x="224" y="0" width="32" height="32" fill="#1C1C1C" />
  <rect x="0" y="32" width="32" height="32" fill="#FFFFFF" />
  <rect x="32" y="32" width="32" height="32" fill="#F5F5F5" />
  <rect x="64" y="32" width="32" height="32" fill="#CCCCCC" />
  <rect x="96" y="32" width="32" height="32" fill="#B0B0B0" />
  <rect x="128" y="32" width="32" height="32" fill="#990000" />
  <rect x="160" y="32" width="32" height="32" fill="#7B7B7B" />
  <rect x="192" y="32" width="32" height="32" fill="#5D5D5D" />
  <rect x="224" y="32" width="32" height="32" fill="#404040" />
  <rect x="0" y="64" width="32" height="32" fill="#FAFAFA" />
  <rect x="32" y="64" width="32" height="32" fill="#D9D9D9" />
  <rect x="64" y="64" width="32" height="32" fill="#B5B5B5" />
  <rect x="96" y="64" width="32" height="32" fill="#949494" />
  <rect x="128" y="64" width="32" height="32" fill="#D20000" />
  <rect x="160" y="64" width="32" height="32" fill="#CC4444" />
  <rect x="192" y="64" width="32" height="32" fill="#BB8888" />
  <rect x="224" y="64" width="32" height="32" fill="#AABBBB" />
  <rect x="0" y="96" width="32" height="32" fill="#F5F5F5" />
  <rect x="32" y="96" width="32" height="32" fill="#E0E0E0" />
  <rect x="64" y="96" width="32" height="32" fill="#C8C8C8" />
  <rect x="96" y="96" width="32" height="32" fill="#A70000" />
  <rect x="128" y="96" width="32" height="32" fill="#8B8B8B" />
  <rect x="160" y="96" width="32" height="32" fill="#777777" />
  <rect x="192" y="96" width="32" height="32" fill="#656565" />
  <rect x="224" y="96" width="32" height="32" fill="#545454" />
  <rect x="0" y="128" width="32" height="32" fill="#F0F0F0" />
  <rect x="32" y="128" width="32" height="32" fill="#D3D3D3" />
  <rect x="64" y="128" width="32" height="32" fill="#B6B6B6" />
  <rect x="96" y="128" width="32" height="32" fill="#840000" />
  <rect x="128" y="128" width="32" height="32" fill="#7D9B9B" />
  <rect x="160" y="128" width="32" height="32" fill="#688B8B" />
  <rect x="192" y="128" width="32" height="32" fill="#566D6D" />
  <rect x="224" y="128" width="32" height="32" fill="#424242" />
  <rect x="0" y="160" width="32" height="32" fill="#E8E8E8" />
  <rect x="32" y="160" width="32" height="32" fill="#C6C6C6" />
  <rect x="64" y="160" width="32" height="32" fill="#999999" />
  <rect x="96" y="160" width="32" height="32" fill="#710000" />
  <rect x="128" y="160" width="32" height="32" fill="#7A6D6D" />
  <rect x="160" y="160" width="32" height="32" fill="#6E6D6D" />
  <rect x="192" y="160" width="32" height="32" fill="#5A5A5A" />
  <rect x="224" y="160" width="32" height="32" fill="#424242" />
  <rect x="0" y="192" width="32" height="32" fill="#D9D9D9" />
  <rect x="32" y="192" width="32" height="32" fill="#B8B8B8" />
  <rect x="64" y="192" width="32" height="32" fill="#939393" />
  <rect x="96" y="192" width="32" height="32" fill="#80000A" />
  <rect x="128" y="192" width="32" height="32" fill="#A08484" />
  <rect x="160" y="192" width="32" height="32" fill="#977B7B" />
  <rect x="192" y="192" width="32" height="32" fill="#8B8B8B" />
  <rect x="224" y="192" width="32" height="32" fill="#575757" />
  <rect x="0" y="224" width="32" height="32" fill="#D7D7D7" />
  <rect x="32" y="224" width="32" height="32" fill="#C1C1C1" />
  <rect x="64" y="224" width="32" height="32" fill="#A4A4A4" />
  <rect x="96" y="224" width="32" height="32" fill="#505050" />
  <rect x="128" y="224" width="32" height="32" fill="#A63C3C" />
  <rect x="160" y="224" width="32" height="32" fill="#7D6A6A" />
  <rect x="192" y="224" width="32" height="32" fill="#6A6A6A" />
  <rect x="224" y="224" width="32" height="32" fill="#474747" />
</svg>
