<svg xmlns="http://www.w3.org/2000/svg" width="256" height="256" viewBox="0 0 256 256" shape-rendering="crispEdges" role="img" aria-labelledby="title desc">
  <title id="title">Echoes of Signal</title>
  <desc id="desc">This composition embodies the struggle between clarity and chaos, as the 'signal' emerges from a dark corner, symbolizing exposure against an overwhelming backdrop of noise. The palette features deep navy and black, representing noise, contrasted with a bright accent of dim cyan portraying the 'signal'. The main collision occurs in the central area, where the 'barcode' pattern of the signal interrupts the 'maze' of static, creating a visual tension that resonates with the metaphorical themes of exposure and shelter. The use of negative space enhances the theme, allowing the signal to breathe amidst the interference, invoking a sense of isolation and struggle that ties back to the seed's emotional echoes of memory and erasure.</desc>
  <rect width="256" height="256" fill="#FFFFFF" />
  <rect x="0" y="0" width="32" height="32" fill="#000000" />
  <rect x="32" y="0" width="32" height="32" fill="#000000" />
  <rect x="64" y="0" width="32" height="32" fill="#000000" />
  <rect x="96" y="0" width="32" height="32" fill="#000000" />
  <rect x="128" y="0" width="32" height="32" fill="#000000" />
  <rect x="160" y="0" width="32" height="32" fill="#111111" />
  <rect x="192" y="0" width="32" height="32" fill="#111111" />
  <rect x="224" y="0" width="32" height="32" fill="#111111" />
  <rect x="0" y="32" width="32" height="32" fill="#111111" />
  <rect x="32" y="32" width="32" height="32" fill="#222222" />
  <rect x="64" y="32" width="32" height="32" fill="#222222" />
  <rect x="96" y="32" width="32" height="32" fill="#222222" />
  <rect x="128" y="32" width="32" height="32" fill="#444444" />
  <rect x="160" y="32" width="32" height="32" fill="#444444" />
  <rect x="192" y="32" width="32" height="32" fill="#555555" />
  <rect x="224" y="32" width="32" height="32" fill="#555555" />
  <rect x="0" y="64" width="32" height="32" fill="#555555" />
  <rect x="32" y="64" width="32" height="32" fill="#666666" />
  <rect x="64" y="64" width="32" height="32" fill="#666666" />
  <rect x="96" y="64" width="32" height="32" fill="#777777" />
  <rect x="128" y="64" width="32" height="32" fill="#777777" />
  <rect x="160" y="64" width="32" height="32" fill="#777777" />
  <rect x="192" y="64" width="32" height="32" fill="#777777" />
  <rect x="224" y="64" width="32" height="32" fill="#888888" />
  <rect x="0" y="96" width="32" height="32" fill="#888888" />
  <rect x="32" y="96" width="32" height="32" fill="#999999" />
  <rect x="64" y="96" width="32" height="32" fill="#AAAAAA" />
  <rect x="96" y="96" width="32" height="32" fill="#BBFFFF" />
  <rect x="128" y="96" width="32" height="32" fill="#BBFFFF" />
  <rect x="160" y="96" width="32" height="32" fill="#CCCCCC" />
  <rect x="192" y="96" width="32" height="32" fill="#CCCCCC" />
  <rect x="224" y="96" width="32" height="32" fill="#DDDDDD" />
  <rect x="0" y="128" width="32" height="32" fill="#EEEEEE" />
  <rect x="32" y="128" width="32" height="32" fill="#EEEEEE" />
  <rect x="64" y="128" width="32" height="32" fill="#EEEEEE" />
  <rect x="96" y="128" width="32" height="32" fill="#FFFFFF" />
  <rect x="128" y="128" width="32" height="32" fill="#FFFFFF" />
  <rect x="160" y="128" width="32" height="32" fill="#FFFFFF" />
  <rect x="192" y="128" width="32" height="32" fill="#FFFFFF" />
  <rect x="224" y="128" width="32" height="32" fill="#FFFFFF" />
  <rect x="0" y="160" width="32" height="32" fill="#000000" />
  <rect x="32" y="160" width="32" height="32" fill="#000000" />
  <rect x="64" y="160" width="32" height="32" fill="#333333" />
  <rect x="96" y="160" width="32" height="32" fill="#444444" />
  <rect x="128" y="160" width="32" height="32" fill="#444444" />
  <rect x="160" y="160" width="32" height="32" fill="#555555" />
  <rect x="192" y="160" width="32" height="32" fill="#666666" />
  <rect x="224" y="160" width="32" height="32" fill="#666666" />
  <rect x="0" y="192" width="32" height="32" fill="#555555" />
  <rect x="32" y="192" width="32" height="32" fill="#444444" />
  <rect x="64" y="192" width="32" height="32" fill="#222222" />
  <rect x="96" y="192" width="32" height="32" fill="#222222" />
  <rect x="128" y="192" width="32" height="32" fill="#111111" />
  <rect x="160" y="192" width="32" height="32" fill="#111111" />
  <rect x="192" y="192" width="32" height="32" fill="#000000" />
  <rect x="224" y="192" width="32" height="32" fill="#000000" />
  <rect x="0" y="224" width="32" height="32" fill="#111111" />
  <rect x="32" y="224" width="32" height="32" fill="#000000" />
  <rect x="64" y="224" width="32" height="32" fill="#222222" />
  <rect x="96" y="224" width="32" height="32" fill="#333333" />
  <rect x="128" y="224" width="32" height="32" fill="#444444" />
  <rect x="160" y="224" width="32" height="32" fill="#555555" />
  <rect x="192" y="224" width="32" height="32" fill="#666666" />
  <rect x="224" y="224" width="32" height="32" fill="#777777" />
</svg>
