<svg xmlns="http://www.w3.org/2000/svg" width="256" height="256" viewBox="0 0 256 256" shape-rendering="crispEdges" role="img" aria-labelledby="title desc">
  <title id="title">Echoes of Threaded Emotion</title>
  <desc id="desc">This artwork reflects the tension between longing and resolve, utilizing a warm palette dominated by burnt orange and dark red to evoke urgency while interspersed with cool charcoal to create a counterbalance. The bold colors collide rhythmically, suggesting the thread-like connection between desire and commitment. There's a deliberate arrangement of broken pixel effects to create the sense of damage and repair, allowing the patterns of a lattice and halo to weave through the composition, symbolizing a journey that is both beautiful and fragmented. The collision occurs predominantly in the center, emphasized by tight clusters pushing against the void, representing the space where emotion flows in and out, evoking both serenity and urgency.</desc>
  <rect width="256" height="256" fill="#FFFFFF" />
  <rect x="0" y="0" width="32" height="32" fill="#7C4D00" />
  <rect x="32" y="0" width="32" height="32" fill="#BF360C" />
  <rect x="64" y="0" width="32" height="32" fill="#3E2723" />
  <rect x="96" y="0" width="32" height="32" fill="#FFC107" />
  <rect x="128" y="0" width="32" height="32" fill="#212121" />
  <rect x="160" y="0" width="32" height="32" fill="#FBC02D" />
  <rect x="192" y="0" width="32" height="32" fill="#FF5722" />
  <rect x="224" y="0" width="32" height="32" fill="#C2185B" />
  <rect x="0" y="32" width="32" height="32" fill="#000000" />
  <rect x="32" y="32" width="32" height="32" fill="#FFEB3B" />
  <rect x="64" y="32" width="32" height="32" fill="#FFD600" />
  <rect x="96" y="32" width="32" height="32" fill="#BF360C" />
  <rect x="128" y="32" width="32" height="32" fill="#F57F17" />
  <rect x="160" y="32" width="32" height="32" fill="#FFC400" />
  <rect x="192" y="32" width="32" height="32" fill="#FF6F00" />
  <rect x="224" y="32" width="32" height="32" fill="#EF6C00" />
  <rect x="0" y="64" width="32" height="32" fill="#795548" />
  <rect x="32" y="64" width="32" height="32" fill="#F57F17" />
  <rect x="64" y="64" width="32" height="32" fill="#D32F2F" />
  <rect x="96" y="64" width="32" height="32" fill="#9E9E9E" />
  <rect x="128" y="64" width="32" height="32" fill="#FF6F00" />
  <rect x="160" y="64" width="32" height="32" fill="#FFA000" />
  <rect x="192" y="64" width="32" height="32" fill="#FFB300" />
  <rect x="224" y="64" width="32" height="32" fill="#FFC107" />
  <rect x="0" y="96" width="32" height="32" fill="#757575" />
  <rect x="32" y="96" width="32" height="32" fill="#B71C1C" />
  <rect x="64" y="96" width="32" height="32" fill="#880E4F" />
  <rect x="96" y="96" width="32" height="32" fill="#FBC02D" />
  <rect x="128" y="96" width="32" height="32" fill="#FF5722" />
  <rect x="160" y="96" width="32" height="32" fill="#FF7043" />
  <rect x="192" y="96" width="32" height="32" fill="#795548" />
  <rect x="224" y="96" width="32" height="32" fill="#E64A19" />
  <rect x="0" y="128" width="32" height="32" fill="#FFFFFF" />
  <rect x="32" y="128" width="32" height="32" fill="#B2FF59" />
  <rect x="64" y="128" width="32" height="32" fill="#FFAB00" />
  <rect x="96" y="128" width="32" height="32" fill="#D81B60" />
  <rect x="128" y="128" width="32" height="32" fill="#616161" />
  <rect x="160" y="128" width="32" height="32" fill="#FF7F27" />
  <rect x="192" y="128" width="32" height="32" fill="#5D4037" />
  <rect x="224" y="128" width="32" height="32" fill="#455A64" />
  <rect x="0" y="160" width="32" height="32" fill="#BDBDBD" />
  <rect x="32" y="160" width="32" height="32" fill="#CFD8DC" />
  <rect x="64" y="160" width="32" height="32" fill="#E1BEE7" />
  <rect x="96" y="160" width="32" height="32" fill="#FFD54F" />
  <rect x="128" y="160" width="32" height="32" fill="#FFBA00" />
  <rect x="160" y="160" width="32" height="32" fill="#CF6A00" />
  <rect x="192" y="160" width="32" height="32" fill="#AA00FF" />
  <rect x="224" y="160" width="32" height="32" fill="#C2185B" />
  <rect x="0" y="192" width="32" height="32" fill="#C62828" />
  <rect x="32" y="192" width="32" height="32" fill="#FFC107" />
  <rect x="64" y="192" width="32" height="32" fill="#FF5252" />
  <rect x="96" y="192" width="32" height="32" fill="#FF1744" />
  <rect x="128" y="192" width="32" height="32" fill="#757575" />
  <rect x="160" y="192" width="32" height="32" fill="#512DA8" />
  <rect x="192" y="192" width="32" height="32" fill="#512DA8" />
  <rect x="224" y="192" width="32" height="32" fill="#689F38" />
  <rect x="0" y="224" width="32" height="32" fill="#FBC02D" />
  <rect x="32" y="224" width="32" height="32" fill="#A1887F" />
  <rect x="64" y="224" width="32" height="32" fill="#5D4037" />
  <rect x="96" y="224" width="32" height="32" fill="#FF5722" />
  <rect x="128" y="224" width="32" height="32" fill="#F50057" />
  <rect x="160" y="224" width="32" height="32" fill="#E91E63" />
  <rect x="192" y="224" width="32" height="32" fill="#FFB300" />
  <rect x="224" y="224" width="32" height="32" fill="#BDBDBD" />
</svg>
