<svg xmlns="http://www.w3.org/2000/svg" width="256" height="256" viewBox="0 0 256 256" shape-rendering="crispEdges" role="img" aria-labelledby="title desc">
  <title id="title">Emotional Constellation</title>
  <desc id="desc">The emotional tone juxtaposes tenderness and rage, creating a dialogue between softness and intensity. The selected palette reflects this, with saturated reds representing rage and muted blues for tenderness, creating a visual tension. The patterns of grids and mazes collide at the center, where the deeper red forms an explosive core surrounded by calming blue. This configuration embodies the push and pull between the two emotional states, symbolizing an inner conflict through abstract expression.</desc>
  <rect width="256" height="256" fill="#FFFFFF" />
  <rect x="0" y="0" width="32" height="32" fill="#FF0000" />
  <rect x="32" y="0" width="32" height="32" fill="#FF4500" />
  <rect x="64" y="0" width="32" height="32" fill="#FF6347" />
  <rect x="96" y="0" width="32" height="32" fill="#FF7F50" />
  <rect x="128" y="0" width="32" height="32" fill="#FFB6C1" />
  <rect x="160" y="0" width="32" height="32" fill="#B0E0E6" />
  <rect x="192" y="0" width="32" height="32" fill="#ADD8E6" />
  <rect x="224" y="0" width="32" height="32" fill="#FFFFFF" />
  <rect x="0" y="32" width="32" height="32" fill="#FF4500" />
  <rect x="32" y="32" width="32" height="32" fill="#FF6347" />
  <rect x="64" y="32" width="32" height="32" fill="#FF7F50" />
  <rect x="96" y="32" width="32" height="32" fill="#FFB6C1" />
  <rect x="128" y="32" width="32" height="32" fill="#B0E0E6" />
  <rect x="160" y="32" width="32" height="32" fill="#ADD8E6" />
  <rect x="192" y="32" width="32" height="32" fill="#E6E6FA" />
  <rect x="224" y="32" width="32" height="32" fill="#F0FFFF" />
  <rect x="0" y="64" width="32" height="32" fill="#FF6347" />
  <rect x="32" y="64" width="32" height="32" fill="#FF7F50" />
  <rect x="64" y="64" width="32" height="32" fill="#FFB6C1" />
  <rect x="96" y="64" width="32" height="32" fill="#B0E0E6" />
  <rect x="128" y="64" width="32" height="32" fill="#87CEFA" />
  <rect x="160" y="64" width="32" height="32" fill="#B0E0E6" />
  <rect x="192" y="64" width="32" height="32" fill="#F0FFFF" />
  <rect x="224" y="64" width="32" height="32" fill="#FFFFFF" />
  <rect x="0" y="96" width="32" height="32" fill="#FF7F50" />
  <rect x="32" y="96" width="32" height="32" fill="#FFB6C1" />
  <rect x="64" y="96" width="32" height="32" fill="#B0E0E6" />
  <rect x="96" y="96" width="32" height="32" fill="#87CEFA" />
  <rect x="128" y="96" width="32" height="32" fill="#ADD8E6" />
  <rect x="160" y="96" width="32" height="32" fill="#F0FFFF" />
  <rect x="192" y="96" width="32" height="32" fill="#FFFFFF" />
  <rect x="224" y="96" width="32" height="32" fill="#FFFFFF" />
  <rect x="0" y="128" width="32" height="32" fill="#B0E0E6" />
  <rect x="32" y="128" width="32" height="32" fill="#ADD8E6" />
  <rect x="64" y="128" width="32" height="32" fill="#87CEFA" />
  <rect x="96" y="128" width="32" height="32" fill="#87CEFA" />
  <rect x="128" y="128" width="32" height="32" fill="#B0E0E6" />
  <rect x="160" y="128" width="32" height="32" fill="#E6E6FA" />
  <rect x="192" y="128" width="32" height="32" fill="#FFFFFF" />
  <rect x="224" y="128" width="32" height="32" fill="#FFFFFF" />
  <rect x="0" y="160" width="32" height="32" fill="#87CEFA" />
  <rect x="32" y="160" width="32" height="32" fill="#ADD8E6" />
  <rect x="64" y="160" width="32" height="32" fill="#F0FFFF" />
  <rect x="96" y="160" width="32" height="32" fill="#FFFFFF" />
  <rect x="128" y="160" width="32" height="32" fill="#FFFFFF" />
  <rect x="160" y="160" width="32" height="32" fill="#FFFFFF" />
  <rect x="192" y="160" width="32" height="32" fill="#FFFFFF" />
  <rect x="224" y="160" width="32" height="32" fill="#E6E6FA" />
  <rect x="0" y="192" width="32" height="32" fill="#ADD8E6" />
  <rect x="32" y="192" width="32" height="32" fill="#B0E0E6" />
  <rect x="64" y="192" width="32" height="32" fill="#FFFFFF" />
  <rect x="96" y="192" width="32" height="32" fill="#FFFFFF" />
  <rect x="128" y="192" width="32" height="32" fill="#FFFFFF" />
  <rect x="160" y="192" width="32" height="32" fill="#FFFFFF" />
  <rect x="192" y="192" width="32" height="32" fill="#FFFFFF" />
  <rect x="224" y="192" width="32" height="32" fill="#FFFFFF" />
  <rect x="0" y="224" width="32" height="32" fill="#FFFFFF" />
  <rect x="32" y="224" width="32" height="32" fill="#B0E0E6" />
  <rect x="64" y="224" width="32" height="32" fill="#FFFFFF" />
  <rect x="96" y="224" width="32" height="32" fill="#FFFFFF" />
  <rect x="128" y="224" width="32" height="32" fill="#FFFFFF" />
  <rect x="160" y="224" width="32" height="32" fill="#FFFFFF" />
  <rect x="192" y="224" width="32" height="32" fill="#FFFFFF" />
  <rect x="224" y="224" width="32" height="32" fill="#FFFFFF" />
</svg>
