<svg xmlns="http://www.w3.org/2000/svg" width="256" height="256" viewBox="0 0 256 256" shape-rendering="crispEdges" role="img" aria-labelledby="title desc">
  <title id="title">Contrast of Shadows</title>
  <desc id="desc">This piece embodies the emotional tension between trust and suspicion through a palette evoking warmth and coldness. The dark maroon evokes a sense of suspicion while the soft pink offers warmth and trust. The split vertical layout creates an immediate divided perception, while the diagonal fall suggests a dynamic motion towards fragility. The broken pixels represent deliberate imperfections that symbolize moments of unease amidst stability, with the main collision occurring at the center as colors bleed into one another, creating tension and echoing the conflict inherent in the seed.</desc>
  <rect width="256" height="256" fill="#FFFFFF" />
  <rect x="0" y="0" width="32" height="32" fill="#5C4E67" />
  <rect x="32" y="0" width="32" height="32" fill="#A66E85" />
  <rect x="64" y="0" width="32" height="32" fill="#C6B5BC" />
  <rect x="96" y="0" width="32" height="32" fill="#D4C5D5" />
  <rect x="128" y="0" width="32" height="32" fill="#E5D7E2" />
  <rect x="160" y="0" width="32" height="32" fill="#F5E3ED" />
  <rect x="192" y="0" width="32" height="32" fill="#A2CED9" />
  <rect x="224" y="0" width="32" height="32" fill="#7A92A3" />
  <rect x="0" y="32" width="32" height="32" fill="#4B3741" />
  <rect x="32" y="32" width="32" height="32" fill="#E06F73" />
  <rect x="64" y="32" width="32" height="32" fill="#AC93A2" />
  <rect x="96" y="32" width="32" height="32" fill="#D1A2B9" />
  <rect x="128" y="32" width="32" height="32" fill="#B2B4C3" />
  <rect x="160" y="32" width="32" height="32" fill="#A8C1C5" />
  <rect x="192" y="32" width="32" height="32" fill="#2DA1AD" />
  <rect x="224" y="32" width="32" height="32" fill="#754F57" />
  <rect x="0" y="64" width="32" height="32" fill="#8E5C74" />
  <rect x="32" y="64" width="32" height="32" fill="#BEB2BB" />
  <rect x="64" y="64" width="32" height="32" fill="#E0C3D4" />
  <rect x="96" y="64" width="32" height="32" fill="#D99AAB" />
  <rect x="128" y="64" width="32" height="32" fill="#C2B8C0" />
  <rect x="160" y="64" width="32" height="32" fill="#B1A4B2" />
  <rect x="192" y="64" width="32" height="32" fill="#8CA6A9" />
  <rect x="224" y="64" width="32" height="32" fill="#F5F5F5" />
  <rect x="0" y="96" width="32" height="32" fill="#4B2F39" />
  <rect x="32" y="96" width="32" height="32" fill="#C50024" />
  <rect x="64" y="96" width="32" height="32" fill="#E23B46" />
  <rect x="96" y="96" width="32" height="32" fill="#EEC6D0" />
  <rect x="128" y="96" width="32" height="32" fill="#B8D4DC" />
  <rect x="160" y="96" width="32" height="32" fill="#A4B5B8" />
  <rect x="192" y="96" width="32" height="32" fill="#8B6A74" />
  <rect x="224" y="96" width="32" height="32" fill="#F3E4E9" />
  <rect x="0" y="128" width="32" height="32" fill="#75100D" />
  <rect x="32" y="128" width="32" height="32" fill="#D7B0B3" />
  <rect x="64" y="128" width="32" height="32" fill="#D9C1CE" />
  <rect x="96" y="128" width="32" height="32" fill="#F4E7ED" />
  <rect x="128" y="128" width="32" height="32" fill="#94C9D4" />
  <rect x="160" y="128" width="32" height="32" fill="#D5C0C4" />
  <rect x="192" y="128" width="32" height="32" fill="#D6B8B3" />
  <rect x="224" y="128" width="32" height="32" fill="#D9E0E4" />
  <rect x="0" y="160" width="32" height="32" fill="#6B4F5B" />
  <rect x="32" y="160" width="32" height="32" fill="#C6A5B0" />
  <rect x="64" y="160" width="32" height="32" fill="#DBD0D6" />
  <rect x="96" y="160" width="32" height="32" fill="#E6C8D0" />
  <rect x="128" y="160" width="32" height="32" fill="#85B2B6" />
  <rect x="160" y="160" width="32" height="32" fill="#404B4E" />
  <rect x="192" y="160" width="32" height="32" fill="#B0ACBB" />
  <rect x="224" y="160" width="32" height="32" fill="#C0D1D7" />
  <rect x="0" y="192" width="32" height="32" fill="#9B758D" />
  <rect x="32" y="192" width="32" height="32" fill="#D6BEC3" />
  <rect x="64" y="192" width="32" height="32" fill="#E5C8D4" />
  <rect x="96" y="192" width="32" height="32" fill="#CCB3B6" />
  <rect x="128" y="192" width="32" height="32" fill="#B7B3B8" />
  <rect x="160" y="192" width="32" height="32" fill="#A6C1B9" />
  <rect x="192" y="192" width="32" height="32" fill="#5A686C" />
  <rect x="224" y="192" width="32" height="32" fill="#E2F2F4" />
  <rect x="0" y="224" width="32" height="32" fill="#771D27" />
  <rect x="32" y="224" width="32" height="32" fill="#E4B6BB" />
  <rect x="64" y="224" width="32" height="32" fill="#D7B4BD" />
  <rect x="96" y="224" width="32" height="32" fill="#E7D5DE" />
  <rect x="128" y="224" width="32" height="32" fill="#A6C4C7" />
  <rect x="160" y="224" width="32" height="32" fill="#4E6A74" />
  <rect x="192" y="224" width="32" height="32" fill="#5F7F84" />
  <rect x="224" y="224" width="32" height="32" fill="#F0F8FC" />
</svg>
