<svg xmlns="http://www.w3.org/2000/svg" width="256" height="256" viewBox="0 0 256 256" shape-rendering="crispEdges" role="img" aria-labelledby="title desc">
  <title id="title">Echoes of Serenity</title>
  <desc id="desc">The emotional tone contrasts the calmness of peace against the turbulence of restlessness. The palette of pale mint and storm gray creates a visual dichotomy, with the warmer tones trying to overflow into the cooler areas. The center carries warmer colors resembling presence and motion, while the edges retouch a sense of calm with subtle gray and black tones. The interplay between a lattice of quiet symmetry and bands of pressure suggests a narrative of calm trying to contain the intensity of life’s stresses. Broken pixels introduce intention, creating moments of disruption without becoming a focal point. The layout emphasizes negative space, allowing viewers to feel the tension without becoming overwhelmed, representing movement restrained by tranquility.</desc>
  <rect width="256" height="256" fill="#FFFFFF" />
  <rect x="0" y="0" width="32" height="32" fill="#A8E6CE" />
  <rect x="32" y="0" width="32" height="32" fill="#FF8C94" />
  <rect x="64" y="0" width="32" height="32" fill="#FFEBC1" />
  <rect x="96" y="0" width="32" height="32" fill="#FFEBC1" />
  <rect x="128" y="0" width="32" height="32" fill="#FF8C94" />
  <rect x="160" y="0" width="32" height="32" fill="#A8E6CE" />
  <rect x="192" y="0" width="32" height="32" fill="#A8E6CE" />
  <rect x="224" y="0" width="32" height="32" fill="#A8E6CE" />
  <rect x="0" y="32" width="32" height="32" fill="#CCCCCC" />
  <rect x="32" y="32" width="32" height="32" fill="#B0BEC5" />
  <rect x="64" y="32" width="32" height="32" fill="#A2D2D0" />
  <rect x="96" y="32" width="32" height="32" fill="#FFFFFF" />
  <rect x="128" y="32" width="32" height="32" fill="#FFFFFF" />
  <rect x="160" y="32" width="32" height="32" fill="#B0BEC5" />
  <rect x="192" y="32" width="32" height="32" fill="#CCCCCC" />
  <rect x="224" y="32" width="32" height="32" fill="#CCCCCC" />
  <rect x="0" y="64" width="32" height="32" fill="#F5F5F5" />
  <rect x="32" y="64" width="32" height="32" fill="#495057" />
  <rect x="64" y="64" width="32" height="32" fill="#B0BEC5" />
  <rect x="96" y="64" width="32" height="32" fill="#A8E6CE" />
  <rect x="128" y="64" width="32" height="32" fill="#B0BEC5" />
  <rect x="160" y="64" width="32" height="32" fill="#A2D2D0" />
  <rect x="192" y="64" width="32" height="32" fill="#F5F5F5" />
  <rect x="224" y="64" width="32" height="32" fill="#B0BEC5" />
  <rect x="0" y="96" width="32" height="32" fill="#FFFFFF" />
  <rect x="32" y="96" width="32" height="32" fill="#FFFFFF" />
  <rect x="64" y="96" width="32" height="32" fill="#A8E6CE" />
  <rect x="96" y="96" width="32" height="32" fill="#FF8C94" />
  <rect x="128" y="96" width="32" height="32" fill="#FF8C94" />
  <rect x="160" y="96" width="32" height="32" fill="#FFEBC1" />
  <rect x="192" y="96" width="32" height="32" fill="#CCCCCC" />
  <rect x="224" y="96" width="32" height="32" fill="#FFFFFF" />
  <rect x="0" y="128" width="32" height="32" fill="#B0BEC5" />
  <rect x="32" y="128" width="32" height="32" fill="#F5F5F5" />
  <rect x="64" y="128" width="32" height="32" fill="#A8E6CE" />
  <rect x="96" y="128" width="32" height="32" fill="#A2D2D0" />
  <rect x="128" y="128" width="32" height="32" fill="#A2D2D0" />
  <rect x="160" y="128" width="32" height="32" fill="#B0BEC5" />
  <rect x="192" y="128" width="32" height="32" fill="#FFFFFF" />
  <rect x="224" y="128" width="32" height="32" fill="#CCCCCC" />
  <rect x="0" y="160" width="32" height="32" fill="#A8E6CE" />
  <rect x="32" y="160" width="32" height="32" fill="#A2D2D0" />
  <rect x="64" y="160" width="32" height="32" fill="#FF8C94" />
  <rect x="96" y="160" width="32" height="32" fill="#A8E6CE" />
  <rect x="128" y="160" width="32" height="32" fill="#FFEBC1" />
  <rect x="160" y="160" width="32" height="32" fill="#FFFFFF" />
  <rect x="192" y="160" width="32" height="32" fill="#B0BEC5" />
  <rect x="224" y="160" width="32" height="32" fill="#F5F5F5" />
  <rect x="0" y="192" width="32" height="32" fill="#B0BEC5" />
  <rect x="32" y="192" width="32" height="32" fill="#A8E6CE" />
  <rect x="64" y="192" width="32" height="32" fill="#FFEBC1" />
  <rect x="96" y="192" width="32" height="32" fill="#FF8C94" />
  <rect x="128" y="192" width="32" height="32" fill="#A2D2D0" />
  <rect x="160" y="192" width="32" height="32" fill="#A8E6CE" />
  <rect x="192" y="192" width="32" height="32" fill="#A8E6CE" />
  <rect x="224" y="192" width="32" height="32" fill="#A8E6CE" />
  <rect x="0" y="224" width="32" height="32" fill="#FFFFFF" />
  <rect x="32" y="224" width="32" height="32" fill="#FFFFFF" />
  <rect x="64" y="224" width="32" height="32" fill="#B0BEC5" />
  <rect x="96" y="224" width="32" height="32" fill="#CCCCCC" />
  <rect x="128" y="224" width="32" height="32" fill="#F5F5F5" />
  <rect x="160" y="224" width="32" height="32" fill="#B0BEC5" />
  <rect x="192" y="224" width="32" height="32" fill="#FFFFFF" />
  <rect x="224" y="224" width="32" height="32" fill="#FFFFFF" />
</svg>
