<svg xmlns="http://www.w3.org/2000/svg" width="256" height="256" viewBox="0 0 256 256" shape-rendering="crispEdges" role="img" aria-labelledby="title desc">
  <title id="title">Echoes in Collision</title>
  <desc id="desc">This composition embodies the emotional tension between the clean signal and chaotic noise. The palette is dominated by deep navy and sharp black, evoking a sense of isolation contrasted with clarity. The broken frame pattern introduces chaotic elements of dim cyan, symbolizing sparks of interference disrupting the tranquil pulse. The main collision occurs at the center, where sharp edges of the darker colors intersect with soft highlights, creating a visual representation of the struggle between order and chaos.</desc>
  <rect width="256" height="256" fill="#FFFFFF" />
  <rect x="0" y="0" width="32" height="32" fill="#000000" />
  <rect x="32" y="0" width="32" height="32" fill="#000B1F" />
  <rect x="64" y="0" width="32" height="32" fill="#00285D" />
  <rect x="96" y="0" width="32" height="32" fill="#003E80" />
  <rect x="128" y="0" width="32" height="32" fill="#005CA3" />
  <rect x="160" y="0" width="32" height="32" fill="#008FD2" />
  <rect x="192" y="0" width="32" height="32" fill="#0ABAA4" />
  <rect x="224" y="0" width="32" height="32" fill="#0DDAE5" />
  <rect x="0" y="32" width="32" height="32" fill="#0DDDE0" />
  <rect x="32" y="32" width="32" height="32" fill="#FFFFFF" />
  <rect x="64" y="32" width="32" height="32" fill="#FFFFFF" />
  <rect x="96" y="32" width="32" height="32" fill="#FFFFFF" />
  <rect x="128" y="32" width="32" height="32" fill="#0DDAE5" />
  <rect x="160" y="32" width="32" height="32" fill="#008FD2" />
  <rect x="192" y="32" width="32" height="32" fill="#005CA3" />
  <rect x="224" y="32" width="32" height="32" fill="#00285D" />
  <rect x="0" y="64" width="32" height="32" fill="#00285D" />
  <rect x="32" y="64" width="32" height="32" fill="#000B1F" />
  <rect x="64" y="64" width="32" height="32" fill="#000000" />
  <rect x="96" y="64" width="32" height="32" fill="#0DDAE5" />
  <rect x="128" y="64" width="32" height="32" fill="#005CA3" />
  <rect x="160" y="64" width="32" height="32" fill="#003E80" />
  <rect x="192" y="64" width="32" height="32" fill="#00285D" />
  <rect x="224" y="64" width="32" height="32" fill="#000B1F" />
  <rect x="0" y="96" width="32" height="32" fill="#005CA3" />
  <rect x="32" y="96" width="32" height="32" fill="#008FD2" />
  <rect x="64" y="96" width="32" height="32" fill="#0ABAA4" />
  <rect x="96" y="96" width="32" height="32" fill="#FFFFFF" />
  <rect x="128" y="96" width="32" height="32" fill="#FFFFFF" />
  <rect x="160" y="96" width="32" height="32" fill="#FFFFFF" />
  <rect x="192" y="96" width="32" height="32" fill="#0DDDE0" />
  <rect x="224" y="96" width="32" height="32" fill="#0DDAE5" />
  <rect x="0" y="128" width="32" height="32" fill="#0DDAE5" />
  <rect x="32" y="128" width="32" height="32" fill="#0ABAA4" />
  <rect x="64" y="128" width="32" height="32" fill="#008FD2" />
  <rect x="96" y="128" width="32" height="32" fill="#005CA3" />
  <rect x="128" y="128" width="32" height="32" fill="#003E80" />
  <rect x="160" y="128" width="32" height="32" fill="#00285D" />
  <rect x="192" y="128" width="32" height="32" fill="#000B1F" />
  <rect x="224" y="128" width="32" height="32" fill="#000000" />
  <rect x="0" y="160" width="32" height="32" fill="#003E80" />
  <rect x="32" y="160" width="32" height="32" fill="#005CA3" />
  <rect x="64" y="160" width="32" height="32" fill="#0ABAA4" />
  <rect x="96" y="160" width="32" height="32" fill="#008FD2" />
  <rect x="128" y="160" width="32" height="32" fill="#0DDAE5" />
  <rect x="160" y="160" width="32" height="32" fill="#FFFFFF" />
  <rect x="192" y="160" width="32" height="32" fill="#FFFFFF" />
  <rect x="224" y="160" width="32" height="32" fill="#FFFFFF" />
  <rect x="0" y="192" width="32" height="32" fill="#FFFFFF" />
  <rect x="32" y="192" width="32" height="32" fill="#FFFFFF" />
  <rect x="64" y="192" width="32" height="32" fill="#0DDAE5" />
  <rect x="96" y="192" width="32" height="32" fill="#008FD2" />
  <rect x="128" y="192" width="32" height="32" fill="#005CA3" />
  <rect x="160" y="192" width="32" height="32" fill="#003E80" />
  <rect x="192" y="192" width="32" height="32" fill="#00285D" />
  <rect x="224" y="192" width="32" height="32" fill="#000B1F" />
  <rect x="0" y="224" width="32" height="32" fill="#000B1F" />
  <rect x="32" y="224" width="32" height="32" fill="#000000" />
  <rect x="64" y="224" width="32" height="32" fill="#00285D" />
  <rect x="96" y="224" width="32" height="32" fill="#003E80" />
  <rect x="128" y="224" width="32" height="32" fill="#005CA3" />
  <rect x="160" y="224" width="32" height="32" fill="#008FD2" />
  <rect x="192" y="224" width="32" height="32" fill="#0ABAA4" />
  <rect x="224" y="224" width="32" height="32" fill="#0DDAE5" />
</svg>
