<svg xmlns="http://www.w3.org/2000/svg" width="256" height="256" viewBox="0 0 256 256" shape-rendering="crispEdges" role="img" aria-labelledby="title desc">
  <title id="title">Pressure and Release</title>
  <desc id="desc">The emotional tone balances quiet and pressure, creating a conflict that oscillates throughout the grid. The palette, a mix of off-white, dust gray, and compressed red, hints at soothing calm juxtaposed with tension. The central arrangement, featuring a loose cluster of dark navy, suggests pressure while the surrounding faint peach and off-white breathes quietness. The main collision occurs diagonally, where pressure meets the softness of quiet, embodying tension through soft edges contrasting sharper colors. Overall, it's an exploration of how pressure and release interact within a contained space.</desc>
  <rect width="256" height="256" fill="#FFFFFF" />
  <rect x="0" y="0" width="32" height="32" fill="#F8F8F0" />
  <rect x="32" y="0" width="32" height="32" fill="#D0D0D0" />
  <rect x="64" y="0" width="32" height="32" fill="#D0C0C0" />
  <rect x="96" y="0" width="32" height="32" fill="#800000" />
  <rect x="128" y="0" width="32" height="32" fill="#800000" />
  <rect x="160" y="0" width="32" height="32" fill="#808080" />
  <rect x="192" y="0" width="32" height="32" fill="#B0C4DE" />
  <rect x="224" y="0" width="32" height="32" fill="#FFFFFF" />
  <rect x="0" y="32" width="32" height="32" fill="#FFFFFF" />
  <rect x="32" y="32" width="32" height="32" fill="#F8F8F0" />
  <rect x="64" y="32" width="32" height="32" fill="#E0E0E0" />
  <rect x="96" y="32" width="32" height="32" fill="#D0A0A9" />
  <rect x="128" y="32" width="32" height="32" fill="#700000" />
  <rect x="160" y="32" width="32" height="32" fill="#404040" />
  <rect x="192" y="32" width="32" height="32" fill="#C0D0E0" />
  <rect x="224" y="32" width="32" height="32" fill="#B0B0B0" />
  <rect x="0" y="64" width="32" height="32" fill="#B0B0B0" />
  <rect x="32" y="64" width="32" height="32" fill="#C0C0C0" />
  <rect x="64" y="64" width="32" height="32" fill="#E0E0E0" />
  <rect x="96" y="64" width="32" height="32" fill="#F8F8F0" />
  <rect x="128" y="64" width="32" height="32" fill="#909090" />
  <rect x="160" y="64" width="32" height="32" fill="#F00F00" />
  <rect x="192" y="64" width="32" height="32" fill="#D0F0F0" />
  <rect x="224" y="64" width="32" height="32" fill="#F8F8F0" />
  <rect x="0" y="96" width="32" height="32" fill="#F0F0F0" />
  <rect x="32" y="96" width="32" height="32" fill="#808080" />
  <rect x="64" y="96" width="32" height="32" fill="#707070" />
  <rect x="96" y="96" width="32" height="32" fill="#B0B0B0" />
  <rect x="128" y="96" width="32" height="32" fill="#A02020" />
  <rect x="160" y="96" width="32" height="32" fill="#202040" />
  <rect x="192" y="96" width="32" height="32" fill="#303030" />
  <rect x="224" y="96" width="32" height="32" fill="#C0C0C0" />
  <rect x="0" y="128" width="32" height="32" fill="#E0E0E0" />
  <rect x="32" y="128" width="32" height="32" fill="#F1F1F1" />
  <rect x="64" y="128" width="32" height="32" fill="#D0B0B0" />
  <rect x="96" y="128" width="32" height="32" fill="#C00000" />
  <rect x="128" y="128" width="32" height="32" fill="#404040" />
  <rect x="160" y="128" width="32" height="32" fill="#A0A0A0" />
  <rect x="192" y="128" width="32" height="32" fill="#F8F8F0" />
  <rect x="224" y="128" width="32" height="32" fill="#707070" />
  <rect x="0" y="160" width="32" height="32" fill="#000000" />
  <rect x="32" y="160" width="32" height="32" fill="#303030" />
  <rect x="64" y="160" width="32" height="32" fill="#B0B0B0" />
  <rect x="96" y="160" width="32" height="32" fill="#FF4040" />
  <rect x="128" y="160" width="32" height="32" fill="#909090" />
  <rect x="160" y="160" width="32" height="32" fill="#FFFFFF" />
  <rect x="192" y="160" width="32" height="32" fill="#F0F0F0" />
  <rect x="224" y="160" width="32" height="32" fill="#A0C0C0" />
  <rect x="0" y="192" width="32" height="32" fill="#D0D0D0" />
  <rect x="32" y="192" width="32" height="32" fill="#606060" />
  <rect x="64" y="192" width="32" height="32" fill="#C0C0C0" />
  <rect x="96" y="192" width="32" height="32" fill="#F0F0F0" />
  <rect x="128" y="192" width="32" height="32" fill="#E0E0E0" />
  <rect x="160" y="192" width="32" height="32" fill="#F2F2F2" />
  <rect x="192" y="192" width="32" height="32" fill="#404040" />
  <rect x="224" y="192" width="32" height="32" fill="#606060" />
  <rect x="0" y="224" width="32" height="32" fill="#FFFFFF" />
  <rect x="32" y="224" width="32" height="32" fill="#D0A0A9" />
  <rect x="64" y="224" width="32" height="32" fill="#E0E0E0" />
  <rect x="96" y="224" width="32" height="32" fill="#B0B0B0" />
  <rect x="128" y="224" width="32" height="32" fill="#F8F8F0" />
  <rect x="160" y="224" width="32" height="32" fill="#F8C0C0" />
  <rect x="192" y="224" width="32" height="32" fill="#A0A0A0" />
  <rect x="224" y="224" width="32" height="32" fill="#080808" />
</svg>
