<svg xmlns="http://www.w3.org/2000/svg" width="256" height="256" viewBox="0 0 256 256" shape-rendering="crispEdges" role="img" aria-labelledby="title desc">
  <title id="title">Echo of Separation</title>
  <desc id="desc">The emotional tone oscillates between feelings of loneliness and connection, represented through placement and palette. The chosen colors of sepia, tan, dust gray, and faded blue evoke nostalgia and a sense of distance. The main contrast occurs in the center, which symbolizes a hidden connection amidst loneliness, celebrated by the burst and top-weighting that crowd the edges in more muted tones. This arrangement reflects the inner turmoil of connection versus isolation, conveying tension and the fragile nature of relationships.</desc>
  <rect width="256" height="256" fill="#FFFFFF" />
  <rect x="0" y="0" width="32" height="32" fill="#C8BCA3" />
  <rect x="32" y="0" width="32" height="32" fill="#D2D4DF" />
  <rect x="64" y="0" width="32" height="32" fill="#C2B29D" />
  <rect x="96" y="0" width="32" height="32" fill="#D1C3A4" />
  <rect x="128" y="0" width="32" height="32" fill="#E6E0DD" />
  <rect x="160" y="0" width="32" height="32" fill="#B2B3B9" />
  <rect x="192" y="0" width="32" height="32" fill="#FEF9F8" />
  <rect x="224" y="0" width="32" height="32" fill="#D4D0C0" />
  <rect x="0" y="32" width="32" height="32" fill="#B3A18D" />
  <rect x="32" y="32" width="32" height="32" fill="#E5D5C4" />
  <rect x="64" y="32" width="32" height="32" fill="#D0C1B9" />
  <rect x="96" y="32" width="32" height="32" fill="#B49374" />
  <rect x="128" y="32" width="32" height="32" fill="#C1B1A0" />
  <rect x="160" y="32" width="32" height="32" fill="#E1D8D1" />
  <rect x="192" y="32" width="32" height="32" fill="#F4E7E6" />
  <rect x="224" y="32" width="32" height="32" fill="#B8C1B1" />
  <rect x="0" y="64" width="32" height="32" fill="#B2AFAF" />
  <rect x="32" y="64" width="32" height="32" fill="#C45D54" />
  <rect x="64" y="64" width="32" height="32" fill="#A16A58" />
  <rect x="96" y="64" width="32" height="32" fill="#C8BCA3" />
  <rect x="128" y="64" width="32" height="32" fill="#C2B29D" />
  <rect x="160" y="64" width="32" height="32" fill="#B3A18D" />
  <rect x="192" y="64" width="32" height="32" fill="#DDC3A4" />
  <rect x="224" y="64" width="32" height="32" fill="#E3E1D0" />
  <rect x="0" y="96" width="32" height="32" fill="#C1B29D" />
  <rect x="32" y="96" width="32" height="32" fill="#D1C3A4" />
  <rect x="64" y="96" width="32" height="32" fill="#E5D5C4" />
  <rect x="96" y="96" width="32" height="32" fill="#B49374" />
  <rect x="128" y="96" width="32" height="32" fill="#B3A18D" />
  <rect x="160" y="96" width="32" height="32" fill="#F4E7E6" />
  <rect x="192" y="96" width="32" height="32" fill="#A58B7A" />
  <rect x="224" y="96" width="32" height="32" fill="#A0A8B1" />
  <rect x="0" y="128" width="32" height="32" fill="#E6E0DD" />
  <rect x="32" y="128" width="32" height="32" fill="#B2B3B9" />
  <rect x="64" y="128" width="32" height="32" fill="#D4D0C0" />
  <rect x="96" y="128" width="32" height="32" fill="#B3A18D" />
  <rect x="128" y="128" width="32" height="32" fill="#B2C4CD" />
  <rect x="160" y="128" width="32" height="32" fill="#B8C1B1" />
  <rect x="192" y="128" width="32" height="32" fill="#FEF9F8" />
  <rect x="224" y="128" width="32" height="32" fill="#F2D1E0" />
  <rect x="0" y="160" width="32" height="32" fill="#D1C3A4" />
  <rect x="32" y="160" width="32" height="32" fill="#C2B29D" />
  <rect x="64" y="160" width="32" height="32" fill="#B2A18D" />
  <rect x="96" y="160" width="32" height="32" fill="#C1B29D" />
  <rect x="128" y="160" width="32" height="32" fill="#E5D5C4" />
  <rect x="160" y="160" width="32" height="32" fill="#D68D72" />
  <rect x="192" y="160" width="32" height="32" fill="#A16A58" />
  <rect x="224" y="160" width="32" height="32" fill="#C8BCA3" />
  <rect x="0" y="192" width="32" height="32" fill="#A58B7A" />
  <rect x="32" y="192" width="32" height="32" fill="#F4E201" />
  <rect x="64" y="192" width="32" height="32" fill="#A8B8C9" />
  <rect x="96" y="192" width="32" height="32" fill="#B4A89D" />
  <rect x="128" y="192" width="32" height="32" fill="#F7E5D6" />
  <rect x="160" y="192" width="32" height="32" fill="#B3A18D" />
  <rect x="192" y="192" width="32" height="32" fill="#C2B29D" />
  <rect x="224" y="192" width="32" height="32" fill="#C45D54" />
  <rect x="0" y="224" width="32" height="32" fill="#E3E1D0" />
  <rect x="32" y="224" width="32" height="32" fill="#D4D0C0" />
  <rect x="64" y="224" width="32" height="32" fill="#B3A18D" />
  <rect x="96" y="224" width="32" height="32" fill="#B2C4CD" />
  <rect x="128" y="224" width="32" height="32" fill="#F2D1E0" />
  <rect x="160" y="224" width="32" height="32" fill="#B8C1B1" />
  <rect x="192" y="224" width="32" height="32" fill="#D2D4DF" />
  <rect x="224" y="224" width="32" height="32" fill="#C8BCA3" />
</svg>
