<svg xmlns="http://www.w3.org/2000/svg" width="256" height="256" viewBox="0 0 256 256" shape-rendering="crispEdges" role="img" aria-labelledby="title desc">
  <title id="title">Pressure and Release</title>
  <desc id="desc">The artwork captures the emotional dialectic between quiet and pressure using a palette that juxtaposes muted tones with impactful contrasts. The darker borders channel the weight of pressure, while softer center colors suggest spaces of stillness. The core tension manifests at the diagonal seam where the hard edges of compressed red clash with faint peach, creating a visual narrative of shattering against the tide. This arrangement evokes a quiet response from the viewer while challenging them with bursts of intensity, mirroring the chaos of clarity and confusion.</desc>
  <rect width="256" height="256" fill="#FFFFFF" />
  <rect x="0" y="0" width="32" height="32" fill="#1E1E1E" />
  <rect x="32" y="0" width="32" height="32" fill="#1F2232" />
  <rect x="64" y="0" width="32" height="32" fill="#2B2E3B" />
  <rect x="96" y="0" width="32" height="32" fill="#2F3246" />
  <rect x="128" y="0" width="32" height="32" fill="#4A4D56" />
  <rect x="160" y="0" width="32" height="32" fill="#898996" />
  <rect x="192" y="0" width="32" height="32" fill="#DBD4D3" />
  <rect x="224" y="0" width="32" height="32" fill="#E6E0D1" />
  <rect x="0" y="32" width="32" height="32" fill="#E0BFBC" />
  <rect x="32" y="32" width="32" height="32" fill="#D5777A" />
  <rect x="64" y="32" width="32" height="32" fill="#CE6360" />
  <rect x="96" y="32" width="32" height="32" fill="#D5A20C" />
  <rect x="128" y="32" width="32" height="32" fill="#E3B03C" />
  <rect x="160" y="32" width="32" height="32" fill="#F0DB6A" />
  <rect x="192" y="32" width="32" height="32" fill="#E8B7B1" />
  <rect x="224" y="32" width="32" height="32" fill="#F6E4E0" />
  <rect x="0" y="64" width="32" height="32" fill="#1E1F24" />
  <rect x="32" y="64" width="32" height="32" fill="#383D4E" />
  <rect x="64" y="64" width="32" height="32" fill="#BEB2B5" />
  <rect x="96" y="64" width="32" height="32" fill="#BF9193" />
  <rect x="128" y="64" width="32" height="32" fill="#BF788B" />
  <rect x="160" y="64" width="32" height="32" fill="#B79488" />
  <rect x="192" y="64" width="32" height="32" fill="#7E6F73" />
  <rect x="224" y="64" width="32" height="32" fill="#D7D8D9" />
  <rect x="0" y="96" width="32" height="32" fill="#2F313A" />
  <rect x="32" y="96" width="32" height="32" fill="#42444D" />
  <rect x="64" y="96" width="32" height="32" fill="#82868F" />
  <rect x="96" y="96" width="32" height="32" fill="#7D7D7D" />
  <rect x="128" y="96" width="32" height="32" fill="#787F84" />
  <rect x="160" y="96" width="32" height="32" fill="#4B545C" />
  <rect x="192" y="96" width="32" height="32" fill="#8F9DA2" />
  <rect x="224" y="96" width="32" height="32" fill="#D0D6DB" />
  <rect x="0" y="128" width="32" height="32" fill="#0E0F14" />
  <rect x="32" y="128" width="32" height="32" fill="#21242E" />
  <rect x="64" y="128" width="32" height="32" fill="#3F4349" />
  <rect x="96" y="128" width="32" height="32" fill="#4F535B" />
  <rect x="128" y="128" width="32" height="32" fill="#7D828A" />
  <rect x="160" y="128" width="32" height="32" fill="#D7D6D5" />
  <rect x="192" y="128" width="32" height="32" fill="#C3B9B7" />
  <rect x="224" y="128" width="32" height="32" fill="#E5E2D5" />
  <rect x="0" y="160" width="32" height="32" fill="#23283A" />
  <rect x="32" y="160" width="32" height="32" fill="#2A2F3C" />
  <rect x="64" y="160" width="32" height="32" fill="#4D5359" />
  <rect x="96" y="160" width="32" height="32" fill="#B7B1B9" />
  <rect x="128" y="160" width="32" height="32" fill="#DBD3D1" />
  <rect x="160" y="160" width="32" height="32" fill="#B0A6A4" />
  <rect x="192" y="160" width="32" height="32" fill="#D7D1C9" />
  <rect x="224" y="160" width="32" height="32" fill="#EAD4D0" />
  <rect x="0" y="192" width="32" height="32" fill="#121514" />
  <rect x="32" y="192" width="32" height="32" fill="#39405B" />
  <rect x="64" y="192" width="32" height="32" fill="#BAC7CE" />
  <rect x="96" y="192" width="32" height="32" fill="#B3C3C7" />
  <rect x="128" y="192" width="32" height="32" fill="#E4E7E8" />
  <rect x="160" y="192" width="32" height="32" fill="#D4DBDE" />
  <rect x="192" y="192" width="32" height="32" fill="#B7BACB" />
  <rect x="224" y="192" width="32" height="32" fill="#E9E8E7" />
  <rect x="0" y="224" width="32" height="32" fill="#0B0C12" />
  <rect x="32" y="224" width="32" height="32" fill="#1A1D27" />
  <rect x="64" y="224" width="32" height="32" fill="#4A4F59" />
  <rect x="96" y="224" width="32" height="32" fill="#E3E6E8" />
  <rect x="128" y="224" width="32" height="32" fill="#F2F4F7" />
  <rect x="160" y="224" width="32" height="32" fill="#D8D6D4" />
  <rect x="192" y="224" width="32" height="32" fill="#C6B6B7" />
  <rect x="224" y="224" width="32" height="32" fill="#EAE2E2" />
</svg>
