<svg xmlns="http://www.w3.org/2000/svg" width="256" height="256" viewBox="0 0 256 256" shape-rendering="crispEdges" role="img" aria-labelledby="title desc">
  <title id="title">Nexus of Longing and Resolve</title>
  <desc id="desc">The emotional tone reflects a tension between yearning and stability, captured through a palette of deep navy for isolation and dim cyan for subtle hope. The main contrast occurs in the collision where longing's radial patterns surge into the structured channels of resolve, creating a dynamic flow that embodies both urgency and serenity. The broken pixels introduce aspects of imperfection, symbolizing the fragility within both emotions. The split layout underscores the dichotomy, allowing the viewer to feel the push and pull of these emotional states.</desc>
  <rect width="256" height="256" fill="#FFFFFF" />
  <rect x="0" y="0" width="32" height="32" fill="#000033" />
  <rect x="32" y="0" width="32" height="32" fill="#001133" />
  <rect x="64" y="0" width="32" height="32" fill="#003366" />
  <rect x="96" y="0" width="32" height="32" fill="#005588" />
  <rect x="128" y="0" width="32" height="32" fill="#0077AA" />
  <rect x="160" y="0" width="32" height="32" fill="#0099CC" />
  <rect x="192" y="0" width="32" height="32" fill="#00BBDD" />
  <rect x="224" y="0" width="32" height="32" fill="#00EEDD" />
  <rect x="0" y="32" width="32" height="32" fill="#000000" />
  <rect x="32" y="32" width="32" height="32" fill="#001122" />
  <rect x="64" y="32" width="32" height="32" fill="#222222" />
  <rect x="96" y="32" width="32" height="32" fill="#444444" />
  <rect x="128" y="32" width="32" height="32" fill="#666666" />
  <rect x="160" y="32" width="32" height="32" fill="#888888" />
  <rect x="192" y="32" width="32" height="32" fill="#AAAAAA" />
  <rect x="224" y="32" width="32" height="32" fill="#CCCCCC" />
  <rect x="0" y="64" width="32" height="32" fill="#001122" />
  <rect x="32" y="64" width="32" height="32" fill="#002233" />
  <rect x="64" y="64" width="32" height="32" fill="#003144" />
  <rect x="96" y="64" width="32" height="32" fill="#004455" />
  <rect x="128" y="64" width="32" height="32" fill="#005566" />
  <rect x="160" y="64" width="32" height="32" fill="#006677" />
  <rect x="192" y="64" width="32" height="32" fill="#007788" />
  <rect x="224" y="64" width="32" height="32" fill="#008899" />
  <rect x="0" y="96" width="32" height="32" fill="#E3E3E3" />
  <rect x="32" y="96" width="32" height="32" fill="#D1D1D1" />
  <rect x="64" y="96" width="32" height="32" fill="#B8B8B8" />
  <rect x="96" y="96" width="32" height="32" fill="#A6A6A6" />
  <rect x="128" y="96" width="32" height="32" fill="#949494" />
  <rect x="160" y="96" width="32" height="32" fill="#828282" />
  <rect x="192" y="96" width="32" height="32" fill="#707070" />
  <rect x="224" y="96" width="32" height="32" fill="#666666" />
  <rect x="0" y="128" width="32" height="32" fill="#000033" />
  <rect x="32" y="128" width="32" height="32" fill="#111133" />
  <rect x="64" y="128" width="32" height="32" fill="#222255" />
  <rect x="96" y="128" width="32" height="32" fill="#333377" />
  <rect x="128" y="128" width="32" height="32" fill="#444499" />
  <rect x="160" y="128" width="32" height="32" fill="#5555BB" />
  <rect x="192" y="128" width="32" height="32" fill="#6666DD" />
  <rect x="224" y="128" width="32" height="32" fill="#7777FF" />
  <rect x="0" y="160" width="32" height="32" fill="#000000" />
  <rect x="32" y="160" width="32" height="32" fill="#003366" />
  <rect x="64" y="160" width="32" height="32" fill="#006699" />
  <rect x="96" y="160" width="32" height="32" fill="#0099CC" />
  <rect x="128" y="160" width="32" height="32" fill="#00BBDD" />
  <rect x="160" y="160" width="32" height="32" fill="#00EEDD" />
  <rect x="192" y="160" width="32" height="32" fill="#00FFFF" />
  <rect x="224" y="160" width="32" height="32" fill="#66FFFF" />
  <rect x="0" y="192" width="32" height="32" fill="#111111" />
  <rect x="32" y="192" width="32" height="32" fill="#222222" />
  <rect x="64" y="192" width="32" height="32" fill="#333333" />
  <rect x="96" y="192" width="32" height="32" fill="#444444" />
  <rect x="128" y="192" width="32" height="32" fill="#555555" />
  <rect x="160" y="192" width="32" height="32" fill="#666666" />
  <rect x="192" y="192" width="32" height="32" fill="#777777" />
  <rect x="224" y="192" width="32" height="32" fill="#888888" />
  <rect x="0" y="224" width="32" height="32" fill="#444444" />
  <rect x="32" y="224" width="32" height="32" fill="#555555" />
  <rect x="64" y="224" width="32" height="32" fill="#666666" />
  <rect x="96" y="224" width="32" height="32" fill="#777777" />
  <rect x="128" y="224" width="32" height="32" fill="#888888" />
  <rect x="160" y="224" width="32" height="32" fill="#999999" />
  <rect x="192" y="224" width="32" height="32" fill="#AAAAAA" />
  <rect x="224" y="224" width="32" height="32" fill="#BBBBBB" />
</svg>
