<svg xmlns="http://www.w3.org/2000/svg" width="256" height="256" viewBox="0 0 256 256" shape-rendering="crispEdges" role="img" aria-labelledby="title desc">
  <title id="title">Balance of Emotion</title>
  <desc id="desc">The emotional tone is a juxtaposition of tenderness and rage, reflecting a struggle between calmness and intensity. The chosen palette features deep reds evocative of rage, contrasted with muted pale blues symbolizing tenderness. The main contrast occurs through jagged reds that invade the tranquil blues, suggesting an emotional rupture. The layout captures an 'empty room' feeling, where tension is suggested through the interplay of these colors, reflecting interrupted calmness. The broken pixels add an element of imperfection, indicating scars of emotional experiences. The overall arrangement speaks to the complexity of feelings, revealing an underlying narrative of guilt and forgiveness within the tension of opposite moods.</desc>
  <rect width="256" height="256" fill="#FFFFFF" />
  <rect x="0" y="0" width="32" height="32" fill="#FF0000" />
  <rect x="32" y="0" width="32" height="32" fill="#FF4D00" />
  <rect x="64" y="0" width="32" height="32" fill="#FF7F00" />
  <rect x="96" y="0" width="32" height="32" fill="#FFB300" />
  <rect x="128" y="0" width="32" height="32" fill="#FFDA00" />
  <rect x="160" y="0" width="32" height="32" fill="#FFFFFF" />
  <rect x="192" y="0" width="32" height="32" fill="#A0C1DA" />
  <rect x="224" y="0" width="32" height="32" fill="#8EECF5" />
  <rect x="0" y="32" width="32" height="32" fill="#BA4D00" />
  <rect x="32" y="32" width="32" height="32" fill="#FF1A00" />
  <rect x="64" y="32" width="32" height="32" fill="#FF4500" />
  <rect x="96" y="32" width="32" height="32" fill="#FF7E3D" />
  <rect x="128" y="32" width="32" height="32" fill="#FFB04D" />
  <rect x="160" y="32" width="32" height="32" fill="#C2D9E9" />
  <rect x="192" y="32" width="32" height="32" fill="#5F8DBD" />
  <rect x="224" y="32" width="32" height="32" fill="#C4E7F5" />
  <rect x="0" y="64" width="32" height="32" fill="#A03E4B" />
  <rect x="32" y="64" width="32" height="32" fill="#DA4A4A" />
  <rect x="64" y="64" width="32" height="32" fill="#FF6F5A" />
  <rect x="96" y="64" width="32" height="32" fill="#FF9944" />
  <rect x="128" y="64" width="32" height="32" fill="#FFC66A" />
  <rect x="160" y="64" width="32" height="32" fill="#EFF2F5" />
  <rect x="192" y="64" width="32" height="32" fill="#D5E7F5" />
  <rect x="224" y="64" width="32" height="32" fill="#9CC3D4" />
  <rect x="0" y="96" width="32" height="32" fill="#701C18" />
  <rect x="32" y="96" width="32" height="32" fill="#8A4F67" />
  <rect x="64" y="96" width="32" height="32" fill="#C5B28C" />
  <rect x="96" y="96" width="32" height="32" fill="#FFD8A1" />
  <rect x="128" y="96" width="32" height="32" fill="#C7E1F0" />
  <rect x="160" y="96" width="32" height="32" fill="#A6D4E6" />
  <rect x="192" y="96" width="32" height="32" fill="#6C999B" />
  <rect x="224" y="96" width="32" height="32" fill="#FFFFFF" />
  <rect x="0" y="128" width="32" height="32" fill="#C04000" />
  <rect x="32" y="128" width="32" height="32" fill="#FF742B" />
  <rect x="64" y="128" width="32" height="32" fill="#FFB300" />
  <rect x="96" y="128" width="32" height="32" fill="#FFDAA1" />
  <rect x="128" y="128" width="32" height="32" fill="#FFFFFF" />
  <rect x="160" y="128" width="32" height="32" fill="#E1F0F9" />
  <rect x="192" y="128" width="32" height="32" fill="#B4D0E3" />
  <rect x="224" y="128" width="32" height="32" fill="#8BC4DA" />
  <rect x="0" y="160" width="32" height="32" fill="#5D3D4B" />
  <rect x="32" y="160" width="32" height="32" fill="#F39C00" />
  <rect x="64" y="160" width="32" height="32" fill="#FFB600" />
  <rect x="96" y="160" width="32" height="32" fill="#FFDE73" />
  <rect x="128" y="160" width="32" height="32" fill="#D0F2E6" />
  <rect x="160" y="160" width="32" height="32" fill="#A3D7E6" />
  <rect x="192" y="160" width="32" height="32" fill="#A6C2D7" />
  <rect x="224" y="160" width="32" height="32" fill="#E9F4F9" />
  <rect x="0" y="192" width="32" height="32" fill="#6B6C7C" />
  <rect x="32" y="192" width="32" height="32" fill="#A23B3B" />
  <rect x="64" y="192" width="32" height="32" fill="#DA8A8A" />
  <rect x="96" y="192" width="32" height="32" fill="#FFC6B2" />
  <rect x="128" y="192" width="32" height="32" fill="#E4E7F1" />
  <rect x="160" y="192" width="32" height="32" fill="#B6D5E7" />
  <rect x="192" y="192" width="32" height="32" fill="#F0F4F6" />
  <rect x="224" y="192" width="32" height="32" fill="#DAE8F5" />
  <rect x="0" y="224" width="32" height="32" fill="#000000" />
  <rect x="32" y="224" width="32" height="32" fill="#AB0C00" />
  <rect x="64" y="224" width="32" height="32" fill="#BF4C00" />
  <rect x="96" y="224" width="32" height="32" fill="#FCB400" />
  <rect x="128" y="224" width="32" height="32" fill="#FFF6E4" />
  <rect x="160" y="224" width="32" height="32" fill="#A4DBE8" />
  <rect x="192" y="224" width="32" height="32" fill="#7FB5D5" />
  <rect x="224" y="224" width="32" height="32" fill="#E0F7FA" />
</svg>
