<svg xmlns="http://www.w3.org/2000/svg" width="256" height="256" viewBox="0 0 256 256" shape-rendering="crispEdges" role="img" aria-labelledby="title desc">
  <title id="title">Echoes of Connection</title>
  <desc id="desc">The emotional tone oscillates between loneliness and connection, illustrated through a palette of warm yellows and muted purples, suggesting a warmth that contrasts against feelings of emptiness. The color positions evoke a sense of weight, where the darker hues felt like broken memory colliding with bright dots of connection. Main contrast occurs in the top left corner with the strong yellow emerging from the muted background, suggesting an invasion of connection amidst scattered moments of solitude. The layout follows a falling pixel pattern, reflecting the descent of emotions from the heights of connection to the depths of loneliness.</desc>
  <rect width="256" height="256" fill="#FFFFFF" />
  <rect x="0" y="0" width="32" height="32" fill="#FFD700" />
  <rect x="32" y="0" width="32" height="32" fill="#E0B0FF" />
  <rect x="64" y="0" width="32" height="32" fill="#D3D3D3" />
  <rect x="96" y="0" width="32" height="32" fill="#866E8A" />
  <rect x="128" y="0" width="32" height="32" fill="#BEBFC0" />
  <rect x="160" y="0" width="32" height="32" fill="#C8A2B9" />
  <rect x="192" y="0" width="32" height="32" fill="#FFFFFF" />
  <rect x="224" y="0" width="32" height="32" fill="#808080" />
  <rect x="0" y="32" width="32" height="32" fill="#FFD700" />
  <rect x="32" y="32" width="32" height="32" fill="#C0C0C0" />
  <rect x="64" y="32" width="32" height="32" fill="#DDA0DD" />
  <rect x="96" y="32" width="32" height="32" fill="#B0E0E6" />
  <rect x="128" y="32" width="32" height="32" fill="#D8BFD8" />
  <rect x="160" y="32" width="32" height="32" fill="#E6E6FA" />
  <rect x="192" y="32" width="32" height="32" fill="#F5FFFA" />
  <rect x="224" y="32" width="32" height="32" fill="#FFDAB9" />
  <rect x="0" y="64" width="32" height="32" fill="#FFA07A" />
  <rect x="32" y="64" width="32" height="32" fill="#FF4500" />
  <rect x="64" y="64" width="32" height="32" fill="#FFE4B5" />
  <rect x="96" y="64" width="32" height="32" fill="#FFDEAD" />
  <rect x="128" y="64" width="32" height="32" fill="#FFA500" />
  <rect x="160" y="64" width="32" height="32" fill="#F0E68C" />
  <rect x="192" y="64" width="32" height="32" fill="#F0F8FF" />
  <rect x="224" y="64" width="32" height="32" fill="#DCDCDC" />
  <rect x="0" y="96" width="32" height="32" fill="#708090" />
  <rect x="32" y="96" width="32" height="32" fill="#778899" />
  <rect x="64" y="96" width="32" height="32" fill="#483D8B" />
  <rect x="96" y="96" width="32" height="32" fill="#2F4F4F" />
  <rect x="128" y="96" width="32" height="32" fill="#6495ED" />
  <rect x="160" y="96" width="32" height="32" fill="#4682B4" />
  <rect x="192" y="96" width="32" height="32" fill="#B0E0E6" />
  <rect x="224" y="96" width="32" height="32" fill="#D3D3D3" />
  <rect x="0" y="128" width="32" height="32" fill="#FFD700" />
  <rect x="32" y="128" width="32" height="32" fill="#DAA520" />
  <rect x="64" y="128" width="32" height="32" fill="#C0C0C0" />
  <rect x="96" y="128" width="32" height="32" fill="#DDA0DD" />
  <rect x="128" y="128" width="32" height="32" fill="#E6E6FA" />
  <rect x="160" y="128" width="32" height="32" fill="#E0B0FF" />
  <rect x="192" y="128" width="32" height="32" fill="#A9A9A9" />
  <rect x="224" y="128" width="32" height="32" fill="#FFE4E1" />
  <rect x="0" y="160" width="32" height="32" fill="#B22222" />
  <rect x="32" y="160" width="32" height="32" fill="#FF6347" />
  <rect x="64" y="160" width="32" height="32" fill="#E0FFFF" />
  <rect x="96" y="160" width="32" height="32" fill="#B0C4DE" />
  <rect x="128" y="160" width="32" height="32" fill="#F08080" />
  <rect x="160" y="160" width="32" height="32" fill="#E6E6FA" />
  <rect x="192" y="160" width="32" height="32" fill="#BEBFC0" />
  <rect x="224" y="160" width="32" height="32" fill="#C8A2B9" />
  <rect x="0" y="192" width="32" height="32" fill="#98FB98" />
  <rect x="32" y="192" width="32" height="32" fill="#00FA9A" />
  <rect x="64" y="192" width="32" height="32" fill="#FFE4E1" />
  <rect x="96" y="192" width="32" height="32" fill="#B0C4DE" />
  <rect x="128" y="192" width="32" height="32" fill="#F0E68C" />
  <rect x="160" y="192" width="32" height="32" fill="#E6E6FA" />
  <rect x="192" y="192" width="32" height="32" fill="#DDA0DD" />
  <rect x="224" y="192" width="32" height="32" fill="#D2691E" />
  <rect x="0" y="224" width="32" height="32" fill="#FFFFFF" />
  <rect x="32" y="224" width="32" height="32" fill="#FFFAFA" />
  <rect x="64" y="224" width="32" height="32" fill="#D8BFD8" />
  <rect x="96" y="224" width="32" height="32" fill="#EEE8AA" />
  <rect x="128" y="224" width="32" height="32" fill="#FAF0E6" />
  <rect x="160" y="224" width="32" height="32" fill="#F5FFFA" />
  <rect x="192" y="224" width="32" height="32" fill="#D3D3D3" />
  <rect x="224" y="224" width="32" height="32" fill="#FF4500" />
</svg>
