<svg xmlns="http://www.w3.org/2000/svg" width="256" height="256" viewBox="0 0 256 256" shape-rendering="crispEdges" role="img" aria-labelledby="title desc">
  <title id="title">Echoes of Tension</title>
  <desc id="desc">The emotional tone balances between longing and resolve, creating a dynamic tension that reflects fractured connectivity. The palette of soft pastel mint paired with stormy gray represents a spectrum of hope and melancholy. The main contrast occurs in the center, where the ring pattern of longing clashes with structured patches of resolve, suggesting the complexity of emotional intersections. Broken pixels are dispersed intentionally to invoke a sense of disruption and repair, encapsulating the layered experiences of yearning and firmness in the face of chaos.</desc>
  <rect width="256" height="256" fill="#FFFFFF" />
  <rect x="0" y="0" width="32" height="32" fill="#F0FFF0" />
  <rect x="32" y="0" width="32" height="32" fill="#A3C1D4" />
  <rect x="64" y="0" width="32" height="32" fill="#C0D3E2" />
  <rect x="96" y="0" width="32" height="32" fill="#B7B0C3" />
  <rect x="128" y="0" width="32" height="32" fill="#F3E86D" />
  <rect x="160" y="0" width="32" height="32" fill="#A55A2C" />
  <rect x="192" y="0" width="32" height="32" fill="#F0F0F0" />
  <rect x="224" y="0" width="32" height="32" fill="#000000" />
  <rect x="0" y="32" width="32" height="32" fill="#A2E2DB" />
  <rect x="32" y="32" width="32" height="32" fill="#B0C4D5" />
  <rect x="64" y="32" width="32" height="32" fill="#6A6D89" />
  <rect x="96" y="32" width="32" height="32" fill="#B8DA5E" />
  <rect x="128" y="32" width="32" height="32" fill="#E3D05E" />
  <rect x="160" y="32" width="32" height="32" fill="#ECA0B3" />
  <rect x="192" y="32" width="32" height="32" fill="#1F3A58" />
  <rect x="224" y="32" width="32" height="32" fill="#D0C6C9" />
  <rect x="0" y="64" width="32" height="32" fill="#6ACDAA" />
  <rect x="32" y="64" width="32" height="32" fill="#3A4D73" />
  <rect x="64" y="64" width="32" height="32" fill="#E2D8B0" />
  <rect x="96" y="64" width="32" height="32" fill="#A9B7CF" />
  <rect x="128" y="64" width="32" height="32" fill="#7F91F3" />
  <rect x="160" y="64" width="32" height="32" fill="#D0B2F2" />
  <rect x="192" y="64" width="32" height="32" fill="#2B3D30" />
  <rect x="224" y="64" width="32" height="32" fill="#DEDEDE" />
  <rect x="0" y="96" width="32" height="32" fill="#F3C58F" />
  <rect x="32" y="96" width="32" height="32" fill="#C8D7D4" />
  <rect x="64" y="96" width="32" height="32" fill="#333C4E" />
  <rect x="96" y="96" width="32" height="32" fill="#959DA6" />
  <rect x="128" y="96" width="32" height="32" fill="#B0B5C3" />
  <rect x="160" y="96" width="32" height="32" fill="#6C4A75" />
  <rect x="192" y="96" width="32" height="32" fill="#F1D6AD" />
  <rect x="224" y="96" width="32" height="32" fill="#000C12" />
  <rect x="0" y="128" width="32" height="32" fill="#A7C6B9" />
  <rect x="32" y="128" width="32" height="32" fill="#0A1931" />
  <rect x="64" y="128" width="32" height="32" fill="#C2B6A0" />
  <rect x="96" y="128" width="32" height="32" fill="#7D566E" />
  <rect x="128" y="128" width="32" height="32" fill="#E23A30" />
  <rect x="160" y="128" width="32" height="32" fill="#E9E5C3" />
  <rect x="192" y="128" width="32" height="32" fill="#1E2A54" />
  <rect x="224" y="128" width="32" height="32" fill="#F5F5F5" />
  <rect x="0" y="160" width="32" height="32" fill="#B7DCDB" />
  <rect x="32" y="160" width="32" height="32" fill="#B089B1" />
  <rect x="64" y="160" width="32" height="32" fill="#3C4A4D" />
  <rect x="96" y="160" width="32" height="32" fill="#F0C3B8" />
  <rect x="128" y="160" width="32" height="32" fill="#5A5C89" />
  <rect x="160" y="160" width="32" height="32" fill="#A8B8C0" />
  <rect x="192" y="160" width="32" height="32" fill="#5C4A7A" />
  <rect x="224" y="160" width="32" height="32" fill="#1D1D1D" />
  <rect x="0" y="192" width="32" height="32" fill="#D7B99B" />
  <rect x="32" y="192" width="32" height="32" fill="#7EA3B1" />
  <rect x="64" y="192" width="32" height="32" fill="#F2E0BB" />
  <rect x="96" y="192" width="32" height="32" fill="#AFA0B9" />
  <rect x="128" y="192" width="32" height="32" fill="#AB77A2" />
  <rect x="160" y="192" width="32" height="32" fill="#C3BBA9" />
  <rect x="192" y="192" width="32" height="32" fill="#111833" />
  <rect x="224" y="192" width="32" height="32" fill="#E1E1E1" />
  <rect x="0" y="224" width="32" height="32" fill="#79B1A4" />
  <rect x="32" y="224" width="32" height="32" fill="#532730" />
  <rect x="64" y="224" width="32" height="32" fill="#D8CC68" />
  <rect x="96" y="224" width="32" height="32" fill="#EEDD98" />
  <rect x="128" y="224" width="32" height="32" fill="#B7D4D3" />
  <rect x="160" y="224" width="32" height="32" fill="#F8CBBE" />
  <rect x="192" y="224" width="32" height="32" fill="#8C8C8C" />
  <rect x="224" y="224" width="32" height="32" fill="#000000" />
</svg>
