<svg xmlns="http://www.w3.org/2000/svg" width="256" height="256" viewBox="0 0 256 256" shape-rendering="crispEdges" role="img" aria-labelledby="title desc">
  <title id="title">Contrast of Absence</title>
  <desc id="desc">This composition embodies the emotional dialogue between emptiness and desire. The 'ancient_fire' palette captures warmth through burnt orange and gold, contrasting sharply against the coolness of dark red and charcoal, creating a tension that reflects longing amidst void. The upward flow suggests a rising signal, with placements that echo the conflict of movement and stillness. Hard edges introduce a sense of disruption while broken pixels represent imperfection, emphasizing the pulse between hope and desolation. The negative space ensures the feelings of isolation are palpable, allowing room for interpretation.</desc>
  <rect width="256" height="256" fill="#FFFFFF" />
  <rect x="0" y="0" width="32" height="32" fill="#BF493A" />
  <rect x="32" y="0" width="32" height="32" fill="#3E2A31" />
  <rect x="64" y="0" width="32" height="32" fill="#EB6D2A" />
  <rect x="96" y="0" width="32" height="32" fill="#ED4224" />
  <rect x="128" y="0" width="32" height="32" fill="#240F0D" />
  <rect x="160" y="0" width="32" height="32" fill="#5E4B4E" />
  <rect x="192" y="0" width="32" height="32" fill="#F7B34D" />
  <rect x="224" y="0" width="32" height="32" fill="#000000" />
  <rect x="0" y="32" width="32" height="32" fill="#4D2413" />
  <rect x="32" y="32" width="32" height="32" fill="#1A1A1A" />
  <rect x="64" y="32" width="32" height="32" fill="#C47D15" />
  <rect x="96" y="32" width="32" height="32" fill="#B39160" />
  <rect x="128" y="32" width="32" height="32" fill="#3C2A30" />
  <rect x="160" y="32" width="32" height="32" fill="#F08033" />
  <rect x="192" y="32" width="32" height="32" fill="#C46D2E" />
  <rect x="224" y="32" width="32" height="32" fill="#7D0000" />
  <rect x="0" y="64" width="32" height="32" fill="#A86B38" />
  <rect x="32" y="64" width="32" height="32" fill="#E9A24D" />
  <rect x="64" y="64" width="32" height="32" fill="#592B2E" />
  <rect x="96" y="64" width="32" height="32" fill="#571823" />
  <rect x="128" y="64" width="32" height="32" fill="#310000" />
  <rect x="160" y="64" width="32" height="32" fill="#FB8A2E" />
  <rect x="192" y="64" width="32" height="32" fill="#844813" />
  <rect x="224" y="64" width="32" height="32" fill="#0C0C0C" />
  <rect x="0" y="96" width="32" height="32" fill="#9B563E" />
  <rect x="32" y="96" width="32" height="32" fill="#5D2F27" />
  <rect x="64" y="96" width="32" height="32" fill="#EDD19B" />
  <rect x="96" y="96" width="32" height="32" fill="#4E3044" />
  <rect x="128" y="96" width="32" height="32" fill="#EDD7B8" />
  <rect x="160" y="96" width="32" height="32" fill="#C8B7A6" />
  <rect x="192" y="96" width="32" height="32" fill="#FAE8B9" />
  <rect x="224" y="96" width="32" height="32" fill="#7F0000" />
  <rect x="0" y="128" width="32" height="32" fill="#E1B254" />
  <rect x="32" y="128" width="32" height="32" fill="#5A0D15" />
  <rect x="64" y="128" width="32" height="32" fill="#D7C2A7" />
  <rect x="96" y="128" width="32" height="32" fill="#4A3430" />
  <rect x="128" y="128" width="32" height="32" fill="#DFB2A1" />
  <rect x="160" y="128" width="32" height="32" fill="#573D37" />
  <rect x="192" y="128" width="32" height="32" fill="#BD1E23" />
  <rect x="224" y="128" width="32" height="32" fill="#000000" />
  <rect x="0" y="160" width="32" height="32" fill="#F4C55D" />
  <rect x="32" y="160" width="32" height="32" fill="#A8E1C5" />
  <rect x="64" y="160" width="32" height="32" fill="#7D2A26" />
  <rect x="96" y="160" width="32" height="32" fill="#3D0A0D" />
  <rect x="128" y="160" width="32" height="32" fill="#1A1A1A" />
  <rect x="160" y="160" width="32" height="32" fill="#BE7A4D" />
  <rect x="192" y="160" width="32" height="32" fill="#C5A371" />
  <rect x="224" y="160" width="32" height="32" fill="#440000" />
  <rect x="0" y="192" width="32" height="32" fill="#D18B5D" />
  <rect x="32" y="192" width="32" height="32" fill="#8F4C43" />
  <rect x="64" y="192" width="32" height="32" fill="#D1503B" />
  <rect x="96" y="192" width="32" height="32" fill="#C4B89A" />
  <rect x="128" y="192" width="32" height="32" fill="#69342A" />
  <rect x="160" y="192" width="32" height="32" fill="#8E2B1F" />
  <rect x="192" y="192" width="32" height="32" fill="#3A1212" />
  <rect x="224" y="192" width="32" height="32" fill="#121212" />
  <rect x="0" y="224" width="32" height="32" fill="#FFC300" />
  <rect x="32" y="224" width="32" height="32" fill="#B05340" />
  <rect x="64" y="224" width="32" height="32" fill="#C98B55" />
  <rect x="96" y="224" width="32" height="32" fill="#F8E8D4" />
  <rect x="128" y="224" width="32" height="32" fill="#1E1E1E" />
  <rect x="160" y="224" width="32" height="32" fill="#714840" />
  <rect x="192" y="224" width="32" height="32" fill="#3D2D26" />
  <rect x="224" y="224" width="32" height="32" fill="#000000" />
</svg>
