<svg xmlns="http://www.w3.org/2000/svg" width="256" height="256" viewBox="0 0 256 256" shape-rendering="crispEdges" role="img" aria-labelledby="title desc">
  <title id="title">Pressure and Release</title>
  <desc id="desc">This composition explores the emotional tension between quiet and pressure utilizing a palette that juxtaposes muted tones with sharper contrasts. The dark navy serves as a base, representing density, while the off-white and faint peach colors introduce areas of softness and space. The conflict occurs diagonally from the corner, where crowded pixels of compressed red meet the fading light of the softer colors. This layout resonates with the concept of a ringed halo surrounding a void, reflecting chaos settling into calm. The patterns derived from 'flame' and 'stairs' embody the ebb and flow between intensity and serenity, illustrating an emotional landscape of gradual release against sharp bursts of pressure.</desc>
  <rect width="256" height="256" fill="#FFFFFF" />
  <rect x="0" y="0" width="32" height="32" fill="#0D1B2A" />
  <rect x="32" y="0" width="32" height="32" fill="#3F404C" />
  <rect x="64" y="0" width="32" height="32" fill="#D9BF77" />
  <rect x="96" y="0" width="32" height="32" fill="#F4D35E" />
  <rect x="128" y="0" width="32" height="32" fill="#B6B3AB" />
  <rect x="160" y="0" width="32" height="32" fill="#E5E5E5" />
  <rect x="192" y="0" width="32" height="32" fill="#7D7CA7" />
  <rect x="224" y="0" width="32" height="32" fill="#1C1C2C" />
  <rect x="0" y="32" width="32" height="32" fill="#1B2631" />
  <rect x="32" y="32" width="32" height="32" fill="#0D1B2A" />
  <rect x="64" y="32" width="32" height="32" fill="#BFB3D3" />
  <rect x="96" y="32" width="32" height="32" fill="#F072A7" />
  <rect x="128" y="32" width="32" height="32" fill="#D9BF77" />
  <rect x="160" y="32" width="32" height="32" fill="#EAB8A1" />
  <rect x="192" y="32" width="32" height="32" fill="#5F4B8C" />
  <rect x="224" y="32" width="32" height="32" fill="#4ECDC4" />
  <rect x="0" y="64" width="32" height="32" fill="#1C1C2C" />
  <rect x="32" y="64" width="32" height="32" fill="#4ECDC4" />
  <rect x="64" y="64" width="32" height="32" fill="#5F4B8C" />
  <rect x="96" y="64" width="32" height="32" fill="#7D7CA7" />
  <rect x="128" y="64" width="32" height="32" fill="#E0E0E0" />
  <rect x="160" y="64" width="32" height="32" fill="#D9BF77" />
  <rect x="192" y="64" width="32" height="32" fill="#F4D35E" />
  <rect x="224" y="64" width="32" height="32" fill="#BFB3D3" />
  <rect x="0" y="96" width="32" height="32" fill="#3F404C" />
  <rect x="32" y="96" width="32" height="32" fill="#D2D3D8" />
  <rect x="64" y="96" width="32" height="32" fill="#B6B3AB" />
  <rect x="96" y="96" width="32" height="32" fill="#F072A7" />
  <rect x="128" y="96" width="32" height="32" fill="#3A607F" />
  <rect x="160" y="96" width="32" height="32" fill="#1B2631" />
  <rect x="192" y="96" width="32" height="32" fill="#0D1B2A" />
  <rect x="224" y="96" width="32" height="32" fill="#D9BF77" />
  <rect x="0" y="128" width="32" height="32" fill="#BFB3D3" />
  <rect x="32" y="128" width="32" height="32" fill="#1C1C2C" />
  <rect x="64" y="128" width="32" height="32" fill="#3A607F" />
  <rect x="96" y="128" width="32" height="32" fill="#1B2631" />
  <rect x="128" y="128" width="32" height="32" fill="#4ECDC4" />
  <rect x="160" y="128" width="32" height="32" fill="#D2D3D8" />
  <rect x="192" y="128" width="32" height="32" fill="#4ECDC4" />
  <rect x="224" y="128" width="32" height="32" fill="#F4D35E" />
  <rect x="0" y="160" width="32" height="32" fill="#F072A7" />
  <rect x="32" y="160" width="32" height="32" fill="#D9BF77" />
  <rect x="64" y="160" width="32" height="32" fill="#7D7CA7" />
  <rect x="96" y="160" width="32" height="32" fill="#B6B3AB" />
  <rect x="128" y="160" width="32" height="32" fill="#BFB3D3" />
  <rect x="160" y="160" width="32" height="32" fill="#1C1C2C" />
  <rect x="192" y="160" width="32" height="32" fill="#0D1B2A" />
  <rect x="224" y="160" width="32" height="32" fill="#3F404C" />
  <rect x="0" y="192" width="32" height="32" fill="#5F4B8C" />
  <rect x="32" y="192" width="32" height="32" fill="#4ECDC4" />
  <rect x="64" y="192" width="32" height="32" fill="#BFB3D3" />
  <rect x="96" y="192" width="32" height="32" fill="#3A607F" />
  <rect x="128" y="192" width="32" height="32" fill="#F072A7" />
  <rect x="160" y="192" width="32" height="32" fill="#D2D3D8" />
  <rect x="192" y="192" width="32" height="32" fill="#EAB8A1" />
  <rect x="224" y="192" width="32" height="32" fill="#7D7CA7" />
  <rect x="0" y="224" width="32" height="32" fill="#4ECDC4" />
  <rect x="32" y="224" width="32" height="32" fill="#7D7CA7" />
  <rect x="64" y="224" width="32" height="32" fill="#1B2631" />
  <rect x="96" y="224" width="32" height="32" fill="#D9BF77" />
  <rect x="128" y="224" width="32" height="32" fill="#D2D3D8" />
  <rect x="160" y="224" width="32" height="32" fill="#0D1B2A" />
  <rect x="192" y="224" width="32" height="32" fill="#B6B3AB" />
  <rect x="224" y="224" width="32" height="32" fill="#1C1C2C" />
</svg>
