<svg xmlns="http://www.w3.org/2000/svg" width="256" height="256" viewBox="0 0 256 256" shape-rendering="crispEdges" role="img" aria-labelledby="title desc">
  <title id="title">Tension and Release</title>
  <desc id="desc">The emotional tone captures the dance between certainty and curiosity: the upper half is dense with structured dots in moss green (#4A7C2E) and bone white (#E5D6C2), conveying a sense of ordered clarity. The bottom half introduces a grappling grid of rust (#9A5B42) and stone gray (#7C7B7A) that disrupts the calm. This collision highlights the tension of curiosity fighting against rigid boundaries. The palette implies resilience (greens) meshed with hints of fragility (grays and rusts) creating rhythm and flow, disrupted by intentional broken pixels, evoking a sense of unease and exploration. The layout fosters a visual journey from a controlled top to chaotic lower, with a quiet space accentuating the interactions.</desc>
  <rect width="256" height="256" fill="#FFFFFF" />
  <rect x="0" y="0" width="32" height="32" fill="#4A7C2E" />
  <rect x="32" y="0" width="32" height="32" fill="#4A7C2E" />
  <rect x="64" y="0" width="32" height="32" fill="#4A7C2E" />
  <rect x="96" y="0" width="32" height="32" fill="#E5D6C2" />
  <rect x="128" y="0" width="32" height="32" fill="#4A7C2E" />
  <rect x="160" y="0" width="32" height="32" fill="#4A7C2E" />
  <rect x="192" y="0" width="32" height="32" fill="#E5D6C2" />
  <rect x="224" y="0" width="32" height="32" fill="#4A7C2E" />
  <rect x="0" y="32" width="32" height="32" fill="#4A7C2E" />
  <rect x="32" y="32" width="32" height="32" fill="#E5D6C2" />
  <rect x="64" y="32" width="32" height="32" fill="#E5D6C2" />
  <rect x="96" y="32" width="32" height="32" fill="#E5D6C2" />
  <rect x="128" y="32" width="32" height="32" fill="#4A7C2E" />
  <rect x="160" y="32" width="32" height="32" fill="#4A7C2E" />
  <rect x="192" y="32" width="32" height="32" fill="#E5D6C2" />
  <rect x="224" y="32" width="32" height="32" fill="#4A7C2E" />
  <rect x="0" y="64" width="32" height="32" fill="#4A7C2E" />
  <rect x="32" y="64" width="32" height="32" fill="#E5D6C2" />
  <rect x="64" y="64" width="32" height="32" fill="#E5D6C2" />
  <rect x="96" y="64" width="32" height="32" fill="#4A7C2E" />
  <rect x="128" y="64" width="32" height="32" fill="#4A7C2E" />
  <rect x="160" y="64" width="32" height="32" fill="#4A7C2E" />
  <rect x="192" y="64" width="32" height="32" fill="#E5D6C2" />
  <rect x="224" y="64" width="32" height="32" fill="#4A7C2E" />
  <rect x="0" y="96" width="32" height="32" fill="#4A7C2E" />
  <rect x="32" y="96" width="32" height="32" fill="#E5D6C2" />
  <rect x="64" y="96" width="32" height="32" fill="#4A7C2E" />
  <rect x="96" y="96" width="32" height="32" fill="#4A7C2E" />
  <rect x="128" y="96" width="32" height="32" fill="#E5D6C2" />
  <rect x="160" y="96" width="32" height="32" fill="#E5D6C2" />
  <rect x="192" y="96" width="32" height="32" fill="#4A7C2E" />
  <rect x="224" y="96" width="32" height="32" fill="#4A7C2E" />
  <rect x="0" y="128" width="32" height="32" fill="#9A5B42" />
  <rect x="32" y="128" width="32" height="32" fill="#9A5B42" />
  <rect x="64" y="128" width="32" height="32" fill="#7C7B7A" />
  <rect x="96" y="128" width="32" height="32" fill="#9A5B42" />
  <rect x="128" y="128" width="32" height="32" fill="#7C7B7A" />
  <rect x="160" y="128" width="32" height="32" fill="#7C7B7A" />
  <rect x="192" y="128" width="32" height="32" fill="#9A5B42" />
  <rect x="224" y="128" width="32" height="32" fill="#7C7B7A" />
  <rect x="0" y="160" width="32" height="32" fill="#7C7B7A" />
  <rect x="32" y="160" width="32" height="32" fill="#7C7B7A" />
  <rect x="64" y="160" width="32" height="32" fill="#9A5B42" />
  <rect x="96" y="160" width="32" height="32" fill="#9A5B42" />
  <rect x="128" y="160" width="32" height="32" fill="#9A5B42" />
  <rect x="160" y="160" width="32" height="32" fill="#7C7B7A" />
  <rect x="192" y="160" width="32" height="32" fill="#7C7B7A" />
  <rect x="224" y="160" width="32" height="32" fill="#7C7B7A" />
  <rect x="0" y="192" width="32" height="32" fill="#9A5B42" />
  <rect x="32" y="192" width="32" height="32" fill="#9A5B42" />
  <rect x="64" y="192" width="32" height="32" fill="#7C7B7A" />
  <rect x="96" y="192" width="32" height="32" fill="#7C7B7A" />
  <rect x="128" y="192" width="32" height="32" fill="#9A5B42" />
  <rect x="160" y="192" width="32" height="32" fill="#9A5B42" />
  <rect x="192" y="192" width="32" height="32" fill="#9A5B42" />
  <rect x="224" y="192" width="32" height="32" fill="#7C7B7A" />
  <rect x="0" y="224" width="32" height="32" fill="#9A5B42" />
  <rect x="32" y="224" width="32" height="32" fill="#9A5B42" />
  <rect x="64" y="224" width="32" height="32" fill="#7C7B7A" />
  <rect x="96" y="224" width="32" height="32" fill="#7C7B7A" />
  <rect x="128" y="224" width="32" height="32" fill="#9A5B42" />
  <rect x="160" y="224" width="32" height="32" fill="#9A5B42" />
  <rect x="192" y="224" width="32" height="32" fill="#9A5B42" />
  <rect x="224" y="224" width="32" height="32" fill="#9A5B42" />
</svg>
