<svg xmlns="http://www.w3.org/2000/svg" width="256" height="256" viewBox="0 0 256 256" shape-rendering="crispEdges" role="img" aria-labelledby="title desc">
  <title id="title">Tensions of the Unsaid</title>
  <desc id="desc">The emotional tone emerges from collisions of warm and cool colors, creating a sense of dynamic tension. The palette features deep blues and vivid yellows that contrast sharply, suggesting both pressure and release. The arrangement of darker shades in the corners represents quiet spaces, while brighter hues in the center form clusters echoing rhythm and chaos. The interruptions of color create a sense of unresolved motion, embodying a journey through contrasting emotional landscapes.</desc>
  <rect width="256" height="256" fill="#FFFFFF" />
  <rect x="0" y="0" width="32" height="32" fill="#001F3F" />
  <rect x="32" y="0" width="32" height="32" fill="#0074D9" />
  <rect x="64" y="0" width="32" height="32" fill="#39CCCC" />
  <rect x="96" y="0" width="32" height="32" fill="#2ECC40" />
  <rect x="128" y="0" width="32" height="32" fill="#FFDC00" />
  <rect x="160" y="0" width="32" height="32" fill="#FF851B" />
  <rect x="192" y="0" width="32" height="32" fill="#FF4136" />
  <rect x="224" y="0" width="32" height="32" fill="#85144B" />
  <rect x="0" y="32" width="32" height="32" fill="#3D9970" />
  <rect x="32" y="32" width="32" height="32" fill="#FF4136" />
  <rect x="64" y="32" width="32" height="32" fill="#FF851B" />
  <rect x="96" y="32" width="32" height="32" fill="#FFDC00" />
  <rect x="128" y="32" width="32" height="32" fill="#FF851B" />
  <rect x="160" y="32" width="32" height="32" fill="#3D9970" />
  <rect x="192" y="32" width="32" height="32" fill="#2ECC40" />
  <rect x="224" y="32" width="32" height="32" fill="#0074D9" />
  <rect x="0" y="64" width="32" height="32" fill="#2ECC40" />
  <rect x="32" y="64" width="32" height="32" fill="#39CCCC" />
  <rect x="64" y="64" width="32" height="32" fill="#0074D9" />
  <rect x="96" y="64" width="32" height="32" fill="#001F3F" />
  <rect x="128" y="64" width="32" height="32" fill="#85144B" />
  <rect x="160" y="64" width="32" height="32" fill="#FFDC00" />
  <rect x="192" y="64" width="32" height="32" fill="#FF4136" />
  <rect x="224" y="64" width="32" height="32" fill="#FF851B" />
  <rect x="0" y="96" width="32" height="32" fill="#111111" />
  <rect x="32" y="96" width="32" height="32" fill="#222222" />
  <rect x="64" y="96" width="32" height="32" fill="#333333" />
  <rect x="96" y="96" width="32" height="32" fill="#444444" />
  <rect x="128" y="96" width="32" height="32" fill="#555555" />
  <rect x="160" y="96" width="32" height="32" fill="#666666" />
  <rect x="192" y="96" width="32" height="32" fill="#777777" />
  <rect x="224" y="96" width="32" height="32" fill="#888888" />
  <rect x="0" y="128" width="32" height="32" fill="#AAAAAA" />
  <rect x="32" y="128" width="32" height="32" fill="#BBBBBB" />
  <rect x="64" y="128" width="32" height="32" fill="#CCCCCC" />
  <rect x="96" y="128" width="32" height="32" fill="#DDDDDD" />
  <rect x="128" y="128" width="32" height="32" fill="#EEEEEE" />
  <rect x="160" y="128" width="32" height="32" fill="#FFFFFF" />
  <rect x="192" y="128" width="32" height="32" fill="#FF851B" />
  <rect x="224" y="128" width="32" height="32" fill="#FF4136" />
  <rect x="0" y="160" width="32" height="32" fill="#001F3F" />
  <rect x="32" y="160" width="32" height="32" fill="#0074D9" />
  <rect x="64" y="160" width="32" height="32" fill="#39CCCC" />
  <rect x="96" y="160" width="32" height="32" fill="#2ECC40" />
  <rect x="128" y="160" width="32" height="32" fill="#FFDC00" />
  <rect x="160" y="160" width="32" height="32" fill="#FF851B" />
  <rect x="192" y="160" width="32" height="32" fill="#FF4136" />
  <rect x="224" y="160" width="32" height="32" fill="#85144B" />
  <rect x="0" y="192" width="32" height="32" fill="#3D9970" />
  <rect x="32" y="192" width="32" height="32" fill="#FF4136" />
  <rect x="64" y="192" width="32" height="32" fill="#FF851B" />
  <rect x="96" y="192" width="32" height="32" fill="#FFDC00" />
  <rect x="128" y="192" width="32" height="32" fill="#FF851B" />
  <rect x="160" y="192" width="32" height="32" fill="#3D9970" />
  <rect x="192" y="192" width="32" height="32" fill="#2ECC40" />
  <rect x="224" y="192" width="32" height="32" fill="#0074D9" />
  <rect x="0" y="224" width="32" height="32" fill="#2ECC40" />
  <rect x="32" y="224" width="32" height="32" fill="#39CCCC" />
  <rect x="64" y="224" width="32" height="32" fill="#0074D9" />
  <rect x="96" y="224" width="32" height="32" fill="#001F3F" />
  <rect x="128" y="224" width="32" height="32" fill="#85144B" />
  <rect x="160" y="224" width="32" height="32" fill="#FFDC00" />
  <rect x="192" y="224" width="32" height="32" fill="#FF4136" />
  <rect x="224" y="224" width="32" height="32" fill="#FF851B" />
</svg>
