<svg xmlns="http://www.w3.org/2000/svg" width="256" height="256" viewBox="0 0 256 256" shape-rendering="crispEdges" role="img" aria-labelledby="title desc">
  <title id="title">Fractured Affection</title>
  <desc id="desc">The emotional tone embodies the tension between love and betrayal, with a warm palette of pink and red contrasting against the cooler grays. The outer frame mirrors aspects of love, softened with the warmth of pink, while the inner core invokes feelings of betrayal through checkered patterns of dark maroon and gray. The collision occurs where these emotions intersect, creating dissonance in their arrangement. The subtle imperfections represent the 'burned edges' of betrayal within the structure of love, leading to a fragmented yet cohesive pattern that captures the essence of the seed.</desc>
  <rect width="256" height="256" fill="#FFFFFF" />
  <rect x="0" y="0" width="32" height="32" fill="#FFB6C1" />
  <rect x="32" y="0" width="32" height="32" fill="#FF69B4" />
  <rect x="64" y="0" width="32" height="32" fill="#FF1493" />
  <rect x="96" y="0" width="32" height="32" fill="#FFC0CB" />
  <rect x="128" y="0" width="32" height="32" fill="#800000" />
  <rect x="160" y="0" width="32" height="32" fill="#A52A2A" />
  <rect x="192" y="0" width="32" height="32" fill="#D3D3D3" />
  <rect x="224" y="0" width="32" height="32" fill="#B22222" />
  <rect x="0" y="32" width="32" height="32" fill="#DCDCDC" />
  <rect x="32" y="32" width="32" height="32" fill="#F5F5F5" />
  <rect x="64" y="32" width="32" height="32" fill="#B22222" />
  <rect x="96" y="32" width="32" height="32" fill="#800000" />
  <rect x="128" y="32" width="32" height="32" fill="#B0C4DE" />
  <rect x="160" y="32" width="32" height="32" fill="#D3D3D3" />
  <rect x="192" y="32" width="32" height="32" fill="#C0C0C0" />
  <rect x="224" y="32" width="32" height="32" fill="#A52A2A" />
  <rect x="0" y="64" width="32" height="32" fill="#C0C0C0" />
  <rect x="32" y="64" width="32" height="32" fill="#FFC0CB" />
  <rect x="64" y="64" width="32" height="32" fill="#B22222" />
  <rect x="96" y="64" width="32" height="32" fill="#FF00FF" />
  <rect x="128" y="64" width="32" height="32" fill="#DCDCDC" />
  <rect x="160" y="64" width="32" height="32" fill="#C0C0C0" />
  <rect x="192" y="64" width="32" height="32" fill="#B0E0E6" />
  <rect x="224" y="64" width="32" height="32" fill="#FF69B4" />
  <rect x="0" y="96" width="32" height="32" fill="#A52A2A" />
  <rect x="32" y="96" width="32" height="32" fill="#FF1493" />
  <rect x="64" y="96" width="32" height="32" fill="#FFB6C1" />
  <rect x="96" y="96" width="32" height="32" fill="#800000" />
  <rect x="128" y="96" width="32" height="32" fill="#FF69B4" />
  <rect x="160" y="96" width="32" height="32" fill="#D3D3D3" />
  <rect x="192" y="96" width="32" height="32" fill="#B22222" />
  <rect x="224" y="96" width="32" height="32" fill="#C0C0C0" />
  <rect x="0" y="128" width="32" height="32" fill="#D3D3D3" />
  <rect x="32" y="128" width="32" height="32" fill="#B22222" />
  <rect x="64" y="128" width="32" height="32" fill="#A52A2A" />
  <rect x="96" y="128" width="32" height="32" fill="#F5F5F5" />
  <rect x="128" y="128" width="32" height="32" fill="#DCDCDC" />
  <rect x="160" y="128" width="32" height="32" fill="#FFC0CB" />
  <rect x="192" y="128" width="32" height="32" fill="#DCDCDC" />
  <rect x="224" y="128" width="32" height="32" fill="#FFB6C1" />
  <rect x="0" y="160" width="32" height="32" fill="#FF00FF" />
  <rect x="32" y="160" width="32" height="32" fill="#DCDCDC" />
  <rect x="64" y="160" width="32" height="32" fill="#800000" />
  <rect x="96" y="160" width="32" height="32" fill="#FF69B4" />
  <rect x="128" y="160" width="32" height="32" fill="#FF1493" />
  <rect x="160" y="160" width="32" height="32" fill="#C0C0C0" />
  <rect x="192" y="160" width="32" height="32" fill="#A52A2A" />
  <rect x="224" y="160" width="32" height="32" fill="#F5F5F5" />
  <rect x="0" y="192" width="32" height="32" fill="#FF69B4" />
  <rect x="32" y="192" width="32" height="32" fill="#B0E0E6" />
  <rect x="64" y="192" width="32" height="32" fill="#F5F5F5" />
  <rect x="96" y="192" width="32" height="32" fill="#DCDCDC" />
  <rect x="128" y="192" width="32" height="32" fill="#B22222" />
  <rect x="160" y="192" width="32" height="32" fill="#C0C0C0" />
  <rect x="192" y="192" width="32" height="32" fill="#FF1493" />
  <rect x="224" y="192" width="32" height="32" fill="#B0C4DE" />
  <rect x="0" y="224" width="32" height="32" fill="#A52A2A" />
  <rect x="32" y="224" width="32" height="32" fill="#D3D3D3" />
  <rect x="64" y="224" width="32" height="32" fill="#FFB6C1" />
  <rect x="96" y="224" width="32" height="32" fill="#800000" />
  <rect x="128" y="224" width="32" height="32" fill="#B22222" />
  <rect x="160" y="224" width="32" height="32" fill="#FF00FF" />
  <rect x="192" y="224" width="32" height="32" fill="#D3D3D3" />
  <rect x="224" y="224" width="32" height="32" fill="#C0C0C0" />
</svg>
