<svg xmlns="http://www.w3.org/2000/svg" width="256" height="256" viewBox="0 0 256 256" shape-rendering="crispEdges" role="img" aria-labelledby="title desc">
  <title id="title">Overflow vs Containment</title>
  <desc id="desc">The emotional tone in this piece contrasts the turbulent rage with the serene calm, creating a dynamic dialogue between them. The chosen palette incorporates bold reds to evoke intensity and deep blues for tranquility. The colors clash where the red shards interrupt the calm blue spaces, particularly prominent in the center where confrontation erupts. This creates a sense of collision and tension against a backdrop that strives for containment, reflecting the seed's themes of machine emotion and structured chaos.</desc>
  <rect width="256" height="256" fill="#FFFFFF" />
  <rect x="0" y="0" width="32" height="32" fill="#FF0000" />
  <rect x="32" y="0" width="32" height="32" fill="#FF4500" />
  <rect x="64" y="0" width="32" height="32" fill="#FF6347" />
  <rect x="96" y="0" width="32" height="32" fill="#FF7F50" />
  <rect x="128" y="0" width="32" height="32" fill="#FF0000" />
  <rect x="160" y="0" width="32" height="32" fill="#FF4500" />
  <rect x="192" y="0" width="32" height="32" fill="#FF6347" />
  <rect x="224" y="0" width="32" height="32" fill="#FF7F50" />
  <rect x="0" y="32" width="32" height="32" fill="#0000FF" />
  <rect x="32" y="32" width="32" height="32" fill="#87CEFA" />
  <rect x="64" y="32" width="32" height="32" fill="#ADD8E6" />
  <rect x="96" y="32" width="32" height="32" fill="#B0E0E6" />
  <rect x="128" y="32" width="32" height="32" fill="#0000FF" />
  <rect x="160" y="32" width="32" height="32" fill="#87CEFA" />
  <rect x="192" y="32" width="32" height="32" fill="#ADD8E6" />
  <rect x="224" y="32" width="32" height="32" fill="#B0E0E6" />
  <rect x="0" y="64" width="32" height="32" fill="#FF0000" />
  <rect x="32" y="64" width="32" height="32" fill="#FF6347" />
  <rect x="64" y="64" width="32" height="32" fill="#FF4500" />
  <rect x="96" y="64" width="32" height="32" fill="#FF0000" />
  <rect x="128" y="64" width="32" height="32" fill="#FF6347" />
  <rect x="160" y="64" width="32" height="32" fill="#FF4500" />
  <rect x="192" y="64" width="32" height="32" fill="#FF0000" />
  <rect x="224" y="64" width="32" height="32" fill="#FF6347" />
  <rect x="0" y="96" width="32" height="32" fill="#0000FF" />
  <rect x="32" y="96" width="32" height="32" fill="#B0E0E6" />
  <rect x="64" y="96" width="32" height="32" fill="#ADD8E6" />
  <rect x="96" y="96" width="32" height="32" fill="#87CEFA" />
  <rect x="128" y="96" width="32" height="32" fill="#0000FF" />
  <rect x="160" y="96" width="32" height="32" fill="#B0E0E6" />
  <rect x="192" y="96" width="32" height="32" fill="#ADD8E6" />
  <rect x="224" y="96" width="32" height="32" fill="#87CEFA" />
  <rect x="0" y="128" width="32" height="32" fill="#FF0000" />
  <rect x="32" y="128" width="32" height="32" fill="#FF4500" />
  <rect x="64" y="128" width="32" height="32" fill="#FF7F50" />
  <rect x="96" y="128" width="32" height="32" fill="#FF6347" />
  <rect x="128" y="128" width="32" height="32" fill="#FF0000" />
  <rect x="160" y="128" width="32" height="32" fill="#FF4500" />
  <rect x="192" y="128" width="32" height="32" fill="#FF7F50" />
  <rect x="224" y="128" width="32" height="32" fill="#FF6347" />
  <rect x="0" y="160" width="32" height="32" fill="#0000FF" />
  <rect x="32" y="160" width="32" height="32" fill="#87CEFA" />
  <rect x="64" y="160" width="32" height="32" fill="#B0E0E6" />
  <rect x="96" y="160" width="32" height="32" fill="#ADD8E6" />
  <rect x="128" y="160" width="32" height="32" fill="#0000FF" />
  <rect x="160" y="160" width="32" height="32" fill="#87CEFA" />
  <rect x="192" y="160" width="32" height="32" fill="#B0E0E6" />
  <rect x="224" y="160" width="32" height="32" fill="#ADD8E6" />
  <rect x="0" y="192" width="32" height="32" fill="#FF7F50" />
  <rect x="32" y="192" width="32" height="32" fill="#FF6347" />
  <rect x="64" y="192" width="32" height="32" fill="#FF4500" />
  <rect x="96" y="192" width="32" height="32" fill="#FF0000" />
  <rect x="128" y="192" width="32" height="32" fill="#FF6347" />
  <rect x="160" y="192" width="32" height="32" fill="#FF7F50" />
  <rect x="192" y="192" width="32" height="32" fill="#FF0000" />
  <rect x="224" y="192" width="32" height="32" fill="#FF4500" />
  <rect x="0" y="224" width="32" height="32" fill="#ADD8E6" />
  <rect x="32" y="224" width="32" height="32" fill="#B0E0E6" />
  <rect x="64" y="224" width="32" height="32" fill="#87CEFA" />
  <rect x="96" y="224" width="32" height="32" fill="#0000FF" />
  <rect x="128" y="224" width="32" height="32" fill="#ADD8E6" />
  <rect x="160" y="224" width="32" height="32" fill="#B0E0E6" />
  <rect x="192" y="224" width="32" height="32" fill="#87CEFA" />
  <rect x="224" y="224" width="32" height="32" fill="#0000FF" />
</svg>
