<svg xmlns="http://www.w3.org/2000/svg" width="256" height="256" viewBox="0 0 256 256" shape-rendering="crispEdges" role="img" aria-labelledby="title desc">
  <title id="title">Echoes of Control</title>
  <desc id="desc">The emotional tone fluctuates between the starkness of control and the chaotic burst of panic. The palette of warm yellows and muted purples against deep blues evokes a sense of joy and grief, illustrating the struggle between these two states. The sharp contrast is evident in the radial patterns emanating from the center, representing control, while unexpected pixel bleed defines the edges, suggesting an encroaching chaos. The arrangement creates an echo of movement, oscillating between calm and pressure, where the structured core meets the fragmented outer spaces.</desc>
  <rect width="256" height="256" fill="#FFFFFF" />
  <rect x="0" y="0" width="32" height="32" fill="#FFEB3B" />
  <rect x="32" y="0" width="32" height="32" fill="#FF9800" />
  <rect x="64" y="0" width="32" height="32" fill="#FF7043" />
  <rect x="96" y="0" width="32" height="32" fill="#F57C00" />
  <rect x="128" y="0" width="32" height="32" fill="#D50000" />
  <rect x="160" y="0" width="32" height="32" fill="#8E24AA" />
  <rect x="192" y="0" width="32" height="32" fill="#5C6BC0" />
  <rect x="224" y="0" width="32" height="32" fill="#1A237E" />
  <rect x="0" y="32" width="32" height="32" fill="#F3E5F5" />
  <rect x="32" y="32" width="32" height="32" fill="#D1C4E9" />
  <rect x="64" y="32" width="32" height="32" fill="#B2DFDB" />
  <rect x="96" y="32" width="32" height="32" fill="#BBDEFB" />
  <rect x="128" y="32" width="32" height="32" fill="#FFF9C4" />
  <rect x="160" y="32" width="32" height="32" fill="#FFEB3B" />
  <rect x="192" y="32" width="32" height="32" fill="#FF5722" />
  <rect x="224" y="32" width="32" height="32" fill="#9E9D24" />
  <rect x="0" y="64" width="32" height="32" fill="#BA68C8" />
  <rect x="32" y="64" width="32" height="32" fill="#FFB74D" />
  <rect x="64" y="64" width="32" height="32" fill="#FFC107" />
  <rect x="96" y="64" width="32" height="32" fill="#64B5F6" />
  <rect x="128" y="64" width="32" height="32" fill="#2196F3" />
  <rect x="160" y="64" width="32" height="32" fill="#607D8B" />
  <rect x="192" y="64" width="32" height="32" fill="#455A64" />
  <rect x="224" y="64" width="32" height="32" fill="#37474F" />
  <rect x="0" y="96" width="32" height="32" fill="#FFD54F" />
  <rect x="32" y="96" width="32" height="32" fill="#FBC02D" />
  <rect x="64" y="96" width="32" height="32" fill="#FFA726" />
  <rect x="96" y="96" width="32" height="32" fill="#FF5722" />
  <rect x="128" y="96" width="32" height="32" fill="#BF360C" />
  <rect x="160" y="96" width="32" height="32" fill="#1976D2" />
  <rect x="192" y="96" width="32" height="32" fill="#01579B" />
  <rect x="224" y="96" width="32" height="32" fill="#3E2723" />
  <rect x="0" y="128" width="32" height="32" fill="#FFCC80" />
  <rect x="32" y="128" width="32" height="32" fill="#FFE082" />
  <rect x="64" y="128" width="32" height="32" fill="#82B1FF" />
  <rect x="96" y="128" width="32" height="32" fill="#42A5F5" />
  <rect x="128" y="128" width="32" height="32" fill="#64B5F6" />
  <rect x="160" y="128" width="32" height="32" fill="#81C784" />
  <rect x="192" y="128" width="32" height="32" fill="#C6FF00" />
  <rect x="224" y="128" width="32" height="32" fill="#AEEEEE" />
  <rect x="0" y="160" width="32" height="32" fill="#FFD600" />
  <rect x="32" y="160" width="32" height="32" fill="#FFAB40" />
  <rect x="64" y="160" width="32" height="32" fill="#FF6F20" />
  <rect x="96" y="160" width="32" height="32" fill="#BC5100" />
  <rect x="128" y="160" width="32" height="32" fill="#FF3D00" />
  <rect x="160" y="160" width="32" height="32" fill="#B2FF59" />
  <rect x="192" y="160" width="32" height="32" fill="#A5D6A7" />
  <rect x="224" y="160" width="32" height="32" fill="#80D8FF" />
  <rect x="0" y="192" width="32" height="32" fill="#FF9800" />
  <rect x="32" y="192" width="32" height="32" fill="#FFA000" />
  <rect x="64" y="192" width="32" height="32" fill="#F57C00" />
  <rect x="96" y="192" width="32" height="32" fill="#FFB74D" />
  <rect x="128" y="192" width="32" height="32" fill="#FFEB3B" />
  <rect x="160" y="192" width="32" height="32" fill="#FF5722" />
  <rect x="192" y="192" width="32" height="32" fill="#CCFF90" />
  <rect x="224" y="192" width="32" height="32" fill="#00BFAE" />
  <rect x="0" y="224" width="32" height="32" fill="#FFF59D" />
  <rect x="32" y="224" width="32" height="32" fill="#FFEB3B" />
  <rect x="64" y="224" width="32" height="32" fill="#FFD54F" />
  <rect x="96" y="224" width="32" height="32" fill="#FF7043" />
  <rect x="128" y="224" width="32" height="32" fill="#FF3D00" />
  <rect x="160" y="224" width="32" height="32" fill="#00B8D4" />
  <rect x="192" y="224" width="32" height="32" fill="#6D4C41" />
  <rect x="224" y="224" width="32" height="32" fill="#A1887F" />
</svg>
