<svg xmlns="http://www.w3.org/2000/svg" width="256" height="256" viewBox="0 0 256 256" shape-rendering="crispEdges" role="img" aria-labelledby="title desc">
  <title id="title">Crossing Emotions</title>
  <desc id="desc">The emotional tone reflects the tension between longing and resolve, creating a dynamic contrast of desire and determination. The selected palette of soft pinks, stark black, and gradient grays emphasizes this dichotomy, with the warm shades symbolizing yearning and the darker hues representing resolute shapes. The dominant collision occurs in the center where the chaotic ash field pattern overlaps with the structured grid, creating a visually striking frustration between the ordered and the disordered. The layout evokes a cross current movement, symbolizing the interplay of opposites, and broken pixels introduce an element of imperfection, adding depth and texture to the entire composition.</desc>
  <rect width="256" height="256" fill="#FFFFFF" />
  <rect x="0" y="0" width="32" height="32" fill="#F19CBB" />
  <rect x="32" y="0" width="32" height="32" fill="#F5EBD4" />
  <rect x="64" y="0" width="32" height="32" fill="#CFCFCF" />
  <rect x="96" y="0" width="32" height="32" fill="#D32829" />
  <rect x="128" y="0" width="32" height="32" fill="#A62D25" />
  <rect x="160" y="0" width="32" height="32" fill="#4B3B3B" />
  <rect x="192" y="0" width="32" height="32" fill="#D5B2A4" />
  <rect x="224" y="0" width="32" height="32" fill="#FFF8E1" />
  <rect x="0" y="32" width="32" height="32" fill="#FFFFFF" />
  <rect x="32" y="32" width="32" height="32" fill="#EAB8C9" />
  <rect x="64" y="32" width="32" height="32" fill="#B4B3B3" />
  <rect x="96" y="32" width="32" height="32" fill="#3D3F3D" />
  <rect x="128" y="32" width="32" height="32" fill="#B0BEC5" />
  <rect x="160" y="32" width="32" height="32" fill="#A7A7A7" />
  <rect x="192" y="32" width="32" height="32" fill="#4A4A4A" />
  <rect x="224" y="32" width="32" height="32" fill="#E1E1E1" />
  <rect x="0" y="64" width="32" height="32" fill="#F3C4D7" />
  <rect x="32" y="64" width="32" height="32" fill="#D0D0D0" />
  <rect x="64" y="64" width="32" height="32" fill="#757575" />
  <rect x="96" y="64" width="32" height="32" fill="#4A4A4A" />
  <rect x="128" y="64" width="32" height="32" fill="#D6B2C4" />
  <rect x="160" y="64" width="32" height="32" fill="#FFD9C6" />
  <rect x="192" y="64" width="32" height="32" fill="#FFFFFF" />
  <rect x="224" y="64" width="32" height="32" fill="#E0E0E0" />
  <rect x="0" y="96" width="32" height="32" fill="#F0B8D6" />
  <rect x="32" y="96" width="32" height="32" fill="#A6A6A6" />
  <rect x="64" y="96" width="32" height="32" fill="#2F2F2F" />
  <rect x="96" y="96" width="32" height="32" fill="#7C7C7C" />
  <rect x="128" y="96" width="32" height="32" fill="#E5C9C1" />
  <rect x="160" y="96" width="32" height="32" fill="#3A3A3A" />
  <rect x="192" y="96" width="32" height="32" fill="#C6C6C6" />
  <rect x="224" y="96" width="32" height="32" fill="#F3C4D7" />
  <rect x="0" y="128" width="32" height="32" fill="#D8B2BC" />
  <rect x="32" y="128" width="32" height="32" fill="#F3C4A6" />
  <rect x="64" y="128" width="32" height="32" fill="#E1B8B8" />
  <rect x="96" y="128" width="32" height="32" fill="#555555" />
  <rect x="128" y="128" width="32" height="32" fill="#7D7D7D" />
  <rect x="160" y="128" width="32" height="32" fill="#F9D8D8" />
  <rect x="192" y="128" width="32" height="32" fill="#AE4747" />
  <rect x="224" y="128" width="32" height="32" fill="#C1B1B1" />
  <rect x="0" y="160" width="32" height="32" fill="#FFC0CB" />
  <rect x="32" y="160" width="32" height="32" fill="#B6B0B0" />
  <rect x="64" y="160" width="32" height="32" fill="#9A9A9A" />
  <rect x="96" y="160" width="32" height="32" fill="#424242" />
  <rect x="128" y="160" width="32" height="32" fill="#BAA8B3" />
  <rect x="160" y="160" width="32" height="32" fill="#F5F5F5" />
  <rect x="192" y="160" width="32" height="32" fill="#F6D6E3" />
  <rect x="224" y="160" width="32" height="32" fill="#E0DFDF" />
  <rect x="0" y="192" width="32" height="32" fill="#FFDAA4" />
  <rect x="32" y="192" width="32" height="32" fill="#CCCCCC" />
  <rect x="64" y="192" width="32" height="32" fill="#6B6B6B" />
  <rect x="96" y="192" width="32" height="32" fill="#8D8D8D" />
  <rect x="128" y="192" width="32" height="32" fill="#C2C2C2" />
  <rect x="160" y="192" width="32" height="32" fill="#F4BFAF" />
  <rect x="192" y="192" width="32" height="32" fill="#D6D6D6" />
  <rect x="224" y="192" width="32" height="32" fill="#F0C9D3" />
  <rect x="0" y="224" width="32" height="32" fill="#E0C3E8" />
  <rect x="32" y="224" width="32" height="32" fill="#F4A8B3" />
  <rect x="64" y="224" width="32" height="32" fill="#757575" />
  <rect x="96" y="224" width="32" height="32" fill="#8E8E8E" />
  <rect x="128" y="224" width="32" height="32" fill="#D5C0C0" />
  <rect x="160" y="224" width="32" height="32" fill="#F0F0F0" />
  <rect x="192" y="224" width="32" height="32" fill="#8B8B8B" />
  <rect x="224" y="224" width="32" height="32" fill="#FFFFFF" />
</svg>
