<svg xmlns="http://www.w3.org/2000/svg" width="256" height="256" viewBox="0 0 256 256" shape-rendering="crispEdges" role="img" aria-labelledby="title desc">
  <title id="title">Contrast of Harmony</title>
  <desc id="desc">This composition captures a dynamic emotional tension between envy and gratitude. The color palette, 'ancient_fire', presents a mix of burnt orange and dark red, symbolizing the heaviness of envy against the brightness of gratitude. The layout mimics reflection but intentionally diverges in certain areas to represent the imperfect balance of these feelings. The palette creates high contrast between rich darks and warm, inviting lights, with central pixels emphasizing the emotional tug-of-war. The use of broken pixels introduces a level of imperfection, echoing the natural chaos between these contrasting emotions.</desc>
  <rect width="256" height="256" fill="#FFFFFF" />
  <rect x="0" y="0" width="32" height="32" fill="#C65D3A" />
  <rect x="32" y="0" width="32" height="32" fill="#D04826" />
  <rect x="64" y="0" width="32" height="32" fill="#C65D3A" />
  <rect x="96" y="0" width="32" height="32" fill="#6C4C4A" />
  <rect x="128" y="0" width="32" height="32" fill="#6C4C4A" />
  <rect x="160" y="0" width="32" height="32" fill="#D04826" />
  <rect x="192" y="0" width="32" height="32" fill="#C65D3A" />
  <rect x="224" y="0" width="32" height="32" fill="#B0694E" />
  <rect x="0" y="32" width="32" height="32" fill="#4A2C2D" />
  <rect x="32" y="32" width="32" height="32" fill="#6C4C4A" />
  <rect x="64" y="32" width="32" height="32" fill="#C65D3A" />
  <rect x="96" y="32" width="32" height="32" fill="#4A2C2D" />
  <rect x="128" y="32" width="32" height="32" fill="#D29563" />
  <rect x="160" y="32" width="32" height="32" fill="#6C4C4A" />
  <rect x="192" y="32" width="32" height="32" fill="#B0694E" />
  <rect x="224" y="32" width="32" height="32" fill="#4A2C2D" />
  <rect x="0" y="64" width="32" height="32" fill="#4A2C2D" />
  <rect x="32" y="64" width="32" height="32" fill="#D04826" />
  <rect x="64" y="64" width="32" height="32" fill="#4A2C2D" />
  <rect x="96" y="64" width="32" height="32" fill="#D29563" />
  <rect x="128" y="64" width="32" height="32" fill="#6C4C4A" />
  <rect x="160" y="64" width="32" height="32" fill="#D29563" />
  <rect x="192" y="64" width="32" height="32" fill="#C65D3A" />
  <rect x="224" y="64" width="32" height="32" fill="#D04826" />
  <rect x="0" y="96" width="32" height="32" fill="#6B1D12" />
  <rect x="32" y="96" width="32" height="32" fill="#C65D3A" />
  <rect x="64" y="96" width="32" height="32" fill="#6C4C4A" />
  <rect x="96" y="96" width="32" height="32" fill="#D04826" />
  <rect x="128" y="96" width="32" height="32" fill="#C65D3A" />
  <rect x="160" y="96" width="32" height="32" fill="#D29563" />
  <rect x="192" y="96" width="32" height="32" fill="#6C4C4A" />
  <rect x="224" y="96" width="32" height="32" fill="#4A2C2D" />
  <rect x="0" y="128" width="32" height="32" fill="#4A2C2D" />
  <rect x="32" y="128" width="32" height="32" fill="#D29563" />
  <rect x="64" y="128" width="32" height="32" fill="#4A2C2D" />
  <rect x="96" y="128" width="32" height="32" fill="#6B1D12" />
  <rect x="128" y="128" width="32" height="32" fill="#D04826" />
  <rect x="160" y="128" width="32" height="32" fill="#6C4C4A" />
  <rect x="192" y="128" width="32" height="32" fill="#C65D3A" />
  <rect x="224" y="128" width="32" height="32" fill="#4A2C2D" />
  <rect x="0" y="160" width="32" height="32" fill="#D04826" />
  <rect x="32" y="160" width="32" height="32" fill="#C65D3A" />
  <rect x="64" y="160" width="32" height="32" fill="#4A2C2D" />
  <rect x="96" y="160" width="32" height="32" fill="#6C4C4A" />
  <rect x="128" y="160" width="32" height="32" fill="#6B1D12" />
  <rect x="160" y="160" width="32" height="32" fill="#C65D3A" />
  <rect x="192" y="160" width="32" height="32" fill="#D29563" />
  <rect x="224" y="160" width="32" height="32" fill="#D04826" />
  <rect x="0" y="192" width="32" height="32" fill="#4A2C2D" />
  <rect x="32" y="192" width="32" height="32" fill="#D29563" />
  <rect x="64" y="192" width="32" height="32" fill="#D04826" />
  <rect x="96" y="192" width="32" height="32" fill="#6B1D12" />
  <rect x="128" y="192" width="32" height="32" fill="#C65D3A" />
  <rect x="160" y="192" width="32" height="32" fill="#4A2C2D" />
  <rect x="192" y="192" width="32" height="32" fill="#B0694E" />
  <rect x="224" y="192" width="32" height="32" fill="#6B1D12" />
  <rect x="0" y="224" width="32" height="32" fill="#C65D3A" />
  <rect x="32" y="224" width="32" height="32" fill="#6B1D12" />
  <rect x="64" y="224" width="32" height="32" fill="#D29563" />
  <rect x="96" y="224" width="32" height="32" fill="#4A2C2D" />
  <rect x="128" y="224" width="32" height="32" fill="#C65D3A" />
  <rect x="160" y="224" width="32" height="32" fill="#D04826" />
  <rect x="192" y="224" width="32" height="32" fill="#6C4C4A" />
  <rect x="224" y="224" width="32" height="32" fill="#B0694E" />
</svg>
