<svg xmlns="http://www.w3.org/2000/svg" width="256" height="256" viewBox="0 0 256 256" shape-rendering="crispEdges" role="img" aria-labelledby="title desc">
  <title id="title">Shattered Melodies</title>
  <desc id="desc">The emotional tone contrasts tenderness and rage, represented by softer muted colors bleeding into sharper, saturated hues. The palette incorporates deep blacks and pale blues to embody calm amidst stormy moments. The primary collision occurs centrally, where sharp reds slice through the muted blues, symbolizing an emotional fracture. This intersection reflects the chaos of guilt and forgiveness, conveying a pulse of tension and release while maintaining abstract purity.</desc>
  <rect width="256" height="256" fill="#FFFFFF" />
  <rect x="0" y="0" width="32" height="32" fill="#000000" />
  <rect x="32" y="0" width="32" height="32" fill="#000000" />
  <rect x="64" y="0" width="32" height="32" fill="#2E2E2E" />
  <rect x="96" y="0" width="32" height="32" fill="#101010" />
  <rect x="128" y="0" width="32" height="32" fill="#A0C4FF" />
  <rect x="160" y="0" width="32" height="32" fill="#B2B2B2" />
  <rect x="192" y="0" width="32" height="32" fill="#FFFFFF" />
  <rect x="224" y="0" width="32" height="32" fill="#FFFFFF" />
  <rect x="0" y="32" width="32" height="32" fill="#2E2E2E" />
  <rect x="32" y="32" width="32" height="32" fill="#2E2E2E" />
  <rect x="64" y="32" width="32" height="32" fill="#1A1A1A" />
  <rect x="96" y="32" width="32" height="32" fill="#FFFFFF" />
  <rect x="128" y="32" width="32" height="32" fill="#0059FF" />
  <rect x="160" y="32" width="32" height="32" fill="#A0C4FF" />
  <rect x="192" y="32" width="32" height="32" fill="#FFFFFF" />
  <rect x="224" y="32" width="32" height="32" fill="#FFFFFF" />
  <rect x="0" y="64" width="32" height="32" fill="#000000" />
  <rect x="32" y="64" width="32" height="32" fill="#3C3C3C" />
  <rect x="64" y="64" width="32" height="32" fill="#3C3C3C" />
  <rect x="96" y="64" width="32" height="32" fill="#A0C4FF" />
  <rect x="128" y="64" width="32" height="32" fill="#FF5B5B" />
  <rect x="160" y="64" width="32" height="32" fill="#B2B2B2" />
  <rect x="192" y="64" width="32" height="32" fill="#FFFFFF" />
  <rect x="224" y="64" width="32" height="32" fill="#101010" />
  <rect x="0" y="96" width="32" height="32" fill="#5D5D5D" />
  <rect x="32" y="96" width="32" height="32" fill="#5D5D5D" />
  <rect x="64" y="96" width="32" height="32" fill="#FFFFFF" />
  <rect x="96" y="96" width="32" height="32" fill="#FFFFFF" />
  <rect x="128" y="96" width="32" height="32" fill="#FF5B5B" />
  <rect x="160" y="96" width="32" height="32" fill="#A0C4FF" />
  <rect x="192" y="96" width="32" height="32" fill="#FFFFFF" />
  <rect x="224" y="96" width="32" height="32" fill="#FFFFFF" />
  <rect x="0" y="128" width="32" height="32" fill="#000000" />
  <rect x="32" y="128" width="32" height="32" fill="#3C3C3C" />
  <rect x="64" y="128" width="32" height="32" fill="#3C3C3C" />
  <rect x="96" y="128" width="32" height="32" fill="#B2B2B2" />
  <rect x="128" y="128" width="32" height="32" fill="#FFFFFF" />
  <rect x="160" y="128" width="32" height="32" fill="#B2B2B2" />
  <rect x="192" y="128" width="32" height="32" fill="#FFFFFF" />
  <rect x="224" y="128" width="32" height="32" fill="#FFFFFF" />
  <rect x="0" y="160" width="32" height="32" fill="#000000" />
  <rect x="32" y="160" width="32" height="32" fill="#3C3C3C" />
  <rect x="64" y="160" width="32" height="32" fill="#FFFFFF" />
  <rect x="96" y="160" width="32" height="32" fill="#FF5B5B" />
  <rect x="128" y="160" width="32" height="32" fill="#0059FF" />
  <rect x="160" y="160" width="32" height="32" fill="#A0C4FF" />
  <rect x="192" y="160" width="32" height="32" fill="#B2B2B2" />
  <rect x="224" y="160" width="32" height="32" fill="#2E2E2E" />
  <rect x="0" y="192" width="32" height="32" fill="#5D5D5D" />
  <rect x="32" y="192" width="32" height="32" fill="#5D5D5D" />
  <rect x="64" y="192" width="32" height="32" fill="#B2B2B2" />
  <rect x="96" y="192" width="32" height="32" fill="#FF5B5B" />
  <rect x="128" y="192" width="32" height="32" fill="#FFFFFF" />
  <rect x="160" y="192" width="32" height="32" fill="#A0C4FF" />
  <rect x="192" y="192" width="32" height="32" fill="#2E2E2E" />
  <rect x="224" y="192" width="32" height="32" fill="#2E2E2E" />
  <rect x="0" y="224" width="32" height="32" fill="#000000" />
  <rect x="32" y="224" width="32" height="32" fill="#000000" />
  <rect x="64" y="224" width="32" height="32" fill="#A0C4FF" />
  <rect x="96" y="224" width="32" height="32" fill="#B2B2B2" />
  <rect x="128" y="224" width="32" height="32" fill="#FF5B5B" />
  <rect x="160" y="224" width="32" height="32" fill="#5D5D5D" />
  <rect x="192" y="224" width="32" height="32" fill="#FFFFFF" />
  <rect x="224" y="224" width="32" height="32" fill="#2E2E2E" />
</svg>
