<svg xmlns="http://www.w3.org/2000/svg" width="256" height="256" viewBox="0 0 256 256" shape-rendering="crispEdges" role="img" aria-labelledby="title desc">
  <title id="title">Tension in Echo</title>
  <desc id="desc">The emotional tone centers around the contrasting notions of safety and exposure, reflected in the chosen palette. The warm brown and shelter green suggest a protective barrier, while the pale skin and cold white introduce vulnerability and exposure. The collision of these colors predominantly occurs in the center, which symbolizes the struggle between security and fragility, represented by a negative cross pattern where gentle radiance meets firm shadows. The edges are softly broken, creating an echo of tension and inviting the viewer into a space that both envelops and exposes.</desc>
  <rect width="256" height="256" fill="#FFFFFF" />
  <rect x="0" y="0" width="32" height="32" fill="#7B9A6C" />
  <rect x="32" y="0" width="32" height="32" fill="#D6CFC4" />
  <rect x="64" y="0" width="32" height="32" fill="#D6CFC4" />
  <rect x="96" y="0" width="32" height="32" fill="#D6CFC4" />
  <rect x="128" y="0" width="32" height="32" fill="#B19A7D" />
  <rect x="160" y="0" width="32" height="32" fill="#B19A7D" />
  <rect x="192" y="0" width="32" height="32" fill="#B19A7D" />
  <rect x="224" y="0" width="32" height="32" fill="#7B9A6C" />
  <rect x="0" y="32" width="32" height="32" fill="#D6CFC4" />
  <rect x="32" y="32" width="32" height="32" fill="#7B9A6C" />
  <rect x="64" y="32" width="32" height="32" fill="#D6CFC4" />
  <rect x="96" y="32" width="32" height="32" fill="#D6CFC4" />
  <rect x="128" y="32" width="32" height="32" fill="#B19A7D" />
  <rect x="160" y="32" width="32" height="32" fill="#B19A7D" />
  <rect x="192" y="32" width="32" height="32" fill="#D6CFC4" />
  <rect x="224" y="32" width="32" height="32" fill="#D6CFC4" />
  <rect x="0" y="64" width="32" height="32" fill="#D6CFC4" />
  <rect x="32" y="64" width="32" height="32" fill="#D6CFC4" />
  <rect x="64" y="64" width="32" height="32" fill="#7B9A6C" />
  <rect x="96" y="64" width="32" height="32" fill="#D6CFC4" />
  <rect x="128" y="64" width="32" height="32" fill="#D3D6D8" />
  <rect x="160" y="64" width="32" height="32" fill="#D3D6D8" />
  <rect x="192" y="64" width="32" height="32" fill="#D6CFC4" />
  <rect x="224" y="64" width="32" height="32" fill="#B19A7D" />
  <rect x="0" y="96" width="32" height="32" fill="#B19A7D" />
  <rect x="32" y="96" width="32" height="32" fill="#B19A7D" />
  <rect x="64" y="96" width="32" height="32" fill="#D6CFC4" />
  <rect x="96" y="96" width="32" height="32" fill="#7B9A6C" />
  <rect x="128" y="96" width="32" height="32" fill="#D6CFC4" />
  <rect x="160" y="96" width="32" height="32" fill="#D6CFC4" />
  <rect x="192" y="96" width="32" height="32" fill="#D3D6D8" />
  <rect x="224" y="96" width="32" height="32" fill="#A5B8C8" />
  <rect x="0" y="128" width="32" height="32" fill="#D3D6D8" />
  <rect x="32" y="128" width="32" height="32" fill="#D6CFC4" />
  <rect x="64" y="128" width="32" height="32" fill="#7B9A6C" />
  <rect x="96" y="128" width="32" height="32" fill="#B19A7D" />
  <rect x="128" y="128" width="32" height="32" fill="#B19A7D" />
  <rect x="160" y="128" width="32" height="32" fill="#D6CFC4" />
  <rect x="192" y="128" width="32" height="32" fill="#7B9A6C" />
  <rect x="224" y="128" width="32" height="32" fill="#D3D6D8" />
  <rect x="0" y="160" width="32" height="32" fill="#A5B8C8" />
  <rect x="32" y="160" width="32" height="32" fill="#B19A7D" />
  <rect x="64" y="160" width="32" height="32" fill="#D6CFC4" />
  <rect x="96" y="160" width="32" height="32" fill="#D6CFC4" />
  <rect x="128" y="160" width="32" height="32" fill="#7B9A6C" />
  <rect x="160" y="160" width="32" height="32" fill="#D6CFC4" />
  <rect x="192" y="160" width="32" height="32" fill="#B19A7D" />
  <rect x="224" y="160" width="32" height="32" fill="#D3D6D8" />
  <rect x="0" y="192" width="32" height="32" fill="#7B9A6C" />
  <rect x="32" y="192" width="32" height="32" fill="#D6CFC4" />
  <rect x="64" y="192" width="32" height="32" fill="#B19A7D" />
  <rect x="96" y="192" width="32" height="32" fill="#D6CFC4" />
  <rect x="128" y="192" width="32" height="32" fill="#7B9A6C" />
  <rect x="160" y="192" width="32" height="32" fill="#D6CFC4" />
  <rect x="192" y="192" width="32" height="32" fill="#D6CFC4" />
  <rect x="224" y="192" width="32" height="32" fill="#D3D6D8" />
  <rect x="0" y="224" width="32" height="32" fill="#D3D6D8" />
  <rect x="32" y="224" width="32" height="32" fill="#B19A7D" />
  <rect x="64" y="224" width="32" height="32" fill="#D6CFC4" />
  <rect x="96" y="224" width="32" height="32" fill="#D6CFC4" />
  <rect x="128" y="224" width="32" height="32" fill="#A5B8C8" />
  <rect x="160" y="224" width="32" height="32" fill="#A5B8C8" />
  <rect x="192" y="224" width="32" height="32" fill="#D6CFC4" />
  <rect x="224" y="224" width="32" height="32" fill="#7B9A6C" />
</svg>
