<svg xmlns="http://www.w3.org/2000/svg" width="256" height="256" viewBox="0 0 256 256" shape-rendering="crispEdges" role="img" aria-labelledby="title desc">
  <title id="title">Collision of Tones</title>
  <desc id="desc">The emotional tone reflects the struggle between light and dark, softness contrasted with severity. The palette consists of powder pink and warm white suggesting gentleness, while carbon black and steel gray represent harshness, creating a push and pull in the composition. Main contrast occurs in the center, where sharply contrasting colors collide, embodying overlapping tensions. The broken frame layout further enhances the feeling of disruption, allowing glimpses of expanded emotional space. This rhythmic arrangement echoes the pulse of guilt and forgiveness, visualizing a journey of conflicting feelings through color.</desc>
  <rect width="256" height="256" fill="#FFFFFF" />
  <rect x="0" y="0" width="32" height="32" fill="#FFC0CB" />
  <rect x="32" y="0" width="32" height="32" fill="#FFFFFF" />
  <rect x="64" y="0" width="32" height="32" fill="#D3D3D3" />
  <rect x="96" y="0" width="32" height="32" fill="#A9A9A9" />
  <rect x="128" y="0" width="32" height="32" fill="#000000" />
  <rect x="160" y="0" width="32" height="32" fill="#444444" />
  <rect x="192" y="0" width="32" height="32" fill="#888888" />
  <rect x="224" y="0" width="32" height="32" fill="#E8E8E8" />
  <rect x="0" y="32" width="32" height="32" fill="#FFC0CB" />
  <rect x="32" y="32" width="32" height="32" fill="#FFE4E1" />
  <rect x="64" y="32" width="32" height="32" fill="#FFB6C1" />
  <rect x="96" y="32" width="32" height="32" fill="#F5F5F5" />
  <rect x="128" y="32" width="32" height="32" fill="#777777" />
  <rect x="160" y="32" width="32" height="32" fill="#333333" />
  <rect x="192" y="32" width="32" height="32" fill="#666666" />
  <rect x="224" y="32" width="32" height="32" fill="#000000" />
  <rect x="0" y="64" width="32" height="32" fill="#FF69B4" />
  <rect x="32" y="64" width="32" height="32" fill="#FFCCCB" />
  <rect x="64" y="64" width="32" height="32" fill="#FFFFFF" />
  <rect x="96" y="64" width="32" height="32" fill="#E7E7E7" />
  <rect x="128" y="64" width="32" height="32" fill="#BBBBBB" />
  <rect x="160" y="64" width="32" height="32" fill="#444444" />
  <rect x="192" y="64" width="32" height="32" fill="#222222" />
  <rect x="224" y="64" width="32" height="32" fill="#111111" />
  <rect x="0" y="96" width="32" height="32" fill="#FFB6C1" />
  <rect x="32" y="96" width="32" height="32" fill="#FF1493" />
  <rect x="64" y="96" width="32" height="32" fill="#DB7093" />
  <rect x="96" y="96" width="32" height="32" fill="#DDA0DD" />
  <rect x="128" y="96" width="32" height="32" fill="#AAAAAA" />
  <rect x="160" y="96" width="32" height="32" fill="#555555" />
  <rect x="192" y="96" width="32" height="32" fill="#444444" />
  <rect x="224" y="96" width="32" height="32" fill="#000000" />
  <rect x="0" y="128" width="32" height="32" fill="#F8F8FF" />
  <rect x="32" y="128" width="32" height="32" fill="#E6E6FA" />
  <rect x="64" y="128" width="32" height="32" fill="#D8BFD8" />
  <rect x="96" y="128" width="32" height="32" fill="#D3D3D3" />
  <rect x="128" y="128" width="32" height="32" fill="#A9A9A9" />
  <rect x="160" y="128" width="32" height="32" fill="#707070" />
  <rect x="192" y="128" width="32" height="32" fill="#333333" />
  <rect x="224" y="128" width="32" height="32" fill="#000000" />
  <rect x="0" y="160" width="32" height="32" fill="#FFC0CB" />
  <rect x="32" y="160" width="32" height="32" fill="#FFF0F5" />
  <rect x="64" y="160" width="32" height="32" fill="#D8BFD8" />
  <rect x="96" y="160" width="32" height="32" fill="#C0C0C0" />
  <rect x="128" y="160" width="32" height="32" fill="#D3D3D3" />
  <rect x="160" y="160" width="32" height="32" fill="#808080" />
  <rect x="192" y="160" width="32" height="32" fill="#222222" />
  <rect x="224" y="160" width="32" height="32" fill="#111111" />
  <rect x="0" y="192" width="32" height="32" fill="#FF69B4" />
  <rect x="32" y="192" width="32" height="32" fill="#FFB6C1" />
  <rect x="64" y="192" width="32" height="32" fill="#FFFFFF" />
  <rect x="96" y="192" width="32" height="32" fill="#D8BFD8" />
  <rect x="128" y="192" width="32" height="32" fill="#FFF5EE" />
  <rect x="160" y="192" width="32" height="32" fill="#C0C0C0" />
  <rect x="192" y="192" width="32" height="32" fill="#666666" />
  <rect x="224" y="192" width="32" height="32" fill="#444444" />
  <rect x="0" y="224" width="32" height="32" fill="#FFCCCB" />
  <rect x="32" y="224" width="32" height="32" fill="#FFE4E1" />
  <rect x="64" y="224" width="32" height="32" fill="#F8F8FF" />
  <rect x="96" y="224" width="32" height="32" fill="#DDDDDD" />
  <rect x="128" y="224" width="32" height="32" fill="#A9A9A9" />
  <rect x="160" y="224" width="32" height="32" fill="#333333" />
  <rect x="192" y="224" width="32" height="32" fill="#888888" />
  <rect x="224" y="224" width="32" height="32" fill="#000000" />
</svg>
