<svg xmlns="http://www.w3.org/2000/svg" width="256" height="256" viewBox="0 0 256 256" shape-rendering="crispEdges" role="img" aria-labelledby="title desc">
  <title id="title">Pressure Release</title>
  <desc id="desc">This artwork expresses the tension between quiet and pressure through a tightly clustered palette with an emphasis on contrasting zones. The dark navy serves as a weighted backdrop, representing pressure, while softer shades of off-white and faint peach flow outward, embodying the quiet. The pattern is interrupted by clusters of compressed red which provide sharp accents, creating vivid collisions in the composition. Techniques of channels for pressure and fault lines for quiet converge to capture the chaotic yet structured emotional narrative of the seed.</desc>
  <rect width="256" height="256" fill="#FFFFFF" />
  <rect x="0" y="0" width="32" height="32" fill="#000000" />
  <rect x="32" y="0" width="32" height="32" fill="#001F33" />
  <rect x="64" y="0" width="32" height="32" fill="#003F63" />
  <rect x="96" y="0" width="32" height="32" fill="#00557F" />
  <rect x="128" y="0" width="32" height="32" fill="#00648C" />
  <rect x="160" y="0" width="32" height="32" fill="#F3B5B3" />
  <rect x="192" y="0" width="32" height="32" fill="#E8D7D1" />
  <rect x="224" y="0" width="32" height="32" fill="#FFFFFF" />
  <rect x="0" y="32" width="32" height="32" fill="#111A21" />
  <rect x="32" y="32" width="32" height="32" fill="#003D55" />
  <rect x="64" y="32" width="32" height="32" fill="#005F7D" />
  <rect x="96" y="32" width="32" height="32" fill="#007DAE" />
  <rect x="128" y="32" width="32" height="32" fill="#A8D8E7" />
  <rect x="160" y="32" width="32" height="32" fill="#F2D3C5" />
  <rect x="192" y="32" width="32" height="32" fill="#E7BFA2" />
  <rect x="224" y="32" width="32" height="32" fill="#F9E2CC" />
  <rect x="0" y="64" width="32" height="32" fill="#222B31" />
  <rect x="32" y="64" width="32" height="32" fill="#005F74" />
  <rect x="64" y="64" width="32" height="32" fill="#007A9C" />
  <rect x="96" y="64" width="32" height="32" fill="#0095C8" />
  <rect x="128" y="64" width="32" height="32" fill="#D2E7F6" />
  <rect x="160" y="64" width="32" height="32" fill="#F2D9C6" />
  <rect x="192" y="64" width="32" height="32" fill="#D8B58E" />
  <rect x="224" y="64" width="32" height="32" fill="#F3DAC5" />
  <rect x="0" y="96" width="32" height="32" fill="#333C41" />
  <rect x="32" y="96" width="32" height="32" fill="#004D62" />
  <rect x="64" y="96" width="32" height="32" fill="#005A7D" />
  <rect x="96" y="96" width="32" height="32" fill="#007EAB" />
  <rect x="128" y="96" width="32" height="32" fill="#C9E4F2" />
  <rect x="160" y="96" width="32" height="32" fill="#E1C6B8" />
  <rect x="192" y="96" width="32" height="32" fill="#E4B097" />
  <rect x="224" y="96" width="32" height="32" fill="#F9E3AA" />
  <rect x="0" y="128" width="32" height="32" fill="#444D51" />
  <rect x="32" y="128" width="32" height="32" fill="#003C56" />
  <rect x="64" y="128" width="32" height="32" fill="#008BB1" />
  <rect x="96" y="128" width="32" height="32" fill="#0091BE" />
  <rect x="128" y="128" width="32" height="32" fill="#A3D1E9" />
  <rect x="160" y="128" width="32" height="32" fill="#D6C4B2" />
  <rect x="192" y="128" width="32" height="32" fill="#DEB79C" />
  <rect x="224" y="128" width="32" height="32" fill="#F2DDC4" />
  <rect x="0" y="160" width="32" height="32" fill="#555E61" />
  <rect x="32" y="160" width="32" height="32" fill="#002C48" />
  <rect x="64" y="160" width="32" height="32" fill="#0078A8" />
  <rect x="96" y="160" width="32" height="32" fill="#0095C0" />
  <rect x="128" y="160" width="32" height="32" fill="#92CADB" />
  <rect x="160" y="160" width="32" height="32" fill="#E3C6AE" />
  <rect x="192" y="160" width="32" height="32" fill="#B3A999" />
  <rect x="224" y="160" width="32" height="32" fill="#E8E2D8" />
  <rect x="0" y="192" width="32" height="32" fill="#666F71" />
  <rect x="32" y="192" width="32" height="32" fill="#001B38" />
  <rect x="64" y="192" width="32" height="32" fill="#006696" />
  <rect x="96" y="192" width="32" height="32" fill="#00A1CC" />
  <rect x="128" y="192" width="32" height="32" fill="#B9DDF7" />
  <rect x="160" y="192" width="32" height="32" fill="#F1E1C9" />
  <rect x="192" y="192" width="32" height="32" fill="#A28777" />
  <rect x="224" y="192" width="32" height="32" fill="#F5E5D1" />
  <rect x="0" y="224" width="32" height="32" fill="#777F81" />
  <rect x="32" y="224" width="32" height="32" fill="#000C2B" />
  <rect x="64" y="224" width="32" height="32" fill="#005A8D" />
  <rect x="96" y="224" width="32" height="32" fill="#00A8CC" />
  <rect x="128" y="224" width="32" height="32" fill="#A3C4D9" />
  <rect x="160" y="224" width="32" height="32" fill="#F9E5CB" />
  <rect x="192" y="224" width="32" height="32" fill="#C6A77B" />
  <rect x="224" y="224" width="32" height="32" fill="#FFFFFF" />
</svg>
