<svg xmlns="http://www.w3.org/2000/svg" width="256" height="256" viewBox="0 0 256 256" shape-rendering="crispEdges" role="img" aria-labelledby="title desc">
  <title id="title">Flux of Tranquility</title>
  <desc id="desc">The emotional tone reflects a dynamic interplay between restlessness and peace. The chosen palette, comprising muted greens and earthy browns alongside contrasting pale and open blues, signifies a safe space that evinces calm yet hints at underlying tension. The collision occurs at the diagonal stretch from corner to corner, where dense clusters of darker hues are interrupted by brighter, lighter fields, echoing the oscillation between tranquility and a desire for motion. The pattern diverges, with clustered pixels at one edge flowing into calmer, more negative space—alluding to a crack that disrupts the serenity. This structure captures the essence of the seed’s abstract qualities, promoting an engaging exploration between opposing emotions.</desc>
  <rect width="256" height="256" fill="#FFFFFF" />
  <rect x="0" y="0" width="32" height="32" fill="#3F5B31" />
  <rect x="32" y="0" width="32" height="32" fill="#C8E4D5" />
  <rect x="64" y="0" width="32" height="32" fill="#6C7A54" />
  <rect x="96" y="0" width="32" height="32" fill="#B3CBA0" />
  <rect x="128" y="0" width="32" height="32" fill="#A7A9D4" />
  <rect x="160" y="0" width="32" height="32" fill="#D0E2E9" />
  <rect x="192" y="0" width="32" height="32" fill="#A8C8D5" />
  <rect x="224" y="0" width="32" height="32" fill="#E7BEAA" />
  <rect x="0" y="32" width="32" height="32" fill="#B4CBA0" />
  <rect x="32" y="32" width="32" height="32" fill="#918D81" />
  <rect x="64" y="32" width="32" height="32" fill="#7B9B8B" />
  <rect x="96" y="32" width="32" height="32" fill="#373F3F" />
  <rect x="128" y="32" width="32" height="32" fill="#2E2A26" />
  <rect x="160" y="32" width="32" height="32" fill="#E7FFED" />
  <rect x="192" y="32" width="32" height="32" fill="#FFD4C2" />
  <rect x="224" y="32" width="32" height="32" fill="#441853" />
  <rect x="0" y="64" width="32" height="32" fill="#E1E6E6" />
  <rect x="32" y="64" width="32" height="32" fill="#6D5B49" />
  <rect x="64" y="64" width="32" height="32" fill="#A2A88A" />
  <rect x="96" y="64" width="32" height="32" fill="#8D9C94" />
  <rect x="128" y="64" width="32" height="32" fill="#F7E7D7" />
  <rect x="160" y="64" width="32" height="32" fill="#B0DACF" />
  <rect x="192" y="64" width="32" height="32" fill="#D1A237" />
  <rect x="224" y="64" width="32" height="32" fill="#9F4E3C" />
  <rect x="0" y="96" width="32" height="32" fill="#4B7F7B" />
  <rect x="32" y="96" width="32" height="32" fill="#2D495A" />
  <rect x="64" y="96" width="32" height="32" fill="#C4E6D4" />
  <rect x="96" y="96" width="32" height="32" fill="#F1F5F9" />
  <rect x="128" y="96" width="32" height="32" fill="#B7D4C4" />
  <rect x="160" y="96" width="32" height="32" fill="#D4B8A8" />
  <rect x="192" y="96" width="32" height="32" fill="#B8C7D6" />
  <rect x="224" y="96" width="32" height="32" fill="#1F2424" />
  <rect x="0" y="128" width="32" height="32" fill="#E8EFE2" />
  <rect x="32" y="128" width="32" height="32" fill="#A5BBAF" />
  <rect x="64" y="128" width="32" height="32" fill="#5D7467" />
  <rect x="96" y="128" width="32" height="32" fill="#A39A7C" />
  <rect x="128" y="128" width="32" height="32" fill="#5B6B74" />
  <rect x="160" y="128" width="32" height="32" fill="#E7D2D0" />
  <rect x="192" y="128" width="32" height="32" fill="#393C3E" />
  <rect x="224" y="128" width="32" height="32" fill="#A8C0C2" />
  <rect x="0" y="160" width="32" height="32" fill="#D1E9E0" />
  <rect x="32" y="160" width="32" height="32" fill="#A5B8C1" />
  <rect x="64" y="160" width="32" height="32" fill="#C1F0C2" />
  <rect x="96" y="160" width="32" height="32" fill="#8E8C6A" />
  <rect x="128" y="160" width="32" height="32" fill="#F5C4B1" />
  <rect x="160" y="160" width="32" height="32" fill="#8B9B6B" />
  <rect x="192" y="160" width="32" height="32" fill="#17332D" />
  <rect x="224" y="160" width="32" height="32" fill="#FFFFFF" />
  <rect x="0" y="192" width="32" height="32" fill="#D0DECE" />
  <rect x="32" y="192" width="32" height="32" fill="#F7DAD0" />
  <rect x="64" y="192" width="32" height="32" fill="#D7C4A8" />
  <rect x="96" y="192" width="32" height="32" fill="#D6E4E0" />
  <rect x="128" y="192" width="32" height="32" fill="#A3B7C8" />
  <rect x="160" y="192" width="32" height="32" fill="#4B846A" />
  <rect x="192" y="192" width="32" height="32" fill="#3C726C" />
  <rect x="224" y="192" width="32" height="32" fill="#6E5A47" />
  <rect x="0" y="224" width="32" height="32" fill="#B7C4A8" />
  <rect x="32" y="224" width="32" height="32" fill="#BAC8C2" />
  <rect x="64" y="224" width="32" height="32" fill="#9BACD7" />
  <rect x="96" y="224" width="32" height="32" fill="#E2E2C7" />
  <rect x="128" y="224" width="32" height="32" fill="#C2B9A7" />
  <rect x="160" y="224" width="32" height="32" fill="#D9F7BE" />
  <rect x="192" y="224" width="32" height="32" fill="#5A8B9E" />
  <rect x="224" y="224" width="32" height="32" fill="#FFF4E1" />
</svg>
