<svg xmlns="http://www.w3.org/2000/svg" width="256" height="256" viewBox="0 0 256 256" shape-rendering="crispEdges" role="img" aria-labelledby="title desc">
  <title id="title">Echoing Threads</title>
  <desc id="desc">The composition reflects the emotional tension between longing and resolve through a palette of muted earth tones and vibrant accents. The background employs serene greens and browns to represent a sense of safety, while bursts of open blue and pale skin hues introduce urgency and the feeling of yearning. The central focus utilizes structured patterns from longing (rain) which struggles against the angular rigidity of resolve (hinge), creating a dynamic interplay. The broken pixels are strategically placed to disrupt the flow and signify imperfection, enhancing the sense of collision between emotions, particularly at the central point of the grid.</desc>
  <rect width="256" height="256" fill="#FFFFFF" />
  <rect x="0" y="0" width="32" height="32" fill="#4C7B63" />
  <rect x="32" y="0" width="32" height="32" fill="#A3CDA5" />
  <rect x="64" y="0" width="32" height="32" fill="#D1E4E6" />
  <rect x="96" y="0" width="32" height="32" fill="#E8F0F2" />
  <rect x="128" y="0" width="32" height="32" fill="#A3B8B3" />
  <rect x="160" y="0" width="32" height="32" fill="#3F3C4D" />
  <rect x="192" y="0" width="32" height="32" fill="#BBA1A1" />
  <rect x="224" y="0" width="32" height="32" fill="#FFC77B" />
  <rect x="0" y="32" width="32" height="32" fill="#7A9C8C" />
  <rect x="32" y="32" width="32" height="32" fill="#D4C093" />
  <rect x="64" y="32" width="32" height="32" fill="#E2C3B0" />
  <rect x="96" y="32" width="32" height="32" fill="#BBAE94" />
  <rect x="128" y="32" width="32" height="32" fill="#C4D5BC" />
  <rect x="160" y="32" width="32" height="32" fill="#E8DFD6" />
  <rect x="192" y="32" width="32" height="32" fill="#DCB19A" />
  <rect x="224" y="32" width="32" height="32" fill="#99C0D6" />
  <rect x="0" y="64" width="32" height="32" fill="#EDD9B8" />
  <rect x="32" y="64" width="32" height="32" fill="#E2C4AD" />
  <rect x="64" y="64" width="32" height="32" fill="#7C8C77" />
  <rect x="96" y="64" width="32" height="32" fill="#4A8B8C" />
  <rect x="128" y="64" width="32" height="32" fill="#D0A868" />
  <rect x="160" y="64" width="32" height="32" fill="#442E52" />
  <rect x="192" y="64" width="32" height="32" fill="#E5B6A0" />
  <rect x="224" y="64" width="32" height="32" fill="#E05167" />
  <rect x="0" y="96" width="32" height="32" fill="#B2907A" />
  <rect x="32" y="96" width="32" height="32" fill="#81C8C4" />
  <rect x="64" y="96" width="32" height="32" fill="#546D75" />
  <rect x="96" y="96" width="32" height="32" fill="#6C4F77" />
  <rect x="128" y="96" width="32" height="32" fill="#FFD6D5" />
  <rect x="160" y="96" width="32" height="32" fill="#A84B25" />
  <rect x="192" y="96" width="32" height="32" fill="#B5C3B9" />
  <rect x="224" y="96" width="32" height="32" fill="#E1E9E8" />
  <rect x="0" y="128" width="32" height="32" fill="#C4DBD6" />
  <rect x="32" y="128" width="32" height="32" fill="#E8D5CA" />
  <rect x="64" y="128" width="32" height="32" fill="#A3C5BC" />
  <rect x="96" y="128" width="32" height="32" fill="#E9E0D6" />
  <rect x="128" y="128" width="32" height="32" fill="#7E4B48" />
  <rect x="160" y="128" width="32" height="32" fill="#6C886B" />
  <rect x="192" y="128" width="32" height="32" fill="#B65151" />
  <rect x="224" y="128" width="32" height="32" fill="#C9E2D8" />
  <rect x="0" y="160" width="32" height="32" fill="#A3BDA5" />
  <rect x="32" y="160" width="32" height="32" fill="#E2D2CC" />
  <rect x="64" y="160" width="32" height="32" fill="#97C7C0" />
  <rect x="96" y="160" width="32" height="32" fill="#DAC0A3" />
  <rect x="128" y="160" width="32" height="32" fill="#B62F24" />
  <rect x="160" y="160" width="32" height="32" fill="#4F4A37" />
  <rect x="192" y="160" width="32" height="32" fill="#A3BEB6" />
  <rect x="224" y="160" width="32" height="32" fill="#A3BDA5" />
  <rect x="0" y="192" width="32" height="32" fill="#4B3B38" />
  <rect x="32" y="192" width="32" height="32" fill="#B5C3B9" />
  <rect x="64" y="192" width="32" height="32" fill="#D3D3C9" />
  <rect x="96" y="192" width="32" height="32" fill="#7D8B88" />
  <rect x="128" y="192" width="32" height="32" fill="#D4C4AE" />
  <rect x="160" y="192" width="32" height="32" fill="#6B443C" />
  <rect x="192" y="192" width="32" height="32" fill="#F5E1E5" />
  <rect x="224" y="192" width="32" height="32" fill="#E5E8F2" />
  <rect x="0" y="224" width="32" height="32" fill="#F27376" />
  <rect x="32" y="224" width="32" height="32" fill="#B8DBD6" />
  <rect x="64" y="224" width="32" height="32" fill="#BAC5C6" />
  <rect x="96" y="224" width="32" height="32" fill="#C8B8A8" />
  <rect x="128" y="224" width="32" height="32" fill="#F5E4D7" />
  <rect x="160" y="224" width="32" height="32" fill="#C6A098" />
  <rect x="192" y="224" width="32" height="32" fill="#A9B2B0" />
  <rect x="224" y="224" width="32" height="32" fill="#F7D8C9" />
</svg>
