<svg xmlns="http://www.w3.org/2000/svg" width="256" height="256" viewBox="0 0 256 256" shape-rendering="crispEdges" role="img" aria-labelledby="title desc">
  <title id="title">Echoes of Conflict</title>
  <desc id="desc">The emotional tone captures the tension between longing and resolve, reflected through a palette of red, pale blue, black, and white. The contrast emphasizes a divide between deep, yearning colors and the stark resolve of the lighter tones, creating an interplay between density and quietness. The broken pixel placements act as intentional scars, symbolizing the conflicts and repairs within the emotional narrative. The overall layout of stacked bands enhances movement across the canvas, suggesting an ebb and flow of emotions that collide and resonate throughout the grid.</desc>
  <rect width="256" height="256" fill="#FFFFFF" />
  <rect x="0" y="0" width="32" height="32" fill="#000000" />
  <rect x="32" y="0" width="32" height="32" fill="#3E4B4D" />
  <rect x="64" y="0" width="32" height="32" fill="#9C7A8D" />
  <rect x="96" y="0" width="32" height="32" fill="#9F9C97" />
  <rect x="128" y="0" width="32" height="32" fill="#FFFFFF" />
  <rect x="160" y="0" width="32" height="32" fill="#7DABF2" />
  <rect x="192" y="0" width="32" height="32" fill="#B73524" />
  <rect x="224" y="0" width="32" height="32" fill="#5A5959" />
  <rect x="0" y="32" width="32" height="32" fill="#3F4B4D" />
  <rect x="32" y="32" width="32" height="32" fill="#111F24" />
  <rect x="64" y="32" width="32" height="32" fill="#384E59" />
  <rect x="96" y="32" width="32" height="32" fill="#C6A9AA" />
  <rect x="128" y="32" width="32" height="32" fill="#FFFFFF" />
  <rect x="160" y="32" width="32" height="32" fill="#BDC2C6" />
  <rect x="192" y="32" width="32" height="32" fill="#C1473A" />
  <rect x="224" y="32" width="32" height="32" fill="#425A61" />
  <rect x="0" y="64" width="32" height="32" fill="#2A2828" />
  <rect x="32" y="64" width="32" height="32" fill="#4C676A" />
  <rect x="64" y="64" width="32" height="32" fill="#B6B8B3" />
  <rect x="96" y="64" width="32" height="32" fill="#F4F7F7" />
  <rect x="128" y="64" width="32" height="32" fill="#FFFFFF" />
  <rect x="160" y="64" width="32" height="32" fill="#4C9BC6" />
  <rect x="192" y="64" width="32" height="32" fill="#B90A0A" />
  <rect x="224" y="64" width="32" height="32" fill="#5A6868" />
  <rect x="0" y="96" width="32" height="32" fill="#191919" />
  <rect x="32" y="96" width="32" height="32" fill="#2B4F53" />
  <rect x="64" y="96" width="32" height="32" fill="#A9A09F" />
  <rect x="96" y="96" width="32" height="32" fill="#F3F5F5" />
  <rect x="128" y="96" width="32" height="32" fill="#FFFFFF" />
  <rect x="160" y="96" width="32" height="32" fill="#A03230" />
  <rect x="192" y="96" width="32" height="32" fill="#C6C6C6" />
  <rect x="224" y="96" width="32" height="32" fill="#4F6659" />
  <rect x="0" y="128" width="32" height="32" fill="#1B1B1B" />
  <rect x="32" y="128" width="32" height="32" fill="#4B7375" />
  <rect x="64" y="128" width="32" height="32" fill="#A2A4A0" />
  <rect x="96" y="128" width="32" height="32" fill="#FFFFFF" />
  <rect x="128" y="128" width="32" height="32" fill="#EBCBD4" />
  <rect x="160" y="128" width="32" height="32" fill="#7F3535" />
  <rect x="192" y="128" width="32" height="32" fill="#3D4344" />
  <rect x="224" y="128" width="32" height="32" fill="#696B68" />
  <rect x="0" y="160" width="32" height="32" fill="#1C1D1D" />
  <rect x="32" y="160" width="32" height="32" fill="#3B6D70" />
  <rect x="64" y="160" width="32" height="32" fill="#F7F7F7" />
  <rect x="96" y="160" width="32" height="32" fill="#FFFFFF" />
  <rect x="128" y="160" width="32" height="32" fill="#A54F4F" />
  <rect x="160" y="160" width="32" height="32" fill="#4E797A" />
  <rect x="192" y="160" width="32" height="32" fill="#3E4D4D" />
  <rect x="224" y="160" width="32" height="32" fill="#6F7071" />
  <rect x="0" y="192" width="32" height="32" fill="#0F0F0F" />
  <rect x="32" y="192" width="32" height="32" fill="#3A3D3E" />
  <rect x="64" y="192" width="32" height="32" fill="#C6D5D6" />
  <rect x="96" y="192" width="32" height="32" fill="#F4F8F8" />
  <rect x="128" y="192" width="32" height="32" fill="#FFFFFF" />
  <rect x="160" y="192" width="32" height="32" fill="#C54E4E" />
  <rect x="192" y="192" width="32" height="32" fill="#2B3535" />
  <rect x="224" y="192" width="32" height="32" fill="#707275" />
  <rect x="0" y="224" width="32" height="32" fill="#000000" />
  <rect x="32" y="224" width="32" height="32" fill="#212527" />
  <rect x="64" y="224" width="32" height="32" fill="#A0A2A2" />
  <rect x="96" y="224" width="32" height="32" fill="#FFFFFF" />
  <rect x="128" y="224" width="32" height="32" fill="#C6C6C6" />
  <rect x="160" y="224" width="32" height="32" fill="#3A2323" />
  <rect x="192" y="224" width="32" height="32" fill="#263737" />
  <rect x="224" y="224" width="32" height="32" fill="#6E7475" />
</svg>
