<svg xmlns="http://www.w3.org/2000/svg" width="256" height="256" viewBox="0 0 256 256" shape-rendering="crispEdges" role="img" aria-labelledby="title desc">
  <title id="title">Collision of Tension</title>
  <desc id="desc">This composition reflects the struggle between defiance and submission. The selected palette of pale aqua, mist gray, alarm red, ink blue, and clear white conveys serenity against urgency, offering a visual representation of emotional tension. The main collision occurs in the center, where stark color contrasts—such as the vibrant alarm red against the cooler mist gray—interrupt the flow of line and shape. This creates a sharp focal point, resembling a crack in surface tension, as seen in the chosen patterns of 'veil' and 'crack'. The placement of broken pixels adds intentional disruptions, symbolizing the unpredictability in emotional states. Overall, this 8x8 grid encapsulates both the structured order and the chaotic nature of human feelings in the context of the seed phrases.</desc>
  <rect width="256" height="256" fill="#FFFFFF" />
  <rect x="0" y="0" width="32" height="32" fill="#7ED3DB" />
  <rect x="32" y="0" width="32" height="32" fill="#AAB8B6" />
  <rect x="64" y="0" width="32" height="32" fill="#6A94B9" />
  <rect x="96" y="0" width="32" height="32" fill="#E1B3B3" />
  <rect x="128" y="0" width="32" height="32" fill="#FFFFFF" />
  <rect x="160" y="0" width="32" height="32" fill="#7ED3DB" />
  <rect x="192" y="0" width="32" height="32" fill="#AAB8B6" />
  <rect x="224" y="0" width="32" height="32" fill="#6A94B9" />
  <rect x="0" y="32" width="32" height="32" fill="#B8E0E6" />
  <rect x="32" y="32" width="32" height="32" fill="#E0BEC4" />
  <rect x="64" y="32" width="32" height="32" fill="#C95B5C" />
  <rect x="96" y="32" width="32" height="32" fill="#A2C3D6" />
  <rect x="128" y="32" width="32" height="32" fill="#FFFFFF" />
  <rect x="160" y="32" width="32" height="32" fill="#B8E0E6" />
  <rect x="192" y="32" width="32" height="32" fill="#E0BEC4" />
  <rect x="224" y="32" width="32" height="32" fill="#C95B5C" />
  <rect x="0" y="64" width="32" height="32" fill="#A7737D" />
  <rect x="32" y="64" width="32" height="32" fill="#DFD7DB" />
  <rect x="64" y="64" width="32" height="32" fill="#3A5D72" />
  <rect x="96" y="64" width="32" height="32" fill="#A2B8C2" />
  <rect x="128" y="64" width="32" height="32" fill="#FFFFFF" />
  <rect x="160" y="64" width="32" height="32" fill="#A7737D" />
  <rect x="192" y="64" width="32" height="32" fill="#DFD7DB" />
  <rect x="224" y="64" width="32" height="32" fill="#3A5D72" />
  <rect x="0" y="96" width="32" height="32" fill="#DEB1A1" />
  <rect x="32" y="96" width="32" height="32" fill="#B6C5C7" />
  <rect x="64" y="96" width="32" height="32" fill="#EAB8B8" />
  <rect x="96" y="96" width="32" height="32" fill="#6A94B9" />
  <rect x="128" y="96" width="32" height="32" fill="#FFFFFF" />
  <rect x="160" y="96" width="32" height="32" fill="#DEB1A1" />
  <rect x="192" y="96" width="32" height="32" fill="#B6C5C7" />
  <rect x="224" y="96" width="32" height="32" fill="#EAB8B8" />
  <rect x="0" y="128" width="32" height="32" fill="#7ED3DB" />
  <rect x="32" y="128" width="32" height="32" fill="#AAB8B6" />
  <rect x="64" y="128" width="32" height="32" fill="#6A94B9" />
  <rect x="96" y="128" width="32" height="32" fill="#E1B3B3" />
  <rect x="128" y="128" width="32" height="32" fill="#FFFFFF" />
  <rect x="160" y="128" width="32" height="32" fill="#7ED3DB" />
  <rect x="192" y="128" width="32" height="32" fill="#AAB8B6" />
  <rect x="224" y="128" width="32" height="32" fill="#6A94B9" />
  <rect x="0" y="160" width="32" height="32" fill="#B8E0E6" />
  <rect x="32" y="160" width="32" height="32" fill="#C95B5C" />
  <rect x="64" y="160" width="32" height="32" fill="#A2C3D6" />
  <rect x="96" y="160" width="32" height="32" fill="#3A5D72" />
  <rect x="128" y="160" width="32" height="32" fill="#FFFFFF" />
  <rect x="160" y="160" width="32" height="32" fill="#B8E0E6" />
  <rect x="192" y="160" width="32" height="32" fill="#C95B5C" />
  <rect x="224" y="160" width="32" height="32" fill="#A2C3D6" />
  <rect x="0" y="192" width="32" height="32" fill="#A7737D" />
  <rect x="32" y="192" width="32" height="32" fill="#E0BEC4" />
  <rect x="64" y="192" width="32" height="32" fill="#6A94B9" />
  <rect x="96" y="192" width="32" height="32" fill="#A2B8C2" />
  <rect x="128" y="192" width="32" height="32" fill="#FFFFFF" />
  <rect x="160" y="192" width="32" height="32" fill="#A7737D" />
  <rect x="192" y="192" width="32" height="32" fill="#E0BEC4" />
  <rect x="224" y="192" width="32" height="32" fill="#6A94B9" />
  <rect x="0" y="224" width="32" height="32" fill="#DEB1A1" />
  <rect x="32" y="224" width="32" height="32" fill="#C95B5C" />
  <rect x="64" y="224" width="32" height="32" fill="#DFD7DB" />
  <rect x="96" y="224" width="32" height="32" fill="#6A94B9" />
  <rect x="128" y="224" width="32" height="32" fill="#FFFFFF" />
  <rect x="160" y="224" width="32" height="32" fill="#DEB1A1" />
  <rect x="192" y="224" width="32" height="32" fill="#C95B5C" />
  <rect x="224" y="224" width="32" height="32" fill="#DFD7DB" />
</svg>
