<svg xmlns="http://www.w3.org/2000/svg" width="256" height="256" viewBox="0 0 256 256" shape-rendering="crispEdges" role="img" aria-labelledby="title desc">
  <title id="title">Voices of Contrast</title>
  <desc id="desc">The emotional tone expresses the clash between envy and gratitude, conveyed through a palette that creates a dialogue between muted sepia and faded blue. The contrast arises from soft edges meeting abrupt interruptions of dense color, depicting a tension that oscillates between hope and fear. The arrangement of colors defines a central pattern that feels both fragile and overwhelming, echoing the seed's themes of rising vs falling and noise against crack.</desc>
  <rect width="256" height="256" fill="#FFFFFF" />
  <rect x="0" y="0" width="32" height="32" fill="#F4E0B5" />
  <rect x="32" y="0" width="32" height="32" fill="#F5C9A4" />
  <rect x="64" y="0" width="32" height="32" fill="#EDB2B1" />
  <rect x="96" y="0" width="32" height="32" fill="#B7A3A5" />
  <rect x="128" y="0" width="32" height="32" fill="#D3C6E0" />
  <rect x="160" y="0" width="32" height="32" fill="#DDE5EA" />
  <rect x="192" y="0" width="32" height="32" fill="#A2A8B9" />
  <rect x="224" y="0" width="32" height="32" fill="#7196C3" />
  <rect x="0" y="32" width="32" height="32" fill="#F4E0B5" />
  <rect x="32" y="32" width="32" height="32" fill="#F5C9A4" />
  <rect x="64" y="32" width="32" height="32" fill="#F0B3AF" />
  <rect x="96" y="32" width="32" height="32" fill="#C1B2BB" />
  <rect x="128" y="32" width="32" height="32" fill="#D6C4DF" />
  <rect x="160" y="32" width="32" height="32" fill="#DBDFE4" />
  <rect x="192" y="32" width="32" height="32" fill="#A6AAB9" />
  <rect x="224" y="32" width="32" height="32" fill="#CCCCCC" />
  <rect x="0" y="64" width="32" height="32" fill="#EDE4C7" />
  <rect x="32" y="64" width="32" height="32" fill="#DFB5AA" />
  <rect x="64" y="64" width="32" height="32" fill="#F2D5D6" />
  <rect x="96" y="64" width="32" height="32" fill="#D6C6D8" />
  <rect x="128" y="64" width="32" height="32" fill="#B9BACD" />
  <rect x="160" y="64" width="32" height="32" fill="#A4A7B8" />
  <rect x="192" y="64" width="32" height="32" fill="#A1C2DE" />
  <rect x="224" y="64" width="32" height="32" fill="#8C9DB5" />
  <rect x="0" y="96" width="32" height="32" fill="#E2C7B1" />
  <rect x="32" y="96" width="32" height="32" fill="#F4C4C0" />
  <rect x="64" y="96" width="32" height="32" fill="#F1D4E3" />
  <rect x="96" y="96" width="32" height="32" fill="#D4D0E8" />
  <rect x="128" y="96" width="32" height="32" fill="#ABBCC8" />
  <rect x="160" y="96" width="32" height="32" fill="#8475BB" />
  <rect x="192" y="96" width="32" height="32" fill="#78A2CF" />
  <rect x="224" y="96" width="32" height="32" fill="#6FA4C0" />
  <rect x="0" y="128" width="32" height="32" fill="#C9B6A3" />
  <rect x="32" y="128" width="32" height="32" fill="#BEA9B4" />
  <rect x="64" y="128" width="32" height="32" fill="#F2CCCB" />
  <rect x="96" y="128" width="32" height="32" fill="#E4C8D6" />
  <rect x="128" y="128" width="32" height="32" fill="#55799E" />
  <rect x="160" y="128" width="32" height="32" fill="#80B9CC" />
  <rect x="192" y="128" width="32" height="32" fill="#4A5974" />
  <rect x="224" y="128" width="32" height="32" fill="#4E6985" />
  <rect x="0" y="160" width="32" height="32" fill="#B2A899" />
  <rect x="32" y="160" width="32" height="32" fill="#C3A2AE" />
  <rect x="64" y="160" width="32" height="32" fill="#E9D4D1" />
  <rect x="96" y="160" width="32" height="32" fill="#C4D0D6" />
  <rect x="128" y="160" width="32" height="32" fill="#4E674E" />
  <rect x="160" y="160" width="32" height="32" fill="#769BB3" />
  <rect x="192" y="160" width="32" height="32" fill="#507F93" />
  <rect x="224" y="160" width="32" height="32" fill="#2E333D" />
  <rect x="0" y="192" width="32" height="32" fill="#C9B3A5" />
  <rect x="32" y="192" width="32" height="32" fill="#EBD0CB" />
  <rect x="64" y="192" width="32" height="32" fill="#D6D6D2" />
  <rect x="96" y="192" width="32" height="32" fill="#BAC8D3" />
  <rect x="128" y="192" width="32" height="32" fill="#3F4A52" />
  <rect x="160" y="192" width="32" height="32" fill="#4A758B" />
  <rect x="192" y="192" width="32" height="32" fill="#3A5964" />
  <rect x="224" y="192" width="32" height="32" fill="#4C7541" />
  <rect x="0" y="224" width="32" height="32" fill="#F4E8BB" />
  <rect x="32" y="224" width="32" height="32" fill="#F5D2D0" />
  <rect x="64" y="224" width="32" height="32" fill="#D5C4C5" />
  <rect x="96" y="224" width="32" height="32" fill="#D1E0EC" />
  <rect x="128" y="224" width="32" height="32" fill="#3E4B46" />
  <rect x="160" y="224" width="32" height="32" fill="#24818C" />
  <rect x="192" y="224" width="32" height="32" fill="#2E3053" />
  <rect x="224" y="224" width="32" height="32" fill="#33556B" />
</svg>
