<svg xmlns="http://www.w3.org/2000/svg" width="256" height="256" viewBox="0 0 256 256" shape-rendering="crispEdges" role="img" aria-labelledby="title desc">
  <title id="title">Tension of Dualities</title>
  <desc id="desc">The emotional tone is driven by the dichotomy of spark and ash, representing life vs. stillness. The selected palette of pale aqua and alarm red introduces a vibrant tension against the muted mist gray and ink blue, allowing the contrasting emotions to resonate. The collision occurs primarily in the center where vibrant colors meet softer tones, representing an emotional struggle. The patterns of tide and checker interact at jagged edges, creating a dynamic visual rhythm that embodies conflict and resolution. Negative space accompanies this tension, inviting contemplation amidst the density.</desc>
  <rect width="256" height="256" fill="#FFFFFF" />
  <rect x="0" y="0" width="32" height="32" fill="#9ED0E8" />
  <rect x="32" y="0" width="32" height="32" fill="#A6C8D7" />
  <rect x="64" y="0" width="32" height="32" fill="#F85A00" />
  <rect x="96" y="0" width="32" height="32" fill="#D5D0D3" />
  <rect x="128" y="0" width="32" height="32" fill="#A0A0A0" />
  <rect x="160" y="0" width="32" height="32" fill="#5C7C9A" />
  <rect x="192" y="0" width="32" height="32" fill="#65A1B8" />
  <rect x="224" y="0" width="32" height="32" fill="#FFFFFF" />
  <rect x="0" y="32" width="32" height="32" fill="#F1CFCB" />
  <rect x="32" y="32" width="32" height="32" fill="#C9B5B2" />
  <rect x="64" y="32" width="32" height="32" fill="#E55C00" />
  <rect x="96" y="32" width="32" height="32" fill="#A8B0D5" />
  <rect x="128" y="32" width="32" height="32" fill="#FFC8C4" />
  <rect x="160" y="32" width="32" height="32" fill="#F9DCDC" />
  <rect x="192" y="32" width="32" height="32" fill="#7A97B5" />
  <rect x="224" y="32" width="32" height="32" fill="#B7B7B7" />
  <rect x="0" y="64" width="32" height="32" fill="#7A7A7A" />
  <rect x="32" y="64" width="32" height="32" fill="#913A18" />
  <rect x="64" y="64" width="32" height="32" fill="#F0F8FF" />
  <rect x="96" y="64" width="32" height="32" fill="#D1E0E0" />
  <rect x="128" y="64" width="32" height="32" fill="#F2DBDB" />
  <rect x="160" y="64" width="32" height="32" fill="#70707C" />
  <rect x="192" y="64" width="32" height="32" fill="#0A7A94" />
  <rect x="224" y="64" width="32" height="32" fill="#E9D8C1" />
  <rect x="0" y="96" width="32" height="32" fill="#5C5C5C" />
  <rect x="32" y="96" width="32" height="32" fill="#F1D1D5" />
  <rect x="64" y="96" width="32" height="32" fill="#F5F0E1" />
  <rect x="96" y="96" width="32" height="32" fill="#D9E8E8" />
  <rect x="128" y="96" width="32" height="32" fill="#C1D2DB" />
  <rect x="160" y="96" width="32" height="32" fill="#000000" />
  <rect x="192" y="96" width="32" height="32" fill="#BCC1C1" />
  <rect x="224" y="96" width="32" height="32" fill="#D3D6D6" />
  <rect x="0" y="128" width="32" height="32" fill="#DADADA" />
  <rect x="32" y="128" width="32" height="32" fill="#F4F9F9" />
  <rect x="64" y="128" width="32" height="32" fill="#F25822" />
  <rect x="96" y="128" width="32" height="32" fill="#A1BCDE" />
  <rect x="128" y="128" width="32" height="32" fill="#C4B6B6" />
  <rect x="160" y="128" width="32" height="32" fill="#8AB8EF" />
  <rect x="192" y="128" width="32" height="32" fill="#7D7E7E" />
  <rect x="224" y="128" width="32" height="32" fill="#5A5A5A" />
  <rect x="0" y="160" width="32" height="32" fill="#FF6A00" />
  <rect x="32" y="160" width="32" height="32" fill="#B8C4C4" />
  <rect x="64" y="160" width="32" height="32" fill="#E0E7E7" />
  <rect x="96" y="160" width="32" height="32" fill="#3F3F3F" />
  <rect x="128" y="160" width="32" height="32" fill="#A4AFC1" />
  <rect x="160" y="160" width="32" height="32" fill="#943C15" />
  <rect x="192" y="160" width="32" height="32" fill="#E9E0D1" />
  <rect x="224" y="160" width="32" height="32" fill="#A0A0A0" />
  <rect x="0" y="192" width="32" height="32" fill="#A6D1D1" />
  <rect x="32" y="192" width="32" height="32" fill="#4D4D4D" />
  <rect x="64" y="192" width="32" height="32" fill="#BB6A66" />
  <rect x="96" y="192" width="32" height="32" fill="#E6B8B8" />
  <rect x="128" y="192" width="32" height="32" fill="#8F9CA5" />
  <rect x="160" y="192" width="32" height="32" fill="#B0C8E0" />
  <rect x="192" y="192" width="32" height="32" fill="#7A7A7A" />
  <rect x="224" y="192" width="32" height="32" fill="#FFC1B0" />
  <rect x="0" y="224" width="32" height="32" fill="#E4AFC0" />
  <rect x="32" y="224" width="32" height="32" fill="#032D32" />
  <rect x="64" y="224" width="32" height="32" fill="#F6F9FA" />
  <rect x="96" y="224" width="32" height="32" fill="#D2D2D2" />
  <rect x="128" y="224" width="32" height="32" fill="#D6B9B8" />
  <rect x="160" y="224" width="32" height="32" fill="#414F5A" />
  <rect x="192" y="224" width="32" height="32" fill="#7C6F6F" />
  <rect x="224" y="224" width="32" height="32" fill="#BFBFBF" />
</svg>
