<svg xmlns="http://www.w3.org/2000/svg" width="256" height="256" viewBox="0 0 256 256" shape-rendering="crispEdges" role="img" aria-labelledby="title desc">
  <title id="title">Echoed Tension</title>
  <desc id="desc">This artwork captures the emotional dichotomy between restlessness and peace. The palette of pale mint, soft sky, storm gray, near black, and faded gold conveys this tension. The main contrast occurs in the central area, where storm gray punctuates pale mint, mirroring the conflict between movement and stillness. The layout portrays two pulses—one calm and another restless—interacting across the canvas. Broken pixels create intentional disruptions, embodying the theme of unresolved motion and fragmentation.</desc>
  <rect width="256" height="256" fill="#FFFFFF" />
  <rect x="0" y="0" width="32" height="32" fill="#A8E6CE" />
  <rect x="32" y="0" width="32" height="32" fill="#B0E0E6" />
  <rect x="64" y="0" width="32" height="32" fill="#A9A9A9" />
  <rect x="96" y="0" width="32" height="32" fill="#696969" />
  <rect x="128" y="0" width="32" height="32" fill="#282828" />
  <rect x="160" y="0" width="32" height="32" fill="#383838" />
  <rect x="192" y="0" width="32" height="32" fill="#606060" />
  <rect x="224" y="0" width="32" height="32" fill="#F0E68C" />
  <rect x="0" y="32" width="32" height="32" fill="#E0FFFF" />
  <rect x="32" y="32" width="32" height="32" fill="#A9D0F5" />
  <rect x="64" y="32" width="32" height="32" fill="#BEBEBE" />
  <rect x="96" y="32" width="32" height="32" fill="#383838" />
  <rect x="128" y="32" width="32" height="32" fill="#F0F8FF" />
  <rect x="160" y="32" width="32" height="32" fill="#ADD8E6" />
  <rect x="192" y="32" width="32" height="32" fill="#E6E6FA" />
  <rect x="224" y="32" width="32" height="32" fill="#2F2F2F" />
  <rect x="0" y="64" width="32" height="32" fill="#B0E0E6" />
  <rect x="32" y="64" width="32" height="32" fill="#A8E6CE" />
  <rect x="64" y="64" width="32" height="32" fill="#777777" />
  <rect x="96" y="64" width="32" height="32" fill="#A0E9E4" />
  <rect x="128" y="64" width="32" height="32" fill="#D3D3D3" />
  <rect x="160" y="64" width="32" height="32" fill="#708090" />
  <rect x="192" y="64" width="32" height="32" fill="#F5F5F5" />
  <rect x="224" y="64" width="32" height="32" fill="#4B0082" />
  <rect x="0" y="96" width="32" height="32" fill="#D3D3D3" />
  <rect x="32" y="96" width="32" height="32" fill="#696969" />
  <rect x="64" y="96" width="32" height="32" fill="#2E8B57" />
  <rect x="96" y="96" width="32" height="32" fill="#C0C0C0" />
  <rect x="128" y="96" width="32" height="32" fill="#808080" />
  <rect x="160" y="96" width="32" height="32" fill="#B0C4DE" />
  <rect x="192" y="96" width="32" height="32" fill="#FFD700" />
  <rect x="224" y="96" width="32" height="32" fill="#DEB887" />
  <rect x="0" y="128" width="32" height="32" fill="#BEBEBE" />
  <rect x="32" y="128" width="32" height="32" fill="#708090" />
  <rect x="64" y="128" width="32" height="32" fill="#E0FFFF" />
  <rect x="96" y="128" width="32" height="32" fill="#B0E0E6" />
  <rect x="128" y="128" width="32" height="32" fill="#808080" />
  <rect x="160" y="128" width="32" height="32" fill="#7B68EE" />
  <rect x="192" y="128" width="32" height="32" fill="#ADFF2F" />
  <rect x="224" y="128" width="32" height="32" fill="#000000" />
  <rect x="0" y="160" width="32" height="32" fill="#FFFAFA" />
  <rect x="32" y="160" width="32" height="32" fill="#FFD700" />
  <rect x="64" y="160" width="32" height="32" fill="#A9D0F5" />
  <rect x="96" y="160" width="32" height="32" fill="#DCDCDC" />
  <rect x="128" y="160" width="32" height="32" fill="#A0522D" />
  <rect x="160" y="160" width="32" height="32" fill="#2F4F4F" />
  <rect x="192" y="160" width="32" height="32" fill="#FFE4C4" />
  <rect x="224" y="160" width="32" height="32" fill="#F5FFFA" />
  <rect x="0" y="192" width="32" height="32" fill="#778899" />
  <rect x="32" y="192" width="32" height="32" fill="#D3D3D3" />
  <rect x="64" y="192" width="32" height="32" fill="#B0C4DE" />
  <rect x="96" y="192" width="32" height="32" fill="#BEBEBE" />
  <rect x="128" y="192" width="32" height="32" fill="#3CB371" />
  <rect x="160" y="192" width="32" height="32" fill="#4682B4" />
  <rect x="192" y="192" width="32" height="32" fill="#2E8B57" />
  <rect x="224" y="192" width="32" height="32" fill="#8B0000" />
  <rect x="0" y="224" width="32" height="32" fill="#F5F5F5" />
  <rect x="32" y="224" width="32" height="32" fill="#C0C0C0" />
  <rect x="64" y="224" width="32" height="32" fill="#ADD8E6" />
  <rect x="96" y="224" width="32" height="32" fill="#696969" />
  <rect x="128" y="224" width="32" height="32" fill="#BEBEBE" />
  <rect x="160" y="224" width="32" height="32" fill="#A52A2A" />
  <rect x="192" y="224" width="32" height="32" fill="#A8E6CE" />
  <rect x="224" y="224" width="32" height="32" fill="#FFFFFF" />
</svg>
