<svg xmlns="http://www.w3.org/2000/svg" width="256" height="256" viewBox="0 0 256 256" shape-rendering="crispEdges" role="img" aria-labelledby="title desc">
  <title id="title">Emotional Rift</title>
  <desc id="desc">The composition reflects the contrasting emotions of loneliness and connection through an interplay of colors and spatial arrangement. The chosen palette of warm pinks and deep maroons symbolizes passion and solitude, with gray introducing a sense of void. The top-weighted arrangement emphasizes a solitary element at the center, evoking feelings of isolation surrounded by the noise of vibrant colors, suggesting a burst of incongruity. The grid pattern forms a stark contrast against the warm bursts, amplifying the feeling of disconnection while hinting at the potential for connection within the chaotic backdrop. The negative space intentionally left around the bursts further accentuates the emotional void associated with loneliness, inviting contemplation and reflection on the dichotomy of human experience.</desc>
  <rect width="256" height="256" fill="#FFFFFF" />
  <rect x="0" y="0" width="32" height="32" fill="#8E2B49" />
  <rect x="32" y="0" width="32" height="32" fill="#E5727B" />
  <rect x="64" y="0" width="32" height="32" fill="#C49C9A" />
  <rect x="96" y="0" width="32" height="32" fill="#D3A7B5" />
  <rect x="128" y="0" width="32" height="32" fill="#6A2C39" />
  <rect x="160" y="0" width="32" height="32" fill="#B47C93" />
  <rect x="192" y="0" width="32" height="32" fill="#630715" />
  <rect x="224" y="0" width="32" height="32" fill="#3C2A30" />
  <rect x="0" y="32" width="32" height="32" fill="#E7C3C4" />
  <rect x="32" y="32" width="32" height="32" fill="#F8D1C2" />
  <rect x="64" y="32" width="32" height="32" fill="#B3A3B9" />
  <rect x="96" y="32" width="32" height="32" fill="#A87788" />
  <rect x="128" y="32" width="32" height="32" fill="#C0A6B2" />
  <rect x="160" y="32" width="32" height="32" fill="#A43D5C" />
  <rect x="192" y="32" width="32" height="32" fill="#9B758C" />
  <rect x="224" y="32" width="32" height="32" fill="#6C5C61" />
  <rect x="0" y="64" width="32" height="32" fill="#F7E4E0" />
  <rect x="32" y="64" width="32" height="32" fill="#8C2240" />
  <rect x="64" y="64" width="32" height="32" fill="#E6A1B0" />
  <rect x="96" y="64" width="32" height="32" fill="#B14F61" />
  <rect x="128" y="64" width="32" height="32" fill="#A0B3B9" />
  <rect x="160" y="64" width="32" height="32" fill="#D4C2B5" />
  <rect x="192" y="64" width="32" height="32" fill="#E4D1DB" />
  <rect x="224" y="64" width="32" height="32" fill="#4B1B25" />
  <rect x="0" y="96" width="32" height="32" fill="#D6B6B9" />
  <rect x="32" y="96" width="32" height="32" fill="#AA6A7D" />
  <rect x="64" y="96" width="32" height="32" fill="#D6D4D6" />
  <rect x="96" y="96" width="32" height="32" fill="#9A2E44" />
  <rect x="128" y="96" width="32" height="32" fill="#A45D74" />
  <rect x="160" y="96" width="32" height="32" fill="#C1C2D3" />
  <rect x="192" y="96" width="32" height="32" fill="#85A1A7" />
  <rect x="224" y="96" width="32" height="32" fill="#C9C2C9" />
  <rect x="0" y="128" width="32" height="32" fill="#C5474C" />
  <rect x="32" y="128" width="32" height="32" fill="#AD868E" />
  <rect x="64" y="128" width="32" height="32" fill="#6C2E38" />
  <rect x="96" y="128" width="32" height="32" fill="#F4E7E7" />
  <rect x="128" y="128" width="32" height="32" fill="#9B292F" />
  <rect x="160" y="128" width="32" height="32" fill="#E7B3C9" />
  <rect x="192" y="128" width="32" height="32" fill="#E7B8B1" />
  <rect x="224" y="128" width="32" height="32" fill="#E5C6D6" />
  <rect x="0" y="160" width="32" height="32" fill="#87586B" />
  <rect x="32" y="160" width="32" height="32" fill="#B3A0B5" />
  <rect x="64" y="160" width="32" height="32" fill="#7F2A35" />
  <rect x="96" y="160" width="32" height="32" fill="#665A75" />
  <rect x="128" y="160" width="32" height="32" fill="#3C3135" />
  <rect x="160" y="160" width="32" height="32" fill="#A3C48A" />
  <rect x="192" y="160" width="32" height="32" fill="#E1B6A4" />
  <rect x="224" y="160" width="32" height="32" fill="#7C4D59" />
  <rect x="0" y="192" width="32" height="32" fill="#EDD1D1" />
  <rect x="32" y="192" width="32" height="32" fill="#B9C4F5" />
  <rect x="64" y="192" width="32" height="32" fill="#B2544D" />
  <rect x="96" y="192" width="32" height="32" fill="#E72842" />
  <rect x="128" y="192" width="32" height="32" fill="#EA9DAA" />
  <rect x="160" y="192" width="32" height="32" fill="#B2A3B4" />
  <rect x="192" y="192" width="32" height="32" fill="#AA84B5" />
  <rect x="224" y="192" width="32" height="32" fill="#AA4C51" />
  <rect x="0" y="224" width="32" height="32" fill="#CEBBBF" />
  <rect x="32" y="224" width="32" height="32" fill="#F6E9E3" />
  <rect x="64" y="224" width="32" height="32" fill="#582830" />
  <rect x="96" y="224" width="32" height="32" fill="#DCB3B5" />
  <rect x="128" y="224" width="32" height="32" fill="#A73440" />
  <rect x="160" y="224" width="32" height="32" fill="#B8BACF" />
  <rect x="192" y="224" width="32" height="32" fill="#BDAAC1" />
  <rect x="224" y="224" width="32" height="32" fill="#6F2C44" />
</svg>
