<svg xmlns="http://www.w3.org/2000/svg" width="256" height="256" viewBox="0 0 256 256" shape-rendering="crispEdges" role="img" aria-labelledby="title desc">
  <title id="title">Pressure vs Release</title>
  <desc id="desc">This artwork conveys the emotional tension between relief and dread using a palette that blends pale mint and faded gold for a sense of lightness against storm gray and near black to evoke heaviness. The composition features a dense accumulation of darker colors in the bottom left corner, easing into lighter hues toward the top right, symbolizing a release from pressure. The contrast is established through a crosshatched pattern in the upper region that interrupts the stacked heaviness, reflecting a transition from chaos to order. Broken pixels create intentional disruptions, suggesting scars or memories that resonate with the journey of escaping dread towards relief.</desc>
  <rect width="256" height="256" fill="#FFFFFF" />
  <rect x="0" y="0" width="32" height="32" fill="#4CAF50" />
  <rect x="32" y="0" width="32" height="32" fill="#4CAF50" />
  <rect x="64" y="0" width="32" height="32" fill="#C1E1C1" />
  <rect x="96" y="0" width="32" height="32" fill="#C1E1C1" />
  <rect x="128" y="0" width="32" height="32" fill="#C1E1C1" />
  <rect x="160" y="0" width="32" height="32" fill="#C1E1C1" />
  <rect x="192" y="0" width="32" height="32" fill="#C1E1C1" />
  <rect x="224" y="0" width="32" height="32" fill="#C1E1C1" />
  <rect x="0" y="32" width="32" height="32" fill="#C1E1C1" />
  <rect x="32" y="32" width="32" height="32" fill="#C1E1C1" />
  <rect x="64" y="32" width="32" height="32" fill="#8BB8A5" />
  <rect x="96" y="32" width="32" height="32" fill="#8BB8A5" />
  <rect x="128" y="32" width="32" height="32" fill="#8BB8A5" />
  <rect x="160" y="32" width="32" height="32" fill="#C1E1C1" />
  <rect x="192" y="32" width="32" height="32" fill="#C1E1C1" />
  <rect x="224" y="32" width="32" height="32" fill="#C1E1C1" />
  <rect x="0" y="64" width="32" height="32" fill="#8BB8A5" />
  <rect x="32" y="64" width="32" height="32" fill="#8BB8A5" />
  <rect x="64" y="64" width="32" height="32" fill="#4CAF50" />
  <rect x="96" y="64" width="32" height="32" fill="#4CAF50" />
  <rect x="128" y="64" width="32" height="32" fill="#4CAF50" />
  <rect x="160" y="64" width="32" height="32" fill="#A8DADC" />
  <rect x="192" y="64" width="32" height="32" fill="#C1E1C1" />
  <rect x="224" y="64" width="32" height="32" fill="#C1E1C1" />
  <rect x="0" y="96" width="32" height="32" fill="#4CAF50" />
  <rect x="32" y="96" width="32" height="32" fill="#4CAF50" />
  <rect x="64" y="96" width="32" height="32" fill="#C1E1C1" />
  <rect x="96" y="96" width="32" height="32" fill="#C1E1C1" />
  <rect x="128" y="96" width="32" height="32" fill="#C1E1C1" />
  <rect x="160" y="96" width="32" height="32" fill="#A8DADC" />
  <rect x="192" y="96" width="32" height="32" fill="#C1E1C1" />
  <rect x="224" y="96" width="32" height="32" fill="#C1E1C1" />
  <rect x="0" y="128" width="32" height="32" fill="#8BB8A5" />
  <rect x="32" y="128" width="32" height="32" fill="#C1E1C1" />
  <rect x="64" y="128" width="32" height="32" fill="#C1E1C1" />
  <rect x="96" y="128" width="32" height="32" fill="#A8DADC" />
  <rect x="128" y="128" width="32" height="32" fill="#C1E1C1" />
  <rect x="160" y="128" width="32" height="32" fill="#C1E1C1" />
  <rect x="192" y="128" width="32" height="32" fill="#C1E1C1" />
  <rect x="224" y="128" width="32" height="32" fill="#C1E1C1" />
  <rect x="0" y="160" width="32" height="32" fill="#8BB8A5" />
  <rect x="32" y="160" width="32" height="32" fill="#8BB8A5" />
  <rect x="64" y="160" width="32" height="32" fill="#C1E1C1" />
  <rect x="96" y="160" width="32" height="32" fill="#4CAF50" />
  <rect x="128" y="160" width="32" height="32" fill="#4CAF50" />
  <rect x="160" y="160" width="32" height="32" fill="#F1FAEE" />
  <rect x="192" y="160" width="32" height="32" fill="#A8DADC" />
  <rect x="224" y="160" width="32" height="32" fill="#C1E1C1" />
  <rect x="0" y="192" width="32" height="32" fill="#4CAF50" />
  <rect x="32" y="192" width="32" height="32" fill="#4CAF50" />
  <rect x="64" y="192" width="32" height="32" fill="#4CAF50" />
  <rect x="96" y="192" width="32" height="32" fill="#F1FAEE" />
  <rect x="128" y="192" width="32" height="32" fill="#F1FAEE" />
  <rect x="160" y="192" width="32" height="32" fill="#B8B2A1" />
  <rect x="192" y="192" width="32" height="32" fill="#F1FAEE" />
  <rect x="224" y="192" width="32" height="32" fill="#C1E1C1" />
  <rect x="0" y="224" width="32" height="32" fill="#4CAF50" />
  <rect x="32" y="224" width="32" height="32" fill="#4CAF50" />
  <rect x="64" y="224" width="32" height="32" fill="#4CAF50" />
  <rect x="96" y="224" width="32" height="32" fill="#4CAF50" />
  <rect x="128" y="224" width="32" height="32" fill="#F1FAEE" />
  <rect x="160" y="224" width="32" height="32" fill="#B8B2A1" />
  <rect x="192" y="224" width="32" height="32" fill="#F1FAEE" />
  <rect x="224" y="224" width="32" height="32" fill="#C1E1C1" />
</svg>
