<svg xmlns="http://www.w3.org/2000/svg" width="256" height="256" viewBox="0 0 256 256" shape-rendering="crispEdges" role="img" aria-labelledby="title desc">
  <title id="title">Pressure and Release</title>
  <desc id="desc">This composition juxtaposes the emotional tensions of tenderness and rage using a palette of saturated reds and muted blues. The dominant rage is represented by the sharp, concentrated red clusters, creating a feeling of intense pressure in the bottom-right corner, while the softness of pale blue dots create a broken channel of tenderness flowing diagonally. This collision of color and texture reflects the struggle between opposing emotions, illustrating the battle and resolution between guilt and forgiveness within the abstract layout.</desc>
  <rect width="256" height="256" fill="#FFFFFF" />
  <rect x="0" y="0" width="32" height="32" fill="#FFFFFF" />
  <rect x="32" y="0" width="32" height="32" fill="#FFFFFF" />
  <rect x="64" y="0" width="32" height="32" fill="#FFFFFF" />
  <rect x="96" y="0" width="32" height="32" fill="#FFFFFF" />
  <rect x="128" y="0" width="32" height="32" fill="#FFFFFF" />
  <rect x="160" y="0" width="32" height="32" fill="#E3F2FD" />
  <rect x="192" y="0" width="32" height="32" fill="#E3F2FD" />
  <rect x="224" y="0" width="32" height="32" fill="#E3F2FD" />
  <rect x="0" y="32" width="32" height="32" fill="#FFFFFF" />
  <rect x="32" y="32" width="32" height="32" fill="#FFFFFF" />
  <rect x="64" y="32" width="32" height="32" fill="#FFFFFF" />
  <rect x="96" y="32" width="32" height="32" fill="#E3F2FD" />
  <rect x="128" y="32" width="32" height="32" fill="#E3F2FD" />
  <rect x="160" y="32" width="32" height="32" fill="#E3F2FD" />
  <rect x="192" y="32" width="32" height="32" fill="#E3F2FD" />
  <rect x="224" y="32" width="32" height="32" fill="#E3F2FD" />
  <rect x="0" y="64" width="32" height="32" fill="#FFFFFF" />
  <rect x="32" y="64" width="32" height="32" fill="#FFFFFF" />
  <rect x="64" y="64" width="32" height="32" fill="#E3F2FD" />
  <rect x="96" y="64" width="32" height="32" fill="#E3F2FD" />
  <rect x="128" y="64" width="32" height="32" fill="#E3F2FD" />
  <rect x="160" y="64" width="32" height="32" fill="#E3F2FD" />
  <rect x="192" y="64" width="32" height="32" fill="#E3F2FD" />
  <rect x="224" y="64" width="32" height="32" fill="#E3F2FD" />
  <rect x="0" y="96" width="32" height="32" fill="#FFFFFF" />
  <rect x="32" y="96" width="32" height="32" fill="#E57373" />
  <rect x="64" y="96" width="32" height="32" fill="#E63C20" />
  <rect x="96" y="96" width="32" height="32" fill="#E63C20" />
  <rect x="128" y="96" width="32" height="32" fill="#E63C20" />
  <rect x="160" y="96" width="32" height="32" fill="#E63C20" />
  <rect x="192" y="96" width="32" height="32" fill="#E3F2FD" />
  <rect x="224" y="96" width="32" height="32" fill="#E3F2FD" />
  <rect x="0" y="128" width="32" height="32" fill="#FFFFFF" />
  <rect x="32" y="128" width="32" height="32" fill="#E63946" />
  <rect x="64" y="128" width="32" height="32" fill="#D83D32" />
  <rect x="96" y="128" width="32" height="32" fill="#D83D32" />
  <rect x="128" y="128" width="32" height="32" fill="#E63C20" />
  <rect x="160" y="128" width="32" height="32" fill="#E63C20" />
  <rect x="192" y="128" width="32" height="32" fill="#E3F2FD" />
  <rect x="224" y="128" width="32" height="32" fill="#E3F2FD" />
  <rect x="0" y="160" width="32" height="32" fill="#E63946" />
  <rect x="32" y="160" width="32" height="32" fill="#D83D32" />
  <rect x="64" y="160" width="32" height="32" fill="#D83D32" />
  <rect x="96" y="160" width="32" height="32" fill="#E63946" />
  <rect x="128" y="160" width="32" height="32" fill="#D83D32" />
  <rect x="160" y="160" width="32" height="32" fill="#E63C20" />
  <rect x="192" y="160" width="32" height="32" fill="#E3F2FD" />
  <rect x="224" y="160" width="32" height="32" fill="#E3F2FD" />
  <rect x="0" y="192" width="32" height="32" fill="#E63946" />
  <rect x="32" y="192" width="32" height="32" fill="#E63946" />
  <rect x="64" y="192" width="32" height="32" fill="#D83D32" />
  <rect x="96" y="192" width="32" height="32" fill="#D83D32" />
  <rect x="128" y="192" width="32" height="32" fill="#D83D32" />
  <rect x="160" y="192" width="32" height="32" fill="#E63C20" />
  <rect x="192" y="192" width="32" height="32" fill="#E3F2FD" />
  <rect x="224" y="192" width="32" height="32" fill="#E3F2FD" />
  <rect x="0" y="224" width="32" height="32" fill="#E63946" />
  <rect x="32" y="224" width="32" height="32" fill="#E63946" />
  <rect x="64" y="224" width="32" height="32" fill="#E63946" />
  <rect x="96" y="224" width="32" height="32" fill="#D83D32" />
  <rect x="128" y="224" width="32" height="32" fill="#E3F2FD" />
  <rect x="160" y="224" width="32" height="32" fill="#E3F2FD" />
  <rect x="192" y="224" width="32" height="32" fill="#E3F2FD" />
  <rect x="224" y="224" width="32" height="32" fill="#E3F2FD" />
</svg>
