<svg xmlns="http://www.w3.org/2000/svg" width="256" height="256" viewBox="0 0 256 256" shape-rendering="crispEdges" role="img" aria-labelledby="title desc">
  <title id="title">Tension at the Threshold</title>
  <desc id="desc">This composition explores the emotional tension between control and surrender, represented by a dense center contrasting with softer edges. The palette utilizes navy and dim cyan to evoke a sense of loneliness and distant signals, while the black acts as a boundary. The dominant dark colors create an imposing structure reminiscent of control, while the lighter tones suggest surrender and yield. The main collision occurs at the center where intense saturation meets softer borders, illustrating the struggle between pressure and release. The choice of broken pixels enhances the idea of disruption and the challenge of containment.</desc>
  <rect width="256" height="256" fill="#FFFFFF" />
  <rect x="0" y="0" width="32" height="32" fill="#000000" />
  <rect x="32" y="0" width="32" height="32" fill="#001F3F" />
  <rect x="64" y="0" width="32" height="32" fill="#003B5C" />
  <rect x="96" y="0" width="32" height="32" fill="#005A8C" />
  <rect x="128" y="0" width="32" height="32" fill="#007BB8" />
  <rect x="160" y="0" width="32" height="32" fill="#009BDA" />
  <rect x="192" y="0" width="32" height="32" fill="#00BFFF" />
  <rect x="224" y="0" width="32" height="32" fill="#00D5E1" />
  <rect x="0" y="32" width="32" height="32" fill="#001F3F" />
  <rect x="32" y="32" width="32" height="32" fill="#002E5E" />
  <rect x="64" y="32" width="32" height="32" fill="#005A8C" />
  <rect x="96" y="32" width="32" height="32" fill="#007BB8" />
  <rect x="128" y="32" width="32" height="32" fill="#009BDA" />
  <rect x="160" y="32" width="32" height="32" fill="#00BFFF" />
  <rect x="192" y="32" width="32" height="32" fill="#00D5E1" />
  <rect x="224" y="32" width="32" height="32" fill="#00FFFF" />
  <rect x="0" y="64" width="32" height="32" fill="#003B5C" />
  <rect x="32" y="64" width="32" height="32" fill="#004B75" />
  <rect x="64" y="64" width="32" height="32" fill="#007BB8" />
  <rect x="96" y="64" width="32" height="32" fill="#009BDA" />
  <rect x="128" y="64" width="32" height="32" fill="#00BFFF" />
  <rect x="160" y="64" width="32" height="32" fill="#00D5E1" />
  <rect x="192" y="64" width="32" height="32" fill="#00FFFF" />
  <rect x="224" y="64" width="32" height="32" fill="#00E8E6" />
  <rect x="0" y="96" width="32" height="32" fill="#005A8C" />
  <rect x="32" y="96" width="32" height="32" fill="#006A9B" />
  <rect x="64" y="96" width="32" height="32" fill="#009BDA" />
  <rect x="96" y="96" width="32" height="32" fill="#00BFFF" />
  <rect x="128" y="96" width="32" height="32" fill="#00FFFF" />
  <rect x="160" y="96" width="32" height="32" fill="#00E8E6" />
  <rect x="192" y="96" width="32" height="32" fill="#00C6C3" />
  <rect x="224" y="96" width="32" height="32" fill="#00B2B2" />
  <rect x="0" y="128" width="32" height="32" fill="#007BB8" />
  <rect x="32" y="128" width="32" height="32" fill="#008AB8" />
  <rect x="64" y="128" width="32" height="32" fill="#00BFFF" />
  <rect x="96" y="128" width="32" height="32" fill="#00D5E1" />
  <rect x="128" y="128" width="32" height="32" fill="#00E8E6" />
  <rect x="160" y="128" width="32" height="32" fill="#00C6C3" />
  <rect x="192" y="128" width="32" height="32" fill="#00B2B2" />
  <rect x="224" y="128" width="32" height="32" fill="#00A8A8" />
  <rect x="0" y="160" width="32" height="32" fill="#009BDA" />
  <rect x="32" y="160" width="32" height="32" fill="#00A8DA" />
  <rect x="64" y="160" width="32" height="32" fill="#00D5E1" />
  <rect x="96" y="160" width="32" height="32" fill="#00E8E6" />
  <rect x="128" y="160" width="32" height="32" fill="#00C6C3" />
  <rect x="160" y="160" width="32" height="32" fill="#00B2B2" />
  <rect x="192" y="160" width="32" height="32" fill="#00A8A8" />
  <rect x="224" y="160" width="32" height="32" fill="#007D7D" />
  <rect x="0" y="192" width="32" height="32" fill="#00BFFF" />
  <rect x="32" y="192" width="32" height="32" fill="#00C6C3" />
  <rect x="64" y="192" width="32" height="32" fill="#00E8E6" />
  <rect x="96" y="192" width="32" height="32" fill="#00B2B2" />
  <rect x="128" y="192" width="32" height="32" fill="#00A8A8" />
  <rect x="160" y="192" width="32" height="32" fill="#007D7D" />
  <rect x="192" y="192" width="32" height="32" fill="#007474" />
  <rect x="224" y="192" width="32" height="32" fill="#006060" />
  <rect x="0" y="224" width="32" height="32" fill="#00D5E1" />
  <rect x="32" y="224" width="32" height="32" fill="#00E8E6" />
  <rect x="64" y="224" width="32" height="32" fill="#00B2B2" />
  <rect x="96" y="224" width="32" height="32" fill="#00A8A8" />
  <rect x="128" y="224" width="32" height="32" fill="#007D7D" />
  <rect x="160" y="224" width="32" height="32" fill="#006060" />
  <rect x="192" y="224" width="32" height="32" fill="#005858" />
  <rect x="224" y="224" width="32" height="32" fill="#004747" />
</svg>
