<svg xmlns="http://www.w3.org/2000/svg" width="256" height="256" viewBox="0 0 256 256" shape-rendering="crispEdges" role="img" aria-labelledby="title desc">
  <title id="title">Echoing Pulse in Static</title>
  <desc id="desc">The emotional tone contrasts the clarity of signal with the distraction of noise, employing a palette of navy, black, white, and dim cyan to convey depth and tension. The main collision occurs in the center where smooth tides of blue intersect with scarred patches of black, embodying the duality of disruption and clarity. This translates the seed into an abstract pattern where order tries to surface amidst chaos, evoking the struggle between coherence and interference.</desc>
  <rect width="256" height="256" fill="#FFFFFF" />
  <rect x="0" y="0" width="32" height="32" fill="#001F3F" />
  <rect x="32" y="0" width="32" height="32" fill="#002B5C" />
  <rect x="64" y="0" width="32" height="32" fill="#003C7A" />
  <rect x="96" y="0" width="32" height="32" fill="#004A99" />
  <rect x="128" y="0" width="32" height="32" fill="#005BAF" />
  <rect x="160" y="0" width="32" height="32" fill="#0066C2" />
  <rect x="192" y="0" width="32" height="32" fill="#0078D0" />
  <rect x="224" y="0" width="32" height="32" fill="#0082E0" />
  <rect x="0" y="32" width="32" height="32" fill="#001F3F" />
  <rect x="32" y="32" width="32" height="32" fill="#003C7A" />
  <rect x="64" y="32" width="32" height="32" fill="#005BAF" />
  <rect x="96" y="32" width="32" height="32" fill="#005BAF" />
  <rect x="128" y="32" width="32" height="32" fill="#004A99" />
  <rect x="160" y="32" width="32" height="32" fill="#0078D0" />
  <rect x="192" y="32" width="32" height="32" fill="#0078D0" />
  <rect x="224" y="32" width="32" height="32" fill="#0099E6" />
  <rect x="0" y="64" width="32" height="32" fill="#000000" />
  <rect x="32" y="64" width="32" height="32" fill="#001F3F" />
  <rect x="64" y="64" width="32" height="32" fill="#004A99" />
  <rect x="96" y="64" width="32" height="32" fill="#0078D0" />
  <rect x="128" y="64" width="32" height="32" fill="#005BAF" />
  <rect x="160" y="64" width="32" height="32" fill="#005BAF" />
  <rect x="192" y="64" width="32" height="32" fill="#003C7A" />
  <rect x="224" y="64" width="32" height="32" fill="#005BAF" />
  <rect x="0" y="96" width="32" height="32" fill="#004A99" />
  <rect x="32" y="96" width="32" height="32" fill="#0078D0" />
  <rect x="64" y="96" width="32" height="32" fill="#000000" />
  <rect x="96" y="96" width="32" height="32" fill="#001F3F" />
  <rect x="128" y="96" width="32" height="32" fill="#003C7A" />
  <rect x="160" y="96" width="32" height="32" fill="#005BAF" />
  <rect x="192" y="96" width="32" height="32" fill="#0099E6" />
  <rect x="224" y="96" width="32" height="32" fill="#003C7A" />
  <rect x="0" y="128" width="32" height="32" fill="#001A31" />
  <rect x="32" y="128" width="32" height="32" fill="#003C7A" />
  <rect x="64" y="128" width="32" height="32" fill="#000000" />
  <rect x="96" y="128" width="32" height="32" fill="#001F3F" />
  <rect x="128" y="128" width="32" height="32" fill="#005BAF" />
  <rect x="160" y="128" width="32" height="32" fill="#004A99" />
  <rect x="192" y="128" width="32" height="32" fill="#003C7A" />
  <rect x="224" y="128" width="32" height="32" fill="#005BAF" />
  <rect x="0" y="160" width="32" height="32" fill="#002B5C" />
  <rect x="32" y="160" width="32" height="32" fill="#004A99" />
  <rect x="64" y="160" width="32" height="32" fill="#005BAF" />
  <rect x="96" y="160" width="32" height="32" fill="#0078D0" />
  <rect x="128" y="160" width="32" height="32" fill="#001F3F" />
  <rect x="160" y="160" width="32" height="32" fill="#003C7A" />
  <rect x="192" y="160" width="32" height="32" fill="#0066C2" />
  <rect x="224" y="160" width="32" height="32" fill="#005BAF" />
  <rect x="0" y="192" width="32" height="32" fill="#004A99" />
  <rect x="32" y="192" width="32" height="32" fill="#000000" />
  <rect x="64" y="192" width="32" height="32" fill="#005BAF" />
  <rect x="96" y="192" width="32" height="32" fill="#0078D0" />
  <rect x="128" y="192" width="32" height="32" fill="#002B5C" />
  <rect x="160" y="192" width="32" height="32" fill="#004A99" />
  <rect x="192" y="192" width="32" height="32" fill="#003C7A" />
  <rect x="224" y="192" width="32" height="32" fill="#001F3F" />
  <rect x="0" y="224" width="32" height="32" fill="#000000" />
  <rect x="32" y="224" width="32" height="32" fill="#002B5C" />
  <rect x="64" y="224" width="32" height="32" fill="#003C7A" />
  <rect x="96" y="224" width="32" height="32" fill="#005BAF" />
  <rect x="128" y="224" width="32" height="32" fill="#0078D0" />
  <rect x="160" y="224" width="32" height="32" fill="#0099E6" />
  <rect x="192" y="224" width="32" height="32" fill="#001F3F" />
  <rect x="224" y="224" width="32" height="32" fill="#005BAF" />
</svg>
