<svg xmlns="http://www.w3.org/2000/svg" width="256" height="256" viewBox="0 0 256 256" shape-rendering="crispEdges" role="img" aria-labelledby="title desc">
  <title id="title">Echoing Pulses</title>
  <desc id="desc">The artwork embodies the conflict of clarity (signal) against a background of confusion (noise). The dark blues and blacks represent the chaotic noise, while the dim cyan serves as bright accentuating signals trying to emerge. The central collision of colors creates a chaotic pulse resembling a scarred landscape struggling for clarity. Broken pixels introduce intentional imperfections, reflecting the message that while signals can break, they persist amidst noise, thus crafting a story of resilience and echo.</desc>
  <rect width="256" height="256" fill="#FFFFFF" />
  <rect x="0" y="0" width="32" height="32" fill="#000000" />
  <rect x="32" y="0" width="32" height="32" fill="#1A1A2E" />
  <rect x="64" y="0" width="32" height="32" fill="#16213E" />
  <rect x="96" y="0" width="32" height="32" fill="#0F3460" />
  <rect x="128" y="0" width="32" height="32" fill="#00A8A1" />
  <rect x="160" y="0" width="32" height="32" fill="#00ADB5" />
  <rect x="192" y="0" width="32" height="32" fill="#F5F3F4" />
  <rect x="224" y="0" width="32" height="32" fill="#FFFFFF" />
  <rect x="0" y="32" width="32" height="32" fill="#1D2671" />
  <rect x="32" y="32" width="32" height="32" fill="#6A0572" />
  <rect x="64" y="32" width="32" height="32" fill="#8D3DAF" />
  <rect x="96" y="32" width="32" height="32" fill="#FF6B6B" />
  <rect x="128" y="32" width="32" height="32" fill="#FF9F1C" />
  <rect x="160" y="32" width="32" height="32" fill="#FFB300" />
  <rect x="192" y="32" width="32" height="32" fill="#FF5D73" />
  <rect x="224" y="32" width="32" height="32" fill="#FFFAF1" />
  <rect x="0" y="64" width="32" height="32" fill="#004B87" />
  <rect x="32" y="64" width="32" height="32" fill="#1A6F8D" />
  <rect x="64" y="64" width="32" height="32" fill="#91C8D2" />
  <rect x="96" y="64" width="32" height="32" fill="#A8D9DA" />
  <rect x="128" y="64" width="32" height="32" fill="#0D7377" />
  <rect x="160" y="64" width="32" height="32" fill="#1282A1" />
  <rect x="192" y="64" width="32" height="32" fill="#A6F6F1" />
  <rect x="224" y="64" width="32" height="32" fill="#F0F8FF" />
  <rect x="0" y="96" width="32" height="32" fill="#04B543" />
  <rect x="32" y="96" width="32" height="32" fill="#2C7DA0" />
  <rect x="64" y="96" width="32" height="32" fill="#A9D3D0" />
  <rect x="96" y="96" width="32" height="32" fill="#F71D40" />
  <rect x="128" y="96" width="32" height="32" fill="#2D335D" />
  <rect x="160" y="96" width="32" height="32" fill="#F5C6A0" />
  <rect x="192" y="96" width="32" height="32" fill="#F5F0E1" />
  <rect x="224" y="96" width="32" height="32" fill="#B4B7CD" />
  <rect x="0" y="128" width="32" height="32" fill="#27303A" />
  <rect x="32" y="128" width="32" height="32" fill="#1B6C85" />
  <rect x="64" y="128" width="32" height="32" fill="#C3CFD8" />
  <rect x="96" y="128" width="32" height="32" fill="#D3D5DB" />
  <rect x="128" y="128" width="32" height="32" fill="#6C91B0" />
  <rect x="160" y="128" width="32" height="32" fill="#A3B2A8" />
  <rect x="192" y="128" width="32" height="32" fill="#B8B092" />
  <rect x="224" y="128" width="32" height="32" fill="#F0F0F0" />
  <rect x="0" y="160" width="32" height="32" fill="#0C4C6F" />
  <rect x="32" y="160" width="32" height="32" fill="#185A74" />
  <rect x="64" y="160" width="32" height="32" fill="#3B8B9C" />
  <rect x="96" y="160" width="32" height="32" fill="#659DA0" />
  <rect x="128" y="160" width="32" height="32" fill="#00B07C" />
  <rect x="160" y="160" width="32" height="32" fill="#007B75" />
  <rect x="192" y="160" width="32" height="32" fill="#005B60" />
  <rect x="224" y="160" width="32" height="32" fill="#000000" />
  <rect x="0" y="192" width="32" height="32" fill="#010D1E" />
  <rect x="32" y="192" width="32" height="32" fill="#004C8C" />
  <rect x="64" y="192" width="32" height="32" fill="#5C9BD1" />
  <rect x="96" y="192" width="32" height="32" fill="#C9C2FF" />
  <rect x="128" y="192" width="32" height="32" fill="#9600D6" />
  <rect x="160" y="192" width="32" height="32" fill="#E3F6FB" />
  <rect x="192" y="192" width="32" height="32" fill="#F0E5E5" />
  <rect x="224" y="192" width="32" height="32" fill="#FBF5EE" />
  <rect x="0" y="224" width="32" height="32" fill="#1A202C" />
  <rect x="32" y="224" width="32" height="32" fill="#1E3A4D" />
  <rect x="64" y="224" width="32" height="32" fill="#344B73" />
  <rect x="96" y="224" width="32" height="32" fill="#A0C0D2" />
  <rect x="128" y="224" width="32" height="32" fill="#0D4C75" />
  <rect x="160" y="224" width="32" height="32" fill="#D6DBD7" />
  <rect x="192" y="224" width="32" height="32" fill="#D9DCD9" />
  <rect x="224" y="224" width="32" height="32" fill="#FFFFFF" />
</svg>
