<svg xmlns="http://www.w3.org/2000/svg" width="256" height="256" viewBox="0 0 256 256" shape-rendering="crispEdges" role="img" aria-labelledby="title desc">
  <title id="title">Echoes and Signals</title>
  <desc id="desc">The emotional tone emerges from the struggle between static chaos and a clear, readable pulse. The selected palette of dark navy, black, and dim cyan fosters a sense of depth and isolation, contrasted by stark white accents that symbolize fleeting signals amid noise. The layout reflects a scattered repair path, with bright patches interrupting dense segments, creating a dynamic and uneven flow from left to right. The main collision occurs in the center, where the intense contrast between dark and light colors evokes a feeling of unresolved tension, accentuating the abstract conflict of chaos versus clarity.</desc>
  <rect width="256" height="256" fill="#FFFFFF" />
  <rect x="0" y="0" width="32" height="32" fill="#000000" />
  <rect x="32" y="0" width="32" height="32" fill="#000000" />
  <rect x="64" y="0" width="32" height="32" fill="#000000" />
  <rect x="96" y="0" width="32" height="32" fill="#000000" />
  <rect x="128" y="0" width="32" height="32" fill="#1A1A6E" />
  <rect x="160" y="0" width="32" height="32" fill="#1A1A6E" />
  <rect x="192" y="0" width="32" height="32" fill="#000000" />
  <rect x="224" y="0" width="32" height="32" fill="#000000" />
  <rect x="0" y="32" width="32" height="32" fill="#000000" />
  <rect x="32" y="32" width="32" height="32" fill="#1A1A6E" />
  <rect x="64" y="32" width="32" height="32" fill="#1A1A6E" />
  <rect x="96" y="32" width="32" height="32" fill="#1A1A6E" />
  <rect x="128" y="32" width="32" height="32" fill="#FFFFFF" />
  <rect x="160" y="32" width="32" height="32" fill="#1A1A6E" />
  <rect x="192" y="32" width="32" height="32" fill="#000000" />
  <rect x="224" y="32" width="32" height="32" fill="#000000" />
  <rect x="0" y="64" width="32" height="32" fill="#1A1A6E" />
  <rect x="32" y="64" width="32" height="32" fill="#1A1A6E" />
  <rect x="64" y="64" width="32" height="32" fill="#000000" />
  <rect x="96" y="64" width="32" height="32" fill="#1A1A6E" />
  <rect x="128" y="64" width="32" height="32" fill="#1A1A6E" />
  <rect x="160" y="64" width="32" height="32" fill="#1A1A6E" />
  <rect x="192" y="64" width="32" height="32" fill="#000000" />
  <rect x="224" y="64" width="32" height="32" fill="#000000" />
  <rect x="0" y="96" width="32" height="32" fill="#1A1A6E" />
  <rect x="32" y="96" width="32" height="32" fill="#FFFFFF" />
  <rect x="64" y="96" width="32" height="32" fill="#000000" />
  <rect x="96" y="96" width="32" height="32" fill="#000000" />
  <rect x="128" y="96" width="32" height="32" fill="#1A1A6E" />
  <rect x="160" y="96" width="32" height="32" fill="#1A1A6E" />
  <rect x="192" y="96" width="32" height="32" fill="#1A1A6E" />
  <rect x="224" y="96" width="32" height="32" fill="#1A1A6E" />
  <rect x="0" y="128" width="32" height="32" fill="#000000" />
  <rect x="32" y="128" width="32" height="32" fill="#000000" />
  <rect x="64" y="128" width="32" height="32" fill="#1A1A6E" />
  <rect x="96" y="128" width="32" height="32" fill="#FFFFFF" />
  <rect x="128" y="128" width="32" height="32" fill="#1A1A6E" />
  <rect x="160" y="128" width="32" height="32" fill="#1A1A6E" />
  <rect x="192" y="128" width="32" height="32" fill="#000000" />
  <rect x="224" y="128" width="32" height="32" fill="#1A1A6E" />
  <rect x="0" y="160" width="32" height="32" fill="#1A1A6E" />
  <rect x="32" y="160" width="32" height="32" fill="#000000" />
  <rect x="64" y="160" width="32" height="32" fill="#000000" />
  <rect x="96" y="160" width="32" height="32" fill="#1A1A6E" />
  <rect x="128" y="160" width="32" height="32" fill="#1A1A6E" />
  <rect x="160" y="160" width="32" height="32" fill="#1A1A6E" />
  <rect x="192" y="160" width="32" height="32" fill="#1A1A6E" />
  <rect x="224" y="160" width="32" height="32" fill="#000000" />
  <rect x="0" y="192" width="32" height="32" fill="#000000" />
  <rect x="32" y="192" width="32" height="32" fill="#000000" />
  <rect x="64" y="192" width="32" height="32" fill="#000000" />
  <rect x="96" y="192" width="32" height="32" fill="#000000" />
  <rect x="128" y="192" width="32" height="32" fill="#000000" />
  <rect x="160" y="192" width="32" height="32" fill="#1A1A6E" />
  <rect x="192" y="192" width="32" height="32" fill="#FFFFFF" />
  <rect x="224" y="192" width="32" height="32" fill="#1A1A6E" />
  <rect x="0" y="224" width="32" height="32" fill="#000000" />
  <rect x="32" y="224" width="32" height="32" fill="#1A1A6E" />
  <rect x="64" y="224" width="32" height="32" fill="#1A1A6E" />
  <rect x="96" y="224" width="32" height="32" fill="#1A1A6E" />
  <rect x="128" y="224" width="32" height="32" fill="#000000" />
  <rect x="160" y="224" width="32" height="32" fill="#000000" />
  <rect x="192" y="224" width="32" height="32" fill="#000000" />
  <rect x="224" y="224" width="32" height="32" fill="#000000" />
</svg>
