<svg xmlns="http://www.w3.org/2000/svg" width="256" height="256" viewBox="0 0 256 256" shape-rendering="crispEdges" role="img" aria-labelledby="title desc">
  <title id="title">Tension in Flux</title>
  <desc id="desc">The artwork explores the emotional duality of restlessness and peace through a palette that contrasts dark navy and black with bright dim cyan and white accents. The dark colors represent the weight of restlessness, while the lighter hues suggest fleeting moments of peace. The pattern is a rhythmic braid that intersects with a subtle barcode element, creating tension and fluidity within the grid. The central collision occurs where brighter colors spark against darker areas, echoing a struggle between calm and chaos.</desc>
  <rect width="256" height="256" fill="#FFFFFF" />
  <rect x="0" y="0" width="32" height="32" fill="#000000" />
  <rect x="32" y="0" width="32" height="32" fill="#000F1D" />
  <rect x="64" y="0" width="32" height="32" fill="#002244" />
  <rect x="96" y="0" width="32" height="32" fill="#002B38" />
  <rect x="128" y="0" width="32" height="32" fill="#003A5C" />
  <rect x="160" y="0" width="32" height="32" fill="#004472" />
  <rect x="192" y="0" width="32" height="32" fill="#008B8B" />
  <rect x="224" y="0" width="32" height="32" fill="#A9D3DB" />
  <rect x="0" y="32" width="32" height="32" fill="#001B26" />
  <rect x="32" y="32" width="32" height="32" fill="#000F1D" />
  <rect x="64" y="32" width="32" height="32" fill="#004057" />
  <rect x="96" y="32" width="32" height="32" fill="#005E77" />
  <rect x="128" y="32" width="32" height="32" fill="#007D99" />
  <rect x="160" y="32" width="32" height="32" fill="#0096AE" />
  <rect x="192" y="32" width="32" height="32" fill="#005046" />
  <rect x="224" y="32" width="32" height="32" fill="#D0E8ED" />
  <rect x="0" y="64" width="32" height="32" fill="#111D27" />
  <rect x="32" y="64" width="32" height="32" fill="#004C66" />
  <rect x="64" y="64" width="32" height="32" fill="#005F72" />
  <rect x="96" y="64" width="32" height="32" fill="#B1D5DF" />
  <rect x="128" y="64" width="32" height="32" fill="#009EAC" />
  <rect x="160" y="64" width="32" height="32" fill="#003E4D" />
  <rect x="192" y="64" width="32" height="32" fill="#1A2D35" />
  <rect x="224" y="64" width="32" height="32" fill="#FFFFFF" />
  <rect x="0" y="96" width="32" height="32" fill="#192E35" />
  <rect x="32" y="96" width="32" height="32" fill="#004B64" />
  <rect x="64" y="96" width="32" height="32" fill="#003D42" />
  <rect x="96" y="96" width="32" height="32" fill="#005F75" />
  <rect x="128" y="96" width="32" height="32" fill="#66C0C3" />
  <rect x="160" y="96" width="32" height="32" fill="#004258" />
  <rect x="192" y="96" width="32" height="32" fill="#003133" />
  <rect x="224" y="96" width="32" height="32" fill="#B8DFE4" />
  <rect x="0" y="128" width="32" height="32" fill="#000000" />
  <rect x="32" y="128" width="32" height="32" fill="#003A40" />
  <rect x="64" y="128" width="32" height="32" fill="#004058" />
  <rect x="96" y="128" width="32" height="32" fill="#004C5C" />
  <rect x="128" y="128" width="32" height="32" fill="#005C6D" />
  <rect x="160" y="128" width="32" height="32" fill="#007E8B" />
  <rect x="192" y="128" width="32" height="32" fill="#B1DAE4" />
  <rect x="224" y="128" width="32" height="32" fill="#A8C8CC" />
  <rect x="0" y="160" width="32" height="32" fill="#00454E" />
  <rect x="32" y="160" width="32" height="32" fill="#003B40" />
  <rect x="64" y="160" width="32" height="32" fill="#003244" />
  <rect x="96" y="160" width="32" height="32" fill="#005A6C" />
  <rect x="128" y="160" width="32" height="32" fill="#009BBE" />
  <rect x="160" y="160" width="32" height="32" fill="#003847" />
  <rect x="192" y="160" width="32" height="32" fill="#67D3DB" />
  <rect x="224" y="160" width="32" height="32" fill="#A8EDFA" />
  <rect x="0" y="192" width="32" height="32" fill="#0F2730" />
  <rect x="32" y="192" width="32" height="32" fill="#4A8FA2" />
  <rect x="64" y="192" width="32" height="32" fill="#00B1D4" />
  <rect x="96" y="192" width="32" height="32" fill="#005A6D" />
  <rect x="128" y="192" width="32" height="32" fill="#006C77" />
  <rect x="160" y="192" width="32" height="32" fill="#009FA8" />
  <rect x="192" y="192" width="32" height="32" fill="#008C9E" />
  <rect x="224" y="192" width="32" height="32" fill="#009CBA" />
  <rect x="0" y="224" width="32" height="32" fill="#000000" />
  <rect x="32" y="224" width="32" height="32" fill="#003F45" />
  <rect x="64" y="224" width="32" height="32" fill="#00506F" />
  <rect x="96" y="224" width="32" height="32" fill="#007C89" />
  <rect x="128" y="224" width="32" height="32" fill="#006A78" />
  <rect x="160" y="224" width="32" height="32" fill="#009FB1" />
  <rect x="192" y="224" width="32" height="32" fill="#A0D8E1" />
  <rect x="224" y="224" width="32" height="32" fill="#E4F5F9" />
</svg>
