<svg xmlns="http://www.w3.org/2000/svg" width="256" height="256" viewBox="0 0 256 256" shape-rendering="crispEdges" role="img" aria-labelledby="title desc">
  <title id="title">Threshold of Exposure</title>
  <desc id="desc">The emotional tone navigates the tension between vulnerability and strength, illustrated through a palette of burnt orange and dark red representing strength, standing against charcoal and gold, which symbolize vulnerability. The main collision occurs in the center, where structured 'noise' patterns blur into softer 'ash_field' textures, creating an echo of strength meeting vulnerability. The broken pixels accentuate moments of disruption in an otherwise balanced grid, suggesting a threshold where these emotions coalesce.</desc>
  <rect width="256" height="256" fill="#FFFFFF" />
  <rect x="0" y="0" width="32" height="32" fill="#4A2C13" />
  <rect x="32" y="0" width="32" height="32" fill="#7A471C" />
  <rect x="64" y="0" width="32" height="32" fill="#A76D33" />
  <rect x="96" y="0" width="32" height="32" fill="#DAA264" />
  <rect x="128" y="0" width="32" height="32" fill="#C49344" />
  <rect x="160" y="0" width="32" height="32" fill="#A76A22" />
  <rect x="192" y="0" width="32" height="32" fill="#81401D" />
  <rect x="224" y="0" width="32" height="32" fill="#C8562D" />
  <rect x="0" y="32" width="32" height="32" fill="#A5381D" />
  <rect x="32" y="32" width="32" height="32" fill="#E47D3D" />
  <rect x="64" y="32" width="32" height="32" fill="#FFB04A" />
  <rect x="96" y="32" width="32" height="32" fill="#F4D0A8" />
  <rect x="128" y="32" width="32" height="32" fill="#DAA264" />
  <rect x="160" y="32" width="32" height="32" fill="#C49344" />
  <rect x="192" y="32" width="32" height="32" fill="#6A3817" />
  <rect x="224" y="32" width="32" height="32" fill="#4A2C13" />
  <rect x="0" y="64" width="32" height="32" fill="#7A471C" />
  <rect x="32" y="64" width="32" height="32" fill="#E4B68B" />
  <rect x="64" y="64" width="32" height="32" fill="#FFCBA5" />
  <rect x="96" y="64" width="32" height="32" fill="#AB9033" />
  <rect x="128" y="64" width="32" height="32" fill="#DAA264" />
  <rect x="160" y="64" width="32" height="32" fill="#C49344" />
  <rect x="192" y="64" width="32" height="32" fill="#8F5E35" />
  <rect x="224" y="64" width="32" height="32" fill="#4A2C13" />
  <rect x="0" y="96" width="32" height="32" fill="#4A2C13" />
  <rect x="32" y="96" width="32" height="32" fill="#3B2121" />
  <rect x="64" y="96" width="32" height="32" fill="#DAA264" />
  <rect x="96" y="96" width="32" height="32" fill="#C47632" />
  <rect x="128" y="96" width="32" height="32" fill="#A86B29" />
  <rect x="160" y="96" width="32" height="32" fill="#9B8A5D" />
  <rect x="192" y="96" width="32" height="32" fill="#7A471C" />
  <rect x="224" y="96" width="32" height="32" fill="#C56A3C" />
  <rect x="0" y="128" width="32" height="32" fill="#4E3D32" />
  <rect x="32" y="128" width="32" height="32" fill="#EDBF7F" />
  <rect x="64" y="128" width="32" height="32" fill="#FFAB57" />
  <rect x="96" y="128" width="32" height="32" fill="#F4D0A8" />
  <rect x="128" y="128" width="32" height="32" fill="#DAA264" />
  <rect x="160" y="128" width="32" height="32" fill="#BFA95A" />
  <rect x="192" y="128" width="32" height="32" fill="#918F8C" />
  <rect x="224" y="128" width="32" height="32" fill="#5A4134" />
  <rect x="0" y="160" width="32" height="32" fill="#C2591D" />
  <rect x="32" y="160" width="32" height="32" fill="#BDA249" />
  <rect x="64" y="160" width="32" height="32" fill="#4A4D47" />
  <rect x="96" y="160" width="32" height="32" fill="#7A6E5F" />
  <rect x="128" y="160" width="32" height="32" fill="#4A2C13" />
  <rect x="160" y="160" width="32" height="32" fill="#C09380" />
  <rect x="192" y="160" width="32" height="32" fill="#D4A674" />
  <rect x="224" y="160" width="32" height="32" fill="#FF4D00" />
  <rect x="0" y="192" width="32" height="32" fill="#3E1F1F" />
  <rect x="32" y="192" width="32" height="32" fill="#A54D36" />
  <rect x="64" y="192" width="32" height="32" fill="#A68D5D" />
  <rect x="96" y="192" width="32" height="32" fill="#DAA264" />
  <rect x="128" y="192" width="32" height="32" fill="#F4A628" />
  <rect x="160" y="192" width="32" height="32" fill="#C49344" />
  <rect x="192" y="192" width="32" height="32" fill="#9B8A5D" />
  <rect x="224" y="192" width="32" height="32" fill="#4A2C13" />
  <rect x="0" y="224" width="32" height="32" fill="#3B2121" />
  <rect x="32" y="224" width="32" height="32" fill="#7C4C22" />
  <rect x="64" y="224" width="32" height="32" fill="#9D723B" />
  <rect x="96" y="224" width="32" height="32" fill="#7A471C" />
  <rect x="128" y="224" width="32" height="32" fill="#E4BF8B" />
  <rect x="160" y="224" width="32" height="32" fill="#FF6F31" />
  <rect x="192" y="224" width="32" height="32" fill="#C49344" />
  <rect x="224" y="224" width="32" height="32" fill="#6A3817" />
</svg>
