<svg xmlns="http://www.w3.org/2000/svg" width="256" height="256" viewBox="0 0 256 256" shape-rendering="crispEdges" role="img" aria-labelledby="title desc">
  <title id="title">Echoes of Clarity and Confusion</title>
  <desc id="desc">This abstract composition explores the emotional tension between clarity and confusion through a palette of electric blue, lime, black, and magenta. The use of a symmetrical layout disrupted by a few 'broken' pixels symbolizes moments of disarray amid potential clarity. The contrasting colors collide, creating areas of agitation and peace, with the pulse of rhythm reflected in alternating light and dark segments. The pattern unfolds with a feeling of noise on one side, and more orderly elements on the other, evoking an ongoing dialogue between shapes and colors that express nuanced emotional states.</desc>
  <rect width="256" height="256" fill="#FFFFFF" />
  <rect x="0" y="0" width="32" height="32" fill="#000000" />
  <rect x="32" y="0" width="32" height="32" fill="#00FF00" />
  <rect x="64" y="0" width="32" height="32" fill="#000000" />
  <rect x="96" y="0" width="32" height="32" fill="#0D00FF" />
  <rect x="128" y="0" width="32" height="32" fill="#000000" />
  <rect x="160" y="0" width="32" height="32" fill="#00FF00" />
  <rect x="192" y="0" width="32" height="32" fill="#000000" />
  <rect x="224" y="0" width="32" height="32" fill="#0D00FF" />
  <rect x="0" y="32" width="32" height="32" fill="#0D00FF" />
  <rect x="32" y="32" width="32" height="32" fill="#000000" />
  <rect x="64" y="32" width="32" height="32" fill="#00FF00" />
  <rect x="96" y="32" width="32" height="32" fill="#000000" />
  <rect x="128" y="32" width="32" height="32" fill="#00FF00" />
  <rect x="160" y="32" width="32" height="32" fill="#0D00FF" />
  <rect x="192" y="32" width="32" height="32" fill="#000000" />
  <rect x="224" y="32" width="32" height="32" fill="#00FF00" />
  <rect x="0" y="64" width="32" height="32" fill="#0D00FF" />
  <rect x="32" y="64" width="32" height="32" fill="#000000" />
  <rect x="64" y="64" width="32" height="32" fill="#00FF00" />
  <rect x="96" y="64" width="32" height="32" fill="#000000" />
  <rect x="128" y="64" width="32" height="32" fill="#0D00FF" />
  <rect x="160" y="64" width="32" height="32" fill="#00FF00" />
  <rect x="192" y="64" width="32" height="32" fill="#0D00FF" />
  <rect x="224" y="64" width="32" height="32" fill="#000000" />
  <rect x="0" y="96" width="32" height="32" fill="#00FF00" />
  <rect x="32" y="96" width="32" height="32" fill="#0D00FF" />
  <rect x="64" y="96" width="32" height="32" fill="#000000" />
  <rect x="96" y="96" width="32" height="32" fill="#00FF00" />
  <rect x="128" y="96" width="32" height="32" fill="#0D00FF" />
  <rect x="160" y="96" width="32" height="32" fill="#000000" />
  <rect x="192" y="96" width="32" height="32" fill="#00FF00" />
  <rect x="224" y="96" width="32" height="32" fill="#0D00FF" />
  <rect x="0" y="128" width="32" height="32" fill="#000000" />
  <rect x="32" y="128" width="32" height="32" fill="#00FF00" />
  <rect x="64" y="128" width="32" height="32" fill="#0D00FF" />
  <rect x="96" y="128" width="32" height="32" fill="#000000" />
  <rect x="128" y="128" width="32" height="32" fill="#00FF00" />
  <rect x="160" y="128" width="32" height="32" fill="#0D00FF" />
  <rect x="192" y="128" width="32" height="32" fill="#000000" />
  <rect x="224" y="128" width="32" height="32" fill="#00FF00" />
  <rect x="0" y="160" width="32" height="32" fill="#00FF00" />
  <rect x="32" y="160" width="32" height="32" fill="#0D00FF" />
  <rect x="64" y="160" width="32" height="32" fill="#000000" />
  <rect x="96" y="160" width="32" height="32" fill="#0D00FF" />
  <rect x="128" y="160" width="32" height="32" fill="#000000" />
  <rect x="160" y="160" width="32" height="32" fill="#00FF00" />
  <rect x="192" y="160" width="32" height="32" fill="#0D00FF" />
  <rect x="224" y="160" width="32" height="32" fill="#000000" />
  <rect x="0" y="192" width="32" height="32" fill="#0D00FF" />
  <rect x="32" y="192" width="32" height="32" fill="#000000" />
  <rect x="64" y="192" width="32" height="32" fill="#00FF00" />
  <rect x="96" y="192" width="32" height="32" fill="#000000" />
  <rect x="128" y="192" width="32" height="32" fill="#0D00FF" />
  <rect x="160" y="192" width="32" height="32" fill="#00FF00" />
  <rect x="192" y="192" width="32" height="32" fill="#000000" />
  <rect x="224" y="192" width="32" height="32" fill="#000000" />
  <rect x="0" y="224" width="32" height="32" fill="#000000" />
  <rect x="32" y="224" width="32" height="32" fill="#00FF00" />
  <rect x="64" y="224" width="32" height="32" fill="#0D00FF" />
  <rect x="96" y="224" width="32" height="32" fill="#000000" />
  <rect x="128" y="224" width="32" height="32" fill="#0D00FF" />
  <rect x="160" y="224" width="32" height="32" fill="#00FF00" />
  <rect x="192" y="224" width="32" height="32" fill="#000000" />
  <rect x="224" y="224" width="32" height="32" fill="#0D00FF" />
</svg>
