<svg xmlns="http://www.w3.org/2000/svg" width="256" height="256" viewBox="0 0 256 256" shape-rendering="crispEdges" role="img" aria-labelledby="title desc">
  <title id="title">Echoes of Contrast</title>
  <desc id="desc">This piece embodies the tension between restlessness and peace through a calculated clash of colors and patterns. The palette merges warm coral and soft amber with the cooler tones of blue-black and cold slate, creating a visual narrative of conflict and balance. The central collision emerges from the dynamic tide pattern of restlessness (represented by warmer hues) against a backdrop of soft, quiet noise symbolizing peace. The edges and corners bear marks of erosion, emphasizing movement's disruptive nature while maintaining an undercurrent of stability in the center. This artistic interplay reflects the essence of memory and motion, creating an echo of emotional intensity that invites exploration and introspection.</desc>
  <rect width="256" height="256" fill="#FFFFFF" />
  <rect x="0" y="0" width="32" height="32" fill="#FF6F61" />
  <rect x="32" y="0" width="32" height="32" fill="#FFD700" />
  <rect x="64" y="0" width="32" height="32" fill="#8B1F1F" />
  <rect x="96" y="0" width="32" height="32" fill="#1F1B3B" />
  <rect x="128" y="0" width="32" height="32" fill="#FFFFF0" />
  <rect x="160" y="0" width="32" height="32" fill="#FAEBD7" />
  <rect x="192" y="0" width="32" height="32" fill="#82BFFF" />
  <rect x="224" y="0" width="32" height="32" fill="#003366" />
  <rect x="0" y="32" width="32" height="32" fill="#C85833" />
  <rect x="32" y="32" width="32" height="32" fill="#E6E6FA" />
  <rect x="64" y="32" width="32" height="32" fill="#A9A9A9" />
  <rect x="96" y="32" width="32" height="32" fill="#B0C4DE" />
  <rect x="128" y="32" width="32" height="32" fill="#FFF8DC" />
  <rect x="160" y="32" width="32" height="32" fill="#556B2F" />
  <rect x="192" y="32" width="32" height="32" fill="#708090" />
  <rect x="224" y="32" width="32" height="32" fill="#6B8E23" />
  <rect x="0" y="64" width="32" height="32" fill="#5F9EA0" />
  <rect x="32" y="64" width="32" height="32" fill="#F0E68C" />
  <rect x="64" y="64" width="32" height="32" fill="#87CEEB" />
  <rect x="96" y="64" width="32" height="32" fill="#2F4F4F" />
  <rect x="128" y="64" width="32" height="32" fill="#E6E6FA" />
  <rect x="160" y="64" width="32" height="32" fill="#FF6347" />
  <rect x="192" y="64" width="32" height="32" fill="#8B0000" />
  <rect x="224" y="64" width="32" height="32" fill="#7FFF00" />
  <rect x="0" y="96" width="32" height="32" fill="#F5F5F5" />
  <rect x="32" y="96" width="32" height="32" fill="#000000" />
  <rect x="64" y="96" width="32" height="32" fill="#7B68EE" />
  <rect x="96" y="96" width="32" height="32" fill="#DAA520" />
  <rect x="128" y="96" width="32" height="32" fill="#FF4500" />
  <rect x="160" y="96" width="32" height="32" fill="#B22222" />
  <rect x="192" y="96" width="32" height="32" fill="#FFF5EE" />
  <rect x="224" y="96" width="32" height="32" fill="#4682B4" />
  <rect x="0" y="128" width="32" height="32" fill="#D3D3D3" />
  <rect x="32" y="128" width="32" height="32" fill="#3CB371" />
  <rect x="64" y="128" width="32" height="32" fill="#FFE4E1" />
  <rect x="96" y="128" width="32" height="32" fill="#CD5C5C" />
  <rect x="128" y="128" width="32" height="32" fill="#191970" />
  <rect x="160" y="128" width="32" height="32" fill="#D8BFD8" />
  <rect x="192" y="128" width="32" height="32" fill="#F0F8FF" />
  <rect x="224" y="128" width="32" height="32" fill="#C71585" />
  <rect x="0" y="160" width="32" height="32" fill="#FAFAD2" />
  <rect x="32" y="160" width="32" height="32" fill="#63B8FF" />
  <rect x="64" y="160" width="32" height="32" fill="#B0E0E6" />
  <rect x="96" y="160" width="32" height="32" fill="#E0FFFF" />
  <rect x="128" y="160" width="32" height="32" fill="#4682B4" />
  <rect x="160" y="160" width="32" height="32" fill="#C2B280" />
  <rect x="192" y="160" width="32" height="32" fill="#FF69B4" />
  <rect x="224" y="160" width="32" height="32" fill="#FFB6C1" />
  <rect x="0" y="192" width="32" height="32" fill="#A0522D" />
  <rect x="32" y="192" width="32" height="32" fill="#CD853F" />
  <rect x="64" y="192" width="32" height="32" fill="#8FBC8F" />
  <rect x="96" y="192" width="32" height="32" fill="#F5FFFA" />
  <rect x="128" y="192" width="32" height="32" fill="#98FB98" />
  <rect x="160" y="192" width="32" height="32" fill="#16A085" />
  <rect x="192" y="192" width="32" height="32" fill="#D2691E" />
  <rect x="224" y="192" width="32" height="32" fill="#BEBEBE" />
  <rect x="0" y="224" width="32" height="32" fill="#000080" />
  <rect x="32" y="224" width="32" height="32" fill="#FFDB58" />
  <rect x="64" y="224" width="32" height="32" fill="#B8860B" />
  <rect x="96" y="224" width="32" height="32" fill="#FF4500" />
  <rect x="128" y="224" width="32" height="32" fill="#DEB887" />
  <rect x="160" y="224" width="32" height="32" fill="#FFF5EE" />
  <rect x="192" y="224" width="32" height="32" fill="#7CFC00" />
  <rect x="224" y="224" width="32" height="32" fill="#458B74" />
</svg>
