<svg xmlns="http://www.w3.org/2000/svg" width="256" height="256" viewBox="0 0 256 256" shape-rendering="crispEdges" role="img" aria-labelledby="title desc">
  <title id="title">Pressure and Release</title>
  <desc id="desc">This abstract composition conveys the tension between control and surrender through a vibrant palette of yellows and blues. The dominant deep blue fields represent control with layered clusters, creating a densely packed left side, while the softer yellows represent surrender, gently spilling toward the right. The contrasting warm and cool tones collide at the center, creating a visual stutter, symbolizing the struggle between contained pressure and an urge to yield. Broken pixels add imperfection, embodying the intricate nature of this emotional conflict. The composition is anchored by a thicker outline on the left, signifying resilience, while the loosened edges speak to vulnerability, capturing the essence of the emotional interplay suggested by the seed.</desc>
  <rect width="256" height="256" fill="#FFFFFF" />
  <rect x="0" y="0" width="32" height="32" fill="#5C6BC0" />
  <rect x="32" y="0" width="32" height="32" fill="#1E88E5" />
  <rect x="64" y="0" width="32" height="32" fill="#FFEB3B" />
  <rect x="96" y="0" width="32" height="32" fill="#FF9800" />
  <rect x="128" y="0" width="32" height="32" fill="#FF7043" />
  <rect x="160" y="0" width="32" height="32" fill="#FFC107" />
  <rect x="192" y="0" width="32" height="32" fill="#66BB6A" />
  <rect x="224" y="0" width="32" height="32" fill="#B2FF59" />
  <rect x="0" y="32" width="32" height="32" fill="#5C6BC0" />
  <rect x="32" y="32" width="32" height="32" fill="#1E88E5" />
  <rect x="64" y="32" width="32" height="32" fill="#FFEB3B" />
  <rect x="96" y="32" width="32" height="32" fill="#FF9800" />
  <rect x="128" y="32" width="32" height="32" fill="#FF7043" />
  <rect x="160" y="32" width="32" height="32" fill="#FFC107" />
  <rect x="192" y="32" width="32" height="32" fill="#66BB6A" />
  <rect x="224" y="32" width="32" height="32" fill="#FFCA28" />
  <rect x="0" y="64" width="32" height="32" fill="#1E88E5" />
  <rect x="32" y="64" width="32" height="32" fill="#B2FF59" />
  <rect x="64" y="64" width="32" height="32" fill="#FF8117" />
  <rect x="96" y="64" width="32" height="32" fill="#FFD740" />
  <rect x="128" y="64" width="32" height="32" fill="#81C784" />
  <rect x="160" y="64" width="32" height="32" fill="#FFAB40" />
  <rect x="192" y="64" width="32" height="32" fill="#FFC107" />
  <rect x="224" y="64" width="32" height="32" fill="#FFDA44" />
  <rect x="0" y="96" width="32" height="32" fill="#005B96" />
  <rect x="32" y="96" width="32" height="32" fill="#D32F2F" />
  <rect x="64" y="96" width="32" height="32" fill="#FFC107" />
  <rect x="96" y="96" width="32" height="32" fill="#FF5722" />
  <rect x="128" y="96" width="32" height="32" fill="#FFC107" />
  <rect x="160" y="96" width="32" height="32" fill="#B0BEC5" />
  <rect x="192" y="96" width="32" height="32" fill="#B2FF59" />
  <rect x="224" y="96" width="32" height="32" fill="#FFAB00" />
  <rect x="0" y="128" width="32" height="32" fill="#1E88E5" />
  <rect x="32" y="128" width="32" height="32" fill="#FFEB3B" />
  <rect x="64" y="128" width="32" height="32" fill="#FF7043" />
  <rect x="96" y="128" width="32" height="32" fill="#FF5722" />
  <rect x="128" y="128" width="32" height="32" fill="#D32F2F" />
  <rect x="160" y="128" width="32" height="32" fill="#FFCA28" />
  <rect x="192" y="128" width="32" height="32" fill="#B0BEC5" />
  <rect x="224" y="128" width="32" height="32" fill="#D32F2F" />
  <rect x="0" y="160" width="32" height="32" fill="#FFD740" />
  <rect x="32" y="160" width="32" height="32" fill="#C6FF00" />
  <rect x="64" y="160" width="32" height="32" fill="#B2FF59" />
  <rect x="96" y="160" width="32" height="32" fill="#FF7043" />
  <rect x="128" y="160" width="32" height="32" fill="#01579B" />
  <rect x="160" y="160" width="32" height="32" fill="#D32F2F" />
  <rect x="192" y="160" width="32" height="32" fill="#FFDA44" />
  <rect x="224" y="160" width="32" height="32" fill="#FFAB40" />
  <rect x="0" y="192" width="32" height="32" fill="#FFEB3B" />
  <rect x="32" y="192" width="32" height="32" fill="#FFC107" />
  <rect x="64" y="192" width="32" height="32" fill="#5C6BC0" />
  <rect x="96" y="192" width="32" height="32" fill="#FF5722" />
  <rect x="128" y="192" width="32" height="32" fill="#B2FF59" />
  <rect x="160" y="192" width="32" height="32" fill="#F57F17" />
  <rect x="192" y="192" width="32" height="32" fill="#4CAF50" />
  <rect x="224" y="192" width="32" height="32" fill="#FF7043" />
  <rect x="0" y="224" width="32" height="32" fill="#1E88E5" />
  <rect x="32" y="224" width="32" height="32" fill="#005B96" />
  <rect x="64" y="224" width="32" height="32" fill="#64DD17" />
  <rect x="96" y="224" width="32" height="32" fill="#FF5722" />
  <rect x="128" y="224" width="32" height="32" fill="#FF9800" />
  <rect x="160" y="224" width="32" height="32" fill="#FFEB3B" />
  <rect x="192" y="224" width="32" height="32" fill="#FFD740" />
  <rect x="224" y="224" width="32" height="32" fill="#FF7043" />
</svg>
