<svg xmlns="http://www.w3.org/2000/svg" width="256" height="256" viewBox="0 0 256 256" shape-rendering="crispEdges" role="img" aria-labelledby="title desc">
  <title id="title">Convergence of Tension</title>
  <desc id="desc">This piece embodies the emotional dichotomy of joy and grief. The bright yellows and oranges at the center represent joy, with a ring pattern suggesting warmth and liveliness. In contrast, muted purples and deep blues mix at the edges, illustrated by a noise pattern that evokes the fragmented nature of grief. The tension lies in the clash between the vibrant center and the somber perimeter, symbolizing the struggle between hope and despair. As the pixels transition from bottom to top, the composition suggests a hopeful rise amid complex emotions, with hard edges enhancing the sense of conflict. Negative space is preserved to facilitate the emotional contrast, allowing the viewer to breathe amidst the chaos.</desc>
  <rect width="256" height="256" fill="#FFFFFF" />
  <rect x="0" y="0" width="32" height="32" fill="#FFEA00" />
  <rect x="32" y="0" width="32" height="32" fill="#FFBC00" />
  <rect x="64" y="0" width="32" height="32" fill="#F78F00" />
  <rect x="96" y="0" width="32" height="32" fill="#FF6F00" />
  <rect x="128" y="0" width="32" height="32" fill="#EB5A00" />
  <rect x="160" y="0" width="32" height="32" fill="#FD3A00" />
  <rect x="192" y="0" width="32" height="32" fill="#E02900" />
  <rect x="224" y="0" width="32" height="32" fill="#9B1E00" />
  <rect x="0" y="32" width="32" height="32" fill="#0050AF" />
  <rect x="32" y="32" width="32" height="32" fill="#004591" />
  <rect x="64" y="32" width="32" height="32" fill="#003462" />
  <rect x="96" y="32" width="32" height="32" fill="#002A56" />
  <rect x="128" y="32" width="32" height="32" fill="#001F4F" />
  <rect x="160" y="32" width="32" height="32" fill="#00183F" />
  <rect x="192" y="32" width="32" height="32" fill="#001330" />
  <rect x="224" y="32" width="32" height="32" fill="#00101C" />
  <rect x="0" y="64" width="32" height="32" fill="#FFDD00" />
  <rect x="32" y="64" width="32" height="32" fill="#FFBA00" />
  <rect x="64" y="64" width="32" height="32" fill="#FF9D00" />
  <rect x="96" y="64" width="32" height="32" fill="#FF8600" />
  <rect x="128" y="64" width="32" height="32" fill="#FF7B00" />
  <rect x="160" y="64" width="32" height="32" fill="#FF6700" />
  <rect x="192" y="64" width="32" height="32" fill="#FF5D00" />
  <rect x="224" y="64" width="32" height="32" fill="#FF4E00" />
  <rect x="0" y="96" width="32" height="32" fill="#00274F" />
  <rect x="32" y="96" width="32" height="32" fill="#00305C" />
  <rect x="64" y="96" width="32" height="32" fill="#003665" />
  <rect x="96" y="96" width="32" height="32" fill="#00406F" />
  <rect x="128" y="96" width="32" height="32" fill="#004B7C" />
  <rect x="160" y="96" width="32" height="32" fill="#005686" />
  <rect x="192" y="96" width="32" height="32" fill="#006699" />
  <rect x="224" y="96" width="32" height="32" fill="#0079AB" />
  <rect x="0" y="128" width="32" height="32" fill="#FFDF5E" />
  <rect x="32" y="128" width="32" height="32" fill="#FFCE45" />
  <rect x="64" y="128" width="32" height="32" fill="#FCB159" />
  <rect x="96" y="128" width="32" height="32" fill="#FC9E3E" />
  <rect x="128" y="128" width="32" height="32" fill="#FC8438" />
  <rect x="160" y="128" width="32" height="32" fill="#FB691C" />
  <rect x="192" y="128" width="32" height="32" fill="#FB5E2D" />
  <rect x="224" y="128" width="32" height="32" fill="#FA47B2" />
  <rect x="0" y="160" width="32" height="32" fill="#001F60" />
  <rect x="32" y="160" width="32" height="32" fill="#001B5A" />
  <rect x="64" y="160" width="32" height="32" fill="#001B62" />
  <rect x="96" y="160" width="32" height="32" fill="#001C6C" />
  <rect x="128" y="160" width="32" height="32" fill="#001D77" />
  <rect x="160" y="160" width="32" height="32" fill="#001E7F" />
  <rect x="192" y="160" width="32" height="32" fill="#002F9B" />
  <rect x="224" y="160" width="32" height="32" fill="#003BCD" />
  <rect x="0" y="192" width="32" height="32" fill="#FFEC78" />
  <rect x="32" y="192" width="32" height="32" fill="#FFDC5C" />
  <rect x="64" y="192" width="32" height="32" fill="#FFCA4E" />
  <rect x="96" y="192" width="32" height="32" fill="#FF8933" />
  <rect x="128" y="192" width="32" height="32" fill="#FF7B2B" />
  <rect x="160" y="192" width="32" height="32" fill="#FF5E27" />
  <rect x="192" y="192" width="32" height="32" fill="#FF8000" />
  <rect x="224" y="192" width="32" height="32" fill="#FFA200" />
  <rect x="0" y="224" width="32" height="32" fill="#003B51" />
  <rect x="32" y="224" width="32" height="32" fill="#003A67" />
  <rect x="64" y="224" width="32" height="32" fill="#00387D" />
  <rect x="96" y="224" width="32" height="32" fill="#003688" />
  <rect x="128" y="224" width="32" height="32" fill="#00359F" />
  <rect x="160" y="224" width="32" height="32" fill="#0032B2" />
  <rect x="192" y="224" width="32" height="32" fill="#002FC0" />
  <rect x="224" y="224" width="32" height="32" fill="#001E8B" />
</svg>
