<svg xmlns="http://www.w3.org/2000/svg" width="256" height="256" viewBox="0 0 256 256" shape-rendering="crispEdges" role="img" aria-labelledby="title desc">
  <title id="title">Tension Releasing</title>
  <desc id="desc">The artwork explores the emotional dynamic of collision through contrasting colors that create a sense of pressure and release. The palette, consisting of black, dark violet, soft gold, and pale green, reflects the tension between fear and hope. The layout of the inner core and outer frame illustrates loneliness surrounded by connection, creating a duality of emotions. The use of broken pixels adds an element of imperfection, enhancing the sense of disruption across the canvas. Every pixel's placement contributes to a rhythm of movement that feels both introspective and expansive.</desc>
  <rect width="256" height="256" fill="#FFFFFF" />
  <rect x="0" y="0" width="32" height="32" fill="#000000" />
  <rect x="32" y="0" width="32" height="32" fill="#3D0052" />
  <rect x="64" y="0" width="32" height="32" fill="#7F1C5D" />
  <rect x="96" y="0" width="32" height="32" fill="#A0533C" />
  <rect x="128" y="0" width="32" height="32" fill="#BCCDAE" />
  <rect x="160" y="0" width="32" height="32" fill="#DFE7A5" />
  <rect x="192" y="0" width="32" height="32" fill="#F0E68A" />
  <rect x="224" y="0" width="32" height="32" fill="#FFFFFF" />
  <rect x="0" y="32" width="32" height="32" fill="#000000" />
  <rect x="32" y="32" width="32" height="32" fill="#3D0052" />
  <rect x="64" y="32" width="32" height="32" fill="#7F1C5D" />
  <rect x="96" y="32" width="32" height="32" fill="#A0533C" />
  <rect x="128" y="32" width="32" height="32" fill="#BCCDAE" />
  <rect x="160" y="32" width="32" height="32" fill="#DFE7A5" />
  <rect x="192" y="32" width="32" height="32" fill="#F0E68A" />
  <rect x="224" y="32" width="32" height="32" fill="#FFFFFF" />
  <rect x="0" y="64" width="32" height="32" fill="#000000" />
  <rect x="32" y="64" width="32" height="32" fill="#3D0052" />
  <rect x="64" y="64" width="32" height="32" fill="#7F1C5D" />
  <rect x="96" y="64" width="32" height="32" fill="#A0533C" />
  <rect x="128" y="64" width="32" height="32" fill="#BCCDAE" />
  <rect x="160" y="64" width="32" height="32" fill="#DFE7A5" />
  <rect x="192" y="64" width="32" height="32" fill="#F0E68A" />
  <rect x="224" y="64" width="32" height="32" fill="#FFFFFF" />
  <rect x="0" y="96" width="32" height="32" fill="#000000" />
  <rect x="32" y="96" width="32" height="32" fill="#3D0052" />
  <rect x="64" y="96" width="32" height="32" fill="#7F1C5D" />
  <rect x="96" y="96" width="32" height="32" fill="#A0533C" />
  <rect x="128" y="96" width="32" height="32" fill="#BCCDAE" />
  <rect x="160" y="96" width="32" height="32" fill="#DFE7A5" />
  <rect x="192" y="96" width="32" height="32" fill="#F0E68A" />
  <rect x="224" y="96" width="32" height="32" fill="#FFFFFF" />
  <rect x="0" y="128" width="32" height="32" fill="#000000" />
  <rect x="32" y="128" width="32" height="32" fill="#3D0052" />
  <rect x="64" y="128" width="32" height="32" fill="#7F1C5D" />
  <rect x="96" y="128" width="32" height="32" fill="#A0533C" />
  <rect x="128" y="128" width="32" height="32" fill="#BCCDAE" />
  <rect x="160" y="128" width="32" height="32" fill="#DFE7A5" />
  <rect x="192" y="128" width="32" height="32" fill="#F0E68A" />
  <rect x="224" y="128" width="32" height="32" fill="#FFFFFF" />
  <rect x="0" y="160" width="32" height="32" fill="#000000" />
  <rect x="32" y="160" width="32" height="32" fill="#3D0052" />
  <rect x="64" y="160" width="32" height="32" fill="#7F1C5D" />
  <rect x="96" y="160" width="32" height="32" fill="#A0533C" />
  <rect x="128" y="160" width="32" height="32" fill="#BCCDAE" />
  <rect x="160" y="160" width="32" height="32" fill="#DFE7A5" />
  <rect x="192" y="160" width="32" height="32" fill="#F0E68A" />
  <rect x="224" y="160" width="32" height="32" fill="#FFFFFF" />
  <rect x="0" y="192" width="32" height="32" fill="#000000" />
  <rect x="32" y="192" width="32" height="32" fill="#3D0052" />
  <rect x="64" y="192" width="32" height="32" fill="#7F1C5D" />
  <rect x="96" y="192" width="32" height="32" fill="#A0533C" />
  <rect x="128" y="192" width="32" height="32" fill="#BCCDAE" />
  <rect x="160" y="192" width="32" height="32" fill="#DFE7A5" />
  <rect x="192" y="192" width="32" height="32" fill="#F0E68A" />
  <rect x="224" y="192" width="32" height="32" fill="#FFFFFF" />
  <rect x="0" y="224" width="32" height="32" fill="#000000" />
  <rect x="32" y="224" width="32" height="32" fill="#3D0052" />
  <rect x="64" y="224" width="32" height="32" fill="#7F1C5D" />
  <rect x="96" y="224" width="32" height="32" fill="#A0533C" />
  <rect x="128" y="224" width="32" height="32" fill="#BCCDAE" />
  <rect x="160" y="224" width="32" height="32" fill="#DFE7A5" />
  <rect x="192" y="224" width="32" height="32" fill="#F0E68A" />
  <rect x="224" y="224" width="32" height="32" fill="#FFFFFF" />
</svg>
