<svg xmlns="http://www.w3.org/2000/svg" width="256" height="256" viewBox="0 0 256 256" shape-rendering="crispEdges" role="img" aria-labelledby="title desc">
  <title id="title">Tension and Release</title>
  <desc id="desc">This artwork captures the essence of conflict and resolution through emotional polarity. The palette, consisting of dark navy and black juxtaposed with luminous dim cyan and white, symbolizes darkness (pressure) emerging into light (release). The top half uses a 'spark' pattern to represent confusion with layered, chaotic color placements, emphasizing collision through the densely packed colors. The bottom half transitions into a 'rain' pattern reflecting clarity, where colors are softer and more spaced out. The contrast occurs prominently along the dividing line, echoing the struggle between chaos and tranquility while intentional broken pixels add an element of imperfection, enhancing the artwork's emotional depth.</desc>
  <rect width="256" height="256" fill="#FFFFFF" />
  <rect x="0" y="0" width="32" height="32" fill="#000080" />
  <rect x="32" y="0" width="32" height="32" fill="#000000" />
  <rect x="64" y="0" width="32" height="32" fill="#003366" />
  <rect x="96" y="0" width="32" height="32" fill="#003399" />
  <rect x="128" y="0" width="32" height="32" fill="#006699" />
  <rect x="160" y="0" width="32" height="32" fill="#0099CC" />
  <rect x="192" y="0" width="32" height="32" fill="#00A1D6" />
  <rect x="224" y="0" width="32" height="32" fill="#00BFFF" />
  <rect x="0" y="32" width="32" height="32" fill="#001F33" />
  <rect x="32" y="32" width="32" height="32" fill="#002D40" />
  <rect x="64" y="32" width="32" height="32" fill="#003B4D" />
  <rect x="96" y="32" width="32" height="32" fill="#004B59" />
  <rect x="128" y="32" width="32" height="32" fill="#005C66" />
  <rect x="160" y="32" width="32" height="32" fill="#007B99" />
  <rect x="192" y="32" width="32" height="32" fill="#00A8E1" />
  <rect x="224" y="32" width="32" height="32" fill="#00BFFF" />
  <rect x="0" y="64" width="32" height="32" fill="#00C8FF" />
  <rect x="32" y="64" width="32" height="32" fill="#E0E0E0" />
  <rect x="64" y="64" width="32" height="32" fill="#C0C0C0" />
  <rect x="96" y="64" width="32" height="32" fill="#B0B0B0" />
  <rect x="128" y="64" width="32" height="32" fill="#A0A0A0" />
  <rect x="160" y="64" width="32" height="32" fill="#909090" />
  <rect x="192" y="64" width="32" height="32" fill="#808080" />
  <rect x="224" y="64" width="32" height="32" fill="#707070" />
  <rect x="0" y="96" width="32" height="32" fill="#00BFFF" />
  <rect x="32" y="96" width="32" height="32" fill="#B3B3B3" />
  <rect x="64" y="96" width="32" height="32" fill="#A1C0D2" />
  <rect x="96" y="96" width="32" height="32" fill="#A7B7C0" />
  <rect x="128" y="96" width="32" height="32" fill="#AFC8D7" />
  <rect x="160" y="96" width="32" height="32" fill="#8AB7D9" />
  <rect x="192" y="96" width="32" height="32" fill="#3C8DAC" />
  <rect x="224" y="96" width="32" height="32" fill="#006699" />
  <rect x="0" y="128" width="32" height="32" fill="#00BFFF" />
  <rect x="32" y="128" width="32" height="32" fill="#E1E1E1" />
  <rect x="64" y="128" width="32" height="32" fill="#D1D1D1" />
  <rect x="96" y="128" width="32" height="32" fill="#C1C1C1" />
  <rect x="128" y="128" width="32" height="32" fill="#B1B1B1" />
  <rect x="160" y="128" width="32" height="32" fill="#A1A1A1" />
  <rect x="192" y="128" width="32" height="32" fill="#919191" />
  <rect x="224" y="128" width="32" height="32" fill="#818181" />
  <rect x="0" y="160" width="32" height="32" fill="#00A8E1" />
  <rect x="32" y="160" width="32" height="32" fill="#D1D1D1" />
  <rect x="64" y="160" width="32" height="32" fill="#C1C1C1" />
  <rect x="96" y="160" width="32" height="32" fill="#B1B1B1" />
  <rect x="128" y="160" width="32" height="32" fill="#A1A1A1" />
  <rect x="160" y="160" width="32" height="32" fill="#919191" />
  <rect x="192" y="160" width="32" height="32" fill="#818181" />
  <rect x="224" y="160" width="32" height="32" fill="#717171" />
  <rect x="0" y="192" width="32" height="32" fill="#00BFFF" />
  <rect x="32" y="192" width="32" height="32" fill="#E8E8E8" />
  <rect x="64" y="192" width="32" height="32" fill="#D8D8D8" />
  <rect x="96" y="192" width="32" height="32" fill="#C8C8C8" />
  <rect x="128" y="192" width="32" height="32" fill="#B8B8B8" />
  <rect x="160" y="192" width="32" height="32" fill="#A8A8A8" />
  <rect x="192" y="192" width="32" height="32" fill="#989898" />
  <rect x="224" y="192" width="32" height="32" fill="#888888" />
  <rect x="0" y="224" width="32" height="32" fill="#FFFFFF" />
  <rect x="32" y="224" width="32" height="32" fill="#F0F0F0" />
  <rect x="64" y="224" width="32" height="32" fill="#E0E0E0" />
  <rect x="96" y="224" width="32" height="32" fill="#D0D0D0" />
  <rect x="128" y="224" width="32" height="32" fill="#C0C0C0" />
  <rect x="160" y="224" width="32" height="32" fill="#B0B0B0" />
  <rect x="192" y="224" width="32" height="32" fill="#A0A0A0" />
  <rect x="224" y="224" width="32" height="32" fill="#909090" />
</svg>
