<svg xmlns="http://www.w3.org/2000/svg" width="256" height="256" viewBox="0 0 256 256" shape-rendering="crispEdges" role="img" aria-labelledby="title desc">
  <title id="title">Echoes of Hope and Fear</title>
  <desc id="desc">The emotional tone balances the contrasts of fear and hope, embodying a tension between jagged lines and soft glows. The selected palette—a mixture of deep black, dark violet, soft gold, and pale green—reflects a journey from darkness (fear) into brightness (hope). The dark colors dominate the corners, creating a 'corner-heavy' feel that gives gravity to the piece, while soft gold and pale green intersperse suggesting uplift and tentative hope. Broken dots symbolize moments of hope amid a rain of fear, and the zigzag flow alludes to the dynamics of emotional conflict and the movement towards resolution. The asymmetric layout emphasizes disruption, leaving negative space that suggests areas of unresolved emotions, completing the abstract storytelling.</desc>
  <rect width="256" height="256" fill="#FFFFFF" />
  <rect x="0" y="0" width="32" height="32" fill="#000000" />
  <rect x="32" y="0" width="32" height="32" fill="#000000" />
  <rect x="64" y="0" width="32" height="32" fill="#000000" />
  <rect x="96" y="0" width="32" height="32" fill="#380060" />
  <rect x="128" y="0" width="32" height="32" fill="#3F2653" />
  <rect x="160" y="0" width="32" height="32" fill="#5C0514" />
  <rect x="192" y="0" width="32" height="32" fill="#662B3A" />
  <rect x="224" y="0" width="32" height="32" fill="#000000" />
  <rect x="0" y="32" width="32" height="32" fill="#000000" />
  <rect x="32" y="32" width="32" height="32" fill="#4F703A" />
  <rect x="64" y="32" width="32" height="32" fill="#5C8C5A" />
  <rect x="96" y="32" width="32" height="32" fill="#7AAB70" />
  <rect x="128" y="32" width="32" height="32" fill="#E6E25A" />
  <rect x="160" y="32" width="32" height="32" fill="#000000" />
  <rect x="192" y="32" width="32" height="32" fill="#000000" />
  <rect x="224" y="32" width="32" height="32" fill="#000000" />
  <rect x="0" y="64" width="32" height="32" fill="#000000" />
  <rect x="32" y="64" width="32" height="32" fill="#F2F4C6" />
  <rect x="64" y="64" width="32" height="32" fill="#6C5F08" />
  <rect x="96" y="64" width="32" height="32" fill="#D5D300" />
  <rect x="128" y="64" width="32" height="32" fill="#000000" />
  <rect x="160" y="64" width="32" height="32" fill="#000000" />
  <rect x="192" y="64" width="32" height="32" fill="#000000" />
  <rect x="224" y="64" width="32" height="32" fill="#000000" />
  <rect x="0" y="96" width="32" height="32" fill="#4B0E4C" />
  <rect x="32" y="96" width="32" height="32" fill="#000000" />
  <rect x="64" y="96" width="32" height="32" fill="#3A2452" />
  <rect x="96" y="96" width="32" height="32" fill="#3E5D5C" />
  <rect x="128" y="96" width="32" height="32" fill="#50AC5B" />
  <rect x="160" y="96" width="32" height="32" fill="#6EB98E" />
  <rect x="192" y="96" width="32" height="32" fill="#6DE4A7" />
  <rect x="224" y="96" width="32" height="32" fill="#000000" />
  <rect x="0" y="128" width="32" height="32" fill="#000000" />
  <rect x="32" y="128" width="32" height="32" fill="#234F29" />
  <rect x="64" y="128" width="32" height="32" fill="#6C9D2C" />
  <rect x="96" y="128" width="32" height="32" fill="#66BC65" />
  <rect x="128" y="128" width="32" height="32" fill="#F7E57F" />
  <rect x="160" y="128" width="32" height="32" fill="#000000" />
  <rect x="192" y="128" width="32" height="32" fill="#000000" />
  <rect x="224" y="128" width="32" height="32" fill="#000000" />
  <rect x="0" y="160" width="32" height="32" fill="#000000" />
  <rect x="32" y="160" width="32" height="32" fill="#000000" />
  <rect x="64" y="160" width="32" height="32" fill="#770104" />
  <rect x="96" y="160" width="32" height="32" fill="#F5C94D" />
  <rect x="128" y="160" width="32" height="32" fill="#B9C816" />
  <rect x="160" y="160" width="32" height="32" fill="#000000" />
  <rect x="192" y="160" width="32" height="32" fill="#000000" />
  <rect x="224" y="160" width="32" height="32" fill="#000000" />
  <rect x="0" y="192" width="32" height="32" fill="#000000" />
  <rect x="32" y="192" width="32" height="32" fill="#000000" />
  <rect x="64" y="192" width="32" height="32" fill="#000000" />
  <rect x="96" y="192" width="32" height="32" fill="#000000" />
  <rect x="128" y="192" width="32" height="32" fill="#B78F5E" />
  <rect x="160" y="192" width="32" height="32" fill="#CB733D" />
  <rect x="192" y="192" width="32" height="32" fill="#D4A676" />
  <rect x="224" y="192" width="32" height="32" fill="#000000" />
  <rect x="0" y="224" width="32" height="32" fill="#000000" />
  <rect x="32" y="224" width="32" height="32" fill="#000000" />
  <rect x="64" y="224" width="32" height="32" fill="#000000" />
  <rect x="96" y="224" width="32" height="32" fill="#000000" />
  <rect x="128" y="224" width="32" height="32" fill="#000000" />
  <rect x="160" y="224" width="32" height="32" fill="#000000" />
  <rect x="192" y="224" width="32" height="32" fill="#000000" />
  <rect x="224" y="224" width="32" height="32" fill="#000000" />
</svg>
