<svg xmlns="http://www.w3.org/2000/svg" width="256" height="256" viewBox="0 0 256 256" shape-rendering="crispEdges" role="img" aria-labelledby="title desc">
  <title id="title">Echoes of Symmetry</title>
  <desc id="desc">This artwork explores the tension between confusion and clarity. The dark palette illustrates feelings of confusion, with blacks and navy suggesting depth and density. Higher contrast from lighter hues (dim cyan) emerges in the lower half, subtly shifting towards clarity. The two halves of the composition represent the split emotions, capturing a pulse-like rhythm alongside a broken symmetry concept, particularly with carefully placed 'broken pixels' that disrupt patterns, reinforcing the themes of interruption and noise.</desc>
  <rect width="256" height="256" fill="#FFFFFF" />
  <rect x="0" y="0" width="32" height="32" fill="#000000" />
  <rect x="32" y="0" width="32" height="32" fill="#000F1C" />
  <rect x="64" y="0" width="32" height="32" fill="#001F3F" />
  <rect x="96" y="0" width="32" height="32" fill="#002F5C" />
  <rect x="128" y="0" width="32" height="32" fill="#003F87" />
  <rect x="160" y="0" width="32" height="32" fill="#004FB6" />
  <rect x="192" y="0" width="32" height="32" fill="#005FFA" />
  <rect x="224" y="0" width="32" height="32" fill="#003A8C" />
  <rect x="0" y="32" width="32" height="32" fill="#000D3E" />
  <rect x="32" y="32" width="32" height="32" fill="#001E5D" />
  <rect x="64" y="32" width="32" height="32" fill="#002F70" />
  <rect x="96" y="32" width="32" height="32" fill="#00D1E9" />
  <rect x="128" y="32" width="32" height="32" fill="#00C5D3" />
  <rect x="160" y="32" width="32" height="32" fill="#00B9BA" />
  <rect x="192" y="32" width="32" height="32" fill="#008B99" />
  <rect x="224" y="32" width="32" height="32" fill="#007F89" />
  <rect x="0" y="64" width="32" height="32" fill="#063C59" />
  <rect x="32" y="64" width="32" height="32" fill="#0E3D6F" />
  <rect x="64" y="64" width="32" height="32" fill="#2D4F8B" />
  <rect x="96" y="64" width="32" height="32" fill="#3A698D" />
  <rect x="128" y="64" width="32" height="32" fill="#48A3B0" />
  <rect x="160" y="64" width="32" height="32" fill="#58BBD5" />
  <rect x="192" y="64" width="32" height="32" fill="#6BC9DA" />
  <rect x="224" y="64" width="32" height="32" fill="#91D8E2" />
  <rect x="0" y="96" width="32" height="32" fill="#0D3644" />
  <rect x="32" y="96" width="32" height="32" fill="#1E2C3D" />
  <rect x="64" y="96" width="32" height="32" fill="#1C2F5B" />
  <rect x="96" y="96" width="32" height="32" fill="#D7E9E5" />
  <rect x="128" y="96" width="32" height="32" fill="#C0E3E0" />
  <rect x="160" y="96" width="32" height="32" fill="#B2D1D6" />
  <rect x="192" y="96" width="32" height="32" fill="#A4B9BF" />
  <rect x="224" y="96" width="32" height="32" fill="#98A3B0" />
  <rect x="0" y="128" width="32" height="32" fill="#002B31" />
  <rect x="32" y="128" width="32" height="32" fill="#005B5C" />
  <rect x="64" y="128" width="32" height="32" fill="#007B76" />
  <rect x="96" y="128" width="32" height="32" fill="#008C88" />
  <rect x="128" y="128" width="32" height="32" fill="#009D97" />
  <rect x="160" y="128" width="32" height="32" fill="#00C7C7" />
  <rect x="192" y="128" width="32" height="32" fill="#0BCDD4" />
  <rect x="224" y="128" width="32" height="32" fill="#000000" />
  <rect x="0" y="160" width="32" height="32" fill="#001A1C" />
  <rect x="32" y="160" width="32" height="32" fill="#002728" />
  <rect x="64" y="160" width="32" height="32" fill="#003638" />
  <rect x="96" y="160" width="32" height="32" fill="#004B47" />
  <rect x="128" y="160" width="32" height="32" fill="#006057" />
  <rect x="160" y="160" width="32" height="32" fill="#00857D" />
  <rect x="192" y="160" width="32" height="32" fill="#00A1A0" />
  <rect x="224" y="160" width="32" height="32" fill="#00B2B9" />
  <rect x="0" y="192" width="32" height="32" fill="#121B1D" />
  <rect x="32" y="192" width="32" height="32" fill="#151E22" />
  <rect x="64" y="192" width="32" height="32" fill="#172023" />
  <rect x="96" y="192" width="32" height="32" fill="#222C2E" />
  <rect x="128" y="192" width="32" height="32" fill="#2F3B3D" />
  <rect x="160" y="192" width="32" height="32" fill="#475051" />
  <rect x="192" y="192" width="32" height="32" fill="#596C71" />
  <rect x="224" y="192" width="32" height="32" fill="#6C838E" />
  <rect x="0" y="224" width="32" height="32" fill="#171B1C" />
  <rect x="32" y="224" width="32" height="32" fill="#1C2F34" />
  <rect x="64" y="224" width="32" height="32" fill="#223D40" />
  <rect x="96" y="224" width="32" height="32" fill="#2A4C4E" />
  <rect x="128" y="224" width="32" height="32" fill="#374B53" />
  <rect x="160" y="224" width="32" height="32" fill="#4A8382" />
  <rect x="192" y="224" width="32" height="32" fill="#6B9DA0" />
  <rect x="224" y="224" width="32" height="32" fill="#8DC9CD" />
</svg>
