<svg xmlns="http://www.w3.org/2000/svg" width="256" height="256" viewBox="0 0 256 256" shape-rendering="crispEdges" role="img" aria-labelledby="title desc">
  <title id="title">Conflict of Calm and Chaos</title>
  <desc id="desc">The emotional tone reflects the tension between rage and calm, using contrasting colors to represent these opposing feelings. The selected palette of red and pale blue evokes intensity and serenity, while the presence of black and white enhances the visual dialogue. The layout mirrors both sides of the square, creating a feeling of balance disrupted by a few misplaced pixels that symbolize breaking tension. The arrangement employs striped patterns on the calm side and disruptive sparks on the rage side, encapsulating the emotional conflict as it flows from one state to another.</desc>
  <rect width="256" height="256" fill="#FFFFFF" />
  <rect x="0" y="0" width="32" height="32" fill="#FF0000" />
  <rect x="32" y="0" width="32" height="32" fill="#FF4D00" />
  <rect x="64" y="0" width="32" height="32" fill="#FF9900" />
  <rect x="96" y="0" width="32" height="32" fill="#FFCC00" />
  <rect x="128" y="0" width="32" height="32" fill="#FFFFFF" />
  <rect x="160" y="0" width="32" height="32" fill="#E6F0FF" />
  <rect x="192" y="0" width="32" height="32" fill="#B3D9FF" />
  <rect x="224" y="0" width="32" height="32" fill="#80CFFF" />
  <rect x="0" y="32" width="32" height="32" fill="#FF0000" />
  <rect x="32" y="32" width="32" height="32" fill="#FF3300" />
  <rect x="64" y="32" width="32" height="32" fill="#FF6600" />
  <rect x="96" y="32" width="32" height="32" fill="#FF9900" />
  <rect x="128" y="32" width="32" height="32" fill="#F2F2F2" />
  <rect x="160" y="32" width="32" height="32" fill="#D9E6FF" />
  <rect x="192" y="32" width="32" height="32" fill="#99CCFF" />
  <rect x="224" y="32" width="32" height="32" fill="#66B3FF" />
  <rect x="0" y="64" width="32" height="32" fill="#CC0000" />
  <rect x="32" y="64" width="32" height="32" fill="#FF6600" />
  <rect x="64" y="64" width="32" height="32" fill="#FF9900" />
  <rect x="96" y="64" width="32" height="32" fill="#FFCC00" />
  <rect x="128" y="64" width="32" height="32" fill="#FFFFFF" />
  <rect x="160" y="64" width="32" height="32" fill="#C1D9FF" />
  <rect x="192" y="64" width="32" height="32" fill="#99CCFF" />
  <rect x="224" y="64" width="32" height="32" fill="#66B3FF" />
  <rect x="0" y="96" width="32" height="32" fill="#FF0000" />
  <rect x="32" y="96" width="32" height="32" fill="#E63300" />
  <rect x="64" y="96" width="32" height="32" fill="#FF8C00" />
  <rect x="96" y="96" width="32" height="32" fill="#FFE600" />
  <rect x="128" y="96" width="32" height="32" fill="#FFE6E6" />
  <rect x="160" y="96" width="32" height="32" fill="#B3DCFF" />
  <rect x="192" y="96" width="32" height="32" fill="#99B3FF" />
  <rect x="224" y="96" width="32" height="32" fill="#007ACC" />
  <rect x="0" y="128" width="32" height="32" fill="#AA0000" />
  <rect x="32" y="128" width="32" height="32" fill="#FF6633" />
  <rect x="64" y="128" width="32" height="32" fill="#FF9966" />
  <rect x="96" y="128" width="32" height="32" fill="#FFCC99" />
  <rect x="128" y="128" width="32" height="32" fill="#F0F0F0" />
  <rect x="160" y="128" width="32" height="32" fill="#99C2FF" />
  <rect x="192" y="128" width="32" height="32" fill="#2A9FFF" />
  <rect x="224" y="128" width="32" height="32" fill="#007ACC" />
  <rect x="0" y="160" width="32" height="32" fill="#990000" />
  <rect x="32" y="160" width="32" height="32" fill="#FF7F00" />
  <rect x="64" y="160" width="32" height="32" fill="#FFB400" />
  <rect x="96" y="160" width="32" height="32" fill="#FFEF00" />
  <rect x="128" y="160" width="32" height="32" fill="#F7F7F7" />
  <rect x="160" y="160" width="32" height="32" fill="#66B3FF" />
  <rect x="192" y="160" width="32" height="32" fill="#0099CC" />
  <rect x="224" y="160" width="32" height="32" fill="#007ACC" />
  <rect x="0" y="192" width="32" height="32" fill="#AA0000" />
  <rect x="32" y="192" width="32" height="32" fill="#FF5033" />
  <rect x="64" y="192" width="32" height="32" fill="#FF9966" />
  <rect x="96" y="192" width="32" height="32" fill="#FFCC99" />
  <rect x="128" y="192" width="32" height="32" fill="#C0C0C0" />
  <rect x="160" y="192" width="32" height="32" fill="#0099CC" />
  <rect x="192" y="192" width="32" height="32" fill="#0099FF" />
  <rect x="224" y="192" width="32" height="32" fill="#007ACC" />
  <rect x="0" y="224" width="32" height="32" fill="#000000" />
  <rect x="32" y="224" width="32" height="32" fill="#333333" />
  <rect x="64" y="224" width="32" height="32" fill="#666666" />
  <rect x="96" y="224" width="32" height="32" fill="#999999" />
  <rect x="128" y="224" width="32" height="32" fill="#CCCCCC" />
  <rect x="160" y="224" width="32" height="32" fill="#FFFFFF" />
  <rect x="192" y="224" width="32" height="32" fill="#B3D9FF" />
  <rect x="224" y="224" width="32" height="32" fill="#80CFFF" />
</svg>
