<svg xmlns="http://www.w3.org/2000/svg" width="256" height="256" viewBox="0 0 256 256" shape-rendering="crispEdges" role="img" aria-labelledby="title desc">
  <title id="title">Collision of Energies</title>
  <desc id="desc">The emotional tone captures the interplay of joy and grief, represented through a palette of warm yellows and oranges contrasting with deep blue and muted purples. The juxtaposition is evident in the zigzag flow, where warm colors dominate the upper half, suggesting the brightness of joy, while cooler tones sink into the lower half, embodying grief. The visible clashing within rows creates a pattern of emotional tension, echoing the themes of exposed joy against hidden grief. The chosen palette facilitates a vivid contrast, accentuated by randomly placed broken pixels, which represent the unpredictability of emotions. This abstract arrangement resonates with the seed's themes of order and chaos, embodying a quiet battle of feeling without explicit imagery.</desc>
  <rect width="256" height="256" fill="#FFFFFF" />
  <rect x="0" y="0" width="32" height="32" fill="#FFDA44" />
  <rect x="32" y="0" width="32" height="32" fill="#FFBF00" />
  <rect x="64" y="0" width="32" height="32" fill="#FFD700" />
  <rect x="96" y="0" width="32" height="32" fill="#FFA500" />
  <rect x="128" y="0" width="32" height="32" fill="#E8B700" />
  <rect x="160" y="0" width="32" height="32" fill="#D9A000" />
  <rect x="192" y="0" width="32" height="32" fill="#FFD700" />
  <rect x="224" y="0" width="32" height="32" fill="#FFF5AA" />
  <rect x="0" y="32" width="32" height="32" fill="#C5A6C5" />
  <rect x="32" y="32" width="32" height="32" fill="#A4D6E1" />
  <rect x="64" y="32" width="32" height="32" fill="#4B79C4" />
  <rect x="96" y="32" width="32" height="32" fill="#2A7DAC" />
  <rect x="128" y="32" width="32" height="32" fill="#1A4B6D" />
  <rect x="160" y="32" width="32" height="32" fill="#0F4C6B" />
  <rect x="192" y="32" width="32" height="32" fill="#4B79C4" />
  <rect x="224" y="32" width="32" height="32" fill="#6BBEDD" />
  <rect x="0" y="64" width="32" height="32" fill="#F7C600" />
  <rect x="32" y="64" width="32" height="32" fill="#FF9A00" />
  <rect x="64" y="64" width="32" height="32" fill="#FEDD00" />
  <rect x="96" y="64" width="32" height="32" fill="#FFBF00" />
  <rect x="128" y="64" width="32" height="32" fill="#FFDA44" />
  <rect x="160" y="64" width="32" height="32" fill="#FFC700" />
  <rect x="192" y="64" width="32" height="32" fill="#FFAE00" />
  <rect x="224" y="64" width="32" height="32" fill="#F3C95D" />
  <rect x="0" y="96" width="32" height="32" fill="#6D6C8A" />
  <rect x="32" y="96" width="32" height="32" fill="#8F8AB1" />
  <rect x="64" y="96" width="32" height="32" fill="#B7B4D0" />
  <rect x="96" y="96" width="32" height="32" fill="#D7D2E7" />
  <rect x="128" y="96" width="32" height="32" fill="#E6E3EA" />
  <rect x="160" y="96" width="32" height="32" fill="#C0C3D5" />
  <rect x="192" y="96" width="32" height="32" fill="#8B92B5" />
  <rect x="224" y="96" width="32" height="32" fill="#2C3E50" />
  <rect x="0" y="128" width="32" height="32" fill="#332B52" />
  <rect x="32" y="128" width="32" height="32" fill="#4B5D8A" />
  <rect x="64" y="128" width="32" height="32" fill="#646468" />
  <rect x="96" y="128" width="32" height="32" fill="#F8B400" />
  <rect x="128" y="128" width="32" height="32" fill="#FFDA54" />
  <rect x="160" y="128" width="32" height="32" fill="#E7E9CB" />
  <rect x="192" y="128" width="32" height="32" fill="#7C0A2B" />
  <rect x="224" y="128" width="32" height="32" fill="#4F9D9D" />
  <rect x="0" y="160" width="32" height="32" fill="#B39CD4" />
  <rect x="32" y="160" width="32" height="32" fill="#C5B0E0" />
  <rect x="64" y="160" width="32" height="32" fill="#D0DAF8" />
  <rect x="96" y="160" width="32" height="32" fill="#F5F5F5" />
  <rect x="128" y="160" width="32" height="32" fill="#D6E0E0" />
  <rect x="160" y="160" width="32" height="32" fill="#BEC8CC" />
  <rect x="192" y="160" width="32" height="32" fill="#A0A0C0" />
  <rect x="224" y="160" width="32" height="32" fill="#D1E1DB" />
  <rect x="0" y="192" width="32" height="32" fill="#7B96A6" />
  <rect x="32" y="192" width="32" height="32" fill="#F0B3A8" />
  <rect x="64" y="192" width="32" height="32" fill="#B57490" />
  <rect x="96" y="192" width="32" height="32" fill="#AA9B63" />
  <rect x="128" y="192" width="32" height="32" fill="#4B7F8D" />
  <rect x="160" y="192" width="32" height="32" fill="#2A5E69" />
  <rect x="192" y="192" width="32" height="32" fill="#1F3C3D" />
  <rect x="224" y="192" width="32" height="32" fill="#8A5C83" />
  <rect x="0" y="224" width="32" height="32" fill="#0D0D0D" />
  <rect x="32" y="224" width="32" height="32" fill="#1A1A1A" />
  <rect x="64" y="224" width="32" height="32" fill="#2C2C2C" />
  <rect x="96" y="224" width="32" height="32" fill="#3D3D3D" />
  <rect x="128" y="224" width="32" height="32" fill="#4F4F4F" />
  <rect x="160" y="224" width="32" height="32" fill="#5F5F5F" />
  <rect x="192" y="224" width="32" height="32" fill="#8F8F8F" />
  <rect x="224" y="224" width="32" height="32" fill="#C9C9C9" />
</svg>
