<svg xmlns="http://www.w3.org/2000/svg" width="256" height="256" viewBox="0 0 256 256" shape-rendering="crispEdges" role="img" aria-labelledby="title desc">
  <title id="title">Contrast and Harmony</title>
  <desc id="desc">This artwork embodies the emotional tension between softness and severity, reflected in a divided composition. The left half features a patchwork of gentle pinks and whites, creating a flow of warmth and subtlety. This softness is disrupted by the right side's harsh black and crimson accents, symbolizing severity and cold boundaries. The central collision is marked by a blend of pattern types; the smooth patchwork interrupts the rigid cracks of severity, creating an emotional echo. The palette emphasizes the contrast through light versus dark, highlighting various emotional states that intertwine through the design. The presence of broken pixels on the severity side introduces intentional imperfection, maintaining the complexity of feelings like guilt and relief. This visual narrative moves from warmth to a stark pressure, celebrating the balance of opposing emotions.</desc>
  <rect width="256" height="256" fill="#FFFFFF" />
  <rect x="0" y="0" width="32" height="32" fill="#F1A7B9" />
  <rect x="32" y="0" width="32" height="32" fill="#E5C2C9" />
  <rect x="64" y="0" width="32" height="32" fill="#D8BECF" />
  <rect x="96" y="0" width="32" height="32" fill="#D2B2B6" />
  <rect x="128" y="0" width="32" height="32" fill="#E3B1BF" />
  <rect x="160" y="0" width="32" height="32" fill="#E9D5D7" />
  <rect x="192" y="0" width="32" height="32" fill="#D1A3B1" />
  <rect x="224" y="0" width="32" height="32" fill="#F7E1E5" />
  <rect x="0" y="32" width="32" height="32" fill="#FFCDDB" />
  <rect x="32" y="32" width="32" height="32" fill="#FFC5CC" />
  <rect x="64" y="32" width="32" height="32" fill="#FFD9D0" />
  <rect x="96" y="32" width="32" height="32" fill="#F7A9B7" />
  <rect x="128" y="32" width="32" height="32" fill="#E67D7D" />
  <rect x="160" y="32" width="32" height="32" fill="#D53D3E" />
  <rect x="192" y="32" width="32" height="32" fill="#C83C3D" />
  <rect x="224" y="32" width="32" height="32" fill="#993D3D" />
  <rect x="0" y="64" width="32" height="32" fill="#FFFFFF" />
  <rect x="32" y="64" width="32" height="32" fill="#E5D7D9" />
  <rect x="64" y="64" width="32" height="32" fill="#FFC9CC" />
  <rect x="96" y="64" width="32" height="32" fill="#FFB0B9" />
  <rect x="128" y="64" width="32" height="32" fill="#FFD6D7" />
  <rect x="160" y="64" width="32" height="32" fill="#FFBAC5" />
  <rect x="192" y="64" width="32" height="32" fill="#DDAEAC" />
  <rect x="224" y="64" width="32" height="32" fill="#CBAFBB" />
  <rect x="0" y="96" width="32" height="32" fill="#D4C4C8" />
  <rect x="32" y="96" width="32" height="32" fill="#B7A1A6" />
  <rect x="64" y="96" width="32" height="32" fill="#A17077" />
  <rect x="96" y="96" width="32" height="32" fill="#8D5355" />
  <rect x="128" y="96" width="32" height="32" fill="#232F32" />
  <rect x="160" y="96" width="32" height="32" fill="#4A565E" />
  <rect x="192" y="96" width="32" height="32" fill="#353F40" />
  <rect x="224" y="96" width="32" height="32" fill="#D2C8CE" />
  <rect x="0" y="128" width="32" height="32" fill="#C2C3C3" />
  <rect x="32" y="128" width="32" height="32" fill="#B0A3A1" />
  <rect x="64" y="128" width="32" height="32" fill="#785850" />
  <rect x="96" y="128" width="32" height="32" fill="#4D4641" />
  <rect x="128" y="128" width="32" height="32" fill="#353F40" />
  <rect x="160" y="128" width="32" height="32" fill="#757575" />
  <rect x="192" y="128" width="32" height="32" fill="#A2A2A2" />
  <rect x="224" y="128" width="32" height="32" fill="#464646" />
  <rect x="0" y="160" width="32" height="32" fill="#B0B0B0" />
  <rect x="32" y="160" width="32" height="32" fill="#A0A0A0" />
  <rect x="64" y="160" width="32" height="32" fill="#949494" />
  <rect x="96" y="160" width="32" height="32" fill="#888888" />
  <rect x="128" y="160" width="32" height="32" fill="#7A7A7A" />
  <rect x="160" y="160" width="32" height="32" fill="#787878" />
  <rect x="192" y="160" width="32" height="32" fill="#666666" />
  <rect x="224" y="160" width="32" height="32" fill="#585858" />
  <rect x="0" y="192" width="32" height="32" fill="#898989" />
  <rect x="32" y="192" width="32" height="32" fill="#737373" />
  <rect x="64" y="192" width="32" height="32" fill="#626264" />
  <rect x="96" y="192" width="32" height="32" fill="#515151" />
  <rect x="128" y="192" width="32" height="32" fill="#404040" />
  <rect x="160" y="192" width="32" height="32" fill="#4A4A4A" />
  <rect x="192" y="192" width="32" height="32" fill="#2E2E2E" />
  <rect x="224" y="192" width="32" height="32" fill="#1C1C1C" />
  <rect x="0" y="224" width="32" height="32" fill="#222222" />
  <rect x="32" y="224" width="32" height="32" fill="#111111" />
  <rect x="64" y="224" width="32" height="32" fill="#000000" />
  <rect x="96" y="224" width="32" height="32" fill="#1C1C1C" />
  <rect x="128" y="224" width="32" height="32" fill="#2E2E2E" />
  <rect x="160" y="224" width="32" height="32" fill="#404040" />
  <rect x="192" y="224" width="32" height="32" fill="#5A5A5A" />
  <rect x="224" y="224" width="32" height="32" fill="#5E5E5E" />
</svg>
