<svg xmlns="http://www.w3.org/2000/svg" width="256" height="256" viewBox="0 0 256 256" shape-rendering="crispEdges" role="img" aria-labelledby="title desc">
  <title id="title">Echo of Shelter</title>
  <desc id="desc">This piece explores the emotional tension between safety and exposure. The palette, comprising soft green, warm brown, pale skin, cold white, and open blue, evokes feelings of both comfort and vulnerability. The main contrast occurs between the soft, enveloping colors and the sharper, more vibrant tones, with broken pixel placements suggesting disruption and imperfection. The arrangement of colors reflects a split vertical layout, emphasizing the struggle between protection and exposure, contrasting dense clusters on one side with more open spaces on the other.</desc>
  <rect width="256" height="256" fill="#FFFFFF" />
  <rect x="0" y="0" width="32" height="32" fill="#B6E1B8" />
  <rect x="32" y="0" width="32" height="32" fill="#E0C0A5" />
  <rect x="64" y="0" width="32" height="32" fill="#E8E8E8" />
  <rect x="96" y="0" width="32" height="32" fill="#F5F5F5" />
  <rect x="128" y="0" width="32" height="32" fill="#E8E8E8" />
  <rect x="160" y="0" width="32" height="32" fill="#E0C0A5" />
  <rect x="192" y="0" width="32" height="32" fill="#B6E1B8" />
  <rect x="224" y="0" width="32" height="32" fill="#D2F2D7" />
  <rect x="0" y="32" width="32" height="32" fill="#8ACB8D" />
  <rect x="32" y="32" width="32" height="32" fill="#D0A272" />
  <rect x="64" y="32" width="32" height="32" fill="#E7E7E7" />
  <rect x="96" y="32" width="32" height="32" fill="#FFFFFF" />
  <rect x="128" y="32" width="32" height="32" fill="#E7E7E7" />
  <rect x="160" y="32" width="32" height="32" fill="#D0A272" />
  <rect x="192" y="32" width="32" height="32" fill="#8ACB8D" />
  <rect x="224" y="32" width="32" height="32" fill="#C1E3C0" />
  <rect x="0" y="64" width="32" height="32" fill="#2F4C4B" />
  <rect x="32" y="64" width="32" height="32" fill="#4E756E" />
  <rect x="64" y="64" width="32" height="32" fill="#FFFFFF" />
  <rect x="96" y="64" width="32" height="32" fill="#D3D3D3" />
  <rect x="128" y="64" width="32" height="32" fill="#FFFFFF" />
  <rect x="160" y="64" width="32" height="32" fill="#4E756E" />
  <rect x="192" y="64" width="32" height="32" fill="#2F4C4B" />
  <rect x="224" y="64" width="32" height="32" fill="#9DD5A0" />
  <rect x="0" y="96" width="32" height="32" fill="#1B3835" />
  <rect x="32" y="96" width="32" height="32" fill="#0F4C4A" />
  <rect x="64" y="96" width="32" height="32" fill="#F2F2F2" />
  <rect x="96" y="96" width="32" height="32" fill="#F8F8F8" />
  <rect x="128" y="96" width="32" height="32" fill="#F2F2F2" />
  <rect x="160" y="96" width="32" height="32" fill="#0F4C4A" />
  <rect x="192" y="96" width="32" height="32" fill="#1B3835" />
  <rect x="224" y="96" width="32" height="32" fill="#83C8C6" />
  <rect x="0" y="128" width="32" height="32" fill="#8EB6E8" />
  <rect x="32" y="128" width="32" height="32" fill="#9ECCE8" />
  <rect x="64" y="128" width="32" height="32" fill="#EAEAEA" />
  <rect x="96" y="128" width="32" height="32" fill="#D1D1D1" />
  <rect x="128" y="128" width="32" height="32" fill="#EAEAEA" />
  <rect x="160" y="128" width="32" height="32" fill="#9ECCE8" />
  <rect x="192" y="128" width="32" height="32" fill="#8EB6E8" />
  <rect x="224" y="128" width="32" height="32" fill="#B3E0F2" />
  <rect x="0" y="160" width="32" height="32" fill="#3B7A87" />
  <rect x="32" y="160" width="32" height="32" fill="#327981" />
  <rect x="64" y="160" width="32" height="32" fill="#FFFFFF" />
  <rect x="96" y="160" width="32" height="32" fill="#D3D3D3" />
  <rect x="128" y="160" width="32" height="32" fill="#FFFFFF" />
  <rect x="160" y="160" width="32" height="32" fill="#327981" />
  <rect x="192" y="160" width="32" height="32" fill="#3B7A87" />
  <rect x="224" y="160" width="32" height="32" fill="#A8E4E0" />
  <rect x="0" y="192" width="32" height="32" fill="#2D5C63" />
  <rect x="32" y="192" width="32" height="32" fill="#6FB2B1" />
  <rect x="64" y="192" width="32" height="32" fill="#FFFFFF" />
  <rect x="96" y="192" width="32" height="32" fill="#F5F5F5" />
  <rect x="128" y="192" width="32" height="32" fill="#FFFFFF" />
  <rect x="160" y="192" width="32" height="32" fill="#6FB2B1" />
  <rect x="192" y="192" width="32" height="32" fill="#2D5C63" />
  <rect x="224" y="192" width="32" height="32" fill="#A3D8D4" />
  <rect x="0" y="224" width="32" height="32" fill="#B0E2DD" />
  <rect x="32" y="224" width="32" height="32" fill="#B8F7F5" />
  <rect x="64" y="224" width="32" height="32" fill="#E8E8E8" />
  <rect x="96" y="224" width="32" height="32" fill="#D7D7D7" />
  <rect x="128" y="224" width="32" height="32" fill="#E8E8E8" />
  <rect x="160" y="224" width="32" height="32" fill="#B8F7F5" />
  <rect x="192" y="224" width="32" height="32" fill="#B0E2DD" />
  <rect x="224" y="224" width="32" height="32" fill="#C6F3F0" />
</svg>
