<svg xmlns="http://www.w3.org/2000/svg" width="256" height="256" viewBox="0 0 256 256" shape-rendering="crispEdges" role="img" aria-labelledby="title desc">
  <title id="title">Pulse of Confusion and Clarity</title>
  <desc id="desc">This artwork contrasts the tension between confusion and clarity. The left half, representing confusion, features a muddled palette of muted purples and deep blues, creating a sense of overwhelming noise and disruption. The right half, symbolizing clarity, employs brighter yellows and oranges to convey vibrancy and balance. The arrangement echoes the dissonance of broken pixels, leading to a collision of emotions where the left side's density meets the right side's openness. This contrast illustrates the emotional spectrum of anger transitioning into calm, resonating with the seed's narrative of symmetry disrupted by chaos.</desc>
  <rect width="256" height="256" fill="#FFFFFF" />
  <rect x="0" y="0" width="32" height="32" fill="#2D3E50" />
  <rect x="32" y="0" width="32" height="32" fill="#4D668E" />
  <rect x="64" y="0" width="32" height="32" fill="#5A7499" />
  <rect x="96" y="0" width="32" height="32" fill="#7A7C8F" />
  <rect x="128" y="0" width="32" height="32" fill="#7F99B1" />
  <rect x="160" y="0" width="32" height="32" fill="#A3C1CB" />
  <rect x="192" y="0" width="32" height="32" fill="#E1E9E7" />
  <rect x="224" y="0" width="32" height="32" fill="#F2FAF8" />
  <rect x="0" y="32" width="32" height="32" fill="#5C7C8A" />
  <rect x="32" y="32" width="32" height="32" fill="#A2C8D3" />
  <rect x="64" y="32" width="32" height="32" fill="#A4B8C1" />
  <rect x="96" y="32" width="32" height="32" fill="#B7C7D8" />
  <rect x="128" y="32" width="32" height="32" fill="#4496A2" />
  <rect x="160" y="32" width="32" height="32" fill="#89C3B5" />
  <rect x="192" y="32" width="32" height="32" fill="#A3E2D3" />
  <rect x="224" y="32" width="32" height="32" fill="#F7FBFB" />
  <rect x="0" y="64" width="32" height="32" fill="#A3A8B7" />
  <rect x="32" y="64" width="32" height="32" fill="#989B94" />
  <rect x="64" y="64" width="32" height="32" fill="#909493" />
  <rect x="96" y="64" width="32" height="32" fill="#8F8376" />
  <rect x="128" y="64" width="32" height="32" fill="#E1A46B" />
  <rect x="160" y="64" width="32" height="32" fill="#FDDC92" />
  <rect x="192" y="64" width="32" height="32" fill="#EBE2D4" />
  <rect x="224" y="64" width="32" height="32" fill="#F6F7F0" />
  <rect x="0" y="96" width="32" height="32" fill="#20232A" />
  <rect x="32" y="96" width="32" height="32" fill="#3B3E3D" />
  <rect x="64" y="96" width="32" height="32" fill="#585A57" />
  <rect x="96" y="96" width="32" height="32" fill="#7D7F76" />
  <rect x="128" y="96" width="32" height="32" fill="#B4C9B7" />
  <rect x="160" y="96" width="32" height="32" fill="#D5E7E4" />
  <rect x="192" y="96" width="32" height="32" fill="#F1F8F2" />
  <rect x="224" y="96" width="32" height="32" fill="#F6F7F7" />
  <rect x="0" y="128" width="32" height="32" fill="#1B1F24" />
  <rect x="32" y="128" width="32" height="32" fill="#252A31" />
  <rect x="64" y="128" width="32" height="32" fill="#2A3436" />
  <rect x="96" y="128" width="32" height="32" fill="#473B3B" />
  <rect x="128" y="128" width="32" height="32" fill="#8A8F91" />
  <rect x="160" y="128" width="32" height="32" fill="#C0C6C7" />
  <rect x="192" y="128" width="32" height="32" fill="#EAE9E7" />
  <rect x="224" y="128" width="32" height="32" fill="#F9FBFB" />
  <rect x="0" y="160" width="32" height="32" fill="#3E5861" />
  <rect x="32" y="160" width="32" height="32" fill="#607C85" />
  <rect x="64" y="160" width="32" height="32" fill="#7AABAD" />
  <rect x="96" y="160" width="32" height="32" fill="#B8DADD" />
  <rect x="128" y="160" width="32" height="32" fill="#E4F9F7" />
  <rect x="160" y="160" width="32" height="32" fill="#F2FBF9" />
  <rect x="192" y="160" width="32" height="32" fill="#F4EBE9" />
  <rect x="224" y="160" width="32" height="32" fill="#FCFAF9" />
  <rect x="0" y="192" width="32" height="32" fill="#192A2C" />
  <rect x="32" y="192" width="32" height="32" fill="#394444" />
  <rect x="64" y="192" width="32" height="32" fill="#5F7073" />
  <rect x="96" y="192" width="32" height="32" fill="#909B99" />
  <rect x="128" y="192" width="32" height="32" fill="#C2CECE" />
  <rect x="160" y="192" width="32" height="32" fill="#DFF5ED" />
  <rect x="192" y="192" width="32" height="32" fill="#F7F8F9" />
  <rect x="224" y="192" width="32" height="32" fill="#FCFBFB" />
  <rect x="0" y="224" width="32" height="32" fill="#111517" />
  <rect x="32" y="224" width="32" height="32" fill="#262B2D" />
  <rect x="64" y="224" width="32" height="32" fill="#4E565B" />
  <rect x="96" y="224" width="32" height="32" fill="#757D7E" />
  <rect x="128" y="224" width="32" height="32" fill="#A6B7B6" />
  <rect x="160" y="224" width="32" height="32" fill="#CEDFDD" />
  <rect x="192" y="224" width="32" height="32" fill="#EBF2F0" />
  <rect x="224" y="224" width="32" height="32" fill="#FEFEFE" />
</svg>
