<svg xmlns="http://www.w3.org/2000/svg" width="256" height="256" viewBox="0 0 256 256" shape-rendering="crispEdges" role="img" aria-labelledby="title desc">
  <title id="title">Echo of Release</title>
  <desc id="desc">This composition embodies the tension between control and surrender through contrasting patterns of density and openness. The palette, based on 'fear_hope', combines black and dark violet to represent containment, with soft gold and pale green introducing an element of release. The dominant dark tones fill the center, creating a feeling of overflow, while softer colors bleed into the corners, suggesting a gradual letting go. The marked presence of broken pixels introduces disruption, reflecting a stuttered flow, while the layout maintains significant negative space to avoid overwhelming the senses, embodying the emotional push and pull described in the seed. The collision of 'echo' and 'constellation' patterns generates a rhythmic oscillation across the square, visually narrating the heart of this tension.</desc>
  <rect width="256" height="256" fill="#FFFFFF" />
  <rect x="0" y="0" width="32" height="32" fill="#000000" />
  <rect x="32" y="0" width="32" height="32" fill="#3D0000" />
  <rect x="64" y="0" width="32" height="32" fill="#5B5B00" />
  <rect x="96" y="0" width="32" height="32" fill="#7FCE39" />
  <rect x="128" y="0" width="32" height="32" fill="#A6A600" />
  <rect x="160" y="0" width="32" height="32" fill="#3C4D46" />
  <rect x="192" y="0" width="32" height="32" fill="#1D1010" />
  <rect x="224" y="0" width="32" height="32" fill="#C26C00" />
  <rect x="0" y="32" width="32" height="32" fill="#000000" />
  <rect x="32" y="32" width="32" height="32" fill="#2E0D0D" />
  <rect x="64" y="32" width="32" height="32" fill="#5C4444" />
  <rect x="96" y="32" width="32" height="32" fill="#769A58" />
  <rect x="128" y="32" width="32" height="32" fill="#AEB566" />
  <rect x="160" y="32" width="32" height="32" fill="#73B6A7" />
  <rect x="192" y="32" width="32" height="32" fill="#114B25" />
  <rect x="224" y="32" width="32" height="32" fill="#F8B61C" />
  <rect x="0" y="64" width="32" height="32" fill="#212121" />
  <rect x="32" y="64" width="32" height="32" fill="#3A3E2B" />
  <rect x="64" y="64" width="32" height="32" fill="#4D4D4D" />
  <rect x="96" y="64" width="32" height="32" fill="#C0DE8E" />
  <rect x="128" y="64" width="32" height="32" fill="#E1F7B0" />
  <rect x="160" y="64" width="32" height="32" fill="#B7D8D6" />
  <rect x="192" y="64" width="32" height="32" fill="#3A1D33" />
  <rect x="224" y="64" width="32" height="32" fill="#D24F00" />
  <rect x="0" y="96" width="32" height="32" fill="#2E2E2E" />
  <rect x="32" y="96" width="32" height="32" fill="#48575C" />
  <rect x="64" y="96" width="32" height="32" fill="#6A7F6D" />
  <rect x="96" y="96" width="32" height="32" fill="#94AFA0" />
  <rect x="128" y="96" width="32" height="32" fill="#D8C2A2" />
  <rect x="160" y="96" width="32" height="32" fill="#B76B5F" />
  <rect x="192" y="96" width="32" height="32" fill="#1A2A06" />
  <rect x="224" y="96" width="32" height="32" fill="#D69B2E" />
  <rect x="0" y="128" width="32" height="32" fill="#1C1C1C" />
  <rect x="32" y="128" width="32" height="32" fill="#413232" />
  <rect x="64" y="128" width="32" height="32" fill="#6C605B" />
  <rect x="96" y="128" width="32" height="32" fill="#919A9C" />
  <rect x="128" y="128" width="32" height="32" fill="#C4D4B9" />
  <rect x="160" y="128" width="32" height="32" fill="#A7A08B" />
  <rect x="192" y="128" width="32" height="32" fill="#24496E" />
  <rect x="224" y="128" width="32" height="32" fill="#A08E57" />
  <rect x="0" y="160" width="32" height="32" fill="#121212" />
  <rect x="32" y="160" width="32" height="32" fill="#1F2929" />
  <rect x="64" y="160" width="32" height="32" fill="#394D36" />
  <rect x="96" y="160" width="32" height="32" fill="#AAEDA4" />
  <rect x="128" y="160" width="32" height="32" fill="#BCE5B5" />
  <rect x="160" y="160" width="32" height="32" fill="#A5BB91" />
  <rect x="192" y="160" width="32" height="32" fill="#2A324C" />
  <rect x="224" y="160" width="32" height="32" fill="#9A0D00" />
  <rect x="0" y="192" width="32" height="32" fill="#3B3B3B" />
  <rect x="32" y="192" width="32" height="32" fill="#212D2D" />
  <rect x="64" y="192" width="32" height="32" fill="#46554B" />
  <rect x="96" y="192" width="32" height="32" fill="#B2D2A3" />
  <rect x="128" y="192" width="32" height="32" fill="#D4E8BA" />
  <rect x="160" y="192" width="32" height="32" fill="#C0CBB4" />
  <rect x="192" y="192" width="32" height="32" fill="#423B50" />
  <rect x="224" y="192" width="32" height="32" fill="#7A515A" />
  <rect x="0" y="224" width="32" height="32" fill="#1F1F1F" />
  <rect x="32" y="224" width="32" height="32" fill="#372F2F" />
  <rect x="64" y="224" width="32" height="32" fill="#6D5A40" />
  <rect x="96" y="224" width="32" height="32" fill="#B1D1A9" />
  <rect x="128" y="224" width="32" height="32" fill="#DEDFCB" />
  <rect x="160" y="224" width="32" height="32" fill="#D1CBBC" />
  <rect x="192" y="224" width="32" height="32" fill="#3E3B25" />
  <rect x="224" y="224" width="32" height="32" fill="#0D0D0D" />
</svg>
