<svg xmlns="http://www.w3.org/2000/svg" width="256" height="256" viewBox="0 0 256 256" shape-rendering="crispEdges" role="img" aria-labelledby="title desc">
  <title id="title">Pressure and Release</title>
  <desc id="desc">This abstract composition encapsulates the emotional dance between pressure and quiet. The palette features muted tones like off white and dust gray coupled with compressed red and dark navy, symbolizing the weight of pressure intertwined with the serenity of quiet. The main contrast occurs diagonally across the square, where the light colors abruptly encounter dense clusters of darker hues. This collision reflects the tension of opposing emotions stated in the seed, creating a dynamic flow that captures both hard edges and soft spaces. The arrangement hints at a rise from bottom to top, mirroring a struggle for clarity amidst confusion, echoing the overall narrative.</desc>
  <rect width="256" height="256" fill="#FFFFFF" />
  <rect x="0" y="0" width="32" height="32" fill="#D2CFC4" />
  <rect x="32" y="0" width="32" height="32" fill="#D6D2CF" />
  <rect x="64" y="0" width="32" height="32" fill="#B0A6A3" />
  <rect x="96" y="0" width="32" height="32" fill="#BC868C" />
  <rect x="128" y="0" width="32" height="32" fill="#B2C1C1" />
  <rect x="160" y="0" width="32" height="32" fill="#462E3E" />
  <rect x="192" y="0" width="32" height="32" fill="#2D2642" />
  <rect x="224" y="0" width="32" height="32" fill="#1A1C23" />
  <rect x="0" y="32" width="32" height="32" fill="#F7F7F7" />
  <rect x="32" y="32" width="32" height="32" fill="#F0E3E3" />
  <rect x="64" y="32" width="32" height="32" fill="#D9C0C2" />
  <rect x="96" y="32" width="32" height="32" fill="#6F4F5B" />
  <rect x="128" y="32" width="32" height="32" fill="#705057" />
  <rect x="160" y="32" width="32" height="32" fill="#4B2A29" />
  <rect x="192" y="32" width="32" height="32" fill="#1E1E1E" />
  <rect x="224" y="32" width="32" height="32" fill="#3E3B3B" />
  <rect x="0" y="64" width="32" height="32" fill="#F9F1EA" />
  <rect x="32" y="64" width="32" height="32" fill="#947C7E" />
  <rect x="64" y="64" width="32" height="32" fill="#B32732" />
  <rect x="96" y="64" width="32" height="32" fill="#FFFFFF" />
  <rect x="128" y="64" width="32" height="32" fill="#ECEFEF" />
  <rect x="160" y="64" width="32" height="32" fill="#6D6B69" />
  <rect x="192" y="64" width="32" height="32" fill="#9FA6A5" />
  <rect x="224" y="64" width="32" height="32" fill="#C5D2CF" />
  <rect x="0" y="96" width="32" height="32" fill="#E2E2E2" />
  <rect x="32" y="96" width="32" height="32" fill="#C0B3B1" />
  <rect x="64" y="96" width="32" height="32" fill="#4C3632" />
  <rect x="96" y="96" width="32" height="32" fill="#6E4A4B" />
  <rect x="128" y="96" width="32" height="32" fill="#3A3336" />
  <rect x="160" y="96" width="32" height="32" fill="#27292B" />
  <rect x="192" y="96" width="32" height="32" fill="#6F7D7D" />
  <rect x="224" y="96" width="32" height="32" fill="#D5D0CE" />
  <rect x="0" y="128" width="32" height="32" fill="#EEEDEC" />
  <rect x="32" y="128" width="32" height="32" fill="#7A6264" />
  <rect x="64" y="128" width="32" height="32" fill="#550C15" />
  <rect x="96" y="128" width="32" height="32" fill="#321C24" />
  <rect x="128" y="128" width="32" height="32" fill="#C4C3C4" />
  <rect x="160" y="128" width="32" height="32" fill="#4A4746" />
  <rect x="192" y="128" width="32" height="32" fill="#40343B" />
  <rect x="224" y="128" width="32" height="32" fill="#929C9C" />
  <rect x="0" y="160" width="32" height="32" fill="#FFFFFF" />
  <rect x="32" y="160" width="32" height="32" fill="#F5E3E3" />
  <rect x="64" y="160" width="32" height="32" fill="#D9B1B4" />
  <rect x="96" y="160" width="32" height="32" fill="#524849" />
  <rect x="128" y="160" width="32" height="32" fill="#646464" />
  <rect x="160" y="160" width="32" height="32" fill="#000000" />
  <rect x="192" y="160" width="32" height="32" fill="#222222" />
  <rect x="224" y="160" width="32" height="32" fill="#444444" />
  <rect x="0" y="192" width="32" height="32" fill="#F1F1F1" />
  <rect x="32" y="192" width="32" height="32" fill="#C6B2B2" />
  <rect x="64" y="192" width="32" height="32" fill="#B33E44" />
  <rect x="96" y="192" width="32" height="32" fill="#5E4D51" />
  <rect x="128" y="192" width="32" height="32" fill="#84968A" />
  <rect x="160" y="192" width="32" height="32" fill="#780D14" />
  <rect x="192" y="192" width="32" height="32" fill="#341E23" />
  <rect x="224" y="192" width="32" height="32" fill="#2E2E2E" />
  <rect x="0" y="224" width="32" height="32" fill="#F8F8F8" />
  <rect x="32" y="224" width="32" height="32" fill="#EAE9E9" />
  <rect x="64" y="224" width="32" height="32" fill="#C5A1A2" />
  <rect x="96" y="224" width="32" height="32" fill="#67284D" />
  <rect x="128" y="224" width="32" height="32" fill="#484846" />
  <rect x="160" y="224" width="32" height="32" fill="#7C8F8F" />
  <rect x="192" y="224" width="32" height="32" fill="#2E2A2B" />
  <rect x="224" y="224" width="32" height="32" fill="#131719" />
</svg>
