<svg xmlns="http://www.w3.org/2000/svg" width="256" height="256" viewBox="0 0 256 256" shape-rendering="crispEdges" role="img" aria-labelledby="title desc">
  <title id="title">Tension Between Walls</title>
  <desc id="desc">This pixel artwork captures the emotional interplay of vulnerability and strength through a contrasting palette of dark maroon and pale pink, representing strength against a backdrop of exposure. The hard edges juxtapose the scattered marks, implying both the resilience of shelter and the fragility of being exposed. The collision happens centrally, where the pale area intersects with darker hues, expressing a narrative of protection while hinting at the potential for breach. The use of broken pixels introduces intentional disruptions, adding depth to the overall composition and enhancing the feeling of imperfection.</desc>
  <rect width="256" height="256" fill="#FFFFFF" />
  <rect x="0" y="0" width="32" height="32" fill="#330C0D" />
  <rect x="32" y="0" width="32" height="32" fill="#5B302F" />
  <rect x="64" y="0" width="32" height="32" fill="#782737" />
  <rect x="96" y="0" width="32" height="32" fill="#A1515E" />
  <rect x="128" y="0" width="32" height="32" fill="#F5D0D6" />
  <rect x="160" y="0" width="32" height="32" fill="#F3B4C2" />
  <rect x="192" y="0" width="32" height="32" fill="#EF899E" />
  <rect x="224" y="0" width="32" height="32" fill="#674B50" />
  <rect x="0" y="32" width="32" height="32" fill="#48251B" />
  <rect x="32" y="32" width="32" height="32" fill="#6B1C25" />
  <rect x="64" y="32" width="32" height="32" fill="#AC4A54" />
  <rect x="96" y="32" width="32" height="32" fill="#D37780" />
  <rect x="128" y="32" width="32" height="32" fill="#F2C8D2" />
  <rect x="160" y="32" width="32" height="32" fill="#F8A3BD" />
  <rect x="192" y="32" width="32" height="32" fill="#ED6A94" />
  <rect x="224" y="32" width="32" height="32" fill="#5A292B" />
  <rect x="0" y="64" width="32" height="32" fill="#4E1C22" />
  <rect x="32" y="64" width="32" height="32" fill="#6B2E31" />
  <rect x="64" y="64" width="32" height="32" fill="#92303B" />
  <rect x="96" y="64" width="32" height="32" fill="#DB4F61" />
  <rect x="128" y="64" width="32" height="32" fill="#B68D9D" />
  <rect x="160" y="64" width="32" height="32" fill="#934656" />
  <rect x="192" y="64" width="32" height="32" fill="#620D12" />
  <rect x="224" y="64" width="32" height="32" fill="#3B1A1D" />
  <rect x="0" y="96" width="32" height="32" fill="#6D2F28" />
  <rect x="32" y="96" width="32" height="32" fill="#400E10" />
  <rect x="64" y="96" width="32" height="32" fill="#8F2E30" />
  <rect x="96" y="96" width="32" height="32" fill="#F2D4DA" />
  <rect x="128" y="96" width="32" height="32" fill="#F0B2C1" />
  <rect x="160" y="96" width="32" height="32" fill="#E69DAC" />
  <rect x="192" y="96" width="32" height="32" fill="#CF7E97" />
  <rect x="224" y="96" width="32" height="32" fill="#8C4747" />
  <rect x="0" y="128" width="32" height="32" fill="#5F272D" />
  <rect x="32" y="128" width="32" height="32" fill="#39070D" />
  <rect x="64" y="128" width="32" height="32" fill="#8B4A53" />
  <rect x="96" y="128" width="32" height="32" fill="#AD6F79" />
  <rect x="128" y="128" width="32" height="32" fill="#F3C1C9" />
  <rect x="160" y="128" width="32" height="32" fill="#EF6C7E" />
  <rect x="192" y="128" width="32" height="32" fill="#C8364E" />
  <rect x="224" y="128" width="32" height="32" fill="#621B1E" />
  <rect x="0" y="160" width="32" height="32" fill="#1B1C1E" />
  <rect x="32" y="160" width="32" height="32" fill="#7F2B32" />
  <rect x="64" y="160" width="32" height="32" fill="#CC5F67" />
  <rect x="96" y="160" width="32" height="32" fill="#F7D1D6" />
  <rect x="128" y="160" width="32" height="32" fill="#F0ABB7" />
  <rect x="160" y="160" width="32" height="32" fill="#F2C2C9" />
  <rect x="192" y="160" width="32" height="32" fill="#DD5F65" />
  <rect x="224" y="160" width="32" height="32" fill="#B94D52" />
  <rect x="0" y="192" width="32" height="32" fill="#3C1718" />
  <rect x="32" y="192" width="32" height="32" fill="#5B2E2F" />
  <rect x="64" y="192" width="32" height="32" fill="#E88D99" />
  <rect x="96" y="192" width="32" height="32" fill="#DDEFDF" />
  <rect x="128" y="192" width="32" height="32" fill="#E1A3B7" />
  <rect x="160" y="192" width="32" height="32" fill="#C6344B" />
  <rect x="192" y="192" width="32" height="32" fill="#9C4853" />
  <rect x="224" y="192" width="32" height="32" fill="#4A191B" />
  <rect x="0" y="224" width="32" height="32" fill="#1C0E0F" />
  <rect x="32" y="224" width="32" height="32" fill="#352020" />
  <rect x="64" y="224" width="32" height="32" fill="#463030" />
  <rect x="96" y="224" width="32" height="32" fill="#B81114" />
  <rect x="128" y="224" width="32" height="32" fill="#F6C8D1" />
  <rect x="160" y="224" width="32" height="32" fill="#EDB0BE" />
  <rect x="192" y="224" width="32" height="32" fill="#E18499" />
  <rect x="224" y="224" width="32" height="32" fill="#441414" />
</svg>
