<svg xmlns="http://www.w3.org/2000/svg" width="256" height="256" viewBox="0 0 256 256" shape-rendering="crispEdges" role="img" aria-labelledby="title desc">
  <title id="title">Tension of Echoes</title>
  <desc id="desc">The emotional tone captures a battle between longing and resolve, where muted undertones reflect the ache of desire contrasted by bursts of assertive color. The palette of sepia, tan, dust gray, and faded blue embodies memories—muted but present. The main collision occurs centrally, with the 'hinge' and 'ring' patterns intertwining, creating a dynamic interplay of structure and vulnerability, reflecting the seed's theme of broken yet yearning forms.</desc>
  <rect width="256" height="256" fill="#FFFFFF" />
  <rect x="0" y="0" width="32" height="32" fill="#D8C4A4" />
  <rect x="32" y="0" width="32" height="32" fill="#BCA292" />
  <rect x="64" y="0" width="32" height="32" fill="#E1D4C7" />
  <rect x="96" y="0" width="32" height="32" fill="#E3DAEB" />
  <rect x="128" y="0" width="32" height="32" fill="#B8B8B4" />
  <rect x="160" y="0" width="32" height="32" fill="#A29186" />
  <rect x="192" y="0" width="32" height="32" fill="#E0C0AA" />
  <rect x="224" y="0" width="32" height="32" fill="#D6D1D7" />
  <rect x="0" y="32" width="32" height="32" fill="#F3E6D8" />
  <rect x="32" y="32" width="32" height="32" fill="#C7B2A6" />
  <rect x="64" y="32" width="32" height="32" fill="#E6E8F0" />
  <rect x="96" y="32" width="32" height="32" fill="#B4C4D7" />
  <rect x="128" y="32" width="32" height="32" fill="#ABCEEF" />
  <rect x="160" y="32" width="32" height="32" fill="#8CB8DB" />
  <rect x="192" y="32" width="32" height="32" fill="#A2C3DD" />
  <rect x="224" y="32" width="32" height="32" fill="#D9D3D8" />
  <rect x="0" y="64" width="32" height="32" fill="#A8A6A4" />
  <rect x="32" y="64" width="32" height="32" fill="#5B4342" />
  <rect x="64" y="64" width="32" height="32" fill="#C3A292" />
  <rect x="96" y="64" width="32" height="32" fill="#FAE8DC" />
  <rect x="128" y="64" width="32" height="32" fill="#C0C4C8" />
  <rect x="160" y="64" width="32" height="32" fill="#757575" />
  <rect x="192" y="64" width="32" height="32" fill="#9F8884" />
  <rect x="224" y="64" width="32" height="32" fill="#C2B0AB" />
  <rect x="0" y="96" width="32" height="32" fill="#F2D7CD" />
  <rect x="32" y="96" width="32" height="32" fill="#E5E8E8" />
  <rect x="64" y="96" width="32" height="32" fill="#C1A9A8" />
  <rect x="96" y="96" width="32" height="32" fill="#E4E1F1" />
  <rect x="128" y="96" width="32" height="32" fill="#7F7F7F" />
  <rect x="160" y="96" width="32" height="32" fill="#D7B0B2" />
  <rect x="192" y="96" width="32" height="32" fill="#EAE1E6" />
  <rect x="224" y="96" width="32" height="32" fill="#F6F2F2" />
  <rect x="0" y="128" width="32" height="32" fill="#BC8D7B" />
  <rect x="32" y="128" width="32" height="32" fill="#E0A1B1" />
  <rect x="64" y="128" width="32" height="32" fill="#D0C7DD" />
  <rect x="96" y="128" width="32" height="32" fill="#C0B0B5" />
  <rect x="128" y="128" width="32" height="32" fill="#F3D6D7" />
  <rect x="160" y="128" width="32" height="32" fill="#F5F5F5" />
  <rect x="192" y="128" width="32" height="32" fill="#B2A9B0" />
  <rect x="224" y="128" width="32" height="32" fill="#5E5960" />
  <rect x="0" y="160" width="32" height="32" fill="#7F848B" />
  <rect x="32" y="160" width="32" height="32" fill="#E1D7DE" />
  <rect x="64" y="160" width="32" height="32" fill="#ECF0F1" />
  <rect x="96" y="160" width="32" height="32" fill="#D9D1CC" />
  <rect x="128" y="160" width="32" height="32" fill="#C7BEBF" />
  <rect x="160" y="160" width="32" height="32" fill="#AE6C68" />
  <rect x="192" y="160" width="32" height="32" fill="#D8B8A3" />
  <rect x="224" y="160" width="32" height="32" fill="#787878" />
  <rect x="0" y="192" width="32" height="32" fill="#D4C5C4" />
  <rect x="32" y="192" width="32" height="32" fill="#9A8E8D" />
  <rect x="64" y="192" width="32" height="32" fill="#8B7C82" />
  <rect x="96" y="192" width="32" height="32" fill="#F7E2DE" />
  <rect x="128" y="192" width="32" height="32" fill="#9CB8C2" />
  <rect x="160" y="192" width="32" height="32" fill="#597057" />
  <rect x="192" y="192" width="32" height="32" fill="#C5CDEA" />
  <rect x="224" y="192" width="32" height="32" fill="#C8BDCC" />
  <rect x="0" y="224" width="32" height="32" fill="#7B7B7B" />
  <rect x="32" y="224" width="32" height="32" fill="#9F8E8C" />
  <rect x="64" y="224" width="32" height="32" fill="#B2B8C6" />
  <rect x="96" y="224" width="32" height="32" fill="#2D3E50" />
  <rect x="128" y="224" width="32" height="32" fill="#E1D3DC" />
  <rect x="160" y="224" width="32" height="32" fill="#B8C5C8" />
  <rect x="192" y="224" width="32" height="32" fill="#EAE7E8" />
  <rect x="224" y="224" width="32" height="32" fill="#F0F0F0" />
</svg>
