<svg xmlns="http://www.w3.org/2000/svg" width="256" height="256" viewBox="0 0 256 256" shape-rendering="crispEdges" role="img" aria-labelledby="title desc">
  <title id="title">Symmetric Disruption</title>
  <desc id="desc">The emotional tone reflects a struggle between confusion and clarity, emphasizing the tension between structured order and chaotic disruption. The chosen palette of black, dark violet, soft gold, and pale green creates a contrast that signifies uncertainty (dark tones) against glimpses of hope and clarity (gold and green). The jagged edges represent incompleteness and fragmentation within the overall shape, while the radial pattern invokes feelings of swirling confusion. Broken pixels echo the idea of imperfection, contributing to an unsettling aesthetic that pushes viewers to contemplate the edges of understanding.</desc>
  <rect width="256" height="256" fill="#FFFFFF" />
  <rect x="0" y="0" width="32" height="32" fill="#000000" />
  <rect x="32" y="0" width="32" height="32" fill="#6A0EAD" />
  <rect x="64" y="0" width="32" height="32" fill="#6A0EAD" />
  <rect x="96" y="0" width="32" height="32" fill="#000000" />
  <rect x="128" y="0" width="32" height="32" fill="#6A0EAD" />
  <rect x="160" y="0" width="32" height="32" fill="#6A0EAD" />
  <rect x="192" y="0" width="32" height="32" fill="#000000" />
  <rect x="224" y="0" width="32" height="32" fill="#6A0EAD" />
  <rect x="0" y="32" width="32" height="32" fill="#6A0EAD" />
  <rect x="32" y="32" width="32" height="32" fill="#8B4513" />
  <rect x="64" y="32" width="32" height="32" fill="#FFD700" />
  <rect x="96" y="32" width="32" height="32" fill="#8B4513" />
  <rect x="128" y="32" width="32" height="32" fill="#000000" />
  <rect x="160" y="32" width="32" height="32" fill="#FFD700" />
  <rect x="192" y="32" width="32" height="32" fill="#8B4513" />
  <rect x="224" y="32" width="32" height="32" fill="#6A0EAD" />
  <rect x="0" y="64" width="32" height="32" fill="#000000" />
  <rect x="32" y="64" width="32" height="32" fill="#8B4513" />
  <rect x="64" y="64" width="32" height="32" fill="#FFD700" />
  <rect x="96" y="64" width="32" height="32" fill="#8B4513" />
  <rect x="128" y="64" width="32" height="32" fill="#000000" />
  <rect x="160" y="64" width="32" height="32" fill="#6A0EAD" />
  <rect x="192" y="64" width="32" height="32" fill="#FFD700" />
  <rect x="224" y="64" width="32" height="32" fill="#8B4513" />
  <rect x="0" y="96" width="32" height="32" fill="#6A0EAD" />
  <rect x="32" y="96" width="32" height="32" fill="#8B4513" />
  <rect x="64" y="96" width="32" height="32" fill="#000000" />
  <rect x="96" y="96" width="32" height="32" fill="#FFD700" />
  <rect x="128" y="96" width="32" height="32" fill="#8B4513" />
  <rect x="160" y="96" width="32" height="32" fill="#6A0EAD" />
  <rect x="192" y="96" width="32" height="32" fill="#FFD700" />
  <rect x="224" y="96" width="32" height="32" fill="#000000" />
  <rect x="0" y="128" width="32" height="32" fill="#8B4513" />
  <rect x="32" y="128" width="32" height="32" fill="#000000" />
  <rect x="64" y="128" width="32" height="32" fill="#000000" />
  <rect x="96" y="128" width="32" height="32" fill="#6A0EAD" />
  <rect x="128" y="128" width="32" height="32" fill="#8B4513" />
  <rect x="160" y="128" width="32" height="32" fill="#8B4513" />
  <rect x="192" y="128" width="32" height="32" fill="#FFD700" />
  <rect x="224" y="128" width="32" height="32" fill="#6A0EAD" />
  <rect x="0" y="160" width="32" height="32" fill="#6A0EAD" />
  <rect x="32" y="160" width="32" height="32" fill="#FFD700" />
  <rect x="64" y="160" width="32" height="32" fill="#8B4513" />
  <rect x="96" y="160" width="32" height="32" fill="#000000" />
  <rect x="128" y="160" width="32" height="32" fill="#FFD700" />
  <rect x="160" y="160" width="32" height="32" fill="#8B4513" />
  <rect x="192" y="160" width="32" height="32" fill="#000000" />
  <rect x="224" y="160" width="32" height="32" fill="#8B4513" />
  <rect x="0" y="192" width="32" height="32" fill="#000000" />
  <rect x="32" y="192" width="32" height="32" fill="#8B4513" />
  <rect x="64" y="192" width="32" height="32" fill="#6A0EAD" />
  <rect x="96" y="192" width="32" height="32" fill="#8B4513" />
  <rect x="128" y="192" width="32" height="32" fill="#000000" />
  <rect x="160" y="192" width="32" height="32" fill="#FFD700" />
  <rect x="192" y="192" width="32" height="32" fill="#8B4513" />
  <rect x="224" y="192" width="32" height="32" fill="#000000" />
  <rect x="0" y="224" width="32" height="32" fill="#FFD700" />
  <rect x="32" y="224" width="32" height="32" fill="#000000" />
  <rect x="64" y="224" width="32" height="32" fill="#8B4513" />
  <rect x="96" y="224" width="32" height="32" fill="#FFD700" />
  <rect x="128" y="224" width="32" height="32" fill="#6A0EAD" />
  <rect x="160" y="224" width="32" height="32" fill="#8B4513" />
  <rect x="192" y="224" width="32" height="32" fill="#6A0EAD" />
  <rect x="224" y="224" width="32" height="32" fill="#000000" />
</svg>
