<svg xmlns="http://www.w3.org/2000/svg" width="256" height="256" viewBox="0 0 256 256" shape-rendering="crispEdges" role="img" aria-labelledby="title desc">
  <title id="title">Tension Between Rise and Fall</title>
  <desc id="desc">The emotional tone reflects a dynamic contrast between envy and gratitude, visualized through an interplay of warm yellows and oranges against cool deep blues and muted purples. The palette signifies warmth striving upward, battling against the cool depths representing fall and release. Main collisions happen where warm tones disrupt the cooler background, suggesting emotional peaks and troughs. The layout captures the central 'bridge' shape abstracted in soft curvature, signifying pressure points where emotions collide. Broken pixels introduce imperfect interruptions into the grid pattern of envy, complemented by fractal cracks of gratitude, thus emphasizing the complexities of emotional landscapes.</desc>
  <rect width="256" height="256" fill="#FFFFFF" />
  <rect x="0" y="0" width="32" height="32" fill="#FFD700" />
  <rect x="32" y="0" width="32" height="32" fill="#FF8C00" />
  <rect x="64" y="0" width="32" height="32" fill="#6A5ACD" />
  <rect x="96" y="0" width="32" height="32" fill="#4682B4" />
  <rect x="128" y="0" width="32" height="32" fill="#6A5ACD" />
  <rect x="160" y="0" width="32" height="32" fill="#FF8C00" />
  <rect x="192" y="0" width="32" height="32" fill="#FFD700" />
  <rect x="224" y="0" width="32" height="32" fill="#FFFFFF" />
  <rect x="0" y="32" width="32" height="32" fill="#FF6347" />
  <rect x="32" y="32" width="32" height="32" fill="#F0E68C" />
  <rect x="64" y="32" width="32" height="32" fill="#2E8B57" />
  <rect x="96" y="32" width="32" height="32" fill="#000000" />
  <rect x="128" y="32" width="32" height="32" fill="#2E8B57" />
  <rect x="160" y="32" width="32" height="32" fill="#F0E68C" />
  <rect x="192" y="32" width="32" height="32" fill="#FF6347" />
  <rect x="224" y="32" width="32" height="32" fill="#FFFFFF" />
  <rect x="0" y="64" width="32" height="32" fill="#B22222" />
  <rect x="32" y="64" width="32" height="32" fill="#4682B4" />
  <rect x="64" y="64" width="32" height="32" fill="#871F78" />
  <rect x="96" y="64" width="32" height="32" fill="#6A5ACD" />
  <rect x="128" y="64" width="32" height="32" fill="#871F78" />
  <rect x="160" y="64" width="32" height="32" fill="#4682B4" />
  <rect x="192" y="64" width="32" height="32" fill="#B22222" />
  <rect x="224" y="64" width="32" height="32" fill="#FFFFFF" />
  <rect x="0" y="96" width="32" height="32" fill="#FF4500" />
  <rect x="32" y="96" width="32" height="32" fill="#FFD700" />
  <rect x="64" y="96" width="32" height="32" fill="#8B008B" />
  <rect x="96" y="96" width="32" height="32" fill="#6A5ACD" />
  <rect x="128" y="96" width="32" height="32" fill="#8B008B" />
  <rect x="160" y="96" width="32" height="32" fill="#FFD700" />
  <rect x="192" y="96" width="32" height="32" fill="#FF4500" />
  <rect x="224" y="96" width="32" height="32" fill="#FFFFFF" />
  <rect x="0" y="128" width="32" height="32" fill="#8FBC8F" />
  <rect x="32" y="128" width="32" height="32" fill="#20B2AA" />
  <rect x="64" y="128" width="32" height="32" fill="#4682B4" />
  <rect x="96" y="128" width="32" height="32" fill="#2E8B57" />
  <rect x="128" y="128" width="32" height="32" fill="#4682B4" />
  <rect x="160" y="128" width="32" height="32" fill="#20B2AA" />
  <rect x="192" y="128" width="32" height="32" fill="#8FBC8F" />
  <rect x="224" y="128" width="32" height="32" fill="#FFFFFF" />
  <rect x="0" y="160" width="32" height="32" fill="#FF1493" />
  <rect x="32" y="160" width="32" height="32" fill="#FF6347" />
  <rect x="64" y="160" width="32" height="32" fill="#DAA520" />
  <rect x="96" y="160" width="32" height="32" fill="#CD5C5C" />
  <rect x="128" y="160" width="32" height="32" fill="#DAA520" />
  <rect x="160" y="160" width="32" height="32" fill="#FF6347" />
  <rect x="192" y="160" width="32" height="32" fill="#FF1493" />
  <rect x="224" y="160" width="32" height="32" fill="#FFFFFF" />
  <rect x="0" y="192" width="32" height="32" fill="#4B0082" />
  <rect x="32" y="192" width="32" height="32" fill="#6A5ACD" />
  <rect x="64" y="192" width="32" height="32" fill="#8B4513" />
  <rect x="96" y="192" width="32" height="32" fill="#654321" />
  <rect x="128" y="192" width="32" height="32" fill="#8B4513" />
  <rect x="160" y="192" width="32" height="32" fill="#6A5ACD" />
  <rect x="192" y="192" width="32" height="32" fill="#4B0082" />
  <rect x="224" y="192" width="32" height="32" fill="#FFFFFF" />
  <rect x="0" y="224" width="32" height="32" fill="#F5F5DC" />
  <rect x="32" y="224" width="32" height="32" fill="#BDB76B" />
  <rect x="64" y="224" width="32" height="32" fill="#C0C0C0" />
  <rect x="96" y="224" width="32" height="32" fill="#696969" />
  <rect x="128" y="224" width="32" height="32" fill="#C0C0C0" />
  <rect x="160" y="224" width="32" height="32" fill="#BDB76B" />
  <rect x="192" y="224" width="32" height="32" fill="#F5F5DC" />
  <rect x="224" y="224" width="32" height="32" fill="#FFFFFF" />
</svg>
