<svg xmlns="http://www.w3.org/2000/svg" width="256" height="256" viewBox="0 0 256 256" shape-rendering="crispEdges" role="img" aria-labelledby="title desc">
  <title id="title">Echoes of Longing</title>
  <desc id="desc">The emotional tone navigates the tension between longing and resolve. The chosen palette of muted plum, rain blue, and soft cyan embodies a melancholic yet vibrant atmosphere. This creates tension through cool and warm color contrasts. The layout, representing two pulsing centers, parallels the longing's distance against the resolve's steady presence. The main collision occurs at the center of the square, where broken dots meet structured channels, allowing for an abstract representation of emotional interplay. Broken pixels add intentional disruption, illustrating the imperfections found in each emotional state, guiding the viewer through a landscape of feeling without direct representation.</desc>
  <rect width="256" height="256" fill="#FFFFFF" />
  <rect x="0" y="0" width="32" height="32" fill="#6C5B7F" />
  <rect x="32" y="0" width="32" height="32" fill="#F67280" />
  <rect x="64" y="0" width="32" height="32" fill="#F8B400" />
  <rect x="96" y="0" width="32" height="32" fill="#C06C84" />
  <rect x="128" y="0" width="32" height="32" fill="#C3C7E0" />
  <rect x="160" y="0" width="32" height="32" fill="#6A8D92" />
  <rect x="192" y="0" width="32" height="32" fill="#B9FBC0" />
  <rect x="224" y="0" width="32" height="32" fill="#FFFFFF" />
  <rect x="0" y="32" width="32" height="32" fill="#6C5B7F" />
  <rect x="32" y="32" width="32" height="32" fill="#F67280" />
  <rect x="64" y="32" width="32" height="32" fill="#F8B400" />
  <rect x="96" y="32" width="32" height="32" fill="#6A8D92" />
  <rect x="128" y="32" width="32" height="32" fill="#C3C7E0" />
  <rect x="160" y="32" width="32" height="32" fill="#6C5B7F" />
  <rect x="192" y="32" width="32" height="32" fill="#B9FBC0" />
  <rect x="224" y="32" width="32" height="32" fill="#E0E0E0" />
  <rect x="0" y="64" width="32" height="32" fill="#F8B400" />
  <rect x="32" y="64" width="32" height="32" fill="#C3C7E0" />
  <rect x="64" y="64" width="32" height="32" fill="#6A8D92" />
  <rect x="96" y="64" width="32" height="32" fill="#6C5B7F" />
  <rect x="128" y="64" width="32" height="32" fill="#F67280" />
  <rect x="160" y="64" width="32" height="32" fill="#C06C84" />
  <rect x="192" y="64" width="32" height="32" fill="#B9FBC0" />
  <rect x="224" y="64" width="32" height="32" fill="#FFFFFF" />
  <rect x="0" y="96" width="32" height="32" fill="#C06C84" />
  <rect x="32" y="96" width="32" height="32" fill="#6A8D92" />
  <rect x="64" y="96" width="32" height="32" fill="#F8B400" />
  <rect x="96" y="96" width="32" height="32" fill="#F67280" />
  <rect x="128" y="96" width="32" height="32" fill="#6C5B7F" />
  <rect x="160" y="96" width="32" height="32" fill="#B9FBC0" />
  <rect x="192" y="96" width="32" height="32" fill="#FFFFFF" />
  <rect x="224" y="96" width="32" height="32" fill="#E0E0E0" />
  <rect x="0" y="128" width="32" height="32" fill="#F67280" />
  <rect x="32" y="128" width="32" height="32" fill="#6C5B7F" />
  <rect x="64" y="128" width="32" height="32" fill="#C3C7E0" />
  <rect x="96" y="128" width="32" height="32" fill="#B9FBC0" />
  <rect x="128" y="128" width="32" height="32" fill="#F8B400" />
  <rect x="160" y="128" width="32" height="32" fill="#C06C84" />
  <rect x="192" y="128" width="32" height="32" fill="#FFFFFF" />
  <rect x="224" y="128" width="32" height="32" fill="#FFFFFF" />
  <rect x="0" y="160" width="32" height="32" fill="#B9FBC0" />
  <rect x="32" y="160" width="32" height="32" fill="#F8B400" />
  <rect x="64" y="160" width="32" height="32" fill="#F67280" />
  <rect x="96" y="160" width="32" height="32" fill="#6A8D92" />
  <rect x="128" y="160" width="32" height="32" fill="#6C5B7F" />
  <rect x="160" y="160" width="32" height="32" fill="#C06C84" />
  <rect x="192" y="160" width="32" height="32" fill="#FFFFFF" />
  <rect x="224" y="160" width="32" height="32" fill="#E0E0E0" />
  <rect x="0" y="192" width="32" height="32" fill="#6C5B7F" />
  <rect x="32" y="192" width="32" height="32" fill="#C3C7E0" />
  <rect x="64" y="192" width="32" height="32" fill="#F67280" />
  <rect x="96" y="192" width="32" height="32" fill="#B9FBC0" />
  <rect x="128" y="192" width="32" height="32" fill="#F8B400" />
  <rect x="160" y="192" width="32" height="32" fill="#6A8D92" />
  <rect x="192" y="192" width="32" height="32" fill="#FFFFFF" />
  <rect x="224" y="192" width="32" height="32" fill="#E0E0E0" />
  <rect x="0" y="224" width="32" height="32" fill="#7A2C58" />
  <rect x="32" y="224" width="32" height="32" fill="#D6DBF2" />
  <rect x="64" y="224" width="32" height="32" fill="#FFFFFF" />
  <rect x="96" y="224" width="32" height="32" fill="#6A8D92" />
  <rect x="128" y="224" width="32" height="32" fill="#F67280" />
  <rect x="160" y="224" width="32" height="32" fill="#F8B400" />
  <rect x="192" y="224" width="32" height="32" fill="#C06C84" />
  <rect x="224" y="224" width="32" height="32" fill="#B9FBC0" />
</svg>
