<svg xmlns="http://www.w3.org/2000/svg" width="256" height="256" viewBox="0 0 256 256" shape-rendering="crispEdges" role="img" aria-labelledby="title desc">
  <title id="title">Exposure and Shelter</title>
  <desc id="desc">This artwork presents an emotional contrast between safety and exposure, organized around a dense center reflecting vulnerability and a surrounding area of quieter pixels representing protection. The palette of greens and warm browns suggests safety, while pale skin and cold white denote exposure. The main collision occurs at the center where brighter colors resonate with deeper hues, echoing the push and pull between these emotional states. The arrangement symbolizes the tug of safety against the bravado of exposure, enhancing the tension through optical rhythm, interrupted patterns, and broken pixels revealing dynamic narratives beneath the surface.</desc>
  <rect width="256" height="256" fill="#FFFFFF" />
  <rect x="0" y="0" width="32" height="32" fill="#A9D8B4" />
  <rect x="32" y="0" width="32" height="32" fill="#E7A49E" />
  <rect x="64" y="0" width="32" height="32" fill="#B2E1E0" />
  <rect x="96" y="0" width="32" height="32" fill="#D5E0C3" />
  <rect x="128" y="0" width="32" height="32" fill="#A2C7B0" />
  <rect x="160" y="0" width="32" height="32" fill="#EDE6E6" />
  <rect x="192" y="0" width="32" height="32" fill="#B8D1B0" />
  <rect x="224" y="0" width="32" height="32" fill="#5A8E67" />
  <rect x="0" y="32" width="32" height="32" fill="#F2D0A6" />
  <rect x="32" y="32" width="32" height="32" fill="#C8D6EB" />
  <rect x="64" y="32" width="32" height="32" fill="#B1E0D7" />
  <rect x="96" y="32" width="32" height="32" fill="#D9C3D4" />
  <rect x="128" y="32" width="32" height="32" fill="#AFC6B4" />
  <rect x="160" y="32" width="32" height="32" fill="#E1DFF3" />
  <rect x="192" y="32" width="32" height="32" fill="#68AEBB" />
  <rect x="224" y="32" width="32" height="32" fill="#3A8061" />
  <rect x="0" y="64" width="32" height="32" fill="#D9E4B8" />
  <rect x="32" y="64" width="32" height="32" fill="#E4B7A3" />
  <rect x="64" y="64" width="32" height="32" fill="#9DC278" />
  <rect x="96" y="64" width="32" height="32" fill="#D3E9F2" />
  <rect x="128" y="64" width="32" height="32" fill="#A6BEAE" />
  <rect x="160" y="64" width="32" height="32" fill="#B5D3C1" />
  <rect x="192" y="64" width="32" height="32" fill="#B7E6E5" />
  <rect x="224" y="64" width="32" height="32" fill="#634D3A" />
  <rect x="0" y="96" width="32" height="32" fill="#A0CED7" />
  <rect x="32" y="96" width="32" height="32" fill="#FFE6C3" />
  <rect x="64" y="96" width="32" height="32" fill="#BCFAF0" />
  <rect x="96" y="96" width="32" height="32" fill="#C1AE91" />
  <rect x="128" y="96" width="32" height="32" fill="#DAD1E1" />
  <rect x="160" y="96" width="32" height="32" fill="#B7E4C0" />
  <rect x="192" y="96" width="32" height="32" fill="#7D8C8F" />
  <rect x="224" y="96" width="32" height="32" fill="#F1F1F0" />
  <rect x="0" y="128" width="32" height="32" fill="#FAD6A5" />
  <rect x="32" y="128" width="32" height="32" fill="#E8B8A0" />
  <rect x="64" y="128" width="32" height="32" fill="#285B5C" />
  <rect x="96" y="128" width="32" height="32" fill="#D8E7B3" />
  <rect x="128" y="128" width="32" height="32" fill="#EAE6D2" />
  <rect x="160" y="128" width="32" height="32" fill="#B4B2E3" />
  <rect x="192" y="128" width="32" height="32" fill="#B2D1CC" />
  <rect x="224" y="128" width="32" height="32" fill="#C7A3C6" />
  <rect x="0" y="160" width="32" height="32" fill="#E1B8D1" />
  <rect x="32" y="160" width="32" height="32" fill="#C2D8E7" />
  <rect x="64" y="160" width="32" height="32" fill="#E7E6D6" />
  <rect x="96" y="160" width="32" height="32" fill="#9FB5A8" />
  <rect x="128" y="160" width="32" height="32" fill="#D9BDE1" />
  <rect x="160" y="160" width="32" height="32" fill="#BDC7B5" />
  <rect x="192" y="160" width="32" height="32" fill="#5A8A8B" />
  <rect x="224" y="160" width="32" height="32" fill="#C7D3C2" />
  <rect x="0" y="192" width="32" height="32" fill="#D5E9C3" />
  <rect x="32" y="192" width="32" height="32" fill="#F8D1B3" />
  <rect x="64" y="192" width="32" height="32" fill="#E1D1BF" />
  <rect x="96" y="192" width="32" height="32" fill="#A7D5CE" />
  <rect x="128" y="192" width="32" height="32" fill="#E5B8D2" />
  <rect x="160" y="192" width="32" height="32" fill="#C6B9B0" />
  <rect x="192" y="192" width="32" height="32" fill="#A8E9D6" />
  <rect x="224" y="192" width="32" height="32" fill="#6C8B48" />
  <rect x="0" y="224" width="32" height="32" fill="#F2E8C4" />
  <rect x="32" y="224" width="32" height="32" fill="#B5D6BF" />
  <rect x="64" y="224" width="32" height="32" fill="#A1E0D1" />
  <rect x="96" y="224" width="32" height="32" fill="#E9C8C3" />
  <rect x="128" y="224" width="32" height="32" fill="#C4E3D5" />
  <rect x="160" y="224" width="32" height="32" fill="#9FB3D9" />
  <rect x="192" y="224" width="32" height="32" fill="#D8C2BA" />
  <rect x="224" y="224" width="32" height="32" fill="#484C4A" />
</svg>
