<svg xmlns="http://www.w3.org/2000/svg" width="256" height="256" viewBox="0 0 256 256" shape-rendering="crispEdges" role="img" aria-labelledby="title desc">
  <title id="title">Echoes of Emotion</title>
  <desc id="desc">The emotional tone blends the warmth of love with the sharpness of betrayal, showcased through a palette of pink and gray contrasting against darker maroon. This contrast embodies a tension between the soft, nurturing aspects of love and the harsh edges of betrayal. The pattern is steeped in intersecting flows that rise diagonally, illustrating hope in turmoil, while burned edges symbolize the scars of broken trust. Each row creates a visual rhythm, with punctuated colors echoing lonely signals amidst a cruel interplay of noise and structure.</desc>
  <rect width="256" height="256" fill="#FFFFFF" />
  <rect x="0" y="0" width="32" height="32" fill="#FF6F61" />
  <rect x="32" y="0" width="32" height="32" fill="#FF4D4D" />
  <rect x="64" y="0" width="32" height="32" fill="#BFBFBF" />
  <rect x="96" y="0" width="32" height="32" fill="#662C28" />
  <rect x="128" y="0" width="32" height="32" fill="#BFBFBF" />
  <rect x="160" y="0" width="32" height="32" fill="#FF4D4D" />
  <rect x="192" y="0" width="32" height="32" fill="#FF6F61" />
  <rect x="224" y="0" width="32" height="32" fill="#000000" />
  <rect x="0" y="32" width="32" height="32" fill="#D6D6D6" />
  <rect x="32" y="32" width="32" height="32" fill="#FFAAAA" />
  <rect x="64" y="32" width="32" height="32" fill="#995B5B" />
  <rect x="96" y="32" width="32" height="32" fill="#BFBFBF" />
  <rect x="128" y="32" width="32" height="32" fill="#995B5B" />
  <rect x="160" y="32" width="32" height="32" fill="#FFAAAA" />
  <rect x="192" y="32" width="32" height="32" fill="#D6D6D6" />
  <rect x="224" y="32" width="32" height="32" fill="#777777" />
  <rect x="0" y="64" width="32" height="32" fill="#FF4D4D" />
  <rect x="32" y="64" width="32" height="32" fill="#C9C9C9" />
  <rect x="64" y="64" width="32" height="32" fill="#771B1B" />
  <rect x="96" y="64" width="32" height="32" fill="#BFBFBF" />
  <rect x="128" y="64" width="32" height="32" fill="#771B1B" />
  <rect x="160" y="64" width="32" height="32" fill="#C9C9C9" />
  <rect x="192" y="64" width="32" height="32" fill="#FF4D4D" />
  <rect x="224" y="64" width="32" height="32" fill="#444444" />
  <rect x="0" y="96" width="32" height="32" fill="#BFBFBF" />
  <rect x="32" y="96" width="32" height="32" fill="#BFBFBF" />
  <rect x="64" y="96" width="32" height="32" fill="#FF6F61" />
  <rect x="96" y="96" width="32" height="32" fill="#D6D6D6" />
  <rect x="128" y="96" width="32" height="32" fill="#FF6F61" />
  <rect x="160" y="96" width="32" height="32" fill="#BFBFBF" />
  <rect x="192" y="96" width="32" height="32" fill="#BFBFBF" />
  <rect x="224" y="96" width="32" height="32" fill="#333333" />
  <rect x="0" y="128" width="32" height="32" fill="#662C28" />
  <rect x="32" y="128" width="32" height="32" fill="#FFAAAA" />
  <rect x="64" y="128" width="32" height="32" fill="#D6D6D6" />
  <rect x="96" y="128" width="32" height="32" fill="#BFBFBF" />
  <rect x="128" y="128" width="32" height="32" fill="#D6D6D6" />
  <rect x="160" y="128" width="32" height="32" fill="#FFAAAA" />
  <rect x="192" y="128" width="32" height="32" fill="#662C28" />
  <rect x="224" y="128" width="32" height="32" fill="#111111" />
  <rect x="0" y="160" width="32" height="32" fill="#BFBFBF" />
  <rect x="32" y="160" width="32" height="32" fill="#FF6F61" />
  <rect x="64" y="160" width="32" height="32" fill="#BFBFBF" />
  <rect x="96" y="160" width="32" height="32" fill="#995B5B" />
  <rect x="128" y="160" width="32" height="32" fill="#BFBFBF" />
  <rect x="160" y="160" width="32" height="32" fill="#FF6F61" />
  <rect x="192" y="160" width="32" height="32" fill="#BFBFBF" />
  <rect x="224" y="160" width="32" height="32" fill="#000000" />
  <rect x="0" y="192" width="32" height="32" fill="#777777" />
  <rect x="32" y="192" width="32" height="32" fill="#FF4D4D" />
  <rect x="64" y="192" width="32" height="32" fill="#C9C9C9" />
  <rect x="96" y="192" width="32" height="32" fill="#BFBFBF" />
  <rect x="128" y="192" width="32" height="32" fill="#C9C9C9" />
  <rect x="160" y="192" width="32" height="32" fill="#FF4D4D" />
  <rect x="192" y="192" width="32" height="32" fill="#777777" />
  <rect x="224" y="192" width="32" height="32" fill="#666666" />
  <rect x="0" y="224" width="32" height="32" fill="#444444" />
  <rect x="32" y="224" width="32" height="32" fill="#000000" />
  <rect x="64" y="224" width="32" height="32" fill="#662C28" />
  <rect x="96" y="224" width="32" height="32" fill="#BFBFBF" />
  <rect x="128" y="224" width="32" height="32" fill="#662C28" />
  <rect x="160" y="224" width="32" height="32" fill="#000000" />
  <rect x="192" y="224" width="32" height="32" fill="#444444" />
  <rect x="224" y="224" width="32" height="32" fill="#FFFFFF" />
</svg>
