<svg xmlns="http://www.w3.org/2000/svg" width="256" height="256" viewBox="0 0 256 256" shape-rendering="crispEdges" role="img" aria-labelledby="title desc">
  <title id="title">Fractured Whispers</title>
  <desc id="desc">The emotional tone shifts between love and betrayal, with the palette selected to emphasize warmth and depth. The pinks and reds represent love’s warmth, while the dark maroon and gray denote betrayal’s coldness. Main contrasts arise in the geometric grid pattern against broken symmetry, where warm colors on one side clash against cool hues on the other. The diagonal flow and burned edge style encapsulate the tension and unresolved intersections suggested by the seed, with each broken pixel symbolizing a fracture in emotional clarity, invoking a feeling of both protection and emotional chaos.</desc>
  <rect width="256" height="256" fill="#FFFFFF" />
  <rect x="0" y="0" width="32" height="32" fill="#FF6F61" />
  <rect x="32" y="0" width="32" height="32" fill="#D32D2B" />
  <rect x="64" y="0" width="32" height="32" fill="#D3CFCF" />
  <rect x="96" y="0" width="32" height="32" fill="#B71C1C" />
  <rect x="128" y="0" width="32" height="32" fill="#FFBEC7" />
  <rect x="160" y="0" width="32" height="32" fill="#EAB8B5" />
  <rect x="192" y="0" width="32" height="32" fill="#D3D3D3" />
  <rect x="224" y="0" width="32" height="32" fill="#8B0000" />
  <rect x="0" y="32" width="32" height="32" fill="#D32D2B" />
  <rect x="32" y="32" width="32" height="32" fill="#FF8C8A" />
  <rect x="64" y="32" width="32" height="32" fill="#C7C7C7" />
  <rect x="96" y="32" width="32" height="32" fill="#D32D2B" />
  <rect x="128" y="32" width="32" height="32" fill="#FFB6C1" />
  <rect x="160" y="32" width="32" height="32" fill="#A52A2A" />
  <rect x="192" y="32" width="32" height="32" fill="#FF6F61" />
  <rect x="224" y="32" width="32" height="32" fill="#B22222" />
  <rect x="0" y="64" width="32" height="32" fill="#C7C7C7" />
  <rect x="32" y="64" width="32" height="32" fill="#B71C1C" />
  <rect x="64" y="64" width="32" height="32" fill="#FFB6C1" />
  <rect x="96" y="64" width="32" height="32" fill="#A52A2A" />
  <rect x="128" y="64" width="32" height="32" fill="#D32D2B" />
  <rect x="160" y="64" width="32" height="32" fill="#D3D3D3" />
  <rect x="192" y="64" width="32" height="32" fill="#8B0000" />
  <rect x="224" y="64" width="32" height="32" fill="#D3CFCF" />
  <rect x="0" y="96" width="32" height="32" fill="#FFBEC7" />
  <rect x="32" y="96" width="32" height="32" fill="#D3D3D3" />
  <rect x="64" y="96" width="32" height="32" fill="#FF8C8A" />
  <rect x="96" y="96" width="32" height="32" fill="#D32D2B" />
  <rect x="128" y="96" width="32" height="32" fill="#B71C1C" />
  <rect x="160" y="96" width="32" height="32" fill="#FF6F61" />
  <rect x="192" y="96" width="32" height="32" fill="#FFBEC7" />
  <rect x="224" y="96" width="32" height="32" fill="#C7C7C7" />
  <rect x="0" y="128" width="32" height="32" fill="#B22222" />
  <rect x="32" y="128" width="32" height="32" fill="#A52A2A" />
  <rect x="64" y="128" width="32" height="32" fill="#D3CFCF" />
  <rect x="96" y="128" width="32" height="32" fill="#EAB8B5" />
  <rect x="128" y="128" width="32" height="32" fill="#B71C1C" />
  <rect x="160" y="128" width="32" height="32" fill="#D3D3D3" />
  <rect x="192" y="128" width="32" height="32" fill="#D32D2B" />
  <rect x="224" y="128" width="32" height="32" fill="#FFBEC7" />
  <rect x="0" y="160" width="32" height="32" fill="#D3D3D3" />
  <rect x="32" y="160" width="32" height="32" fill="#D32D2B" />
  <rect x="64" y="160" width="32" height="32" fill="#FF6F61" />
  <rect x="96" y="160" width="32" height="32" fill="#C7C7C7" />
  <rect x="128" y="160" width="32" height="32" fill="#FFB6C1" />
  <rect x="160" y="160" width="32" height="32" fill="#8B0000" />
  <rect x="192" y="160" width="32" height="32" fill="#B22222" />
  <rect x="224" y="160" width="32" height="32" fill="#D3CFCF" />
  <rect x="0" y="192" width="32" height="32" fill="#A52A2A" />
  <rect x="32" y="192" width="32" height="32" fill="#FFB6C1" />
  <rect x="64" y="192" width="32" height="32" fill="#D32D2B" />
  <rect x="96" y="192" width="32" height="32" fill="#D3CFCF" />
  <rect x="128" y="192" width="32" height="32" fill="#B71C1C" />
  <rect x="160" y="192" width="32" height="32" fill="#FF6F61" />
  <rect x="192" y="192" width="32" height="32" fill="#EAB8B5" />
  <rect x="224" y="192" width="32" height="32" fill="#D3D3D3" />
  <rect x="0" y="224" width="32" height="32" fill="#A52A2A" />
  <rect x="32" y="224" width="32" height="32" fill="#8B0000" />
  <rect x="64" y="224" width="32" height="32" fill="#D3CFCF" />
  <rect x="96" y="224" width="32" height="32" fill="#D32D2B" />
  <rect x="128" y="224" width="32" height="32" fill="#FFBEC7" />
  <rect x="160" y="224" width="32" height="32" fill="#C7C7C7" />
  <rect x="192" y="224" width="32" height="32" fill="#B71C1C" />
  <rect x="224" y="224" width="32" height="32" fill="#D3D3D3" />
</svg>
