<svg xmlns="http://www.w3.org/2000/svg" width="256" height="256" viewBox="0 0 256 256" shape-rendering="crispEdges" role="img" aria-labelledby="title desc">
  <title id="title">Tension Between Echoes</title>
  <desc id="desc">The emotional tone is a juxtaposition of envy and gratitude, represented through contrasting colors and patterns. The palette of navy and dim cyan evokes a sense of depth and introspection, while black accentuates moments of emotional intensity. The arrangement leans heavily towards symmetry but disrupts it with broken edges, creating tension. This reflects the inner conflict suggested by the seed, where the rising and falling emotions create waves across the square. The flow is horizontal, imparting a pulse-like rhythm that symbolizes ongoing internal dialogue and reflective moments.</desc>
  <rect width="256" height="256" fill="#FFFFFF" />
  <rect x="0" y="0" width="32" height="32" fill="#000000" />
  <rect x="32" y="0" width="32" height="32" fill="#000033" />
  <rect x="64" y="0" width="32" height="32" fill="#000066" />
  <rect x="96" y="0" width="32" height="32" fill="#003366" />
  <rect x="128" y="0" width="32" height="32" fill="#003399" />
  <rect x="160" y="0" width="32" height="32" fill="#0055CC" />
  <rect x="192" y="0" width="32" height="32" fill="#0077FF" />
  <rect x="224" y="0" width="32" height="32" fill="#0099FF" />
  <rect x="0" y="32" width="32" height="32" fill="#001133" />
  <rect x="32" y="32" width="32" height="32" fill="#003344" />
  <rect x="64" y="32" width="32" height="32" fill="#005566" />
  <rect x="96" y="32" width="32" height="32" fill="#007F99" />
  <rect x="128" y="32" width="32" height="32" fill="#0099CC" />
  <rect x="160" y="32" width="32" height="32" fill="#00B3FF" />
  <rect x="192" y="32" width="32" height="32" fill="#00CCFF" />
  <rect x="224" y="32" width="32" height="32" fill="#00E6FF" />
  <rect x="0" y="64" width="32" height="32" fill="#0F0F0F" />
  <rect x="32" y="64" width="32" height="32" fill="#222222" />
  <rect x="64" y="64" width="32" height="32" fill="#444444" />
  <rect x="96" y="64" width="32" height="32" fill="#333333" />
  <rect x="128" y="64" width="32" height="32" fill="#555555" />
  <rect x="160" y="64" width="32" height="32" fill="#666666" />
  <rect x="192" y="64" width="32" height="32" fill="#777777" />
  <rect x="224" y="64" width="32" height="32" fill="#888888" />
  <rect x="0" y="96" width="32" height="32" fill="#111122" />
  <rect x="32" y="96" width="32" height="32" fill="#222244" />
  <rect x="64" y="96" width="32" height="32" fill="#334466" />
  <rect x="96" y="96" width="32" height="32" fill="#446688" />
  <rect x="128" y="96" width="32" height="32" fill="#5588AA" />
  <rect x="160" y="96" width="32" height="32" fill="#66AABB" />
  <rect x="192" y="96" width="32" height="32" fill="#77CCCC" />
  <rect x="224" y="96" width="32" height="32" fill="#88DDEE" />
  <rect x="0" y="128" width="32" height="32" fill="#002266" />
  <rect x="32" y="128" width="32" height="32" fill="#004488" />
  <rect x="64" y="128" width="32" height="32" fill="#0066AA" />
  <rect x="96" y="128" width="32" height="32" fill="#0088CC" />
  <rect x="128" y="128" width="32" height="32" fill="#00AAFF" />
  <rect x="160" y="128" width="32" height="32" fill="#00CCFF" />
  <rect x="192" y="128" width="32" height="32" fill="#00E6FF" />
  <rect x="224" y="128" width="32" height="32" fill="#00FFFF" />
  <rect x="0" y="160" width="32" height="32" fill="#001122" />
  <rect x="32" y="160" width="32" height="32" fill="#23286B" />
  <rect x="64" y="160" width="32" height="32" fill="#3C3C99" />
  <rect x="96" y="160" width="32" height="32" fill="#5858CC" />
  <rect x="128" y="160" width="32" height="32" fill="#7474FF" />
  <rect x="160" y="160" width="32" height="32" fill="#8E8EFF" />
  <rect x="192" y="160" width="32" height="32" fill="#A8AAFF" />
  <rect x="224" y="160" width="32" height="32" fill="#CCCCFF" />
  <rect x="0" y="192" width="32" height="32" fill="#000000" />
  <rect x="32" y="192" width="32" height="32" fill="#334455" />
  <rect x="64" y="192" width="32" height="32" fill="#556677" />
  <rect x="96" y="192" width="32" height="32" fill="#8899AA" />
  <rect x="128" y="192" width="32" height="32" fill="#AAAAAA" />
  <rect x="160" y="192" width="32" height="32" fill="#BBBBBB" />
  <rect x="192" y="192" width="32" height="32" fill="#CCCCCC" />
  <rect x="224" y="192" width="32" height="32" fill="#DDDDDD" />
  <rect x="0" y="224" width="32" height="32" fill="#000044" />
  <rect x="32" y="224" width="32" height="32" fill="#005577" />
  <rect x="64" y="224" width="32" height="32" fill="#0088AA" />
  <rect x="96" y="224" width="32" height="32" fill="#00AACC" />
  <rect x="128" y="224" width="32" height="32" fill="#00CCFF" />
  <rect x="160" y="224" width="32" height="32" fill="#00E6FF" />
  <rect x="192" y="224" width="32" height="32" fill="#00FFFF" />
  <rect x="224" y="224" width="32" height="32" fill="#FFFFFF" />
</svg>
