<svg xmlns="http://www.w3.org/2000/svg" width="256" height="256" viewBox="0 0 256 256" shape-rendering="crispEdges" role="img" aria-labelledby="title desc">
  <title id="title">Exposure and Shelter</title>
  <desc id="desc">This artwork explores the dynamic tension between vulnerability and strength. The pale mint conveys a quiet, exposed center, symbolizing fragility, while storm gray and near black form a dense perimeter, illustrating protective strength. The contrast of soft sky against the more intense dark tones represents emotional turmoil. The diagonal layout creates conflict and interweaving patterns, with pale fields interrupted by grayscale clusters, suggesting a collision of emotions. The composition's patterns and broken pixels evoke a sense of interruption and complexity, encapsulating the essence of vulnerability set against fortitude.</desc>
  <rect width="256" height="256" fill="#FFFFFF" />
  <rect x="0" y="0" width="32" height="32" fill="#D5F5E3" />
  <rect x="32" y="0" width="32" height="32" fill="#B2EBF2" />
  <rect x="64" y="0" width="32" height="32" fill="#F0F0F0" />
  <rect x="96" y="0" width="32" height="32" fill="#E0E0E0" />
  <rect x="128" y="0" width="32" height="32" fill="#AAB8B1" />
  <rect x="160" y="0" width="32" height="32" fill="#888D8D" />
  <rect x="192" y="0" width="32" height="32" fill="#444C4D" />
  <rect x="224" y="0" width="32" height="32" fill="#1F1F1F" />
  <rect x="0" y="32" width="32" height="32" fill="#A8E6CF" />
  <rect x="32" y="32" width="32" height="32" fill="#A2D2E3" />
  <rect x="64" y="32" width="32" height="32" fill="#C6C6C6" />
  <rect x="96" y="32" width="32" height="32" fill="#B0B0B0" />
  <rect x="128" y="32" width="32" height="32" fill="#808080" />
  <rect x="160" y="32" width="32" height="32" fill="#595C5D" />
  <rect x="192" y="32" width="32" height="32" fill="#333333" />
  <rect x="224" y="32" width="32" height="32" fill="#111111" />
  <rect x="0" y="64" width="32" height="32" fill="#C3E5B2" />
  <rect x="32" y="64" width="32" height="32" fill="#B7D7E4" />
  <rect x="64" y="64" width="32" height="32" fill="#D0D0D0" />
  <rect x="96" y="64" width="32" height="32" fill="#A1A1A1" />
  <rect x="128" y="64" width="32" height="32" fill="#757575" />
  <rect x="160" y="64" width="32" height="32" fill="#434545" />
  <rect x="192" y="64" width="32" height="32" fill="#222222" />
  <rect x="224" y="64" width="32" height="32" fill="#000000" />
  <rect x="0" y="96" width="32" height="32" fill="#D2FFD2" />
  <rect x="32" y="96" width="32" height="32" fill="#A7D0E3" />
  <rect x="64" y="96" width="32" height="32" fill="#C5C5C5" />
  <rect x="96" y="96" width="32" height="32" fill="#C8C8C8" />
  <rect x="128" y="96" width="32" height="32" fill="#545454" />
  <rect x="160" y="96" width="32" height="32" fill="#333333" />
  <rect x="192" y="96" width="32" height="32" fill="#666666" />
  <rect x="224" y="96" width="32" height="32" fill="#1A1A1A" />
  <rect x="0" y="128" width="32" height="32" fill="#E5F5D2" />
  <rect x="32" y="128" width="32" height="32" fill="#99C1D9" />
  <rect x="64" y="128" width="32" height="32" fill="#C8C8C8" />
  <rect x="96" y="128" width="32" height="32" fill="#B8B8B8" />
  <rect x="128" y="128" width="32" height="32" fill="#444444" />
  <rect x="160" y="128" width="32" height="32" fill="#222222" />
  <rect x="192" y="128" width="32" height="32" fill="#555555" />
  <rect x="224" y="128" width="32" height="32" fill="#0D0D0D" />
  <rect x="0" y="160" width="32" height="32" fill="#C7EDD3" />
  <rect x="32" y="160" width="32" height="32" fill="#B4DEEB" />
  <rect x="64" y="160" width="32" height="32" fill="#BFBFBF" />
  <rect x="96" y="160" width="32" height="32" fill="#B0B0B0" />
  <rect x="128" y="160" width="32" height="32" fill="#333333" />
  <rect x="160" y="160" width="32" height="32" fill="#111111" />
  <rect x="192" y="160" width="32" height="32" fill="#666666" />
  <rect x="224" y="160" width="32" height="32" fill="#333333" />
  <rect x="0" y="192" width="32" height="32" fill="#E8F8E5" />
  <rect x="32" y="192" width="32" height="32" fill="#B7D6E3" />
  <rect x="64" y="192" width="32" height="32" fill="#C6C6C6" />
  <rect x="96" y="192" width="32" height="32" fill="#C0C0C0" />
  <rect x="128" y="192" width="32" height="32" fill="#404040" />
  <rect x="160" y="192" width="32" height="32" fill="#292929" />
  <rect x="192" y="192" width="32" height="32" fill="#555555" />
  <rect x="224" y="192" width="32" height="32" fill="#1F1F1F" />
  <rect x="0" y="224" width="32" height="32" fill="#D2F6E4" />
  <rect x="32" y="224" width="32" height="32" fill="#A2D8E1" />
  <rect x="64" y="224" width="32" height="32" fill="#D0D0D0" />
  <rect x="96" y="224" width="32" height="32" fill="#C8C8C8" />
  <rect x="128" y="224" width="32" height="32" fill="#555555" />
  <rect x="160" y="224" width="32" height="32" fill="#1A1A1A" />
  <rect x="192" y="224" width="32" height="32" fill="#444444" />
  <rect x="224" y="224" width="32" height="32" fill="#000000" />
</svg>
