<svg xmlns="http://www.w3.org/2000/svg" width="256" height="256" viewBox="0 0 256 256" shape-rendering="crispEdges" role="img" aria-labelledby="title desc">
  <title id="title">Echoes of Emotion</title>
  <desc id="desc">The emotional tone of this piece plays with the contrast between the warmth of desire and the void of emptiness, creating a dynamic tension throughout the pixels. The chosen palette of burnt orange, dark red, charcoal, and gold reflects this emotional interplay, evoking both warmth and depth. The pattern, influenced by falling pixels, descends from intensity at the center to quieter hues at the edges, which visually narrates a release from pressure to calm. The collisions occur where vibrant colors meet subdued tones, creating visually compelling interruptions that mirror the complexity of emotional experiences.</desc>
  <rect width="256" height="256" fill="#FFFFFF" />
  <rect x="0" y="0" width="32" height="32" fill="#8B4000" />
  <rect x="32" y="0" width="32" height="32" fill="#7D2600" />
  <rect x="64" y="0" width="32" height="32" fill="#D04100" />
  <rect x="96" y="0" width="32" height="32" fill="#FF8C00" />
  <rect x="128" y="0" width="32" height="32" fill="#C65D00" />
  <rect x="160" y="0" width="32" height="32" fill="#DA7700" />
  <rect x="192" y="0" width="32" height="32" fill="#8A4700" />
  <rect x="224" y="0" width="32" height="32" fill="#452D00" />
  <rect x="0" y="32" width="32" height="32" fill="#4B4A4C" />
  <rect x="32" y="32" width="32" height="32" fill="#4D6669" />
  <rect x="64" y="32" width="32" height="32" fill="#A24A3C" />
  <rect x="96" y="32" width="32" height="32" fill="#B36C40" />
  <rect x="128" y="32" width="32" height="32" fill="#2E2929" />
  <rect x="160" y="32" width="32" height="32" fill="#7C6649" />
  <rect x="192" y="32" width="32" height="32" fill="#BFA550" />
  <rect x="224" y="32" width="32" height="32" fill="#E0D6A4" />
  <rect x="0" y="64" width="32" height="32" fill="#D0B1A0" />
  <rect x="32" y="64" width="32" height="32" fill="#F6E2B5" />
  <rect x="64" y="64" width="32" height="32" fill="#C3A14D" />
  <rect x="96" y="64" width="32" height="32" fill="#5A3D28" />
  <rect x="128" y="64" width="32" height="32" fill="#BFAF81" />
  <rect x="160" y="64" width="32" height="32" fill="#AB7A40" />
  <rect x="192" y="64" width="32" height="32" fill="#7B4C26" />
  <rect x="224" y="64" width="32" height="32" fill="#C1A8A4" />
  <rect x="0" y="96" width="32" height="32" fill="#8C706C" />
  <rect x="32" y="96" width="32" height="32" fill="#7D6F62" />
  <rect x="64" y="96" width="32" height="32" fill="#A55B3D" />
  <rect x="96" y="96" width="32" height="32" fill="#3E2837" />
  <rect x="128" y="96" width="32" height="32" fill="#B4613F" />
  <rect x="160" y="96" width="32" height="32" fill="#A9623B" />
  <rect x="192" y="96" width="32" height="32" fill="#BC6939" />
  <rect x="224" y="96" width="32" height="32" fill="#FFB302" />
  <rect x="0" y="128" width="32" height="32" fill="#4A4F67" />
  <rect x="32" y="128" width="32" height="32" fill="#5D4642" />
  <rect x="64" y="128" width="32" height="32" fill="#3B3C4D" />
  <rect x="96" y="128" width="32" height="32" fill="#5C3F33" />
  <rect x="128" y="128" width="32" height="32" fill="#BF5520" />
  <rect x="160" y="128" width="32" height="32" fill="#FFCC66" />
  <rect x="192" y="128" width="32" height="32" fill="#D4A66A" />
  <rect x="224" y="128" width="32" height="32" fill="#C6A68D" />
  <rect x="0" y="160" width="32" height="32" fill="#4C4E53" />
  <rect x="32" y="160" width="32" height="32" fill="#565F68" />
  <rect x="64" y="160" width="32" height="32" fill="#788800" />
  <rect x="96" y="160" width="32" height="32" fill="#867B00" />
  <rect x="128" y="160" width="32" height="32" fill="#6D5D41" />
  <rect x="160" y="160" width="32" height="32" fill="#C0A24D" />
  <rect x="192" y="160" width="32" height="32" fill="#DAC929" />
  <rect x="224" y="160" width="32" height="32" fill="#BAA173" />
  <rect x="0" y="192" width="32" height="32" fill="#F2F2F2" />
  <rect x="32" y="192" width="32" height="32" fill="#CCCCCC" />
  <rect x="64" y="192" width="32" height="32" fill="#B1B1B1" />
  <rect x="96" y="192" width="32" height="32" fill="#999999" />
  <rect x="128" y="192" width="32" height="32" fill="#757575" />
  <rect x="160" y="192" width="32" height="32" fill="#539F3F" />
  <rect x="192" y="192" width="32" height="32" fill="#9B9B92" />
  <rect x="224" y="192" width="32" height="32" fill="#A0A0A0" />
  <rect x="0" y="224" width="32" height="32" fill="#FFFFFF" />
  <rect x="32" y="224" width="32" height="32" fill="#F8F8F8" />
  <rect x="64" y="224" width="32" height="32" fill="#EEEEEE" />
  <rect x="96" y="224" width="32" height="32" fill="#DDDDDD" />
  <rect x="128" y="224" width="32" height="32" fill="#CCCCCC" />
  <rect x="160" y="224" width="32" height="32" fill="#BBBBBB" />
  <rect x="192" y="224" width="32" height="32" fill="#AAAAAA" />
  <rect x="224" y="224" width="32" height="32" fill="#999999" />
</svg>
