<svg xmlns="http://www.w3.org/2000/svg" width="256" height="256" viewBox="0 0 256 256" shape-rendering="crispEdges" role="img" aria-labelledby="title desc">
  <title id="title">Echoing Tensions</title>
  <desc id="desc">The emotional tone reflects a battle between softness and severity. The palette features shades of carbon black and sharp crimson that symbolize severity against softer hues of powder pink and warm white, invoking gentleness. The composition utilizes a mix of negative space and a central cluster of darker colors to create a tension between the bright and muted areas, allowing for a sense of pulse and dynamic rhythm. The collision is visibly located in the center where the darker pixels meet the softer colors, representing the struggle between guilt and forgiveness, echoing patterns of transformation and introspection.</desc>
  <rect width="256" height="256" fill="#FFFFFF" />
  <rect x="0" y="0" width="32" height="32" fill="#FFFFFF" />
  <rect x="32" y="0" width="32" height="32" fill="#FFFFFF" />
  <rect x="64" y="0" width="32" height="32" fill="#FFFFFF" />
  <rect x="96" y="0" width="32" height="32" fill="#F2B2C7" />
  <rect x="128" y="0" width="32" height="32" fill="#F2B2C7" />
  <rect x="160" y="0" width="32" height="32" fill="#FFFFFF" />
  <rect x="192" y="0" width="32" height="32" fill="#FFFFFF" />
  <rect x="224" y="0" width="32" height="32" fill="#FFFFFF" />
  <rect x="0" y="32" width="32" height="32" fill="#FFFFFF" />
  <rect x="32" y="32" width="32" height="32" fill="#F2B2C7" />
  <rect x="64" y="32" width="32" height="32" fill="#F8D0D0" />
  <rect x="96" y="32" width="32" height="32" fill="#F5C9C9" />
  <rect x="128" y="32" width="32" height="32" fill="#F8D0D0" />
  <rect x="160" y="32" width="32" height="32" fill="#F2B2C7" />
  <rect x="192" y="32" width="32" height="32" fill="#FFFFFF" />
  <rect x="224" y="32" width="32" height="32" fill="#FFFFFF" />
  <rect x="0" y="64" width="32" height="32" fill="#FFFFFF" />
  <rect x="32" y="64" width="32" height="32" fill="#F5C9C9" />
  <rect x="64" y="64" width="32" height="32" fill="#D83737" />
  <rect x="96" y="64" width="32" height="32" fill="#D22828" />
  <rect x="128" y="64" width="32" height="32" fill="#D83737" />
  <rect x="160" y="64" width="32" height="32" fill="#F5C9C9" />
  <rect x="192" y="64" width="32" height="32" fill="#FFFFFF" />
  <rect x="224" y="64" width="32" height="32" fill="#FFFFFF" />
  <rect x="0" y="96" width="32" height="32" fill="#FFFFFF" />
  <rect x="32" y="96" width="32" height="32" fill="#F2B2C7" />
  <rect x="64" y="96" width="32" height="32" fill="#D22828" />
  <rect x="96" y="96" width="32" height="32" fill="#000000" />
  <rect x="128" y="96" width="32" height="32" fill="#D22828" />
  <rect x="160" y="96" width="32" height="32" fill="#F2B2C7" />
  <rect x="192" y="96" width="32" height="32" fill="#FFFFFF" />
  <rect x="224" y="96" width="32" height="32" fill="#FFFFFF" />
  <rect x="0" y="128" width="32" height="32" fill="#FFFFFF" />
  <rect x="32" y="128" width="32" height="32" fill="#FFFFFF" />
  <rect x="64" y="128" width="32" height="32" fill="#F2B2C7" />
  <rect x="96" y="128" width="32" height="32" fill="#F5C9C9" />
  <rect x="128" y="128" width="32" height="32" fill="#F2B2C7" />
  <rect x="160" y="128" width="32" height="32" fill="#FFFFFF" />
  <rect x="192" y="128" width="32" height="32" fill="#FFFFFF" />
  <rect x="224" y="128" width="32" height="32" fill="#FFFFFF" />
  <rect x="0" y="160" width="32" height="32" fill="#FFFFFF" />
  <rect x="32" y="160" width="32" height="32" fill="#FFFFFF" />
  <rect x="64" y="160" width="32" height="32" fill="#FFFFFF" />
  <rect x="96" y="160" width="32" height="32" fill="#F2B2C7" />
  <rect x="128" y="160" width="32" height="32" fill="#F2B2C7" />
  <rect x="160" y="160" width="32" height="32" fill="#FFFFFF" />
  <rect x="192" y="160" width="32" height="32" fill="#FFFFFF" />
  <rect x="224" y="160" width="32" height="32" fill="#FFFFFF" />
  <rect x="0" y="192" width="32" height="32" fill="#FFFFFF" />
  <rect x="32" y="192" width="32" height="32" fill="#FFFFFF" />
  <rect x="64" y="192" width="32" height="32" fill="#FFFFFF" />
  <rect x="96" y="192" width="32" height="32" fill="#FFFFFF" />
  <rect x="128" y="192" width="32" height="32" fill="#FFFFFF" />
  <rect x="160" y="192" width="32" height="32" fill="#FFFFFF" />
  <rect x="192" y="192" width="32" height="32" fill="#FFFFFF" />
  <rect x="224" y="192" width="32" height="32" fill="#FFFFFF" />
  <rect x="0" y="224" width="32" height="32" fill="#FFFFFF" />
  <rect x="32" y="224" width="32" height="32" fill="#FFFFFF" />
  <rect x="64" y="224" width="32" height="32" fill="#FFFFFF" />
  <rect x="96" y="224" width="32" height="32" fill="#FFFFFF" />
  <rect x="128" y="224" width="32" height="32" fill="#FFFFFF" />
  <rect x="160" y="224" width="32" height="32" fill="#FFFFFF" />
  <rect x="192" y="224" width="32" height="32" fill="#FFFFFF" />
  <rect x="224" y="224" width="32" height="32" fill="#FFFFFF" />
</svg>
