<svg xmlns="http://www.w3.org/2000/svg" width="256" height="256" viewBox="0 0 256 256" shape-rendering="crispEdges" role="img" aria-labelledby="title desc">
  <title id="title">Threshold of Emotion</title>
  <desc id="desc">This piece captures the emotional tension between defiance and submission, contrasting vibrant yellows and oranges with subdued blues and purples to illustrate the interplay of light and shadow. The palette evokes feelings of warmth against coldness, symbolizing the struggle within the seed's themes. The main collision occurs in the center, reflecting an upward pulse against a shattering field, ensuring the tension between chaos and order is front and center.</desc>
  <rect width="256" height="256" fill="#FFFFFF" />
  <rect x="0" y="0" width="32" height="32" fill="#2E2A34" />
  <rect x="32" y="0" width="32" height="32" fill="#3A3746" />
  <rect x="64" y="0" width="32" height="32" fill="#474357" />
  <rect x="96" y="0" width="32" height="32" fill="#575E72" />
  <rect x="128" y="0" width="32" height="32" fill="#707A93" />
  <rect x="160" y="0" width="32" height="32" fill="#D1C9E0" />
  <rect x="192" y="0" width="32" height="32" fill="#EDD49D" />
  <rect x="224" y="0" width="32" height="32" fill="#FFC700" />
  <rect x="0" y="32" width="32" height="32" fill="#2D2832" />
  <rect x="32" y="32" width="32" height="32" fill="#3A3442" />
  <rect x="64" y="32" width="32" height="32" fill="#4A4053" />
  <rect x="96" y="32" width="32" height="32" fill="#635170" />
  <rect x="128" y="32" width="32" height="32" fill="#888D9A" />
  <rect x="160" y="32" width="32" height="32" fill="#BFD0E5" />
  <rect x="192" y="32" width="32" height="32" fill="#FFEAB4" />
  <rect x="224" y="32" width="32" height="32" fill="#FF9600" />
  <rect x="0" y="64" width="32" height="32" fill="#1E1A25" />
  <rect x="32" y="64" width="32" height="32" fill="#272239" />
  <rect x="64" y="64" width="32" height="32" fill="#3D3650" />
  <rect x="96" y="64" width="32" height="32" fill="#5F657F" />
  <rect x="128" y="64" width="32" height="32" fill="#787D96" />
  <rect x="160" y="64" width="32" height="32" fill="#B5C4D0" />
  <rect x="192" y="64" width="32" height="32" fill="#FFDF7A" />
  <rect x="224" y="64" width="32" height="32" fill="#FF691A" />
  <rect x="0" y="96" width="32" height="32" fill="#111013" />
  <rect x="32" y="96" width="32" height="32" fill="#221D33" />
  <rect x="64" y="96" width="32" height="32" fill="#34354E" />
  <rect x="96" y="96" width="32" height="32" fill="#5D6174" />
  <rect x="128" y="96" width="32" height="32" fill="#858C9A" />
  <rect x="160" y="96" width="32" height="32" fill="#D7E0E9" />
  <rect x="192" y="96" width="32" height="32" fill="#FFD94D" />
  <rect x="224" y="96" width="32" height="32" fill="#FF4500" />
  <rect x="0" y="128" width="32" height="32" fill="#000000" />
  <rect x="32" y="128" width="32" height="32" fill="#15141F" />
  <rect x="64" y="128" width="32" height="32" fill="#2E3A55" />
  <rect x="96" y="128" width="32" height="32" fill="#4F6277" />
  <rect x="128" y="128" width="32" height="32" fill="#8A96AD" />
  <rect x="160" y="128" width="32" height="32" fill="#E3E7ED" />
  <rect x="192" y="128" width="32" height="32" fill="#FFF5D9" />
  <rect x="224" y="128" width="32" height="32" fill="#FFA600" />
  <rect x="0" y="160" width="32" height="32" fill="#0E0D14" />
  <rect x="32" y="160" width="32" height="32" fill="#141321" />
  <rect x="64" y="160" width="32" height="32" fill="#293049" />
  <rect x="96" y="160" width="32" height="32" fill="#37424F" />
  <rect x="128" y="160" width="32" height="32" fill="#555C73" />
  <rect x="160" y="160" width="32" height="32" fill="#C3C9D6" />
  <rect x="192" y="160" width="32" height="32" fill="#FFEAD1" />
  <rect x="224" y="160" width="32" height="32" fill="#FFB663" />
  <rect x="0" y="192" width="32" height="32" fill="#202025" />
  <rect x="32" y="192" width="32" height="32" fill="#292934" />
  <rect x="64" y="192" width="32" height="32" fill="#343640" />
  <rect x="96" y="192" width="32" height="32" fill="#3E465A" />
  <rect x="128" y="192" width="32" height="32" fill="#6D8DA7" />
  <rect x="160" y="192" width="32" height="32" fill="#E7EDEC" />
  <rect x="192" y="192" width="32" height="32" fill="#FFFABD" />
  <rect x="224" y="192" width="32" height="32" fill="#FF7F50" />
  <rect x="0" y="224" width="32" height="32" fill="#121213" />
  <rect x="32" y="224" width="32" height="32" fill="#1B1E25" />
  <rect x="64" y="224" width="32" height="32" fill="#2A2F3D" />
  <rect x="96" y="224" width="32" height="32" fill="#4B525D" />
  <rect x="128" y="224" width="32" height="32" fill="#7B8793" />
  <rect x="160" y="224" width="32" height="32" fill="#B7C1CC" />
  <rect x="192" y="224" width="32" height="32" fill="#FFF9E5" />
  <rect x="224" y="224" width="32" height="32" fill="#FFBA00" />
</svg>
