<svg xmlns="http://www.w3.org/2000/svg" width="256" height="256" viewBox="0 0 256 256" shape-rendering="crispEdges" role="img" aria-labelledby="title desc">
  <title id="title">Spiral of Tension</title>
  <desc id="desc">The emotional tone oscillates between the calm containment of peace and the sharp agitation of restlessness. The palette, 'melancholy_wonder', harmonizes cool blues and soft whites with muted plum accents, suggesting the push and pull of tranquility challenged by disruption. The main collision occurs around the center, where the pattern types 'hinge' and 'thread' intertwine, creating visual tension through intersecting colors. Broken pixels reinforce the feeling of imperfection amidst the spiral layout, acknowledging that calm often coexists uneasily with turmoil.</desc>
  <rect width="256" height="256" fill="#FFFFFF" />
  <rect x="0" y="0" width="32" height="32" fill="#B0B6D1" />
  <rect x="32" y="0" width="32" height="32" fill="#A5A4C4" />
  <rect x="64" y="0" width="32" height="32" fill="#0076A8" />
  <rect x="96" y="0" width="32" height="32" fill="#0095B7" />
  <rect x="128" y="0" width="32" height="32" fill="#6F4970" />
  <rect x="160" y="0" width="32" height="32" fill="#008CBA" />
  <rect x="192" y="0" width="32" height="32" fill="#B6C6D8" />
  <rect x="224" y="0" width="32" height="32" fill="#AFD4E4" />
  <rect x="0" y="32" width="32" height="32" fill="#D5E2F0" />
  <rect x="32" y="32" width="32" height="32" fill="#A4B5D4" />
  <rect x="64" y="32" width="32" height="32" fill="#E7F6FE" />
  <rect x="96" y="32" width="32" height="32" fill="#FFFFFF" />
  <rect x="128" y="32" width="32" height="32" fill="#A9A5C8" />
  <rect x="160" y="32" width="32" height="32" fill="#6F7D92" />
  <rect x="192" y="32" width="32" height="32" fill="#A8C1D9" />
  <rect x="224" y="32" width="32" height="32" fill="#7E8B8E" />
  <rect x="0" y="64" width="32" height="32" fill="#B0B6D1" />
  <rect x="32" y="64" width="32" height="32" fill="#A5A4C4" />
  <rect x="64" y="64" width="32" height="32" fill="#0076A8" />
  <rect x="96" y="64" width="32" height="32" fill="#6F4970" />
  <rect x="128" y="64" width="32" height="32" fill="#0095B7" />
  <rect x="160" y="64" width="32" height="32" fill="#B6C6D8" />
  <rect x="192" y="64" width="32" height="32" fill="#AFD4E4" />
  <rect x="224" y="64" width="32" height="32" fill="#D3E3E5" />
  <rect x="0" y="96" width="32" height="32" fill="#B0B6D1" />
  <rect x="32" y="96" width="32" height="32" fill="#E0E8F3" />
  <rect x="64" y="96" width="32" height="32" fill="#0095B7" />
  <rect x="96" y="96" width="32" height="32" fill="#0076A8" />
  <rect x="128" y="96" width="32" height="32" fill="#A4B5D4" />
  <rect x="160" y="96" width="32" height="32" fill="#88C7DF" />
  <rect x="192" y="96" width="32" height="32" fill="#E7F6FE" />
  <rect x="224" y="96" width="32" height="32" fill="#6F4970" />
  <rect x="0" y="128" width="32" height="32" fill="#D5E2F0" />
  <rect x="32" y="128" width="32" height="32" fill="#A9A5C8" />
  <rect x="64" y="128" width="32" height="32" fill="#B6C6D8" />
  <rect x="96" y="128" width="32" height="32" fill="#7E8B8E" />
  <rect x="128" y="128" width="32" height="32" fill="#B0B6D1" />
  <rect x="160" y="128" width="32" height="32" fill="#C1CEDD" />
  <rect x="192" y="128" width="32" height="32" fill="#A4B5D4" />
  <rect x="224" y="128" width="32" height="32" fill="#FFFFFF" />
  <rect x="0" y="160" width="32" height="32" fill="#E7F6FE" />
  <rect x="32" y="160" width="32" height="32" fill="#0095B7" />
  <rect x="64" y="160" width="32" height="32" fill="#B0B6D1" />
  <rect x="96" y="160" width="32" height="32" fill="#008CBA" />
  <rect x="128" y="160" width="32" height="32" fill="#6F4970" />
  <rect x="160" y="160" width="32" height="32" fill="#AFD4E4" />
  <rect x="192" y="160" width="32" height="32" fill="#D5E2F0" />
  <rect x="224" y="160" width="32" height="32" fill="#FFFFFF" />
  <rect x="0" y="192" width="32" height="32" fill="#B6C6D8" />
  <rect x="32" y="192" width="32" height="32" fill="#C1CEDD" />
  <rect x="64" y="192" width="32" height="32" fill="#0076A8" />
  <rect x="96" y="192" width="32" height="32" fill="#A4B5D4" />
  <rect x="128" y="192" width="32" height="32" fill="#0095B7" />
  <rect x="160" y="192" width="32" height="32" fill="#A5A4C4" />
  <rect x="192" y="192" width="32" height="32" fill="#B0B6D1" />
  <rect x="224" y="192" width="32" height="32" fill="#D3E3E5" />
  <rect x="0" y="224" width="32" height="32" fill="#A4B5D4" />
  <rect x="32" y="224" width="32" height="32" fill="#6F4970" />
  <rect x="64" y="224" width="32" height="32" fill="#0095B7" />
  <rect x="96" y="224" width="32" height="32" fill="#D5E2F0" />
  <rect x="128" y="224" width="32" height="32" fill="#A8C1D9" />
  <rect x="160" y="224" width="32" height="32" fill="#A9A5C8" />
  <rect x="192" y="224" width="32" height="32" fill="#B0B6D1" />
  <rect x="224" y="224" width="32" height="32" fill="#E7F6FE" />
</svg>
