<svg xmlns="http://www.w3.org/2000/svg" width="256" height="256" viewBox="0 0 256 256" shape-rendering="crispEdges" role="img" aria-labelledby="title desc">
  <title id="title">Tension of Contrasts</title>
  <desc id="desc">The emotional tone balances between softness and severity, embodied by a palette that combines warm whites and soft pinks against the starkness of deep black and steely gray. The collision occurs at the center of the artwork, where a radial pattern meets the rigid checkerboard layout, visually representing the tension between the soft pulses of emotion and the hard edges of severity. This creates a compelling narrative of struggle and coexistence, making the viewer feel the push and pull of guilt and forgiveness.</desc>
  <rect width="256" height="256" fill="#FFFFFF" />
  <rect x="0" y="0" width="32" height="32" fill="#F4C7D5" />
  <rect x="32" y="0" width="32" height="32" fill="#FFC3C3" />
  <rect x="64" y="0" width="32" height="32" fill="#FFFFFF" />
  <rect x="96" y="0" width="32" height="32" fill="#D9D9D9" />
  <rect x="128" y="0" width="32" height="32" fill="#B0B0B0" />
  <rect x="160" y="0" width="32" height="32" fill="#404040" />
  <rect x="192" y="0" width="32" height="32" fill="#1C1C1C" />
  <rect x="224" y="0" width="32" height="32" fill="#000000" />
  <rect x="0" y="32" width="32" height="32" fill="#FFC3C3" />
  <rect x="32" y="32" width="32" height="32" fill="#F4C7D5" />
  <rect x="64" y="32" width="32" height="32" fill="#FFFFFF" />
  <rect x="96" y="32" width="32" height="32" fill="#D9D9D9" />
  <rect x="128" y="32" width="32" height="32" fill="#B0B0B0" />
  <rect x="160" y="32" width="32" height="32" fill="#404040" />
  <rect x="192" y="32" width="32" height="32" fill="#1C1C1C" />
  <rect x="224" y="32" width="32" height="32" fill="#000000" />
  <rect x="0" y="64" width="32" height="32" fill="#FFFFFF" />
  <rect x="32" y="64" width="32" height="32" fill="#F4C7D5" />
  <rect x="64" y="64" width="32" height="32" fill="#FFC3C3" />
  <rect x="96" y="64" width="32" height="32" fill="#D6C9C9" />
  <rect x="128" y="64" width="32" height="32" fill="#A2A2A2" />
  <rect x="160" y="64" width="32" height="32" fill="#515151" />
  <rect x="192" y="64" width="32" height="32" fill="#2D2D2D" />
  <rect x="224" y="64" width="32" height="32" fill="#000000" />
  <rect x="0" y="96" width="32" height="32" fill="#D9D9D9" />
  <rect x="32" y="96" width="32" height="32" fill="#FFFFFF" />
  <rect x="64" y="96" width="32" height="32" fill="#F4C7D5" />
  <rect x="96" y="96" width="32" height="32" fill="#FFC3C3" />
  <rect x="128" y="96" width="32" height="32" fill="#C3B3B3" />
  <rect x="160" y="96" width="32" height="32" fill="#666666" />
  <rect x="192" y="96" width="32" height="32" fill="#3E3E3E" />
  <rect x="224" y="96" width="32" height="32" fill="#000000" />
  <rect x="0" y="128" width="32" height="32" fill="#B0B0B0" />
  <rect x="32" y="128" width="32" height="32" fill="#D9D9D9" />
  <rect x="64" y="128" width="32" height="32" fill="#FFFFFF" />
  <rect x="96" y="128" width="32" height="32" fill="#F4C7D5" />
  <rect x="128" y="128" width="32" height="32" fill="#FFC3C3" />
  <rect x="160" y="128" width="32" height="32" fill="#737373" />
  <rect x="192" y="128" width="32" height="32" fill="#454545" />
  <rect x="224" y="128" width="32" height="32" fill="#1C1C1C" />
  <rect x="0" y="160" width="32" height="32" fill="#404040" />
  <rect x="32" y="160" width="32" height="32" fill="#B0B0B0" />
  <rect x="64" y="160" width="32" height="32" fill="#D9D9D9" />
  <rect x="96" y="160" width="32" height="32" fill="#FFFFFF" />
  <rect x="128" y="160" width="32" height="32" fill="#F4C7D5" />
  <rect x="160" y="160" width="32" height="32" fill="#FFC3C3" />
  <rect x="192" y="160" width="32" height="32" fill="#525252" />
  <rect x="224" y="160" width="32" height="32" fill="#303030" />
  <rect x="0" y="192" width="32" height="32" fill="#1C1C1C" />
  <rect x="32" y="192" width="32" height="32" fill="#404040" />
  <rect x="64" y="192" width="32" height="32" fill="#B0B0B0" />
  <rect x="96" y="192" width="32" height="32" fill="#D9D9D9" />
  <rect x="128" y="192" width="32" height="32" fill="#FFFFFF" />
  <rect x="160" y="192" width="32" height="32" fill="#F4C7D5" />
  <rect x="192" y="192" width="32" height="32" fill="#FFC3C3" />
  <rect x="224" y="192" width="32" height="32" fill="#686868" />
  <rect x="0" y="224" width="32" height="32" fill="#000000" />
  <rect x="32" y="224" width="32" height="32" fill="#1C1C1C" />
  <rect x="64" y="224" width="32" height="32" fill="#404040" />
  <rect x="96" y="224" width="32" height="32" fill="#B0B0B0" />
  <rect x="128" y="224" width="32" height="32" fill="#D9D9D9" />
  <rect x="160" y="224" width="32" height="32" fill="#FFFFFF" />
  <rect x="192" y="224" width="32" height="32" fill="#F4C7D5" />
  <rect x="224" y="224" width="32" height="32" fill="#FFC3C3" />
</svg>
