<svg xmlns="http://www.w3.org/2000/svg" width="256" height="256" viewBox="0 0 256 256" shape-rendering="crispEdges" role="img" aria-labelledby="title desc">
  <title id="title">Tension and Release in Harmony</title>
  <desc id="desc">This composition embodies the emotional tension between 'trust' and 'suspicion'. The clean, structured edges using a dark palette symbolize trust, while the chaotic inner core reflects suspicion through disarray. The collision occurs where the dark colors of the outer frame meet the brighter, more vibrant center pixels, creating emotional intensity. The selected palette of navy, black, and dim cyan conveys a sense of loneliness against the contrasting purity of white. The pattern reflects a dynamic interplay where order and chaos coexist, resonating with the seed's themes of emotional collisions and release.</desc>
  <rect width="256" height="256" fill="#FFFFFF" />
  <rect x="0" y="0" width="32" height="32" fill="#000000" />
  <rect x="32" y="0" width="32" height="32" fill="#000000" />
  <rect x="64" y="0" width="32" height="32" fill="#001F3F" />
  <rect x="96" y="0" width="32" height="32" fill="#001F3F" />
  <rect x="128" y="0" width="32" height="32" fill="#001F3F" />
  <rect x="160" y="0" width="32" height="32" fill="#000000" />
  <rect x="192" y="0" width="32" height="32" fill="#000000" />
  <rect x="224" y="0" width="32" height="32" fill="#000000" />
  <rect x="0" y="32" width="32" height="32" fill="#000000" />
  <rect x="32" y="32" width="32" height="32" fill="#000000" />
  <rect x="64" y="32" width="32" height="32" fill="#001F3F" />
  <rect x="96" y="32" width="32" height="32" fill="#001F3F" />
  <rect x="128" y="32" width="32" height="32" fill="#001F3F" />
  <rect x="160" y="32" width="32" height="32" fill="#000000" />
  <rect x="192" y="32" width="32" height="32" fill="#000000" />
  <rect x="224" y="32" width="32" height="32" fill="#000000" />
  <rect x="0" y="64" width="32" height="32" fill="#001F3F" />
  <rect x="32" y="64" width="32" height="32" fill="#005B82" />
  <rect x="64" y="64" width="32" height="32" fill="#00A4B3" />
  <rect x="96" y="64" width="32" height="32" fill="#00A4B3" />
  <rect x="128" y="64" width="32" height="32" fill="#005B82" />
  <rect x="160" y="64" width="32" height="32" fill="#001F3F" />
  <rect x="192" y="64" width="32" height="32" fill="#000000" />
  <rect x="224" y="64" width="32" height="32" fill="#000000" />
  <rect x="0" y="96" width="32" height="32" fill="#001F3F" />
  <rect x="32" y="96" width="32" height="32" fill="#00A4B3" />
  <rect x="64" y="96" width="32" height="32" fill="#FFFFFF" />
  <rect x="96" y="96" width="32" height="32" fill="#FFFFFF" />
  <rect x="128" y="96" width="32" height="32" fill="#00A4B3" />
  <rect x="160" y="96" width="32" height="32" fill="#001F3F" />
  <rect x="192" y="96" width="32" height="32" fill="#000000" />
  <rect x="224" y="96" width="32" height="32" fill="#000000" />
  <rect x="0" y="128" width="32" height="32" fill="#001F3F" />
  <rect x="32" y="128" width="32" height="32" fill="#00A4B3" />
  <rect x="64" y="128" width="32" height="32" fill="#FFFFFF" />
  <rect x="96" y="128" width="32" height="32" fill="#FFFFFF" />
  <rect x="128" y="128" width="32" height="32" fill="#00A4B3" />
  <rect x="160" y="128" width="32" height="32" fill="#001F3F" />
  <rect x="192" y="128" width="32" height="32" fill="#000000" />
  <rect x="224" y="128" width="32" height="32" fill="#000000" />
  <rect x="0" y="160" width="32" height="32" fill="#001F3F" />
  <rect x="32" y="160" width="32" height="32" fill="#005B82" />
  <rect x="64" y="160" width="32" height="32" fill="#00A4B3" />
  <rect x="96" y="160" width="32" height="32" fill="#00A4B3" />
  <rect x="128" y="160" width="32" height="32" fill="#005B82" />
  <rect x="160" y="160" width="32" height="32" fill="#001F3F" />
  <rect x="192" y="160" width="32" height="32" fill="#000000" />
  <rect x="224" y="160" width="32" height="32" fill="#000000" />
  <rect x="0" y="192" width="32" height="32" fill="#000000" />
  <rect x="32" y="192" width="32" height="32" fill="#000000" />
  <rect x="64" y="192" width="32" height="32" fill="#001F3F" />
  <rect x="96" y="192" width="32" height="32" fill="#001F3F" />
  <rect x="128" y="192" width="32" height="32" fill="#001F3F" />
  <rect x="160" y="192" width="32" height="32" fill="#000000" />
  <rect x="192" y="192" width="32" height="32" fill="#000000" />
  <rect x="224" y="192" width="32" height="32" fill="#000000" />
  <rect x="0" y="224" width="32" height="32" fill="#000000" />
  <rect x="32" y="224" width="32" height="32" fill="#000000" />
  <rect x="64" y="224" width="32" height="32" fill="#000000" />
  <rect x="96" y="224" width="32" height="32" fill="#000000" />
  <rect x="128" y="224" width="32" height="32" fill="#000000" />
  <rect x="160" y="224" width="32" height="32" fill="#000000" />
  <rect x="192" y="224" width="32" height="32" fill="#000000" />
  <rect x="224" y="224" width="32" height="32" fill="#000000" />
</svg>
