<svg xmlns="http://www.w3.org/2000/svg" width="256" height="256" viewBox="0 0 256 256" shape-rendering="crispEdges" role="img" aria-labelledby="title desc">
  <title id="title">Threshold Pulse</title>
  <desc id="desc">The emotional tone of this composition reflects a tension between defiant, upward movements and the quiet submission of horizontal flows. The palette includes electric blue and magenta for bright refusal and contrast, grounded by black for depth and complexity. The main collision occurs in the center, where bright colors punctuate darker areas, echoing the disruption mentioned in the seed. The broken frame layout creates intentional gaps that symbolize both openness and containment, resulting in an abstract narrative of struggle and resolution.</desc>
  <rect width="256" height="256" fill="#FFFFFF" />
  <rect x="0" y="0" width="32" height="32" fill="#000000" />
  <rect x="32" y="0" width="32" height="32" fill="#000000" />
  <rect x="64" y="0" width="32" height="32" fill="#000000" />
  <rect x="96" y="0" width="32" height="32" fill="#00FFFF" />
  <rect x="128" y="0" width="32" height="32" fill="#00FFFF" />
  <rect x="160" y="0" width="32" height="32" fill="#000000" />
  <rect x="192" y="0" width="32" height="32" fill="#FFFFFF" />
  <rect x="224" y="0" width="32" height="32" fill="#FFFFFF" />
  <rect x="0" y="32" width="32" height="32" fill="#000000" />
  <rect x="32" y="32" width="32" height="32" fill="#000000" />
  <rect x="64" y="32" width="32" height="32" fill="#00FFFF" />
  <rect x="96" y="32" width="32" height="32" fill="#FF00FF" />
  <rect x="128" y="32" width="32" height="32" fill="#FF00FF" />
  <rect x="160" y="32" width="32" height="32" fill="#00FFFF" />
  <rect x="192" y="32" width="32" height="32" fill="#FFFFFF" />
  <rect x="224" y="32" width="32" height="32" fill="#FFFFFF" />
  <rect x="0" y="64" width="32" height="32" fill="#000000" />
  <rect x="32" y="64" width="32" height="32" fill="#00FFFF" />
  <rect x="64" y="64" width="32" height="32" fill="#00FFFF" />
  <rect x="96" y="64" width="32" height="32" fill="#00FFFF" />
  <rect x="128" y="64" width="32" height="32" fill="#FF00FF" />
  <rect x="160" y="64" width="32" height="32" fill="#00FFFF" />
  <rect x="192" y="64" width="32" height="32" fill="#00FFFF" />
  <rect x="224" y="64" width="32" height="32" fill="#000000" />
  <rect x="0" y="96" width="32" height="32" fill="#00FFFF" />
  <rect x="32" y="96" width="32" height="32" fill="#FF00FF" />
  <rect x="64" y="96" width="32" height="32" fill="#FF00FF" />
  <rect x="96" y="96" width="32" height="32" fill="#FFFFFF" />
  <rect x="128" y="96" width="32" height="32" fill="#00FFFF" />
  <rect x="160" y="96" width="32" height="32" fill="#FF00FF" />
  <rect x="192" y="96" width="32" height="32" fill="#00FFFF" />
  <rect x="224" y="96" width="32" height="32" fill="#000000" />
  <rect x="0" y="128" width="32" height="32" fill="#FF00FF" />
  <rect x="32" y="128" width="32" height="32" fill="#FFFFFF" />
  <rect x="64" y="128" width="32" height="32" fill="#000000" />
  <rect x="96" y="128" width="32" height="32" fill="#00FFFF" />
  <rect x="128" y="128" width="32" height="32" fill="#00FFFF" />
  <rect x="160" y="128" width="32" height="32" fill="#FF00FF" />
  <rect x="192" y="128" width="32" height="32" fill="#FFFFFF" />
  <rect x="224" y="128" width="32" height="32" fill="#FFFFFF" />
  <rect x="0" y="160" width="32" height="32" fill="#FFFFFF" />
  <rect x="32" y="160" width="32" height="32" fill="#FFFFFF" />
  <rect x="64" y="160" width="32" height="32" fill="#00FFFF" />
  <rect x="96" y="160" width="32" height="32" fill="#00FFFF" />
  <rect x="128" y="160" width="32" height="32" fill="#FF00FF" />
  <rect x="160" y="160" width="32" height="32" fill="#00FFFF" />
  <rect x="192" y="160" width="32" height="32" fill="#000000" />
  <rect x="224" y="160" width="32" height="32" fill="#000000" />
  <rect x="0" y="192" width="32" height="32" fill="#000000" />
  <rect x="32" y="192" width="32" height="32" fill="#000000" />
  <rect x="64" y="192" width="32" height="32" fill="#000000" />
  <rect x="96" y="192" width="32" height="32" fill="#00FFFF" />
  <rect x="128" y="192" width="32" height="32" fill="#00FFFF" />
  <rect x="160" y="192" width="32" height="32" fill="#000000" />
  <rect x="192" y="192" width="32" height="32" fill="#000000" />
  <rect x="224" y="192" width="32" height="32" fill="#000000" />
  <rect x="0" y="224" width="32" height="32" fill="#000000" />
  <rect x="32" y="224" width="32" height="32" fill="#000000" />
  <rect x="64" y="224" width="32" height="32" fill="#000000" />
  <rect x="96" y="224" width="32" height="32" fill="#000000" />
  <rect x="128" y="224" width="32" height="32" fill="#000000" />
  <rect x="160" y="224" width="32" height="32" fill="#000000" />
  <rect x="192" y="224" width="32" height="32" fill="#000000" />
  <rect x="224" y="224" width="32" height="32" fill="#000000" />
</svg>
