<svg xmlns="http://www.w3.org/2000/svg" width="256" height="256" viewBox="0 0 256 256" shape-rendering="crispEdges" role="img" aria-labelledby="title desc">
  <title id="title">Tension Unraveled</title>
  <desc id="desc">The emotional tone reflects a duality of relief and dread, expressed through spirals of color that converge at a corner. The palette of pale mint and faded gold invokes a contrast between uplift and heaviness, while storm gray steadies the visuals, creating a perturbing edge. The collision between dense dark and light accents creates both tension and release, echoing the spiral motif as it twists around the edge, embodying the themes from the seed.</desc>
  <rect width="256" height="256" fill="#FFFFFF" />
  <rect x="0" y="0" width="32" height="32" fill="#111111" />
  <rect x="32" y="0" width="32" height="32" fill="#1A1A1A" />
  <rect x="64" y="0" width="32" height="32" fill="#333333" />
  <rect x="96" y="0" width="32" height="32" fill="#4D4D4D" />
  <rect x="128" y="0" width="32" height="32" fill="#666666" />
  <rect x="160" y="0" width="32" height="32" fill="#777777" />
  <rect x="192" y="0" width="32" height="32" fill="#DDDDDD" />
  <rect x="224" y="0" width="32" height="32" fill="#F3E5AB" />
  <rect x="0" y="32" width="32" height="32" fill="#1E1E1E" />
  <rect x="32" y="32" width="32" height="32" fill="#4B4B4B" />
  <rect x="64" y="32" width="32" height="32" fill="#505050" />
  <rect x="96" y="32" width="32" height="32" fill="#707070" />
  <rect x="128" y="32" width="32" height="32" fill="#111E29" />
  <rect x="160" y="32" width="32" height="32" fill="#AA9B4D" />
  <rect x="192" y="32" width="32" height="32" fill="#EAE1C3" />
  <rect x="224" y="32" width="32" height="32" fill="#F0F3F9" />
  <rect x="0" y="64" width="32" height="32" fill="#2D2D2D" />
  <rect x="32" y="64" width="32" height="32" fill="#505050" />
  <rect x="64" y="64" width="32" height="32" fill="#6A6A6A" />
  <rect x="96" y="64" width="32" height="32" fill="#B8C4B1" />
  <rect x="128" y="64" width="32" height="32" fill="#D4C5A1" />
  <rect x="160" y="64" width="32" height="32" fill="#F1E8D2" />
  <rect x="192" y="64" width="32" height="32" fill="#C4C4C4" />
  <rect x="224" y="64" width="32" height="32" fill="#FFFFFF" />
  <rect x="0" y="96" width="32" height="32" fill="#3A3A3A" />
  <rect x="32" y="96" width="32" height="32" fill="#737373" />
  <rect x="64" y="96" width="32" height="32" fill="#A8A8A8" />
  <rect x="96" y="96" width="32" height="32" fill="#DEDBAA" />
  <rect x="128" y="96" width="32" height="32" fill="#C7B49B" />
  <rect x="160" y="96" width="32" height="32" fill="#AA7C5C" />
  <rect x="192" y="96" width="32" height="32" fill="#B1B1B1" />
  <rect x="224" y="96" width="32" height="32" fill="#E2E8E5" />
  <rect x="0" y="128" width="32" height="32" fill="#4A4A4A" />
  <rect x="32" y="128" width="32" height="32" fill="#8B8B8B" />
  <rect x="64" y="128" width="32" height="32" fill="#D1CFC9" />
  <rect x="96" y="128" width="32" height="32" fill="#D0B9A2" />
  <rect x="128" y="128" width="32" height="32" fill="#D2E1E3" />
  <rect x="160" y="128" width="32" height="32" fill="#EBBF82" />
  <rect x="192" y="128" width="32" height="32" fill="#F7C2B1" />
  <rect x="224" y="128" width="32" height="32" fill="#F9F9F9" />
  <rect x="0" y="160" width="32" height="32" fill="#5B5B5B" />
  <rect x="32" y="160" width="32" height="32" fill="#A0A0A0" />
  <rect x="64" y="160" width="32" height="32" fill="#BDAF99" />
  <rect x="96" y="160" width="32" height="32" fill="#E5C0A4" />
  <rect x="128" y="160" width="32" height="32" fill="#F0DBBB" />
  <rect x="160" y="160" width="32" height="32" fill="#E69B73" />
  <rect x="192" y="160" width="32" height="32" fill="#F6E5D6" />
  <rect x="224" y="160" width="32" height="32" fill="#FAFAFA" />
  <rect x="0" y="192" width="32" height="32" fill="#6F6F6F" />
  <rect x="32" y="192" width="32" height="32" fill="#B8B8B8" />
  <rect x="64" y="192" width="32" height="32" fill="#C5C5C5" />
  <rect x="96" y="192" width="32" height="32" fill="#D6B1A2" />
  <rect x="128" y="192" width="32" height="32" fill="#FDE7CE" />
  <rect x="160" y="192" width="32" height="32" fill="#E8F4F1" />
  <rect x="192" y="192" width="32" height="32" fill="#F1EBE7" />
  <rect x="224" y="192" width="32" height="32" fill="#F7F7F7" />
  <rect x="0" y="224" width="32" height="32" fill="#7F7F7F" />
  <rect x="32" y="224" width="32" height="32" fill="#D8D8D8" />
  <rect x="64" y="224" width="32" height="32" fill="#C8B299" />
  <rect x="96" y="224" width="32" height="32" fill="#F1CFC5" />
  <rect x="128" y="224" width="32" height="32" fill="#E5DDC7" />
  <rect x="160" y="224" width="32" height="32" fill="#FCFBF7" />
  <rect x="192" y="224" width="32" height="32" fill="#F2F2F2" />
  <rect x="224" y="224" width="32" height="32" fill="#FFFFFF" />
</svg>
