<svg xmlns="http://www.w3.org/2000/svg" width="256" height="256" viewBox="0 0 256 256" shape-rendering="crispEdges" role="img" aria-labelledby="title desc">
  <title id="title">Echoes of Growth</title>
  <desc id="desc">This artwork navigates between nostalgia and progress, illustrating the push and pull of memory and advancement. The chosen palette of sepia, tan, dust gray, and faded blue evokes a sense of time and recollection, while providing a soft contrast against sharper, more vibrant moments, creating tension. The pattern mimics a crosshatch layout for progress and rain-like flows representing nostalgia, creating an asymmetry that suggests a dynamic emotional landscape. The collision occurs where dark and muted colors interact with softer shades, highlighting contrasts and evoking feelings of yearning and movement. The bottom-weighted design emphasizes the heaviness of nostalgia while allowing the upper segments to suggest potential, capturing the struggle and harmony between contrasting emotions.</desc>
  <rect width="256" height="256" fill="#FFFFFF" />
  <rect x="0" y="0" width="32" height="32" fill="#264348" />
  <rect x="32" y="0" width="32" height="32" fill="#2E4C4F" />
  <rect x="64" y="0" width="32" height="32" fill="#7A9E9D" />
  <rect x="96" y="0" width="32" height="32" fill="#A4B8C4" />
  <rect x="128" y="0" width="32" height="32" fill="#D1D9E0" />
  <rect x="160" y="0" width="32" height="32" fill="#B7A9A7" />
  <rect x="192" y="0" width="32" height="32" fill="#847B7A" />
  <rect x="224" y="0" width="32" height="32" fill="#4A4644" />
  <rect x="0" y="32" width="32" height="32" fill="#454E53" />
  <rect x="32" y="32" width="32" height="32" fill="#658E87" />
  <rect x="64" y="32" width="32" height="32" fill="#73B1B8" />
  <rect x="96" y="32" width="32" height="32" fill="#9CD8D9" />
  <rect x="128" y="32" width="32" height="32" fill="#DED1B0" />
  <rect x="160" y="32" width="32" height="32" fill="#D1ADAC" />
  <rect x="192" y="32" width="32" height="32" fill="#8E7374" />
  <rect x="224" y="32" width="32" height="32" fill="#4C4E53" />
  <rect x="0" y="64" width="32" height="32" fill="#0F1618" />
  <rect x="32" y="64" width="32" height="32" fill="#192E2D" />
  <rect x="64" y="64" width="32" height="32" fill="#112E3A" />
  <rect x="96" y="64" width="32" height="32" fill="#A7BDB6" />
  <rect x="128" y="64" width="32" height="32" fill="#D3D6D4" />
  <rect x="160" y="64" width="32" height="32" fill="#C1C8B9" />
  <rect x="192" y="64" width="32" height="32" fill="#868D8F" />
  <rect x="224" y="64" width="32" height="32" fill="#60666E" />
  <rect x="0" y="96" width="32" height="32" fill="#7F7774" />
  <rect x="32" y="96" width="32" height="32" fill="#934F46" />
  <rect x="64" y="96" width="32" height="32" fill="#DECCC4" />
  <rect x="96" y="96" width="32" height="32" fill="#F0E6D7" />
  <rect x="128" y="96" width="32" height="32" fill="#E4CFD1" />
  <rect x="160" y="96" width="32" height="32" fill="#B79E94" />
  <rect x="192" y="96" width="32" height="32" fill="#755952" />
  <rect x="224" y="96" width="32" height="32" fill="#4C4035" />
  <rect x="0" y="128" width="32" height="32" fill="#373839" />
  <rect x="32" y="128" width="32" height="32" fill="#22272C" />
  <rect x="64" y="128" width="32" height="32" fill="#444C51" />
  <rect x="96" y="128" width="32" height="32" fill="#E1CFD0" />
  <rect x="128" y="128" width="32" height="32" fill="#BAAAAB" />
  <rect x="160" y="128" width="32" height="32" fill="#958B83" />
  <rect x="192" y="128" width="32" height="32" fill="#6B5A57" />
  <rect x="224" y="128" width="32" height="32" fill="#402924" />
  <rect x="0" y="160" width="32" height="32" fill="#3B3239" />
  <rect x="32" y="160" width="32" height="32" fill="#6C4C51" />
  <rect x="64" y="160" width="32" height="32" fill="#C2A080" />
  <rect x="96" y="160" width="32" height="32" fill="#D9D7C4" />
  <rect x="128" y="160" width="32" height="32" fill="#8C8789" />
  <rect x="160" y="160" width="32" height="32" fill="#465251" />
  <rect x="192" y="160" width="32" height="32" fill="#4E4B4F" />
  <rect x="224" y="160" width="32" height="32" fill="#737373" />
  <rect x="0" y="192" width="32" height="32" fill="#0B0C10" />
  <rect x="32" y="192" width="32" height="32" fill="#1F2426" />
  <rect x="64" y="192" width="32" height="32" fill="#575E5E" />
  <rect x="96" y="192" width="32" height="32" fill="#7C8687" />
  <rect x="128" y="192" width="32" height="32" fill="#B2C2C1" />
  <rect x="160" y="192" width="32" height="32" fill="#E5EAF1" />
  <rect x="192" y="192" width="32" height="32" fill="#DCD9D7" />
  <rect x="224" y="192" width="32" height="32" fill="#CECACA" />
  <rect x="0" y="224" width="32" height="32" fill="#0C1C22" />
  <rect x="32" y="224" width="32" height="32" fill="#002230" />
  <rect x="64" y="224" width="32" height="32" fill="#465557" />
  <rect x="96" y="224" width="32" height="32" fill="#B3B3B3" />
  <rect x="128" y="224" width="32" height="32" fill="#D5D6E0" />
  <rect x="160" y="224" width="32" height="32" fill="#AAAAA5" />
  <rect x="192" y="224" width="32" height="32" fill="#848382" />
  <rect x="224" y="224" width="32" height="32" fill="#4A4340" />
</svg>
