<svg xmlns="http://www.w3.org/2000/svg" width="256" height="256" viewBox="0 0 256 256" shape-rendering="crispEdges" role="img" aria-labelledby="title desc">
  <title id="title">Overflowing Calm</title>
  <desc id="desc">This composition juxtaposes the explosive reds that represent 'rage' with soft, calming blues and whites symbolizing tranquility. The palette balances vibrant peaks of energy against quiet waves of calm. The dominant red patches create tension through overlap with the pale blue, suggesting a feeling of conflict and contained chaos. The 'stair step' shape seed translates into sections of color that intermingle, representing the erratic nature of emotions clashing against soft edges, with broken pixels adding intentional imperfections to enhance the narrative of struggle and imperfection.</desc>
  <rect width="256" height="256" fill="#FFFFFF" />
  <rect x="0" y="0" width="32" height="32" fill="#FF0000" />
  <rect x="32" y="0" width="32" height="32" fill="#030303" />
  <rect x="64" y="0" width="32" height="32" fill="#000000" />
  <rect x="96" y="0" width="32" height="32" fill="#FFFFFF" />
  <rect x="128" y="0" width="32" height="32" fill="#0000FF" />
  <rect x="160" y="0" width="32" height="32" fill="#000000" />
  <rect x="192" y="0" width="32" height="32" fill="#FFAAAA" />
  <rect x="224" y="0" width="32" height="32" fill="#FF0000" />
  <rect x="0" y="32" width="32" height="32" fill="#000000" />
  <rect x="32" y="32" width="32" height="32" fill="#FFCCCC" />
  <rect x="64" y="32" width="32" height="32" fill="#330000" />
  <rect x="96" y="32" width="32" height="32" fill="#FFFFFF" />
  <rect x="128" y="32" width="32" height="32" fill="#3333CC" />
  <rect x="160" y="32" width="32" height="32" fill="#111111" />
  <rect x="192" y="32" width="32" height="32" fill="#AAAAAA" />
  <rect x="224" y="32" width="32" height="32" fill="#0000FF" />
  <rect x="0" y="64" width="32" height="32" fill="#FF0000" />
  <rect x="32" y="64" width="32" height="32" fill="#0000FF" />
  <rect x="64" y="64" width="32" height="32" fill="#555555" />
  <rect x="96" y="64" width="32" height="32" fill="#FFFFFF" />
  <rect x="128" y="64" width="32" height="32" fill="#111111" />
  <rect x="160" y="64" width="32" height="32" fill="#FFAAAA" />
  <rect x="192" y="64" width="32" height="32" fill="#FF0000" />
  <rect x="224" y="64" width="32" height="32" fill="#000000" />
  <rect x="0" y="96" width="32" height="32" fill="#330000" />
  <rect x="32" y="96" width="32" height="32" fill="#FFFFFF" />
  <rect x="64" y="96" width="32" height="32" fill="#000000" />
  <rect x="96" y="96" width="32" height="32" fill="#0000FF" />
  <rect x="128" y="96" width="32" height="32" fill="#FF4444" />
  <rect x="160" y="96" width="32" height="32" fill="#010101" />
  <rect x="192" y="96" width="32" height="32" fill="#FF9999" />
  <rect x="224" y="96" width="32" height="32" fill="#000000" />
  <rect x="0" y="128" width="32" height="32" fill="#000000" />
  <rect x="32" y="128" width="32" height="32" fill="#FF0000" />
  <rect x="64" y="128" width="32" height="32" fill="#FFFFFF" />
  <rect x="96" y="128" width="32" height="32" fill="#000000" />
  <rect x="128" y="128" width="32" height="32" fill="#0033CC" />
  <rect x="160" y="128" width="32" height="32" fill="#AAAAAA" />
  <rect x="192" y="128" width="32" height="32" fill="#FF0000" />
  <rect x="224" y="128" width="32" height="32" fill="#CCCCCC" />
  <rect x="0" y="160" width="32" height="32" fill="#FFFFFF" />
  <rect x="32" y="160" width="32" height="32" fill="#FFAAAA" />
  <rect x="64" y="160" width="32" height="32" fill="#000000" />
  <rect x="96" y="160" width="32" height="32" fill="#0000FF" />
  <rect x="128" y="160" width="32" height="32" fill="#555555" />
  <rect x="160" y="160" width="32" height="32" fill="#FFFF00" />
  <rect x="192" y="160" width="32" height="32" fill="#000000" />
  <rect x="224" y="160" width="32" height="32" fill="#FF0000" />
  <rect x="0" y="192" width="32" height="32" fill="#111111" />
  <rect x="32" y="192" width="32" height="32" fill="#0000FF" />
  <rect x="64" y="192" width="32" height="32" fill="#000000" />
  <rect x="96" y="192" width="32" height="32" fill="#FFFFFF" />
  <rect x="128" y="192" width="32" height="32" fill="#FF0000" />
  <rect x="160" y="192" width="32" height="32" fill="#DDDDDD" />
  <rect x="192" y="192" width="32" height="32" fill="#FF0000" />
  <rect x="224" y="192" width="32" height="32" fill="#FFFFFF" />
  <rect x="0" y="224" width="32" height="32" fill="#000000" />
  <rect x="32" y="224" width="32" height="32" fill="#FF4444" />
  <rect x="64" y="224" width="32" height="32" fill="#FFFFFF" />
  <rect x="96" y="224" width="32" height="32" fill="#222222" />
  <rect x="128" y="224" width="32" height="32" fill="#0000FF" />
  <rect x="160" y="224" width="32" height="32" fill="#FF5500" />
  <rect x="192" y="224" width="32" height="32" fill="#000000" />
  <rect x="224" y="224" width="32" height="32" fill="#0000FF" />
</svg>
