<svg xmlns="http://www.w3.org/2000/svg" width="256" height="256" viewBox="0 0 256 256" shape-rendering="crispEdges" role="img" aria-labelledby="title desc">
  <title id="title">Signal Echoes</title>
  <desc id="desc">This piece captures the tension between certainty and curiosity, embodied by a dense central cluster of saturated colors representing assured signals battling against muted edges that reflect chaos and uncertainty. The chosen palette of rich reds and soft greys conveys deep emotional layers—passion and betrayal—creating a striking contrast. The collision of a controlled, pulsing rhythm at the center and a scattered, organic flow towards the edges establishes a narrative of seeking clarity amidst noise, fulfilling the seed's emotional complexity.</desc>
  <rect width="256" height="256" fill="#FFFFFF" />
  <rect x="0" y="0" width="32" height="32" fill="#5C0D21" />
  <rect x="32" y="0" width="32" height="32" fill="#A0162A" />
  <rect x="64" y="0" width="32" height="32" fill="#AA1C3D" />
  <rect x="96" y="0" width="32" height="32" fill="#A6234C" />
  <rect x="128" y="0" width="32" height="32" fill="#B02851" />
  <rect x="160" y="0" width="32" height="32" fill="#C42B5A" />
  <rect x="192" y="0" width="32" height="32" fill="#BB1C4D" />
  <rect x="224" y="0" width="32" height="32" fill="#5F141E" />
  <rect x="0" y="32" width="32" height="32" fill="#8B1A28" />
  <rect x="32" y="32" width="32" height="32" fill="#9E1F30" />
  <rect x="64" y="32" width="32" height="32" fill="#D05E70" />
  <rect x="96" y="32" width="32" height="32" fill="#F2B2BC" />
  <rect x="128" y="32" width="32" height="32" fill="#B03757" />
  <rect x="160" y="32" width="32" height="32" fill="#8B1624" />
  <rect x="192" y="32" width="32" height="32" fill="#4B0F16" />
  <rect x="224" y="32" width="32" height="32" fill="#2C0E13" />
  <rect x="0" y="64" width="32" height="32" fill="#A72A4A" />
  <rect x="32" y="64" width="32" height="32" fill="#BB3C54" />
  <rect x="64" y="64" width="32" height="32" fill="#C84A67" />
  <rect x="96" y="64" width="32" height="32" fill="#C83E56" />
  <rect x="128" y="64" width="32" height="32" fill="#BD2B48" />
  <rect x="160" y="64" width="32" height="32" fill="#A11124" />
  <rect x="192" y="64" width="32" height="32" fill="#5D0E1C" />
  <rect x="224" y="64" width="32" height="32" fill="#8E2A3B" />
  <rect x="0" y="96" width="32" height="32" fill="#9F1D37" />
  <rect x="32" y="96" width="32" height="32" fill="#C86378" />
  <rect x="64" y="96" width="32" height="32" fill="#B63648" />
  <rect x="96" y="96" width="32" height="32" fill="#B42B4E" />
  <rect x="128" y="96" width="32" height="32" fill="#956071" />
  <rect x="160" y="96" width="32" height="32" fill="#CD223D" />
  <rect x="192" y="96" width="32" height="32" fill="#D4455B" />
  <rect x="224" y="96" width="32" height="32" fill="#A40F3B" />
  <rect x="0" y="128" width="32" height="32" fill="#D0627A" />
  <rect x="32" y="128" width="32" height="32" fill="#F5BAC1" />
  <rect x="64" y="128" width="32" height="32" fill="#D24B60" />
  <rect x="96" y="128" width="32" height="32" fill="#8E233B" />
  <rect x="128" y="128" width="32" height="32" fill="#A01528" />
  <rect x="160" y="128" width="32" height="32" fill="#BD2C4C" />
  <rect x="192" y="128" width="32" height="32" fill="#C0A7B2" />
  <rect x="224" y="128" width="32" height="32" fill="#A80B36" />
  <rect x="0" y="160" width="32" height="32" fill="#CE005B" />
  <rect x="32" y="160" width="32" height="32" fill="#F290A8" />
  <rect x="64" y="160" width="32" height="32" fill="#E25062" />
  <rect x="96" y="160" width="32" height="32" fill="#A52A48" />
  <rect x="128" y="160" width="32" height="32" fill="#6C1426" />
  <rect x="160" y="160" width="32" height="32" fill="#E1B0C0" />
  <rect x="192" y="160" width="32" height="32" fill="#C74D5D" />
  <rect x="224" y="160" width="32" height="32" fill="#A20030" />
  <rect x="0" y="192" width="32" height="32" fill="#D76B8A" />
  <rect x="32" y="192" width="32" height="32" fill="#D83B60" />
  <rect x="64" y="192" width="32" height="32" fill="#A71F3C" />
  <rect x="96" y="192" width="32" height="32" fill="#D22B44" />
  <rect x="128" y="192" width="32" height="32" fill="#8E1732" />
  <rect x="160" y="192" width="32" height="32" fill="#C75566" />
  <rect x="192" y="192" width="32" height="32" fill="#C63952" />
  <rect x="224" y="192" width="32" height="32" fill="#AD2951" />
  <rect x="0" y="224" width="32" height="32" fill="#C0A3B4" />
  <rect x="32" y="224" width="32" height="32" fill="#FCA5BB" />
  <rect x="64" y="224" width="32" height="32" fill="#AE2747" />
  <rect x="96" y="224" width="32" height="32" fill="#DD4098" />
  <rect x="128" y="224" width="32" height="32" fill="#D694A2" />
  <rect x="160" y="224" width="32" height="32" fill="#873542" />
  <rect x="192" y="224" width="32" height="32" fill="#4A2634" />
  <rect x="224" y="224" width="32" height="32" fill="#5C171F" />
</svg>
