<svg xmlns="http://www.w3.org/2000/svg" width="256" height="256" viewBox="0 0 256 256" shape-rendering="crispEdges" role="img" aria-labelledby="title desc">
  <title id="title">Tension of Light and Shadow</title>
  <desc id="desc">This composition explores the emotional struggle between fear and hope through contrasting colors and textures. The left half, embodying fear, is rendered in dark, muted tones representing pressure and jagged edges, while the right half symbolizes hope with lighter, glowing accents, suggesting upward flow and a rising theme. The vertical split promotes a sense of conflict and dichotomy, while the insertion of broken pixels introduces imperfection, echoing the complexity of these emotions. The overall color palette of blacks, dark violets, soft golds, and pale greens creates a visual narrative of the balance (or imbalance) between despair and optimism.</desc>
  <rect width="256" height="256" fill="#FFFFFF" />
  <rect x="0" y="0" width="32" height="32" fill="#1A1A2E" />
  <rect x="32" y="0" width="32" height="32" fill="#16213E" />
  <rect x="64" y="0" width="32" height="32" fill="#0F3460" />
  <rect x="96" y="0" width="32" height="32" fill="#F2E9E4" />
  <rect x="128" y="0" width="32" height="32" fill="#F9AFAF" />
  <rect x="160" y="0" width="32" height="32" fill="#F3B9A0" />
  <rect x="192" y="0" width="32" height="32" fill="#280C3E" />
  <rect x="224" y="0" width="32" height="32" fill="#FFD60A" />
  <rect x="0" y="32" width="32" height="32" fill="#011A3A" />
  <rect x="32" y="32" width="32" height="32" fill="#042A2B" />
  <rect x="64" y="32" width="32" height="32" fill="#18BDAF" />
  <rect x="96" y="32" width="32" height="32" fill="#F2E9E4" />
  <rect x="128" y="32" width="32" height="32" fill="#C8C6D4" />
  <rect x="160" y="32" width="32" height="32" fill="#F26B38" />
  <rect x="192" y="32" width="32" height="32" fill="#5B7F7D" />
  <rect x="224" y="32" width="32" height="32" fill="#FFB20F" />
  <rect x="0" y="64" width="32" height="32" fill="#2C2A29" />
  <rect x="32" y="64" width="32" height="32" fill="#333B3B" />
  <rect x="64" y="64" width="32" height="32" fill="#4C5470" />
  <rect x="96" y="64" width="32" height="32" fill="#DDF1B4" />
  <rect x="128" y="64" width="32" height="32" fill="#A8C8E1" />
  <rect x="160" y="64" width="32" height="32" fill="#B78828" />
  <rect x="192" y="64" width="32" height="32" fill="#180E3C" />
  <rect x="224" y="64" width="32" height="32" fill="#D64541" />
  <rect x="0" y="96" width="32" height="32" fill="#2E2A30" />
  <rect x="32" y="96" width="32" height="32" fill="#5B5E66" />
  <rect x="64" y="96" width="32" height="32" fill="#B2DFDB" />
  <rect x="96" y="96" width="32" height="32" fill="#CCE3DE" />
  <rect x="128" y="96" width="32" height="32" fill="#F28687" />
  <rect x="160" y="96" width="32" height="32" fill="#F5C6A7" />
  <rect x="192" y="96" width="32" height="32" fill="#8E2C2C" />
  <rect x="224" y="96" width="32" height="32" fill="#B25B39" />
  <rect x="0" y="128" width="32" height="32" fill="#202040" />
  <rect x="32" y="128" width="32" height="32" fill="#0A0C0D" />
  <rect x="64" y="128" width="32" height="32" fill="#C4E1A0" />
  <rect x="96" y="128" width="32" height="32" fill="#D4D0C8" />
  <rect x="128" y="128" width="32" height="32" fill="#D62375" />
  <rect x="160" y="128" width="32" height="32" fill="#F9B4A3" />
  <rect x="192" y="128" width="32" height="32" fill="#687B6E" />
  <rect x="224" y="128" width="32" height="32" fill="#FF6348" />
  <rect x="0" y="160" width="32" height="32" fill="#03071E" />
  <rect x="32" y="160" width="32" height="32" fill="#1F5B35" />
  <rect x="64" y="160" width="32" height="32" fill="#0C9B00" />
  <rect x="96" y="160" width="32" height="32" fill="#C3D3B0" />
  <rect x="128" y="160" width="32" height="32" fill="#FCF7DE" />
  <rect x="160" y="160" width="32" height="32" fill="#FF8E26" />
  <rect x="192" y="160" width="32" height="32" fill="#DCD8D1" />
  <rect x="224" y="160" width="32" height="32" fill="#381825" />
  <rect x="0" y="192" width="32" height="32" fill="#000000" />
  <rect x="32" y="192" width="32" height="32" fill="#3B0A45" />
  <rect x="64" y="192" width="32" height="32" fill="#6A0572" />
  <rect x="96" y="192" width="32" height="32" fill="#D4C9C6" />
  <rect x="128" y="192" width="32" height="32" fill="#F9BBA8" />
  <rect x="160" y="192" width="32" height="32" fill="#FFC947" />
  <rect x="192" y="192" width="32" height="32" fill="#2D458B" />
  <rect x="224" y="192" width="32" height="32" fill="#F9D56D" />
  <rect x="0" y="224" width="32" height="32" fill="#040F13" />
  <rect x="32" y="224" width="32" height="32" fill="#7B9C92" />
  <rect x="64" y="224" width="32" height="32" fill="#E4F1E7" />
  <rect x="96" y="224" width="32" height="32" fill="#FCC2A3" />
  <rect x="128" y="224" width="32" height="32" fill="#FFD83D" />
  <rect x="160" y="224" width="32" height="32" fill="#8D2C22" />
  <rect x="192" y="224" width="32" height="32" fill="#2F2F2F" />
  <rect x="224" y="224" width="32" height="32" fill="#B6D7A3" />
</svg>
