<svg xmlns="http://www.w3.org/2000/svg" width="256" height="256" viewBox="0 0 256 256" shape-rendering="crispEdges" role="img" aria-labelledby="title desc">
  <title id="title">Tension and Release</title>
  <desc id="desc">This composition explores the emotional landscape of tension and release inspired by the seed. It uses a dynamic palette that juxtaposes warm and cool tones to reflect the pressure of conflicting emotions. The deep contrasts create visual 'collisions' that provide an echo of rhythmic movement and subtle interruptions. Bright accents against a deep background signify moments of clarity within chaos, while the subtle gradients symbolize the quiet and dense nature of unresolved feelings. The overall arrangement conveys a narrative of evolution from calm to intensity, mirroring the turbulent dance of emotion.</desc>
  <rect width="256" height="256" fill="#FFFFFF" />
  <rect x="0" y="0" width="32" height="32" fill="#1A1A2E" />
  <rect x="32" y="0" width="32" height="32" fill="#16213E" />
  <rect x="64" y="0" width="32" height="32" fill="#0F3460" />
  <rect x="96" y="0" width="32" height="32" fill="#E94560" />
  <rect x="128" y="0" width="32" height="32" fill="#F9F8F6" />
  <rect x="160" y="0" width="32" height="32" fill="#F9AFAF" />
  <rect x="192" y="0" width="32" height="32" fill="#F9BEBE" />
  <rect x="224" y="0" width="32" height="32" fill="#F9D7D7" />
  <rect x="0" y="32" width="32" height="32" fill="#0A7E8C" />
  <rect x="32" y="32" width="32" height="32" fill="#ECC30F" />
  <rect x="64" y="32" width="32" height="32" fill="#1E3A5F" />
  <rect x="96" y="32" width="32" height="32" fill="#FF4B2B" />
  <rect x="128" y="32" width="32" height="32" fill="#F0E6D2" />
  <rect x="160" y="32" width="32" height="32" fill="#35A89F" />
  <rect x="192" y="32" width="32" height="32" fill="#F1C40F" />
  <rect x="224" y="32" width="32" height="32" fill="#2D3E50" />
  <rect x="0" y="64" width="32" height="32" fill="#343A40" />
  <rect x="32" y="64" width="32" height="32" fill="#4ECDC4" />
  <rect x="64" y="64" width="32" height="32" fill="#1A7D9A" />
  <rect x="96" y="64" width="32" height="32" fill="#E94560" />
  <rect x="128" y="64" width="32" height="32" fill="#3C4B5F" />
  <rect x="160" y="64" width="32" height="32" fill="#F0E6D2" />
  <rect x="192" y="64" width="32" height="32" fill="#F9C2B2" />
  <rect x="224" y="64" width="32" height="32" fill="#F63C20" />
  <rect x="0" y="96" width="32" height="32" fill="#FAF3E0" />
  <rect x="32" y="96" width="32" height="32" fill="#FF6F61" />
  <rect x="64" y="96" width="32" height="32" fill="#364F6B" />
  <rect x="96" y="96" width="32" height="32" fill="#5C4D7D" />
  <rect x="128" y="96" width="32" height="32" fill="#F3722C" />
  <rect x="160" y="96" width="32" height="32" fill="#D83B01" />
  <rect x="192" y="96" width="32" height="32" fill="#3F88C5" />
  <rect x="224" y="96" width="32" height="32" fill="#A8DADC" />
  <rect x="0" y="128" width="32" height="32" fill="#E4F0F6" />
  <rect x="32" y="128" width="32" height="32" fill="#58676A" />
  <rect x="64" y="128" width="32" height="32" fill="#C5C5C5" />
  <rect x="96" y="128" width="32" height="32" fill="#FFBF50" />
  <rect x="128" y="128" width="32" height="32" fill="#FF4F8B" />
  <rect x="160" y="128" width="32" height="32" fill="#E15651" />
  <rect x="192" y="128" width="32" height="32" fill="#2E6E7E" />
  <rect x="224" y="128" width="32" height="32" fill="#1B3A57" />
  <rect x="0" y="160" width="32" height="32" fill="#D9BF77" />
  <rect x="32" y="160" width="32" height="32" fill="#93C5B7" />
  <rect x="64" y="160" width="32" height="32" fill="#F15412" />
  <rect x="96" y="160" width="32" height="32" fill="#6E1F8C" />
  <rect x="128" y="160" width="32" height="32" fill="#FF9F00" />
  <rect x="160" y="160" width="32" height="32" fill="#BB8765" />
  <rect x="192" y="160" width="32" height="32" fill="#33D7FF" />
  <rect x="224" y="160" width="32" height="32" fill="#B5E48C" />
  <rect x="0" y="192" width="32" height="32" fill="#D4A5A5" />
  <rect x="32" y="192" width="32" height="32" fill="#AB83A1" />
  <rect x="64" y="192" width="32" height="32" fill="#073B4C" />
  <rect x="96" y="192" width="32" height="32" fill="#B67698" />
  <rect x="128" y="192" width="32" height="32" fill="#8BE4CF" />
  <rect x="160" y="192" width="32" height="32" fill="#E45D36" />
  <rect x="192" y="192" width="32" height="32" fill="#F70000" />
  <rect x="224" y="192" width="32" height="32" fill="#FFD60A" />
  <rect x="0" y="224" width="32" height="32" fill="#C0C0C0" />
  <rect x="32" y="224" width="32" height="32" fill="#FEF9EF" />
  <rect x="64" y="224" width="32" height="32" fill="#BBEBC2" />
  <rect x="96" y="224" width="32" height="32" fill="#237B4B" />
  <rect x="128" y="224" width="32" height="32" fill="#6F7C92" />
  <rect x="160" y="224" width="32" height="32" fill="#D6336C" />
  <rect x="192" y="224" width="32" height="32" fill="#FFE5D8" />
  <rect x="224" y="224" width="32" height="32" fill="#622569" />
</svg>
