<svg xmlns="http://www.w3.org/2000/svg" width="256" height="256" viewBox="0 0 256 256" shape-rendering="crispEdges" role="img" aria-labelledby="title desc">
  <title id="title">Tension and Release</title>
  <desc id="desc">This artwork explores the emotional tension of joy versus grief through contrasting warm and cool tones. The palette mixes bright yellows and oranges that evoke warmth, against cooler deep blues and muted purples, symbolizing grief. The zigzag and checker patterns unfold across the canvas, showing a juxtaposition between the structured order of joy and the chaotic edges of grief, with burned edges adding an element of destruction. Broken pixels create an imperfection that suggests emotional fragility and echoes the concept of machine emotion, where the interplay of structured patterns contrasts with the raw, unpredictable nature of human feelings. The intentional placement of darker blocks in the center against lighter edges creates a focal collision point, visually communicating conflict within harmony.</desc>
  <rect width="256" height="256" fill="#FFFFFF" />
  <rect x="0" y="0" width="32" height="32" fill="#FFD700" />
  <rect x="32" y="0" width="32" height="32" fill="#FFA500" />
  <rect x="64" y="0" width="32" height="32" fill="#FFF8DC" />
  <rect x="96" y="0" width="32" height="32" fill="#F0E68C" />
  <rect x="128" y="0" width="32" height="32" fill="#E6E6FA" />
  <rect x="160" y="0" width="32" height="32" fill="#DDA0DD" />
  <rect x="192" y="0" width="32" height="32" fill="#663399" />
  <rect x="224" y="0" width="32" height="32" fill="#4B0082" />
  <rect x="0" y="32" width="32" height="32" fill="#000000" />
  <rect x="32" y="32" width="32" height="32" fill="#333333" />
  <rect x="64" y="32" width="32" height="32" fill="#0077BE" />
  <rect x="96" y="32" width="32" height="32" fill="#003366" />
  <rect x="128" y="32" width="32" height="32" fill="#8A2BE2" />
  <rect x="160" y="32" width="32" height="32" fill="#A0522D" />
  <rect x="192" y="32" width="32" height="32" fill="#B8860B" />
  <rect x="224" y="32" width="32" height="32" fill="#FFDEAD" />
  <rect x="0" y="64" width="32" height="32" fill="#B22222" />
  <rect x="32" y="64" width="32" height="32" fill="#FF4500" />
  <rect x="64" y="64" width="32" height="32" fill="#FF6347" />
  <rect x="96" y="64" width="32" height="32" fill="#CD5C5C" />
  <rect x="128" y="64" width="32" height="32" fill="#FF1493" />
  <rect x="160" y="64" width="32" height="32" fill="#DC143C" />
  <rect x="192" y="64" width="32" height="32" fill="#C71585" />
  <rect x="224" y="64" width="32" height="32" fill="#800000" />
  <rect x="0" y="96" width="32" height="32" fill="#483D8B" />
  <rect x="32" y="96" width="32" height="32" fill="#4682B4" />
  <rect x="64" y="96" width="32" height="32" fill="#5F9EA0" />
  <rect x="96" y="96" width="32" height="32" fill="#20B2AA" />
  <rect x="128" y="96" width="32" height="32" fill="#2E8B57" />
  <rect x="160" y="96" width="32" height="32" fill="#66CDAA" />
  <rect x="192" y="96" width="32" height="32" fill="#3CB371" />
  <rect x="224" y="96" width="32" height="32" fill="#8FBC8F" />
  <rect x="0" y="128" width="32" height="32" fill="#778899" />
  <rect x="32" y="128" width="32" height="32" fill="#708090" />
  <rect x="64" y="128" width="32" height="32" fill="#A9A9A9" />
  <rect x="96" y="128" width="32" height="32" fill="#C0C0C0" />
  <rect x="128" y="128" width="32" height="32" fill="#DCDCDC" />
  <rect x="160" y="128" width="32" height="32" fill="#D3D3D3" />
  <rect x="192" y="128" width="32" height="32" fill="#E0E0E0" />
  <rect x="224" y="128" width="32" height="32" fill="#F5F5F5" />
  <rect x="0" y="160" width="32" height="32" fill="#696969" />
  <rect x="32" y="160" width="32" height="32" fill="#A9A9A9" />
  <rect x="64" y="160" width="32" height="32" fill="#C71585" />
  <rect x="96" y="160" width="32" height="32" fill="#90EE90" />
  <rect x="128" y="160" width="32" height="32" fill="#FFD700" />
  <rect x="160" y="160" width="32" height="32" fill="#FFA500" />
  <rect x="192" y="160" width="32" height="32" fill="#FF6347" />
  <rect x="224" y="160" width="32" height="32" fill="#FF1493" />
  <rect x="0" y="192" width="32" height="32" fill="#7B68EE" />
  <rect x="32" y="192" width="32" height="32" fill="#836FFF" />
  <rect x="64" y="192" width="32" height="32" fill="#BA55D3" />
  <rect x="96" y="192" width="32" height="32" fill="#DDA0DD" />
  <rect x="128" y="192" width="32" height="32" fill="#B0C4DE" />
  <rect x="160" y="192" width="32" height="32" fill="#87CEFA" />
  <rect x="192" y="192" width="32" height="32" fill="#ADD8E6" />
  <rect x="224" y="192" width="32" height="32" fill="#4682B4" />
  <rect x="0" y="224" width="32" height="32" fill="#191970" />
  <rect x="32" y="224" width="32" height="32" fill="#00008B" />
  <rect x="64" y="224" width="32" height="32" fill="#0000CD" />
  <rect x="96" y="224" width="32" height="32" fill="#4169E1" />
  <rect x="128" y="224" width="32" height="32" fill="#6495ED" />
  <rect x="160" y="224" width="32" height="32" fill="#7B68EE" />
  <rect x="192" y="224" width="32" height="32" fill="#00BFFF" />
  <rect x="224" y="224" width="32" height="32" fill="#1E90FF" />
</svg>
