<svg xmlns="http://www.w3.org/2000/svg" width="256" height="256" viewBox="0 0 256 256" shape-rendering="crispEdges" role="img" aria-labelledby="title desc">
  <title id="title">Pressure &amp; Release</title>
  <desc id="desc">This composition embodies the emotional tension between quietness and pressure. The palette combines muted tones (off-white and dust gray) to create a base of tranquility, which is pierced by sharp, contrasting colors (compressed red and dark navy). The main collision occurs in the lower-left corner where the weight of the colors suggests pressure, while the upper right offers a quiet expanse, inviting contemplation. The arrangement reflects a wave of energy crashing against calmness—a visual representation of chaos meeting serenity, with broken pixels serving as reminders of the imperfections in this dance.</desc>
  <rect width="256" height="256" fill="#FFFFFF" />
  <rect x="0" y="0" width="32" height="32" fill="#F5F5F5" />
  <rect x="32" y="0" width="32" height="32" fill="#DDDDDD" />
  <rect x="64" y="0" width="32" height="32" fill="#CCCCCC" />
  <rect x="96" y="0" width="32" height="32" fill="#CCCCCC" />
  <rect x="128" y="0" width="32" height="32" fill="#E5E5E5" />
  <rect x="160" y="0" width="32" height="32" fill="#F0F0F0" />
  <rect x="192" y="0" width="32" height="32" fill="#FFFFFF" />
  <rect x="224" y="0" width="32" height="32" fill="#FFFFFF" />
  <rect x="0" y="32" width="32" height="32" fill="#D9D9D9" />
  <rect x="32" y="32" width="32" height="32" fill="#AAAAAA" />
  <rect x="64" y="32" width="32" height="32" fill="#333333" />
  <rect x="96" y="32" width="32" height="32" fill="#EEEEEE" />
  <rect x="128" y="32" width="32" height="32" fill="#999999" />
  <rect x="160" y="32" width="32" height="32" fill="#F5F5F5" />
  <rect x="192" y="32" width="32" height="32" fill="#FFFFFF" />
  <rect x="224" y="32" width="32" height="32" fill="#F5F5F5" />
  <rect x="0" y="64" width="32" height="32" fill="#444444" />
  <rect x="32" y="64" width="32" height="32" fill="#E5E5E5" />
  <rect x="64" y="64" width="32" height="32" fill="#222222" />
  <rect x="96" y="64" width="32" height="32" fill="#E5B0B3" />
  <rect x="128" y="64" width="32" height="32" fill="#EFF4F1" />
  <rect x="160" y="64" width="32" height="32" fill="#FFFFFF" />
  <rect x="192" y="64" width="32" height="32" fill="#FFFFFF" />
  <rect x="224" y="64" width="32" height="32" fill="#F0F0F0" />
  <rect x="0" y="96" width="32" height="32" fill="#555555" />
  <rect x="32" y="96" width="32" height="32" fill="#DDDDDD" />
  <rect x="64" y="96" width="32" height="32" fill="#8B0000" />
  <rect x="96" y="96" width="32" height="32" fill="#222222" />
  <rect x="128" y="96" width="32" height="32" fill="#AAAAAA" />
  <rect x="160" y="96" width="32" height="32" fill="#F5F5F5" />
  <rect x="192" y="96" width="32" height="32" fill="#FFFFFF" />
  <rect x="224" y="96" width="32" height="32" fill="#FFFFFF" />
  <rect x="0" y="128" width="32" height="32" fill="#999999" />
  <rect x="32" y="128" width="32" height="32" fill="#FFFFFF" />
  <rect x="64" y="128" width="32" height="32" fill="#808080" />
  <rect x="96" y="128" width="32" height="32" fill="#E5E5E5" />
  <rect x="128" y="128" width="32" height="32" fill="#CC5A6C" />
  <rect x="160" y="128" width="32" height="32" fill="#444444" />
  <rect x="192" y="128" width="32" height="32" fill="#E0E0E0" />
  <rect x="224" y="128" width="32" height="32" fill="#F0F0F0" />
  <rect x="0" y="160" width="32" height="32" fill="#E0E0E0" />
  <rect x="32" y="160" width="32" height="32" fill="#CCCCCC" />
  <rect x="64" y="160" width="32" height="32" fill="#BB4C58" />
  <rect x="96" y="160" width="32" height="32" fill="#555555" />
  <rect x="128" y="160" width="32" height="32" fill="#EEEFEF" />
  <rect x="160" y="160" width="32" height="32" fill="#D9D9D9" />
  <rect x="192" y="160" width="32" height="32" fill="#F5F5F5" />
  <rect x="224" y="160" width="32" height="32" fill="#FFFFFF" />
  <rect x="0" y="192" width="32" height="32" fill="#AAAAAA" />
  <rect x="32" y="192" width="32" height="32" fill="#222222" />
  <rect x="64" y="192" width="32" height="32" fill="#D9003F" />
  <rect x="96" y="192" width="32" height="32" fill="#333333" />
  <rect x="128" y="192" width="32" height="32" fill="#B5B5B5" />
  <rect x="160" y="192" width="32" height="32" fill="#000000" />
  <rect x="192" y="192" width="32" height="32" fill="#EFEFEF" />
  <rect x="224" y="192" width="32" height="32" fill="#FFFFFF" />
  <rect x="0" y="224" width="32" height="32" fill="#F5F5F5" />
  <rect x="32" y="224" width="32" height="32" fill="#DDDDDD" />
  <rect x="64" y="224" width="32" height="32" fill="#CCCCCC" />
  <rect x="96" y="224" width="32" height="32" fill="#F5F5F5" />
  <rect x="128" y="224" width="32" height="32" fill="#EEEEEE" />
  <rect x="160" y="224" width="32" height="32" fill="#CCCCCC" />
  <rect x="192" y="224" width="32" height="32" fill="#F5F5F5" />
  <rect x="224" y="224" width="32" height="32" fill="#FFFFFF" />
</svg>
