<svg xmlns="http://www.w3.org/2000/svg" width="256" height="256" viewBox="0 0 256 256" shape-rendering="crispEdges" role="img" aria-labelledby="title desc">
  <title id="title">Fractured Echoes</title>
  <desc id="desc">The emotional tone of this piece contrasts between the isolation of loneliness represented by darker, muted colors at the top and the warmth of connection shown through vibrant accents at the bottom. The palette, using deep blacks and pale blues with hints of white and red, highlights the tension of feeling both hidden and exposed. The burst of brighter colors at the lower half illustrates moments of connection bursting forth from surrounding shadows, with a zigzag flow suggesting interconnectedness amidst fragmentation. The layout employs a split horizontal design, where the loneliness pattern features dense, maze-like complexity while the connection section provides spacious framing, leaving ample negative space to evoke breath and relief.</desc>
  <rect width="256" height="256" fill="#FFFFFF" />
  <rect x="0" y="0" width="32" height="32" fill="#0A0A0A" />
  <rect x="32" y="0" width="32" height="32" fill="#1C1C2D" />
  <rect x="64" y="0" width="32" height="32" fill="#2E2E58" />
  <rect x="96" y="0" width="32" height="32" fill="#444C7D" />
  <rect x="128" y="0" width="32" height="32" fill="#5A6F8D" />
  <rect x="160" y="0" width="32" height="32" fill="#3D5F77" />
  <rect x="192" y="0" width="32" height="32" fill="#A0A0B9" />
  <rect x="224" y="0" width="32" height="32" fill="#D9D9E7" />
  <rect x="0" y="32" width="32" height="32" fill="#1F1F1F" />
  <rect x="32" y="32" width="32" height="32" fill="#292934" />
  <rect x="64" y="32" width="32" height="32" fill="#353545" />
  <rect x="96" y="32" width="32" height="32" fill="#757B91" />
  <rect x="128" y="32" width="32" height="32" fill="#A1A4C0" />
  <rect x="160" y="32" width="32" height="32" fill="#B7B7C9" />
  <rect x="192" y="32" width="32" height="32" fill="#E3E5E9" />
  <rect x="224" y="32" width="32" height="32" fill="#FFFFFF" />
  <rect x="0" y="64" width="32" height="32" fill="#000000" />
  <rect x="32" y="64" width="32" height="32" fill="#212121" />
  <rect x="64" y="64" width="32" height="32" fill="#333333" />
  <rect x="96" y="64" width="32" height="32" fill="#484848" />
  <rect x="128" y="64" width="32" height="32" fill="#4B4B4B" />
  <rect x="160" y="64" width="32" height="32" fill="#636363" />
  <rect x="192" y="64" width="32" height="32" fill="#BFBFBF" />
  <rect x="224" y="64" width="32" height="32" fill="#DADADA" />
  <rect x="0" y="96" width="32" height="32" fill="#2E1F31" />
  <rect x="32" y="96" width="32" height="32" fill="#492239" />
  <rect x="64" y="96" width="32" height="32" fill="#741F33" />
  <rect x="96" y="96" width="32" height="32" fill="#910F1C" />
  <rect x="128" y="96" width="32" height="32" fill="#AA382C" />
  <rect x="160" y="96" width="32" height="32" fill="#EFA194" />
  <rect x="192" y="96" width="32" height="32" fill="#F1B2A8" />
  <rect x="224" y="96" width="32" height="32" fill="#F9E9E5" />
  <rect x="0" y="128" width="32" height="32" fill="#000000" />
  <rect x="32" y="128" width="32" height="32" fill="#2A2A30" />
  <rect x="64" y="128" width="32" height="32" fill="#4D4D52" />
  <rect x="96" y="128" width="32" height="32" fill="#A0A0B2" />
  <rect x="128" y="128" width="32" height="32" fill="#C4C1C1" />
  <rect x="160" y="128" width="32" height="32" fill="#DADADA" />
  <rect x="192" y="128" width="32" height="32" fill="#EDEDED" />
  <rect x="224" y="128" width="32" height="32" fill="#FFFFFF" />
  <rect x="0" y="160" width="32" height="32" fill="#1A1A1A" />
  <rect x="32" y="160" width="32" height="32" fill="#373737" />
  <rect x="64" y="160" width="32" height="32" fill="#474747" />
  <rect x="96" y="160" width="32" height="32" fill="#505050" />
  <rect x="128" y="160" width="32" height="32" fill="#909090" />
  <rect x="160" y="160" width="32" height="32" fill="#D7D7D7" />
  <rect x="192" y="160" width="32" height="32" fill="#EBEBEB" />
  <rect x="224" y="160" width="32" height="32" fill="#FFFFFF" />
  <rect x="0" y="192" width="32" height="32" fill="#0E0E0E" />
  <rect x="32" y="192" width="32" height="32" fill="#121212" />
  <rect x="64" y="192" width="32" height="32" fill="#1E1E1E" />
  <rect x="96" y="192" width="32" height="32" fill="#3D3D3D" />
  <rect x="128" y="192" width="32" height="32" fill="#8C8C8C" />
  <rect x="160" y="192" width="32" height="32" fill="#BEC2C2" />
  <rect x="192" y="192" width="32" height="32" fill="#DEDEDE" />
  <rect x="224" y="192" width="32" height="32" fill="#FFFFFF" />
  <rect x="0" y="224" width="32" height="32" fill="#000000" />
  <rect x="32" y="224" width="32" height="32" fill="#3C353D" />
  <rect x="64" y="224" width="32" height="32" fill="#765261" />
  <rect x="96" y="224" width="32" height="32" fill="#EB6A67" />
  <rect x="128" y="224" width="32" height="32" fill="#F4938A" />
  <rect x="160" y="224" width="32" height="32" fill="#F6C2BA" />
  <rect x="192" y="224" width="32" height="32" fill="#F5E6E4" />
  <rect x="224" y="224" width="32" height="32" fill="#FFFFFF" />
</svg>
