<svg xmlns="http://www.w3.org/2000/svg" width="256" height="256" viewBox="0 0 256 256" shape-rendering="crispEdges" role="img" aria-labelledby="title desc">
  <title id="title">Erosion of Boundaries</title>
  <desc id="desc">The emotional tone reflects the tension between defiance and submission. The chosen palette of 'melancholy_wonder' uses soft, cool colors to convey a sense of quiet yet oppressive atmosphere. The arrangement creates a collision at the center where the tension is most palpable, marked by warm hues breaking through softer tones. Eroded symmetry gives a sense of decay and disarray, aligning with the theme of conflict and unresolved boundaries.</desc>
  <rect width="256" height="256" fill="#FFFFFF" />
  <rect x="0" y="0" width="32" height="32" fill="#D6D9E1" />
  <rect x="32" y="0" width="32" height="32" fill="#A8A4BC" />
  <rect x="64" y="0" width="32" height="32" fill="#9FA1D8" />
  <rect x="96" y="0" width="32" height="32" fill="#4C5664" />
  <rect x="128" y="0" width="32" height="32" fill="#D0CFE3" />
  <rect x="160" y="0" width="32" height="32" fill="#C3D1DE" />
  <rect x="192" y="0" width="32" height="32" fill="#B7BEC5" />
  <rect x="224" y="0" width="32" height="32" fill="#E4E8E7" />
  <rect x="0" y="32" width="32" height="32" fill="#A0A3C4" />
  <rect x="32" y="32" width="32" height="32" fill="#5E657B" />
  <rect x="64" y="32" width="32" height="32" fill="#3E4E5D" />
  <rect x="96" y="32" width="32" height="32" fill="#868C91" />
  <rect x="128" y="32" width="32" height="32" fill="#F3F8FB" />
  <rect x="160" y="32" width="32" height="32" fill="#B6C9D7" />
  <rect x="192" y="32" width="32" height="32" fill="#B5C2D9" />
  <rect x="224" y="32" width="32" height="32" fill="#D0E1E3" />
  <rect x="0" y="64" width="32" height="32" fill="#D8D1C9" />
  <rect x="32" y="64" width="32" height="32" fill="#E0E9F0" />
  <rect x="64" y="64" width="32" height="32" fill="#BEC9D9" />
  <rect x="96" y="64" width="32" height="32" fill="#CED9E8" />
  <rect x="128" y="64" width="32" height="32" fill="#9FA2B7" />
  <rect x="160" y="64" width="32" height="32" fill="#BACED3" />
  <rect x="192" y="64" width="32" height="32" fill="#C3D3E0" />
  <rect x="224" y="64" width="32" height="32" fill="#C7D9E6" />
  <rect x="0" y="96" width="32" height="32" fill="#8A98AE" />
  <rect x="32" y="96" width="32" height="32" fill="#463A58" />
  <rect x="64" y="96" width="32" height="32" fill="#697181" />
  <rect x="96" y="96" width="32" height="32" fill="#A5B2B7" />
  <rect x="128" y="96" width="32" height="32" fill="#C8D3DB" />
  <rect x="160" y="96" width="32" height="32" fill="#E7E8EA" />
  <rect x="192" y="96" width="32" height="32" fill="#F4F8F9" />
  <rect x="224" y="96" width="32" height="32" fill="#C5D7DC" />
  <rect x="0" y="128" width="32" height="32" fill="#5E6487" />
  <rect x="32" y="128" width="32" height="32" fill="#454C56" />
  <rect x="64" y="128" width="32" height="32" fill="#3E3F4D" />
  <rect x="96" y="128" width="32" height="32" fill="#D7DBE1" />
  <rect x="128" y="128" width="32" height="32" fill="#E0D4D6" />
  <rect x="160" y="128" width="32" height="32" fill="#D7C3B0" />
  <rect x="192" y="128" width="32" height="32" fill="#B5A1A6" />
  <rect x="224" y="128" width="32" height="32" fill="#A1B5BC" />
  <rect x="0" y="160" width="32" height="32" fill="#A7C6DA" />
  <rect x="32" y="160" width="32" height="32" fill="#B6C0C2" />
  <rect x="64" y="160" width="32" height="32" fill="#A9B8CE" />
  <rect x="96" y="160" width="32" height="32" fill="#B4C0C6" />
  <rect x="128" y="160" width="32" height="32" fill="#D7E0E6" />
  <rect x="160" y="160" width="32" height="32" fill="#E6E8EA" />
  <rect x="192" y="160" width="32" height="32" fill="#F0F2F3" />
  <rect x="224" y="160" width="32" height="32" fill="#BAC3CB" />
  <rect x="0" y="192" width="32" height="32" fill="#E2E4E6" />
  <rect x="32" y="192" width="32" height="32" fill="#C0C8D2" />
  <rect x="64" y="192" width="32" height="32" fill="#D0DBDE" />
  <rect x="96" y="192" width="32" height="32" fill="#C6C9D4" />
  <rect x="128" y="192" width="32" height="32" fill="#D8DDE0" />
  <rect x="160" y="192" width="32" height="32" fill="#B6C2C4" />
  <rect x="192" y="192" width="32" height="32" fill="#A4B2B7" />
  <rect x="224" y="192" width="32" height="32" fill="#778A8E" />
  <rect x="0" y="224" width="32" height="32" fill="#4A4F54" />
  <rect x="32" y="224" width="32" height="32" fill="#6C8D9F" />
  <rect x="64" y="224" width="32" height="32" fill="#839DAE" />
  <rect x="96" y="224" width="32" height="32" fill="#D1E1E4" />
  <rect x="128" y="224" width="32" height="32" fill="#D7E0E3" />
  <rect x="160" y="224" width="32" height="32" fill="#CED4D8" />
  <rect x="192" y="224" width="32" height="32" fill="#B4BEC3" />
  <rect x="224" y="224" width="32" height="32" fill="#A7B0B6" />
</svg>
