<svg xmlns="http://www.w3.org/2000/svg" width="256" height="256" viewBox="0 0 256 256" shape-rendering="crispEdges" role="img" aria-labelledby="title desc">
  <title id="title">Fractured Harmony</title>
  <desc id="desc">This artwork embodies the emotional duality of love and betrayal, utilizing contrasting colors to represent affection's warmth against betrayal's coldness. The palette of pink and red evokes love’s warmth, while dark maroon and gray symbolize the cold starkness of betrayal. The collisions occur at the edges, where vibrant colors clash against muted shades, creating a visual tension that suggests the complexity of human emotions. The layout centers on a fragmented core, surrounded by irregular placements to highlight chaos and disorder, reflecting the heart's fracture amidst its desire for connection.</desc>
  <rect width="256" height="256" fill="#FFFFFF" />
  <rect x="0" y="0" width="32" height="32" fill="#F28E8E" />
  <rect x="32" y="0" width="32" height="32" fill="#D59A9A" />
  <rect x="64" y="0" width="32" height="32" fill="#884444" />
  <rect x="96" y="0" width="32" height="32" fill="#666666" />
  <rect x="128" y="0" width="32" height="32" fill="#B8C2C2" />
  <rect x="160" y="0" width="32" height="32" fill="#444444" />
  <rect x="192" y="0" width="32" height="32" fill="#BB6666" />
  <rect x="224" y="0" width="32" height="32" fill="#DD8585" />
  <rect x="0" y="32" width="32" height="32" fill="#A26363" />
  <rect x="32" y="32" width="32" height="32" fill="#F2B6B6" />
  <rect x="64" y="32" width="32" height="32" fill="#C7A4A4" />
  <rect x="96" y="32" width="32" height="32" fill="#7F7F7F" />
  <rect x="128" y="32" width="32" height="32" fill="#9C7979" />
  <rect x="160" y="32" width="32" height="32" fill="#333333" />
  <rect x="192" y="32" width="32" height="32" fill="#C8C8C8" />
  <rect x="224" y="32" width="32" height="32" fill="#B7F1F1" />
  <rect x="0" y="64" width="32" height="32" fill="#7F3838" />
  <rect x="32" y="64" width="32" height="32" fill="#D18E91" />
  <rect x="64" y="64" width="32" height="32" fill="#FFB0B0" />
  <rect x="96" y="64" width="32" height="32" fill="#A2CBCB" />
  <rect x="128" y="64" width="32" height="32" fill="#5B2525" />
  <rect x="160" y="64" width="32" height="32" fill="#BDBDBD" />
  <rect x="192" y="64" width="32" height="32" fill="#771C1C" />
  <rect x="224" y="64" width="32" height="32" fill="#6B4646" />
  <rect x="0" y="96" width="32" height="32" fill="#892424" />
  <rect x="32" y="96" width="32" height="32" fill="#E5A6A6" />
  <rect x="64" y="96" width="32" height="32" fill="#8A7777" />
  <rect x="96" y="96" width="32" height="32" fill="#524C4C" />
  <rect x="128" y="96" width="32" height="32" fill="#8D6F6F" />
  <rect x="160" y="96" width="32" height="32" fill="#3E3E3E" />
  <rect x="192" y="96" width="32" height="32" fill="#C8B7B7" />
  <rect x="224" y="96" width="32" height="32" fill="#82B8B8" />
  <rect x="0" y="128" width="32" height="32" fill="#7F1C1C" />
  <rect x="32" y="128" width="32" height="32" fill="#C1B5B5" />
  <rect x="64" y="128" width="32" height="32" fill="#4F3B3B" />
  <rect x="96" y="128" width="32" height="32" fill="#8B8B8B" />
  <rect x="128" y="128" width="32" height="32" fill="#B4A1A1" />
  <rect x="160" y="128" width="32" height="32" fill="#6B3535" />
  <rect x="192" y="128" width="32" height="32" fill="#B3B8B8" />
  <rect x="224" y="128" width="32" height="32" fill="#EEB3B3" />
  <rect x="0" y="160" width="32" height="32" fill="#556565" />
  <rect x="32" y="160" width="32" height="32" fill="#B18C8C" />
  <rect x="64" y="160" width="32" height="32" fill="#9C8585" />
  <rect x="96" y="160" width="32" height="32" fill="#B7A7A7" />
  <rect x="128" y="160" width="32" height="32" fill="#DEADAD" />
  <rect x="160" y="160" width="32" height="32" fill="#737777" />
  <rect x="192" y="160" width="32" height="32" fill="#CDCDCD" />
  <rect x="224" y="160" width="32" height="32" fill="#2E2E2E" />
  <rect x="0" y="192" width="32" height="32" fill="#912021" />
  <rect x="32" y="192" width="32" height="32" fill="#E3B7B7" />
  <rect x="64" y="192" width="32" height="32" fill="#D29999" />
  <rect x="96" y="192" width="32" height="32" fill="#B1B3B3" />
  <rect x="128" y="192" width="32" height="32" fill="#A5C8C8" />
  <rect x="160" y="192" width="32" height="32" fill="#A2A2A2" />
  <rect x="192" y="192" width="32" height="32" fill="#C4DCDC" />
  <rect x="224" y="192" width="32" height="32" fill="#444343" />
  <rect x="0" y="224" width="32" height="32" fill="#4C2020" />
  <rect x="32" y="224" width="32" height="32" fill="#F2C8C8" />
  <rect x="64" y="224" width="32" height="32" fill="#7D7D7D" />
  <rect x="96" y="224" width="32" height="32" fill="#8D5252" />
  <rect x="128" y="224" width="32" height="32" fill="#8E7C7C" />
  <rect x="160" y="224" width="32" height="32" fill="#8A6262" />
  <rect x="192" y="224" width="32" height="32" fill="#A4A4A4" />
  <rect x="224" y="224" width="32" height="32" fill="#C2A3A3" />
</svg>
