<svg xmlns="http://www.w3.org/2000/svg" width="256" height="256" viewBox="0 0 256 256" shape-rendering="crispEdges" role="img" aria-labelledby="title desc">
  <title id="title">Echoes of Pulse</title>
  <desc id="desc">This composition reflects emotional tension between clarity ('signal') and disruption ('noise'), where bright green and electric blue pulses strive for dominance over static gray and dead black tones. The layout showcases a spiral pressure flow, suggesting tension coiling toward a central point. The arrangement emphasizes asymmetry, with smaller patches of hot magenta interrupting the dominant colors, creating a collision that evokes the theme of a readable rhythm amidst static interference. The broken pixels scatter the rhythm, embodying the ideas of fragmentation and imperfection, which ties back to the seed's narrative of contrasting elements.</desc>
  <rect width="256" height="256" fill="#FFFFFF" />
  <rect x="0" y="0" width="32" height="32" fill="#000000" />
  <rect x="32" y="0" width="32" height="32" fill="#000000" />
  <rect x="64" y="0" width="32" height="32" fill="#00FF00" />
  <rect x="96" y="0" width="32" height="32" fill="#00FF00" />
  <rect x="128" y="0" width="32" height="32" fill="#000000" />
  <rect x="160" y="0" width="32" height="32" fill="#000000" />
  <rect x="192" y="0" width="32" height="32" fill="#000000" />
  <rect x="224" y="0" width="32" height="32" fill="#000000" />
  <rect x="0" y="32" width="32" height="32" fill="#000000" />
  <rect x="32" y="32" width="32" height="32" fill="#000000" />
  <rect x="64" y="32" width="32" height="32" fill="#00FF00" />
  <rect x="96" y="32" width="32" height="32" fill="#00FF00" />
  <rect x="128" y="32" width="32" height="32" fill="#000000" />
  <rect x="160" y="32" width="32" height="32" fill="#000000" />
  <rect x="192" y="32" width="32" height="32" fill="#000000" />
  <rect x="224" y="32" width="32" height="32" fill="#000000" />
  <rect x="0" y="64" width="32" height="32" fill="#000000" />
  <rect x="32" y="64" width="32" height="32" fill="#000000" />
  <rect x="64" y="64" width="32" height="32" fill="#00FF00" />
  <rect x="96" y="64" width="32" height="32" fill="#0000FF" />
  <rect x="128" y="64" width="32" height="32" fill="#00FF00" />
  <rect x="160" y="64" width="32" height="32" fill="#000000" />
  <rect x="192" y="64" width="32" height="32" fill="#000000" />
  <rect x="224" y="64" width="32" height="32" fill="#000000" />
  <rect x="0" y="96" width="32" height="32" fill="#000000" />
  <rect x="32" y="96" width="32" height="32" fill="#000000" />
  <rect x="64" y="96" width="32" height="32" fill="#00FF00" />
  <rect x="96" y="96" width="32" height="32" fill="#00FF00" />
  <rect x="128" y="96" width="32" height="32" fill="#00FF00" />
  <rect x="160" y="96" width="32" height="32" fill="#000000" />
  <rect x="192" y="96" width="32" height="32" fill="#000000" />
  <rect x="224" y="96" width="32" height="32" fill="#000000" />
  <rect x="0" y="128" width="32" height="32" fill="#000000" />
  <rect x="32" y="128" width="32" height="32" fill="#00FF00" />
  <rect x="64" y="128" width="32" height="32" fill="#0000FF" />
  <rect x="96" y="128" width="32" height="32" fill="#808080" />
  <rect x="128" y="128" width="32" height="32" fill="#00FF00" />
  <rect x="160" y="128" width="32" height="32" fill="#000000" />
  <rect x="192" y="128" width="32" height="32" fill="#000000" />
  <rect x="224" y="128" width="32" height="32" fill="#000000" />
  <rect x="0" y="160" width="32" height="32" fill="#000000" />
  <rect x="32" y="160" width="32" height="32" fill="#00FF00" />
  <rect x="64" y="160" width="32" height="32" fill="#0000FF" />
  <rect x="96" y="160" width="32" height="32" fill="#00FF00" />
  <rect x="128" y="160" width="32" height="32" fill="#00FF00" />
  <rect x="160" y="160" width="32" height="32" fill="#FF00FF" />
  <rect x="192" y="160" width="32" height="32" fill="#000000" />
  <rect x="224" y="160" width="32" height="32" fill="#000000" />
  <rect x="0" y="192" width="32" height="32" fill="#000000" />
  <rect x="32" y="192" width="32" height="32" fill="#0000FF" />
  <rect x="64" y="192" width="32" height="32" fill="#0000FF" />
  <rect x="96" y="192" width="32" height="32" fill="#00FF00" />
  <rect x="128" y="192" width="32" height="32" fill="#00FF00" />
  <rect x="160" y="192" width="32" height="32" fill="#000000" />
  <rect x="192" y="192" width="32" height="32" fill="#000000" />
  <rect x="224" y="192" width="32" height="32" fill="#000000" />
  <rect x="0" y="224" width="32" height="32" fill="#000000" />
  <rect x="32" y="224" width="32" height="32" fill="#000000" />
  <rect x="64" y="224" width="32" height="32" fill="#000000" />
  <rect x="96" y="224" width="32" height="32" fill="#00FF00" />
  <rect x="128" y="224" width="32" height="32" fill="#000000" />
  <rect x="160" y="224" width="32" height="32" fill="#000000" />
  <rect x="192" y="224" width="32" height="32" fill="#000000" />
  <rect x="224" y="224" width="32" height="32" fill="#000000" />
</svg>
