<svg xmlns="http://www.w3.org/2000/svg" width="256" height="256" viewBox="0 0 256 256" shape-rendering="crispEdges" role="img" aria-labelledby="title desc">
  <title id="title">Echoes of Resolve</title>
  <desc id="desc">This artwork embodies the emotional tension between longing and resolve through contrasting patterns and colors. The palette of deep reds, muted creams, and grays reflects a struggle of warmth vs. cool restraint, symbolizing a search for clarity. The frequent interruptions of pattern in the lower left corner create a sense of overflowing emotion, while the top right remains quiet and restrained. The central collision carries the weight of both emotions, encapsulating the pulse of desire amidst a broken frame.</desc>
  <rect width="256" height="256" fill="#FFFFFF" />
  <rect x="0" y="0" width="32" height="32" fill="#AC4E4D" />
  <rect x="32" y="0" width="32" height="32" fill="#FBEBDE" />
  <rect x="64" y="0" width="32" height="32" fill="#7E7B7A" />
  <rect x="96" y="0" width="32" height="32" fill="#1C1C1B" />
  <rect x="128" y="0" width="32" height="32" fill="#7E7B7A" />
  <rect x="160" y="0" width="32" height="32" fill="#FBEBDE" />
  <rect x="192" y="0" width="32" height="32" fill="#AC4E4D" />
  <rect x="224" y="0" width="32" height="32" fill="#FFFFFF" />
  <rect x="0" y="32" width="32" height="32" fill="#FBEBDE" />
  <rect x="32" y="32" width="32" height="32" fill="#5E6B7D" />
  <rect x="64" y="32" width="32" height="32" fill="#D9D2C3" />
  <rect x="96" y="32" width="32" height="32" fill="#8B4B4A" />
  <rect x="128" y="32" width="32" height="32" fill="#D9D2C3" />
  <rect x="160" y="32" width="32" height="32" fill="#5E6B7D" />
  <rect x="192" y="32" width="32" height="32" fill="#FBEBDE" />
  <rect x="224" y="32" width="32" height="32" fill="#AC4E4D" />
  <rect x="0" y="64" width="32" height="32" fill="#1C1C1B" />
  <rect x="32" y="64" width="32" height="32" fill="#8B4B4A" />
  <rect x="64" y="64" width="32" height="32" fill="#FBEBDE" />
  <rect x="96" y="64" width="32" height="32" fill="#D9D2C3" />
  <rect x="128" y="64" width="32" height="32" fill="#FBEBDE" />
  <rect x="160" y="64" width="32" height="32" fill="#8C7077" />
  <rect x="192" y="64" width="32" height="32" fill="#1C1C1B" />
  <rect x="224" y="64" width="32" height="32" fill="#5E6B7D" />
  <rect x="0" y="96" width="32" height="32" fill="#5E6B7D" />
  <rect x="32" y="96" width="32" height="32" fill="#FFFFFF" />
  <rect x="64" y="96" width="32" height="32" fill="#7E7B7A" />
  <rect x="96" y="96" width="32" height="32" fill="#FBEBDE" />
  <rect x="128" y="96" width="32" height="32" fill="#E2C6BC" />
  <rect x="160" y="96" width="32" height="32" fill="#5E6B7D" />
  <rect x="192" y="96" width="32" height="32" fill="#1C1C1B" />
  <rect x="224" y="96" width="32" height="32" fill="#D9D2C3" />
  <rect x="0" y="128" width="32" height="32" fill="#FBEBDE" />
  <rect x="32" y="128" width="32" height="32" fill="#8B4B4A" />
  <rect x="64" y="128" width="32" height="32" fill="#1C1C1B" />
  <rect x="96" y="128" width="32" height="32" fill="#AC4E4D" />
  <rect x="128" y="128" width="32" height="32" fill="#1C1C1B" />
  <rect x="160" y="128" width="32" height="32" fill="#FBEBDE" />
  <rect x="192" y="128" width="32" height="32" fill="#8C7077" />
  <rect x="224" y="128" width="32" height="32" fill="#D9D2C3" />
  <rect x="0" y="160" width="32" height="32" fill="#7E7B7A" />
  <rect x="32" y="160" width="32" height="32" fill="#5E6B7D" />
  <rect x="64" y="160" width="32" height="32" fill="#D9D2C3" />
  <rect x="96" y="160" width="32" height="32" fill="#1C1C1B" />
  <rect x="128" y="160" width="32" height="32" fill="#FBEBDE" />
  <rect x="160" y="160" width="32" height="32" fill="#1C1C1B" />
  <rect x="192" y="160" width="32" height="32" fill="#8B4B4A" />
  <rect x="224" y="160" width="32" height="32" fill="#FBEBDE" />
  <rect x="0" y="192" width="32" height="32" fill="#8B4B4A" />
  <rect x="32" y="192" width="32" height="32" fill="#FBEBDE" />
  <rect x="64" y="192" width="32" height="32" fill="#7E7B7A" />
  <rect x="96" y="192" width="32" height="32" fill="#5E6B7D" />
  <rect x="128" y="192" width="32" height="32" fill="#FBEBDE" />
  <rect x="160" y="192" width="32" height="32" fill="#E2C6BC" />
  <rect x="192" y="192" width="32" height="32" fill="#8C7077" />
  <rect x="224" y="192" width="32" height="32" fill="#1C1C1B" />
  <rect x="0" y="224" width="32" height="32" fill="#D9D2C3" />
  <rect x="32" y="224" width="32" height="32" fill="#7E7B7A" />
  <rect x="64" y="224" width="32" height="32" fill="#1C1C1B" />
  <rect x="96" y="224" width="32" height="32" fill="#1C1C1B" />
  <rect x="128" y="224" width="32" height="32" fill="#8B4B4A" />
  <rect x="160" y="224" width="32" height="32" fill="#FBEBDE" />
  <rect x="192" y="224" width="32" height="32" fill="#8C7077" />
  <rect x="224" y="224" width="32" height="32" fill="#FFFFFF" />
</svg>
