<svg xmlns="http://www.w3.org/2000/svg" width="256" height="256" viewBox="0 0 256 256" shape-rendering="crispEdges" role="img" aria-labelledby="title desc">
  <title id="title">Conflict of Light and Shadow</title>
  <desc id="desc">This composition embodies the emotional duality of spark versus ash, capturing the tension between bright exuberance and muted decay. The palette, dominated by vibrant reds and soothing grays, creates a strong contrast that speaks to exhilaration and melancholy. The diagonal layout emphasizes the struggle, as the 'spark' colors in jagged patterns compete against the smooth, somber 'ash' stripes. This dynamic interplay resonates with the themes of resilience amid fragility, where the dominance of warm tones suggests vitality but is interrupted by cooler shades that remind us of loss. The arrangement thrives on collision, with broken pixel elements adding intentional imperfections that echo life’s unpredictability. A 15% negative space allows for breath, enhancing the emotional resonance of both light and dark elements. Overall, this configuration transforms the seed's essence into a compelling, abstract emotional narrative.</desc>
  <rect width="256" height="256" fill="#FFFFFF" />
  <rect x="0" y="0" width="32" height="32" fill="#FF5733" />
  <rect x="32" y="0" width="32" height="32" fill="#FFC300" />
  <rect x="64" y="0" width="32" height="32" fill="#C70039" />
  <rect x="96" y="0" width="32" height="32" fill="#900C3F" />
  <rect x="128" y="0" width="32" height="32" fill="#581845" />
  <rect x="160" y="0" width="32" height="32" fill="#BFBFBF" />
  <rect x="192" y="0" width="32" height="32" fill="#8C8C8C" />
  <rect x="224" y="0" width="32" height="32" fill="#3F3F3F" />
  <rect x="0" y="32" width="32" height="32" fill="#D9D9D9" />
  <rect x="32" y="32" width="32" height="32" fill="#F2F2F2" />
  <rect x="64" y="32" width="32" height="32" fill="#EAEAEA" />
  <rect x="96" y="32" width="32" height="32" fill="#BEC6D8" />
  <rect x="128" y="32" width="32" height="32" fill="#9D9D9D" />
  <rect x="160" y="32" width="32" height="32" fill="#606060" />
  <rect x="192" y="32" width="32" height="32" fill="#444444" />
  <rect x="224" y="32" width="32" height="32" fill="#292929" />
  <rect x="0" y="64" width="32" height="32" fill="#FFCC99" />
  <rect x="32" y="64" width="32" height="32" fill="#FF6699" />
  <rect x="64" y="64" width="32" height="32" fill="#CC0033" />
  <rect x="96" y="64" width="32" height="32" fill="#660033" />
  <rect x="128" y="64" width="32" height="32" fill="#330033" />
  <rect x="160" y="64" width="32" height="32" fill="#991F47" />
  <rect x="192" y="64" width="32" height="32" fill="#FFBB99" />
  <rect x="224" y="64" width="32" height="32" fill="#FFFFFF" />
  <rect x="0" y="96" width="32" height="32" fill="#FFD700" />
  <rect x="32" y="96" width="32" height="32" fill="#EEC900" />
  <rect x="64" y="96" width="32" height="32" fill="#CC9900" />
  <rect x="96" y="96" width="32" height="32" fill="#AA9900" />
  <rect x="128" y="96" width="32" height="32" fill="#888888" />
  <rect x="160" y="96" width="32" height="32" fill="#777777" />
  <rect x="192" y="96" width="32" height="32" fill="#666666" />
  <rect x="224" y="96" width="32" height="32" fill="#555555" />
  <rect x="0" y="128" width="32" height="32" fill="#FF4444" />
  <rect x="32" y="128" width="32" height="32" fill="#FF6600" />
  <rect x="64" y="128" width="32" height="32" fill="#FF0000" />
  <rect x="96" y="128" width="32" height="32" fill="#FFFF00" />
  <rect x="128" y="128" width="32" height="32" fill="#FFFFFF" />
  <rect x="160" y="128" width="32" height="32" fill="#DADADA" />
  <rect x="192" y="128" width="32" height="32" fill="#CFCFCF" />
  <rect x="224" y="128" width="32" height="32" fill="#B0B0B0" />
  <rect x="0" y="160" width="32" height="32" fill="#FF99CC" />
  <rect x="32" y="160" width="32" height="32" fill="#FF3399" />
  <rect x="64" y="160" width="32" height="32" fill="#FF0099" />
  <rect x="96" y="160" width="32" height="32" fill="#FF0066" />
  <rect x="128" y="160" width="32" height="32" fill="#FF6633" />
  <rect x="160" y="160" width="32" height="32" fill="#CC6633" />
  <rect x="192" y="160" width="32" height="32" fill="#9999FF" />
  <rect x="224" y="160" width="32" height="32" fill="#333333" />
  <rect x="0" y="192" width="32" height="32" fill="#F2A900" />
  <rect x="32" y="192" width="32" height="32" fill="#F29D00" />
  <rect x="64" y="192" width="32" height="32" fill="#F27900" />
  <rect x="96" y="192" width="32" height="32" fill="#F24D00" />
  <rect x="128" y="192" width="32" height="32" fill="#AEAEAE" />
  <rect x="160" y="192" width="32" height="32" fill="#9A9A9A" />
  <rect x="192" y="192" width="32" height="32" fill="#6B6B6B" />
  <rect x="224" y="192" width="32" height="32" fill="#3B3B3B" />
  <rect x="0" y="224" width="32" height="32" fill="#FF4C00" />
  <rect x="32" y="224" width="32" height="32" fill="#D35500" />
  <rect x="64" y="224" width="32" height="32" fill="#C06300" />
  <rect x="96" y="224" width="32" height="32" fill="#A07500" />
  <rect x="128" y="224" width="32" height="32" fill="#636363" />
  <rect x="160" y="224" width="32" height="32" fill="#4D4D4D" />
  <rect x="192" y="224" width="32" height="32" fill="#2D2D2D" />
  <rect x="224" y="224" width="32" height="32" fill="#000000" />
</svg>
