<svg xmlns="http://www.w3.org/2000/svg" width="256" height="256" viewBox="0 0 256 256" shape-rendering="crispEdges" role="img" aria-labelledby="title desc">
  <title id="title">Hunger and Restraint</title>
  <desc id="desc">The emotional tone highlights the tension between emptiness and desire. Color choices reflect this duality, with warm vibrant tones representing desire in contrast to cool muted hues symbolizing emptiness. The hot coral and blood orange create a saturated pull, while charcoal and hollow blue depict containment and quietude. The collision occurs at the center where brighter colors overlap disrupted patterns, illustrating the struggle between longing and limitations. This abstract arrangement conveys a story of desire reaching for liberation against a backdrop of restraint.</desc>
  <rect width="256" height="256" fill="#FFFFFF" />
  <rect x="0" y="0" width="32" height="32" fill="#FF4F00" />
  <rect x="32" y="0" width="32" height="32" fill="#FF7F00" />
  <rect x="64" y="0" width="32" height="32" fill="#FF9F00" />
  <rect x="96" y="0" width="32" height="32" fill="#FFC700" />
  <rect x="128" y="0" width="32" height="32" fill="#C0C0C0" />
  <rect x="160" y="0" width="32" height="32" fill="#A9A9A9" />
  <rect x="192" y="0" width="32" height="32" fill="#888888" />
  <rect x="224" y="0" width="32" height="32" fill="#444444" />
  <rect x="0" y="32" width="32" height="32" fill="#FF4F00" />
  <rect x="32" y="32" width="32" height="32" fill="#FFA500" />
  <rect x="64" y="32" width="32" height="32" fill="#FFB100" />
  <rect x="96" y="32" width="32" height="32" fill="#FFD400" />
  <rect x="128" y="32" width="32" height="32" fill="#B0B0B0" />
  <rect x="160" y="32" width="32" height="32" fill="#A9A9A9" />
  <rect x="192" y="32" width="32" height="32" fill="#777777" />
  <rect x="224" y="32" width="32" height="32" fill="#333333" />
  <rect x="0" y="64" width="32" height="32" fill="#FF3C00" />
  <rect x="32" y="64" width="32" height="32" fill="#FF9000" />
  <rect x="64" y="64" width="32" height="32" fill="#FFD700" />
  <rect x="96" y="64" width="32" height="32" fill="#E0E0E0" />
  <rect x="128" y="64" width="32" height="32" fill="#B0B0B0" />
  <rect x="160" y="64" width="32" height="32" fill="#8B8B8B" />
  <rect x="192" y="64" width="32" height="32" fill="#5A5A5A" />
  <rect x="224" y="64" width="32" height="32" fill="#222222" />
  <rect x="0" y="96" width="32" height="32" fill="#FFA500" />
  <rect x="32" y="96" width="32" height="32" fill="#FFD700" />
  <rect x="64" y="96" width="32" height="32" fill="#FFFFFF" />
  <rect x="96" y="96" width="32" height="32" fill="#E0E0E0" />
  <rect x="128" y="96" width="32" height="32" fill="#C0C0C0" />
  <rect x="160" y="96" width="32" height="32" fill="#CDCDCD" />
  <rect x="192" y="96" width="32" height="32" fill="#999999" />
  <rect x="224" y="96" width="32" height="32" fill="#555555" />
  <rect x="0" y="128" width="32" height="32" fill="#FFC700" />
  <rect x="32" y="128" width="32" height="32" fill="#FFBF00" />
  <rect x="64" y="128" width="32" height="32" fill="#FFA500" />
  <rect x="96" y="128" width="32" height="32" fill="#D3D3D3" />
  <rect x="128" y="128" width="32" height="32" fill="#A0A0A0" />
  <rect x="160" y="128" width="32" height="32" fill="#7D7D7D" />
  <rect x="192" y="128" width="32" height="32" fill="#333333" />
  <rect x="224" y="128" width="32" height="32" fill="#000000" />
  <rect x="0" y="160" width="32" height="32" fill="#FF3C00" />
  <rect x="32" y="160" width="32" height="32" fill="#FF9000" />
  <rect x="64" y="160" width="32" height="32" fill="#FFD700" />
  <rect x="96" y="160" width="32" height="32" fill="#BFBFBF" />
  <rect x="128" y="160" width="32" height="32" fill="#B0B0B0" />
  <rect x="160" y="160" width="32" height="32" fill="#8A8A8A" />
  <rect x="192" y="160" width="32" height="32" fill="#636363" />
  <rect x="224" y="160" width="32" height="32" fill="#444444" />
  <rect x="0" y="192" width="32" height="32" fill="#FF5000" />
  <rect x="32" y="192" width="32" height="32" fill="#FF8000" />
  <rect x="64" y="192" width="32" height="32" fill="#FFD700" />
  <rect x="96" y="192" width="32" height="32" fill="#D3D3D3" />
  <rect x="128" y="192" width="32" height="32" fill="#919191" />
  <rect x="160" y="192" width="32" height="32" fill="#828282" />
  <rect x="192" y="192" width="32" height="32" fill="#505050" />
  <rect x="224" y="192" width="32" height="32" fill="#222222" />
  <rect x="0" y="224" width="32" height="32" fill="#FF4F00" />
  <rect x="32" y="224" width="32" height="32" fill="#FF7000" />
  <rect x="64" y="224" width="32" height="32" fill="#FFC700" />
  <rect x="96" y="224" width="32" height="32" fill="#B0B0B0" />
  <rect x="128" y="224" width="32" height="32" fill="#8B8B8B" />
  <rect x="160" y="224" width="32" height="32" fill="#737373" />
  <rect x="192" y="224" width="32" height="32" fill="#343434" />
  <rect x="224" y="224" width="32" height="32" fill="#000000" />
</svg>
