<svg xmlns="http://www.w3.org/2000/svg" width="256" height="256" viewBox="0 0 256 256" shape-rendering="crispEdges" role="img" aria-labelledby="title desc">
  <title id="title">Symphony of Tension</title>
  <desc id="desc">The emotional tone captures the interplay of grief and joy, represented by a palette that blends deep blues and muted purples, reflecting heaviness, along with bright yellows and oranges for moments of relief. The contrast emerges prominently at the center, where joy's expanding noise intersects with grief's fragmented crack pattern, suggesting collisions of feeling. The layout follows a descending flow, echoing rain or tears to evoke a sense of gradual release, allowing for an emotional journey across the pixel grid. Each row carries swirling patterns that echo movement and emotional weight, creating a tension between happy bursts of color and the shadows of deeper emotions.</desc>
  <rect width="256" height="256" fill="#FFFFFF" />
  <rect x="0" y="0" width="32" height="32" fill="#FAEA0A" />
  <rect x="32" y="0" width="32" height="32" fill="#A74C1D" />
  <rect x="64" y="0" width="32" height="32" fill="#7A2A7D" />
  <rect x="96" y="0" width="32" height="32" fill="#2F3C73" />
  <rect x="128" y="0" width="32" height="32" fill="#AD211D" />
  <rect x="160" y="0" width="32" height="32" fill="#F29D25" />
  <rect x="192" y="0" width="32" height="32" fill="#E1A6B8" />
  <rect x="224" y="0" width="32" height="32" fill="#75C4D4" />
  <rect x="0" y="32" width="32" height="32" fill="#F6CEAB" />
  <rect x="32" y="32" width="32" height="32" fill="#D22F20" />
  <rect x="64" y="32" width="32" height="32" fill="#EFB7C4" />
  <rect x="96" y="32" width="32" height="32" fill="#2E1B4D" />
  <rect x="128" y="32" width="32" height="32" fill="#C394E7" />
  <rect x="160" y="32" width="32" height="32" fill="#6D7FF7" />
  <rect x="192" y="32" width="32" height="32" fill="#F6D27B" />
  <rect x="224" y="32" width="32" height="32" fill="#E3A213" />
  <rect x="0" y="64" width="32" height="32" fill="#F7DBD6" />
  <rect x="32" y="64" width="32" height="32" fill="#1C3D65" />
  <rect x="64" y="64" width="32" height="32" fill="#BF90CD" />
  <rect x="96" y="64" width="32" height="32" fill="#AEB0B0" />
  <rect x="128" y="64" width="32" height="32" fill="#FFC3A0" />
  <rect x="160" y="64" width="32" height="32" fill="#F1A10E" />
  <rect x="192" y="64" width="32" height="32" fill="#FFCC68" />
  <rect x="224" y="64" width="32" height="32" fill="#D94366" />
  <rect x="0" y="96" width="32" height="32" fill="#D8A3D8" />
  <rect x="32" y="96" width="32" height="32" fill="#FF9DA2" />
  <rect x="64" y="96" width="32" height="32" fill="#054D7D" />
  <rect x="96" y="96" width="32" height="32" fill="#C8A8BF" />
  <rect x="128" y="96" width="32" height="32" fill="#7BAC25" />
  <rect x="160" y="96" width="32" height="32" fill="#F49F8C" />
  <rect x="192" y="96" width="32" height="32" fill="#20413B" />
  <rect x="224" y="96" width="32" height="32" fill="#5C6574" />
  <rect x="0" y="128" width="32" height="32" fill="#EDBFC1" />
  <rect x="32" y="128" width="32" height="32" fill="#A24C4C" />
  <rect x="64" y="128" width="32" height="32" fill="#7E8B68" />
  <rect x="96" y="128" width="32" height="32" fill="#F6E499" />
  <rect x="128" y="128" width="32" height="32" fill="#2B7CA0" />
  <rect x="160" y="128" width="32" height="32" fill="#AA6C87" />
  <rect x="192" y="128" width="32" height="32" fill="#9D30D5" />
  <rect x="224" y="128" width="32" height="32" fill="#DA7B41" />
  <rect x="0" y="160" width="32" height="32" fill="#6C3B6F" />
  <rect x="32" y="160" width="32" height="32" fill="#F1C76D" />
  <rect x="64" y="160" width="32" height="32" fill="#1B3F4B" />
  <rect x="96" y="160" width="32" height="32" fill="#C74D57" />
  <rect x="128" y="160" width="32" height="32" fill="#F3D9CB" />
  <rect x="160" y="160" width="32" height="32" fill="#A1253B" />
  <rect x="192" y="160" width="32" height="32" fill="#E3B5D2" />
  <rect x="224" y="160" width="32" height="32" fill="#4A8759" />
  <rect x="0" y="192" width="32" height="32" fill="#D6B7E8" />
  <rect x="32" y="192" width="32" height="32" fill="#8B5BA3" />
  <rect x="64" y="192" width="32" height="32" fill="#E4E2CA" />
  <rect x="96" y="192" width="32" height="32" fill="#651B38" />
  <rect x="128" y="192" width="32" height="32" fill="#F6E39C" />
  <rect x="160" y="192" width="32" height="32" fill="#F19B88" />
  <rect x="192" y="192" width="32" height="32" fill="#7D7B8D" />
  <rect x="224" y="192" width="32" height="32" fill="#DB98A6" />
  <rect x="0" y="224" width="32" height="32" fill="#717971" />
  <rect x="32" y="224" width="32" height="32" fill="#4A4A4A" />
  <rect x="64" y="224" width="32" height="32" fill="#C3BBA4" />
  <rect x="96" y="224" width="32" height="32" fill="#FFEF67" />
  <rect x="128" y="224" width="32" height="32" fill="#5D8BFA" />
  <rect x="160" y="224" width="32" height="32" fill="#007B89" />
  <rect x="192" y="224" width="32" height="32" fill="#E2ACB6" />
  <rect x="224" y="224" width="32" height="32" fill="#C7C6C8" />
</svg>
