<svg xmlns="http://www.w3.org/2000/svg" width="256" height="256" viewBox="0 0 256 256" shape-rendering="crispEdges" role="img" aria-labelledby="title desc">
  <title id="title">Echoes of Resolve</title>
  <desc id="desc">This composition balances the emotional tones of longing and resolve through contrasting color placements and patterns. The muted navy and black represent the depth of longing while the bright white and dim cyan create a pulsing sense of resolve. The broken pixels disrupt the uniformity, hinting at imperfections and the complexity of emotions. The layout emphasizes a rising signal, creating a visual ascent that conveys hope amidst the tension. The central collision showcases the interplay of yearning and determination, capturing the essence of the seed.</desc>
  <rect width="256" height="256" fill="#FFFFFF" />
  <rect x="0" y="0" width="32" height="32" fill="#1E1E78" />
  <rect x="32" y="0" width="32" height="32" fill="#1E7F78" />
  <rect x="64" y="0" width="32" height="32" fill="#FFF1F1" />
  <rect x="96" y="0" width="32" height="32" fill="#1E1E1E" />
  <rect x="128" y="0" width="32" height="32" fill="#00BFFF" />
  <rect x="160" y="0" width="32" height="32" fill="#FFD700" />
  <rect x="192" y="0" width="32" height="32" fill="#1E1E1E" />
  <rect x="224" y="0" width="32" height="32" fill="#1E7F78" />
  <rect x="0" y="32" width="32" height="32" fill="#1E1E78" />
  <rect x="32" y="32" width="32" height="32" fill="#FFFFFF" />
  <rect x="64" y="32" width="32" height="32" fill="#1E1E1E" />
  <rect x="96" y="32" width="32" height="32" fill="#00BFFF" />
  <rect x="128" y="32" width="32" height="32" fill="#1E1E1E" />
  <rect x="160" y="32" width="32" height="32" fill="#FFFFFF" />
  <rect x="192" y="32" width="32" height="32" fill="#1E1E78" />
  <rect x="224" y="32" width="32" height="32" fill="#1E1E1E" />
  <rect x="0" y="64" width="32" height="32" fill="#1E7F78" />
  <rect x="32" y="64" width="32" height="32" fill="#1E1E1E" />
  <rect x="64" y="64" width="32" height="32" fill="#FFFFFF" />
  <rect x="96" y="64" width="32" height="32" fill="#FFFFFF" />
  <rect x="128" y="64" width="32" height="32" fill="#1E1E78" />
  <rect x="160" y="64" width="32" height="32" fill="#00BFFF" />
  <rect x="192" y="64" width="32" height="32" fill="#1E1E1E" />
  <rect x="224" y="64" width="32" height="32" fill="#1E1E1E" />
  <rect x="0" y="96" width="32" height="32" fill="#1E1E78" />
  <rect x="32" y="96" width="32" height="32" fill="#1E1E78" />
  <rect x="64" y="96" width="32" height="32" fill="#1E1E1E" />
  <rect x="96" y="96" width="32" height="32" fill="#1E1E1E" />
  <rect x="128" y="96" width="32" height="32" fill="#000000" />
  <rect x="160" y="96" width="32" height="32" fill="#1E1E1E" />
  <rect x="192" y="96" width="32" height="32" fill="#00BFFF" />
  <rect x="224" y="96" width="32" height="32" fill="#1E7F78" />
  <rect x="0" y="128" width="32" height="32" fill="#1E7F78" />
  <rect x="32" y="128" width="32" height="32" fill="#1E1E1E" />
  <rect x="64" y="128" width="32" height="32" fill="#1E1E78" />
  <rect x="96" y="128" width="32" height="32" fill="#1E1E1E" />
  <rect x="128" y="128" width="32" height="32" fill="#1E1E1E" />
  <rect x="160" y="128" width="32" height="32" fill="#FFFFFF" />
  <rect x="192" y="128" width="32" height="32" fill="#1E1E1E" />
  <rect x="224" y="128" width="32" height="32" fill="#1E1E1E" />
  <rect x="0" y="160" width="32" height="32" fill="#1E1E78" />
  <rect x="32" y="160" width="32" height="32" fill="#1E1E1E" />
  <rect x="64" y="160" width="32" height="32" fill="#FFFFFF" />
  <rect x="96" y="160" width="32" height="32" fill="#1E1E1E" />
  <rect x="128" y="160" width="32" height="32" fill="#00BFFF" />
  <rect x="160" y="160" width="32" height="32" fill="#FFF1F1" />
  <rect x="192" y="160" width="32" height="32" fill="#1E1E1E" />
  <rect x="224" y="160" width="32" height="32" fill="#1E7F78" />
  <rect x="0" y="192" width="32" height="32" fill="#000000" />
  <rect x="32" y="192" width="32" height="32" fill="#1E1E1E" />
  <rect x="64" y="192" width="32" height="32" fill="#1E7F78" />
  <rect x="96" y="192" width="32" height="32" fill="#1E1E1E" />
  <rect x="128" y="192" width="32" height="32" fill="#1E1E78" />
  <rect x="160" y="192" width="32" height="32" fill="#1E7F78" />
  <rect x="192" y="192" width="32" height="32" fill="#1E1E1E" />
  <rect x="224" y="192" width="32" height="32" fill="#FFFFFF" />
  <rect x="0" y="224" width="32" height="32" fill="#1E1E1E" />
  <rect x="32" y="224" width="32" height="32" fill="#1E1E78" />
  <rect x="64" y="224" width="32" height="32" fill="#1E1E1E" />
  <rect x="96" y="224" width="32" height="32" fill="#1E1E1E" />
  <rect x="128" y="224" width="32" height="32" fill="#1E7F78" />
  <rect x="160" y="224" width="32" height="32" fill="#1E1E1E" />
  <rect x="192" y="224" width="32" height="32" fill="#1E1E78" />
  <rect x="224" y="224" width="32" height="32" fill="#1E7F78" />
</svg>
