<svg xmlns="http://www.w3.org/2000/svg" width="256" height="256" viewBox="0 0 256 256" shape-rendering="crispEdges" role="img" aria-labelledby="title desc">
  <title id="title">Echoes of Tension</title>
  <desc id="desc">The emotional tone combines the struggle between pride and shame, represented by the contrasting palette of dark violet and soft gold against a background of black and pale green. The dominant patterns from 'flame' and 'mirror' evoke a sense of heated urgency versus reflection, with soft edges creating a gentle yet conflicting interplay. The layout features a mirror effect with intentional breaks for imperfection, emphasizing the collision between emotions, drawing the eye to the center where the contrasting colors collide. The negative space around creates a breath of release amidst pressure, enhancing the narrative of emotional turmoil.</desc>
  <rect width="256" height="256" fill="#FFFFFF" />
  <rect x="0" y="0" width="32" height="32" fill="#000000" />
  <rect x="32" y="0" width="32" height="32" fill="#000000" />
  <rect x="64" y="0" width="32" height="32" fill="#3A0D6B" />
  <rect x="96" y="0" width="32" height="32" fill="#3A0D6B" />
  <rect x="128" y="0" width="32" height="32" fill="#000000" />
  <rect x="160" y="0" width="32" height="32" fill="#3A0D6B" />
  <rect x="192" y="0" width="32" height="32" fill="#3A0D6B" />
  <rect x="224" y="0" width="32" height="32" fill="#000000" />
  <rect x="0" y="32" width="32" height="32" fill="#000000" />
  <rect x="32" y="32" width="32" height="32" fill="#FBCC00" />
  <rect x="64" y="32" width="32" height="32" fill="#FBCC00" />
  <rect x="96" y="32" width="32" height="32" fill="#3A0D6B" />
  <rect x="128" y="32" width="32" height="32" fill="#FBCC00" />
  <rect x="160" y="32" width="32" height="32" fill="#FBCC00" />
  <rect x="192" y="32" width="32" height="32" fill="#000000" />
  <rect x="224" y="32" width="32" height="32" fill="#000000" />
  <rect x="0" y="64" width="32" height="32" fill="#3A0D6B" />
  <rect x="32" y="64" width="32" height="32" fill="#FBCC00" />
  <rect x="64" y="64" width="32" height="32" fill="#000000" />
  <rect x="96" y="64" width="32" height="32" fill="#3A0D6B" />
  <rect x="128" y="64" width="32" height="32" fill="#000000" />
  <rect x="160" y="64" width="32" height="32" fill="#FBCC00" />
  <rect x="192" y="64" width="32" height="32" fill="#3A0D6B" />
  <rect x="224" y="64" width="32" height="32" fill="#FBCC00" />
  <rect x="0" y="96" width="32" height="32" fill="#3A0D6B" />
  <rect x="32" y="96" width="32" height="32" fill="#3A0D6B" />
  <rect x="64" y="96" width="32" height="32" fill="#000000" />
  <rect x="96" y="96" width="32" height="32" fill="#3A0D6B" />
  <rect x="128" y="96" width="32" height="32" fill="#FBCC00" />
  <rect x="160" y="96" width="32" height="32" fill="#FBCC00" />
  <rect x="192" y="96" width="32" height="32" fill="#3A0D6B" />
  <rect x="224" y="96" width="32" height="32" fill="#3A0D6B" />
  <rect x="0" y="128" width="32" height="32" fill="#FBCC00" />
  <rect x="32" y="128" width="32" height="32" fill="#FBCC00" />
  <rect x="64" y="128" width="32" height="32" fill="#3A0D6B" />
  <rect x="96" y="128" width="32" height="32" fill="#FBCC00" />
  <rect x="128" y="128" width="32" height="32" fill="#3A0D6B" />
  <rect x="160" y="128" width="32" height="32" fill="#FBCC00" />
  <rect x="192" y="128" width="32" height="32" fill="#000000" />
  <rect x="224" y="128" width="32" height="32" fill="#FBCC00" />
  <rect x="0" y="160" width="32" height="32" fill="#000000" />
  <rect x="32" y="160" width="32" height="32" fill="#3A0D6B" />
  <rect x="64" y="160" width="32" height="32" fill="#FBCC00" />
  <rect x="96" y="160" width="32" height="32" fill="#000000" />
  <rect x="128" y="160" width="32" height="32" fill="#FBCC00" />
  <rect x="160" y="160" width="32" height="32" fill="#3A0D6B" />
  <rect x="192" y="160" width="32" height="32" fill="#3A0D6B" />
  <rect x="224" y="160" width="32" height="32" fill="#000000" />
  <rect x="0" y="192" width="32" height="32" fill="#3A0D6B" />
  <rect x="32" y="192" width="32" height="32" fill="#000000" />
  <rect x="64" y="192" width="32" height="32" fill="#000000" />
  <rect x="96" y="192" width="32" height="32" fill="#FBCC00" />
  <rect x="128" y="192" width="32" height="32" fill="#FBCC00" />
  <rect x="160" y="192" width="32" height="32" fill="#FBCC00" />
  <rect x="192" y="192" width="32" height="32" fill="#3A0D6B" />
  <rect x="224" y="192" width="32" height="32" fill="#FBCC00" />
  <rect x="0" y="224" width="32" height="32" fill="#FBCC00" />
  <rect x="32" y="224" width="32" height="32" fill="#3A0D6B" />
  <rect x="64" y="224" width="32" height="32" fill="#3A0D6B" />
  <rect x="96" y="224" width="32" height="32" fill="#000000" />
  <rect x="128" y="224" width="32" height="32" fill="#3A0D6B" />
  <rect x="160" y="224" width="32" height="32" fill="#3A0D6B" />
  <rect x="192" y="224" width="32" height="32" fill="#FBCC00" />
  <rect x="224" y="224" width="32" height="32" fill="#000000" />
</svg>
