<svg xmlns="http://www.w3.org/2000/svg" width="256" height="256" viewBox="0 0 256 256" shape-rendering="crispEdges" role="img" aria-labelledby="title desc">
  <title id="title">Echoes of Strength and Vulnerability</title>
  <desc id="desc">This artwork reflects the emotional tension between vulnerability and strength through a contrasting palette of muted purples and vibrant yellow accents. The central area, representing vulnerability, is exposed with lighter hues, suggesting fragility. Surrounding the center, deeper blues symbolize strength, creating a protective barrier. The edges are intentionally broken, embodying hard edges and disruption, while maintaining a wave-like flow that guides the eye from the edges inward, creating an interplay of tension and release. The balance between quiet spaces and dense clusters conveys a narrative of connection versus alienation, depicting a journey of navigating external pressures against internal shelter.</desc>
  <rect width="256" height="256" fill="#FFFFFF" />
  <rect x="0" y="0" width="32" height="32" fill="#8F7BCE" />
  <rect x="32" y="0" width="32" height="32" fill="#FFD700" />
  <rect x="64" y="0" width="32" height="32" fill="#E0B0FF" />
  <rect x="96" y="0" width="32" height="32" fill="#000000" />
  <rect x="128" y="0" width="32" height="32" fill="#1F1B30" />
  <rect x="160" y="0" width="32" height="32" fill="#3A5EAB" />
  <rect x="192" y="0" width="32" height="32" fill="#FFD700" />
  <rect x="224" y="0" width="32" height="32" fill="#A360D7" />
  <rect x="0" y="32" width="32" height="32" fill="#FFD700" />
  <rect x="32" y="32" width="32" height="32" fill="#4B0082" />
  <rect x="64" y="32" width="32" height="32" fill="#C8A2C8" />
  <rect x="96" y="32" width="32" height="32" fill="#000000" />
  <rect x="128" y="32" width="32" height="32" fill="#8F7BCE" />
  <rect x="160" y="32" width="32" height="32" fill="#FFD700" />
  <rect x="192" y="32" width="32" height="32" fill="#C8A2C8" />
  <rect x="224" y="32" width="32" height="32" fill="#4B0082" />
  <rect x="0" y="64" width="32" height="32" fill="#4B0082" />
  <rect x="32" y="64" width="32" height="32" fill="#E0B0FF" />
  <rect x="64" y="64" width="32" height="32" fill="#FFD700" />
  <rect x="96" y="64" width="32" height="32" fill="#1F1B30" />
  <rect x="128" y="64" width="32" height="32" fill="#000000" />
  <rect x="160" y="64" width="32" height="32" fill="#3A5EAB" />
  <rect x="192" y="64" width="32" height="32" fill="#000000" />
  <rect x="224" y="64" width="32" height="32" fill="#8F7BCE" />
  <rect x="0" y="96" width="32" height="32" fill="#3A5EAB" />
  <rect x="32" y="96" width="32" height="32" fill="#000000" />
  <rect x="64" y="96" width="32" height="32" fill="#8F7BCE" />
  <rect x="96" y="96" width="32" height="32" fill="#FFD700" />
  <rect x="128" y="96" width="32" height="32" fill="#E0B0FF" />
  <rect x="160" y="96" width="32" height="32" fill="#1F1B30" />
  <rect x="192" y="96" width="32" height="32" fill="#C8A2C8" />
  <rect x="224" y="96" width="32" height="32" fill="#FFD700" />
  <rect x="0" y="128" width="32" height="32" fill="#1F1B30" />
  <rect x="32" y="128" width="32" height="32" fill="#C8A2C8" />
  <rect x="64" y="128" width="32" height="32" fill="#FFD700" />
  <rect x="96" y="128" width="32" height="32" fill="#8F7BCE" />
  <rect x="128" y="128" width="32" height="32" fill="#4B0082" />
  <rect x="160" y="128" width="32" height="32" fill="#FFD700" />
  <rect x="192" y="128" width="32" height="32" fill="#E0B0FF" />
  <rect x="224" y="128" width="32" height="32" fill="#3A5EAB" />
  <rect x="0" y="160" width="32" height="32" fill="#000000" />
  <rect x="32" y="160" width="32" height="32" fill="#8F7BCE" />
  <rect x="64" y="160" width="32" height="32" fill="#3A5EAB" />
  <rect x="96" y="160" width="32" height="32" fill="#4B0082" />
  <rect x="128" y="160" width="32" height="32" fill="#1F1B30" />
  <rect x="160" y="160" width="32" height="32" fill="#C8A2C8" />
  <rect x="192" y="160" width="32" height="32" fill="#FFD700" />
  <rect x="224" y="160" width="32" height="32" fill="#E0B0FF" />
  <rect x="0" y="192" width="32" height="32" fill="#4B0082" />
  <rect x="32" y="192" width="32" height="32" fill="#1F1B30" />
  <rect x="64" y="192" width="32" height="32" fill="#000000" />
  <rect x="96" y="192" width="32" height="32" fill="#C8A2C8" />
  <rect x="128" y="192" width="32" height="32" fill="#8F7BCE" />
  <rect x="160" y="192" width="32" height="32" fill="#FFD700" />
  <rect x="192" y="192" width="32" height="32" fill="#E0B0FF" />
  <rect x="224" y="192" width="32" height="32" fill="#3A5EAB" />
  <rect x="0" y="224" width="32" height="32" fill="#FFD700" />
  <rect x="32" y="224" width="32" height="32" fill="#C8A2C8" />
  <rect x="64" y="224" width="32" height="32" fill="#3A5EAB" />
  <rect x="96" y="224" width="32" height="32" fill="#4B0082" />
  <rect x="128" y="224" width="32" height="32" fill="#8F7BCE" />
  <rect x="160" y="224" width="32" height="32" fill="#1F1B30" />
  <rect x="192" y="224" width="32" height="32" fill="#000000" />
  <rect x="224" y="224" width="32" height="32" fill="#E0B0FF" />
</svg>
