<svg xmlns="http://www.w3.org/2000/svg" width="256" height="256" viewBox="0 0 256 256" shape-rendering="crispEdges" role="img" aria-labelledby="title desc">
  <title id="title">Tension Between Divergence</title>
  <desc id="desc">This composition embodies the emotional tension between longing and resolve, using a palette that reflects mourning and renewal. The colors depict a subtle conflict: deep blues signify longing while pale yellow represents resolve. The main collision of color occurs diagonally, symbolizing the struggle between the push towards connection and the pull of individuality. The broken pixels introduce elements of imperfection, reminding viewers of the beauty of unresolved situations.</desc>
  <rect width="256" height="256" fill="#FFFFFF" />
  <rect x="0" y="0" width="32" height="32" fill="#000000" />
  <rect x="32" y="0" width="32" height="32" fill="#0D1B2A" />
  <rect x="64" y="0" width="32" height="32" fill="#1B2631" />
  <rect x="96" y="0" width="32" height="32" fill="#0F4C75" />
  <rect x="128" y="0" width="32" height="32" fill="#8D99AE" />
  <rect x="160" y="0" width="32" height="32" fill="#F0F4F8" />
  <rect x="192" y="0" width="32" height="32" fill="#FBBF24" />
  <rect x="224" y="0" width="32" height="32" fill="#F9AA1B" />
  <rect x="0" y="32" width="32" height="32" fill="#F9C74F" />
  <rect x="32" y="32" width="32" height="32" fill="#F8E16E" />
  <rect x="64" y="32" width="32" height="32" fill="#F9C74F" />
  <rect x="96" y="32" width="32" height="32" fill="#6A0572" />
  <rect x="128" y="32" width="32" height="32" fill="#F3722C" />
  <rect x="160" y="32" width="32" height="32" fill="#F94144" />
  <rect x="192" y="32" width="32" height="32" fill="#F3722C" />
  <rect x="224" y="32" width="32" height="32" fill="#F9C74F" />
  <rect x="0" y="64" width="32" height="32" fill="#A5C8FA" />
  <rect x="32" y="64" width="32" height="32" fill="#F2F203" />
  <rect x="64" y="64" width="32" height="32" fill="#F2D600" />
  <rect x="96" y="64" width="32" height="32" fill="#3F6795" />
  <rect x="128" y="64" width="32" height="32" fill="#2A6996" />
  <rect x="160" y="64" width="32" height="32" fill="#E0FBFC" />
  <rect x="192" y="64" width="32" height="32" fill="#A5C8FA" />
  <rect x="224" y="64" width="32" height="32" fill="#577590" />
  <rect x="0" y="96" width="32" height="32" fill="#0F4C75" />
  <rect x="32" y="96" width="32" height="32" fill="#FF5858" />
  <rect x="64" y="96" width="32" height="32" fill="#0D1B2A" />
  <rect x="96" y="96" width="32" height="32" fill="#6B1E8B" />
  <rect x="128" y="96" width="32" height="32" fill="#F9AA1B" />
  <rect x="160" y="96" width="32" height="32" fill="#F2D600" />
  <rect x="192" y="96" width="32" height="32" fill="#FBBF24" />
  <rect x="224" y="96" width="32" height="32" fill="#C3B1E1" />
  <rect x="0" y="128" width="32" height="32" fill="#D0D7E8" />
  <rect x="32" y="128" width="32" height="32" fill="#292F36" />
  <rect x="64" y="128" width="32" height="32" fill="#EBF5FB" />
  <rect x="96" y="128" width="32" height="32" fill="#B9C8D0" />
  <rect x="128" y="128" width="32" height="32" fill="#E0FBFC" />
  <rect x="160" y="128" width="32" height="32" fill="#FFABAB" />
  <rect x="192" y="128" width="32" height="32" fill="#F9C74F" />
  <rect x="224" y="128" width="32" height="32" fill="#3F6795" />
  <rect x="0" y="160" width="32" height="32" fill="#FF0D0D" />
  <rect x="32" y="160" width="32" height="32" fill="#BBE1FA" />
  <rect x="64" y="160" width="32" height="32" fill="#FF6F61" />
  <rect x="96" y="160" width="32" height="32" fill="#E63946" />
  <rect x="128" y="160" width="32" height="32" fill="#F1FAEE" />
  <rect x="160" y="160" width="32" height="32" fill="#A5C8FA" />
  <rect x="192" y="160" width="32" height="32" fill="#A7C957" />
  <rect x="224" y="160" width="32" height="32" fill="#F9AA1B" />
  <rect x="0" y="192" width="32" height="32" fill="#FFE66D" />
  <rect x="32" y="192" width="32" height="32" fill="#2A9D8F" />
  <rect x="64" y="192" width="32" height="32" fill="#F9C74F" />
  <rect x="96" y="192" width="32" height="32" fill="#3C4043" />
  <rect x="128" y="192" width="32" height="32" fill="#D9BF77" />
  <rect x="160" y="192" width="32" height="32" fill="#B1A7B8" />
  <rect x="192" y="192" width="32" height="32" fill="#F3722C" />
  <rect x="224" y="192" width="32" height="32" fill="#FBBF24" />
  <rect x="0" y="224" width="32" height="32" fill="#2B2D42" />
  <rect x="32" y="224" width="32" height="32" fill="#F9AA1B" />
  <rect x="64" y="224" width="32" height="32" fill="#1E1D2B" />
  <rect x="96" y="224" width="32" height="32" fill="#4D4C57" />
  <rect x="128" y="224" width="32" height="32" fill="#D5CDAA" />
  <rect x="160" y="224" width="32" height="32" fill="#B6E2EF" />
  <rect x="192" y="224" width="32" height="32" fill="#2A9D8F" />
  <rect x="224" y="224" width="32" height="32" fill="#FEE440" />
</svg>
