<svg xmlns="http://www.w3.org/2000/svg" width="256" height="256" viewBox="0 0 256 256" shape-rendering="crispEdges" role="img" aria-labelledby="title desc">
  <title id="title">Echoes of Resilience</title>
  <desc id="desc">The emotional tone explores the push and pull between vulnerability and strength, illustrated through a palette of deep reds and soft grays, symbolizing love and betrayal. The layout features a hollow center surrounded by vibrant colors, suggesting a protective barrier. The main collision occurs where the softer 'vulnerable' colors mix with the stronger 'defensive' shades, leading to tension in the central pattern. This visualizes the struggle between opposing forces, creating a narrative of resilience against adversity.</desc>
  <rect width="256" height="256" fill="#FFFFFF" />
  <rect x="0" y="0" width="32" height="32" fill="#C52D37" />
  <rect x="32" y="0" width="32" height="32" fill="#E74C3C" />
  <rect x="64" y="0" width="32" height="32" fill="#F9C7C1" />
  <rect x="96" y="0" width="32" height="32" fill="#F4B1B1" />
  <rect x="128" y="0" width="32" height="32" fill="#E1A6A6" />
  <rect x="160" y="0" width="32" height="32" fill="#A06E6E" />
  <rect x="192" y="0" width="32" height="32" fill="#744545" />
  <rect x="224" y="0" width="32" height="32" fill="#4C4C4C" />
  <rect x="0" y="32" width="32" height="32" fill="#393939" />
  <rect x="32" y="32" width="32" height="32" fill="#7E7E7E" />
  <rect x="64" y="32" width="32" height="32" fill="#DCDCDC" />
  <rect x="96" y="32" width="32" height="32" fill="#C0C0C0" />
  <rect x="128" y="32" width="32" height="32" fill="#B0B0B0" />
  <rect x="160" y="32" width="32" height="32" fill="#ADADAD" />
  <rect x="192" y="32" width="32" height="32" fill="#B5B5B5" />
  <rect x="224" y="32" width="32" height="32" fill="#E9E9E9" />
  <rect x="0" y="64" width="32" height="32" fill="#F2B2B2" />
  <rect x="32" y="64" width="32" height="32" fill="#F69494" />
  <rect x="64" y="64" width="32" height="32" fill="#F79E9E" />
  <rect x="96" y="64" width="32" height="32" fill="#E4E4E4" />
  <rect x="128" y="64" width="32" height="32" fill="#DDDDDD" />
  <rect x="160" y="64" width="32" height="32" fill="#C3C3C3" />
  <rect x="192" y="64" width="32" height="32" fill="#94A5A5" />
  <rect x="224" y="64" width="32" height="32" fill="#EAEAEA" />
  <rect x="0" y="96" width="32" height="32" fill="#F9C2C2" />
  <rect x="32" y="96" width="32" height="32" fill="#FFD5D5" />
  <rect x="64" y="96" width="32" height="32" fill="#F7E7E7" />
  <rect x="96" y="96" width="32" height="32" fill="#D2D2D2" />
  <rect x="128" y="96" width="32" height="32" fill="#A8A8A8" />
  <rect x="160" y="96" width="32" height="32" fill="#6D6D6D" />
  <rect x="192" y="96" width="32" height="32" fill="#3A3A3A" />
  <rect x="224" y="96" width="32" height="32" fill="#7B7B7B" />
  <rect x="0" y="128" width="32" height="32" fill="#5C5C5C" />
  <rect x="32" y="128" width="32" height="32" fill="#444444" />
  <rect x="64" y="128" width="32" height="32" fill="#FFFFFF" />
  <rect x="96" y="128" width="32" height="32" fill="#D1D1D1" />
  <rect x="128" y="128" width="32" height="32" fill="#F1F1F1" />
  <rect x="160" y="128" width="32" height="32" fill="#F7F7F7" />
  <rect x="192" y="128" width="32" height="32" fill="#B8B8B8" />
  <rect x="224" y="128" width="32" height="32" fill="#888888" />
  <rect x="0" y="160" width="32" height="32" fill="#E0E0E0" />
  <rect x="32" y="160" width="32" height="32" fill="#E1D6D6" />
  <rect x="64" y="160" width="32" height="32" fill="#E0ACAC" />
  <rect x="96" y="160" width="32" height="32" fill="#DA8B8B" />
  <rect x="128" y="160" width="32" height="32" fill="#CA6363" />
  <rect x="160" y="160" width="32" height="32" fill="#C22E2E" />
  <rect x="192" y="160" width="32" height="32" fill="#B22727" />
  <rect x="224" y="160" width="32" height="32" fill="#737373" />
  <rect x="0" y="192" width="32" height="32" fill="#444444" />
  <rect x="32" y="192" width="32" height="32" fill="#292929" />
  <rect x="64" y="192" width="32" height="32" fill="#A9A9A9" />
  <rect x="96" y="192" width="32" height="32" fill="#DEDEDE" />
  <rect x="128" y="192" width="32" height="32" fill="#F1C0C0" />
  <rect x="160" y="192" width="32" height="32" fill="#F96262" />
  <rect x="192" y="192" width="32" height="32" fill="#EF4F4F" />
  <rect x="224" y="192" width="32" height="32" fill="#E6E6E6" />
  <rect x="0" y="224" width="32" height="32" fill="#B25252" />
  <rect x="32" y="224" width="32" height="32" fill="#B12F2F" />
  <rect x="64" y="224" width="32" height="32" fill="#D2D2D2" />
  <rect x="96" y="224" width="32" height="32" fill="#ABABAB" />
  <rect x="128" y="224" width="32" height="32" fill="#777777" />
  <rect x="160" y="224" width="32" height="32" fill="#8E8E8E" />
  <rect x="192" y="224" width="32" height="32" fill="#BDBDBD" />
  <rect x="224" y="224" width="32" height="32" fill="#FFFFFF" />
</svg>
