<svg xmlns="http://www.w3.org/2000/svg" width="256" height="256" viewBox="0 0 256 256" shape-rendering="crispEdges" role="img" aria-labelledby="title desc">
  <title id="title">Converging Disorder</title>
  <desc id="desc">This abstract composition explores the emotional dichotomy of confusion and clarity. The top half resonates with clarity, represented by the warm yellows and oranges, organized in a semi-symmetrical pattern that provides a sense of structure. The bottom half embraces confusion, with a mix of muted purples and deep blues breaking the order, suggesting fragmentation and disorder through irregular placements and cracked patterns. The color choice amplifies the emotional tension, as warm hues contrast starkly against the cool depth of the lower section. This interplay creates a visual conflict that mirrors the struggle between finding clarity within the chaos.</desc>
  <rect width="256" height="256" fill="#FFFFFF" />
  <rect x="0" y="0" width="32" height="32" fill="#FFFF00" />
  <rect x="32" y="0" width="32" height="32" fill="#FFAA00" />
  <rect x="64" y="0" width="32" height="32" fill="#FF6600" />
  <rect x="96" y="0" width="32" height="32" fill="#FF3300" />
  <rect x="128" y="0" width="32" height="32" fill="#FF0000" />
  <rect x="160" y="0" width="32" height="32" fill="#CC0000" />
  <rect x="192" y="0" width="32" height="32" fill="#990000" />
  <rect x="224" y="0" width="32" height="32" fill="#660000" />
  <rect x="0" y="32" width="32" height="32" fill="#AAAAFF" />
  <rect x="32" y="32" width="32" height="32" fill="#8888FF" />
  <rect x="64" y="32" width="32" height="32" fill="#6666FF" />
  <rect x="96" y="32" width="32" height="32" fill="#4444FF" />
  <rect x="128" y="32" width="32" height="32" fill="#2222FF" />
  <rect x="160" y="32" width="32" height="32" fill="#0000FF" />
  <rect x="192" y="32" width="32" height="32" fill="#000099" />
  <rect x="224" y="32" width="32" height="32" fill="#000066" />
  <rect x="0" y="64" width="32" height="32" fill="#FFCC00" />
  <rect x="32" y="64" width="32" height="32" fill="#FFAA00" />
  <rect x="64" y="64" width="32" height="32" fill="#FF8800" />
  <rect x="96" y="64" width="32" height="32" fill="#FF6600" />
  <rect x="128" y="64" width="32" height="32" fill="#FF4400" />
  <rect x="160" y="64" width="32" height="32" fill="#FF2200" />
  <rect x="192" y="64" width="32" height="32" fill="#FF0000" />
  <rect x="224" y="64" width="32" height="32" fill="#CC0000" />
  <rect x="0" y="96" width="32" height="32" fill="#AA8888" />
  <rect x="32" y="96" width="32" height="32" fill="#AA9999" />
  <rect x="64" y="96" width="32" height="32" fill="#AAAAAA" />
  <rect x="96" y="96" width="32" height="32" fill="#BBBBBB" />
  <rect x="128" y="96" width="32" height="32" fill="#CCCCCC" />
  <rect x="160" y="96" width="32" height="32" fill="#DDDDDD" />
  <rect x="192" y="96" width="32" height="32" fill="#EEEEEE" />
  <rect x="224" y="96" width="32" height="32" fill="#FFFFFF" />
  <rect x="0" y="128" width="32" height="32" fill="#883366" />
  <rect x="32" y="128" width="32" height="32" fill="#772477" />
  <rect x="64" y="128" width="32" height="32" fill="#661188" />
  <rect x="96" y="128" width="32" height="32" fill="#5500FF" />
  <rect x="128" y="128" width="32" height="32" fill="#4400CC" />
  <rect x="160" y="128" width="32" height="32" fill="#3300AA" />
  <rect x="192" y="128" width="32" height="32" fill="#220088" />
  <rect x="224" y="128" width="32" height="32" fill="#110066" />
  <rect x="0" y="160" width="32" height="32" fill="#6666FF" />
  <rect x="32" y="160" width="32" height="32" fill="#7777EE" />
  <rect x="64" y="160" width="32" height="32" fill="#8888DD" />
  <rect x="96" y="160" width="32" height="32" fill="#9999CC" />
  <rect x="128" y="160" width="32" height="32" fill="#AAAAAB" />
  <rect x="160" y="160" width="32" height="32" fill="#BBBBBB" />
  <rect x="192" y="160" width="32" height="32" fill="#CCCCCC" />
  <rect x="224" y="160" width="32" height="32" fill="#DDDDDD" />
  <rect x="0" y="192" width="32" height="32" fill="#FF9000" />
  <rect x="32" y="192" width="32" height="32" fill="#FFAA00" />
  <rect x="64" y="192" width="32" height="32" fill="#FFC300" />
  <rect x="96" y="192" width="32" height="32" fill="#FFD900" />
  <rect x="128" y="192" width="32" height="32" fill="#FFE600" />
  <rect x="160" y="192" width="32" height="32" fill="#FFE300" />
  <rect x="192" y="192" width="32" height="32" fill="#FFE000" />
  <rect x="224" y="192" width="32" height="32" fill="#FFD700" />
  <rect x="0" y="224" width="32" height="32" fill="#444444" />
  <rect x="32" y="224" width="32" height="32" fill="#333333" />
  <rect x="64" y="224" width="32" height="32" fill="#222222" />
  <rect x="96" y="224" width="32" height="32" fill="#111111" />
  <rect x="128" y="224" width="32" height="32" fill="#000000" />
  <rect x="160" y="224" width="32" height="32" fill="#222222" />
  <rect x="192" y="224" width="32" height="32" fill="#444444" />
  <rect x="224" y="224" width="32" height="32" fill="#666666" />
</svg>
