<svg xmlns="http://www.w3.org/2000/svg" width="256" height="256" viewBox="0 0 256 256" shape-rendering="crispEdges" role="img" aria-labelledby="title desc">
  <title id="title">Echoes of Contrast</title>
  <desc id="desc">This composition captures the tension between vulnerability and strength through a deliberate arrangement of color and pixel structure. The palette, titled 'ancient_fire', comprises burnt orange and dark red to suggest intensity and urgency, while charcoal provides grounding depth. Gold adds a hint of brightness, representing moments of hope amidst struggle. The layout, 'open_gate', symbolizes exposure, with a diagonal rise that invites an energetic flow from the bottom left to the top right, signifying strength rising against vulnerability. The main contrast occurs around the center, where the lighter and softer colors of vulnerability collide with the surrounding stronger, darker edges, emphasizing a struggle against confinement. Broken pixels introduce elements of disruption that speak to the imperfect nature of both emotional states, while maintaining negative space allows for reflection and clarity within the chaos.</desc>
  <rect width="256" height="256" fill="#FFFFFF" />
  <rect x="0" y="0" width="32" height="32" fill="#BF4D00" />
  <rect x="32" y="0" width="32" height="32" fill="#8A1D00" />
  <rect x="64" y="0" width="32" height="32" fill="#2B0C00" />
  <rect x="96" y="0" width="32" height="32" fill="#4B3D3D" />
  <rect x="128" y="0" width="32" height="32" fill="#C8B14A" />
  <rect x="160" y="0" width="32" height="32" fill="#F2B84C" />
  <rect x="192" y="0" width="32" height="32" fill="#FFD580" />
  <rect x="224" y="0" width="32" height="32" fill="#8C4F20" />
  <rect x="0" y="32" width="32" height="32" fill="#542D2E" />
  <rect x="32" y="32" width="32" height="32" fill="#8D0A0A" />
  <rect x="64" y="32" width="32" height="32" fill="#5B5B5B" />
  <rect x="96" y="32" width="32" height="32" fill="#5F4C62" />
  <rect x="128" y="32" width="32" height="32" fill="#A05220" />
  <rect x="160" y="32" width="32" height="32" fill="#C8B07B" />
  <rect x="192" y="32" width="32" height="32" fill="#FF9F00" />
  <rect x="224" y="32" width="32" height="32" fill="#FAE5A3" />
  <rect x="0" y="64" width="32" height="32" fill="#128C4E" />
  <rect x="32" y="64" width="32" height="32" fill="#302F2F" />
  <rect x="64" y="64" width="32" height="32" fill="#AB8E4F" />
  <rect x="96" y="64" width="32" height="32" fill="#CCFF01" />
  <rect x="128" y="64" width="32" height="32" fill="#7A3E1D" />
  <rect x="160" y="64" width="32" height="32" fill="#F50D12" />
  <rect x="192" y="64" width="32" height="32" fill="#FFC100" />
  <rect x="224" y="64" width="32" height="32" fill="#FFD700" />
  <rect x="0" y="96" width="32" height="32" fill="#4D3B1A" />
  <rect x="32" y="96" width="32" height="32" fill="#DE5803" />
  <rect x="64" y="96" width="32" height="32" fill="#696969" />
  <rect x="96" y="96" width="32" height="32" fill="#EB574A" />
  <rect x="128" y="96" width="32" height="32" fill="#FB9B00" />
  <rect x="160" y="96" width="32" height="32" fill="#D6A463" />
  <rect x="192" y="96" width="32" height="32" fill="#D8E1EE" />
  <rect x="224" y="96" width="32" height="32" fill="#BDAE59" />
  <rect x="0" y="128" width="32" height="32" fill="#C0DA1D" />
  <rect x="32" y="128" width="32" height="32" fill="#E1D2BE" />
  <rect x="64" y="128" width="32" height="32" fill="#E3BBA4" />
  <rect x="96" y="128" width="32" height="32" fill="#D3BFD0" />
  <rect x="128" y="128" width="32" height="32" fill="#7B2D2D" />
  <rect x="160" y="128" width="32" height="32" fill="#4F196B" />
  <rect x="192" y="128" width="32" height="32" fill="#8F2D22" />
  <rect x="224" y="128" width="32" height="32" fill="#B1A589" />
  <rect x="0" y="160" width="32" height="32" fill="#5E3605" />
  <rect x="32" y="160" width="32" height="32" fill="#3B0B0B" />
  <rect x="64" y="160" width="32" height="32" fill="#F5D78D" />
  <rect x="96" y="160" width="32" height="32" fill="#D06412" />
  <rect x="128" y="160" width="32" height="32" fill="#C36A3A" />
  <rect x="160" y="160" width="32" height="32" fill="#7D784E" />
  <rect x="192" y="160" width="32" height="32" fill="#B19B00" />
  <rect x="224" y="160" width="32" height="32" fill="#C1510D" />
  <rect x="0" y="192" width="32" height="32" fill="#0E7D5B" />
  <rect x="32" y="192" width="32" height="32" fill="#2B3035" />
  <rect x="64" y="192" width="32" height="32" fill="#7D7A8F" />
  <rect x="96" y="192" width="32" height="32" fill="#827C96" />
  <rect x="128" y="192" width="32" height="32" fill="#A47400" />
  <rect x="160" y="192" width="32" height="32" fill="#E2C41A" />
  <rect x="192" y="192" width="32" height="32" fill="#646464" />
  <rect x="224" y="192" width="32" height="32" fill="#BBDAD0" />
  <rect x="0" y="224" width="32" height="32" fill="#171717" />
  <rect x="32" y="224" width="32" height="32" fill="#7C3D01" />
  <rect x="64" y="224" width="32" height="32" fill="#2D2D2D" />
  <rect x="96" y="224" width="32" height="32" fill="#673B00" />
  <rect x="128" y="224" width="32" height="32" fill="#22BA5E" />
  <rect x="160" y="224" width="32" height="32" fill="#2F3C3E" />
  <rect x="192" y="224" width="32" height="32" fill="#A3A9B7" />
  <rect x="224" y="224" width="32" height="32" fill="#F1E6B9" />
</svg>
