<svg xmlns="http://www.w3.org/2000/svg" width="256" height="256" viewBox="0 0 256 256" shape-rendering="crispEdges" role="img" aria-labelledby="title desc">
  <title id="title">Tension and Tranquility</title>
  <desc id="desc">This artwork reflects the interplay between restlessness and peace through contrasting colors and patterns. The selected palette of moss green, bone white, rust, stone gray, and small gold conveys both fragility and resilience, perfectly embodying the essence of conflicting emotions. The main collision occurs in the center, where restless dot patterns converge with tranquil patchwork, creating a tangible tension. The broken pixels serve as intentional disruptions, highlighting imperfections and the struggle between static and resonance. The flow from top to bottom gives a sense of movement and groundedness, aligning with the seed's themes of motion and disruption.</desc>
  <rect width="256" height="256" fill="#FFFFFF" />
  <rect x="0" y="0" width="32" height="32" fill="#836953" />
  <rect x="32" y="0" width="32" height="32" fill="#F8F2E3" />
  <rect x="64" y="0" width="32" height="32" fill="#E05323" />
  <rect x="96" y="0" width="32" height="32" fill="#7C7C7F" />
  <rect x="128" y="0" width="32" height="32" fill="#D0CECB" />
  <rect x="160" y="0" width="32" height="32" fill="#B5B1A1" />
  <rect x="192" y="0" width="32" height="32" fill="#D0B490" />
  <rect x="224" y="0" width="32" height="32" fill="#C4D6A5" />
  <rect x="0" y="32" width="32" height="32" fill="#A0522D" />
  <rect x="32" y="32" width="32" height="32" fill="#F3E4C9" />
  <rect x="64" y="32" width="32" height="32" fill="#C3B094" />
  <rect x="96" y="32" width="32" height="32" fill="#837E7C" />
  <rect x="128" y="32" width="32" height="32" fill="#B8D3C9" />
  <rect x="160" y="32" width="32" height="32" fill="#FFFFFF" />
  <rect x="192" y="32" width="32" height="32" fill="#D9CAA8" />
  <rect x="224" y="32" width="32" height="32" fill="#661E21" />
  <rect x="0" y="64" width="32" height="32" fill="#8D9B69" />
  <rect x="32" y="64" width="32" height="32" fill="#F5F5F5" />
  <rect x="64" y="64" width="32" height="32" fill="#7D6B6E" />
  <rect x="96" y="64" width="32" height="32" fill="#929595" />
  <rect x="128" y="64" width="32" height="32" fill="#B0D8C4" />
  <rect x="160" y="64" width="32" height="32" fill="#3E3D31" />
  <rect x="192" y="64" width="32" height="32" fill="#F8F5E8" />
  <rect x="224" y="64" width="32" height="32" fill="#4C8C68" />
  <rect x="0" y="96" width="32" height="32" fill="#4A2C3A" />
  <rect x="32" y="96" width="32" height="32" fill="#D4D9D4" />
  <rect x="64" y="96" width="32" height="32" fill="#915C3D" />
  <rect x="96" y="96" width="32" height="32" fill="#F5F1E0" />
  <rect x="128" y="96" width="32" height="32" fill="#B2AC7E" />
  <rect x="160" y="96" width="32" height="32" fill="#C8D4C9" />
  <rect x="192" y="96" width="32" height="32" fill="#4D5B52" />
  <rect x="224" y="96" width="32" height="32" fill="#E5CFC1" />
  <rect x="0" y="128" width="32" height="32" fill="#676667" />
  <rect x="32" y="128" width="32" height="32" fill="#C8C1B5" />
  <rect x="64" y="128" width="32" height="32" fill="#BBB8A6" />
  <rect x="96" y="128" width="32" height="32" fill="#725D4C" />
  <rect x="128" y="128" width="32" height="32" fill="#E2B61A" />
  <rect x="160" y="128" width="32" height="32" fill="#DBB09A" />
  <rect x="192" y="128" width="32" height="32" fill="#6B4C4F" />
  <rect x="224" y="128" width="32" height="32" fill="#A5BCB0" />
  <rect x="0" y="160" width="32" height="32" fill="#B3A29F" />
  <rect x="32" y="160" width="32" height="32" fill="#EBF3E3" />
  <rect x="64" y="160" width="32" height="32" fill="#3F5C62" />
  <rect x="96" y="160" width="32" height="32" fill="#7F7F7F" />
  <rect x="128" y="160" width="32" height="32" fill="#B3D5C0" />
  <rect x="160" y="160" width="32" height="32" fill="#D0C5B7" />
  <rect x="192" y="160" width="32" height="32" fill="#909090" />
  <rect x="224" y="160" width="32" height="32" fill="#4B5C54" />
  <rect x="0" y="192" width="32" height="32" fill="#B4C7C4" />
  <rect x="32" y="192" width="32" height="32" fill="#B0A41B" />
  <rect x="64" y="192" width="32" height="32" fill="#FFF5E6" />
  <rect x="96" y="192" width="32" height="32" fill="#6B2828" />
  <rect x="128" y="192" width="32" height="32" fill="#B1C2B2" />
  <rect x="160" y="192" width="32" height="32" fill="#AB2C0E" />
  <rect x="192" y="192" width="32" height="32" fill="#BDB4A0" />
  <rect x="224" y="192" width="32" height="32" fill="#788F9C" />
  <rect x="0" y="224" width="32" height="32" fill="#832C4B" />
  <rect x="32" y="224" width="32" height="32" fill="#EFEFE9" />
  <rect x="64" y="224" width="32" height="32" fill="#5F5B5A" />
  <rect x="96" y="224" width="32" height="32" fill="#7A9C83" />
  <rect x="128" y="224" width="32" height="32" fill="#CFD3C5" />
  <rect x="160" y="224" width="32" height="32" fill="#F0E6D7" />
  <rect x="192" y="224" width="32" height="32" fill="#E0A27F" />
  <rect x="224" y="224" width="32" height="32" fill="#8FA6A5" />
</svg>
