<svg xmlns="http://www.w3.org/2000/svg" width="256" height="256" viewBox="0 0 256 256" shape-rendering="crispEdges" role="img" aria-labelledby="title desc">
  <title id="title">Emotional Echo</title>
  <desc id="desc">The artwork captures the tension between feelings of loneliness and connection through its deliberate color placement. The palette of deep navy, black, and soft dim cyan evokes a sense of isolation, while the single white pixel serves as a hopeful connection amidst the density. The layout mimics falling pixels, where some colors cluster tightly to create pressure while others leave open spaces, suggesting moments of release. The soft edges further emphasize the gentle collision of emotions and the ebb and flow of expression.</desc>
  <rect width="256" height="256" fill="#FFFFFF" />
  <rect x="0" y="0" width="32" height="32" fill="#000000" />
  <rect x="32" y="0" width="32" height="32" fill="#000000" />
  <rect x="64" y="0" width="32" height="32" fill="#000000" />
  <rect x="96" y="0" width="32" height="32" fill="#001F3F" />
  <rect x="128" y="0" width="32" height="32" fill="#000000" />
  <rect x="160" y="0" width="32" height="32" fill="#000000" />
  <rect x="192" y="0" width="32" height="32" fill="#000000" />
  <rect x="224" y="0" width="32" height="32" fill="#000000" />
  <rect x="0" y="32" width="32" height="32" fill="#000000" />
  <rect x="32" y="32" width="32" height="32" fill="#001F3F" />
  <rect x="64" y="32" width="32" height="32" fill="#003B5C" />
  <rect x="96" y="32" width="32" height="32" fill="#005B8E" />
  <rect x="128" y="32" width="32" height="32" fill="#000000" />
  <rect x="160" y="32" width="32" height="32" fill="#000000" />
  <rect x="192" y="32" width="32" height="32" fill="#000000" />
  <rect x="224" y="32" width="32" height="32" fill="#000000" />
  <rect x="0" y="64" width="32" height="32" fill="#000000" />
  <rect x="32" y="64" width="32" height="32" fill="#005B8E" />
  <rect x="64" y="64" width="32" height="32" fill="#007EA2" />
  <rect x="96" y="64" width="32" height="32" fill="#009EDB" />
  <rect x="128" y="64" width="32" height="32" fill="#000000" />
  <rect x="160" y="64" width="32" height="32" fill="#000000" />
  <rect x="192" y="64" width="32" height="32" fill="#000000" />
  <rect x="224" y="64" width="32" height="32" fill="#000000" />
  <rect x="0" y="96" width="32" height="32" fill="#000000" />
  <rect x="32" y="96" width="32" height="32" fill="#007EA2" />
  <rect x="64" y="96" width="32" height="32" fill="#001F3F" />
  <rect x="96" y="96" width="32" height="32" fill="#005B8E" />
  <rect x="128" y="96" width="32" height="32" fill="#004D7A" />
  <rect x="160" y="96" width="32" height="32" fill="#000000" />
  <rect x="192" y="96" width="32" height="32" fill="#000000" />
  <rect x="224" y="96" width="32" height="32" fill="#000000" />
  <rect x="0" y="128" width="32" height="32" fill="#000000" />
  <rect x="32" y="128" width="32" height="32" fill="#000000" />
  <rect x="64" y="128" width="32" height="32" fill="#004D7A" />
  <rect x="96" y="128" width="32" height="32" fill="#005B8E" />
  <rect x="128" y="128" width="32" height="32" fill="#007EA2" />
  <rect x="160" y="128" width="32" height="32" fill="#000000" />
  <rect x="192" y="128" width="32" height="32" fill="#000000" />
  <rect x="224" y="128" width="32" height="32" fill="#000000" />
  <rect x="0" y="160" width="32" height="32" fill="#000000" />
  <rect x="32" y="160" width="32" height="32" fill="#000000" />
  <rect x="64" y="160" width="32" height="32" fill="#001F3F" />
  <rect x="96" y="160" width="32" height="32" fill="#005B8E" />
  <rect x="128" y="160" width="32" height="32" fill="#000000" />
  <rect x="160" y="160" width="32" height="32" fill="#000000" />
  <rect x="192" y="160" width="32" height="32" fill="#000000" />
  <rect x="224" y="160" width="32" height="32" fill="#000000" />
  <rect x="0" y="192" width="32" height="32" fill="#000000" />
  <rect x="32" y="192" width="32" height="32" fill="#000000" />
  <rect x="64" y="192" width="32" height="32" fill="#000000" />
  <rect x="96" y="192" width="32" height="32" fill="#005B8E" />
  <rect x="128" y="192" width="32" height="32" fill="#007EA2" />
  <rect x="160" y="192" width="32" height="32" fill="#000000" />
  <rect x="192" y="192" width="32" height="32" fill="#000000" />
  <rect x="224" y="192" width="32" height="32" fill="#000000" />
  <rect x="0" y="224" width="32" height="32" fill="#000000" />
  <rect x="32" y="224" width="32" height="32" fill="#000000" />
  <rect x="64" y="224" width="32" height="32" fill="#000000" />
  <rect x="96" y="224" width="32" height="32" fill="#000000" />
  <rect x="128" y="224" width="32" height="32" fill="#000000" />
  <rect x="160" y="224" width="32" height="32" fill="#000000" />
  <rect x="192" y="224" width="32" height="32" fill="#000000" />
  <rect x="224" y="224" width="32" height="32" fill="#FFFFFF" />
</svg>
