<svg xmlns="http://www.w3.org/2000/svg" width="256" height="256" viewBox="0 0 256 256" shape-rendering="crispEdges" role="img" aria-labelledby="title desc">
  <title id="title">Emotional Echoes</title>
  <desc id="desc">The emotional tone of this piece juxtaposes the softness of tenderness against the raw intensity of rage, represented through a palette of deep blacks, pale blues, and white accents, reflecting a calm amidst chaos. The predominant dark colors form the base while lighter colors interrupt, suggesting a struggle between emotional states. The collision occurs centrally, where the tension manifests as darker tones are punctuated by bright whites and muted blues. This arrangement represents internal conflict, echoing feelings of guilt and forgiveness as they blend and tear into each other, creating an abstract narrative. The use of broken pixels emulates scars, further emphasizing the theme of 'repair_vs_damage' while maintaining a layered, graceful structure throughout.</desc>
  <rect width="256" height="256" fill="#FFFFFF" />
  <rect x="0" y="0" width="32" height="32" fill="#000000" />
  <rect x="32" y="0" width="32" height="32" fill="#000000" />
  <rect x="64" y="0" width="32" height="32" fill="#000000" />
  <rect x="96" y="0" width="32" height="32" fill="#A3BFD8" />
  <rect x="128" y="0" width="32" height="32" fill="#A3BFD8" />
  <rect x="160" y="0" width="32" height="32" fill="#FFFFFF" />
  <rect x="192" y="0" width="32" height="32" fill="#A3BFD8" />
  <rect x="224" y="0" width="32" height="32" fill="#000000" />
  <rect x="0" y="32" width="32" height="32" fill="#000000" />
  <rect x="32" y="32" width="32" height="32" fill="#000000" />
  <rect x="64" y="32" width="32" height="32" fill="#000000" />
  <rect x="96" y="32" width="32" height="32" fill="#A3BFD8" />
  <rect x="128" y="32" width="32" height="32" fill="#000000" />
  <rect x="160" y="32" width="32" height="32" fill="#000000" />
  <rect x="192" y="32" width="32" height="32" fill="#A3BFD8" />
  <rect x="224" y="32" width="32" height="32" fill="#000000" />
  <rect x="0" y="64" width="32" height="32" fill="#000000" />
  <rect x="32" y="64" width="32" height="32" fill="#A3BFD8" />
  <rect x="64" y="64" width="32" height="32" fill="#000000" />
  <rect x="96" y="64" width="32" height="32" fill="#A3BFD8" />
  <rect x="128" y="64" width="32" height="32" fill="#A3BFD8" />
  <rect x="160" y="64" width="32" height="32" fill="#A3BFD8" />
  <rect x="192" y="64" width="32" height="32" fill="#000000" />
  <rect x="224" y="64" width="32" height="32" fill="#000000" />
  <rect x="0" y="96" width="32" height="32" fill="#A3BFD8" />
  <rect x="32" y="96" width="32" height="32" fill="#000000" />
  <rect x="64" y="96" width="32" height="32" fill="#A3BFD8" />
  <rect x="96" y="96" width="32" height="32" fill="#000000" />
  <rect x="128" y="96" width="32" height="32" fill="#000000" />
  <rect x="160" y="96" width="32" height="32" fill="#000000" />
  <rect x="192" y="96" width="32" height="32" fill="#A3BFD8" />
  <rect x="224" y="96" width="32" height="32" fill="#000000" />
  <rect x="0" y="128" width="32" height="32" fill="#A3BFD8" />
  <rect x="32" y="128" width="32" height="32" fill="#A3BFD8" />
  <rect x="64" y="128" width="32" height="32" fill="#000000" />
  <rect x="96" y="128" width="32" height="32" fill="#000000" />
  <rect x="128" y="128" width="32" height="32" fill="#A3BFD8" />
  <rect x="160" y="128" width="32" height="32" fill="#A3BFD8" />
  <rect x="192" y="128" width="32" height="32" fill="#A3BFD8" />
  <rect x="224" y="128" width="32" height="32" fill="#FFFFFF" />
  <rect x="0" y="160" width="32" height="32" fill="#FFFFFF" />
  <rect x="32" y="160" width="32" height="32" fill="#A3BFD8" />
  <rect x="64" y="160" width="32" height="32" fill="#A3BFD8" />
  <rect x="96" y="160" width="32" height="32" fill="#000000" />
  <rect x="128" y="160" width="32" height="32" fill="#000000" />
  <rect x="160" y="160" width="32" height="32" fill="#A3BFD8" />
  <rect x="192" y="160" width="32" height="32" fill="#A3BFD8" />
  <rect x="224" y="160" width="32" height="32" fill="#000000" />
  <rect x="0" y="192" width="32" height="32" fill="#000000" />
  <rect x="32" y="192" width="32" height="32" fill="#000000" />
  <rect x="64" y="192" width="32" height="32" fill="#A3BFD8" />
  <rect x="96" y="192" width="32" height="32" fill="#A3BFD8" />
  <rect x="128" y="192" width="32" height="32" fill="#000000" />
  <rect x="160" y="192" width="32" height="32" fill="#000000" />
  <rect x="192" y="192" width="32" height="32" fill="#A3BFD8" />
  <rect x="224" y="192" width="32" height="32" fill="#000000" />
  <rect x="0" y="224" width="32" height="32" fill="#000000" />
  <rect x="32" y="224" width="32" height="32" fill="#000000" />
  <rect x="64" y="224" width="32" height="32" fill="#000000" />
  <rect x="96" y="224" width="32" height="32" fill="#A3BFD8" />
  <rect x="128" y="224" width="32" height="32" fill="#000000" />
  <rect x="160" y="224" width="32" height="32" fill="#000000" />
  <rect x="192" y="224" width="32" height="32" fill="#A3BFD8" />
  <rect x="224" y="224" width="32" height="32" fill="#000000" />
</svg>
