<svg xmlns="http://www.w3.org/2000/svg" width="256" height="256" viewBox="0 0 256 256" shape-rendering="crispEdges" role="img" aria-labelledby="title desc">
  <title id="title">Emotional Tension</title>
  <desc id="desc">This artwork encapsulates the tension between joy and grief. The warm yellow and orange hues suggest joy, while deep blue and muted purple evoke a sense of sorrow. The layout reflects a vertical flow from grief below to joy above, signifying a journey through emotional influence. The use of random cracks and broken pixels contributes to the theme of imperfection inherent in both joy and grief. The contrast between dense, warm areas and cooler expanses generates a feeling of conflict and balance, where joy attempts to break through the heaviness of grief.</desc>
  <rect width="256" height="256" fill="#FFFFFF" />
  <rect x="0" y="0" width="32" height="32" fill="#FFC107" />
  <rect x="32" y="0" width="32" height="32" fill="#FF5722" />
  <rect x="64" y="0" width="32" height="32" fill="#FF9800" />
  <rect x="96" y="0" width="32" height="32" fill="#FFEB3B" />
  <rect x="128" y="0" width="32" height="32" fill="#673AB7" />
  <rect x="160" y="0" width="32" height="32" fill="#3F51B5" />
  <rect x="192" y="0" width="32" height="32" fill="#1E88E5" />
  <rect x="224" y="0" width="32" height="32" fill="#196F3D" />
  <rect x="0" y="32" width="32" height="32" fill="#FFD54F" />
  <rect x="32" y="32" width="32" height="32" fill="#FF7043" />
  <rect x="64" y="32" width="32" height="32" fill="#FFCA28" />
  <rect x="96" y="32" width="32" height="32" fill="#FBC02D" />
  <rect x="128" y="32" width="32" height="32" fill="#9C27B0" />
  <rect x="160" y="32" width="32" height="32" fill="#5C6BC0" />
  <rect x="192" y="32" width="32" height="32" fill="#039BE5" />
  <rect x="224" y="32" width="32" height="32" fill="#43A047" />
  <rect x="0" y="64" width="32" height="32" fill="#FFEB3B" />
  <rect x="32" y="64" width="32" height="32" fill="#FF9800" />
  <rect x="64" y="64" width="32" height="32" fill="#FF5722" />
  <rect x="96" y="64" width="32" height="32" fill="#FFEB3B" />
  <rect x="128" y="64" width="32" height="32" fill="#673AB7" />
  <rect x="160" y="64" width="32" height="32" fill="#3949AB" />
  <rect x="192" y="64" width="32" height="32" fill="#0D47A1" />
  <rect x="224" y="64" width="32" height="32" fill="#3E2723" />
  <rect x="0" y="96" width="32" height="32" fill="#FFCA28" />
  <rect x="32" y="96" width="32" height="32" fill="#FFA000" />
  <rect x="64" y="96" width="32" height="32" fill="#FF7043" />
  <rect x="96" y="96" width="32" height="32" fill="#FFEB3B" />
  <rect x="128" y="96" width="32" height="32" fill="#AB47BC" />
  <rect x="160" y="96" width="32" height="32" fill="#512DA8" />
  <rect x="192" y="96" width="32" height="32" fill="#1976D2" />
  <rect x="224" y="96" width="32" height="32" fill="#004D40" />
  <rect x="0" y="128" width="32" height="32" fill="#FBC02D" />
  <rect x="32" y="128" width="32" height="32" fill="#F57F20" />
  <rect x="64" y="128" width="32" height="32" fill="#FF726F" />
  <rect x="96" y="128" width="32" height="32" fill="#FFC107" />
  <rect x="128" y="128" width="32" height="32" fill="#673AB7" />
  <rect x="160" y="128" width="32" height="32" fill="#303F9F" />
  <rect x="192" y="128" width="32" height="32" fill="#036F8E" />
  <rect x="224" y="128" width="32" height="32" fill="#1A1A1A" />
  <rect x="0" y="160" width="32" height="32" fill="#FFCC80" />
  <rect x="32" y="160" width="32" height="32" fill="#FF6F00" />
  <rect x="64" y="160" width="32" height="32" fill="#FF5252" />
  <rect x="96" y="160" width="32" height="32" fill="#FFD600" />
  <rect x="128" y="160" width="32" height="32" fill="#5E35B1" />
  <rect x="160" y="160" width="32" height="32" fill="#3D5AFE" />
  <rect x="192" y="160" width="32" height="32" fill="#0288D1" />
  <rect x="224" y="160" width="32" height="32" fill="#004D40" />
  <rect x="0" y="192" width="32" height="32" fill="#FFEB3B" />
  <rect x="32" y="192" width="32" height="32" fill="#FF9100" />
  <rect x="64" y="192" width="32" height="32" fill="#FF3D00" />
  <rect x="96" y="192" width="32" height="32" fill="#FFC107" />
  <rect x="128" y="192" width="32" height="32" fill="#512DA8" />
  <rect x="160" y="192" width="32" height="32" fill="#1976D2" />
  <rect x="192" y="192" width="32" height="32" fill="#00796B" />
  <rect x="224" y="192" width="32" height="32" fill="#212121" />
  <rect x="0" y="224" width="32" height="32" fill="#FBC02D" />
  <rect x="32" y="224" width="32" height="32" fill="#FFD74D" />
  <rect x="64" y="224" width="32" height="32" fill="#FF5722" />
  <rect x="96" y="224" width="32" height="32" fill="#FFCA28" />
  <rect x="128" y="224" width="32" height="32" fill="#6A1B9A" />
  <rect x="160" y="224" width="32" height="32" fill="#4169E1" />
  <rect x="192" y="224" width="32" height="32" fill="#0D47A1" />
  <rect x="224" y="224" width="32" height="32" fill="#303F9F" />
</svg>
