<svg xmlns="http://www.w3.org/2000/svg" width="256" height="256" viewBox="0 0 256 256" shape-rendering="crispEdges" role="img" aria-labelledby="title desc">
  <title id="title">Echoes of Connection</title>
  <desc id="desc">The emotional tone oscillates between isolation and the yearning for connection, using a palette that transitions from warm yellows and oranges representing the warmth of human connection to cool blues and muted purples symbolizing loneliness. The main contrast occurs in the central pixels, where bright colors burst against the darkness, creating a dynamic collision of feelings. This arrangement reflects the contrast between the inner experience of loneliness, which is intricate and dense, and the branching out towards connection, symbolized by the cracks in the radial pattern that disrupt the surrounding noise, evoking a narrative of struggle and search for intimacy.</desc>
  <rect width="256" height="256" fill="#FFFFFF" />
  <rect x="0" y="0" width="32" height="32" fill="#F0C0A0" />
  <rect x="32" y="0" width="32" height="32" fill="#F68E00" />
  <rect x="64" y="0" width="32" height="32" fill="#D96800" />
  <rect x="96" y="0" width="32" height="32" fill="#A55B00" />
  <rect x="128" y="0" width="32" height="32" fill="#4A3B00" />
  <rect x="160" y="0" width="32" height="32" fill="#2B2A40" />
  <rect x="192" y="0" width="32" height="32" fill="#1E1C70" />
  <rect x="224" y="0" width="32" height="32" fill="#2E2A8C" />
  <rect x="0" y="32" width="32" height="32" fill="#F0C0A0" />
  <rect x="32" y="32" width="32" height="32" fill="#F68E00" />
  <rect x="64" y="32" width="32" height="32" fill="#D96800" />
  <rect x="96" y="32" width="32" height="32" fill="#A55B00" />
  <rect x="128" y="32" width="32" height="32" fill="#0E0C70" />
  <rect x="160" y="32" width="32" height="32" fill="#1A1B90" />
  <rect x="192" y="32" width="32" height="32" fill="#2E2F9C" />
  <rect x="224" y="32" width="32" height="32" fill="#4D4D80" />
  <rect x="0" y="64" width="32" height="32" fill="#F0C0A0" />
  <rect x="32" y="64" width="32" height="32" fill="#F68E00" />
  <rect x="64" y="64" width="32" height="32" fill="#BF3A00" />
  <rect x="96" y="64" width="32" height="32" fill="#7F2A00" />
  <rect x="128" y="64" width="32" height="32" fill="#1A1B90" />
  <rect x="160" y="64" width="32" height="32" fill="#3C3D9D" />
  <rect x="192" y="64" width="32" height="32" fill="#5A5A84" />
  <rect x="224" y="64" width="32" height="32" fill="#2A2B9C" />
  <rect x="0" y="96" width="32" height="32" fill="#BAA28B" />
  <rect x="32" y="96" width="32" height="32" fill="#D2B000" />
  <rect x="64" y="96" width="32" height="32" fill="#B20000" />
  <rect x="96" y="96" width="32" height="32" fill="#400D00" />
  <rect x="128" y="96" width="32" height="32" fill="#1A1B90" />
  <rect x="160" y="96" width="32" height="32" fill="#4D7E9B" />
  <rect x="192" y="96" width="32" height="32" fill="#606F88" />
  <rect x="224" y="96" width="32" height="32" fill="#3C3F7D" />
  <rect x="0" y="128" width="32" height="32" fill="#BF9C7D" />
  <rect x="32" y="128" width="32" height="32" fill="#D6B800" />
  <rect x="64" y="128" width="32" height="32" fill="#AA4D00" />
  <rect x="96" y="128" width="32" height="32" fill="#A50000" />
  <rect x="128" y="128" width="32" height="32" fill="#1A1B90" />
  <rect x="160" y="128" width="32" height="32" fill="#4D3D72" />
  <rect x="192" y="128" width="32" height="32" fill="#607D7C" />
  <rect x="224" y="128" width="32" height="32" fill="#383856" />
  <rect x="0" y="160" width="32" height="32" fill="#A09182" />
  <rect x="32" y="160" width="32" height="32" fill="#E0C200" />
  <rect x="64" y="160" width="32" height="32" fill="#DA6100" />
  <rect x="96" y="160" width="32" height="32" fill="#DA2B00" />
  <rect x="128" y="160" width="32" height="32" fill="#1A1B90" />
  <rect x="160" y="160" width="32" height="32" fill="#4D3D72" />
  <rect x="192" y="160" width="32" height="32" fill="#85A697" />
  <rect x="224" y="160" width="32" height="32" fill="#424052" />
  <rect x="0" y="192" width="32" height="32" fill="#5D2B4E" />
  <rect x="32" y="192" width="32" height="32" fill="#F68E00" />
  <rect x="64" y="192" width="32" height="32" fill="#B7A125" />
  <rect x="96" y="192" width="32" height="32" fill="#A50000" />
  <rect x="128" y="192" width="32" height="32" fill="#2A2A94" />
  <rect x="160" y="192" width="32" height="32" fill="#4D3D72" />
  <rect x="192" y="192" width="32" height="32" fill="#3C3E7B" />
  <rect x="224" y="192" width="32" height="32" fill="#1C1B5A" />
  <rect x="0" y="224" width="32" height="32" fill="#C4A77A" />
  <rect x="32" y="224" width="32" height="32" fill="#F68E00" />
  <rect x="64" y="224" width="32" height="32" fill="#D2A600" />
  <rect x="96" y="224" width="32" height="32" fill="#8B5B00" />
  <rect x="128" y="224" width="32" height="32" fill="#2A2A8C" />
  <rect x="160" y="224" width="32" height="32" fill="#1E1C70" />
  <rect x="192" y="224" width="32" height="32" fill="#3C3F75" />
  <rect x="224" y="224" width="32" height="32" fill="#0E0B4B" />
</svg>
