<svg xmlns="http://www.w3.org/2000/svg" width="256" height="256" viewBox="0 0 256 256" shape-rendering="crispEdges" role="img" aria-labelledby="title desc">
  <title id="title">Tension Release</title>
  <desc id="desc">This composition captures the emotional tension of 'quiet vs pressure' by contrasting dense, crowded segments with soft, muted fields. The selected palette utilizes 'quiet_pressure' colors, featuring compressed red and dark navy as the pressure element, while off-white and faint peach introduce a calming influence. The main collision occurs diagonally across the square, where the pressure is concentrated in the top-left corner, loosening gradually as it flows towards the bottom-right. This dynamic creates a visual narrative that echoes the seed's themes of conflict and resolution, while remaining abstract and avoiding literal interpretation.</desc>
  <rect width="256" height="256" fill="#FFFFFF" />
  <rect x="0" y="0" width="32" height="32" fill="#FF6F61" />
  <rect x="32" y="0" width="32" height="32" fill="#FF6F61" />
  <rect x="64" y="0" width="32" height="32" fill="#FF6F61" />
  <rect x="96" y="0" width="32" height="32" fill="#000000" />
  <rect x="128" y="0" width="32" height="32" fill="#000000" />
  <rect x="160" y="0" width="32" height="32" fill="#000000" />
  <rect x="192" y="0" width="32" height="32" fill="#000000" />
  <rect x="224" y="0" width="32" height="32" fill="#E0E0E0" />
  <rect x="0" y="32" width="32" height="32" fill="#FF6F61" />
  <rect x="32" y="32" width="32" height="32" fill="#FF6F61" />
  <rect x="64" y="32" width="32" height="32" fill="#FF6F61" />
  <rect x="96" y="32" width="32" height="32" fill="#000000" />
  <rect x="128" y="32" width="32" height="32" fill="#F5F5F5" />
  <rect x="160" y="32" width="32" height="32" fill="#F5F5F5" />
  <rect x="192" y="32" width="32" height="32" fill="#E0E0E0" />
  <rect x="224" y="32" width="32" height="32" fill="#E0E0E0" />
  <rect x="0" y="64" width="32" height="32" fill="#FF6F61" />
  <rect x="32" y="64" width="32" height="32" fill="#FF6F61" />
  <rect x="64" y="64" width="32" height="32" fill="#FF6F61" />
  <rect x="96" y="64" width="32" height="32" fill="#F5F5F5" />
  <rect x="128" y="64" width="32" height="32" fill="#F5F5F5" />
  <rect x="160" y="64" width="32" height="32" fill="#E0E0E0" />
  <rect x="192" y="64" width="32" height="32" fill="#E0E0E0" />
  <rect x="224" y="64" width="32" height="32" fill="#A0A0A0" />
  <rect x="0" y="96" width="32" height="32" fill="#FF6F61" />
  <rect x="32" y="96" width="32" height="32" fill="#000000" />
  <rect x="64" y="96" width="32" height="32" fill="#F5F5F5" />
  <rect x="96" y="96" width="32" height="32" fill="#F5F5F5" />
  <rect x="128" y="96" width="32" height="32" fill="#A0A0A0" />
  <rect x="160" y="96" width="32" height="32" fill="#A0A0A0" />
  <rect x="192" y="96" width="32" height="32" fill="#D0D0D0" />
  <rect x="224" y="96" width="32" height="32" fill="#D0D0D0" />
  <rect x="0" y="128" width="32" height="32" fill="#A0A0A0" />
  <rect x="32" y="128" width="32" height="32" fill="#000000" />
  <rect x="64" y="128" width="32" height="32" fill="#A0A0A0" />
  <rect x="96" y="128" width="32" height="32" fill="#D0D0D0" />
  <rect x="128" y="128" width="32" height="32" fill="#D0D0D0" />
  <rect x="160" y="128" width="32" height="32" fill="#B0B0B0" />
  <rect x="192" y="128" width="32" height="32" fill="#B0B0B0" />
  <rect x="224" y="128" width="32" height="32" fill="#FFFFFF" />
  <rect x="0" y="160" width="32" height="32" fill="#A0A0A0" />
  <rect x="32" y="160" width="32" height="32" fill="#A0A0A0" />
  <rect x="64" y="160" width="32" height="32" fill="#B0B0B0" />
  <rect x="96" y="160" width="32" height="32" fill="#B0B0B0" />
  <rect x="128" y="160" width="32" height="32" fill="#FFFFFF" />
  <rect x="160" y="160" width="32" height="32" fill="#FFFFFF" />
  <rect x="192" y="160" width="32" height="32" fill="#FFFFFF" />
  <rect x="224" y="160" width="32" height="32" fill="#FFFFFF" />
  <rect x="0" y="192" width="32" height="32" fill="#E0E0E0" />
  <rect x="32" y="192" width="32" height="32" fill="#B0B0B0" />
  <rect x="64" y="192" width="32" height="32" fill="#B0B0B0" />
  <rect x="96" y="192" width="32" height="32" fill="#FFFFFF" />
  <rect x="128" y="192" width="32" height="32" fill="#FFFFFF" />
  <rect x="160" y="192" width="32" height="32" fill="#FFFFFF" />
  <rect x="192" y="192" width="32" height="32" fill="#FFFFFF" />
  <rect x="224" y="192" width="32" height="32" fill="#FFFFFF" />
  <rect x="0" y="224" width="32" height="32" fill="#E0E0E0" />
  <rect x="32" y="224" width="32" height="32" fill="#E0E0E0" />
  <rect x="64" y="224" width="32" height="32" fill="#FFFFFF" />
  <rect x="96" y="224" width="32" height="32" fill="#FFFFFF" />
  <rect x="128" y="224" width="32" height="32" fill="#FFFFFF" />
  <rect x="160" y="224" width="32" height="32" fill="#FFFFFF" />
  <rect x="192" y="224" width="32" height="32" fill="#FFFFFF" />
  <rect x="224" y="224" width="32" height="32" fill="#FFFFFF" />
</svg>
