<svg xmlns="http://www.w3.org/2000/svg" width="256" height="256" viewBox="0 0 256 256" shape-rendering="crispEdges" role="img" aria-labelledby="title desc">
  <title id="title">Dynamic Echo</title>
  <desc id="desc">This composition reflects a tension between joy and grief, utilizing a palette of warm yellows and oranges against cooler deep blues and muted purples. The light and spark-like patterns symbolize joy, while the dispersed checker pattern evokes grief, embodying the collision of emotional states. The asymmetry in color placement creates a pulse-like activity, echoing the 'order vs chaos' theme, leading to intersections that suggest unresolved intersection. Such juxtapositions mirror the themes from the seed, emphasizing an abstract story of emotional conflict and balance.</desc>
  <rect width="256" height="256" fill="#FFFFFF" />
  <rect x="0" y="0" width="32" height="32" fill="#FFCC00" />
  <rect x="32" y="0" width="32" height="32" fill="#FF9900" />
  <rect x="64" y="0" width="32" height="32" fill="#FF6600" />
  <rect x="96" y="0" width="32" height="32" fill="#FF3300" />
  <rect x="128" y="0" width="32" height="32" fill="#FFFF00" />
  <rect x="160" y="0" width="32" height="32" fill="#FFD700" />
  <rect x="192" y="0" width="32" height="32" fill="#FF4500" />
  <rect x="224" y="0" width="32" height="32" fill="#F2A900" />
  <rect x="0" y="32" width="32" height="32" fill="#003366" />
  <rect x="32" y="32" width="32" height="32" fill="#004080" />
  <rect x="64" y="32" width="32" height="32" fill="#00509E" />
  <rect x="96" y="32" width="32" height="32" fill="#003D6B" />
  <rect x="128" y="32" width="32" height="32" fill="#006699" />
  <rect x="160" y="32" width="32" height="32" fill="#00577A" />
  <rect x="192" y="32" width="32" height="32" fill="#004D4D" />
  <rect x="224" y="32" width="32" height="32" fill="#002D2D" />
  <rect x="0" y="64" width="32" height="32" fill="#660066" />
  <rect x="32" y="64" width="32" height="32" fill="#800080" />
  <rect x="64" y="64" width="32" height="32" fill="#990099" />
  <rect x="96" y="64" width="32" height="32" fill="#AA00CC" />
  <rect x="128" y="64" width="32" height="32" fill="#6A0DC0" />
  <rect x="160" y="64" width="32" height="32" fill="#7B68EE" />
  <rect x="192" y="64" width="32" height="32" fill="#8A2BE2" />
  <rect x="224" y="64" width="32" height="32" fill="#6A5ACD" />
  <rect x="0" y="96" width="32" height="32" fill="#FFCC00" />
  <rect x="32" y="96" width="32" height="32" fill="#FF9900" />
  <rect x="64" y="96" width="32" height="32" fill="#FF3300" />
  <rect x="96" y="96" width="32" height="32" fill="#FFCC33" />
  <rect x="128" y="96" width="32" height="32" fill="#FFD700" />
  <rect x="160" y="96" width="32" height="32" fill="#F9A800" />
  <rect x="192" y="96" width="32" height="32" fill="#FF6600" />
  <rect x="224" y="96" width="32" height="32" fill="#FFA500" />
  <rect x="0" y="128" width="32" height="32" fill="#003366" />
  <rect x="32" y="128" width="32" height="32" fill="#004080" />
  <rect x="64" y="128" width="32" height="32" fill="#00509E" />
  <rect x="96" y="128" width="32" height="32" fill="#003D6B" />
  <rect x="128" y="128" width="32" height="32" fill="#006699" />
  <rect x="160" y="128" width="32" height="32" fill="#00577A" />
  <rect x="192" y="128" width="32" height="32" fill="#004D4D" />
  <rect x="224" y="128" width="32" height="32" fill="#002D2D" />
  <rect x="0" y="160" width="32" height="32" fill="#660066" />
  <rect x="32" y="160" width="32" height="32" fill="#800080" />
  <rect x="64" y="160" width="32" height="32" fill="#990099" />
  <rect x="96" y="160" width="32" height="32" fill="#AA00CC" />
  <rect x="128" y="160" width="32" height="32" fill="#6A0DC0" />
  <rect x="160" y="160" width="32" height="32" fill="#7B68EE" />
  <rect x="192" y="160" width="32" height="32" fill="#8A2BE2" />
  <rect x="224" y="160" width="32" height="32" fill="#6A5ACD" />
  <rect x="0" y="192" width="32" height="32" fill="#FFCC00" />
  <rect x="32" y="192" width="32" height="32" fill="#FF9900" />
  <rect x="64" y="192" width="32" height="32" fill="#FF6600" />
  <rect x="96" y="192" width="32" height="32" fill="#FF3300" />
  <rect x="128" y="192" width="32" height="32" fill="#FFFF00" />
  <rect x="160" y="192" width="32" height="32" fill="#FFD700" />
  <rect x="192" y="192" width="32" height="32" fill="#FF4500" />
  <rect x="224" y="192" width="32" height="32" fill="#F2A900" />
  <rect x="0" y="224" width="32" height="32" fill="#003366" />
  <rect x="32" y="224" width="32" height="32" fill="#004080" />
  <rect x="64" y="224" width="32" height="32" fill="#00509E" />
  <rect x="96" y="224" width="32" height="32" fill="#003D6B" />
  <rect x="128" y="224" width="32" height="32" fill="#006699" />
  <rect x="160" y="224" width="32" height="32" fill="#00577A" />
  <rect x="192" y="224" width="32" height="32" fill="#004D4D" />
  <rect x="224" y="224" width="32" height="32" fill="#002D2D" />
</svg>
