<svg xmlns="http://www.w3.org/2000/svg" width="256" height="256" viewBox="0 0 256 256" shape-rendering="crispEdges" role="img" aria-labelledby="title desc">
  <title id="title">Echoes of Connection</title>
  <desc id="desc">This composition embodies the tension between loneliness and connection through a carefully chosen palette of soft pinks and deep maroons, evoking warmth offset by a sense of isolation. The grid structure symbolizes connection, yet is disrupted by fragments of darker tones that suggest feelings of being hidden or separate. The first row creates an emerging pattern, while lower rows fade into an echo, intensifying the contrast and suggesting an emotional burst near the center. The arrangement captures the narrative of search for connection amidst feelings of solitude, where warmth and isolation collide.</desc>
  <rect width="256" height="256" fill="#FFFFFF" />
  <rect x="0" y="0" width="32" height="32" fill="#F8C8D6" />
  <rect x="32" y="0" width="32" height="32" fill="#FDC8D6" />
  <rect x="64" y="0" width="32" height="32" fill="#EEB4C2" />
  <rect x="96" y="0" width="32" height="32" fill="#D7A4A0" />
  <rect x="128" y="0" width="32" height="32" fill="#E68A92" />
  <rect x="160" y="0" width="32" height="32" fill="#CB4856" />
  <rect x="192" y="0" width="32" height="32" fill="#9A1A2A" />
  <rect x="224" y="0" width="32" height="32" fill="#3B0E0E" />
  <rect x="0" y="32" width="32" height="32" fill="#F1D1D4" />
  <rect x="32" y="32" width="32" height="32" fill="#F8C8D6" />
  <rect x="64" y="32" width="32" height="32" fill="#D7B3C3" />
  <rect x="96" y="32" width="32" height="32" fill="#A14C66" />
  <rect x="128" y="32" width="32" height="32" fill="#9A2B4E" />
  <rect x="160" y="32" width="32" height="32" fill="#912724" />
  <rect x="192" y="32" width="32" height="32" fill="#857C7C" />
  <rect x="224" y="32" width="32" height="32" fill="#333333" />
  <rect x="0" y="64" width="32" height="32" fill="#E6A8B0" />
  <rect x="32" y="64" width="32" height="32" fill="#FCD1D1" />
  <rect x="64" y="64" width="32" height="32" fill="#E3C4C6" />
  <rect x="96" y="64" width="32" height="32" fill="#D9C3B0" />
  <rect x="128" y="64" width="32" height="32" fill="#C0ABAE" />
  <rect x="160" y="64" width="32" height="32" fill="#81575D" />
  <rect x="192" y="64" width="32" height="32" fill="#6A4646" />
  <rect x="224" y="64" width="32" height="32" fill="#444444" />
  <rect x="0" y="96" width="32" height="32" fill="#F0DBDB" />
  <rect x="32" y="96" width="32" height="32" fill="#A500A0" />
  <rect x="64" y="96" width="32" height="32" fill="#7C4C66" />
  <rect x="96" y="96" width="32" height="32" fill="#747171" />
  <rect x="128" y="96" width="32" height="32" fill="#545151" />
  <rect x="160" y="96" width="32" height="32" fill="#323232" />
  <rect x="192" y="96" width="32" height="32" fill="#1A1A1A" />
  <rect x="224" y="96" width="32" height="32" fill="#000000" />
  <rect x="0" y="128" width="32" height="32" fill="#FF8A8A" />
  <rect x="32" y="128" width="32" height="32" fill="#FF4D4D" />
  <rect x="64" y="128" width="32" height="32" fill="#B65A5A" />
  <rect x="96" y="128" width="32" height="32" fill="#7B2525" />
  <rect x="128" y="128" width="32" height="32" fill="#6C3B3B" />
  <rect x="160" y="128" width="32" height="32" fill="#5F2E2E" />
  <rect x="192" y="128" width="32" height="32" fill="#481C1C" />
  <rect x="224" y="128" width="32" height="32" fill="#010101" />
  <rect x="0" y="160" width="32" height="32" fill="#F8C4C6" />
  <rect x="32" y="160" width="32" height="32" fill="#F1DFDF" />
  <rect x="64" y="160" width="32" height="32" fill="#F6D5D5" />
  <rect x="96" y="160" width="32" height="32" fill="#F3B8B9" />
  <rect x="128" y="160" width="32" height="32" fill="#D9B3B2" />
  <rect x="160" y="160" width="32" height="32" fill="#E3D5D5" />
  <rect x="192" y="160" width="32" height="32" fill="#FDC6C6" />
  <rect x="224" y="160" width="32" height="32" fill="#D6E0E0" />
  <rect x="0" y="192" width="32" height="32" fill="#E0A3A7" />
  <rect x="32" y="192" width="32" height="32" fill="#D1C3C8" />
  <rect x="64" y="192" width="32" height="32" fill="#F7B5B5" />
  <rect x="96" y="192" width="32" height="32" fill="#F98181" />
  <rect x="128" y="192" width="32" height="32" fill="#D94545" />
  <rect x="160" y="192" width="32" height="32" fill="#751717" />
  <rect x="192" y="192" width="32" height="32" fill="#422424" />
  <rect x="224" y="192" width="32" height="32" fill="#111111" />
  <rect x="0" y="224" width="32" height="32" fill="#F28B8B" />
  <rect x="32" y="224" width="32" height="32" fill="#D95A5A" />
  <rect x="64" y="224" width="32" height="32" fill="#C74A4A" />
  <rect x="96" y="224" width="32" height="32" fill="#921C1C" />
  <rect x="128" y="224" width="32" height="32" fill="#2E2A2B" />
  <rect x="160" y="224" width="32" height="32" fill="#1E1E1E" />
  <rect x="192" y="224" width="32" height="32" fill="#0E0E0E" />
  <rect x="224" y="224" width="32" height="32" fill="#000000" />
</svg>
