<svg xmlns="http://www.w3.org/2000/svg" width="256" height="256" viewBox="0 0 256 256" shape-rendering="crispEdges" role="img" aria-labelledby="title desc">
  <title id="title">Tension of Release</title>
  <desc id="desc">The emotional tone reflects a conflict between control and surrender. The palette, featuring warm shadows and distant lilacs, suggests intimacy against cool distances, creating tension. The main collision occurs in the center where warm colors abruptly interact with cooler hues, embodying an overfilled energy juxtaposed with subtle releases towards the edges. The moon shape serves as a metaphor for quiet distance and suspended tension, maintaining a controlled chaos in the arrangement, using broken pixels to imply disruption and imperfect beauty.</desc>
  <rect width="256" height="256" fill="#FFFFFF" />
  <rect x="0" y="0" width="32" height="32" fill="#B28D8B" />
  <rect x="32" y="0" width="32" height="32" fill="#B8A0A9" />
  <rect x="64" y="0" width="32" height="32" fill="#F0F0F0" />
  <rect x="96" y="0" width="32" height="32" fill="#D9A658" />
  <rect x="128" y="0" width="32" height="32" fill="#C0A5B6" />
  <rect x="160" y="0" width="32" height="32" fill="#2D3A66" />
  <rect x="192" y="0" width="32" height="32" fill="#5C74B8" />
  <rect x="224" y="0" width="32" height="32" fill="#C7C5CD" />
  <rect x="0" y="32" width="32" height="32" fill="#B8A0A9" />
  <rect x="32" y="32" width="32" height="32" fill="#F0F0F0" />
  <rect x="64" y="32" width="32" height="32" fill="#B28D8B" />
  <rect x="96" y="32" width="32" height="32" fill="#D9A658" />
  <rect x="128" y="32" width="32" height="32" fill="#D4C3D9" />
  <rect x="160" y="32" width="32" height="32" fill="#2D3A66" />
  <rect x="192" y="32" width="32" height="32" fill="#5C74B8" />
  <rect x="224" y="32" width="32" height="32" fill="#A5A8A6" />
  <rect x="0" y="64" width="32" height="32" fill="#D9A658" />
  <rect x="32" y="64" width="32" height="32" fill="#F0F0F0" />
  <rect x="64" y="64" width="32" height="32" fill="#C7C5CD" />
  <rect x="96" y="64" width="32" height="32" fill="#2D3A66" />
  <rect x="128" y="64" width="32" height="32" fill="#B28D8B" />
  <rect x="160" y="64" width="32" height="32" fill="#B8A0A9" />
  <rect x="192" y="64" width="32" height="32" fill="#E1C3D9" />
  <rect x="224" y="64" width="32" height="32" fill="#5C74B8" />
  <rect x="0" y="96" width="32" height="32" fill="#C0A5B6" />
  <rect x="32" y="96" width="32" height="32" fill="#C7C5CD" />
  <rect x="64" y="96" width="32" height="32" fill="#D4C3D9" />
  <rect x="96" y="96" width="32" height="32" fill="#B28D8B" />
  <rect x="128" y="96" width="32" height="32" fill="#F0F0F0" />
  <rect x="160" y="96" width="32" height="32" fill="#2D3A66" />
  <rect x="192" y="96" width="32" height="32" fill="#5C74B8" />
  <rect x="224" y="96" width="32" height="32" fill="#B8A0A9" />
  <rect x="0" y="128" width="32" height="32" fill="#5C74B8" />
  <rect x="32" y="128" width="32" height="32" fill="#2D3A66" />
  <rect x="64" y="128" width="32" height="32" fill="#B8A0A9" />
  <rect x="96" y="128" width="32" height="32" fill="#D4C3D9" />
  <rect x="128" y="128" width="32" height="32" fill="#F0F0F0" />
  <rect x="160" y="128" width="32" height="32" fill="#C0A5B6" />
  <rect x="192" y="128" width="32" height="32" fill="#D9A658" />
  <rect x="224" y="128" width="32" height="32" fill="#B28D8B" />
  <rect x="0" y="160" width="32" height="32" fill="#2D3A66" />
  <rect x="32" y="160" width="32" height="32" fill="#5C74B8" />
  <rect x="64" y="160" width="32" height="32" fill="#B8A0A9" />
  <rect x="96" y="160" width="32" height="32" fill="#F0F0F0" />
  <rect x="128" y="160" width="32" height="32" fill="#B28D8B" />
  <rect x="160" y="160" width="32" height="32" fill="#C0A5B6" />
  <rect x="192" y="160" width="32" height="32" fill="#E1C3D9" />
  <rect x="224" y="160" width="32" height="32" fill="#D9A658" />
  <rect x="0" y="192" width="32" height="32" fill="#C7C5CD" />
  <rect x="32" y="192" width="32" height="32" fill="#B28D8B" />
  <rect x="64" y="192" width="32" height="32" fill="#D9A658" />
  <rect x="96" y="192" width="32" height="32" fill="#2D3A66" />
  <rect x="128" y="192" width="32" height="32" fill="#F0F0F0" />
  <rect x="160" y="192" width="32" height="32" fill="#B8A0A9" />
  <rect x="192" y="192" width="32" height="32" fill="#5C74B8" />
  <rect x="224" y="192" width="32" height="32" fill="#D4C3D9" />
  <rect x="0" y="224" width="32" height="32" fill="#E1C3D9" />
  <rect x="32" y="224" width="32" height="32" fill="#C0A5B6" />
  <rect x="64" y="224" width="32" height="32" fill="#D4C3D9" />
  <rect x="96" y="224" width="32" height="32" fill="#B28D8B" />
  <rect x="128" y="224" width="32" height="32" fill="#5C74B8" />
  <rect x="160" y="224" width="32" height="32" fill="#F0F0F0" />
  <rect x="192" y="224" width="32" height="32" fill="#B8A0A9" />
  <rect x="224" y="224" width="32" height="32" fill="#2D3A66" />
</svg>
