<svg xmlns="http://www.w3.org/2000/svg" width="256" height="256" viewBox="0 0 256 256" shape-rendering="crispEdges" role="img" aria-labelledby="title desc">
  <title id="title">Echoes of Resolve</title>
  <desc id="desc">This artwork embodies a tension between longing and resolve, utilizing a palette that suggests resilience and fragility. The moss green represents the earthiness of longing, while the bone white adds a stark contrast of clarity and resolve. The central cluster of darker colors represents the collision of feelings, surrounded by lighter tones that create a serene backdrop, suggesting a quiet space amidst dense clusters of emotion. Broken pixels are used to signify imperfections and the remnants of past experiences, reflecting the theme of repair and damage. The zigzag pattern of the threads arises out of the emotional push-pull, manifesting a narrative of longing infused with urgency, contained yet overflowing in expression.</desc>
  <rect width="256" height="256" fill="#FFFFFF" />
  <rect x="0" y="0" width="32" height="32" fill="#4A6E4D" />
  <rect x="32" y="0" width="32" height="32" fill="#D0C6B4" />
  <rect x="64" y="0" width="32" height="32" fill="#B5543B" />
  <rect x="96" y="0" width="32" height="32" fill="#4F4C4B" />
  <rect x="128" y="0" width="32" height="32" fill="#3E8B6B" />
  <rect x="160" y="0" width="32" height="32" fill="#D7CEB3" />
  <rect x="192" y="0" width="32" height="32" fill="#A05D3C" />
  <rect x="224" y="0" width="32" height="32" fill="#6D4A4A" />
  <rect x="0" y="32" width="32" height="32" fill="#8FA16E" />
  <rect x="32" y="32" width="32" height="32" fill="#F0E7D4" />
  <rect x="64" y="32" width="32" height="32" fill="#D2B67E" />
  <rect x="96" y="32" width="32" height="32" fill="#B5C5B4" />
  <rect x="128" y="32" width="32" height="32" fill="#B67B45" />
  <rect x="160" y="32" width="32" height="32" fill="#C7B5A4" />
  <rect x="192" y="32" width="32" height="32" fill="#4C5B3B" />
  <rect x="224" y="32" width="32" height="32" fill="#E5E0F5" />
  <rect x="0" y="64" width="32" height="32" fill="#DFD6C0" />
  <rect x="32" y="64" width="32" height="32" fill="#A6A65E" />
  <rect x="64" y="64" width="32" height="32" fill="#7B7B7B" />
  <rect x="96" y="64" width="32" height="32" fill="#F3F1F1" />
  <rect x="128" y="64" width="32" height="32" fill="#8B4C2D" />
  <rect x="160" y="64" width="32" height="32" fill="#A5BC8B" />
  <rect x="192" y="64" width="32" height="32" fill="#D2A26F" />
  <rect x="224" y="64" width="32" height="32" fill="#4E5B60" />
  <rect x="0" y="96" width="32" height="32" fill="#BEC0A5" />
  <rect x="32" y="96" width="32" height="32" fill="#BEB153" />
  <rect x="64" y="96" width="32" height="32" fill="#C7895B" />
  <rect x="96" y="96" width="32" height="32" fill="#411B1D" />
  <rect x="128" y="96" width="32" height="32" fill="#D3B8A8" />
  <rect x="160" y="96" width="32" height="32" fill="#5C6D5D" />
  <rect x="192" y="96" width="32" height="32" fill="#E4E6EC" />
  <rect x="224" y="96" width="32" height="32" fill="#88B2B7" />
  <rect x="0" y="128" width="32" height="32" fill="#95B4A5" />
  <rect x="32" y="128" width="32" height="32" fill="#C8D0BA" />
  <rect x="64" y="128" width="32" height="32" fill="#B2A398" />
  <rect x="96" y="128" width="32" height="32" fill="#3F251D" />
  <rect x="128" y="128" width="32" height="32" fill="#9F6C5C" />
  <rect x="160" y="128" width="32" height="32" fill="#DCE1CD" />
  <rect x="192" y="128" width="32" height="32" fill="#BC6B4B" />
  <rect x="224" y="128" width="32" height="32" fill="#A7B3A6" />
  <rect x="0" y="160" width="32" height="32" fill="#AE724A" />
  <rect x="32" y="160" width="32" height="32" fill="#E8E3D4" />
  <rect x="64" y="160" width="32" height="32" fill="#4B5561" />
  <rect x="96" y="160" width="32" height="32" fill="#D5C4A1" />
  <rect x="128" y="160" width="32" height="32" fill="#AB95A8" />
  <rect x="160" y="160" width="32" height="32" fill="#D19F5D" />
  <rect x="192" y="160" width="32" height="32" fill="#834A34" />
  <rect x="224" y="160" width="32" height="32" fill="#2B3528" />
  <rect x="0" y="192" width="32" height="32" fill="#F1E9D5" />
  <rect x="32" y="192" width="32" height="32" fill="#8A8375" />
  <rect x="64" y="192" width="32" height="32" fill="#4D4138" />
  <rect x="96" y="192" width="32" height="32" fill="#CD8C4D" />
  <rect x="128" y="192" width="32" height="32" fill="#769A70" />
  <rect x="160" y="192" width="32" height="32" fill="#B58B5D" />
  <rect x="192" y="192" width="32" height="32" fill="#ECD3C4" />
  <rect x="224" y="192" width="32" height="32" fill="#F3F6F2" />
  <rect x="0" y="224" width="32" height="32" fill="#6B5C4E" />
  <rect x="32" y="224" width="32" height="32" fill="#A2C9A3" />
  <rect x="64" y="224" width="32" height="32" fill="#5E4C32" />
  <rect x="96" y="224" width="32" height="32" fill="#D8CFC3" />
  <rect x="128" y="224" width="32" height="32" fill="#906B5B" />
  <rect x="160" y="224" width="32" height="32" fill="#A89B63" />
  <rect x="192" y="224" width="32" height="32" fill="#F0D8E8" />
  <rect x="224" y="224" width="32" height="32" fill="#7A4E5C" />
</svg>
