<svg xmlns="http://www.w3.org/2000/svg" width="256" height="256" viewBox="0 0 256 256" shape-rendering="crispEdges" role="img" aria-labelledby="title desc">
  <title id="title">Eroded Symmetry</title>
  <desc id="desc">The emotional tone blends longing and resolve, represented by contrasting colors and patterns. The chosen palette reflects safety (shelter green, warm brown) against exposure (cold white, open blue), highlighting tension in their collision. The pattern 'stairs' embodies a feeling of ascension yet unfinished paths, while the 'ripple' suggests fluidity and resolution. The main contrast is central, where warm brown meets open blue, creating a dynamic interplay of density and emptiness, echoing the seed's themes of unresolved emotional currents.</desc>
  <rect width="256" height="256" fill="#FFFFFF" />
  <rect x="0" y="0" width="32" height="32" fill="#5A3E2F" />
  <rect x="32" y="0" width="32" height="32" fill="#438A74" />
  <rect x="64" y="0" width="32" height="32" fill="#C5C1B6" />
  <rect x="96" y="0" width="32" height="32" fill="#E7F4F2" />
  <rect x="128" y="0" width="32" height="32" fill="#5A3E2F" />
  <rect x="160" y="0" width="32" height="32" fill="#E7F4F2" />
  <rect x="192" y="0" width="32" height="32" fill="#C5C1B6" />
  <rect x="224" y="0" width="32" height="32" fill="#438A74" />
  <rect x="0" y="32" width="32" height="32" fill="#C5C1B6" />
  <rect x="32" y="32" width="32" height="32" fill="#5A3E2F" />
  <rect x="64" y="32" width="32" height="32" fill="#E7F4F2" />
  <rect x="96" y="32" width="32" height="32" fill="#438A74" />
  <rect x="128" y="32" width="32" height="32" fill="#C5C1B6" />
  <rect x="160" y="32" width="32" height="32" fill="#5A3E2F" />
  <rect x="192" y="32" width="32" height="32" fill="#E7F4F2" />
  <rect x="224" y="32" width="32" height="32" fill="#C5C1B6" />
  <rect x="0" y="64" width="32" height="32" fill="#E7F4F2" />
  <rect x="32" y="64" width="32" height="32" fill="#5A3E2F" />
  <rect x="64" y="64" width="32" height="32" fill="#438A74" />
  <rect x="96" y="64" width="32" height="32" fill="#C5C1B6" />
  <rect x="128" y="64" width="32" height="32" fill="#E7F4F2" />
  <rect x="160" y="64" width="32" height="32" fill="#5A3E2F" />
  <rect x="192" y="64" width="32" height="32" fill="#438A74" />
  <rect x="224" y="64" width="32" height="32" fill="#C5C1B6" />
  <rect x="0" y="96" width="32" height="32" fill="#438A74" />
  <rect x="32" y="96" width="32" height="32" fill="#C5C1B6" />
  <rect x="64" y="96" width="32" height="32" fill="#E7F4F2" />
  <rect x="96" y="96" width="32" height="32" fill="#5A3E2F" />
  <rect x="128" y="96" width="32" height="32" fill="#C5C1B6" />
  <rect x="160" y="96" width="32" height="32" fill="#E7F4F2" />
  <rect x="192" y="96" width="32" height="32" fill="#5A3E2F" />
  <rect x="224" y="96" width="32" height="32" fill="#438A74" />
  <rect x="0" y="128" width="32" height="32" fill="#5A3E2F" />
  <rect x="32" y="128" width="32" height="32" fill="#C5C1B6" />
  <rect x="64" y="128" width="32" height="32" fill="#E7F4F2" />
  <rect x="96" y="128" width="32" height="32" fill="#438A74" />
  <rect x="128" y="128" width="32" height="32" fill="#5A3E2F" />
  <rect x="160" y="128" width="32" height="32" fill="#E7F4F2" />
  <rect x="192" y="128" width="32" height="32" fill="#438A74" />
  <rect x="224" y="128" width="32" height="32" fill="#C5C1B6" />
  <rect x="0" y="160" width="32" height="32" fill="#C5C1B6" />
  <rect x="32" y="160" width="32" height="32" fill="#E7F4F2" />
  <rect x="64" y="160" width="32" height="32" fill="#5A3E2F" />
  <rect x="96" y="160" width="32" height="32" fill="#438A74" />
  <rect x="128" y="160" width="32" height="32" fill="#C5C1B6" />
  <rect x="160" y="160" width="32" height="32" fill="#E7F4F2" />
  <rect x="192" y="160" width="32" height="32" fill="#5A3E2F" />
  <rect x="224" y="160" width="32" height="32" fill="#438A74" />
  <rect x="0" y="192" width="32" height="32" fill="#E7F4F2" />
  <rect x="32" y="192" width="32" height="32" fill="#5A3E2F" />
  <rect x="64" y="192" width="32" height="32" fill="#C5C1B6" />
  <rect x="96" y="192" width="32" height="32" fill="#438A74" />
  <rect x="128" y="192" width="32" height="32" fill="#E7F4F2" />
  <rect x="160" y="192" width="32" height="32" fill="#C5C1B6" />
  <rect x="192" y="192" width="32" height="32" fill="#5A3E2F" />
  <rect x="224" y="192" width="32" height="32" fill="#438A74" />
  <rect x="0" y="224" width="32" height="32" fill="#438A74" />
  <rect x="32" y="224" width="32" height="32" fill="#C5C1B6" />
  <rect x="64" y="224" width="32" height="32" fill="#E7F4F2" />
  <rect x="96" y="224" width="32" height="32" fill="#5A3E2F" />
  <rect x="128" y="224" width="32" height="32" fill="#438A74" />
  <rect x="160" y="224" width="32" height="32" fill="#C5C1B6" />
  <rect x="192" y="224" width="32" height="32" fill="#E7F4F2" />
  <rect x="224" y="224" width="32" height="32" fill="#5A3E2F" />
</svg>
