<svg xmlns="http://www.w3.org/2000/svg" width="256" height="256" viewBox="0 0 256 256" shape-rendering="crispEdges" role="img" aria-labelledby="title desc">
  <title id="title">Ordered Fracture</title>
  <desc id="desc">The emotional tone centers on the tension between restlessness and peace, embodied through a palette that balances deep blue's calmness with mourning black's intensity. The positioning of colors creates a chaotic upward flow that collides with the tranquility represented in pale yellow, suggesting fragmentation within stability. The central diagonal pattern embodies both memory and motion, while broken pixels add an element of disruption that signifies unresolved emotions. This artwork emerges from the interplay of structure and chaos, reflecting the complexities of human experience.</desc>
  <rect width="256" height="256" fill="#FFFFFF" />
  <rect x="0" y="0" width="32" height="32" fill="#000000" />
  <rect x="32" y="0" width="32" height="32" fill="#000000" />
  <rect x="64" y="0" width="32" height="32" fill="#111E6B" />
  <rect x="96" y="0" width="32" height="32" fill="#111E6B" />
  <rect x="128" y="0" width="32" height="32" fill="#999D10" />
  <rect x="160" y="0" width="32" height="32" fill="#F2E7A3" />
  <rect x="192" y="0" width="32" height="32" fill="#F2E7A3" />
  <rect x="224" y="0" width="32" height="32" fill="#D4C300" />
  <rect x="0" y="32" width="32" height="32" fill="#111E6B" />
  <rect x="32" y="32" width="32" height="32" fill="#222E73" />
  <rect x="64" y="32" width="32" height="32" fill="#007A66" />
  <rect x="96" y="32" width="32" height="32" fill="#007A66" />
  <rect x="128" y="32" width="32" height="32" fill="#F2E7A3" />
  <rect x="160" y="32" width="32" height="32" fill="#D4C300" />
  <rect x="192" y="32" width="32" height="32" fill="#D4C300" />
  <rect x="224" y="32" width="32" height="32" fill="#999D10" />
  <rect x="0" y="64" width="32" height="32" fill="#111E6B" />
  <rect x="32" y="64" width="32" height="32" fill="#007A66" />
  <rect x="64" y="64" width="32" height="32" fill="#111E6B" />
  <rect x="96" y="64" width="32" height="32" fill="#F2E7A3" />
  <rect x="128" y="64" width="32" height="32" fill="#D4C300" />
  <rect x="160" y="64" width="32" height="32" fill="#999D10" />
  <rect x="192" y="64" width="32" height="32" fill="#AAAAAA" />
  <rect x="224" y="64" width="32" height="32" fill="#BBBBBB" />
  <rect x="0" y="96" width="32" height="32" fill="#222E73" />
  <rect x="32" y="96" width="32" height="32" fill="#007A66" />
  <rect x="64" y="96" width="32" height="32" fill="#F2E7A3" />
  <rect x="96" y="96" width="32" height="32" fill="#999D10" />
  <rect x="128" y="96" width="32" height="32" fill="#AAAAAA" />
  <rect x="160" y="96" width="32" height="32" fill="#BBBF70" />
  <rect x="192" y="96" width="32" height="32" fill="#CCCCCC" />
  <rect x="224" y="96" width="32" height="32" fill="#DDDDDD" />
  <rect x="0" y="128" width="32" height="32" fill="#003F52" />
  <rect x="32" y="128" width="32" height="32" fill="#007A66" />
  <rect x="64" y="128" width="32" height="32" fill="#F2E7A3" />
  <rect x="96" y="128" width="32" height="32" fill="#CCCCCC" />
  <rect x="128" y="128" width="32" height="32" fill="#AAAAAA" />
  <rect x="160" y="128" width="32" height="32" fill="#BBBF70" />
  <rect x="192" y="128" width="32" height="32" fill="#FFFFFF" />
  <rect x="224" y="128" width="32" height="32" fill="#EFEFEF" />
  <rect x="0" y="160" width="32" height="32" fill="#000000" />
  <rect x="32" y="160" width="32" height="32" fill="#003F52" />
  <rect x="64" y="160" width="32" height="32" fill="#999D10" />
  <rect x="96" y="160" width="32" height="32" fill="#D4C300" />
  <rect x="128" y="160" width="32" height="32" fill="#FFC0CB" />
  <rect x="160" y="160" width="32" height="32" fill="#FFFFFF" />
  <rect x="192" y="160" width="32" height="32" fill="#EFEFEF" />
  <rect x="224" y="160" width="32" height="32" fill="#FFFFFF" />
  <rect x="0" y="192" width="32" height="32" fill="#000000" />
  <rect x="32" y="192" width="32" height="32" fill="#222E73" />
  <rect x="64" y="192" width="32" height="32" fill="#D4C300" />
  <rect x="96" y="192" width="32" height="32" fill="#FFC0CB" />
  <rect x="128" y="192" width="32" height="32" fill="#FFFFFF" />
  <rect x="160" y="192" width="32" height="32" fill="#EFEFEF" />
  <rect x="192" y="192" width="32" height="32" fill="#FFFFFF" />
  <rect x="224" y="192" width="32" height="32" fill="#FFFFFF" />
  <rect x="0" y="224" width="32" height="32" fill="#111E6B" />
  <rect x="32" y="224" width="32" height="32" fill="#000000" />
  <rect x="64" y="224" width="32" height="32" fill="#003F52" />
  <rect x="96" y="224" width="32" height="32" fill="#F2E7A3" />
  <rect x="128" y="224" width="32" height="32" fill="#FFFFFF" />
  <rect x="160" y="224" width="32" height="32" fill="#FFFFFF" />
  <rect x="192" y="224" width="32" height="32" fill="#FFFFFF" />
  <rect x="224" y="224" width="32" height="32" fill="#FFFFFF" />
</svg>
