<svg xmlns="http://www.w3.org/2000/svg" width="256" height="256" viewBox="0 0 256 256" shape-rendering="crispEdges" role="img" aria-labelledby="title desc">
  <title id="title">Echoes of Contrast</title>
  <desc id="desc">This composition embodies the emotional tension between softness and severity through a palette of contrasting colors. The top half utilizes soft tones of powder pink and warm white to create a sense of calm and gentle blending, representing softness. The bottom half shifts to stark carbon black and sharp crimson, reflecting a harsh and severe edge. This juxtaposition creates a distinct collision in the center of the grid, symbolizing the ongoing battle between guilt and forgiveness, where noise meets signal in an abstract flow. The broken pixels introduce deliberate imperfections, echoing the narrative of human experience within structured boundaries.</desc>
  <rect width="256" height="256" fill="#FFFFFF" />
  <rect x="0" y="0" width="32" height="32" fill="#F4C2C2" />
  <rect x="32" y="0" width="32" height="32" fill="#FAD3D3" />
  <rect x="64" y="0" width="32" height="32" fill="#F7B7B7" />
  <rect x="96" y="0" width="32" height="32" fill="#F4C2C2" />
  <rect x="128" y="0" width="32" height="32" fill="#F3B8B8" />
  <rect x="160" y="0" width="32" height="32" fill="#FAD3D3" />
  <rect x="192" y="0" width="32" height="32" fill="#F7B7B7" />
  <rect x="224" y="0" width="32" height="32" fill="#E0A0A0" />
  <rect x="0" y="32" width="32" height="32" fill="#F3B8B8" />
  <rect x="32" y="32" width="32" height="32" fill="#F4C2C2" />
  <rect x="64" y="32" width="32" height="32" fill="#E5B6B6" />
  <rect x="96" y="32" width="32" height="32" fill="#FAD3D3" />
  <rect x="128" y="32" width="32" height="32" fill="#F7B7B7" />
  <rect x="160" y="32" width="32" height="32" fill="#E0A0A0" />
  <rect x="192" y="32" width="32" height="32" fill="#F3B8B8" />
  <rect x="224" y="32" width="32" height="32" fill="#D5A4A4" />
  <rect x="0" y="64" width="32" height="32" fill="#C0C0C0" />
  <rect x="32" y="64" width="32" height="32" fill="#A0A0A0" />
  <rect x="64" y="64" width="32" height="32" fill="#8B8B8B" />
  <rect x="96" y="64" width="32" height="32" fill="#707070" />
  <rect x="128" y="64" width="32" height="32" fill="#595959" />
  <rect x="160" y="64" width="32" height="32" fill="#444444" />
  <rect x="192" y="64" width="32" height="32" fill="#333333" />
  <rect x="224" y="64" width="32" height="32" fill="#222222" />
  <rect x="0" y="96" width="32" height="32" fill="#131313" />
  <rect x="32" y="96" width="32" height="32" fill="#222222" />
  <rect x="64" y="96" width="32" height="32" fill="#333333" />
  <rect x="96" y="96" width="32" height="32" fill="#444444" />
  <rect x="128" y="96" width="32" height="32" fill="#555555" />
  <rect x="160" y="96" width="32" height="32" fill="#666666" />
  <rect x="192" y="96" width="32" height="32" fill="#777777" />
  <rect x="224" y="96" width="32" height="32" fill="#888888" />
  <rect x="0" y="128" width="32" height="32" fill="#C8C8C8" />
  <rect x="32" y="128" width="32" height="32" fill="#B8B8B8" />
  <rect x="64" y="128" width="32" height="32" fill="#A8A8A8" />
  <rect x="96" y="128" width="32" height="32" fill="#989898" />
  <rect x="128" y="128" width="32" height="32" fill="#888888" />
  <rect x="160" y="128" width="32" height="32" fill="#787878" />
  <rect x="192" y="128" width="32" height="32" fill="#676767" />
  <rect x="224" y="128" width="32" height="32" fill="#606060" />
  <rect x="0" y="160" width="32" height="32" fill="#111111" />
  <rect x="32" y="160" width="32" height="32" fill="#1A1A1A" />
  <rect x="64" y="160" width="32" height="32" fill="#2B2B2B" />
  <rect x="96" y="160" width="32" height="32" fill="#3C3C3C" />
  <rect x="128" y="160" width="32" height="32" fill="#4D4D4D" />
  <rect x="160" y="160" width="32" height="32" fill="#5E5E5E" />
  <rect x="192" y="160" width="32" height="32" fill="#6F6F6F" />
  <rect x="224" y="160" width="32" height="32" fill="#808080" />
  <rect x="0" y="192" width="32" height="32" fill="#614F4F" />
  <rect x="32" y="192" width="32" height="32" fill="#7A3232" />
  <rect x="64" y="192" width="32" height="32" fill="#862F2F" />
  <rect x="96" y="192" width="32" height="32" fill="#911C1C" />
  <rect x="128" y="192" width="32" height="32" fill="#A01212" />
  <rect x="160" y="192" width="32" height="32" fill="#B61717" />
  <rect x="192" y="192" width="32" height="32" fill="#D72A2A" />
  <rect x="224" y="192" width="32" height="32" fill="#C81515" />
  <rect x="0" y="224" width="32" height="32" fill="#0C0C0C" />
  <rect x="32" y="224" width="32" height="32" fill="#1C1C1C" />
  <rect x="64" y="224" width="32" height="32" fill="#2C2C2C" />
  <rect x="96" y="224" width="32" height="32" fill="#3C3C3C" />
  <rect x="128" y="224" width="32" height="32" fill="#4C4C4C" />
  <rect x="160" y="224" width="32" height="32" fill="#5C5C5C" />
  <rect x="192" y="224" width="32" height="32" fill="#6C6C6C" />
  <rect x="224" y="224" width="32" height="32" fill="#7C7C7C" />
</svg>
