<svg xmlns="http://www.w3.org/2000/svg" width="256" height="256" viewBox="0 0 256 256" shape-rendering="crispEdges" role="img" aria-labelledby="title desc">
  <title id="title">Echoing Signals</title>
  <desc id="desc">This artwork conveys the emotional struggle between clarity and chaos, represented by the contrasting colors of signal and noise. The palette combines vibrant electric blues and greens with muted grays and blacks to juxtapose the tension of readable rhythms against static scatter. The main collision occurs at the center, where the ripple of signal green confronts the barcode static gray, creating an interrupted flow that echoes the seed's themes of exposure and shelter, memory versus erasure. The outer edges create a frame of noise, emphasizing the core's pulse, suggesting an inward spiral of clarity fighting through the void of distractions.</desc>
  <rect width="256" height="256" fill="#FFFFFF" />
  <rect x="0" y="0" width="32" height="32" fill="#000000" />
  <rect x="32" y="0" width="32" height="32" fill="#000000" />
  <rect x="64" y="0" width="32" height="32" fill="#222222" />
  <rect x="96" y="0" width="32" height="32" fill="#222222" />
  <rect x="128" y="0" width="32" height="32" fill="#444444" />
  <rect x="160" y="0" width="32" height="32" fill="#444444" />
  <rect x="192" y="0" width="32" height="32" fill="#555555" />
  <rect x="224" y="0" width="32" height="32" fill="#555555" />
  <rect x="0" y="32" width="32" height="32" fill="#111111" />
  <rect x="32" y="32" width="32" height="32" fill="#111111" />
  <rect x="64" y="32" width="32" height="32" fill="#333333" />
  <rect x="96" y="32" width="32" height="32" fill="#333333" />
  <rect x="128" y="32" width="32" height="32" fill="#666666" />
  <rect x="160" y="32" width="32" height="32" fill="#666666" />
  <rect x="192" y="32" width="32" height="32" fill="#777777" />
  <rect x="224" y="32" width="32" height="32" fill="#777777" />
  <rect x="0" y="64" width="32" height="32" fill="#000000" />
  <rect x="32" y="64" width="32" height="32" fill="#444444" />
  <rect x="64" y="64" width="32" height="32" fill="#555555" />
  <rect x="96" y="64" width="32" height="32" fill="#777777" />
  <rect x="128" y="64" width="32" height="32" fill="#999999" />
  <rect x="160" y="64" width="32" height="32" fill="#999999" />
  <rect x="192" y="64" width="32" height="32" fill="#AAAAAA" />
  <rect x="224" y="64" width="32" height="32" fill="#AAAAAA" />
  <rect x="0" y="96" width="32" height="32" fill="#111111" />
  <rect x="32" y="96" width="32" height="32" fill="#999999" />
  <rect x="64" y="96" width="32" height="32" fill="#AAAAAA" />
  <rect x="96" y="96" width="32" height="32" fill="#BBBBBB" />
  <rect x="128" y="96" width="32" height="32" fill="#CCCCCC" />
  <rect x="160" y="96" width="32" height="32" fill="#CCCCCC" />
  <rect x="192" y="96" width="32" height="32" fill="#DDDDDD" />
  <rect x="224" y="96" width="32" height="32" fill="#DDDDDD" />
  <rect x="0" y="128" width="32" height="32" fill="#222222" />
  <rect x="32" y="128" width="32" height="32" fill="#AAAAAA" />
  <rect x="64" y="128" width="32" height="32" fill="#BBBBBB" />
  <rect x="96" y="128" width="32" height="32" fill="#CCCCCC" />
  <rect x="128" y="128" width="32" height="32" fill="#EEEEEE" />
  <rect x="160" y="128" width="32" height="32" fill="#EEEEEE" />
  <rect x="192" y="128" width="32" height="32" fill="#FFFFFF" />
  <rect x="224" y="128" width="32" height="32" fill="#FFFFFF" />
  <rect x="0" y="160" width="32" height="32" fill="#333333" />
  <rect x="32" y="160" width="32" height="32" fill="#BBBBBB" />
  <rect x="64" y="160" width="32" height="32" fill="#CC0000" />
  <rect x="96" y="160" width="32" height="32" fill="#CC0000" />
  <rect x="128" y="160" width="32" height="32" fill="#EEEEEE" />
  <rect x="160" y="160" width="32" height="32" fill="#EEEEEE" />
  <rect x="192" y="160" width="32" height="32" fill="#FFFFFF" />
  <rect x="224" y="160" width="32" height="32" fill="#FFFFFF" />
  <rect x="0" y="192" width="32" height="32" fill="#444444" />
  <rect x="32" y="192" width="32" height="32" fill="#CC0000" />
  <rect x="64" y="192" width="32" height="32" fill="#FFFFFF" />
  <rect x="96" y="192" width="32" height="32" fill="#FFFFFF" />
  <rect x="128" y="192" width="32" height="32" fill="#FFFFFF" />
  <rect x="160" y="192" width="32" height="32" fill="#FFFFFF" />
  <rect x="192" y="192" width="32" height="32" fill="#DDDDDD" />
  <rect x="224" y="192" width="32" height="32" fill="#DDDDDD" />
  <rect x="0" y="224" width="32" height="32" fill="#555555" />
  <rect x="32" y="224" width="32" height="32" fill="#444444" />
  <rect x="64" y="224" width="32" height="32" fill="#CCCCCC" />
  <rect x="96" y="224" width="32" height="32" fill="#999999" />
  <rect x="128" y="224" width="32" height="32" fill="#888888" />
  <rect x="160" y="224" width="32" height="32" fill="#888888" />
  <rect x="192" y="224" width="32" height="32" fill="#777777" />
  <rect x="224" y="224" width="32" height="32" fill="#666666" />
</svg>
