<svg xmlns="http://www.w3.org/2000/svg" width="256" height="256" viewBox="0 0 256 256" shape-rendering="crispEdges" role="img" aria-labelledby="title desc">
  <title id="title">Contrasting Horizons</title>
  <desc id="desc">This piece captures the emotional tension between vulnerability and strength through a structured pattern. The color palette reflects both softness and severity, featuring soft pinks and warm whites juxtaposed against sharp crimson and deep blacks. The main collision occurs at the center, highlighting a tension within a nearly enclosed border, symbolizing the spectrum between safety and exposure. Broken pixels interrupt the flow, reminiscent of vulnerabilities, while dense areas of dark colors represent strength, creating a poignant visual narrative.</desc>
  <rect width="256" height="256" fill="#FFFFFF" />
  <rect x="0" y="0" width="32" height="32" fill="#F3C1D3" />
  <rect x="32" y="0" width="32" height="32" fill="#F5E2D4" />
  <rect x="64" y="0" width="32" height="32" fill="#BD6C82" />
  <rect x="96" y="0" width="32" height="32" fill="#F7DAD2" />
  <rect x="128" y="0" width="32" height="32" fill="#C4BEC6" />
  <rect x="160" y="0" width="32" height="32" fill="#E1C3C3" />
  <rect x="192" y="0" width="32" height="32" fill="#D3B9BF" />
  <rect x="224" y="0" width="32" height="32" fill="#A8B4B8" />
  <rect x="0" y="32" width="32" height="32" fill="#B1B1B1" />
  <rect x="32" y="32" width="32" height="32" fill="#F4EAEC" />
  <rect x="64" y="32" width="32" height="32" fill="#C2D4D7" />
  <rect x="96" y="32" width="32" height="32" fill="#D4C6C7" />
  <rect x="128" y="32" width="32" height="32" fill="#B8B9B8" />
  <rect x="160" y="32" width="32" height="32" fill="#F0D9D7" />
  <rect x="192" y="32" width="32" height="32" fill="#BF5A68" />
  <rect x="224" y="32" width="32" height="32" fill="#B8BEC2" />
  <rect x="0" y="64" width="32" height="32" fill="#C4B1C7" />
  <rect x="32" y="64" width="32" height="32" fill="#F8F8F8" />
  <rect x="64" y="64" width="32" height="32" fill="#B4A0A3" />
  <rect x="96" y="64" width="32" height="32" fill="#BAC7C1" />
  <rect x="128" y="64" width="32" height="32" fill="#D3BEC0" />
  <rect x="160" y="64" width="32" height="32" fill="#8B5D68" />
  <rect x="192" y="64" width="32" height="32" fill="#F1B3BC" />
  <rect x="224" y="64" width="32" height="32" fill="#BCE0E3" />
  <rect x="0" y="96" width="32" height="32" fill="#5B3D4D" />
  <rect x="32" y="96" width="32" height="32" fill="#F8E0D0" />
  <rect x="64" y="96" width="32" height="32" fill="#D2C6D1" />
  <rect x="96" y="96" width="32" height="32" fill="#E1B0B4" />
  <rect x="128" y="96" width="32" height="32" fill="#F2C6CB" />
  <rect x="160" y="96" width="32" height="32" fill="#9B6A73" />
  <rect x="192" y="96" width="32" height="32" fill="#CDA1A6" />
  <rect x="224" y="96" width="32" height="32" fill="#E1B7B9" />
  <rect x="0" y="128" width="32" height="32" fill="#C5AEB4" />
  <rect x="32" y="128" width="32" height="32" fill="#B8B8B8" />
  <rect x="64" y="128" width="32" height="32" fill="#2D2D2D" />
  <rect x="96" y="128" width="32" height="32" fill="#E9E9E9" />
  <rect x="128" y="128" width="32" height="32" fill="#C5D9D7" />
  <rect x="160" y="128" width="32" height="32" fill="#D1D3D1" />
  <rect x="192" y="128" width="32" height="32" fill="#8B4B57" />
  <rect x="224" y="128" width="32" height="32" fill="#F2BFC4" />
  <rect x="0" y="160" width="32" height="32" fill="#4D4649" />
  <rect x="32" y="160" width="32" height="32" fill="#B7C4C6" />
  <rect x="64" y="160" width="32" height="32" fill="#D5CED2" />
  <rect x="96" y="160" width="32" height="32" fill="#C2A6A6" />
  <rect x="128" y="160" width="32" height="32" fill="#FCE5E6" />
  <rect x="160" y="160" width="32" height="32" fill="#BF6C78" />
  <rect x="192" y="160" width="32" height="32" fill="#C1C1C1" />
  <rect x="224" y="160" width="32" height="32" fill="#C1D3D4" />
  <rect x="0" y="192" width="32" height="32" fill="#7E5670" />
  <rect x="32" y="192" width="32" height="32" fill="#DAD9D8" />
  <rect x="64" y="192" width="32" height="32" fill="#B8B8B8" />
  <rect x="96" y="192" width="32" height="32" fill="#E5F3F1" />
  <rect x="128" y="192" width="32" height="32" fill="#B3A8A8" />
  <rect x="160" y="192" width="32" height="32" fill="#E6D0D3" />
  <rect x="192" y="192" width="32" height="32" fill="#D7C5C4" />
  <rect x="224" y="192" width="32" height="32" fill="#C1D6D8" />
  <rect x="0" y="224" width="32" height="32" fill="#F0B1C7" />
  <rect x="32" y="224" width="32" height="32" fill="#F6E7E8" />
  <rect x="64" y="224" width="32" height="32" fill="#C8A4A7" />
  <rect x="96" y="224" width="32" height="32" fill="#B6B3B2" />
  <rect x="128" y="224" width="32" height="32" fill="#D9C9CA" />
  <rect x="160" y="224" width="32" height="32" fill="#B69696" />
  <rect x="192" y="224" width="32" height="32" fill="#F0C1C7" />
  <rect x="224" y="224" width="32" height="32" fill="#B7BEC1" />
</svg>
