<svg xmlns="http://www.w3.org/2000/svg" width="256" height="256" viewBox="0 0 256 256" shape-rendering="crispEdges" role="img" aria-labelledby="title desc">
  <title id="title">Echoes of Contrast</title>
  <desc id="desc">This composition reflects the tension between longing and resolve through a delicate interplay of color and form. The palette balances muted grays and off-whites with sharp, compressed reds and deep dark navy. The main contrast manifests at the center, where the rhythm of 'echo' from longing collides with the 'target' of resolve, creating a vibrant pulse amidst a background of calm. The broken pixels serve as intentional scars, embodying the theme of repair versus damage in a journey filled with interruptions and subdued energy.</desc>
  <rect width="256" height="256" fill="#FFFFFF" />
  <rect x="0" y="0" width="32" height="32" fill="#F0F0F0" />
  <rect x="32" y="0" width="32" height="32" fill="#E2E2E2" />
  <rect x="64" y="0" width="32" height="32" fill="#D1D1D1" />
  <rect x="96" y="0" width="32" height="32" fill="#A1A2A3" />
  <rect x="128" y="0" width="32" height="32" fill="#130F15" />
  <rect x="160" y="0" width="32" height="32" fill="#646464" />
  <rect x="192" y="0" width="32" height="32" fill="#3A2E35" />
  <rect x="224" y="0" width="32" height="32" fill="#B7C1C4" />
  <rect x="0" y="32" width="32" height="32" fill="#FFF7F4" />
  <rect x="32" y="32" width="32" height="32" fill="#E6B0B2" />
  <rect x="64" y="32" width="32" height="32" fill="#DADBDD" />
  <rect x="96" y="32" width="32" height="32" fill="#4B3D3F" />
  <rect x="128" y="32" width="32" height="32" fill="#2F2D3A" />
  <rect x="160" y="32" width="32" height="32" fill="#F5EBF3" />
  <rect x="192" y="32" width="32" height="32" fill="#A1A0A2" />
  <rect x="224" y="32" width="32" height="32" fill="#D1494D" />
  <rect x="0" y="64" width="32" height="32" fill="#FFFFFF" />
  <rect x="32" y="64" width="32" height="32" fill="#F8E3E0" />
  <rect x="64" y="64" width="32" height="32" fill="#B2B0B3" />
  <rect x="96" y="64" width="32" height="32" fill="#404143" />
  <rect x="128" y="64" width="32" height="32" fill="#151820" />
  <rect x="160" y="64" width="32" height="32" fill="#FFEDD3" />
  <rect x="192" y="64" width="32" height="32" fill="#C6C4C5" />
  <rect x="224" y="64" width="32" height="32" fill="#E7E7E7" />
  <rect x="0" y="96" width="32" height="32" fill="#E9E9E9" />
  <rect x="32" y="96" width="32" height="32" fill="#D6A4A7" />
  <rect x="64" y="96" width="32" height="32" fill="#E3AC9E" />
  <rect x="96" y="96" width="32" height="32" fill="#7D6C77" />
  <rect x="128" y="96" width="32" height="32" fill="#3D333A" />
  <rect x="160" y="96" width="32" height="32" fill="#51505B" />
  <rect x="192" y="96" width="32" height="32" fill="#7A8C8F" />
  <rect x="224" y="96" width="32" height="32" fill="#F8F7F7" />
  <rect x="0" y="128" width="32" height="32" fill="#F2F1F4" />
  <rect x="32" y="128" width="32" height="32" fill="#EC4F5A" />
  <rect x="64" y="128" width="32" height="32" fill="#DEB6B8" />
  <rect x="96" y="128" width="32" height="32" fill="#4A4752" />
  <rect x="128" y="128" width="32" height="32" fill="#2B2B2E" />
  <rect x="160" y="128" width="32" height="32" fill="#841C2D" />
  <rect x="192" y="128" width="32" height="32" fill="#F6F3F3" />
  <rect x="224" y="128" width="32" height="32" fill="#949596" />
  <rect x="0" y="160" width="32" height="32" fill="#D0CDD1" />
  <rect x="32" y="160" width="32" height="32" fill="#F8E4E0" />
  <rect x="64" y="160" width="32" height="32" fill="#C9B2B3" />
  <rect x="96" y="160" width="32" height="32" fill="#780F15" />
  <rect x="128" y="160" width="32" height="32" fill="#3B2A30" />
  <rect x="160" y="160" width="32" height="32" fill="#514547" />
  <rect x="192" y="160" width="32" height="32" fill="#F4F2F2" />
  <rect x="224" y="160" width="32" height="32" fill="#FFEFEA" />
  <rect x="0" y="192" width="32" height="32" fill="#F8F8F8" />
  <rect x="32" y="192" width="32" height="32" fill="#D7C7C9" />
  <rect x="64" y="192" width="32" height="32" fill="#B2ACB0" />
  <rect x="96" y="192" width="32" height="32" fill="#427A7E" />
  <rect x="128" y="192" width="32" height="32" fill="#2C292E" />
  <rect x="160" y="192" width="32" height="32" fill="#BB93A6" />
  <rect x="192" y="192" width="32" height="32" fill="#ECECED" />
  <rect x="224" y="192" width="32" height="32" fill="#ECF0F1" />
  <rect x="0" y="224" width="32" height="32" fill="#DDDDDD" />
  <rect x="32" y="224" width="32" height="32" fill="#C8CBCC" />
  <rect x="64" y="224" width="32" height="32" fill="#F4F2EA" />
  <rect x="96" y="224" width="32" height="32" fill="#304144" />
  <rect x="128" y="224" width="32" height="32" fill="#1D1A1D" />
  <rect x="160" y="224" width="32" height="32" fill="#5C5962" />
  <rect x="192" y="224" width="32" height="32" fill="#FFF8E7" />
  <rect x="224" y="224" width="32" height="32" fill="#D1BEBE" />
</svg>
