<svg xmlns="http://www.w3.org/2000/svg" width="256" height="256" viewBox="0 0 256 256" shape-rendering="crispEdges" role="img" aria-labelledby="title desc">
  <title id="title">Symmetry in Disturbance</title>
  <desc id="desc">The emotional tone of confusion versus clarity flows through the contrast of saturating warm colors against muted cool tones, representing the struggle between clarity and chaos. The warm palette of yellow and orange suggests turbulence, while deep blue adds depth, hinting at clarity amid confusion. This dynamic is captured in the diagonal rise flow and broken patterns, where stripes collide with radial motifs, causing a visual tension that encapsulates the seed's themes. The deliberate placement of colors creates a stark contrast at the center, where the hues collide and evoke a sense of unresolved emotion. The resulting composition suggests a movement from the chaotic edges toward a central clarity, yet remains abstract and non-representational.</desc>
  <rect width="256" height="256" fill="#FFFFFF" />
  <rect x="0" y="0" width="32" height="32" fill="#F6A600" />
  <rect x="32" y="0" width="32" height="32" fill="#F6A400" />
  <rect x="64" y="0" width="32" height="32" fill="#ED8F00" />
  <rect x="96" y="0" width="32" height="32" fill="#E87A00" />
  <rect x="128" y="0" width="32" height="32" fill="#DE2500" />
  <rect x="160" y="0" width="32" height="32" fill="#A02400" />
  <rect x="192" y="0" width="32" height="32" fill="#751E00" />
  <rect x="224" y="0" width="32" height="32" fill="#5E1A00" />
  <rect x="0" y="32" width="32" height="32" fill="#001D3D" />
  <rect x="32" y="32" width="32" height="32" fill="#003A70" />
  <rect x="64" y="32" width="32" height="32" fill="#005F89" />
  <rect x="96" y="32" width="32" height="32" fill="#007FA8" />
  <rect x="128" y="32" width="32" height="32" fill="#0093B2" />
  <rect x="160" y="32" width="32" height="32" fill="#66B3D3" />
  <rect x="192" y="32" width="32" height="32" fill="#A4D1E3" />
  <rect x="224" y="32" width="32" height="32" fill="#D1E7F8" />
  <rect x="0" y="64" width="32" height="32" fill="#F1F1F1" />
  <rect x="32" y="64" width="32" height="32" fill="#ECEBE6" />
  <rect x="64" y="64" width="32" height="32" fill="#D3D0CD" />
  <rect x="96" y="64" width="32" height="32" fill="#BDB9B6" />
  <rect x="128" y="64" width="32" height="32" fill="#A89B98" />
  <rect x="160" y="64" width="32" height="32" fill="#947F82" />
  <rect x="192" y="64" width="32" height="32" fill="#7A6161" />
  <rect x="224" y="64" width="32" height="32" fill="#634442" />
  <rect x="0" y="96" width="32" height="32" fill="#C1C1C1" />
  <rect x="32" y="96" width="32" height="32" fill="#A6A3A3" />
  <rect x="64" y="96" width="32" height="32" fill="#8D8A89" />
  <rect x="96" y="96" width="32" height="32" fill="#7B7877" />
  <rect x="128" y="96" width="32" height="32" fill="#6C5A59" />
  <rect x="160" y="96" width="32" height="32" fill="#5B3E3E" />
  <rect x="192" y="96" width="32" height="32" fill="#482F2F" />
  <rect x="224" y="96" width="32" height="32" fill="#3B2525" />
  <rect x="0" y="128" width="32" height="32" fill="#00B14F" />
  <rect x="32" y="128" width="32" height="32" fill="#007F38" />
  <rect x="64" y="128" width="32" height="32" fill="#008D3A" />
  <rect x="96" y="128" width="32" height="32" fill="#22A642" />
  <rect x="128" y="128" width="32" height="32" fill="#50B532" />
  <rect x="160" y="128" width="32" height="32" fill="#66CD39" />
  <rect x="192" y="128" width="32" height="32" fill="#76D03D" />
  <rect x="224" y="128" width="32" height="32" fill="#A1DB50" />
  <rect x="0" y="160" width="32" height="32" fill="#F19960" />
  <rect x="32" y="160" width="32" height="32" fill="#F1B553" />
  <rect x="64" y="160" width="32" height="32" fill="#F0D848" />
  <rect x="96" y="160" width="32" height="32" fill="#F3E249" />
  <rect x="128" y="160" width="32" height="32" fill="#F5F65C" />
  <rect x="160" y="160" width="32" height="32" fill="#F8F75A" />
  <rect x="192" y="160" width="32" height="32" fill="#FAFA60" />
  <rect x="224" y="160" width="32" height="32" fill="#F2E28D" />
  <rect x="0" y="192" width="32" height="32" fill="#B6BCC3" />
  <rect x="32" y="192" width="32" height="32" fill="#AAB7C2" />
  <rect x="64" y="192" width="32" height="32" fill="#A5AEB8" />
  <rect x="96" y="192" width="32" height="32" fill="#A2A6B1" />
  <rect x="128" y="192" width="32" height="32" fill="#A7A9B5" />
  <rect x="160" y="192" width="32" height="32" fill="#B2B8C7" />
  <rect x="192" y="192" width="32" height="32" fill="#BDC2D2" />
  <rect x="224" y="192" width="32" height="32" fill="#C9CEDF" />
  <rect x="0" y="224" width="32" height="32" fill="#D3B9F6" />
  <rect x="32" y="224" width="32" height="32" fill="#9B7DCE" />
  <rect x="64" y="224" width="32" height="32" fill="#63549B" />
  <rect x="96" y="224" width="32" height="32" fill="#2D2E99" />
  <rect x="128" y="224" width="32" height="32" fill="#212177" />
  <rect x="160" y="224" width="32" height="32" fill="#111148" />
  <rect x="192" y="224" width="32" height="32" fill="#0B0B35" />
  <rect x="224" y="224" width="32" height="32" fill="#000000" />
</svg>
