<svg xmlns="http://www.w3.org/2000/svg" width="256" height="256" viewBox="0 0 256 256" shape-rendering="crispEdges" role="img" aria-labelledby="title desc">
  <title id="title">Echoes of Tension</title>
  <desc id="desc">This artwork reflects the emotional struggle between control and surrender. The palette, dominated by cosmic indigo and void black, evokes a sense of awe and terror. The thick outlines of the control patterns clash against the softer forms of the surrender patterns, creating a tangible tension. The central collision of dark colors around a release of cold gold subtly represents the overflow versus containment concept, with denser shapes near the center releasing towards the edges, symbolizing a stuttering journey of pressure and release.</desc>
  <rect width="256" height="256" fill="#FFFFFF" />
  <rect x="0" y="0" width="32" height="32" fill="#000000" />
  <rect x="32" y="0" width="32" height="32" fill="#1A1A3D" />
  <rect x="64" y="0" width="32" height="32" fill="#3D2A3D" />
  <rect x="96" y="0" width="32" height="32" fill="#0D0D24" />
  <rect x="128" y="0" width="32" height="32" fill="#2A1C3D" />
  <rect x="160" y="0" width="32" height="32" fill="#1A3D5D" />
  <rect x="192" y="0" width="32" height="32" fill="#4A4A9D" />
  <rect x="224" y="0" width="32" height="32" fill="#5C5C90" />
  <rect x="0" y="32" width="32" height="32" fill="#4A4A4A" />
  <rect x="32" y="32" width="32" height="32" fill="#5D5D8A" />
  <rect x="64" y="32" width="32" height="32" fill="#7D7D7D" />
  <rect x="96" y="32" width="32" height="32" fill="#A6A68A" />
  <rect x="128" y="32" width="32" height="32" fill="#DDDDDD" />
  <rect x="160" y="32" width="32" height="32" fill="#FFFFFF" />
  <rect x="192" y="32" width="32" height="32" fill="#F2F2F2" />
  <rect x="224" y="32" width="32" height="32" fill="#E5E5E5" />
  <rect x="0" y="64" width="32" height="32" fill="#333366" />
  <rect x="32" y="64" width="32" height="32" fill="#3C3C8A" />
  <rect x="64" y="64" width="32" height="32" fill="#4F4F5D" />
  <rect x="96" y="64" width="32" height="32" fill="#7A7A90" />
  <rect x="128" y="64" width="32" height="32" fill="#5C3D5D" />
  <rect x="160" y="64" width="32" height="32" fill="#222222" />
  <rect x="192" y="64" width="32" height="32" fill="#0D0D0D" />
  <rect x="224" y="64" width="32" height="32" fill="#1A1A3D" />
  <rect x="0" y="96" width="32" height="32" fill="#4A4A4A" />
  <rect x="32" y="96" width="32" height="32" fill="#292949" />
  <rect x="64" y="96" width="32" height="32" fill="#B3B3D1" />
  <rect x="96" y="96" width="32" height="32" fill="#8080AA" />
  <rect x="128" y="96" width="32" height="32" fill="#5D5D3D" />
  <rect x="160" y="96" width="32" height="32" fill="#3D3D6D" />
  <rect x="192" y="96" width="32" height="32" fill="#1C1C3D" />
  <rect x="224" y="96" width="32" height="32" fill="#5C5C30" />
  <rect x="0" y="128" width="32" height="32" fill="#4A4AF4" />
  <rect x="32" y="128" width="32" height="32" fill="#6D6DF4" />
  <rect x="64" y="128" width="32" height="32" fill="#3D6DAA" />
  <rect x="96" y="128" width="32" height="32" fill="#1A1A3D" />
  <rect x="128" y="128" width="32" height="32" fill="#B3B3E2" />
  <rect x="160" y="128" width="32" height="32" fill="#7D7DB8" />
  <rect x="192" y="128" width="32" height="32" fill="#5C3D5D" />
  <rect x="224" y="128" width="32" height="32" fill="#0F0F3D" />
  <rect x="0" y="160" width="32" height="32" fill="#4A4A90" />
  <rect x="32" y="160" width="32" height="32" fill="#1C1CBD" />
  <rect x="64" y="160" width="32" height="32" fill="#3D1C5D" />
  <rect x="96" y="160" width="32" height="32" fill="#8A8A6D" />
  <rect x="128" y="160" width="32" height="32" fill="#E5E5F4" />
  <rect x="160" y="160" width="32" height="32" fill="#3D4A8A" />
  <rect x="192" y="160" width="32" height="32" fill="#0D0D9A" />
  <rect x="224" y="160" width="32" height="32" fill="#000000" />
  <rect x="0" y="192" width="32" height="32" fill="#8A8A4A" />
  <rect x="32" y="192" width="32" height="32" fill="#1A3D5D" />
  <rect x="64" y="192" width="32" height="32" fill="#5D5D6D" />
  <rect x="96" y="192" width="32" height="32" fill="#3D3D3D" />
  <rect x="128" y="192" width="32" height="32" fill="#D1D1D1" />
  <rect x="160" y="192" width="32" height="32" fill="#E5E5A6" />
  <rect x="192" y="192" width="32" height="32" fill="#F4F4DD" />
  <rect x="224" y="192" width="32" height="32" fill="#D1D1C6" />
  <rect x="0" y="224" width="32" height="32" fill="#5C5C60" />
  <rect x="32" y="224" width="32" height="32" fill="#3D1C4A" />
  <rect x="64" y="224" width="32" height="32" fill="#7D7DF3" />
  <rect x="96" y="224" width="32" height="32" fill="#3D3D8A" />
  <rect x="128" y="224" width="32" height="32" fill="#8A2A2A" />
  <rect x="160" y="224" width="32" height="32" fill="#F4F4F1" />
  <rect x="192" y="224" width="32" height="32" fill="#0D0D0D" />
  <rect x="224" y="224" width="32" height="32" fill="#5C5C5C" />
</svg>
