<svg xmlns="http://www.w3.org/2000/svg" width="256" height="256" viewBox="0 0 256 256" shape-rendering="crispEdges" role="img" aria-labelledby="title desc">
  <title id="title">Dynamics of Convergence</title>
  <desc id="desc">This artwork explores the emotional tension between control and surrender through a combination of stark contrasts and overlapping patterns. Utilizing the palette 'awe_terror', the deep teal and cosmic indigo evoke a sense of depth, while cold gold offers a striking visual disruption. The thick outlines suggest an attempt to contain the vibrant center, which represents the overflow of emotion, swaying between pressure and release. The center's luminosity stands in conflict with the dark outer edges, where the collision occurs most intensely, emphasizing a dichotomy of strength vs. vulnerability. The falling pixel layout enhances the feeling of descent, as if emotions are cascading downwards, unveiling layered narratives of solitude and connectivity.</desc>
  <rect width="256" height="256" fill="#FFFFFF" />
  <rect x="0" y="0" width="32" height="32" fill="#0A0D28" />
  <rect x="32" y="0" width="32" height="32" fill="#1B1F4E" />
  <rect x="64" y="0" width="32" height="32" fill="#3B3145" />
  <rect x="96" y="0" width="32" height="32" fill="#3F4F70" />
  <rect x="128" y="0" width="32" height="32" fill="#5C4F39" />
  <rect x="160" y="0" width="32" height="32" fill="#A8D3DB" />
  <rect x="192" y="0" width="32" height="32" fill="#CFE5E1" />
  <rect x="224" y="0" width="32" height="32" fill="#FFFFFF" />
  <rect x="0" y="32" width="32" height="32" fill="#171E36" />
  <rect x="32" y="32" width="32" height="32" fill="#273248" />
  <rect x="64" y="32" width="32" height="32" fill="#364A64" />
  <rect x="96" y="32" width="32" height="32" fill="#5A6A6C" />
  <rect x="128" y="32" width="32" height="32" fill="#799497" />
  <rect x="160" y="32" width="32" height="32" fill="#B2D9D3" />
  <rect x="192" y="32" width="32" height="32" fill="#DBDBDE" />
  <rect x="224" y="32" width="32" height="32" fill="#FFFFFF" />
  <rect x="0" y="64" width="32" height="32" fill="#0A0E16" />
  <rect x="32" y="64" width="32" height="32" fill="#1A1D2C" />
  <rect x="64" y="64" width="32" height="32" fill="#303D4E" />
  <rect x="96" y="64" width="32" height="32" fill="#4B4E62" />
  <rect x="128" y="64" width="32" height="32" fill="#7B8E66" />
  <rect x="160" y="64" width="32" height="32" fill="#B3D1D3" />
  <rect x="192" y="64" width="32" height="32" fill="#E6E4E5" />
  <rect x="224" y="64" width="32" height="32" fill="#FFFFFF" />
  <rect x="0" y="96" width="32" height="32" fill="#171B22" />
  <rect x="32" y="96" width="32" height="32" fill="#2A353B" />
  <rect x="64" y="96" width="32" height="32" fill="#36505E" />
  <rect x="96" y="96" width="32" height="32" fill="#5F6C72" />
  <rect x="128" y="96" width="32" height="32" fill="#87999B" />
  <rect x="160" y="96" width="32" height="32" fill="#9FAAB0" />
  <rect x="192" y="96" width="32" height="32" fill="#C6C5CB" />
  <rect x="224" y="96" width="32" height="32" fill="#FFFFFF" />
  <rect x="0" y="128" width="32" height="32" fill="#101520" />
  <rect x="32" y="128" width="32" height="32" fill="#15192E" />
  <rect x="64" y="128" width="32" height="32" fill="#274858" />
  <rect x="96" y="128" width="32" height="32" fill="#364E5F" />
  <rect x="128" y="128" width="32" height="32" fill="#5F727F" />
  <rect x="160" y="128" width="32" height="32" fill="#94B0B2" />
  <rect x="192" y="128" width="32" height="32" fill="#E9E0E0" />
  <rect x="224" y="128" width="32" height="32" fill="#FFFFFF" />
  <rect x="0" y="160" width="32" height="32" fill="#191B22" />
  <rect x="32" y="160" width="32" height="32" fill="#2B3B45" />
  <rect x="64" y="160" width="32" height="32" fill="#3B4959" />
  <rect x="96" y="160" width="32" height="32" fill="#4F5F8F" />
  <rect x="128" y="160" width="32" height="32" fill="#7096B4" />
  <rect x="160" y="160" width="32" height="32" fill="#A3B7B9" />
  <rect x="192" y="160" width="32" height="32" fill="#D0D0D0" />
  <rect x="224" y="160" width="32" height="32" fill="#FFFFFF" />
  <rect x="0" y="192" width="32" height="32" fill="#2E3539" />
  <rect x="32" y="192" width="32" height="32" fill="#5B515D" />
  <rect x="64" y="192" width="32" height="32" fill="#6A7A8E" />
  <rect x="96" y="192" width="32" height="32" fill="#202B36" />
  <rect x="128" y="192" width="32" height="32" fill="#4E6D7C" />
  <rect x="160" y="192" width="32" height="32" fill="#89B2B5" />
  <rect x="192" y="192" width="32" height="32" fill="#E7E3E4" />
  <rect x="224" y="192" width="32" height="32" fill="#FFFFFF" />
  <rect x="0" y="224" width="32" height="32" fill="#1C203B" />
  <rect x="32" y="224" width="32" height="32" fill="#3A4D6A" />
  <rect x="64" y="224" width="32" height="32" fill="#5D6674" />
  <rect x="96" y="224" width="32" height="32" fill="#34575B" />
  <rect x="128" y="224" width="32" height="32" fill="#7C9AA9" />
  <rect x="160" y="224" width="32" height="32" fill="#AAB2B2" />
  <rect x="192" y="224" width="32" height="32" fill="#DDDDDD" />
  <rect x="224" y="224" width="32" height="32" fill="#FFFFFF" />
</svg>
