<svg xmlns="http://www.w3.org/2000/svg" width="256" height="256" viewBox="0 0 256 256" shape-rendering="crispEdges" role="img" aria-labelledby="title desc">
  <title id="title">Overflow and Containment</title>
  <desc id="desc">This composition captures the emotional tension between rage and calm. The palette, primarily featuring deep blacks and bright whites, emphasizes the stark contrast between compressed, sharp formations and more gentle, spaced-out patterns. The calm elements use pale blues to signify quietness, while the red components suggest overwhelming emotions breaking through barriers. The main collision occurs towards the center, where tight clusters of dark colors meet broader areas of lighter tones, echoing the idea of containment being breached. The broken pixel technique introduces intentional disruptions, reinforcing the themes of chaos and calm battling for dominance.</desc>
  <rect width="256" height="256" fill="#FFFFFF" />
  <rect x="0" y="0" width="32" height="32" fill="#FF0000" />
  <rect x="32" y="0" width="32" height="32" fill="#FF5E5E" />
  <rect x="64" y="0" width="32" height="32" fill="#FF5050" />
  <rect x="96" y="0" width="32" height="32" fill="#F03A3A" />
  <rect x="128" y="0" width="32" height="32" fill="#F0A3A3" />
  <rect x="160" y="0" width="32" height="32" fill="#FFF1F1" />
  <rect x="192" y="0" width="32" height="32" fill="#E8E8E8" />
  <rect x="224" y="0" width="32" height="32" fill="#F3F3F3" />
  <rect x="0" y="32" width="32" height="32" fill="#000000" />
  <rect x="32" y="32" width="32" height="32" fill="#1A1A1A" />
  <rect x="64" y="32" width="32" height="32" fill="#333333" />
  <rect x="96" y="32" width="32" height="32" fill="#4D4D4D" />
  <rect x="128" y="32" width="32" height="32" fill="#666666" />
  <rect x="160" y="32" width="32" height="32" fill="#7F7F7F" />
  <rect x="192" y="32" width="32" height="32" fill="#A0A0A0" />
  <rect x="224" y="32" width="32" height="32" fill="#C0C0C0" />
  <rect x="0" y="64" width="32" height="32" fill="#FFFFFF" />
  <rect x="32" y="64" width="32" height="32" fill="#E0E0E0" />
  <rect x="64" y="64" width="32" height="32" fill="#C0C0C0" />
  <rect x="96" y="64" width="32" height="32" fill="#A0A0A0" />
  <rect x="128" y="64" width="32" height="32" fill="#808080" />
  <rect x="160" y="64" width="32" height="32" fill="#606060" />
  <rect x="192" y="64" width="32" height="32" fill="#404040" />
  <rect x="224" y="64" width="32" height="32" fill="#202020" />
  <rect x="0" y="96" width="32" height="32" fill="#ADD8E6" />
  <rect x="32" y="96" width="32" height="32" fill="#B0E0E6" />
  <rect x="64" y="96" width="32" height="32" fill="#7EC6E7" />
  <rect x="96" y="96" width="32" height="32" fill="#00BFFF" />
  <rect x="128" y="96" width="32" height="32" fill="#48D1CC" />
  <rect x="160" y="96" width="32" height="32" fill="#5F9EA0" />
  <rect x="192" y="96" width="32" height="32" fill="#4682B4" />
  <rect x="224" y="96" width="32" height="32" fill="#B0C4DE" />
  <rect x="0" y="128" width="32" height="32" fill="#A52A2A" />
  <rect x="32" y="128" width="32" height="32" fill="#B22222" />
  <rect x="64" y="128" width="32" height="32" fill="#DC143C" />
  <rect x="96" y="128" width="32" height="32" fill="#FF6347" />
  <rect x="128" y="128" width="32" height="32" fill="#FF7F50" />
  <rect x="160" y="128" width="32" height="32" fill="#FF4500" />
  <rect x="192" y="128" width="32" height="32" fill="#FF8C00" />
  <rect x="224" y="128" width="32" height="32" fill="#FFA07A" />
  <rect x="0" y="160" width="32" height="32" fill="#808080" />
  <rect x="32" y="160" width="32" height="32" fill="#A9A9A9" />
  <rect x="64" y="160" width="32" height="32" fill="#C0C0C0" />
  <rect x="96" y="160" width="32" height="32" fill="#D3D3D3" />
  <rect x="128" y="160" width="32" height="32" fill="#DCDCDC" />
  <rect x="160" y="160" width="32" height="32" fill="#F5F5F5" />
  <rect x="192" y="160" width="32" height="32" fill="#FFFFFF" />
  <rect x="224" y="160" width="32" height="32" fill="#FAFAFA" />
  <rect x="0" y="192" width="32" height="32" fill="#B0B0B0" />
  <rect x="32" y="192" width="32" height="32" fill="#C0C0C0" />
  <rect x="64" y="192" width="32" height="32" fill="#D3D3D3" />
  <rect x="96" y="192" width="32" height="32" fill="#E6E6E6" />
  <rect x="128" y="192" width="32" height="32" fill="#FFFFFF" />
  <rect x="160" y="192" width="32" height="32" fill="#FFFFFF" />
  <rect x="192" y="192" width="32" height="32" fill="#FFFFFF" />
  <rect x="224" y="192" width="32" height="32" fill="#FFFFFF" />
  <rect x="0" y="224" width="32" height="32" fill="#000000" />
  <rect x="32" y="224" width="32" height="32" fill="#111111" />
  <rect x="64" y="224" width="32" height="32" fill="#222222" />
  <rect x="96" y="224" width="32" height="32" fill="#333333" />
  <rect x="128" y="224" width="32" height="32" fill="#444444" />
  <rect x="160" y="224" width="32" height="32" fill="#555555" />
  <rect x="192" y="224" width="32" height="32" fill="#666666" />
  <rect x="224" y="224" width="32" height="32" fill="#777777" />
</svg>
