<svg xmlns="http://www.w3.org/2000/svg" width="256" height="256" viewBox="0 0 256 256" shape-rendering="crispEdges" role="img" aria-labelledby="title desc">
  <title id="title">Tension and Tranquility</title>
  <desc id="desc">This artwork reflects the emotional pulse between restlessness and peace through the contrasting colors of the palette. The reds and muted creams convey a warmth of tension, while the deeper blacks and grays offer a sense of calm. The layout emphasizes a collision at the center, where the light vs. dark elements shift into one another, symbolizing the struggle of memory against motion. Broken pixels are strategically placed to hint at imperfections and disruptions in this interplay, embodying a fragmented narrative as emotion ebbs and flows.</desc>
  <rect width="256" height="256" fill="#FFFFFF" />
  <rect x="0" y="0" width="32" height="32" fill="#4E3B31" />
  <rect x="32" y="0" width="32" height="32" fill="#221E23" />
  <rect x="64" y="0" width="32" height="32" fill="#BCB19A" />
  <rect x="96" y="0" width="32" height="32" fill="#5E4E51" />
  <rect x="128" y="0" width="32" height="32" fill="#9D5B43" />
  <rect x="160" y="0" width="32" height="32" fill="#524A53" />
  <rect x="192" y="0" width="32" height="32" fill="#7E5B43" />
  <rect x="224" y="0" width="32" height="32" fill="#2C2B2E" />
  <rect x="0" y="32" width="32" height="32" fill="#4A3F32" />
  <rect x="32" y="32" width="32" height="32" fill="#795D47" />
  <rect x="64" y="32" width="32" height="32" fill="#D1C6D9" />
  <rect x="96" y="32" width="32" height="32" fill="#C97B3B" />
  <rect x="128" y="32" width="32" height="32" fill="#F6E8D6" />
  <rect x="160" y="32" width="32" height="32" fill="#313B3B" />
  <rect x="192" y="32" width="32" height="32" fill="#7E6A53" />
  <rect x="224" y="32" width="32" height="32" fill="#E3A06D" />
  <rect x="0" y="64" width="32" height="32" fill="#D68B4B" />
  <rect x="32" y="64" width="32" height="32" fill="#4F447B" />
  <rect x="64" y="64" width="32" height="32" fill="#BBE6B5" />
  <rect x="96" y="64" width="32" height="32" fill="#A54B3D" />
  <rect x="128" y="64" width="32" height="32" fill="#7D4C4F" />
  <rect x="160" y="64" width="32" height="32" fill="#F4F1E6" />
  <rect x="192" y="64" width="32" height="32" fill="#B8432D" />
  <rect x="224" y="64" width="32" height="32" fill="#221D26" />
  <rect x="0" y="96" width="32" height="32" fill="#332A29" />
  <rect x="32" y="96" width="32" height="32" fill="#A87D67" />
  <rect x="64" y="96" width="32" height="32" fill="#A33327" />
  <rect x="96" y="96" width="32" height="32" fill="#25576F" />
  <rect x="128" y="96" width="32" height="32" fill="#683641" />
  <rect x="160" y="96" width="32" height="32" fill="#E6D0B5" />
  <rect x="192" y="96" width="32" height="32" fill="#B85936" />
  <rect x="224" y="96" width="32" height="32" fill="#E2C8B7" />
  <rect x="0" y="128" width="32" height="32" fill="#311111" />
  <rect x="32" y="128" width="32" height="32" fill="#8C7A6A" />
  <rect x="64" y="128" width="32" height="32" fill="#C5C1CE" />
  <rect x="96" y="128" width="32" height="32" fill="#5A563E" />
  <rect x="128" y="128" width="32" height="32" fill="#C85447" />
  <rect x="160" y="128" width="32" height="32" fill="#F0E4D7" />
  <rect x="192" y="128" width="32" height="32" fill="#E15B4B" />
  <rect x="224" y="128" width="32" height="32" fill="#735F47" />
  <rect x="0" y="160" width="32" height="32" fill="#111C1F" />
  <rect x="32" y="160" width="32" height="32" fill="#E0A58F" />
  <rect x="64" y="160" width="32" height="32" fill="#D35444" />
  <rect x="96" y="160" width="32" height="32" fill="#6A7F8C" />
  <rect x="128" y="160" width="32" height="32" fill="#F8F4F0" />
  <rect x="160" y="160" width="32" height="32" fill="#8F7A65" />
  <rect x="192" y="160" width="32" height="32" fill="#6B4849" />
  <rect x="224" y="160" width="32" height="32" fill="#B2C2B7" />
  <rect x="0" y="192" width="32" height="32" fill="#2E2E2E" />
  <rect x="32" y="192" width="32" height="32" fill="#7D9C88" />
  <rect x="64" y="192" width="32" height="32" fill="#E8C0A0" />
  <rect x="96" y="192" width="32" height="32" fill="#A5685B" />
  <rect x="128" y="192" width="32" height="32" fill="#433B3D" />
  <rect x="160" y="192" width="32" height="32" fill="#CC8F6A" />
  <rect x="192" y="192" width="32" height="32" fill="#753C0E" />
  <rect x="224" y="192" width="32" height="32" fill="#4D474F" />
  <rect x="0" y="224" width="32" height="32" fill="#1D0F13" />
  <rect x="32" y="224" width="32" height="32" fill="#D8C4BD" />
  <rect x="64" y="224" width="32" height="32" fill="#FFA06D" />
  <rect x="96" y="224" width="32" height="32" fill="#7D7878" />
  <rect x="128" y="224" width="32" height="32" fill="#BD9DC0" />
  <rect x="160" y="224" width="32" height="32" fill="#E8E0DB" />
  <rect x="192" y="224" width="32" height="32" fill="#774F4D" />
  <rect x="224" y="224" width="32" height="32" fill="#2A2A2A" />
</svg>
