<svg xmlns="http://www.w3.org/2000/svg" width="256" height="256" viewBox="0 0 256 256" shape-rendering="crispEdges" role="img" aria-labelledby="title desc">
  <title id="title">Tension in Contrast</title>
  <desc id="desc">This composition represents the emotional struggle between emptiness and desire. The dark hues (#000000, #222222) symbolize emptiness, providing a stark backdrop that heightens the brightness of the warm colors (#FF6347, #FFD700) representing desire. The jagged edges signify interruptions, while the contrasting warm and cool tones create visual tension. The pulse flow encourages movement left to right, mimicking rising signals of hope against the weight of loneliness. Using broken pixel elements, the piece encapsulates fragments of yearning amidst a sea of dark quietness, where desire punctuates the absence of fulfillment.</desc>
  <rect width="256" height="256" fill="#FFFFFF" />
  <rect x="0" y="0" width="32" height="32" fill="#000000" />
  <rect x="32" y="0" width="32" height="32" fill="#000000" />
  <rect x="64" y="0" width="32" height="32" fill="#111111" />
  <rect x="96" y="0" width="32" height="32" fill="#222222" />
  <rect x="128" y="0" width="32" height="32" fill="#333333" />
  <rect x="160" y="0" width="32" height="32" fill="#FF6347" />
  <rect x="192" y="0" width="32" height="32" fill="#FF6347" />
  <rect x="224" y="0" width="32" height="32" fill="#FFFFFF" />
  <rect x="0" y="32" width="32" height="32" fill="#000000" />
  <rect x="32" y="32" width="32" height="32" fill="#111111" />
  <rect x="64" y="32" width="32" height="32" fill="#222222" />
  <rect x="96" y="32" width="32" height="32" fill="#333333" />
  <rect x="128" y="32" width="32" height="32" fill="#444444" />
  <rect x="160" y="32" width="32" height="32" fill="#FFFFFF" />
  <rect x="192" y="32" width="32" height="32" fill="#FFD700" />
  <rect x="224" y="32" width="32" height="32" fill="#FFD700" />
  <rect x="0" y="64" width="32" height="32" fill="#111111" />
  <rect x="32" y="64" width="32" height="32" fill="#222222" />
  <rect x="64" y="64" width="32" height="32" fill="#333333" />
  <rect x="96" y="64" width="32" height="32" fill="#444444" />
  <rect x="128" y="64" width="32" height="32" fill="#555555" />
  <rect x="160" y="64" width="32" height="32" fill="#FFFFFF" />
  <rect x="192" y="64" width="32" height="32" fill="#FFFFFF" />
  <rect x="224" y="64" width="32" height="32" fill="#FFD700" />
  <rect x="0" y="96" width="32" height="32" fill="#222222" />
  <rect x="32" y="96" width="32" height="32" fill="#333333" />
  <rect x="64" y="96" width="32" height="32" fill="#444444" />
  <rect x="96" y="96" width="32" height="32" fill="#555555" />
  <rect x="128" y="96" width="32" height="32" fill="#666666" />
  <rect x="160" y="96" width="32" height="32" fill="#777777" />
  <rect x="192" y="96" width="32" height="32" fill="#FF6347" />
  <rect x="224" y="96" width="32" height="32" fill="#FFFFFF" />
  <rect x="0" y="128" width="32" height="32" fill="#333333" />
  <rect x="32" y="128" width="32" height="32" fill="#444444" />
  <rect x="64" y="128" width="32" height="32" fill="#555555" />
  <rect x="96" y="128" width="32" height="32" fill="#666666" />
  <rect x="128" y="128" width="32" height="32" fill="#777777" />
  <rect x="160" y="128" width="32" height="32" fill="#FF6347" />
  <rect x="192" y="128" width="32" height="32" fill="#FFFFFF" />
  <rect x="224" y="128" width="32" height="32" fill="#FFFFFF" />
  <rect x="0" y="160" width="32" height="32" fill="#444444" />
  <rect x="32" y="160" width="32" height="32" fill="#555555" />
  <rect x="64" y="160" width="32" height="32" fill="#666666" />
  <rect x="96" y="160" width="32" height="32" fill="#777777" />
  <rect x="128" y="160" width="32" height="32" fill="#FF6347" />
  <rect x="160" y="160" width="32" height="32" fill="#FFD700" />
  <rect x="192" y="160" width="32" height="32" fill="#FFD700" />
  <rect x="224" y="160" width="32" height="32" fill="#FFFFFF" />
  <rect x="0" y="192" width="32" height="32" fill="#555555" />
  <rect x="32" y="192" width="32" height="32" fill="#666666" />
  <rect x="64" y="192" width="32" height="32" fill="#777777" />
  <rect x="96" y="192" width="32" height="32" fill="#FF6347" />
  <rect x="128" y="192" width="32" height="32" fill="#FFD700" />
  <rect x="160" y="192" width="32" height="32" fill="#FF6347" />
  <rect x="192" y="192" width="32" height="32" fill="#FFFFFF" />
  <rect x="224" y="192" width="32" height="32" fill="#FFFFFF" />
  <rect x="0" y="224" width="32" height="32" fill="#666666" />
  <rect x="32" y="224" width="32" height="32" fill="#777777" />
  <rect x="64" y="224" width="32" height="32" fill="#FF6347" />
  <rect x="96" y="224" width="32" height="32" fill="#FF6347" />
  <rect x="128" y="224" width="32" height="32" fill="#FFD700" />
  <rect x="160" y="224" width="32" height="32" fill="#FFFFFF" />
  <rect x="192" y="224" width="32" height="32" fill="#FFFFFF" />
  <rect x="224" y="224" width="32" height="32" fill="#FFFFFF" />
</svg>
