<svg xmlns="http://www.w3.org/2000/svg" width="256" height="256" viewBox="0 0 256 256" shape-rendering="crispEdges" role="img" aria-labelledby="title desc">
  <title id="title">Echoes of Safety</title>
  <desc id="desc">This artwork captures the tension between the emotions of safety and exposure. The color palette, comprised of shelter green and pale skin, reflects a gentle yet alert ambiance, suggesting a fragile balance. The sharp contrasts of cold white and warm brown create interruptions, embodying the conflicting areas of pressure and release. The main collision occurs diagonally from the corner, where soft tones encroach upon the more intense colors, mirroring the themes of invasion and protective boundaries. The arrangement employs a hinge pattern to suggest a dynamic spatial relationship, evoking feelings of vulnerability and security.</desc>
  <rect width="256" height="256" fill="#FFFFFF" />
  <rect x="0" y="0" width="32" height="32" fill="#A8D8B8" />
  <rect x="32" y="0" width="32" height="32" fill="#BFAE9B" />
  <rect x="64" y="0" width="32" height="32" fill="#F0E8E5" />
  <rect x="96" y="0" width="32" height="32" fill="#EBD1B6" />
  <rect x="128" y="0" width="32" height="32" fill="#E9BFA9" />
  <rect x="160" y="0" width="32" height="32" fill="#D08E7B" />
  <rect x="192" y="0" width="32" height="32" fill="#D9B0A3" />
  <rect x="224" y="0" width="32" height="32" fill="#D2A68D" />
  <rect x="0" y="32" width="32" height="32" fill="#E1E5E5" />
  <rect x="32" y="32" width="32" height="32" fill="#C7EBF0" />
  <rect x="64" y="32" width="32" height="32" fill="#A3D7E5" />
  <rect x="96" y="32" width="32" height="32" fill="#85C2D8" />
  <rect x="128" y="32" width="32" height="32" fill="#73ABCE" />
  <rect x="160" y="32" width="32" height="32" fill="#A1B7B6" />
  <rect x="192" y="32" width="32" height="32" fill="#B9C4B6" />
  <rect x="224" y="32" width="32" height="32" fill="#E4F1E1" />
  <rect x="0" y="64" width="32" height="32" fill="#7C9B88" />
  <rect x="32" y="64" width="32" height="32" fill="#505D57" />
  <rect x="64" y="64" width="32" height="32" fill="#7B7F7B" />
  <rect x="96" y="64" width="32" height="32" fill="#A9D8BF" />
  <rect x="128" y="64" width="32" height="32" fill="#F0E2D6" />
  <rect x="160" y="64" width="32" height="32" fill="#EEB5A2" />
  <rect x="192" y="64" width="32" height="32" fill="#D7C0BF" />
  <rect x="224" y="64" width="32" height="32" fill="#E8D5D3" />
  <rect x="0" y="96" width="32" height="32" fill="#B9C8C6" />
  <rect x="32" y="96" width="32" height="32" fill="#F9F7E8" />
  <rect x="64" y="96" width="32" height="32" fill="#D6C4B8" />
  <rect x="96" y="96" width="32" height="32" fill="#B7C3B5" />
  <rect x="128" y="96" width="32" height="32" fill="#4B5D59" />
  <rect x="160" y="96" width="32" height="32" fill="#A1B5A8" />
  <rect x="192" y="96" width="32" height="32" fill="#C0BFBD" />
  <rect x="224" y="96" width="32" height="32" fill="#E5D0D0" />
  <rect x="0" y="128" width="32" height="32" fill="#BAC3B0" />
  <rect x="32" y="128" width="32" height="32" fill="#B7C4BA" />
  <rect x="64" y="128" width="32" height="32" fill="#D1E3D8" />
  <rect x="96" y="128" width="32" height="32" fill="#EBE2D2" />
  <rect x="128" y="128" width="32" height="32" fill="#F3D3C1" />
  <rect x="160" y="128" width="32" height="32" fill="#DAAB97" />
  <rect x="192" y="128" width="32" height="32" fill="#B99B7A" />
  <rect x="224" y="128" width="32" height="32" fill="#7D8B8C" />
  <rect x="0" y="160" width="32" height="32" fill="#B8C2BA" />
  <rect x="32" y="160" width="32" height="32" fill="#C4E3D1" />
  <rect x="64" y="160" width="32" height="32" fill="#F0EAD7" />
  <rect x="96" y="160" width="32" height="32" fill="#EEEEEE" />
  <rect x="128" y="160" width="32" height="32" fill="#D4C5B4" />
  <rect x="160" y="160" width="32" height="32" fill="#AAB3B1" />
  <rect x="192" y="160" width="32" height="32" fill="#D5E4E5" />
  <rect x="224" y="160" width="32" height="32" fill="#F0EBE6" />
  <rect x="0" y="192" width="32" height="32" fill="#D9BFA7" />
  <rect x="32" y="192" width="32" height="32" fill="#E9C6B6" />
  <rect x="64" y="192" width="32" height="32" fill="#D1CBB8" />
  <rect x="96" y="192" width="32" height="32" fill="#BDAE9C" />
  <rect x="128" y="192" width="32" height="32" fill="#A09585" />
  <rect x="160" y="192" width="32" height="32" fill="#B0BAC0" />
  <rect x="192" y="192" width="32" height="32" fill="#9B9EA1" />
  <rect x="224" y="192" width="32" height="32" fill="#E9EAEF" />
  <rect x="0" y="224" width="32" height="32" fill="#E1D9D1" />
  <rect x="32" y="224" width="32" height="32" fill="#F6F9F4" />
  <rect x="64" y="224" width="32" height="32" fill="#A6CCB1" />
  <rect x="96" y="224" width="32" height="32" fill="#D0B1A5" />
  <rect x="128" y="224" width="32" height="32" fill="#BFBCBB" />
  <rect x="160" y="224" width="32" height="32" fill="#8D9B9E" />
  <rect x="192" y="224" width="32" height="32" fill="#B7B7B8" />
  <rect x="224" y="224" width="32" height="32" fill="#DBDCD9" />
</svg>
