<svg xmlns="http://www.w3.org/2000/svg" width="256" height="256" viewBox="0 0 256 256" shape-rendering="crispEdges" role="img" aria-labelledby="title desc">
  <title id="title">Signal Amidst Static</title>
  <desc id="desc">The emotional tone draws from the tension between brightness and muted remnants, using a palette representing resilience and fragility. The contrast between vibrant tones of small gold and rust against muted stone gray and bone white emphasizes a dynamic clash, representing the struggle between spark and ash. The primary collision occurs in the central diagonal, creating an upward flow that suggests hope amidst chaos. Broken pixels disrupt the patterns, symbolizing the erratic nature of memory and erasure.</desc>
  <rect width="256" height="256" fill="#FFFFFF" />
  <rect x="0" y="0" width="32" height="32" fill="#B58B1A" />
  <rect x="32" y="0" width="32" height="32" fill="#D4C7B5" />
  <rect x="64" y="0" width="32" height="32" fill="#A2A68B" />
  <rect x="96" y="0" width="32" height="32" fill="#B7AD90" />
  <rect x="128" y="0" width="32" height="32" fill="#E6E4E2" />
  <rect x="160" y="0" width="32" height="32" fill="#A3A28B" />
  <rect x="192" y="0" width="32" height="32" fill="#7B7461" />
  <rect x="224" y="0" width="32" height="32" fill="#4F4A38" />
  <rect x="0" y="32" width="32" height="32" fill="#C8A94D" />
  <rect x="32" y="32" width="32" height="32" fill="#D9C2B0" />
  <rect x="64" y="32" width="32" height="32" fill="#C2B89A" />
  <rect x="96" y="32" width="32" height="32" fill="#A36B4F" />
  <rect x="128" y="32" width="32" height="32" fill="#D1CFC4" />
  <rect x="160" y="32" width="32" height="32" fill="#E7E0D5" />
  <rect x="192" y="32" width="32" height="32" fill="#C9B2AD" />
  <rect x="224" y="32" width="32" height="32" fill="#AA9881" />
  <rect x="0" y="64" width="32" height="32" fill="#D4C7B5" />
  <rect x="32" y="64" width="32" height="32" fill="#7A7A6D" />
  <rect x="64" y="64" width="32" height="32" fill="#ADAD93" />
  <rect x="96" y="64" width="32" height="32" fill="#8A6F61" />
  <rect x="128" y="64" width="32" height="32" fill="#B5A99B" />
  <rect x="160" y="64" width="32" height="32" fill="#B0917F" />
  <rect x="192" y="64" width="32" height="32" fill="#B5D6B9" />
  <rect x="224" y="64" width="32" height="32" fill="#A4B9A4" />
  <rect x="0" y="96" width="32" height="32" fill="#E7E4D5" />
  <rect x="32" y="96" width="32" height="32" fill="#D5BEB1" />
  <rect x="64" y="96" width="32" height="32" fill="#645B47" />
  <rect x="96" y="96" width="32" height="32" fill="#8B8B80" />
  <rect x="128" y="96" width="32" height="32" fill="#B6B2A9" />
  <rect x="160" y="96" width="32" height="32" fill="#C5AA8A" />
  <rect x="192" y="96" width="32" height="32" fill="#C82A3E" />
  <rect x="224" y="96" width="32" height="32" fill="#C4B9A7" />
  <rect x="0" y="128" width="32" height="32" fill="#377A39" />
  <rect x="32" y="128" width="32" height="32" fill="#B4A392" />
  <rect x="64" y="128" width="32" height="32" fill="#B2C8B3" />
  <rect x="96" y="128" width="32" height="32" fill="#D9E4DE" />
  <rect x="128" y="128" width="32" height="32" fill="#E8E1C5" />
  <rect x="160" y="128" width="32" height="32" fill="#74836C" />
  <rect x="192" y="128" width="32" height="32" fill="#A8B57E" />
  <rect x="224" y="128" width="32" height="32" fill="#D1B21D" />
  <rect x="0" y="160" width="32" height="32" fill="#E3B474" />
  <rect x="32" y="160" width="32" height="32" fill="#979B90" />
  <rect x="64" y="160" width="32" height="32" fill="#D0C4B9" />
  <rect x="96" y="160" width="32" height="32" fill="#CBB7B1" />
  <rect x="128" y="160" width="32" height="32" fill="#A0A699" />
  <rect x="160" y="160" width="32" height="32" fill="#E4C4B6" />
  <rect x="192" y="160" width="32" height="32" fill="#D6D8C2" />
  <rect x="224" y="160" width="32" height="32" fill="#634D4C" />
  <rect x="0" y="192" width="32" height="32" fill="#A6826C" />
  <rect x="32" y="192" width="32" height="32" fill="#A78874" />
  <rect x="64" y="192" width="32" height="32" fill="#C5D9A6" />
  <rect x="96" y="192" width="32" height="32" fill="#A6B5A3" />
  <rect x="128" y="192" width="32" height="32" fill="#C3B9A5" />
  <rect x="160" y="192" width="32" height="32" fill="#B3BBAA" />
  <rect x="192" y="192" width="32" height="32" fill="#EDEEDD" />
  <rect x="224" y="192" width="32" height="32" fill="#D0B348" />
  <rect x="0" y="224" width="32" height="32" fill="#C9B59F" />
  <rect x="32" y="224" width="32" height="32" fill="#E9E5DF" />
  <rect x="64" y="224" width="32" height="32" fill="#AA9D85" />
  <rect x="96" y="224" width="32" height="32" fill="#CBAE9F" />
  <rect x="128" y="224" width="32" height="32" fill="#BDA795" />
  <rect x="160" y="224" width="32" height="32" fill="#D4D9B2" />
  <rect x="192" y="224" width="32" height="32" fill="#E6E7D7" />
  <rect x="224" y="224" width="32" height="32" fill="#A2AE8A" />
</svg>
