<svg xmlns="http://www.w3.org/2000/svg" width="256" height="256" viewBox="0 0 256 256" shape-rendering="crispEdges" role="img" aria-labelledby="title desc">
  <title id="title">Shadows of Connection</title>
  <desc id="desc">This artwork embodies the tension between joy and grief through a carefully balanced palette of vibrant yellows and deep blues, evoking both brightness and melancholy. The composition uses a structured layout with a sharp contrast between orderly patterns on one side and chaotic brushstrokes on the other, representing the collision of emotion. The zigzag flow connects colors that create a rhythm across the canvas, while the broken pixels offer a nod to imperfection and the complexity of human experience, leading to an unresolved tension that mirrors the struggles implied by the seed.</desc>
  <rect width="256" height="256" fill="#FFFFFF" />
  <rect x="0" y="0" width="32" height="32" fill="#F6F300" />
  <rect x="32" y="0" width="32" height="32" fill="#FF8700" />
  <rect x="64" y="0" width="32" height="32" fill="#FFE200" />
  <rect x="96" y="0" width="32" height="32" fill="#FF5C00" />
  <rect x="128" y="0" width="32" height="32" fill="#FFA400" />
  <rect x="160" y="0" width="32" height="32" fill="#FFDA00" />
  <rect x="192" y="0" width="32" height="32" fill="#FFC700" />
  <rect x="224" y="0" width="32" height="32" fill="#E2A700" />
  <rect x="0" y="32" width="32" height="32" fill="#A2A7C9" />
  <rect x="32" y="32" width="32" height="32" fill="#3F4A7B" />
  <rect x="64" y="32" width="32" height="32" fill="#4D6A98" />
  <rect x="96" y="32" width="32" height="32" fill="#545D88" />
  <rect x="128" y="32" width="32" height="32" fill="#B0B2D1" />
  <rect x="160" y="32" width="32" height="32" fill="#A1A5B9" />
  <rect x="192" y="32" width="32" height="32" fill="#6A77C1" />
  <rect x="224" y="32" width="32" height="32" fill="#3B4F91" />
  <rect x="0" y="64" width="32" height="32" fill="#B1C3E4" />
  <rect x="32" y="64" width="32" height="32" fill="#2E3D63" />
  <rect x="64" y="64" width="32" height="32" fill="#C8D4D3" />
  <rect x="96" y="64" width="32" height="32" fill="#4B6EAB" />
  <rect x="128" y="64" width="32" height="32" fill="#8E9CBE" />
  <rect x="160" y="64" width="32" height="32" fill="#D4DFE8" />
  <rect x="192" y="64" width="32" height="32" fill="#8391B5" />
  <rect x="224" y="64" width="32" height="32" fill="#506882" />
  <rect x="0" y="96" width="32" height="32" fill="#394E67" />
  <rect x="32" y="96" width="32" height="32" fill="#6B8A94" />
  <rect x="64" y="96" width="32" height="32" fill="#A6C2D2" />
  <rect x="96" y="96" width="32" height="32" fill="#182A40" />
  <rect x="128" y="96" width="32" height="32" fill="#617792" />
  <rect x="160" y="96" width="32" height="32" fill="#4A5E72" />
  <rect x="192" y="96" width="32" height="32" fill="#F0F3F8" />
  <rect x="224" y="96" width="32" height="32" fill="#4F6872" />
  <rect x="0" y="128" width="32" height="32" fill="#C0D4E4" />
  <rect x="32" y="128" width="32" height="32" fill="#1A2A39" />
  <rect x="64" y="128" width="32" height="32" fill="#8FB5C2" />
  <rect x="96" y="128" width="32" height="32" fill="#4F6872" />
  <rect x="128" y="128" width="32" height="32" fill="#B1C9D1" />
  <rect x="160" y="128" width="32" height="32" fill="#E0F0F3" />
  <rect x="192" y="128" width="32" height="32" fill="#1F2F40" />
  <rect x="224" y="128" width="32" height="32" fill="#3A4053" />
  <rect x="0" y="160" width="32" height="32" fill="#B5DBE0" />
  <rect x="32" y="160" width="32" height="32" fill="#A8C8D1" />
  <rect x="64" y="160" width="32" height="32" fill="#C7D2D9" />
  <rect x="96" y="160" width="32" height="32" fill="#C8C9C7" />
  <rect x="128" y="160" width="32" height="32" fill="#D2D7DF" />
  <rect x="160" y="160" width="32" height="32" fill="#4B4E58" />
  <rect x="192" y="160" width="32" height="32" fill="#2A3D48" />
  <rect x="224" y="160" width="32" height="32" fill="#596E7E" />
  <rect x="0" y="192" width="32" height="32" fill="#F3F9F1" />
  <rect x="32" y="192" width="32" height="32" fill="#F8C9A5" />
  <rect x="64" y="192" width="32" height="32" fill="#FF955F" />
  <rect x="96" y="192" width="32" height="32" fill="#BB7400" />
  <rect x="128" y="192" width="32" height="32" fill="#E5D700" />
  <rect x="160" y="192" width="32" height="32" fill="#FFDD00" />
  <rect x="192" y="192" width="32" height="32" fill="#F6DC00" />
  <rect x="224" y="192" width="32" height="32" fill="#C49B00" />
  <rect x="0" y="224" width="32" height="32" fill="#5A5D65" />
  <rect x="32" y="224" width="32" height="32" fill="#2D2A3C" />
  <rect x="64" y="224" width="32" height="32" fill="#7C7EB2" />
  <rect x="96" y="224" width="32" height="32" fill="#7A7F8E" />
  <rect x="128" y="224" width="32" height="32" fill="#1D1D1D" />
  <rect x="160" y="224" width="32" height="32" fill="#4F5A7A" />
  <rect x="192" y="224" width="32" height="32" fill="#2E3442" />
  <rect x="224" y="224" width="32" height="32" fill="#389AAB" />
</svg>
