<svg xmlns="http://www.w3.org/2000/svg" width="256" height="256" viewBox="0 0 256 256" shape-rendering="crispEdges" role="img" aria-labelledby="title desc">
  <title id="title">Order in Chaos</title>
  <desc id="desc">This artwork embodies the emotional tension between panic and control. The chosen palette—a mix of pink, red, gray, and dark maroon—contrasts warmth with coldness, reflecting the internal struggle. The top-left corner starts with ordered stripes symbolizing control, while the chaos gradually breaks through towards the edges, represented by irregular patterns and broken pixels. The tension peaks at the center, where control meets chaos, creating a visual collision that echoes the seed's theme. The contrasting arrangements evoke an emotional story of struggle, control, and eventual release.</desc>
  <rect width="256" height="256" fill="#FFFFFF" />
  <rect x="0" y="0" width="32" height="32" fill="#E57373" />
  <rect x="32" y="0" width="32" height="32" fill="#E91E63" />
  <rect x="64" y="0" width="32" height="32" fill="#F06292" />
  <rect x="96" y="0" width="32" height="32" fill="#F8BBD0" />
  <rect x="128" y="0" width="32" height="32" fill="#FCE4EC" />
  <rect x="160" y="0" width="32" height="32" fill="#FCE4EC" />
  <rect x="192" y="0" width="32" height="32" fill="#F8BBD0" />
  <rect x="224" y="0" width="32" height="32" fill="#F06292" />
  <rect x="0" y="32" width="32" height="32" fill="#F06292" />
  <rect x="32" y="32" width="32" height="32" fill="#E91E63" />
  <rect x="64" y="32" width="32" height="32" fill="#D32F2F" />
  <rect x="96" y="32" width="32" height="32" fill="#F06292" />
  <rect x="128" y="32" width="32" height="32" fill="#F8BBD0" />
  <rect x="160" y="32" width="32" height="32" fill="#FCE4EC" />
  <rect x="192" y="32" width="32" height="32" fill="#FCE4EC" />
  <rect x="224" y="32" width="32" height="32" fill="#F06292" />
  <rect x="0" y="64" width="32" height="32" fill="#E57373" />
  <rect x="32" y="64" width="32" height="32" fill="#F8BBD0" />
  <rect x="64" y="64" width="32" height="32" fill="#E91E63" />
  <rect x="96" y="64" width="32" height="32" fill="#D32F2F" />
  <rect x="128" y="64" width="32" height="32" fill="#D81B60" />
  <rect x="160" y="64" width="32" height="32" fill="#F06292" />
  <rect x="192" y="64" width="32" height="32" fill="#F06292" />
  <rect x="224" y="64" width="32" height="32" fill="#E57373" />
  <rect x="0" y="96" width="32" height="32" fill="#FCE4EC" />
  <rect x="32" y="96" width="32" height="32" fill="#F8BBD0" />
  <rect x="64" y="96" width="32" height="32" fill="#BDBDBD" />
  <rect x="96" y="96" width="32" height="32" fill="#F06292" />
  <rect x="128" y="96" width="32" height="32" fill="#E91E63" />
  <rect x="160" y="96" width="32" height="32" fill="#D32F2F" />
  <rect x="192" y="96" width="32" height="32" fill="#E57373" />
  <rect x="224" y="96" width="32" height="32" fill="#E91E63" />
  <rect x="0" y="128" width="32" height="32" fill="#D32F2F" />
  <rect x="32" y="128" width="32" height="32" fill="#F06292" />
  <rect x="64" y="128" width="32" height="32" fill="#E57373" />
  <rect x="96" y="128" width="32" height="32" fill="#BDBDBD" />
  <rect x="128" y="128" width="32" height="32" fill="#333333" />
  <rect x="160" y="128" width="32" height="32" fill="#3E2723" />
  <rect x="192" y="128" width="32" height="32" fill="#4E342E" />
  <rect x="224" y="128" width="32" height="32" fill="#000000" />
  <rect x="0" y="160" width="32" height="32" fill="#D32F2F" />
  <rect x="32" y="160" width="32" height="32" fill="#9E9E9E" />
  <rect x="64" y="160" width="32" height="32" fill="#9E9E9E" />
  <rect x="96" y="160" width="32" height="32" fill="#F06292" />
  <rect x="128" y="160" width="32" height="32" fill="#F8BBD0" />
  <rect x="160" y="160" width="32" height="32" fill="#F06292" />
  <rect x="192" y="160" width="32" height="32" fill="#CFD8DC" />
  <rect x="224" y="160" width="32" height="32" fill="#FFFFFF" />
  <rect x="0" y="192" width="32" height="32" fill="#BDBDBD" />
  <rect x="32" y="192" width="32" height="32" fill="#757575" />
  <rect x="64" y="192" width="32" height="32" fill="#444444" />
  <rect x="96" y="192" width="32" height="32" fill="#9E9E9E" />
  <rect x="128" y="192" width="32" height="32" fill="#9E9E9E" />
  <rect x="160" y="192" width="32" height="32" fill="#D32F2F" />
  <rect x="192" y="192" width="32" height="32" fill="#F06292" />
  <rect x="224" y="192" width="32" height="32" fill="#D81B60" />
  <rect x="0" y="224" width="32" height="32" fill="#555555" />
  <rect x="32" y="224" width="32" height="32" fill="#4A148C" />
  <rect x="64" y="224" width="32" height="32" fill="#000000" />
  <rect x="96" y="224" width="32" height="32" fill="#3E2723" />
  <rect x="128" y="224" width="32" height="32" fill="#4E342E" />
  <rect x="160" y="224" width="32" height="32" fill="#F06292" />
  <rect x="192" y="224" width="32" height="32" fill="#E91E63" />
  <rect x="224" y="224" width="32" height="32" fill="#D32F2F" />
</svg>
