<svg xmlns="http://www.w3.org/2000/svg" width="256" height="256" viewBox="0 0 256 256" shape-rendering="crispEdges" role="img" aria-labelledby="title desc">
  <title id="title">Echoes of Trust and Shadow</title>
  <desc id="desc">The emotional tone reflects the tension between trust and suspicion, where warm colors symbolize trust (burnt orange and gold) clash with deeper shadows of suspicion (charcoal and dark red). The pattern of halos representing trust softly intersects with the stepwell pattern of suspicion, creating a visual dialogue of overlap and interruption. The main contrast occurs along the horizontal lines, mirroring the division and potential for connection, guiding the eye through layers of complexity and subtle gradients of feeling.</desc>
  <rect width="256" height="256" fill="#FFFFFF" />
  <rect x="0" y="0" width="32" height="32" fill="#4E3B25" />
  <rect x="32" y="0" width="32" height="32" fill="#C96B3E" />
  <rect x="64" y="0" width="32" height="32" fill="#AA882E" />
  <rect x="96" y="0" width="32" height="32" fill="#4E2F25" />
  <rect x="128" y="0" width="32" height="32" fill="#4D3E30" />
  <rect x="160" y="0" width="32" height="32" fill="#305D58" />
  <rect x="192" y="0" width="32" height="32" fill="#F3C77B" />
  <rect x="224" y="0" width="32" height="32" fill="#1C2D2C" />
  <rect x="0" y="32" width="32" height="32" fill="#F1E5C1" />
  <rect x="32" y="32" width="32" height="32" fill="#8B4500" />
  <rect x="64" y="32" width="32" height="32" fill="#D2653D" />
  <rect x="96" y="32" width="32" height="32" fill="#A16B5D" />
  <rect x="128" y="32" width="32" height="32" fill="#D1B05C" />
  <rect x="160" y="32" width="32" height="32" fill="#A65D4A" />
  <rect x="192" y="32" width="32" height="32" fill="#6B4D4C" />
  <rect x="224" y="32" width="32" height="32" fill="#4D2B23" />
  <rect x="0" y="64" width="32" height="32" fill="#423228" />
  <rect x="32" y="64" width="32" height="32" fill="#F0D5A1" />
  <rect x="64" y="64" width="32" height="32" fill="#7C572B" />
  <rect x="96" y="64" width="32" height="32" fill="#9F7E46" />
  <rect x="128" y="64" width="32" height="32" fill="#E0C8A5" />
  <rect x="160" y="64" width="32" height="32" fill="#5B4B4C" />
  <rect x="192" y="64" width="32" height="32" fill="#BC4B3C" />
  <rect x="224" y="64" width="32" height="32" fill="#DCBF87" />
  <rect x="0" y="96" width="32" height="32" fill="#3C2E2C" />
  <rect x="32" y="96" width="32" height="32" fill="#5C3D3D" />
  <rect x="64" y="96" width="32" height="32" fill="#8C0000" />
  <rect x="96" y="96" width="32" height="32" fill="#AA6E61" />
  <rect x="128" y="96" width="32" height="32" fill="#F2E9C4" />
  <rect x="160" y="96" width="32" height="32" fill="#AB8B7E" />
  <rect x="192" y="96" width="32" height="32" fill="#7A3B30" />
  <rect x="224" y="96" width="32" height="32" fill="#4E3B2D" />
  <rect x="0" y="128" width="32" height="32" fill="#6A1D1D" />
  <rect x="32" y="128" width="32" height="32" fill="#BDA067" />
  <rect x="64" y="128" width="32" height="32" fill="#C65C24" />
  <rect x="96" y="128" width="32" height="32" fill="#FF997C" />
  <rect x="128" y="128" width="32" height="32" fill="#A15F50" />
  <rect x="160" y="128" width="32" height="32" fill="#4C4D50" />
  <rect x="192" y="128" width="32" height="32" fill="#5F7F4F" />
  <rect x="224" y="128" width="32" height="32" fill="#3D2D24" />
  <rect x="0" y="160" width="32" height="32" fill="#367F3C" />
  <rect x="32" y="160" width="32" height="32" fill="#C1B299" />
  <rect x="64" y="160" width="32" height="32" fill="#A85D2D" />
  <rect x="96" y="160" width="32" height="32" fill="#C8754C" />
  <rect x="128" y="160" width="32" height="32" fill="#DCD9B8" />
  <rect x="160" y="160" width="32" height="32" fill="#6E5650" />
  <rect x="192" y="160" width="32" height="32" fill="#A07D88" />
  <rect x="224" y="160" width="32" height="32" fill="#A65F47" />
  <rect x="0" y="192" width="32" height="32" fill="#2A1A15" />
  <rect x="32" y="192" width="32" height="32" fill="#C7B2A0" />
  <rect x="64" y="192" width="32" height="32" fill="#C95425" />
  <rect x="96" y="192" width="32" height="32" fill="#4D4E50" />
  <rect x="128" y="192" width="32" height="32" fill="#A03720" />
  <rect x="160" y="192" width="32" height="32" fill="#B5947B" />
  <rect x="192" y="192" width="32" height="32" fill="#FFEDD8" />
  <rect x="224" y="192" width="32" height="32" fill="#405040" />
  <rect x="0" y="224" width="32" height="32" fill="#222D2D" />
  <rect x="32" y="224" width="32" height="32" fill="#BF9D80" />
  <rect x="64" y="224" width="32" height="32" fill="#6B5A47" />
  <rect x="96" y="224" width="32" height="32" fill="#FFD3C4" />
  <rect x="128" y="224" width="32" height="32" fill="#FFC9A3" />
  <rect x="160" y="224" width="32" height="32" fill="#C2755B" />
  <rect x="192" y="224" width="32" height="32" fill="#3B2A21" />
  <rect x="224" y="224" width="32" height="32" fill="#3D4B4D" />
</svg>
