<svg xmlns="http://www.w3.org/2000/svg" width="256" height="256" viewBox="0 0 256 256" shape-rendering="crispEdges" role="img" aria-labelledby="title desc">
  <title id="title">Fractured Harmony</title>
  <desc id="desc">This artwork captures the emotional tension between defiance and submission, represented through a contrasting palette of bold blacks and whites paired with muted grays and a striking orange accent. The central area showcases clusters of dark tones pushing against the quieter, lighter edges, creating a sense of both conflict and connection. The use of broken pixels suggests disruption and repair, embodied by the harsh diagonal patterns and uneven borders that serve as thresholds between chaos and order. Overall, the piece feels dynamic, filled with unresolved emotion but balanced by subtle moments of calm.</desc>
  <rect width="256" height="256" fill="#FFFFFF" />
  <rect x="0" y="0" width="32" height="32" fill="#000000" />
  <rect x="32" y="0" width="32" height="32" fill="#1A1A1A" />
  <rect x="64" y="0" width="32" height="32" fill="#333333" />
  <rect x="96" y="0" width="32" height="32" fill="#4D4D4D" />
  <rect x="128" y="0" width="32" height="32" fill="#FFAA00" />
  <rect x="160" y="0" width="32" height="32" fill="#444444" />
  <rect x="192" y="0" width="32" height="32" fill="#999999" />
  <rect x="224" y="0" width="32" height="32" fill="#E6E6E6" />
  <rect x="0" y="32" width="32" height="32" fill="#222222" />
  <rect x="32" y="32" width="32" height="32" fill="#383838" />
  <rect x="64" y="32" width="32" height="32" fill="#555555" />
  <rect x="96" y="32" width="32" height="32" fill="#777777" />
  <rect x="128" y="32" width="32" height="32" fill="#CCCCCC" />
  <rect x="160" y="32" width="32" height="32" fill="#FFFFFF" />
  <rect x="192" y="32" width="32" height="32" fill="#D9D9D9" />
  <rect x="224" y="32" width="32" height="32" fill="#B3B3B3" />
  <rect x="0" y="64" width="32" height="32" fill="#111111" />
  <rect x="32" y="64" width="32" height="32" fill="#2B2B2B" />
  <rect x="64" y="64" width="32" height="32" fill="#3F3F3F" />
  <rect x="96" y="64" width="32" height="32" fill="#868686" />
  <rect x="128" y="64" width="32" height="32" fill="#C4C4C4" />
  <rect x="160" y="64" width="32" height="32" fill="#AAAAAA" />
  <rect x="192" y="64" width="32" height="32" fill="#666666" />
  <rect x="224" y="64" width="32" height="32" fill="#7A7A7A" />
  <rect x="0" y="96" width="32" height="32" fill="#000000" />
  <rect x="32" y="96" width="32" height="32" fill="#4C4C4C" />
  <rect x="64" y="96" width="32" height="32" fill="#404040" />
  <rect x="96" y="96" width="32" height="32" fill="#8B8B8B" />
  <rect x="128" y="96" width="32" height="32" fill="#A6A6A6" />
  <rect x="160" y="96" width="32" height="32" fill="#BEBEBE" />
  <rect x="192" y="96" width="32" height="32" fill="#F5F5F5" />
  <rect x="224" y="96" width="32" height="32" fill="#EAEAEA" />
  <rect x="0" y="128" width="32" height="32" fill="#FFFFFF" />
  <rect x="32" y="128" width="32" height="32" fill="#F2F2F2" />
  <rect x="64" y="128" width="32" height="32" fill="#D1D1D1" />
  <rect x="96" y="128" width="32" height="32" fill="#999999" />
  <rect x="128" y="128" width="32" height="32" fill="#666666" />
  <rect x="160" y="128" width="32" height="32" fill="#FFAA00" />
  <rect x="192" y="128" width="32" height="32" fill="#B3B3B3" />
  <rect x="224" y="128" width="32" height="32" fill="#AAAAAA" />
  <rect x="0" y="160" width="32" height="32" fill="#CCCCCC" />
  <rect x="32" y="160" width="32" height="32" fill="#B8B8B8" />
  <rect x="64" y="160" width="32" height="32" fill="#7E7E7E" />
  <rect x="96" y="160" width="32" height="32" fill="#3F3F3F" />
  <rect x="128" y="160" width="32" height="32" fill="#0D0D0D" />
  <rect x="160" y="160" width="32" height="32" fill="#444444" />
  <rect x="192" y="160" width="32" height="32" fill="#B3B3B3" />
  <rect x="224" y="160" width="32" height="32" fill="#FFFFFF" />
  <rect x="0" y="192" width="32" height="32" fill="#A1A1A1" />
  <rect x="32" y="192" width="32" height="32" fill="#6D6D6D" />
  <rect x="64" y="192" width="32" height="32" fill="#3A3A3A" />
  <rect x="96" y="192" width="32" height="32" fill="#181818" />
  <rect x="128" y="192" width="32" height="32" fill="#AAAAAA" />
  <rect x="160" y="192" width="32" height="32" fill="#D9D9D9" />
  <rect x="192" y="192" width="32" height="32" fill="#C1C1C1" />
  <rect x="224" y="192" width="32" height="32" fill="#E0E0E0" />
  <rect x="0" y="224" width="32" height="32" fill="#7D7D7D" />
  <rect x="32" y="224" width="32" height="32" fill="#555555" />
  <rect x="64" y="224" width="32" height="32" fill="#AAAAAA" />
  <rect x="96" y="224" width="32" height="32" fill="#F2F2F2" />
  <rect x="128" y="224" width="32" height="32" fill="#101010" />
  <rect x="160" y="224" width="32" height="32" fill="#202020" />
  <rect x="192" y="224" width="32" height="32" fill="#292929" />
  <rect x="224" y="224" width="32" height="32" fill="#646464" />
</svg>
