<svg xmlns="http://www.w3.org/2000/svg" width="256" height="256" viewBox="0 0 256 256" shape-rendering="crispEdges" role="img" aria-labelledby="title desc">
  <title id="title">Echoes of Trust and Doubt</title>
  <desc id="desc">The emotional tone presents a duality, with one side embodying trust's warming glow and the other the cold shadows of suspicion. The palette combines ripe green and honey gold to create a warm zone while deep olive and acid green hint at underlying tension. The pattern features soft breaks and dots for trust, clashing with angular, sharp patterns symbolizing suspicion. The main collision occurs in the center, where patterns interruption evokes a dance of conflict and resolution, mimicking life’s unpredictable shifts between comfort and wariness.</desc>
  <rect width="256" height="256" fill="#FFFFFF" />
  <rect x="0" y="0" width="32" height="32" fill="#4A4E69" />
  <rect x="32" y="0" width="32" height="32" fill="#22223B" />
  <rect x="64" y="0" width="32" height="32" fill="#F1C40F" />
  <rect x="96" y="0" width="32" height="32" fill="#FCE94F" />
  <rect x="128" y="0" width="32" height="32" fill="#4ECDC4" />
  <rect x="160" y="0" width="32" height="32" fill="#F67D17" />
  <rect x="192" y="0" width="32" height="32" fill="#F9A602" />
  <rect x="224" y="0" width="32" height="32" fill="#FFFCF9" />
  <rect x="0" y="32" width="32" height="32" fill="#7F8C8D" />
  <rect x="32" y="32" width="32" height="32" fill="#BDC3C7" />
  <rect x="64" y="32" width="32" height="32" fill="#FFFFFF" />
  <rect x="96" y="32" width="32" height="32" fill="#D5DBDB" />
  <rect x="128" y="32" width="32" height="32" fill="#BDC3C7" />
  <rect x="160" y="32" width="32" height="32" fill="#4ECDC4" />
  <rect x="192" y="32" width="32" height="32" fill="#2C3E50" />
  <rect x="224" y="32" width="32" height="32" fill="#FF6F61" />
  <rect x="0" y="64" width="32" height="32" fill="#F2F3F4" />
  <rect x="32" y="64" width="32" height="32" fill="#35A79C" />
  <rect x="64" y="64" width="32" height="32" fill="#F1C40F" />
  <rect x="96" y="64" width="32" height="32" fill="#A8D8EA" />
  <rect x="128" y="64" width="32" height="32" fill="#FF6F61" />
  <rect x="160" y="64" width="32" height="32" fill="#C1C8E4" />
  <rect x="192" y="64" width="32" height="32" fill="#7A88A0" />
  <rect x="224" y="64" width="32" height="32" fill="#6DA9D8" />
  <rect x="0" y="96" width="32" height="32" fill="#D5DBDB" />
  <rect x="32" y="96" width="32" height="32" fill="#FFFFFF" />
  <rect x="64" y="96" width="32" height="32" fill="#7D7D7D" />
  <rect x="96" y="96" width="32" height="32" fill="#C9D1D3" />
  <rect x="128" y="96" width="32" height="32" fill="#F1C40F" />
  <rect x="160" y="96" width="32" height="32" fill="#16A085" />
  <rect x="192" y="96" width="32" height="32" fill="#2980B9" />
  <rect x="224" y="96" width="32" height="32" fill="#27AE60" />
  <rect x="0" y="128" width="32" height="32" fill="#A0A8B4" />
  <rect x="32" y="128" width="32" height="32" fill="#D5DBDB" />
  <rect x="64" y="128" width="32" height="32" fill="#7F8C8D" />
  <rect x="96" y="128" width="32" height="32" fill="#BDC3C7" />
  <rect x="128" y="128" width="32" height="32" fill="#F9A602" />
  <rect x="160" y="128" width="32" height="32" fill="#F67D17" />
  <rect x="192" y="128" width="32" height="32" fill="#FFFCF9" />
  <rect x="224" y="128" width="32" height="32" fill="#D5DBDB" />
  <rect x="0" y="160" width="32" height="32" fill="#F1C40F" />
  <rect x="32" y="160" width="32" height="32" fill="#4A4E69" />
  <rect x="64" y="160" width="32" height="32" fill="#D1D8E6" />
  <rect x="96" y="160" width="32" height="32" fill="#F2F4F4" />
  <rect x="128" y="160" width="32" height="32" fill="#A8D8EA" />
  <rect x="160" y="160" width="32" height="32" fill="#FCE94F" />
  <rect x="192" y="160" width="32" height="32" fill="#4ECDC4" />
  <rect x="224" y="160" width="32" height="32" fill="#F67D17" />
  <rect x="0" y="192" width="32" height="32" fill="#FF6F61" />
  <rect x="32" y="192" width="32" height="32" fill="#B2B94C" />
  <rect x="64" y="192" width="32" height="32" fill="#35A79C" />
  <rect x="96" y="192" width="32" height="32" fill="#FFFCF9" />
  <rect x="128" y="192" width="32" height="32" fill="#7F8C8D" />
  <rect x="160" y="192" width="32" height="32" fill="#2980B9" />
  <rect x="192" y="192" width="32" height="32" fill="#F9A602" />
  <rect x="224" y="192" width="32" height="32" fill="#2C3E50" />
  <rect x="0" y="224" width="32" height="32" fill="#9FA8DA" />
  <rect x="32" y="224" width="32" height="32" fill="#000000" />
  <rect x="64" y="224" width="32" height="32" fill="#D5DBDB" />
  <rect x="96" y="224" width="32" height="32" fill="#BDC3C7" />
  <rect x="128" y="224" width="32" height="32" fill="#FCE94F" />
  <rect x="160" y="224" width="32" height="32" fill="#7D7D7D" />
  <rect x="192" y="224" width="32" height="32" fill="#A8D8EA" />
  <rect x="224" y="224" width="32" height="32" fill="#FF6F61" />
</svg>
