<svg xmlns="http://www.w3.org/2000/svg" width="256" height="256" viewBox="0 0 256 256" shape-rendering="crispEdges" role="img" aria-labelledby="title desc">
  <title id="title">Echoes of Resolve</title>
  <desc id="desc">The emotional tone encapsulates the tension between longing and resolve, drawing on soft ambers and warm corals to evoke yearning, contrasted with the depth of cold slate and blue-black representing resolve. The palette creates a sense of connection, while broken pixels disrupt order, symbolizing the complexities of emotional experiences. The collision happens in the center, where patterns of 'constellation' from longings intertwine with 'pulse marks' of resolve, illustrating their interaction in a space that oscillates between quiet negative field and intense clusters.</desc>
  <rect width="256" height="256" fill="#FFFFFF" />
  <rect x="0" y="0" width="32" height="32" fill="#FF6F61" />
  <rect x="32" y="0" width="32" height="32" fill="#FFB74D" />
  <rect x="64" y="0" width="32" height="32" fill="#000000" />
  <rect x="96" y="0" width="32" height="32" fill="#5B8BBE" />
  <rect x="128" y="0" width="32" height="32" fill="#000000" />
  <rect x="160" y="0" width="32" height="32" fill="#FF6F61" />
  <rect x="192" y="0" width="32" height="32" fill="#FFB74D" />
  <rect x="224" y="0" width="32" height="32" fill="#000000" />
  <rect x="0" y="32" width="32" height="32" fill="#5B8BBE" />
  <rect x="32" y="32" width="32" height="32" fill="#FF6F61" />
  <rect x="64" y="32" width="32" height="32" fill="#FFB74D" />
  <rect x="96" y="32" width="32" height="32" fill="#000000" />
  <rect x="128" y="32" width="32" height="32" fill="#5B8BBE" />
  <rect x="160" y="32" width="32" height="32" fill="#FF6F61" />
  <rect x="192" y="32" width="32" height="32" fill="#FFB74D" />
  <rect x="224" y="32" width="32" height="32" fill="#5B8BBE" />
  <rect x="0" y="64" width="32" height="32" fill="#000000" />
  <rect x="32" y="64" width="32" height="32" fill="#FFB74D" />
  <rect x="64" y="64" width="32" height="32" fill="#5B8BBE" />
  <rect x="96" y="64" width="32" height="32" fill="#5B8BBE" />
  <rect x="128" y="64" width="32" height="32" fill="#FF6F61" />
  <rect x="160" y="64" width="32" height="32" fill="#FFB74D" />
  <rect x="192" y="64" width="32" height="32" fill="#000000" />
  <rect x="224" y="64" width="32" height="32" fill="#FF6F61" />
  <rect x="0" y="96" width="32" height="32" fill="#FF6F61" />
  <rect x="32" y="96" width="32" height="32" fill="#FFB74D" />
  <rect x="64" y="96" width="32" height="32" fill="#000000" />
  <rect x="96" y="96" width="32" height="32" fill="#FF6F61" />
  <rect x="128" y="96" width="32" height="32" fill="#000000" />
  <rect x="160" y="96" width="32" height="32" fill="#5B8BBE" />
  <rect x="192" y="96" width="32" height="32" fill="#5B8BBE" />
  <rect x="224" y="96" width="32" height="32" fill="#FFB74D" />
  <rect x="0" y="128" width="32" height="32" fill="#000000" />
  <rect x="32" y="128" width="32" height="32" fill="#5B8BBE" />
  <rect x="64" y="128" width="32" height="32" fill="#FFB74D" />
  <rect x="96" y="128" width="32" height="32" fill="#000000" />
  <rect x="128" y="128" width="32" height="32" fill="#FF6F61" />
  <rect x="160" y="128" width="32" height="32" fill="#5B8BBE" />
  <rect x="192" y="128" width="32" height="32" fill="#FF6F61" />
  <rect x="224" y="128" width="32" height="32" fill="#FFB74D" />
  <rect x="0" y="160" width="32" height="32" fill="#5B8BBE" />
  <rect x="32" y="160" width="32" height="32" fill="#FF6F61" />
  <rect x="64" y="160" width="32" height="32" fill="#000000" />
  <rect x="96" y="160" width="32" height="32" fill="#5B8BBE" />
  <rect x="128" y="160" width="32" height="32" fill="#FFB74D" />
  <rect x="160" y="160" width="32" height="32" fill="#FF6F61" />
  <rect x="192" y="160" width="32" height="32" fill="#000000" />
  <rect x="224" y="160" width="32" height="32" fill="#5B8BBE" />
  <rect x="0" y="192" width="32" height="32" fill="#FFB74D" />
  <rect x="32" y="192" width="32" height="32" fill="#000000" />
  <rect x="64" y="192" width="32" height="32" fill="#5B8BBE" />
  <rect x="96" y="192" width="32" height="32" fill="#FF6F61" />
  <rect x="128" y="192" width="32" height="32" fill="#5B8BBE" />
  <rect x="160" y="192" width="32" height="32" fill="#FFB74D" />
  <rect x="192" y="192" width="32" height="32" fill="#000000" />
  <rect x="224" y="192" width="32" height="32" fill="#FF6F61" />
  <rect x="0" y="224" width="32" height="32" fill="#000000" />
  <rect x="32" y="224" width="32" height="32" fill="#5B8BBE" />
  <rect x="64" y="224" width="32" height="32" fill="#FFB74D" />
  <rect x="96" y="224" width="32" height="32" fill="#FF6F61" />
  <rect x="128" y="224" width="32" height="32" fill="#000000" />
  <rect x="160" y="224" width="32" height="32" fill="#5B8BBE" />
  <rect x="192" y="224" width="32" height="32" fill="#FFB74D" />
  <rect x="224" y="224" width="32" height="32" fill="#5B8BBE" />
</svg>
