<svg xmlns="http://www.w3.org/2000/svg" width="256" height="256" viewBox="0 0 256 256" shape-rendering="crispEdges" role="img" aria-labelledby="title desc">
  <title id="title">Echoes of Signal</title>
  <desc id="desc">This artwork conveys the emotional tone of interference and clarity through the juxtaposition of dark and bright colors, embodying the struggle between signal and noise. The palette features vibrant accents like '#00FF00' (signal green) which cut through a dense background of '#A9A9A9' (static gray) and '#000000' (dead black) to represent the tension between interruption and readability. The main collision occurs in the center where the bright green pulse meets the gray static, reflecting the battle between clear messages and distracting noise. The arrangement creates a feeling of islands of clarity amidst a field of interference, evoking the themes of exposure and shelter.</desc>
  <rect width="256" height="256" fill="#FFFFFF" />
  <rect x="0" y="0" width="32" height="32" fill="#000000" />
  <rect x="32" y="0" width="32" height="32" fill="#000000" />
  <rect x="64" y="0" width="32" height="32" fill="#00FF00" />
  <rect x="96" y="0" width="32" height="32" fill="#00FF00" />
  <rect x="128" y="0" width="32" height="32" fill="#A9A9A9" />
  <rect x="160" y="0" width="32" height="32" fill="#A9A9A9" />
  <rect x="192" y="0" width="32" height="32" fill="#000000" />
  <rect x="224" y="0" width="32" height="32" fill="#000000" />
  <rect x="0" y="32" width="32" height="32" fill="#000000" />
  <rect x="32" y="32" width="32" height="32" fill="#00FF00" />
  <rect x="64" y="32" width="32" height="32" fill="#FF00FF" />
  <rect x="96" y="32" width="32" height="32" fill="#FF00FF" />
  <rect x="128" y="32" width="32" height="32" fill="#A9A9A9" />
  <rect x="160" y="32" width="32" height="32" fill="#A9A9A9" />
  <rect x="192" y="32" width="32" height="32" fill="#A9A9A9" />
  <rect x="224" y="32" width="32" height="32" fill="#000000" />
  <rect x="0" y="64" width="32" height="32" fill="#000000" />
  <rect x="32" y="64" width="32" height="32" fill="#A9A9A9" />
  <rect x="64" y="64" width="32" height="32" fill="#00FF00" />
  <rect x="96" y="64" width="32" height="32" fill="#00FF00" />
  <rect x="128" y="64" width="32" height="32" fill="#A9A9A9" />
  <rect x="160" y="64" width="32" height="32" fill="#A9A9A9" />
  <rect x="192" y="64" width="32" height="32" fill="#000000" />
  <rect x="224" y="64" width="32" height="32" fill="#000000" />
  <rect x="0" y="96" width="32" height="32" fill="#A9A9A9" />
  <rect x="32" y="96" width="32" height="32" fill="#A9A9A9" />
  <rect x="64" y="96" width="32" height="32" fill="#FF00FF" />
  <rect x="96" y="96" width="32" height="32" fill="#FF00FF" />
  <rect x="128" y="96" width="32" height="32" fill="#A9A9A9" />
  <rect x="160" y="96" width="32" height="32" fill="#00FF00" />
  <rect x="192" y="96" width="32" height="32" fill="#000000" />
  <rect x="224" y="96" width="32" height="32" fill="#000000" />
  <rect x="0" y="128" width="32" height="32" fill="#000000" />
  <rect x="32" y="128" width="32" height="32" fill="#A9A9A9" />
  <rect x="64" y="128" width="32" height="32" fill="#A9A9A9" />
  <rect x="96" y="128" width="32" height="32" fill="#A9A9A9" />
  <rect x="128" y="128" width="32" height="32" fill="#00FF00" />
  <rect x="160" y="128" width="32" height="32" fill="#00FF00" />
  <rect x="192" y="128" width="32" height="32" fill="#000000" />
  <rect x="224" y="128" width="32" height="32" fill="#000000" />
  <rect x="0" y="160" width="32" height="32" fill="#00FF00" />
  <rect x="32" y="160" width="32" height="32" fill="#FF00FF" />
  <rect x="64" y="160" width="32" height="32" fill="#A9A9A9" />
  <rect x="96" y="160" width="32" height="32" fill="#A9A9A9" />
  <rect x="128" y="160" width="32" height="32" fill="#A9A9A9" />
  <rect x="160" y="160" width="32" height="32" fill="#A9A9A9" />
  <rect x="192" y="160" width="32" height="32" fill="#000000" />
  <rect x="224" y="160" width="32" height="32" fill="#000000" />
  <rect x="0" y="192" width="32" height="32" fill="#000000" />
  <rect x="32" y="192" width="32" height="32" fill="#A9A9A9" />
  <rect x="64" y="192" width="32" height="32" fill="#A9A9A9" />
  <rect x="96" y="192" width="32" height="32" fill="#FF00FF" />
  <rect x="128" y="192" width="32" height="32" fill="#A9A9A9" />
  <rect x="160" y="192" width="32" height="32" fill="#A9A9A9" />
  <rect x="192" y="192" width="32" height="32" fill="#000000" />
  <rect x="224" y="192" width="32" height="32" fill="#000000" />
  <rect x="0" y="224" width="32" height="32" fill="#000000" />
  <rect x="32" y="224" width="32" height="32" fill="#000000" />
  <rect x="64" y="224" width="32" height="32" fill="#00FF00" />
  <rect x="96" y="224" width="32" height="32" fill="#A9A9A9" />
  <rect x="128" y="224" width="32" height="32" fill="#A9A9A9" />
  <rect x="160" y="224" width="32" height="32" fill="#00FF00" />
  <rect x="192" y="224" width="32" height="32" fill="#A9A9A9" />
  <rect x="224" y="224" width="32" height="32" fill="#000000" />
</svg>
