<svg xmlns="http://www.w3.org/2000/svg" width="256" height="256" viewBox="0 0 256 256" shape-rendering="crispEdges" role="img" aria-labelledby="title desc">
  <title id="title">Exposure and Shelter</title>
  <desc id="desc">The emotional tone centers on the tension between vulnerability and strength, represented through an interplay of dark and light colors. The palette utilizes navy and dim cyan to symbolize safety and exposure, while intensifying the contrast with stark black and white to accentuate the theme of broken edges and fragile centers. The main collision occurs in the upper left, where soft and aggressive patterns intersect, embodying the struggle of protection versus exposure. This grid encapsulates a narrative of conflicting feelings, showcasing how delicate layers coexist with dense structures.</desc>
  <rect width="256" height="256" fill="#FFFFFF" />
  <rect x="0" y="0" width="32" height="32" fill="#000000" />
  <rect x="32" y="0" width="32" height="32" fill="#1A1A1A" />
  <rect x="64" y="0" width="32" height="32" fill="#333333" />
  <rect x="96" y="0" width="32" height="32" fill="#4D4D4D" />
  <rect x="128" y="0" width="32" height="32" fill="#808080" />
  <rect x="160" y="0" width="32" height="32" fill="#B3B3B3" />
  <rect x="192" y="0" width="32" height="32" fill="#FFFFFF" />
  <rect x="224" y="0" width="32" height="32" fill="#FFFFFF" />
  <rect x="0" y="32" width="32" height="32" fill="#1A1A1A" />
  <rect x="32" y="32" width="32" height="32" fill="#333333" />
  <rect x="64" y="32" width="32" height="32" fill="#666666" />
  <rect x="96" y="32" width="32" height="32" fill="#999999" />
  <rect x="128" y="32" width="32" height="32" fill="#CCCCCC" />
  <rect x="160" y="32" width="32" height="32" fill="#EEEEEE" />
  <rect x="192" y="32" width="32" height="32" fill="#B3E6FF" />
  <rect x="224" y="32" width="32" height="32" fill="#80CCFF" />
  <rect x="0" y="64" width="32" height="32" fill="#1A1A1A" />
  <rect x="32" y="64" width="32" height="32" fill="#1A1A1A" />
  <rect x="64" y="64" width="32" height="32" fill="#B3E6FF" />
  <rect x="96" y="64" width="32" height="32" fill="#4D4D4D" />
  <rect x="128" y="64" width="32" height="32" fill="#666666" />
  <rect x="160" y="64" width="32" height="32" fill="#999999" />
  <rect x="192" y="64" width="32" height="32" fill="#E6F7FF" />
  <rect x="224" y="64" width="32" height="32" fill="#F0F0F0" />
  <rect x="0" y="96" width="32" height="32" fill="#333333" />
  <rect x="32" y="96" width="32" height="32" fill="#4D4D4D" />
  <rect x="64" y="96" width="32" height="32" fill="#404040" />
  <rect x="96" y="96" width="32" height="32" fill="#7F7F7F" />
  <rect x="128" y="96" width="32" height="32" fill="#A6A6A6" />
  <rect x="160" y="96" width="32" height="32" fill="#C2C2C2" />
  <rect x="192" y="96" width="32" height="32" fill="#80CCFF" />
  <rect x="224" y="96" width="32" height="32" fill="#B3E6FF" />
  <rect x="0" y="128" width="32" height="32" fill="#000000" />
  <rect x="32" y="128" width="32" height="32" fill="#00B3E3" />
  <rect x="64" y="128" width="32" height="32" fill="#80CCFF" />
  <rect x="96" y="128" width="32" height="32" fill="#00A3CC" />
  <rect x="128" y="128" width="32" height="32" fill="#B3B3B3" />
  <rect x="160" y="128" width="32" height="32" fill="#FFFFFF" />
  <rect x="192" y="128" width="32" height="32" fill="#CCCCCC" />
  <rect x="224" y="128" width="32" height="32" fill="#E6F7FF" />
  <rect x="0" y="160" width="32" height="32" fill="#1A1A1A" />
  <rect x="32" y="160" width="32" height="32" fill="#4D4D4D" />
  <rect x="64" y="160" width="32" height="32" fill="#6A6A6A" />
  <rect x="96" y="160" width="32" height="32" fill="#8C8C8C" />
  <rect x="128" y="160" width="32" height="32" fill="#FFFFFF" />
  <rect x="160" y="160" width="32" height="32" fill="#CCCCCC" />
  <rect x="192" y="160" width="32" height="32" fill="#FFFFFF" />
  <rect x="224" y="160" width="32" height="32" fill="#80CCFF" />
  <rect x="0" y="192" width="32" height="32" fill="#000000" />
  <rect x="32" y="192" width="32" height="32" fill="#00B3E3" />
  <rect x="64" y="192" width="32" height="32" fill="#B3E6FF" />
  <rect x="96" y="192" width="32" height="32" fill="#FFFFFF" />
  <rect x="128" y="192" width="32" height="32" fill="#CCCCCC" />
  <rect x="160" y="192" width="32" height="32" fill="#E6F7FF" />
  <rect x="192" y="192" width="32" height="32" fill="#F0F0F0" />
  <rect x="224" y="192" width="32" height="32" fill="#F2F2F2" />
  <rect x="0" y="224" width="32" height="32" fill="#000000" />
  <rect x="32" y="224" width="32" height="32" fill="#000000" />
  <rect x="64" y="224" width="32" height="32" fill="#666666" />
  <rect x="96" y="224" width="32" height="32" fill="#999999" />
  <rect x="128" y="224" width="32" height="32" fill="#CCCCCC" />
  <rect x="160" y="224" width="32" height="32" fill="#FFFFFF" />
  <rect x="192" y="224" width="32" height="32" fill="#C2C2C2" />
  <rect x="224" y="224" width="32" height="32" fill="#B3E6FF" />
</svg>
