<svg xmlns="http://www.w3.org/2000/svg" width="256" height="256" viewBox="0 0 256 256" shape-rendering="crispEdges" role="img" aria-labelledby="title desc">
  <title id="title">Echoes of Light and Shadow</title>
  <desc id="desc">This artwork encapsulates the emotional clash between vulnerability and strength through contrast in color and pattern. The palette of muted reds and grays, resonating from the 'love_betrayal' theme, reflects the nuances of these emotions: warmth disrupted by cold. The dominant presence of dark maroon symbolizes strength, serving as a boundary against the pale pink accents that embody vulnerability. The central pixels clash, creating a focal point of tension, while the soft edges contain moments of quiet space, inviting the viewer to explore the contrast without literal interpretation.</desc>
  <rect width="256" height="256" fill="#FFFFFF" />
  <rect x="0" y="0" width="32" height="32" fill="#4B003B" />
  <rect x="32" y="0" width="32" height="32" fill="#A05B65" />
  <rect x="64" y="0" width="32" height="32" fill="#7C1E27" />
  <rect x="96" y="0" width="32" height="32" fill="#D8B5B1" />
  <rect x="128" y="0" width="32" height="32" fill="#4B003B" />
  <rect x="160" y="0" width="32" height="32" fill="#D8B5B1" />
  <rect x="192" y="0" width="32" height="32" fill="#7C1E27" />
  <rect x="224" y="0" width="32" height="32" fill="#A05B65" />
  <rect x="0" y="32" width="32" height="32" fill="#4B003B" />
  <rect x="32" y="32" width="32" height="32" fill="#B45C67" />
  <rect x="64" y="32" width="32" height="32" fill="#A05B65" />
  <rect x="96" y="32" width="32" height="32" fill="#C37A89" />
  <rect x="128" y="32" width="32" height="32" fill="#A05B65" />
  <rect x="160" y="32" width="32" height="32" fill="#C37A89" />
  <rect x="192" y="32" width="32" height="32" fill="#B45C67" />
  <rect x="224" y="32" width="32" height="32" fill="#4B003B" />
  <rect x="0" y="64" width="32" height="32" fill="#D8B5B1" />
  <rect x="32" y="64" width="32" height="32" fill="#A05B65" />
  <rect x="64" y="64" width="32" height="32" fill="#B45C67" />
  <rect x="96" y="64" width="32" height="32" fill="#4B003B" />
  <rect x="128" y="64" width="32" height="32" fill="#B45C67" />
  <rect x="160" y="64" width="32" height="32" fill="#A05B65" />
  <rect x="192" y="64" width="32" height="32" fill="#D8B5B1" />
  <rect x="224" y="64" width="32" height="32" fill="#7C1E27" />
  <rect x="0" y="96" width="32" height="32" fill="#7C1E27" />
  <rect x="32" y="96" width="32" height="32" fill="#D8B5B1" />
  <rect x="64" y="96" width="32" height="32" fill="#B45C67" />
  <rect x="96" y="96" width="32" height="32" fill="#D8B5B1" />
  <rect x="128" y="96" width="32" height="32" fill="#7C1E27" />
  <rect x="160" y="96" width="32" height="32" fill="#C37A89" />
  <rect x="192" y="96" width="32" height="32" fill="#A05B65" />
  <rect x="224" y="96" width="32" height="32" fill="#4B003B" />
  <rect x="0" y="128" width="32" height="32" fill="#4B003B" />
  <rect x="32" y="128" width="32" height="32" fill="#7C1E27" />
  <rect x="64" y="128" width="32" height="32" fill="#D8B5B1" />
  <rect x="96" y="128" width="32" height="32" fill="#A05B65" />
  <rect x="128" y="128" width="32" height="32" fill="#B45C67" />
  <rect x="160" y="128" width="32" height="32" fill="#C37A89" />
  <rect x="192" y="128" width="32" height="32" fill="#7C1E27" />
  <rect x="224" y="128" width="32" height="32" fill="#D8B5B1" />
  <rect x="0" y="160" width="32" height="32" fill="#A05B65" />
  <rect x="32" y="160" width="32" height="32" fill="#B45C67" />
  <rect x="64" y="160" width="32" height="32" fill="#4B003B" />
  <rect x="96" y="160" width="32" height="32" fill="#C37A89" />
  <rect x="128" y="160" width="32" height="32" fill="#A05B65" />
  <rect x="160" y="160" width="32" height="32" fill="#7C1E27" />
  <rect x="192" y="160" width="32" height="32" fill="#D8B5B1" />
  <rect x="224" y="160" width="32" height="32" fill="#B45C67" />
  <rect x="0" y="192" width="32" height="32" fill="#D8B5B1" />
  <rect x="32" y="192" width="32" height="32" fill="#7C1E27" />
  <rect x="64" y="192" width="32" height="32" fill="#A05B65" />
  <rect x="96" y="192" width="32" height="32" fill="#4B003B" />
  <rect x="128" y="192" width="32" height="32" fill="#C37A89" />
  <rect x="160" y="192" width="32" height="32" fill="#D8B5B1" />
  <rect x="192" y="192" width="32" height="32" fill="#7C1E27" />
  <rect x="224" y="192" width="32" height="32" fill="#A05B65" />
  <rect x="0" y="224" width="32" height="32" fill="#7C1E27" />
  <rect x="32" y="224" width="32" height="32" fill="#B45C67" />
  <rect x="64" y="224" width="32" height="32" fill="#D8B5B1" />
  <rect x="96" y="224" width="32" height="32" fill="#C37A89" />
  <rect x="128" y="224" width="32" height="32" fill="#D8B5B1" />
  <rect x="160" y="224" width="32" height="32" fill="#4B003B" />
  <rect x="192" y="224" width="32" height="32" fill="#A05B65" />
  <rect x="224" y="224" width="32" height="32" fill="#B45C67" />
</svg>
