<svg xmlns="http://www.w3.org/2000/svg" width="256" height="256" viewBox="0 0 256 256" shape-rendering="crispEdges" role="img" aria-labelledby="title desc">
  <title id="title">Pressure Release</title>
  <desc id="desc">This composition captures the duality of quietness and pressure, translating the chaos of 'shatter against tide' into a visual form. The palette combines darker colors like dark navy and compressed red for density and pressure, and softer hues like off-white and faint peach to create zones of calm. The main collision occurs through the sharp edges and contrasting colors that disrupt the muted field, embodying the tension between the weighted border and the spacious center. The pattern aligns with the seed's themes of pressure vs. quiet through clustered pixels versus loose spaces, evoking a sense of fragmented clarity in confusion.</desc>
  <rect width="256" height="256" fill="#FFFFFF" />
  <rect x="0" y="0" width="32" height="32" fill="#2C3E50" />
  <rect x="32" y="0" width="32" height="32" fill="#34495E" />
  <rect x="64" y="0" width="32" height="32" fill="#3B5998" />
  <rect x="96" y="0" width="32" height="32" fill="#6C7480" />
  <rect x="128" y="0" width="32" height="32" fill="#B0BEC5" />
  <rect x="160" y="0" width="32" height="32" fill="#ECF0F1" />
  <rect x="192" y="0" width="32" height="32" fill="#F8C291" />
  <rect x="224" y="0" width="32" height="32" fill="#E67E22" />
  <rect x="0" y="32" width="32" height="32" fill="#2C3E50" />
  <rect x="32" y="32" width="32" height="32" fill="#34495E" />
  <rect x="64" y="32" width="32" height="32" fill="#3B5998" />
  <rect x="96" y="32" width="32" height="32" fill="#4D606D" />
  <rect x="128" y="32" width="32" height="32" fill="#B0BEC5" />
  <rect x="160" y="32" width="32" height="32" fill="#D5DDE2" />
  <rect x="192" y="32" width="32" height="32" fill="#F8C291" />
  <rect x="224" y="32" width="32" height="32" fill="#E67E22" />
  <rect x="0" y="64" width="32" height="32" fill="#000000" />
  <rect x="32" y="64" width="32" height="32" fill="#B0BEC5" />
  <rect x="64" y="64" width="32" height="32" fill="#FFD700" />
  <rect x="96" y="64" width="32" height="32" fill="#FF4500" />
  <rect x="128" y="64" width="32" height="32" fill="#34495E" />
  <rect x="160" y="64" width="32" height="32" fill="#8E44AD" />
  <rect x="192" y="64" width="32" height="32" fill="#D5DDE2" />
  <rect x="224" y="64" width="32" height="32" fill="#E67E22" />
  <rect x="0" y="96" width="32" height="32" fill="#2C3E50" />
  <rect x="32" y="96" width="32" height="32" fill="#BDC3C7" />
  <rect x="64" y="96" width="32" height="32" fill="#4D606D" />
  <rect x="96" y="96" width="32" height="32" fill="#1ABC9C" />
  <rect x="128" y="96" width="32" height="32" fill="#8E44AD" />
  <rect x="160" y="96" width="32" height="32" fill="#D5DDE2" />
  <rect x="192" y="96" width="32" height="32" fill="#F39C12" />
  <rect x="224" y="96" width="32" height="32" fill="#E67E22" />
  <rect x="0" y="128" width="32" height="32" fill="#000000" />
  <rect x="32" y="128" width="32" height="32" fill="#D5DDE2" />
  <rect x="64" y="128" width="32" height="32" fill="#E74C3C" />
  <rect x="96" y="128" width="32" height="32" fill="#8E44AD" />
  <rect x="128" y="128" width="32" height="32" fill="#2C3E50" />
  <rect x="160" y="128" width="32" height="32" fill="#BDC3C7" />
  <rect x="192" y="128" width="32" height="32" fill="#BF55EC" />
  <rect x="224" y="128" width="32" height="32" fill="#E67E22" />
  <rect x="0" y="160" width="32" height="32" fill="#34495E" />
  <rect x="32" y="160" width="32" height="32" fill="#D5DDE2" />
  <rect x="64" y="160" width="32" height="32" fill="#FFD700" />
  <rect x="96" y="160" width="32" height="32" fill="#8E44AD" />
  <rect x="128" y="160" width="32" height="32" fill="#3B5998" />
  <rect x="160" y="160" width="32" height="32" fill="#D5DDE2" />
  <rect x="192" y="160" width="32" height="32" fill="#E67E22" />
  <rect x="224" y="160" width="32" height="32" fill="#E74C3C" />
  <rect x="0" y="192" width="32" height="32" fill="#2C3E50" />
  <rect x="32" y="192" width="32" height="32" fill="#BDC3C7" />
  <rect x="64" y="192" width="32" height="32" fill="#E74C3C" />
  <rect x="96" y="192" width="32" height="32" fill="#E67E22" />
  <rect x="128" y="192" width="32" height="32" fill="#8E44AD" />
  <rect x="160" y="192" width="32" height="32" fill="#D5DDE2" />
  <rect x="192" y="192" width="32" height="32" fill="#F39C12" />
  <rect x="224" y="192" width="32" height="32" fill="#F5B041" />
  <rect x="0" y="224" width="32" height="32" fill="#34495E" />
  <rect x="32" y="224" width="32" height="32" fill="#B0BEC5" />
  <rect x="64" y="224" width="32" height="32" fill="#1ABC9C" />
  <rect x="96" y="224" width="32" height="32" fill="#D5DDE2" />
  <rect x="128" y="224" width="32" height="32" fill="#F39C12" />
  <rect x="160" y="224" width="32" height="32" fill="#8E44AD" />
  <rect x="192" y="224" width="32" height="32" fill="#FF4500" />
  <rect x="224" y="224" width="32" height="32" fill="#E67E22" />
</svg>
