<svg xmlns="http://www.w3.org/2000/svg" width="256" height="256" viewBox="0 0 256 256" shape-rendering="crispEdges" role="img" aria-labelledby="title desc">
  <title id="title">Pressure and Release</title>
  <desc id="desc">This composition contrasts the dense, compressed left edge with a softer, quieter right side, evoking a struggle between weight and calm. The dark navy represents pressure, while faint peach reflects quietude, creating a narrative of conflict and resolution. Broken pixels add intentional disruptions, enhancing the feeling of shattering against a tide. The pattern of dots for pressure intersects with ripples of soft hues, symbolizing the push and pull of emotional currents.</desc>
  <rect width="256" height="256" fill="#FFFFFF" />
  <rect x="0" y="0" width="32" height="32" fill="#3C4F7B" />
  <rect x="32" y="0" width="32" height="32" fill="#3C4F7B" />
  <rect x="64" y="0" width="32" height="32" fill="#3C4F7B" />
  <rect x="96" y="0" width="32" height="32" fill="#3C4F7B" />
  <rect x="128" y="0" width="32" height="32" fill="#FFFFFF" />
  <rect x="160" y="0" width="32" height="32" fill="#E5B4A0" />
  <rect x="192" y="0" width="32" height="32" fill="#E5B4A0" />
  <rect x="224" y="0" width="32" height="32" fill="#E5B4A0" />
  <rect x="0" y="32" width="32" height="32" fill="#3C4F7B" />
  <rect x="32" y="32" width="32" height="32" fill="#3C4F7B" />
  <rect x="64" y="32" width="32" height="32" fill="#3C4F7B" />
  <rect x="96" y="32" width="32" height="32" fill="#3C4F7B" />
  <rect x="128" y="32" width="32" height="32" fill="#FFFFFF" />
  <rect x="160" y="32" width="32" height="32" fill="#E5B4A0" />
  <rect x="192" y="32" width="32" height="32" fill="#E5B4A0" />
  <rect x="224" y="32" width="32" height="32" fill="#E5B4A0" />
  <rect x="0" y="64" width="32" height="32" fill="#3C4F7B" />
  <rect x="32" y="64" width="32" height="32" fill="#3C4F7B" />
  <rect x="64" y="64" width="32" height="32" fill="#3C4F7B" />
  <rect x="96" y="64" width="32" height="32" fill="#E5B4A0" />
  <rect x="128" y="64" width="32" height="32" fill="#E5B4A0" />
  <rect x="160" y="64" width="32" height="32" fill="#FFFFFF" />
  <rect x="192" y="64" width="32" height="32" fill="#E5B4A0" />
  <rect x="224" y="64" width="32" height="32" fill="#E5B4A0" />
  <rect x="0" y="96" width="32" height="32" fill="#3C4F7B" />
  <rect x="32" y="96" width="32" height="32" fill="#3C4F7B" />
  <rect x="64" y="96" width="32" height="32" fill="#E5B4A0" />
  <rect x="96" y="96" width="32" height="32" fill="#E5B4A0" />
  <rect x="128" y="96" width="32" height="32" fill="#E5B4A0" />
  <rect x="160" y="96" width="32" height="32" fill="#E5B4A0" />
  <rect x="192" y="96" width="32" height="32" fill="#FFFFFF" />
  <rect x="224" y="96" width="32" height="32" fill="#D7C9C3" />
  <rect x="0" y="128" width="32" height="32" fill="#3C4F7B" />
  <rect x="32" y="128" width="32" height="32" fill="#E5B4A0" />
  <rect x="64" y="128" width="32" height="32" fill="#E5B4A0" />
  <rect x="96" y="128" width="32" height="32" fill="#E5B4A0" />
  <rect x="128" y="128" width="32" height="32" fill="#E5B4A0" />
  <rect x="160" y="128" width="32" height="32" fill="#FFFFFF" />
  <rect x="192" y="128" width="32" height="32" fill="#D7C9C3" />
  <rect x="224" y="128" width="32" height="32" fill="#D7C9C3" />
  <rect x="0" y="160" width="32" height="32" fill="#FFFFFF" />
  <rect x="32" y="160" width="32" height="32" fill="#E5B4A0" />
  <rect x="64" y="160" width="32" height="32" fill="#E5B4A0" />
  <rect x="96" y="160" width="32" height="32" fill="#E5B4A0" />
  <rect x="128" y="160" width="32" height="32" fill="#D7C9C3" />
  <rect x="160" y="160" width="32" height="32" fill="#D7C9C3" />
  <rect x="192" y="160" width="32" height="32" fill="#D7C9C3" />
  <rect x="224" y="160" width="32" height="32" fill="#D7C9C3" />
  <rect x="0" y="192" width="32" height="32" fill="#FFFFFF" />
  <rect x="32" y="192" width="32" height="32" fill="#E5B4A0" />
  <rect x="64" y="192" width="32" height="32" fill="#E5B4A0" />
  <rect x="96" y="192" width="32" height="32" fill="#D7C9C3" />
  <rect x="128" y="192" width="32" height="32" fill="#D7C9C3" />
  <rect x="160" y="192" width="32" height="32" fill="#D7C9C3" />
  <rect x="192" y="192" width="32" height="32" fill="#D7C9C3" />
  <rect x="224" y="192" width="32" height="32" fill="#D7C9C3" />
  <rect x="0" y="224" width="32" height="32" fill="#FFFFFF" />
  <rect x="32" y="224" width="32" height="32" fill="#FFFFFF" />
  <rect x="64" y="224" width="32" height="32" fill="#D7C9C3" />
  <rect x="96" y="224" width="32" height="32" fill="#D7C9C3" />
  <rect x="128" y="224" width="32" height="32" fill="#D7C9C3" />
  <rect x="160" y="224" width="32" height="32" fill="#D7C9C3" />
  <rect x="192" y="224" width="32" height="32" fill="#D7C9C3" />
  <rect x="224" y="224" width="32" height="32" fill="#D7C9C3" />
</svg>
