<svg xmlns="http://www.w3.org/2000/svg" width="256" height="256" viewBox="0 0 256 256" shape-rendering="crispEdges" role="img" aria-labelledby="title desc">
  <title id="title">Hunger Against Boundaries</title>
  <desc id="desc">This composition embodies the emotional tension between desire and emptiness, using a palette that reflects warmth and coolness. The rich tones of hot coral and blood orange clash with deep charcoal and hollow blue, illustrating a struggle between overwhelming desire and the restraint of nothingness. The main collision occurs in the corner, where vibrant colors overflow, contrasting with the muted gradient across the grid. This represents the push of overwhelming desire against a structured boundary of emptiness, creating a visual rhythm of pressure and release.</desc>
  <rect width="256" height="256" fill="#FFFFFF" />
  <rect x="0" y="0" width="32" height="32" fill="#F76D49" />
  <rect x="32" y="0" width="32" height="32" fill="#F94C3D" />
  <rect x="64" y="0" width="32" height="32" fill="#D87F7A" />
  <rect x="96" y="0" width="32" height="32" fill="#C3BEB2" />
  <rect x="128" y="0" width="32" height="32" fill="#A4A77F" />
  <rect x="160" y="0" width="32" height="32" fill="#B2A49D" />
  <rect x="192" y="0" width="32" height="32" fill="#7B5E6D" />
  <rect x="224" y="0" width="32" height="32" fill="#2D2A2B" />
  <rect x="0" y="32" width="32" height="32" fill="#FCB0A5" />
  <rect x="32" y="32" width="32" height="32" fill="#D88B85" />
  <rect x="64" y="32" width="32" height="32" fill="#84A64A" />
  <rect x="96" y="32" width="32" height="32" fill="#B7B4AA" />
  <rect x="128" y="32" width="32" height="32" fill="#E5C1B8" />
  <rect x="160" y="32" width="32" height="32" fill="#9A8D79" />
  <rect x="192" y="32" width="32" height="32" fill="#4F4B45" />
  <rect x="224" y="32" width="32" height="32" fill="#2D2A28" />
  <rect x="0" y="64" width="32" height="32" fill="#F8B1AA" />
  <rect x="32" y="64" width="32" height="32" fill="#F2896B" />
  <rect x="64" y="64" width="32" height="32" fill="#E2B45C" />
  <rect x="96" y="64" width="32" height="32" fill="#C7CAD2" />
  <rect x="128" y="64" width="32" height="32" fill="#C3B3A0" />
  <rect x="160" y="64" width="32" height="32" fill="#6B5D5D" />
  <rect x="192" y="64" width="32" height="32" fill="#373834" />
  <rect x="224" y="64" width="32" height="32" fill="#202020" />
  <rect x="0" y="96" width="32" height="32" fill="#F7C1B5" />
  <rect x="32" y="96" width="32" height="32" fill="#FFB248" />
  <rect x="64" y="96" width="32" height="32" fill="#BA5103" />
  <rect x="96" y="96" width="32" height="32" fill="#4E5256" />
  <rect x="128" y="96" width="32" height="32" fill="#BEC6D9" />
  <rect x="160" y="96" width="32" height="32" fill="#6D7275" />
  <rect x="192" y="96" width="32" height="32" fill="#4B5458" />
  <rect x="224" y="96" width="32" height="32" fill="#252525" />
  <rect x="0" y="128" width="32" height="32" fill="#F6BF93" />
  <rect x="32" y="128" width="32" height="32" fill="#FFC500" />
  <rect x="64" y="128" width="32" height="32" fill="#E8B31C" />
  <rect x="96" y="128" width="32" height="32" fill="#A5B8C7" />
  <rect x="128" y="128" width="32" height="32" fill="#B1A6A6" />
  <rect x="160" y="128" width="32" height="32" fill="#8A7E7A" />
  <rect x="192" y="128" width="32" height="32" fill="#575858" />
  <rect x="224" y="128" width="32" height="32" fill="#444444" />
  <rect x="0" y="160" width="32" height="32" fill="#E4C6B6" />
  <rect x="32" y="160" width="32" height="32" fill="#BFA44A" />
  <rect x="64" y="160" width="32" height="32" fill="#F7C1B1" />
  <rect x="96" y="160" width="32" height="32" fill="#8C8D8F" />
  <rect x="128" y="160" width="32" height="32" fill="#BFAC9A" />
  <rect x="160" y="160" width="32" height="32" fill="#555B55" />
  <rect x="192" y="160" width="32" height="32" fill="#303030" />
  <rect x="224" y="160" width="32" height="32" fill="#1C1C1C" />
  <rect x="0" y="192" width="32" height="32" fill="#F48F99" />
  <rect x="32" y="192" width="32" height="32" fill="#FF7100" />
  <rect x="64" y="192" width="32" height="32" fill="#D9BA47" />
  <rect x="96" y="192" width="32" height="32" fill="#7A8A7B" />
  <rect x="128" y="192" width="32" height="32" fill="#BCA1A0" />
  <rect x="160" y="192" width="32" height="32" fill="#616363" />
  <rect x="192" y="192" width="32" height="32" fill="#3A3A3A" />
  <rect x="224" y="192" width="32" height="32" fill="#202020" />
  <rect x="0" y="224" width="32" height="32" fill="#DD6C3E" />
  <rect x="32" y="224" width="32" height="32" fill="#FFB77D" />
  <rect x="64" y="224" width="32" height="32" fill="#F4DBD0" />
  <rect x="96" y="224" width="32" height="32" fill="#8C8E89" />
  <rect x="128" y="224" width="32" height="32" fill="#C9C2C7" />
  <rect x="160" y="224" width="32" height="32" fill="#555B55" />
  <rect x="192" y="224" width="32" height="32" fill="#1C1C1C" />
  <rect x="224" y="224" width="32" height="32" fill="#000000" />
</svg>
