<svg xmlns="http://www.w3.org/2000/svg" width="256" height="256" viewBox="0 0 256 256" shape-rendering="crispEdges" role="img" aria-labelledby="title desc">
  <title id="title">Tension and Release</title>
  <desc id="desc">The emotional tone embodies a conflict between the yearning for peace and the drive towards resolution. The chosen palette reflects a wistful blend of pale aqua and mist gray, representing longing, alongside sharper alarm red and deep ink blue symbolizing resolve's strength. The main contrast occurs diagonally, where a dense cluster of warm colors meets cooler fields, creating a visual pulse of tension. Broken pixels are intentionally scattered to hint at past damage yet point towards potential repair, making the composition resonate with dynamics of interruption and continuity.</desc>
  <rect width="256" height="256" fill="#FFFFFF" />
  <rect x="0" y="0" width="32" height="32" fill="#A4DBE3" />
  <rect x="32" y="0" width="32" height="32" fill="#A1B3B8" />
  <rect x="64" y="0" width="32" height="32" fill="#C1352D" />
  <rect x="96" y="0" width="32" height="32" fill="#5471A3" />
  <rect x="128" y="0" width="32" height="32" fill="#A4DBE3" />
  <rect x="160" y="0" width="32" height="32" fill="#C2DBE3" />
  <rect x="192" y="0" width="32" height="32" fill="#C64031" />
  <rect x="224" y="0" width="32" height="32" fill="#E8F6F8" />
  <rect x="0" y="32" width="32" height="32" fill="#889BA0" />
  <rect x="32" y="32" width="32" height="32" fill="#AEB8B5" />
  <rect x="64" y="32" width="32" height="32" fill="#FF6B6E" />
  <rect x="96" y="32" width="32" height="32" fill="#3D404D" />
  <rect x="128" y="32" width="32" height="32" fill="#C0E8E7" />
  <rect x="160" y="32" width="32" height="32" fill="#B1C8CC" />
  <rect x="192" y="32" width="32" height="32" fill="#A23725" />
  <rect x="224" y="32" width="32" height="32" fill="#F9F9F9" />
  <rect x="0" y="64" width="32" height="32" fill="#B7C9CE" />
  <rect x="32" y="64" width="32" height="32" fill="#DFE4E5" />
  <rect x="64" y="64" width="32" height="32" fill="#A40000" />
  <rect x="96" y="64" width="32" height="32" fill="#F5666D" />
  <rect x="128" y="64" width="32" height="32" fill="#B9D6D4" />
  <rect x="160" y="64" width="32" height="32" fill="#A0B1B4" />
  <rect x="192" y="64" width="32" height="32" fill="#FF21A7" />
  <rect x="224" y="64" width="32" height="32" fill="#F9F9F9" />
  <rect x="0" y="96" width="32" height="32" fill="#BAC3C8" />
  <rect x="32" y="96" width="32" height="32" fill="#95B1B4" />
  <rect x="64" y="96" width="32" height="32" fill="#FFC3B1" />
  <rect x="96" y="96" width="32" height="32" fill="#2F3856" />
  <rect x="128" y="96" width="32" height="32" fill="#4A9DB7" />
  <rect x="160" y="96" width="32" height="32" fill="#D5E5E5" />
  <rect x="192" y="96" width="32" height="32" fill="#D5D7DB" />
  <rect x="224" y="96" width="32" height="32" fill="#F1F8FB" />
  <rect x="0" y="128" width="32" height="32" fill="#B0C7CE" />
  <rect x="32" y="128" width="32" height="32" fill="#E8F9F9" />
  <rect x="64" y="128" width="32" height="32" fill="#667894" />
  <rect x="96" y="128" width="32" height="32" fill="#6D7E93" />
  <rect x="128" y="128" width="32" height="32" fill="#C3D5D8" />
  <rect x="160" y="128" width="32" height="32" fill="#C0B2B5" />
  <rect x="192" y="128" width="32" height="32" fill="#FF7A5D" />
  <rect x="224" y="128" width="32" height="32" fill="#F3F7F7" />
  <rect x="0" y="160" width="32" height="32" fill="#A1B9B2" />
  <rect x="32" y="160" width="32" height="32" fill="#9BC0C2" />
  <rect x="64" y="160" width="32" height="32" fill="#FC3332" />
  <rect x="96" y="160" width="32" height="32" fill="#73B0C6" />
  <rect x="128" y="160" width="32" height="32" fill="#F4F9FA" />
  <rect x="160" y="160" width="32" height="32" fill="#E8EBE8" />
  <rect x="192" y="160" width="32" height="32" fill="#D2D5D3" />
  <rect x="224" y="160" width="32" height="32" fill="#F7F8F8" />
  <rect x="0" y="192" width="32" height="32" fill="#BCDFE3" />
  <rect x="32" y="192" width="32" height="32" fill="#A6B9B6" />
  <rect x="64" y="192" width="32" height="32" fill="#D9B28C" />
  <rect x="96" y="192" width="32" height="32" fill="#A7D7D8" />
  <rect x="128" y="192" width="32" height="32" fill="#D6D9D8" />
  <rect x="160" y="192" width="32" height="32" fill="#3D5A62" />
  <rect x="192" y="192" width="32" height="32" fill="#FFD9D7" />
  <rect x="224" y="192" width="32" height="32" fill="#F9F9F9" />
  <rect x="0" y="224" width="32" height="32" fill="#C3DBE2" />
  <rect x="32" y="224" width="32" height="32" fill="#B1C3C4" />
  <rect x="64" y="224" width="32" height="32" fill="#E3BB29" />
  <rect x="96" y="224" width="32" height="32" fill="#BAC0C2" />
  <rect x="128" y="224" width="32" height="32" fill="#E1E7E7" />
  <rect x="160" y="224" width="32" height="32" fill="#FF5B47" />
  <rect x="192" y="224" width="32" height="32" fill="#B2C1C3" />
  <rect x="224" y="224" width="32" height="32" fill="#FFFFFF" />
</svg>
