<svg xmlns="http://www.w3.org/2000/svg" width="256" height="256" viewBox="0 0 256 256" shape-rendering="crispEdges" role="img" aria-labelledby="title desc">
  <title id="title">Echoes of Contrast</title>
  <desc id="desc">This piece captures the emotional tension between longing and resolve through a balance of distinct color fields. The palette blends warm and cool tones, embodying intimacy against distance. The layout features scattered repairs, with brighter accents interrupting darker lattice patterns to signify unresolved feelings. The main collision occurs in the center, where darker hues meet with bursts of light, reflecting a push-pull dynamic between chaos and order, density and emptiness.</desc>
  <rect width="256" height="256" fill="#FFFFFF" />
  <rect x="0" y="0" width="32" height="32" fill="#8F6C6B" />
  <rect x="32" y="0" width="32" height="32" fill="#F9D8A4" />
  <rect x="64" y="0" width="32" height="32" fill="#A0B7CF" />
  <rect x="96" y="0" width="32" height="32" fill="#554F4C" />
  <rect x="128" y="0" width="32" height="32" fill="#F9D8A4" />
  <rect x="160" y="0" width="32" height="32" fill="#E3C3D7" />
  <rect x="192" y="0" width="32" height="32" fill="#8F6C6B" />
  <rect x="224" y="0" width="32" height="32" fill="#C6AFA2" />
  <rect x="0" y="32" width="32" height="32" fill="#B0A5B3" />
  <rect x="32" y="32" width="32" height="32" fill="#D1B7C6" />
  <rect x="64" y="32" width="32" height="32" fill="#B0A5B3" />
  <rect x="96" y="32" width="32" height="32" fill="#E3C3D7" />
  <rect x="128" y="32" width="32" height="32" fill="#7F5C5F" />
  <rect x="160" y="32" width="32" height="32" fill="#554F4C" />
  <rect x="192" y="32" width="32" height="32" fill="#D1B7C6" />
  <rect x="224" y="32" width="32" height="32" fill="#F9D8A4" />
  <rect x="0" y="64" width="32" height="32" fill="#FFFDFA" />
  <rect x="32" y="64" width="32" height="32" fill="#A0B7CF" />
  <rect x="64" y="64" width="32" height="32" fill="#8F6C6B" />
  <rect x="96" y="64" width="32" height="32" fill="#7F5C5F" />
  <rect x="128" y="64" width="32" height="32" fill="#E7B5CD" />
  <rect x="160" y="64" width="32" height="32" fill="#C6AFA2" />
  <rect x="192" y="64" width="32" height="32" fill="#FFFDFA" />
  <rect x="224" y="64" width="32" height="32" fill="#B0A5B3" />
  <rect x="0" y="96" width="32" height="32" fill="#554F4C" />
  <rect x="32" y="96" width="32" height="32" fill="#A0B7CF" />
  <rect x="64" y="96" width="32" height="32" fill="#E7B5CD" />
  <rect x="96" y="96" width="32" height="32" fill="#F9D8A4" />
  <rect x="128" y="96" width="32" height="32" fill="#7F5C5F" />
  <rect x="160" y="96" width="32" height="32" fill="#C6AFA2" />
  <rect x="192" y="96" width="32" height="32" fill="#8F6C6B" />
  <rect x="224" y="96" width="32" height="32" fill="#D1B7C6" />
  <rect x="0" y="128" width="32" height="32" fill="#C6AFA2" />
  <rect x="32" y="128" width="32" height="32" fill="#8F6C6B" />
  <rect x="64" y="128" width="32" height="32" fill="#E3C3D7" />
  <rect x="96" y="128" width="32" height="32" fill="#A0B7CF" />
  <rect x="128" y="128" width="32" height="32" fill="#B0A5B3" />
  <rect x="160" y="128" width="32" height="32" fill="#FFFDFA" />
  <rect x="192" y="128" width="32" height="32" fill="#554F4C" />
  <rect x="224" y="128" width="32" height="32" fill="#D1B7C6" />
  <rect x="0" y="160" width="32" height="32" fill="#7F5C5F" />
  <rect x="32" y="160" width="32" height="32" fill="#D1B7C6" />
  <rect x="64" y="160" width="32" height="32" fill="#E7B5CD" />
  <rect x="96" y="160" width="32" height="32" fill="#FFFDFA" />
  <rect x="128" y="160" width="32" height="32" fill="#D1B7C6" />
  <rect x="160" y="160" width="32" height="32" fill="#F9D8A4" />
  <rect x="192" y="160" width="32" height="32" fill="#554F4C" />
  <rect x="224" y="160" width="32" height="32" fill="#A0B7CF" />
  <rect x="0" y="192" width="32" height="32" fill="#B0A5B3" />
  <rect x="32" y="192" width="32" height="32" fill="#C6AFA2" />
  <rect x="64" y="192" width="32" height="32" fill="#F9D8A4" />
  <rect x="96" y="192" width="32" height="32" fill="#7F5C5F" />
  <rect x="128" y="192" width="32" height="32" fill="#8F6C6B" />
  <rect x="160" y="192" width="32" height="32" fill="#E3C3D7" />
  <rect x="192" y="192" width="32" height="32" fill="#A0B7CF" />
  <rect x="224" y="192" width="32" height="32" fill="#7F5C5F" />
  <rect x="0" y="224" width="32" height="32" fill="#FFFDFA" />
  <rect x="32" y="224" width="32" height="32" fill="#F9D8A4" />
  <rect x="64" y="224" width="32" height="32" fill="#E7B5CD" />
  <rect x="96" y="224" width="32" height="32" fill="#8F6C6B" />
  <rect x="128" y="224" width="32" height="32" fill="#B0A5B3" />
  <rect x="160" y="224" width="32" height="32" fill="#554F4C" />
  <rect x="192" y="224" width="32" height="32" fill="#D1B7C6" />
  <rect x="224" y="224" width="32" height="32" fill="#C6AFA2" />
</svg>
