<svg xmlns="http://www.w3.org/2000/svg" width="256" height="256" viewBox="0 0 256 256" shape-rendering="crispEdges" role="img" aria-labelledby="title desc">
  <title id="title">Echoes of Trust</title>
  <desc id="desc">The emotional tone contrasts the solidity of trust with the uncertainty of suspicion, represented through a palette of saturated colors. The primary clash occurs along the vertical axis, where the warm magenta battles the cool electric blue, forming a visual tension that suggests uncertainty and stability simultaneously. Patterns representing 'threshold' for trust gently merge with 'target' for suspicion, creating a dense interplay of ordered paths and chaotic disruptions. The negative space provides a breath amidst the intensity, echoing the struggle between these emotions.</desc>
  <rect width="256" height="256" fill="#FFFFFF" />
  <rect x="0" y="0" width="32" height="32" fill="#000000" />
  <rect x="32" y="0" width="32" height="32" fill="#000000" />
  <rect x="64" y="0" width="32" height="32" fill="#FF00FF" />
  <rect x="96" y="0" width="32" height="32" fill="#FF00FF" />
  <rect x="128" y="0" width="32" height="32" fill="#00FFCC" />
  <rect x="160" y="0" width="32" height="32" fill="#00FFCC" />
  <rect x="192" y="0" width="32" height="32" fill="#000000" />
  <rect x="224" y="0" width="32" height="32" fill="#000000" />
  <rect x="0" y="32" width="32" height="32" fill="#000000" />
  <rect x="32" y="32" width="32" height="32" fill="#FF00FF" />
  <rect x="64" y="32" width="32" height="32" fill="#FF00FF" />
  <rect x="96" y="32" width="32" height="32" fill="#00FFCC" />
  <rect x="128" y="32" width="32" height="32" fill="#00FFCC" />
  <rect x="160" y="32" width="32" height="32" fill="#FF00FF" />
  <rect x="192" y="32" width="32" height="32" fill="#000000" />
  <rect x="224" y="32" width="32" height="32" fill="#000000" />
  <rect x="0" y="64" width="32" height="32" fill="#000000" />
  <rect x="32" y="64" width="32" height="32" fill="#00FFCC" />
  <rect x="64" y="64" width="32" height="32" fill="#00FFCC" />
  <rect x="96" y="64" width="32" height="32" fill="#000000" />
  <rect x="128" y="64" width="32" height="32" fill="#000000" />
  <rect x="160" y="64" width="32" height="32" fill="#00FFCC" />
  <rect x="192" y="64" width="32" height="32" fill="#00FFCC" />
  <rect x="224" y="64" width="32" height="32" fill="#000000" />
  <rect x="0" y="96" width="32" height="32" fill="#000000" />
  <rect x="32" y="96" width="32" height="32" fill="#00FFCC" />
  <rect x="64" y="96" width="32" height="32" fill="#00FFCC" />
  <rect x="96" y="96" width="32" height="32" fill="#00FFCC" />
  <rect x="128" y="96" width="32" height="32" fill="#00FFCC" />
  <rect x="160" y="96" width="32" height="32" fill="#00FFCC" />
  <rect x="192" y="96" width="32" height="32" fill="#000000" />
  <rect x="224" y="96" width="32" height="32" fill="#000000" />
  <rect x="0" y="128" width="32" height="32" fill="#000000" />
  <rect x="32" y="128" width="32" height="32" fill="#000000" />
  <rect x="64" y="128" width="32" height="32" fill="#00FFCC" />
  <rect x="96" y="128" width="32" height="32" fill="#000000" />
  <rect x="128" y="128" width="32" height="32" fill="#000000" />
  <rect x="160" y="128" width="32" height="32" fill="#00FFCC" />
  <rect x="192" y="128" width="32" height="32" fill="#FF00FF" />
  <rect x="224" y="128" width="32" height="32" fill="#FF00FF" />
  <rect x="0" y="160" width="32" height="32" fill="#000000" />
  <rect x="32" y="160" width="32" height="32" fill="#000000" />
  <rect x="64" y="160" width="32" height="32" fill="#000000" />
  <rect x="96" y="160" width="32" height="32" fill="#000000" />
  <rect x="128" y="160" width="32" height="32" fill="#FF00FF" />
  <rect x="160" y="160" width="32" height="32" fill="#FF00FF" />
  <rect x="192" y="160" width="32" height="32" fill="#000000" />
  <rect x="224" y="160" width="32" height="32" fill="#000000" />
  <rect x="0" y="192" width="32" height="32" fill="#000000" />
  <rect x="32" y="192" width="32" height="32" fill="#000000" />
  <rect x="64" y="192" width="32" height="32" fill="#000000" />
  <rect x="96" y="192" width="32" height="32" fill="#000000" />
  <rect x="128" y="192" width="32" height="32" fill="#000000" />
  <rect x="160" y="192" width="32" height="32" fill="#000000" />
  <rect x="192" y="192" width="32" height="32" fill="#000000" />
  <rect x="224" y="192" width="32" height="32" fill="#000000" />
  <rect x="0" y="224" width="32" height="32" fill="#000000" />
  <rect x="32" y="224" width="32" height="32" fill="#000000" />
  <rect x="64" y="224" width="32" height="32" fill="#000000" />
  <rect x="96" y="224" width="32" height="32" fill="#000000" />
  <rect x="128" y="224" width="32" height="32" fill="#000000" />
  <rect x="160" y="224" width="32" height="32" fill="#000000" />
  <rect x="192" y="224" width="32" height="32" fill="#000000" />
  <rect x="224" y="224" width="32" height="32" fill="#000000" />
</svg>
