<svg xmlns="http://www.w3.org/2000/svg" width="256" height="256" viewBox="0 0 256 256" shape-rendering="crispEdges" role="img" aria-labelledby="title desc">
  <title id="title">Fragmented Balance</title>
  <desc id="desc">The composition reflects the emotional tension of 'awe vs terror' through contrasting areas of dense color and empty space. The chosen palette of sepia, tan, dust gray, and faded blue evokes a sense of nostalgia and unease, with darker hues representing terror and lighter tones symbolizing awe. The outer edges are filled with armored stability, while the center exhibits a broken maze-like pattern, suggesting both comfort and vulnerability. The broken pixels introduce intentional imperfection, championing the theme of chaos versus order, as inner contrasts challenge the calmness of the frame.</desc>
  <rect width="256" height="256" fill="#FFFFFF" />
  <rect x="0" y="0" width="32" height="32" fill="#7D5B3A" />
  <rect x="32" y="0" width="32" height="32" fill="#E2CFC3" />
  <rect x="64" y="0" width="32" height="32" fill="#BEB1A7" />
  <rect x="96" y="0" width="32" height="32" fill="#7F6A56" />
  <rect x="128" y="0" width="32" height="32" fill="#EDD9D0" />
  <rect x="160" y="0" width="32" height="32" fill="#B5A39F" />
  <rect x="192" y="0" width="32" height="32" fill="#8E8480" />
  <rect x="224" y="0" width="32" height="32" fill="#D7CFC5" />
  <rect x="0" y="32" width="32" height="32" fill="#1A0B00" />
  <rect x="32" y="32" width="32" height="32" fill="#3C2A2F" />
  <rect x="64" y="32" width="32" height="32" fill="#C2B4A5" />
  <rect x="96" y="32" width="32" height="32" fill="#9A8980" />
  <rect x="128" y="32" width="32" height="32" fill="#E6E4D5" />
  <rect x="160" y="32" width="32" height="32" fill="#8F6A62" />
  <rect x="192" y="32" width="32" height="32" fill="#3A2E34" />
  <rect x="224" y="32" width="32" height="32" fill="#C6B1A4" />
  <rect x="0" y="64" width="32" height="32" fill="#5B3E3D" />
  <rect x="32" y="64" width="32" height="32" fill="#E7D2C5" />
  <rect x="64" y="64" width="32" height="32" fill="#E0D1B3" />
  <rect x="96" y="64" width="32" height="32" fill="#9A8A82" />
  <rect x="128" y="64" width="32" height="32" fill="#BFAFAB" />
  <rect x="160" y="64" width="32" height="32" fill="#2D1A18" />
  <rect x="192" y="64" width="32" height="32" fill="#D1BFA6" />
  <rect x="224" y="64" width="32" height="32" fill="#6D5A4A" />
  <rect x="0" y="96" width="32" height="32" fill="#BB8A57" />
  <rect x="32" y="96" width="32" height="32" fill="#4F3D3F" />
  <rect x="64" y="96" width="32" height="32" fill="#3C292B" />
  <rect x="96" y="96" width="32" height="32" fill="#D4C8C6" />
  <rect x="128" y="96" width="32" height="32" fill="#C8BDB2" />
  <rect x="160" y="96" width="32" height="32" fill="#C6B5A7" />
  <rect x="192" y="96" width="32" height="32" fill="#4D3F38" />
  <rect x="224" y="96" width="32" height="32" fill="#E3D1C8" />
  <rect x="0" y="128" width="32" height="32" fill="#A4694E" />
  <rect x="32" y="128" width="32" height="32" fill="#D5C0A0" />
  <rect x="64" y="128" width="32" height="32" fill="#B7A99D" />
  <rect x="96" y="128" width="32" height="32" fill="#5A3F3C" />
  <rect x="128" y="128" width="32" height="32" fill="#E2C8B9" />
  <rect x="160" y="128" width="32" height="32" fill="#EAE3D3" />
  <rect x="192" y="128" width="32" height="32" fill="#C1B1A5" />
  <rect x="224" y="128" width="32" height="32" fill="#4B352A" />
  <rect x="0" y="160" width="32" height="32" fill="#5D6C69" />
  <rect x="32" y="160" width="32" height="32" fill="#D5C2C1" />
  <rect x="64" y="160" width="32" height="32" fill="#6C4A41" />
  <rect x="96" y="160" width="32" height="32" fill="#A48C84" />
  <rect x="128" y="160" width="32" height="32" fill="#B8AC9A" />
  <rect x="160" y="160" width="32" height="32" fill="#C5B8AD" />
  <rect x="192" y="160" width="32" height="32" fill="#E9C8B5" />
  <rect x="224" y="160" width="32" height="32" fill="#3A2326" />
  <rect x="0" y="192" width="32" height="32" fill="#BCB3A8" />
  <rect x="32" y="192" width="32" height="32" fill="#6D5F5F" />
  <rect x="64" y="192" width="32" height="32" fill="#462D30" />
  <rect x="96" y="192" width="32" height="32" fill="#D7DED0" />
  <rect x="128" y="192" width="32" height="32" fill="#B1A69D" />
  <rect x="160" y="192" width="32" height="32" fill="#E5E1C9" />
  <rect x="192" y="192" width="32" height="32" fill="#B6A493" />
  <rect x="224" y="192" width="32" height="32" fill="#4E383C" />
  <rect x="0" y="224" width="32" height="32" fill="#3E2627" />
  <rect x="32" y="224" width="32" height="32" fill="#ADBEAA" />
  <rect x="64" y="224" width="32" height="32" fill="#C8C2B8" />
  <rect x="96" y="224" width="32" height="32" fill="#7A6C6B" />
  <rect x="128" y="224" width="32" height="32" fill="#D1BFB3" />
  <rect x="160" y="224" width="32" height="32" fill="#C0B09B" />
  <rect x="192" y="224" width="32" height="32" fill="#7D5C54" />
  <rect x="224" y="224" width="32" height="32" fill="#1E1113" />
</svg>
