<svg xmlns="http://www.w3.org/2000/svg" width="256" height="256" viewBox="0 0 256 256" shape-rendering="crispEdges" role="img" aria-labelledby="title desc">
  <title id="title">Echoes of Trust and Suspicion</title>
  <desc id="desc">The emotional tone embodies a tension between trust and suspicion, represented through contrasting color densities. The palette combines deep teal and cold gold to explore warmth and distance. The collision occurs diagonally, where a dense cluster of dark colors (representing suspicion) interacts with lighter strokes (representing trust). The division fosters an 'argument grid' layout, where patterns of each emotion weave in and out, symbolizing the complexity of navigating trust amidst doubt.</desc>
  <rect width="256" height="256" fill="#FFFFFF" />
  <rect x="0" y="0" width="32" height="32" fill="#0C2A4F" />
  <rect x="32" y="0" width="32" height="32" fill="#1E3A5F" />
  <rect x="64" y="0" width="32" height="32" fill="#384B6F" />
  <rect x="96" y="0" width="32" height="32" fill="#2E3C5F" />
  <rect x="128" y="0" width="32" height="32" fill="#F4C500" />
  <rect x="160" y="0" width="32" height="32" fill="#30A2A9" />
  <rect x="192" y="0" width="32" height="32" fill="#0C2A4F" />
  <rect x="224" y="0" width="32" height="32" fill="#1D3546" />
  <rect x="0" y="32" width="32" height="32" fill="#1E3A5F" />
  <rect x="32" y="32" width="32" height="32" fill="#F5F1EA" />
  <rect x="64" y="32" width="32" height="32" fill="#D5C9B4" />
  <rect x="96" y="32" width="32" height="32" fill="#F4C500" />
  <rect x="128" y="32" width="32" height="32" fill="#1A5B5D" />
  <rect x="160" y="32" width="32" height="32" fill="#D7E3D7" />
  <rect x="192" y="32" width="32" height="32" fill="#384B6F" />
  <rect x="224" y="32" width="32" height="32" fill="#2D424E" />
  <rect x="0" y="64" width="32" height="32" fill="#0C2A4F" />
  <rect x="32" y="64" width="32" height="32" fill="#30A2A9" />
  <rect x="64" y="64" width="32" height="32" fill="#1D3546" />
  <rect x="96" y="64" width="32" height="32" fill="#0C2A4F" />
  <rect x="128" y="64" width="32" height="32" fill="#1A5B5D" />
  <rect x="160" y="64" width="32" height="32" fill="#D5C9B4" />
  <rect x="192" y="64" width="32" height="32" fill="#F5F1EA" />
  <rect x="224" y="64" width="32" height="32" fill="#F4C500" />
  <rect x="0" y="96" width="32" height="32" fill="#F4C500" />
  <rect x="32" y="96" width="32" height="32" fill="#1E3A5F" />
  <rect x="64" y="96" width="32" height="32" fill="#D7E3D7" />
  <rect x="96" y="96" width="32" height="32" fill="#0C2A4F" />
  <rect x="128" y="96" width="32" height="32" fill="#2E3C5F" />
  <rect x="160" y="96" width="32" height="32" fill="#1D3546" />
  <rect x="192" y="96" width="32" height="32" fill="#30A2A9" />
  <rect x="224" y="96" width="32" height="32" fill="#F5F1EA" />
  <rect x="0" y="128" width="32" height="32" fill="#30A2A9" />
  <rect x="32" y="128" width="32" height="32" fill="#D5C9B4" />
  <rect x="64" y="128" width="32" height="32" fill="#F4C500" />
  <rect x="96" y="128" width="32" height="32" fill="#1D3546" />
  <rect x="128" y="128" width="32" height="32" fill="#1A5B5D" />
  <rect x="160" y="128" width="32" height="32" fill="#1E3A5F" />
  <rect x="192" y="128" width="32" height="32" fill="#0C2A4F" />
  <rect x="224" y="128" width="32" height="32" fill="#D7E3D7" />
  <rect x="0" y="160" width="32" height="32" fill="#1E3A5F" />
  <rect x="32" y="160" width="32" height="32" fill="#0C2A4F" />
  <rect x="64" y="160" width="32" height="32" fill="#3E4B57" />
  <rect x="96" y="160" width="32" height="32" fill="#D5C9B4" />
  <rect x="128" y="160" width="32" height="32" fill="#384B6F" />
  <rect x="160" y="160" width="32" height="32" fill="#1A5B5D" />
  <rect x="192" y="160" width="32" height="32" fill="#F4C500" />
  <rect x="224" y="160" width="32" height="32" fill="#F5F1EA" />
  <rect x="0" y="192" width="32" height="32" fill="#D7E3D7" />
  <rect x="32" y="192" width="32" height="32" fill="#1D3546" />
  <rect x="64" y="192" width="32" height="32" fill="#F5F1EA" />
  <rect x="96" y="192" width="32" height="32" fill="#30A2A9" />
  <rect x="128" y="192" width="32" height="32" fill="#2E3C5F" />
  <rect x="160" y="192" width="32" height="32" fill="#3E4B57" />
  <rect x="192" y="192" width="32" height="32" fill="#0C2A4F" />
  <rect x="224" y="192" width="32" height="32" fill="#F4C500" />
  <rect x="0" y="224" width="32" height="32" fill="#F4C500" />
  <rect x="32" y="224" width="32" height="32" fill="#D5C9B4" />
  <rect x="64" y="224" width="32" height="32" fill="#1E3A5F" />
  <rect x="96" y="224" width="32" height="32" fill="#2D424E" />
  <rect x="128" y="224" width="32" height="32" fill="#1D3546" />
  <rect x="160" y="224" width="32" height="32" fill="#30A2A9" />
  <rect x="192" y="224" width="32" height="32" fill="#0C2A4F" />
  <rect x="224" y="224" width="32" height="32" fill="#F5F1EA" />
</svg>
