<svg xmlns="http://www.w3.org/2000/svg" width="256" height="256" viewBox="0 0 256 256" shape-rendering="crispEdges" role="img" aria-labelledby="title desc">
  <title id="title">Confluence of Pressure and Release</title>
  <desc id="desc">The emotional tone embodies a struggle between rage and calm, reflected in the contrasting colors. The palette of red and pale blue highlights this dichotomy, with warm red tones creating tension while cooler blues suggest a tranquil undercurrent. The placement sees a center-heavy layout with radial patterns, echoing the feeling of weight against lightness, where spikes of vibrant red collide against softer fields of blue, indicating an emotional turbulence that swirls around a core of calm. Imperfections are introduced through random breaks in the structured pattern, reflecting chaotic moments amidst serenity.</desc>
  <rect width="256" height="256" fill="#FFFFFF" />
  <rect x="0" y="0" width="32" height="32" fill="#FF0000" />
  <rect x="32" y="0" width="32" height="32" fill="#FF4C4C" />
  <rect x="64" y="0" width="32" height="32" fill="#FF9999" />
  <rect x="96" y="0" width="32" height="32" fill="#FFFFFF" />
  <rect x="128" y="0" width="32" height="32" fill="#B0E0E6" />
  <rect x="160" y="0" width="32" height="32" fill="#B0E0E6" />
  <rect x="192" y="0" width="32" height="32" fill="#FFFFFF" />
  <rect x="224" y="0" width="32" height="32" fill="#FF9999" />
  <rect x="0" y="32" width="32" height="32" fill="#FF0000" />
  <rect x="32" y="32" width="32" height="32" fill="#FF4C4C" />
  <rect x="64" y="32" width="32" height="32" fill="#FF9999" />
  <rect x="96" y="32" width="32" height="32" fill="#FFFFFF" />
  <rect x="128" y="32" width="32" height="32" fill="#B0E0E6" />
  <rect x="160" y="32" width="32" height="32" fill="#B0E0E6" />
  <rect x="192" y="32" width="32" height="32" fill="#FFFFFF" />
  <rect x="224" y="32" width="32" height="32" fill="#FF9999" />
  <rect x="0" y="64" width="32" height="32" fill="#FF0000" />
  <rect x="32" y="64" width="32" height="32" fill="#FF4C4C" />
  <rect x="64" y="64" width="32" height="32" fill="#FFFFFF" />
  <rect x="96" y="64" width="32" height="32" fill="#B0E0E6" />
  <rect x="128" y="64" width="32" height="32" fill="#B0E0E6" />
  <rect x="160" y="64" width="32" height="32" fill="#FFFFFF" />
  <rect x="192" y="64" width="32" height="32" fill="#B0E0E6" />
  <rect x="224" y="64" width="32" height="32" fill="#B0E0E6" />
  <rect x="0" y="96" width="32" height="32" fill="#FF0000" />
  <rect x="32" y="96" width="32" height="32" fill="#FF4C4C" />
  <rect x="64" y="96" width="32" height="32" fill="#FFFFFF" />
  <rect x="96" y="96" width="32" height="32" fill="#B0E0E6" />
  <rect x="128" y="96" width="32" height="32" fill="#B0E0E6" />
  <rect x="160" y="96" width="32" height="32" fill="#FFFFFF" />
  <rect x="192" y="96" width="32" height="32" fill="#FF9999" />
  <rect x="224" y="96" width="32" height="32" fill="#FF9999" />
  <rect x="0" y="128" width="32" height="32" fill="#FF0000" />
  <rect x="32" y="128" width="32" height="32" fill="#FF4C4C" />
  <rect x="64" y="128" width="32" height="32" fill="#FF9999" />
  <rect x="96" y="128" width="32" height="32" fill="#FFFFFF" />
  <rect x="128" y="128" width="32" height="32" fill="#B0E0E6" />
  <rect x="160" y="128" width="32" height="32" fill="#B0E0E6" />
  <rect x="192" y="128" width="32" height="32" fill="#FFFFFF" />
  <rect x="224" y="128" width="32" height="32" fill="#FF9999" />
  <rect x="0" y="160" width="32" height="32" fill="#FF0000" />
  <rect x="32" y="160" width="32" height="32" fill="#FF4C4C" />
  <rect x="64" y="160" width="32" height="32" fill="#FF9999" />
  <rect x="96" y="160" width="32" height="32" fill="#FFFFFF" />
  <rect x="128" y="160" width="32" height="32" fill="#B0E0E6" />
  <rect x="160" y="160" width="32" height="32" fill="#B0E0E6" />
  <rect x="192" y="160" width="32" height="32" fill="#B0E0E6" />
  <rect x="224" y="160" width="32" height="32" fill="#B0E0E6" />
  <rect x="0" y="192" width="32" height="32" fill="#FF0000" />
  <rect x="32" y="192" width="32" height="32" fill="#B0E0E6" />
  <rect x="64" y="192" width="32" height="32" fill="#B0E0E6" />
  <rect x="96" y="192" width="32" height="32" fill="#FFFFFF" />
  <rect x="128" y="192" width="32" height="32" fill="#FF9999" />
  <rect x="160" y="192" width="32" height="32" fill="#FF9999" />
  <rect x="192" y="192" width="32" height="32" fill="#FF9999" />
  <rect x="224" y="192" width="32" height="32" fill="#FFFFFF" />
  <rect x="0" y="224" width="32" height="32" fill="#FF0000" />
  <rect x="32" y="224" width="32" height="32" fill="#B0E0E6" />
  <rect x="64" y="224" width="32" height="32" fill="#FFFFFF" />
  <rect x="96" y="224" width="32" height="32" fill="#FF9999" />
  <rect x="128" y="224" width="32" height="32" fill="#B0E0E6" />
  <rect x="160" y="224" width="32" height="32" fill="#B0E0E6" />
  <rect x="192" y="224" width="32" height="32" fill="#B0E0E6" />
  <rect x="224" y="224" width="32" height="32" fill="#B0E0E6" />
</svg>
