<svg xmlns="http://www.w3.org/2000/svg" width="256" height="256" viewBox="0 0 256 256" shape-rendering="crispEdges" role="img" aria-labelledby="title desc">
  <title id="title">Echoes of Contrast</title>
  <desc id="desc">This artwork explores the emotional dichotomy of nostalgia and progress through contrasting palettes and arrangements. The selected colors—deep reds, stark blacks, soft blues, and whites—represent intense emotional states, with red embodying rage alongside weighty black signifying the past. The top half features a sharp transition from dark to light using layered patterns that evoke memories colliding with the freshness of progress. The arrangement mimics a gradual drip effect, reflecting the descent of time and emotion, while broken pixels introduce imperfections symbolizing the struggle between holding on and moving forward. The contrast lies in the clash of the black tones against the soothing blue, fostering a feeling of unresolved tension and the weight of history breaking through moments of calming progress.</desc>
  <rect width="256" height="256" fill="#FFFFFF" />
  <rect x="0" y="0" width="32" height="32" fill="#6A1B9A" />
  <rect x="32" y="0" width="32" height="32" fill="#6A1B9A" />
  <rect x="64" y="0" width="32" height="32" fill="#000000" />
  <rect x="96" y="0" width="32" height="32" fill="#000000" />
  <rect x="128" y="0" width="32" height="32" fill="#0D47A1" />
  <rect x="160" y="0" width="32" height="32" fill="#0D47A1" />
  <rect x="192" y="0" width="32" height="32" fill="#FFFFFF" />
  <rect x="224" y="0" width="32" height="32" fill="#FFFFFF" />
  <rect x="0" y="32" width="32" height="32" fill="#6A1B9A" />
  <rect x="32" y="32" width="32" height="32" fill="#6A1B9A" />
  <rect x="64" y="32" width="32" height="32" fill="#000000" />
  <rect x="96" y="32" width="32" height="32" fill="#095A8D" />
  <rect x="128" y="32" width="32" height="32" fill="#FFFFFF" />
  <rect x="160" y="32" width="32" height="32" fill="#B3E5FC" />
  <rect x="192" y="32" width="32" height="32" fill="#FFFFFF" />
  <rect x="224" y="32" width="32" height="32" fill="#FFFFFF" />
  <rect x="0" y="64" width="32" height="32" fill="#6A1B9A" />
  <rect x="32" y="64" width="32" height="32" fill="#000000" />
  <rect x="64" y="64" width="32" height="32" fill="#095A8D" />
  <rect x="96" y="64" width="32" height="32" fill="#FFFFFF" />
  <rect x="128" y="64" width="32" height="32" fill="#FFFFFF" />
  <rect x="160" y="64" width="32" height="32" fill="#B3E5FC" />
  <rect x="192" y="64" width="32" height="32" fill="#B3E5FC" />
  <rect x="224" y="64" width="32" height="32" fill="#FFFFFF" />
  <rect x="0" y="96" width="32" height="32" fill="#000000" />
  <rect x="32" y="96" width="32" height="32" fill="#000000" />
  <rect x="64" y="96" width="32" height="32" fill="#0D47A1" />
  <rect x="96" y="96" width="32" height="32" fill="#B3E5FC" />
  <rect x="128" y="96" width="32" height="32" fill="#B3E5FC" />
  <rect x="160" y="96" width="32" height="32" fill="#FFFFFF" />
  <rect x="192" y="96" width="32" height="32" fill="#FFFFFF" />
  <rect x="224" y="96" width="32" height="32" fill="#FFFFFF" />
  <rect x="0" y="128" width="32" height="32" fill="#000000" />
  <rect x="32" y="128" width="32" height="32" fill="#6A1B9A" />
  <rect x="64" y="128" width="32" height="32" fill="#0D47A1" />
  <rect x="96" y="128" width="32" height="32" fill="#095A8D" />
  <rect x="128" y="128" width="32" height="32" fill="#FFFFFF" />
  <rect x="160" y="128" width="32" height="32" fill="#B3E5FC" />
  <rect x="192" y="128" width="32" height="32" fill="#B3E5FC" />
  <rect x="224" y="128" width="32" height="32" fill="#FFFFFF" />
  <rect x="0" y="160" width="32" height="32" fill="#6A1B9A" />
  <rect x="32" y="160" width="32" height="32" fill="#000000" />
  <rect x="64" y="160" width="32" height="32" fill="#0D47A1" />
  <rect x="96" y="160" width="32" height="32" fill="#FFFFFF" />
  <rect x="128" y="160" width="32" height="32" fill="#B3E5FC" />
  <rect x="160" y="160" width="32" height="32" fill="#B3E5FC" />
  <rect x="192" y="160" width="32" height="32" fill="#FFFFFF" />
  <rect x="224" y="160" width="32" height="32" fill="#FFFFFF" />
  <rect x="0" y="192" width="32" height="32" fill="#6A1B9A" />
  <rect x="32" y="192" width="32" height="32" fill="#000000" />
  <rect x="64" y="192" width="32" height="32" fill="#000000" />
  <rect x="96" y="192" width="32" height="32" fill="#0D47A1" />
  <rect x="128" y="192" width="32" height="32" fill="#0D47A1" />
  <rect x="160" y="192" width="32" height="32" fill="#B3E5FC" />
  <rect x="192" y="192" width="32" height="32" fill="#B3E5FC" />
  <rect x="224" y="192" width="32" height="32" fill="#FFFFFF" />
  <rect x="0" y="224" width="32" height="32" fill="#FFFFFF" />
  <rect x="32" y="224" width="32" height="32" fill="#0D47A1" />
  <rect x="64" y="224" width="32" height="32" fill="#000000" />
  <rect x="96" y="224" width="32" height="32" fill="#6A1B9A" />
  <rect x="128" y="224" width="32" height="32" fill="#B3E5FC" />
  <rect x="160" y="224" width="32" height="32" fill="#FFFFFF" />
  <rect x="192" y="224" width="32" height="32" fill="#FFFFFF" />
  <rect x="224" y="224" width="32" height="32" fill="#FFFFFF" />
</svg>
