<svg xmlns="http://www.w3.org/2000/svg" width="256" height="256" viewBox="0 0 256 256" shape-rendering="crispEdges" role="img" aria-labelledby="title desc">
  <title id="title">Collision of Longing and Resolve</title>
  <desc id="desc">This composition embodies the emotional tension between longing and resolve, reflecting the struggle and harmony through color and placement. The palette, inspired by 'hunger_restraint', juxtaposes muted creams with rich blacks and deep reds, creating a dynamic yet serene atmosphere. The central collision occurs at the core of the grid, where dense, jagged patterns clash against quieter colors, representing the fight between desire and stability. Broken pixels are utilized strategically to symbolize flaws and disruptions within this emotional narrative, maintaining a balance of negative space to invite contemplation.</desc>
  <rect width="256" height="256" fill="#FFFFFF" />
  <rect x="0" y="0" width="32" height="32" fill="#2C1A1A" />
  <rect x="32" y="0" width="32" height="32" fill="#552B2B" />
  <rect x="64" y="0" width="32" height="32" fill="#7A4D4D" />
  <rect x="96" y="0" width="32" height="32" fill="#B68989" />
  <rect x="128" y="0" width="32" height="32" fill="#E6D5D5" />
  <rect x="160" y="0" width="32" height="32" fill="#E1B3B3" />
  <rect x="192" y="0" width="32" height="32" fill="#C08080" />
  <rect x="224" y="0" width="32" height="32" fill="#A74A4A" />
  <rect x="0" y="32" width="32" height="32" fill="#4D3B3B" />
  <rect x="32" y="32" width="32" height="32" fill="#6D5B5B" />
  <rect x="64" y="32" width="32" height="32" fill="#9F7878" />
  <rect x="96" y="32" width="32" height="32" fill="#C6A1A1" />
  <rect x="128" y="32" width="32" height="32" fill="#D9C6C6" />
  <rect x="160" y="32" width="32" height="32" fill="#C4A3A3" />
  <rect x="192" y="32" width="32" height="32" fill="#B78989" />
  <rect x="224" y="32" width="32" height="32" fill="#C5B2B2" />
  <rect x="0" y="64" width="32" height="32" fill="#C17D7D" />
  <rect x="32" y="64" width="32" height="32" fill="#D1A8A8" />
  <rect x="64" y="64" width="32" height="32" fill="#D9C3C3" />
  <rect x="96" y="64" width="32" height="32" fill="#E7D8D8" />
  <rect x="128" y="64" width="32" height="32" fill="#E1C4C4" />
  <rect x="160" y="64" width="32" height="32" fill="#DAA1A1" />
  <rect x="192" y="64" width="32" height="32" fill="#D55D5D" />
  <rect x="224" y="64" width="32" height="32" fill="#CE5C5C" />
  <rect x="0" y="96" width="32" height="32" fill="#B1A2A2" />
  <rect x="32" y="96" width="32" height="32" fill="#E6D6D6" />
  <rect x="64" y="96" width="32" height="32" fill="#DAB3B3" />
  <rect x="96" y="96" width="32" height="32" fill="#E7C4C4" />
  <rect x="128" y="96" width="32" height="32" fill="#C30F0F" />
  <rect x="160" y="96" width="32" height="32" fill="#B07474" />
  <rect x="192" y="96" width="32" height="32" fill="#A85757" />
  <rect x="224" y="96" width="32" height="32" fill="#C9A1A1" />
  <rect x="0" y="128" width="32" height="32" fill="#5C4949" />
  <rect x="32" y="128" width="32" height="32" fill="#422B2B" />
  <rect x="64" y="128" width="32" height="32" fill="#6E5B5B" />
  <rect x="96" y="128" width="32" height="32" fill="#7A4A4A" />
  <rect x="128" y="128" width="32" height="32" fill="#836D6D" />
  <rect x="160" y="128" width="32" height="32" fill="#9C7C7C" />
  <rect x="192" y="128" width="32" height="32" fill="#B69A9A" />
  <rect x="224" y="128" width="32" height="32" fill="#D1C8C8" />
  <rect x="0" y="160" width="32" height="32" fill="#4A1E1E" />
  <rect x="32" y="160" width="32" height="32" fill="#542D2D" />
  <rect x="64" y="160" width="32" height="32" fill="#6B3B3B" />
  <rect x="96" y="160" width="32" height="32" fill="#8F5C5C" />
  <rect x="128" y="160" width="32" height="32" fill="#AE7979" />
  <rect x="160" y="160" width="32" height="32" fill="#CDAFAD" />
  <rect x="192" y="160" width="32" height="32" fill="#E5D2D2" />
  <rect x="224" y="160" width="32" height="32" fill="#EED0D0" />
  <rect x="0" y="192" width="32" height="32" fill="#4C2121" />
  <rect x="32" y="192" width="32" height="32" fill="#6E2C2C" />
  <rect x="64" y="192" width="32" height="32" fill="#8F4D4D" />
  <rect x="96" y="192" width="32" height="32" fill="#A16060" />
  <rect x="128" y="192" width="32" height="32" fill="#AC8B8B" />
  <rect x="160" y="192" width="32" height="32" fill="#C9A7A7" />
  <rect x="192" y="192" width="32" height="32" fill="#D0B8B8" />
  <rect x="224" y="192" width="32" height="32" fill="#E6D7D7" />
  <rect x="0" y="224" width="32" height="32" fill="#330A0A" />
  <rect x="32" y="224" width="32" height="32" fill="#421C1C" />
  <rect x="64" y="224" width="32" height="32" fill="#7C4B4B" />
  <rect x="96" y="224" width="32" height="32" fill="#B39E9E" />
  <rect x="128" y="224" width="32" height="32" fill="#D1B4B4" />
  <rect x="160" y="224" width="32" height="32" fill="#E2C4C4" />
  <rect x="192" y="224" width="32" height="32" fill="#F1D3D3" />
  <rect x="224" y="224" width="32" height="32" fill="#F7E4E4" />
</svg>
