<svg xmlns="http://www.w3.org/2000/svg" width="256" height="256" viewBox="0 0 256 256" shape-rendering="crispEdges" role="img" aria-labelledby="title desc">
  <title id="title">Whispers of Connection</title>
  <desc id="desc">The emotional tone reflects the tension between loneliness and connection, captured with a palette of pink, red, gray, and dark maroon to evoke warmth amidst the coldness of isolation. The contrast lies in the arrangement, where single pixels of vibrant tones echo through a field of muted grays, conveying both isolation and fleeting moments of connection. The layout suggests upward movement, mirroring a longing for connection. Broken pixel placements add imperfection, symbolizing the struggle of fragmented memories that lead to disconnection.</desc>
  <rect width="256" height="256" fill="#FFFFFF" />
  <rect x="0" y="0" width="32" height="32" fill="#D50000" />
  <rect x="32" y="0" width="32" height="32" fill="#FF4081" />
  <rect x="64" y="0" width="32" height="32" fill="#D50000" />
  <rect x="96" y="0" width="32" height="32" fill="#808080" />
  <rect x="128" y="0" width="32" height="32" fill="#D7B2B9" />
  <rect x="160" y="0" width="32" height="32" fill="#D50000" />
  <rect x="192" y="0" width="32" height="32" fill="#FF4081" />
  <rect x="224" y="0" width="32" height="32" fill="#D7B2B9" />
  <rect x="0" y="32" width="32" height="32" fill="#808080" />
  <rect x="32" y="32" width="32" height="32" fill="#D7B2B9" />
  <rect x="64" y="32" width="32" height="32" fill="#D50000" />
  <rect x="96" y="32" width="32" height="32" fill="#FF4081" />
  <rect x="128" y="32" width="32" height="32" fill="#808080" />
  <rect x="160" y="32" width="32" height="32" fill="#D50000" />
  <rect x="192" y="32" width="32" height="32" fill="#D7B2B9" />
  <rect x="224" y="32" width="32" height="32" fill="#808080" />
  <rect x="0" y="64" width="32" height="32" fill="#D7B2B9" />
  <rect x="32" y="64" width="32" height="32" fill="#D50000" />
  <rect x="64" y="64" width="32" height="32" fill="#808080" />
  <rect x="96" y="64" width="32" height="32" fill="#D50000" />
  <rect x="128" y="64" width="32" height="32" fill="#FF4081" />
  <rect x="160" y="64" width="32" height="32" fill="#D7B2B9" />
  <rect x="192" y="64" width="32" height="32" fill="#808080" />
  <rect x="224" y="64" width="32" height="32" fill="#D7B2B9" />
  <rect x="0" y="96" width="32" height="32" fill="#808080" />
  <rect x="32" y="96" width="32" height="32" fill="#FF4081" />
  <rect x="64" y="96" width="32" height="32" fill="#D50000" />
  <rect x="96" y="96" width="32" height="32" fill="#D7B2B9" />
  <rect x="128" y="96" width="32" height="32" fill="#808080" />
  <rect x="160" y="96" width="32" height="32" fill="#D50000" />
  <rect x="192" y="96" width="32" height="32" fill="#D7B2B9" />
  <rect x="224" y="96" width="32" height="32" fill="#D50000" />
  <rect x="0" y="128" width="32" height="32" fill="#D50000" />
  <rect x="32" y="128" width="32" height="32" fill="#D7B2B9" />
  <rect x="64" y="128" width="32" height="32" fill="#808080" />
  <rect x="96" y="128" width="32" height="32" fill="#D50000" />
  <rect x="128" y="128" width="32" height="32" fill="#FF4081" />
  <rect x="160" y="128" width="32" height="32" fill="#FF4081" />
  <rect x="192" y="128" width="32" height="32" fill="#D7B2B9" />
  <rect x="224" y="128" width="32" height="32" fill="#808080" />
  <rect x="0" y="160" width="32" height="32" fill="#D7B2B9" />
  <rect x="32" y="160" width="32" height="32" fill="#808080" />
  <rect x="64" y="160" width="32" height="32" fill="#D50000" />
  <rect x="96" y="160" width="32" height="32" fill="#D7B2B9" />
  <rect x="128" y="160" width="32" height="32" fill="#D50000" />
  <rect x="160" y="160" width="32" height="32" fill="#D50000" />
  <rect x="192" y="160" width="32" height="32" fill="#FF4081" />
  <rect x="224" y="160" width="32" height="32" fill="#808080" />
  <rect x="0" y="192" width="32" height="32" fill="#FF4081" />
  <rect x="32" y="192" width="32" height="32" fill="#D50000" />
  <rect x="64" y="192" width="32" height="32" fill="#D7B2B9" />
  <rect x="96" y="192" width="32" height="32" fill="#808080" />
  <rect x="128" y="192" width="32" height="32" fill="#D50000" />
  <rect x="160" y="192" width="32" height="32" fill="#FF4081" />
  <rect x="192" y="192" width="32" height="32" fill="#D7B2B9" />
  <rect x="224" y="192" width="32" height="32" fill="#D50000" />
  <rect x="0" y="224" width="32" height="32" fill="#D7B2B9" />
  <rect x="32" y="224" width="32" height="32" fill="#D50000" />
  <rect x="64" y="224" width="32" height="32" fill="#FF4081" />
  <rect x="96" y="224" width="32" height="32" fill="#D7B2B9" />
  <rect x="128" y="224" width="32" height="32" fill="#808080" />
  <rect x="160" y="224" width="32" height="32" fill="#D50000" />
  <rect x="192" y="224" width="32" height="32" fill="#D50000" />
  <rect x="224" y="224" width="32" height="32" fill="#808080" />
</svg>
