<svg xmlns="http://www.w3.org/2000/svg" width="256" height="256" viewBox="0 0 256 256" shape-rendering="crispEdges" role="img" aria-labelledby="title desc">
  <title id="title">Contrast and Currents</title>
  <desc id="desc">The artwork conveys an emotional struggle between restlessness and peace, using a palette of muted cream representing calm and dark hues invoking a sense of lingering turbulence. The arrangement features a grid pattern on one side to signify peace confronting swirling rings that disrupt this order, illustrating the push and pull of memory and motion. The main contrast lies in the collision of muted cream against dark reds and blacks, reflecting the chaotic yet comforting space where emotions conflict. The seed’s themes of interruption and echo are represented as edges fade into the background and color selections juxtapose to build tension.</desc>
  <rect width="256" height="256" fill="#FFFFFF" />
  <rect x="0" y="0" width="32" height="32" fill="#4E3B24" />
  <rect x="32" y="0" width="32" height="32" fill="#E1C699" />
  <rect x="64" y="0" width="32" height="32" fill="#1A0E10" />
  <rect x="96" y="0" width="32" height="32" fill="#A05227" />
  <rect x="128" y="0" width="32" height="32" fill="#B7A09D" />
  <rect x="160" y="0" width="32" height="32" fill="#3F1D20" />
  <rect x="192" y="0" width="32" height="32" fill="#F4E3C4" />
  <rect x="224" y="0" width="32" height="32" fill="#2E2755" />
  <rect x="0" y="32" width="32" height="32" fill="#0F0B0D" />
  <rect x="32" y="32" width="32" height="32" fill="#912C3E" />
  <rect x="64" y="32" width="32" height="32" fill="#BFB2AA" />
  <rect x="96" y="32" width="32" height="32" fill="#4A4E8C" />
  <rect x="128" y="32" width="32" height="32" fill="#A0653C" />
  <rect x="160" y="32" width="32" height="32" fill="#C8AA9A" />
  <rect x="192" y="32" width="32" height="32" fill="#0E0E1A" />
  <rect x="224" y="32" width="32" height="32" fill="#F4B1A7" />
  <rect x="0" y="64" width="32" height="32" fill="#F5E2D6" />
  <rect x="32" y="64" width="32" height="32" fill="#4B3D2A" />
  <rect x="64" y="64" width="32" height="32" fill="#8A514E" />
  <rect x="96" y="64" width="32" height="32" fill="#1B1A29" />
  <rect x="128" y="64" width="32" height="32" fill="#BAA49A" />
  <rect x="160" y="64" width="32" height="32" fill="#6D5E5C" />
  <rect x="192" y="64" width="32" height="32" fill="#C7BDAE" />
  <rect x="224" y="64" width="32" height="32" fill="#3E393C" />
  <rect x="0" y="96" width="32" height="32" fill="#D2C5B0" />
  <rect x="32" y="96" width="32" height="32" fill="#E3CEB2" />
  <rect x="64" y="96" width="32" height="32" fill="#2A1626" />
  <rect x="96" y="96" width="32" height="32" fill="#DA6D37" />
  <rect x="128" y="96" width="32" height="32" fill="#909B8D" />
  <rect x="160" y="96" width="32" height="32" fill="#7D4D37" />
  <rect x="192" y="96" width="32" height="32" fill="#B3BBA4" />
  <rect x="224" y="96" width="32" height="32" fill="#4A2D29" />
  <rect x="0" y="128" width="32" height="32" fill="#582A23" />
  <rect x="32" y="128" width="32" height="32" fill="#E1B7A0" />
  <rect x="64" y="128" width="32" height="32" fill="#C82D34" />
  <rect x="96" y="128" width="32" height="32" fill="#0A0B0E" />
  <rect x="128" y="128" width="32" height="32" fill="#5C4E3F" />
  <rect x="160" y="128" width="32" height="32" fill="#C1BFB4" />
  <rect x="192" y="128" width="32" height="32" fill="#3D2C28" />
  <rect x="224" y="128" width="32" height="32" fill="#A06337" />
  <rect x="0" y="160" width="32" height="32" fill="#F4D8C5" />
  <rect x="32" y="160" width="32" height="32" fill="#D9B3A0" />
  <rect x="64" y="160" width="32" height="32" fill="#793A41" />
  <rect x="96" y="160" width="32" height="32" fill="#545456" />
  <rect x="128" y="160" width="32" height="32" fill="#E4B4A1" />
  <rect x="160" y="160" width="32" height="32" fill="#180F1C" />
  <rect x="192" y="160" width="32" height="32" fill="#CE0E15" />
  <rect x="224" y="160" width="32" height="32" fill="#C3AA9D" />
  <rect x="0" y="192" width="32" height="32" fill="#98564E" />
  <rect x="32" y="192" width="32" height="32" fill="#5D4F42" />
  <rect x="64" y="192" width="32" height="32" fill="#4C2D31" />
  <rect x="96" y="192" width="32" height="32" fill="#FFC5AE" />
  <rect x="128" y="192" width="32" height="32" fill="#A0867F" />
  <rect x="160" y="192" width="32" height="32" fill="#2A1E22" />
  <rect x="192" y="192" width="32" height="32" fill="#D9C7B7" />
  <rect x="224" y="192" width="32" height="32" fill="#A5B29C" />
  <rect x="0" y="224" width="32" height="32" fill="#F1E5D3" />
  <rect x="32" y="224" width="32" height="32" fill="#341C24" />
  <rect x="64" y="224" width="32" height="32" fill="#BA474B" />
  <rect x="96" y="224" width="32" height="32" fill="#D4C7B6" />
  <rect x="128" y="224" width="32" height="32" fill="#6B4C3B" />
  <rect x="160" y="224" width="32" height="32" fill="#D8C1B1" />
  <rect x="192" y="224" width="32" height="32" fill="#484953" />
  <rect x="224" y="224" width="32" height="32" fill="#1B141D" />
</svg>
