<svg xmlns="http://www.w3.org/2000/svg" width="256" height="256" viewBox="0 0 256 256" shape-rendering="crispEdges" role="img" aria-labelledby="title desc">
  <title id="title">Pressure vs Release</title>
  <desc id="desc">The emotional tone oscillates between the dense weight of pressure and the ethereal lightness of quiet. The chosen palette of off-white, dust gray, compressed red, dark navy, and faint peach creates a contrast between soft and hard edges, with off-white and faint peach acting as accents against the deeper colors. The main collision occurs at the center where dark navy and compressed red create a vibrant disruption in an otherwise fluid arrangement of soft tones. This arrangement reflects the seed, with the jagged edges echoing the conflict of symmetry and break, while the scattered pattern of the pressure theme collides with the maze-like quality of quiet, creating a visual tension that speaks to fragility.</desc>
  <rect width="256" height="256" fill="#FFFFFF" />
  <rect x="0" y="0" width="32" height="32" fill="#F8F8F8" />
  <rect x="32" y="0" width="32" height="32" fill="#E1E1E1" />
  <rect x="64" y="0" width="32" height="32" fill="#C4C4C4" />
  <rect x="96" y="0" width="32" height="32" fill="#A7A7A7" />
  <rect x="128" y="0" width="32" height="32" fill="#8A8A8A" />
  <rect x="160" y="0" width="32" height="32" fill="#6D6D6D" />
  <rect x="192" y="0" width="32" height="32" fill="#54B8B1" />
  <rect x="224" y="0" width="32" height="32" fill="#E2B8C5" />
  <rect x="0" y="32" width="32" height="32" fill="#D9D9D9" />
  <rect x="32" y="32" width="32" height="32" fill="#B0B0B0" />
  <rect x="64" y="32" width="32" height="32" fill="#9E4C4C" />
  <rect x="96" y="32" width="32" height="32" fill="#9E9E9E" />
  <rect x="128" y="32" width="32" height="32" fill="#A45B5B" />
  <rect x="160" y="32" width="32" height="32" fill="#B88585" />
  <rect x="192" y="32" width="32" height="32" fill="#DFC5C5" />
  <rect x="224" y="32" width="32" height="32" fill="#F0EAE6" />
  <rect x="0" y="64" width="32" height="32" fill="#FFFFFF" />
  <rect x="32" y="64" width="32" height="32" fill="#B3A3B3" />
  <rect x="64" y="64" width="32" height="32" fill="#4D4D4D" />
  <rect x="96" y="64" width="32" height="32" fill="#5B5B5B" />
  <rect x="128" y="64" width="32" height="32" fill="#6D6D6D" />
  <rect x="160" y="64" width="32" height="32" fill="#EFF0F0" />
  <rect x="192" y="64" width="32" height="32" fill="#F7EEEE" />
  <rect x="224" y="64" width="32" height="32" fill="#A7A3A3" />
  <rect x="0" y="96" width="32" height="32" fill="#DBDBDB" />
  <rect x="32" y="96" width="32" height="32" fill="#D3D3D3" />
  <rect x="64" y="96" width="32" height="32" fill="#A94343" />
  <rect x="96" y="96" width="32" height="32" fill="#3F3F3F" />
  <rect x="128" y="96" width="32" height="32" fill="#444444" />
  <rect x="160" y="96" width="32" height="32" fill="#FFCCCB" />
  <rect x="192" y="96" width="32" height="32" fill="#DEB9B9" />
  <rect x="224" y="96" width="32" height="32" fill="#E1E1D1" />
  <rect x="0" y="128" width="32" height="32" fill="#F1F1F1" />
  <rect x="32" y="128" width="32" height="32" fill="#D4B8B8" />
  <rect x="64" y="128" width="32" height="32" fill="#6F6F6F" />
  <rect x="96" y="128" width="32" height="32" fill="#5B5B5B" />
  <rect x="128" y="128" width="32" height="32" fill="#717171" />
  <rect x="160" y="128" width="32" height="32" fill="#8C8C8C" />
  <rect x="192" y="128" width="32" height="32" fill="#E5C4C4" />
  <rect x="224" y="128" width="32" height="32" fill="#F7F0F0" />
  <rect x="0" y="160" width="32" height="32" fill="#E0E0E0" />
  <rect x="32" y="160" width="32" height="32" fill="#C5C5E1" />
  <rect x="64" y="160" width="32" height="32" fill="#725252" />
  <rect x="96" y="160" width="32" height="32" fill="#606060" />
  <rect x="128" y="160" width="32" height="32" fill="#FF5F5F" />
  <rect x="160" y="160" width="32" height="32" fill="#786F6F" />
  <rect x="192" y="160" width="32" height="32" fill="#E7DAD9" />
  <rect x="224" y="160" width="32" height="32" fill="#DDDDDD" />
  <rect x="0" y="192" width="32" height="32" fill="#F6F6F6" />
  <rect x="32" y="192" width="32" height="32" fill="#B7B7B7" />
  <rect x="64" y="192" width="32" height="32" fill="#5B4F4F" />
  <rect x="96" y="192" width="32" height="32" fill="#787878" />
  <rect x="128" y="192" width="32" height="32" fill="#F4E1E1" />
  <rect x="160" y="192" width="32" height="32" fill="#929292" />
  <rect x="192" y="192" width="32" height="32" fill="#D2D2D2" />
  <rect x="224" y="192" width="32" height="32" fill="#B8B1B1" />
  <rect x="0" y="224" width="32" height="32" fill="#EEEEEE" />
  <rect x="32" y="224" width="32" height="32" fill="#919191" />
  <rect x="64" y="224" width="32" height="32" fill="#6D4B4B" />
  <rect x="96" y="224" width="32" height="32" fill="#5F5F5F" />
  <rect x="128" y="224" width="32" height="32" fill="#95B8B8" />
  <rect x="160" y="224" width="32" height="32" fill="#A6C17E" />
  <rect x="192" y="224" width="32" height="32" fill="#FFEFEF" />
  <rect x="224" y="224" width="32" height="32" fill="#FFFFFF" />
</svg>
