<svg xmlns="http://www.w3.org/2000/svg" width="256" height="256" viewBox="0 0 256 256" shape-rendering="crispEdges" role="img" aria-labelledby="title desc">
  <title id="title">Tension Between the Threads</title>
  <desc id="desc">The emotional tone is one of struggle and harmony, utilizing the palette to embody warmth and coolness in contrast. The warm coral and soft amber evoke longing, symbolizing emotional threads weaving through serenity. The cold slate and signal cyan represent resolve, sharp yet calming. The design features a collision of checker and rain patterns, interrupted at the center to create a visual pulse, with broken pixels serving to signify repair amidst tension. This results in an abstract narrative of connection and fragmentation.</desc>
  <rect width="256" height="256" fill="#FFFFFF" />
  <rect x="0" y="0" width="32" height="32" fill="#FF6F61" />
  <rect x="32" y="0" width="32" height="32" fill="#FFA07A" />
  <rect x="64" y="0" width="32" height="32" fill="#FFD700" />
  <rect x="96" y="0" width="32" height="32" fill="#B0C4DE" />
  <rect x="128" y="0" width="32" height="32" fill="#001F3F" />
  <rect x="160" y="0" width="32" height="32" fill="#404040" />
  <rect x="192" y="0" width="32" height="32" fill="#7FFFD4" />
  <rect x="224" y="0" width="32" height="32" fill="#4682B4" />
  <rect x="0" y="32" width="32" height="32" fill="#FF6F61" />
  <rect x="32" y="32" width="32" height="32" fill="#FFA07A" />
  <rect x="64" y="32" width="32" height="32" fill="#DCDCDC" />
  <rect x="96" y="32" width="32" height="32" fill="#B0E0E6" />
  <rect x="128" y="32" width="32" height="32" fill="#4682B4" />
  <rect x="160" y="32" width="32" height="32" fill="#001F3F" />
  <rect x="192" y="32" width="32" height="32" fill="#98FB98" />
  <rect x="224" y="32" width="32" height="32" fill="#2F4F4F" />
  <rect x="0" y="64" width="32" height="32" fill="#B0C4DE" />
  <rect x="32" y="64" width="32" height="32" fill="#CD5C5C" />
  <rect x="64" y="64" width="32" height="32" fill="#FF4500" />
  <rect x="96" y="64" width="32" height="32" fill="#7FFF00" />
  <rect x="128" y="64" width="32" height="32" fill="#283D3B" />
  <rect x="160" y="64" width="32" height="32" fill="#A9A9A9" />
  <rect x="192" y="64" width="32" height="32" fill="#FFC0CB" />
  <rect x="224" y="64" width="32" height="32" fill="#1F1F1F" />
  <rect x="0" y="96" width="32" height="32" fill="#D3D3D3" />
  <rect x="32" y="96" width="32" height="32" fill="#FF6347" />
  <rect x="64" y="96" width="32" height="32" fill="#4682B4" />
  <rect x="96" y="96" width="32" height="32" fill="#5F9EA0" />
  <rect x="128" y="96" width="32" height="32" fill="#A6A6A6" />
  <rect x="160" y="96" width="32" height="32" fill="#654321" />
  <rect x="192" y="96" width="32" height="32" fill="#4B0082" />
  <rect x="224" y="96" width="32" height="32" fill="#2C3E50" />
  <rect x="0" y="128" width="32" height="32" fill="#7CFC00" />
  <rect x="32" y="128" width="32" height="32" fill="#7B68EE" />
  <rect x="64" y="128" width="32" height="32" fill="#B0E0E6" />
  <rect x="96" y="128" width="32" height="32" fill="#FFD700" />
  <rect x="128" y="128" width="32" height="32" fill="#B22222" />
  <rect x="160" y="128" width="32" height="32" fill="#D8BFD8" />
  <rect x="192" y="128" width="32" height="32" fill="#FF6347" />
  <rect x="224" y="128" width="32" height="32" fill="#203C54" />
  <rect x="0" y="160" width="32" height="32" fill="#5F9EA0" />
  <rect x="32" y="160" width="32" height="32" fill="#1C1C1C" />
  <rect x="64" y="160" width="32" height="32" fill="#FFFACD" />
  <rect x="96" y="160" width="32" height="32" fill="#7FFF00" />
  <rect x="128" y="160" width="32" height="32" fill="#4682B4" />
  <rect x="160" y="160" width="32" height="32" fill="#FFFFFF" />
  <rect x="192" y="160" width="32" height="32" fill="#808080" />
  <rect x="224" y="160" width="32" height="32" fill="#A9A9A9" />
  <rect x="0" y="192" width="32" height="32" fill="#FF4500" />
  <rect x="32" y="192" width="32" height="32" fill="#FF7F50" />
  <rect x="64" y="192" width="32" height="32" fill="#D3D3D3" />
  <rect x="96" y="192" width="32" height="32" fill="#CD5C5C" />
  <rect x="128" y="192" width="32" height="32" fill="#3CB371" />
  <rect x="160" y="192" width="32" height="32" fill="#F0E68C" />
  <rect x="192" y="192" width="32" height="32" fill="#FAFAD2" />
  <rect x="224" y="192" width="32" height="32" fill="#FFA500" />
  <rect x="0" y="224" width="32" height="32" fill="#000000" />
  <rect x="32" y="224" width="32" height="32" fill="#2F4F4F" />
  <rect x="64" y="224" width="32" height="32" fill="#4B0082" />
  <rect x="96" y="224" width="32" height="32" fill="#7FFF00" />
  <rect x="128" y="224" width="32" height="32" fill="#DDA0DD" />
  <rect x="160" y="224" width="32" height="32" fill="#D2691E" />
  <rect x="192" y="224" width="32" height="32" fill="#C0C0C0" />
  <rect x="224" y="224" width="32" height="32" fill="#FFFFFF" />
</svg>
