<svg xmlns="http://www.w3.org/2000/svg" width="256" height="256" viewBox="0 0 256 256" shape-rendering="crispEdges" role="img" aria-labelledby="title desc">
  <title id="title">Fragments of Conflict</title>
  <desc id="desc">This composition captures the emotional tension between tenderness and rage, embodying the chaos of feelings through jagged edges of dark reds against cool, muted blues. The palette of deep red, black, pale blue, and white fosters a stark contrast that underscores the battle between softness and aggression, with a dominant dark red section clashing against gentler hues in a diagonal layout. The 'spark' and 'pulse_marks' patterns collide, symbolizing broken relationships and emotional overlaps while maintaining a scattered flow. Broken pixels add intentional disruptions, reflecting the imperfections in the narrative of guilt and forgiveness, allowing for a whisper of quiet amidst the emotional overwhelm.</desc>
  <rect width="256" height="256" fill="#FFFFFF" />
  <rect x="0" y="0" width="32" height="32" fill="#FF3B3B" />
  <rect x="32" y="0" width="32" height="32" fill="#FF6F61" />
  <rect x="64" y="0" width="32" height="32" fill="#FFFFFF" />
  <rect x="96" y="0" width="32" height="32" fill="#FFFFFF" />
  <rect x="128" y="0" width="32" height="32" fill="#A2C2E5" />
  <rect x="160" y="0" width="32" height="32" fill="#A3C1E0" />
  <rect x="192" y="0" width="32" height="32" fill="#F0F8FF" />
  <rect x="224" y="0" width="32" height="32" fill="#EAE7E8" />
  <rect x="0" y="32" width="32" height="32" fill="#D02025" />
  <rect x="32" y="32" width="32" height="32" fill="#FF7F50" />
  <rect x="64" y="32" width="32" height="32" fill="#F0F8FF" />
  <rect x="96" y="32" width="32" height="32" fill="#A4D8E1" />
  <rect x="128" y="32" width="32" height="32" fill="#A2C2E5" />
  <rect x="160" y="32" width="32" height="32" fill="#F0F8FF" />
  <rect x="192" y="32" width="32" height="32" fill="#FFFFFF" />
  <rect x="224" y="32" width="32" height="32" fill="#FFFFFF" />
  <rect x="0" y="64" width="32" height="32" fill="#000000" />
  <rect x="32" y="64" width="32" height="32" fill="#B2B2B2" />
  <rect x="64" y="64" width="32" height="32" fill="#F0F8FF" />
  <rect x="96" y="64" width="32" height="32" fill="#C5E3F7" />
  <rect x="128" y="64" width="32" height="32" fill="#D0DAE5" />
  <rect x="160" y="64" width="32" height="32" fill="#FFFFFF" />
  <rect x="192" y="64" width="32" height="32" fill="#FFFFFF" />
  <rect x="224" y="64" width="32" height="32" fill="#EAE7E8" />
  <rect x="0" y="96" width="32" height="32" fill="#8A1D25" />
  <rect x="32" y="96" width="32" height="32" fill="#670B0A" />
  <rect x="64" y="96" width="32" height="32" fill="#A2C2E5" />
  <rect x="96" y="96" width="32" height="32" fill="#00A8B0" />
  <rect x="128" y="96" width="32" height="32" fill="#FF6F61" />
  <rect x="160" y="96" width="32" height="32" fill="#FFFFFF" />
  <rect x="192" y="96" width="32" height="32" fill="#B2B2B2" />
  <rect x="224" y="96" width="32" height="32" fill="#FFFFFF" />
  <rect x="0" y="128" width="32" height="32" fill="#D02025" />
  <rect x="32" y="128" width="32" height="32" fill="#000000" />
  <rect x="64" y="128" width="32" height="32" fill="#F0F8FF" />
  <rect x="96" y="128" width="32" height="32" fill="#C5E3F7" />
  <rect x="128" y="128" width="32" height="32" fill="#A4D8E1" />
  <rect x="160" y="128" width="32" height="32" fill="#F0F8FF" />
  <rect x="192" y="128" width="32" height="32" fill="#F0F8FF" />
  <rect x="224" y="128" width="32" height="32" fill="#EAE7E8" />
  <rect x="0" y="160" width="32" height="32" fill="#670B0A" />
  <rect x="32" y="160" width="32" height="32" fill="#FF3B3B" />
  <rect x="64" y="160" width="32" height="32" fill="#FFFFFF" />
  <rect x="96" y="160" width="32" height="32" fill="#A4D8E1" />
  <rect x="128" y="160" width="32" height="32" fill="#A2C2E5" />
  <rect x="160" y="160" width="32" height="32" fill="#FF6F61" />
  <rect x="192" y="160" width="32" height="32" fill="#000000" />
  <rect x="224" y="160" width="32" height="32" fill="#FFFFFF" />
  <rect x="0" y="192" width="32" height="32" fill="#FF7F50" />
  <rect x="32" y="192" width="32" height="32" fill="#8A1D25" />
  <rect x="64" y="192" width="32" height="32" fill="#D02025" />
  <rect x="96" y="192" width="32" height="32" fill="#A2C2E5" />
  <rect x="128" y="192" width="32" height="32" fill="#C5E3F7" />
  <rect x="160" y="192" width="32" height="32" fill="#FFFFFF" />
  <rect x="192" y="192" width="32" height="32" fill="#B2B2B2" />
  <rect x="224" y="192" width="32" height="32" fill="#FFFFFF" />
  <rect x="0" y="224" width="32" height="32" fill="#B2B2B2" />
  <rect x="32" y="224" width="32" height="32" fill="#FF3B3B" />
  <rect x="64" y="224" width="32" height="32" fill="#8A1D25" />
  <rect x="96" y="224" width="32" height="32" fill="#D0DAE5" />
  <rect x="128" y="224" width="32" height="32" fill="#A4D8E1" />
  <rect x="160" y="224" width="32" height="32" fill="#F0F8FF" />
  <rect x="192" y="224" width="32" height="32" fill="#FFFFFF" />
  <rect x="224" y="224" width="32" height="32" fill="#FFFFFF" />
</svg>
