<svg xmlns="http://www.w3.org/2000/svg" width="256" height="256" viewBox="0 0 256 256" shape-rendering="crispEdges" role="img" aria-labelledby="title desc">
  <title id="title">Pressure vs Release</title>
  <desc id="desc">The emotional tone oscillates between tension and ease, embodying the struggle of dread and relief. The chosen palette—pale mint, soft sky, storm gray, near black, and faded gold—contrasts cool tranquility with grounding darkness. The edge style reflects broken lines, contributing to the chaos contrasting with the centered flood pattern representing relief. The primary collision occurs near the center where density meets lighter tones, suggesting an unresolved struggle between order and chaos, all while maintaining a sense of openness with areas intentionally left empty to allow for breathing space.</desc>
  <rect width="256" height="256" fill="#FFFFFF" />
  <rect x="0" y="0" width="32" height="32" fill="#000000" />
  <rect x="32" y="0" width="32" height="32" fill="#000000" />
  <rect x="64" y="0" width="32" height="32" fill="#111111" />
  <rect x="96" y="0" width="32" height="32" fill="#222222" />
  <rect x="128" y="0" width="32" height="32" fill="#DDDDDD" />
  <rect x="160" y="0" width="32" height="32" fill="#DDDDDD" />
  <rect x="192" y="0" width="32" height="32" fill="#EEEEEE" />
  <rect x="224" y="0" width="32" height="32" fill="#FFFFFF" />
  <rect x="0" y="32" width="32" height="32" fill="#000000" />
  <rect x="32" y="32" width="32" height="32" fill="#333333" />
  <rect x="64" y="32" width="32" height="32" fill="#444444" />
  <rect x="96" y="32" width="32" height="32" fill="#555555" />
  <rect x="128" y="32" width="32" height="32" fill="#EEEEEE" />
  <rect x="160" y="32" width="32" height="32" fill="#DDDDDD" />
  <rect x="192" y="32" width="32" height="32" fill="#EEEEEE" />
  <rect x="224" y="32" width="32" height="32" fill="#FFFFFF" />
  <rect x="0" y="64" width="32" height="32" fill="#00AAFF" />
  <rect x="32" y="64" width="32" height="32" fill="#111111" />
  <rect x="64" y="64" width="32" height="32" fill="#222222" />
  <rect x="96" y="64" width="32" height="32" fill="#888888" />
  <rect x="128" y="64" width="32" height="32" fill="#FFFFFF" />
  <rect x="160" y="64" width="32" height="32" fill="#DDDDDD" />
  <rect x="192" y="64" width="32" height="32" fill="#EEEEEE" />
  <rect x="224" y="64" width="32" height="32" fill="#FFFFFF" />
  <rect x="0" y="96" width="32" height="32" fill="#000000" />
  <rect x="32" y="96" width="32" height="32" fill="#444444" />
  <rect x="64" y="96" width="32" height="32" fill="#555555" />
  <rect x="96" y="96" width="32" height="32" fill="#333333" />
  <rect x="128" y="96" width="32" height="32" fill="#777777" />
  <rect x="160" y="96" width="32" height="32" fill="#F5DEB3" />
  <rect x="192" y="96" width="32" height="32" fill="#FFFFFF" />
  <rect x="224" y="96" width="32" height="32" fill="#FFFFFF" />
  <rect x="0" y="128" width="32" height="32" fill="#000000" />
  <rect x="32" y="128" width="32" height="32" fill="#333333" />
  <rect x="64" y="128" width="32" height="32" fill="#444444" />
  <rect x="96" y="128" width="32" height="32" fill="#DDDDDD" />
  <rect x="128" y="128" width="32" height="32" fill="#EEEEEE" />
  <rect x="160" y="128" width="32" height="32" fill="#0F5BCB" />
  <rect x="192" y="128" width="32" height="32" fill="#FFFFFF" />
  <rect x="224" y="128" width="32" height="32" fill="#FFFFFF" />
  <rect x="0" y="160" width="32" height="32" fill="#000000" />
  <rect x="32" y="160" width="32" height="32" fill="#000000" />
  <rect x="64" y="160" width="32" height="32" fill="#FFFFFF" />
  <rect x="96" y="160" width="32" height="32" fill="#111111" />
  <rect x="128" y="160" width="32" height="32" fill="#222222" />
  <rect x="160" y="160" width="32" height="32" fill="#F0E130" />
  <rect x="192" y="160" width="32" height="32" fill="#FFFFFF" />
  <rect x="224" y="160" width="32" height="32" fill="#FFFFFF" />
  <rect x="0" y="192" width="32" height="32" fill="#333333" />
  <rect x="32" y="192" width="32" height="32" fill="#000000" />
  <rect x="64" y="192" width="32" height="32" fill="#888888" />
  <rect x="96" y="192" width="32" height="32" fill="#444444" />
  <rect x="128" y="192" width="32" height="32" fill="#F0E130" />
  <rect x="160" y="192" width="32" height="32" fill="#222222" />
  <rect x="192" y="192" width="32" height="32" fill="#DDDDDD" />
  <rect x="224" y="192" width="32" height="32" fill="#FFFFFF" />
  <rect x="0" y="224" width="32" height="32" fill="#000000" />
  <rect x="32" y="224" width="32" height="32" fill="#00AAFF" />
  <rect x="64" y="224" width="32" height="32" fill="#111111" />
  <rect x="96" y="224" width="32" height="32" fill="#222222" />
  <rect x="128" y="224" width="32" height="32" fill="#444444" />
  <rect x="160" y="224" width="32" height="32" fill="#F0E130" />
  <rect x="192" y="224" width="32" height="32" fill="#FFFFFF" />
  <rect x="224" y="224" width="32" height="32" fill="#FFFFFF" />
</svg>
