<svg xmlns="http://www.w3.org/2000/svg" width="256" height="256" viewBox="0 0 256 256" shape-rendering="crispEdges" role="img" aria-labelledby="title desc">
  <title id="title">Tension and Release</title>
  <desc id="desc">This piece conveys the emotional tension between restlessness and peace as it explores the contrasts of structured calm and chaotic motion. The palette of soft powder pink and warm white juxtaposed against sharp crimson and carbon black illustrates both serenity and disturbance. The primary collision occurs in the diagonal bands where the warm colors intersect with cooler, darker tones, suggesting a conflict that is unresolved yet dynamic. The patterned arrangement symbolizes memory versus motion, representing echoing thoughts against a backdrop of stillness. The broken pixels introduce intentional disruptions, reflecting the theme of memory's imperfections, while the overall layout suggests shifting densities across emotional strata, enhancing the narrative of tension and release.</desc>
  <rect width="256" height="256" fill="#FFFFFF" />
  <rect x="0" y="0" width="32" height="32" fill="#FFCCCB" />
  <rect x="32" y="0" width="32" height="32" fill="#FFB6C1" />
  <rect x="64" y="0" width="32" height="32" fill="#FFFFFF" />
  <rect x="96" y="0" width="32" height="32" fill="#FFB6C1" />
  <rect x="128" y="0" width="32" height="32" fill="#FFCCCB" />
  <rect x="160" y="0" width="32" height="32" fill="#FFCCCB" />
  <rect x="192" y="0" width="32" height="32" fill="#FFFFFF" />
  <rect x="224" y="0" width="32" height="32" fill="#F0E68C" />
  <rect x="0" y="32" width="32" height="32" fill="#FFB6C1" />
  <rect x="32" y="32" width="32" height="32" fill="#FFD700" />
  <rect x="64" y="32" width="32" height="32" fill="#FFB6C1" />
  <rect x="96" y="32" width="32" height="32" fill="#FFF5EE" />
  <rect x="128" y="32" width="32" height="32" fill="#E6E6FA" />
  <rect x="160" y="32" width="32" height="32" fill="#ADD8E6" />
  <rect x="192" y="32" width="32" height="32" fill="#FFF0F5" />
  <rect x="224" y="32" width="32" height="32" fill="#FF1493" />
  <rect x="0" y="64" width="32" height="32" fill="#FFFFE0" />
  <rect x="32" y="64" width="32" height="32" fill="#FFE4E1" />
  <rect x="64" y="64" width="32" height="32" fill="#FFB6C1" />
  <rect x="96" y="64" width="32" height="32" fill="#FFD700" />
  <rect x="128" y="64" width="32" height="32" fill="#FFE4E1" />
  <rect x="160" y="64" width="32" height="32" fill="#FFFFE0" />
  <rect x="192" y="64" width="32" height="32" fill="#E6E6FA" />
  <rect x="224" y="64" width="32" height="32" fill="#FFB6C1" />
  <rect x="0" y="96" width="32" height="32" fill="#FF4500" />
  <rect x="32" y="96" width="32" height="32" fill="#FF6347" />
  <rect x="64" y="96" width="32" height="32" fill="#FF7F50" />
  <rect x="96" y="96" width="32" height="32" fill="#FF6347" />
  <rect x="128" y="96" width="32" height="32" fill="#FF4500" />
  <rect x="160" y="96" width="32" height="32" fill="#FF6347" />
  <rect x="192" y="96" width="32" height="32" fill="#FFD700" />
  <rect x="224" y="96" width="32" height="32" fill="#FF6347" />
  <rect x="0" y="128" width="32" height="32" fill="#9ACD32" />
  <rect x="32" y="128" width="32" height="32" fill="#F0E68C" />
  <rect x="64" y="128" width="32" height="32" fill="#FFD700" />
  <rect x="96" y="128" width="32" height="32" fill="#FFF0F5" />
  <rect x="128" y="128" width="32" height="32" fill="#FFFFFF" />
  <rect x="160" y="128" width="32" height="32" fill="#FFB6C1" />
  <rect x="192" y="128" width="32" height="32" fill="#FF6347" />
  <rect x="224" y="128" width="32" height="32" fill="#CCFFCC" />
  <rect x="0" y="160" width="32" height="32" fill="#FF6347" />
  <rect x="32" y="160" width="32" height="32" fill="#FF4500" />
  <rect x="64" y="160" width="32" height="32" fill="#8B0000" />
  <rect x="96" y="160" width="32" height="32" fill="#FF6347" />
  <rect x="128" y="160" width="32" height="32" fill="#FF7F50" />
  <rect x="160" y="160" width="32" height="32" fill="#FFFFFF" />
  <rect x="192" y="160" width="32" height="32" fill="#FFB6C1" />
  <rect x="224" y="160" width="32" height="32" fill="#F5F5F5" />
  <rect x="0" y="192" width="32" height="32" fill="#FFFFFF" />
  <rect x="32" y="192" width="32" height="32" fill="#000000" />
  <rect x="64" y="192" width="32" height="32" fill="#FFFFFF" />
  <rect x="96" y="192" width="32" height="32" fill="#C0C0C0" />
  <rect x="128" y="192" width="32" height="32" fill="#696969" />
  <rect x="160" y="192" width="32" height="32" fill="#A9A9A9" />
  <rect x="192" y="192" width="32" height="32" fill="#FFFFFF" />
  <rect x="224" y="192" width="32" height="32" fill="#000000" />
  <rect x="0" y="224" width="32" height="32" fill="#000000" />
  <rect x="32" y="224" width="32" height="32" fill="#AAAAAA" />
  <rect x="64" y="224" width="32" height="32" fill="#444444" />
  <rect x="96" y="224" width="32" height="32" fill="#555555" />
  <rect x="128" y="224" width="32" height="32" fill="#666666" />
  <rect x="160" y="224" width="32" height="32" fill="#CC0000" />
  <rect x="192" y="224" width="32" height="32" fill="#000000" />
  <rect x="224" y="224" width="32" height="32" fill="#444444" />
</svg>
