<svg xmlns="http://www.w3.org/2000/svg" width="256" height="256" viewBox="0 0 256 256" shape-rendering="crispEdges" role="img" aria-labelledby="title desc">
  <title id="title">Collision of Calm</title>
  <desc id="desc">This composition embodies the emotional tension between restlessness and peace through contrasting colors. The top four rows utilize cooler tones (deep teal and void black) representing peace, while the bottom four rows burst with brighter colors (cold gold and cosmic indigo), signifying an unsettled emotional state. The 'braid' and 'crosshatch' patterns intersect in the center where they collide, creating visual tension. Negative space is deliberately maintained to enhance the sense of motion and disturbance versus calmness.</desc>
  <rect width="256" height="256" fill="#FFFFFF" />
  <rect x="0" y="0" width="32" height="32" fill="#003D4B" />
  <rect x="32" y="0" width="32" height="32" fill="#004C59" />
  <rect x="64" y="0" width="32" height="32" fill="#00565B" />
  <rect x="96" y="0" width="32" height="32" fill="#006C6E" />
  <rect x="128" y="0" width="32" height="32" fill="#007A7C" />
  <rect x="160" y="0" width="32" height="32" fill="#008B8C" />
  <rect x="192" y="0" width="32" height="32" fill="#009B9D" />
  <rect x="224" y="0" width="32" height="32" fill="#00B2B3" />
  <rect x="0" y="32" width="32" height="32" fill="#00494B" />
  <rect x="32" y="32" width="32" height="32" fill="#005A60" />
  <rect x="64" y="32" width="32" height="32" fill="#00676B" />
  <rect x="96" y="32" width="32" height="32" fill="#007B78" />
  <rect x="128" y="32" width="32" height="32" fill="#00999A" />
  <rect x="160" y="32" width="32" height="32" fill="#00AA9B" />
  <rect x="192" y="32" width="32" height="32" fill="#00B5B5" />
  <rect x="224" y="32" width="32" height="32" fill="#00C0C1" />
  <rect x="0" y="64" width="32" height="32" fill="#FFD700" />
  <rect x="32" y="64" width="32" height="32" fill="#FFD133" />
  <rect x="64" y="64" width="32" height="32" fill="#FFC300" />
  <rect x="96" y="64" width="32" height="32" fill="#FFB800" />
  <rect x="128" y="64" width="32" height="32" fill="#FFA500" />
  <rect x="160" y="64" width="32" height="32" fill="#FF9800" />
  <rect x="192" y="64" width="32" height="32" fill="#FF8C00" />
  <rect x="224" y="64" width="32" height="32" fill="#FF7D00" />
  <rect x="0" y="96" width="32" height="32" fill="#FFC107" />
  <rect x="32" y="96" width="32" height="32" fill="#FFA726" />
  <rect x="64" y="96" width="32" height="32" fill="#FFB74D" />
  <rect x="96" y="96" width="32" height="32" fill="#FF6F00" />
  <rect x="128" y="96" width="32" height="32" fill="#FF6B00" />
  <rect x="160" y="96" width="32" height="32" fill="#FF7E00" />
  <rect x="192" y="96" width="32" height="32" fill="#FF9100" />
  <rect x="224" y="96" width="32" height="32" fill="#FFAA00" />
  <rect x="0" y="128" width="32" height="32" fill="#000000" />
  <rect x="32" y="128" width="32" height="32" fill="#1F1F1F" />
  <rect x="64" y="128" width="32" height="32" fill="#2F2F2F" />
  <rect x="96" y="128" width="32" height="32" fill="#3F3F3F" />
  <rect x="128" y="128" width="32" height="32" fill="#4F4F4F" />
  <rect x="160" y="128" width="32" height="32" fill="#5F5F5F" />
  <rect x="192" y="128" width="32" height="32" fill="#6F6F6F" />
  <rect x="224" y="128" width="32" height="32" fill="#7F7F7F" />
  <rect x="0" y="160" width="32" height="32" fill="#2A2A2A" />
  <rect x="32" y="160" width="32" height="32" fill="#383838" />
  <rect x="64" y="160" width="32" height="32" fill="#454545" />
  <rect x="96" y="160" width="32" height="32" fill="#525252" />
  <rect x="128" y="160" width="32" height="32" fill="#606060" />
  <rect x="160" y="160" width="32" height="32" fill="#6D6D6D" />
  <rect x="192" y="160" width="32" height="32" fill="#7B7B7B" />
  <rect x="224" y="160" width="32" height="32" fill="#8A8A8A" />
  <rect x="0" y="192" width="32" height="32" fill="#FFFFFF" />
  <rect x="32" y="192" width="32" height="32" fill="#F0F0F0" />
  <rect x="64" y="192" width="32" height="32" fill="#E0E0E0" />
  <rect x="96" y="192" width="32" height="32" fill="#D0D0D0" />
  <rect x="128" y="192" width="32" height="32" fill="#C0C0C0" />
  <rect x="160" y="192" width="32" height="32" fill="#B5B5B5" />
  <rect x="192" y="192" width="32" height="32" fill="#AAAAAA" />
  <rect x="224" y="192" width="32" height="32" fill="#9F9F9F" />
  <rect x="0" y="224" width="32" height="32" fill="#EFEFEF" />
  <rect x="32" y="224" width="32" height="32" fill="#EDEDED" />
  <rect x="64" y="224" width="32" height="32" fill="#DBDBDB" />
  <rect x="96" y="224" width="32" height="32" fill="#CFCFCF" />
  <rect x="128" y="224" width="32" height="32" fill="#C0C0C0" />
  <rect x="160" y="224" width="32" height="32" fill="#B1B1B1" />
  <rect x="192" y="224" width="32" height="32" fill="#A2A2A2" />
  <rect x="224" y="224" width="32" height="32" fill="#909090" />
</svg>
