<svg xmlns="http://www.w3.org/2000/svg" width="256" height="256" viewBox="0 0 256 256" shape-rendering="crispEdges" role="img" aria-labelledby="title desc">
  <title id="title">Veil of Hunger</title>
  <desc id="desc">The emotional tone navigates the tension between saturated desire and muted restraint, using a palette that embodies warmth against a backdrop of calm. The selected colors create a contrast of deep reds and muted creams, where the dynamic arrangement reflects overlapping pulses of longing and containment. The main collision occurs centrally, marked by a saturation of reds contrasting with scattered muted tones, symbolizing the struggle within the ‘diamond’ shape, suggesting both allure and restriction.</desc>
  <rect width="256" height="256" fill="#FFFFFF" />
  <rect x="0" y="0" width="32" height="32" fill="#5E3744" />
  <rect x="32" y="0" width="32" height="32" fill="#7B4550" />
  <rect x="64" y="0" width="32" height="32" fill="#6A3A57" />
  <rect x="96" y="0" width="32" height="32" fill="#5F2D3C" />
  <rect x="128" y="0" width="32" height="32" fill="#7E4D5E" />
  <rect x="160" y="0" width="32" height="32" fill="#A16666" />
  <rect x="192" y="0" width="32" height="32" fill="#B7B3A1" />
  <rect x="224" y="0" width="32" height="32" fill="#FFEFD5" />
  <rect x="0" y="32" width="32" height="32" fill="#CBB0B3" />
  <rect x="32" y="32" width="32" height="32" fill="#E2C4C6" />
  <rect x="64" y="32" width="32" height="32" fill="#E9D3D3" />
  <rect x="96" y="32" width="32" height="32" fill="#EADEDC" />
  <rect x="128" y="32" width="32" height="32" fill="#F3E8E4" />
  <rect x="160" y="32" width="32" height="32" fill="#D3C6C5" />
  <rect x="192" y="32" width="32" height="32" fill="#B2A8A5" />
  <rect x="224" y="32" width="32" height="32" fill="#908E8C" />
  <rect x="0" y="64" width="32" height="32" fill="#6C3A3E" />
  <rect x="32" y="64" width="32" height="32" fill="#7A4D52" />
  <rect x="64" y="64" width="32" height="32" fill="#A74F56" />
  <rect x="96" y="64" width="32" height="32" fill="#DA6A7A" />
  <rect x="128" y="64" width="32" height="32" fill="#CDB7B1" />
  <rect x="160" y="64" width="32" height="32" fill="#B4A79C" />
  <rect x="192" y="64" width="32" height="32" fill="#DFD8CC" />
  <rect x="224" y="64" width="32" height="32" fill="#F0E3D0" />
  <rect x="0" y="96" width="32" height="32" fill="#5B2D32" />
  <rect x="32" y="96" width="32" height="32" fill="#DB6D78" />
  <rect x="64" y="96" width="32" height="32" fill="#B56973" />
  <rect x="96" y="96" width="32" height="32" fill="#E4B7B2" />
  <rect x="128" y="96" width="32" height="32" fill="#BEBDBB" />
  <rect x="160" y="96" width="32" height="32" fill="#C1C7C7" />
  <rect x="192" y="96" width="32" height="32" fill="#EAE8EA" />
  <rect x="224" y="96" width="32" height="32" fill="#FFE9C4" />
  <rect x="0" y="128" width="32" height="32" fill="#431E22" />
  <rect x="32" y="128" width="32" height="32" fill="#C91626" />
  <rect x="64" y="128" width="32" height="32" fill="#9A454E" />
  <rect x="96" y="128" width="32" height="32" fill="#B5A29C" />
  <rect x="128" y="128" width="32" height="32" fill="#E8D8D0" />
  <rect x="160" y="128" width="32" height="32" fill="#F2E5E1" />
  <rect x="192" y="128" width="32" height="32" fill="#E0CECC" />
  <rect x="224" y="128" width="32" height="32" fill="#F6F1EE" />
  <rect x="0" y="160" width="32" height="32" fill="#4C0F14" />
  <rect x="32" y="160" width="32" height="32" fill="#A2252C" />
  <rect x="64" y="160" width="32" height="32" fill="#AA4C56" />
  <rect x="96" y="160" width="32" height="32" fill="#A16660" />
  <rect x="128" y="160" width="32" height="32" fill="#D7D1CE" />
  <rect x="160" y="160" width="32" height="32" fill="#E1DDDB" />
  <rect x="192" y="160" width="32" height="32" fill="#D3C8BF" />
  <rect x="224" y="160" width="32" height="32" fill="#FEFAF0" />
  <rect x="0" y="192" width="32" height="32" fill="#5A282D" />
  <rect x="32" y="192" width="32" height="32" fill="#9B3E45" />
  <rect x="64" y="192" width="32" height="32" fill="#EC646C" />
  <rect x="96" y="192" width="32" height="32" fill="#EDABAB" />
  <rect x="128" y="192" width="32" height="32" fill="#DCC4BD" />
  <rect x="160" y="192" width="32" height="32" fill="#B5B3AC" />
  <rect x="192" y="192" width="32" height="32" fill="#C4BDB5" />
  <rect x="224" y="192" width="32" height="32" fill="#E7E4E2" />
  <rect x="0" y="224" width="32" height="32" fill="#3A1F24" />
  <rect x="32" y="224" width="32" height="32" fill="#623B41" />
  <rect x="64" y="224" width="32" height="32" fill="#8B5B63" />
  <rect x="96" y="224" width="32" height="32" fill="#B68C93" />
  <rect x="128" y="224" width="32" height="32" fill="#DBE2E2" />
  <rect x="160" y="224" width="32" height="32" fill="#F4E9E6" />
  <rect x="192" y="224" width="32" height="32" fill="#F8F5F0" />
  <rect x="224" y="224" width="32" height="32" fill="#FFFFFF" />
</svg>
