<svg xmlns="http://www.w3.org/2000/svg" width="256" height="256" viewBox="0 0 256 256" shape-rendering="crispEdges" role="img" aria-labelledby="title desc">
  <title id="title">Rising Echoes</title>
  <desc id="desc">This artwork embodies the emotional tension between defiance and submission, emphasizing a dynamic narrative of pressure and release. The selected palette of electric blue and magenta (indicative of vibrancy and emotion) contrasts sharply against the depth of black, juxtaposing intense feeling with moments of quiet. The diagonal rise flows evoke a sense of hope amidst turmoil, while the broken pixels introduce imperfection, reinforcing the theme of collision. The arrangement creates an abstract landscape where color clashes signal emotional responses, drawing the viewer into a cyclical rhythm of intensity and calm.</desc>
  <rect width="256" height="256" fill="#FFFFFF" />
  <rect x="0" y="0" width="32" height="32" fill="#000000" />
  <rect x="32" y="0" width="32" height="32" fill="#00FF00" />
  <rect x="64" y="0" width="32" height="32" fill="#1F1F1F" />
  <rect x="96" y="0" width="32" height="32" fill="#2E2E2E" />
  <rect x="128" y="0" width="32" height="32" fill="#3F3F3F" />
  <rect x="160" y="0" width="32" height="32" fill="#4E4E4E" />
  <rect x="192" y="0" width="32" height="32" fill="#5F5F5F" />
  <rect x="224" y="0" width="32" height="32" fill="#0F0F0F" />
  <rect x="0" y="32" width="32" height="32" fill="#FF00FF" />
  <rect x="32" y="32" width="32" height="32" fill="#00FFFF" />
  <rect x="64" y="32" width="32" height="32" fill="#000000" />
  <rect x="96" y="32" width="32" height="32" fill="#FF0000" />
  <rect x="128" y="32" width="32" height="32" fill="#0000FF" />
  <rect x="160" y="32" width="32" height="32" fill="#00FF00" />
  <rect x="192" y="32" width="32" height="32" fill="#FFFF00" />
  <rect x="224" y="32" width="32" height="32" fill="#FF00FF" />
  <rect x="0" y="64" width="32" height="32" fill="#333333" />
  <rect x="32" y="64" width="32" height="32" fill="#444444" />
  <rect x="64" y="64" width="32" height="32" fill="#555555" />
  <rect x="96" y="64" width="32" height="32" fill="#666666" />
  <rect x="128" y="64" width="32" height="32" fill="#777777" />
  <rect x="160" y="64" width="32" height="32" fill="#888888" />
  <rect x="192" y="64" width="32" height="32" fill="#999999" />
  <rect x="224" y="64" width="32" height="32" fill="#AFAFAF" />
  <rect x="0" y="96" width="32" height="32" fill="#F0F0F0" />
  <rect x="32" y="96" width="32" height="32" fill="#E0E0E0" />
  <rect x="64" y="96" width="32" height="32" fill="#D0D0D0" />
  <rect x="96" y="96" width="32" height="32" fill="#C0C0C0" />
  <rect x="128" y="96" width="32" height="32" fill="#B0B0B0" />
  <rect x="160" y="96" width="32" height="32" fill="#A0A0A0" />
  <rect x="192" y="96" width="32" height="32" fill="#909090" />
  <rect x="224" y="96" width="32" height="32" fill="#808080" />
  <rect x="0" y="128" width="32" height="32" fill="#FF6600" />
  <rect x="32" y="128" width="32" height="32" fill="#FFCC00" />
  <rect x="64" y="128" width="32" height="32" fill="#CCFF00" />
  <rect x="96" y="128" width="32" height="32" fill="#66FF00" />
  <rect x="128" y="128" width="32" height="32" fill="#00FF00" />
  <rect x="160" y="128" width="32" height="32" fill="#00CC00" />
  <rect x="192" y="128" width="32" height="32" fill="#009900" />
  <rect x="224" y="128" width="32" height="32" fill="#005500" />
  <rect x="0" y="160" width="32" height="32" fill="#002200" />
  <rect x="32" y="160" width="32" height="32" fill="#000000" />
  <rect x="64" y="160" width="32" height="32" fill="#2A2A2A" />
  <rect x="96" y="160" width="32" height="32" fill="#4D4D4D" />
  <rect x="128" y="160" width="32" height="32" fill="#808080" />
  <rect x="160" y="160" width="32" height="32" fill="#B3B3B3" />
  <rect x="192" y="160" width="32" height="32" fill="#CCCCCC" />
  <rect x="224" y="160" width="32" height="32" fill="#FFFFFF" />
  <rect x="0" y="192" width="32" height="32" fill="#FFFF33" />
  <rect x="32" y="192" width="32" height="32" fill="#FFFF99" />
  <rect x="64" y="192" width="32" height="32" fill="#FFFFCC" />
  <rect x="96" y="192" width="32" height="32" fill="#FFFF00" />
  <rect x="128" y="192" width="32" height="32" fill="#FFCC33" />
  <rect x="160" y="192" width="32" height="32" fill="#FF9900" />
  <rect x="192" y="192" width="32" height="32" fill="#CC6600" />
  <rect x="224" y="192" width="32" height="32" fill="#993333" />
  <rect x="0" y="224" width="32" height="32" fill="#660066" />
  <rect x="32" y="224" width="32" height="32" fill="#000066" />
  <rect x="64" y="224" width="32" height="32" fill="#006600" />
  <rect x="96" y="224" width="32" height="32" fill="#006699" />
  <rect x="128" y="224" width="32" height="32" fill="#6699CC" />
  <rect x="160" y="224" width="32" height="32" fill="#CCCCFF" />
  <rect x="192" y="224" width="32" height="32" fill="#FF99FF" />
  <rect x="224" y="224" width="32" height="32" fill="#FFCCFF" />
</svg>
