<svg xmlns="http://www.w3.org/2000/svg" width="256" height="256" viewBox="0 0 256 256" shape-rendering="crispEdges" role="img" aria-labelledby="title desc">
  <title id="title">Tension of Resolution</title>
  <desc id="desc">The artwork captures the emotional interplay between longing and resolve through dense, deep shades of red and dark maroon, symbolizing yearning and intensity, while lighter grays represent the quiet distance and order. The central density evokes chaos, characteristic of longing, contrasted sharply against the empty borders indicating resolution and clarity. The pattern flows diagonally, echoing the tension present in the theme, where jagged edges disrupt the continuity, emphasizing the struggle between closeness and emotional distance.</desc>
  <rect width="256" height="256" fill="#FFFFFF" />
  <rect x="0" y="0" width="32" height="32" fill="#6D4C4C" />
  <rect x="32" y="0" width="32" height="32" fill="#8B0000" />
  <rect x="64" y="0" width="32" height="32" fill="#8C5C5C" />
  <rect x="96" y="0" width="32" height="32" fill="#FFFFFF" />
  <rect x="128" y="0" width="32" height="32" fill="#9E5A5A" />
  <rect x="160" y="0" width="32" height="32" fill="#8B0000" />
  <rect x="192" y="0" width="32" height="32" fill="#B71C1C" />
  <rect x="224" y="0" width="32" height="32" fill="#4E4E4E" />
  <rect x="0" y="32" width="32" height="32" fill="#B71C1C" />
  <rect x="32" y="32" width="32" height="32" fill="#8B0000" />
  <rect x="64" y="32" width="32" height="32" fill="#D32F2F" />
  <rect x="96" y="32" width="32" height="32" fill="#FFFFFF" />
  <rect x="128" y="32" width="32" height="32" fill="#C62828" />
  <rect x="160" y="32" width="32" height="32" fill="#9E5A5A" />
  <rect x="192" y="32" width="32" height="32" fill="#B2B2B2" />
  <rect x="224" y="32" width="32" height="32" fill="#FFFFFF" />
  <rect x="0" y="64" width="32" height="32" fill="#7B7B7B" />
  <rect x="32" y="64" width="32" height="32" fill="#FFFFFF" />
  <rect x="64" y="64" width="32" height="32" fill="#D32F2F" />
  <rect x="96" y="64" width="32" height="32" fill="#4E4E4E" />
  <rect x="128" y="64" width="32" height="32" fill="#8B0000" />
  <rect x="160" y="64" width="32" height="32" fill="#777777" />
  <rect x="192" y="64" width="32" height="32" fill="#FFFFFF" />
  <rect x="224" y="64" width="32" height="32" fill="#D32F2F" />
  <rect x="0" y="96" width="32" height="32" fill="#AFAFAF" />
  <rect x="32" y="96" width="32" height="32" fill="#C62828" />
  <rect x="64" y="96" width="32" height="32" fill="#FFFFFF" />
  <rect x="96" y="96" width="32" height="32" fill="#8C5C5C" />
  <rect x="128" y="96" width="32" height="32" fill="#B71C1C" />
  <rect x="160" y="96" width="32" height="32" fill="#9E5A5A" />
  <rect x="192" y="96" width="32" height="32" fill="#AFAFAF" />
  <rect x="224" y="96" width="32" height="32" fill="#FFFFFF" />
  <rect x="0" y="128" width="32" height="32" fill="#FFFFFF" />
  <rect x="32" y="128" width="32" height="32" fill="#D32F2F" />
  <rect x="64" y="128" width="32" height="32" fill="#D32F2F" />
  <rect x="96" y="128" width="32" height="32" fill="#C62828" />
  <rect x="128" y="128" width="32" height="32" fill="#C62828" />
  <rect x="160" y="128" width="32" height="32" fill="#B2B2B2" />
  <rect x="192" y="128" width="32" height="32" fill="#FFFFFF" />
  <rect x="224" y="128" width="32" height="32" fill="#6D4C4C" />
  <rect x="0" y="160" width="32" height="32" fill="#9E5A5A" />
  <rect x="32" y="160" width="32" height="32" fill="#FFFFFF" />
  <rect x="64" y="160" width="32" height="32" fill="#D32F2F" />
  <rect x="96" y="160" width="32" height="32" fill="#B71C1C" />
  <rect x="128" y="160" width="32" height="32" fill="#8C5C5C" />
  <rect x="160" y="160" width="32" height="32" fill="#AFAFAF" />
  <rect x="192" y="160" width="32" height="32" fill="#C62828" />
  <rect x="224" y="160" width="32" height="32" fill="#777777" />
  <rect x="0" y="192" width="32" height="32" fill="#8B0000" />
  <rect x="32" y="192" width="32" height="32" fill="#E0E0E0" />
  <rect x="64" y="192" width="32" height="32" fill="#FFFFFF" />
  <rect x="96" y="192" width="32" height="32" fill="#D32F2F" />
  <rect x="128" y="192" width="32" height="32" fill="#D32F2F" />
  <rect x="160" y="192" width="32" height="32" fill="#9E5A5A" />
  <rect x="192" y="192" width="32" height="32" fill="#AFAFAF" />
  <rect x="224" y="192" width="32" height="32" fill="#B71C1C" />
  <rect x="0" y="224" width="32" height="32" fill="#7B7B7B" />
  <rect x="32" y="224" width="32" height="32" fill="#B71C1C" />
  <rect x="64" y="224" width="32" height="32" fill="#8B0000" />
  <rect x="96" y="224" width="32" height="32" fill="#6D4C4C" />
  <rect x="128" y="224" width="32" height="32" fill="#4E4E4E" />
  <rect x="160" y="224" width="32" height="32" fill="#C62828" />
  <rect x="192" y="224" width="32" height="32" fill="#D32F2F" />
  <rect x="224" y="224" width="32" height="32" fill="#FFFFFF" />
</svg>
