<svg xmlns="http://www.w3.org/2000/svg" width="256" height="256" viewBox="0 0 256 256" shape-rendering="crispEdges" role="img" aria-labelledby="title desc">
  <title id="title">Pressure and Release</title>
  <desc id="desc">The emotional tone oscillates between dread and relief, where dense clusters of muted colors suggest tension, contrasted by lighter tones that represent release. The selected palette of deep grays and a hint of gold introduces a somber yet uplifting dynamic. The main collision occurs along the shifting border, where the overwhelming dark shades bleed into the lighter hues, simulating an escape from pressure into openness. The seed's qualities inspire a rhythm of tightening and loosening that resonates throughout the grid.</desc>
  <rect width="256" height="256" fill="#FFFFFF" />
  <rect x="0" y="0" width="32" height="32" fill="#2C2F33" />
  <rect x="32" y="0" width="32" height="32" fill="#B9BBBC" />
  <rect x="64" y="0" width="32" height="32" fill="#000000" />
  <rect x="96" y="0" width="32" height="32" fill="#2A2D31" />
  <rect x="128" y="0" width="32" height="32" fill="#373B3F" />
  <rect x="160" y="0" width="32" height="32" fill="#B99F3F" />
  <rect x="192" y="0" width="32" height="32" fill="#4C4F54" />
  <rect x="224" y="0" width="32" height="32" fill="#3A3E44" />
  <rect x="0" y="32" width="32" height="32" fill="#35383C" />
  <rect x="32" y="32" width="32" height="32" fill="#5C5F63" />
  <rect x="64" y="32" width="32" height="32" fill="#474C51" />
  <rect x="96" y="32" width="32" height="32" fill="#5C5D65" />
  <rect x="128" y="32" width="32" height="32" fill="#73797C" />
  <rect x="160" y="32" width="32" height="32" fill="#BCBDBD" />
  <rect x="192" y="32" width="32" height="32" fill="#BCC1C5" />
  <rect x="224" y="32" width="32" height="32" fill="#4B4F55" />
  <rect x="0" y="64" width="32" height="32" fill="#2D3033" />
  <rect x="32" y="64" width="32" height="32" fill="#4E5153" />
  <rect x="64" y="64" width="32" height="32" fill="#676B6E" />
  <rect x="96" y="64" width="32" height="32" fill="#B6B3A9" />
  <rect x="128" y="64" width="32" height="32" fill="#F1E8C7" />
  <rect x="160" y="64" width="32" height="32" fill="#B5B9BE" />
  <rect x="192" y="64" width="32" height="32" fill="#202326" />
  <rect x="224" y="64" width="32" height="32" fill="#000000" />
  <rect x="0" y="96" width="32" height="32" fill="#4F5356" />
  <rect x="32" y="96" width="32" height="32" fill="#C6CECD" />
  <rect x="64" y="96" width="32" height="32" fill="#8E979C" />
  <rect x="96" y="96" width="32" height="32" fill="#B5B9BE" />
  <rect x="128" y="96" width="32" height="32" fill="#F3F5F5" />
  <rect x="160" y="96" width="32" height="32" fill="#ECECE5" />
  <rect x="192" y="96" width="32" height="32" fill="#4B4D52" />
  <rect x="224" y="96" width="32" height="32" fill="#000000" />
  <rect x="0" y="128" width="32" height="32" fill="#3A3E44" />
  <rect x="32" y="128" width="32" height="32" fill="#5C5F65" />
  <rect x="64" y="128" width="32" height="32" fill="#B1B5B7" />
  <rect x="96" y="128" width="32" height="32" fill="#D4D6D8" />
  <rect x="128" y="128" width="32" height="32" fill="#E4E6E7" />
  <rect x="160" y="128" width="32" height="32" fill="#BCBDBD" />
  <rect x="192" y="128" width="32" height="32" fill="#212426" />
  <rect x="224" y="128" width="32" height="32" fill="#111415" />
  <rect x="0" y="160" width="32" height="32" fill="#6B6F72" />
  <rect x="32" y="160" width="32" height="32" fill="#A8AAAB" />
  <rect x="64" y="160" width="32" height="32" fill="#B7B2A6" />
  <rect x="96" y="160" width="32" height="32" fill="#B5B8B7" />
  <rect x="128" y="160" width="32" height="32" fill="#E8E0C6" />
  <rect x="160" y="160" width="32" height="32" fill="#F1E8BB" />
  <rect x="192" y="160" width="32" height="32" fill="#4A4B4D" />
  <rect x="224" y="160" width="32" height="32" fill="#000000" />
  <rect x="0" y="192" width="32" height="32" fill="#2A2D31" />
  <rect x="32" y="192" width="32" height="32" fill="#3F4345" />
  <rect x="64" y="192" width="32" height="32" fill="#B6B4AD" />
  <rect x="96" y="192" width="32" height="32" fill="#E3E6D9" />
  <rect x="128" y="192" width="32" height="32" fill="#AFC1B7" />
  <rect x="160" y="192" width="32" height="32" fill="#DFE1E0" />
  <rect x="192" y="192" width="32" height="32" fill="#393E41" />
  <rect x="224" y="192" width="32" height="32" fill="#2C2F32" />
  <rect x="0" y="224" width="32" height="32" fill="#1F2224" />
  <rect x="32" y="224" width="32" height="32" fill="#4B4D51" />
  <rect x="64" y="224" width="32" height="32" fill="#707375" />
  <rect x="96" y="224" width="32" height="32" fill="#D2D3D5" />
  <rect x="128" y="224" width="32" height="32" fill="#F3F5F5" />
  <rect x="160" y="224" width="32" height="32" fill="#A1A4A6" />
  <rect x="192" y="224" width="32" height="32" fill="#4B4D52" />
  <rect x="224" y="224" width="32" height="32" fill="#000000" />
</svg>
