<svg xmlns="http://www.w3.org/2000/svg" width="256" height="256" viewBox="0 0 256 256" shape-rendering="crispEdges" role="img" aria-labelledby="title desc">
  <title id="title">Echoes of Tension</title>
  <desc id="desc">This piece captures the duality of restlessness and peace, represented by contrasting regions of bright and muted colors. The palette features deep blacks and vibrant hues like electric blue and hot magenta, creating emotional tension. The arrangement reflects a split-screen pattern dominating one side, embodying tranquility, while the other side is filled with interwoven threads of energy, reflecting movement and discord. The center shows a defined collision between calm and chaos, where the patterns overlap, creating a pulse of visual rhythm. Broken pixels add to the sense of imperfection and disruption, aligning with the themes of memory and motion.</desc>
  <rect width="256" height="256" fill="#FFFFFF" />
  <rect x="0" y="0" width="32" height="32" fill="#000000" />
  <rect x="32" y="0" width="32" height="32" fill="#1A1A1A" />
  <rect x="64" y="0" width="32" height="32" fill="#2B2B2B" />
  <rect x="96" y="0" width="32" height="32" fill="#4C4C4C" />
  <rect x="128" y="0" width="32" height="32" fill="#666666" />
  <rect x="160" y="0" width="32" height="32" fill="#00BFFF" />
  <rect x="192" y="0" width="32" height="32" fill="#FF00FF" />
  <rect x="224" y="0" width="32" height="32" fill="#FFCCCC" />
  <rect x="0" y="32" width="32" height="32" fill="#111111" />
  <rect x="32" y="32" width="32" height="32" fill="#282828" />
  <rect x="64" y="32" width="32" height="32" fill="#444444" />
  <rect x="96" y="32" width="32" height="32" fill="#888888" />
  <rect x="128" y="32" width="32" height="32" fill="#999999" />
  <rect x="160" y="32" width="32" height="32" fill="#33CCFF" />
  <rect x="192" y="32" width="32" height="32" fill="#FF66FF" />
  <rect x="224" y="32" width="32" height="32" fill="#FFB3B3" />
  <rect x="0" y="64" width="32" height="32" fill="#222222" />
  <rect x="32" y="64" width="32" height="32" fill="#373737" />
  <rect x="64" y="64" width="32" height="32" fill="#555555" />
  <rect x="96" y="64" width="32" height="32" fill="#AAAAAA" />
  <rect x="128" y="64" width="32" height="32" fill="#B8B8B8" />
  <rect x="160" y="64" width="32" height="32" fill="#66CCFF" />
  <rect x="192" y="64" width="32" height="32" fill="#FF99FF" />
  <rect x="224" y="64" width="32" height="32" fill="#FFCCCC" />
  <rect x="0" y="96" width="32" height="32" fill="#333333" />
  <rect x="32" y="96" width="32" height="32" fill="#404040" />
  <rect x="64" y="96" width="32" height="32" fill="#666666" />
  <rect x="96" y="96" width="32" height="32" fill="#CCCCCC" />
  <rect x="128" y="96" width="32" height="32" fill="#D3D3D3" />
  <rect x="160" y="96" width="32" height="32" fill="#00B3FF" />
  <rect x="192" y="96" width="32" height="32" fill="#FF55FF" />
  <rect x="224" y="96" width="32" height="32" fill="#FFCCCC" />
  <rect x="0" y="128" width="32" height="32" fill="#444444" />
  <rect x="32" y="128" width="32" height="32" fill="#555555" />
  <rect x="64" y="128" width="32" height="32" fill="#777777" />
  <rect x="96" y="128" width="32" height="32" fill="#DDDDDD" />
  <rect x="128" y="128" width="32" height="32" fill="#E6E6E6" />
  <rect x="160" y="128" width="32" height="32" fill="#0099CC" />
  <rect x="192" y="128" width="32" height="32" fill="#FF44FF" />
  <rect x="224" y="128" width="32" height="32" fill="#FFCCCC" />
  <rect x="0" y="160" width="32" height="32" fill="#555555" />
  <rect x="32" y="160" width="32" height="32" fill="#666666" />
  <rect x="64" y="160" width="32" height="32" fill="#888888" />
  <rect x="96" y="160" width="32" height="32" fill="#EEEEEE" />
  <rect x="128" y="160" width="32" height="32" fill="#F5F5F5" />
  <rect x="160" y="160" width="32" height="32" fill="#0077B3" />
  <rect x="192" y="160" width="32" height="32" fill="#FF33FF" />
  <rect x="224" y="160" width="32" height="32" fill="#FFCCCC" />
  <rect x="0" y="192" width="32" height="32" fill="#666666" />
  <rect x="32" y="192" width="32" height="32" fill="#777777" />
  <rect x="64" y="192" width="32" height="32" fill="#999999" />
  <rect x="96" y="192" width="32" height="32" fill="#F0F0F0" />
  <rect x="128" y="192" width="32" height="32" fill="#F7F7F7" />
  <rect x="160" y="192" width="32" height="32" fill="#005599" />
  <rect x="192" y="192" width="32" height="32" fill="#FF22FF" />
  <rect x="224" y="192" width="32" height="32" fill="#FFCCCC" />
  <rect x="0" y="224" width="32" height="32" fill="#777777" />
  <rect x="32" y="224" width="32" height="32" fill="#888888" />
  <rect x="64" y="224" width="32" height="32" fill="#AAAAAA" />
  <rect x="96" y="224" width="32" height="32" fill="#FFFFFF" />
  <rect x="128" y="224" width="32" height="32" fill="#FFFFFF" />
  <rect x="160" y="224" width="32" height="32" fill="#003366" />
  <rect x="192" y="224" width="32" height="32" fill="#FF11FF" />
  <rect x="224" y="224" width="32" height="32" fill="#FFCCCC" />
</svg>
