<svg xmlns="http://www.w3.org/2000/svg" width="256" height="256" viewBox="0 0 256 256" shape-rendering="crispEdges" role="img" aria-labelledby="title desc">
  <title id="title">Hopeful Rupture</title>
  <desc id="desc">This composition embodies the tension between longing and resolve through jagged lines and soft expanses. The color palette of warm coral and cold slate creates a dialogue between warmth and coolness, suggesting emotional depth. The main collision occurs on the diagonal, where the vibrant accents of signal cyan intersect with the muted tones of soft amber, representing the chaotic yet structured nature of the emotions. Broken pixels introduce intentional disruption, reflecting the unpredictability of human feelings, while the negative space invites growth and explores the unfulfilled connections between emotions.</desc>
  <rect width="256" height="256" fill="#FFFFFF" />
  <rect x="0" y="0" width="32" height="32" fill="#FF6F61" />
  <rect x="32" y="0" width="32" height="32" fill="#FFB68F" />
  <rect x="64" y="0" width="32" height="32" fill="#C0D6E4" />
  <rect x="96" y="0" width="32" height="32" fill="#4D4E52" />
  <rect x="128" y="0" width="32" height="32" fill="#2C3E50" />
  <rect x="160" y="0" width="32" height="32" fill="#5B7F9F" />
  <rect x="192" y="0" width="32" height="32" fill="#E8B89A" />
  <rect x="224" y="0" width="32" height="32" fill="#F7F7F7" />
  <rect x="0" y="32" width="32" height="32" fill="#2C3E50" />
  <rect x="32" y="32" width="32" height="32" fill="#E8B89A" />
  <rect x="64" y="32" width="32" height="32" fill="#4D4E52" />
  <rect x="96" y="32" width="32" height="32" fill="#FF6F61" />
  <rect x="128" y="32" width="32" height="32" fill="#FFB68F" />
  <rect x="160" y="32" width="32" height="32" fill="#5B7F9F" />
  <rect x="192" y="32" width="32" height="32" fill="#F7F7F7" />
  <rect x="224" y="32" width="32" height="32" fill="#C0D6E4" />
  <rect x="0" y="64" width="32" height="32" fill="#FFB68F" />
  <rect x="32" y="64" width="32" height="32" fill="#FF6F61" />
  <rect x="64" y="64" width="32" height="32" fill="#C0D6E4" />
  <rect x="96" y="64" width="32" height="32" fill="#E8B89A" />
  <rect x="128" y="64" width="32" height="32" fill="#2C3E50" />
  <rect x="160" y="64" width="32" height="32" fill="#4D4E52" />
  <rect x="192" y="64" width="32" height="32" fill="#5B7F9F" />
  <rect x="224" y="64" width="32" height="32" fill="#F7F7F7" />
  <rect x="0" y="96" width="32" height="32" fill="#5B7F9F" />
  <rect x="32" y="96" width="32" height="32" fill="#4D4E52" />
  <rect x="64" y="96" width="32" height="32" fill="#FFB68F" />
  <rect x="96" y="96" width="32" height="32" fill="#C0D6E4" />
  <rect x="128" y="96" width="32" height="32" fill="#FF6F61" />
  <rect x="160" y="96" width="32" height="32" fill="#E8B89A" />
  <rect x="192" y="96" width="32" height="32" fill="#2C3E50" />
  <rect x="224" y="96" width="32" height="32" fill="#F7F7F7" />
  <rect x="0" y="128" width="32" height="32" fill="#C0D6E4" />
  <rect x="32" y="128" width="32" height="32" fill="#4D4E52" />
  <rect x="64" y="128" width="32" height="32" fill="#FF6F61" />
  <rect x="96" y="128" width="32" height="32" fill="#5B7F9F" />
  <rect x="128" y="128" width="32" height="32" fill="#FFB68F" />
  <rect x="160" y="128" width="32" height="32" fill="#E8B89A" />
  <rect x="192" y="128" width="32" height="32" fill="#2C3E50" />
  <rect x="224" y="128" width="32" height="32" fill="#F7F7F7" />
  <rect x="0" y="160" width="32" height="32" fill="#E8B89A" />
  <rect x="32" y="160" width="32" height="32" fill="#5B7F9F" />
  <rect x="64" y="160" width="32" height="32" fill="#2C3E50" />
  <rect x="96" y="160" width="32" height="32" fill="#FFB68F" />
  <rect x="128" y="160" width="32" height="32" fill="#C0D6E4" />
  <rect x="160" y="160" width="32" height="32" fill="#FF6F61" />
  <rect x="192" y="160" width="32" height="32" fill="#4D4E52" />
  <rect x="224" y="160" width="32" height="32" fill="#F7F7F7" />
  <rect x="0" y="192" width="32" height="32" fill="#F7F7F7" />
  <rect x="32" y="192" width="32" height="32" fill="#C0D6E4" />
  <rect x="64" y="192" width="32" height="32" fill="#5B7F9F" />
  <rect x="96" y="192" width="32" height="32" fill="#FFB68F" />
  <rect x="128" y="192" width="32" height="32" fill="#5B7F9F" />
  <rect x="160" y="192" width="32" height="32" fill="#E8B89A" />
  <rect x="192" y="192" width="32" height="32" fill="#FF6F61" />
  <rect x="224" y="192" width="32" height="32" fill="#4D4E52" />
  <rect x="0" y="224" width="32" height="32" fill="#4D4E52" />
  <rect x="32" y="224" width="32" height="32" fill="#E8B89A" />
  <rect x="64" y="224" width="32" height="32" fill="#C0D6E4" />
  <rect x="96" y="224" width="32" height="32" fill="#FFB68F" />
  <rect x="128" y="224" width="32" height="32" fill="#FF6F61" />
  <rect x="160" y="224" width="32" height="32" fill="#5B7F9F" />
  <rect x="192" y="224" width="32" height="32" fill="#2C3E50" />
  <rect x="224" y="224" width="32" height="32" fill="#F7F7F7" />
</svg>
