<svg xmlns="http://www.w3.org/2000/svg" width="256" height="256" viewBox="0 0 256 256" shape-rendering="crispEdges" role="img" aria-labelledby="title desc">
  <title id="title">Emotional Architecture</title>
  <desc id="desc">The emotional tone captures a struggle between relief and dread; warm colors represent the weight of dread while cooler shades symbolize the potential for relief. The palette reflects an 'ancient fire' with burnt orange and dark red clashing against charcoal and gold. This interaction creates a balance of pressure and light, representing a fractured symmetry and echoing the idea of an empty room filled with unresolved tension. The broken pixel placements add an imperfect touch, enhancing the overall conflict and suggesting a deep emotional narrative without literal representation.</desc>
  <rect width="256" height="256" fill="#FFFFFF" />
  <rect x="0" y="0" width="32" height="32" fill="#7D4C3A" />
  <rect x="32" y="0" width="32" height="32" fill="#CF2C2E" />
  <rect x="64" y="0" width="32" height="32" fill="#3D3D3D" />
  <rect x="96" y="0" width="32" height="32" fill="#5B5B5B" />
  <rect x="128" y="0" width="32" height="32" fill="#C43B1D" />
  <rect x="160" y="0" width="32" height="32" fill="#E3A15B" />
  <rect x="192" y="0" width="32" height="32" fill="#B1AB8D" />
  <rect x="224" y="0" width="32" height="32" fill="#1C1C1C" />
  <rect x="0" y="32" width="32" height="32" fill="#A85815" />
  <rect x="32" y="32" width="32" height="32" fill="#E6B145" />
  <rect x="64" y="32" width="32" height="32" fill="#4B4B4B" />
  <rect x="96" y="32" width="32" height="32" fill="#8A8A8A" />
  <rect x="128" y="32" width="32" height="32" fill="#A74F24" />
  <rect x="160" y="32" width="32" height="32" fill="#1E1E1E" />
  <rect x="192" y="32" width="32" height="32" fill="#D6D0A4" />
  <rect x="224" y="32" width="32" height="32" fill="#2A2A2A" />
  <rect x="0" y="64" width="32" height="32" fill="#DC8B57" />
  <rect x="32" y="64" width="32" height="32" fill="#C4C4C4" />
  <rect x="64" y="64" width="32" height="32" fill="#9E9E9E" />
  <rect x="96" y="64" width="32" height="32" fill="#5C4B3A" />
  <rect x="128" y="64" width="32" height="32" fill="#BF756A" />
  <rect x="160" y="64" width="32" height="32" fill="#7F7F7F" />
  <rect x="192" y="64" width="32" height="32" fill="#C0B18D" />
  <rect x="224" y="64" width="32" height="32" fill="#0C0C0C" />
  <rect x="0" y="96" width="32" height="32" fill="#BF3F24" />
  <rect x="32" y="96" width="32" height="32" fill="#E8CBA3" />
  <rect x="64" y="96" width="32" height="32" fill="#2B2B2B" />
  <rect x="96" y="96" width="32" height="32" fill="#7A7A7A" />
  <rect x="128" y="96" width="32" height="32" fill="#C24A4F" />
  <rect x="160" y="96" width="32" height="32" fill="#303030" />
  <rect x="192" y="96" width="32" height="32" fill="#E3B37B" />
  <rect x="224" y="96" width="32" height="32" fill="#787878" />
  <rect x="0" y="128" width="32" height="32" fill="#BF6037" />
  <rect x="32" y="128" width="32" height="32" fill="#BDC0B3" />
  <rect x="64" y="128" width="32" height="32" fill="#4D4D4D" />
  <rect x="96" y="128" width="32" height="32" fill="#8C8C8C" />
  <rect x="128" y="128" width="32" height="32" fill="#A96E58" />
  <rect x="160" y="128" width="32" height="32" fill="#1F1F1F" />
  <rect x="192" y="128" width="32" height="32" fill="#D9C6AA" />
  <rect x="224" y="128" width="32" height="32" fill="#4E4E4E" />
  <rect x="0" y="160" width="32" height="32" fill="#C95B2D" />
  <rect x="32" y="160" width="32" height="32" fill="#E4D2A7" />
  <rect x="64" y="160" width="32" height="32" fill="#3F3F3F" />
  <rect x="96" y="160" width="32" height="32" fill="#8E4B3A" />
  <rect x="128" y="160" width="32" height="32" fill="#B65A3B" />
  <rect x="160" y="160" width="32" height="32" fill="#3A3A3A" />
  <rect x="192" y="160" width="32" height="32" fill="#C6A200" />
  <rect x="224" y="160" width="32" height="32" fill="#727272" />
  <rect x="0" y="192" width="32" height="32" fill="#A66024" />
  <rect x="32" y="192" width="32" height="32" fill="#E4A255" />
  <rect x="64" y="192" width="32" height="32" fill="#7E7E7E" />
  <rect x="96" y="192" width="32" height="32" fill="#9C9C9C" />
  <rect x="128" y="192" width="32" height="32" fill="#C6A05C" />
  <rect x="160" y="192" width="32" height="32" fill="#2E2E2E" />
  <rect x="192" y="192" width="32" height="32" fill="#D9B300" />
  <rect x="224" y="192" width="32" height="32" fill="#6B6B6B" />
  <rect x="0" y="224" width="32" height="32" fill="#773D2A" />
  <rect x="32" y="224" width="32" height="32" fill="#D7D5A4" />
  <rect x="64" y="224" width="32" height="32" fill="#8A8A8A" />
  <rect x="96" y="224" width="32" height="32" fill="#5E5E5E" />
  <rect x="128" y="224" width="32" height="32" fill="#DEBB2A" />
  <rect x="160" y="224" width="32" height="32" fill="#1D1D1D" />
  <rect x="192" y="224" width="32" height="32" fill="#F2E0A4" />
  <rect x="224" y="224" width="32" height="32" fill="#7B7B7B" />
</svg>
