<svg xmlns="http://www.w3.org/2000/svg" width="256" height="256" viewBox="0 0 256 256" shape-rendering="crispEdges" role="img" aria-labelledby="title desc">
  <title id="title">Echoes of Duality</title>
  <desc id="desc">The emotional tone revolves around the tension between awe and terror, reflected in the contrasting palette of deep blacks and soft golds. The left side conveys a sense of stability and protection with darker tones, evoking awe, while the right side introduces lighter colors and broken patterns to suggest chaos and instability—a visual mirror to the tension between organized and chaotic thoughts. The arrangement flows vertically, symbolizing how these emotions coexist, while maintaining negative space to suggest unresolved tension.</desc>
  <rect width="256" height="256" fill="#FFFFFF" />
  <rect x="0" y="0" width="32" height="32" fill="#000000" />
  <rect x="32" y="0" width="32" height="32" fill="#000000" />
  <rect x="64" y="0" width="32" height="32" fill="#000000" />
  <rect x="96" y="0" width="32" height="32" fill="#0F0F0F" />
  <rect x="128" y="0" width="32" height="32" fill="#1A1A1A" />
  <rect x="160" y="0" width="32" height="32" fill="#2B2B2B" />
  <rect x="192" y="0" width="32" height="32" fill="#3C3C3C" />
  <rect x="224" y="0" width="32" height="32" fill="#4D4D4D" />
  <rect x="0" y="32" width="32" height="32" fill="#000000" />
  <rect x="32" y="32" width="32" height="32" fill="#000000" />
  <rect x="64" y="32" width="32" height="32" fill="#000000" />
  <rect x="96" y="32" width="32" height="32" fill="#2F2F2F" />
  <rect x="128" y="32" width="32" height="32" fill="#3A3A3A" />
  <rect x="160" y="32" width="32" height="32" fill="#4B4B4D" />
  <rect x="192" y="32" width="32" height="32" fill="#5C5C5C" />
  <rect x="224" y="32" width="32" height="32" fill="#6D6D6D" />
  <rect x="0" y="64" width="32" height="32" fill="#0F0F0F" />
  <rect x="32" y="64" width="32" height="32" fill="#1A1A1A" />
  <rect x="64" y="64" width="32" height="32" fill="#2B2B2B" />
  <rect x="96" y="64" width="32" height="32" fill="#3C3C3C" />
  <rect x="128" y="64" width="32" height="32" fill="#4D4D4D" />
  <rect x="160" y="64" width="32" height="32" fill="#5E5E5E" />
  <rect x="192" y="64" width="32" height="32" fill="#6F6F6F" />
  <rect x="224" y="64" width="32" height="32" fill="#7F7F7F" />
  <rect x="0" y="96" width="32" height="32" fill="#3A3A3A" />
  <rect x="32" y="96" width="32" height="32" fill="#4B4B4D" />
  <rect x="64" y="96" width="32" height="32" fill="#5C5C5C" />
  <rect x="96" y="96" width="32" height="32" fill="#FFFAAA" />
  <rect x="128" y="96" width="32" height="32" fill="#FFEE33" />
  <rect x="160" y="96" width="32" height="32" fill="#FFCC22" />
  <rect x="192" y="96" width="32" height="32" fill="#FFAA11" />
  <rect x="224" y="96" width="32" height="32" fill="#FF8800" />
  <rect x="0" y="128" width="32" height="32" fill="#0F0F0F" />
  <rect x="32" y="128" width="32" height="32" fill="#1A1A1A" />
  <rect x="64" y="128" width="32" height="32" fill="#2B2B2B" />
  <rect x="96" y="128" width="32" height="32" fill="#FFAA11" />
  <rect x="128" y="128" width="32" height="32" fill="#FCCC33" />
  <rect x="160" y="128" width="32" height="32" fill="#EECC44" />
  <rect x="192" y="128" width="32" height="32" fill="#EEDD55" />
  <rect x="224" y="128" width="32" height="32" fill="#FFFF66" />
  <rect x="0" y="160" width="32" height="32" fill="#2C2C2C" />
  <rect x="32" y="160" width="32" height="32" fill="#3D3D3E" />
  <rect x="64" y="160" width="32" height="32" fill="#4E4E4E" />
  <rect x="96" y="160" width="32" height="32" fill="#FFEE33" />
  <rect x="128" y="160" width="32" height="32" fill="#FFDDAA" />
  <rect x="160" y="160" width="32" height="32" fill="#FFD000" />
  <rect x="192" y="160" width="32" height="32" fill="#FFC000" />
  <rect x="224" y="160" width="32" height="32" fill="#FFB300" />
  <rect x="0" y="192" width="32" height="32" fill="#1A1A1A" />
  <rect x="32" y="192" width="32" height="32" fill="#222222" />
  <rect x="64" y="192" width="32" height="32" fill="#333333" />
  <rect x="96" y="192" width="32" height="32" fill="#AAAAAA" />
  <rect x="128" y="192" width="32" height="32" fill="#BBBBBB" />
  <rect x="160" y="192" width="32" height="32" fill="#CCCCCC" />
  <rect x="192" y="192" width="32" height="32" fill="#DDDDDD" />
  <rect x="224" y="192" width="32" height="32" fill="#EEEEEE" />
  <rect x="0" y="224" width="32" height="32" fill="#000000" />
  <rect x="32" y="224" width="32" height="32" fill="#000000" />
  <rect x="64" y="224" width="32" height="32" fill="#000000" />
  <rect x="96" y="224" width="32" height="32" fill="#AAAAAA" />
  <rect x="128" y="224" width="32" height="32" fill="#BBAAA0" />
  <rect x="160" y="224" width="32" height="32" fill="#CCC999" />
  <rect x="192" y="224" width="32" height="32" fill="#DDBB88" />
  <rect x="224" y="224" width="32" height="32" fill="#EEEEEE" />
</svg>
