<svg xmlns="http://www.w3.org/2000/svg" width="256" height="256" viewBox="0 0 256 256" shape-rendering="crispEdges" role="img" aria-labelledby="title desc">
  <title id="title">Echoes of Contrast</title>
  <desc id="desc">The emotional tone is a struggle between the softness of fleeting moments and the severity of harsh realizations. The palette blends gentle hues with stark contrasts, featuring soft pinks and warm whites against deep blacks and sharp crimson. The upper half embodies softness, creating a flowing, tide-like pattern, while the lower half sharply interrupts this flow with a dense static of darker colors. This collision at the midpoint suggests the tension between 'signal' and 'noise', creating a visual narrative of emotional flux.</desc>
  <rect width="256" height="256" fill="#FFFFFF" />
  <rect x="0" y="0" width="32" height="32" fill="#F4C2C2" />
  <rect x="32" y="0" width="32" height="32" fill="#F8E2C2" />
  <rect x="64" y="0" width="32" height="32" fill="#FCE3D8" />
  <rect x="96" y="0" width="32" height="32" fill="#F8F8F8" />
  <rect x="128" y="0" width="32" height="32" fill="#D2B6D3" />
  <rect x="160" y="0" width="32" height="32" fill="#E6E7E9" />
  <rect x="192" y="0" width="32" height="32" fill="#FFB3B3" />
  <rect x="224" y="0" width="32" height="32" fill="#FFCAD4" />
  <rect x="0" y="32" width="32" height="32" fill="#575757" />
  <rect x="32" y="32" width="32" height="32" fill="#323232" />
  <rect x="64" y="32" width="32" height="32" fill="#1C1C1C" />
  <rect x="96" y="32" width="32" height="32" fill="#4B4B4B" />
  <rect x="128" y="32" width="32" height="32" fill="#000000" />
  <rect x="160" y="32" width="32" height="32" fill="#3C3C3C" />
  <rect x="192" y="32" width="32" height="32" fill="#5A5A5A" />
  <rect x="224" y="32" width="32" height="32" fill="#8C8C8C" />
  <rect x="0" y="64" width="32" height="32" fill="#F4C2C2" />
  <rect x="32" y="64" width="32" height="32" fill="#F8E2C2" />
  <rect x="64" y="64" width="32" height="32" fill="#FCE3D8" />
  <rect x="96" y="64" width="32" height="32" fill="#F8F8F8" />
  <rect x="128" y="64" width="32" height="32" fill="#D2B6D3" />
  <rect x="160" y="64" width="32" height="32" fill="#E6E7E9" />
  <rect x="192" y="64" width="32" height="32" fill="#FFB3B3" />
  <rect x="224" y="64" width="32" height="32" fill="#FFCAD4" />
  <rect x="0" y="96" width="32" height="32" fill="#575757" />
  <rect x="32" y="96" width="32" height="32" fill="#323232" />
  <rect x="64" y="96" width="32" height="32" fill="#1C1C1C" />
  <rect x="96" y="96" width="32" height="32" fill="#4B4B4B" />
  <rect x="128" y="96" width="32" height="32" fill="#000000" />
  <rect x="160" y="96" width="32" height="32" fill="#3C3C3C" />
  <rect x="192" y="96" width="32" height="32" fill="#5A5A5A" />
  <rect x="224" y="96" width="32" height="32" fill="#8C8C8C" />
  <rect x="0" y="128" width="32" height="32" fill="#F4C2C2" />
  <rect x="32" y="128" width="32" height="32" fill="#F8E2C2" />
  <rect x="64" y="128" width="32" height="32" fill="#FCE3D8" />
  <rect x="96" y="128" width="32" height="32" fill="#F8F8F8" />
  <rect x="128" y="128" width="32" height="32" fill="#D2B6D3" />
  <rect x="160" y="128" width="32" height="32" fill="#E6E7E9" />
  <rect x="192" y="128" width="32" height="32" fill="#FFB3B3" />
  <rect x="224" y="128" width="32" height="32" fill="#FFCAD4" />
  <rect x="0" y="160" width="32" height="32" fill="#575757" />
  <rect x="32" y="160" width="32" height="32" fill="#323232" />
  <rect x="64" y="160" width="32" height="32" fill="#1C1C1C" />
  <rect x="96" y="160" width="32" height="32" fill="#4B4B4B" />
  <rect x="128" y="160" width="32" height="32" fill="#000000" />
  <rect x="160" y="160" width="32" height="32" fill="#3C3C3C" />
  <rect x="192" y="160" width="32" height="32" fill="#5A5A5A" />
  <rect x="224" y="160" width="32" height="32" fill="#8C8C8C" />
  <rect x="0" y="192" width="32" height="32" fill="#F4C2C2" />
  <rect x="32" y="192" width="32" height="32" fill="#F8E2C2" />
  <rect x="64" y="192" width="32" height="32" fill="#FCE3D8" />
  <rect x="96" y="192" width="32" height="32" fill="#F8F8F8" />
  <rect x="128" y="192" width="32" height="32" fill="#D2B6D3" />
  <rect x="160" y="192" width="32" height="32" fill="#E6E7E9" />
  <rect x="192" y="192" width="32" height="32" fill="#FFB3B3" />
  <rect x="224" y="192" width="32" height="32" fill="#FFCAD4" />
  <rect x="0" y="224" width="32" height="32" fill="#575757" />
  <rect x="32" y="224" width="32" height="32" fill="#323232" />
  <rect x="64" y="224" width="32" height="32" fill="#1C1C1C" />
  <rect x="96" y="224" width="32" height="32" fill="#4B4B4B" />
  <rect x="128" y="224" width="32" height="32" fill="#000000" />
  <rect x="160" y="224" width="32" height="32" fill="#3C3C3C" />
  <rect x="192" y="224" width="32" height="32" fill="#5A5A5A" />
  <rect x="224" y="224" width="32" height="32" fill="#8C8C8C" />
</svg>
