<svg xmlns="http://www.w3.org/2000/svg" width="256" height="256" viewBox="0 0 256 256" shape-rendering="crispEdges" role="img" aria-labelledby="title desc">
  <title id="title">Tension and Release</title>
  <desc id="desc">This composition explores the emotional tension between loneliness and connection, encapsulated in a palette of deep, muted colors suggesting darkness and isolation with shimmering accents to evoke fleeting connections. The soft edges create a gentle flow outward from the center, where the main contrast lies between the dense navy and the light dim cyan, forming a visual ripple that echoes the theme of emotional collisions. The composition utilizes negative space strategically, allowing the viewer to reflect on feelings of emptiness and the desire for companionship, represented by the split between cool and warm tones.</desc>
  <rect width="256" height="256" fill="#FFFFFF" />
  <rect x="0" y="0" width="32" height="32" fill="#000000" />
  <rect x="32" y="0" width="32" height="32" fill="#001F3F" />
  <rect x="64" y="0" width="32" height="32" fill="#001F3F" />
  <rect x="96" y="0" width="32" height="32" fill="#001F3F" />
  <rect x="128" y="0" width="32" height="32" fill="#001F3F" />
  <rect x="160" y="0" width="32" height="32" fill="#001F3F" />
  <rect x="192" y="0" width="32" height="32" fill="#001F3F" />
  <rect x="224" y="0" width="32" height="32" fill="#001F3F" />
  <rect x="0" y="32" width="32" height="32" fill="#000000" />
  <rect x="32" y="32" width="32" height="32" fill="#001F3F" />
  <rect x="64" y="32" width="32" height="32" fill="#0074D9" />
  <rect x="96" y="32" width="32" height="32" fill="#0074D9" />
  <rect x="128" y="32" width="32" height="32" fill="#0074D9" />
  <rect x="160" y="32" width="32" height="32" fill="#0074D9" />
  <rect x="192" y="32" width="32" height="32" fill="#001F3F" />
  <rect x="224" y="32" width="32" height="32" fill="#000000" />
  <rect x="0" y="64" width="32" height="32" fill="#001F3F" />
  <rect x="32" y="64" width="32" height="32" fill="#0074D9" />
  <rect x="64" y="64" width="32" height="32" fill="#39CCCC" />
  <rect x="96" y="64" width="32" height="32" fill="#39CCCC" />
  <rect x="128" y="64" width="32" height="32" fill="#39CCCC" />
  <rect x="160" y="64" width="32" height="32" fill="#0074D9" />
  <rect x="192" y="64" width="32" height="32" fill="#001F3F" />
  <rect x="224" y="64" width="32" height="32" fill="#000000" />
  <rect x="0" y="96" width="32" height="32" fill="#0074D9" />
  <rect x="32" y="96" width="32" height="32" fill="#39CCCC" />
  <rect x="64" y="96" width="32" height="32" fill="#FFFFFF" />
  <rect x="96" y="96" width="32" height="32" fill="#FFFFFF" />
  <rect x="128" y="96" width="32" height="32" fill="#39CCCC" />
  <rect x="160" y="96" width="32" height="32" fill="#0074D9" />
  <rect x="192" y="96" width="32" height="32" fill="#001F3F" />
  <rect x="224" y="96" width="32" height="32" fill="#000000" />
  <rect x="0" y="128" width="32" height="32" fill="#0074D9" />
  <rect x="32" y="128" width="32" height="32" fill="#39CCCC" />
  <rect x="64" y="128" width="32" height="32" fill="#39CCCC" />
  <rect x="96" y="128" width="32" height="32" fill="#39CCCC" />
  <rect x="128" y="128" width="32" height="32" fill="#39CCCC" />
  <rect x="160" y="128" width="32" height="32" fill="#0074D9" />
  <rect x="192" y="128" width="32" height="32" fill="#001F3F" />
  <rect x="224" y="128" width="32" height="32" fill="#000000" />
  <rect x="0" y="160" width="32" height="32" fill="#001F3F" />
  <rect x="32" y="160" width="32" height="32" fill="#0074D9" />
  <rect x="64" y="160" width="32" height="32" fill="#39CCCC" />
  <rect x="96" y="160" width="32" height="32" fill="#39CCCC" />
  <rect x="128" y="160" width="32" height="32" fill="#39CCCC" />
  <rect x="160" y="160" width="32" height="32" fill="#0074D9" />
  <rect x="192" y="160" width="32" height="32" fill="#001F3F" />
  <rect x="224" y="160" width="32" height="32" fill="#000000" />
  <rect x="0" y="192" width="32" height="32" fill="#000000" />
  <rect x="32" y="192" width="32" height="32" fill="#001F3F" />
  <rect x="64" y="192" width="32" height="32" fill="#001F3F" />
  <rect x="96" y="192" width="32" height="32" fill="#001F3F" />
  <rect x="128" y="192" width="32" height="32" fill="#001F3F" />
  <rect x="160" y="192" width="32" height="32" fill="#001F3F" />
  <rect x="192" y="192" width="32" height="32" fill="#001F3F" />
  <rect x="224" y="192" width="32" height="32" fill="#001F3F" />
  <rect x="0" y="224" width="32" height="32" fill="#000000" />
  <rect x="32" y="224" width="32" height="32" fill="#000000" />
  <rect x="64" y="224" width="32" height="32" fill="#000000" />
  <rect x="96" y="224" width="32" height="32" fill="#000000" />
  <rect x="128" y="224" width="32" height="32" fill="#000000" />
  <rect x="160" y="224" width="32" height="32" fill="#000000" />
  <rect x="192" y="224" width="32" height="32" fill="#000000" />
  <rect x="224" y="224" width="32" height="32" fill="#000000" />
</svg>
