<svg xmlns="http://www.w3.org/2000/svg" width="256" height="256" viewBox="0 0 256 256" shape-rendering="crispEdges" role="img" aria-labelledby="title desc">
  <title id="title">Threads of Tension</title>
  <desc id="desc">The emotional tone reflects the push and pull between longing and resolve, created through a palette that contrasts warm coral and soft amber against deep slate and black. The main collision occurs in the center, where patchwork motifs of resolve collide with the stepwell patterns of longing, creating a visual narrative of tension. The use of broken pixels represents the imperfections within this emotional landscape, while the diagonal rise pattern evokes hope and elevation amidst struggle.</desc>
  <rect width="256" height="256" fill="#FFFFFF" />
  <rect x="0" y="0" width="32" height="32" fill="#FF6F61" />
  <rect x="32" y="0" width="32" height="32" fill="#FF9A68" />
  <rect x="64" y="0" width="32" height="32" fill="#FFA07A" />
  <rect x="96" y="0" width="32" height="32" fill="#FFD1C1" />
  <rect x="128" y="0" width="32" height="32" fill="#4B4B4B" />
  <rect x="160" y="0" width="32" height="32" fill="#5B5B5B" />
  <rect x="192" y="0" width="32" height="32" fill="#6B6B6B" />
  <rect x="224" y="0" width="32" height="32" fill="#7B7B7B" />
  <rect x="0" y="32" width="32" height="32" fill="#4B4B4B" />
  <rect x="32" y="32" width="32" height="32" fill="#6B6B6B" />
  <rect x="64" y="32" width="32" height="32" fill="#5B5B5B" />
  <rect x="96" y="32" width="32" height="32" fill="#3B3B3B" />
  <rect x="128" y="32" width="32" height="32" fill="#2B2B2B" />
  <rect x="160" y="32" width="32" height="32" fill="#1B1B1B" />
  <rect x="192" y="32" width="32" height="32" fill="#EEEEEE" />
  <rect x="224" y="32" width="32" height="32" fill="#FFFFFF" />
  <rect x="0" y="64" width="32" height="32" fill="#D1D1D1" />
  <rect x="32" y="64" width="32" height="32" fill="#C1C1C1" />
  <rect x="64" y="64" width="32" height="32" fill="#B1B1B1" />
  <rect x="96" y="64" width="32" height="32" fill="#A1A1A1" />
  <rect x="128" y="64" width="32" height="32" fill="#9B8B7B" />
  <rect x="160" y="64" width="32" height="32" fill="#888888" />
  <rect x="192" y="64" width="32" height="32" fill="#7593A8" />
  <rect x="224" y="64" width="32" height="32" fill="#9BB3C8" />
  <rect x="0" y="96" width="32" height="32" fill="#4B4B4B" />
  <rect x="32" y="96" width="32" height="32" fill="#3A3A3A" />
  <rect x="64" y="96" width="32" height="32" fill="#4A4A4A" />
  <rect x="96" y="96" width="32" height="32" fill="#5A5A5A" />
  <rect x="128" y="96" width="32" height="32" fill="#8F8F8F" />
  <rect x="160" y="96" width="32" height="32" fill="#009AC1" />
  <rect x="192" y="96" width="32" height="32" fill="#00A0D1" />
  <rect x="224" y="96" width="32" height="32" fill="#00B0E1" />
  <rect x="0" y="128" width="32" height="32" fill="#FF6F61" />
  <rect x="32" y="128" width="32" height="32" fill="#FF9A68" />
  <rect x="64" y="128" width="32" height="32" fill="#FF7F50" />
  <rect x="96" y="128" width="32" height="32" fill="#FFAAAA" />
  <rect x="128" y="128" width="32" height="32" fill="#FFD1C1" />
  <rect x="160" y="128" width="32" height="32" fill="#5B5B5B" />
  <rect x="192" y="128" width="32" height="32" fill="#1B1B1B" />
  <rect x="224" y="128" width="32" height="32" fill="#000000" />
  <rect x="0" y="160" width="32" height="32" fill="#FFD1C1" />
  <rect x="32" y="160" width="32" height="32" fill="#70B8D9" />
  <rect x="64" y="160" width="32" height="32" fill="#7DD0F2" />
  <rect x="96" y="160" width="32" height="32" fill="#007D8A" />
  <rect x="128" y="160" width="32" height="32" fill="#5B5B5B" />
  <rect x="160" y="160" width="32" height="32" fill="#7B7B7B" />
  <rect x="192" y="160" width="32" height="32" fill="#3B3B3B" />
  <rect x="224" y="160" width="32" height="32" fill="#222222" />
  <rect x="0" y="192" width="32" height="32" fill="#FF6F61" />
  <rect x="32" y="192" width="32" height="32" fill="#FF9A68" />
  <rect x="64" y="192" width="32" height="32" fill="#FFA07A" />
  <rect x="96" y="192" width="32" height="32" fill="#3E3E3E" />
  <rect x="128" y="192" width="32" height="32" fill="#5B5B5B" />
  <rect x="160" y="192" width="32" height="32" fill="#EAEAEA" />
  <rect x="192" y="192" width="32" height="32" fill="#C1C1C1" />
  <rect x="224" y="192" width="32" height="32" fill="#D1D1D1" />
  <rect x="0" y="224" width="32" height="32" fill="#FFFFFF" />
  <rect x="32" y="224" width="32" height="32" fill="#C1C1C1" />
  <rect x="64" y="224" width="32" height="32" fill="#EAEAEA" />
  <rect x="96" y="224" width="32" height="32" fill="#D1D1D1" />
  <rect x="128" y="224" width="32" height="32" fill="#B1B1B1" />
  <rect x="160" y="224" width="32" height="32" fill="#A1A1A1" />
  <rect x="192" y="224" width="32" height="32" fill="#4B4B4B" />
  <rect x="224" y="224" width="32" height="32" fill="#4B4B4B" />
</svg>
