<svg xmlns="http://www.w3.org/2000/svg" width="256" height="256" viewBox="0 0 256 256" shape-rendering="crispEdges" role="img" aria-labelledby="title desc">
  <title id="title">Echoes of Resistance</title>
  <desc id="desc">This composition expresses the struggle between clarity and distortion, embodying the emotional dichotomy of 'signal' against 'noise.' The palette juxtaposes deep blacks and grays with vibrant greens and electric blues, highlighting the fight for readability in a chaotic environment. The strong contrast occurs at the center, where bursts of signal colors collide with the dense patchwork of noise. The chosen layout suggests an invasion from the corner, creating an organic flow across the square, with broken pixels subtly introducing imperfections to represent memories and fractured paths.</desc>
  <rect width="256" height="256" fill="#FFFFFF" />
  <rect x="0" y="0" width="32" height="32" fill="#000000" />
  <rect x="32" y="0" width="32" height="32" fill="#000000" />
  <rect x="64" y="0" width="32" height="32" fill="#005B5E" />
  <rect x="96" y="0" width="32" height="32" fill="#005B5E" />
  <rect x="128" y="0" width="32" height="32" fill="#FFFFFF" />
  <rect x="160" y="0" width="32" height="32" fill="#FFFFFF" />
  <rect x="192" y="0" width="32" height="32" fill="#505A6B" />
  <rect x="224" y="0" width="32" height="32" fill="#505A6B" />
  <rect x="0" y="32" width="32" height="32" fill="#000000" />
  <rect x="32" y="32" width="32" height="32" fill="#005B5E" />
  <rect x="64" y="32" width="32" height="32" fill="#002B2D" />
  <rect x="96" y="32" width="32" height="32" fill="#005B5E" />
  <rect x="128" y="32" width="32" height="32" fill="#FFFFFF" />
  <rect x="160" y="32" width="32" height="32" fill="#F13084" />
  <rect x="192" y="32" width="32" height="32" fill="#505A6B" />
  <rect x="224" y="32" width="32" height="32" fill="#C7CED7" />
  <rect x="0" y="64" width="32" height="32" fill="#000000" />
  <rect x="32" y="64" width="32" height="32" fill="#005B5E" />
  <rect x="64" y="64" width="32" height="32" fill="#005B5E" />
  <rect x="96" y="64" width="32" height="32" fill="#FFFFFF" />
  <rect x="128" y="64" width="32" height="32" fill="#005B5E" />
  <rect x="160" y="64" width="32" height="32" fill="#C7CED7" />
  <rect x="192" y="64" width="32" height="32" fill="#C7CED7" />
  <rect x="224" y="64" width="32" height="32" fill="#C7CED7" />
  <rect x="0" y="96" width="32" height="32" fill="#000000" />
  <rect x="32" y="96" width="32" height="32" fill="#FFFFFF" />
  <rect x="64" y="96" width="32" height="32" fill="#005B5E" />
  <rect x="96" y="96" width="32" height="32" fill="#005B5E" />
  <rect x="128" y="96" width="32" height="32" fill="#F13084" />
  <rect x="160" y="96" width="32" height="32" fill="#F13084" />
  <rect x="192" y="96" width="32" height="32" fill="#C7CED7" />
  <rect x="224" y="96" width="32" height="32" fill="#C7CED7" />
  <rect x="0" y="128" width="32" height="32" fill="#000000" />
  <rect x="32" y="128" width="32" height="32" fill="#C7CED7" />
  <rect x="64" y="128" width="32" height="32" fill="#005B5E" />
  <rect x="96" y="128" width="32" height="32" fill="#FFFFFF" />
  <rect x="128" y="128" width="32" height="32" fill="#C7CED7" />
  <rect x="160" y="128" width="32" height="32" fill="#005B5E" />
  <rect x="192" y="128" width="32" height="32" fill="#005B5E" />
  <rect x="224" y="128" width="32" height="32" fill="#C7CED7" />
  <rect x="0" y="160" width="32" height="32" fill="#000000" />
  <rect x="32" y="160" width="32" height="32" fill="#C7CED7" />
  <rect x="64" y="160" width="32" height="32" fill="#005B5E" />
  <rect x="96" y="160" width="32" height="32" fill="#002B2D" />
  <rect x="128" y="160" width="32" height="32" fill="#C7CED7" />
  <rect x="160" y="160" width="32" height="32" fill="#005B5E" />
  <rect x="192" y="160" width="32" height="32" fill="#F13084" />
  <rect x="224" y="160" width="32" height="32" fill="#F13084" />
  <rect x="0" y="192" width="32" height="32" fill="#000000" />
  <rect x="32" y="192" width="32" height="32" fill="#505A6B" />
  <rect x="64" y="192" width="32" height="32" fill="#005B5E" />
  <rect x="96" y="192" width="32" height="32" fill="#F13084" />
  <rect x="128" y="192" width="32" height="32" fill="#000000" />
  <rect x="160" y="192" width="32" height="32" fill="#505A6B" />
  <rect x="192" y="192" width="32" height="32" fill="#C7CED7" />
  <rect x="224" y="192" width="32" height="32" fill="#C7CED7" />
  <rect x="0" y="224" width="32" height="32" fill="#000000" />
  <rect x="32" y="224" width="32" height="32" fill="#C7CED7" />
  <rect x="64" y="224" width="32" height="32" fill="#000000" />
  <rect x="96" y="224" width="32" height="32" fill="#005B5E" />
  <rect x="128" y="224" width="32" height="32" fill="#C7CED7" />
  <rect x="160" y="224" width="32" height="32" fill="#C7CED7" />
  <rect x="192" y="224" width="32" height="32" fill="#F13084" />
  <rect x="224" y="224" width="32" height="32" fill="#FFFFFF" />
</svg>
