<svg xmlns="http://www.w3.org/2000/svg" width="256" height="256" viewBox="0 0 256 256" shape-rendering="crispEdges" role="img" aria-labelledby="title desc">
  <title id="title">Tension in Balance</title>
  <desc id="desc">This composition embodies the emotional tension between panic and control through stark contrasts and jagged edges, highlighting the struggle within organized chaos. The color palette of deep navy and black represents the weight of panic, while the white spark signifies moments of clarity or control, allowing glimpses of optimism amidst turmoil. The inner 4x4 grid subtly contrasts with the chaotic outer pixels, creating an echo of structured disorder. Broken pixels remind us of imperfections and add depth to the visual narrative of this piece.</desc>
  <rect width="256" height="256" fill="#FFFFFF" />
  <rect x="0" y="0" width="32" height="32" fill="#000000" />
  <rect x="32" y="0" width="32" height="32" fill="#001F3F" />
  <rect x="64" y="0" width="32" height="32" fill="#003366" />
  <rect x="96" y="0" width="32" height="32" fill="#004080" />
  <rect x="128" y="0" width="32" height="32" fill="#002B5C" />
  <rect x="160" y="0" width="32" height="32" fill="#001F4D" />
  <rect x="192" y="0" width="32" height="32" fill="#00264D" />
  <rect x="224" y="0" width="32" height="32" fill="#002D32" />
  <rect x="0" y="32" width="32" height="32" fill="#001F5B" />
  <rect x="32" y="32" width="32" height="32" fill="#004B87" />
  <rect x="64" y="32" width="32" height="32" fill="#0065A4" />
  <rect x="96" y="32" width="32" height="32" fill="#0099CC" />
  <rect x="128" y="32" width="32" height="32" fill="#00B5E2" />
  <rect x="160" y="32" width="32" height="32" fill="#007A99" />
  <rect x="192" y="32" width="32" height="32" fill="#006272" />
  <rect x="224" y="32" width="32" height="32" fill="#004B3A" />
  <rect x="0" y="64" width="32" height="32" fill="#00224B" />
  <rect x="32" y="64" width="32" height="32" fill="#00334F" />
  <rect x="64" y="64" width="32" height="32" fill="#005B7F" />
  <rect x="96" y="64" width="32" height="32" fill="#006682" />
  <rect x="128" y="64" width="32" height="32" fill="#008BA3" />
  <rect x="160" y="64" width="32" height="32" fill="#00A8B4" />
  <rect x="192" y="64" width="32" height="32" fill="#A4D6E1" />
  <rect x="224" y="64" width="32" height="32" fill="#D1E7ED" />
  <rect x="0" y="96" width="32" height="32" fill="#A2B0B0" />
  <rect x="32" y="96" width="32" height="32" fill="#8DAAF2" />
  <rect x="64" y="96" width="32" height="32" fill="#ADDBE9" />
  <rect x="96" y="96" width="32" height="32" fill="#001E2F" />
  <rect x="128" y="96" width="32" height="32" fill="#006266" />
  <rect x="160" y="96" width="32" height="32" fill="#F5FCFC" />
  <rect x="192" y="96" width="32" height="32" fill="#D9E8E4" />
  <rect x="224" y="96" width="32" height="32" fill="#A3C7D6" />
  <rect x="0" y="128" width="32" height="32" fill="#4B926C" />
  <rect x="32" y="128" width="32" height="32" fill="#C2E1E3" />
  <rect x="64" y="128" width="32" height="32" fill="#F6F9F9" />
  <rect x="96" y="128" width="32" height="32" fill="#A8C8B4" />
  <rect x="128" y="128" width="32" height="32" fill="#009DA5" />
  <rect x="160" y="128" width="32" height="32" fill="#007B8A" />
  <rect x="192" y="128" width="32" height="32" fill="#006A6E" />
  <rect x="224" y="128" width="32" height="32" fill="#00383E" />
  <rect x="0" y="160" width="32" height="32" fill="#0E4D4B" />
  <rect x="32" y="160" width="32" height="32" fill="#1A6E6B" />
  <rect x="64" y="160" width="32" height="32" fill="#2DAA89" />
  <rect x="96" y="160" width="32" height="32" fill="#009488" />
  <rect x="128" y="160" width="32" height="32" fill="#008C7A" />
  <rect x="160" y="160" width="32" height="32" fill="#00664D" />
  <rect x="192" y="160" width="32" height="32" fill="#004B4A" />
  <rect x="224" y="160" width="32" height="32" fill="#004A3B" />
  <rect x="0" y="192" width="32" height="32" fill="#3A8A84" />
  <rect x="32" y="192" width="32" height="32" fill="#7DB3B6" />
  <rect x="64" y="192" width="32" height="32" fill="#85D9D5" />
  <rect x="96" y="192" width="32" height="32" fill="#7BDBDD" />
  <rect x="128" y="192" width="32" height="32" fill="#A1E7E1" />
  <rect x="160" y="192" width="32" height="32" fill="#C6FBFA" />
  <rect x="192" y="192" width="32" height="32" fill="#E2F7F4" />
  <rect x="224" y="192" width="32" height="32" fill="#D5EDE9" />
  <rect x="0" y="224" width="32" height="32" fill="#E1F9F8" />
  <rect x="32" y="224" width="32" height="32" fill="#15B3BC" />
  <rect x="64" y="224" width="32" height="32" fill="#009688" />
  <rect x="96" y="224" width="32" height="32" fill="#00857A" />
  <rect x="128" y="224" width="32" height="32" fill="#004D4F" />
  <rect x="160" y="224" width="32" height="32" fill="#00484D" />
  <rect x="192" y="224" width="32" height="32" fill="#00599B" />
  <rect x="224" y="224" width="32" height="32" fill="#006C82" />
</svg>
