<svg xmlns="http://www.w3.org/2000/svg" width="256" height="256" viewBox="0 0 256 256" shape-rendering="crispEdges" role="img" aria-labelledby="title desc">
  <title id="title">Collision of Softness and Severity</title>
  <desc id="desc">The emotional tone oscillates between calm softness and strict severity, using gentle pastel shades contrasted with deep, engaging blacks and grays. The palette of warm white and powder pink suggests a serene basis, while sharp crimson and carbon black break through, creating tension. The arrangement splits the square with a heavier bottom, reflecting bottom-weighted emotion as soft static patterns (light colors) on the top clash against severe crosshatch (dark colors), manifesting the ongoing negotiation of guilt and forgiveness. The main collision occurs centrally with sparks of color that echo and interrupt, bouncing against the soft static, reminiscent of pulse marks in a complex emotional landscape.</desc>
  <rect width="256" height="256" fill="#FFFFFF" />
  <rect x="0" y="0" width="32" height="32" fill="#F1A7B3" />
  <rect x="32" y="0" width="32" height="32" fill="#F8E1D9" />
  <rect x="64" y="0" width="32" height="32" fill="#EAE7E2" />
  <rect x="96" y="0" width="32" height="32" fill="#FFFFFF" />
  <rect x="128" y="0" width="32" height="32" fill="#D1C6D6" />
  <rect x="160" y="0" width="32" height="32" fill="#C9A7B8" />
  <rect x="192" y="0" width="32" height="32" fill="#B9BACB" />
  <rect x="224" y="0" width="32" height="32" fill="#A3B4C3" />
  <rect x="0" y="32" width="32" height="32" fill="#B2D3E0" />
  <rect x="32" y="32" width="32" height="32" fill="#A8B9C1" />
  <rect x="64" y="32" width="32" height="32" fill="#A4B0B4" />
  <rect x="96" y="32" width="32" height="32" fill="#5B8C99" />
  <rect x="128" y="32" width="32" height="32" fill="#7A9BAE" />
  <rect x="160" y="32" width="32" height="32" fill="#6A6688" />
  <rect x="192" y="32" width="32" height="32" fill="#5A5E68" />
  <rect x="224" y="32" width="32" height="32" fill="#999999" />
  <rect x="0" y="64" width="32" height="32" fill="#D4CFC0" />
  <rect x="32" y="64" width="32" height="32" fill="#B1A9A1" />
  <rect x="64" y="64" width="32" height="32" fill="#707C7D" />
  <rect x="96" y="64" width="32" height="32" fill="#43454B" />
  <rect x="128" y="64" width="32" height="32" fill="#C7ABBB" />
  <rect x="160" y="64" width="32" height="32" fill="#7A9BAE" />
  <rect x="192" y="64" width="32" height="32" fill="#222222" />
  <rect x="224" y="64" width="32" height="32" fill="#333333" />
  <rect x="0" y="96" width="32" height="32" fill="#8C737A" />
  <rect x="32" y="96" width="32" height="32" fill="#AA8493" />
  <rect x="64" y="96" width="32" height="32" fill="#C5B6C0" />
  <rect x="96" y="96" width="32" height="32" fill="#3F3F41" />
  <rect x="128" y="96" width="32" height="32" fill="#4E5457" />
  <rect x="160" y="96" width="32" height="32" fill="#2D2D2D" />
  <rect x="192" y="96" width="32" height="32" fill="#4A4F5D" />
  <rect x="224" y="96" width="32" height="32" fill="#000000" />
  <rect x="0" y="128" width="32" height="32" fill="#E3E3E7" />
  <rect x="32" y="128" width="32" height="32" fill="#D1D0D0" />
  <rect x="64" y="128" width="32" height="32" fill="#D9C2BE" />
  <rect x="96" y="128" width="32" height="32" fill="#C1B8B1" />
  <rect x="128" y="128" width="32" height="32" fill="#B5B6C3" />
  <rect x="160" y="128" width="32" height="32" fill="#A7B2B2" />
  <rect x="192" y="128" width="32" height="32" fill="#8A9BAF" />
  <rect x="224" y="128" width="32" height="32" fill="#707070" />
  <rect x="0" y="160" width="32" height="32" fill="#C9C9CB" />
  <rect x="32" y="160" width="32" height="32" fill="#A6C2D4" />
  <rect x="64" y="160" width="32" height="32" fill="#B5A5B5" />
  <rect x="96" y="160" width="32" height="32" fill="#4F5462" />
  <rect x="128" y="160" width="32" height="32" fill="#3F4050" />
  <rect x="160" y="160" width="32" height="32" fill="#1A1A1A" />
  <rect x="192" y="160" width="32" height="32" fill="#222222" />
  <rect x="224" y="160" width="32" height="32" fill="#999999" />
  <rect x="0" y="192" width="32" height="32" fill="#F4F5F6" />
  <rect x="32" y="192" width="32" height="32" fill="#E1E2E4" />
  <rect x="64" y="192" width="32" height="32" fill="#F2D1CD" />
  <rect x="96" y="192" width="32" height="32" fill="#C1B5BB" />
  <rect x="128" y="192" width="32" height="32" fill="#B6D3DF" />
  <rect x="160" y="192" width="32" height="32" fill="#AFA1A7" />
  <rect x="192" y="192" width="32" height="32" fill="#D1C1C7" />
  <rect x="224" y="192" width="32" height="32" fill="#8B8D8F" />
  <rect x="0" y="224" width="32" height="32" fill="#D6CECA" />
  <rect x="32" y="224" width="32" height="32" fill="#F0E3E5" />
  <rect x="64" y="224" width="32" height="32" fill="#A7A2A7" />
  <rect x="96" y="224" width="32" height="32" fill="#AFAFAF" />
  <rect x="128" y="224" width="32" height="32" fill="#B7BEC9" />
  <rect x="160" y="224" width="32" height="32" fill="#B5B7B9" />
  <rect x="192" y="224" width="32" height="32" fill="#919D9B" />
  <rect x="224" y="224" width="32" height="32" fill="#DDDDDD" />
</svg>
