<svg xmlns="http://www.w3.org/2000/svg" width="256" height="256" viewBox="0 0 256 256" shape-rendering="crispEdges" role="img" aria-labelledby="title desc">
  <title id="title">Exposed Strength</title>
  <desc id="desc">This artwork captures the juxtaposition of vulnerability and strength through a pale central field that represents exposure, surrounded by layers of deeper colors, suggesting protection and shelter. The palette consists of muted gray tones and bold reds, emphasizing both vulnerability (light pink) and strength (dark maroon) in a contrasting manner. The main collision occurs off-center, where bold colors intersect with softer shades, creating tension and a visual dialogue between conflicting emotions.</desc>
  <rect width="256" height="256" fill="#FFFFFF" />
  <rect x="0" y="0" width="32" height="32" fill="#EBD5D5" />
  <rect x="32" y="0" width="32" height="32" fill="#C7151C" />
  <rect x="64" y="0" width="32" height="32" fill="#9C4A4A" />
  <rect x="96" y="0" width="32" height="32" fill="#D9D9D9" />
  <rect x="128" y="0" width="32" height="32" fill="#C1C1C1" />
  <rect x="160" y="0" width="32" height="32" fill="#A39DA2" />
  <rect x="192" y="0" width="32" height="32" fill="#6C2A30" />
  <rect x="224" y="0" width="32" height="32" fill="#A64B63" />
  <rect x="0" y="32" width="32" height="32" fill="#C72D3C" />
  <rect x="32" y="32" width="32" height="32" fill="#3A3A3A" />
  <rect x="64" y="32" width="32" height="32" fill="#A6C1C1" />
  <rect x="96" y="32" width="32" height="32" fill="#E8B3B3" />
  <rect x="128" y="32" width="32" height="32" fill="#3E3E3E" />
  <rect x="160" y="32" width="32" height="32" fill="#7B5B63" />
  <rect x="192" y="32" width="32" height="32" fill="#D0A09D" />
  <rect x="224" y="32" width="32" height="32" fill="#F2F0F0" />
  <rect x="0" y="64" width="32" height="32" fill="#E0B3B3" />
  <rect x="32" y="64" width="32" height="32" fill="#A04553" />
  <rect x="64" y="64" width="32" height="32" fill="#844C50" />
  <rect x="96" y="64" width="32" height="32" fill="#C4A0A0" />
  <rect x="128" y="64" width="32" height="32" fill="#D4B3BB" />
  <rect x="160" y="64" width="32" height="32" fill="#DF8C8C" />
  <rect x="192" y="64" width="32" height="32" fill="#4A2525" />
  <rect x="224" y="64" width="32" height="32" fill="#B7A2F5" />
  <rect x="0" y="96" width="32" height="32" fill="#C4A4A4" />
  <rect x="32" y="96" width="32" height="32" fill="#D2554B" />
  <rect x="64" y="96" width="32" height="32" fill="#5A4F4F" />
  <rect x="96" y="96" width="32" height="32" fill="#0C0C0C" />
  <rect x="128" y="96" width="32" height="32" fill="#F4A3A3" />
  <rect x="160" y="96" width="32" height="32" fill="#623E45" />
  <rect x="192" y="96" width="32" height="32" fill="#C6C2C2" />
  <rect x="224" y="96" width="32" height="32" fill="#EAE6E6" />
  <rect x="0" y="128" width="32" height="32" fill="#BCC0C0" />
  <rect x="32" y="128" width="32" height="32" fill="#A46363" />
  <rect x="64" y="128" width="32" height="32" fill="#D4BEC0" />
  <rect x="96" y="128" width="32" height="32" fill="#A3A3A3" />
  <rect x="128" y="128" width="32" height="32" fill="#8E5C5C" />
  <rect x="160" y="128" width="32" height="32" fill="#C47680" />
  <rect x="192" y="128" width="32" height="32" fill="#A02020" />
  <rect x="224" y="128" width="32" height="32" fill="#D5C3C6" />
  <rect x="0" y="160" width="32" height="32" fill="#C65140" />
  <rect x="32" y="160" width="32" height="32" fill="#FFCDCB" />
  <rect x="64" y="160" width="32" height="32" fill="#B7B1B1" />
  <rect x="96" y="160" width="32" height="32" fill="#804A4A" />
  <rect x="128" y="160" width="32" height="32" fill="#F0C3CE" />
  <rect x="160" y="160" width="32" height="32" fill="#FCE8E8" />
  <rect x="192" y="160" width="32" height="32" fill="#4B3A3A" />
  <rect x="224" y="160" width="32" height="32" fill="#A09C9C" />
  <rect x="0" y="192" width="32" height="32" fill="#DAD6D6" />
  <rect x="32" y="192" width="32" height="32" fill="#905050" />
  <rect x="64" y="192" width="32" height="32" fill="#D17277" />
  <rect x="96" y="192" width="32" height="32" fill="#BBDBDB" />
  <rect x="128" y="192" width="32" height="32" fill="#6F4B4B" />
  <rect x="160" y="192" width="32" height="32" fill="#800101" />
  <rect x="192" y="192" width="32" height="32" fill="#C45A68" />
  <rect x="224" y="192" width="32" height="32" fill="#E4B0B0" />
  <rect x="0" y="224" width="32" height="32" fill="#D6D3D3" />
  <rect x="32" y="224" width="32" height="32" fill="#732F31" />
  <rect x="64" y="224" width="32" height="32" fill="#D2B9B9" />
  <rect x="96" y="224" width="32" height="32" fill="#DADADA" />
  <rect x="128" y="224" width="32" height="32" fill="#855B5B" />
  <rect x="160" y="224" width="32" height="32" fill="#4D3D3D" />
  <rect x="192" y="224" width="32" height="32" fill="#DFB6B7" />
  <rect x="224" y="224" width="32" height="32" fill="#A32F35" />
</svg>
