<svg xmlns="http://www.w3.org/2000/svg" width="256" height="256" viewBox="0 0 256 256" shape-rendering="crispEdges" role="img" aria-labelledby="title desc">
  <title id="title">Echoing Connections</title>
  <desc id="desc">This artwork captures the emotional tension between loneliness and connection. The palette of muted reds and grays reflects a complex relationship, using dark maroon to suggest depth and sorrow while pink accents represent fleeting connections. The main contrast occurs in the top-heavy design, where the warmth of the pink is suddenly interrupted by the coldness of darker shades, evoking the feeling of hidden emotions crashing against exposed surfaces. The radial and split-screen patterns embody the push and pull of connection and isolation, transforming the seed's narrative into an abstract visual experience.</desc>
  <rect width="256" height="256" fill="#FFFFFF" />
  <rect x="0" y="0" width="32" height="32" fill="#6A1B9A" />
  <rect x="32" y="0" width="32" height="32" fill="#E91E63" />
  <rect x="64" y="0" width="32" height="32" fill="#757575" />
  <rect x="96" y="0" width="32" height="32" fill="#C2185B" />
  <rect x="128" y="0" width="32" height="32" fill="#876E7A" />
  <rect x="160" y="0" width="32" height="32" fill="#9C4DCC" />
  <rect x="192" y="0" width="32" height="32" fill="#BC5175" />
  <rect x="224" y="0" width="32" height="32" fill="#111111" />
  <rect x="0" y="32" width="32" height="32" fill="#EA80FC" />
  <rect x="32" y="32" width="32" height="32" fill="#D5006D" />
  <rect x="64" y="32" width="32" height="32" fill="#F06292" />
  <rect x="96" y="32" width="32" height="32" fill="#616161" />
  <rect x="128" y="32" width="32" height="32" fill="#D50000" />
  <rect x="160" y="32" width="32" height="32" fill="#FF4081" />
  <rect x="192" y="32" width="32" height="32" fill="#B2EBF2" />
  <rect x="224" y="32" width="32" height="32" fill="#000000" />
  <rect x="0" y="64" width="32" height="32" fill="#FFAB91" />
  <rect x="32" y="64" width="32" height="32" fill="#424242" />
  <rect x="64" y="64" width="32" height="32" fill="#90CAF9" />
  <rect x="96" y="64" width="32" height="32" fill="#C3E5E5" />
  <rect x="128" y="64" width="32" height="32" fill="#9E9E9E" />
  <rect x="160" y="64" width="32" height="32" fill="#D7CCC8" />
  <rect x="192" y="64" width="32" height="32" fill="#FFCDD2" />
  <rect x="224" y="64" width="32" height="32" fill="#B0BEC5" />
  <rect x="0" y="96" width="32" height="32" fill="#AB47BC" />
  <rect x="32" y="96" width="32" height="32" fill="#FFEB3B" />
  <rect x="64" y="96" width="32" height="32" fill="#FF80AB" />
  <rect x="96" y="96" width="32" height="32" fill="#000000" />
  <rect x="128" y="96" width="32" height="32" fill="#E1BEE7" />
  <rect x="160" y="96" width="32" height="32" fill="#F48FB1" />
  <rect x="192" y="96" width="32" height="32" fill="#9FA8DA" />
  <rect x="224" y="96" width="32" height="32" fill="#546E7A" />
  <rect x="0" y="128" width="32" height="32" fill="#FF6659" />
  <rect x="32" y="128" width="32" height="32" fill="#616161" />
  <rect x="64" y="128" width="32" height="32" fill="#FF4081" />
  <rect x="96" y="128" width="32" height="32" fill="#F5F5F5" />
  <rect x="128" y="128" width="32" height="32" fill="#BDBDBD" />
  <rect x="160" y="128" width="32" height="32" fill="#263238" />
  <rect x="192" y="128" width="32" height="32" fill="#CFD8DC" />
  <rect x="224" y="128" width="32" height="32" fill="#546E7A" />
  <rect x="0" y="160" width="32" height="32" fill="#F8BBD0" />
  <rect x="32" y="160" width="32" height="32" fill="#78909C" />
  <rect x="64" y="160" width="32" height="32" fill="#E56E61" />
  <rect x="96" y="160" width="32" height="32" fill="#FF726D" />
  <rect x="128" y="160" width="32" height="32" fill="#CCCFE2" />
  <rect x="160" y="160" width="32" height="32" fill="#78909C" />
  <rect x="192" y="160" width="32" height="32" fill="#424242" />
  <rect x="224" y="160" width="32" height="32" fill="#D6D6D6" />
  <rect x="0" y="192" width="32" height="32" fill="#C2185B" />
  <rect x="32" y="192" width="32" height="32" fill="#99E4F8" />
  <rect x="64" y="192" width="32" height="32" fill="#FFB300" />
  <rect x="96" y="192" width="32" height="32" fill="#FAFAFA" />
  <rect x="128" y="192" width="32" height="32" fill="#607D8B" />
  <rect x="160" y="192" width="32" height="32" fill="#90A4AE" />
  <rect x="192" y="192" width="32" height="32" fill="#EEEEEE" />
  <rect x="224" y="192" width="32" height="32" fill="#000000" />
  <rect x="0" y="224" width="32" height="32" fill="#000000" />
  <rect x="32" y="224" width="32" height="32" fill="#7F8C8D" />
  <rect x="64" y="224" width="32" height="32" fill="#FFCC80" />
  <rect x="96" y="224" width="32" height="32" fill="#455A64" />
  <rect x="128" y="224" width="32" height="32" fill="#607D8B" />
  <rect x="160" y="224" width="32" height="32" fill="#FFFFFF" />
  <rect x="192" y="224" width="32" height="32" fill="#D32F2F" />
  <rect x="224" y="224" width="32" height="32" fill="#8E24AA" />
</svg>
