<svg xmlns="http://www.w3.org/2000/svg" width="256" height="256" viewBox="0 0 256 256" shape-rendering="crispEdges" role="img" aria-labelledby="title desc">
  <title id="title">Fragmented Resilience</title>
  <desc id="desc">The emotional tone reflects the tension between sparks of energy and the softness of ashes, with a palette evoking a lonely signal: deep navy, quiet black, along with an accenting dim cyan, creating a space filled with both warmth and coolness. The primary collision occurs in the center, where bright colors disrupt softer backgrounds, illustrating the imbalance between resilience and fragility. This arrangement mirrors the push and pull of struggle and stability, emphasizing broken edges and memory, with a distinctly patterned layout of static versus grid-like organization creating depth and texture across the square.</desc>
  <rect width="256" height="256" fill="#FFFFFF" />
  <rect x="0" y="0" width="32" height="32" fill="#000000" />
  <rect x="32" y="0" width="32" height="32" fill="#0B0C1D" />
  <rect x="64" y="0" width="32" height="32" fill="#1D1F2B" />
  <rect x="96" y="0" width="32" height="32" fill="#2E3254" />
  <rect x="128" y="0" width="32" height="32" fill="#3F3867" />
  <rect x="160" y="0" width="32" height="32" fill="#470D5D" />
  <rect x="192" y="0" width="32" height="32" fill="#5D0786" />
  <rect x="224" y="0" width="32" height="32" fill="#830A9B" />
  <rect x="0" y="32" width="32" height="32" fill="#5A5A5E" />
  <rect x="32" y="32" width="32" height="32" fill="#A4A2AD" />
  <rect x="64" y="32" width="32" height="32" fill="#C3C4D1" />
  <rect x="96" y="32" width="32" height="32" fill="#E1D9EF" />
  <rect x="128" y="32" width="32" height="32" fill="#F6ECFF" />
  <rect x="160" y="32" width="32" height="32" fill="#B5B9C4" />
  <rect x="192" y="32" width="32" height="32" fill="#6D9B9B" />
  <rect x="224" y="32" width="32" height="32" fill="#2D646D" />
  <rect x="0" y="64" width="32" height="32" fill="#061921" />
  <rect x="32" y="64" width="32" height="32" fill="#0D2A2C" />
  <rect x="64" y="64" width="32" height="32" fill="#1D4E52" />
  <rect x="96" y="64" width="32" height="32" fill="#A2D8D2" />
  <rect x="128" y="64" width="32" height="32" fill="#A5E1E1" />
  <rect x="160" y="64" width="32" height="32" fill="#B9EBE7" />
  <rect x="192" y="64" width="32" height="32" fill="#D9F2E3" />
  <rect x="224" y="64" width="32" height="32" fill="#FAFFFD" />
  <rect x="0" y="96" width="32" height="32" fill="#1C2A4A" />
  <rect x="32" y="96" width="32" height="32" fill="#4A4688" />
  <rect x="64" y="96" width="32" height="32" fill="#A98CCB" />
  <rect x="96" y="96" width="32" height="32" fill="#F6B7DC" />
  <rect x="128" y="96" width="32" height="32" fill="#F5A657" />
  <rect x="160" y="96" width="32" height="32" fill="#E85D2B" />
  <rect x="192" y="96" width="32" height="32" fill="#D60A0B" />
  <rect x="224" y="96" width="32" height="32" fill="#B45640" />
  <rect x="0" y="128" width="32" height="32" fill="#B7A99D" />
  <rect x="32" y="128" width="32" height="32" fill="#D5C7B1" />
  <rect x="64" y="128" width="32" height="32" fill="#E2D5C2" />
  <rect x="96" y="128" width="32" height="32" fill="#E5E5E5" />
  <rect x="128" y="128" width="32" height="32" fill="#C7B8A3" />
  <rect x="160" y="128" width="32" height="32" fill="#9F9B70" />
  <rect x="192" y="128" width="32" height="32" fill="#818A5B" />
  <rect x="224" y="128" width="32" height="32" fill="#65735B" />
  <rect x="0" y="160" width="32" height="32" fill="#B2BEC8" />
  <rect x="32" y="160" width="32" height="32" fill="#8FAF90" />
  <rect x="64" y="160" width="32" height="32" fill="#5B9949" />
  <rect x="96" y="160" width="32" height="32" fill="#34987B" />
  <rect x="128" y="160" width="32" height="32" fill="#2B7D7E" />
  <rect x="160" y="160" width="32" height="32" fill="#177D84" />
  <rect x="192" y="160" width="32" height="32" fill="#1D9D8E" />
  <rect x="224" y="160" width="32" height="32" fill="#44B9B0" />
  <rect x="0" y="192" width="32" height="32" fill="#515181" />
  <rect x="32" y="192" width="32" height="32" fill="#AA98CC" />
  <rect x="64" y="192" width="32" height="32" fill="#E1D6EC" />
  <rect x="96" y="192" width="32" height="32" fill="#F9F5FF" />
  <rect x="128" y="192" width="32" height="32" fill="#A4C1E1" />
  <rect x="160" y="192" width="32" height="32" fill="#4E6E87" />
  <rect x="192" y="192" width="32" height="32" fill="#3D4C5A" />
  <rect x="224" y="192" width="32" height="32" fill="#2B283A" />
  <rect x="0" y="224" width="32" height="32" fill="#E6E0DF" />
  <rect x="32" y="224" width="32" height="32" fill="#C7B5B1" />
  <rect x="64" y="224" width="32" height="32" fill="#BAA6A3" />
  <rect x="96" y="224" width="32" height="32" fill="#A39C92" />
  <rect x="128" y="224" width="32" height="32" fill="#BFA49D" />
  <rect x="160" y="224" width="32" height="32" fill="#E5BCC0" />
  <rect x="192" y="224" width="32" height="32" fill="#B3A09D" />
  <rect x="224" y="224" width="32" height="32" fill="#4D2E2E" />
</svg>
