<svg xmlns="http://www.w3.org/2000/svg" width="256" height="256" viewBox="0 0 256 256" shape-rendering="crispEdges" role="img" aria-labelledby="title desc">
  <title id="title">Conflict of Frequencies</title>
  <desc id="desc">The emotional tone of this piece is a representation of tension between clarity and chaos, embodied by the pulse of signal fighting through layers of noise. The color palette features deep navy as a dominant field, suggesting depth and complexity, contrasted by bright accents of cyan that symbolize clarity and intensity.

The arrangement is structured in an argument grid, where the luminescent pulses interrupt the static noise represented by darker shades. Key contrasts collide at the center of the frame, allowing the eye to move around the composition while maintaining focus on the vibrant, coherent center. Broken pixels create intentional imperfections, echoing the theme of conflict and evolution within this abstract dialogue.</desc>
  <rect width="256" height="256" fill="#FFFFFF" />
  <rect x="0" y="0" width="32" height="32" fill="#000000" />
  <rect x="32" y="0" width="32" height="32" fill="#1A1A2E" />
  <rect x="64" y="0" width="32" height="32" fill="#162447" />
  <rect x="96" y="0" width="32" height="32" fill="#0F3460" />
  <rect x="128" y="0" width="32" height="32" fill="#00A8E1" />
  <rect x="160" y="0" width="32" height="32" fill="#00A8E1" />
  <rect x="192" y="0" width="32" height="32" fill="#0F3460" />
  <rect x="224" y="0" width="32" height="32" fill="#1A1A2E" />
  <rect x="0" y="32" width="32" height="32" fill="#000000" />
  <rect x="32" y="32" width="32" height="32" fill="#1A1A2E" />
  <rect x="64" y="32" width="32" height="32" fill="#162447" />
  <rect x="96" y="32" width="32" height="32" fill="#0F3460" />
  <rect x="128" y="32" width="32" height="32" fill="#00A8E1" />
  <rect x="160" y="32" width="32" height="32" fill="#00A8E1" />
  <rect x="192" y="32" width="32" height="32" fill="#0F3460" />
  <rect x="224" y="32" width="32" height="32" fill="#1A1A2E" />
  <rect x="0" y="64" width="32" height="32" fill="#162447" />
  <rect x="32" y="64" width="32" height="32" fill="#1A1A2E" />
  <rect x="64" y="64" width="32" height="32" fill="#000000" />
  <rect x="96" y="64" width="32" height="32" fill="#1A1A2E" />
  <rect x="128" y="64" width="32" height="32" fill="#162447" />
  <rect x="160" y="64" width="32" height="32" fill="#000000" />
  <rect x="192" y="64" width="32" height="32" fill="#00A8E1" />
  <rect x="224" y="64" width="32" height="32" fill="#1A1A2E" />
  <rect x="0" y="96" width="32" height="32" fill="#0F3460" />
  <rect x="32" y="96" width="32" height="32" fill="#162447" />
  <rect x="64" y="96" width="32" height="32" fill="#1A1A2E" />
  <rect x="96" y="96" width="32" height="32" fill="#1A1A2E" />
  <rect x="128" y="96" width="32" height="32" fill="#162447" />
  <rect x="160" y="96" width="32" height="32" fill="#0F3460" />
  <rect x="192" y="96" width="32" height="32" fill="#0F3460" />
  <rect x="224" y="96" width="32" height="32" fill="#162447" />
  <rect x="0" y="128" width="32" height="32" fill="#00A8E1" />
  <rect x="32" y="128" width="32" height="32" fill="#162447" />
  <rect x="64" y="128" width="32" height="32" fill="#1A1A2E" />
  <rect x="96" y="128" width="32" height="32" fill="#000000" />
  <rect x="128" y="128" width="32" height="32" fill="#162447" />
  <rect x="160" y="128" width="32" height="32" fill="#00A8E1" />
  <rect x="192" y="128" width="32" height="32" fill="#1A1A2E" />
  <rect x="224" y="128" width="32" height="32" fill="#1A1A2E" />
  <rect x="0" y="160" width="32" height="32" fill="#162447" />
  <rect x="32" y="160" width="32" height="32" fill="#00A8E1" />
  <rect x="64" y="160" width="32" height="32" fill="#162447" />
  <rect x="96" y="160" width="32" height="32" fill="#1A1A2E" />
  <rect x="128" y="160" width="32" height="32" fill="#1A1A2E" />
  <rect x="160" y="160" width="32" height="32" fill="#162447" />
  <rect x="192" y="160" width="32" height="32" fill="#0F3460" />
  <rect x="224" y="160" width="32" height="32" fill="#000000" />
  <rect x="0" y="192" width="32" height="32" fill="#1A1A2E" />
  <rect x="32" y="192" width="32" height="32" fill="#0F3460" />
  <rect x="64" y="192" width="32" height="32" fill="#162447" />
  <rect x="96" y="192" width="32" height="32" fill="#1A1A2E" />
  <rect x="128" y="192" width="32" height="32" fill="#00A8E1" />
  <rect x="160" y="192" width="32" height="32" fill="#1A1A2E" />
  <rect x="192" y="192" width="32" height="32" fill="#162447" />
  <rect x="224" y="192" width="32" height="32" fill="#0F3460" />
  <rect x="0" y="224" width="32" height="32" fill="#1A1A2E" />
  <rect x="32" y="224" width="32" height="32" fill="#00A8E1" />
  <rect x="64" y="224" width="32" height="32" fill="#1A1A2E" />
  <rect x="96" y="224" width="32" height="32" fill="#0F3460" />
  <rect x="128" y="224" width="32" height="32" fill="#162447" />
  <rect x="160" y="224" width="32" height="32" fill="#0F3460" />
  <rect x="192" y="224" width="32" height="32" fill="#1A1A2E" />
  <rect x="224" y="224" width="32" height="32" fill="#162447" />
</svg>
