<svg xmlns="http://www.w3.org/2000/svg" width="256" height="256" viewBox="0 0 256 256" shape-rendering="crispEdges" role="img" aria-labelledby="title desc">
  <title id="title">Tension Between Order and Chaos</title>
  <desc id="desc">This artwork captures the emotional duel between panic and control, using a palette that reflects depth and tension. The dark colors symbolize the controlled chaos, while the soft gold hints at hope and joy amidst grief. The grid layout conveys the structure seeking to contain chaos, while zigzag patterns introduce disruption and unpredictability, reflecting the inner conflict. Broken pixels represent imperfection and vulnerability, making viewers conscious of the tension between aspirations of order and moments of upheaval. This piece embodies the push and pull between feeling overwhelmed and grasping for composure.</desc>
  <rect width="256" height="256" fill="#FFFFFF" />
  <rect x="0" y="0" width="32" height="32" fill="#000000" />
  <rect x="32" y="0" width="32" height="32" fill="#2D0C4E" />
  <rect x="64" y="0" width="32" height="32" fill="#341A73" />
  <rect x="96" y="0" width="32" height="32" fill="#C8B926" />
  <rect x="128" y="0" width="32" height="32" fill="#B2A025" />
  <rect x="160" y="0" width="32" height="32" fill="#332850" />
  <rect x="192" y="0" width="32" height="32" fill="#5E2362" />
  <rect x="224" y="0" width="32" height="32" fill="#6A2C60" />
  <rect x="0" y="32" width="32" height="32" fill="#2C2E40" />
  <rect x="32" y="32" width="32" height="32" fill="#534C74" />
  <rect x="64" y="32" width="32" height="32" fill="#8D4A2A" />
  <rect x="96" y="32" width="32" height="32" fill="#D1C295" />
  <rect x="128" y="32" width="32" height="32" fill="#A98250" />
  <rect x="160" y="32" width="32" height="32" fill="#E5A603" />
  <rect x="192" y="32" width="32" height="32" fill="#744422" />
  <rect x="224" y="32" width="32" height="32" fill="#2C3A40" />
  <rect x="0" y="64" width="32" height="32" fill="#0A0A0F" />
  <rect x="32" y="64" width="32" height="32" fill="#292A2D" />
  <rect x="64" y="64" width="32" height="32" fill="#3A3E5A" />
  <rect x="96" y="64" width="32" height="32" fill="#A64B01" />
  <rect x="128" y="64" width="32" height="32" fill="#E0B03D" />
  <rect x="160" y="64" width="32" height="32" fill="#7F7C61" />
  <rect x="192" y="64" width="32" height="32" fill="#3B2922" />
  <rect x="224" y="64" width="32" height="32" fill="#27292E" />
  <rect x="0" y="96" width="32" height="32" fill="#1E1F26" />
  <rect x="32" y="96" width="32" height="32" fill="#7F6F99" />
  <rect x="64" y="96" width="32" height="32" fill="#E98EAA" />
  <rect x="96" y="96" width="32" height="32" fill="#FFED54" />
  <rect x="128" y="96" width="32" height="32" fill="#B4C37C" />
  <rect x="160" y="96" width="32" height="32" fill="#894F26" />
  <rect x="192" y="96" width="32" height="32" fill="#3A004E" />
  <rect x="224" y="96" width="32" height="32" fill="#A2B27A" />
  <rect x="0" y="128" width="32" height="32" fill="#1A1B27" />
  <rect x="32" y="128" width="32" height="32" fill="#CD5C2E" />
  <rect x="64" y="128" width="32" height="32" fill="#FFD700" />
  <rect x="96" y="128" width="32" height="32" fill="#E0E0E0" />
  <rect x="128" y="128" width="32" height="32" fill="#B2C7BF" />
  <rect x="160" y="128" width="32" height="32" fill="#0C0D12" />
  <rect x="192" y="128" width="32" height="32" fill="#F0D7B1" />
  <rect x="224" y="128" width="32" height="32" fill="#5B3B3B" />
  <rect x="0" y="160" width="32" height="32" fill="#404040" />
  <rect x="32" y="160" width="32" height="32" fill="#795D90" />
  <rect x="64" y="160" width="32" height="32" fill="#EBD8B7" />
  <rect x="96" y="160" width="32" height="32" fill="#D0A96D" />
  <rect x="128" y="160" width="32" height="32" fill="#A36F14" />
  <rect x="160" y="160" width="32" height="32" fill="#F66315" />
  <rect x="192" y="160" width="32" height="32" fill="#89D3B9" />
  <rect x="224" y="160" width="32" height="32" fill="#6A4D5B" />
  <rect x="0" y="192" width="32" height="32" fill="#0F1118" />
  <rect x="32" y="192" width="32" height="32" fill="#343435" />
  <rect x="64" y="192" width="32" height="32" fill="#8F1B28" />
  <rect x="96" y="192" width="32" height="32" fill="#D0D80E" />
  <rect x="128" y="192" width="32" height="32" fill="#F7F6C7" />
  <rect x="160" y="192" width="32" height="32" fill="#A1A1A1" />
  <rect x="192" y="192" width="32" height="32" fill="#4D4B70" />
  <rect x="224" y="192" width="32" height="32" fill="#2C2D33" />
  <rect x="0" y="224" width="32" height="32" fill="#27272A" />
  <rect x="32" y="224" width="32" height="32" fill="#5A5E66" />
  <rect x="64" y="224" width="32" height="32" fill="#267695" />
  <rect x="96" y="224" width="32" height="32" fill="#FF4B69" />
  <rect x="128" y="224" width="32" height="32" fill="#DDDFD7" />
  <rect x="160" y="224" width="32" height="32" fill="#4A6F78" />
  <rect x="192" y="224" width="32" height="32" fill="#E4CDA1" />
  <rect x="224" y="224" width="32" height="32" fill="#2B292F" />
</svg>
