<svg xmlns="http://www.w3.org/2000/svg" width="256" height="256" viewBox="0 0 256 256" shape-rendering="crispEdges" role="img" aria-labelledby="title desc">
  <title id="title">Shattered Echoes</title>
  <desc id="desc">This artwork reflects the emotional tension of confusion versus clarity through a balance of jagged edges and rising signals. The palette, inspired by 'broken memory', combines sepia and faded blue, creating a nostalgic feel that contrasts with the chaotic feeling represented by the rain pattern. The central pixels are denser and darker, symbolizing confusion, while the edges are lighter and more spacious, suggesting clarity. This interplay captures the struggle of finding clarity within chaos, where pixels seem to fall outward yet maintain a sense of ascent.</desc>
  <rect width="256" height="256" fill="#FFFFFF" />
  <rect x="0" y="0" width="32" height="32" fill="#7A8D9D" />
  <rect x="32" y="0" width="32" height="32" fill="#B4C6D6" />
  <rect x="64" y="0" width="32" height="32" fill="#8F9BA5" />
  <rect x="96" y="0" width="32" height="32" fill="#A6B4C0" />
  <rect x="128" y="0" width="32" height="32" fill="#D6C4AE" />
  <rect x="160" y="0" width="32" height="32" fill="#AB8D7D" />
  <rect x="192" y="0" width="32" height="32" fill="#9BA2A0" />
  <rect x="224" y="0" width="32" height="32" fill="#B7B9C5" />
  <rect x="0" y="32" width="32" height="32" fill="#EFF2F5" />
  <rect x="32" y="32" width="32" height="32" fill="#F0E0D3" />
  <rect x="64" y="32" width="32" height="32" fill="#B6AFA6" />
  <rect x="96" y="32" width="32" height="32" fill="#8FA2A8" />
  <rect x="128" y="32" width="32" height="32" fill="#4C617C" />
  <rect x="160" y="32" width="32" height="32" fill="#C7D9E0" />
  <rect x="192" y="32" width="32" height="32" fill="#788B9E" />
  <rect x="224" y="32" width="32" height="32" fill="#3B4B6A" />
  <rect x="0" y="64" width="32" height="32" fill="#8B93A1" />
  <rect x="32" y="64" width="32" height="32" fill="#B7C4DB" />
  <rect x="64" y="64" width="32" height="32" fill="#A0B2C3" />
  <rect x="96" y="64" width="32" height="32" fill="#A2C0D1" />
  <rect x="128" y="64" width="32" height="32" fill="#D8DBD3" />
  <rect x="160" y="64" width="32" height="32" fill="#7A94B8" />
  <rect x="192" y="64" width="32" height="32" fill="#6D7F88" />
  <rect x="224" y="64" width="32" height="32" fill="#A1B2B0" />
  <rect x="0" y="96" width="32" height="32" fill="#E4CFC5" />
  <rect x="32" y="96" width="32" height="32" fill="#C3B6B1" />
  <rect x="64" y="96" width="32" height="32" fill="#7A888C" />
  <rect x="96" y="96" width="32" height="32" fill="#B9CEEB" />
  <rect x="128" y="96" width="32" height="32" fill="#9AABB2" />
  <rect x="160" y="96" width="32" height="32" fill="#CFE0E3" />
  <rect x="192" y="96" width="32" height="32" fill="#D5C8B8" />
  <rect x="224" y="96" width="32" height="32" fill="#B3A3A1" />
  <rect x="0" y="128" width="32" height="32" fill="#404C5A" />
  <rect x="32" y="128" width="32" height="32" fill="#B5C0C8" />
  <rect x="64" y="128" width="32" height="32" fill="#E3E0D9" />
  <rect x="96" y="128" width="32" height="32" fill="#8492A9" />
  <rect x="128" y="128" width="32" height="32" fill="#C2C1B9" />
  <rect x="160" y="128" width="32" height="32" fill="#A0B4B7" />
  <rect x="192" y="128" width="32" height="32" fill="#8A9CB8" />
  <rect x="224" y="128" width="32" height="32" fill="#8CADBD" />
  <rect x="0" y="160" width="32" height="32" fill="#8D9FA3" />
  <rect x="32" y="160" width="32" height="32" fill="#A6C3D5" />
  <rect x="64" y="160" width="32" height="32" fill="#D3D1D0" />
  <rect x="96" y="160" width="32" height="32" fill="#9CA3A8" />
  <rect x="128" y="160" width="32" height="32" fill="#E5E0D5" />
  <rect x="160" y="160" width="32" height="32" fill="#B8C2C4" />
  <rect x="192" y="160" width="32" height="32" fill="#C3D1D3" />
  <rect x="224" y="160" width="32" height="32" fill="#A1B3B4" />
  <rect x="0" y="192" width="32" height="32" fill="#BAC0C5" />
  <rect x="32" y="192" width="32" height="32" fill="#C4D2D3" />
  <rect x="64" y="192" width="32" height="32" fill="#7C8A99" />
  <rect x="96" y="192" width="32" height="32" fill="#D3D0CE" />
  <rect x="128" y="192" width="32" height="32" fill="#FFE2D7" />
  <rect x="160" y="192" width="32" height="32" fill="#A1B3B5" />
  <rect x="192" y="192" width="32" height="32" fill="#A8C6CC" />
  <rect x="224" y="192" width="32" height="32" fill="#E4E0D3" />
  <rect x="0" y="224" width="32" height="32" fill="#2A343A" />
  <rect x="32" y="224" width="32" height="32" fill="#B5B8B0" />
  <rect x="64" y="224" width="32" height="32" fill="#BEC4B3" />
  <rect x="96" y="224" width="32" height="32" fill="#7F9A87" />
  <rect x="128" y="224" width="32" height="32" fill="#BEC5CB" />
  <rect x="160" y="224" width="32" height="32" fill="#C4D9D6" />
  <rect x="192" y="224" width="32" height="32" fill="#D9D4D1" />
  <rect x="224" y="224" width="32" height="32" fill="#FFFFFF" />
</svg>
