<svg xmlns="http://www.w3.org/2000/svg" width="256" height="256" viewBox="0 0 256 256" shape-rendering="crispEdges" role="img" aria-labelledby="title desc">
  <title id="title">Tension Between Signals</title>
  <desc id="desc">The emotional tone reflects a cacophony of noise against a singular, clear pulse. The color palette combines vibrant green and electric blue as signals with muted shades of gray and black representing noise. The primary contrast occurs at the center, where the bright colored maze representation of signal collides with overlapping, halo-like noise that distorts the edges. This interplay creates a vibrant yet tense visual narrative of clarity battling against interference, embodying the essence of the seed's themes of conflict and interaction.</desc>
  <rect width="256" height="256" fill="#FFFFFF" />
  <rect x="0" y="0" width="32" height="32" fill="#000000" />
  <rect x="32" y="0" width="32" height="32" fill="#1B1B1B" />
  <rect x="64" y="0" width="32" height="32" fill="#000000" />
  <rect x="96" y="0" width="32" height="32" fill="#1B1B1B" />
  <rect x="128" y="0" width="32" height="32" fill="#112233" />
  <rect x="160" y="0" width="32" height="32" fill="#112233" />
  <rect x="192" y="0" width="32" height="32" fill="#4B4B4B" />
  <rect x="224" y="0" width="32" height="32" fill="#7B7B7B" />
  <rect x="0" y="32" width="32" height="32" fill="#000000" />
  <rect x="32" y="32" width="32" height="32" fill="#3A3A3A" />
  <rect x="64" y="32" width="32" height="32" fill="#3F857B" />
  <rect x="96" y="32" width="32" height="32" fill="#58B2D8" />
  <rect x="128" y="32" width="32" height="32" fill="#2F2F2F" />
  <rect x="160" y="32" width="32" height="32" fill="#1B1B1B" />
  <rect x="192" y="32" width="32" height="32" fill="#333333" />
  <rect x="224" y="32" width="32" height="32" fill="#FFFFFF" />
  <rect x="0" y="64" width="32" height="32" fill="#1B1B1B" />
  <rect x="32" y="64" width="32" height="32" fill="#3A3A3A" />
  <rect x="64" y="64" width="32" height="32" fill="#4D4D4D" />
  <rect x="96" y="64" width="32" height="32" fill="#58B2D8" />
  <rect x="128" y="64" width="32" height="32" fill="#4A90E2" />
  <rect x="160" y="64" width="32" height="32" fill="#000000" />
  <rect x="192" y="64" width="32" height="32" fill="#7B7B7B" />
  <rect x="224" y="64" width="32" height="32" fill="#1C1C1C" />
  <rect x="0" y="96" width="32" height="32" fill="#4A90E2" />
  <rect x="32" y="96" width="32" height="32" fill="#8F3E8F" />
  <rect x="64" y="96" width="32" height="32" fill="#4E4E4E" />
  <rect x="96" y="96" width="32" height="32" fill="#F2F2F2" />
  <rect x="128" y="96" width="32" height="32" fill="#FF0092" />
  <rect x="160" y="96" width="32" height="32" fill="#000000" />
  <rect x="192" y="96" width="32" height="32" fill="#5B5B5B" />
  <rect x="224" y="96" width="32" height="32" fill="#1B1B1B" />
  <rect x="0" y="128" width="32" height="32" fill="#6B6B6B" />
  <rect x="32" y="128" width="32" height="32" fill="#232323" />
  <rect x="64" y="128" width="32" height="32" fill="#58B2D8" />
  <rect x="96" y="128" width="32" height="32" fill="#FF0092" />
  <rect x="128" y="128" width="32" height="32" fill="#7B7B7B" />
  <rect x="160" y="128" width="32" height="32" fill="#8F3E8F" />
  <rect x="192" y="128" width="32" height="32" fill="#3F857B" />
  <rect x="224" y="128" width="32" height="32" fill="#FFFFFF" />
  <rect x="0" y="160" width="32" height="32" fill="#000000" />
  <rect x="32" y="160" width="32" height="32" fill="#1B1B1B" />
  <rect x="64" y="160" width="32" height="32" fill="#1C1C1C" />
  <rect x="96" y="160" width="32" height="32" fill="#3A3A3A" />
  <rect x="128" y="160" width="32" height="32" fill="#4D4D4D" />
  <rect x="160" y="160" width="32" height="32" fill="#FFFFFF" />
  <rect x="192" y="160" width="32" height="32" fill="#1B1B1B" />
  <rect x="224" y="160" width="32" height="32" fill="#111B2B" />
  <rect x="0" y="192" width="32" height="32" fill="#9B9B9B" />
  <rect x="32" y="192" width="32" height="32" fill="#E67E22" />
  <rect x="64" y="192" width="32" height="32" fill="#F1D752" />
  <rect x="96" y="192" width="32" height="32" fill="#2ECC71" />
  <rect x="128" y="192" width="32" height="32" fill="#2C3E50" />
  <rect x="160" y="192" width="32" height="32" fill="#1B1B1B" />
  <rect x="192" y="192" width="32" height="32" fill="#7B7B7B" />
  <rect x="224" y="192" width="32" height="32" fill="#3D3D3D" />
  <rect x="0" y="224" width="32" height="32" fill="#9C27B0" />
  <rect x="32" y="224" width="32" height="32" fill="#E91E63" />
  <rect x="64" y="224" width="32" height="32" fill="#FF5722" />
  <rect x="96" y="224" width="32" height="32" fill="#3F51B5" />
  <rect x="128" y="224" width="32" height="32" fill="#1B1B1B" />
  <rect x="160" y="224" width="32" height="32" fill="#000000" />
  <rect x="192" y="224" width="32" height="32" fill="#7B7B7B" />
  <rect x="224" y="224" width="32" height="32" fill="#3D3D3D" />
</svg>
