<svg xmlns="http://www.w3.org/2000/svg" width="256" height="256" viewBox="0 0 256 256" shape-rendering="crispEdges" role="img" aria-labelledby="title desc">
  <title id="title">Pressure and Release</title>
  <desc id="desc">The emotional tone contrasts quietness with intense pressure, illustrated by a balance of muted and bold colors. The palette combines soft off-white and faint peach to invoke tranquillity, juxtaposing with darker colors for density and tension. The rows are divided, with the top exhibiting a braid pattern for pressure and the bottom showcasing a lattice for quiet, creating a clear visual conflict. The central collision occurs where darker hues meet lighter ones, echoing the theme of shattering and balancing forces in life.</desc>
  <rect width="256" height="256" fill="#FFFFFF" />
  <rect x="0" y="0" width="32" height="32" fill="#F8F8F8" />
  <rect x="32" y="0" width="32" height="32" fill="#E0E0E0" />
  <rect x="64" y="0" width="32" height="32" fill="#C0C0C0" />
  <rect x="96" y="0" width="32" height="32" fill="#A0A0A0" />
  <rect x="128" y="0" width="32" height="32" fill="#FFFFFF" />
  <rect x="160" y="0" width="32" height="32" fill="#F0D0B0" />
  <rect x="192" y="0" width="32" height="32" fill="#DBD0C0" />
  <rect x="224" y="0" width="32" height="32" fill="#C0C0C0" />
  <rect x="0" y="32" width="32" height="32" fill="#E8E0E0" />
  <rect x="32" y="32" width="32" height="32" fill="#D0D0D0" />
  <rect x="64" y="32" width="32" height="32" fill="#B0B3B0" />
  <rect x="96" y="32" width="32" height="32" fill="#909090" />
  <rect x="128" y="32" width="32" height="32" fill="#707070" />
  <rect x="160" y="32" width="32" height="32" fill="#404040" />
  <rect x="192" y="32" width="32" height="32" fill="#303030" />
  <rect x="224" y="32" width="32" height="32" fill="#202020" />
  <rect x="0" y="64" width="32" height="32" fill="#D4D4D4" />
  <rect x="32" y="64" width="32" height="32" fill="#E0B0B0" />
  <rect x="64" y="64" width="32" height="32" fill="#F8F8F8" />
  <rect x="96" y="64" width="32" height="32" fill="#B0A0A0" />
  <rect x="128" y="64" width="32" height="32" fill="#707070" />
  <rect x="160" y="64" width="32" height="32" fill="#505050" />
  <rect x="192" y="64" width="32" height="32" fill="#303030" />
  <rect x="224" y="64" width="32" height="32" fill="#101010" />
  <rect x="0" y="96" width="32" height="32" fill="#F2E0E0" />
  <rect x="32" y="96" width="32" height="32" fill="#F8D0B0" />
  <rect x="64" y="96" width="32" height="32" fill="#707070" />
  <rect x="96" y="96" width="32" height="32" fill="#808080" />
  <rect x="128" y="96" width="32" height="32" fill="#838383" />
  <rect x="160" y="96" width="32" height="32" fill="#5B5B5B" />
  <rect x="192" y="96" width="32" height="32" fill="#4D4D4D" />
  <rect x="224" y="96" width="32" height="32" fill="#404040" />
  <rect x="0" y="128" width="32" height="32" fill="#606060" />
  <rect x="32" y="128" width="32" height="32" fill="#505050" />
  <rect x="64" y="128" width="32" height="32" fill="#707070" />
  <rect x="96" y="128" width="32" height="32" fill="#808080" />
  <rect x="128" y="128" width="32" height="32" fill="#A0A0A0" />
  <rect x="160" y="128" width="32" height="32" fill="#C0B0B0" />
  <rect x="192" y="128" width="32" height="32" fill="#E0E0E0" />
  <rect x="224" y="128" width="32" height="32" fill="#D0D0D0" />
  <rect x="0" y="160" width="32" height="32" fill="#B0B0B0" />
  <rect x="32" y="160" width="32" height="32" fill="#CDCDCD" />
  <rect x="64" y="160" width="32" height="32" fill="#F0F0F0" />
  <rect x="96" y="160" width="32" height="32" fill="#D0D0D0" />
  <rect x="128" y="160" width="32" height="32" fill="#B0B0B0" />
  <rect x="160" y="160" width="32" height="32" fill="#A0A0A0" />
  <rect x="192" y="160" width="32" height="32" fill="#808080" />
  <rect x="224" y="160" width="32" height="32" fill="#606060" />
  <rect x="0" y="192" width="32" height="32" fill="#B3C1B3" />
  <rect x="32" y="192" width="32" height="32" fill="#D0E0E0" />
  <rect x="64" y="192" width="32" height="32" fill="#EAE0D0" />
  <rect x="96" y="192" width="32" height="32" fill="#C0B0B0" />
  <rect x="128" y="192" width="32" height="32" fill="#B0B0B0" />
  <rect x="160" y="192" width="32" height="32" fill="#707070" />
  <rect x="192" y="192" width="32" height="32" fill="#404040" />
  <rect x="224" y="192" width="32" height="32" fill="#202020" />
  <rect x="0" y="224" width="32" height="32" fill="#F0E0E0" />
  <rect x="32" y="224" width="32" height="32" fill="#CCCCCC" />
  <rect x="64" y="224" width="32" height="32" fill="#E0F0F0" />
  <rect x="96" y="224" width="32" height="32" fill="#C6D0D0" />
  <rect x="128" y="224" width="32" height="32" fill="#A0B0B0" />
  <rect x="160" y="224" width="32" height="32" fill="#808080" />
  <rect x="192" y="224" width="32" height="32" fill="#606060" />
  <rect x="224" y="224" width="32" height="32" fill="#000000" />
</svg>
