<svg xmlns="http://www.w3.org/2000/svg" width="256" height="256" viewBox="0 0 256 256" shape-rendering="crispEdges" role="img" aria-labelledby="title desc">
  <title id="title">Echoes of Emotion</title>
  <desc id="desc">This composition embodies the tension between joy and grief. The warm yellows and oranges symbolize joy, while the deeper blue and muted purple represent grief. The left side is intentionally weighted towards darker shades, suggesting heaviness, while the right employs stripes of bright colors, creating a pulse of joy. The contrast is prominent where the vibrant yellow interacts with the deep blue, evoking a collision of emotions. The broken pixels create an imperfect symmetry, reflecting the fragility of balance between these intense feelings.</desc>
  <rect width="256" height="256" fill="#FFFFFF" />
  <rect x="0" y="0" width="32" height="32" fill="#FFCC00" />
  <rect x="32" y="0" width="32" height="32" fill="#FFA500" />
  <rect x="64" y="0" width="32" height="32" fill="#FFFF66" />
  <rect x="96" y="0" width="32" height="32" fill="#FFD700" />
  <rect x="128" y="0" width="32" height="32" fill="#BEBEBE" />
  <rect x="160" y="0" width="32" height="32" fill="#3B3B3B" />
  <rect x="192" y="0" width="32" height="32" fill="#2F2F2F" />
  <rect x="224" y="0" width="32" height="32" fill="#0C0C0C" />
  <rect x="0" y="32" width="32" height="32" fill="#FFAA00" />
  <rect x="32" y="32" width="32" height="32" fill="#FF8000" />
  <rect x="64" y="32" width="32" height="32" fill="#FFD580" />
  <rect x="96" y="32" width="32" height="32" fill="#FFCA40" />
  <rect x="128" y="32" width="32" height="32" fill="#A3A3A3" />
  <rect x="160" y="32" width="32" height="32" fill="#4C4C4C" />
  <rect x="192" y="32" width="32" height="32" fill="#2B2B2B" />
  <rect x="224" y="32" width="32" height="32" fill="#111111" />
  <rect x="0" y="64" width="32" height="32" fill="#FFCC00" />
  <rect x="32" y="64" width="32" height="32" fill="#FFA500" />
  <rect x="64" y="64" width="32" height="32" fill="#FFFF66" />
  <rect x="96" y="64" width="32" height="32" fill="#FFD700" />
  <rect x="128" y="64" width="32" height="32" fill="#BEBEBE" />
  <rect x="160" y="64" width="32" height="32" fill="#3B3B3B" />
  <rect x="192" y="64" width="32" height="32" fill="#2F2F2F" />
  <rect x="224" y="64" width="32" height="32" fill="#0C0C0C" />
  <rect x="0" y="96" width="32" height="32" fill="#FF8800" />
  <rect x="32" y="96" width="32" height="32" fill="#D96600" />
  <rect x="64" y="96" width="32" height="32" fill="#FFC107" />
  <rect x="96" y="96" width="32" height="32" fill="#FFBF00" />
  <rect x="128" y="96" width="32" height="32" fill="#BEBEBE" />
  <rect x="160" y="96" width="32" height="32" fill="#4C4C4C" />
  <rect x="192" y="96" width="32" height="32" fill="#2B2B2B" />
  <rect x="224" y="96" width="32" height="32" fill="#222222" />
  <rect x="0" y="128" width="32" height="32" fill="#FFD700" />
  <rect x="32" y="128" width="32" height="32" fill="#FF7521" />
  <rect x="64" y="128" width="32" height="32" fill="#FF6611" />
  <rect x="96" y="128" width="32" height="32" fill="#FF5500" />
  <rect x="128" y="128" width="32" height="32" fill="#AA3456" />
  <rect x="160" y="128" width="32" height="32" fill="#4B4B4B" />
  <rect x="192" y="128" width="32" height="32" fill="#292929" />
  <rect x="224" y="128" width="32" height="32" fill="#0A0A0A" />
  <rect x="0" y="160" width="32" height="32" fill="#FFA500" />
  <rect x="32" y="160" width="32" height="32" fill="#FFA000" />
  <rect x="64" y="160" width="32" height="32" fill="#FFB900" />
  <rect x="96" y="160" width="32" height="32" fill="#FFC200" />
  <rect x="128" y="160" width="32" height="32" fill="#A9A9A9" />
  <rect x="160" y="160" width="32" height="32" fill="#515151" />
  <rect x="192" y="160" width="32" height="32" fill="#1E1E1E" />
  <rect x="224" y="160" width="32" height="32" fill="#0E0E0E" />
  <rect x="0" y="192" width="32" height="32" fill="#FFFF90" />
  <rect x="32" y="192" width="32" height="32" fill="#FFD700" />
  <rect x="64" y="192" width="32" height="32" fill="#FFCC00" />
  <rect x="96" y="192" width="32" height="32" fill="#FFB500" />
  <rect x="128" y="192" width="32" height="32" fill="#B0B0B0" />
  <rect x="160" y="192" width="32" height="32" fill="#646464" />
  <rect x="192" y="192" width="32" height="32" fill="#333333" />
  <rect x="224" y="192" width="32" height="32" fill="#212121" />
  <rect x="0" y="224" width="32" height="32" fill="#FFEA80" />
  <rect x="32" y="224" width="32" height="32" fill="#FFD500" />
  <rect x="64" y="224" width="32" height="32" fill="#FFA000" />
  <rect x="96" y="224" width="32" height="32" fill="#FF7800" />
  <rect x="128" y="224" width="32" height="32" fill="#9E9E9E" />
  <rect x="160" y="224" width="32" height="32" fill="#7E7E7E" />
  <rect x="192" y="224" width="32" height="32" fill="#505050" />
  <rect x="224" y="224" width="32" height="32" fill="#000000" />
</svg>
