<svg xmlns="http://www.w3.org/2000/svg" width="256" height="256" viewBox="0 0 256 256" shape-rendering="crispEdges" role="img" aria-labelledby="title desc">
  <title id="title">Emotional Interplay</title>
  <desc id="desc">The emotional tone reflects the tension between love and betrayal, characterized by warm pinks battling dark maroons. The palette's warmth embodies love, whereas the darker tones introduce betrayal's shadow. contrasting colors clash at the center, symbolizing an emotional confrontation, highlighting unrest between softness and sharpness, much like an inside vs. outside conflict. The pattern emerges through a crosshatch of warmth versus a chaotic noise, emphasizing desolation and connection. Negative space allows for breathing room, maintaining balance amid pressure.</desc>
  <rect width="256" height="256" fill="#FFFFFF" />
  <rect x="0" y="0" width="32" height="32" fill="#FF577F" />
  <rect x="32" y="0" width="32" height="32" fill="#FF2D55" />
  <rect x="64" y="0" width="32" height="32" fill="#FFC5D9" />
  <rect x="96" y="0" width="32" height="32" fill="#D1B2C1" />
  <rect x="128" y="0" width="32" height="32" fill="#B565A1" />
  <rect x="160" y="0" width="32" height="32" fill="#8E2A51" />
  <rect x="192" y="0" width="32" height="32" fill="#4E001A" />
  <rect x="224" y="0" width="32" height="32" fill="#8E2C3F" />
  <rect x="0" y="32" width="32" height="32" fill="#D70045" />
  <rect x="32" y="32" width="32" height="32" fill="#FF799E" />
  <rect x="64" y="32" width="32" height="32" fill="#FFB2D7" />
  <rect x="96" y="32" width="32" height="32" fill="#B56C8E" />
  <rect x="128" y="32" width="32" height="32" fill="#5A2D45" />
  <rect x="160" y="32" width="32" height="32" fill="#3C142D" />
  <rect x="192" y="32" width="32" height="32" fill="#2A1322" />
  <rect x="224" y="32" width="32" height="32" fill="#6C3D4C" />
  <rect x="0" y="64" width="32" height="32" fill="#FF5F8A" />
  <rect x="32" y="64" width="32" height="32" fill="#FF2D55" />
  <rect x="64" y="64" width="32" height="32" fill="#FF8D9C" />
  <rect x="96" y="64" width="32" height="32" fill="#B07C9E" />
  <rect x="128" y="64" width="32" height="32" fill="#9C4A69" />
  <rect x="160" y="64" width="32" height="32" fill="#421A32" />
  <rect x="192" y="64" width="32" height="32" fill="#2C1A25" />
  <rect x="224" y="64" width="32" height="32" fill="#674E63" />
  <rect x="0" y="96" width="32" height="32" fill="#FF99B9" />
  <rect x="32" y="96" width="32" height="32" fill="#FF3D4B" />
  <rect x="64" y="96" width="32" height="32" fill="#DA4A70" />
  <rect x="96" y="96" width="32" height="32" fill="#8D678C" />
  <rect x="128" y="96" width="32" height="32" fill="#A56B84" />
  <rect x="160" y="96" width="32" height="32" fill="#9A4560" />
  <rect x="192" y="96" width="32" height="32" fill="#6C3745" />
  <rect x="224" y="96" width="32" height="32" fill="#5F3C51" />
  <rect x="0" y="128" width="32" height="32" fill="#FFA07A" />
  <rect x="32" y="128" width="32" height="32" fill="#FF6B8A" />
  <rect x="64" y="128" width="32" height="32" fill="#DAB2CB" />
  <rect x="96" y="128" width="32" height="32" fill="#B7A3B0" />
  <rect x="128" y="128" width="32" height="32" fill="#8E4A5D" />
  <rect x="160" y="128" width="32" height="32" fill="#5B1928" />
  <rect x="192" y="128" width="32" height="32" fill="#2C001B" />
  <rect x="224" y="128" width="32" height="32" fill="#4B3B4D" />
  <rect x="0" y="160" width="32" height="32" fill="#FF4B3D" />
  <rect x="32" y="160" width="32" height="32" fill="#FF2A72" />
  <rect x="64" y="160" width="32" height="32" fill="#C198B3" />
  <rect x="96" y="160" width="32" height="32" fill="#A05B81" />
  <rect x="128" y="160" width="32" height="32" fill="#7A3F47" />
  <rect x="160" y="160" width="32" height="32" fill="#4A2323" />
  <rect x="192" y="160" width="32" height="32" fill="#3B212B" />
  <rect x="224" y="160" width="32" height="32" fill="#7D4B67" />
  <rect x="0" y="192" width="32" height="32" fill="#D06759" />
  <rect x="32" y="192" width="32" height="32" fill="#A6456C" />
  <rect x="64" y="192" width="32" height="32" fill="#FF8F7B" />
  <rect x="96" y="192" width="32" height="32" fill="#CCB2CB" />
  <rect x="128" y="192" width="32" height="32" fill="#A76B92" />
  <rect x="160" y="192" width="32" height="32" fill="#6F3F4A" />
  <rect x="192" y="192" width="32" height="32" fill="#4D282A" />
  <rect x="224" y="192" width="32" height="32" fill="#832B37" />
  <rect x="0" y="224" width="32" height="32" fill="#FFB9B3" />
  <rect x="32" y="224" width="32" height="32" fill="#FF99A6" />
  <rect x="64" y="224" width="32" height="32" fill="#FFC5B2" />
  <rect x="96" y="224" width="32" height="32" fill="#C25D7A" />
  <rect x="128" y="224" width="32" height="32" fill="#9A1D35" />
  <rect x="160" y="224" width="32" height="32" fill="#6D151D" />
  <rect x="192" y="224" width="32" height="32" fill="#B32F2A" />
  <rect x="224" y="224" width="32" height="32" fill="#4E2838" />
</svg>
