<svg xmlns="http://www.w3.org/2000/svg" width="256" height="256" viewBox="0 0 256 256" shape-rendering="crispEdges" role="img" aria-labelledby="title desc">
  <title id="title">Symphony of Tension</title>
  <desc id="desc">This piece explores the interplay between compression and release, reflecting the rhythm of emotional collisions. Darker shades create areas of pressure, contrasting with bursts of brighter colors that suggest moments of release and echo. The palette includes dense grays that convey a sense of weight, interrupted by vivid accents expressing the sudden shifts in emotional landscapes. The pattern suggests a narrative of tension giving way to unexpected release, echoing the seed's themes.</desc>
  <rect width="256" height="256" fill="#FFFFFF" />
  <rect x="0" y="0" width="32" height="32" fill="#1C1C1C" />
  <rect x="32" y="0" width="32" height="32" fill="#272727" />
  <rect x="64" y="0" width="32" height="32" fill="#333333" />
  <rect x="96" y="0" width="32" height="32" fill="#4D4D4D" />
  <rect x="128" y="0" width="32" height="32" fill="#696969" />
  <rect x="160" y="0" width="32" height="32" fill="#838383" />
  <rect x="192" y="0" width="32" height="32" fill="#B3B3B3" />
  <rect x="224" y="0" width="32" height="32" fill="#FFFFFF" />
  <rect x="0" y="32" width="32" height="32" fill="#4D4D4D" />
  <rect x="32" y="32" width="32" height="32" fill="#6B6B6B" />
  <rect x="64" y="32" width="32" height="32" fill="#5A5A5A" />
  <rect x="96" y="32" width="32" height="32" fill="#8D8D8D" />
  <rect x="128" y="32" width="32" height="32" fill="#C0C0C0" />
  <rect x="160" y="32" width="32" height="32" fill="#E7E7E7" />
  <rect x="192" y="32" width="32" height="32" fill="#BFBFBF" />
  <rect x="224" y="32" width="32" height="32" fill="#AAAAAA" />
  <rect x="0" y="64" width="32" height="32" fill="#000000" />
  <rect x="32" y="64" width="32" height="32" fill="#C0C0C0" />
  <rect x="64" y="64" width="32" height="32" fill="#A8A8A8" />
  <rect x="96" y="64" width="32" height="32" fill="#D7D7D7" />
  <rect x="128" y="64" width="32" height="32" fill="#F3F3F3" />
  <rect x="160" y="64" width="32" height="32" fill="#969696" />
  <rect x="192" y="64" width="32" height="32" fill="#E3E3E3" />
  <rect x="224" y="64" width="32" height="32" fill="#FFFFFF" />
  <rect x="0" y="96" width="32" height="32" fill="#101010" />
  <rect x="32" y="96" width="32" height="32" fill="#3A3A3A" />
  <rect x="64" y="96" width="32" height="32" fill="#515151" />
  <rect x="96" y="96" width="32" height="32" fill="#747474" />
  <rect x="128" y="96" width="32" height="32" fill="#9F9F9F" />
  <rect x="160" y="96" width="32" height="32" fill="#B2B2B2" />
  <rect x="192" y="96" width="32" height="32" fill="#F5F5F5" />
  <rect x="224" y="96" width="32" height="32" fill="#CCCCCC" />
  <rect x="0" y="128" width="32" height="32" fill="#2A2A2A" />
  <rect x="32" y="128" width="32" height="32" fill="#6A6A6A" />
  <rect x="64" y="128" width="32" height="32" fill="#848484" />
  <rect x="96" y="128" width="32" height="32" fill="#B2B2B2" />
  <rect x="128" y="128" width="32" height="32" fill="#D0D0D0" />
  <rect x="160" y="128" width="32" height="32" fill="#E0E0E0" />
  <rect x="192" y="128" width="32" height="32" fill="#9C9C9C" />
  <rect x="224" y="128" width="32" height="32" fill="#FFFFFF" />
  <rect x="0" y="160" width="32" height="32" fill="#282828" />
  <rect x="32" y="160" width="32" height="32" fill="#505050" />
  <rect x="64" y="160" width="32" height="32" fill="#D6D6D6" />
  <rect x="96" y="160" width="32" height="32" fill="#E8E8E8" />
  <rect x="128" y="160" width="32" height="32" fill="#A8A8A8" />
  <rect x="160" y="160" width="32" height="32" fill="#FBFBFB" />
  <rect x="192" y="160" width="32" height="32" fill="#7D7D7D" />
  <rect x="224" y="160" width="32" height="32" fill="#BFBFBF" />
  <rect x="0" y="192" width="32" height="32" fill="#1F1F1F" />
  <rect x="32" y="192" width="32" height="32" fill="#343434" />
  <rect x="64" y="192" width="32" height="32" fill="#676767" />
  <rect x="96" y="192" width="32" height="32" fill="#8F8F8F" />
  <rect x="128" y="192" width="32" height="32" fill="#858585" />
  <rect x="160" y="192" width="32" height="32" fill="#D4D4D4" />
  <rect x="192" y="192" width="32" height="32" fill="#F9F9F9" />
  <rect x="224" y="192" width="32" height="32" fill="#DFDFDF" />
  <rect x="0" y="224" width="32" height="32" fill="#4E4E4E" />
  <rect x="32" y="224" width="32" height="32" fill="#515151" />
  <rect x="64" y="224" width="32" height="32" fill="#000000" />
  <rect x="96" y="224" width="32" height="32" fill="#FFFFFF" />
  <rect x="128" y="224" width="32" height="32" fill="#A3A3A3" />
  <rect x="160" y="224" width="32" height="32" fill="#C3C3C3" />
  <rect x="192" y="224" width="32" height="32" fill="#696969" />
  <rect x="224" y="224" width="32" height="32" fill="#D0D0D0" />
</svg>
