<svg xmlns="http://www.w3.org/2000/svg" width="256" height="256" viewBox="0 0 256 256" shape-rendering="crispEdges" role="img" aria-labelledby="title desc">
  <title id="title">Echoes of Emotion</title>
  <desc id="desc">This artwork captures the duality of longing and resolve, presenting a tension between soft hues of intimacy and bold flashes of clarity. The palette uses warm clay and distant lilac to evoke a serene yet urgent atmosphere, while cool blue adds distance, contrasting with rich lamp gold that highlights key moments in the pixel arrangement. The collision is dominant in the center, where crosshatch and negative cross patterns intersect, illustrating the struggle between desire and fulfillment. Broken pixels disrupt the overall structure, suggesting imperfections and life's complexities, aligning with the theme of a 'mirror broken.' The layout mirrors yet diverges, allowing for a sense of unresolved motion and emotional depth.</desc>
  <rect width="256" height="256" fill="#FFFFFF" />
  <rect x="0" y="0" width="32" height="32" fill="#EFC8B4" />
  <rect x="32" y="0" width="32" height="32" fill="#D48D7B" />
  <rect x="64" y="0" width="32" height="32" fill="#C28F9E" />
  <rect x="96" y="0" width="32" height="32" fill="#A1BCCB" />
  <rect x="128" y="0" width="32" height="32" fill="#65A5D8" />
  <rect x="160" y="0" width="32" height="32" fill="#D3B22D" />
  <rect x="192" y="0" width="32" height="32" fill="#D5A28A" />
  <rect x="224" y="0" width="32" height="32" fill="#C8C9C7" />
  <rect x="0" y="32" width="32" height="32" fill="#FFC3B7" />
  <rect x="32" y="32" width="32" height="32" fill="#E3C9B4" />
  <rect x="64" y="32" width="32" height="32" fill="#A3B3C5" />
  <rect x="96" y="32" width="32" height="32" fill="#9D9D9D" />
  <rect x="128" y="32" width="32" height="32" fill="#B29286" />
  <rect x="160" y="32" width="32" height="32" fill="#D4BF62" />
  <rect x="192" y="32" width="32" height="32" fill="#E7CFF1" />
  <rect x="224" y="32" width="32" height="32" fill="#8BB7D3" />
  <rect x="0" y="64" width="32" height="32" fill="#7A8B89" />
  <rect x="32" y="64" width="32" height="32" fill="#F5B4A0" />
  <rect x="64" y="64" width="32" height="32" fill="#A7A79C" />
  <rect x="96" y="64" width="32" height="32" fill="#8B484B" />
  <rect x="128" y="64" width="32" height="32" fill="#DBE8E7" />
  <rect x="160" y="64" width="32" height="32" fill="#D07DA2" />
  <rect x="192" y="64" width="32" height="32" fill="#B2CD44" />
  <rect x="224" y="64" width="32" height="32" fill="#E1EA65" />
  <rect x="0" y="96" width="32" height="32" fill="#76A8A3" />
  <rect x="32" y="96" width="32" height="32" fill="#CCCCD2" />
  <rect x="64" y="96" width="32" height="32" fill="#F8D7AA" />
  <rect x="96" y="96" width="32" height="32" fill="#FF7E7D" />
  <rect x="128" y="96" width="32" height="32" fill="#444C4C" />
  <rect x="160" y="96" width="32" height="32" fill="#B0A173" />
  <rect x="192" y="96" width="32" height="32" fill="#908B9B" />
  <rect x="224" y="96" width="32" height="32" fill="#9195B7" />
  <rect x="0" y="128" width="32" height="32" fill="#F4D588" />
  <rect x="32" y="128" width="32" height="32" fill="#D0A476" />
  <rect x="64" y="128" width="32" height="32" fill="#F6E1B0" />
  <rect x="96" y="128" width="32" height="32" fill="#E7B4A3" />
  <rect x="128" y="128" width="32" height="32" fill="#E4D3E3" />
  <rect x="160" y="128" width="32" height="32" fill="#B65D8C" />
  <rect x="192" y="128" width="32" height="32" fill="#99C9C5" />
  <rect x="224" y="128" width="32" height="32" fill="#B0C7D0" />
  <rect x="0" y="160" width="32" height="32" fill="#B7C9D3" />
  <rect x="32" y="160" width="32" height="32" fill="#D6C6A0" />
  <rect x="64" y="160" width="32" height="32" fill="#EAD5C0" />
  <rect x="96" y="160" width="32" height="32" fill="#A0D6E2" />
  <rect x="128" y="160" width="32" height="32" fill="#CAA9B2" />
  <rect x="160" y="160" width="32" height="32" fill="#683D56" />
  <rect x="192" y="160" width="32" height="32" fill="#86B3D8" />
  <rect x="224" y="160" width="32" height="32" fill="#DFD6D6" />
  <rect x="0" y="192" width="32" height="32" fill="#E4B5A0" />
  <rect x="32" y="192" width="32" height="32" fill="#9C5F5F" />
  <rect x="64" y="192" width="32" height="32" fill="#778D9D" />
  <rect x="96" y="192" width="32" height="32" fill="#B3B2AA" />
  <rect x="128" y="192" width="32" height="32" fill="#E0B88D" />
  <rect x="160" y="192" width="32" height="32" fill="#B9C9DF" />
  <rect x="192" y="192" width="32" height="32" fill="#A4C0B8" />
  <rect x="224" y="192" width="32" height="32" fill="#E1D6C2" />
  <rect x="0" y="224" width="32" height="32" fill="#B8B29F" />
  <rect x="32" y="224" width="32" height="32" fill="#5A6D8C" />
  <rect x="64" y="224" width="32" height="32" fill="#A2A7B8" />
  <rect x="96" y="224" width="32" height="32" fill="#C7F4EB" />
  <rect x="128" y="224" width="32" height="32" fill="#D5BEB1" />
  <rect x="160" y="224" width="32" height="32" fill="#E4BDC9" />
  <rect x="192" y="224" width="32" height="32" fill="#C6B7A8" />
  <rect x="224" y="224" width="32" height="32" fill="#5E4B75" />
</svg>
