<svg xmlns="http://www.w3.org/2000/svg" width="256" height="256" viewBox="0 0 256 256" shape-rendering="crispEdges" role="img" aria-labelledby="title desc">
  <title id="title">Symphony of Discord</title>
  <desc id="desc">The emotional tone juxtaposes awe with terror, where both feelings collide and create an unsettling harmony. The selected palette, combining pink, red, gray, and dark maroon, suggests warmth intertwined with intensity, evoking both love and betrayal. The layout is intentionally sparse, embodying an empty room with bursts of color that oscillate between vertical softness and chaotic crosshatching. The main contrast occurs in the center, where red and dark maroon battle against grays, highlighting instability amidst order. The arrangement mimics a wave, drawing attention to the simultaneous beauty and fear of the overarching themes of the seed.</desc>
  <rect width="256" height="256" fill="#FFFFFF" />
  <rect x="0" y="0" width="32" height="32" fill="#FF69B4" />
  <rect x="32" y="0" width="32" height="32" fill="#FF0000" />
  <rect x="64" y="0" width="32" height="32" fill="#D3D3D3" />
  <rect x="96" y="0" width="32" height="32" fill="#A9A9A9" />
  <rect x="128" y="0" width="32" height="32" fill="#808080" />
  <rect x="160" y="0" width="32" height="32" fill="#000000" />
  <rect x="192" y="0" width="32" height="32" fill="#D3D3D3" />
  <rect x="224" y="0" width="32" height="32" fill="#FF69B4" />
  <rect x="0" y="32" width="32" height="32" fill="#FFC0CB" />
  <rect x="32" y="32" width="32" height="32" fill="#8B0000" />
  <rect x="64" y="32" width="32" height="32" fill="#C0C0C0" />
  <rect x="96" y="32" width="32" height="32" fill="#696969" />
  <rect x="128" y="32" width="32" height="32" fill="#A9A9A9" />
  <rect x="160" y="32" width="32" height="32" fill="#161616" />
  <rect x="192" y="32" width="32" height="32" fill="#B0C4DE" />
  <rect x="224" y="32" width="32" height="32" fill="#FF6347" />
  <rect x="0" y="64" width="32" height="32" fill="#DDA0DD" />
  <rect x="32" y="64" width="32" height="32" fill="#DB7093" />
  <rect x="64" y="64" width="32" height="32" fill="#A9A9A9" />
  <rect x="96" y="64" width="32" height="32" fill="#2F4F4F" />
  <rect x="128" y="64" width="32" height="32" fill="#663399" />
  <rect x="160" y="64" width="32" height="32" fill="#C0C0C0" />
  <rect x="192" y="64" width="32" height="32" fill="#D3D3D3" />
  <rect x="224" y="64" width="32" height="32" fill="#FFB6C1" />
  <rect x="0" y="96" width="32" height="32" fill="#FF4500" />
  <rect x="32" y="96" width="32" height="32" fill="#ADFF2F" />
  <rect x="64" y="96" width="32" height="32" fill="#696969" />
  <rect x="96" y="96" width="32" height="32" fill="#808080" />
  <rect x="128" y="96" width="32" height="32" fill="#3CB371" />
  <rect x="160" y="96" width="32" height="32" fill="#8B008B" />
  <rect x="192" y="96" width="32" height="32" fill="#B22222" />
  <rect x="224" y="96" width="32" height="32" fill="#4B0082" />
  <rect x="0" y="128" width="32" height="32" fill="#F08080" />
  <rect x="32" y="128" width="32" height="32" fill="#800000" />
  <rect x="64" y="128" width="32" height="32" fill="#A9A9A9" />
  <rect x="96" y="128" width="32" height="32" fill="#BFBFBF" />
  <rect x="128" y="128" width="32" height="32" fill="#D3D3D3" />
  <rect x="160" y="128" width="32" height="32" fill="#F5FFFA" />
  <rect x="192" y="128" width="32" height="32" fill="#FA8072" />
  <rect x="224" y="128" width="32" height="32" fill="#9400D3" />
  <rect x="0" y="160" width="32" height="32" fill="#FF69B4" />
  <rect x="32" y="160" width="32" height="32" fill="#4B0082" />
  <rect x="64" y="160" width="32" height="32" fill="#808080" />
  <rect x="96" y="160" width="32" height="32" fill="#000000" />
  <rect x="128" y="160" width="32" height="32" fill="#A9A9A9" />
  <rect x="160" y="160" width="32" height="32" fill="#FF6347" />
  <rect x="192" y="160" width="32" height="32" fill="#DDA0DD" />
  <rect x="224" y="160" width="32" height="32" fill="#DB7093" />
  <rect x="0" y="192" width="32" height="32" fill="#C0C0C0" />
  <rect x="32" y="192" width="32" height="32" fill="#FF4500" />
  <rect x="64" y="192" width="32" height="32" fill="#D3D3D3" />
  <rect x="96" y="192" width="32" height="32" fill="#808080" />
  <rect x="128" y="192" width="32" height="32" fill="#2F4F4F" />
  <rect x="160" y="192" width="32" height="32" fill="#C0C0C0" />
  <rect x="192" y="192" width="32" height="32" fill="#D3D3D3" />
  <rect x="224" y="192" width="32" height="32" fill="#FF69B4" />
  <rect x="0" y="224" width="32" height="32" fill="#8B0000" />
  <rect x="32" y="224" width="32" height="32" fill="#BFBFBF" />
  <rect x="64" y="224" width="32" height="32" fill="#D3D3D3" />
  <rect x="96" y="224" width="32" height="32" fill="#A9A9A9" />
  <rect x="128" y="224" width="32" height="32" fill="#000000" />
  <rect x="160" y="224" width="32" height="32" fill="#4B0082" />
  <rect x="192" y="224" width="32" height="32" fill="#DDA0DD" />
  <rect x="224" y="224" width="32" height="32" fill="#FF6347" />
</svg>
