<svg xmlns="http://www.w3.org/2000/svg" width="256" height="256" viewBox="0 0 256 256" shape-rendering="crispEdges" role="img" aria-labelledby="title desc">
  <title id="title">Pressure and Release</title>
  <desc id="desc">The emotional tone of this piece balances moments of tight pressure against expansive quietness. The colors reflect this duality, with deep navy (#001F3F) and compressed red (#FF4136) representing pressure, while muted off-white (#F6F6F6) and faint peach (#FFD7A1) encapsulate the quiet. The layout employs a threshold that sharpens the collision of these emotions, where dense clusters of red interrupt the serene space of pale colors. The hard edges juxtapose soft elements, reflecting the tension suggested by the seed. The result is a visual conversation between chaos and calm, inviting the viewer to explore the nuances of feeling.</desc>
  <rect width="256" height="256" fill="#FFFFFF" />
  <rect x="0" y="0" width="32" height="32" fill="#001F3F" />
  <rect x="32" y="0" width="32" height="32" fill="#FF4136" />
  <rect x="64" y="0" width="32" height="32" fill="#FF4136" />
  <rect x="96" y="0" width="32" height="32" fill="#FF4136" />
  <rect x="128" y="0" width="32" height="32" fill="#F6F6F6" />
  <rect x="160" y="0" width="32" height="32" fill="#F6F6F6" />
  <rect x="192" y="0" width="32" height="32" fill="#F6F6F6" />
  <rect x="224" y="0" width="32" height="32" fill="#F6F6F6" />
  <rect x="0" y="32" width="32" height="32" fill="#001F3F" />
  <rect x="32" y="32" width="32" height="32" fill="#FF4136" />
  <rect x="64" y="32" width="32" height="32" fill="#FF4136" />
  <rect x="96" y="32" width="32" height="32" fill="#F6F6F6" />
  <rect x="128" y="32" width="32" height="32" fill="#F6F6F6" />
  <rect x="160" y="32" width="32" height="32" fill="#F6F6F6" />
  <rect x="192" y="32" width="32" height="32" fill="#F6F6F6" />
  <rect x="224" y="32" width="32" height="32" fill="#FFD7A1" />
  <rect x="0" y="64" width="32" height="32" fill="#001F3F" />
  <rect x="32" y="64" width="32" height="32" fill="#001F3F" />
  <rect x="64" y="64" width="32" height="32" fill="#F6F6F6" />
  <rect x="96" y="64" width="32" height="32" fill="#F6F6F6" />
  <rect x="128" y="64" width="32" height="32" fill="#F6F6F6" />
  <rect x="160" y="64" width="32" height="32" fill="#FFD7A1" />
  <rect x="192" y="64" width="32" height="32" fill="#FFD7A1" />
  <rect x="224" y="64" width="32" height="32" fill="#F6F6F6" />
  <rect x="0" y="96" width="32" height="32" fill="#001F3F" />
  <rect x="32" y="96" width="32" height="32" fill="#001F3F" />
  <rect x="64" y="96" width="32" height="32" fill="#F6F6F6" />
  <rect x="96" y="96" width="32" height="32" fill="#FFD7A1" />
  <rect x="128" y="96" width="32" height="32" fill="#FFD7A1" />
  <rect x="160" y="96" width="32" height="32" fill="#FFD7A1" />
  <rect x="192" y="96" width="32" height="32" fill="#FFD7A1" />
  <rect x="224" y="96" width="32" height="32" fill="#F6F6F6" />
  <rect x="0" y="128" width="32" height="32" fill="#F6F6F6" />
  <rect x="32" y="128" width="32" height="32" fill="#F6F6F6" />
  <rect x="64" y="128" width="32" height="32" fill="#FFD7A1" />
  <rect x="96" y="128" width="32" height="32" fill="#FFD7A1" />
  <rect x="128" y="128" width="32" height="32" fill="#FFD7A1" />
  <rect x="160" y="128" width="32" height="32" fill="#F6F6F6" />
  <rect x="192" y="128" width="32" height="32" fill="#F6F6F6" />
  <rect x="224" y="128" width="32" height="32" fill="#F6F6F6" />
  <rect x="0" y="160" width="32" height="32" fill="#F6F6F6" />
  <rect x="32" y="160" width="32" height="32" fill="#FFD7A1" />
  <rect x="64" y="160" width="32" height="32" fill="#FFD7A1" />
  <rect x="96" y="160" width="32" height="32" fill="#FFD7A1" />
  <rect x="128" y="160" width="32" height="32" fill="#F6F6F6" />
  <rect x="160" y="160" width="32" height="32" fill="#F6F6F6" />
  <rect x="192" y="160" width="32" height="32" fill="#F6F6F6" />
  <rect x="224" y="160" width="32" height="32" fill="#F6F6F6" />
  <rect x="0" y="192" width="32" height="32" fill="#FFD7A1" />
  <rect x="32" y="192" width="32" height="32" fill="#F6F6F6" />
  <rect x="64" y="192" width="32" height="32" fill="#F6F6F6" />
  <rect x="96" y="192" width="32" height="32" fill="#F6F6F6" />
  <rect x="128" y="192" width="32" height="32" fill="#F6F6F6" />
  <rect x="160" y="192" width="32" height="32" fill="#F6F6F6" />
  <rect x="192" y="192" width="32" height="32" fill="#F6F6F6" />
  <rect x="224" y="192" width="32" height="32" fill="#F6F6F6" />
  <rect x="0" y="224" width="32" height="32" fill="#F6F6F6" />
  <rect x="32" y="224" width="32" height="32" fill="#F6F6F6" />
  <rect x="64" y="224" width="32" height="32" fill="#F6F6F6" />
  <rect x="96" y="224" width="32" height="32" fill="#F6F6F6" />
  <rect x="128" y="224" width="32" height="32" fill="#F6F6F6" />
  <rect x="160" y="224" width="32" height="32" fill="#F6F6F6" />
  <rect x="192" y="224" width="32" height="32" fill="#F6F6F6" />
  <rect x="224" y="224" width="32" height="32" fill="#F6F6F6" />
</svg>
