<svg xmlns="http://www.w3.org/2000/svg" width="256" height="256" viewBox="0 0 256 256" shape-rendering="crispEdges" role="img" aria-labelledby="title desc">
  <title id="title">Tension in Transition</title>
  <desc id="desc">The emotional tone is a dance between restlessness and peace, with the colors suggesting a saturated pull toward calm restrained by chaotic motions. The palette of red, black, pale blue, and white reflects a contrast of warmth and coolness, emphasizing the tension. The primary collision occurs diagonally from the lower left (restlessness) to the upper right (peace), with the lighter, soothing colors battling the darker, more aggressive hues in a constant push and pull. The pattern logic draws from the 'hinge' of chaos transitioning into the structured 'ladder' of harmony, allowing the viewer to feel the struggle for serenity amidst turmoil.</desc>
  <rect width="256" height="256" fill="#FFFFFF" />
  <rect x="0" y="0" width="32" height="32" fill="#000000" />
  <rect x="32" y="0" width="32" height="32" fill="#FF3333" />
  <rect x="64" y="0" width="32" height="32" fill="#FF6666" />
  <rect x="96" y="0" width="32" height="32" fill="#FFFFFF" />
  <rect x="128" y="0" width="32" height="32" fill="#CCCCCC" />
  <rect x="160" y="0" width="32" height="32" fill="#EEEEEE" />
  <rect x="192" y="0" width="32" height="32" fill="#BBDDFF" />
  <rect x="224" y="0" width="32" height="32" fill="#88BBFF" />
  <rect x="0" y="32" width="32" height="32" fill="#222222" />
  <rect x="32" y="32" width="32" height="32" fill="#FF9999" />
  <rect x="64" y="32" width="32" height="32" fill="#FFCCCC" />
  <rect x="96" y="32" width="32" height="32" fill="#FFFFFF" />
  <rect x="128" y="32" width="32" height="32" fill="#DDDDDD" />
  <rect x="160" y="32" width="32" height="32" fill="#F0F0F0" />
  <rect x="192" y="32" width="32" height="32" fill="#AABBEE" />
  <rect x="224" y="32" width="32" height="32" fill="#77AAFF" />
  <rect x="0" y="64" width="32" height="32" fill="#444444" />
  <rect x="32" y="64" width="32" height="32" fill="#FFCCCC" />
  <rect x="64" y="64" width="32" height="32" fill="#FFFFFF" />
  <rect x="96" y="64" width="32" height="32" fill="#F8F8F8" />
  <rect x="128" y="64" width="32" height="32" fill="#BBBBBB" />
  <rect x="160" y="64" width="32" height="32" fill="#FFFFFF" />
  <rect x="192" y="64" width="32" height="32" fill="#AACCFF" />
  <rect x="224" y="64" width="32" height="32" fill="#5599FF" />
  <rect x="0" y="96" width="32" height="32" fill="#666666" />
  <rect x="32" y="96" width="32" height="32" fill="#FF6666" />
  <rect x="64" y="96" width="32" height="32" fill="#FFFFFF" />
  <rect x="96" y="96" width="32" height="32" fill="#FFFFFF" />
  <rect x="128" y="96" width="32" height="32" fill="#BBBBBB" />
  <rect x="160" y="96" width="32" height="32" fill="#CCCCCC" />
  <rect x="192" y="96" width="32" height="32" fill="#6699FF" />
  <rect x="224" y="96" width="32" height="32" fill="#0077CC" />
  <rect x="0" y="128" width="32" height="32" fill="#888888" />
  <rect x="32" y="128" width="32" height="32" fill="#FF3333" />
  <rect x="64" y="128" width="32" height="32" fill="#FFFFFF" />
  <rect x="96" y="128" width="32" height="32" fill="#EAEBEF" />
  <rect x="128" y="128" width="32" height="32" fill="#999999" />
  <rect x="160" y="128" width="32" height="32" fill="#DDDDDD" />
  <rect x="192" y="128" width="32" height="32" fill="#88AAFF" />
  <rect x="224" y="128" width="32" height="32" fill="#005577" />
  <rect x="0" y="160" width="32" height="32" fill="#AAAAAA" />
  <rect x="32" y="160" width="32" height="32" fill="#FF0000" />
  <rect x="64" y="160" width="32" height="32" fill="#FFFFFF" />
  <rect x="96" y="160" width="32" height="32" fill="#F0F0F0" />
  <rect x="128" y="160" width="32" height="32" fill="#AAAAAA" />
  <rect x="160" y="160" width="32" height="32" fill="#BBCCDD" />
  <rect x="192" y="160" width="32" height="32" fill="#88B0FF" />
  <rect x="224" y="160" width="32" height="32" fill="#004477" />
  <rect x="0" y="192" width="32" height="32" fill="#CCCCCC" />
  <rect x="32" y="192" width="32" height="32" fill="#FF6666" />
  <rect x="64" y="192" width="32" height="32" fill="#FFFFFF" />
  <rect x="96" y="192" width="32" height="32" fill="#F0F0F0" />
  <rect x="128" y="192" width="32" height="32" fill="#DDDDDD" />
  <rect x="160" y="192" width="32" height="32" fill="#E0E0E0" />
  <rect x="192" y="192" width="32" height="32" fill="#6688CC" />
  <rect x="224" y="192" width="32" height="32" fill="#003366" />
  <rect x="0" y="224" width="32" height="32" fill="#EEEEEE" />
  <rect x="32" y="224" width="32" height="32" fill="#FFAAAA" />
  <rect x="64" y="224" width="32" height="32" fill="#555555" />
  <rect x="96" y="224" width="32" height="32" fill="#FFFFFF" />
  <rect x="128" y="224" width="32" height="32" fill="#FFFFFF" />
  <rect x="160" y="224" width="32" height="32" fill="#EEEEEE" />
  <rect x="192" y="224" width="32" height="32" fill="#5577CC" />
  <rect x="224" y="224" width="32" height="32" fill="#001100" />
</svg>
