<svg xmlns="http://www.w3.org/2000/svg" width="256" height="256" viewBox="0 0 256 256" shape-rendering="crispEdges" role="img" aria-labelledby="title desc">
  <title id="title">Echoes of Clarity and Confusion</title>
  <desc id="desc">The emotional tone represents the dichotomy between confusion and clarity, using a palette that contrasts electric blue and magenta with grounding black and lime. The vibrant colors collide, representing moments of confusion, while the black provides a stark clarity, reflecting the theme of broken symmetry. The falling pixels layout creates a chaotic yet rhythmic descent, emphasizing the contrast between structured clarity and distorted confusion. The broken edges represent the disruptions in perception, and the layout maintains a negative space to allow for reflection amidst the visual noise.</desc>
  <rect width="256" height="256" fill="#FFFFFF" />
  <rect x="0" y="0" width="32" height="32" fill="#000000" />
  <rect x="32" y="0" width="32" height="32" fill="#00FF00" />
  <rect x="64" y="0" width="32" height="32" fill="#00FFFF" />
  <rect x="96" y="0" width="32" height="32" fill="#FF00FF" />
  <rect x="128" y="0" width="32" height="32" fill="#0000FF" />
  <rect x="160" y="0" width="32" height="32" fill="#00FF00" />
  <rect x="192" y="0" width="32" height="32" fill="#000000" />
  <rect x="224" y="0" width="32" height="32" fill="#FF00FF" />
  <rect x="0" y="32" width="32" height="32" fill="#00FFFF" />
  <rect x="32" y="32" width="32" height="32" fill="#0000FF" />
  <rect x="64" y="32" width="32" height="32" fill="#00FF00" />
  <rect x="96" y="32" width="32" height="32" fill="#FF00FF" />
  <rect x="128" y="32" width="32" height="32" fill="#000000" />
  <rect x="160" y="32" width="32" height="32" fill="#00FFFF" />
  <rect x="192" y="32" width="32" height="32" fill="#00FF00" />
  <rect x="224" y="32" width="32" height="32" fill="#0000FF" />
  <rect x="0" y="64" width="32" height="32" fill="#FF0000" />
  <rect x="32" y="64" width="32" height="32" fill="#00FF00" />
  <rect x="64" y="64" width="32" height="32" fill="#000000" />
  <rect x="96" y="64" width="32" height="32" fill="#0000FF" />
  <rect x="128" y="64" width="32" height="32" fill="#FF00FF" />
  <rect x="160" y="64" width="32" height="32" fill="#00FFFF" />
  <rect x="192" y="64" width="32" height="32" fill="#FF0000" />
  <rect x="224" y="64" width="32" height="32" fill="#000000" />
  <rect x="0" y="96" width="32" height="32" fill="#00FF00" />
  <rect x="32" y="96" width="32" height="32" fill="#000000" />
  <rect x="64" y="96" width="32" height="32" fill="#00FFFF" />
  <rect x="96" y="96" width="32" height="32" fill="#FF00FF" />
  <rect x="128" y="96" width="32" height="32" fill="#0000FF" />
  <rect x="160" y="96" width="32" height="32" fill="#00FF00" />
  <rect x="192" y="96" width="32" height="32" fill="#00FFFF" />
  <rect x="224" y="96" width="32" height="32" fill="#FF0000" />
  <rect x="0" y="128" width="32" height="32" fill="#0000FF" />
  <rect x="32" y="128" width="32" height="32" fill="#00FF00" />
  <rect x="64" y="128" width="32" height="32" fill="#FF00FF" />
  <rect x="96" y="128" width="32" height="32" fill="#00FFFF" />
  <rect x="128" y="128" width="32" height="32" fill="#00FF00" />
  <rect x="160" y="128" width="32" height="32" fill="#000000" />
  <rect x="192" y="128" width="32" height="32" fill="#00FF00" />
  <rect x="224" y="128" width="32" height="32" fill="#FF00FF" />
  <rect x="0" y="160" width="32" height="32" fill="#000000" />
  <rect x="32" y="160" width="32" height="32" fill="#FF00FF" />
  <rect x="64" y="160" width="32" height="32" fill="#00FFFF" />
  <rect x="96" y="160" width="32" height="32" fill="#00FF00" />
  <rect x="128" y="160" width="32" height="32" fill="#0000FF" />
  <rect x="160" y="160" width="32" height="32" fill="#00FFFF" />
  <rect x="192" y="160" width="32" height="32" fill="#FF0000" />
  <rect x="224" y="160" width="32" height="32" fill="#00FF00" />
  <rect x="0" y="192" width="32" height="32" fill="#00FF00" />
  <rect x="32" y="192" width="32" height="32" fill="#0000FF" />
  <rect x="64" y="192" width="32" height="32" fill="#FF0000" />
  <rect x="96" y="192" width="32" height="32" fill="#00FFFF" />
  <rect x="128" y="192" width="32" height="32" fill="#FF00FF" />
  <rect x="160" y="192" width="32" height="32" fill="#00FF00" />
  <rect x="192" y="192" width="32" height="32" fill="#000000" />
  <rect x="224" y="192" width="32" height="32" fill="#00FFFF" />
  <rect x="0" y="224" width="32" height="32" fill="#000000" />
  <rect x="32" y="224" width="32" height="32" fill="#FF00FF" />
  <rect x="64" y="224" width="32" height="32" fill="#00FF00" />
  <rect x="96" y="224" width="32" height="32" fill="#0000FF" />
  <rect x="128" y="224" width="32" height="32" fill="#00FFFF" />
  <rect x="160" y="224" width="32" height="32" fill="#FF0000" />
  <rect x="192" y="224" width="32" height="32" fill="#00FF00" />
  <rect x="224" y="224" width="32" height="32" fill="#000000" />
</svg>
