<svg xmlns="http://www.w3.org/2000/svg" width="256" height="256" viewBox="0 0 256 256" shape-rendering="crispEdges" role="img" aria-labelledby="title desc">
  <title id="title">Echoes of Memory</title>
  <desc id="desc">This piece embodies the emotional tension between nostalgia and progress, with a color palette reflecting faded memories (sepia, dust gray) juxtaposed against vibrant accents (faded blue, tan). The split horizontal layout creates a visual dichotomy—one half embraces softness and the past, while the other introduces a structured rhythm of forward momentum. The jagged edges symbolize the interruptions and imperfections of memory. The central area draws the eye with a subtle imbalance, suggesting a narrative conflict between longing and ambition.</desc>
  <rect width="256" height="256" fill="#FFFFFF" />
  <rect x="0" y="0" width="32" height="32" fill="#716B5C" />
  <rect x="32" y="0" width="32" height="32" fill="#A89D8D" />
  <rect x="64" y="0" width="32" height="32" fill="#E2D4D2" />
  <rect x="96" y="0" width="32" height="32" fill="#B7A99A" />
  <rect x="128" y="0" width="32" height="32" fill="#6F4B3E" />
  <rect x="160" y="0" width="32" height="32" fill="#C4C4C4" />
  <rect x="192" y="0" width="32" height="32" fill="#B7A99A" />
  <rect x="224" y="0" width="32" height="32" fill="#6B5B49" />
  <rect x="0" y="32" width="32" height="32" fill="#E2D4D2" />
  <rect x="32" y="32" width="32" height="32" fill="#7B7D7D" />
  <rect x="64" y="32" width="32" height="32" fill="#54A7A1" />
  <rect x="96" y="32" width="32" height="32" fill="#F4F2F2" />
  <rect x="128" y="32" width="32" height="32" fill="#B7A99A" />
  <rect x="160" y="32" width="32" height="32" fill="#ECDBD7" />
  <rect x="192" y="32" width="32" height="32" fill="#6F4B3E" />
  <rect x="224" y="32" width="32" height="32" fill="#A39D9B" />
  <rect x="0" y="64" width="32" height="32" fill="#A89D8D" />
  <rect x="32" y="64" width="32" height="32" fill="#FFFFFF" />
  <rect x="64" y="64" width="32" height="32" fill="#B7A99A" />
  <rect x="96" y="64" width="32" height="32" fill="#C4C4C4" />
  <rect x="128" y="64" width="32" height="32" fill="#B7A99A" />
  <rect x="160" y="64" width="32" height="32" fill="#6B5B49" />
  <rect x="192" y="64" width="32" height="32" fill="#7FB8A5" />
  <rect x="224" y="64" width="32" height="32" fill="#716B5C" />
  <rect x="0" y="96" width="32" height="32" fill="#D0C8C7" />
  <rect x="32" y="96" width="32" height="32" fill="#E6E3E5" />
  <rect x="64" y="96" width="32" height="32" fill="#CEBEB6" />
  <rect x="96" y="96" width="32" height="32" fill="#D1D4D6" />
  <rect x="128" y="96" width="32" height="32" fill="#E3D2C9" />
  <rect x="160" y="96" width="32" height="32" fill="#D7CFC3" />
  <rect x="192" y="96" width="32" height="32" fill="#6F4B3E" />
  <rect x="224" y="96" width="32" height="32" fill="#7B7D7D" />
  <rect x="0" y="128" width="32" height="32" fill="#4C4744" />
  <rect x="32" y="128" width="32" height="32" fill="#A89D8D" />
  <rect x="64" y="128" width="32" height="32" fill="#E2D4D2" />
  <rect x="96" y="128" width="32" height="32" fill="#6B5B49" />
  <rect x="128" y="128" width="32" height="32" fill="#C4C4C4" />
  <rect x="160" y="128" width="32" height="32" fill="#716B5C" />
  <rect x="192" y="128" width="32" height="32" fill="#7FB8A5" />
  <rect x="224" y="128" width="32" height="32" fill="#E2D4D2" />
  <rect x="0" y="160" width="32" height="32" fill="#6B5B49" />
  <rect x="32" y="160" width="32" height="32" fill="#C4C4C4" />
  <rect x="64" y="160" width="32" height="32" fill="#B7A99A" />
  <rect x="96" y="160" width="32" height="32" fill="#716B5C" />
  <rect x="128" y="160" width="32" height="32" fill="#7B7D7D" />
  <rect x="160" y="160" width="32" height="32" fill="#D4CAB7" />
  <rect x="192" y="160" width="32" height="32" fill="#E6E3E5" />
  <rect x="224" y="160" width="32" height="32" fill="#A39D9B" />
  <rect x="0" y="192" width="32" height="32" fill="#6F4B3E" />
  <rect x="32" y="192" width="32" height="32" fill="#B7A99A" />
  <rect x="64" y="192" width="32" height="32" fill="#D0C8C7" />
  <rect x="96" y="192" width="32" height="32" fill="#4C4744" />
  <rect x="128" y="192" width="32" height="32" fill="#B7A99A" />
  <rect x="160" y="192" width="32" height="32" fill="#F4F2F2" />
  <rect x="192" y="192" width="32" height="32" fill="#E3D2C9" />
  <rect x="224" y="192" width="32" height="32" fill="#6B5B49" />
  <rect x="0" y="224" width="32" height="32" fill="#716B5C" />
  <rect x="32" y="224" width="32" height="32" fill="#E6E3E5" />
  <rect x="64" y="224" width="32" height="32" fill="#6B5B49" />
  <rect x="96" y="224" width="32" height="32" fill="#C4C4C4" />
  <rect x="128" y="224" width="32" height="32" fill="#D1D4D6" />
  <rect x="160" y="224" width="32" height="32" fill="#C4C4C4" />
  <rect x="192" y="224" width="32" height="32" fill="#7FB8A5" />
  <rect x="224" y="224" width="32" height="32" fill="#B7A99A" />
</svg>
