<svg xmlns="http://www.w3.org/2000/svg" width="256" height="256" viewBox="0 0 256 256" shape-rendering="crispEdges" role="img" aria-labelledby="title desc">
  <title id="title">Inner Turmoil</title>
  <desc id="desc">The emotional tone combines the tension of tenderness and rage. The palette of deep red and pale blue contrasts the explosive feeling of rage with the calm of tenderness. The primary collision occurs at the center, where dense clusters of intense colors reflect the struggle between these emotions. The layout of an inner 'island' of sharp red crosshatch patterns encased by calmer blue tones illustrates the push and pull of the emotions, while the broken pixels signify the imperfections experienced in this emotional turbulence.</desc>
  <rect width="256" height="256" fill="#FFFFFF" />
  <rect x="0" y="0" width="32" height="32" fill="#000000" />
  <rect x="32" y="0" width="32" height="32" fill="#FF0000" />
  <rect x="64" y="0" width="32" height="32" fill="#FF5959" />
  <rect x="96" y="0" width="32" height="32" fill="#FF7575" />
  <rect x="128" y="0" width="32" height="32" fill="#FF9191" />
  <rect x="160" y="0" width="32" height="32" fill="#FFD1D1" />
  <rect x="192" y="0" width="32" height="32" fill="#A8D8FF" />
  <rect x="224" y="0" width="32" height="32" fill="#FFFFFF" />
  <rect x="0" y="32" width="32" height="32" fill="#000000" />
  <rect x="32" y="32" width="32" height="32" fill="#FF0000" />
  <rect x="64" y="32" width="32" height="32" fill="#E74C3C" />
  <rect x="96" y="32" width="32" height="32" fill="#FF7F7F" />
  <rect x="128" y="32" width="32" height="32" fill="#FFD1D1" />
  <rect x="160" y="32" width="32" height="32" fill="#A8D8FF" />
  <rect x="192" y="32" width="32" height="32" fill="#BDE0FE" />
  <rect x="224" y="32" width="32" height="32" fill="#FFFFFF" />
  <rect x="0" y="64" width="32" height="32" fill="#000000" />
  <rect x="32" y="64" width="32" height="32" fill="#D3D3D3" />
  <rect x="64" y="64" width="32" height="32" fill="#808080" />
  <rect x="96" y="64" width="32" height="32" fill="#FF9090" />
  <rect x="128" y="64" width="32" height="32" fill="#FFB3B3" />
  <rect x="160" y="64" width="32" height="32" fill="#A8D8FF" />
  <rect x="192" y="64" width="32" height="32" fill="#B6E1F3" />
  <rect x="224" y="64" width="32" height="32" fill="#FFFFFF" />
  <rect x="0" y="96" width="32" height="32" fill="#B0C4DE" />
  <rect x="32" y="96" width="32" height="32" fill="#F0F0F0" />
  <rect x="64" y="96" width="32" height="32" fill="#D0E1F9" />
  <rect x="96" y="96" width="32" height="32" fill="#FFB3B3" />
  <rect x="128" y="96" width="32" height="32" fill="#F1F1F1" />
  <rect x="160" y="96" width="32" height="32" fill="#A8D8FF" />
  <rect x="192" y="96" width="32" height="32" fill="#B1E7F1" />
  <rect x="224" y="96" width="32" height="32" fill="#FFFFFF" />
  <rect x="0" y="128" width="32" height="32" fill="#000000" />
  <rect x="32" y="128" width="32" height="32" fill="#D3D3D3" />
  <rect x="64" y="128" width="32" height="32" fill="#808080" />
  <rect x="96" y="128" width="32" height="32" fill="#FF4040" />
  <rect x="128" y="128" width="32" height="32" fill="#FF7070" />
  <rect x="160" y="128" width="32" height="32" fill="#FFD1D1" />
  <rect x="192" y="128" width="32" height="32" fill="#B6E1F3" />
  <rect x="224" y="128" width="32" height="32" fill="#FFFFFF" />
  <rect x="0" y="160" width="32" height="32" fill="#FFFFFF" />
  <rect x="32" y="160" width="32" height="32" fill="#B3CDE0" />
  <rect x="64" y="160" width="32" height="32" fill="#FF6F61" />
  <rect x="96" y="160" width="32" height="32" fill="#FF8585" />
  <rect x="128" y="160" width="32" height="32" fill="#B8E0F9" />
  <rect x="160" y="160" width="32" height="32" fill="#D1F1F9" />
  <rect x="192" y="160" width="32" height="32" fill="#BDE0FE" />
  <rect x="224" y="160" width="32" height="32" fill="#FFFFFF" />
  <rect x="0" y="192" width="32" height="32" fill="#000000" />
  <rect x="32" y="192" width="32" height="32" fill="#E0E0E0" />
  <rect x="64" y="192" width="32" height="32" fill="#666666" />
  <rect x="96" y="192" width="32" height="32" fill="#FF3333" />
  <rect x="128" y="192" width="32" height="32" fill="#FF9999" />
  <rect x="160" y="192" width="32" height="32" fill="#FFB3B3" />
  <rect x="192" y="192" width="32" height="32" fill="#9BD4F0" />
  <rect x="224" y="192" width="32" height="32" fill="#FFFFFF" />
  <rect x="0" y="224" width="32" height="32" fill="#404040" />
  <rect x="32" y="224" width="32" height="32" fill="#FF6666" />
  <rect x="64" y="224" width="32" height="32" fill="#F8D7DA" />
  <rect x="96" y="224" width="32" height="32" fill="#D1F7D2" />
  <rect x="128" y="224" width="32" height="32" fill="#B0E0F0" />
  <rect x="160" y="224" width="32" height="32" fill="#FF9797" />
  <rect x="192" y="224" width="32" height="32" fill="#A37CE4" />
  <rect x="224" y="224" width="32" height="32" fill="#FFFFFF" />
</svg>
