<svg xmlns="http://www.w3.org/2000/svg" width="256" height="256" viewBox="0 0 256 256" shape-rendering="crispEdges" role="img" aria-labelledby="title desc">
  <title id="title">Fractured Pulse</title>
  <desc id="desc">The emotional tone reflects a clash between clarity and confusion, where the bold contrasts of black, white, and pale blue serve to emphasize the chaotic nature of uncertain symmetry. The entire piece plays out through a tension between dense areas and negative space, with the pulse of the tiny plus shape acting as a central focus that is subtly interrupted by broken pixels. This approach creates visual conflict—phases of calm surrounded by moments of disruption, echoing the essence of confusion breaking through clarity.</desc>
  <rect width="256" height="256" fill="#FFFFFF" />
  <rect x="0" y="0" width="32" height="32" fill="#FFFFFF" />
  <rect x="32" y="0" width="32" height="32" fill="#FFFFFF" />
  <rect x="64" y="0" width="32" height="32" fill="#FFFFFF" />
  <rect x="96" y="0" width="32" height="32" fill="#FFFFFF" />
  <rect x="128" y="0" width="32" height="32" fill="#000000" />
  <rect x="160" y="0" width="32" height="32" fill="#000000" />
  <rect x="192" y="0" width="32" height="32" fill="#000000" />
  <rect x="224" y="0" width="32" height="32" fill="#000000" />
  <rect x="0" y="32" width="32" height="32" fill="#FFFFFF" />
  <rect x="32" y="32" width="32" height="32" fill="#FFFFFF" />
  <rect x="64" y="32" width="32" height="32" fill="#F0F0F0" />
  <rect x="96" y="32" width="32" height="32" fill="#F0F0F0" />
  <rect x="128" y="32" width="32" height="32" fill="#E6E6E6" />
  <rect x="160" y="32" width="32" height="32" fill="#E6E6E6" />
  <rect x="192" y="32" width="32" height="32" fill="#000000" />
  <rect x="224" y="32" width="32" height="32" fill="#000000" />
  <rect x="0" y="64" width="32" height="32" fill="#E6E6E6" />
  <rect x="32" y="64" width="32" height="32" fill="#D4D4D4" />
  <rect x="64" y="64" width="32" height="32" fill="#D4D4D4" />
  <rect x="96" y="64" width="32" height="32" fill="#D4D4D4" />
  <rect x="128" y="64" width="32" height="32" fill="#D4D4D4" />
  <rect x="160" y="64" width="32" height="32" fill="#001F3F" />
  <rect x="192" y="64" width="32" height="32" fill="#001F3F" />
  <rect x="224" y="64" width="32" height="32" fill="#000000" />
  <rect x="0" y="96" width="32" height="32" fill="#F9F9F9" />
  <rect x="32" y="96" width="32" height="32" fill="#FFFFFF" />
  <rect x="64" y="96" width="32" height="32" fill="#AABBCC" />
  <rect x="96" y="96" width="32" height="32" fill="#AABBCC" />
  <rect x="128" y="96" width="32" height="32" fill="#AABBCC" />
  <rect x="160" y="96" width="32" height="32" fill="#AABBCC" />
  <rect x="192" y="96" width="32" height="32" fill="#FFFFFF" />
  <rect x="224" y="96" width="32" height="32" fill="#000000" />
  <rect x="0" y="128" width="32" height="32" fill="#000000" />
  <rect x="32" y="128" width="32" height="32" fill="#000000" />
  <rect x="64" y="128" width="32" height="32" fill="#111111" />
  <rect x="96" y="128" width="32" height="32" fill="#111111" />
  <rect x="128" y="128" width="32" height="32" fill="#111111" />
  <rect x="160" y="128" width="32" height="32" fill="#AAAAAA" />
  <rect x="192" y="128" width="32" height="32" fill="#F0F0F0" />
  <rect x="224" y="128" width="32" height="32" fill="#FFFFFF" />
  <rect x="0" y="160" width="32" height="32" fill="#B3CDE0" />
  <rect x="32" y="160" width="32" height="32" fill="#B3CDE0" />
  <rect x="64" y="160" width="32" height="32" fill="#B3CDE0" />
  <rect x="96" y="160" width="32" height="32" fill="#CCCCCC" />
  <rect x="128" y="160" width="32" height="32" fill="#CCCCCC" />
  <rect x="160" y="160" width="32" height="32" fill="#CCCCCC" />
  <rect x="192" y="160" width="32" height="32" fill="#FFFFFF" />
  <rect x="224" y="160" width="32" height="32" fill="#000000" />
  <rect x="0" y="192" width="32" height="32" fill="#AAAAAA" />
  <rect x="32" y="192" width="32" height="32" fill="#AAAAAA" />
  <rect x="64" y="192" width="32" height="32" fill="#FFFFFF" />
  <rect x="96" y="192" width="32" height="32" fill="#FFFFFF" />
  <rect x="128" y="192" width="32" height="32" fill="#F9F9F9" />
  <rect x="160" y="192" width="32" height="32" fill="#E6E6E6" />
  <rect x="192" y="192" width="32" height="32" fill="#F0F0F0" />
  <rect x="224" y="192" width="32" height="32" fill="#000000" />
  <rect x="0" y="224" width="32" height="32" fill="#000000" />
  <rect x="32" y="224" width="32" height="32" fill="#000000" />
  <rect x="64" y="224" width="32" height="32" fill="#000000" />
  <rect x="96" y="224" width="32" height="32" fill="#001F3F" />
  <rect x="128" y="224" width="32" height="32" fill="#B3CDE0" />
  <rect x="160" y="224" width="32" height="32" fill="#B3CDE0" />
  <rect x="192" y="224" width="32" height="32" fill="#D4D4D4" />
  <rect x="224" y="224" width="32" height="32" fill="#FFFFFF" />
</svg>
