<svg xmlns="http://www.w3.org/2000/svg" width="256" height="256" viewBox="0 0 256 256" shape-rendering="crispEdges" role="img" aria-labelledby="title desc">
  <title id="title">Echo of Tension</title>
  <desc id="desc">The emotional tone explores the struggle between longing and resolve, creating tension through contrasting elements. The palette, characterized by muted grays and a striking red, reflects the somber yet dynamic interplay of feelings: the red symbolizes urgent longing while the grays denote serene resolution. The top four rows are filled using thin pulse-like marks, presenting a rhythm that beckons while the bottom four rows settle into a static, stable pattern, embodying clear boundaries. The main collision occurs between the soft edges and compressed forms in the center, creating an echo of feeling that pulls the eye inward, bridging the dichotomy expressed in the seed.</desc>
  <rect width="256" height="256" fill="#FFFFFF" />
  <rect x="0" y="0" width="32" height="32" fill="#F8F8F0" />
  <rect x="32" y="0" width="32" height="32" fill="#E2E2DD" />
  <rect x="64" y="0" width="32" height="32" fill="#D0D0D0" />
  <rect x="96" y="0" width="32" height="32" fill="#B8B8C4" />
  <rect x="128" y="0" width="32" height="32" fill="#A2A2B8" />
  <rect x="160" y="0" width="32" height="32" fill="#505050" />
  <rect x="192" y="0" width="32" height="32" fill="#B03030" />
  <rect x="224" y="0" width="32" height="32" fill="#C3C3C3" />
  <rect x="0" y="32" width="32" height="32" fill="#F0F0E1" />
  <rect x="32" y="32" width="32" height="32" fill="#D3D3CC" />
  <rect x="64" y="32" width="32" height="32" fill="#B5B5BA" />
  <rect x="96" y="32" width="32" height="32" fill="#93939E" />
  <rect x="128" y="32" width="32" height="32" fill="#7A7A8E" />
  <rect x="160" y="32" width="32" height="32" fill="#353535" />
  <rect x="192" y="32" width="32" height="32" fill="#930F0F" />
  <rect x="224" y="32" width="32" height="32" fill="#C8C8C8" />
  <rect x="0" y="64" width="32" height="32" fill="#EAEAEA" />
  <rect x="32" y="64" width="32" height="32" fill="#E1E1E1" />
  <rect x="64" y="64" width="32" height="32" fill="#CFCFCF" />
  <rect x="96" y="64" width="32" height="32" fill="#B5B5BC" />
  <rect x="128" y="64" width="32" height="32" fill="#ABABAB" />
  <rect x="160" y="64" width="32" height="32" fill="#404450" />
  <rect x="192" y="64" width="32" height="32" fill="#9F0000" />
  <rect x="224" y="64" width="32" height="32" fill="#C0C0C0" />
  <rect x="0" y="96" width="32" height="32" fill="#FFFFFF" />
  <rect x="32" y="96" width="32" height="32" fill="#D9D9D9" />
  <rect x="64" y="96" width="32" height="32" fill="#E6E6E6" />
  <rect x="96" y="96" width="32" height="32" fill="#979797" />
  <rect x="128" y="96" width="32" height="32" fill="#888888" />
  <rect x="160" y="96" width="32" height="32" fill="#2B2B2B" />
  <rect x="192" y="96" width="32" height="32" fill="#880000" />
  <rect x="224" y="96" width="32" height="32" fill="#C4C4C4" />
  <rect x="0" y="128" width="32" height="32" fill="#F4F4F0" />
  <rect x="32" y="128" width="32" height="32" fill="#D0D0D0" />
  <rect x="64" y="128" width="32" height="32" fill="#BDBDBD" />
  <rect x="96" y="128" width="32" height="32" fill="#B0B0B0" />
  <rect x="128" y="128" width="32" height="32" fill="#9B9B9B" />
  <rect x="160" y="128" width="32" height="32" fill="#545454" />
  <rect x="192" y="128" width="32" height="32" fill="#E0191E" />
  <rect x="224" y="128" width="32" height="32" fill="#B8B8B8" />
  <rect x="0" y="160" width="32" height="32" fill="#E1E1E0" />
  <rect x="32" y="160" width="32" height="32" fill="#D7D7D7" />
  <rect x="64" y="160" width="32" height="32" fill="#A9A9A9" />
  <rect x="96" y="160" width="32" height="32" fill="#929292" />
  <rect x="128" y="160" width="32" height="32" fill="#868686" />
  <rect x="160" y="160" width="32" height="32" fill="#606060" />
  <rect x="192" y="160" width="32" height="32" fill="#CB0000" />
  <rect x="224" y="160" width="32" height="32" fill="#A2A2A2" />
  <rect x="0" y="192" width="32" height="32" fill="#F3F3F3" />
  <rect x="32" y="192" width="32" height="32" fill="#D1D1D1" />
  <rect x="64" y="192" width="32" height="32" fill="#B8B8B8" />
  <rect x="96" y="192" width="32" height="32" fill="#919191" />
  <rect x="128" y="192" width="32" height="32" fill="#777777" />
  <rect x="160" y="192" width="32" height="32" fill="#444444" />
  <rect x="192" y="192" width="32" height="32" fill="#AB0000" />
  <rect x="224" y="192" width="32" height="32" fill="#A0A0A0" />
  <rect x="0" y="224" width="32" height="32" fill="#FAFAFA" />
  <rect x="32" y="224" width="32" height="32" fill="#E6E6E6" />
  <rect x="64" y="224" width="32" height="32" fill="#C0C0C0" />
  <rect x="96" y="224" width="32" height="32" fill="#9B9B9B" />
  <rect x="128" y="224" width="32" height="32" fill="#788AA3" />
  <rect x="160" y="224" width="32" height="32" fill="#2C2C2C" />
  <rect x="192" y="224" width="32" height="32" fill="#B12828" />
  <rect x="224" y="224" width="32" height="32" fill="#C8C8C8" />
</svg>
