<svg xmlns="http://www.w3.org/2000/svg" width="256" height="256" viewBox="0 0 256 256" shape-rendering="crispEdges" role="img" aria-labelledby="title desc">
  <title id="title">Dynamic Tension</title>
  <desc id="desc">This composition explores the emotional contrast between restlessness and peace through a carefully selected palette that signifies fear and hope. The dark hues of black and dark violet represent the weight of restlessness, while soft gold and pale green add a touch of peace. The main collision occurs centrally, where lighter accents disrupt the denser fields, illustrating a struggle between calm and chaos. The use of broken pixels simulates the imperfections of memory and motion, embodying both tension and unresolved feelings.</desc>
  <rect width="256" height="256" fill="#FFFFFF" />
  <rect x="0" y="0" width="32" height="32" fill="#000000" />
  <rect x="32" y="0" width="32" height="32" fill="#000000" />
  <rect x="64" y="0" width="32" height="32" fill="#3E1A78" />
  <rect x="96" y="0" width="32" height="32" fill="#3E1A78" />
  <rect x="128" y="0" width="32" height="32" fill="#B39F00" />
  <rect x="160" y="0" width="32" height="32" fill="#B39F00" />
  <rect x="192" y="0" width="32" height="32" fill="#000000" />
  <rect x="224" y="0" width="32" height="32" fill="#000000" />
  <rect x="0" y="32" width="32" height="32" fill="#000000" />
  <rect x="32" y="32" width="32" height="32" fill="#000000" />
  <rect x="64" y="32" width="32" height="32" fill="#3E1A78" />
  <rect x="96" y="32" width="32" height="32" fill="#3E1A78" />
  <rect x="128" y="32" width="32" height="32" fill="#B39F00" />
  <rect x="160" y="32" width="32" height="32" fill="#B39F00" />
  <rect x="192" y="32" width="32" height="32" fill="#000000" />
  <rect x="224" y="32" width="32" height="32" fill="#000000" />
  <rect x="0" y="64" width="32" height="32" fill="#B39F00" />
  <rect x="32" y="64" width="32" height="32" fill="#B39F00" />
  <rect x="64" y="64" width="32" height="32" fill="#3E1A78" />
  <rect x="96" y="64" width="32" height="32" fill="#3E1A78" />
  <rect x="128" y="64" width="32" height="32" fill="#B39F00" />
  <rect x="160" y="64" width="32" height="32" fill="#B39F00" />
  <rect x="192" y="64" width="32" height="32" fill="#000000" />
  <rect x="224" y="64" width="32" height="32" fill="#000000" />
  <rect x="0" y="96" width="32" height="32" fill="#B39F00" />
  <rect x="32" y="96" width="32" height="32" fill="#B39F00" />
  <rect x="64" y="96" width="32" height="32" fill="#B39F00" />
  <rect x="96" y="96" width="32" height="32" fill="#3E1A78" />
  <rect x="128" y="96" width="32" height="32" fill="#3E1A78" />
  <rect x="160" y="96" width="32" height="32" fill="#B39F00" />
  <rect x="192" y="96" width="32" height="32" fill="#000000" />
  <rect x="224" y="96" width="32" height="32" fill="#000000" />
  <rect x="0" y="128" width="32" height="32" fill="#B39F00" />
  <rect x="32" y="128" width="32" height="32" fill="#B39F00" />
  <rect x="64" y="128" width="32" height="32" fill="#3E1A78" />
  <rect x="96" y="128" width="32" height="32" fill="#3E1A78" />
  <rect x="128" y="128" width="32" height="32" fill="#B39F00" />
  <rect x="160" y="128" width="32" height="32" fill="#B39F00" />
  <rect x="192" y="128" width="32" height="32" fill="#000000" />
  <rect x="224" y="128" width="32" height="32" fill="#000000" />
  <rect x="0" y="160" width="32" height="32" fill="#B39F00" />
  <rect x="32" y="160" width="32" height="32" fill="#3E1A78" />
  <rect x="64" y="160" width="32" height="32" fill="#3E1A78" />
  <rect x="96" y="160" width="32" height="32" fill="#3E1A78" />
  <rect x="128" y="160" width="32" height="32" fill="#B39F00" />
  <rect x="160" y="160" width="32" height="32" fill="#B39F00" />
  <rect x="192" y="160" width="32" height="32" fill="#000000" />
  <rect x="224" y="160" width="32" height="32" fill="#000000" />
  <rect x="0" y="192" width="32" height="32" fill="#B39F00" />
  <rect x="32" y="192" width="32" height="32" fill="#B39F00" />
  <rect x="64" y="192" width="32" height="32" fill="#B39F00" />
  <rect x="96" y="192" width="32" height="32" fill="#3E1A78" />
  <rect x="128" y="192" width="32" height="32" fill="#3E1A78" />
  <rect x="160" y="192" width="32" height="32" fill="#B39F00" />
  <rect x="192" y="192" width="32" height="32" fill="#000000" />
  <rect x="224" y="192" width="32" height="32" fill="#000000" />
  <rect x="0" y="224" width="32" height="32" fill="#000000" />
  <rect x="32" y="224" width="32" height="32" fill="#000000" />
  <rect x="64" y="224" width="32" height="32" fill="#000000" />
  <rect x="96" y="224" width="32" height="32" fill="#3E1A78" />
  <rect x="128" y="224" width="32" height="32" fill="#3E1A78" />
  <rect x="160" y="224" width="32" height="32" fill="#000000" />
  <rect x="192" y="224" width="32" height="32" fill="#000000" />
  <rect x="224" y="224" width="32" height="32" fill="#000000" />
</svg>
