<svg xmlns="http://www.w3.org/2000/svg" width="256" height="256" viewBox="0 0 256 256" shape-rendering="crispEdges" role="img" aria-labelledby="title desc">
  <title id="title">Echoes of Transition</title>
  <desc id="desc">This composition captures the tension between nostalgia and progress through contrasting color fields and disrupted patterns. The palette of black, dark violet, soft gold, and pale green reflects the duality of memory (soft gold and pale green) interspersed with the starkness of progress (black and dark violet). The top half uses structured, circular patterns to evoke progress, while the bottom half features noise, symbolizing chaotic nostalgia. The broken pixel aesthetic represents imperfections and interruptions in memory as well as the interruptions of modernity. The overall layout gives a sense of mirroring, yet the intentional misplacement of a few pixels creates a sense of tension and release, embodying the conflict between the two emotional states.</desc>
  <rect width="256" height="256" fill="#FFFFFF" />
  <rect x="0" y="0" width="32" height="32" fill="#000000" />
  <rect x="32" y="0" width="32" height="32" fill="#000000" />
  <rect x="64" y="0" width="32" height="32" fill="#372B55" />
  <rect x="96" y="0" width="32" height="32" fill="#422B76" />
  <rect x="128" y="0" width="32" height="32" fill="#6F007D" />
  <rect x="160" y="0" width="32" height="32" fill="#B16C59" />
  <rect x="192" y="0" width="32" height="32" fill="#D9A86D" />
  <rect x="224" y="0" width="32" height="32" fill="#FFD700" />
  <rect x="0" y="32" width="32" height="32" fill="#000000" />
  <rect x="32" y="32" width="32" height="32" fill="#5B3F80" />
  <rect x="64" y="32" width="32" height="32" fill="#634DAA" />
  <rect x="96" y="32" width="32" height="32" fill="#845EB6" />
  <rect x="128" y="32" width="32" height="32" fill="#C0A1CC" />
  <rect x="160" y="32" width="32" height="32" fill="#BDADE1" />
  <rect x="192" y="32" width="32" height="32" fill="#D7D7DB" />
  <rect x="224" y="32" width="32" height="32" fill="#FFFFFF" />
  <rect x="0" y="64" width="32" height="32" fill="#1A1A1A" />
  <rect x="32" y="64" width="32" height="32" fill="#5E5D76" />
  <rect x="64" y="64" width="32" height="32" fill="#84889D" />
  <rect x="96" y="64" width="32" height="32" fill="#AFA5C9" />
  <rect x="128" y="64" width="32" height="32" fill="#D5C7E0" />
  <rect x="160" y="64" width="32" height="32" fill="#E1E1E1" />
  <rect x="192" y="64" width="32" height="32" fill="#F4F4F4" />
  <rect x="224" y="64" width="32" height="32" fill="#F4F4F4" />
  <rect x="0" y="96" width="32" height="32" fill="#111111" />
  <rect x="32" y="96" width="32" height="32" fill="#3D3A4D" />
  <rect x="64" y="96" width="32" height="32" fill="#6B637E" />
  <rect x="96" y="96" width="32" height="32" fill="#8D82C2" />
  <rect x="128" y="96" width="32" height="32" fill="#B19BC5" />
  <rect x="160" y="96" width="32" height="32" fill="#D5B7D9" />
  <rect x="192" y="96" width="32" height="32" fill="#EDEDED" />
  <rect x="224" y="96" width="32" height="32" fill="#EDEDED" />
  <rect x="0" y="128" width="32" height="32" fill="#000000" />
  <rect x="32" y="128" width="32" height="32" fill="#3B3B40" />
  <rect x="64" y="128" width="32" height="32" fill="#546266" />
  <rect x="96" y="128" width="32" height="32" fill="#89A05B" />
  <rect x="128" y="128" width="32" height="32" fill="#A9DA94" />
  <rect x="160" y="128" width="32" height="32" fill="#CED7B4" />
  <rect x="192" y="128" width="32" height="32" fill="#E0E9D7" />
  <rect x="224" y="128" width="32" height="32" fill="#E0E9D7" />
  <rect x="0" y="160" width="32" height="32" fill="#1E1E1E" />
  <rect x="32" y="160" width="32" height="32" fill="#384851" />
  <rect x="64" y="160" width="32" height="32" fill="#4D7F65" />
  <rect x="96" y="160" width="32" height="32" fill="#8AB497" />
  <rect x="128" y="160" width="32" height="32" fill="#B9E3A3" />
  <rect x="160" y="160" width="32" height="32" fill="#D5F5C8" />
  <rect x="192" y="160" width="32" height="32" fill="#E1E0E0" />
  <rect x="224" y="160" width="32" height="32" fill="#E1E0E0" />
  <rect x="0" y="192" width="32" height="32" fill="#2A2A2A" />
  <rect x="32" y="192" width="32" height="32" fill="#474B5E" />
  <rect x="64" y="192" width="32" height="32" fill="#646D7A" />
  <rect x="96" y="192" width="32" height="32" fill="#A4B2B4" />
  <rect x="128" y="192" width="32" height="32" fill="#BDF3C7" />
  <rect x="160" y="192" width="32" height="32" fill="#E8F2E0" />
  <rect x="192" y="192" width="32" height="32" fill="#F6F6F6" />
  <rect x="224" y="192" width="32" height="32" fill="#F6F6F6" />
  <rect x="0" y="224" width="32" height="32" fill="#4B4B4B" />
  <rect x="32" y="224" width="32" height="32" fill="#6C7DA9" />
  <rect x="64" y="224" width="32" height="32" fill="#9B99CC" />
  <rect x="96" y="224" width="32" height="32" fill="#B6A4D4" />
  <rect x="128" y="224" width="32" height="32" fill="#DFD0E1" />
  <rect x="160" y="224" width="32" height="32" fill="#EAEAEF" />
  <rect x="192" y="224" width="32" height="32" fill="#F4F4F4" />
  <rect x="224" y="224" width="32" height="32" fill="#FFFFFF" />
</svg>
