<svg xmlns="http://www.w3.org/2000/svg" width="256" height="256" viewBox="0 0 256 256" shape-rendering="crispEdges" role="img" aria-labelledby="title desc">
  <title id="title">Tension of Release</title>
  <desc id="desc">The emotional tone captures the tension between control and surrender, reflecting an interplay of dense, warm colors against muted and cool hues. The chosen palette of sepia, tan, dust gray, and faded blue suggests a memory-like quality, where warm colors symbolize pressure and control, while cooler tones imply freedom and a soft yielding. The primary collision occurs at the center, creating an overflow effect surrounded by a muted frame, embodying a visual tension between contained pressure and moments of release. This arrangement emphasizes the struggle between confinement and abundance, leveraging asymmetry and broken pixels for added depth and complexity.</desc>
  <rect width="256" height="256" fill="#FFFFFF" />
  <rect x="0" y="0" width="32" height="32" fill="#C2A174" />
  <rect x="32" y="0" width="32" height="32" fill="#D4C4A5" />
  <rect x="64" y="0" width="32" height="32" fill="#694F42" />
  <rect x="96" y="0" width="32" height="32" fill="#B56E42" />
  <rect x="128" y="0" width="32" height="32" fill="#E9C4B2" />
  <rect x="160" y="0" width="32" height="32" fill="#D4C4B5" />
  <rect x="192" y="0" width="32" height="32" fill="#E3D4D4" />
  <rect x="224" y="0" width="32" height="32" fill="#121D25" />
  <rect x="0" y="32" width="32" height="32" fill="#E6C2BE" />
  <rect x="32" y="32" width="32" height="32" fill="#D4A75E" />
  <rect x="64" y="32" width="32" height="32" fill="#C8BCE4" />
  <rect x="96" y="32" width="32" height="32" fill="#ABB6B5" />
  <rect x="128" y="32" width="32" height="32" fill="#F8E4CD" />
  <rect x="160" y="32" width="32" height="32" fill="#A79384" />
  <rect x="192" y="32" width="32" height="32" fill="#E3C7AB" />
  <rect x="224" y="32" width="32" height="32" fill="#2D3F44" />
  <rect x="0" y="64" width="32" height="32" fill="#876E54" />
  <rect x="32" y="64" width="32" height="32" fill="#C3B7A7" />
  <rect x="64" y="64" width="32" height="32" fill="#BC8C71" />
  <rect x="96" y="64" width="32" height="32" fill="#D4E2F2" />
  <rect x="128" y="64" width="32" height="32" fill="#150910" />
  <rect x="160" y="64" width="32" height="32" fill="#6F5436" />
  <rect x="192" y="64" width="32" height="32" fill="#785644" />
  <rect x="224" y="64" width="32" height="32" fill="#152023" />
  <rect x="0" y="96" width="32" height="32" fill="#4C4F7C" />
  <rect x="32" y="96" width="32" height="32" fill="#C8E1DC" />
  <rect x="64" y="96" width="32" height="32" fill="#56C5B6" />
  <rect x="96" y="96" width="32" height="32" fill="#6AA5A0" />
  <rect x="128" y="96" width="32" height="32" fill="#896453" />
  <rect x="160" y="96" width="32" height="32" fill="#E4C2B4" />
  <rect x="192" y="96" width="32" height="32" fill="#E3E0E5" />
  <rect x="224" y="96" width="32" height="32" fill="#15163A" />
  <rect x="0" y="128" width="32" height="32" fill="#E1D7D5" />
  <rect x="32" y="128" width="32" height="32" fill="#413F47" />
  <rect x="64" y="128" width="32" height="32" fill="#B68C8B" />
  <rect x="96" y="128" width="32" height="32" fill="#A1A8A7" />
  <rect x="128" y="128" width="32" height="32" fill="#B3C6C2" />
  <rect x="160" y="128" width="32" height="32" fill="#C1AE92" />
  <rect x="192" y="128" width="32" height="32" fill="#9A8D7A" />
  <rect x="224" y="128" width="32" height="32" fill="#161D23" />
  <rect x="0" y="160" width="32" height="32" fill="#A75D59" />
  <rect x="32" y="160" width="32" height="32" fill="#D25E56" />
  <rect x="64" y="160" width="32" height="32" fill="#B47261" />
  <rect x="96" y="160" width="32" height="32" fill="#864B44" />
  <rect x="128" y="160" width="32" height="32" fill="#7B5A58" />
  <rect x="160" y="160" width="32" height="32" fill="#C3B2A3" />
  <rect x="192" y="160" width="32" height="32" fill="#888A8D" />
  <rect x="224" y="160" width="32" height="32" fill="#2F3739" />
  <rect x="0" y="192" width="32" height="32" fill="#F3E5E2" />
  <rect x="32" y="192" width="32" height="32" fill="#DEC099" />
  <rect x="64" y="192" width="32" height="32" fill="#EDC9B7" />
  <rect x="96" y="192" width="32" height="32" fill="#F4EFC2" />
  <rect x="128" y="192" width="32" height="32" fill="#D3D0C5" />
  <rect x="160" y="192" width="32" height="32" fill="#8C8C8C" />
  <rect x="192" y="192" width="32" height="32" fill="#7B6B6C" />
  <rect x="224" y="192" width="32" height="32" fill="#1A2326" />
  <rect x="0" y="224" width="32" height="32" fill="#8E7D6C" />
  <rect x="32" y="224" width="32" height="32" fill="#E5B795" />
  <rect x="64" y="224" width="32" height="32" fill="#6F3B3A" />
  <rect x="96" y="224" width="32" height="32" fill="#20404B" />
  <rect x="128" y="224" width="32" height="32" fill="#DDDFDB" />
  <rect x="160" y="224" width="32" height="32" fill="#B8B09D" />
  <rect x="192" y="224" width="32" height="32" fill="#4A5454" />
  <rect x="224" y="224" width="32" height="32" fill="#1A2529" />
</svg>
