<svg xmlns="http://www.w3.org/2000/svg" width="256" height="256" viewBox="0 0 256 256" shape-rendering="crispEdges" role="img" aria-labelledby="title desc">
  <title id="title">Tension and Release</title>
  <desc id="desc">This artwork embodies a dynamic interplay between longing and resolve through a palette of muted and saturated tones. The colors reflect a sense of nostalgia (sepia and tan) intertwined with the urgency of repair (dust gray and faded blue). The core collision occurs in the center, where a denser patchwork suggests the complexity of emotions while surrounding quiet fields symbolize serenity, creating a bridge across the tension. The flow spirals outward, reinforcing this emotional narrative.</desc>
  <rect width="256" height="256" fill="#FFFFFF" />
  <rect x="0" y="0" width="32" height="32" fill="#BCAAA2" />
  <rect x="32" y="0" width="32" height="32" fill="#D5C4B1" />
  <rect x="64" y="0" width="32" height="32" fill="#D9D3C3" />
  <rect x="96" y="0" width="32" height="32" fill="#F1E3D0" />
  <rect x="128" y="0" width="32" height="32" fill="#E1C8B2" />
  <rect x="160" y="0" width="32" height="32" fill="#C6B6A4" />
  <rect x="192" y="0" width="32" height="32" fill="#A6A7A5" />
  <rect x="224" y="0" width="32" height="32" fill="#EDEDE2" />
  <rect x="0" y="32" width="32" height="32" fill="#D1BEB1" />
  <rect x="32" y="32" width="32" height="32" fill="#D5C7B9" />
  <rect x="64" y="32" width="32" height="32" fill="#D6BDAD" />
  <rect x="96" y="32" width="32" height="32" fill="#C7D5C9" />
  <rect x="128" y="32" width="32" height="32" fill="#BEC5BB" />
  <rect x="160" y="32" width="32" height="32" fill="#D2D0CB" />
  <rect x="192" y="32" width="32" height="32" fill="#B0B6B8" />
  <rect x="224" y="32" width="32" height="32" fill="#D0CEDB" />
  <rect x="0" y="64" width="32" height="32" fill="#F5D6B2" />
  <rect x="32" y="64" width="32" height="32" fill="#EABAB8" />
  <rect x="64" y="64" width="32" height="32" fill="#B49386" />
  <rect x="96" y="64" width="32" height="32" fill="#C2B7A4" />
  <rect x="128" y="64" width="32" height="32" fill="#D5C2B4" />
  <rect x="160" y="64" width="32" height="32" fill="#B7C6C9" />
  <rect x="192" y="64" width="32" height="32" fill="#9DA3A8" />
  <rect x="224" y="64" width="32" height="32" fill="#C6C7D1" />
  <rect x="0" y="96" width="32" height="32" fill="#B2D0B3" />
  <rect x="32" y="96" width="32" height="32" fill="#CFD4C5" />
  <rect x="64" y="96" width="32" height="32" fill="#B2C6C5" />
  <rect x="96" y="96" width="32" height="32" fill="#DAE1E4" />
  <rect x="128" y="96" width="32" height="32" fill="#D9C4A8" />
  <rect x="160" y="96" width="32" height="32" fill="#B0A89B" />
  <rect x="192" y="96" width="32" height="32" fill="#AE978E" />
  <rect x="224" y="96" width="32" height="32" fill="#B2B9C6" />
  <rect x="0" y="128" width="32" height="32" fill="#A5B3B4" />
  <rect x="32" y="128" width="32" height="32" fill="#D9D0C0" />
  <rect x="64" y="128" width="32" height="32" fill="#B0D9C0" />
  <rect x="96" y="128" width="32" height="32" fill="#B2B7C4" />
  <rect x="128" y="128" width="32" height="32" fill="#A6C8B6" />
  <rect x="160" y="128" width="32" height="32" fill="#A3C6D8" />
  <rect x="192" y="128" width="32" height="32" fill="#D3C8B7" />
  <rect x="224" y="128" width="32" height="32" fill="#DAE1D0" />
  <rect x="0" y="160" width="32" height="32" fill="#C6B4B1" />
  <rect x="32" y="160" width="32" height="32" fill="#F2E8D5" />
  <rect x="64" y="160" width="32" height="32" fill="#C1B5AD" />
  <rect x="96" y="160" width="32" height="32" fill="#B7B6BD" />
  <rect x="128" y="160" width="32" height="32" fill="#B2C9C2" />
  <rect x="160" y="160" width="32" height="32" fill="#D9C8A0" />
  <rect x="192" y="160" width="32" height="32" fill="#E0D2C8" />
  <rect x="224" y="160" width="32" height="32" fill="#C6C4D0" />
  <rect x="0" y="192" width="32" height="32" fill="#D3C8D3" />
  <rect x="32" y="192" width="32" height="32" fill="#C2B5B5" />
  <rect x="64" y="192" width="32" height="32" fill="#E2C8C1" />
  <rect x="96" y="192" width="32" height="32" fill="#E1B7AB" />
  <rect x="128" y="192" width="32" height="32" fill="#D2D1C8" />
  <rect x="160" y="192" width="32" height="32" fill="#DAC4B6" />
  <rect x="192" y="192" width="32" height="32" fill="#D3CED1" />
  <rect x="224" y="192" width="32" height="32" fill="#C6C1E4" />
  <rect x="0" y="224" width="32" height="32" fill="#B1B0BB" />
  <rect x="32" y="224" width="32" height="32" fill="#A6A697" />
  <rect x="64" y="224" width="32" height="32" fill="#B5B8C0" />
  <rect x="96" y="224" width="32" height="32" fill="#B5C4BF" />
  <rect x="128" y="224" width="32" height="32" fill="#C9B1B2" />
  <rect x="160" y="224" width="32" height="32" fill="#D5C6C8" />
  <rect x="192" y="224" width="32" height="32" fill="#B8C0B4" />
  <rect x="224" y="224" width="32" height="32" fill="#E6D1C0" />
</svg>
