<svg xmlns="http://www.w3.org/2000/svg" width="256" height="256" viewBox="0 0 256 256" shape-rendering="crispEdges" role="img" aria-labelledby="title desc">
  <title id="title">Echo of Assurance</title>
  <desc id="desc">This piece explores the emotional duality between trust and suspicion, illustrating a split between stable patterns and disrupted noise. The left side utilizes soft hues of pink and gray, suggesting warmth and openness, while the right side employs darker tones of red and maroon to invoke suspicion and tension. The chaos is introduced through broken pixels, serving as imperfections that highlight feelings of fragmentation and vulnerability. The main contrast occurs along a weighted diagonal, reinforcing the emotional tension between security and doubt, resulting in a rhythmic echo of unresolved dynamics.</desc>
  <rect width="256" height="256" fill="#FFFFFF" />
  <rect x="0" y="0" width="32" height="32" fill="#FFC0CB" />
  <rect x="32" y="0" width="32" height="32" fill="#FFB6C1" />
  <rect x="64" y="0" width="32" height="32" fill="#D3D3D3" />
  <rect x="96" y="0" width="32" height="32" fill="#E6E6FA" />
  <rect x="128" y="0" width="32" height="32" fill="#FFFFFF" />
  <rect x="160" y="0" width="32" height="32" fill="#F5F5F5" />
  <rect x="192" y="0" width="32" height="32" fill="#F0E68C" />
  <rect x="224" y="0" width="32" height="32" fill="#D3D3D3" />
  <rect x="0" y="32" width="32" height="32" fill="#FF69B4" />
  <rect x="32" y="32" width="32" height="32" fill="#FF1493" />
  <rect x="64" y="32" width="32" height="32" fill="#BEBEBE" />
  <rect x="96" y="32" width="32" height="32" fill="#DDA0DD" />
  <rect x="128" y="32" width="32" height="32" fill="#C0C0C0" />
  <rect x="160" y="32" width="32" height="32" fill="#A9A9A9" />
  <rect x="192" y="32" width="32" height="32" fill="#FFD700" />
  <rect x="224" y="32" width="32" height="32" fill="#F0F8FF" />
  <rect x="0" y="64" width="32" height="32" fill="#FF4500" />
  <rect x="32" y="64" width="32" height="32" fill="#A52A2A" />
  <rect x="64" y="64" width="32" height="32" fill="#DCDCDC" />
  <rect x="96" y="64" width="32" height="32" fill="#C0C0C0" />
  <rect x="128" y="64" width="32" height="32" fill="#A9A9A9" />
  <rect x="160" y="64" width="32" height="32" fill="#808080" />
  <rect x="192" y="64" width="32" height="32" fill="#696969" />
  <rect x="224" y="64" width="32" height="32" fill="#4B0082" />
  <rect x="0" y="96" width="32" height="32" fill="#B22222" />
  <rect x="32" y="96" width="32" height="32" fill="#8B0000" />
  <rect x="64" y="96" width="32" height="32" fill="#F5F5F5" />
  <rect x="96" y="96" width="32" height="32" fill="#D3D3D3" />
  <rect x="128" y="96" width="32" height="32" fill="#C0C0C0" />
  <rect x="160" y="96" width="32" height="32" fill="#696969" />
  <rect x="192" y="96" width="32" height="32" fill="#000000" />
  <rect x="224" y="96" width="32" height="32" fill="#000000" />
  <rect x="0" y="128" width="32" height="32" fill="#DC143C" />
  <rect x="32" y="128" width="32" height="32" fill="#B22222" />
  <rect x="64" y="128" width="32" height="32" fill="#C0C0C0" />
  <rect x="96" y="128" width="32" height="32" fill="#DCDCDC" />
  <rect x="128" y="128" width="32" height="32" fill="#C0C0C0" />
  <rect x="160" y="128" width="32" height="32" fill="#8B0000" />
  <rect x="192" y="128" width="32" height="32" fill="#7B68EE" />
  <rect x="224" y="128" width="32" height="32" fill="#5F9EA0" />
  <rect x="0" y="160" width="32" height="32" fill="#FF6347" />
  <rect x="32" y="160" width="32" height="32" fill="#FF4500" />
  <rect x="64" y="160" width="32" height="32" fill="#A9A9A9" />
  <rect x="96" y="160" width="32" height="32" fill="#696969" />
  <rect x="128" y="160" width="32" height="32" fill="#808080" />
  <rect x="160" y="160" width="32" height="32" fill="#AA0000" />
  <rect x="192" y="160" width="32" height="32" fill="#000000" />
  <rect x="224" y="160" width="32" height="32" fill="#000000" />
  <rect x="0" y="192" width="32" height="32" fill="#FF0000" />
  <rect x="32" y="192" width="32" height="32" fill="#B22222" />
  <rect x="64" y="192" width="32" height="32" fill="#F5F5F5" />
  <rect x="96" y="192" width="32" height="32" fill="#DCDCDC" />
  <rect x="128" y="192" width="32" height="32" fill="#C0C0C0" />
  <rect x="160" y="192" width="32" height="32" fill="#545454" />
  <rect x="192" y="192" width="32" height="32" fill="#4B0082" />
  <rect x="224" y="192" width="32" height="32" fill="#8B008B" />
  <rect x="0" y="224" width="32" height="32" fill="#450000" />
  <rect x="32" y="224" width="32" height="32" fill="#2F2F2F" />
  <rect x="64" y="224" width="32" height="32" fill="#000000" />
  <rect x="96" y="224" width="32" height="32" fill="#000000" />
  <rect x="128" y="224" width="32" height="32" fill="#000000" />
  <rect x="160" y="224" width="32" height="32" fill="#000000" />
  <rect x="192" y="224" width="32" height="32" fill="#000000" />
  <rect x="224" y="224" width="32" height="32" fill="#000000" />
</svg>
