<svg xmlns="http://www.w3.org/2000/svg" width="256" height="256" viewBox="0 0 256 256" shape-rendering="crispEdges" role="img" aria-labelledby="title desc">
  <title id="title">Symmetry in Fracture</title>
  <desc id="desc">The emotional tone juxtaposes envy and gratitude, establishing an ongoing internal battle. The palette uses deep blacks and pale blues to symbolize darkness and clarity, representing envy and gratitude respectively. The striking contrast between black and blue, alongside the imperfect zigzag pattern created by broken pixels, highlights the conflict between these emotions. The layout emphasizes a diagonal fall, suggesting a descent from chaotic envy towards the clarity of gratitude. Overall, the composition reflects unresolved tension and contrasts, inviting viewers to contemplate the duality of these sentiments.</desc>
  <rect width="256" height="256" fill="#FFFFFF" />
  <rect x="0" y="0" width="32" height="32" fill="#000000" />
  <rect x="32" y="0" width="32" height="32" fill="#000000" />
  <rect x="64" y="0" width="32" height="32" fill="#005BB5" />
  <rect x="96" y="0" width="32" height="32" fill="#005BB5" />
  <rect x="128" y="0" width="32" height="32" fill="#005BB5" />
  <rect x="160" y="0" width="32" height="32" fill="#000000" />
  <rect x="192" y="0" width="32" height="32" fill="#000000" />
  <rect x="224" y="0" width="32" height="32" fill="#F4F4F4" />
  <rect x="0" y="32" width="32" height="32" fill="#000000" />
  <rect x="32" y="32" width="32" height="32" fill="#005BB5" />
  <rect x="64" y="32" width="32" height="32" fill="#005BB5" />
  <rect x="96" y="32" width="32" height="32" fill="#005BB5" />
  <rect x="128" y="32" width="32" height="32" fill="#000000" />
  <rect x="160" y="32" width="32" height="32" fill="#000000" />
  <rect x="192" y="32" width="32" height="32" fill="#000000" />
  <rect x="224" y="32" width="32" height="32" fill="#F4F4F4" />
  <rect x="0" y="64" width="32" height="32" fill="#005BB5" />
  <rect x="32" y="64" width="32" height="32" fill="#005BB5" />
  <rect x="64" y="64" width="32" height="32" fill="#005BB5" />
  <rect x="96" y="64" width="32" height="32" fill="#000000" />
  <rect x="128" y="64" width="32" height="32" fill="#000000" />
  <rect x="160" y="64" width="32" height="32" fill="#005BB5" />
  <rect x="192" y="64" width="32" height="32" fill="#005BB5" />
  <rect x="224" y="64" width="32" height="32" fill="#F4F4F4" />
  <rect x="0" y="96" width="32" height="32" fill="#005BB5" />
  <rect x="32" y="96" width="32" height="32" fill="#005BB5" />
  <rect x="64" y="96" width="32" height="32" fill="#000000" />
  <rect x="96" y="96" width="32" height="32" fill="#F4F4F4" />
  <rect x="128" y="96" width="32" height="32" fill="#005BB5" />
  <rect x="160" y="96" width="32" height="32" fill="#005BB5" />
  <rect x="192" y="96" width="32" height="32" fill="#000000" />
  <rect x="224" y="96" width="32" height="32" fill="#F4F4F4" />
  <rect x="0" y="128" width="32" height="32" fill="#000000" />
  <rect x="32" y="128" width="32" height="32" fill="#F4F4F4" />
  <rect x="64" y="128" width="32" height="32" fill="#F4F4F4" />
  <rect x="96" y="128" width="32" height="32" fill="#005BB5" />
  <rect x="128" y="128" width="32" height="32" fill="#005BB5" />
  <rect x="160" y="128" width="32" height="32" fill="#005BB5" />
  <rect x="192" y="128" width="32" height="32" fill="#F4F4F4" />
  <rect x="224" y="128" width="32" height="32" fill="#000000" />
  <rect x="0" y="160" width="32" height="32" fill="#000000" />
  <rect x="32" y="160" width="32" height="32" fill="#000000" />
  <rect x="64" y="160" width="32" height="32" fill="#005BB5" />
  <rect x="96" y="160" width="32" height="32" fill="#F4F4F4" />
  <rect x="128" y="160" width="32" height="32" fill="#F4F4F4" />
  <rect x="160" y="160" width="32" height="32" fill="#F4F4F4" />
  <rect x="192" y="160" width="32" height="32" fill="#000000" />
  <rect x="224" y="160" width="32" height="32" fill="#000000" />
  <rect x="0" y="192" width="32" height="32" fill="#F4F4F4" />
  <rect x="32" y="192" width="32" height="32" fill="#000000" />
  <rect x="64" y="192" width="32" height="32" fill="#000000" />
  <rect x="96" y="192" width="32" height="32" fill="#005BB5" />
  <rect x="128" y="192" width="32" height="32" fill="#005BB5" />
  <rect x="160" y="192" width="32" height="32" fill="#F4F4F4" />
  <rect x="192" y="192" width="32" height="32" fill="#F4F4F4" />
  <rect x="224" y="192" width="32" height="32" fill="#000000" />
  <rect x="0" y="224" width="32" height="32" fill="#005BB5" />
  <rect x="32" y="224" width="32" height="32" fill="#005BB5" />
  <rect x="64" y="224" width="32" height="32" fill="#000000" />
  <rect x="96" y="224" width="32" height="32" fill="#000000" />
  <rect x="128" y="224" width="32" height="32" fill="#000000" />
  <rect x="160" y="224" width="32" height="32" fill="#005BB5" />
  <rect x="192" y="224" width="32" height="32" fill="#005BB5" />
  <rect x="224" y="224" width="32" height="32" fill="#F4F4F4" />
</svg>
