<svg xmlns="http://www.w3.org/2000/svg" width="256" height="256" viewBox="0 0 256 256" shape-rendering="crispEdges" role="img" aria-labelledby="title desc">
  <title id="title">Echoing Tensions</title>
  <desc id="desc">The piece encapsulates the emotional tension between rage and calm through contrasting color choices. A palette of explosive reds signifies rage, while soothing pale blues represent calm. The placement features thick red threads explosively interrupting softer blue bands, creating a dynamic collision in the center. The black edges contain the chaos, while white highlights hint at quiet spaces, suggesting moments of clarity amidst the turmoil. This interplay mirrors the seed's themes, portraying an abstract narrative of emotional conflict and resolution.</desc>
  <rect width="256" height="256" fill="#FFFFFF" />
  <rect x="0" y="0" width="32" height="32" fill="#FF0000" />
  <rect x="32" y="0" width="32" height="32" fill="#FF4D00" />
  <rect x="64" y="0" width="32" height="32" fill="#FF9900" />
  <rect x="96" y="0" width="32" height="32" fill="#FFFFFF" />
  <rect x="128" y="0" width="32" height="32" fill="#99CCFF" />
  <rect x="160" y="0" width="32" height="32" fill="#B2E0FF" />
  <rect x="192" y="0" width="32" height="32" fill="#005B8B" />
  <rect x="224" y="0" width="32" height="32" fill="#002F4B" />
  <rect x="0" y="32" width="32" height="32" fill="#FF0000" />
  <rect x="32" y="32" width="32" height="32" fill="#FF4D00" />
  <rect x="64" y="32" width="32" height="32" fill="#FFFFFF" />
  <rect x="96" y="32" width="32" height="32" fill="#99CCFF" />
  <rect x="128" y="32" width="32" height="32" fill="#99CCFF" />
  <rect x="160" y="32" width="32" height="32" fill="#005B8B" />
  <rect x="192" y="32" width="32" height="32" fill="#002F4B" />
  <rect x="224" y="32" width="32" height="32" fill="#000000" />
  <rect x="0" y="64" width="32" height="32" fill="#FF4D00" />
  <rect x="32" y="64" width="32" height="32" fill="#FFFFFF" />
  <rect x="64" y="64" width="32" height="32" fill="#FFFFFF" />
  <rect x="96" y="64" width="32" height="32" fill="#B2E0FF" />
  <rect x="128" y="64" width="32" height="32" fill="#005B8B" />
  <rect x="160" y="64" width="32" height="32" fill="#000000" />
  <rect x="192" y="64" width="32" height="32" fill="#000000" />
  <rect x="224" y="64" width="32" height="32" fill="#000000" />
  <rect x="0" y="96" width="32" height="32" fill="#FF9900" />
  <rect x="32" y="96" width="32" height="32" fill="#FF4D00" />
  <rect x="64" y="96" width="32" height="32" fill="#99CCFF" />
  <rect x="96" y="96" width="32" height="32" fill="#B2E0FF" />
  <rect x="128" y="96" width="32" height="32" fill="#005B8B" />
  <rect x="160" y="96" width="32" height="32" fill="#002F4B" />
  <rect x="192" y="96" width="32" height="32" fill="#000000" />
  <rect x="224" y="96" width="32" height="32" fill="#000000" />
  <rect x="0" y="128" width="32" height="32" fill="#FFFFFF" />
  <rect x="32" y="128" width="32" height="32" fill="#B2E0FF" />
  <rect x="64" y="128" width="32" height="32" fill="#005B8B" />
  <rect x="96" y="128" width="32" height="32" fill="#002F4B" />
  <rect x="128" y="128" width="32" height="32" fill="#000000" />
  <rect x="160" y="128" width="32" height="32" fill="#000000" />
  <rect x="192" y="128" width="32" height="32" fill="#000000" />
  <rect x="224" y="128" width="32" height="32" fill="#000000" />
  <rect x="0" y="160" width="32" height="32" fill="#005B8B" />
  <rect x="32" y="160" width="32" height="32" fill="#005B8B" />
  <rect x="64" y="160" width="32" height="32" fill="#002F4B" />
  <rect x="96" y="160" width="32" height="32" fill="#000000" />
  <rect x="128" y="160" width="32" height="32" fill="#000000" />
  <rect x="160" y="160" width="32" height="32" fill="#000000" />
  <rect x="192" y="160" width="32" height="32" fill="#000000" />
  <rect x="224" y="160" width="32" height="32" fill="#000000" />
  <rect x="0" y="192" width="32" height="32" fill="#99CCFF" />
  <rect x="32" y="192" width="32" height="32" fill="#99CCFF" />
  <rect x="64" y="192" width="32" height="32" fill="#005B8B" />
  <rect x="96" y="192" width="32" height="32" fill="#000000" />
  <rect x="128" y="192" width="32" height="32" fill="#000000" />
  <rect x="160" y="192" width="32" height="32" fill="#000000" />
  <rect x="192" y="192" width="32" height="32" fill="#000000" />
  <rect x="224" y="192" width="32" height="32" fill="#000000" />
  <rect x="0" y="224" width="32" height="32" fill="#000000" />
  <rect x="32" y="224" width="32" height="32" fill="#000000" />
  <rect x="64" y="224" width="32" height="32" fill="#000000" />
  <rect x="96" y="224" width="32" height="32" fill="#000000" />
  <rect x="128" y="224" width="32" height="32" fill="#000000" />
  <rect x="160" y="224" width="32" height="32" fill="#000000" />
  <rect x="192" y="224" width="32" height="32" fill="#000000" />
  <rect x="224" y="224" width="32" height="32" fill="#000000" />
</svg>
