<svg xmlns="http://www.w3.org/2000/svg" width="256" height="256" viewBox="0 0 256 256" shape-rendering="crispEdges" role="img" aria-labelledby="title desc">
  <title id="title">Echoes of Conflict</title>
  <desc id="desc">The emotional tone embodies a tension between longing and resolve—an inner struggle mirrored through a contrasting color palette of warm and cool tones. The combination of lush greens and delicate creams suggests growth and peace, while the deeper olives and golds indicate a solid foundation and determination. The main collision occurs at the center, where broken dot patterns intermingle with a lattice design—representing the push and pull of these emotional states. The negative space enhances the feeling of longing, emphasizing the desire for resolution amidst chaos.</desc>
  <rect width="256" height="256" fill="#FFFFFF" />
  <rect x="0" y="0" width="32" height="32" fill="#A3D3B1" />
  <rect x="32" y="0" width="32" height="32" fill="#CEFF99" />
  <rect x="64" y="0" width="32" height="32" fill="#F5D690" />
  <rect x="96" y="0" width="32" height="32" fill="#B3A167" />
  <rect x="128" y="0" width="32" height="32" fill="#D5E1A8" />
  <rect x="160" y="0" width="32" height="32" fill="#FFF9C1" />
  <rect x="192" y="0" width="32" height="32" fill="#FFEDAA" />
  <rect x="224" y="0" width="32" height="32" fill="#EF6F3A" />
  <rect x="0" y="32" width="32" height="32" fill="#E2DECA" />
  <rect x="32" y="32" width="32" height="32" fill="#A3D3B1" />
  <rect x="64" y="32" width="32" height="32" fill="#B7D3B5" />
  <rect x="96" y="32" width="32" height="32" fill="#A8B547" />
  <rect x="128" y="32" width="32" height="32" fill="#C4A32A" />
  <rect x="160" y="32" width="32" height="32" fill="#383A6B" />
  <rect x="192" y="32" width="32" height="32" fill="#5A74A5" />
  <rect x="224" y="32" width="32" height="32" fill="#1F2730" />
  <rect x="0" y="64" width="32" height="32" fill="#555D3A" />
  <rect x="32" y="64" width="32" height="32" fill="#E0F7CE" />
  <rect x="64" y="64" width="32" height="32" fill="#F7C1A2" />
  <rect x="96" y="64" width="32" height="32" fill="#6F8923" />
  <rect x="128" y="64" width="32" height="32" fill="#FFBA3D" />
  <rect x="160" y="64" width="32" height="32" fill="#B6B7B0" />
  <rect x="192" y="64" width="32" height="32" fill="#98AAB3" />
  <rect x="224" y="64" width="32" height="32" fill="#EBD1B6" />
  <rect x="0" y="96" width="32" height="32" fill="#7D8E66" />
  <rect x="32" y="96" width="32" height="32" fill="#FFC1A1" />
  <rect x="64" y="96" width="32" height="32" fill="#853B56" />
  <rect x="96" y="96" width="32" height="32" fill="#F8E8C0" />
  <rect x="128" y="96" width="32" height="32" fill="#E6ECD3" />
  <rect x="160" y="96" width="32" height="32" fill="#C7D79E" />
  <rect x="192" y="96" width="32" height="32" fill="#4C4F32" />
  <rect x="224" y="96" width="32" height="32" fill="#805F30" />
  <rect x="0" y="128" width="32" height="32" fill="#D1C67E" />
  <rect x="32" y="128" width="32" height="32" fill="#E2B5B2" />
  <rect x="64" y="128" width="32" height="32" fill="#A7B0A5" />
  <rect x="96" y="128" width="32" height="32" fill="#F4C8A1" />
  <rect x="128" y="128" width="32" height="32" fill="#BBE9C3" />
  <rect x="160" y="128" width="32" height="32" fill="#B8D3D6" />
  <rect x="192" y="128" width="32" height="32" fill="#7E7C4D" />
  <rect x="224" y="128" width="32" height="32" fill="#5A5F73" />
  <rect x="0" y="160" width="32" height="32" fill="#79A009" />
  <rect x="32" y="160" width="32" height="32" fill="#A3CBA7" />
  <rect x="64" y="160" width="32" height="32" fill="#F0E2A1" />
  <rect x="96" y="160" width="32" height="32" fill="#B1A747" />
  <rect x="128" y="160" width="32" height="32" fill="#BC661F" />
  <rect x="160" y="160" width="32" height="32" fill="#EFD7A3" />
  <rect x="192" y="160" width="32" height="32" fill="#8A9B74" />
  <rect x="224" y="160" width="32" height="32" fill="#B8B3B5" />
  <rect x="0" y="192" width="32" height="32" fill="#FFF3D0" />
  <rect x="32" y="192" width="32" height="32" fill="#C4E5A9" />
  <rect x="64" y="192" width="32" height="32" fill="#C9C8D9" />
  <rect x="96" y="192" width="32" height="32" fill="#A7D7D4" />
  <rect x="128" y="192" width="32" height="32" fill="#7C977A" />
  <rect x="160" y="192" width="32" height="32" fill="#FFD350" />
  <rect x="192" y="192" width="32" height="32" fill="#A9A230" />
  <rect x="224" y="192" width="32" height="32" fill="#4C4C61" />
  <rect x="0" y="224" width="32" height="32" fill="#D6F4E1" />
  <rect x="32" y="224" width="32" height="32" fill="#BECBB5" />
  <rect x="64" y="224" width="32" height="32" fill="#A8D2E5" />
  <rect x="96" y="224" width="32" height="32" fill="#5B5983" />
  <rect x="128" y="224" width="32" height="32" fill="#C9D3B8" />
  <rect x="160" y="224" width="32" height="32" fill="#8B9E6B" />
  <rect x="192" y="224" width="32" height="32" fill="#2C2A3B" />
  <rect x="224" y="224" width="32" height="32" fill="#3F5A67" />
</svg>
