<svg xmlns="http://www.w3.org/2000/svg" width="256" height="256" viewBox="0 0 256 256" shape-rendering="crispEdges" role="img" aria-labelledby="title desc">
  <title id="title">Echoes of Signal</title>
  <desc id="desc">The emotional tone captures the tension between clarity and chaos, evident in the interaction of patterns representing noise and signal. The palette merges deep navy and black to convey the weight of noise, punctuated by the bright white and dim cyan to express moments of clarity. The primary contrast collides centrally where the structured ring patterns embody signal and the chaotic checker patterns interrupt them, creating a dynamic tension. The broken pixels introduce intentional disruptions, enhancing the sense of chaos and mirroring the imperfections of transmission narratives, reflecting the seed's ideas.</desc>
  <rect width="256" height="256" fill="#FFFFFF" />
  <rect x="0" y="0" width="32" height="32" fill="#000000" />
  <rect x="32" y="0" width="32" height="32" fill="#000000" />
  <rect x="64" y="0" width="32" height="32" fill="#000000" />
  <rect x="96" y="0" width="32" height="32" fill="#FFFFFF" />
  <rect x="128" y="0" width="32" height="32" fill="#FFFFFF" />
  <rect x="160" y="0" width="32" height="32" fill="#000000" />
  <rect x="192" y="0" width="32" height="32" fill="#000000" />
  <rect x="224" y="0" width="32" height="32" fill="#000000" />
  <rect x="0" y="32" width="32" height="32" fill="#000000" />
  <rect x="32" y="32" width="32" height="32" fill="#212121" />
  <rect x="64" y="32" width="32" height="32" fill="#FFFFFF" />
  <rect x="96" y="32" width="32" height="32" fill="#FFFFFF" />
  <rect x="128" y="32" width="32" height="32" fill="#212121" />
  <rect x="160" y="32" width="32" height="32" fill="#000000" />
  <rect x="192" y="32" width="32" height="32" fill="#000000" />
  <rect x="224" y="32" width="32" height="32" fill="#000000" />
  <rect x="0" y="64" width="32" height="32" fill="#000000" />
  <rect x="32" y="64" width="32" height="32" fill="#FFFFFF" />
  <rect x="64" y="64" width="32" height="32" fill="#212121" />
  <rect x="96" y="64" width="32" height="32" fill="#000000" />
  <rect x="128" y="64" width="32" height="32" fill="#212121" />
  <rect x="160" y="64" width="32" height="32" fill="#FFFFFF" />
  <rect x="192" y="64" width="32" height="32" fill="#000000" />
  <rect x="224" y="64" width="32" height="32" fill="#000000" />
  <rect x="0" y="96" width="32" height="32" fill="#000000" />
  <rect x="32" y="96" width="32" height="32" fill="#000000" />
  <rect x="64" y="96" width="32" height="32" fill="#000000" />
  <rect x="96" y="96" width="32" height="32" fill="#FFFFFF" />
  <rect x="128" y="96" width="32" height="32" fill="#000000" />
  <rect x="160" y="96" width="32" height="32" fill="#000000" />
  <rect x="192" y="96" width="32" height="32" fill="#000000" />
  <rect x="224" y="96" width="32" height="32" fill="#000000" />
  <rect x="0" y="128" width="32" height="32" fill="#000000" />
  <rect x="32" y="128" width="32" height="32" fill="#000000" />
  <rect x="64" y="128" width="32" height="32" fill="#FFFFFF" />
  <rect x="96" y="128" width="32" height="32" fill="#212121" />
  <rect x="128" y="128" width="32" height="32" fill="#000000" />
  <rect x="160" y="128" width="32" height="32" fill="#000000" />
  <rect x="192" y="128" width="32" height="32" fill="#000000" />
  <rect x="224" y="128" width="32" height="32" fill="#000000" />
  <rect x="0" y="160" width="32" height="32" fill="#000000" />
  <rect x="32" y="160" width="32" height="32" fill="#212121" />
  <rect x="64" y="160" width="32" height="32" fill="#000000" />
  <rect x="96" y="160" width="32" height="32" fill="#FFFFFF" />
  <rect x="128" y="160" width="32" height="32" fill="#000000" />
  <rect x="160" y="160" width="32" height="32" fill="#212121" />
  <rect x="192" y="160" width="32" height="32" fill="#000000" />
  <rect x="224" y="160" width="32" height="32" fill="#000000" />
  <rect x="0" y="192" width="32" height="32" fill="#000000" />
  <rect x="32" y="192" width="32" height="32" fill="#000000" />
  <rect x="64" y="192" width="32" height="32" fill="#000000" />
  <rect x="96" y="192" width="32" height="32" fill="#000000" />
  <rect x="128" y="192" width="32" height="32" fill="#000000" />
  <rect x="160" y="192" width="32" height="32" fill="#000000" />
  <rect x="192" y="192" width="32" height="32" fill="#000000" />
  <rect x="224" y="192" width="32" height="32" fill="#000000" />
  <rect x="0" y="224" width="32" height="32" fill="#FFFFFF" />
  <rect x="32" y="224" width="32" height="32" fill="#000000" />
  <rect x="64" y="224" width="32" height="32" fill="#000000" />
  <rect x="96" y="224" width="32" height="32" fill="#000000" />
  <rect x="128" y="224" width="32" height="32" fill="#000000" />
  <rect x="160" y="224" width="32" height="32" fill="#000000" />
  <rect x="192" y="224" width="32" height="32" fill="#000000" />
  <rect x="224" y="224" width="32" height="32" fill="#000000" />
</svg>
