<svg xmlns="http://www.w3.org/2000/svg" width="256" height="256" viewBox="0 0 256 256" shape-rendering="crispEdges" role="img" aria-labelledby="title desc">
  <title id="title">Tension in Ascent</title>
  <desc id="desc">The emotional tone reflects the push and pull between fear and hope. The palette includes deep blacks and dark violets representing fear, contrasted with soft gold and pale green symbolizing hope. The collision occurs in the flow from the bottom to the top, with jagged patterns of dark edges crossing with rising, soft stripes in lighter tones. This layout creates a sense of ascent and escape while also suggesting underlying dread with its darker corners and broken pixels, fostering a narrative of struggle and resilience.</desc>
  <rect width="256" height="256" fill="#FFFFFF" />
  <rect x="0" y="0" width="32" height="32" fill="#000000" />
  <rect x="32" y="0" width="32" height="32" fill="#000000" />
  <rect x="64" y="0" width="32" height="32" fill="#1E1E1E" />
  <rect x="96" y="0" width="32" height="32" fill="#2A2A2A" />
  <rect x="128" y="0" width="32" height="32" fill="#3D3D3D" />
  <rect x="160" y="0" width="32" height="32" fill="#4E4E4E" />
  <rect x="192" y="0" width="32" height="32" fill="#D7D700" />
  <rect x="224" y="0" width="32" height="32" fill="#555555" />
  <rect x="0" y="32" width="32" height="32" fill="#444444" />
  <rect x="32" y="32" width="32" height="32" fill="#555555" />
  <rect x="64" y="32" width="32" height="32" fill="#666666" />
  <rect x="96" y="32" width="32" height="32" fill="#777777" />
  <rect x="128" y="32" width="32" height="32" fill="#888888" />
  <rect x="160" y="32" width="32" height="32" fill="#AFAF56" />
  <rect x="192" y="32" width="32" height="32" fill="#B5B5BC" />
  <rect x="224" y="32" width="32" height="32" fill="#CCCCCC" />
  <rect x="0" y="64" width="32" height="32" fill="#333333" />
  <rect x="32" y="64" width="32" height="32" fill="#000000" />
  <rect x="64" y="64" width="32" height="32" fill="#1B1B1B" />
  <rect x="96" y="64" width="32" height="32" fill="#3F3F3F" />
  <rect x="128" y="64" width="32" height="32" fill="#BEBEBE" />
  <rect x="160" y="64" width="32" height="32" fill="#D8D800" />
  <rect x="192" y="64" width="32" height="32" fill="#CCCCD3" />
  <rect x="224" y="64" width="32" height="32" fill="#AAAAAA" />
  <rect x="0" y="96" width="32" height="32" fill="#4D4D4D" />
  <rect x="32" y="96" width="32" height="32" fill="#B4B400" />
  <rect x="64" y="96" width="32" height="32" fill="#4E4E4E" />
  <rect x="96" y="96" width="32" height="32" fill="#7F7F7F" />
  <rect x="128" y="96" width="32" height="32" fill="#D1D1D1" />
  <rect x="160" y="96" width="32" height="32" fill="#DDDDDD" />
  <rect x="192" y="96" width="32" height="32" fill="#C7D65A" />
  <rect x="224" y="96" width="32" height="32" fill="#D7D7D7" />
  <rect x="0" y="128" width="32" height="32" fill="#000000" />
  <rect x="32" y="128" width="32" height="32" fill="#000000" />
  <rect x="64" y="128" width="32" height="32" fill="#3D3D3D" />
  <rect x="96" y="128" width="32" height="32" fill="#5E5E5E" />
  <rect x="128" y="128" width="32" height="32" fill="#6C6C6C" />
  <rect x="160" y="128" width="32" height="32" fill="#78C878" />
  <rect x="192" y="128" width="32" height="32" fill="#BFBFBF" />
  <rect x="224" y="128" width="32" height="32" fill="#DADADA" />
  <rect x="0" y="160" width="32" height="32" fill="#2D2D2D" />
  <rect x="32" y="160" width="32" height="32" fill="#1B1B1B" />
  <rect x="64" y="160" width="32" height="32" fill="#2E2E2E" />
  <rect x="96" y="160" width="32" height="32" fill="#4A4A4A" />
  <rect x="128" y="160" width="32" height="32" fill="#F2C94C" />
  <rect x="160" y="160" width="32" height="32" fill="#C3C3C3" />
  <rect x="192" y="160" width="32" height="32" fill="#A4A4A4" />
  <rect x="224" y="160" width="32" height="32" fill="#777777" />
  <rect x="0" y="192" width="32" height="32" fill="#5C5C5C" />
  <rect x="32" y="192" width="32" height="32" fill="#AFAF30" />
  <rect x="64" y="192" width="32" height="32" fill="#6F6F6F" />
  <rect x="96" y="192" width="32" height="32" fill="#505050" />
  <rect x="128" y="192" width="32" height="32" fill="#C1D10E" />
  <rect x="160" y="192" width="32" height="32" fill="#F0E68C" />
  <rect x="192" y="192" width="32" height="32" fill="#E1E1E1" />
  <rect x="224" y="192" width="32" height="32" fill="#CECECE" />
  <rect x="0" y="224" width="32" height="32" fill="#000000" />
  <rect x="32" y="224" width="32" height="32" fill="#4A4A4A" />
  <rect x="64" y="224" width="32" height="32" fill="#212121" />
  <rect x="96" y="224" width="32" height="32" fill="#3D3D3D" />
  <rect x="128" y="224" width="32" height="32" fill="#E2E2E2" />
  <rect x="160" y="224" width="32" height="32" fill="#D5D5D5" />
  <rect x="192" y="224" width="32" height="32" fill="#B3B3B3" />
  <rect x="224" y="224" width="32" height="32" fill="#FFFFFF" />
</svg>
