<svg xmlns="http://www.w3.org/2000/svg" width="256" height="256" viewBox="0 0 256 256" shape-rendering="crispEdges" role="img" aria-labelledby="title desc">
  <title id="title">Echoing Signals</title>
  <desc id="desc">This artwork encapsulates the tension between order and chaos, representing the struggle of a discernible signal amidst a backdrop of static noise. The chosen palette of greens and blues symbolizes clarity and tranquility (signal) against darker greys and blacks that signify confusion and interference (noise). The arrangement features a pronounced upward flow echoing hope with bright accents piercing through denser static interference, creating moments of clarity amidst overwhelming noise. The central collision of bright emerald green against deep black highlights the central struggle, while random placements of static grey introduce imperfection, resonating with the concept of memory and interruption.</desc>
  <rect width="256" height="256" fill="#FFFFFF" />
  <rect x="0" y="0" width="32" height="32" fill="#000000" />
  <rect x="32" y="0" width="32" height="32" fill="#121212" />
  <rect x="64" y="0" width="32" height="32" fill="#0D3B66" />
  <rect x="96" y="0" width="32" height="32" fill="#7DABDA" />
  <rect x="128" y="0" width="32" height="32" fill="#00B2A9" />
  <rect x="160" y="0" width="32" height="32" fill="#D1E8E2" />
  <rect x="192" y="0" width="32" height="32" fill="#E8F1F2" />
  <rect x="224" y="0" width="32" height="32" fill="#FFFFFF" />
  <rect x="0" y="32" width="32" height="32" fill="#101820" />
  <rect x="32" y="32" width="32" height="32" fill="#2E384D" />
  <rect x="64" y="32" width="32" height="32" fill="#1A8D8B" />
  <rect x="96" y="32" width="32" height="32" fill="#71C6B2" />
  <rect x="128" y="32" width="32" height="32" fill="#B0E4E8" />
  <rect x="160" y="32" width="32" height="32" fill="#A0D1D8" />
  <rect x="192" y="32" width="32" height="32" fill="#E4E4E4" />
  <rect x="224" y="32" width="32" height="32" fill="#F3F4F6" />
  <rect x="0" y="64" width="32" height="32" fill="#2E2A29" />
  <rect x="32" y="64" width="32" height="32" fill="#E8A38B" />
  <rect x="64" y="64" width="32" height="32" fill="#C7788C" />
  <rect x="96" y="64" width="32" height="32" fill="#3F888F" />
  <rect x="128" y="64" width="32" height="32" fill="#A32067" />
  <rect x="160" y="64" width="32" height="32" fill="#0D747F" />
  <rect x="192" y="64" width="32" height="32" fill="#B7E6E4" />
  <rect x="224" y="64" width="32" height="32" fill="#FFFFFF" />
  <rect x="0" y="96" width="32" height="32" fill="#FFFFFF" />
  <rect x="32" y="96" width="32" height="32" fill="#B2F4EB" />
  <rect x="64" y="96" width="32" height="32" fill="#C3E0E5" />
  <rect x="96" y="96" width="32" height="32" fill="#00A7C7" />
  <rect x="128" y="96" width="32" height="32" fill="#3F4D92" />
  <rect x="160" y="96" width="32" height="32" fill="#5B9BD5" />
  <rect x="192" y="96" width="32" height="32" fill="#F8F8F8" />
  <rect x="224" y="96" width="32" height="32" fill="#EAE8E9" />
  <rect x="0" y="128" width="32" height="32" fill="#C31D20" />
  <rect x="32" y="128" width="32" height="32" fill="#48C79A" />
  <rect x="64" y="128" width="32" height="32" fill="#383838" />
  <rect x="96" y="128" width="32" height="32" fill="#7A83BF" />
  <rect x="128" y="128" width="32" height="32" fill="#5F84B1" />
  <rect x="160" y="128" width="32" height="32" fill="#D1E8E2" />
  <rect x="192" y="128" width="32" height="32" fill="#F0F2F5" />
  <rect x="224" y="128" width="32" height="32" fill="#A4B3BD" />
  <rect x="0" y="160" width="32" height="32" fill="#F3F1F2" />
  <rect x="32" y="160" width="32" height="32" fill="#3E5B99" />
  <rect x="64" y="160" width="32" height="32" fill="#C5E9D1" />
  <rect x="96" y="160" width="32" height="32" fill="#8AD1E6" />
  <rect x="128" y="160" width="32" height="32" fill="#A4E1E3" />
  <rect x="160" y="160" width="32" height="32" fill="#22AFCF" />
  <rect x="192" y="160" width="32" height="32" fill="#2D3032" />
  <rect x="224" y="160" width="32" height="32" fill="#B0C4D1" />
  <rect x="0" y="192" width="32" height="32" fill="#A1B2BB" />
  <rect x="32" y="192" width="32" height="32" fill="#31393C" />
  <rect x="64" y="192" width="32" height="32" fill="#0D3B66" />
  <rect x="96" y="192" width="32" height="32" fill="#654A8D" />
  <rect x="128" y="192" width="32" height="32" fill="#C5D7D2" />
  <rect x="160" y="192" width="32" height="32" fill="#BCF1E5" />
  <rect x="192" y="192" width="32" height="32" fill="#8AD1E6" />
  <rect x="224" y="192" width="32" height="32" fill="#FFFFFF" />
  <rect x="0" y="224" width="32" height="32" fill="#FFFFFF" />
  <rect x="32" y="224" width="32" height="32" fill="#EAE8E9" />
  <rect x="64" y="224" width="32" height="32" fill="#A8B8BB" />
  <rect x="96" y="224" width="32" height="32" fill="#E2F4F5" />
  <rect x="128" y="224" width="32" height="32" fill="#7DABDA" />
  <rect x="160" y="224" width="32" height="32" fill="#C8D9D0" />
  <rect x="192" y="224" width="32" height="32" fill="#333C45" />
  <rect x="224" y="224" width="32" height="32" fill="#010101" />
</svg>
